M48
; DRILL file KiCad 10.0.0 date 2026-04-03T05:58:42
; FORMAT={-:-/ absolute / metric / decimal}
; #@! TF.CreationDate,2026-04-03T05:58:42+02:00
; #@! TF.GenerationSoftware,Kicad,Pcbnew,10.0.0
; #@! TF.FileFunction,Plated,1,2,PTH
FMAT,2
METRIC
; #@! TA.AperFunction,Plated,PTH,ComponentDrill
T1C1.000
%
G90
G05
T1
X-22.225Y-1.905
X-22.225Y-4.445
X-22.225Y-6.985
X-22.225Y-9.525
X-22.225Y-12.065
X-22.225Y-14.605
X-22.225Y-17.145
X-22.225Y-19.685
X-22.225Y-22.225
X-22.225Y-24.765
X-1.905Y-1.905
X-1.905Y-4.445
X-1.905Y-6.985
X-1.905Y-9.525
X-1.905Y-12.065
X-1.905Y-14.605
X-1.905Y-17.145
X-1.905Y-19.685
X-1.905Y-22.225
X-1.905Y-24.765
M30
