M48
; DRILL file {KiCad 8.0.4} date 2024-09-02T19:49:06+0200
; FORMAT={-:-/ absolute / metric / decimal}
; #@! TF.CreationDate,2024-09-02T19:49:06+02:00
; #@! TF.GenerationSoftware,Kicad,Pcbnew,8.0.4
; #@! TF.FileFunction,Plated,1,2,PTH
FMAT,2
METRIC
; #@! TA.AperFunction,Plated,PTH,ViaDrill
T1C0.400
; #@! TA.AperFunction,Plated,PTH,ComponentDrill
T2C0.900
; #@! TA.AperFunction,Plated,PTH,ComponentDrill
T3C1.100
; #@! TA.AperFunction,Plated,PTH,ComponentDrill
T4C1.190
%
G90
G05
T1
X-51.9Y-39.6
X-46.0Y-5.0
X-43.5Y-39.5
X-42.0Y6.0
X-31.0Y24.0
X-28.0Y-5.0
X-22.0Y6.0
X-19.0Y24.0
X-11.0Y7.0
X-11.0Y2.0
X-3.0Y-14.0
X-3.0Y-20.0
X-3.0Y-32.0
X-3.0Y-37.0
X0.0Y27.0
X1.0Y25.0
X9.0Y27.0
X12.6Y-1.0
X15.0Y25.0
X22.0Y5.0
T2
X-61.0Y42.0
X-61.0Y26.0
X-61.0Y9.0
X-61.0Y-9.0
X-61.0Y-27.0
X-58.46Y42.0
X-58.46Y26.0
X-58.46Y9.0
X-58.46Y-9.0
X-58.46Y-27.0
X-38.0Y42.0
X-38.0Y26.0
X-38.0Y9.0
X-38.0Y-9.0
X-38.0Y-27.0
X-35.46Y42.0
X-35.46Y26.0
X-35.46Y9.0
X-35.46Y-9.0
X-35.46Y-27.0
X34.0Y42.0
X34.0Y26.0
X34.275Y9.0
X34.275Y-9.0
X34.275Y-27.0
X36.54Y42.0
X36.54Y26.0
X36.815Y9.0
X36.815Y-9.0
X36.815Y-27.0
X59.0Y42.0
X59.0Y26.0
X59.0Y9.0
X59.0Y-9.0
X59.0Y-28.0
X61.54Y42.0
X61.54Y26.0
X61.54Y9.0
X61.54Y-9.0
X61.54Y-28.0
T3
X-63.25Y36.25
X-63.25Y31.75
X-63.25Y20.25
X-63.25Y15.75
X-63.25Y3.25
X-63.25Y-1.25
X-63.25Y-14.75
X-63.25Y-19.25
X-63.25Y-32.75
X-63.25Y-37.25
X-56.75Y36.25
X-56.75Y31.75
X-56.75Y20.25
X-56.75Y15.75
X-56.75Y3.25
X-56.75Y-1.25
X-56.75Y-14.75
X-56.75Y-19.25
X-56.75Y-32.75
X-56.75Y-37.25
X-40.25Y36.25
X-40.25Y31.75
X-40.25Y20.25
X-40.25Y15.75
X-40.25Y3.25
X-40.25Y-1.25
X-40.25Y-14.75
X-40.25Y-19.25
X-40.25Y-32.75
X-40.25Y-37.25
X-33.75Y36.25
X-33.75Y31.75
X-33.75Y20.25
X-33.75Y15.75
X-33.75Y3.25
X-33.75Y-1.25
X-33.75Y-14.75
X-33.75Y-19.25
X-33.75Y-32.75
X-33.75Y-37.25
X32.5Y-32.75
X32.5Y-37.25
X32.75Y36.25
X32.75Y31.75
X32.75Y20.25
X32.75Y15.75
X32.75Y3.25
X32.75Y-1.25
X32.75Y-14.75
X32.75Y-19.25
X39.0Y-32.75
X39.0Y-37.25
X39.25Y36.25
X39.25Y31.75
X39.25Y20.25
X39.25Y15.75
X39.25Y3.25
X39.25Y-1.25
X39.25Y-14.75
X39.25Y-19.25
X57.75Y36.25
X57.75Y31.75
X57.75Y20.25
X57.75Y15.75
X57.75Y3.25
X57.75Y-1.25
X57.75Y-14.75
X57.75Y-19.25
X57.75Y-32.75
X57.75Y-37.25
X64.25Y36.25
X64.25Y31.75
X64.25Y20.25
X64.25Y15.75
X64.25Y3.25
X64.25Y-1.25
X64.25Y-14.75
X64.25Y-19.25
X64.25Y-32.75
X64.25Y-37.25
T4
X-4.81Y31.02
X-2.27Y31.02
X0.27Y31.02
X2.81Y31.02
M30
