%TF.GenerationSoftware,KiCad,Pcbnew,9.0.6*%
%TF.CreationDate,2025-12-24T17:35:59+01:00*%
%TF.ProjectId,Controller-2040,436f6e74-726f-46c6-9c65-722d32303430,rev?*%
%TF.SameCoordinates,PX7735940PY2bde780*%
%TF.FileFunction,Copper,L2,Bot*%
%TF.FilePolarity,Positive*%
%FSLAX46Y46*%
G04 Gerber Fmt 4.6, Leading zero omitted, Abs format (unit mm)*
G04 Created by KiCad (PCBNEW 9.0.6) date 2025-12-24 17:35:59*
%MOMM*%
%LPD*%
G01*
G04 APERTURE LIST*
G04 Aperture macros list*
%AMRoundRect*
0 Rectangle with rounded corners*
0 $1 Rounding radius*
0 $2 $3 $4 $5 $6 $7 $8 $9 X,Y pos of 4 corners*
0 Add a 4 corners polygon primitive as box body*
4,1,4,$2,$3,$4,$5,$6,$7,$8,$9,$2,$3,0*
0 Add four circle primitives for the rounded corners*
1,1,$1+$1,$2,$3*
1,1,$1+$1,$4,$5*
1,1,$1+$1,$6,$7*
1,1,$1+$1,$8,$9*
0 Add four rect primitives between the rounded corners*
20,1,$1+$1,$2,$3,$4,$5,0*
20,1,$1+$1,$4,$5,$6,$7,0*
20,1,$1+$1,$6,$7,$8,$9,0*
20,1,$1+$1,$8,$9,$2,$3,0*%
G04 Aperture macros list end*
%TA.AperFunction,ComponentPad*%
%ADD10RoundRect,0.250000X-0.350000X-0.625000X0.350000X-0.625000X0.350000X0.625000X-0.350000X0.625000X0*%
%TD*%
%TA.AperFunction,ComponentPad*%
%ADD11O,1.200000X1.750000*%
%TD*%
%TA.AperFunction,ComponentPad*%
%ADD12R,1.508000X1.508000*%
%TD*%
%TA.AperFunction,ComponentPad*%
%ADD13C,1.508000*%
%TD*%
%TA.AperFunction,ViaPad*%
%ADD14C,0.600000*%
%TD*%
%TA.AperFunction,Conductor*%
%ADD15C,0.304800*%
%TD*%
G04 APERTURE END LIST*
D10*
%TO.P,J1,1,Pin_1*%
%TO.N,/GND*%
X-31000000Y-31750000D03*
D11*
%TO.P,J1,2,Pin_2*%
%TO.N,/VCC*%
X-29000000Y-31750000D03*
%TO.P,J1,3,Pin_3*%
%TO.N,/SDA*%
X-27000000Y-31750000D03*
%TO.P,J1,4,Pin_4*%
%TO.N,/SCL*%
X-25000000Y-31750000D03*
%TD*%
D10*
%TO.P,J2,1,Pin_1*%
%TO.N,/GND*%
X-11500000Y-31750000D03*
D11*
%TO.P,J2,2,Pin_2*%
%TO.N,/VCC*%
X-9500000Y-31750000D03*
%TO.P,J2,3,Pin_3*%
%TO.N,/SDA*%
X-7500000Y-31750000D03*
%TO.P,J2,4,Pin_4*%
%TO.N,/SCL*%
X-5500000Y-31750000D03*
%TD*%
D12*
%TO.P,U1,1,GP0*%
%TO.N,unconnected-(U1-GP0-Pad1)*%
X-10300000Y-1400000D03*
D13*
%TO.P,U1,2,GP1*%
%TO.N,unconnected-(U1-GP1-Pad2)*%
X-10300000Y-3940000D03*
%TO.P,U1,3,GP2*%
%TO.N,unconnected-(U1-GP2-Pad3)*%
X-10300000Y-6480000D03*
%TO.P,U1,4,GP3*%
%TO.N,unconnected-(U1-GP3-Pad4)*%
X-10300000Y-9020000D03*
%TO.P,U1,5,GP4*%
%TO.N,/SDA*%
X-10300000Y-11560000D03*
%TO.P,U1,6,GP5*%
%TO.N,/SCL*%
X-10300000Y-14100000D03*
%TO.P,U1,7,GP6*%
%TO.N,unconnected-(U1-GP6-Pad7)*%
X-10300000Y-16640000D03*
%TO.P,U1,8,GP7*%
%TO.N,unconnected-(U1-GP7-Pad8)*%
X-10300000Y-19180000D03*
%TO.P,U1,9,GP8*%
%TO.N,unconnected-(U1-GP8-Pad9)*%
X-10300000Y-21720000D03*
%TO.P,U1,15,GP14*%
%TO.N,unconnected-(U1-GP14-Pad15)*%
X-25540000Y-21720000D03*
%TO.P,U1,16,GP15*%
%TO.N,unconnected-(U1-GP15-Pad16)*%
X-25540000Y-19180000D03*
%TO.P,U1,17,GP26*%
%TO.N,unconnected-(U1-GP26-Pad17)*%
X-25540000Y-16640000D03*
%TO.P,U1,18,GP27*%
%TO.N,unconnected-(U1-GP27-Pad18)*%
X-25540000Y-14100000D03*
%TO.P,U1,19,GP28*%
%TO.N,unconnected-(U1-GP28-Pad19)*%
X-25540000Y-11560000D03*
%TO.P,U1,20,GP29*%
%TO.N,unconnected-(U1-GP29-Pad20)*%
X-25540000Y-9020000D03*
%TO.P,U1,21,3V3*%
%TO.N,unconnected-(U1-3V3-Pad21)*%
X-25540000Y-6480000D03*
%TO.P,U1,22,GND*%
%TO.N,/GND*%
X-25540000Y-3940000D03*
%TO.P,U1,23,5V*%
%TO.N,/VCC*%
X-25540000Y-1400000D03*
%TD*%
D14*
%TO.N,/SDA*%
X-7550400Y-29488800D03*
X-12325600Y-29488800D03*
%TO.N,/SCL*%
X-15932400Y-31673200D03*
X-16034000Y-26694800D03*
%TD*%
D15*
%TO.N,/SDA*%
X-7500000Y-32892000D02*
X-6839200Y-33552800D01*
X-7550400Y-31699600D02*
X-7500000Y-31750000D01*
X-3791200Y-28472800D02*
X-6077200Y-26186800D01*
X-4350000Y-33552800D02*
X-3791200Y-32994000D01*
X-7550400Y-29488800D02*
X-7550400Y-31699600D01*
X-6077200Y-26186800D02*
X-6077200Y-12521600D01*
X-3791200Y-32994000D02*
X-3791200Y-28472800D01*
X-7042400Y-11556400D02*
X-7046000Y-11560000D01*
X-26498800Y-29590400D02*
X-12427200Y-29590400D01*
X-12427200Y-29590400D02*
X-12325600Y-29488800D01*
X-6839200Y-33552800D02*
X-4350000Y-33552800D01*
X-27000000Y-30091600D02*
X-26498800Y-29590400D01*
X-27000000Y-31750000D02*
X-27000000Y-30091600D01*
X-7500000Y-31750000D02*
X-7500000Y-32892000D01*
X-7046000Y-11560000D02*
X-10300000Y-11560000D01*
X-6077200Y-12521600D02*
X-7042400Y-11556400D01*
%TO.N,/SCL*%
X-16034000Y-26694800D02*
X-6686800Y-26694800D01*
X-6686800Y-26694800D02*
X-6686800Y-14960000D01*
X-16009200Y-31750000D02*
X-15932400Y-31673200D01*
X-7546800Y-14100000D02*
X-10300000Y-14100000D01*
X-5500000Y-27881600D02*
X-5500000Y-31750000D01*
X-6686800Y-26694800D02*
X-5500000Y-27881600D01*
X-25000000Y-31750000D02*
X-16009200Y-31750000D01*
X-6686800Y-14960000D02*
X-7546800Y-14100000D01*
%TO.N,/VCC*%
X-27413200Y-28218800D02*
X-27413200Y-2056800D01*
X-27413200Y-2056800D02*
X-26756400Y-1400000D01*
X-29000000Y-30008800D02*
X-27311600Y-28320400D01*
X-27311600Y-28320400D02*
X-27260800Y-28269600D01*
X-11004800Y-28269600D02*
X-9500000Y-29774400D01*
X-29000000Y-31750000D02*
X-29000000Y-30008800D01*
X-27260800Y-28269600D02*
X-11004800Y-28269600D01*
X-9500000Y-29774400D02*
X-9500000Y-31750000D01*
X-26756400Y-1400000D02*
X-25540000Y-1400000D01*
X-27311600Y-28320400D02*
X-27413200Y-28218800D01*
%TD*%
%TA.AperFunction,Conductor*%
%TO.N,/GND*%
G36*
X-26227216Y-520185D02*
G01*
X-26181461Y-572989D01*
X-26171517Y-642147D01*
X-26200542Y-705703D01*
X-26206574Y-712181D01*
X-26283892Y-789498D01*
X-26283895Y-789501D01*
X-26388705Y-946361D01*
X-26388706Y-946363D01*
X-26397399Y-967352D01*
X-26441239Y-1021756D01*
X-26507533Y-1043821D01*
X-26511960Y-1043900D01*
X-26803282Y-1043900D01*
X-26893852Y-1068167D01*
X-26975051Y-1115049D01*
X-26975054Y-1115051D01*
X-27041353Y-1181351D01*
X-27649292Y-1789289D01*
X-27698148Y-1838145D01*
X-27698151Y-1838149D01*
X-27745035Y-1919352D01*
X-27769300Y-2009915D01*
X-27769300Y-28223135D01*
X-27788985Y-28290174D01*
X-27805619Y-28310816D01*
X-29284948Y-29790145D01*
X-29284951Y-29790149D01*
X-29331835Y-29871352D01*
X-29356100Y-29961915D01*
X-29356100Y-30680056D01*
X-29375785Y-30747095D01*
X-29411209Y-30783158D01*
X-29512329Y-30850724D01*
X-29512333Y-30850727D01*
X-29624273Y-30962667D01*
X-29681951Y-31048988D01*
X-29735564Y-31093792D01*
X-29804889Y-31102499D01*
X-29867916Y-31072344D01*
X-29904635Y-31012901D01*
X-29908411Y-30992696D01*
X-29910494Y-30972303D01*
X-29965642Y-30805880D01*
X-29965644Y-30805875D01*
X-30057685Y-30656654D01*
X-30181655Y-30532684D01*
X-30330876Y-30440643D01*
X-30330881Y-30440641D01*
X-30497303Y-30385494D01*
X-30497310Y-30385493D01*
X-30600014Y-30375000D01*
X-30750000Y-30375000D01*
X-30750000Y-31469670D01*
X-30769745Y-31449925D01*
X-30855255Y-31400556D01*
X-30950630Y-31375000D01*
X-31049370Y-31375000D01*
X-31144745Y-31400556D01*
X-31230255Y-31449925D01*
X-31250000Y-31469670D01*
X-31250000Y-30375000D01*
X-31399973Y-30375000D01*
X-31399988Y-30375001D01*
X-31502698Y-30385494D01*
X-31669120Y-30440641D01*
X-31669125Y-30440643D01*
X-31818346Y-30532684D01*
X-31942316Y-30656654D01*
X-32034357Y-30805875D01*
X-32034359Y-30805880D01*
X-32089506Y-30972302D01*
X-32089507Y-30972309D01*
X-32100000Y-31075013D01*
X-32100000Y-31500000D01*
X-31280330Y-31500000D01*
X-31300075Y-31519745D01*
X-31349444Y-31605255D01*
X-31375000Y-31700630D01*
X-31375000Y-31799370D01*
X-31349444Y-31894745D01*
X-31300075Y-31980255D01*
X-31280330Y-32000000D01*
X-32099999Y-32000000D01*
X-32099999Y-32424986D01*
X-32089506Y-32527697D01*
X-32034359Y-32694119D01*
X-32034357Y-32694124D01*
X-31942316Y-32843345D01*
X-31818346Y-32967315D01*
X-31669125Y-33059356D01*
X-31669120Y-33059358D01*
X-31502698Y-33114505D01*
X-31502691Y-33114506D01*
X-31399981Y-33124999D01*
X-31250001Y-33124999D01*
X-31250000Y-33124998D01*
X-31250000Y-32030330D01*
X-31230255Y-32050075D01*
X-31144745Y-32099444D01*
X-31049370Y-32125000D01*
X-30950630Y-32125000D01*
X-30855255Y-32099444D01*
X-30769745Y-32050075D01*
X-30750000Y-32030330D01*
X-30750000Y-33124999D01*
X-30600028Y-33124999D01*
X-30600014Y-33124998D01*
X-30497303Y-33114505D01*
X-30330881Y-33059358D01*
X-30330876Y-33059356D01*
X-30181655Y-32967315D01*
X-30057685Y-32843345D01*
X-29965644Y-32694124D01*
X-29965642Y-32694119D01*
X-29910495Y-32527697D01*
X-29910493Y-32527688D01*
X-29908411Y-32507304D01*
X-29882017Y-32442611D01*
X-29824837Y-32402459D01*
X-29755026Y-32399593D01*
X-29694749Y-32434926D01*
X-29681951Y-32451012D01*
X-29624276Y-32537328D01*
X-29624273Y-32537332D01*
X-29512333Y-32649272D01*
X-29512329Y-32649275D01*
X-29380702Y-32737226D01*
X-29380689Y-32737233D01*
X-29300487Y-32770453D01*
X-29234431Y-32797814D01*
X-29196410Y-32805377D01*
X-29079161Y-32828700D01*
X-29079158Y-32828700D01*
X-28920840Y-32828700D01*
X-28842675Y-32813151D01*
X-28765569Y-32797814D01*
X-28619305Y-32737230D01*
X-28487671Y-32649275D01*
X-28375725Y-32537329D01*
X-28287770Y-32405695D01*
X-28227186Y-32259431D01*
X-28210769Y-32176900D01*
X-28196300Y-32104160D01*
X-27803701Y-32104160D01*
X-27772816Y-32259424D01*
X-27772814Y-32259432D01*
X-27712234Y-32405688D01*
X-27712227Y-32405701D01*
X-27624276Y-32537328D01*
X-27624273Y-32537332D01*
X-27512333Y-32649272D01*
X-27512329Y-32649275D01*
X-27380702Y-32737226D01*
X-27380689Y-32737233D01*
X-27300487Y-32770453D01*
X-27234431Y-32797814D01*
X-27196410Y-32805377D01*
X-27079161Y-32828700D01*
X-27079158Y-32828700D01*
X-26920840Y-32828700D01*
X-26842675Y-32813151D01*
X-26765569Y-32797814D01*
X-26619305Y-32737230D01*
X-26487671Y-32649275D01*
X-26375725Y-32537329D01*
X-26287770Y-32405695D01*
X-26227186Y-32259431D01*
X-26210769Y-32176900D01*
X-26196300Y-32104160D01*
X-25803701Y-32104160D01*
X-25772816Y-32259424D01*
X-25772814Y-32259432D01*
X-25712234Y-32405688D01*
X-25712227Y-32405701D01*
X-25624276Y-32537328D01*
X-25624273Y-32537332D01*
X-25512333Y-32649272D01*
X-25512329Y-32649275D01*
X-25380702Y-32737226D01*
X-25380689Y-32737233D01*
X-25300487Y-32770453D01*
X-25234431Y-32797814D01*
X-25196410Y-32805377D01*
X-25079161Y-32828700D01*
X-25079158Y-32828700D01*
X-24920840Y-32828700D01*
X-24842675Y-32813151D01*
X-24765569Y-32797814D01*
X-24619305Y-32737230D01*
X-24487671Y-32649275D01*
X-24375725Y-32537329D01*
X-24287770Y-32405695D01*
X-24227186Y-32259431D01*
X-24216539Y-32205908D01*
X-24184154Y-32143997D01*
X-24123438Y-32109423D01*
X-24094922Y-32106100D01*
X-16223220Y-32106100D01*
X-16161220Y-32122712D01*
X-16126821Y-32142573D01*
X-15998713Y-32176900D01*
X-15998710Y-32176900D01*
X-15866090Y-32176900D01*
X-15866087Y-32176900D01*
X-15737979Y-32142573D01*
X-15623121Y-32076260D01*
X-15529340Y-31982479D01*
X-15463027Y-31867621D01*
X-15428700Y-31739513D01*
X-15428700Y-31606887D01*
X-15463027Y-31478779D01*
X-15513668Y-31391066D01*
X-15529338Y-31363924D01*
X-15529342Y-31363919D01*
X-15623120Y-31270141D01*
X-15623125Y-31270137D01*
X-15737977Y-31203828D01*
X-15737978Y-31203827D01*
X-15750926Y-31200357D01*
X-15866087Y-31169500D01*
X-15998713Y-31169500D01*
X-16075578Y-31190096D01*
X-16126823Y-31203827D01*
X-16126824Y-31203828D01*
X-16241676Y-31270137D01*
X-16241681Y-31270141D01*
X-16329120Y-31357581D01*
X-16390443Y-31391066D01*
X-16416801Y-31393900D01*
X-24094922Y-31393900D01*
X-24161961Y-31374215D01*
X-24207716Y-31321411D01*
X-24216539Y-31294092D01*
X-24227185Y-31240574D01*
X-24227186Y-31240573D01*
X-24227186Y-31240569D01*
X-24256623Y-31169500D01*
X-24287767Y-31094311D01*
X-24287774Y-31094298D01*
X-24375725Y-30962671D01*
X-24375728Y-30962667D01*
X-24487668Y-30850727D01*
X-24487672Y-30850724D01*
X-24619299Y-30762773D01*
X-24619312Y-30762766D01*
X-24765568Y-30702186D01*
X-24765576Y-30702184D01*
X-24920840Y-30671300D01*
X-24920842Y-30671300D01*
X-25079158Y-30671300D01*
X-25079160Y-30671300D01*
X-25234425Y-30702184D01*
X-25234433Y-30702186D01*
X-25380689Y-30762766D01*
X-25380702Y-30762773D01*
X-25512329Y-30850724D01*
X-25512333Y-30850727D01*
X-25624273Y-30962667D01*
X-25624276Y-30962671D01*
X-25712227Y-31094298D01*
X-25712234Y-31094311D01*
X-25772814Y-31240567D01*
X-25772816Y-31240575D01*
X-25803700Y-31395839D01*
X-25803700Y-31395842D01*
X-25803700Y-32104158D01*
X-25803700Y-32104160D01*
X-25803701Y-32104160D01*
X-26196300Y-32104160D01*
X-26196300Y-31395839D01*
X-26227185Y-31240575D01*
X-26227185Y-31240574D01*
X-26227186Y-31240569D01*
X-26256623Y-31169500D01*
X-26287767Y-31094311D01*
X-26287774Y-31094298D01*
X-26375725Y-30962671D01*
X-26375728Y-30962667D01*
X-26487668Y-30850727D01*
X-26487672Y-30850724D01*
X-26588791Y-30783158D01*
X-26633596Y-30729546D01*
X-26643900Y-30680056D01*
X-26643900Y-30290464D01*
X-26624215Y-30223425D01*
X-26607581Y-30202783D01*
X-26387617Y-29982819D01*
X-26326294Y-29949334D01*
X-26299936Y-29946500D01*
X-12572868Y-29946500D01*
X-12525417Y-29955938D01*
X-12520024Y-29958172D01*
X-12520022Y-29958172D01*
X-12520021Y-29958173D01*
X-12391913Y-29992500D01*
X-12391910Y-29992500D01*
X-12259290Y-29992500D01*
X-12259287Y-29992500D01*
X-12131179Y-29958173D01*
X-12016321Y-29891860D01*
X-11922540Y-29798079D01*
X-11856227Y-29683221D01*
X-11821900Y-29555113D01*
X-11821900Y-29422487D01*
X-11856227Y-29294379D01*
X-11922540Y-29179521D01*
X-12016321Y-29085740D01*
X-12016322Y-29085739D01*
X-12016325Y-29085737D01*
X-12131177Y-29019428D01*
X-12131178Y-29019427D01*
X-12163206Y-29010845D01*
X-12259287Y-28985100D01*
X-12391913Y-28985100D01*
X-12468778Y-29005696D01*
X-12520023Y-29019427D01*
X-12520024Y-29019428D01*
X-12634876Y-29085737D01*
X-12634881Y-29085741D01*
X-12728659Y-29179519D01*
X-12733467Y-29185786D01*
X-12789895Y-29226989D01*
X-12831843Y-29234300D01*
X-26444307Y-29234300D01*
X-26444323Y-29234299D01*
X-26451919Y-29234299D01*
X-26545681Y-29234299D01*
X-26545683Y-29234299D01*
X-26617110Y-29253437D01*
X-26617111Y-29253438D01*
X-26626681Y-29256002D01*
X-26636252Y-29258567D01*
X-26636256Y-29258569D01*
X-26656307Y-29270147D01*
X-26656310Y-29270149D01*
X-26717448Y-29305447D01*
X-26717454Y-29305451D01*
X-27284949Y-29872946D01*
X-27284951Y-29872949D01*
X-27331835Y-29954152D01*
X-27356100Y-30044715D01*
X-27356100Y-30680056D01*
X-27375785Y-30747095D01*
X-27411209Y-30783158D01*
X-27512329Y-30850724D01*
X-27512333Y-30850727D01*
X-27624273Y-30962667D01*
X-27624276Y-30962671D01*
X-27712227Y-31094298D01*
X-27712234Y-31094311D01*
X-27772814Y-31240567D01*
X-27772816Y-31240575D01*
X-27803700Y-31395839D01*
X-27803700Y-31395842D01*
X-27803700Y-32104158D01*
X-27803700Y-32104160D01*
X-27803701Y-32104160D01*
X-28196300Y-32104160D01*
X-28196300Y-31395839D01*
X-28227185Y-31240575D01*
X-28227185Y-31240574D01*
X-28227186Y-31240569D01*
X-28256623Y-31169500D01*
X-28287767Y-31094311D01*
X-28287774Y-31094298D01*
X-28375725Y-30962671D01*
X-28375728Y-30962667D01*
X-28487668Y-30850727D01*
X-28487672Y-30850724D01*
X-28588791Y-30783158D01*
X-28633596Y-30729546D01*
X-28643900Y-30680056D01*
X-28643900Y-30207663D01*
X-28624215Y-30140624D01*
X-28607581Y-30119982D01*
X-27149618Y-28662019D01*
X-27088295Y-28628534D01*
X-27061937Y-28625700D01*
X-11203664Y-28625700D01*
X-11136625Y-28645385D01*
X-11115983Y-28662019D01*
X-9892419Y-29885583D01*
X-9858934Y-29946906D01*
X-9856100Y-29973264D01*
X-9856100Y-30680056D01*
X-9875785Y-30747095D01*
X-9911209Y-30783158D01*
X-10012329Y-30850724D01*
X-10012333Y-30850727D01*
X-10124273Y-30962667D01*
X-10181951Y-31048988D01*
X-10235564Y-31093792D01*
X-10304889Y-31102499D01*
X-10367916Y-31072344D01*
X-10404635Y-31012901D01*
X-10408411Y-30992696D01*
X-10410494Y-30972303D01*
X-10465642Y-30805880D01*
X-10465644Y-30805875D01*
X-10557685Y-30656654D01*
X-10681655Y-30532684D01*
X-10830876Y-30440643D01*
X-10830881Y-30440641D01*
X-10997303Y-30385494D01*
X-10997310Y-30385493D01*
X-11100014Y-30375000D01*
X-11250000Y-30375000D01*
X-11250000Y-31469670D01*
X-11269745Y-31449925D01*
X-11355255Y-31400556D01*
X-11450630Y-31375000D01*
X-11549370Y-31375000D01*
X-11644745Y-31400556D01*
X-11730255Y-31449925D01*
X-11750000Y-31469670D01*
X-11750000Y-30375000D01*
X-11899973Y-30375000D01*
X-11899988Y-30375001D01*
X-12002698Y-30385494D01*
X-12169120Y-30440641D01*
X-12169125Y-30440643D01*
X-12318346Y-30532684D01*
X-12442316Y-30656654D01*
X-12534357Y-30805875D01*
X-12534359Y-30805880D01*
X-12589506Y-30972302D01*
X-12589507Y-30972309D01*
X-12600000Y-31075013D01*
X-12600000Y-31500000D01*
X-11780330Y-31500000D01*
X-11800075Y-31519745D01*
X-11849444Y-31605255D01*
X-11875000Y-31700630D01*
X-11875000Y-31799370D01*
X-11849444Y-31894745D01*
X-11800075Y-31980255D01*
X-11780330Y-32000000D01*
X-12599999Y-32000000D01*
X-12599999Y-32424986D01*
X-12589506Y-32527697D01*
X-12534359Y-32694119D01*
X-12534357Y-32694124D01*
X-12442316Y-32843345D01*
X-12318346Y-32967315D01*
X-12169125Y-33059356D01*
X-12169120Y-33059358D01*
X-12002698Y-33114505D01*
X-12002691Y-33114506D01*
X-11899981Y-33124999D01*
X-11750001Y-33124999D01*
X-11750000Y-33124998D01*
X-11750000Y-32030330D01*
X-11730255Y-32050075D01*
X-11644745Y-32099444D01*
X-11549370Y-32125000D01*
X-11450630Y-32125000D01*
X-11355255Y-32099444D01*
X-11269745Y-32050075D01*
X-11250000Y-32030330D01*
X-11250000Y-33124999D01*
X-11100028Y-33124999D01*
X-11100014Y-33124998D01*
X-10997303Y-33114505D01*
X-10830881Y-33059358D01*
X-10830876Y-33059356D01*
X-10681655Y-32967315D01*
X-10557685Y-32843345D01*
X-10465644Y-32694124D01*
X-10465642Y-32694119D01*
X-10410495Y-32527697D01*
X-10410493Y-32527688D01*
X-10408411Y-32507304D01*
X-10382017Y-32442611D01*
X-10324837Y-32402459D01*
X-10255026Y-32399593D01*
X-10194749Y-32434926D01*
X-10181951Y-32451012D01*
X-10124276Y-32537328D01*
X-10124273Y-32537332D01*
X-10012333Y-32649272D01*
X-10012329Y-32649275D01*
X-9880702Y-32737226D01*
X-9880689Y-32737233D01*
X-9800487Y-32770453D01*
X-9734431Y-32797814D01*
X-9696410Y-32805377D01*
X-9579161Y-32828700D01*
X-9579158Y-32828700D01*
X-9420840Y-32828700D01*
X-9342675Y-32813151D01*
X-9265569Y-32797814D01*
X-9119305Y-32737230D01*
X-8987671Y-32649275D01*
X-8875725Y-32537329D01*
X-8787770Y-32405695D01*
X-8727186Y-32259431D01*
X-8710769Y-32176900D01*
X-8696300Y-32104160D01*
X-8696300Y-31395839D01*
X-8727185Y-31240575D01*
X-8727185Y-31240574D01*
X-8727186Y-31240569D01*
X-8756623Y-31169500D01*
X-8787767Y-31094311D01*
X-8787774Y-31094298D01*
X-8875725Y-30962671D01*
X-8875728Y-30962667D01*
X-8987668Y-30850727D01*
X-8987672Y-30850724D01*
X-9088791Y-30783158D01*
X-9133596Y-30729546D01*
X-9143900Y-30680056D01*
X-9143900Y-29831283D01*
X-9143899Y-29831270D01*
X-9143899Y-29727521D01*
X-9143899Y-29727519D01*
X-9166442Y-29643387D01*
X-9168167Y-29636950D01*
X-9215049Y-29555749D01*
X-9281349Y-29489449D01*
X-10786149Y-27984649D01*
X-10841615Y-27952625D01*
X-10867353Y-27937765D01*
X-10957916Y-27913500D01*
X-10957919Y-27913500D01*
X-26933100Y-27913500D01*
X-27000139Y-27893815D01*
X-27045894Y-27841011D01*
X-27057100Y-27789500D01*
X-27057100Y-26761110D01*
X-16537701Y-26761110D01*
X-16503373Y-26889222D01*
X-16503372Y-26889223D01*
X-16437063Y-27004075D01*
X-16437061Y-27004078D01*
X-16437060Y-27004079D01*
X-16343279Y-27097860D01*
X-16228421Y-27164173D01*
X-16100313Y-27198500D01*
X-16100310Y-27198500D01*
X-15967690Y-27198500D01*
X-15967687Y-27198500D01*
X-15839579Y-27164173D01*
X-15724721Y-27097860D01*
X-15714080Y-27087219D01*
X-15652757Y-27053734D01*
X-15626399Y-27050900D01*
X-6885664Y-27050900D01*
X-6818625Y-27070585D01*
X-6797983Y-27087219D01*
X-5892419Y-27992783D01*
X-5858934Y-28054106D01*
X-5856100Y-28080464D01*
X-5856100Y-30680056D01*
X-5875785Y-30747095D01*
X-5911209Y-30783158D01*
X-6012329Y-30850724D01*
X-6012333Y-30850727D01*
X-6124273Y-30962667D01*
X-6124276Y-30962671D01*
X-6212227Y-31094298D01*
X-6212234Y-31094311D01*
X-6272814Y-31240567D01*
X-6272816Y-31240575D01*
X-6303700Y-31395839D01*
X-6303700Y-31395842D01*
X-6303700Y-32104158D01*
X-6303700Y-32104160D01*
X-6303701Y-32104160D01*
X-6272816Y-32259424D01*
X-6272814Y-32259432D01*
X-6212234Y-32405688D01*
X-6212227Y-32405701D01*
X-6124276Y-32537328D01*
X-6124273Y-32537332D01*
X-6012333Y-32649272D01*
X-6012329Y-32649275D01*
X-5880702Y-32737226D01*
X-5880689Y-32737233D01*
X-5800487Y-32770453D01*
X-5734431Y-32797814D01*
X-5696410Y-32805377D01*
X-5579161Y-32828700D01*
X-5579158Y-32828700D01*
X-5420840Y-32828700D01*
X-5342675Y-32813151D01*
X-5265569Y-32797814D01*
X-5119305Y-32737230D01*
X-4987671Y-32649275D01*
X-4875725Y-32537329D01*
X-4787770Y-32405695D01*
X-4727186Y-32259431D01*
X-4710769Y-32176900D01*
X-4696300Y-32104160D01*
X-4696300Y-31395839D01*
X-4727185Y-31240575D01*
X-4727185Y-31240574D01*
X-4727186Y-31240569D01*
X-4756623Y-31169500D01*
X-4787767Y-31094311D01*
X-4787774Y-31094298D01*
X-4875725Y-30962671D01*
X-4875728Y-30962667D01*
X-4987668Y-30850727D01*
X-4987672Y-30850724D01*
X-5088791Y-30783158D01*
X-5133596Y-30729546D01*
X-5143900Y-30680056D01*
X-5143900Y-27938475D01*
X-5143899Y-27923056D01*
X-5131643Y-27881326D01*
X-5124214Y-27856025D01*
X-5124212Y-27856022D01*
X-5124210Y-27856018D01*
X-5089928Y-27826316D01*
X-5071410Y-27810270D01*
X-5071408Y-27810269D01*
X-5071403Y-27810266D01*
X-5031156Y-27804481D01*
X-5002252Y-27800326D01*
X-5002249Y-27800327D01*
X-5002244Y-27800327D01*
X-4967922Y-27816004D01*
X-4938696Y-27829351D01*
X-4938692Y-27829355D01*
X-4938690Y-27829356D01*
X-4938690Y-27829357D01*
X-4932218Y-27835383D01*
X-4183619Y-28583982D01*
X-4150134Y-28645305D01*
X-4147300Y-28671663D01*
X-4147300Y-32795136D01*
X-4166985Y-32862175D01*
X-4183619Y-32882817D01*
X-4461183Y-33160381D01*
X-4522506Y-33193866D01*
X-4548864Y-33196700D01*
X-6640337Y-33196700D01*
X-6707376Y-33177015D01*
X-6728018Y-33160381D01*
X-7031566Y-32856832D01*
X-7065051Y-32795509D01*
X-7060067Y-32725817D01*
X-7018195Y-32669884D01*
X-7012789Y-32666058D01*
X-6987671Y-32649275D01*
X-6875725Y-32537329D01*
X-6787770Y-32405695D01*
X-6727186Y-32259431D01*
X-6710769Y-32176900D01*
X-6696300Y-32104160D01*
X-6696300Y-31395839D01*
X-6727185Y-31240575D01*
X-6727185Y-31240574D01*
X-6727186Y-31240569D01*
X-6756623Y-31169500D01*
X-6787767Y-31094311D01*
X-6787774Y-31094298D01*
X-6875725Y-30962671D01*
X-6875728Y-30962667D01*
X-6987668Y-30850727D01*
X-6987672Y-30850724D01*
X-7119299Y-30762773D01*
X-7124675Y-30759900D01*
X-7123905Y-30758459D01*
X-7172166Y-30719557D01*
X-7194222Y-30653260D01*
X-7194300Y-30648851D01*
X-7194300Y-29896401D01*
X-7174615Y-29829362D01*
X-7157981Y-29808720D01*
X-7155910Y-29806649D01*
X-7147340Y-29798079D01*
X-7081027Y-29683221D01*
X-7046700Y-29555113D01*
X-7046700Y-29422487D01*
X-7081027Y-29294379D01*
X-7147340Y-29179521D01*
X-7241121Y-29085740D01*
X-7241122Y-29085739D01*
X-7241125Y-29085737D01*
X-7355977Y-29019428D01*
X-7355978Y-29019427D01*
X-7388006Y-29010845D01*
X-7484087Y-28985100D01*
X-7616713Y-28985100D01*
X-7693578Y-29005696D01*
X-7744823Y-29019427D01*
X-7744824Y-29019428D01*
X-7859676Y-29085737D01*
X-7859681Y-29085741D01*
X-7953459Y-29179519D01*
X-7953463Y-29179524D01*
X-8019772Y-29294376D01*
X-8019773Y-29294377D01*
X-8022740Y-29305451D01*
X-8054100Y-29422487D01*
X-8054100Y-29422489D01*
X-8054100Y-29555110D01*
X-8054101Y-29555110D01*
X-8019773Y-29683222D01*
X-8019772Y-29683223D01*
X-7953463Y-29798075D01*
X-7953459Y-29798080D01*
X-7942819Y-29808720D01*
X-7909334Y-29870043D01*
X-7906500Y-29896401D01*
X-7906500Y-30713732D01*
X-7926185Y-30780771D01*
X-7961608Y-30816834D01*
X-8012333Y-30850727D01*
X-8124273Y-30962667D01*
X-8124276Y-30962671D01*
X-8212227Y-31094298D01*
X-8212234Y-31094311D01*
X-8272814Y-31240567D01*
X-8272816Y-31240575D01*
X-8303700Y-31395839D01*
X-8303700Y-31395842D01*
X-8303700Y-32104158D01*
X-8303700Y-32104160D01*
X-8303701Y-32104160D01*
X-8272816Y-32259424D01*
X-8272814Y-32259432D01*
X-8212234Y-32405688D01*
X-8212227Y-32405701D01*
X-8124276Y-32537328D01*
X-8124273Y-32537332D01*
X-8012333Y-32649272D01*
X-8012325Y-32649278D01*
X-7911210Y-32716841D01*
X-7866404Y-32770453D01*
X-7856100Y-32819943D01*
X-7856100Y-32938884D01*
X-7831835Y-33029447D01*
X-7825234Y-33040880D01*
X-7784951Y-33110651D01*
X-7784950Y-33110652D01*
X-7784949Y-33110653D01*
X-7128492Y-33767109D01*
X-7128482Y-33767120D01*
X-7057851Y-33837751D01*
X-6976648Y-33884634D01*
X-6886085Y-33908899D01*
X-6886081Y-33908900D01*
X-6886078Y-33908900D01*
X-4303122Y-33908900D01*
X-4303119Y-33908900D01*
X-4257835Y-33896766D01*
X-4212553Y-33884634D01*
X-4212553Y-33884633D01*
X-4212550Y-33884633D01*
X-4131349Y-33837751D01*
X-3506249Y-33212651D01*
X-3459366Y-33131449D01*
X-3435099Y-33040881D01*
X-3435099Y-32947118D01*
X-3435099Y-32939523D01*
X-3435100Y-32939505D01*
X-3435100Y-28425922D01*
X-3435101Y-28425915D01*
X-3459366Y-28335352D01*
X-3506249Y-28254149D01*
X-3576880Y-28183518D01*
X-3576891Y-28183508D01*
X-5684781Y-26075617D01*
X-5718266Y-26014294D01*
X-5721100Y-25987936D01*
X-5721100Y-12474722D01*
X-5721101Y-12474715D01*
X-5745366Y-12384152D01*
X-5745367Y-12384150D01*
X-5792249Y-12302949D01*
X-5858549Y-12236649D01*
X-6823749Y-11271449D01*
X-6904950Y-11224567D01*
X-6904953Y-11224565D01*
X-6995516Y-11200300D01*
X-6995519Y-11200300D01*
X-7089281Y-11200300D01*
X-7097342Y-11201361D01*
X-7097384Y-11201048D01*
X-7119042Y-11203900D01*
X-9328040Y-11203900D01*
X-9395079Y-11184215D01*
X-9440834Y-11131411D01*
X-9442601Y-11127352D01*
X-9451295Y-11106363D01*
X-9451296Y-11106361D01*
X-9556106Y-10949501D01*
X-9689499Y-10816108D01*
X-9689503Y-10816105D01*
X-9846353Y-10711300D01*
X-9846366Y-10711293D01*
X-10020645Y-10639105D01*
X-10020657Y-10639102D01*
X-10205672Y-10602300D01*
X-10205675Y-10602300D01*
X-10394325Y-10602300D01*
X-10394328Y-10602300D01*
X-10579344Y-10639102D01*
X-10579356Y-10639105D01*
X-10753635Y-10711293D01*
X-10753648Y-10711300D01*
X-10910498Y-10816105D01*
X-10910502Y-10816108D01*
X-11043892Y-10949498D01*
X-11043895Y-10949502D01*
X-11148700Y-11106352D01*
X-11148707Y-11106365D01*
X-11220895Y-11280644D01*
X-11220898Y-11280656D01*
X-11257700Y-11465670D01*
X-11257700Y-11654329D01*
X-11220898Y-11839343D01*
X-11220895Y-11839355D01*
X-11148707Y-12013634D01*
X-11148700Y-12013647D01*
X-11043895Y-12170497D01*
X-11043892Y-12170501D01*
X-10910502Y-12303891D01*
X-10910498Y-12303894D01*
X-10753648Y-12408699D01*
X-10753635Y-12408706D01*
X-10579356Y-12480894D01*
X-10579351Y-12480896D01*
X-10394330Y-12517699D01*
X-10394327Y-12517700D01*
X-10394325Y-12517700D01*
X-10205673Y-12517700D01*
X-10205672Y-12517699D01*
X-10020649Y-12480896D01*
X-9846359Y-12408703D01*
X-9689502Y-12303894D01*
X-9556106Y-12170498D01*
X-9451297Y-12013641D01*
X-9442601Y-11992648D01*
X-9398761Y-11938244D01*
X-9332467Y-11916179D01*
X-9328040Y-11916100D01*
X-7237664Y-11916100D01*
X-7170625Y-11935785D01*
X-7149983Y-11952419D01*
X-6469619Y-12632783D01*
X-6436134Y-12694106D01*
X-6433300Y-12720464D01*
X-6433300Y-14410536D01*
X-6452985Y-14477575D01*
X-6505789Y-14523330D01*
X-6574947Y-14533274D01*
X-6638503Y-14504249D01*
X-6644981Y-14498217D01*
X-7328147Y-13815051D01*
X-7328149Y-13815049D01*
X-7409350Y-13768167D01*
X-7409353Y-13768165D01*
X-7499916Y-13743900D01*
X-7499919Y-13743900D01*
X-9328040Y-13743900D01*
X-9395079Y-13724215D01*
X-9440834Y-13671411D01*
X-9442601Y-13667352D01*
X-9451295Y-13646363D01*
X-9451296Y-13646361D01*
X-9556106Y-13489501D01*
X-9689499Y-13356108D01*
X-9689503Y-13356105D01*
X-9846353Y-13251300D01*
X-9846366Y-13251293D01*
X-10020645Y-13179105D01*
X-10020657Y-13179102D01*
X-10205672Y-13142300D01*
X-10205675Y-13142300D01*
X-10394325Y-13142300D01*
X-10394328Y-13142300D01*
X-10579344Y-13179102D01*
X-10579356Y-13179105D01*
X-10753635Y-13251293D01*
X-10753648Y-13251300D01*
X-10910498Y-13356105D01*
X-10910502Y-13356108D01*
X-11043892Y-13489498D01*
X-11043895Y-13489502D01*
X-11148700Y-13646352D01*
X-11148707Y-13646365D01*
X-11220895Y-13820644D01*
X-11220898Y-13820656D01*
X-11257700Y-14005670D01*
X-11257700Y-14194329D01*
X-11220898Y-14379343D01*
X-11220895Y-14379355D01*
X-11148707Y-14553634D01*
X-11148700Y-14553647D01*
X-11043895Y-14710497D01*
X-11043892Y-14710501D01*
X-10910502Y-14843891D01*
X-10910498Y-14843894D01*
X-10753648Y-14948699D01*
X-10753635Y-14948706D01*
X-10579356Y-15020894D01*
X-10579351Y-15020896D01*
X-10394330Y-15057699D01*
X-10394327Y-15057700D01*
X-10394325Y-15057700D01*
X-10205673Y-15057700D01*
X-10205672Y-15057699D01*
X-10020649Y-15020896D01*
X-9846359Y-14948703D01*
X-9689502Y-14843894D01*
X-9556106Y-14710498D01*
X-9451297Y-14553641D01*
X-9449903Y-14550274D01*
X-9442601Y-14532648D01*
X-9398761Y-14478244D01*
X-9332467Y-14456179D01*
X-9328040Y-14456100D01*
X-7745664Y-14456100D01*
X-7678625Y-14475785D01*
X-7657983Y-14492419D01*
X-7079219Y-15071183D01*
X-7045734Y-15132506D01*
X-7042900Y-15158864D01*
X-7042900Y-26214700D01*
X-7062585Y-26281739D01*
X-7115389Y-26327494D01*
X-7166900Y-26338700D01*
X-15626399Y-26338700D01*
X-15693438Y-26319015D01*
X-15714080Y-26302381D01*
X-15724720Y-26291741D01*
X-15724725Y-26291737D01*
X-15839577Y-26225428D01*
X-15839578Y-26225427D01*
X-15879612Y-26214700D01*
X-15967687Y-26191100D01*
X-16100313Y-26191100D01*
X-16177178Y-26211696D01*
X-16228423Y-26225427D01*
X-16228424Y-26225428D01*
X-16343276Y-26291737D01*
X-16343281Y-26291741D01*
X-16437059Y-26385519D01*
X-16437063Y-26385524D01*
X-16503372Y-26500376D01*
X-16503373Y-26500377D01*
X-16515945Y-26547298D01*
X-16537700Y-26628487D01*
X-16537700Y-26628489D01*
X-16537700Y-26761110D01*
X-16537701Y-26761110D01*
X-27057100Y-26761110D01*
X-27057100Y-21625670D01*
X-26497700Y-21625670D01*
X-26497700Y-21814329D01*
X-26460898Y-21999343D01*
X-26460895Y-21999355D01*
X-26388707Y-22173634D01*
X-26388700Y-22173647D01*
X-26283895Y-22330497D01*
X-26283892Y-22330501D01*
X-26150502Y-22463891D01*
X-26150498Y-22463894D01*
X-25993648Y-22568699D01*
X-25993635Y-22568706D01*
X-25819356Y-22640894D01*
X-25819351Y-22640896D01*
X-25634330Y-22677699D01*
X-25634327Y-22677700D01*
X-25634325Y-22677700D01*
X-25445673Y-22677700D01*
X-25445672Y-22677699D01*
X-25260649Y-22640896D01*
X-25086359Y-22568703D01*
X-24929502Y-22463894D01*
X-24796106Y-22330498D01*
X-24691297Y-22173641D01*
X-24619104Y-21999351D01*
X-24582300Y-21814325D01*
X-24582300Y-21625675D01*
X-24582300Y-21625672D01*
X-24582301Y-21625670D01*
X-11257700Y-21625670D01*
X-11257700Y-21814329D01*
X-11220898Y-21999343D01*
X-11220895Y-21999355D01*
X-11148707Y-22173634D01*
X-11148700Y-22173647D01*
X-11043895Y-22330497D01*
X-11043892Y-22330501D01*
X-10910502Y-22463891D01*
X-10910498Y-22463894D01*
X-10753648Y-22568699D01*
X-10753635Y-22568706D01*
X-10579356Y-22640894D01*
X-10579351Y-22640896D01*
X-10394330Y-22677699D01*
X-10394327Y-22677700D01*
X-10394325Y-22677700D01*
X-10205673Y-22677700D01*
X-10205672Y-22677699D01*
X-10020649Y-22640896D01*
X-9846359Y-22568703D01*
X-9689502Y-22463894D01*
X-9556106Y-22330498D01*
X-9451297Y-22173641D01*
X-9379104Y-21999351D01*
X-9342300Y-21814325D01*
X-9342300Y-21625675D01*
X-9342300Y-21625672D01*
X-9342301Y-21625670D01*
X-9379103Y-21440656D01*
X-9379104Y-21440649D01*
X-9379106Y-21440644D01*
X-9451294Y-21266365D01*
X-9451301Y-21266352D01*
X-9556106Y-21109502D01*
X-9556109Y-21109498D01*
X-9689499Y-20976108D01*
X-9689503Y-20976105D01*
X-9846353Y-20871300D01*
X-9846366Y-20871293D01*
X-10020645Y-20799105D01*
X-10020657Y-20799102D01*
X-10205672Y-20762300D01*
X-10205675Y-20762300D01*
X-10394325Y-20762300D01*
X-10394328Y-20762300D01*
X-10579344Y-20799102D01*
X-10579356Y-20799105D01*
X-10753635Y-20871293D01*
X-10753648Y-20871300D01*
X-10910498Y-20976105D01*
X-10910502Y-20976108D01*
X-11043892Y-21109498D01*
X-11043895Y-21109502D01*
X-11148700Y-21266352D01*
X-11148707Y-21266365D01*
X-11220895Y-21440644D01*
X-11220898Y-21440656D01*
X-11257700Y-21625670D01*
X-24582301Y-21625670D01*
X-24619103Y-21440656D01*
X-24619104Y-21440649D01*
X-24619106Y-21440644D01*
X-24691294Y-21266365D01*
X-24691301Y-21266352D01*
X-24796106Y-21109502D01*
X-24796109Y-21109498D01*
X-24929499Y-20976108D01*
X-24929503Y-20976105D01*
X-25086353Y-20871300D01*
X-25086366Y-20871293D01*
X-25260645Y-20799105D01*
X-25260657Y-20799102D01*
X-25445672Y-20762300D01*
X-25445675Y-20762300D01*
X-25634325Y-20762300D01*
X-25634328Y-20762300D01*
X-25819344Y-20799102D01*
X-25819356Y-20799105D01*
X-25993635Y-20871293D01*
X-25993648Y-20871300D01*
X-26150498Y-20976105D01*
X-26150502Y-20976108D01*
X-26283892Y-21109498D01*
X-26283895Y-21109502D01*
X-26388700Y-21266352D01*
X-26388707Y-21266365D01*
X-26460895Y-21440644D01*
X-26460898Y-21440656D01*
X-26497700Y-21625670D01*
X-27057100Y-21625670D01*
X-27057100Y-19085670D01*
X-26497700Y-19085670D01*
X-26497700Y-19274329D01*
X-26460898Y-19459343D01*
X-26460895Y-19459355D01*
X-26388707Y-19633634D01*
X-26388700Y-19633647D01*
X-26283895Y-19790497D01*
X-26283892Y-19790501D01*
X-26150502Y-19923891D01*
X-26150498Y-19923894D01*
X-25993648Y-20028699D01*
X-25993635Y-20028706D01*
X-25819356Y-20100894D01*
X-25819351Y-20100896D01*
X-25634330Y-20137699D01*
X-25634327Y-20137700D01*
X-25634325Y-20137700D01*
X-25445673Y-20137700D01*
X-25445672Y-20137699D01*
X-25260649Y-20100896D01*
X-25086359Y-20028703D01*
X-24929502Y-19923894D01*
X-24796106Y-19790498D01*
X-24691297Y-19633641D01*
X-24619104Y-19459351D01*
X-24582300Y-19274325D01*
X-24582300Y-19085675D01*
X-24582300Y-19085672D01*
X-24582301Y-19085670D01*
X-11257700Y-19085670D01*
X-11257700Y-19274329D01*
X-11220898Y-19459343D01*
X-11220895Y-19459355D01*
X-11148707Y-19633634D01*
X-11148700Y-19633647D01*
X-11043895Y-19790497D01*
X-11043892Y-19790501D01*
X-10910502Y-19923891D01*
X-10910498Y-19923894D01*
X-10753648Y-20028699D01*
X-10753635Y-20028706D01*
X-10579356Y-20100894D01*
X-10579351Y-20100896D01*
X-10394330Y-20137699D01*
X-10394327Y-20137700D01*
X-10394325Y-20137700D01*
X-10205673Y-20137700D01*
X-10205672Y-20137699D01*
X-10020649Y-20100896D01*
X-9846359Y-20028703D01*
X-9689502Y-19923894D01*
X-9556106Y-19790498D01*
X-9451297Y-19633641D01*
X-9379104Y-19459351D01*
X-9342300Y-19274325D01*
X-9342300Y-19085675D01*
X-9342300Y-19085672D01*
X-9342301Y-19085670D01*
X-9379103Y-18900656D01*
X-9379104Y-18900649D01*
X-9379106Y-18900644D01*
X-9451294Y-18726365D01*
X-9451301Y-18726352D01*
X-9556106Y-18569502D01*
X-9556109Y-18569498D01*
X-9689499Y-18436108D01*
X-9689503Y-18436105D01*
X-9846353Y-18331300D01*
X-9846366Y-18331293D01*
X-10020645Y-18259105D01*
X-10020657Y-18259102D01*
X-10205672Y-18222300D01*
X-10205675Y-18222300D01*
X-10394325Y-18222300D01*
X-10394328Y-18222300D01*
X-10579344Y-18259102D01*
X-10579356Y-18259105D01*
X-10753635Y-18331293D01*
X-10753648Y-18331300D01*
X-10910498Y-18436105D01*
X-10910502Y-18436108D01*
X-11043892Y-18569498D01*
X-11043895Y-18569502D01*
X-11148700Y-18726352D01*
X-11148707Y-18726365D01*
X-11220895Y-18900644D01*
X-11220898Y-18900656D01*
X-11257700Y-19085670D01*
X-24582301Y-19085670D01*
X-24619103Y-18900656D01*
X-24619104Y-18900649D01*
X-24619106Y-18900644D01*
X-24691294Y-18726365D01*
X-24691301Y-18726352D01*
X-24796106Y-18569502D01*
X-24796109Y-18569498D01*
X-24929499Y-18436108D01*
X-24929503Y-18436105D01*
X-25086353Y-18331300D01*
X-25086366Y-18331293D01*
X-25260645Y-18259105D01*
X-25260657Y-18259102D01*
X-25445672Y-18222300D01*
X-25445675Y-18222300D01*
X-25634325Y-18222300D01*
X-25634328Y-18222300D01*
X-25819344Y-18259102D01*
X-25819356Y-18259105D01*
X-25993635Y-18331293D01*
X-25993648Y-18331300D01*
X-26150498Y-18436105D01*
X-26150502Y-18436108D01*
X-26283892Y-18569498D01*
X-26283895Y-18569502D01*
X-26388700Y-18726352D01*
X-26388707Y-18726365D01*
X-26460895Y-18900644D01*
X-26460898Y-18900656D01*
X-26497700Y-19085670D01*
X-27057100Y-19085670D01*
X-27057100Y-16545670D01*
X-26497700Y-16545670D01*
X-26497700Y-16734329D01*
X-26460898Y-16919343D01*
X-26460895Y-16919355D01*
X-26388707Y-17093634D01*
X-26388700Y-17093647D01*
X-26283895Y-17250497D01*
X-26283892Y-17250501D01*
X-26150502Y-17383891D01*
X-26150498Y-17383894D01*
X-25993648Y-17488699D01*
X-25993635Y-17488706D01*
X-25819356Y-17560894D01*
X-25819351Y-17560896D01*
X-25634330Y-17597699D01*
X-25634327Y-17597700D01*
X-25634325Y-17597700D01*
X-25445673Y-17597700D01*
X-25445672Y-17597699D01*
X-25260649Y-17560896D01*
X-25086359Y-17488703D01*
X-24929502Y-17383894D01*
X-24796106Y-17250498D01*
X-24691297Y-17093641D01*
X-24619104Y-16919351D01*
X-24582300Y-16734325D01*
X-24582300Y-16545675D01*
X-24582300Y-16545672D01*
X-24582301Y-16545670D01*
X-11257700Y-16545670D01*
X-11257700Y-16734329D01*
X-11220898Y-16919343D01*
X-11220895Y-16919355D01*
X-11148707Y-17093634D01*
X-11148700Y-17093647D01*
X-11043895Y-17250497D01*
X-11043892Y-17250501D01*
X-10910502Y-17383891D01*
X-10910498Y-17383894D01*
X-10753648Y-17488699D01*
X-10753635Y-17488706D01*
X-10579356Y-17560894D01*
X-10579351Y-17560896D01*
X-10394330Y-17597699D01*
X-10394327Y-17597700D01*
X-10394325Y-17597700D01*
X-10205673Y-17597700D01*
X-10205672Y-17597699D01*
X-10020649Y-17560896D01*
X-9846359Y-17488703D01*
X-9689502Y-17383894D01*
X-9556106Y-17250498D01*
X-9451297Y-17093641D01*
X-9379104Y-16919351D01*
X-9342300Y-16734325D01*
X-9342300Y-16545675D01*
X-9342300Y-16545672D01*
X-9342301Y-16545670D01*
X-9379103Y-16360656D01*
X-9379104Y-16360649D01*
X-9379106Y-16360644D01*
X-9451294Y-16186365D01*
X-9451301Y-16186352D01*
X-9556106Y-16029502D01*
X-9556109Y-16029498D01*
X-9689499Y-15896108D01*
X-9689503Y-15896105D01*
X-9846353Y-15791300D01*
X-9846366Y-15791293D01*
X-10020645Y-15719105D01*
X-10020657Y-15719102D01*
X-10205672Y-15682300D01*
X-10205675Y-15682300D01*
X-10394325Y-15682300D01*
X-10394328Y-15682300D01*
X-10579344Y-15719102D01*
X-10579356Y-15719105D01*
X-10753635Y-15791293D01*
X-10753648Y-15791300D01*
X-10910498Y-15896105D01*
X-10910502Y-15896108D01*
X-11043892Y-16029498D01*
X-11043895Y-16029502D01*
X-11148700Y-16186352D01*
X-11148707Y-16186365D01*
X-11220895Y-16360644D01*
X-11220898Y-16360656D01*
X-11257700Y-16545670D01*
X-24582301Y-16545670D01*
X-24619103Y-16360656D01*
X-24619104Y-16360649D01*
X-24619106Y-16360644D01*
X-24691294Y-16186365D01*
X-24691301Y-16186352D01*
X-24796106Y-16029502D01*
X-24796109Y-16029498D01*
X-24929499Y-15896108D01*
X-24929503Y-15896105D01*
X-25086353Y-15791300D01*
X-25086366Y-15791293D01*
X-25260645Y-15719105D01*
X-25260657Y-15719102D01*
X-25445672Y-15682300D01*
X-25445675Y-15682300D01*
X-25634325Y-15682300D01*
X-25634328Y-15682300D01*
X-25819344Y-15719102D01*
X-25819356Y-15719105D01*
X-25993635Y-15791293D01*
X-25993648Y-15791300D01*
X-26150498Y-15896105D01*
X-26150502Y-15896108D01*
X-26283892Y-16029498D01*
X-26283895Y-16029502D01*
X-26388700Y-16186352D01*
X-26388707Y-16186365D01*
X-26460895Y-16360644D01*
X-26460898Y-16360656D01*
X-26497700Y-16545670D01*
X-27057100Y-16545670D01*
X-27057100Y-14005670D01*
X-26497700Y-14005670D01*
X-26497700Y-14194329D01*
X-26460898Y-14379343D01*
X-26460895Y-14379355D01*
X-26388707Y-14553634D01*
X-26388700Y-14553647D01*
X-26283895Y-14710497D01*
X-26283892Y-14710501D01*
X-26150502Y-14843891D01*
X-26150498Y-14843894D01*
X-25993648Y-14948699D01*
X-25993635Y-14948706D01*
X-25819356Y-15020894D01*
X-25819351Y-15020896D01*
X-25634330Y-15057699D01*
X-25634327Y-15057700D01*
X-25634325Y-15057700D01*
X-25445673Y-15057700D01*
X-25445672Y-15057699D01*
X-25260649Y-15020896D01*
X-25086359Y-14948703D01*
X-24929502Y-14843894D01*
X-24796106Y-14710498D01*
X-24691297Y-14553641D01*
X-24619104Y-14379351D01*
X-24582300Y-14194325D01*
X-24582300Y-14005675D01*
X-24582300Y-14005672D01*
X-24582301Y-14005670D01*
X-24619103Y-13820656D01*
X-24619104Y-13820649D01*
X-24621424Y-13815049D01*
X-24691294Y-13646365D01*
X-24691301Y-13646352D01*
X-24796106Y-13489502D01*
X-24796109Y-13489498D01*
X-24929499Y-13356108D01*
X-24929503Y-13356105D01*
X-25086353Y-13251300D01*
X-25086366Y-13251293D01*
X-25260645Y-13179105D01*
X-25260657Y-13179102D01*
X-25445672Y-13142300D01*
X-25445675Y-13142300D01*
X-25634325Y-13142300D01*
X-25634328Y-13142300D01*
X-25819344Y-13179102D01*
X-25819356Y-13179105D01*
X-25993635Y-13251293D01*
X-25993648Y-13251300D01*
X-26150498Y-13356105D01*
X-26150502Y-13356108D01*
X-26283892Y-13489498D01*
X-26283895Y-13489502D01*
X-26388700Y-13646352D01*
X-26388707Y-13646365D01*
X-26460895Y-13820644D01*
X-26460898Y-13820656D01*
X-26497700Y-14005670D01*
X-27057100Y-14005670D01*
X-27057100Y-11465670D01*
X-26497700Y-11465670D01*
X-26497700Y-11654329D01*
X-26460898Y-11839343D01*
X-26460895Y-11839355D01*
X-26388707Y-12013634D01*
X-26388700Y-12013647D01*
X-26283895Y-12170497D01*
X-26283892Y-12170501D01*
X-26150502Y-12303891D01*
X-26150498Y-12303894D01*
X-25993648Y-12408699D01*
X-25993635Y-12408706D01*
X-25819356Y-12480894D01*
X-25819351Y-12480896D01*
X-25634330Y-12517699D01*
X-25634327Y-12517700D01*
X-25634325Y-12517700D01*
X-25445673Y-12517700D01*
X-25445672Y-12517699D01*
X-25260649Y-12480896D01*
X-25086359Y-12408703D01*
X-24929502Y-12303894D01*
X-24796106Y-12170498D01*
X-24691297Y-12013641D01*
X-24619104Y-11839351D01*
X-24582300Y-11654325D01*
X-24582300Y-11465675D01*
X-24582300Y-11465672D01*
X-24582301Y-11465670D01*
X-24619103Y-11280656D01*
X-24619104Y-11280649D01*
X-24642334Y-11224567D01*
X-24691294Y-11106365D01*
X-24691301Y-11106352D01*
X-24796106Y-10949502D01*
X-24796109Y-10949498D01*
X-24929499Y-10816108D01*
X-24929503Y-10816105D01*
X-25086353Y-10711300D01*
X-25086366Y-10711293D01*
X-25260645Y-10639105D01*
X-25260657Y-10639102D01*
X-25445672Y-10602300D01*
X-25445675Y-10602300D01*
X-25634325Y-10602300D01*
X-25634328Y-10602300D01*
X-25819344Y-10639102D01*
X-25819356Y-10639105D01*
X-25993635Y-10711293D01*
X-25993648Y-10711300D01*
X-26150498Y-10816105D01*
X-26150502Y-10816108D01*
X-26283892Y-10949498D01*
X-26283895Y-10949502D01*
X-26388700Y-11106352D01*
X-26388707Y-11106365D01*
X-26460895Y-11280644D01*
X-26460898Y-11280656D01*
X-26497700Y-11465670D01*
X-27057100Y-11465670D01*
X-27057100Y-8925670D01*
X-26497700Y-8925670D01*
X-26497700Y-9114329D01*
X-26460898Y-9299343D01*
X-26460895Y-9299355D01*
X-26388707Y-9473634D01*
X-26388700Y-9473647D01*
X-26283895Y-9630497D01*
X-26283892Y-9630501D01*
X-26150502Y-9763891D01*
X-26150498Y-9763894D01*
X-25993648Y-9868699D01*
X-25993635Y-9868706D01*
X-25819356Y-9940894D01*
X-25819351Y-9940896D01*
X-25634330Y-9977699D01*
X-25634327Y-9977700D01*
X-25634325Y-9977700D01*
X-25445673Y-9977700D01*
X-25445672Y-9977699D01*
X-25260649Y-9940896D01*
X-25086359Y-9868703D01*
X-24929502Y-9763894D01*
X-24796106Y-9630498D01*
X-24691297Y-9473641D01*
X-24619104Y-9299351D01*
X-24582300Y-9114325D01*
X-24582300Y-8925675D01*
X-24582300Y-8925672D01*
X-24582301Y-8925670D01*
X-11257700Y-8925670D01*
X-11257700Y-9114329D01*
X-11220898Y-9299343D01*
X-11220895Y-9299355D01*
X-11148707Y-9473634D01*
X-11148700Y-9473647D01*
X-11043895Y-9630497D01*
X-11043892Y-9630501D01*
X-10910502Y-9763891D01*
X-10910498Y-9763894D01*
X-10753648Y-9868699D01*
X-10753635Y-9868706D01*
X-10579356Y-9940894D01*
X-10579351Y-9940896D01*
X-10394330Y-9977699D01*
X-10394327Y-9977700D01*
X-10394325Y-9977700D01*
X-10205673Y-9977700D01*
X-10205672Y-9977699D01*
X-10020649Y-9940896D01*
X-9846359Y-9868703D01*
X-9689502Y-9763894D01*
X-9556106Y-9630498D01*
X-9451297Y-9473641D01*
X-9379104Y-9299351D01*
X-9342300Y-9114325D01*
X-9342300Y-8925675D01*
X-9342300Y-8925672D01*
X-9342301Y-8925670D01*
X-9379103Y-8740656D01*
X-9379104Y-8740649D01*
X-9379106Y-8740644D01*
X-9451294Y-8566365D01*
X-9451301Y-8566352D01*
X-9556106Y-8409502D01*
X-9556109Y-8409498D01*
X-9689499Y-8276108D01*
X-9689503Y-8276105D01*
X-9846353Y-8171300D01*
X-9846366Y-8171293D01*
X-10020645Y-8099105D01*
X-10020657Y-8099102D01*
X-10205672Y-8062300D01*
X-10205675Y-8062300D01*
X-10394325Y-8062300D01*
X-10394328Y-8062300D01*
X-10579344Y-8099102D01*
X-10579356Y-8099105D01*
X-10753635Y-8171293D01*
X-10753648Y-8171300D01*
X-10910498Y-8276105D01*
X-10910502Y-8276108D01*
X-11043892Y-8409498D01*
X-11043895Y-8409502D01*
X-11148700Y-8566352D01*
X-11148707Y-8566365D01*
X-11220895Y-8740644D01*
X-11220898Y-8740656D01*
X-11257700Y-8925670D01*
X-24582301Y-8925670D01*
X-24619103Y-8740656D01*
X-24619104Y-8740649D01*
X-24619106Y-8740644D01*
X-24691294Y-8566365D01*
X-24691301Y-8566352D01*
X-24796106Y-8409502D01*
X-24796109Y-8409498D01*
X-24929499Y-8276108D01*
X-24929503Y-8276105D01*
X-25086353Y-8171300D01*
X-25086366Y-8171293D01*
X-25260645Y-8099105D01*
X-25260657Y-8099102D01*
X-25445672Y-8062300D01*
X-25445675Y-8062300D01*
X-25634325Y-8062300D01*
X-25634328Y-8062300D01*
X-25819344Y-8099102D01*
X-25819356Y-8099105D01*
X-25993635Y-8171293D01*
X-25993648Y-8171300D01*
X-26150498Y-8276105D01*
X-26150502Y-8276108D01*
X-26283892Y-8409498D01*
X-26283895Y-8409502D01*
X-26388700Y-8566352D01*
X-26388707Y-8566365D01*
X-26460895Y-8740644D01*
X-26460898Y-8740656D01*
X-26497700Y-8925670D01*
X-27057100Y-8925670D01*
X-27057100Y-6385670D01*
X-26497700Y-6385670D01*
X-26497700Y-6574329D01*
X-26460898Y-6759343D01*
X-26460895Y-6759355D01*
X-26388707Y-6933634D01*
X-26388700Y-6933647D01*
X-26283895Y-7090497D01*
X-26283892Y-7090501D01*
X-26150502Y-7223891D01*
X-26150498Y-7223894D01*
X-25993648Y-7328699D01*
X-25993635Y-7328706D01*
X-25819356Y-7400894D01*
X-25819351Y-7400896D01*
X-25634330Y-7437699D01*
X-25634327Y-7437700D01*
X-25634325Y-7437700D01*
X-25445673Y-7437700D01*
X-25445672Y-7437699D01*
X-25260649Y-7400896D01*
X-25086359Y-7328703D01*
X-24929502Y-7223894D01*
X-24796106Y-7090498D01*
X-24691297Y-6933641D01*
X-24619104Y-6759351D01*
X-24582300Y-6574325D01*
X-24582300Y-6385675D01*
X-24582300Y-6385672D01*
X-24582301Y-6385670D01*
X-11257700Y-6385670D01*
X-11257700Y-6574329D01*
X-11220898Y-6759343D01*
X-11220895Y-6759355D01*
X-11148707Y-6933634D01*
X-11148700Y-6933647D01*
X-11043895Y-7090497D01*
X-11043892Y-7090501D01*
X-10910502Y-7223891D01*
X-10910498Y-7223894D01*
X-10753648Y-7328699D01*
X-10753635Y-7328706D01*
X-10579356Y-7400894D01*
X-10579351Y-7400896D01*
X-10394330Y-7437699D01*
X-10394327Y-7437700D01*
X-10394325Y-7437700D01*
X-10205673Y-7437700D01*
X-10205672Y-7437699D01*
X-10020649Y-7400896D01*
X-9846359Y-7328703D01*
X-9689502Y-7223894D01*
X-9556106Y-7090498D01*
X-9451297Y-6933641D01*
X-9379104Y-6759351D01*
X-9342300Y-6574325D01*
X-9342300Y-6385675D01*
X-9342300Y-6385672D01*
X-9342301Y-6385670D01*
X-9379103Y-6200656D01*
X-9379104Y-6200649D01*
X-9379106Y-6200644D01*
X-9451294Y-6026365D01*
X-9451301Y-6026352D01*
X-9556106Y-5869502D01*
X-9556109Y-5869498D01*
X-9689499Y-5736108D01*
X-9689503Y-5736105D01*
X-9846353Y-5631300D01*
X-9846366Y-5631293D01*
X-10020645Y-5559105D01*
X-10020657Y-5559102D01*
X-10205672Y-5522300D01*
X-10205675Y-5522300D01*
X-10394325Y-5522300D01*
X-10394328Y-5522300D01*
X-10579344Y-5559102D01*
X-10579356Y-5559105D01*
X-10753635Y-5631293D01*
X-10753648Y-5631300D01*
X-10910498Y-5736105D01*
X-10910502Y-5736108D01*
X-11043892Y-5869498D01*
X-11043895Y-5869502D01*
X-11148700Y-6026352D01*
X-11148707Y-6026365D01*
X-11220895Y-6200644D01*
X-11220898Y-6200656D01*
X-11257700Y-6385670D01*
X-24582301Y-6385670D01*
X-24619103Y-6200656D01*
X-24619104Y-6200649D01*
X-24619106Y-6200644D01*
X-24691294Y-6026365D01*
X-24691301Y-6026352D01*
X-24796106Y-5869502D01*
X-24796109Y-5869498D01*
X-24929499Y-5736108D01*
X-24929503Y-5736105D01*
X-25086353Y-5631300D01*
X-25086366Y-5631293D01*
X-25260645Y-5559105D01*
X-25260657Y-5559102D01*
X-25445672Y-5522300D01*
X-25445675Y-5522300D01*
X-25634325Y-5522300D01*
X-25634328Y-5522300D01*
X-25819344Y-5559102D01*
X-25819356Y-5559105D01*
X-25993635Y-5631293D01*
X-25993648Y-5631300D01*
X-26150498Y-5736105D01*
X-26150502Y-5736108D01*
X-26283892Y-5869498D01*
X-26283895Y-5869502D01*
X-26388700Y-6026352D01*
X-26388707Y-6026365D01*
X-26460895Y-6200644D01*
X-26460898Y-6200656D01*
X-26497700Y-6385670D01*
X-27057100Y-6385670D01*
X-27057100Y-3841302D01*
X-26794000Y-3841302D01*
X-26794000Y-4038697D01*
X-26763124Y-4233646D01*
X-26702127Y-4421373D01*
X-26612517Y-4597239D01*
X-26586543Y-4632988D01*
X-26586543Y-4632989D01*
X-26022963Y-4069408D01*
X-26005925Y-4132993D01*
X-25940099Y-4247007D01*
X-25847007Y-4340099D01*
X-25732993Y-4405925D01*
X-25669410Y-4422962D01*
X-26232991Y-4986541D01*
X-26232990Y-4986542D01*
X-26197245Y-5012512D01*
X-26197232Y-5012520D01*
X-26021374Y-5102126D01*
X-25833647Y-5163123D01*
X-25638697Y-5194000D01*
X-25441303Y-5194000D01*
X-25246354Y-5163123D01*
X-25058627Y-5102126D01*
X-24882759Y-5012516D01*
X-24847012Y-4986543D01*
X-24847012Y-4986541D01*
X-25410590Y-4422962D01*
X-25347007Y-4405925D01*
X-25232993Y-4340099D01*
X-25139901Y-4247007D01*
X-25074075Y-4132993D01*
X-25057038Y-4069409D01*
X-24493459Y-4632988D01*
X-24493457Y-4632988D01*
X-24467484Y-4597241D01*
X-24377874Y-4421373D01*
X-24316877Y-4233646D01*
X-24286000Y-4038697D01*
X-24286000Y-3845670D01*
X-11257700Y-3845670D01*
X-11257700Y-4034329D01*
X-11220898Y-4219343D01*
X-11220895Y-4219355D01*
X-11148707Y-4393634D01*
X-11148700Y-4393647D01*
X-11043895Y-4550497D01*
X-11043892Y-4550501D01*
X-10910502Y-4683891D01*
X-10910498Y-4683894D01*
X-10753648Y-4788699D01*
X-10753635Y-4788706D01*
X-10579356Y-4860894D01*
X-10579351Y-4860896D01*
X-10394330Y-4897699D01*
X-10394327Y-4897700D01*
X-10394325Y-4897700D01*
X-10205673Y-4897700D01*
X-10205672Y-4897699D01*
X-10020649Y-4860896D01*
X-9846359Y-4788703D01*
X-9689502Y-4683894D01*
X-9556106Y-4550498D01*
X-9451297Y-4393641D01*
X-9379104Y-4219351D01*
X-9342300Y-4034325D01*
X-9342300Y-3878711D01*
X-5850500Y-3878711D01*
X-5850500Y-4121288D01*
X-5818839Y-4361785D01*
X-5756053Y-4596104D01*
X-5676274Y-4788706D01*
X-5663224Y-4820212D01*
X-5541936Y-5030289D01*
X-5541934Y-5030292D01*
X-5541933Y-5030293D01*
X-5394267Y-5222736D01*
X-5394261Y-5222743D01*
X-5222744Y-5394260D01*
X-5222738Y-5394265D01*
X-5030289Y-5541936D01*
X-4820212Y-5663224D01*
X-4596100Y-5756054D01*
X-4361789Y-5818838D01*
X-4181414Y-5842584D01*
X-4121289Y-5850500D01*
X-4121288Y-5850500D01*
X-3878711Y-5850500D01*
X-3830612Y-5844167D01*
X-3638211Y-5818838D01*
X-3403900Y-5756054D01*
X-3179788Y-5663224D01*
X-2969711Y-5541936D01*
X-2777262Y-5394265D01*
X-2605735Y-5222738D01*
X-2458064Y-5030289D01*
X-2336776Y-4820212D01*
X-2243946Y-4596100D01*
X-2181162Y-4361789D01*
X-2149500Y-4121288D01*
X-2149500Y-3878712D01*
X-2181162Y-3638211D01*
X-2243946Y-3403900D01*
X-2336776Y-3179788D01*
X-2458064Y-2969711D01*
X-2605735Y-2777262D01*
X-2605740Y-2777256D01*
X-2777257Y-2605739D01*
X-2777264Y-2605733D01*
X-2969707Y-2458067D01*
X-2969708Y-2458066D01*
X-2969711Y-2458064D01*
X-3179788Y-2336776D01*
X-3218123Y-2320897D01*
X-3403896Y-2243947D01*
X-3638215Y-2181161D01*
X-3878711Y-2149500D01*
X-3878712Y-2149500D01*
X-4121288Y-2149500D01*
X-4121289Y-2149500D01*
X-4361786Y-2181161D01*
X-4596105Y-2243947D01*
X-4820206Y-2336773D01*
X-4820215Y-2336777D01*
X-5030294Y-2458067D01*
X-5222737Y-2605733D01*
X-5222744Y-2605739D01*
X-5394261Y-2777256D01*
X-5394267Y-2777263D01*
X-5541933Y-2969706D01*
X-5663223Y-3179785D01*
X-5663227Y-3179794D01*
X-5756053Y-3403895D01*
X-5818839Y-3638214D01*
X-5850500Y-3878711D01*
X-9342300Y-3878711D01*
X-9342300Y-3845675D01*
X-9342300Y-3845672D01*
X-9342301Y-3845670D01*
X-9343170Y-3841302D01*
X-9379104Y-3660649D01*
X-9379106Y-3660644D01*
X-9451294Y-3486365D01*
X-9451301Y-3486352D01*
X-9556106Y-3329502D01*
X-9556109Y-3329498D01*
X-9689499Y-3196108D01*
X-9689503Y-3196105D01*
X-9846353Y-3091300D01*
X-9846366Y-3091293D01*
X-10020645Y-3019105D01*
X-10020657Y-3019102D01*
X-10205672Y-2982300D01*
X-10205675Y-2982300D01*
X-10394325Y-2982300D01*
X-10394328Y-2982300D01*
X-10579344Y-3019102D01*
X-10579356Y-3019105D01*
X-10753635Y-3091293D01*
X-10753648Y-3091300D01*
X-10910498Y-3196105D01*
X-10910502Y-3196108D01*
X-11043892Y-3329498D01*
X-11043895Y-3329502D01*
X-11148700Y-3486352D01*
X-11148707Y-3486365D01*
X-11220895Y-3660644D01*
X-11220898Y-3660656D01*
X-11257700Y-3845670D01*
X-24286000Y-3845670D01*
X-24286000Y-3841302D01*
X-24316877Y-3646353D01*
X-24377874Y-3458626D01*
X-24467480Y-3282768D01*
X-24467488Y-3282755D01*
X-24493458Y-3247010D01*
X-24493459Y-3247009D01*
X-25057038Y-3810589D01*
X-25074075Y-3747007D01*
X-25139901Y-3632993D01*
X-25232993Y-3539901D01*
X-25347007Y-3474075D01*
X-25410591Y-3457037D01*
X-24847011Y-2893457D01*
X-24882761Y-2867483D01*
X-25058627Y-2777873D01*
X-25246354Y-2716876D01*
X-25441303Y-2686000D01*
X-25638697Y-2686000D01*
X-25833647Y-2716876D01*
X-26021374Y-2777873D01*
X-26197238Y-2867482D01*
X-26197240Y-2867483D01*
X-26232990Y-2893456D01*
X-26232990Y-2893457D01*
X-25669409Y-3457037D01*
X-25732993Y-3474075D01*
X-25847007Y-3539901D01*
X-25940099Y-3632993D01*
X-26005925Y-3747007D01*
X-26022963Y-3810590D01*
X-26586543Y-3247010D01*
X-26586544Y-3247010D01*
X-26612517Y-3282760D01*
X-26612518Y-3282762D01*
X-26702127Y-3458626D01*
X-26763124Y-3646353D01*
X-26794000Y-3841302D01*
X-27057100Y-3841302D01*
X-27057100Y-2255663D01*
X-27037415Y-2188624D01*
X-27020781Y-2167982D01*
X-26645218Y-1792419D01*
X-26618291Y-1777715D01*
X-26592472Y-1761123D01*
X-26586272Y-1760231D01*
X-26583895Y-1758934D01*
X-26557537Y-1756100D01*
X-26511960Y-1756100D01*
X-26444921Y-1775785D01*
X-26399166Y-1828589D01*
X-26397399Y-1832648D01*
X-26388706Y-1853636D01*
X-26388705Y-1853638D01*
X-26283895Y-2010498D01*
X-26150502Y-2143891D01*
X-26150498Y-2143894D01*
X-25993648Y-2248699D01*
X-25993635Y-2248706D01*
X-25819356Y-2320894D01*
X-25819351Y-2320896D01*
X-25634330Y-2357699D01*
X-25634327Y-2357700D01*
X-25634325Y-2357700D01*
X-25445673Y-2357700D01*
X-25445672Y-2357699D01*
X-25260649Y-2320896D01*
X-25086359Y-2248703D01*
X-24929502Y-2143894D01*
X-24796106Y-2010498D01*
X-24691297Y-1853641D01*
X-24619104Y-1679351D01*
X-24582300Y-1494325D01*
X-24582300Y-1305675D01*
X-24582300Y-1305672D01*
X-24582301Y-1305670D01*
X-24619103Y-1120656D01*
X-24619104Y-1120649D01*
X-24621424Y-1115049D01*
X-24691294Y-946365D01*
X-24691301Y-946352D01*
X-24796106Y-789502D01*
X-24796109Y-789498D01*
X-24873426Y-712181D01*
X-24906911Y-650858D01*
X-24901927Y-581166D01*
X-24860055Y-525233D01*
X-24794591Y-500816D01*
X-24785745Y-500500D01*
X-11381700Y-500500D01*
X-11314661Y-520185D01*
X-11268906Y-572989D01*
X-11257700Y-624500D01*
X-11257700Y-625936D01*
X-11257700Y-2174064D01*
X-11257700Y-2174066D01*
X-11257701Y-2174066D01*
X-11245883Y-2233476D01*
X-11245882Y-2233479D01*
X-11245881Y-2233480D01*
X-11200860Y-2300860D01*
X-11147111Y-2336773D01*
X-11133480Y-2345881D01*
X-11133477Y-2345882D01*
X-11074067Y-2357700D01*
X-11074064Y-2357700D01*
X-9525934Y-2357700D01*
X-9466524Y-2345882D01*
X-9466523Y-2345881D01*
X-9466520Y-2345881D01*
X-9399140Y-2300860D01*
X-9354119Y-2233480D01*
X-9354118Y-2233476D01*
X-9342300Y-2174066D01*
X-9342300Y-624500D01*
X-9322615Y-557461D01*
X-9269811Y-511706D01*
X-9218300Y-500500D01*
X-624500Y-500500D01*
X-557461Y-520185D01*
X-511706Y-572989D01*
X-500500Y-624500D01*
X-500500Y-39375500D01*
X-520185Y-39442539D01*
X-572989Y-39488294D01*
X-624500Y-39499500D01*
X-35375500Y-39499500D01*
X-35442539Y-39479815D01*
X-35488294Y-39427011D01*
X-35499500Y-39375500D01*
X-35499500Y-35878711D01*
X-19950500Y-35878711D01*
X-19950500Y-36121288D01*
X-19918839Y-36361785D01*
X-19856053Y-36596104D01*
X-19763227Y-36820205D01*
X-19763224Y-36820212D01*
X-19641936Y-37030289D01*
X-19641934Y-37030292D01*
X-19641933Y-37030293D01*
X-19494267Y-37222736D01*
X-19494261Y-37222743D01*
X-19322744Y-37394260D01*
X-19322738Y-37394265D01*
X-19130289Y-37541936D01*
X-18920212Y-37663224D01*
X-18696100Y-37756054D01*
X-18461789Y-37818838D01*
X-18281414Y-37842584D01*
X-18221289Y-37850500D01*
X-18221288Y-37850500D01*
X-17978711Y-37850500D01*
X-17930612Y-37844167D01*
X-17738211Y-37818838D01*
X-17503900Y-37756054D01*
X-17279788Y-37663224D01*
X-17069711Y-37541936D01*
X-16877262Y-37394265D01*
X-16705735Y-37222738D01*
X-16558064Y-37030289D01*
X-16436776Y-36820212D01*
X-16343946Y-36596100D01*
X-16281162Y-36361789D01*
X-16249500Y-36121288D01*
X-16249500Y-35878712D01*
X-16281162Y-35638211D01*
X-16343946Y-35403900D01*
X-16436776Y-35179788D01*
X-16558064Y-34969711D01*
X-16705735Y-34777262D01*
X-16705740Y-34777256D01*
X-16877257Y-34605739D01*
X-16877264Y-34605733D01*
X-17069707Y-34458067D01*
X-17069708Y-34458066D01*
X-17069711Y-34458064D01*
X-17279788Y-34336776D01*
X-17279795Y-34336773D01*
X-17503896Y-34243947D01*
X-17738215Y-34181161D01*
X-17978711Y-34149500D01*
X-17978712Y-34149500D01*
X-18221288Y-34149500D01*
X-18221289Y-34149500D01*
X-18461786Y-34181161D01*
X-18696105Y-34243947D01*
X-18920206Y-34336773D01*
X-18920215Y-34336777D01*
X-19130294Y-34458067D01*
X-19322737Y-34605733D01*
X-19322744Y-34605739D01*
X-19494261Y-34777256D01*
X-19494267Y-34777263D01*
X-19641933Y-34969706D01*
X-19763223Y-35179785D01*
X-19763227Y-35179794D01*
X-19856053Y-35403895D01*
X-19918839Y-35638214D01*
X-19950500Y-35878711D01*
X-35499500Y-35878711D01*
X-35499500Y-3878711D01*
X-33850500Y-3878711D01*
X-33850500Y-4121288D01*
X-33818839Y-4361785D01*
X-33756053Y-4596104D01*
X-33676274Y-4788706D01*
X-33663224Y-4820212D01*
X-33541936Y-5030289D01*
X-33541934Y-5030292D01*
X-33541933Y-5030293D01*
X-33394267Y-5222736D01*
X-33394261Y-5222743D01*
X-33222744Y-5394260D01*
X-33222738Y-5394265D01*
X-33030289Y-5541936D01*
X-32820212Y-5663224D01*
X-32596100Y-5756054D01*
X-32361789Y-5818838D01*
X-32181414Y-5842584D01*
X-32121289Y-5850500D01*
X-32121288Y-5850500D01*
X-31878711Y-5850500D01*
X-31830612Y-5844167D01*
X-31638211Y-5818838D01*
X-31403900Y-5756054D01*
X-31179788Y-5663224D01*
X-30969711Y-5541936D01*
X-30777262Y-5394265D01*
X-30605735Y-5222738D01*
X-30458064Y-5030289D01*
X-30336776Y-4820212D01*
X-30243946Y-4596100D01*
X-30181162Y-4361789D01*
X-30149500Y-4121288D01*
X-30149500Y-3878712D01*
X-30181162Y-3638211D01*
X-30243946Y-3403900D01*
X-30336776Y-3179788D01*
X-30458064Y-2969711D01*
X-30605735Y-2777262D01*
X-30605740Y-2777256D01*
X-30777257Y-2605739D01*
X-30777264Y-2605733D01*
X-30969707Y-2458067D01*
X-30969708Y-2458066D01*
X-30969711Y-2458064D01*
X-31179788Y-2336776D01*
X-31218123Y-2320897D01*
X-31403896Y-2243947D01*
X-31638215Y-2181161D01*
X-31878711Y-2149500D01*
X-31878712Y-2149500D01*
X-32121288Y-2149500D01*
X-32121289Y-2149500D01*
X-32361786Y-2181161D01*
X-32596105Y-2243947D01*
X-32820206Y-2336773D01*
X-32820215Y-2336777D01*
X-33030294Y-2458067D01*
X-33222737Y-2605733D01*
X-33222744Y-2605739D01*
X-33394261Y-2777256D01*
X-33394267Y-2777263D01*
X-33541933Y-2969706D01*
X-33663223Y-3179785D01*
X-33663227Y-3179794D01*
X-33756053Y-3403895D01*
X-33818839Y-3638214D01*
X-33850500Y-3878711D01*
X-35499500Y-3878711D01*
X-35499500Y-624500D01*
X-35479815Y-557461D01*
X-35427011Y-511706D01*
X-35375500Y-500500D01*
X-26294255Y-500500D01*
X-26227216Y-520185D01*
G37*
%TD.AperFunction*%
%TD*%
M02*
