%TF.GenerationSoftware,KiCad,Pcbnew,9.0.7*%
%TF.CreationDate,2026-02-20T20:45:02+01:00*%
%TF.ProjectId,Controller-2040,436f6e74-726f-46c6-9c65-722d32303430,rev?*%
%TF.SameCoordinates,PX7735940PY2bde780*%
%TF.FileFunction,Copper,L2,Bot*%
%TF.FilePolarity,Positive*%
%FSLAX46Y46*%
G04 Gerber Fmt 4.6, Leading zero omitted, Abs format (unit mm)*
G04 Created by KiCad (PCBNEW 9.0.7) date 2026-02-20 20:45:02*
%MOMM*%
%LPD*%
G01*
G04 APERTURE LIST*
G04 Aperture macros list*
%AMRoundRect*
0 Rectangle with rounded corners*
0 $1 Rounding radius*
0 $2 $3 $4 $5 $6 $7 $8 $9 X,Y pos of 4 corners*
0 Add a 4 corners polygon primitive as box body*
4,1,4,$2,$3,$4,$5,$6,$7,$8,$9,$2,$3,0*
0 Add four circle primitives for the rounded corners*
1,1,$1+$1,$2,$3*
1,1,$1+$1,$4,$5*
1,1,$1+$1,$6,$7*
1,1,$1+$1,$8,$9*
0 Add four rect primitives between the rounded corners*
20,1,$1+$1,$2,$3,$4,$5,0*
20,1,$1+$1,$4,$5,$6,$7,0*
20,1,$1+$1,$6,$7,$8,$9,0*
20,1,$1+$1,$8,$9,$2,$3,0*%
G04 Aperture macros list end*
%TA.AperFunction,ComponentPad*%
%ADD10RoundRect,0.250000X-0.350000X-0.625000X0.350000X-0.625000X0.350000X0.625000X-0.350000X0.625000X0*%
%TD*%
%TA.AperFunction,ComponentPad*%
%ADD11O,1.200000X1.750000*%
%TD*%
%TA.AperFunction,ComponentPad*%
%ADD12R,1.508000X1.508000*%
%TD*%
%TA.AperFunction,ComponentPad*%
%ADD13C,1.508000*%
%TD*%
%TA.AperFunction,ViaPad*%
%ADD14C,0.600000*%
%TD*%
%TA.AperFunction,Conductor*%
%ADD15C,0.406400*%
%TD*%
G04 APERTURE END LIST*
D10*
%TO.P,J1,1,Pin_1*%
%TO.N,/GND*%
X-31000000Y-31750000D03*
D11*
%TO.P,J1,2,Pin_2*%
%TO.N,/VCC*%
X-29000000Y-31750000D03*
%TO.P,J1,3,Pin_3*%
%TO.N,/SDA*%
X-27000000Y-31750000D03*
%TO.P,J1,4,Pin_4*%
%TO.N,/SCL*%
X-25000000Y-31750000D03*
%TD*%
D10*
%TO.P,J2,1,Pin_1*%
%TO.N,/GND*%
X-11500000Y-31750000D03*
D11*
%TO.P,J2,2,Pin_2*%
%TO.N,/VCC*%
X-9500000Y-31750000D03*
%TO.P,J2,3,Pin_3*%
%TO.N,/SDA*%
X-7500000Y-31750000D03*
%TO.P,J2,4,Pin_4*%
%TO.N,/SCL*%
X-5500000Y-31750000D03*
%TD*%
D12*
%TO.P,U1,1,GP0*%
%TO.N,unconnected-(U1-GP0-Pad1)*%
X-10300000Y-1400000D03*
D13*
%TO.P,U1,2,GP1*%
%TO.N,unconnected-(U1-GP1-Pad2)*%
X-10300000Y-3940000D03*
%TO.P,U1,3,GP2*%
%TO.N,unconnected-(U1-GP2-Pad3)*%
X-10300000Y-6480000D03*
%TO.P,U1,4,GP3*%
%TO.N,unconnected-(U1-GP3-Pad4)*%
X-10300000Y-9020000D03*
%TO.P,U1,5,GP4*%
%TO.N,/SDA*%
X-10300000Y-11560000D03*
%TO.P,U1,6,GP5*%
%TO.N,/SCL*%
X-10300000Y-14100000D03*
%TO.P,U1,7,GP6*%
%TO.N,unconnected-(U1-GP6-Pad7)*%
X-10300000Y-16640000D03*
%TO.P,U1,8,GP7*%
%TO.N,unconnected-(U1-GP7-Pad8)*%
X-10300000Y-19180000D03*
%TO.P,U1,9,GP8*%
%TO.N,unconnected-(U1-GP8-Pad9)*%
X-10300000Y-21720000D03*
%TO.P,U1,15,GP14*%
%TO.N,unconnected-(U1-GP14-Pad15)*%
X-25540000Y-21720000D03*
%TO.P,U1,16,GP15*%
%TO.N,unconnected-(U1-GP15-Pad16)*%
X-25540000Y-19180000D03*
%TO.P,U1,17,GP26*%
%TO.N,unconnected-(U1-GP26-Pad17)*%
X-25540000Y-16640000D03*
%TO.P,U1,18,GP27*%
%TO.N,unconnected-(U1-GP27-Pad18)*%
X-25540000Y-14100000D03*
%TO.P,U1,19,GP28*%
%TO.N,unconnected-(U1-GP28-Pad19)*%
X-25540000Y-11560000D03*
%TO.P,U1,20,GP29*%
%TO.N,unconnected-(U1-GP29-Pad20)*%
X-25540000Y-9020000D03*
%TO.P,U1,21,3V3*%
%TO.N,unconnected-(U1-3V3-Pad21)*%
X-25540000Y-6480000D03*
%TO.P,U1,22,GND*%
%TO.N,/GND*%
X-25540000Y-3940000D03*
%TO.P,U1,23,5V*%
%TO.N,/VCC*%
X-25540000Y-1400000D03*
%TD*%
D14*
%TO.N,/SCL*%
X-20860000Y-28168000D03*
X-20860000Y-30962000D03*
%TD*%
D15*
%TO.N,/VCC*%
X-23752000Y-1400000D02*
X-25540000Y-1400000D01*
X-22892000Y-2260000D02*
X-23752000Y-1400000D01*
X-22892000Y-26644000D02*
X-22892000Y-2260000D01*
X-23908000Y-27660000D02*
X-22892000Y-26644000D01*
X-26956000Y-27660000D02*
X-23908000Y-27660000D01*
X-29000000Y-29704000D02*
X-26956000Y-27660000D01*
X-29000000Y-31750000D02*
X-29000000Y-29704000D01*
X-9500000Y-30384000D02*
X-9938000Y-29946000D01*
X-9500000Y-31750000D02*
X-9500000Y-30384000D01*
X-18066000Y-29946000D02*
X-9938000Y-29946000D01*
X-21876000Y-33756000D02*
X-18066000Y-29946000D01*
X-28480000Y-33756000D02*
X-21876000Y-33756000D01*
X-29000000Y-33236000D02*
X-28480000Y-33756000D01*
X-29000000Y-31750000D02*
X-29000000Y-33236000D01*
%TO.N,/SCL*%
X-5500000Y-28168000D02*
X-5500000Y-15080000D01*
X-20860000Y-28168000D02*
X-5500000Y-28168000D01*
X-21648000Y-31750000D02*
X-20860000Y-30962000D01*
X-25000000Y-31750000D02*
X-21648000Y-31750000D01*
%TO.N,/SDA*%
X-7500000Y-30098000D02*
X-7500000Y-31750000D01*
X-8414000Y-29184000D02*
X-7500000Y-30098000D01*
X-26448000Y-29184000D02*
X-8414000Y-29184000D01*
X-27000000Y-29736000D02*
X-26448000Y-29184000D01*
X-27000000Y-31750000D02*
X-27000000Y-29736000D01*
X-5718000Y-11560000D02*
X-10300000Y-11560000D01*
X-4604000Y-12674000D02*
X-5718000Y-11560000D01*
X-4604000Y-27152000D02*
X-4604000Y-12674000D01*
X-2826000Y-28930000D02*
X-4604000Y-27152000D01*
X-2826000Y-32740000D02*
X-2826000Y-28930000D01*
X-3588000Y-33502000D02*
X-2826000Y-32740000D01*
X-6890000Y-33502000D02*
X-3588000Y-33502000D01*
X-7500000Y-32892000D02*
X-6890000Y-33502000D01*
X-7500000Y-31750000D02*
X-7500000Y-32892000D01*
%TO.N,/SCL*%
X-6480000Y-14100000D02*
X-10300000Y-14100000D01*
X-5500000Y-15080000D02*
X-6480000Y-14100000D01*
X-5500000Y-31750000D02*
X-5500000Y-28168000D01*
%TD*%
%TA.AperFunction,Conductor*%
%TO.N,/GND*%
G36*
X-26370900Y-520185D02*
G01*
X-26325145Y-572989D01*
X-26315201Y-642147D01*
X-26344226Y-705703D01*
X-26350258Y-712181D01*
X-26362810Y-724732D01*
X-26362816Y-724740D01*
X-26478739Y-898231D01*
X-26558591Y-1091013D01*
X-26558593Y-1091019D01*
X-26599300Y-1295665D01*
X-26599300Y-1295668D01*
X-26599300Y-1504332D01*
X-26599300Y-1504334D01*
X-26599301Y-1504334D01*
X-26558593Y-1708980D01*
X-26558591Y-1708986D01*
X-26478739Y-1901768D01*
X-26362816Y-2075259D01*
X-26362810Y-2075267D01*
X-26215268Y-2222809D01*
X-26215260Y-2222815D01*
X-26041769Y-2338738D01*
X-25985305Y-2362126D01*
X-25848986Y-2418591D01*
X-25752305Y-2437822D01*
X-25688382Y-2450538D01*
X-25626471Y-2482923D01*
X-25591896Y-2543639D01*
X-25595636Y-2613408D01*
X-25636503Y-2670080D01*
X-25693175Y-2694628D01*
X-25833647Y-2716876D01*
X-26021374Y-2777873D01*
X-26197238Y-2867482D01*
X-26197240Y-2867483D01*
X-26232990Y-2893456D01*
X-26232990Y-2893457D01*
X-25669409Y-3457037D01*
X-25732993Y-3474075D01*
X-25847007Y-3539901D01*
X-25940099Y-3632993D01*
X-26005925Y-3747007D01*
X-26022963Y-3810590D01*
X-26586543Y-3247010D01*
X-26586544Y-3247010D01*
X-26612517Y-3282760D01*
X-26612518Y-3282762D01*
X-26702127Y-3458626D01*
X-26763124Y-3646353D01*
X-26794000Y-3841302D01*
X-26794000Y-4038697D01*
X-26763124Y-4233646D01*
X-26702127Y-4421373D01*
X-26612517Y-4597239D01*
X-26586543Y-4632988D01*
X-26586543Y-4632989D01*
X-26022963Y-4069409D01*
X-26005925Y-4132993D01*
X-25940099Y-4247007D01*
X-25847007Y-4340099D01*
X-25732993Y-4405925D01*
X-25669410Y-4422962D01*
X-26232991Y-4986541D01*
X-26232990Y-4986542D01*
X-26197245Y-5012512D01*
X-26197232Y-5012520D01*
X-26021374Y-5102126D01*
X-25833647Y-5163123D01*
X-25693176Y-5185371D01*
X-25630041Y-5215300D01*
X-25593109Y-5274611D01*
X-25594107Y-5344474D01*
X-25632716Y-5402707D01*
X-25688381Y-5429461D01*
X-25848981Y-5461407D01*
X-25848987Y-5461409D01*
X-26041769Y-5541261D01*
X-26215260Y-5657184D01*
X-26215268Y-5657190D01*
X-26362810Y-5804732D01*
X-26362816Y-5804740D01*
X-26478739Y-5978231D01*
X-26558591Y-6171013D01*
X-26558593Y-6171019D01*
X-26599300Y-6375665D01*
X-26599300Y-6375668D01*
X-26599300Y-6584332D01*
X-26599300Y-6584334D01*
X-26599301Y-6584334D01*
X-26558593Y-6788980D01*
X-26558591Y-6788986D01*
X-26478739Y-6981768D01*
X-26362816Y-7155259D01*
X-26362810Y-7155267D01*
X-26215268Y-7302809D01*
X-26215260Y-7302815D01*
X-26041769Y-7418738D01*
X-25985305Y-7442126D01*
X-25848986Y-7498591D01*
X-25848982Y-7498591D01*
X-25848981Y-7498592D01*
X-25644335Y-7539300D01*
X-25644332Y-7539300D01*
X-25435666Y-7539300D01*
X-25297986Y-7511912D01*
X-25231014Y-7498591D01*
X-25038234Y-7418739D01*
X-25038234Y-7418738D01*
X-25038232Y-7418738D01*
X-24952067Y-7361163D01*
X-24864736Y-7302812D01*
X-24717188Y-7155264D01*
X-24601261Y-6981766D01*
X-24521409Y-6788986D01*
X-24480700Y-6584332D01*
X-24480700Y-6375668D01*
X-24480700Y-6375665D01*
X-24521408Y-6171019D01*
X-24521409Y-6171018D01*
X-24521409Y-6171014D01*
X-24601261Y-5978234D01*
X-24601262Y-5978231D01*
X-24717185Y-5804740D01*
X-24717191Y-5804732D01*
X-24864733Y-5657190D01*
X-24864741Y-5657184D01*
X-25038232Y-5541261D01*
X-25231014Y-5461409D01*
X-25231020Y-5461407D01*
X-25391620Y-5429461D01*
X-25453531Y-5397076D01*
X-25488105Y-5336360D01*
X-25484364Y-5266590D01*
X-25443498Y-5209919D01*
X-25386825Y-5185371D01*
X-25246355Y-5163123D01*
X-25246354Y-5163123D01*
X-25058627Y-5102126D01*
X-24882759Y-5012516D01*
X-24847012Y-4986543D01*
X-24847012Y-4986541D01*
X-25410590Y-4422962D01*
X-25347007Y-4405925D01*
X-25232993Y-4340099D01*
X-25139901Y-4247007D01*
X-25074075Y-4132993D01*
X-25057038Y-4069409D01*
X-24493459Y-4632988D01*
X-24493457Y-4632988D01*
X-24467484Y-4597241D01*
X-24377874Y-4421373D01*
X-24316877Y-4233646D01*
X-24286000Y-4038697D01*
X-24286000Y-3841302D01*
X-24316877Y-3646353D01*
X-24377874Y-3458626D01*
X-24467480Y-3282768D01*
X-24467488Y-3282755D01*
X-24493458Y-3247010D01*
X-24493459Y-3247009D01*
X-25057038Y-3810589D01*
X-25074075Y-3747007D01*
X-25139901Y-3632993D01*
X-25232993Y-3539901D01*
X-25347007Y-3474075D01*
X-25410591Y-3457037D01*
X-24847011Y-2893457D01*
X-24882761Y-2867483D01*
X-25058627Y-2777873D01*
X-25246354Y-2716876D01*
X-25386826Y-2694628D01*
X-25449961Y-2664699D01*
X-25486892Y-2605387D01*
X-25485894Y-2535525D01*
X-25447284Y-2477292D01*
X-25391619Y-2450538D01*
X-25376701Y-2447570D01*
X-25231014Y-2418591D01*
X-25038234Y-2338739D01*
X-25038234Y-2338738D01*
X-25038232Y-2338738D01*
X-24896367Y-2243947D01*
X-24864736Y-2222812D01*
X-24717188Y-2075264D01*
X-24642583Y-1963608D01*
X-24588972Y-1918804D01*
X-24539481Y-1908500D01*
X-24013990Y-1908500D01*
X-23946951Y-1928185D01*
X-23926309Y-1944819D01*
X-23436819Y-2434308D01*
X-23403334Y-2495631D01*
X-23400500Y-2521989D01*
X-23400500Y-26382010D01*
X-23420185Y-26449049D01*
X-23436819Y-26469691D01*
X-24082309Y-27115181D01*
X-24143632Y-27148666D01*
X-24169990Y-27151500D01*
X-27022945Y-27151500D01*
X-27152272Y-27186152D01*
X-27152274Y-27186152D01*
X-27152274Y-27186153D01*
X-27209070Y-27218945D01*
X-27268223Y-27253097D01*
X-27268229Y-27253101D01*
X-29406899Y-29391770D01*
X-29406901Y-29391773D01*
X-29433879Y-29438500D01*
X-29447202Y-29461575D01*
X-29473847Y-29507724D01*
X-29508500Y-29637055D01*
X-29508500Y-30659694D01*
X-29528185Y-30726733D01*
X-29563607Y-30762795D01*
X-29577097Y-30771808D01*
X-29703192Y-30897903D01*
X-29717266Y-30918967D01*
X-29770880Y-30963771D01*
X-29840205Y-30972477D01*
X-29903232Y-30942321D01*
X-29938073Y-30889078D01*
X-29965642Y-30805880D01*
X-29965644Y-30805875D01*
X-30057685Y-30656654D01*
X-30181655Y-30532684D01*
X-30330876Y-30440643D01*
X-30330881Y-30440641D01*
X-30497303Y-30385494D01*
X-30497310Y-30385493D01*
X-30600014Y-30375000D01*
X-30750000Y-30375000D01*
X-30750000Y-31469670D01*
X-30769745Y-31449925D01*
X-30855255Y-31400556D01*
X-30950630Y-31375000D01*
X-31049370Y-31375000D01*
X-31144745Y-31400556D01*
X-31230255Y-31449925D01*
X-31250000Y-31469670D01*
X-31250000Y-30375000D01*
X-31399973Y-30375000D01*
X-31399988Y-30375001D01*
X-31502698Y-30385494D01*
X-31669120Y-30440641D01*
X-31669125Y-30440643D01*
X-31818346Y-30532684D01*
X-31942316Y-30656654D01*
X-32034357Y-30805875D01*
X-32034359Y-30805880D01*
X-32089506Y-30972302D01*
X-32089507Y-30972309D01*
X-32100000Y-31075013D01*
X-32100000Y-31500000D01*
X-31280330Y-31500000D01*
X-31300075Y-31519745D01*
X-31349444Y-31605255D01*
X-31375000Y-31700630D01*
X-31375000Y-31799370D01*
X-31349444Y-31894745D01*
X-31300075Y-31980255D01*
X-31280330Y-32000000D01*
X-32099999Y-32000000D01*
X-32099999Y-32424986D01*
X-32089506Y-32527697D01*
X-32034359Y-32694119D01*
X-32034357Y-32694124D01*
X-31942316Y-32843345D01*
X-31818346Y-32967315D01*
X-31669125Y-33059356D01*
X-31669120Y-33059358D01*
X-31502698Y-33114505D01*
X-31502691Y-33114506D01*
X-31399981Y-33124999D01*
X-31250001Y-33124999D01*
X-31250000Y-33124998D01*
X-31250000Y-32030330D01*
X-31230255Y-32050075D01*
X-31144745Y-32099444D01*
X-31049370Y-32125000D01*
X-30950630Y-32125000D01*
X-30855255Y-32099444D01*
X-30769745Y-32050075D01*
X-30750000Y-32030330D01*
X-30750000Y-33124999D01*
X-30600028Y-33124999D01*
X-30600014Y-33124998D01*
X-30497303Y-33114505D01*
X-30330881Y-33059358D01*
X-30330876Y-33059356D01*
X-30181655Y-32967315D01*
X-30057685Y-32843345D01*
X-29965644Y-32694124D01*
X-29965641Y-32694117D01*
X-29938073Y-32610922D01*
X-29898301Y-32553477D01*
X-29833785Y-32526653D01*
X-29765009Y-32538968D01*
X-29717265Y-32581034D01*
X-29703193Y-32602094D01*
X-29703190Y-32602098D01*
X-29577099Y-32728189D01*
X-29577096Y-32728191D01*
X-29577095Y-32728192D01*
X-29563611Y-32737202D01*
X-29518805Y-32790811D01*
X-29508500Y-32840304D01*
X-29508500Y-33302944D01*
X-29473847Y-33432275D01*
X-29440374Y-33490250D01*
X-29406901Y-33548227D01*
X-28792227Y-34162901D01*
X-28676274Y-34229847D01*
X-28546945Y-34264500D01*
X-28546943Y-34264500D01*
X-21809057Y-34264500D01*
X-21809055Y-34264500D01*
X-21679726Y-34229847D01*
X-21563773Y-34162901D01*
X-17891692Y-30490818D01*
X-17830369Y-30457334D01*
X-17804011Y-30454500D01*
X-12538598Y-30454500D01*
X-12471559Y-30474185D01*
X-12425804Y-30526989D01*
X-12415860Y-30596147D01*
X-12439080Y-30650167D01*
X-12438525Y-30650509D01*
X-12440839Y-30654259D01*
X-12441335Y-30655415D01*
X-12442317Y-30656656D01*
X-12534357Y-30805875D01*
X-12534359Y-30805880D01*
X-12589506Y-30972302D01*
X-12589507Y-30972309D01*
X-12600000Y-31075013D01*
X-12600000Y-31500000D01*
X-11780330Y-31500000D01*
X-11800075Y-31519745D01*
X-11849444Y-31605255D01*
X-11875000Y-31700630D01*
X-11875000Y-31799370D01*
X-11849444Y-31894745D01*
X-11800075Y-31980255D01*
X-11780330Y-32000000D01*
X-12599999Y-32000000D01*
X-12599999Y-32424986D01*
X-12589506Y-32527697D01*
X-12534359Y-32694119D01*
X-12534357Y-32694124D01*
X-12442316Y-32843345D01*
X-12318346Y-32967315D01*
X-12169125Y-33059356D01*
X-12169120Y-33059358D01*
X-12002698Y-33114505D01*
X-12002691Y-33114506D01*
X-11899981Y-33124999D01*
X-11750001Y-33124999D01*
X-11750000Y-33124998D01*
X-11750000Y-32030330D01*
X-11730255Y-32050075D01*
X-11644745Y-32099444D01*
X-11549370Y-32125000D01*
X-11450630Y-32125000D01*
X-11355255Y-32099444D01*
X-11269745Y-32050075D01*
X-11250000Y-32030330D01*
X-11250000Y-33124999D01*
X-11100028Y-33124999D01*
X-11100014Y-33124998D01*
X-10997303Y-33114505D01*
X-10830881Y-33059358D01*
X-10830876Y-33059356D01*
X-10681655Y-32967315D01*
X-10557685Y-32843345D01*
X-10465644Y-32694124D01*
X-10465641Y-32694117D01*
X-10438073Y-32610922D01*
X-10398301Y-32553477D01*
X-10333785Y-32526653D01*
X-10265009Y-32538968D01*
X-10217265Y-32581034D01*
X-10203193Y-32602094D01*
X-10203190Y-32602098D01*
X-10077099Y-32728189D01*
X-10077095Y-32728192D01*
X-9928827Y-32827262D01*
X-9928814Y-32827269D01*
X-9764071Y-32895507D01*
X-9764066Y-32895509D01*
X-9764062Y-32895509D01*
X-9764061Y-32895510D01*
X-9589167Y-32930300D01*
X-9589164Y-32930300D01*
X-9410834Y-32930300D01*
X-9293171Y-32906894D01*
X-9235934Y-32895509D01*
X-9071180Y-32827266D01*
X-8922905Y-32728192D01*
X-8796808Y-32602095D01*
X-8697734Y-32453820D01*
X-8629491Y-32289066D01*
X-8626161Y-32272325D01*
X-8621617Y-32249483D01*
X-8589232Y-32187572D01*
X-8528516Y-32152998D01*
X-8458747Y-32156738D01*
X-8402075Y-32197605D01*
X-8378383Y-32249483D01*
X-8370511Y-32289060D01*
X-8370508Y-32289070D01*
X-8302270Y-32453813D01*
X-8302263Y-32453826D01*
X-8203193Y-32602094D01*
X-8203190Y-32602098D01*
X-8077099Y-32728189D01*
X-8077096Y-32728191D01*
X-8077095Y-32728192D01*
X-8063611Y-32737202D01*
X-8018805Y-32790811D01*
X-8008500Y-32840304D01*
X-8008500Y-32958945D01*
X-7999241Y-32993500D01*
X-7973847Y-33088275D01*
X-7958702Y-33114506D01*
X-7906901Y-33204227D01*
X-7202227Y-33908901D01*
X-7127103Y-33952274D01*
X-7086274Y-33975847D01*
X-6956945Y-34010500D01*
X-6956943Y-34010500D01*
X-3521057Y-34010500D01*
X-3521055Y-34010500D01*
X-3391726Y-33975847D01*
X-3275773Y-33908901D01*
X-2419099Y-33052226D01*
X-2352153Y-32936274D01*
X-2317500Y-32806945D01*
X-2317500Y-32673054D01*
X-2317500Y-28863055D01*
X-2352153Y-28733726D01*
X-2419099Y-28617774D01*
X-2513774Y-28523099D01*
X-4059181Y-26977691D01*
X-4092666Y-26916368D01*
X-4095500Y-26890010D01*
X-4095500Y-12607057D01*
X-4095500Y-12607055D01*
X-4130153Y-12477726D01*
X-4197099Y-12361774D01*
X-4291774Y-12267099D01*
X-5405773Y-11153099D01*
X-5463750Y-11119626D01*
X-5521725Y-11086153D01*
X-5586391Y-11068826D01*
X-5651055Y-11051500D01*
X-5651056Y-11051500D01*
X-9299481Y-11051500D01*
X-9366520Y-11031815D01*
X-9402582Y-10996392D01*
X-9477188Y-10884736D01*
X-9477190Y-10884733D01*
X-9624733Y-10737190D01*
X-9624741Y-10737184D01*
X-9798232Y-10621261D01*
X-9991014Y-10541409D01*
X-9991020Y-10541407D01*
X-10195666Y-10500700D01*
X-10195668Y-10500700D01*
X-10404332Y-10500700D01*
X-10404334Y-10500700D01*
X-10608981Y-10541407D01*
X-10608987Y-10541409D01*
X-10801769Y-10621261D01*
X-10975260Y-10737184D01*
X-10975268Y-10737190D01*
X-11122810Y-10884732D01*
X-11122816Y-10884740D01*
X-11238739Y-11058231D01*
X-11318591Y-11251013D01*
X-11318593Y-11251019D01*
X-11359300Y-11455665D01*
X-11359300Y-11455668D01*
X-11359300Y-11664332D01*
X-11359300Y-11664334D01*
X-11359301Y-11664334D01*
X-11318593Y-11868980D01*
X-11318591Y-11868986D01*
X-11238739Y-12061768D01*
X-11122816Y-12235259D01*
X-11122810Y-12235267D01*
X-10975268Y-12382809D01*
X-10975260Y-12382815D01*
X-10801769Y-12498738D01*
X-10745305Y-12522126D01*
X-10608986Y-12578591D01*
X-10608982Y-12578591D01*
X-10608981Y-12578592D01*
X-10404335Y-12619300D01*
X-10404332Y-12619300D01*
X-10195666Y-12619300D01*
X-10057986Y-12591912D01*
X-9991014Y-12578591D01*
X-9798234Y-12498739D01*
X-9798234Y-12498738D01*
X-9798232Y-12498738D01*
X-9712067Y-12441163D01*
X-9624736Y-12382812D01*
X-9477188Y-12235264D01*
X-9402583Y-12123608D01*
X-9348972Y-12078804D01*
X-9299481Y-12068500D01*
X-5979990Y-12068500D01*
X-5912951Y-12088185D01*
X-5892309Y-12104819D01*
X-5148819Y-12848308D01*
X-5115334Y-12909631D01*
X-5112500Y-12935989D01*
X-5112500Y-14449010D01*
X-5132185Y-14516049D01*
X-5184989Y-14561804D01*
X-5254147Y-14571748D01*
X-5317703Y-14542723D01*
X-5324181Y-14536691D01*
X-6167771Y-13693101D01*
X-6167773Y-13693099D01*
X-6225750Y-13659626D01*
X-6283725Y-13626153D01*
X-6348391Y-13608826D01*
X-6413055Y-13591500D01*
X-6413056Y-13591500D01*
X-9299481Y-13591500D01*
X-9366520Y-13571815D01*
X-9402582Y-13536392D01*
X-9477188Y-13424736D01*
X-9477190Y-13424733D01*
X-9624733Y-13277190D01*
X-9624741Y-13277184D01*
X-9798232Y-13161261D01*
X-9991014Y-13081409D01*
X-9991020Y-13081407D01*
X-10195666Y-13040700D01*
X-10195668Y-13040700D01*
X-10404332Y-13040700D01*
X-10404334Y-13040700D01*
X-10608981Y-13081407D01*
X-10608987Y-13081409D01*
X-10801769Y-13161261D01*
X-10975260Y-13277184D01*
X-10975268Y-13277190D01*
X-11122810Y-13424732D01*
X-11122816Y-13424740D01*
X-11238739Y-13598231D01*
X-11318591Y-13791013D01*
X-11318593Y-13791019D01*
X-11359300Y-13995665D01*
X-11359300Y-13995668D01*
X-11359300Y-14204332D01*
X-11359300Y-14204334D01*
X-11359301Y-14204334D01*
X-11318593Y-14408980D01*
X-11318591Y-14408986D01*
X-11238739Y-14601768D01*
X-11122816Y-14775259D01*
X-11122810Y-14775267D01*
X-10975268Y-14922809D01*
X-10975260Y-14922815D01*
X-10801769Y-15038738D01*
X-10745305Y-15062126D01*
X-10608986Y-15118591D01*
X-10608982Y-15118591D01*
X-10608981Y-15118592D01*
X-10404335Y-15159300D01*
X-10404332Y-15159300D01*
X-10195666Y-15159300D01*
X-10057986Y-15131912D01*
X-9991014Y-15118591D01*
X-9798234Y-15038739D01*
X-9798234Y-15038738D01*
X-9798232Y-15038738D01*
X-9712067Y-14981163D01*
X-9624736Y-14922812D01*
X-9477188Y-14775264D01*
X-9402583Y-14663608D01*
X-9348972Y-14618804D01*
X-9299481Y-14608500D01*
X-6741990Y-14608500D01*
X-6674951Y-14628185D01*
X-6654309Y-14644819D01*
X-6044819Y-15254309D01*
X-6011334Y-15315632D01*
X-6008500Y-15341990D01*
X-6008500Y-27535500D01*
X-6028185Y-27602539D01*
X-6080989Y-27648294D01*
X-6132500Y-27659500D01*
X-20496922Y-27659500D01*
X-20558922Y-27642887D01*
X-20583305Y-27628810D01*
X-20626362Y-27603950D01*
X-20703337Y-27583325D01*
X-20780311Y-27562700D01*
X-20939689Y-27562700D01*
X-21093639Y-27603950D01*
X-21231663Y-27683640D01*
X-21231666Y-27683642D01*
X-21344358Y-27796334D01*
X-21344360Y-27796337D01*
X-21424050Y-27934361D01*
X-21465300Y-28088311D01*
X-21465300Y-28247688D01*
X-21424050Y-28401638D01*
X-21373322Y-28489499D01*
X-21356849Y-28557399D01*
X-21379701Y-28623426D01*
X-21434622Y-28666617D01*
X-21480709Y-28675500D01*
X-26514945Y-28675500D01*
X-26644275Y-28710153D01*
X-26760226Y-28777099D01*
X-26760229Y-28777101D01*
X-27406899Y-29423770D01*
X-27406903Y-29423776D01*
X-27473485Y-29539099D01*
X-27473846Y-29539723D01*
X-27473847Y-29539726D01*
X-27508500Y-29669055D01*
X-27508500Y-30659694D01*
X-27528185Y-30726733D01*
X-27563607Y-30762795D01*
X-27577097Y-30771808D01*
X-27703190Y-30897901D01*
X-27703193Y-30897905D01*
X-27802263Y-31046173D01*
X-27802270Y-31046186D01*
X-27870508Y-31210929D01*
X-27870511Y-31210939D01*
X-27878383Y-31250516D01*
X-27910768Y-31312427D01*
X-27971484Y-31347001D01*
X-28041254Y-31343260D01*
X-28097925Y-31302394D01*
X-28121617Y-31250516D01*
X-28129490Y-31210939D01*
X-28129491Y-31210938D01*
X-28129491Y-31210934D01*
X-28185791Y-31075013D01*
X-28197731Y-31046186D01*
X-28197738Y-31046173D01*
X-28296808Y-30897905D01*
X-28296811Y-30897901D01*
X-28422904Y-30771808D01*
X-28436393Y-30762795D01*
X-28481197Y-30709181D01*
X-28491500Y-30659694D01*
X-28491500Y-29965989D01*
X-28471815Y-29898950D01*
X-28455181Y-29878308D01*
X-26781692Y-28204819D01*
X-26720369Y-28171334D01*
X-26694011Y-28168500D01*
X-23841057Y-28168500D01*
X-23841055Y-28168500D01*
X-23711726Y-28133847D01*
X-23595773Y-28066901D01*
X-22485099Y-26956227D01*
X-22418153Y-26840274D01*
X-22383500Y-26710945D01*
X-22383500Y-26577055D01*
X-22383500Y-21824334D01*
X-11359301Y-21824334D01*
X-11318593Y-22028980D01*
X-11318591Y-22028986D01*
X-11238739Y-22221768D01*
X-11122816Y-22395259D01*
X-11122810Y-22395267D01*
X-10975268Y-22542809D01*
X-10975260Y-22542815D01*
X-10801769Y-22658738D01*
X-10745305Y-22682126D01*
X-10608986Y-22738591D01*
X-10608982Y-22738591D01*
X-10608981Y-22738592D01*
X-10404335Y-22779300D01*
X-10404332Y-22779300D01*
X-10195666Y-22779300D01*
X-10057986Y-22751912D01*
X-9991014Y-22738591D01*
X-9798234Y-22658739D01*
X-9798234Y-22658738D01*
X-9798232Y-22658738D01*
X-9712067Y-22601163D01*
X-9624736Y-22542812D01*
X-9477188Y-22395264D01*
X-9361261Y-22221766D01*
X-9281409Y-22028986D01*
X-9240700Y-21824332D01*
X-9240700Y-21615668D01*
X-9240700Y-21615665D01*
X-9281408Y-21411019D01*
X-9281409Y-21411018D01*
X-9281409Y-21411014D01*
X-9361261Y-21218234D01*
X-9361262Y-21218231D01*
X-9477185Y-21044740D01*
X-9477191Y-21044732D01*
X-9624733Y-20897190D01*
X-9624741Y-20897184D01*
X-9798232Y-20781261D01*
X-9991014Y-20701409D01*
X-9991020Y-20701407D01*
X-10195666Y-20660700D01*
X-10195668Y-20660700D01*
X-10404332Y-20660700D01*
X-10404334Y-20660700D01*
X-10608981Y-20701407D01*
X-10608987Y-20701409D01*
X-10801769Y-20781261D01*
X-10975260Y-20897184D01*
X-10975268Y-20897190D01*
X-11122810Y-21044732D01*
X-11122816Y-21044740D01*
X-11238739Y-21218231D01*
X-11318591Y-21411013D01*
X-11318593Y-21411019D01*
X-11359300Y-21615665D01*
X-11359300Y-21615668D01*
X-11359300Y-21824332D01*
X-11359300Y-21824334D01*
X-11359301Y-21824334D01*
X-22383500Y-21824334D01*
X-22383500Y-19284334D01*
X-11359301Y-19284334D01*
X-11318593Y-19488980D01*
X-11318591Y-19488986D01*
X-11238739Y-19681768D01*
X-11122816Y-19855259D01*
X-11122810Y-19855267D01*
X-10975268Y-20002809D01*
X-10975260Y-20002815D01*
X-10801769Y-20118738D01*
X-10745305Y-20142126D01*
X-10608986Y-20198591D01*
X-10608982Y-20198591D01*
X-10608981Y-20198592D01*
X-10404335Y-20239300D01*
X-10404332Y-20239300D01*
X-10195666Y-20239300D01*
X-10057986Y-20211912D01*
X-9991014Y-20198591D01*
X-9798234Y-20118739D01*
X-9798234Y-20118738D01*
X-9798232Y-20118738D01*
X-9712067Y-20061163D01*
X-9624736Y-20002812D01*
X-9477188Y-19855264D01*
X-9361261Y-19681766D01*
X-9281409Y-19488986D01*
X-9240700Y-19284332D01*
X-9240700Y-19075668D01*
X-9240700Y-19075665D01*
X-9281408Y-18871019D01*
X-9281409Y-18871018D01*
X-9281409Y-18871014D01*
X-9361261Y-18678234D01*
X-9361262Y-18678231D01*
X-9477185Y-18504740D01*
X-9477191Y-18504732D01*
X-9624733Y-18357190D01*
X-9624741Y-18357184D01*
X-9798232Y-18241261D01*
X-9991014Y-18161409D01*
X-9991020Y-18161407D01*
X-10195666Y-18120700D01*
X-10195668Y-18120700D01*
X-10404332Y-18120700D01*
X-10404334Y-18120700D01*
X-10608981Y-18161407D01*
X-10608987Y-18161409D01*
X-10801769Y-18241261D01*
X-10975260Y-18357184D01*
X-10975268Y-18357190D01*
X-11122810Y-18504732D01*
X-11122816Y-18504740D01*
X-11238739Y-18678231D01*
X-11318591Y-18871013D01*
X-11318593Y-18871019D01*
X-11359300Y-19075665D01*
X-11359300Y-19075668D01*
X-11359300Y-19284332D01*
X-11359300Y-19284334D01*
X-11359301Y-19284334D01*
X-22383500Y-19284334D01*
X-22383500Y-16744334D01*
X-11359301Y-16744334D01*
X-11318593Y-16948980D01*
X-11318591Y-16948986D01*
X-11238739Y-17141768D01*
X-11122816Y-17315259D01*
X-11122810Y-17315267D01*
X-10975268Y-17462809D01*
X-10975260Y-17462815D01*
X-10801769Y-17578738D01*
X-10745305Y-17602126D01*
X-10608986Y-17658591D01*
X-10608982Y-17658591D01*
X-10608981Y-17658592D01*
X-10404335Y-17699300D01*
X-10404332Y-17699300D01*
X-10195666Y-17699300D01*
X-10057986Y-17671912D01*
X-9991014Y-17658591D01*
X-9798234Y-17578739D01*
X-9798234Y-17578738D01*
X-9798232Y-17578738D01*
X-9712067Y-17521163D01*
X-9624736Y-17462812D01*
X-9477188Y-17315264D01*
X-9361261Y-17141766D01*
X-9281409Y-16948986D01*
X-9240700Y-16744332D01*
X-9240700Y-16535668D01*
X-9240700Y-16535665D01*
X-9281408Y-16331019D01*
X-9281409Y-16331018D01*
X-9281409Y-16331014D01*
X-9361261Y-16138234D01*
X-9361262Y-16138231D01*
X-9477185Y-15964740D01*
X-9477191Y-15964732D01*
X-9624733Y-15817190D01*
X-9624741Y-15817184D01*
X-9798232Y-15701261D01*
X-9991014Y-15621409D01*
X-9991020Y-15621407D01*
X-10195666Y-15580700D01*
X-10195668Y-15580700D01*
X-10404332Y-15580700D01*
X-10404334Y-15580700D01*
X-10608981Y-15621407D01*
X-10608987Y-15621409D01*
X-10801769Y-15701261D01*
X-10975260Y-15817184D01*
X-10975268Y-15817190D01*
X-11122810Y-15964732D01*
X-11122816Y-15964740D01*
X-11238739Y-16138231D01*
X-11318591Y-16331013D01*
X-11318593Y-16331019D01*
X-11359300Y-16535665D01*
X-11359300Y-16535668D01*
X-11359300Y-16744332D01*
X-11359300Y-16744334D01*
X-11359301Y-16744334D01*
X-22383500Y-16744334D01*
X-22383500Y-9124334D01*
X-11359301Y-9124334D01*
X-11318593Y-9328980D01*
X-11318591Y-9328986D01*
X-11238739Y-9521768D01*
X-11122816Y-9695259D01*
X-11122810Y-9695267D01*
X-10975268Y-9842809D01*
X-10975260Y-9842815D01*
X-10801769Y-9958738D01*
X-10745305Y-9982126D01*
X-10608986Y-10038591D01*
X-10608982Y-10038591D01*
X-10608981Y-10038592D01*
X-10404335Y-10079300D01*
X-10404332Y-10079300D01*
X-10195666Y-10079300D01*
X-10057986Y-10051912D01*
X-9991014Y-10038591D01*
X-9798234Y-9958739D01*
X-9798234Y-9958738D01*
X-9798232Y-9958738D01*
X-9712067Y-9901163D01*
X-9624736Y-9842812D01*
X-9477188Y-9695264D01*
X-9361261Y-9521766D01*
X-9281409Y-9328986D01*
X-9240700Y-9124332D01*
X-9240700Y-8915668D01*
X-9240700Y-8915665D01*
X-9281408Y-8711019D01*
X-9281409Y-8711018D01*
X-9281409Y-8711014D01*
X-9361261Y-8518234D01*
X-9361262Y-8518231D01*
X-9477185Y-8344740D01*
X-9477191Y-8344732D01*
X-9624733Y-8197190D01*
X-9624741Y-8197184D01*
X-9798232Y-8081261D01*
X-9991014Y-8001409D01*
X-9991020Y-8001407D01*
X-10195666Y-7960700D01*
X-10195668Y-7960700D01*
X-10404332Y-7960700D01*
X-10404334Y-7960700D01*
X-10608981Y-8001407D01*
X-10608987Y-8001409D01*
X-10801769Y-8081261D01*
X-10975260Y-8197184D01*
X-10975268Y-8197190D01*
X-11122810Y-8344732D01*
X-11122816Y-8344740D01*
X-11238739Y-8518231D01*
X-11318591Y-8711013D01*
X-11318593Y-8711019D01*
X-11359300Y-8915665D01*
X-11359300Y-8915668D01*
X-11359300Y-9124332D01*
X-11359300Y-9124334D01*
X-11359301Y-9124334D01*
X-22383500Y-9124334D01*
X-22383500Y-6584334D01*
X-11359301Y-6584334D01*
X-11318593Y-6788980D01*
X-11318591Y-6788986D01*
X-11238739Y-6981768D01*
X-11122816Y-7155259D01*
X-11122810Y-7155267D01*
X-10975268Y-7302809D01*
X-10975260Y-7302815D01*
X-10801769Y-7418738D01*
X-10745305Y-7442126D01*
X-10608986Y-7498591D01*
X-10608982Y-7498591D01*
X-10608981Y-7498592D01*
X-10404335Y-7539300D01*
X-10404332Y-7539300D01*
X-10195666Y-7539300D01*
X-10057986Y-7511912D01*
X-9991014Y-7498591D01*
X-9798234Y-7418739D01*
X-9798234Y-7418738D01*
X-9798232Y-7418738D01*
X-9712067Y-7361163D01*
X-9624736Y-7302812D01*
X-9477188Y-7155264D01*
X-9361261Y-6981766D01*
X-9281409Y-6788986D01*
X-9240700Y-6584332D01*
X-9240700Y-6375668D01*
X-9240700Y-6375665D01*
X-9281408Y-6171019D01*
X-9281409Y-6171018D01*
X-9281409Y-6171014D01*
X-9361261Y-5978234D01*
X-9361262Y-5978231D01*
X-9477185Y-5804740D01*
X-9477191Y-5804732D01*
X-9624733Y-5657190D01*
X-9624741Y-5657184D01*
X-9798232Y-5541261D01*
X-9991014Y-5461409D01*
X-9991020Y-5461407D01*
X-10195666Y-5420700D01*
X-10195668Y-5420700D01*
X-10404332Y-5420700D01*
X-10404334Y-5420700D01*
X-10608981Y-5461407D01*
X-10608987Y-5461409D01*
X-10801769Y-5541261D01*
X-10975260Y-5657184D01*
X-10975268Y-5657190D01*
X-11122810Y-5804732D01*
X-11122816Y-5804740D01*
X-11238739Y-5978231D01*
X-11318591Y-6171013D01*
X-11318593Y-6171019D01*
X-11359300Y-6375665D01*
X-11359300Y-6375668D01*
X-11359300Y-6584332D01*
X-11359300Y-6584334D01*
X-11359301Y-6584334D01*
X-22383500Y-6584334D01*
X-22383500Y-4044334D01*
X-11359301Y-4044334D01*
X-11318593Y-4248980D01*
X-11318591Y-4248986D01*
X-11238739Y-4441768D01*
X-11122816Y-4615259D01*
X-11122810Y-4615267D01*
X-10975268Y-4762809D01*
X-10975260Y-4762815D01*
X-10801769Y-4878738D01*
X-10745305Y-4902126D01*
X-10608986Y-4958591D01*
X-10608982Y-4958591D01*
X-10608981Y-4958592D01*
X-10404335Y-4999300D01*
X-10404332Y-4999300D01*
X-10195666Y-4999300D01*
X-10057986Y-4971912D01*
X-9991014Y-4958591D01*
X-9798234Y-4878739D01*
X-9798234Y-4878738D01*
X-9798232Y-4878738D01*
X-9710631Y-4820205D01*
X-9624736Y-4762812D01*
X-9477188Y-4615264D01*
X-9361261Y-4441766D01*
X-9281409Y-4248986D01*
X-9240700Y-4044332D01*
X-9240700Y-3878711D01*
X-5850500Y-3878711D01*
X-5850500Y-4121288D01*
X-5821694Y-4340099D01*
X-5818838Y-4361789D01*
X-5787446Y-4478944D01*
X-5756053Y-4596104D01*
X-5687001Y-4762809D01*
X-5663224Y-4820212D01*
X-5541936Y-5030289D01*
X-5541934Y-5030292D01*
X-5541933Y-5030293D01*
X-5394267Y-5222736D01*
X-5394261Y-5222743D01*
X-5222744Y-5394260D01*
X-5222738Y-5394265D01*
X-5030289Y-5541936D01*
X-4820212Y-5663224D01*
X-4596100Y-5756054D01*
X-4361789Y-5818838D01*
X-4181414Y-5842584D01*
X-4121289Y-5850500D01*
X-4121288Y-5850500D01*
X-3878711Y-5850500D01*
X-3830612Y-5844167D01*
X-3638211Y-5818838D01*
X-3403900Y-5756054D01*
X-3179788Y-5663224D01*
X-2969711Y-5541936D01*
X-2777262Y-5394265D01*
X-2605735Y-5222738D01*
X-2458064Y-5030289D01*
X-2336776Y-4820212D01*
X-2243946Y-4596100D01*
X-2181162Y-4361789D01*
X-2149500Y-4121288D01*
X-2149500Y-3878712D01*
X-2181162Y-3638211D01*
X-2243946Y-3403900D01*
X-2336776Y-3179788D01*
X-2458064Y-2969711D01*
X-2605735Y-2777262D01*
X-2605740Y-2777256D01*
X-2777257Y-2605739D01*
X-2777264Y-2605733D01*
X-2969707Y-2458067D01*
X-2969708Y-2458066D01*
X-2969711Y-2458064D01*
X-3176388Y-2338739D01*
X-3179786Y-2336777D01*
X-3179795Y-2336773D01*
X-3403896Y-2243947D01*
X-3521056Y-2212554D01*
X-3638211Y-2181162D01*
X-3638212Y-2181161D01*
X-3638215Y-2181161D01*
X-3878711Y-2149500D01*
X-3878712Y-2149500D01*
X-4121288Y-2149500D01*
X-4121289Y-2149500D01*
X-4361786Y-2181161D01*
X-4596105Y-2243947D01*
X-4820206Y-2336773D01*
X-4820215Y-2336777D01*
X-4989142Y-2434308D01*
X-5017253Y-2450538D01*
X-5030294Y-2458067D01*
X-5222737Y-2605733D01*
X-5222744Y-2605739D01*
X-5394261Y-2777256D01*
X-5394267Y-2777263D01*
X-5541933Y-2969706D01*
X-5663223Y-3179785D01*
X-5663227Y-3179794D01*
X-5756053Y-3403895D01*
X-5818839Y-3638214D01*
X-5850500Y-3878711D01*
X-9240700Y-3878711D01*
X-9240700Y-3835668D01*
X-9240700Y-3835665D01*
X-9281408Y-3631019D01*
X-9281409Y-3631018D01*
X-9281409Y-3631014D01*
X-9361261Y-3438234D01*
X-9361262Y-3438231D01*
X-9477185Y-3264740D01*
X-9477191Y-3264732D01*
X-9624733Y-3117190D01*
X-9624741Y-3117184D01*
X-9798232Y-3001261D01*
X-9991014Y-2921409D01*
X-9991020Y-2921407D01*
X-10195666Y-2880700D01*
X-10195668Y-2880700D01*
X-10404332Y-2880700D01*
X-10404334Y-2880700D01*
X-10608981Y-2921407D01*
X-10608987Y-2921409D01*
X-10801769Y-3001261D01*
X-10975260Y-3117184D01*
X-10975268Y-3117190D01*
X-11122810Y-3264732D01*
X-11122816Y-3264740D01*
X-11238739Y-3438231D01*
X-11318591Y-3631013D01*
X-11318593Y-3631019D01*
X-11359300Y-3835665D01*
X-11359300Y-3835668D01*
X-11359300Y-4044332D01*
X-11359300Y-4044334D01*
X-11359301Y-4044334D01*
X-22383500Y-4044334D01*
X-22383500Y-2193055D01*
X-22418153Y-2063726D01*
X-22485099Y-1947774D01*
X-22579774Y-1853099D01*
X-23439773Y-993099D01*
X-23497750Y-959626D01*
X-23555725Y-926153D01*
X-23620391Y-908826D01*
X-23685055Y-891500D01*
X-23685056Y-891500D01*
X-24539481Y-891500D01*
X-24545096Y-889851D01*
X-24550839Y-890979D01*
X-24578245Y-880117D01*
X-24606520Y-871815D01*
X-24611763Y-866833D01*
X-24615794Y-865236D01*
X-24633436Y-846240D01*
X-24640238Y-839777D01*
X-24641437Y-838105D01*
X-24717188Y-724736D01*
X-24736908Y-705016D01*
X-24742818Y-696777D01*
X-24751146Y-672983D01*
X-24763227Y-650858D01*
X-24762492Y-640567D01*
X-24765899Y-630830D01*
X-24760042Y-606312D01*
X-24758243Y-581166D01*
X-24752061Y-572907D01*
X-24749663Y-562873D01*
X-24731478Y-545412D01*
X-24716371Y-525233D01*
X-24706706Y-521627D01*
X-24699263Y-514482D01*
X-24674525Y-509624D01*
X-24650907Y-500816D01*
X-24642061Y-500500D01*
X-11483300Y-500500D01*
X-11416261Y-520185D01*
X-11370506Y-572989D01*
X-11359300Y-624500D01*
X-11359300Y-2199571D01*
X-11359298Y-2199594D01*
X-11356339Y-2225106D01*
X-11356338Y-2225109D01*
X-11310235Y-2329524D01*
X-11310234Y-2329525D01*
X-11229525Y-2410234D01*
X-11125109Y-2456338D01*
X-11099579Y-2459300D01*
X-9500422Y-2459299D01*
X-9474891Y-2456338D01*
X-9370475Y-2410234D01*
X-9289766Y-2329525D01*
X-9243662Y-2225109D01*
X-9240700Y-2199579D01*
X-9240701Y-624499D01*
X-9221016Y-557461D01*
X-9168213Y-511706D01*
X-9116701Y-500500D01*
X-624500Y-500500D01*
X-557461Y-520185D01*
X-511706Y-572989D01*
X-500500Y-624500D01*
X-500500Y-39375500D01*
X-520185Y-39442539D01*
X-572989Y-39488294D01*
X-624500Y-39499500D01*
X-35375500Y-39499500D01*
X-35442539Y-39479815D01*
X-35488294Y-39427011D01*
X-35499500Y-39375500D01*
X-35499500Y-35878711D01*
X-19950500Y-35878711D01*
X-19950500Y-36121288D01*
X-19918839Y-36361785D01*
X-19856053Y-36596104D01*
X-19763227Y-36820205D01*
X-19763224Y-36820212D01*
X-19641936Y-37030289D01*
X-19641934Y-37030292D01*
X-19641933Y-37030293D01*
X-19494267Y-37222736D01*
X-19494261Y-37222743D01*
X-19322744Y-37394260D01*
X-19322738Y-37394265D01*
X-19130289Y-37541936D01*
X-18920212Y-37663224D01*
X-18696100Y-37756054D01*
X-18461789Y-37818838D01*
X-18281414Y-37842584D01*
X-18221289Y-37850500D01*
X-18221288Y-37850500D01*
X-17978711Y-37850500D01*
X-17930612Y-37844167D01*
X-17738211Y-37818838D01*
X-17503900Y-37756054D01*
X-17279788Y-37663224D01*
X-17069711Y-37541936D01*
X-16877262Y-37394265D01*
X-16705735Y-37222738D01*
X-16558064Y-37030289D01*
X-16436776Y-36820212D01*
X-16343946Y-36596100D01*
X-16281162Y-36361789D01*
X-16249500Y-36121288D01*
X-16249500Y-35878712D01*
X-16281162Y-35638211D01*
X-16343946Y-35403900D01*
X-16436776Y-35179788D01*
X-16558064Y-34969711D01*
X-16705735Y-34777262D01*
X-16705740Y-34777256D01*
X-16877257Y-34605739D01*
X-16877264Y-34605733D01*
X-17069707Y-34458067D01*
X-17069708Y-34458066D01*
X-17069711Y-34458064D01*
X-17279788Y-34336776D01*
X-17279795Y-34336773D01*
X-17503896Y-34243947D01*
X-17738215Y-34181161D01*
X-17978711Y-34149500D01*
X-17978712Y-34149500D01*
X-18221288Y-34149500D01*
X-18221289Y-34149500D01*
X-18461786Y-34181161D01*
X-18696105Y-34243947D01*
X-18920206Y-34336773D01*
X-18920215Y-34336777D01*
X-19130294Y-34458067D01*
X-19322737Y-34605733D01*
X-19322744Y-34605739D01*
X-19494261Y-34777256D01*
X-19494267Y-34777263D01*
X-19641933Y-34969706D01*
X-19763223Y-35179785D01*
X-19763227Y-35179794D01*
X-19856053Y-35403895D01*
X-19918839Y-35638214D01*
X-19950500Y-35878711D01*
X-35499500Y-35878711D01*
X-35499500Y-21824334D01*
X-26599301Y-21824334D01*
X-26558593Y-22028980D01*
X-26558591Y-22028986D01*
X-26478739Y-22221768D01*
X-26362816Y-22395259D01*
X-26362810Y-22395267D01*
X-26215268Y-22542809D01*
X-26215260Y-22542815D01*
X-26041769Y-22658738D01*
X-25985305Y-22682126D01*
X-25848986Y-22738591D01*
X-25848982Y-22738591D01*
X-25848981Y-22738592D01*
X-25644335Y-22779300D01*
X-25644332Y-22779300D01*
X-25435666Y-22779300D01*
X-25297986Y-22751912D01*
X-25231014Y-22738591D01*
X-25038234Y-22658739D01*
X-25038234Y-22658738D01*
X-25038232Y-22658738D01*
X-24952067Y-22601163D01*
X-24864736Y-22542812D01*
X-24717188Y-22395264D01*
X-24601261Y-22221766D01*
X-24521409Y-22028986D01*
X-24480700Y-21824332D01*
X-24480700Y-21615668D01*
X-24480700Y-21615665D01*
X-24521408Y-21411019D01*
X-24521409Y-21411018D01*
X-24521409Y-21411014D01*
X-24601261Y-21218234D01*
X-24601262Y-21218231D01*
X-24717185Y-21044740D01*
X-24717191Y-21044732D01*
X-24864733Y-20897190D01*
X-24864741Y-20897184D01*
X-25038232Y-20781261D01*
X-25231014Y-20701409D01*
X-25231020Y-20701407D01*
X-25435666Y-20660700D01*
X-25435668Y-20660700D01*
X-25644332Y-20660700D01*
X-25644334Y-20660700D01*
X-25848981Y-20701407D01*
X-25848987Y-20701409D01*
X-26041769Y-20781261D01*
X-26215260Y-20897184D01*
X-26215268Y-20897190D01*
X-26362810Y-21044732D01*
X-26362816Y-21044740D01*
X-26478739Y-21218231D01*
X-26558591Y-21411013D01*
X-26558593Y-21411019D01*
X-26599300Y-21615665D01*
X-26599300Y-21615668D01*
X-26599300Y-21824332D01*
X-26599300Y-21824334D01*
X-26599301Y-21824334D01*
X-35499500Y-21824334D01*
X-35499500Y-19284334D01*
X-26599301Y-19284334D01*
X-26558593Y-19488980D01*
X-26558591Y-19488986D01*
X-26478739Y-19681768D01*
X-26362816Y-19855259D01*
X-26362810Y-19855267D01*
X-26215268Y-20002809D01*
X-26215260Y-20002815D01*
X-26041769Y-20118738D01*
X-25985305Y-20142126D01*
X-25848986Y-20198591D01*
X-25848982Y-20198591D01*
X-25848981Y-20198592D01*
X-25644335Y-20239300D01*
X-25644332Y-20239300D01*
X-25435666Y-20239300D01*
X-25297986Y-20211912D01*
X-25231014Y-20198591D01*
X-25038234Y-20118739D01*
X-25038234Y-20118738D01*
X-25038232Y-20118738D01*
X-24952067Y-20061163D01*
X-24864736Y-20002812D01*
X-24717188Y-19855264D01*
X-24601261Y-19681766D01*
X-24521409Y-19488986D01*
X-24480700Y-19284332D01*
X-24480700Y-19075668D01*
X-24480700Y-19075665D01*
X-24521408Y-18871019D01*
X-24521409Y-18871018D01*
X-24521409Y-18871014D01*
X-24601261Y-18678234D01*
X-24601262Y-18678231D01*
X-24717185Y-18504740D01*
X-24717191Y-18504732D01*
X-24864733Y-18357190D01*
X-24864741Y-18357184D01*
X-25038232Y-18241261D01*
X-25231014Y-18161409D01*
X-25231020Y-18161407D01*
X-25435666Y-18120700D01*
X-25435668Y-18120700D01*
X-25644332Y-18120700D01*
X-25644334Y-18120700D01*
X-25848981Y-18161407D01*
X-25848987Y-18161409D01*
X-26041769Y-18241261D01*
X-26215260Y-18357184D01*
X-26215268Y-18357190D01*
X-26362810Y-18504732D01*
X-26362816Y-18504740D01*
X-26478739Y-18678231D01*
X-26558591Y-18871013D01*
X-26558593Y-18871019D01*
X-26599300Y-19075665D01*
X-26599300Y-19075668D01*
X-26599300Y-19284332D01*
X-26599300Y-19284334D01*
X-26599301Y-19284334D01*
X-35499500Y-19284334D01*
X-35499500Y-16744334D01*
X-26599301Y-16744334D01*
X-26558593Y-16948980D01*
X-26558591Y-16948986D01*
X-26478739Y-17141768D01*
X-26362816Y-17315259D01*
X-26362810Y-17315267D01*
X-26215268Y-17462809D01*
X-26215260Y-17462815D01*
X-26041769Y-17578738D01*
X-25985305Y-17602126D01*
X-25848986Y-17658591D01*
X-25848982Y-17658591D01*
X-25848981Y-17658592D01*
X-25644335Y-17699300D01*
X-25644332Y-17699300D01*
X-25435666Y-17699300D01*
X-25297986Y-17671912D01*
X-25231014Y-17658591D01*
X-25038234Y-17578739D01*
X-25038234Y-17578738D01*
X-25038232Y-17578738D01*
X-24952067Y-17521163D01*
X-24864736Y-17462812D01*
X-24717188Y-17315264D01*
X-24601261Y-17141766D01*
X-24521409Y-16948986D01*
X-24480700Y-16744332D01*
X-24480700Y-16535668D01*
X-24480700Y-16535665D01*
X-24521408Y-16331019D01*
X-24521409Y-16331018D01*
X-24521409Y-16331014D01*
X-24601261Y-16138234D01*
X-24601262Y-16138231D01*
X-24717185Y-15964740D01*
X-24717191Y-15964732D01*
X-24864733Y-15817190D01*
X-24864741Y-15817184D01*
X-25038232Y-15701261D01*
X-25231014Y-15621409D01*
X-25231020Y-15621407D01*
X-25435666Y-15580700D01*
X-25435668Y-15580700D01*
X-25644332Y-15580700D01*
X-25644334Y-15580700D01*
X-25848981Y-15621407D01*
X-25848987Y-15621409D01*
X-26041769Y-15701261D01*
X-26215260Y-15817184D01*
X-26215268Y-15817190D01*
X-26362810Y-15964732D01*
X-26362816Y-15964740D01*
X-26478739Y-16138231D01*
X-26558591Y-16331013D01*
X-26558593Y-16331019D01*
X-26599300Y-16535665D01*
X-26599300Y-16535668D01*
X-26599300Y-16744332D01*
X-26599300Y-16744334D01*
X-26599301Y-16744334D01*
X-35499500Y-16744334D01*
X-35499500Y-14204334D01*
X-26599301Y-14204334D01*
X-26558593Y-14408980D01*
X-26558591Y-14408986D01*
X-26478739Y-14601768D01*
X-26362816Y-14775259D01*
X-26362810Y-14775267D01*
X-26215268Y-14922809D01*
X-26215260Y-14922815D01*
X-26041769Y-15038738D01*
X-25985305Y-15062126D01*
X-25848986Y-15118591D01*
X-25848982Y-15118591D01*
X-25848981Y-15118592D01*
X-25644335Y-15159300D01*
X-25644332Y-15159300D01*
X-25435666Y-15159300D01*
X-25297986Y-15131912D01*
X-25231014Y-15118591D01*
X-25038234Y-15038739D01*
X-25038234Y-15038738D01*
X-25038232Y-15038738D01*
X-24952067Y-14981163D01*
X-24864736Y-14922812D01*
X-24717188Y-14775264D01*
X-24630028Y-14644819D01*
X-24601262Y-14601768D01*
X-24588827Y-14571748D01*
X-24521409Y-14408986D01*
X-24480700Y-14204332D01*
X-24480700Y-13995668D01*
X-24480700Y-13995665D01*
X-24521408Y-13791019D01*
X-24521409Y-13791018D01*
X-24521409Y-13791014D01*
X-24577874Y-13654695D01*
X-24601262Y-13598231D01*
X-24717185Y-13424740D01*
X-24717191Y-13424732D01*
X-24864733Y-13277190D01*
X-24864741Y-13277184D01*
X-25038232Y-13161261D01*
X-25231014Y-13081409D01*
X-25231020Y-13081407D01*
X-25435666Y-13040700D01*
X-25435668Y-13040700D01*
X-25644332Y-13040700D01*
X-25644334Y-13040700D01*
X-25848981Y-13081407D01*
X-25848987Y-13081409D01*
X-26041769Y-13161261D01*
X-26215260Y-13277184D01*
X-26215268Y-13277190D01*
X-26362810Y-13424732D01*
X-26362816Y-13424740D01*
X-26478739Y-13598231D01*
X-26558591Y-13791013D01*
X-26558593Y-13791019D01*
X-26599300Y-13995665D01*
X-26599300Y-13995668D01*
X-26599300Y-14204332D01*
X-26599300Y-14204334D01*
X-26599301Y-14204334D01*
X-35499500Y-14204334D01*
X-35499500Y-11664334D01*
X-26599301Y-11664334D01*
X-26558593Y-11868980D01*
X-26558591Y-11868986D01*
X-26478739Y-12061768D01*
X-26362816Y-12235259D01*
X-26362810Y-12235267D01*
X-26215268Y-12382809D01*
X-26215260Y-12382815D01*
X-26041769Y-12498738D01*
X-25985305Y-12522126D01*
X-25848986Y-12578591D01*
X-25848982Y-12578591D01*
X-25848981Y-12578592D01*
X-25644335Y-12619300D01*
X-25644332Y-12619300D01*
X-25435666Y-12619300D01*
X-25297986Y-12591912D01*
X-25231014Y-12578591D01*
X-25038234Y-12498739D01*
X-25038234Y-12498738D01*
X-25038232Y-12498738D01*
X-24952067Y-12441163D01*
X-24864736Y-12382812D01*
X-24717188Y-12235264D01*
X-24630028Y-12104819D01*
X-24601262Y-12061768D01*
X-24601261Y-12061766D01*
X-24521409Y-11868986D01*
X-24480700Y-11664332D01*
X-24480700Y-11455668D01*
X-24480700Y-11455665D01*
X-24521408Y-11251019D01*
X-24521409Y-11251018D01*
X-24521409Y-11251014D01*
X-24577874Y-11114695D01*
X-24601262Y-11058231D01*
X-24717185Y-10884740D01*
X-24717191Y-10884732D01*
X-24864733Y-10737190D01*
X-24864741Y-10737184D01*
X-25038232Y-10621261D01*
X-25231014Y-10541409D01*
X-25231020Y-10541407D01*
X-25435666Y-10500700D01*
X-25435668Y-10500700D01*
X-25644332Y-10500700D01*
X-25644334Y-10500700D01*
X-25848981Y-10541407D01*
X-25848987Y-10541409D01*
X-26041769Y-10621261D01*
X-26215260Y-10737184D01*
X-26215268Y-10737190D01*
X-26362810Y-10884732D01*
X-26362816Y-10884740D01*
X-26478739Y-11058231D01*
X-26558591Y-11251013D01*
X-26558593Y-11251019D01*
X-26599300Y-11455665D01*
X-26599300Y-11455668D01*
X-26599300Y-11664332D01*
X-26599300Y-11664334D01*
X-26599301Y-11664334D01*
X-35499500Y-11664334D01*
X-35499500Y-9124334D01*
X-26599301Y-9124334D01*
X-26558593Y-9328980D01*
X-26558591Y-9328986D01*
X-26478739Y-9521768D01*
X-26362816Y-9695259D01*
X-26362810Y-9695267D01*
X-26215268Y-9842809D01*
X-26215260Y-9842815D01*
X-26041769Y-9958738D01*
X-25985305Y-9982126D01*
X-25848986Y-10038591D01*
X-25848982Y-10038591D01*
X-25848981Y-10038592D01*
X-25644335Y-10079300D01*
X-25644332Y-10079300D01*
X-25435666Y-10079300D01*
X-25297986Y-10051912D01*
X-25231014Y-10038591D01*
X-25038234Y-9958739D01*
X-25038234Y-9958738D01*
X-25038232Y-9958738D01*
X-24952067Y-9901163D01*
X-24864736Y-9842812D01*
X-24717188Y-9695264D01*
X-24601261Y-9521766D01*
X-24521409Y-9328986D01*
X-24480700Y-9124332D01*
X-24480700Y-8915668D01*
X-24480700Y-8915665D01*
X-24521408Y-8711019D01*
X-24521409Y-8711018D01*
X-24521409Y-8711014D01*
X-24601261Y-8518234D01*
X-24601262Y-8518231D01*
X-24717185Y-8344740D01*
X-24717191Y-8344732D01*
X-24864733Y-8197190D01*
X-24864741Y-8197184D01*
X-25038232Y-8081261D01*
X-25231014Y-8001409D01*
X-25231020Y-8001407D01*
X-25435666Y-7960700D01*
X-25435668Y-7960700D01*
X-25644332Y-7960700D01*
X-25644334Y-7960700D01*
X-25848981Y-8001407D01*
X-25848987Y-8001409D01*
X-26041769Y-8081261D01*
X-26215260Y-8197184D01*
X-26215268Y-8197190D01*
X-26362810Y-8344732D01*
X-26362816Y-8344740D01*
X-26478739Y-8518231D01*
X-26558591Y-8711013D01*
X-26558593Y-8711019D01*
X-26599300Y-8915665D01*
X-26599300Y-8915668D01*
X-26599300Y-9124332D01*
X-26599300Y-9124334D01*
X-26599301Y-9124334D01*
X-35499500Y-9124334D01*
X-35499500Y-3878711D01*
X-33850500Y-3878711D01*
X-33850500Y-4121288D01*
X-33821694Y-4340099D01*
X-33818838Y-4361789D01*
X-33787446Y-4478944D01*
X-33756053Y-4596104D01*
X-33687001Y-4762809D01*
X-33663224Y-4820212D01*
X-33541936Y-5030289D01*
X-33541934Y-5030292D01*
X-33541933Y-5030293D01*
X-33394267Y-5222736D01*
X-33394261Y-5222743D01*
X-33222744Y-5394260D01*
X-33222738Y-5394265D01*
X-33030289Y-5541936D01*
X-32820212Y-5663224D01*
X-32596100Y-5756054D01*
X-32361789Y-5818838D01*
X-32181414Y-5842584D01*
X-32121289Y-5850500D01*
X-32121288Y-5850500D01*
X-31878711Y-5850500D01*
X-31830612Y-5844167D01*
X-31638211Y-5818838D01*
X-31403900Y-5756054D01*
X-31179788Y-5663224D01*
X-30969711Y-5541936D01*
X-30777262Y-5394265D01*
X-30605735Y-5222738D01*
X-30458064Y-5030289D01*
X-30336776Y-4820212D01*
X-30243946Y-4596100D01*
X-30181162Y-4361789D01*
X-30149500Y-4121288D01*
X-30149500Y-3878712D01*
X-30181162Y-3638211D01*
X-30243946Y-3403900D01*
X-30336776Y-3179788D01*
X-30458064Y-2969711D01*
X-30605735Y-2777262D01*
X-30605740Y-2777256D01*
X-30777257Y-2605739D01*
X-30777264Y-2605733D01*
X-30969707Y-2458067D01*
X-30969708Y-2458066D01*
X-30969711Y-2458064D01*
X-31176388Y-2338739D01*
X-31179786Y-2336777D01*
X-31179795Y-2336773D01*
X-31403896Y-2243947D01*
X-31521056Y-2212554D01*
X-31638211Y-2181162D01*
X-31638212Y-2181161D01*
X-31638215Y-2181161D01*
X-31878711Y-2149500D01*
X-31878712Y-2149500D01*
X-32121288Y-2149500D01*
X-32121289Y-2149500D01*
X-32361786Y-2181161D01*
X-32596105Y-2243947D01*
X-32820206Y-2336773D01*
X-32820215Y-2336777D01*
X-32989142Y-2434308D01*
X-33017253Y-2450538D01*
X-33030294Y-2458067D01*
X-33222737Y-2605733D01*
X-33222744Y-2605739D01*
X-33394261Y-2777256D01*
X-33394267Y-2777263D01*
X-33541933Y-2969706D01*
X-33663223Y-3179785D01*
X-33663227Y-3179794D01*
X-33756053Y-3403895D01*
X-33818839Y-3638214D01*
X-33850500Y-3878711D01*
X-35499500Y-3878711D01*
X-35499500Y-624500D01*
X-35479815Y-557461D01*
X-35427011Y-511706D01*
X-35375500Y-500500D01*
X-26437939Y-500500D01*
X-26370900Y-520185D01*
G37*
%TD.AperFunction*%
%TD*%
M02*
