%TF.GenerationSoftware,KiCad,Pcbnew,8.0.4*%
%TF.CreationDate,2024-08-14T20:50:51+02:00*%
%TF.ProjectId,FX-Pots,46582d50-6f74-4732-9e6b-696361645f70,rev?*%
%TF.SameCoordinates,PX40d9900PY25ab8e0*%
%TF.FileFunction,Copper,L2,Bot*%
%TF.FilePolarity,Positive*%
%FSLAX46Y46*%
G04 Gerber Fmt 4.6, Leading zero omitted, Abs format (unit mm)*
G04 Created by KiCad (PCBNEW 8.0.4) date 2024-08-14 20:50:51*
%MOMM*%
%LPD*%
G01*
G04 APERTURE LIST*
G04 Aperture macros list*
%AMRoundRect*
0 Rectangle with rounded corners*
0 $1 Rounding radius*
0 $2 $3 $4 $5 $6 $7 $8 $9 X,Y pos of 4 corners*
0 Add a 4 corners polygon primitive as box body*
4,1,4,$2,$3,$4,$5,$6,$7,$8,$9,$2,$3,0*
0 Add four circle primitives for the rounded corners*
1,1,$1+$1,$2,$3*
1,1,$1+$1,$4,$5*
1,1,$1+$1,$6,$7*
1,1,$1+$1,$8,$9*
0 Add four rect primitives between the rounded corners*
20,1,$1+$1,$2,$3,$4,$5,0*
20,1,$1+$1,$4,$5,$6,$7,0*
20,1,$1+$1,$6,$7,$8,$9,0*
20,1,$1+$1,$8,$9,$2,$3,0*%
G04 Aperture macros list end*
%TA.AperFunction,ComponentPad*%
%ADD10C,2.000000*%
%TD*%
%TA.AperFunction,WasherPad*%
%ADD11C,4.000000*%
%TD*%
%TA.AperFunction,ComponentPad*%
%ADD12C,1.800000*%
%TD*%
%TA.AperFunction,ComponentPad*%
%ADD13R,1.700000X1.700000*%
%TD*%
%TA.AperFunction,ComponentPad*%
%ADD14O,1.700000X1.700000*%
%TD*%
%TA.AperFunction,SMDPad,CuDef*%
%ADD15RoundRect,0.250000X0.650000X-0.412500X0.650000X0.412500X-0.650000X0.412500X-0.650000X-0.412500X0*%
%TD*%
%TA.AperFunction,SMDPad,CuDef*%
%ADD16RoundRect,0.250000X0.625000X-0.400000X0.625000X0.400000X-0.625000X0.400000X-0.625000X-0.400000X0*%
%TD*%
%TA.AperFunction,SMDPad,CuDef*%
%ADD17RoundRect,0.250000X-0.400000X-0.625000X0.400000X-0.625000X0.400000X0.625000X-0.400000X0.625000X0*%
%TD*%
%TA.AperFunction,SMDPad,CuDef*%
%ADD18RoundRect,0.250000X0.400000X0.625000X-0.400000X0.625000X-0.400000X-0.625000X0.400000X-0.625000X0*%
%TD*%
%TA.AperFunction,SMDPad,CuDef*%
%ADD19RoundRect,0.150000X-0.150000X0.875000X-0.150000X-0.875000X0.150000X-0.875000X0.150000X0.875000X0*%
%TD*%
%TA.AperFunction,SMDPad,CuDef*%
%ADD20RoundRect,0.150000X0.825000X0.150000X-0.825000X0.150000X-0.825000X-0.150000X0.825000X-0.150000X0*%
%TD*%
%TA.AperFunction,ViaPad*%
%ADD21C,0.600000*%
%TD*%
%TA.AperFunction,Conductor*%
%ADD22C,0.406400*%
%TD*%
G04 APERTURE END LIST*
D10*
%TO.P,SW1,1,1*%
%TO.N,GND*%
X9750000Y-9250000D03*
X16250000Y-9250000D03*
%TO.P,SW1,2,2*%
%TO.N,FXSW1*%
X9750000Y-13750000D03*
X16250000Y-13750000D03*
%TO.P,SW1,3,K*%
%TO.N,Net-(SW1-K)*%
X13000000Y-8400000D03*
%TO.P,SW1,4,A*%
%TO.N,FX-LED-1*%
X13000000Y-14600000D03*
%TD*%
D11*
%TO.P,RV3,*%
%TO.N,*%
X33600000Y-69550000D03*
X42400000Y-69550000D03*
D12*
%TO.P,RV3,1,1*%
%TO.N,+5V*%
X40500000Y-76550000D03*
%TO.P,RV3,2,2*%
%TO.N,POT3*%
X38000000Y-76550000D03*
%TO.P,RV3,3,3*%
%TO.N,GND*%
X35500000Y-76550000D03*
%TD*%
D13*
%TO.P,J1,1,Pin_1*%
%TO.N,MPLEX-S0*%
X44525000Y-50950000D03*
D14*
%TO.P,J1,2,Pin_2*%
%TO.N,MPLEX-S1*%
X44525000Y-53490000D03*
%TO.P,J1,3,Pin_3*%
%TO.N,MPLEX-AP*%
X44525000Y-56030000D03*
%TO.P,J1,4,Pin_4*%
%TO.N,MPLEX-S2*%
X44525000Y-58570000D03*
%TO.P,J1,5,Pin_5*%
%TO.N,MPLEX-S3*%
X44525000Y-61110000D03*
%TD*%
D11*
%TO.P,RV4,*%
%TO.N,*%
X33600000Y-98550000D03*
X42400000Y-98550000D03*
D12*
%TO.P,RV4,1,1*%
%TO.N,+5V*%
X40500000Y-105550000D03*
%TO.P,RV4,2,2*%
%TO.N,POT4*%
X38000000Y-105550000D03*
%TO.P,RV4,3,3*%
%TO.N,GND*%
X35500000Y-105550000D03*
%TD*%
D13*
%TO.P,J2,1,Pin_1*%
%TO.N,GND*%
X3475000Y-61825000D03*
D14*
%TO.P,J2,2,Pin_2*%
%TO.N,+5V*%
X3475000Y-59285000D03*
%TO.P,J2,3,Pin_3*%
%TO.N,SRCLK*%
X3475000Y-56745000D03*
%TO.P,J2,4,Pin_4*%
%TO.N,FX-LED-LATCH*%
X3475000Y-54205000D03*
%TO.P,J2,5,Pin_5*%
%TO.N,FX-LED-SIG*%
X3475000Y-51665000D03*
%TD*%
D11*
%TO.P,RV1,*%
%TO.N,*%
X33600000Y-11500000D03*
X42400000Y-11500000D03*
D12*
%TO.P,RV1,1,1*%
%TO.N,+5V*%
X40500000Y-18500000D03*
%TO.P,RV1,2,2*%
%TO.N,POT1*%
X38000000Y-18500000D03*
%TO.P,RV1,3,3*%
%TO.N,GND*%
X35500000Y-18500000D03*
%TD*%
D10*
%TO.P,SW2,1,1*%
%TO.N,GND*%
X9750000Y-38250000D03*
X16250000Y-38250000D03*
%TO.P,SW2,2,2*%
%TO.N,FXSW2*%
X9750000Y-42750000D03*
X16250000Y-42750000D03*
%TO.P,SW2,3,K*%
%TO.N,Net-(SW2-K)*%
X13000000Y-37400000D03*
%TO.P,SW2,4,A*%
%TO.N,FX-LED-2*%
X13000000Y-43600000D03*
%TD*%
%TO.P,SW3,1,1*%
%TO.N,GND*%
X9750000Y-67250000D03*
X16250000Y-67250000D03*
%TO.P,SW3,2,2*%
%TO.N,FXSW3*%
X9750000Y-71750000D03*
X16250000Y-71750000D03*
%TO.P,SW3,3,K*%
%TO.N,Net-(SW3-K)*%
X13000000Y-66400000D03*
%TO.P,SW3,4,A*%
%TO.N,FX-LED-3*%
X13000000Y-72600000D03*
%TD*%
D11*
%TO.P,RV2,*%
%TO.N,*%
X33600000Y-40550000D03*
X42400000Y-40550000D03*
D12*
%TO.P,RV2,1,1*%
%TO.N,+5V*%
X40500000Y-47550000D03*
%TO.P,RV2,2,2*%
%TO.N,POT2*%
X38000000Y-47550000D03*
%TO.P,RV2,3,3*%
%TO.N,GND*%
X35500000Y-47550000D03*
%TD*%
D10*
%TO.P,SW4,1,1*%
%TO.N,GND*%
X9750000Y-96250000D03*
X16250000Y-96250000D03*
%TO.P,SW4,2,2*%
%TO.N,FXSW4*%
X9750000Y-100750000D03*
X16250000Y-100750000D03*
%TO.P,SW4,3,K*%
%TO.N,Net-(SW4-K)*%
X13000000Y-95400000D03*
%TO.P,SW4,4,A*%
%TO.N,FX-LED-4*%
X13000000Y-101600000D03*
%TD*%
D15*
%TO.P,C2,1*%
%TO.N,FXSW2*%
X6000000Y-42062500D03*
%TO.P,C2,2*%
%TO.N,GND*%
X6000000Y-38937500D03*
%TD*%
%TO.P,C3,1*%
%TO.N,FXSW3*%
X6000000Y-71062500D03*
%TO.P,C3,2*%
%TO.N,GND*%
X6000000Y-67937500D03*
%TD*%
%TO.P,C1,1*%
%TO.N,FXSW1*%
X6500000Y-13062500D03*
%TO.P,C1,2*%
%TO.N,GND*%
X6500000Y-9937500D03*
%TD*%
D16*
%TO.P,R3,1*%
%TO.N,GND*%
X19500000Y-69550000D03*
%TO.P,R3,2*%
%TO.N,Net-(SW3-K)*%
X19500000Y-66450000D03*
%TD*%
D17*
%TO.P,R6,1*%
%TO.N,+5V*%
X13450000Y-47000000D03*
%TO.P,R6,2*%
%TO.N,FXSW2*%
X16550000Y-47000000D03*
%TD*%
%TO.P,R7,1*%
%TO.N,+5V*%
X3950000Y-74000000D03*
%TO.P,R7,2*%
%TO.N,FXSW3*%
X7050000Y-74000000D03*
%TD*%
D18*
%TO.P,R5,1*%
%TO.N,+5V*%
X22050000Y-11000000D03*
%TO.P,R5,2*%
%TO.N,FXSW1*%
X18950000Y-11000000D03*
%TD*%
D19*
%TO.P,U2,1,COM*%
%TO.N,MPLEX-AP*%
X19515000Y-52350000D03*
%TO.P,U2,2,I7*%
%TO.N,unconnected-(U2-I7-Pad2)*%
X20785000Y-52350000D03*
%TO.P,U2,3,I6*%
%TO.N,unconnected-(U2-I6-Pad3)*%
X22055000Y-52350000D03*
%TO.P,U2,4,I5*%
%TO.N,unconnected-(U2-I5-Pad4)*%
X23325000Y-52350000D03*
%TO.P,U2,5,I4*%
%TO.N,FXSW2*%
X24595000Y-52350000D03*
%TO.P,U2,6,I3*%
%TO.N,FXSW1*%
X25865000Y-52350000D03*
%TO.P,U2,7,I2*%
%TO.N,POT1*%
X27135000Y-52350000D03*
%TO.P,U2,8,I1*%
%TO.N,POT2*%
X28405000Y-52350000D03*
%TO.P,U2,9,I0*%
%TO.N,unconnected-(U2-I0-Pad9)*%
X29675000Y-52350000D03*
%TO.P,U2,10,S0*%
%TO.N,MPLEX-S0*%
X30945000Y-52350000D03*
%TO.P,U2,11,S1*%
%TO.N,MPLEX-S1*%
X32215000Y-52350000D03*
%TO.P,U2,12,GND*%
%TO.N,GND*%
X33485000Y-52350000D03*
%TO.P,U2,13,S3*%
%TO.N,MPLEX-S3*%
X33485000Y-61650000D03*
%TO.P,U2,14,S2*%
%TO.N,MPLEX-S2*%
X32215000Y-61650000D03*
%TO.P,U2,15,~{E}*%
%TO.N,GND*%
X30945000Y-61650000D03*
%TO.P,U2,16,I15*%
%TO.N,unconnected-(U2-I15-Pad16)*%
X29675000Y-61650000D03*
%TO.P,U2,17,I14*%
%TO.N,POT3*%
X28405000Y-61650000D03*
%TO.P,U2,18,I13*%
%TO.N,POT4*%
X27135000Y-61650000D03*
%TO.P,U2,19,I12*%
%TO.N,FXSW4*%
X25865000Y-61650000D03*
%TO.P,U2,20,I11*%
%TO.N,FXSW3*%
X24595000Y-61650000D03*
%TO.P,U2,21,I10*%
%TO.N,unconnected-(U2-I10-Pad21)*%
X23325000Y-61650000D03*
%TO.P,U2,22,I9*%
%TO.N,unconnected-(U2-I9-Pad22)*%
X22055000Y-61650000D03*
%TO.P,U2,23,I8*%
%TO.N,unconnected-(U2-I8-Pad23)*%
X20785000Y-61650000D03*
%TO.P,U2,24,VCC*%
%TO.N,+5V*%
X19515000Y-61650000D03*
%TD*%
D18*
%TO.P,R2,1*%
%TO.N,GND*%
X16550000Y-34000000D03*
%TO.P,R2,2*%
%TO.N,Net-(SW2-K)*%
X13450000Y-34000000D03*
%TD*%
%TO.P,R8,1*%
%TO.N,+5V*%
X9050000Y-92000000D03*
%TO.P,R8,2*%
%TO.N,FXSW4*%
X5950000Y-92000000D03*
%TD*%
D20*
%TO.P,U1,1,QB*%
%TO.N,unconnected-(U1-QB-Pad1)*%
X12975000Y-51055000D03*
%TO.P,U1,2,QC*%
%TO.N,FX-LED-1*%
X12975000Y-52325000D03*
%TO.P,U1,3,QD*%
%TO.N,FX-LED-2*%
X12975000Y-53595000D03*
%TO.P,U1,4,QE*%
%TO.N,FX-LED-3*%
X12975000Y-54865000D03*
%TO.P,U1,5,QF*%
%TO.N,FX-LED-4*%
X12975000Y-56135000D03*
%TO.P,U1,6,QG*%
%TO.N,unconnected-(U1-QG-Pad6)*%
X12975000Y-57405000D03*
%TO.P,U1,7,QH*%
%TO.N,unconnected-(U1-QH-Pad7)*%
X12975000Y-58675000D03*
%TO.P,U1,8,GND*%
%TO.N,GND*%
X12975000Y-59945000D03*
%TO.P,U1,9,QH'*%
%TO.N,unconnected-(U1-QH'-Pad9)*%
X8025000Y-59945000D03*
%TO.P,U1,10,~{SRCLR}*%
%TO.N,+5V*%
X8025000Y-58675000D03*
%TO.P,U1,11,SRCLK*%
%TO.N,SRCLK*%
X8025000Y-57405000D03*
%TO.P,U1,12,RCLK*%
%TO.N,FX-LED-LATCH*%
X8025000Y-56135000D03*
%TO.P,U1,13,~{OE}*%
%TO.N,GND*%
X8025000Y-54865000D03*
%TO.P,U1,14,SER*%
%TO.N,FX-LED-SIG*%
X8025000Y-53595000D03*
%TO.P,U1,15,QA*%
%TO.N,unconnected-(U1-QA-Pad15)*%
X8025000Y-52325000D03*
%TO.P,U1,16,VCC*%
%TO.N,+5V*%
X8025000Y-51055000D03*
%TD*%
D18*
%TO.P,R1,1*%
%TO.N,GND*%
X16050000Y-5000000D03*
%TO.P,R1,2*%
%TO.N,Net-(SW1-K)*%
X12950000Y-5000000D03*
%TD*%
%TO.P,R4,1*%
%TO.N,GND*%
X17050000Y-92000000D03*
%TO.P,R4,2*%
%TO.N,Net-(SW4-K)*%
X13950000Y-92000000D03*
%TD*%
D15*
%TO.P,C4,1*%
%TO.N,FXSW4*%
X6000000Y-98562500D03*
%TO.P,C4,2*%
%TO.N,GND*%
X6000000Y-95437500D03*
%TD*%
D21*
%TO.N,GND*%
X38500000Y-52500000D03*
X16000000Y-60000000D03*
X39000000Y-63500000D03*
%TO.N,FX-LED-3*%
X17500000Y-75500000D03*
X17000000Y-57500000D03*
%TO.N,FX-LED-4*%
X19000000Y-104000000D03*
X15500000Y-56500000D03*
%TD*%
D22*
%TO.N,MPLEX-S3*%
X42500000Y-60500000D02*
X43110000Y-61110000D01*
X43110000Y-61110000D02*
X44525000Y-61110000D01*
X36000000Y-60500000D02*
X42500000Y-60500000D01*
X35000000Y-59500000D02*
X36000000Y-60500000D01*
X33485000Y-61650000D02*
X33485000Y-60015000D01*
X33485000Y-60015000D02*
X34000000Y-59500000D01*
X34000000Y-59500000D02*
X35000000Y-59500000D01*
%TO.N,MPLEX-S0*%
X30945000Y-51055000D02*
X30945000Y-52350000D01*
X31500000Y-50500000D02*
X30945000Y-51055000D01*
X44525000Y-50950000D02*
X40450000Y-50950000D01*
X40000000Y-50500000D02*
X31500000Y-50500000D01*
X40450000Y-50950000D02*
X40000000Y-50500000D01*
%TO.N,MPLEX-S2*%
X32215000Y-59285000D02*
X32215000Y-61650000D01*
X44525000Y-58570000D02*
X32930000Y-58570000D01*
X32930000Y-58570000D02*
X32215000Y-59285000D01*
%TO.N,MPLEX-S1*%
X32500000Y-54500000D02*
X41500000Y-54500000D01*
X32215000Y-54215000D02*
X32500000Y-54500000D01*
X42510000Y-53490000D02*
X44525000Y-53490000D01*
X32215000Y-52350000D02*
X32215000Y-54215000D01*
X41500000Y-54500000D02*
X42510000Y-53490000D01*
%TO.N,GND*%
X33485000Y-52350000D02*
X38350000Y-52350000D01*
X31500000Y-63500000D02*
X39000000Y-63500000D01*
X12000001Y-59945000D02*
X10500000Y-58444999D01*
X10500000Y-55500000D02*
X9865000Y-54865000D01*
X30945000Y-62945000D02*
X31500000Y-63500000D01*
X30945000Y-61650000D02*
X30945000Y-62945000D01*
X12975000Y-59945000D02*
X15945000Y-59945000D01*
X38350000Y-52350000D02*
X38500000Y-52500000D01*
X12975000Y-59945000D02*
X12000001Y-59945000D01*
X9865000Y-54865000D02*
X8025000Y-54865000D01*
X10500000Y-58444999D02*
X10500000Y-55500000D01*
X15945000Y-59945000D02*
X16000000Y-60000000D01*
%TO.N,MPLEX-AP*%
X20530000Y-56030000D02*
X44525000Y-56030000D01*
X19500000Y-55000000D02*
X20530000Y-56030000D01*
X19515000Y-53374999D02*
X19500000Y-53389999D01*
X19500000Y-53389999D02*
X19500000Y-55000000D01*
X19515000Y-52350000D02*
X19515000Y-53374999D01*
%TO.N,+5V*%
X5825000Y-58675000D02*
X5215000Y-59285000D01*
X40500000Y-18500000D02*
X40500000Y-16500000D01*
X21000000Y-3000000D02*
X22050000Y-4050000D01*
X1500000Y-64000000D02*
X3950000Y-66450000D01*
X3475000Y-59285000D02*
X2215000Y-59285000D01*
X9500000Y-59653974D02*
X8521026Y-58675000D01*
X3950000Y-74000000D02*
X3950000Y-88950000D01*
X2000000Y-50000000D02*
X1500000Y-50500000D01*
X39500000Y-30000000D02*
X40500000Y-29000000D01*
X7500000Y-7500000D02*
X8500000Y-6500000D01*
X2500000Y-8500000D02*
X3000000Y-8000000D01*
X39500000Y-43000000D02*
X39500000Y-30000000D01*
X40500000Y-74000000D02*
X41000000Y-73500000D01*
X28000000Y-16000000D02*
X27000000Y-15000000D01*
X1500000Y-60000000D02*
X1500000Y-64000000D01*
X40500000Y-103500000D02*
X38500000Y-101500000D01*
X27000000Y-12000000D02*
X26000000Y-11000000D01*
X1500000Y-50500000D02*
X1500000Y-57310000D01*
X46500000Y-72000000D02*
X46500000Y-49500000D01*
X8000000Y-89500000D02*
X9050000Y-90550000D01*
X4500000Y-89500000D02*
X8000000Y-89500000D01*
X3950000Y-88950000D02*
X4500000Y-89500000D01*
X10650000Y-61650000D02*
X9500000Y-60500000D01*
X40500000Y-47550000D02*
X40500000Y-44000000D01*
X3000000Y-8000000D02*
X4000000Y-8000000D01*
X1500000Y-57310000D02*
X3475000Y-59285000D01*
X8500000Y-4000000D02*
X9500000Y-3000000D01*
X45000000Y-73500000D02*
X46500000Y-72000000D01*
X27000000Y-15000000D02*
X27000000Y-12000000D01*
X46500000Y-49500000D02*
X44550000Y-47550000D01*
X13450000Y-47000000D02*
X18808600Y-52358600D01*
X18808600Y-60943600D02*
X19515000Y-61650000D01*
X38500000Y-97000000D02*
X41500000Y-94000000D01*
X40500000Y-76550000D02*
X40500000Y-74000000D01*
X4000000Y-8000000D02*
X4500000Y-7500000D01*
X9500000Y-60500000D02*
X9500000Y-59653974D01*
X40500000Y-29000000D02*
X40500000Y-18500000D01*
X44550000Y-47550000D02*
X40500000Y-47550000D01*
X40500000Y-105550000D02*
X40500000Y-103500000D01*
X40000000Y-16000000D02*
X28000000Y-16000000D01*
X18808600Y-52358600D02*
X18808600Y-60943600D01*
X9050000Y-90550000D02*
X9050000Y-92000000D01*
X8500000Y-6500000D02*
X8500000Y-4000000D01*
X41500000Y-94000000D02*
X41500000Y-80000000D01*
X22050000Y-4050000D02*
X22050000Y-11000000D01*
X8025000Y-58675000D02*
X5825000Y-58675000D01*
X41500000Y-80000000D02*
X40500000Y-79000000D01*
X5500000Y-50000000D02*
X2500000Y-50000000D01*
X40500000Y-16500000D02*
X40000000Y-16000000D01*
X5215000Y-59285000D02*
X3475000Y-59285000D01*
X2500000Y-50000000D02*
X2000000Y-50000000D01*
X9500000Y-3000000D02*
X21000000Y-3000000D01*
X26000000Y-11000000D02*
X22050000Y-11000000D01*
X19515000Y-61650000D02*
X10650000Y-61650000D01*
X3950000Y-66450000D02*
X3950000Y-74000000D01*
X2500000Y-50000000D02*
X2500000Y-8500000D01*
X8521026Y-58675000D02*
X8025000Y-58675000D01*
X41000000Y-73500000D02*
X45000000Y-73500000D01*
X38500000Y-101500000D02*
X38500000Y-97000000D01*
X40500000Y-44000000D02*
X39500000Y-43000000D01*
X8025000Y-51055000D02*
X6555000Y-51055000D01*
X6555000Y-51055000D02*
X5500000Y-50000000D01*
X4500000Y-7500000D02*
X7500000Y-7500000D01*
X40500000Y-79000000D02*
X40500000Y-76550000D01*
X2215000Y-59285000D02*
X1500000Y-60000000D01*
%TO.N,POT1*%
X37500000Y-21000000D02*
X35500000Y-21000000D01*
X28000000Y-21000000D02*
X35500000Y-21000000D01*
X38000000Y-20500000D02*
X37500000Y-21000000D01*
X27135000Y-52350000D02*
X27135000Y-21865000D01*
X27135000Y-21865000D02*
X28000000Y-21000000D01*
X38000000Y-18500000D02*
X38000000Y-20500000D01*
%TO.N,POT2*%
X38000000Y-49000000D02*
X38000000Y-47550000D01*
X28405000Y-52350000D02*
X28405000Y-50095000D01*
X29000000Y-49500000D02*
X37500000Y-49500000D01*
X37500000Y-49500000D02*
X38000000Y-49000000D01*
X28405000Y-50095000D02*
X29000000Y-49500000D01*
%TO.N,POT3*%
X29000000Y-65000000D02*
X28405000Y-64405000D01*
X38000000Y-65500000D02*
X37500000Y-65000000D01*
X28405000Y-64405000D02*
X28405000Y-61650000D01*
X38000000Y-76550000D02*
X38000000Y-65500000D01*
X37500000Y-65000000D02*
X29000000Y-65000000D01*
%TO.N,POT4*%
X37500000Y-103000000D02*
X38000000Y-103500000D01*
X27500000Y-103000000D02*
X37500000Y-103000000D01*
X38000000Y-103500000D02*
X38000000Y-105550000D01*
X27135000Y-61650000D02*
X27135000Y-102635000D01*
X27135000Y-102635000D02*
X27500000Y-103000000D01*
%TO.N,FXSW1*%
X9750000Y-13750000D02*
X10750000Y-12750000D01*
X25865000Y-52350000D02*
X25865000Y-14365000D01*
X9062500Y-13062500D02*
X9750000Y-13750000D01*
X6500000Y-13062500D02*
X9062500Y-13062500D01*
X17000000Y-11000000D02*
X18950000Y-11000000D01*
X10750000Y-12750000D02*
X15250000Y-12750000D01*
X25250000Y-13750000D02*
X16250000Y-13750000D01*
X16250000Y-11750000D02*
X17000000Y-11000000D01*
X25865000Y-14365000D02*
X25250000Y-13750000D01*
X15250000Y-12750000D02*
X16250000Y-13750000D01*
X16250000Y-13750000D02*
X16250000Y-11750000D01*
%TO.N,FXSW2*%
X10750000Y-41750000D02*
X15250000Y-41750000D01*
X24595000Y-43595000D02*
X23750000Y-42750000D01*
X15250000Y-41750000D02*
X16250000Y-42750000D01*
X24595000Y-52350000D02*
X24595000Y-43595000D01*
X9062500Y-42062500D02*
X9750000Y-42750000D01*
X9750000Y-42750000D02*
X10750000Y-41750000D01*
X23750000Y-42750000D02*
X16250000Y-42750000D01*
X6000000Y-42062500D02*
X9062500Y-42062500D01*
X16550000Y-43050000D02*
X16250000Y-42750000D01*
X16550000Y-47000000D02*
X16550000Y-43050000D01*
%TO.N,FXSW3*%
X15250000Y-70750000D02*
X16250000Y-71750000D01*
X9000000Y-74000000D02*
X9750000Y-73250000D01*
X24595000Y-70905000D02*
X23750000Y-71750000D01*
X23750000Y-71750000D02*
X16250000Y-71750000D01*
X9750000Y-73250000D02*
X9750000Y-71750000D01*
X7050000Y-74000000D02*
X9000000Y-74000000D01*
X10750000Y-70750000D02*
X15250000Y-70750000D01*
X6000000Y-71500000D02*
X7050000Y-72550000D01*
X6000000Y-71062500D02*
X6000000Y-71500000D01*
X9750000Y-71750000D02*
X10750000Y-70750000D01*
X24595000Y-61650000D02*
X24595000Y-70905000D01*
X7050000Y-72550000D02*
X7050000Y-74000000D01*
%TO.N,FXSW4*%
X4500000Y-92000000D02*
X5950000Y-92000000D01*
X6000000Y-98562500D02*
X9062500Y-98562500D01*
X4562500Y-98562500D02*
X4000000Y-98000000D01*
X25250000Y-100750000D02*
X16250000Y-100750000D01*
X9062500Y-98562500D02*
X9750000Y-99250000D01*
X11000000Y-99500000D02*
X15000000Y-99500000D01*
X25865000Y-100135000D02*
X25250000Y-100750000D01*
X9750000Y-100750000D02*
X11000000Y-99500000D01*
X4000000Y-98000000D02*
X4000000Y-92500000D01*
X6000000Y-98562500D02*
X4562500Y-98562500D01*
X15000000Y-99500000D02*
X16250000Y-100750000D01*
X25865000Y-61650000D02*
X25865000Y-100135000D01*
X9750000Y-99250000D02*
X9750000Y-100750000D01*
X4000000Y-92500000D02*
X4500000Y-92000000D01*
%TO.N,SRCLK*%
X8025000Y-57405000D02*
X6405000Y-57405000D01*
X6405000Y-57405000D02*
X5745000Y-56745000D01*
X5745000Y-56745000D02*
X3475000Y-56745000D01*
%TO.N,FX-LED-SIG*%
X6000000Y-53000000D02*
X6000000Y-52500000D01*
X6595000Y-53595000D02*
X6000000Y-53000000D01*
X8025000Y-53595000D02*
X6595000Y-53595000D01*
X5165000Y-51665000D02*
X3475000Y-51665000D01*
X6000000Y-52500000D02*
X5165000Y-51665000D01*
%TO.N,FX-LED-LATCH*%
X8025000Y-56135000D02*
X6635000Y-56135000D01*
X6635000Y-56135000D02*
X6000000Y-55500000D01*
X5205000Y-54205000D02*
X3475000Y-54205000D01*
X6000000Y-55500000D02*
X6000000Y-55000000D01*
X6000000Y-55000000D02*
X5205000Y-54205000D01*
%TO.N,Net-(SW1-K)*%
X13000000Y-5050000D02*
X12950000Y-5000000D01*
X13000000Y-8400000D02*
X13000000Y-5050000D01*
%TO.N,Net-(SW2-K)*%
X13450000Y-34000000D02*
X13450000Y-36950000D01*
X13450000Y-36950000D02*
X13000000Y-37400000D01*
%TO.N,Net-(SW3-K)*%
X19500000Y-65000000D02*
X19000000Y-64500000D01*
X13000000Y-66400000D02*
X14900000Y-64500000D01*
X14900000Y-64500000D02*
X19000000Y-64500000D01*
X19500000Y-66450000D02*
X19500000Y-65000000D01*
%TO.N,Net-(SW4-K)*%
X13950000Y-92000000D02*
X13950000Y-94450000D01*
X13950000Y-94450000D02*
X13000000Y-95400000D01*
%TO.N,FX-LED-1*%
X10825000Y-52325000D02*
X12975000Y-52325000D01*
X13000000Y-16000000D02*
X12500000Y-16500000D01*
X10500000Y-52000000D02*
X10825000Y-52325000D01*
X4000000Y-48500000D02*
X9500000Y-48500000D01*
X13000000Y-14600000D02*
X13000000Y-16000000D01*
X10500000Y-49500000D02*
X10500000Y-52000000D01*
X12500000Y-16500000D02*
X4000000Y-16500000D01*
X9500000Y-48500000D02*
X10500000Y-49500000D01*
X3500000Y-48000000D02*
X4000000Y-48500000D01*
X3500000Y-17000000D02*
X3500000Y-48000000D01*
X4000000Y-16500000D02*
X3500000Y-17000000D01*
%TO.N,FX-LED-2*%
X11500000Y-45100000D02*
X11500000Y-48500000D01*
X14500000Y-49500000D02*
X15000000Y-50000000D01*
X15000000Y-52500000D02*
X13905000Y-53595000D01*
X11500000Y-48500000D02*
X12500000Y-49500000D01*
X12500000Y-49500000D02*
X14500000Y-49500000D01*
X13000000Y-43600000D02*
X11500000Y-45100000D01*
X13905000Y-53595000D02*
X12975000Y-53595000D01*
X15000000Y-50000000D02*
X15000000Y-52500000D01*
%TO.N,FX-LED-3*%
X13000000Y-75000000D02*
X13000000Y-72600000D01*
X16500000Y-55000000D02*
X17000000Y-55500000D01*
X17000000Y-55500000D02*
X17000000Y-57500000D01*
X17500000Y-75500000D02*
X13500000Y-75500000D01*
X12975000Y-54865000D02*
X16365000Y-54865000D01*
X13500000Y-75500000D02*
X13000000Y-75000000D01*
X16365000Y-54865000D02*
X16500000Y-55000000D01*
%TO.N,FX-LED-4*%
X13500000Y-104000000D02*
X13000000Y-103500000D01*
X13000000Y-103500000D02*
X13000000Y-101600000D01*
X19000000Y-104000000D02*
X13500000Y-104000000D01*
X12975000Y-56135000D02*
X15135000Y-56135000D01*
X15135000Y-56135000D02*
X15500000Y-56500000D01*
%TD*%
%TA.AperFunction,Conductor*%
%TO.N,GND*%
G36*
X28043903Y-65039531D02*
G01*
X28050381Y-65045563D01*
X28450274Y-65445456D01*
X28450303Y-65445487D01*
X28551414Y-65546598D01*
X28665552Y-65622862D01*
X28665548Y-65622867D01*
X28665577Y-65622878D01*
X28666673Y-65623611D01*
X28666679Y-65623613D01*
X28666680Y-65623614D01*
X28794735Y-65676656D01*
X28794736Y-65676656D01*
X28794738Y-65676657D01*
X28794742Y-65676657D01*
X28794743Y-65676658D01*
X28930688Y-65703701D01*
X28930691Y-65703701D01*
X29075422Y-65703701D01*
X29075442Y-65703700D01*
X37157156Y-65703700D01*
X37224195Y-65723385D01*
X37244837Y-65740019D01*
X37259981Y-65755163D01*
X37293466Y-65816486D01*
X37296300Y-65842844D01*
X37296300Y-75264506D01*
X37276615Y-75331545D01*
X37235182Y-75369975D01*
X37235671Y-75370723D01*
X37231376Y-75373528D01*
X37231374Y-75373530D01*
X37134946Y-75448583D01*
X37048217Y-75516086D01*
X36891018Y-75686850D01*
X36853510Y-75744262D01*
X36800363Y-75789618D01*
X36731132Y-75799042D01*
X36667796Y-75769540D01*
X36653084Y-75752562D01*
X36651186Y-75752365D01*
X35982962Y-76420589D01*
X35965925Y-76357007D01*
X35900099Y-76242993D01*
X35807007Y-76149901D01*
X35692993Y-76084075D01*
X35629409Y-76067037D01*
X36298797Y-75397647D01*
X36298797Y-75397645D01*
X36268360Y-75373955D01*
X36268354Y-75373951D01*
X36064302Y-75263523D01*
X36064293Y-75263520D01*
X35844860Y-75188188D01*
X35616007Y-75150000D01*
X35383993Y-75150000D01*
X35155139Y-75188188D01*
X34935706Y-75263520D01*
X34935697Y-75263523D01*
X34731650Y-75373949D01*
X34701200Y-75397647D01*
X35370591Y-76067037D01*
X35307007Y-76084075D01*
X35192993Y-76149901D01*
X35099901Y-76242993D01*
X35034075Y-76357007D01*
X35017037Y-76420591D01*
X34348811Y-75752365D01*
X34264516Y-75881390D01*
X34171317Y-76093864D01*
X34114361Y-76318781D01*
X34095202Y-76549994D01*
X34095202Y-76550005D01*
X34114361Y-76781218D01*
X34171317Y-77006135D01*
X34264515Y-77218606D01*
X34348812Y-77347633D01*
X35017037Y-76679408D01*
X35034075Y-76742993D01*
X35099901Y-76857007D01*
X35192993Y-76950099D01*
X35307007Y-77015925D01*
X35370590Y-77032962D01*
X34701201Y-77702351D01*
X34731649Y-77726050D01*
X34935697Y-77836476D01*
X34935706Y-77836479D01*
X35155139Y-77911811D01*
X35383993Y-77950000D01*
X35616007Y-77950000D01*
X35844860Y-77911811D01*
X36064293Y-77836479D01*
X36064301Y-77836476D01*
X36268355Y-77726047D01*
X36298797Y-77702351D01*
X36298798Y-77702350D01*
X35629410Y-77032962D01*
X35692993Y-77015925D01*
X35807007Y-76950099D01*
X35900099Y-76857007D01*
X35965925Y-76742993D01*
X35982962Y-76679409D01*
X36651186Y-77347633D01*
X36655967Y-77347137D01*
X36699036Y-77310380D01*
X36768268Y-77300956D01*
X36831604Y-77330457D01*
X36853509Y-77355737D01*
X36891016Y-77413147D01*
X36891019Y-77413151D01*
X36891021Y-77413153D01*
X37048216Y-77583913D01*
X37048219Y-77583915D01*
X37048222Y-77583918D01*
X37231365Y-77726464D01*
X37231371Y-77726468D01*
X37231374Y-77726470D01*
X37398860Y-77817109D01*
X37434652Y-77836479D01*
X37435497Y-77836936D01*
X37549487Y-77876068D01*
X37655015Y-77912297D01*
X37655017Y-77912297D01*
X37655019Y-77912298D01*
X37883951Y-77950500D01*
X37883952Y-77950500D01*
X38116048Y-77950500D01*
X38116049Y-77950500D01*
X38344981Y-77912298D01*
X38564503Y-77836936D01*
X38768626Y-77726470D01*
X38769170Y-77726047D01*
X38830129Y-77678600D01*
X38951784Y-77583913D01*
X39108979Y-77413153D01*
X39146191Y-77356196D01*
X39199337Y-77310839D01*
X39268569Y-77301415D01*
X39331904Y-77330917D01*
X39353809Y-77356196D01*
X39391016Y-77413147D01*
X39391019Y-77413151D01*
X39391021Y-77413153D01*
X39548216Y-77583913D01*
X39548219Y-77583915D01*
X39548222Y-77583918D01*
X39731365Y-77726464D01*
X39735666Y-77729274D01*
X39735077Y-77730174D01*
X39780904Y-77775651D01*
X39796300Y-77835494D01*
X39796300Y-78925556D01*
X39796299Y-78925582D01*
X39796299Y-78930692D01*
X39796299Y-79069308D01*
X39796299Y-79069310D01*
X39796298Y-79069310D01*
X39823341Y-79205256D01*
X39823343Y-79205264D01*
X39876386Y-79333323D01*
X39876389Y-79333327D01*
X39953400Y-79448583D01*
X40051417Y-79546600D01*
X40051418Y-79546600D01*
X40058485Y-79553667D01*
X40058484Y-79553667D01*
X40058488Y-79553670D01*
X40759981Y-80255163D01*
X40793466Y-80316486D01*
X40796300Y-80342844D01*
X40796300Y-93657155D01*
X40776615Y-93724194D01*
X40759981Y-93744836D01*
X39352642Y-95152175D01*
X38051420Y-96453397D01*
X38051417Y-96453400D01*
X38017129Y-96487688D01*
X37953398Y-96551418D01*
X37927950Y-96589506D01*
X37907894Y-96619522D01*
X37892087Y-96643178D01*
X37876387Y-96666675D01*
X37823343Y-96794735D01*
X37823341Y-96794743D01*
X37796299Y-96930689D01*
X37796299Y-97075421D01*
X37796300Y-97075442D01*
X37796300Y-101425556D01*
X37796299Y-101425582D01*
X37796299Y-101569309D01*
X37812251Y-101649499D01*
X37812251Y-101649501D01*
X37823341Y-101705254D01*
X37823344Y-101705266D01*
X37876386Y-101833323D01*
X37953401Y-101948585D01*
X38055736Y-102050920D01*
X38055758Y-102050940D01*
X39759981Y-103755163D01*
X39793466Y-103816486D01*
X39796300Y-103842844D01*
X39796300Y-104264506D01*
X39776615Y-104331545D01*
X39735182Y-104369975D01*
X39735671Y-104370723D01*
X39731376Y-104373528D01*
X39731374Y-104373530D01*
X39548216Y-104516087D01*
X39443523Y-104629815D01*
X39391015Y-104686854D01*
X39353808Y-104743804D01*
X39300662Y-104789161D01*
X39231430Y-104798584D01*
X39168095Y-104769082D01*
X39146192Y-104743804D01*
X39108984Y-104686854D01*
X39108982Y-104686852D01*
X39108979Y-104686847D01*
X38951784Y-104516087D01*
X38768626Y-104373530D01*
X38768617Y-104373525D01*
X38764329Y-104370723D01*
X38764916Y-104369823D01*
X38719091Y-104324340D01*
X38703700Y-104264506D01*
X38703700Y-103575443D01*
X38703701Y-103575422D01*
X38703701Y-103430689D01*
X38703700Y-103430687D01*
X38702679Y-103425556D01*
X38676658Y-103294738D01*
X38625940Y-103172298D01*
X38624293Y-103167695D01*
X38623611Y-103166674D01*
X38623611Y-103166673D01*
X38546600Y-103051417D01*
X38546598Y-103051414D01*
X38445487Y-102950303D01*
X38445456Y-102950274D01*
X38050940Y-102555758D01*
X38050920Y-102555736D01*
X37948585Y-102453401D01*
X37833323Y-102376386D01*
X37705264Y-102323343D01*
X37705256Y-102323341D01*
X37569310Y-102296299D01*
X37569308Y-102296299D01*
X37430692Y-102296299D01*
X37424578Y-102296299D01*
X37424558Y-102296300D01*
X27962700Y-102296300D01*
X27895661Y-102276615D01*
X27849906Y-102223811D01*
X27838700Y-102172300D01*
X27838700Y-98549994D01*
X31094556Y-98549994D01*
X31094556Y-98550005D01*
X31114310Y-98864004D01*
X31114311Y-98864011D01*
X31135710Y-98976186D01*
X31161064Y-99109100D01*
X31173270Y-99173083D01*
X31270497Y-99472316D01*
X31270499Y-99472321D01*
X31404461Y-99757003D01*
X31404464Y-99757009D01*
X31573051Y-100022661D01*
X31573054Y-100022665D01*
X31773606Y-100265090D01*
X31773608Y-100265092D01*
X31773610Y-100265094D01*
X31893090Y-100377293D01*
X32002968Y-100480476D01*
X32002978Y-100480484D01*
X32257504Y-100665408D01*
X32257509Y-100665410D01*
X32257516Y-100665416D01*
X32533234Y-100816994D01*
X32533239Y-100816996D01*
X32533241Y-100816997D01*
X32533242Y-100816998D01*
X32825771Y-100932818D01*
X32825774Y-100932819D01*
X33078906Y-100997812D01*
X33130527Y-101011066D01*
X33196010Y-101019338D01*
X33442670Y-101050499D01*
X33442679Y-101050499D01*
X33442682Y-101050500D01*
X33442684Y-101050500D01*
X33757316Y-101050500D01*
X33757318Y-101050500D01*
X33757321Y-101050499D01*
X33757329Y-101050499D01*
X33943593Y-101026968D01*
X34069473Y-101011066D01*
X34374225Y-100932819D01*
X34374228Y-100932818D01*
X34666757Y-100816998D01*
X34666758Y-100816997D01*
X34666756Y-100816997D01*
X34666766Y-100816994D01*
X34942484Y-100665416D01*
X35197030Y-100480478D01*
X35426390Y-100265094D01*
X35626947Y-100022663D01*
X35795537Y-99757007D01*
X35929503Y-99472315D01*
X36026731Y-99173079D01*
X36085688Y-98864015D01*
X36088247Y-98823341D01*
X36105444Y-98550005D01*
X36105444Y-98549994D01*
X36085689Y-98235995D01*
X36085688Y-98235988D01*
X36085688Y-98235985D01*
X36026731Y-97926921D01*
X35929503Y-97627685D01*
X35795537Y-97342993D01*
X35626947Y-97077337D01*
X35626945Y-97077334D01*
X35426393Y-96834909D01*
X35426391Y-96834907D01*
X35197029Y-96619521D01*
X35197021Y-96619515D01*
X34942495Y-96434591D01*
X34942488Y-96434586D01*
X34942484Y-96434584D01*
X34666766Y-96283006D01*
X34666763Y-96283004D01*
X34666758Y-96283002D01*
X34666757Y-96283001D01*
X34374228Y-96167181D01*
X34374225Y-96167180D01*
X34069476Y-96088934D01*
X34069463Y-96088932D01*
X33757329Y-96049500D01*
X33757318Y-96049500D01*
X33442682Y-96049500D01*
X33442670Y-96049500D01*
X33130536Y-96088932D01*
X33130523Y-96088934D01*
X32825774Y-96167180D01*
X32825771Y-96167181D01*
X32533242Y-96283001D01*
X32533241Y-96283002D01*
X32257516Y-96434584D01*
X32257504Y-96434591D01*
X32002978Y-96619515D01*
X32002971Y-96619521D01*
X31773608Y-96834907D01*
X31773606Y-96834909D01*
X31573054Y-97077334D01*
X31573051Y-97077338D01*
X31404464Y-97342990D01*
X31404461Y-97342996D01*
X31270499Y-97627678D01*
X31270497Y-97627683D01*
X31173270Y-97926916D01*
X31114311Y-98235988D01*
X31114310Y-98235995D01*
X31094556Y-98549994D01*
X27838700Y-98549994D01*
X27838700Y-84628711D01*
X36149500Y-84628711D01*
X36149500Y-84871288D01*
X36181161Y-85111785D01*
X36243947Y-85346104D01*
X36336773Y-85570205D01*
X36336776Y-85570212D01*
X36458064Y-85780289D01*
X36458066Y-85780292D01*
X36458067Y-85780293D01*
X36605733Y-85972736D01*
X36605739Y-85972743D01*
X36777256Y-86144260D01*
X36777262Y-86144265D01*
X36969711Y-86291936D01*
X37179788Y-86413224D01*
X37403900Y-86506054D01*
X37638211Y-86568838D01*
X37818586Y-86592584D01*
X37878711Y-86600500D01*
X37878712Y-86600500D01*
X38121289Y-86600500D01*
X38169388Y-86594167D01*
X38361789Y-86568838D01*
X38596100Y-86506054D01*
X38820212Y-86413224D01*
X39030289Y-86291936D01*
X39222738Y-86144265D01*
X39394265Y-85972738D01*
X39541936Y-85780289D01*
X39663224Y-85570212D01*
X39756054Y-85346100D01*
X39818838Y-85111789D01*
X39850500Y-84871288D01*
X39850500Y-84628712D01*
X39818838Y-84388211D01*
X39756054Y-84153900D01*
X39663224Y-83929788D01*
X39541936Y-83719711D01*
X39394265Y-83527262D01*
X39394260Y-83527256D01*
X39222743Y-83355739D01*
X39222736Y-83355733D01*
X39030293Y-83208067D01*
X39030292Y-83208066D01*
X39030289Y-83208064D01*
X38820212Y-83086776D01*
X38820205Y-83086773D01*
X38596104Y-82993947D01*
X38361785Y-82931161D01*
X38121289Y-82899500D01*
X38121288Y-82899500D01*
X37878712Y-82899500D01*
X37878711Y-82899500D01*
X37638214Y-82931161D01*
X37403895Y-82993947D01*
X37179794Y-83086773D01*
X37179785Y-83086777D01*
X36969706Y-83208067D01*
X36777263Y-83355733D01*
X36777256Y-83355739D01*
X36605739Y-83527256D01*
X36605733Y-83527263D01*
X36458067Y-83719706D01*
X36336777Y-83929785D01*
X36336773Y-83929794D01*
X36243947Y-84153895D01*
X36181161Y-84388214D01*
X36149500Y-84628711D01*
X27838700Y-84628711D01*
X27838700Y-69549994D01*
X31094556Y-69549994D01*
X31094556Y-69550005D01*
X31114310Y-69864004D01*
X31114311Y-69864011D01*
X31137500Y-69985570D01*
X31164362Y-70126389D01*
X31173270Y-70173083D01*
X31270497Y-70472316D01*
X31270499Y-70472321D01*
X31404461Y-70757003D01*
X31404464Y-70757009D01*
X31573051Y-71022661D01*
X31573054Y-71022665D01*
X31773606Y-71265090D01*
X31773608Y-71265092D01*
X31773610Y-71265094D01*
X31997612Y-71475446D01*
X32002968Y-71480476D01*
X32002978Y-71480484D01*
X32257504Y-71665408D01*
X32257509Y-71665410D01*
X32257516Y-71665416D01*
X32533234Y-71816994D01*
X32533239Y-71816996D01*
X32533241Y-71816997D01*
X32533242Y-71816998D01*
X32825771Y-71932818D01*
X32825774Y-71932819D01*
X33078906Y-71997812D01*
X33130527Y-72011066D01*
X33175062Y-72016692D01*
X33442670Y-72050499D01*
X33442679Y-72050499D01*
X33442682Y-72050500D01*
X33442684Y-72050500D01*
X33757316Y-72050500D01*
X33757318Y-72050500D01*
X33757321Y-72050499D01*
X33757329Y-72050499D01*
X33946223Y-72026636D01*
X34069473Y-72011066D01*
X34374225Y-71932819D01*
X34374228Y-71932818D01*
X34666757Y-71816998D01*
X34666758Y-71816997D01*
X34666756Y-71816997D01*
X34666766Y-71816994D01*
X34942484Y-71665416D01*
X35197030Y-71480478D01*
X35426390Y-71265094D01*
X35626947Y-71022663D01*
X35795537Y-70757007D01*
X35929503Y-70472315D01*
X36026731Y-70173079D01*
X36085688Y-69864015D01*
X36085689Y-69864004D01*
X36105444Y-69550005D01*
X36105444Y-69549994D01*
X36085689Y-69235995D01*
X36085688Y-69235988D01*
X36085688Y-69235985D01*
X36026731Y-68926921D01*
X35929503Y-68627685D01*
X35795537Y-68342993D01*
X35760414Y-68287648D01*
X35626948Y-68077338D01*
X35626945Y-68077334D01*
X35426393Y-67834909D01*
X35426391Y-67834907D01*
X35197031Y-67619523D01*
X35197021Y-67619515D01*
X34942495Y-67434591D01*
X34942488Y-67434586D01*
X34942484Y-67434584D01*
X34666766Y-67283006D01*
X34666763Y-67283004D01*
X34666758Y-67283002D01*
X34666757Y-67283001D01*
X34374228Y-67167181D01*
X34374225Y-67167180D01*
X34069476Y-67088934D01*
X34069463Y-67088932D01*
X33757329Y-67049500D01*
X33757318Y-67049500D01*
X33442682Y-67049500D01*
X33442670Y-67049500D01*
X33130536Y-67088932D01*
X33130523Y-67088934D01*
X32825774Y-67167180D01*
X32825771Y-67167181D01*
X32533242Y-67283001D01*
X32533241Y-67283002D01*
X32257516Y-67434584D01*
X32257504Y-67434591D01*
X32002978Y-67619515D01*
X32002968Y-67619523D01*
X31773608Y-67834907D01*
X31773606Y-67834909D01*
X31573054Y-68077334D01*
X31573051Y-68077338D01*
X31404464Y-68342990D01*
X31404461Y-68342996D01*
X31270499Y-68627678D01*
X31270497Y-68627683D01*
X31173270Y-68926916D01*
X31114311Y-69235988D01*
X31114310Y-69235995D01*
X31094556Y-69549994D01*
X27838700Y-69549994D01*
X27838700Y-65133244D01*
X27858385Y-65066205D01*
X27911189Y-65020450D01*
X27980347Y-65010506D01*
X28043903Y-65039531D01*
G37*
%TD.AperFunction*%
%TA.AperFunction,Conductor*%
G36*
X19717503Y-56213131D02*
G01*
X19723981Y-56219163D01*
X19980274Y-56475456D01*
X19980303Y-56475487D01*
X20081414Y-56576598D01*
X20166340Y-56633343D01*
X20196673Y-56653611D01*
X20196675Y-56653612D01*
X20196677Y-56653613D01*
X20324735Y-56706656D01*
X20324736Y-56706656D01*
X20324738Y-56706657D01*
X20324742Y-56706657D01*
X20324743Y-56706658D01*
X20460689Y-56733701D01*
X20460692Y-56733701D01*
X20605423Y-56733701D01*
X20605443Y-56733700D01*
X43304529Y-56733700D01*
X43371568Y-56753385D01*
X43406103Y-56786576D01*
X43486505Y-56901401D01*
X43653597Y-57068493D01*
X43653603Y-57068498D01*
X43839158Y-57198425D01*
X43882783Y-57253002D01*
X43889977Y-57322500D01*
X43858454Y-57384855D01*
X43839158Y-57401575D01*
X43653597Y-57531505D01*
X43486506Y-57698596D01*
X43406105Y-57813423D01*
X43351529Y-57857048D01*
X43304530Y-57866300D01*
X33005443Y-57866300D01*
X33005423Y-57866299D01*
X32999309Y-57866299D01*
X32860692Y-57866299D01*
X32860689Y-57866299D01*
X32724744Y-57893340D01*
X32724734Y-57893343D01*
X32652520Y-57923256D01*
X32596674Y-57946387D01*
X32481416Y-58023400D01*
X32453431Y-58051386D01*
X32383400Y-58121417D01*
X32383397Y-58121420D01*
X31766420Y-58738397D01*
X31766417Y-58738400D01*
X31717409Y-58787407D01*
X31668402Y-58836414D01*
X31668400Y-58836417D01*
X31632130Y-58890701D01*
X31623694Y-58903326D01*
X31623693Y-58903327D01*
X31591387Y-58951675D01*
X31591386Y-58951677D01*
X31538343Y-59079735D01*
X31538341Y-59079743D01*
X31511299Y-59215689D01*
X31511299Y-59360421D01*
X31511300Y-59360442D01*
X31511300Y-60053917D01*
X31491615Y-60120956D01*
X31438811Y-60166711D01*
X31369653Y-60176655D01*
X31352705Y-60172993D01*
X31197494Y-60127900D01*
X31197497Y-60127900D01*
X31195000Y-60127703D01*
X31195000Y-63172295D01*
X31195001Y-63172295D01*
X31197486Y-63172100D01*
X31355198Y-63126281D01*
X31496550Y-63042686D01*
X31502717Y-63037903D01*
X31504630Y-63040369D01*
X31553222Y-63013802D01*
X31622917Y-63018749D01*
X31655762Y-63039853D01*
X31656969Y-63038298D01*
X31663132Y-63043078D01*
X31663135Y-63043081D01*
X31804602Y-63126744D01*
X31828920Y-63133809D01*
X31962426Y-63172597D01*
X31962429Y-63172597D01*
X31962431Y-63172598D01*
X31999306Y-63175500D01*
X31999314Y-63175500D01*
X32430686Y-63175500D01*
X32430694Y-63175500D01*
X32467569Y-63172598D01*
X32467571Y-63172597D01*
X32467573Y-63172597D01*
X32509191Y-63160505D01*
X32625398Y-63126744D01*
X32766865Y-63043081D01*
X32766870Y-63043075D01*
X32773031Y-63038298D01*
X32774933Y-63040750D01*
X32823579Y-63014155D01*
X32893274Y-63019104D01*
X32925695Y-63039940D01*
X32926969Y-63038298D01*
X32933132Y-63043078D01*
X32933135Y-63043081D01*
X33074602Y-63126744D01*
X33098920Y-63133809D01*
X33232426Y-63172597D01*
X33232429Y-63172597D01*
X33232431Y-63172598D01*
X33269306Y-63175500D01*
X33269314Y-63175500D01*
X33700686Y-63175500D01*
X33700694Y-63175500D01*
X33737569Y-63172598D01*
X33737571Y-63172597D01*
X33737573Y-63172597D01*
X33779191Y-63160505D01*
X33895398Y-63126744D01*
X34036865Y-63043081D01*
X34153081Y-62926865D01*
X34236744Y-62785398D01*
X34282598Y-62627569D01*
X34285500Y-62590694D01*
X34285500Y-60709306D01*
X34282598Y-60672431D01*
X34273367Y-60640659D01*
X34236745Y-60514606D01*
X34236744Y-60514602D01*
X34228013Y-60499840D01*
X34205968Y-60462561D01*
X34188700Y-60399441D01*
X34188700Y-60357844D01*
X34208385Y-60290805D01*
X34225019Y-60270163D01*
X34255163Y-60240019D01*
X34316486Y-60206534D01*
X34342844Y-60203700D01*
X34657156Y-60203700D01*
X34724195Y-60223385D01*
X34744836Y-60240018D01*
X35453399Y-60948582D01*
X35453400Y-60948583D01*
X35551417Y-61046600D01*
X35666673Y-61123611D01*
X35719720Y-61145583D01*
X35794739Y-61176658D01*
X35794741Y-61176658D01*
X35794743Y-61176659D01*
X35930689Y-61203701D01*
X35930692Y-61203701D01*
X36075423Y-61203701D01*
X36075443Y-61203700D01*
X42157156Y-61203700D01*
X42224195Y-61223385D01*
X42244837Y-61240019D01*
X42560274Y-61555456D01*
X42560303Y-61555487D01*
X42661414Y-61656598D01*
X42776676Y-61733613D01*
X42904733Y-61786655D01*
X42904738Y-61786657D01*
X42904742Y-61786657D01*
X42904743Y-61786658D01*
X43040688Y-61813700D01*
X43040691Y-61813700D01*
X43040692Y-61813700D01*
X43304529Y-61813700D01*
X43371568Y-61833385D01*
X43406103Y-61866576D01*
X43465764Y-61951780D01*
X43486505Y-61981401D01*
X43653599Y-62148495D01*
X43722297Y-62196598D01*
X43847165Y-62284032D01*
X43847167Y-62284033D01*
X43847170Y-62284035D01*
X44061337Y-62383903D01*
X44289592Y-62445063D01*
X44477918Y-62461539D01*
X44524999Y-62465659D01*
X44525000Y-62465659D01*
X44525001Y-62465659D01*
X44564234Y-62462226D01*
X44760408Y-62445063D01*
X44988663Y-62383903D01*
X45202830Y-62284035D01*
X45396401Y-62148495D01*
X45563495Y-61981401D01*
X45570725Y-61971076D01*
X45625302Y-61927451D01*
X45694800Y-61920257D01*
X45757155Y-61951780D01*
X45792569Y-62012009D01*
X45796300Y-62042199D01*
X45796300Y-71657156D01*
X45776615Y-71724195D01*
X45759981Y-71744837D01*
X44744837Y-72759981D01*
X44683514Y-72793466D01*
X44657156Y-72796300D01*
X41075443Y-72796300D01*
X41075423Y-72796299D01*
X41069309Y-72796299D01*
X40930692Y-72796299D01*
X40930689Y-72796299D01*
X40794744Y-72823340D01*
X40794738Y-72823342D01*
X40711701Y-72857738D01*
X40666673Y-72876389D01*
X40666669Y-72876391D01*
X40551416Y-72953400D01*
X40502408Y-73002408D01*
X40453400Y-73051417D01*
X40453397Y-73051420D01*
X40051420Y-73453397D01*
X40051417Y-73453400D01*
X40002408Y-73502408D01*
X39953400Y-73551416D01*
X39876386Y-73666676D01*
X39823343Y-73794735D01*
X39823341Y-73794743D01*
X39796299Y-73930689D01*
X39796299Y-74075421D01*
X39796300Y-74075442D01*
X39796300Y-75264506D01*
X39776615Y-75331545D01*
X39735182Y-75369975D01*
X39735671Y-75370723D01*
X39731376Y-75373528D01*
X39731374Y-75373530D01*
X39634946Y-75448583D01*
X39568885Y-75500000D01*
X39548216Y-75516087D01*
X39398016Y-75679249D01*
X39391015Y-75686854D01*
X39353808Y-75743804D01*
X39300662Y-75789161D01*
X39231430Y-75798584D01*
X39168095Y-75769082D01*
X39146192Y-75743804D01*
X39108984Y-75686854D01*
X39108982Y-75686852D01*
X39108979Y-75686847D01*
X38951784Y-75516087D01*
X38768626Y-75373530D01*
X38768617Y-75373525D01*
X38764329Y-75370723D01*
X38764916Y-75369823D01*
X38719091Y-75324340D01*
X38703700Y-75264506D01*
X38703700Y-69549994D01*
X39894556Y-69549994D01*
X39894556Y-69550005D01*
X39914310Y-69864004D01*
X39914311Y-69864011D01*
X39937500Y-69985570D01*
X39964362Y-70126389D01*
X39973270Y-70173083D01*
X40070497Y-70472316D01*
X40070499Y-70472321D01*
X40204461Y-70757003D01*
X40204464Y-70757009D01*
X40373051Y-71022661D01*
X40373054Y-71022665D01*
X40573606Y-71265090D01*
X40573608Y-71265092D01*
X40573610Y-71265094D01*
X40797612Y-71475446D01*
X40802968Y-71480476D01*
X40802978Y-71480484D01*
X41057504Y-71665408D01*
X41057509Y-71665410D01*
X41057516Y-71665416D01*
X41333234Y-71816994D01*
X41333239Y-71816996D01*
X41333241Y-71816997D01*
X41333242Y-71816998D01*
X41625771Y-71932818D01*
X41625774Y-71932819D01*
X41878906Y-71997812D01*
X41930527Y-72011066D01*
X41975062Y-72016692D01*
X42242670Y-72050499D01*
X42242679Y-72050499D01*
X42242682Y-72050500D01*
X42242684Y-72050500D01*
X42557316Y-72050500D01*
X42557318Y-72050500D01*
X42557321Y-72050499D01*
X42557329Y-72050499D01*
X42746223Y-72026636D01*
X42869473Y-72011066D01*
X43174225Y-71932819D01*
X43174228Y-71932818D01*
X43466757Y-71816998D01*
X43466758Y-71816997D01*
X43466756Y-71816997D01*
X43466766Y-71816994D01*
X43742484Y-71665416D01*
X43997030Y-71480478D01*
X44226390Y-71265094D01*
X44426947Y-71022663D01*
X44595537Y-70757007D01*
X44729503Y-70472315D01*
X44826731Y-70173079D01*
X44885688Y-69864015D01*
X44885689Y-69864004D01*
X44905444Y-69550005D01*
X44905444Y-69549994D01*
X44885689Y-69235995D01*
X44885688Y-69235988D01*
X44885688Y-69235985D01*
X44826731Y-68926921D01*
X44729503Y-68627685D01*
X44595537Y-68342993D01*
X44560414Y-68287648D01*
X44426948Y-68077338D01*
X44426945Y-68077334D01*
X44226393Y-67834909D01*
X44226391Y-67834907D01*
X43997031Y-67619523D01*
X43997021Y-67619515D01*
X43742495Y-67434591D01*
X43742488Y-67434586D01*
X43742484Y-67434584D01*
X43466766Y-67283006D01*
X43466763Y-67283004D01*
X43466758Y-67283002D01*
X43466757Y-67283001D01*
X43174228Y-67167181D01*
X43174225Y-67167180D01*
X42869476Y-67088934D01*
X42869463Y-67088932D01*
X42557329Y-67049500D01*
X42557318Y-67049500D01*
X42242682Y-67049500D01*
X42242670Y-67049500D01*
X41930536Y-67088932D01*
X41930523Y-67088934D01*
X41625774Y-67167180D01*
X41625771Y-67167181D01*
X41333242Y-67283001D01*
X41333241Y-67283002D01*
X41057516Y-67434584D01*
X41057504Y-67434591D01*
X40802978Y-67619515D01*
X40802968Y-67619523D01*
X40573608Y-67834907D01*
X40573606Y-67834909D01*
X40373054Y-68077334D01*
X40373051Y-68077338D01*
X40204464Y-68342990D01*
X40204461Y-68342996D01*
X40070499Y-68627678D01*
X40070497Y-68627683D01*
X39973270Y-68926916D01*
X39914311Y-69235988D01*
X39914310Y-69235995D01*
X39894556Y-69549994D01*
X38703700Y-69549994D01*
X38703700Y-65575443D01*
X38703701Y-65575422D01*
X38703701Y-65430689D01*
X38703700Y-65430687D01*
X38676659Y-65294745D01*
X38676658Y-65294738D01*
X38625940Y-65172298D01*
X38624293Y-65167695D01*
X38623611Y-65166674D01*
X38623611Y-65166673D01*
X38546600Y-65051417D01*
X38546598Y-65051414D01*
X38445487Y-64950303D01*
X38445456Y-64950274D01*
X38050940Y-64555758D01*
X38050920Y-64555736D01*
X37948585Y-64453401D01*
X37833323Y-64376386D01*
X37705264Y-64323343D01*
X37705256Y-64323341D01*
X37569310Y-64296299D01*
X37569308Y-64296299D01*
X37430692Y-64296299D01*
X37424578Y-64296299D01*
X37424558Y-64296300D01*
X29342844Y-64296300D01*
X29275805Y-64276615D01*
X29255163Y-64259981D01*
X29145019Y-64149837D01*
X29111534Y-64088514D01*
X29108700Y-64062156D01*
X29108700Y-63246603D01*
X29128385Y-63179564D01*
X29181189Y-63133809D01*
X29250347Y-63123865D01*
X29267295Y-63127527D01*
X29422426Y-63172597D01*
X29422429Y-63172597D01*
X29422431Y-63172598D01*
X29459306Y-63175500D01*
X29459314Y-63175500D01*
X29890686Y-63175500D01*
X29890694Y-63175500D01*
X29927569Y-63172598D01*
X29927571Y-63172597D01*
X29927573Y-63172597D01*
X29969191Y-63160505D01*
X30085398Y-63126744D01*
X30226865Y-63043081D01*
X30226870Y-63043076D01*
X30233026Y-63038301D01*
X30234839Y-63040638D01*
X30283949Y-63013798D01*
X30353643Y-63018756D01*
X30385996Y-63039551D01*
X30387278Y-63037900D01*
X30393447Y-63042685D01*
X30534801Y-63126281D01*
X30692514Y-63172100D01*
X30692511Y-63172100D01*
X30694998Y-63172295D01*
X30695000Y-63172295D01*
X30695000Y-60127703D01*
X30692503Y-60127900D01*
X30534806Y-60173716D01*
X30534803Y-60173717D01*
X30393449Y-60257313D01*
X30387283Y-60262097D01*
X30385389Y-60259655D01*
X30336580Y-60286239D01*
X30266894Y-60281179D01*
X30234227Y-60260159D01*
X30233031Y-60261702D01*
X30226862Y-60256917D01*
X30102743Y-60183514D01*
X30085398Y-60173256D01*
X30085397Y-60173255D01*
X30085396Y-60173255D01*
X30085393Y-60173254D01*
X29927573Y-60127402D01*
X29927567Y-60127401D01*
X29890701Y-60124500D01*
X29890694Y-60124500D01*
X29459306Y-60124500D01*
X29459298Y-60124500D01*
X29422432Y-60127401D01*
X29422426Y-60127402D01*
X29264606Y-60173254D01*
X29264603Y-60173255D01*
X29123137Y-60256917D01*
X29116969Y-60261702D01*
X29115072Y-60259256D01*
X29066358Y-60285857D01*
X28996666Y-60280873D01*
X28964296Y-60260069D01*
X28963031Y-60261702D01*
X28956862Y-60256917D01*
X28832743Y-60183514D01*
X28815398Y-60173256D01*
X28815397Y-60173255D01*
X28815396Y-60173255D01*
X28815393Y-60173254D01*
X28657573Y-60127402D01*
X28657567Y-60127401D01*
X28620701Y-60124500D01*
X28620694Y-60124500D01*
X28189306Y-60124500D01*
X28189298Y-60124500D01*
X28152432Y-60127401D01*
X28152426Y-60127402D01*
X27994606Y-60173254D01*
X27994603Y-60173255D01*
X27853137Y-60256917D01*
X27846969Y-60261702D01*
X27845072Y-60259256D01*
X27796358Y-60285857D01*
X27726666Y-60280873D01*
X27694296Y-60260069D01*
X27693031Y-60261702D01*
X27686862Y-60256917D01*
X27562743Y-60183514D01*
X27545398Y-60173256D01*
X27545397Y-60173255D01*
X27545396Y-60173255D01*
X27545393Y-60173254D01*
X27387573Y-60127402D01*
X27387567Y-60127401D01*
X27350701Y-60124500D01*
X27350694Y-60124500D01*
X26919306Y-60124500D01*
X26919298Y-60124500D01*
X26882432Y-60127401D01*
X26882426Y-60127402D01*
X26724606Y-60173254D01*
X26724603Y-60173255D01*
X26583137Y-60256917D01*
X26576969Y-60261702D01*
X26575072Y-60259256D01*
X26526358Y-60285857D01*
X26456666Y-60280873D01*
X26424296Y-60260069D01*
X26423031Y-60261702D01*
X26416862Y-60256917D01*
X26292743Y-60183514D01*
X26275398Y-60173256D01*
X26275397Y-60173255D01*
X26275396Y-60173255D01*
X26275393Y-60173254D01*
X26117573Y-60127402D01*
X26117567Y-60127401D01*
X26080701Y-60124500D01*
X26080694Y-60124500D01*
X25649306Y-60124500D01*
X25649298Y-60124500D01*
X25612432Y-60127401D01*
X25612426Y-60127402D01*
X25454606Y-60173254D01*
X25454603Y-60173255D01*
X25313137Y-60256917D01*
X25306969Y-60261702D01*
X25305072Y-60259256D01*
X25256358Y-60285857D01*
X25186666Y-60280873D01*
X25154296Y-60260069D01*
X25153031Y-60261702D01*
X25146862Y-60256917D01*
X25022743Y-60183514D01*
X25005398Y-60173256D01*
X25005397Y-60173255D01*
X25005396Y-60173255D01*
X25005393Y-60173254D01*
X24847573Y-60127402D01*
X24847567Y-60127401D01*
X24810701Y-60124500D01*
X24810694Y-60124500D01*
X24379306Y-60124500D01*
X24379298Y-60124500D01*
X24342432Y-60127401D01*
X24342426Y-60127402D01*
X24184606Y-60173254D01*
X24184603Y-60173255D01*
X24043137Y-60256917D01*
X24036969Y-60261702D01*
X24035072Y-60259256D01*
X23986358Y-60285857D01*
X23916666Y-60280873D01*
X23884296Y-60260069D01*
X23883031Y-60261702D01*
X23876862Y-60256917D01*
X23752743Y-60183514D01*
X23735398Y-60173256D01*
X23735397Y-60173255D01*
X23735396Y-60173255D01*
X23735393Y-60173254D01*
X23577573Y-60127402D01*
X23577567Y-60127401D01*
X23540701Y-60124500D01*
X23540694Y-60124500D01*
X23109306Y-60124500D01*
X23109298Y-60124500D01*
X23072432Y-60127401D01*
X23072426Y-60127402D01*
X22914606Y-60173254D01*
X22914603Y-60173255D01*
X22773137Y-60256917D01*
X22766969Y-60261702D01*
X22765072Y-60259256D01*
X22716358Y-60285857D01*
X22646666Y-60280873D01*
X22614296Y-60260069D01*
X22613031Y-60261702D01*
X22606862Y-60256917D01*
X22482743Y-60183514D01*
X22465398Y-60173256D01*
X22465397Y-60173255D01*
X22465396Y-60173255D01*
X22465393Y-60173254D01*
X22307573Y-60127402D01*
X22307567Y-60127401D01*
X22270701Y-60124500D01*
X22270694Y-60124500D01*
X21839306Y-60124500D01*
X21839298Y-60124500D01*
X21802432Y-60127401D01*
X21802426Y-60127402D01*
X21644606Y-60173254D01*
X21644603Y-60173255D01*
X21503137Y-60256917D01*
X21496969Y-60261702D01*
X21495072Y-60259256D01*
X21446358Y-60285857D01*
X21376666Y-60280873D01*
X21344296Y-60260069D01*
X21343031Y-60261702D01*
X21336862Y-60256917D01*
X21212743Y-60183514D01*
X21195398Y-60173256D01*
X21195397Y-60173255D01*
X21195396Y-60173255D01*
X21195393Y-60173254D01*
X21037573Y-60127402D01*
X21037567Y-60127401D01*
X21000701Y-60124500D01*
X21000694Y-60124500D01*
X20569306Y-60124500D01*
X20569298Y-60124500D01*
X20532432Y-60127401D01*
X20532426Y-60127402D01*
X20374606Y-60173254D01*
X20374603Y-60173255D01*
X20233137Y-60256917D01*
X20226969Y-60261702D01*
X20225072Y-60259256D01*
X20176358Y-60285857D01*
X20106666Y-60280873D01*
X20074296Y-60260069D01*
X20073031Y-60261702D01*
X20066862Y-60256917D01*
X19942743Y-60183514D01*
X19925398Y-60173256D01*
X19925397Y-60173255D01*
X19925396Y-60173255D01*
X19925393Y-60173254D01*
X19767573Y-60127402D01*
X19767567Y-60127401D01*
X19730701Y-60124500D01*
X19730694Y-60124500D01*
X19636300Y-60124500D01*
X19569261Y-60104815D01*
X19523506Y-60052011D01*
X19512300Y-60000500D01*
X19512300Y-56306844D01*
X19531985Y-56239805D01*
X19584789Y-56194050D01*
X19653947Y-56184106D01*
X19717503Y-56213131D01*
G37*
%TD.AperFunction*%
%TA.AperFunction,Conductor*%
G36*
X6545436Y-59398385D02*
G01*
X6591191Y-59451189D01*
X6601135Y-59520347D01*
X6597473Y-59537295D01*
X6552402Y-59692426D01*
X6552401Y-59692432D01*
X6549500Y-59729298D01*
X6549500Y-60160701D01*
X6552401Y-60197567D01*
X6552402Y-60197573D01*
X6598254Y-60355393D01*
X6598255Y-60355396D01*
X6598256Y-60355398D01*
X6624303Y-60399441D01*
X6681917Y-60496862D01*
X6681923Y-60496870D01*
X6798129Y-60613076D01*
X6798133Y-60613079D01*
X6798135Y-60613081D01*
X6939602Y-60696744D01*
X6961903Y-60703223D01*
X7097426Y-60742597D01*
X7097429Y-60742597D01*
X7097431Y-60742598D01*
X7134306Y-60745500D01*
X8757156Y-60745500D01*
X8824195Y-60765185D01*
X8869950Y-60817989D01*
X8871716Y-60822046D01*
X8872108Y-60822992D01*
X8876387Y-60833324D01*
X8953399Y-60948582D01*
X8953402Y-60948586D01*
X9055736Y-61050920D01*
X9055758Y-61050940D01*
X10100274Y-62095456D01*
X10100303Y-62095487D01*
X10201414Y-62196598D01*
X10201417Y-62196600D01*
X10316673Y-62273611D01*
X10341837Y-62284034D01*
X10341838Y-62284035D01*
X10341839Y-62284035D01*
X10444739Y-62326658D01*
X10444743Y-62326658D01*
X10444744Y-62326659D01*
X10580689Y-62353701D01*
X10580692Y-62353701D01*
X10725423Y-62353701D01*
X10725443Y-62353700D01*
X18590500Y-62353700D01*
X18657539Y-62373385D01*
X18703294Y-62426189D01*
X18714500Y-62477700D01*
X18714500Y-62590701D01*
X18717401Y-62627567D01*
X18717402Y-62627573D01*
X18763254Y-62785393D01*
X18763255Y-62785396D01*
X18846917Y-62926862D01*
X18846923Y-62926870D01*
X18963129Y-63043076D01*
X18963133Y-63043079D01*
X18963135Y-63043081D01*
X19104602Y-63126744D01*
X19128920Y-63133809D01*
X19262426Y-63172597D01*
X19262429Y-63172597D01*
X19262431Y-63172598D01*
X19299306Y-63175500D01*
X19299314Y-63175500D01*
X19730686Y-63175500D01*
X19730694Y-63175500D01*
X19767569Y-63172598D01*
X19767571Y-63172597D01*
X19767573Y-63172597D01*
X19809191Y-63160505D01*
X19925398Y-63126744D01*
X20066865Y-63043081D01*
X20066870Y-63043075D01*
X20073031Y-63038298D01*
X20074933Y-63040750D01*
X20123579Y-63014155D01*
X20193274Y-63019104D01*
X20225695Y-63039940D01*
X20226969Y-63038298D01*
X20233132Y-63043078D01*
X20233135Y-63043081D01*
X20374602Y-63126744D01*
X20398920Y-63133809D01*
X20532426Y-63172597D01*
X20532429Y-63172597D01*
X20532431Y-63172598D01*
X20569306Y-63175500D01*
X20569314Y-63175500D01*
X21000686Y-63175500D01*
X21000694Y-63175500D01*
X21037569Y-63172598D01*
X21037571Y-63172597D01*
X21037573Y-63172597D01*
X21079191Y-63160505D01*
X21195398Y-63126744D01*
X21336865Y-63043081D01*
X21336870Y-63043075D01*
X21343031Y-63038298D01*
X21344933Y-63040750D01*
X21393579Y-63014155D01*
X21463274Y-63019104D01*
X21495695Y-63039940D01*
X21496969Y-63038298D01*
X21503132Y-63043078D01*
X21503135Y-63043081D01*
X21644602Y-63126744D01*
X21668920Y-63133809D01*
X21802426Y-63172597D01*
X21802429Y-63172597D01*
X21802431Y-63172598D01*
X21839306Y-63175500D01*
X21839314Y-63175500D01*
X22270686Y-63175500D01*
X22270694Y-63175500D01*
X22307569Y-63172598D01*
X22307571Y-63172597D01*
X22307573Y-63172597D01*
X22349191Y-63160505D01*
X22465398Y-63126744D01*
X22606865Y-63043081D01*
X22606870Y-63043075D01*
X22613031Y-63038298D01*
X22614933Y-63040750D01*
X22663579Y-63014155D01*
X22733274Y-63019104D01*
X22765695Y-63039940D01*
X22766969Y-63038298D01*
X22773132Y-63043078D01*
X22773135Y-63043081D01*
X22914602Y-63126744D01*
X22938920Y-63133809D01*
X23072426Y-63172597D01*
X23072429Y-63172597D01*
X23072431Y-63172598D01*
X23109306Y-63175500D01*
X23109314Y-63175500D01*
X23540686Y-63175500D01*
X23540694Y-63175500D01*
X23577569Y-63172598D01*
X23577571Y-63172597D01*
X23577573Y-63172597D01*
X23732705Y-63127527D01*
X23802574Y-63127726D01*
X23861244Y-63165668D01*
X23890088Y-63229306D01*
X23891300Y-63246603D01*
X23891300Y-70562156D01*
X23871615Y-70629195D01*
X23854981Y-70649837D01*
X23494837Y-71009981D01*
X23433514Y-71043466D01*
X23407156Y-71046300D01*
X17649711Y-71046300D01*
X17582672Y-71026615D01*
X17545902Y-70990121D01*
X17438166Y-70825217D01*
X17375370Y-70757003D01*
X17269744Y-70642262D01*
X17073509Y-70489526D01*
X17073507Y-70489525D01*
X17073506Y-70489524D01*
X16854811Y-70371172D01*
X16854802Y-70371169D01*
X16619616Y-70290429D01*
X16374335Y-70249500D01*
X16125665Y-70249500D01*
X15880382Y-70290429D01*
X15875412Y-70291688D01*
X15874955Y-70289883D01*
X15813234Y-70292664D01*
X15755100Y-70259917D01*
X15698583Y-70203400D01*
X15698580Y-70203398D01*
X15641343Y-70165154D01*
X15583327Y-70126389D01*
X15583325Y-70126388D01*
X15455265Y-70073344D01*
X15455256Y-70073341D01*
X15455194Y-70073329D01*
X15455194Y-70073328D01*
X15319310Y-70046299D01*
X15319308Y-70046299D01*
X15180692Y-70046299D01*
X15174578Y-70046299D01*
X15174558Y-70046300D01*
X10825443Y-70046300D01*
X10825423Y-70046299D01*
X10819309Y-70046299D01*
X10680692Y-70046299D01*
X10680690Y-70046299D01*
X10544744Y-70073340D01*
X10544738Y-70073342D01*
X10469720Y-70104416D01*
X10416674Y-70126388D01*
X10304566Y-70201294D01*
X10304567Y-70201295D01*
X10301419Y-70203398D01*
X10244898Y-70259918D01*
X10183574Y-70293402D01*
X10125015Y-70289984D01*
X10124584Y-70291687D01*
X10119619Y-70290429D01*
X9874335Y-70249500D01*
X9625665Y-70249500D01*
X9380383Y-70290429D01*
X9145197Y-70371169D01*
X9145188Y-70371172D01*
X8926493Y-70489524D01*
X8730257Y-70642261D01*
X8561833Y-70825217D01*
X8425826Y-71033393D01*
X8325936Y-71261118D01*
X8264892Y-71502175D01*
X8264890Y-71502187D01*
X8244357Y-71749994D01*
X8244357Y-71750005D01*
X8264890Y-71997812D01*
X8264892Y-71997824D01*
X8325936Y-72238881D01*
X8425826Y-72466606D01*
X8561833Y-72674782D01*
X8587855Y-72703049D01*
X8730256Y-72857738D01*
X8853839Y-72953926D01*
X8894651Y-73010636D01*
X8898326Y-73080409D01*
X8865358Y-73139458D01*
X8744835Y-73259982D01*
X8683515Y-73293466D01*
X8657156Y-73296300D01*
X8304094Y-73296300D01*
X8237055Y-73276615D01*
X8191300Y-73223811D01*
X8186388Y-73211305D01*
X8165808Y-73149199D01*
X8134814Y-73055666D01*
X8042712Y-72906344D01*
X7918656Y-72782288D01*
X7918652Y-72782285D01*
X7812603Y-72716873D01*
X7765878Y-72664925D01*
X7753700Y-72611335D01*
X7753700Y-72480689D01*
X7753699Y-72480687D01*
X7742952Y-72426657D01*
X7726657Y-72344738D01*
X7726655Y-72344733D01*
X7673613Y-72216676D01*
X7596598Y-72101414D01*
X7495487Y-72000303D01*
X7495456Y-72000274D01*
X7377622Y-71882440D01*
X7344137Y-71821117D01*
X7347596Y-71755758D01*
X7389999Y-71627797D01*
X7400500Y-71525009D01*
X7400499Y-70599992D01*
X7389999Y-70497203D01*
X7334814Y-70330666D01*
X7242712Y-70181344D01*
X7118656Y-70057288D01*
X7025754Y-69999986D01*
X18125001Y-69999986D01*
X18135494Y-70102697D01*
X18190641Y-70269119D01*
X18190643Y-70269124D01*
X18282684Y-70418345D01*
X18406654Y-70542315D01*
X18555875Y-70634356D01*
X18555880Y-70634358D01*
X18722302Y-70689505D01*
X18722309Y-70689506D01*
X18825019Y-70699999D01*
X19249999Y-70699999D01*
X19750000Y-70699999D01*
X20174972Y-70699999D01*
X20174986Y-70699998D01*
X20277697Y-70689505D01*
X20444119Y-70634358D01*
X20444124Y-70634356D01*
X20593345Y-70542315D01*
X20717315Y-70418345D01*
X20809356Y-70269124D01*
X20809358Y-70269119D01*
X20864505Y-70102697D01*
X20864506Y-70102690D01*
X20874999Y-69999986D01*
X20875000Y-69999973D01*
X20875000Y-69800000D01*
X19750000Y-69800000D01*
X19750000Y-70699999D01*
X19249999Y-70699999D01*
X19250000Y-70699998D01*
X19250000Y-69800000D01*
X18125001Y-69800000D01*
X18125001Y-69999986D01*
X7025754Y-69999986D01*
X6969334Y-69965186D01*
X6802797Y-69910001D01*
X6802795Y-69910000D01*
X6700010Y-69899500D01*
X5299998Y-69899500D01*
X5299981Y-69899501D01*
X5197203Y-69910000D01*
X5197200Y-69910001D01*
X5030668Y-69965185D01*
X5030663Y-69965187D01*
X4881342Y-70057289D01*
X4865381Y-70073251D01*
X4804058Y-70106736D01*
X4734366Y-70101752D01*
X4678433Y-70059880D01*
X4654016Y-69994416D01*
X4653700Y-69985570D01*
X4653700Y-69100013D01*
X18125000Y-69100013D01*
X18125000Y-69300000D01*
X19250000Y-69300000D01*
X19750000Y-69300000D01*
X20874999Y-69300000D01*
X20874999Y-69100028D01*
X20874998Y-69100013D01*
X20864505Y-68997302D01*
X20809358Y-68830880D01*
X20809356Y-68830875D01*
X20717315Y-68681654D01*
X20593345Y-68557684D01*
X20444124Y-68465643D01*
X20444119Y-68465641D01*
X20277697Y-68410494D01*
X20277690Y-68410493D01*
X20174986Y-68400000D01*
X19750000Y-68400000D01*
X19750000Y-69300000D01*
X19250000Y-69300000D01*
X19250000Y-68400000D01*
X18825028Y-68400000D01*
X18825012Y-68400001D01*
X18722302Y-68410494D01*
X18555880Y-68465641D01*
X18555875Y-68465643D01*
X18406654Y-68557684D01*
X18282684Y-68681654D01*
X18190643Y-68830875D01*
X18190641Y-68830880D01*
X18135494Y-68997302D01*
X18135493Y-68997309D01*
X18125000Y-69100013D01*
X4653700Y-69100013D01*
X4653700Y-69013723D01*
X4673385Y-68946684D01*
X4726189Y-68900929D01*
X4795347Y-68890985D01*
X4858903Y-68920010D01*
X4865381Y-68926042D01*
X4881654Y-68942315D01*
X5030875Y-69034356D01*
X5030880Y-69034358D01*
X5197302Y-69089505D01*
X5197309Y-69089506D01*
X5300019Y-69099999D01*
X5749999Y-69099999D01*
X6250000Y-69099999D01*
X6699972Y-69099999D01*
X6699986Y-69099998D01*
X6802697Y-69089505D01*
X6969119Y-69034358D01*
X6969124Y-69034356D01*
X7118345Y-68942315D01*
X7242315Y-68818345D01*
X7334356Y-68669124D01*
X7334358Y-68669119D01*
X7389505Y-68502697D01*
X7389506Y-68502690D01*
X7399999Y-68399986D01*
X7400000Y-68399973D01*
X7400000Y-68187500D01*
X6250000Y-68187500D01*
X6250000Y-69099999D01*
X5749999Y-69099999D01*
X5750000Y-69099998D01*
X5750000Y-67687500D01*
X6250000Y-67687500D01*
X7399999Y-67687500D01*
X7399999Y-67475028D01*
X7399998Y-67475013D01*
X7389505Y-67372302D01*
X7348976Y-67249994D01*
X8244859Y-67249994D01*
X8244859Y-67250005D01*
X8265385Y-67497729D01*
X8265387Y-67497738D01*
X8326412Y-67738717D01*
X8426266Y-67966364D01*
X8526564Y-68119882D01*
X9226212Y-67420234D01*
X9237482Y-67462292D01*
X9309890Y-67587708D01*
X9412292Y-67690110D01*
X9537708Y-67762518D01*
X9579765Y-67773787D01*
X8879942Y-68473609D01*
X8926768Y-68510055D01*
X8926770Y-68510056D01*
X9145385Y-68628364D01*
X9145396Y-68628369D01*
X9380506Y-68709083D01*
X9625707Y-68750000D01*
X9874293Y-68750000D01*
X10119493Y-68709083D01*
X10354603Y-68628369D01*
X10354614Y-68628364D01*
X10573228Y-68510057D01*
X10573231Y-68510055D01*
X10620056Y-68473609D01*
X9920234Y-67773787D01*
X9962292Y-67762518D01*
X10087708Y-67690110D01*
X10190110Y-67587708D01*
X10262518Y-67462292D01*
X10273787Y-67420234D01*
X10973434Y-68119882D01*
X11073731Y-67966369D01*
X11173587Y-67738717D01*
X11234612Y-67497738D01*
X11234614Y-67497729D01*
X11255141Y-67250005D01*
X11255141Y-67249994D01*
X11234614Y-67002270D01*
X11234612Y-67002261D01*
X11173587Y-66761282D01*
X11073731Y-66533630D01*
X10986421Y-66399994D01*
X11494357Y-66399994D01*
X11494357Y-66400005D01*
X11514890Y-66647812D01*
X11514892Y-66647824D01*
X11575936Y-66888881D01*
X11675826Y-67116606D01*
X11811833Y-67324782D01*
X11811836Y-67324785D01*
X11980256Y-67507738D01*
X12176491Y-67660474D01*
X12395190Y-67778828D01*
X12630386Y-67859571D01*
X12875665Y-67900500D01*
X13124335Y-67900500D01*
X13369614Y-67859571D01*
X13604810Y-67778828D01*
X13823509Y-67660474D01*
X14019744Y-67507738D01*
X14188164Y-67324785D01*
X14237027Y-67249994D01*
X14744859Y-67249994D01*
X14744859Y-67250005D01*
X14765385Y-67497729D01*
X14765387Y-67497738D01*
X14826412Y-67738717D01*
X14926266Y-67966364D01*
X15026564Y-68119882D01*
X15726212Y-67420234D01*
X15737482Y-67462292D01*
X15809890Y-67587708D01*
X15912292Y-67690110D01*
X16037708Y-67762518D01*
X16079765Y-67773787D01*
X15379942Y-68473609D01*
X15426768Y-68510055D01*
X15426770Y-68510056D01*
X15645385Y-68628364D01*
X15645396Y-68628369D01*
X15880506Y-68709083D01*
X16125707Y-68750000D01*
X16374293Y-68750000D01*
X16619493Y-68709083D01*
X16854603Y-68628369D01*
X16854614Y-68628364D01*
X17073228Y-68510057D01*
X17073231Y-68510055D01*
X17120056Y-68473609D01*
X16420234Y-67773787D01*
X16462292Y-67762518D01*
X16587708Y-67690110D01*
X16690110Y-67587708D01*
X16762518Y-67462292D01*
X16773787Y-67420234D01*
X17473434Y-68119882D01*
X17573731Y-67966369D01*
X17673587Y-67738717D01*
X17734612Y-67497738D01*
X17734614Y-67497729D01*
X17755141Y-67250005D01*
X17755141Y-67249994D01*
X17734614Y-67002270D01*
X17734612Y-67002261D01*
X17673587Y-66761282D01*
X17573731Y-66533630D01*
X17473434Y-66380116D01*
X16773787Y-67079764D01*
X16762518Y-67037708D01*
X16690110Y-66912292D01*
X16587708Y-66809890D01*
X16462292Y-66737482D01*
X16420235Y-66726212D01*
X17120057Y-66026390D01*
X17120056Y-66026389D01*
X17073229Y-65989943D01*
X16854614Y-65871635D01*
X16854603Y-65871630D01*
X16619493Y-65790916D01*
X16374293Y-65750000D01*
X16125707Y-65750000D01*
X15880506Y-65790916D01*
X15645396Y-65871630D01*
X15645390Y-65871632D01*
X15426761Y-65989949D01*
X15379942Y-66026388D01*
X15379942Y-66026390D01*
X16079765Y-66726212D01*
X16037708Y-66737482D01*
X15912292Y-66809890D01*
X15809890Y-66912292D01*
X15737482Y-67037708D01*
X15726212Y-67079764D01*
X15026564Y-66380116D01*
X14926267Y-66533632D01*
X14826412Y-66761282D01*
X14765387Y-67002261D01*
X14765385Y-67002270D01*
X14744859Y-67249994D01*
X14237027Y-67249994D01*
X14324173Y-67116607D01*
X14424063Y-66888881D01*
X14485108Y-66647821D01*
X14505643Y-66400000D01*
X14504043Y-66380692D01*
X14485109Y-66152187D01*
X14485106Y-66152170D01*
X14476116Y-66116673D01*
X14453482Y-66027294D01*
X14456106Y-65957477D01*
X14486004Y-65909176D01*
X15155163Y-65240019D01*
X15216486Y-65206534D01*
X15242844Y-65203700D01*
X18380238Y-65203700D01*
X18447277Y-65223385D01*
X18493032Y-65276189D01*
X18502976Y-65345347D01*
X18473951Y-65408903D01*
X18445334Y-65433239D01*
X18406344Y-65457287D01*
X18282289Y-65581342D01*
X18190187Y-65730663D01*
X18190185Y-65730668D01*
X18162349Y-65814670D01*
X18135001Y-65897203D01*
X18135001Y-65897204D01*
X18135000Y-65897204D01*
X18124500Y-65999983D01*
X18124500Y-66900001D01*
X18124501Y-66900019D01*
X18135000Y-67002796D01*
X18135001Y-67002799D01*
X18190185Y-67169331D01*
X18190187Y-67169336D01*
X18212728Y-67205880D01*
X18282288Y-67318656D01*
X18406344Y-67442712D01*
X18555666Y-67534814D01*
X18722203Y-67589999D01*
X18824991Y-67600500D01*
X20175008Y-67600499D01*
X20277797Y-67589999D01*
X20444334Y-67534814D01*
X20593656Y-67442712D01*
X20717712Y-67318656D01*
X20809814Y-67169334D01*
X20864999Y-67002797D01*
X20875500Y-66900009D01*
X20875499Y-65999992D01*
X20874472Y-65989943D01*
X20864999Y-65897203D01*
X20864998Y-65897200D01*
X20809814Y-65730666D01*
X20717712Y-65581344D01*
X20593656Y-65457288D01*
X20444334Y-65365186D01*
X20355058Y-65335603D01*
X20288695Y-65313612D01*
X20231251Y-65273839D01*
X20204428Y-65209323D01*
X20203700Y-65195906D01*
X20203700Y-65075443D01*
X20203701Y-65075422D01*
X20203701Y-64930689D01*
X20203700Y-64930687D01*
X20199568Y-64909916D01*
X20176658Y-64794738D01*
X20125940Y-64672298D01*
X20124293Y-64667695D01*
X20123611Y-64666674D01*
X20123611Y-64666673D01*
X20046600Y-64551417D01*
X20046598Y-64551414D01*
X19945487Y-64450303D01*
X19945456Y-64450274D01*
X19550940Y-64055758D01*
X19550920Y-64055736D01*
X19448585Y-63953401D01*
X19390955Y-63914894D01*
X19333327Y-63876389D01*
X19333325Y-63876388D01*
X19205265Y-63823344D01*
X19205256Y-63823341D01*
X19205194Y-63823329D01*
X19205194Y-63823328D01*
X19069310Y-63796299D01*
X19069308Y-63796299D01*
X18930692Y-63796299D01*
X18924578Y-63796299D01*
X18924558Y-63796300D01*
X14975443Y-63796300D01*
X14975423Y-63796299D01*
X14969309Y-63796299D01*
X14830692Y-63796299D01*
X14830689Y-63796299D01*
X14694745Y-63823340D01*
X14694737Y-63823342D01*
X14610099Y-63858401D01*
X14566674Y-63876387D01*
X14451416Y-63953400D01*
X14402408Y-64002408D01*
X14353400Y-64051417D01*
X14353397Y-64051420D01*
X13494900Y-64909916D01*
X13433577Y-64943401D01*
X13375019Y-64939984D01*
X13374588Y-64941688D01*
X13369617Y-64940429D01*
X13124335Y-64899500D01*
X12875665Y-64899500D01*
X12630383Y-64940429D01*
X12395197Y-65021169D01*
X12395188Y-65021172D01*
X12176493Y-65139524D01*
X11980257Y-65292261D01*
X11811833Y-65475217D01*
X11675826Y-65683393D01*
X11575936Y-65911118D01*
X11514892Y-66152175D01*
X11514890Y-66152187D01*
X11494357Y-66399994D01*
X10986421Y-66399994D01*
X10973434Y-66380116D01*
X10273787Y-67079764D01*
X10262518Y-67037708D01*
X10190110Y-66912292D01*
X10087708Y-66809890D01*
X9962292Y-66737482D01*
X9920235Y-66726212D01*
X10620057Y-66026390D01*
X10620056Y-66026389D01*
X10573229Y-65989943D01*
X10354614Y-65871635D01*
X10354603Y-65871630D01*
X10119493Y-65790916D01*
X9874293Y-65750000D01*
X9625707Y-65750000D01*
X9380506Y-65790916D01*
X9145396Y-65871630D01*
X9145390Y-65871632D01*
X8926761Y-65989949D01*
X8879942Y-66026388D01*
X8879942Y-66026390D01*
X9579765Y-66726212D01*
X9537708Y-66737482D01*
X9412292Y-66809890D01*
X9309890Y-66912292D01*
X9237482Y-67037708D01*
X9226212Y-67079764D01*
X8526564Y-66380116D01*
X8426267Y-66533632D01*
X8326412Y-66761282D01*
X8265387Y-67002261D01*
X8265385Y-67002270D01*
X8244859Y-67249994D01*
X7348976Y-67249994D01*
X7334358Y-67205880D01*
X7334356Y-67205875D01*
X7242315Y-67056654D01*
X7118345Y-66932684D01*
X6969124Y-66840643D01*
X6969119Y-66840641D01*
X6802697Y-66785494D01*
X6802690Y-66785493D01*
X6699986Y-66775000D01*
X6250000Y-66775000D01*
X6250000Y-67687500D01*
X5750000Y-67687500D01*
X5750000Y-66775000D01*
X5300028Y-66775000D01*
X5300012Y-66775001D01*
X5197302Y-66785494D01*
X5030880Y-66840641D01*
X5030875Y-66840643D01*
X4881654Y-66932684D01*
X4865381Y-66948958D01*
X4804058Y-66982443D01*
X4734366Y-66977459D01*
X4678433Y-66935587D01*
X4654016Y-66870123D01*
X4653700Y-66861277D01*
X4653700Y-66380689D01*
X4653699Y-66380687D01*
X4626658Y-66244745D01*
X4626657Y-66244738D01*
X4626655Y-66244733D01*
X4573613Y-66116676D01*
X4496598Y-66001414D01*
X4395487Y-65900303D01*
X4395456Y-65900274D01*
X2240019Y-63744837D01*
X2206534Y-63683514D01*
X2203700Y-63657156D01*
X2203700Y-63229487D01*
X2223385Y-63162448D01*
X2276189Y-63116693D01*
X2345347Y-63106749D01*
X2374191Y-63116351D01*
X2374601Y-63115254D01*
X2517620Y-63168596D01*
X2517627Y-63168598D01*
X2577155Y-63174999D01*
X2577172Y-63175000D01*
X3225000Y-63175000D01*
X3225000Y-62258012D01*
X3282007Y-62290925D01*
X3409174Y-62325000D01*
X3540826Y-62325000D01*
X3667993Y-62290925D01*
X3725000Y-62258012D01*
X3725000Y-63175000D01*
X4372828Y-63175000D01*
X4372844Y-63174999D01*
X4432372Y-63168598D01*
X4432379Y-63168596D01*
X4567086Y-63118354D01*
X4567093Y-63118350D01*
X4682187Y-63032190D01*
X4682190Y-63032187D01*
X4768350Y-62917093D01*
X4768354Y-62917086D01*
X4818596Y-62782379D01*
X4818598Y-62782372D01*
X4824999Y-62722844D01*
X4825000Y-62722827D01*
X4825000Y-62075000D01*
X3908012Y-62075000D01*
X3940925Y-62017993D01*
X3975000Y-61890826D01*
X3975000Y-61759174D01*
X3940925Y-61632007D01*
X3908012Y-61575000D01*
X4825000Y-61575000D01*
X4825000Y-60927172D01*
X4824999Y-60927155D01*
X4818598Y-60867627D01*
X4818596Y-60867620D01*
X4768354Y-60732913D01*
X4768350Y-60732906D01*
X4682190Y-60617812D01*
X4682187Y-60617809D01*
X4567093Y-60531649D01*
X4567088Y-60531646D01*
X4435528Y-60482577D01*
X4379595Y-60440705D01*
X4355178Y-60375241D01*
X4370030Y-60306968D01*
X4391175Y-60278720D01*
X4513495Y-60156401D01*
X4583982Y-60055736D01*
X4593897Y-60041576D01*
X4648474Y-59997951D01*
X4695471Y-59988700D01*
X5139558Y-59988700D01*
X5139578Y-59988701D01*
X5145692Y-59988701D01*
X5284310Y-59988701D01*
X5375768Y-59970507D01*
X5420262Y-59961657D01*
X5548327Y-59908611D01*
X5553637Y-59905063D01*
X5663583Y-59831600D01*
X5761600Y-59733583D01*
X5761602Y-59733579D01*
X6080164Y-59415016D01*
X6141486Y-59381534D01*
X6167844Y-59378700D01*
X6478397Y-59378700D01*
X6545436Y-59398385D01*
G37*
%TD.AperFunction*%
%TA.AperFunction,Conductor*%
G36*
X9224195Y-49223385D02*
G01*
X9244837Y-49240019D01*
X9759981Y-49755163D01*
X9793466Y-49816486D01*
X9796300Y-49842844D01*
X9796300Y-51925556D01*
X9796299Y-51925582D01*
X9796299Y-51930692D01*
X9796299Y-52069308D01*
X9813851Y-52157546D01*
X9815667Y-52166672D01*
X9815667Y-52166674D01*
X9823341Y-52205254D01*
X9823344Y-52205266D01*
X9876386Y-52333323D01*
X9953401Y-52448585D01*
X10055736Y-52550920D01*
X10055758Y-52550940D01*
X10275274Y-52770456D01*
X10275303Y-52770487D01*
X10376414Y-52871598D01*
X10477145Y-52938904D01*
X10477146Y-52938905D01*
X10491664Y-52948606D01*
X10491679Y-52948614D01*
X10619733Y-53001655D01*
X10619738Y-53001657D01*
X10619742Y-53001657D01*
X10619743Y-53001658D01*
X10755688Y-53028700D01*
X10755691Y-53028700D01*
X10755692Y-53028700D01*
X11428397Y-53028700D01*
X11495436Y-53048385D01*
X11541191Y-53101189D01*
X11551135Y-53170347D01*
X11547473Y-53187295D01*
X11502402Y-53342426D01*
X11502401Y-53342432D01*
X11499500Y-53379298D01*
X11499500Y-53810701D01*
X11502401Y-53847567D01*
X11502402Y-53847573D01*
X11548254Y-54005393D01*
X11548255Y-54005396D01*
X11548256Y-54005398D01*
X11585681Y-54068681D01*
X11631917Y-54146862D01*
X11636702Y-54153031D01*
X11634256Y-54154927D01*
X11660857Y-54203642D01*
X11655873Y-54273334D01*
X11635069Y-54305703D01*
X11636702Y-54306969D01*
X11631917Y-54313137D01*
X11548255Y-54454603D01*
X11548254Y-54454606D01*
X11502402Y-54612426D01*
X11502401Y-54612432D01*
X11499500Y-54649298D01*
X11499500Y-55080701D01*
X11502401Y-55117567D01*
X11502402Y-55117573D01*
X11548254Y-55275393D01*
X11548255Y-55275396D01*
X11548256Y-55275398D01*
X11556880Y-55289981D01*
X11631917Y-55416862D01*
X11636702Y-55423031D01*
X11634256Y-55424927D01*
X11660857Y-55473642D01*
X11655873Y-55543334D01*
X11635069Y-55575703D01*
X11636702Y-55576969D01*
X11631917Y-55583137D01*
X11548255Y-55724603D01*
X11548254Y-55724606D01*
X11502402Y-55882426D01*
X11502401Y-55882432D01*
X11499500Y-55919298D01*
X11499500Y-56350701D01*
X11502401Y-56387567D01*
X11502402Y-56387573D01*
X11548254Y-56545393D01*
X11548255Y-56545396D01*
X11631917Y-56686862D01*
X11636702Y-56693031D01*
X11634256Y-56694927D01*
X11660857Y-56743642D01*
X11655873Y-56813334D01*
X11635069Y-56845703D01*
X11636702Y-56846969D01*
X11631917Y-56853137D01*
X11548255Y-56994603D01*
X11548254Y-56994606D01*
X11502402Y-57152426D01*
X11502401Y-57152432D01*
X11499500Y-57189298D01*
X11499500Y-57620701D01*
X11502401Y-57657567D01*
X11502402Y-57657573D01*
X11548254Y-57815393D01*
X11548255Y-57815396D01*
X11548256Y-57815398D01*
X11572623Y-57856600D01*
X11631917Y-57956862D01*
X11636702Y-57963031D01*
X11634256Y-57964927D01*
X11660857Y-58013642D01*
X11655873Y-58083334D01*
X11635069Y-58115703D01*
X11636702Y-58116969D01*
X11631917Y-58123137D01*
X11548255Y-58264603D01*
X11548254Y-58264606D01*
X11502402Y-58422426D01*
X11502401Y-58422432D01*
X11499500Y-58459298D01*
X11499500Y-58890701D01*
X11502401Y-58927567D01*
X11502402Y-58927573D01*
X11548254Y-59085393D01*
X11548255Y-59085396D01*
X11631917Y-59226862D01*
X11636702Y-59233031D01*
X11634369Y-59234840D01*
X11661210Y-59283995D01*
X11656226Y-59353687D01*
X11635470Y-59386021D01*
X11637097Y-59387283D01*
X11632313Y-59393449D01*
X11548718Y-59534801D01*
X11502899Y-59692513D01*
X11502704Y-59694998D01*
X11502705Y-59695000D01*
X14447295Y-59695000D01*
X14447295Y-59694998D01*
X14447100Y-59692513D01*
X14401281Y-59534801D01*
X14317685Y-59393447D01*
X14312900Y-59387278D01*
X14315366Y-59385364D01*
X14288802Y-59336776D01*
X14293749Y-59267082D01*
X14314856Y-59234232D01*
X14313301Y-59233026D01*
X14318077Y-59226868D01*
X14318081Y-59226865D01*
X14401744Y-59085398D01*
X14440594Y-58951677D01*
X14447597Y-58927573D01*
X14447598Y-58927567D01*
X14450500Y-58890694D01*
X14450500Y-58459306D01*
X14447598Y-58422431D01*
X14445031Y-58413597D01*
X14401745Y-58264606D01*
X14401744Y-58264603D01*
X14401744Y-58264602D01*
X14318081Y-58123135D01*
X14318078Y-58123132D01*
X14313298Y-58116969D01*
X14315750Y-58115066D01*
X14289155Y-58066421D01*
X14294104Y-57996726D01*
X14314940Y-57964304D01*
X14313298Y-57963031D01*
X14318075Y-57956870D01*
X14318081Y-57956865D01*
X14401744Y-57815398D01*
X14447598Y-57657569D01*
X14450500Y-57620694D01*
X14450500Y-57189306D01*
X14447598Y-57152431D01*
X14441028Y-57129816D01*
X14402527Y-56997295D01*
X14402726Y-56927426D01*
X14440668Y-56868756D01*
X14504306Y-56839912D01*
X14521603Y-56838700D01*
X14698879Y-56838700D01*
X14765918Y-56858385D01*
X14803871Y-56896726D01*
X14870184Y-57002262D01*
X14997738Y-57129816D01*
X15150478Y-57225789D01*
X15298260Y-57277500D01*
X15320745Y-57285368D01*
X15320750Y-57285369D01*
X15499996Y-57305565D01*
X15500000Y-57305565D01*
X15500004Y-57305565D01*
X15679249Y-57285369D01*
X15679252Y-57285368D01*
X15679255Y-57285368D01*
X15849522Y-57225789D01*
X16002262Y-57129816D01*
X16047556Y-57084521D01*
X16108877Y-57051037D01*
X16178568Y-57056021D01*
X16234502Y-57097892D01*
X16258920Y-57163356D01*
X16252278Y-57213157D01*
X16214632Y-57320742D01*
X16214630Y-57320750D01*
X16194435Y-57499996D01*
X16194435Y-57500003D01*
X16214630Y-57679249D01*
X16214631Y-57679254D01*
X16274211Y-57849523D01*
X16346333Y-57964304D01*
X16370184Y-58002262D01*
X16497738Y-58129816D01*
X16650478Y-58225789D01*
X16709681Y-58246505D01*
X16820745Y-58285368D01*
X16820750Y-58285369D01*
X16999996Y-58305565D01*
X17000000Y-58305565D01*
X17000004Y-58305565D01*
X17179249Y-58285369D01*
X17179252Y-58285368D01*
X17179255Y-58285368D01*
X17349522Y-58225789D01*
X17502262Y-58129816D01*
X17629816Y-58002262D01*
X17725789Y-57849522D01*
X17785368Y-57679255D01*
X17787811Y-57657573D01*
X17805565Y-57500003D01*
X17805565Y-57499996D01*
X17785369Y-57320750D01*
X17785366Y-57320737D01*
X17725789Y-57150478D01*
X17722704Y-57145567D01*
X17703700Y-57079599D01*
X17703700Y-55575443D01*
X17703701Y-55575422D01*
X17703701Y-55430689D01*
X17703700Y-55430687D01*
X17676659Y-55294744D01*
X17676658Y-55294738D01*
X17627746Y-55176657D01*
X17623611Y-55166673D01*
X17623609Y-55166670D01*
X17623608Y-55166667D01*
X17546603Y-55051421D01*
X17546597Y-55051413D01*
X17445487Y-54950303D01*
X17445456Y-54950274D01*
X16915940Y-54420758D01*
X16915920Y-54420736D01*
X16813585Y-54318401D01*
X16698323Y-54241386D01*
X16570264Y-54188343D01*
X16570256Y-54188341D01*
X16434310Y-54161299D01*
X16434308Y-54161299D01*
X16295692Y-54161299D01*
X16289578Y-54161299D01*
X16289558Y-54161300D01*
X14633243Y-54161300D01*
X14566204Y-54141615D01*
X14520449Y-54088811D01*
X14510505Y-54019653D01*
X14539530Y-53956097D01*
X14545562Y-53949619D01*
X14969490Y-53525691D01*
X15448579Y-53046602D01*
X15448583Y-53046600D01*
X15546600Y-52948583D01*
X15623611Y-52833327D01*
X15676657Y-52705262D01*
X15676660Y-52705249D01*
X15677011Y-52703485D01*
X15677014Y-52703485D01*
X15677014Y-52703464D01*
X15703701Y-52569308D01*
X15703701Y-52430691D01*
X15703701Y-52425581D01*
X15703700Y-52425555D01*
X15703700Y-50548244D01*
X15723385Y-50481205D01*
X15776189Y-50435450D01*
X15845347Y-50425506D01*
X15908903Y-50454531D01*
X15915381Y-50460563D01*
X18068581Y-52613763D01*
X18102066Y-52675086D01*
X18104900Y-52701444D01*
X18104900Y-60822300D01*
X18085215Y-60889339D01*
X18032411Y-60935094D01*
X17980900Y-60946300D01*
X14070900Y-60946300D01*
X14003861Y-60926615D01*
X13958106Y-60873811D01*
X13948162Y-60804653D01*
X13977187Y-60741097D01*
X14035965Y-60703323D01*
X14036306Y-60703223D01*
X14060197Y-60696281D01*
X14201552Y-60612685D01*
X14201561Y-60612678D01*
X14317678Y-60496561D01*
X14317685Y-60496552D01*
X14401281Y-60355198D01*
X14447100Y-60197486D01*
X14447295Y-60195001D01*
X14447295Y-60195000D01*
X11502705Y-60195000D01*
X11502704Y-60195001D01*
X11502899Y-60197486D01*
X11548718Y-60355198D01*
X11632314Y-60496552D01*
X11632321Y-60496561D01*
X11748438Y-60612678D01*
X11748447Y-60612685D01*
X11889802Y-60696281D01*
X11913694Y-60703223D01*
X11972580Y-60740829D01*
X12001787Y-60804302D01*
X11992041Y-60873488D01*
X11946438Y-60926423D01*
X11879455Y-60946299D01*
X11879100Y-60946300D01*
X10992844Y-60946300D01*
X10925805Y-60926615D01*
X10905163Y-60909981D01*
X10240019Y-60244837D01*
X10206534Y-60183514D01*
X10203700Y-60157156D01*
X10203700Y-59584665D01*
X10202142Y-59576835D01*
X10176657Y-59448712D01*
X10155811Y-59398385D01*
X10123613Y-59320651D01*
X10123609Y-59320644D01*
X10106299Y-59294737D01*
X10046601Y-59205392D01*
X10046595Y-59205385D01*
X9945487Y-59104277D01*
X9945456Y-59104248D01*
X9536819Y-58695611D01*
X9503334Y-58634288D01*
X9500500Y-58607930D01*
X9500500Y-58459313D01*
X9500499Y-58459298D01*
X9497598Y-58422432D01*
X9497597Y-58422426D01*
X9451745Y-58264606D01*
X9451744Y-58264603D01*
X9451744Y-58264602D01*
X9368081Y-58123135D01*
X9368078Y-58123132D01*
X9363298Y-58116969D01*
X9365750Y-58115066D01*
X9339155Y-58066421D01*
X9344104Y-57996726D01*
X9364940Y-57964304D01*
X9363298Y-57963031D01*
X9368075Y-57956870D01*
X9368081Y-57956865D01*
X9451744Y-57815398D01*
X9497598Y-57657569D01*
X9500500Y-57620694D01*
X9500500Y-57189306D01*
X9497598Y-57152431D01*
X9491027Y-57129815D01*
X9451745Y-56994606D01*
X9451744Y-56994603D01*
X9451744Y-56994602D01*
X9368081Y-56853135D01*
X9368078Y-56853132D01*
X9363298Y-56846969D01*
X9365750Y-56845066D01*
X9339155Y-56796421D01*
X9344104Y-56726726D01*
X9364940Y-56694304D01*
X9363298Y-56693031D01*
X9368075Y-56686870D01*
X9368081Y-56686865D01*
X9451744Y-56545398D01*
X9497598Y-56387569D01*
X9500500Y-56350694D01*
X9500500Y-55919306D01*
X9497598Y-55882431D01*
X9495031Y-55873597D01*
X9451745Y-55724606D01*
X9451744Y-55724603D01*
X9451744Y-55724602D01*
X9368081Y-55583135D01*
X9368078Y-55583132D01*
X9363298Y-55576969D01*
X9365635Y-55575155D01*
X9338798Y-55526050D01*
X9343756Y-55456356D01*
X9364554Y-55423998D01*
X9362903Y-55422717D01*
X9367686Y-55416550D01*
X9451281Y-55275198D01*
X9497100Y-55117486D01*
X9497295Y-55115001D01*
X9497295Y-55115000D01*
X7899000Y-55115000D01*
X7831961Y-55095315D01*
X7786206Y-55042511D01*
X7775000Y-54991000D01*
X7775000Y-54739000D01*
X7794685Y-54671961D01*
X7847489Y-54626206D01*
X7899000Y-54615000D01*
X9497295Y-54615000D01*
X9497295Y-54614998D01*
X9497100Y-54612513D01*
X9451281Y-54454801D01*
X9367685Y-54313447D01*
X9362900Y-54307278D01*
X9365366Y-54305364D01*
X9338802Y-54256776D01*
X9343749Y-54187082D01*
X9364856Y-54154232D01*
X9363301Y-54153026D01*
X9368077Y-54146868D01*
X9368081Y-54146865D01*
X9451744Y-54005398D01*
X9497598Y-53847569D01*
X9500500Y-53810694D01*
X9500500Y-53379306D01*
X9497598Y-53342431D01*
X9495031Y-53333597D01*
X9463836Y-53226224D01*
X9451744Y-53184602D01*
X9368081Y-53043135D01*
X9368078Y-53043132D01*
X9363298Y-53036969D01*
X9365750Y-53035066D01*
X9339155Y-52986421D01*
X9344104Y-52916726D01*
X9364940Y-52884304D01*
X9363298Y-52883031D01*
X9368075Y-52876870D01*
X9368081Y-52876865D01*
X9451744Y-52735398D01*
X9497598Y-52577569D01*
X9500500Y-52540694D01*
X9500500Y-52109306D01*
X9497598Y-52072431D01*
X9497583Y-52072381D01*
X9451745Y-51914606D01*
X9451744Y-51914603D01*
X9451744Y-51914602D01*
X9368081Y-51773135D01*
X9368078Y-51773132D01*
X9363298Y-51766969D01*
X9365750Y-51765066D01*
X9339155Y-51716421D01*
X9344104Y-51646726D01*
X9364940Y-51614304D01*
X9363298Y-51613031D01*
X9368075Y-51606870D01*
X9368081Y-51606865D01*
X9451744Y-51465398D01*
X9497598Y-51307569D01*
X9500500Y-51270694D01*
X9500500Y-50839306D01*
X9497598Y-50802431D01*
X9482254Y-50749618D01*
X9451745Y-50644606D01*
X9451744Y-50644603D01*
X9451744Y-50644602D01*
X9368081Y-50503135D01*
X9368079Y-50503133D01*
X9368076Y-50503129D01*
X9251870Y-50386923D01*
X9251862Y-50386917D01*
X9145366Y-50323936D01*
X9110398Y-50303256D01*
X9110397Y-50303255D01*
X9110396Y-50303255D01*
X9110393Y-50303254D01*
X8952573Y-50257402D01*
X8952567Y-50257401D01*
X8915701Y-50254500D01*
X8915694Y-50254500D01*
X7134306Y-50254500D01*
X7134298Y-50254500D01*
X7097432Y-50257401D01*
X7097426Y-50257402D01*
X6939606Y-50303254D01*
X6939601Y-50303256D01*
X6933685Y-50306755D01*
X6865961Y-50323936D01*
X6799698Y-50301776D01*
X6782885Y-50287703D01*
X6050940Y-49555758D01*
X6050920Y-49555736D01*
X5948586Y-49453402D01*
X5948578Y-49453396D01*
X5914764Y-49430802D01*
X5869958Y-49377190D01*
X5861251Y-49307865D01*
X5891405Y-49244838D01*
X5950848Y-49208118D01*
X5983654Y-49203700D01*
X9157156Y-49203700D01*
X9224195Y-49223385D01*
G37*
%TD.AperFunction*%
%TA.AperFunction,Conductor*%
G36*
X39724195Y-51223385D02*
G01*
X39744837Y-51240019D01*
X39900274Y-51395456D01*
X39900303Y-51395487D01*
X40001413Y-51496597D01*
X40001421Y-51496603D01*
X40105966Y-51566458D01*
X40105967Y-51566458D01*
X40111425Y-51570104D01*
X40116673Y-51573611D01*
X40244738Y-51626657D01*
X40244742Y-51626657D01*
X40244743Y-51626658D01*
X40380688Y-51653701D01*
X40380691Y-51653701D01*
X40525422Y-51653701D01*
X40525442Y-51653700D01*
X43050501Y-51653700D01*
X43117540Y-51673385D01*
X43163295Y-51726189D01*
X43174501Y-51777700D01*
X43174501Y-51847876D01*
X43180908Y-51907483D01*
X43231202Y-52042328D01*
X43231206Y-52042335D01*
X43317452Y-52157544D01*
X43317455Y-52157547D01*
X43432664Y-52243793D01*
X43432671Y-52243797D01*
X43564081Y-52292810D01*
X43620015Y-52334681D01*
X43644432Y-52400145D01*
X43629580Y-52468418D01*
X43608430Y-52496673D01*
X43486503Y-52618600D01*
X43406105Y-52733423D01*
X43351529Y-52777048D01*
X43304530Y-52786300D01*
X42585443Y-52786300D01*
X42585423Y-52786299D01*
X42579309Y-52786299D01*
X42440692Y-52786299D01*
X42440689Y-52786299D01*
X42304744Y-52813340D01*
X42304734Y-52813343D01*
X42232520Y-52843256D01*
X42176674Y-52866387D01*
X42061416Y-52943400D01*
X42022819Y-52981998D01*
X41963400Y-53041417D01*
X41963397Y-53041420D01*
X41244837Y-53759981D01*
X41183514Y-53793466D01*
X41157156Y-53796300D01*
X34269692Y-53796300D01*
X34202653Y-53776615D01*
X34156898Y-53723811D01*
X34146954Y-53654653D01*
X34162960Y-53609179D01*
X34236282Y-53485196D01*
X34236283Y-53485193D01*
X34282099Y-53327495D01*
X34282100Y-53327489D01*
X34284999Y-53290649D01*
X34285000Y-53290634D01*
X34285000Y-52600000D01*
X33359000Y-52600000D01*
X33291961Y-52580315D01*
X33246206Y-52527511D01*
X33235000Y-52476000D01*
X33235000Y-52224000D01*
X33254685Y-52156961D01*
X33307489Y-52111206D01*
X33359000Y-52100000D01*
X34285000Y-52100000D01*
X34285000Y-51409365D01*
X34284999Y-51409350D01*
X34282100Y-51372510D01*
X34282099Y-51372504D01*
X34279133Y-51362295D01*
X34279332Y-51292425D01*
X34317274Y-51233755D01*
X34380913Y-51204912D01*
X34398209Y-51203700D01*
X39657156Y-51203700D01*
X39724195Y-51223385D01*
G37*
%TD.AperFunction*%
%TA.AperFunction,Conductor*%
G36*
X39331904Y-19280917D02*
G01*
X39353809Y-19306196D01*
X39391016Y-19363147D01*
X39391019Y-19363151D01*
X39391021Y-19363153D01*
X39548216Y-19533913D01*
X39548219Y-19533915D01*
X39548222Y-19533918D01*
X39731365Y-19676464D01*
X39735666Y-19679274D01*
X39735077Y-19680174D01*
X39780904Y-19725651D01*
X39796300Y-19785494D01*
X39796300Y-25697509D01*
X39776615Y-25764548D01*
X39723811Y-25810303D01*
X39654653Y-25820247D01*
X39591097Y-25791222D01*
X39564913Y-25759509D01*
X39541936Y-25719711D01*
X39394265Y-25527262D01*
X39394260Y-25527256D01*
X39222743Y-25355739D01*
X39222736Y-25355733D01*
X39030293Y-25208067D01*
X39030292Y-25208066D01*
X39030289Y-25208064D01*
X38820212Y-25086776D01*
X38820205Y-25086773D01*
X38596104Y-24993947D01*
X38361785Y-24931161D01*
X38121289Y-24899500D01*
X38121288Y-24899500D01*
X37878712Y-24899500D01*
X37878711Y-24899500D01*
X37638214Y-24931161D01*
X37403895Y-24993947D01*
X37179794Y-25086773D01*
X37179785Y-25086777D01*
X36969706Y-25208067D01*
X36777263Y-25355733D01*
X36777256Y-25355739D01*
X36605739Y-25527256D01*
X36605733Y-25527263D01*
X36458067Y-25719706D01*
X36336777Y-25929785D01*
X36336773Y-25929794D01*
X36243947Y-26153895D01*
X36181161Y-26388214D01*
X36149500Y-26628711D01*
X36149500Y-26871288D01*
X36181161Y-27111785D01*
X36243947Y-27346104D01*
X36336773Y-27570205D01*
X36336776Y-27570212D01*
X36458064Y-27780289D01*
X36458066Y-27780292D01*
X36458067Y-27780293D01*
X36605733Y-27972736D01*
X36605739Y-27972743D01*
X36777256Y-28144260D01*
X36777262Y-28144265D01*
X36969711Y-28291936D01*
X37179788Y-28413224D01*
X37403900Y-28506054D01*
X37638211Y-28568838D01*
X37818586Y-28592584D01*
X37878711Y-28600500D01*
X37878712Y-28600500D01*
X38121289Y-28600500D01*
X38169388Y-28594167D01*
X38361789Y-28568838D01*
X38596100Y-28506054D01*
X38820212Y-28413224D01*
X39030289Y-28291936D01*
X39222738Y-28144265D01*
X39394265Y-27972738D01*
X39541936Y-27780289D01*
X39564915Y-27740488D01*
X39615479Y-27692275D01*
X39684086Y-27679051D01*
X39748951Y-27705019D01*
X39789480Y-27761933D01*
X39796300Y-27802490D01*
X39796300Y-28657155D01*
X39776615Y-28724194D01*
X39759981Y-28744836D01*
X39051419Y-29453398D01*
X39051417Y-29453400D01*
X39002408Y-29502408D01*
X38953400Y-29551416D01*
X38905162Y-29623611D01*
X38876387Y-29666675D01*
X38823343Y-29794735D01*
X38823341Y-29794743D01*
X38796299Y-29930689D01*
X38796299Y-30075421D01*
X38796300Y-30075442D01*
X38796300Y-42925556D01*
X38796299Y-42925582D01*
X38796299Y-43069312D01*
X38822011Y-43198571D01*
X38823342Y-43205262D01*
X38837268Y-43238881D01*
X38876389Y-43333327D01*
X38953400Y-43448583D01*
X39051417Y-43546600D01*
X39051418Y-43546600D01*
X39058485Y-43553667D01*
X39058484Y-43553667D01*
X39058488Y-43553670D01*
X39759981Y-44255163D01*
X39793466Y-44316486D01*
X39796300Y-44342844D01*
X39796300Y-46264506D01*
X39776615Y-46331545D01*
X39735182Y-46369975D01*
X39735671Y-46370723D01*
X39731376Y-46373528D01*
X39731374Y-46373530D01*
X39600381Y-46475485D01*
X39548217Y-46516086D01*
X39391015Y-46686854D01*
X39353808Y-46743804D01*
X39300662Y-46789161D01*
X39231430Y-46798584D01*
X39168095Y-46769082D01*
X39146192Y-46743804D01*
X39108984Y-46686854D01*
X39108982Y-46686852D01*
X39108979Y-46686847D01*
X38951784Y-46516087D01*
X38951779Y-46516083D01*
X38951777Y-46516081D01*
X38768634Y-46373535D01*
X38768628Y-46373531D01*
X38564504Y-46263064D01*
X38564495Y-46263061D01*
X38344984Y-46187702D01*
X38173282Y-46159050D01*
X38116049Y-46149500D01*
X37883951Y-46149500D01*
X37838164Y-46157140D01*
X37655015Y-46187702D01*
X37435504Y-46263061D01*
X37435495Y-46263064D01*
X37231371Y-46373531D01*
X37231365Y-46373535D01*
X37048222Y-46516081D01*
X37048219Y-46516084D01*
X36891018Y-46686850D01*
X36853510Y-46744262D01*
X36800363Y-46789618D01*
X36731132Y-46799042D01*
X36667796Y-46769540D01*
X36653084Y-46752562D01*
X36651186Y-46752365D01*
X35982962Y-47420589D01*
X35965925Y-47357007D01*
X35900099Y-47242993D01*
X35807007Y-47149901D01*
X35692993Y-47084075D01*
X35629409Y-47067037D01*
X36298797Y-46397647D01*
X36298797Y-46397645D01*
X36268360Y-46373955D01*
X36268354Y-46373951D01*
X36064302Y-46263523D01*
X36064293Y-46263520D01*
X35844860Y-46188188D01*
X35616007Y-46150000D01*
X35383993Y-46150000D01*
X35155139Y-46188188D01*
X34935706Y-46263520D01*
X34935697Y-46263523D01*
X34731650Y-46373949D01*
X34701200Y-46397647D01*
X35370591Y-47067037D01*
X35307007Y-47084075D01*
X35192993Y-47149901D01*
X35099901Y-47242993D01*
X35034075Y-47357007D01*
X35017037Y-47420591D01*
X34348811Y-46752365D01*
X34264516Y-46881390D01*
X34171317Y-47093864D01*
X34114361Y-47318781D01*
X34095202Y-47549994D01*
X34095202Y-47550005D01*
X34114361Y-47781218D01*
X34171317Y-48006135D01*
X34264515Y-48218606D01*
X34348812Y-48347633D01*
X35017037Y-47679408D01*
X35034075Y-47742993D01*
X35099901Y-47857007D01*
X35192993Y-47950099D01*
X35307007Y-48015925D01*
X35370590Y-48032962D01*
X34687063Y-48716489D01*
X34683367Y-48732745D01*
X34633501Y-48781685D01*
X34575097Y-48796300D01*
X29075442Y-48796300D01*
X29075422Y-48796299D01*
X29069308Y-48796299D01*
X28930691Y-48796299D01*
X28930689Y-48796299D01*
X28794743Y-48823341D01*
X28794735Y-48823343D01*
X28666676Y-48876386D01*
X28551416Y-48953400D01*
X28502408Y-49002408D01*
X28453400Y-49051417D01*
X28050381Y-49454436D01*
X27989058Y-49487921D01*
X27919366Y-49482937D01*
X27863433Y-49441065D01*
X27839016Y-49375601D01*
X27838700Y-49366755D01*
X27838700Y-40549994D01*
X31094556Y-40549994D01*
X31094556Y-40550005D01*
X31114310Y-40864004D01*
X31114311Y-40864011D01*
X31143790Y-41018547D01*
X31164362Y-41126389D01*
X31173270Y-41173083D01*
X31270497Y-41472316D01*
X31270499Y-41472321D01*
X31404461Y-41757003D01*
X31404464Y-41757009D01*
X31573051Y-42022661D01*
X31573054Y-42022665D01*
X31773606Y-42265090D01*
X31773608Y-42265092D01*
X31773610Y-42265094D01*
X31997612Y-42475446D01*
X32002968Y-42480476D01*
X32002978Y-42480484D01*
X32257504Y-42665408D01*
X32257509Y-42665410D01*
X32257516Y-42665416D01*
X32533234Y-42816994D01*
X32533239Y-42816996D01*
X32533241Y-42816997D01*
X32533242Y-42816998D01*
X32825771Y-42932818D01*
X32825774Y-42932819D01*
X33078906Y-42997812D01*
X33130527Y-43011066D01*
X33196010Y-43019338D01*
X33442670Y-43050499D01*
X33442679Y-43050499D01*
X33442682Y-43050500D01*
X33442684Y-43050500D01*
X33757316Y-43050500D01*
X33757318Y-43050500D01*
X33757321Y-43050499D01*
X33757329Y-43050499D01*
X33943593Y-43026968D01*
X34069473Y-43011066D01*
X34374225Y-42932819D01*
X34374228Y-42932818D01*
X34666757Y-42816998D01*
X34666758Y-42816997D01*
X34666756Y-42816997D01*
X34666766Y-42816994D01*
X34942484Y-42665416D01*
X35197030Y-42480478D01*
X35426390Y-42265094D01*
X35626947Y-42022663D01*
X35795537Y-41757007D01*
X35929503Y-41472315D01*
X36026731Y-41173079D01*
X36085688Y-40864015D01*
X36105444Y-40550000D01*
X36085688Y-40235985D01*
X36026731Y-39926921D01*
X35929503Y-39627685D01*
X35795537Y-39342993D01*
X35760414Y-39287648D01*
X35626948Y-39077338D01*
X35626945Y-39077334D01*
X35426393Y-38834909D01*
X35426391Y-38834907D01*
X35197031Y-38619523D01*
X35197021Y-38619515D01*
X34942495Y-38434591D01*
X34942488Y-38434586D01*
X34942484Y-38434584D01*
X34666766Y-38283006D01*
X34666763Y-38283004D01*
X34666758Y-38283002D01*
X34666757Y-38283001D01*
X34374228Y-38167181D01*
X34374225Y-38167180D01*
X34069476Y-38088934D01*
X34069463Y-38088932D01*
X33757329Y-38049500D01*
X33757318Y-38049500D01*
X33442682Y-38049500D01*
X33442670Y-38049500D01*
X33130536Y-38088932D01*
X33130523Y-38088934D01*
X32825774Y-38167180D01*
X32825771Y-38167181D01*
X32533242Y-38283001D01*
X32533241Y-38283002D01*
X32257516Y-38434584D01*
X32257504Y-38434591D01*
X32002978Y-38619515D01*
X32002968Y-38619523D01*
X31773608Y-38834907D01*
X31773606Y-38834909D01*
X31573054Y-39077334D01*
X31573051Y-39077338D01*
X31404464Y-39342990D01*
X31404461Y-39342996D01*
X31270499Y-39627678D01*
X31270497Y-39627683D01*
X31173270Y-39926916D01*
X31114311Y-40235988D01*
X31114310Y-40235995D01*
X31094556Y-40549994D01*
X27838700Y-40549994D01*
X27838700Y-22207844D01*
X27858385Y-22140805D01*
X27875019Y-22120163D01*
X28255163Y-21740019D01*
X28316486Y-21706534D01*
X28342844Y-21703700D01*
X35430692Y-21703700D01*
X37424558Y-21703700D01*
X37424578Y-21703701D01*
X37430692Y-21703701D01*
X37569310Y-21703701D01*
X37660768Y-21685507D01*
X37705262Y-21676657D01*
X37747950Y-21658975D01*
X37833323Y-21623613D01*
X37833324Y-21623612D01*
X37833327Y-21623611D01*
X37948583Y-21546600D01*
X38046600Y-21448583D01*
X38046601Y-21448581D01*
X38053667Y-21441515D01*
X38053670Y-21441511D01*
X38448579Y-21046602D01*
X38448583Y-21046600D01*
X38546600Y-20948583D01*
X38623611Y-20833327D01*
X38639595Y-20794738D01*
X38676658Y-20705262D01*
X38703701Y-20569308D01*
X38703701Y-20430691D01*
X38703701Y-20425581D01*
X38703700Y-20425555D01*
X38703700Y-19785494D01*
X38723385Y-19718455D01*
X38764822Y-19680021D01*
X38764334Y-19679274D01*
X38768619Y-19676473D01*
X38768626Y-19676470D01*
X38769170Y-19676047D01*
X38830129Y-19628600D01*
X38951784Y-19533913D01*
X39108979Y-19363153D01*
X39146191Y-19306196D01*
X39199337Y-19260839D01*
X39268569Y-19251415D01*
X39331904Y-19280917D01*
G37*
%TD.AperFunction*%
%TA.AperFunction,Conductor*%
G36*
X36651186Y-48347633D02*
G01*
X36655967Y-48347137D01*
X36699036Y-48310380D01*
X36768268Y-48300956D01*
X36831604Y-48330457D01*
X36853509Y-48355737D01*
X36891016Y-48413147D01*
X36891018Y-48413149D01*
X36891021Y-48413153D01*
X37048216Y-48583913D01*
X37048218Y-48583914D01*
X37051690Y-48587686D01*
X37050031Y-48589212D01*
X37081129Y-48640996D01*
X37079006Y-48710834D01*
X37039463Y-48768437D01*
X36975055Y-48795517D01*
X36961145Y-48796300D01*
X36424902Y-48796300D01*
X36357863Y-48776615D01*
X36312108Y-48723811D01*
X36310254Y-48713807D01*
X35629410Y-48032962D01*
X35692993Y-48015925D01*
X35807007Y-47950099D01*
X35900099Y-47857007D01*
X35965925Y-47742993D01*
X35982962Y-47679409D01*
X36651186Y-48347633D01*
G37*
%TD.AperFunction*%
%TA.AperFunction,Conductor*%
G36*
X14701248Y-13473385D02*
G01*
X14747003Y-13526189D01*
X14757785Y-13587940D01*
X14744357Y-13749994D01*
X14744357Y-13750005D01*
X14764890Y-13997812D01*
X14764892Y-13997824D01*
X14825936Y-14238881D01*
X14925826Y-14466606D01*
X15061833Y-14674782D01*
X15061836Y-14674785D01*
X15230256Y-14857738D01*
X15426491Y-15010474D01*
X15645190Y-15128828D01*
X15880386Y-15209571D01*
X16125665Y-15250500D01*
X16374335Y-15250500D01*
X16619614Y-15209571D01*
X16854810Y-15128828D01*
X17073509Y-15010474D01*
X17269744Y-14857738D01*
X17438164Y-14674785D01*
X17545902Y-14509878D01*
X17599048Y-14464522D01*
X17649711Y-14453700D01*
X24907156Y-14453700D01*
X24974195Y-14473385D01*
X24994837Y-14490019D01*
X25124981Y-14620163D01*
X25158466Y-14681486D01*
X25161300Y-14707844D01*
X25161300Y-42866756D01*
X25141615Y-42933795D01*
X25088811Y-42979550D01*
X25019653Y-42989494D01*
X24956097Y-42960469D01*
X24949619Y-42954437D01*
X24300940Y-42305758D01*
X24300920Y-42305736D01*
X24198585Y-42203401D01*
X24083323Y-42126386D01*
X23955264Y-42073343D01*
X23955256Y-42073341D01*
X23819310Y-42046299D01*
X23819308Y-42046299D01*
X23680692Y-42046299D01*
X23674578Y-42046299D01*
X23674558Y-42046300D01*
X17649711Y-42046300D01*
X17582672Y-42026615D01*
X17545902Y-41990121D01*
X17438166Y-41825217D01*
X17373881Y-41755385D01*
X17269744Y-41642262D01*
X17073509Y-41489526D01*
X17073507Y-41489525D01*
X17073506Y-41489524D01*
X16854811Y-41371172D01*
X16854802Y-41371169D01*
X16619616Y-41290429D01*
X16374335Y-41249500D01*
X16125665Y-41249500D01*
X15880382Y-41290429D01*
X15875412Y-41291688D01*
X15874955Y-41289883D01*
X15813234Y-41292664D01*
X15755100Y-41259917D01*
X15698583Y-41203400D01*
X15583327Y-41126389D01*
X15583325Y-41126388D01*
X15455265Y-41073344D01*
X15455256Y-41073341D01*
X15455194Y-41073329D01*
X15455194Y-41073328D01*
X15319310Y-41046299D01*
X15319308Y-41046299D01*
X15180692Y-41046299D01*
X15174578Y-41046299D01*
X15174558Y-41046300D01*
X10825443Y-41046300D01*
X10825423Y-41046299D01*
X10819309Y-41046299D01*
X10680692Y-41046299D01*
X10680690Y-41046299D01*
X10544744Y-41073340D01*
X10544738Y-41073342D01*
X10469720Y-41104416D01*
X10416673Y-41126388D01*
X10301418Y-41203399D01*
X10244898Y-41259918D01*
X10183574Y-41293402D01*
X10125015Y-41289984D01*
X10124584Y-41291687D01*
X10119619Y-41290429D01*
X9874335Y-41249500D01*
X9625665Y-41249500D01*
X9380383Y-41290429D01*
X9194742Y-41354160D01*
X9138010Y-41357977D01*
X9137871Y-41359396D01*
X9131809Y-41358799D01*
X9131808Y-41358799D01*
X8993192Y-41358799D01*
X8987078Y-41358799D01*
X8987058Y-41358800D01*
X7421374Y-41358800D01*
X7354335Y-41339115D01*
X7315835Y-41299896D01*
X7311829Y-41293402D01*
X7242712Y-41181344D01*
X7118656Y-41057288D01*
X6969334Y-40965186D01*
X6802797Y-40910001D01*
X6802795Y-40910000D01*
X6700010Y-40899500D01*
X5299998Y-40899500D01*
X5299981Y-40899501D01*
X5197203Y-40910000D01*
X5197200Y-40910001D01*
X5030668Y-40965185D01*
X5030663Y-40965187D01*
X4881342Y-41057289D01*
X4757289Y-41181342D01*
X4665187Y-41330663D01*
X4665185Y-41330668D01*
X4637349Y-41414670D01*
X4610001Y-41497203D01*
X4610001Y-41497204D01*
X4610000Y-41497204D01*
X4599500Y-41599983D01*
X4599500Y-42525001D01*
X4599501Y-42525019D01*
X4610000Y-42627796D01*
X4610001Y-42627799D01*
X4665185Y-42794331D01*
X4665187Y-42794336D01*
X4679165Y-42816998D01*
X4757288Y-42943656D01*
X4881344Y-43067712D01*
X5030666Y-43159814D01*
X5197203Y-43214999D01*
X5299991Y-43225500D01*
X6700008Y-43225499D01*
X6802797Y-43214999D01*
X6969334Y-43159814D01*
X7118656Y-43067712D01*
X7242712Y-42943656D01*
X7315835Y-42825103D01*
X7367783Y-42778379D01*
X7421374Y-42766200D01*
X8131549Y-42766200D01*
X8198588Y-42785885D01*
X8244343Y-42838689D01*
X8255125Y-42879960D01*
X8264890Y-42997812D01*
X8264892Y-42997824D01*
X8325936Y-43238881D01*
X8425826Y-43466606D01*
X8561833Y-43674782D01*
X8561836Y-43674785D01*
X8730256Y-43857738D01*
X8926491Y-44010474D01*
X9145190Y-44128828D01*
X9346299Y-44197869D01*
X9380199Y-44209507D01*
X9380386Y-44209571D01*
X9625665Y-44250500D01*
X9874335Y-44250500D01*
X10119614Y-44209571D01*
X10354810Y-44128828D01*
X10573509Y-44010474D01*
X10769744Y-43857738D01*
X10938164Y-43674785D01*
X11074173Y-43466607D01*
X11174063Y-43238881D01*
X11235108Y-42997821D01*
X11239596Y-42943657D01*
X11255643Y-42750005D01*
X11255643Y-42749994D01*
X11242215Y-42587940D01*
X11256296Y-42519504D01*
X11305141Y-42469545D01*
X11365791Y-42453700D01*
X11733063Y-42453700D01*
X11800102Y-42473385D01*
X11845857Y-42526189D01*
X11855801Y-42595347D01*
X11826776Y-42658903D01*
X11824294Y-42661682D01*
X11811833Y-42675217D01*
X11675826Y-42883393D01*
X11575936Y-43111118D01*
X11514892Y-43352175D01*
X11514890Y-43352187D01*
X11494357Y-43599994D01*
X11494357Y-43600005D01*
X11514890Y-43847812D01*
X11514892Y-43847825D01*
X11546516Y-43972704D01*
X11543890Y-44042525D01*
X11513991Y-44090825D01*
X11261973Y-44342844D01*
X11051420Y-44553397D01*
X11051417Y-44553400D01*
X11002408Y-44602408D01*
X10953400Y-44651416D01*
X10915768Y-44707738D01*
X10876387Y-44766675D01*
X10823343Y-44894735D01*
X10823341Y-44894743D01*
X10796299Y-45030689D01*
X10796299Y-45175421D01*
X10796300Y-45175442D01*
X10796300Y-48425556D01*
X10796299Y-48425582D01*
X10796299Y-48501754D01*
X10776614Y-48568793D01*
X10723810Y-48614548D01*
X10654652Y-48624492D01*
X10591096Y-48595467D01*
X10584618Y-48589435D01*
X10053670Y-48058488D01*
X10053667Y-48058484D01*
X10053667Y-48058485D01*
X10046600Y-48051418D01*
X10046600Y-48051417D01*
X9948583Y-47953400D01*
X9833327Y-47876389D01*
X9833328Y-47876389D01*
X9833323Y-47876386D01*
X9705264Y-47823343D01*
X9705256Y-47823341D01*
X9569310Y-47796299D01*
X9569308Y-47796299D01*
X9430692Y-47796299D01*
X9424578Y-47796299D01*
X9424558Y-47796300D01*
X4342844Y-47796300D01*
X4275805Y-47776615D01*
X4255163Y-47759981D01*
X4240019Y-47744837D01*
X4206534Y-47683514D01*
X4203700Y-47657156D01*
X4203700Y-39399986D01*
X4600001Y-39399986D01*
X4610494Y-39502697D01*
X4665641Y-39669119D01*
X4665643Y-39669124D01*
X4757684Y-39818345D01*
X4881654Y-39942315D01*
X5030875Y-40034356D01*
X5030880Y-40034358D01*
X5197302Y-40089505D01*
X5197309Y-40089506D01*
X5300019Y-40099999D01*
X5749999Y-40099999D01*
X6250000Y-40099999D01*
X6699972Y-40099999D01*
X6699986Y-40099998D01*
X6802697Y-40089505D01*
X6969119Y-40034358D01*
X6969124Y-40034356D01*
X7118345Y-39942315D01*
X7242315Y-39818345D01*
X7334356Y-39669124D01*
X7334358Y-39669119D01*
X7389505Y-39502697D01*
X7389506Y-39502690D01*
X7399999Y-39399986D01*
X7400000Y-39399973D01*
X7400000Y-39187500D01*
X6250000Y-39187500D01*
X6250000Y-40099999D01*
X5749999Y-40099999D01*
X5750000Y-40099998D01*
X5750000Y-39187500D01*
X4600001Y-39187500D01*
X4600001Y-39399986D01*
X4203700Y-39399986D01*
X4203700Y-38475013D01*
X4600000Y-38475013D01*
X4600000Y-38687500D01*
X5750000Y-38687500D01*
X6250000Y-38687500D01*
X7399999Y-38687500D01*
X7399999Y-38475028D01*
X7399998Y-38475013D01*
X7389505Y-38372302D01*
X7348976Y-38249994D01*
X8244859Y-38249994D01*
X8244859Y-38250005D01*
X8265385Y-38497729D01*
X8265387Y-38497738D01*
X8326412Y-38738717D01*
X8426266Y-38966364D01*
X8526564Y-39119882D01*
X9226212Y-38420234D01*
X9237482Y-38462292D01*
X9309890Y-38587708D01*
X9412292Y-38690110D01*
X9537708Y-38762518D01*
X9579765Y-38773787D01*
X8879942Y-39473609D01*
X8926768Y-39510055D01*
X8926770Y-39510056D01*
X9145385Y-39628364D01*
X9145396Y-39628369D01*
X9380506Y-39709083D01*
X9625707Y-39750000D01*
X9874293Y-39750000D01*
X10119493Y-39709083D01*
X10354603Y-39628369D01*
X10354614Y-39628364D01*
X10573228Y-39510057D01*
X10573231Y-39510055D01*
X10620056Y-39473609D01*
X9920234Y-38773787D01*
X9962292Y-38762518D01*
X10087708Y-38690110D01*
X10190110Y-38587708D01*
X10262518Y-38462292D01*
X10273787Y-38420234D01*
X10973434Y-39119882D01*
X11073731Y-38966369D01*
X11173587Y-38738717D01*
X11234612Y-38497738D01*
X11234614Y-38497729D01*
X11255141Y-38250005D01*
X11255141Y-38249994D01*
X11234614Y-38002270D01*
X11234612Y-38002261D01*
X11173587Y-37761282D01*
X11073731Y-37533630D01*
X10986421Y-37399994D01*
X11494357Y-37399994D01*
X11494357Y-37400005D01*
X11514890Y-37647812D01*
X11514892Y-37647824D01*
X11575936Y-37888881D01*
X11675826Y-38116606D01*
X11811833Y-38324782D01*
X11811836Y-38324785D01*
X11980256Y-38507738D01*
X12176491Y-38660474D01*
X12395190Y-38778828D01*
X12630386Y-38859571D01*
X12875665Y-38900500D01*
X13124335Y-38900500D01*
X13369614Y-38859571D01*
X13604810Y-38778828D01*
X13823509Y-38660474D01*
X14019744Y-38507738D01*
X14188164Y-38324785D01*
X14237027Y-38249994D01*
X14744859Y-38249994D01*
X14744859Y-38250005D01*
X14765385Y-38497729D01*
X14765387Y-38497738D01*
X14826412Y-38738717D01*
X14926266Y-38966364D01*
X15026564Y-39119882D01*
X15726212Y-38420234D01*
X15737482Y-38462292D01*
X15809890Y-38587708D01*
X15912292Y-38690110D01*
X16037708Y-38762518D01*
X16079765Y-38773787D01*
X15379942Y-39473609D01*
X15426768Y-39510055D01*
X15426770Y-39510056D01*
X15645385Y-39628364D01*
X15645396Y-39628369D01*
X15880506Y-39709083D01*
X16125707Y-39750000D01*
X16374293Y-39750000D01*
X16619493Y-39709083D01*
X16854603Y-39628369D01*
X16854614Y-39628364D01*
X17073228Y-39510057D01*
X17073231Y-39510055D01*
X17120056Y-39473609D01*
X16420234Y-38773787D01*
X16462292Y-38762518D01*
X16587708Y-38690110D01*
X16690110Y-38587708D01*
X16762518Y-38462292D01*
X16773787Y-38420234D01*
X17473434Y-39119882D01*
X17573731Y-38966369D01*
X17673587Y-38738717D01*
X17734612Y-38497738D01*
X17734614Y-38497729D01*
X17755141Y-38250005D01*
X17755141Y-38249994D01*
X17734614Y-38002270D01*
X17734612Y-38002261D01*
X17673587Y-37761282D01*
X17573731Y-37533630D01*
X17473434Y-37380116D01*
X16773787Y-38079764D01*
X16762518Y-38037708D01*
X16690110Y-37912292D01*
X16587708Y-37809890D01*
X16462292Y-37737482D01*
X16420235Y-37726212D01*
X17120057Y-37026390D01*
X17120056Y-37026389D01*
X17073229Y-36989943D01*
X16854614Y-36871635D01*
X16854603Y-36871630D01*
X16619493Y-36790916D01*
X16374293Y-36750000D01*
X16125707Y-36750000D01*
X15880506Y-36790916D01*
X15645396Y-36871630D01*
X15645390Y-36871632D01*
X15426761Y-36989949D01*
X15379942Y-37026388D01*
X15379942Y-37026390D01*
X16079765Y-37726212D01*
X16037708Y-37737482D01*
X15912292Y-37809890D01*
X15809890Y-37912292D01*
X15737482Y-38037708D01*
X15726212Y-38079764D01*
X15026564Y-37380116D01*
X14926267Y-37533632D01*
X14826412Y-37761282D01*
X14765387Y-38002261D01*
X14765385Y-38002270D01*
X14744859Y-38249994D01*
X14237027Y-38249994D01*
X14324173Y-38116607D01*
X14424063Y-37888881D01*
X14485108Y-37647821D01*
X14505643Y-37400000D01*
X14503995Y-37380116D01*
X14485109Y-37152187D01*
X14485107Y-37152175D01*
X14424063Y-36911118D01*
X14324173Y-36683393D01*
X14188165Y-36475217D01*
X14188164Y-36475215D01*
X14186462Y-36473366D01*
X14186006Y-36472443D01*
X14185021Y-36471177D01*
X14185281Y-36470973D01*
X14155546Y-36410708D01*
X14153700Y-36389392D01*
X14153700Y-35388664D01*
X14173385Y-35321625D01*
X14212604Y-35283125D01*
X14318656Y-35217712D01*
X14442712Y-35093656D01*
X14534814Y-34944334D01*
X14589999Y-34777797D01*
X14600500Y-34675009D01*
X14600500Y-34674986D01*
X15400001Y-34674986D01*
X15410494Y-34777697D01*
X15465641Y-34944119D01*
X15465643Y-34944124D01*
X15557684Y-35093345D01*
X15681654Y-35217315D01*
X15830875Y-35309356D01*
X15830880Y-35309358D01*
X15997302Y-35364505D01*
X15997309Y-35364506D01*
X16100019Y-35374999D01*
X16299999Y-35374999D01*
X16800000Y-35374999D01*
X16999972Y-35374999D01*
X16999986Y-35374998D01*
X17102697Y-35364505D01*
X17269119Y-35309358D01*
X17269124Y-35309356D01*
X17418345Y-35217315D01*
X17542315Y-35093345D01*
X17634356Y-34944124D01*
X17634358Y-34944119D01*
X17689505Y-34777697D01*
X17689506Y-34777690D01*
X17699999Y-34674986D01*
X17700000Y-34674973D01*
X17700000Y-34250000D01*
X16800000Y-34250000D01*
X16800000Y-35374999D01*
X16299999Y-35374999D01*
X16300000Y-35374998D01*
X16300000Y-34250000D01*
X15400001Y-34250000D01*
X15400001Y-34674986D01*
X14600500Y-34674986D01*
X14600499Y-33325013D01*
X15400000Y-33325013D01*
X15400000Y-33750000D01*
X16300000Y-33750000D01*
X16800000Y-33750000D01*
X17699999Y-33750000D01*
X17699999Y-33325028D01*
X17699998Y-33325013D01*
X17689505Y-33222302D01*
X17634358Y-33055880D01*
X17634356Y-33055875D01*
X17542315Y-32906654D01*
X17418345Y-32782684D01*
X17269124Y-32690643D01*
X17269119Y-32690641D01*
X17102697Y-32635494D01*
X17102690Y-32635493D01*
X16999986Y-32625000D01*
X16800000Y-32625000D01*
X16800000Y-33750000D01*
X16300000Y-33750000D01*
X16300000Y-32625000D01*
X16100029Y-32625000D01*
X16100012Y-32625001D01*
X15997302Y-32635494D01*
X15830880Y-32690641D01*
X15830875Y-32690643D01*
X15681654Y-32782684D01*
X15557684Y-32906654D01*
X15465643Y-33055875D01*
X15465641Y-33055880D01*
X15410494Y-33222302D01*
X15410493Y-33222309D01*
X15400000Y-33325013D01*
X14600499Y-33325013D01*
X14600499Y-33324992D01*
X14589999Y-33222203D01*
X14534814Y-33055666D01*
X14442712Y-32906344D01*
X14318656Y-32782288D01*
X14169334Y-32690186D01*
X14002797Y-32635001D01*
X14002795Y-32635000D01*
X13900010Y-32624500D01*
X12999998Y-32624500D01*
X12999980Y-32624501D01*
X12897203Y-32635000D01*
X12897200Y-32635001D01*
X12730668Y-32690185D01*
X12730663Y-32690187D01*
X12581342Y-32782289D01*
X12457289Y-32906342D01*
X12365187Y-33055663D01*
X12365185Y-33055668D01*
X12365115Y-33055880D01*
X12310001Y-33222203D01*
X12310001Y-33222204D01*
X12310000Y-33222204D01*
X12299500Y-33324983D01*
X12299500Y-34675001D01*
X12299501Y-34675018D01*
X12310000Y-34777796D01*
X12310001Y-34777799D01*
X12365115Y-34944119D01*
X12365186Y-34944334D01*
X12457096Y-35093345D01*
X12457289Y-35093657D01*
X12581344Y-35217712D01*
X12687396Y-35283125D01*
X12734121Y-35335073D01*
X12746300Y-35388664D01*
X12746300Y-35816063D01*
X12726615Y-35883102D01*
X12673811Y-35928857D01*
X12642712Y-35938371D01*
X12630387Y-35940427D01*
X12395197Y-36021169D01*
X12395188Y-36021172D01*
X12176493Y-36139524D01*
X11980257Y-36292261D01*
X11811833Y-36475217D01*
X11675826Y-36683393D01*
X11575936Y-36911118D01*
X11514892Y-37152175D01*
X11514890Y-37152187D01*
X11494357Y-37399994D01*
X10986421Y-37399994D01*
X10973434Y-37380116D01*
X10273787Y-38079764D01*
X10262518Y-38037708D01*
X10190110Y-37912292D01*
X10087708Y-37809890D01*
X9962292Y-37737482D01*
X9920235Y-37726212D01*
X10620057Y-37026390D01*
X10620056Y-37026389D01*
X10573229Y-36989943D01*
X10354614Y-36871635D01*
X10354603Y-36871630D01*
X10119493Y-36790916D01*
X9874293Y-36750000D01*
X9625707Y-36750000D01*
X9380506Y-36790916D01*
X9145396Y-36871630D01*
X9145390Y-36871632D01*
X8926761Y-36989949D01*
X8879942Y-37026388D01*
X8879942Y-37026390D01*
X9579765Y-37726212D01*
X9537708Y-37737482D01*
X9412292Y-37809890D01*
X9309890Y-37912292D01*
X9237482Y-38037708D01*
X9226212Y-38079764D01*
X8526564Y-37380116D01*
X8426267Y-37533632D01*
X8326412Y-37761282D01*
X8265387Y-38002261D01*
X8265385Y-38002270D01*
X8244859Y-38249994D01*
X7348976Y-38249994D01*
X7334358Y-38205880D01*
X7334356Y-38205875D01*
X7242315Y-38056654D01*
X7118345Y-37932684D01*
X6969124Y-37840643D01*
X6969119Y-37840641D01*
X6802697Y-37785494D01*
X6802690Y-37785493D01*
X6699986Y-37775000D01*
X6250000Y-37775000D01*
X6250000Y-38687500D01*
X5750000Y-38687500D01*
X5750000Y-37775000D01*
X5300028Y-37775000D01*
X5300012Y-37775001D01*
X5197302Y-37785494D01*
X5030880Y-37840641D01*
X5030875Y-37840643D01*
X4881654Y-37932684D01*
X4757684Y-38056654D01*
X4665643Y-38205875D01*
X4665641Y-38205880D01*
X4610494Y-38372302D01*
X4610493Y-38372309D01*
X4600000Y-38475013D01*
X4203700Y-38475013D01*
X4203700Y-17342844D01*
X4223385Y-17275805D01*
X4240019Y-17255163D01*
X4255163Y-17240019D01*
X4316486Y-17206534D01*
X4342844Y-17203700D01*
X12424558Y-17203700D01*
X12424578Y-17203701D01*
X12430692Y-17203701D01*
X12569310Y-17203701D01*
X12660768Y-17185507D01*
X12705262Y-17176657D01*
X12798135Y-17138188D01*
X12833323Y-17123613D01*
X12833324Y-17123612D01*
X12833327Y-17123611D01*
X12948583Y-17046600D01*
X13046600Y-16948583D01*
X13046601Y-16948581D01*
X13053667Y-16941515D01*
X13053670Y-16941511D01*
X13448579Y-16546602D01*
X13448583Y-16546600D01*
X13546600Y-16448583D01*
X13558555Y-16430692D01*
X13623612Y-16333325D01*
X13639595Y-16294739D01*
X13650450Y-16268531D01*
X13676658Y-16205262D01*
X13703701Y-16069308D01*
X13703701Y-15999198D01*
X13723386Y-15932159D01*
X13768682Y-15890144D01*
X13823509Y-15860474D01*
X14019744Y-15707738D01*
X14188164Y-15524785D01*
X14324173Y-15316607D01*
X14424063Y-15088881D01*
X14485108Y-14847821D01*
X14498891Y-14681486D01*
X14505643Y-14600005D01*
X14505643Y-14599994D01*
X14485109Y-14352187D01*
X14485107Y-14352175D01*
X14424063Y-14111118D01*
X14324173Y-13883393D01*
X14188166Y-13675217D01*
X14175706Y-13661682D01*
X14144785Y-13599027D01*
X14152646Y-13529601D01*
X14196793Y-13475446D01*
X14263211Y-13453756D01*
X14266937Y-13453700D01*
X14634209Y-13453700D01*
X14701248Y-13473385D01*
G37*
%TD.AperFunction*%
%TA.AperFunction,Conductor*%
G36*
X26773903Y-15769531D02*
G01*
X26780377Y-15775559D01*
X27453399Y-16448582D01*
X27453400Y-16448583D01*
X27551417Y-16546600D01*
X27666673Y-16623611D01*
X27719720Y-16645583D01*
X27794739Y-16676658D01*
X27794741Y-16676658D01*
X27794743Y-16676659D01*
X27930689Y-16703701D01*
X27930692Y-16703701D01*
X28075423Y-16703701D01*
X28075443Y-16703700D01*
X39657156Y-16703700D01*
X39724195Y-16723385D01*
X39744837Y-16740019D01*
X39759981Y-16755163D01*
X39793466Y-16816486D01*
X39796300Y-16842844D01*
X39796300Y-17214506D01*
X39776615Y-17281545D01*
X39735182Y-17319975D01*
X39735671Y-17320723D01*
X39731376Y-17323528D01*
X39731374Y-17323530D01*
X39600381Y-17425485D01*
X39548217Y-17466086D01*
X39391015Y-17636854D01*
X39353808Y-17693804D01*
X39300662Y-17739161D01*
X39231430Y-17748584D01*
X39168095Y-17719082D01*
X39146192Y-17693804D01*
X39108984Y-17636854D01*
X39108982Y-17636852D01*
X39108979Y-17636847D01*
X38951784Y-17466087D01*
X38951779Y-17466083D01*
X38951777Y-17466081D01*
X38768634Y-17323535D01*
X38768628Y-17323531D01*
X38564504Y-17213064D01*
X38564495Y-17213061D01*
X38344984Y-17137702D01*
X38173282Y-17109050D01*
X38116049Y-17099500D01*
X37883951Y-17099500D01*
X37838164Y-17107140D01*
X37655015Y-17137702D01*
X37435504Y-17213061D01*
X37435495Y-17213064D01*
X37231371Y-17323531D01*
X37231365Y-17323535D01*
X37048222Y-17466081D01*
X37048219Y-17466084D01*
X36891018Y-17636850D01*
X36853510Y-17694262D01*
X36800363Y-17739618D01*
X36731132Y-17749042D01*
X36667796Y-17719540D01*
X36653084Y-17702562D01*
X36651186Y-17702365D01*
X35982962Y-18370589D01*
X35965925Y-18307007D01*
X35900099Y-18192993D01*
X35807007Y-18099901D01*
X35692993Y-18034075D01*
X35629409Y-18017037D01*
X36298797Y-17347647D01*
X36298797Y-17347645D01*
X36268360Y-17323955D01*
X36268354Y-17323951D01*
X36064302Y-17213523D01*
X36064293Y-17213520D01*
X35844860Y-17138188D01*
X35616007Y-17100000D01*
X35383993Y-17100000D01*
X35155139Y-17138188D01*
X34935706Y-17213520D01*
X34935697Y-17213523D01*
X34731650Y-17323949D01*
X34701200Y-17347647D01*
X35370591Y-18017037D01*
X35307007Y-18034075D01*
X35192993Y-18099901D01*
X35099901Y-18192993D01*
X35034075Y-18307007D01*
X35017037Y-18370591D01*
X34348811Y-17702365D01*
X34264516Y-17831390D01*
X34171317Y-18043864D01*
X34114361Y-18268781D01*
X34095202Y-18499994D01*
X34095202Y-18500005D01*
X34114361Y-18731218D01*
X34171317Y-18956135D01*
X34264515Y-19168606D01*
X34348812Y-19297633D01*
X35017037Y-18629408D01*
X35034075Y-18692993D01*
X35099901Y-18807007D01*
X35192993Y-18900099D01*
X35307007Y-18965925D01*
X35370590Y-18982962D01*
X34701201Y-19652351D01*
X34731649Y-19676050D01*
X34935697Y-19786476D01*
X34935706Y-19786479D01*
X35155139Y-19861811D01*
X35383993Y-19900000D01*
X35616007Y-19900000D01*
X35844860Y-19861811D01*
X36064293Y-19786479D01*
X36064301Y-19786476D01*
X36268355Y-19676047D01*
X36298797Y-19652351D01*
X36298798Y-19652350D01*
X35629410Y-18982962D01*
X35692993Y-18965925D01*
X35807007Y-18900099D01*
X35900099Y-18807007D01*
X35965925Y-18692993D01*
X35982962Y-18629409D01*
X36651186Y-19297633D01*
X36655967Y-19297137D01*
X36699036Y-19260380D01*
X36768268Y-19250956D01*
X36831604Y-19280457D01*
X36853509Y-19305737D01*
X36891016Y-19363147D01*
X36891019Y-19363151D01*
X36891021Y-19363153D01*
X37048216Y-19533913D01*
X37048219Y-19533915D01*
X37048222Y-19533918D01*
X37231365Y-19676464D01*
X37235666Y-19679274D01*
X37235077Y-19680174D01*
X37280904Y-19725651D01*
X37296300Y-19785494D01*
X37296300Y-20157156D01*
X37276615Y-20224195D01*
X37259981Y-20244837D01*
X37244837Y-20259981D01*
X37183514Y-20293466D01*
X37157156Y-20296300D01*
X28075443Y-20296300D01*
X28075423Y-20296299D01*
X28069309Y-20296299D01*
X27930692Y-20296299D01*
X27930689Y-20296299D01*
X27794745Y-20323339D01*
X27794736Y-20323342D01*
X27704180Y-20360852D01*
X27666678Y-20376386D01*
X27666674Y-20376388D01*
X27666673Y-20376389D01*
X27627740Y-20402402D01*
X27551416Y-20453400D01*
X27502408Y-20502408D01*
X27453400Y-20551417D01*
X26780381Y-21224436D01*
X26719058Y-21257921D01*
X26649366Y-21252937D01*
X26593433Y-21211065D01*
X26569016Y-21145601D01*
X26568700Y-21136755D01*
X26568700Y-15863244D01*
X26588385Y-15796205D01*
X26641189Y-15750450D01*
X26710347Y-15740506D01*
X26773903Y-15769531D01*
G37*
%TD.AperFunction*%
%TA.AperFunction,Conductor*%
G36*
X11928431Y-3723385D02*
G01*
X11974186Y-3776189D01*
X11984130Y-3845347D01*
X11960666Y-3899941D01*
X11961080Y-3900197D01*
X11959354Y-3902994D01*
X11958661Y-3904608D01*
X11957288Y-3906343D01*
X11865187Y-4055663D01*
X11865185Y-4055668D01*
X11865115Y-4055880D01*
X11810001Y-4222203D01*
X11810001Y-4222204D01*
X11810000Y-4222204D01*
X11799500Y-4324983D01*
X11799500Y-5675001D01*
X11799501Y-5675018D01*
X11810000Y-5777796D01*
X11810001Y-5777799D01*
X11865115Y-5944119D01*
X11865186Y-5944334D01*
X11957288Y-6093656D01*
X12081344Y-6217712D01*
X12230666Y-6309814D01*
X12230667Y-6309814D01*
X12236813Y-6313605D01*
X12235164Y-6316276D01*
X12277064Y-6353079D01*
X12296300Y-6419415D01*
X12296300Y-7000799D01*
X12276615Y-7067838D01*
X12231319Y-7109853D01*
X12176496Y-7139522D01*
X12176494Y-7139523D01*
X11980257Y-7292261D01*
X11811833Y-7475217D01*
X11675826Y-7683393D01*
X11575936Y-7911118D01*
X11514892Y-8152175D01*
X11514890Y-8152187D01*
X11494357Y-8399994D01*
X11494357Y-8400005D01*
X11514890Y-8647812D01*
X11514892Y-8647824D01*
X11575936Y-8888881D01*
X11675826Y-9116606D01*
X11811833Y-9324782D01*
X11811836Y-9324785D01*
X11980256Y-9507738D01*
X12176491Y-9660474D01*
X12395190Y-9778828D01*
X12630386Y-9859571D01*
X12875665Y-9900500D01*
X13124335Y-9900500D01*
X13369614Y-9859571D01*
X13604810Y-9778828D01*
X13823509Y-9660474D01*
X14019744Y-9507738D01*
X14188164Y-9324785D01*
X14324173Y-9116607D01*
X14424063Y-8888881D01*
X14485108Y-8647821D01*
X14488635Y-8605262D01*
X14505643Y-8400005D01*
X14505643Y-8399994D01*
X14485109Y-8152187D01*
X14485107Y-8152175D01*
X14424063Y-7911118D01*
X14324173Y-7683393D01*
X14188166Y-7475217D01*
X14097188Y-7376389D01*
X14019744Y-7292262D01*
X13823509Y-7139526D01*
X13823508Y-7139525D01*
X13823505Y-7139523D01*
X13823503Y-7139522D01*
X13768681Y-7109853D01*
X13719091Y-7060632D01*
X13703700Y-7000799D01*
X13703700Y-6357823D01*
X13723385Y-6290784D01*
X13762601Y-6252286D01*
X13818656Y-6217712D01*
X13942712Y-6093656D01*
X14034814Y-5944334D01*
X14089999Y-5777797D01*
X14100500Y-5675009D01*
X14100500Y-5674986D01*
X14900001Y-5674986D01*
X14910494Y-5777697D01*
X14965641Y-5944119D01*
X14965643Y-5944124D01*
X15057684Y-6093345D01*
X15181654Y-6217315D01*
X15330875Y-6309356D01*
X15330880Y-6309358D01*
X15497302Y-6364505D01*
X15497309Y-6364506D01*
X15600019Y-6374999D01*
X15799999Y-6374999D01*
X16300000Y-6374999D01*
X16499972Y-6374999D01*
X16499986Y-6374998D01*
X16602697Y-6364505D01*
X16769119Y-6309358D01*
X16769124Y-6309356D01*
X16918345Y-6217315D01*
X17042315Y-6093345D01*
X17134356Y-5944124D01*
X17134358Y-5944119D01*
X17189505Y-5777697D01*
X17189506Y-5777690D01*
X17199999Y-5674986D01*
X17200000Y-5674973D01*
X17200000Y-5250000D01*
X16300000Y-5250000D01*
X16300000Y-6374999D01*
X15799999Y-6374999D01*
X15800000Y-6374998D01*
X15800000Y-5250000D01*
X14900001Y-5250000D01*
X14900001Y-5674986D01*
X14100500Y-5674986D01*
X14100499Y-4324992D01*
X14098473Y-4305163D01*
X14089999Y-4222203D01*
X14089998Y-4222200D01*
X14034814Y-4055666D01*
X13942712Y-3906344D01*
X13942711Y-3906343D01*
X13941339Y-3904608D01*
X13940768Y-3903194D01*
X13938920Y-3900197D01*
X13939432Y-3899881D01*
X13915201Y-3839812D01*
X13928243Y-3771170D01*
X13976326Y-3720476D01*
X14038608Y-3703700D01*
X14962034Y-3703700D01*
X15029073Y-3723385D01*
X15074828Y-3776189D01*
X15084772Y-3845347D01*
X15061149Y-3900308D01*
X15061475Y-3900509D01*
X15060118Y-3902708D01*
X15059301Y-3904610D01*
X15057684Y-3906654D01*
X14965643Y-4055875D01*
X14965641Y-4055880D01*
X14910494Y-4222302D01*
X14910493Y-4222309D01*
X14900000Y-4325013D01*
X14900000Y-4750000D01*
X17199999Y-4750000D01*
X17199999Y-4325028D01*
X17199998Y-4325013D01*
X17189505Y-4222302D01*
X17134358Y-4055880D01*
X17134356Y-4055875D01*
X17042315Y-3906654D01*
X17040699Y-3904610D01*
X17040026Y-3902943D01*
X17038525Y-3900509D01*
X17038941Y-3900252D01*
X17014559Y-3839815D01*
X17027600Y-3771173D01*
X17075681Y-3720478D01*
X17137966Y-3703700D01*
X20657156Y-3703700D01*
X20724195Y-3723385D01*
X20744837Y-3740019D01*
X21309981Y-4305163D01*
X21343466Y-4366486D01*
X21346300Y-4392844D01*
X21346300Y-9611335D01*
X21326615Y-9678374D01*
X21287397Y-9716873D01*
X21181347Y-9782285D01*
X21181343Y-9782288D01*
X21057289Y-9906342D01*
X20965187Y-10055663D01*
X20965186Y-10055666D01*
X20910001Y-10222203D01*
X20910001Y-10222204D01*
X20910000Y-10222204D01*
X20899500Y-10324983D01*
X20899500Y-11675001D01*
X20899501Y-11675018D01*
X20910000Y-11777796D01*
X20910001Y-11777799D01*
X20965185Y-11944331D01*
X20965187Y-11944336D01*
X20978048Y-11965187D01*
X21057288Y-12093656D01*
X21181344Y-12217712D01*
X21330666Y-12309814D01*
X21497203Y-12364999D01*
X21599991Y-12375500D01*
X22500008Y-12375499D01*
X22500016Y-12375498D01*
X22500019Y-12375498D01*
X22556302Y-12369748D01*
X22602797Y-12364999D01*
X22769334Y-12309814D01*
X22918656Y-12217712D01*
X23042712Y-12093656D01*
X23134814Y-11944334D01*
X23186387Y-11788694D01*
X23226160Y-11731251D01*
X23290675Y-11704428D01*
X23304093Y-11703700D01*
X25657156Y-11703700D01*
X25724195Y-11723385D01*
X25744837Y-11740019D01*
X26259981Y-12255163D01*
X26293466Y-12316486D01*
X26296300Y-12342844D01*
X26296300Y-13501756D01*
X26276615Y-13568795D01*
X26223811Y-13614550D01*
X26154653Y-13624494D01*
X26091097Y-13595469D01*
X26084619Y-13589437D01*
X25800940Y-13305758D01*
X25800920Y-13305736D01*
X25698585Y-13203401D01*
X25583323Y-13126386D01*
X25455264Y-13073343D01*
X25455256Y-13073341D01*
X25319310Y-13046299D01*
X25319308Y-13046299D01*
X25180692Y-13046299D01*
X25174578Y-13046299D01*
X25174558Y-13046300D01*
X17649711Y-13046300D01*
X17582672Y-13026615D01*
X17545902Y-12990121D01*
X17438166Y-12825217D01*
X17416557Y-12801744D01*
X17269744Y-12642262D01*
X17073509Y-12489526D01*
X17073508Y-12489525D01*
X17073505Y-12489523D01*
X17073503Y-12489522D01*
X17018681Y-12459853D01*
X16969091Y-12410632D01*
X16953700Y-12350799D01*
X16953700Y-12092844D01*
X16973385Y-12025805D01*
X16990019Y-12005163D01*
X17255163Y-11740019D01*
X17316486Y-11706534D01*
X17342844Y-11703700D01*
X17695906Y-11703700D01*
X17762945Y-11723385D01*
X17808700Y-11776189D01*
X17813612Y-11788695D01*
X17821999Y-11814004D01*
X17860665Y-11930692D01*
X17865186Y-11944333D01*
X17865187Y-11944336D01*
X17878048Y-11965187D01*
X17957288Y-12093656D01*
X18081344Y-12217712D01*
X18230666Y-12309814D01*
X18397203Y-12364999D01*
X18499991Y-12375500D01*
X19400008Y-12375499D01*
X19400016Y-12375498D01*
X19400019Y-12375498D01*
X19456302Y-12369748D01*
X19502797Y-12364999D01*
X19669334Y-12309814D01*
X19818656Y-12217712D01*
X19942712Y-12093656D01*
X20034814Y-11944334D01*
X20089999Y-11777797D01*
X20100500Y-11675009D01*
X20100499Y-10324992D01*
X20089999Y-10222203D01*
X20034814Y-10055666D01*
X19942712Y-9906344D01*
X19818656Y-9782288D01*
X19669334Y-9690186D01*
X19502797Y-9635001D01*
X19502795Y-9635000D01*
X19400010Y-9624500D01*
X18499998Y-9624500D01*
X18499980Y-9624501D01*
X18397203Y-9635000D01*
X18397200Y-9635001D01*
X18230668Y-9690185D01*
X18230663Y-9690187D01*
X18081342Y-9782289D01*
X17957289Y-9906342D01*
X17865187Y-10055663D01*
X17865186Y-10055666D01*
X17821501Y-10187500D01*
X17813613Y-10211304D01*
X17773840Y-10268749D01*
X17709325Y-10295572D01*
X17695907Y-10296300D01*
X17587309Y-10296300D01*
X17520270Y-10276615D01*
X17474515Y-10223811D01*
X17464571Y-10154653D01*
X17483500Y-10104479D01*
X17573732Y-9966367D01*
X17673587Y-9738717D01*
X17734612Y-9497738D01*
X17734614Y-9497729D01*
X17755141Y-9250005D01*
X17755141Y-9249994D01*
X17734614Y-9002270D01*
X17734612Y-9002261D01*
X17673587Y-8761282D01*
X17573731Y-8533630D01*
X17473434Y-8380116D01*
X16773787Y-9079764D01*
X16762518Y-9037708D01*
X16690110Y-8912292D01*
X16587708Y-8809890D01*
X16462292Y-8737482D01*
X16420235Y-8726212D01*
X17120057Y-8026390D01*
X17120056Y-8026389D01*
X17073229Y-7989943D01*
X16854614Y-7871635D01*
X16854603Y-7871630D01*
X16619493Y-7790916D01*
X16374293Y-7750000D01*
X16125707Y-7750000D01*
X15880506Y-7790916D01*
X15645396Y-7871630D01*
X15645390Y-7871632D01*
X15426761Y-7989949D01*
X15379942Y-8026388D01*
X15379942Y-8026390D01*
X16079765Y-8726212D01*
X16037708Y-8737482D01*
X15912292Y-8809890D01*
X15809890Y-8912292D01*
X15737482Y-9037708D01*
X15726212Y-9079764D01*
X15026564Y-8380116D01*
X14926267Y-8533632D01*
X14826412Y-8761282D01*
X14765387Y-9002261D01*
X14765385Y-9002270D01*
X14744859Y-9249994D01*
X14744859Y-9250005D01*
X14765385Y-9497729D01*
X14765387Y-9497738D01*
X14826412Y-9738717D01*
X14926266Y-9966364D01*
X15026564Y-10119882D01*
X15726212Y-9420234D01*
X15737482Y-9462292D01*
X15809890Y-9587708D01*
X15912292Y-9690110D01*
X16037708Y-9762518D01*
X16079765Y-9773787D01*
X15379942Y-10473609D01*
X15426768Y-10510055D01*
X15426770Y-10510056D01*
X15645385Y-10628364D01*
X15645396Y-10628369D01*
X15880507Y-10709083D01*
X15998741Y-10728813D01*
X16061627Y-10759263D01*
X16098066Y-10818878D01*
X16096491Y-10888730D01*
X16066013Y-10938803D01*
X15801420Y-11203397D01*
X15703399Y-11301417D01*
X15703397Y-11301419D01*
X15688752Y-11323340D01*
X15688750Y-11323343D01*
X15626392Y-11416666D01*
X15626385Y-11416679D01*
X15573343Y-11544735D01*
X15573341Y-11544743D01*
X15546299Y-11680689D01*
X15546299Y-11825421D01*
X15546300Y-11825442D01*
X15546300Y-11940356D01*
X15526615Y-12007395D01*
X15473811Y-12053150D01*
X15404653Y-12063094D01*
X15398109Y-12061973D01*
X15319311Y-12046299D01*
X15319308Y-12046299D01*
X15180692Y-12046299D01*
X15174578Y-12046299D01*
X15174558Y-12046300D01*
X10825443Y-12046300D01*
X10825423Y-12046299D01*
X10819309Y-12046299D01*
X10680692Y-12046299D01*
X10680690Y-12046299D01*
X10544744Y-12073340D01*
X10544738Y-12073342D01*
X10469720Y-12104416D01*
X10416674Y-12126388D01*
X10416673Y-12126389D01*
X10308626Y-12198583D01*
X10308625Y-12198584D01*
X10308624Y-12198583D01*
X10301418Y-12203399D01*
X10301414Y-12203402D01*
X10244898Y-12259917D01*
X10183574Y-12293401D01*
X10125012Y-12289995D01*
X10124584Y-12291687D01*
X10119619Y-12290429D01*
X9874335Y-12249500D01*
X9625665Y-12249500D01*
X9380383Y-12290429D01*
X9194742Y-12354160D01*
X9138010Y-12357977D01*
X9137871Y-12359396D01*
X9131809Y-12358799D01*
X9131808Y-12358799D01*
X8993192Y-12358799D01*
X8987078Y-12358799D01*
X8987058Y-12358800D01*
X7921374Y-12358800D01*
X7854335Y-12339115D01*
X7815835Y-12299896D01*
X7742712Y-12181344D01*
X7618657Y-12057289D01*
X7618656Y-12057288D01*
X7469334Y-11965186D01*
X7302797Y-11910001D01*
X7302795Y-11910000D01*
X7200010Y-11899500D01*
X5799998Y-11899500D01*
X5799981Y-11899501D01*
X5697203Y-11910000D01*
X5697200Y-11910001D01*
X5530668Y-11965185D01*
X5530663Y-11965187D01*
X5381342Y-12057289D01*
X5257289Y-12181342D01*
X5165187Y-12330663D01*
X5165185Y-12330668D01*
X5155863Y-12358800D01*
X5110001Y-12497203D01*
X5110001Y-12497204D01*
X5110000Y-12497204D01*
X5099500Y-12599983D01*
X5099500Y-13525001D01*
X5099501Y-13525019D01*
X5110000Y-13627796D01*
X5110001Y-13627799D01*
X5125714Y-13675217D01*
X5165186Y-13794334D01*
X5257288Y-13943656D01*
X5381344Y-14067712D01*
X5530666Y-14159814D01*
X5697203Y-14214999D01*
X5799991Y-14225500D01*
X7200008Y-14225499D01*
X7302797Y-14214999D01*
X7469334Y-14159814D01*
X7618656Y-14067712D01*
X7742712Y-13943656D01*
X7815835Y-13825103D01*
X7867783Y-13778379D01*
X7921374Y-13766200D01*
X8131549Y-13766200D01*
X8198588Y-13785885D01*
X8244343Y-13838689D01*
X8255125Y-13879960D01*
X8264890Y-13997812D01*
X8264892Y-13997824D01*
X8325936Y-14238881D01*
X8425826Y-14466606D01*
X8561833Y-14674782D01*
X8561836Y-14674785D01*
X8730256Y-14857738D01*
X8926491Y-15010474D01*
X9145190Y-15128828D01*
X9380386Y-15209571D01*
X9625665Y-15250500D01*
X9874335Y-15250500D01*
X10119614Y-15209571D01*
X10354810Y-15128828D01*
X10573509Y-15010474D01*
X10769744Y-14857738D01*
X10938164Y-14674785D01*
X11074173Y-14466607D01*
X11174063Y-14238881D01*
X11235108Y-13997821D01*
X11239596Y-13943657D01*
X11255643Y-13750005D01*
X11255643Y-13749994D01*
X11242215Y-13587940D01*
X11256296Y-13519504D01*
X11305141Y-13469545D01*
X11365791Y-13453700D01*
X11733063Y-13453700D01*
X11800102Y-13473385D01*
X11845857Y-13526189D01*
X11855801Y-13595347D01*
X11826776Y-13658903D01*
X11824294Y-13661682D01*
X11811833Y-13675217D01*
X11675826Y-13883393D01*
X11575936Y-14111118D01*
X11514892Y-14352175D01*
X11514890Y-14352187D01*
X11494357Y-14599994D01*
X11494357Y-14600005D01*
X11514890Y-14847812D01*
X11514892Y-14847824D01*
X11575936Y-15088881D01*
X11675826Y-15316606D01*
X11811833Y-15524782D01*
X11811836Y-15524785D01*
X11870322Y-15588318D01*
X11901244Y-15650971D01*
X11893384Y-15720397D01*
X11849237Y-15774553D01*
X11782820Y-15796244D01*
X11779092Y-15796300D01*
X4075443Y-15796300D01*
X4075423Y-15796299D01*
X4069309Y-15796299D01*
X3930692Y-15796299D01*
X3930689Y-15796299D01*
X3794745Y-15823340D01*
X3794737Y-15823342D01*
X3705095Y-15860474D01*
X3666674Y-15876388D01*
X3551416Y-15953400D01*
X3505619Y-15999198D01*
X3453400Y-16051417D01*
X3415381Y-16089436D01*
X3354058Y-16122921D01*
X3284366Y-16117937D01*
X3228433Y-16076065D01*
X3204016Y-16010601D01*
X3203700Y-16001755D01*
X3203700Y-10399986D01*
X5100001Y-10399986D01*
X5110494Y-10502697D01*
X5165641Y-10669119D01*
X5165643Y-10669124D01*
X5257684Y-10818345D01*
X5381654Y-10942315D01*
X5530875Y-11034356D01*
X5530880Y-11034358D01*
X5697302Y-11089505D01*
X5697309Y-11089506D01*
X5800019Y-11099999D01*
X6249999Y-11099999D01*
X6750000Y-11099999D01*
X7199972Y-11099999D01*
X7199986Y-11099998D01*
X7302697Y-11089505D01*
X7469119Y-11034358D01*
X7469124Y-11034356D01*
X7618345Y-10942315D01*
X7742315Y-10818345D01*
X7834356Y-10669124D01*
X7834358Y-10669119D01*
X7889505Y-10502697D01*
X7889506Y-10502690D01*
X7899999Y-10399986D01*
X7900000Y-10399973D01*
X7900000Y-10187500D01*
X6750000Y-10187500D01*
X6750000Y-11099999D01*
X6249999Y-11099999D01*
X6250000Y-11099998D01*
X6250000Y-10187500D01*
X5100001Y-10187500D01*
X5100001Y-10399986D01*
X3203700Y-10399986D01*
X3203700Y-9475013D01*
X5100000Y-9475013D01*
X5100000Y-9687500D01*
X6250000Y-9687500D01*
X6750000Y-9687500D01*
X7899999Y-9687500D01*
X7899999Y-9475028D01*
X7899998Y-9475013D01*
X7889505Y-9372302D01*
X7848976Y-9249994D01*
X8244859Y-9249994D01*
X8244859Y-9250005D01*
X8265385Y-9497729D01*
X8265387Y-9497738D01*
X8326412Y-9738717D01*
X8426266Y-9966364D01*
X8526564Y-10119882D01*
X9226212Y-9420234D01*
X9237482Y-9462292D01*
X9309890Y-9587708D01*
X9412292Y-9690110D01*
X9537708Y-9762518D01*
X9579765Y-9773787D01*
X8879942Y-10473609D01*
X8926768Y-10510055D01*
X8926770Y-10510056D01*
X9145385Y-10628364D01*
X9145396Y-10628369D01*
X9380506Y-10709083D01*
X9625707Y-10750000D01*
X9874293Y-10750000D01*
X10119493Y-10709083D01*
X10354603Y-10628369D01*
X10354614Y-10628364D01*
X10573228Y-10510057D01*
X10573231Y-10510055D01*
X10620056Y-10473609D01*
X9920234Y-9773787D01*
X9962292Y-9762518D01*
X10087708Y-9690110D01*
X10190110Y-9587708D01*
X10262518Y-9462292D01*
X10273787Y-9420234D01*
X10973434Y-10119882D01*
X11073731Y-9966369D01*
X11173587Y-9738717D01*
X11234612Y-9497738D01*
X11234614Y-9497729D01*
X11255141Y-9250005D01*
X11255141Y-9249994D01*
X11234614Y-9002270D01*
X11234612Y-9002261D01*
X11173587Y-8761282D01*
X11073731Y-8533630D01*
X10973434Y-8380116D01*
X10273787Y-9079764D01*
X10262518Y-9037708D01*
X10190110Y-8912292D01*
X10087708Y-8809890D01*
X9962292Y-8737482D01*
X9920235Y-8726212D01*
X10620057Y-8026390D01*
X10620056Y-8026389D01*
X10573229Y-7989943D01*
X10354614Y-7871635D01*
X10354603Y-7871630D01*
X10119493Y-7790916D01*
X9874293Y-7750000D01*
X9625707Y-7750000D01*
X9380506Y-7790916D01*
X9145396Y-7871630D01*
X9145390Y-7871632D01*
X8926761Y-7989949D01*
X8879942Y-8026388D01*
X8879942Y-8026390D01*
X9579765Y-8726212D01*
X9537708Y-8737482D01*
X9412292Y-8809890D01*
X9309890Y-8912292D01*
X9237482Y-9037708D01*
X9226212Y-9079764D01*
X8526564Y-8380116D01*
X8426267Y-8533632D01*
X8326412Y-8761282D01*
X8265387Y-9002261D01*
X8265385Y-9002270D01*
X8244859Y-9249994D01*
X7848976Y-9249994D01*
X7834358Y-9205880D01*
X7834356Y-9205875D01*
X7742315Y-9056654D01*
X7618345Y-8932684D01*
X7469124Y-8840643D01*
X7469119Y-8840641D01*
X7302697Y-8785494D01*
X7302690Y-8785493D01*
X7199986Y-8775000D01*
X6750000Y-8775000D01*
X6750000Y-9687500D01*
X6250000Y-9687500D01*
X6250000Y-8775000D01*
X5800028Y-8775000D01*
X5800012Y-8775001D01*
X5697302Y-8785494D01*
X5530880Y-8840641D01*
X5530875Y-8840643D01*
X5381654Y-8932684D01*
X5257684Y-9056654D01*
X5165643Y-9205875D01*
X5165641Y-9205880D01*
X5110494Y-9372302D01*
X5110493Y-9372309D01*
X5100000Y-9475013D01*
X3203700Y-9475013D01*
X3203700Y-8842844D01*
X3223385Y-8775805D01*
X3240019Y-8755163D01*
X3255163Y-8740019D01*
X3316486Y-8706534D01*
X3342844Y-8703700D01*
X3924558Y-8703700D01*
X3924578Y-8703701D01*
X3930692Y-8703701D01*
X4069310Y-8703701D01*
X4160768Y-8685507D01*
X4205262Y-8676657D01*
X4333327Y-8623611D01*
X4360788Y-8605262D01*
X4448583Y-8546600D01*
X4546600Y-8448583D01*
X4546602Y-8448579D01*
X4755164Y-8240016D01*
X4816487Y-8206534D01*
X4842844Y-8203700D01*
X7424558Y-8203700D01*
X7424578Y-8203701D01*
X7430692Y-8203701D01*
X7569310Y-8203701D01*
X7660768Y-8185507D01*
X7705262Y-8176657D01*
X7764338Y-8152187D01*
X7833323Y-8123613D01*
X7833324Y-8123612D01*
X7833327Y-8123611D01*
X7948583Y-8046600D01*
X8046600Y-7948583D01*
X8046600Y-7948581D01*
X8056808Y-7938374D01*
X8056809Y-7938371D01*
X9046600Y-6948583D01*
X9094838Y-6876389D01*
X9123611Y-6833327D01*
X9145583Y-6780280D01*
X9176658Y-6705261D01*
X9194867Y-6613718D01*
X9203701Y-6569310D01*
X9203701Y-6425581D01*
X9203700Y-6425555D01*
X9203700Y-4342844D01*
X9223385Y-4275805D01*
X9240019Y-4255163D01*
X9755164Y-3740019D01*
X9816487Y-3706534D01*
X9842845Y-3703700D01*
X11861392Y-3703700D01*
X11928431Y-3723385D01*
G37*
%TD.AperFunction*%
%TA.AperFunction,Conductor*%
G36*
X47003736Y-500726D02*
G01*
X47293796Y-518271D01*
X47308659Y-520076D01*
X47590798Y-571780D01*
X47605335Y-575363D01*
X47879172Y-660695D01*
X47893163Y-666000D01*
X48154743Y-783727D01*
X48167989Y-790680D01*
X48413465Y-939075D01*
X48425776Y-947573D01*
X48651573Y-1124473D01*
X48662781Y-1134403D01*
X48865596Y-1337218D01*
X48875526Y-1348426D01*
X48995481Y-1501538D01*
X49052422Y-1574217D01*
X49060928Y-1586540D01*
X49209316Y-1832004D01*
X49216275Y-1845263D01*
X49333997Y-2106831D01*
X49339306Y-2120832D01*
X49424635Y-2394663D01*
X49428219Y-2409201D01*
X49479923Y-2691340D01*
X49481728Y-2706205D01*
X49499274Y-2996263D01*
X49499500Y-3003750D01*
X49499500Y-104996249D01*
X49499274Y-105003736D01*
X49481728Y-105293794D01*
X49479923Y-105308659D01*
X49428219Y-105590798D01*
X49424635Y-105605336D01*
X49339306Y-105879167D01*
X49333997Y-105893168D01*
X49216275Y-106154736D01*
X49209316Y-106167995D01*
X49060928Y-106413459D01*
X49052422Y-106425782D01*
X48875526Y-106651573D01*
X48865596Y-106662781D01*
X48662781Y-106865596D01*
X48651573Y-106875526D01*
X48425782Y-107052422D01*
X48413459Y-107060928D01*
X48167995Y-107209316D01*
X48154736Y-107216275D01*
X47893168Y-107333997D01*
X47879167Y-107339306D01*
X47605336Y-107424635D01*
X47590798Y-107428219D01*
X47308659Y-107479923D01*
X47293794Y-107481728D01*
X47003736Y-107499274D01*
X46996249Y-107499500D01*
X3003751Y-107499500D01*
X2996264Y-107499274D01*
X2706205Y-107481728D01*
X2691340Y-107479923D01*
X2409201Y-107428219D01*
X2394663Y-107424635D01*
X2120832Y-107339306D01*
X2106831Y-107333997D01*
X1845263Y-107216275D01*
X1832004Y-107209316D01*
X1586540Y-107060928D01*
X1574217Y-107052422D01*
X1348426Y-106875526D01*
X1337218Y-106865596D01*
X1134403Y-106662781D01*
X1124473Y-106651573D01*
X1071469Y-106583918D01*
X947573Y-106425776D01*
X939075Y-106413465D01*
X790680Y-106167989D01*
X783727Y-106154743D01*
X666000Y-105893163D01*
X660693Y-105879167D01*
X575364Y-105605336D01*
X571780Y-105590798D01*
X564304Y-105550005D01*
X520075Y-105308657D01*
X518271Y-105293794D01*
X500726Y-105003736D01*
X500500Y-104996249D01*
X500500Y-103378712D01*
X2899500Y-103378712D01*
X2899500Y-103621288D01*
X2910350Y-103703700D01*
X2931161Y-103861785D01*
X2993947Y-104096104D01*
X3063702Y-104264506D01*
X3086776Y-104320212D01*
X3208064Y-104530289D01*
X3208066Y-104530292D01*
X3208067Y-104530293D01*
X3355733Y-104722736D01*
X3355739Y-104722743D01*
X3527256Y-104894260D01*
X3527263Y-104894266D01*
X3640321Y-104981018D01*
X3719711Y-105041936D01*
X3929788Y-105163224D01*
X4153900Y-105256054D01*
X4388211Y-105318838D01*
X4568586Y-105342584D01*
X4628711Y-105350500D01*
X4628712Y-105350500D01*
X4871289Y-105350500D01*
X4919388Y-105344167D01*
X5111789Y-105318838D01*
X5346100Y-105256054D01*
X5570212Y-105163224D01*
X5780289Y-105041936D01*
X5972738Y-104894265D01*
X6144265Y-104722738D01*
X6291936Y-104530289D01*
X6413224Y-104320212D01*
X6506054Y-104096100D01*
X6568838Y-103861789D01*
X6600500Y-103621288D01*
X6600500Y-103378712D01*
X6568838Y-103138211D01*
X6506054Y-102903900D01*
X6413224Y-102679788D01*
X6291936Y-102469711D01*
X6179623Y-102323341D01*
X6144266Y-102277263D01*
X6144260Y-102277256D01*
X5972743Y-102105739D01*
X5972736Y-102105733D01*
X5780293Y-101958067D01*
X5780292Y-101958066D01*
X5780289Y-101958064D01*
X5570212Y-101836776D01*
X5570205Y-101836773D01*
X5346104Y-101743947D01*
X5228944Y-101712554D01*
X5111789Y-101681162D01*
X5111788Y-101681161D01*
X5111785Y-101681161D01*
X4871289Y-101649500D01*
X4871288Y-101649500D01*
X4628712Y-101649500D01*
X4628711Y-101649500D01*
X4388214Y-101681161D01*
X4153895Y-101743947D01*
X3929794Y-101836773D01*
X3929785Y-101836777D01*
X3719706Y-101958067D01*
X3527263Y-102105733D01*
X3527256Y-102105739D01*
X3355739Y-102277256D01*
X3355733Y-102277263D01*
X3208067Y-102469706D01*
X3086777Y-102679785D01*
X3086773Y-102679794D01*
X2993947Y-102903895D01*
X2931161Y-103138214D01*
X2900623Y-103370184D01*
X2899500Y-103378712D01*
X500500Y-103378712D01*
X500500Y-50430689D01*
X796299Y-50430689D01*
X796299Y-50575421D01*
X796300Y-50575442D01*
X796300Y-57235556D01*
X796299Y-57235582D01*
X796299Y-57379310D01*
X815197Y-57474309D01*
X815197Y-57474311D01*
X823341Y-57515254D01*
X823344Y-57515266D01*
X876386Y-57643323D01*
X953401Y-57758585D01*
X1055736Y-57860920D01*
X1055758Y-57860940D01*
X1762136Y-58567318D01*
X1795621Y-58628641D01*
X1790637Y-58698333D01*
X1762137Y-58742680D01*
X1668400Y-58836417D01*
X1668397Y-58836420D01*
X1051420Y-59453397D01*
X1051417Y-59453400D01*
X1019436Y-59485381D01*
X953402Y-59551414D01*
X953400Y-59551417D01*
X915261Y-59608498D01*
X908694Y-59618326D01*
X908693Y-59618327D01*
X876387Y-59666675D01*
X876386Y-59666677D01*
X823343Y-59794735D01*
X823341Y-59794743D01*
X796299Y-59930689D01*
X796299Y-60075421D01*
X796300Y-60075442D01*
X796300Y-63925556D01*
X796299Y-63925582D01*
X796299Y-64069309D01*
X815667Y-64166672D01*
X815667Y-64166674D01*
X823341Y-64205254D01*
X823344Y-64205266D01*
X876386Y-64333323D01*
X953401Y-64448585D01*
X1055736Y-64550920D01*
X1055758Y-64550940D01*
X3209981Y-66705163D01*
X3243466Y-66766486D01*
X3246300Y-66792844D01*
X3246300Y-72611335D01*
X3226615Y-72678374D01*
X3187397Y-72716873D01*
X3081347Y-72782285D01*
X3081343Y-72782288D01*
X2957289Y-72906342D01*
X2865187Y-73055663D01*
X2865185Y-73055668D01*
X2840943Y-73128827D01*
X2810001Y-73222203D01*
X2810001Y-73222204D01*
X2810000Y-73222204D01*
X2799500Y-73324983D01*
X2799500Y-74675001D01*
X2799501Y-74675018D01*
X2810000Y-74777796D01*
X2810001Y-74777799D01*
X2865185Y-74944331D01*
X2865187Y-74944336D01*
X2957289Y-75093657D01*
X3081344Y-75217712D01*
X3187396Y-75283125D01*
X3234121Y-75335073D01*
X3246300Y-75388664D01*
X3246300Y-88875556D01*
X3246299Y-88875582D01*
X3246299Y-88880692D01*
X3246299Y-89019308D01*
X3246299Y-89019310D01*
X3246298Y-89019310D01*
X3273341Y-89155256D01*
X3273343Y-89155264D01*
X3326386Y-89283323D01*
X3403401Y-89398585D01*
X3505736Y-89500920D01*
X3505758Y-89500940D01*
X3950274Y-89945456D01*
X3950303Y-89945487D01*
X4051414Y-90046598D01*
X4166676Y-90123613D01*
X4294733Y-90176655D01*
X4294738Y-90176657D01*
X4294742Y-90176657D01*
X4294743Y-90176658D01*
X4430688Y-90203700D01*
X4430691Y-90203700D01*
X4430692Y-90203700D01*
X7657156Y-90203700D01*
X7724195Y-90223385D01*
X7744837Y-90240019D01*
X8146544Y-90641726D01*
X8180029Y-90703049D01*
X8175045Y-90772741D01*
X8146544Y-90817088D01*
X8057289Y-90906342D01*
X7965187Y-91055663D01*
X7965185Y-91055668D01*
X7965115Y-91055880D01*
X7910001Y-91222203D01*
X7910001Y-91222204D01*
X7910000Y-91222204D01*
X7899500Y-91324983D01*
X7899500Y-92675001D01*
X7899501Y-92675018D01*
X7910000Y-92777796D01*
X7910001Y-92777799D01*
X7965115Y-92944119D01*
X7965186Y-92944334D01*
X8057288Y-93093656D01*
X8181344Y-93217712D01*
X8330666Y-93309814D01*
X8497203Y-93364999D01*
X8599991Y-93375500D01*
X9500008Y-93375499D01*
X9500016Y-93375498D01*
X9500019Y-93375498D01*
X9556302Y-93369748D01*
X9602797Y-93364999D01*
X9769334Y-93309814D01*
X9918656Y-93217712D01*
X10042712Y-93093656D01*
X10134814Y-92944334D01*
X10189999Y-92777797D01*
X10200500Y-92675009D01*
X10200499Y-91324992D01*
X10200330Y-91323342D01*
X10189999Y-91222203D01*
X10189998Y-91222200D01*
X10186387Y-91211304D01*
X10134814Y-91055666D01*
X10042712Y-90906344D01*
X9918656Y-90782288D01*
X9918652Y-90782285D01*
X9812603Y-90716873D01*
X9765878Y-90664925D01*
X9753700Y-90611335D01*
X9753700Y-90480689D01*
X9753699Y-90480687D01*
X9726658Y-90344745D01*
X9726657Y-90344738D01*
X9726655Y-90344733D01*
X9673613Y-90216676D01*
X9596598Y-90101414D01*
X9495487Y-90000303D01*
X9495456Y-90000274D01*
X8550940Y-89055758D01*
X8550920Y-89055736D01*
X8448585Y-88953401D01*
X8333323Y-88876386D01*
X8205264Y-88823343D01*
X8205256Y-88823341D01*
X8069310Y-88796299D01*
X8069308Y-88796299D01*
X7930692Y-88796299D01*
X7924578Y-88796299D01*
X7924558Y-88796300D01*
X4842844Y-88796300D01*
X4775805Y-88776615D01*
X4755163Y-88759981D01*
X4690019Y-88694837D01*
X4656534Y-88633514D01*
X4653700Y-88607156D01*
X4653700Y-75388664D01*
X4673385Y-75321625D01*
X4712604Y-75283125D01*
X4744389Y-75263520D01*
X4818656Y-75217712D01*
X4942712Y-75093656D01*
X5034814Y-74944334D01*
X5089999Y-74777797D01*
X5100500Y-74675009D01*
X5100499Y-73324992D01*
X5099918Y-73319309D01*
X5089999Y-73222203D01*
X5089998Y-73222200D01*
X5085813Y-73209570D01*
X5034814Y-73055666D01*
X4942712Y-72906344D01*
X4818656Y-72782288D01*
X4818652Y-72782285D01*
X4712603Y-72716873D01*
X4665878Y-72664925D01*
X4653700Y-72611335D01*
X4653700Y-72139430D01*
X4673385Y-72072391D01*
X4726189Y-72026636D01*
X4795347Y-72016692D01*
X4858903Y-72045717D01*
X4865381Y-72051749D01*
X4881344Y-72067712D01*
X5030666Y-72159814D01*
X5197203Y-72214999D01*
X5299991Y-72225500D01*
X5678955Y-72225499D01*
X5745994Y-72245183D01*
X5766636Y-72261818D01*
X6146544Y-72641726D01*
X6180029Y-72703049D01*
X6175045Y-72772741D01*
X6146544Y-72817088D01*
X6057289Y-72906342D01*
X5965187Y-73055663D01*
X5965185Y-73055668D01*
X5940943Y-73128827D01*
X5910001Y-73222203D01*
X5910001Y-73222204D01*
X5910000Y-73222204D01*
X5899500Y-73324983D01*
X5899500Y-74675001D01*
X5899501Y-74675018D01*
X5910000Y-74777796D01*
X5910001Y-74777799D01*
X5958972Y-74925582D01*
X5965186Y-74944334D01*
X6057288Y-75093656D01*
X6181344Y-75217712D01*
X6330666Y-75309814D01*
X6497203Y-75364999D01*
X6599991Y-75375500D01*
X7500008Y-75375499D01*
X7500016Y-75375498D01*
X7500019Y-75375498D01*
X7556302Y-75369748D01*
X7602797Y-75364999D01*
X7769334Y-75309814D01*
X7918656Y-75217712D01*
X8042712Y-75093656D01*
X8134814Y-74944334D01*
X8186387Y-74788694D01*
X8226160Y-74731251D01*
X8290675Y-74704428D01*
X8304093Y-74703700D01*
X8924558Y-74703700D01*
X8924578Y-74703701D01*
X8930692Y-74703701D01*
X9069310Y-74703701D01*
X9170791Y-74683514D01*
X9205262Y-74676657D01*
X9252342Y-74657156D01*
X9333323Y-74623613D01*
X9333324Y-74623612D01*
X9333327Y-74623611D01*
X9448583Y-74546600D01*
X9546600Y-74448583D01*
X9546601Y-74448581D01*
X9553667Y-74441515D01*
X9553670Y-74441511D01*
X10198579Y-73796602D01*
X10198583Y-73796600D01*
X10296600Y-73698583D01*
X10373611Y-73583327D01*
X10426657Y-73455262D01*
X10427026Y-73453405D01*
X10427031Y-73453406D01*
X10427031Y-73453379D01*
X10453701Y-73319309D01*
X10453701Y-73180692D01*
X10453701Y-73175582D01*
X10453700Y-73175556D01*
X10453700Y-73149199D01*
X10473385Y-73082160D01*
X10518683Y-73040144D01*
X10573210Y-73010636D01*
X10573509Y-73010474D01*
X10769744Y-72857738D01*
X10938164Y-72674785D01*
X11074173Y-72466607D01*
X11174063Y-72238881D01*
X11235108Y-71997821D01*
X11235109Y-71997812D01*
X11255643Y-71750005D01*
X11255643Y-71749994D01*
X11242215Y-71587940D01*
X11256296Y-71519504D01*
X11305141Y-71469545D01*
X11365791Y-71453700D01*
X11733063Y-71453700D01*
X11800102Y-71473385D01*
X11845857Y-71526189D01*
X11855801Y-71595347D01*
X11826776Y-71658903D01*
X11824294Y-71661682D01*
X11811833Y-71675217D01*
X11675826Y-71883393D01*
X11575936Y-72111118D01*
X11514892Y-72352175D01*
X11514890Y-72352187D01*
X11494357Y-72599994D01*
X11494357Y-72600005D01*
X11514890Y-72847812D01*
X11514892Y-72847824D01*
X11575936Y-73088881D01*
X11675826Y-73316606D01*
X11811833Y-73524782D01*
X11811836Y-73524785D01*
X11980256Y-73707738D01*
X12092040Y-73794743D01*
X12176488Y-73860472D01*
X12176492Y-73860475D01*
X12231317Y-73890144D01*
X12280908Y-73939363D01*
X12296300Y-73999199D01*
X12296300Y-74925556D01*
X12296299Y-74925582D01*
X12296299Y-75069309D01*
X12305983Y-75117990D01*
X12312445Y-75150478D01*
X12315667Y-75166672D01*
X12315667Y-75166674D01*
X12323341Y-75205254D01*
X12323344Y-75205266D01*
X12376386Y-75333323D01*
X12453401Y-75448585D01*
X12555736Y-75550920D01*
X12555758Y-75550940D01*
X12950274Y-75945456D01*
X12950303Y-75945487D01*
X13051414Y-76046598D01*
X13166674Y-76123612D01*
X13204182Y-76139148D01*
X13294738Y-76176658D01*
X13394219Y-76196446D01*
X13430687Y-76203700D01*
X13430690Y-76203701D01*
X13430692Y-76203701D01*
X13575423Y-76203701D01*
X13575443Y-76203700D01*
X17079601Y-76203700D01*
X17145571Y-76222705D01*
X17150478Y-76225789D01*
X17150481Y-76225790D01*
X17320745Y-76285368D01*
X17320750Y-76285369D01*
X17499996Y-76305565D01*
X17500000Y-76305565D01*
X17500004Y-76305565D01*
X17679249Y-76285369D01*
X17679252Y-76285368D01*
X17679255Y-76285368D01*
X17849522Y-76225789D01*
X18002262Y-76129816D01*
X18129816Y-76002262D01*
X18225789Y-75849522D01*
X18285368Y-75679255D01*
X18285369Y-75679249D01*
X18305565Y-75500003D01*
X18305565Y-75499996D01*
X18285369Y-75320750D01*
X18285368Y-75320745D01*
X18231456Y-75166673D01*
X18225789Y-75150478D01*
X18129816Y-74997738D01*
X18002262Y-74870184D01*
X17849523Y-74774211D01*
X17679254Y-74714631D01*
X17679249Y-74714630D01*
X17500004Y-74694435D01*
X17499996Y-74694435D01*
X17320750Y-74714630D01*
X17320745Y-74714631D01*
X17150481Y-74774209D01*
X17150478Y-74774211D01*
X17145571Y-74777294D01*
X17079601Y-74796300D01*
X13842844Y-74796300D01*
X13775805Y-74776615D01*
X13755163Y-74759981D01*
X13740019Y-74744837D01*
X13706534Y-74683514D01*
X13703700Y-74657156D01*
X13703700Y-73999199D01*
X13723385Y-73932160D01*
X13768683Y-73890144D01*
X13823507Y-73860475D01*
X13823506Y-73860475D01*
X13823509Y-73860474D01*
X14019744Y-73707738D01*
X14188164Y-73524785D01*
X14324173Y-73316607D01*
X14424063Y-73088881D01*
X14485108Y-72847821D01*
X14485109Y-72847812D01*
X14505643Y-72600005D01*
X14505643Y-72599994D01*
X14485109Y-72352187D01*
X14485107Y-72352175D01*
X14424063Y-72111118D01*
X14324173Y-71883393D01*
X14188166Y-71675217D01*
X14175706Y-71661682D01*
X14144785Y-71599027D01*
X14152646Y-71529601D01*
X14196793Y-71475446D01*
X14263211Y-71453756D01*
X14266937Y-71453700D01*
X14634209Y-71453700D01*
X14701248Y-71473385D01*
X14747003Y-71526189D01*
X14757785Y-71587940D01*
X14744357Y-71749994D01*
X14744357Y-71750005D01*
X14764890Y-71997812D01*
X14764892Y-71997824D01*
X14825936Y-72238881D01*
X14925826Y-72466606D01*
X15061833Y-72674782D01*
X15087855Y-72703049D01*
X15230256Y-72857738D01*
X15426491Y-73010474D01*
X15645190Y-73128828D01*
X15880386Y-73209571D01*
X16125665Y-73250500D01*
X16374335Y-73250500D01*
X16619614Y-73209571D01*
X16854810Y-73128828D01*
X17073509Y-73010474D01*
X17269744Y-72857738D01*
X17438164Y-72674785D01*
X17545902Y-72509878D01*
X17599048Y-72464522D01*
X17649711Y-72453700D01*
X23674558Y-72453700D01*
X23674578Y-72453701D01*
X23680692Y-72453701D01*
X23819310Y-72453701D01*
X23910768Y-72435507D01*
X23955262Y-72426657D01*
X23997950Y-72408975D01*
X24083323Y-72373613D01*
X24083324Y-72373612D01*
X24083327Y-72373611D01*
X24198583Y-72296600D01*
X24296600Y-72198583D01*
X24296601Y-72198581D01*
X24303667Y-72191515D01*
X24303670Y-72191511D01*
X24949619Y-71545562D01*
X25010942Y-71512077D01*
X25080634Y-71517061D01*
X25136567Y-71558933D01*
X25160984Y-71624397D01*
X25161300Y-71633243D01*
X25161300Y-99792156D01*
X25141615Y-99859195D01*
X25124981Y-99879837D01*
X24994837Y-100009981D01*
X24933514Y-100043466D01*
X24907156Y-100046300D01*
X17649711Y-100046300D01*
X17582672Y-100026615D01*
X17545902Y-99990121D01*
X17438166Y-99825217D01*
X17375370Y-99757003D01*
X17269744Y-99642262D01*
X17073509Y-99489526D01*
X17073507Y-99489525D01*
X17073506Y-99489524D01*
X16854811Y-99371172D01*
X16854802Y-99371169D01*
X16619616Y-99290429D01*
X16374335Y-99249500D01*
X16125665Y-99249500D01*
X15880382Y-99290429D01*
X15875412Y-99291688D01*
X15874955Y-99289886D01*
X15813216Y-99292659D01*
X15755098Y-99259916D01*
X15550940Y-99055758D01*
X15550920Y-99055736D01*
X15448585Y-98953401D01*
X15333323Y-98876386D01*
X15205264Y-98823343D01*
X15205256Y-98823341D01*
X15069310Y-98796299D01*
X15069308Y-98796299D01*
X14930692Y-98796299D01*
X14924578Y-98796299D01*
X14924558Y-98796300D01*
X11075443Y-98796300D01*
X11075423Y-98796299D01*
X11069309Y-98796299D01*
X10930692Y-98796299D01*
X10930690Y-98796299D01*
X10794743Y-98823341D01*
X10794735Y-98823343D01*
X10666676Y-98876387D01*
X10548559Y-98955309D01*
X10481881Y-98976186D01*
X10414501Y-98957701D01*
X10376566Y-98921096D01*
X10338423Y-98864011D01*
X10296600Y-98801417D01*
X10296598Y-98801414D01*
X10195487Y-98700303D01*
X10195456Y-98700274D01*
X9613440Y-98118258D01*
X9613420Y-98118236D01*
X9511085Y-98015901D01*
X9470324Y-97988666D01*
X9421886Y-97956301D01*
X9377081Y-97902690D01*
X9368374Y-97833365D01*
X9398528Y-97770337D01*
X9457971Y-97733617D01*
X9511187Y-97730890D01*
X9625707Y-97750000D01*
X9874293Y-97750000D01*
X10119493Y-97709083D01*
X10354603Y-97628369D01*
X10354614Y-97628364D01*
X10573228Y-97510057D01*
X10573231Y-97510055D01*
X10620056Y-97473609D01*
X9920234Y-96773787D01*
X9962292Y-96762518D01*
X10087708Y-96690110D01*
X10190110Y-96587708D01*
X10262518Y-96462292D01*
X10273787Y-96420234D01*
X10973434Y-97119882D01*
X11073731Y-96966369D01*
X11173587Y-96738717D01*
X11234612Y-96497738D01*
X11234614Y-96497729D01*
X11255141Y-96250005D01*
X11255141Y-96249994D01*
X11234614Y-96002270D01*
X11234612Y-96002261D01*
X11173587Y-95761282D01*
X11073731Y-95533630D01*
X10986421Y-95399994D01*
X11494357Y-95399994D01*
X11494357Y-95400005D01*
X11514890Y-95647812D01*
X11514892Y-95647824D01*
X11575936Y-95888881D01*
X11675826Y-96116606D01*
X11811833Y-96324782D01*
X11811836Y-96324785D01*
X11980256Y-96507738D01*
X12176491Y-96660474D01*
X12395190Y-96778828D01*
X12630386Y-96859571D01*
X12875665Y-96900500D01*
X13124335Y-96900500D01*
X13369614Y-96859571D01*
X13604810Y-96778828D01*
X13823509Y-96660474D01*
X14019744Y-96507738D01*
X14188164Y-96324785D01*
X14237027Y-96249994D01*
X14744859Y-96249994D01*
X14744859Y-96250005D01*
X14765385Y-96497729D01*
X14765387Y-96497738D01*
X14826412Y-96738717D01*
X14926266Y-96966364D01*
X15026564Y-97119882D01*
X15726212Y-96420234D01*
X15737482Y-96462292D01*
X15809890Y-96587708D01*
X15912292Y-96690110D01*
X16037708Y-96762518D01*
X16079765Y-96773787D01*
X15379942Y-97473609D01*
X15426768Y-97510055D01*
X15426770Y-97510056D01*
X15645385Y-97628364D01*
X15645396Y-97628369D01*
X15880506Y-97709083D01*
X16125707Y-97750000D01*
X16374293Y-97750000D01*
X16619493Y-97709083D01*
X16854603Y-97628369D01*
X16854614Y-97628364D01*
X17073228Y-97510057D01*
X17073231Y-97510055D01*
X17120056Y-97473609D01*
X16420234Y-96773787D01*
X16462292Y-96762518D01*
X16587708Y-96690110D01*
X16690110Y-96587708D01*
X16762518Y-96462292D01*
X16773787Y-96420234D01*
X17473434Y-97119882D01*
X17573731Y-96966369D01*
X17673587Y-96738717D01*
X17734612Y-96497738D01*
X17734614Y-96497729D01*
X17755141Y-96250005D01*
X17755141Y-96249994D01*
X17734614Y-96002270D01*
X17734612Y-96002261D01*
X17673587Y-95761282D01*
X17573731Y-95533630D01*
X17473434Y-95380116D01*
X16773787Y-96079764D01*
X16762518Y-96037708D01*
X16690110Y-95912292D01*
X16587708Y-95809890D01*
X16462292Y-95737482D01*
X16420235Y-95726212D01*
X17120057Y-95026390D01*
X17120056Y-95026389D01*
X17073229Y-94989943D01*
X16854614Y-94871635D01*
X16854603Y-94871630D01*
X16619493Y-94790916D01*
X16374293Y-94750000D01*
X16125707Y-94750000D01*
X15880506Y-94790916D01*
X15645396Y-94871630D01*
X15645390Y-94871632D01*
X15426761Y-94989949D01*
X15379942Y-95026388D01*
X15379942Y-95026390D01*
X16079765Y-95726212D01*
X16037708Y-95737482D01*
X15912292Y-95809890D01*
X15809890Y-95912292D01*
X15737482Y-96037708D01*
X15726212Y-96079764D01*
X15026564Y-95380116D01*
X14926267Y-95533632D01*
X14826412Y-95761282D01*
X14765387Y-96002261D01*
X14765385Y-96002270D01*
X14744859Y-96249994D01*
X14237027Y-96249994D01*
X14324173Y-96116607D01*
X14424063Y-95888881D01*
X14485108Y-95647821D01*
X14505643Y-95400000D01*
X14503995Y-95380116D01*
X14485109Y-95152187D01*
X14485107Y-95152175D01*
X14453483Y-95027295D01*
X14456108Y-94957475D01*
X14486009Y-94909173D01*
X14496600Y-94898583D01*
X14573611Y-94783327D01*
X14587416Y-94750000D01*
X14605690Y-94705880D01*
X14626657Y-94655262D01*
X14633102Y-94622861D01*
X14653701Y-94519308D01*
X14653701Y-94380691D01*
X14653701Y-94375581D01*
X14653700Y-94375555D01*
X14653700Y-93388664D01*
X14673385Y-93321625D01*
X14712604Y-93283125D01*
X14818656Y-93217712D01*
X14942712Y-93093656D01*
X15034814Y-92944334D01*
X15089999Y-92777797D01*
X15100500Y-92675009D01*
X15100500Y-92674986D01*
X15900001Y-92674986D01*
X15910494Y-92777697D01*
X15965641Y-92944119D01*
X15965643Y-92944124D01*
X16057684Y-93093345D01*
X16181654Y-93217315D01*
X16330875Y-93309356D01*
X16330880Y-93309358D01*
X16497302Y-93364505D01*
X16497309Y-93364506D01*
X16600019Y-93374999D01*
X16799999Y-93374999D01*
X17300000Y-93374999D01*
X17499972Y-93374999D01*
X17499986Y-93374998D01*
X17602697Y-93364505D01*
X17769119Y-93309358D01*
X17769124Y-93309356D01*
X17918345Y-93217315D01*
X18042315Y-93093345D01*
X18134356Y-92944124D01*
X18134358Y-92944119D01*
X18189505Y-92777697D01*
X18189506Y-92777690D01*
X18199999Y-92674986D01*
X18200000Y-92674973D01*
X18200000Y-92250000D01*
X17300000Y-92250000D01*
X17300000Y-93374999D01*
X16799999Y-93374999D01*
X16800000Y-93374998D01*
X16800000Y-92250000D01*
X15900001Y-92250000D01*
X15900001Y-92674986D01*
X15100500Y-92674986D01*
X15100499Y-91325013D01*
X15900000Y-91325013D01*
X15900000Y-91750000D01*
X16800000Y-91750000D01*
X17300000Y-91750000D01*
X18199999Y-91750000D01*
X18199999Y-91325028D01*
X18199998Y-91325013D01*
X18189505Y-91222302D01*
X18134358Y-91055880D01*
X18134356Y-91055875D01*
X18042315Y-90906654D01*
X17918345Y-90782684D01*
X17769124Y-90690643D01*
X17769119Y-90690641D01*
X17602697Y-90635494D01*
X17602690Y-90635493D01*
X17499986Y-90625000D01*
X17300000Y-90625000D01*
X17300000Y-91750000D01*
X16800000Y-91750000D01*
X16800000Y-90625000D01*
X16600029Y-90625000D01*
X16600012Y-90625001D01*
X16497302Y-90635494D01*
X16330880Y-90690641D01*
X16330875Y-90690643D01*
X16181654Y-90782684D01*
X16057684Y-90906654D01*
X15965643Y-91055875D01*
X15965641Y-91055880D01*
X15910494Y-91222302D01*
X15910493Y-91222309D01*
X15900000Y-91325013D01*
X15100499Y-91325013D01*
X15100499Y-91324992D01*
X15100330Y-91323342D01*
X15089999Y-91222203D01*
X15089998Y-91222200D01*
X15086387Y-91211304D01*
X15034814Y-91055666D01*
X14942712Y-90906344D01*
X14818656Y-90782288D01*
X14712601Y-90716873D01*
X14669336Y-90690187D01*
X14669331Y-90690185D01*
X14593101Y-90664925D01*
X14502797Y-90635001D01*
X14502795Y-90635000D01*
X14400010Y-90624500D01*
X13499998Y-90624500D01*
X13499980Y-90624501D01*
X13397203Y-90635000D01*
X13397200Y-90635001D01*
X13230668Y-90690185D01*
X13230663Y-90690187D01*
X13081342Y-90782289D01*
X12957289Y-90906342D01*
X12865187Y-91055663D01*
X12865185Y-91055668D01*
X12865115Y-91055880D01*
X12810001Y-91222203D01*
X12810001Y-91222204D01*
X12810000Y-91222204D01*
X12799500Y-91324983D01*
X12799500Y-92675001D01*
X12799501Y-92675018D01*
X12810000Y-92777796D01*
X12810001Y-92777799D01*
X12865115Y-92944119D01*
X12865186Y-92944334D01*
X12957287Y-93093655D01*
X12957289Y-93093657D01*
X13081344Y-93217712D01*
X13187396Y-93283125D01*
X13234121Y-93335073D01*
X13246300Y-93388664D01*
X13246300Y-93775500D01*
X13226615Y-93842539D01*
X13173811Y-93888294D01*
X13122300Y-93899500D01*
X12875665Y-93899500D01*
X12630383Y-93940429D01*
X12395197Y-94021169D01*
X12395188Y-94021172D01*
X12176493Y-94139524D01*
X11980257Y-94292261D01*
X11811833Y-94475217D01*
X11675826Y-94683393D01*
X11575936Y-94911118D01*
X11514892Y-95152175D01*
X11514890Y-95152187D01*
X11494357Y-95399994D01*
X10986421Y-95399994D01*
X10973434Y-95380116D01*
X10273787Y-96079764D01*
X10262518Y-96037708D01*
X10190110Y-95912292D01*
X10087708Y-95809890D01*
X9962292Y-95737482D01*
X9920235Y-95726212D01*
X10620057Y-95026390D01*
X10620056Y-95026389D01*
X10573229Y-94989943D01*
X10354614Y-94871635D01*
X10354603Y-94871630D01*
X10119493Y-94790916D01*
X9874293Y-94750000D01*
X9625707Y-94750000D01*
X9380506Y-94790916D01*
X9145396Y-94871630D01*
X9145390Y-94871632D01*
X8926761Y-94989949D01*
X8879942Y-95026388D01*
X8879942Y-95026390D01*
X9579765Y-95726212D01*
X9537708Y-95737482D01*
X9412292Y-95809890D01*
X9309890Y-95912292D01*
X9237482Y-96037708D01*
X9226212Y-96079764D01*
X8526564Y-95380116D01*
X8426267Y-95533632D01*
X8326412Y-95761282D01*
X8265387Y-96002261D01*
X8265385Y-96002270D01*
X8244859Y-96249994D01*
X8244859Y-96250005D01*
X8265385Y-96497729D01*
X8265387Y-96497738D01*
X8326412Y-96738717D01*
X8426266Y-96966364D01*
X8526564Y-97119882D01*
X9226212Y-96420234D01*
X9237482Y-96462292D01*
X9309890Y-96587708D01*
X9412292Y-96690110D01*
X9537708Y-96762518D01*
X9579765Y-96773787D01*
X8879942Y-97473609D01*
X8926768Y-97510055D01*
X8926770Y-97510056D01*
X9140543Y-97625744D01*
X9190134Y-97674963D01*
X9205242Y-97743180D01*
X9181072Y-97808736D01*
X9125296Y-97850817D01*
X9081526Y-97858799D01*
X8987078Y-97858799D01*
X8987058Y-97858800D01*
X7421374Y-97858800D01*
X7354335Y-97839115D01*
X7315835Y-97799896D01*
X7242712Y-97681344D01*
X7118657Y-97557289D01*
X7118656Y-97557288D01*
X6969334Y-97465186D01*
X6802797Y-97410001D01*
X6802795Y-97410000D01*
X6700010Y-97399500D01*
X5299998Y-97399500D01*
X5299981Y-97399501D01*
X5197203Y-97410000D01*
X5197200Y-97410001D01*
X5030668Y-97465185D01*
X5030659Y-97465189D01*
X4892796Y-97550224D01*
X4825404Y-97568664D01*
X4758740Y-97547741D01*
X4713971Y-97494099D01*
X4703700Y-97444685D01*
X4703700Y-96554727D01*
X4723385Y-96487688D01*
X4776189Y-96441933D01*
X4845347Y-96431989D01*
X4892797Y-96449188D01*
X5030875Y-96534356D01*
X5030880Y-96534358D01*
X5197302Y-96589505D01*
X5197309Y-96589506D01*
X5300019Y-96599999D01*
X5749999Y-96599999D01*
X6250000Y-96599999D01*
X6699972Y-96599999D01*
X6699986Y-96599998D01*
X6802697Y-96589505D01*
X6969119Y-96534358D01*
X6969124Y-96534356D01*
X7118345Y-96442315D01*
X7242315Y-96318345D01*
X7334356Y-96169124D01*
X7334358Y-96169119D01*
X7389505Y-96002697D01*
X7389506Y-96002690D01*
X7399999Y-95899986D01*
X7400000Y-95899973D01*
X7400000Y-95687500D01*
X6250000Y-95687500D01*
X6250000Y-96599999D01*
X5749999Y-96599999D01*
X5750000Y-96599998D01*
X5750000Y-95187500D01*
X6250000Y-95187500D01*
X7399999Y-95187500D01*
X7399999Y-94975028D01*
X7399998Y-94975013D01*
X7389505Y-94872302D01*
X7334358Y-94705880D01*
X7334356Y-94705875D01*
X7242315Y-94556654D01*
X7118345Y-94432684D01*
X6969124Y-94340643D01*
X6969119Y-94340641D01*
X6802697Y-94285494D01*
X6802690Y-94285493D01*
X6699986Y-94275000D01*
X6250000Y-94275000D01*
X6250000Y-95187500D01*
X5750000Y-95187500D01*
X5750000Y-94275000D01*
X5300028Y-94275000D01*
X5300012Y-94275001D01*
X5197302Y-94285494D01*
X5030880Y-94340641D01*
X5030871Y-94340645D01*
X4892796Y-94425811D01*
X4825404Y-94444251D01*
X4758741Y-94423328D01*
X4713971Y-94369686D01*
X4703700Y-94320272D01*
X4703700Y-93119762D01*
X4723385Y-93052723D01*
X4776189Y-93006968D01*
X4845347Y-92997024D01*
X4908903Y-93026049D01*
X4933238Y-93054665D01*
X4957288Y-93093656D01*
X5081344Y-93217712D01*
X5230666Y-93309814D01*
X5397203Y-93364999D01*
X5499991Y-93375500D01*
X6400008Y-93375499D01*
X6400016Y-93375498D01*
X6400019Y-93375498D01*
X6456302Y-93369748D01*
X6502797Y-93364999D01*
X6669334Y-93309814D01*
X6818656Y-93217712D01*
X6942712Y-93093656D01*
X7034814Y-92944334D01*
X7089999Y-92777797D01*
X7100500Y-92675009D01*
X7100499Y-91324992D01*
X7100330Y-91323342D01*
X7089999Y-91222203D01*
X7089998Y-91222200D01*
X7086387Y-91211304D01*
X7034814Y-91055666D01*
X6942712Y-90906344D01*
X6818656Y-90782288D01*
X6712601Y-90716873D01*
X6669336Y-90690187D01*
X6669331Y-90690185D01*
X6593101Y-90664925D01*
X6502797Y-90635001D01*
X6502795Y-90635000D01*
X6400010Y-90624500D01*
X5499998Y-90624500D01*
X5499980Y-90624501D01*
X5397203Y-90635000D01*
X5397200Y-90635001D01*
X5230668Y-90690185D01*
X5230663Y-90690187D01*
X5081342Y-90782289D01*
X4957289Y-90906342D01*
X4865187Y-91055663D01*
X4865185Y-91055668D01*
X4813613Y-91211304D01*
X4773840Y-91268749D01*
X4709325Y-91295572D01*
X4695907Y-91296300D01*
X4575443Y-91296300D01*
X4575423Y-91296299D01*
X4569309Y-91296299D01*
X4430692Y-91296299D01*
X4430689Y-91296299D01*
X4294745Y-91323339D01*
X4294736Y-91323342D01*
X4204180Y-91360852D01*
X4166678Y-91376386D01*
X4166674Y-91376388D01*
X4166673Y-91376389D01*
X4127740Y-91402402D01*
X4051416Y-91453400D01*
X4002408Y-91502408D01*
X3953400Y-91551417D01*
X3953397Y-91551420D01*
X3551420Y-91953397D01*
X3551417Y-91953400D01*
X3502408Y-92002408D01*
X3453400Y-92051416D01*
X3376386Y-92166676D01*
X3323343Y-92294735D01*
X3323341Y-92294743D01*
X3296299Y-92430689D01*
X3296299Y-92575421D01*
X3296300Y-92575442D01*
X3296300Y-97925556D01*
X3296299Y-97925582D01*
X3296299Y-98069307D01*
X3302403Y-98099990D01*
X3302403Y-98099993D01*
X3323341Y-98205256D01*
X3323344Y-98205266D01*
X3376386Y-98333323D01*
X3453401Y-98448585D01*
X3555736Y-98550920D01*
X3555758Y-98550940D01*
X4012774Y-99007956D01*
X4012803Y-99007987D01*
X4113914Y-99109098D01*
X4113917Y-99109100D01*
X4200082Y-99166673D01*
X4229173Y-99186111D01*
X4229175Y-99186112D01*
X4229179Y-99186114D01*
X4357235Y-99239156D01*
X4357236Y-99239156D01*
X4357238Y-99239157D01*
X4357242Y-99239157D01*
X4357243Y-99239158D01*
X4493188Y-99266201D01*
X4578626Y-99266201D01*
X4645665Y-99285886D01*
X4684164Y-99325103D01*
X4757288Y-99443656D01*
X4881344Y-99567712D01*
X5030666Y-99659814D01*
X5197203Y-99714999D01*
X5299991Y-99725500D01*
X6700008Y-99725499D01*
X6802797Y-99714999D01*
X6969334Y-99659814D01*
X7118656Y-99567712D01*
X7242712Y-99443656D01*
X7315835Y-99325103D01*
X7367783Y-99278379D01*
X7421374Y-99266200D01*
X8719656Y-99266200D01*
X8786695Y-99285885D01*
X8807337Y-99302519D01*
X8865357Y-99360539D01*
X8898842Y-99421862D01*
X8893858Y-99491554D01*
X8853839Y-99546073D01*
X8730258Y-99642260D01*
X8561833Y-99825217D01*
X8425826Y-100033393D01*
X8325936Y-100261118D01*
X8264892Y-100502175D01*
X8264890Y-100502187D01*
X8244357Y-100749994D01*
X8244357Y-100750005D01*
X8264890Y-100997812D01*
X8264892Y-100997824D01*
X8325936Y-101238881D01*
X8425826Y-101466606D01*
X8561833Y-101674782D01*
X8567706Y-101681162D01*
X8730256Y-101857738D01*
X8926491Y-102010474D01*
X9145190Y-102128828D01*
X9380386Y-102209571D01*
X9625665Y-102250500D01*
X9874335Y-102250500D01*
X10119614Y-102209571D01*
X10354810Y-102128828D01*
X10573509Y-102010474D01*
X10769744Y-101857738D01*
X10938164Y-101674785D01*
X11074173Y-101466607D01*
X11174063Y-101238881D01*
X11235108Y-100997821D01*
X11235109Y-100997812D01*
X11255643Y-100750005D01*
X11255643Y-100749994D01*
X11235109Y-100502187D01*
X11235106Y-100502170D01*
X11203483Y-100377298D01*
X11206107Y-100307477D01*
X11236009Y-100259172D01*
X11255166Y-100240016D01*
X11316490Y-100206533D01*
X11342845Y-100203700D01*
X11989801Y-100203700D01*
X12056840Y-100223385D01*
X12102595Y-100276189D01*
X12112539Y-100345347D01*
X12083514Y-100408903D01*
X12065963Y-100425553D01*
X11980262Y-100492256D01*
X11980259Y-100492259D01*
X11980256Y-100492261D01*
X11980256Y-100492262D01*
X11951531Y-100523464D01*
X11811833Y-100675217D01*
X11675826Y-100883393D01*
X11575936Y-101111118D01*
X11514892Y-101352175D01*
X11514890Y-101352187D01*
X11494357Y-101599994D01*
X11494357Y-101600005D01*
X11514890Y-101847812D01*
X11514892Y-101847824D01*
X11575936Y-102088881D01*
X11675826Y-102316606D01*
X11811833Y-102524782D01*
X11811836Y-102524785D01*
X11980256Y-102707738D01*
X12102764Y-102803090D01*
X12176488Y-102860472D01*
X12176492Y-102860475D01*
X12231317Y-102890144D01*
X12280908Y-102939363D01*
X12296300Y-102999199D01*
X12296300Y-103425556D01*
X12296299Y-103425582D01*
X12296299Y-103430689D01*
X12296299Y-103430692D01*
X12296299Y-103569308D01*
X12312445Y-103650478D01*
X12315667Y-103666672D01*
X12315667Y-103666674D01*
X12323341Y-103705254D01*
X12323344Y-103705266D01*
X12376386Y-103833323D01*
X12453401Y-103948585D01*
X12555736Y-104050920D01*
X12555758Y-104050940D01*
X12950274Y-104445456D01*
X12950303Y-104445487D01*
X13051414Y-104546598D01*
X13166674Y-104623612D01*
X13204182Y-104639148D01*
X13294738Y-104676658D01*
X13430687Y-104703700D01*
X13430690Y-104703701D01*
X13430692Y-104703701D01*
X13575423Y-104703701D01*
X13575443Y-104703700D01*
X18579601Y-104703700D01*
X18645571Y-104722705D01*
X18650478Y-104725789D01*
X18650481Y-104725790D01*
X18820745Y-104785368D01*
X18820750Y-104785369D01*
X18999996Y-104805565D01*
X19000000Y-104805565D01*
X19000004Y-104805565D01*
X19179249Y-104785369D01*
X19179252Y-104785368D01*
X19179255Y-104785368D01*
X19349522Y-104725789D01*
X19502262Y-104629816D01*
X19629816Y-104502262D01*
X19725789Y-104349522D01*
X19785368Y-104179255D01*
X19785369Y-104179249D01*
X19805565Y-104000003D01*
X19805565Y-103999996D01*
X19785369Y-103820750D01*
X19785368Y-103820745D01*
X19744956Y-103705254D01*
X19725789Y-103650478D01*
X19629816Y-103497738D01*
X19502262Y-103370184D01*
X19349523Y-103274211D01*
X19179254Y-103214631D01*
X19179249Y-103214630D01*
X19000004Y-103194435D01*
X18999996Y-103194435D01*
X18820750Y-103214630D01*
X18820745Y-103214631D01*
X18650481Y-103274209D01*
X18650478Y-103274211D01*
X18645571Y-103277294D01*
X18579601Y-103296300D01*
X13842844Y-103296300D01*
X13775805Y-103276615D01*
X13755163Y-103259981D01*
X13740019Y-103244837D01*
X13706534Y-103183514D01*
X13703700Y-103157156D01*
X13703700Y-102999199D01*
X13723385Y-102932160D01*
X13768683Y-102890144D01*
X13823507Y-102860475D01*
X13823506Y-102860475D01*
X13823509Y-102860474D01*
X14019744Y-102707738D01*
X14188164Y-102524785D01*
X14324173Y-102316607D01*
X14424063Y-102088881D01*
X14485108Y-101847821D01*
X14486023Y-101836776D01*
X14505643Y-101600005D01*
X14505643Y-101599994D01*
X14485109Y-101352187D01*
X14485107Y-101352175D01*
X14424063Y-101111118D01*
X14324173Y-100883393D01*
X14188166Y-100675217D01*
X14169014Y-100654413D01*
X14019744Y-100492262D01*
X14019739Y-100492258D01*
X14019737Y-100492256D01*
X13934037Y-100425553D01*
X13893224Y-100368843D01*
X13889549Y-100299070D01*
X13924181Y-100238387D01*
X13986122Y-100206060D01*
X14010199Y-100203700D01*
X14657156Y-100203700D01*
X14724195Y-100223385D01*
X14744837Y-100240019D01*
X14763991Y-100259173D01*
X14797476Y-100320496D01*
X14796516Y-100377293D01*
X14764893Y-100502171D01*
X14764890Y-100502187D01*
X14744357Y-100749994D01*
X14744357Y-100750005D01*
X14764890Y-100997812D01*
X14764892Y-100997824D01*
X14825936Y-101238881D01*
X14925826Y-101466606D01*
X15061833Y-101674782D01*
X15067706Y-101681162D01*
X15230256Y-101857738D01*
X15426491Y-102010474D01*
X15645190Y-102128828D01*
X15880386Y-102209571D01*
X16125665Y-102250500D01*
X16374335Y-102250500D01*
X16619614Y-102209571D01*
X16854810Y-102128828D01*
X17073509Y-102010474D01*
X17269744Y-101857738D01*
X17438164Y-101674785D01*
X17545902Y-101509878D01*
X17599048Y-101464522D01*
X17649711Y-101453700D01*
X25174558Y-101453700D01*
X25174578Y-101453701D01*
X25180692Y-101453701D01*
X25319310Y-101453701D01*
X25434977Y-101430692D01*
X25455262Y-101426657D01*
X25497950Y-101408975D01*
X25583323Y-101373613D01*
X25583324Y-101373612D01*
X25583327Y-101373611D01*
X25698583Y-101296600D01*
X25796600Y-101198583D01*
X25796601Y-101198581D01*
X25803667Y-101191515D01*
X25803670Y-101191511D01*
X26219619Y-100775562D01*
X26280942Y-100742077D01*
X26350634Y-100747061D01*
X26406567Y-100788933D01*
X26430984Y-100854397D01*
X26431300Y-100863243D01*
X26431300Y-102560556D01*
X26431299Y-102560582D01*
X26431299Y-102565692D01*
X26431299Y-102704308D01*
X26431299Y-102704310D01*
X26431298Y-102704310D01*
X26458341Y-102840256D01*
X26458343Y-102840264D01*
X26511386Y-102968323D01*
X26588401Y-103083585D01*
X26690736Y-103185920D01*
X26690758Y-103185940D01*
X26950274Y-103445456D01*
X26950303Y-103445487D01*
X27051414Y-103546598D01*
X27051417Y-103546600D01*
X27163196Y-103621288D01*
X27163197Y-103621289D01*
X27166673Y-103623611D01*
X27166676Y-103623613D01*
X27294735Y-103676656D01*
X27294736Y-103676656D01*
X27294738Y-103676657D01*
X27294742Y-103676657D01*
X27294743Y-103676658D01*
X27430689Y-103703701D01*
X27430692Y-103703701D01*
X27575423Y-103703701D01*
X27575443Y-103703700D01*
X37157156Y-103703700D01*
X37224195Y-103723385D01*
X37244837Y-103740019D01*
X37259981Y-103755163D01*
X37293466Y-103816486D01*
X37296300Y-103842844D01*
X37296300Y-104264506D01*
X37276615Y-104331545D01*
X37235182Y-104369975D01*
X37235671Y-104370723D01*
X37231376Y-104373528D01*
X37231374Y-104373530D01*
X37138963Y-104445456D01*
X37048217Y-104516086D01*
X36891018Y-104686850D01*
X36853510Y-104744262D01*
X36800363Y-104789618D01*
X36731132Y-104799042D01*
X36667796Y-104769540D01*
X36653084Y-104752562D01*
X36651186Y-104752365D01*
X35982962Y-105420589D01*
X35965925Y-105357007D01*
X35900099Y-105242993D01*
X35807007Y-105149901D01*
X35692993Y-105084075D01*
X35629409Y-105067037D01*
X36298797Y-104397647D01*
X36298797Y-104397645D01*
X36268360Y-104373955D01*
X36268354Y-104373951D01*
X36064302Y-104263523D01*
X36064293Y-104263520D01*
X35844860Y-104188188D01*
X35616007Y-104150000D01*
X35383993Y-104150000D01*
X35155139Y-104188188D01*
X34935706Y-104263520D01*
X34935697Y-104263523D01*
X34731650Y-104373949D01*
X34701200Y-104397647D01*
X35370591Y-105067037D01*
X35307007Y-105084075D01*
X35192993Y-105149901D01*
X35099901Y-105242993D01*
X35034075Y-105357007D01*
X35017037Y-105420591D01*
X34348811Y-104752365D01*
X34264516Y-104881390D01*
X34171317Y-105093864D01*
X34114361Y-105318781D01*
X34095202Y-105549994D01*
X34095202Y-105550005D01*
X34114361Y-105781218D01*
X34171317Y-106006135D01*
X34264515Y-106218606D01*
X34348812Y-106347633D01*
X35017037Y-105679408D01*
X35034075Y-105742993D01*
X35099901Y-105857007D01*
X35192993Y-105950099D01*
X35307007Y-106015925D01*
X35370590Y-106032962D01*
X34701201Y-106702351D01*
X34731649Y-106726050D01*
X34935697Y-106836476D01*
X34935706Y-106836479D01*
X35155139Y-106911811D01*
X35383993Y-106950000D01*
X35616007Y-106950000D01*
X35844860Y-106911811D01*
X36064293Y-106836479D01*
X36064301Y-106836476D01*
X36268355Y-106726047D01*
X36298797Y-106702351D01*
X36298798Y-106702350D01*
X35629410Y-106032962D01*
X35692993Y-106015925D01*
X35807007Y-105950099D01*
X35900099Y-105857007D01*
X35965925Y-105742993D01*
X35982962Y-105679409D01*
X36651186Y-106347633D01*
X36655967Y-106347137D01*
X36699036Y-106310380D01*
X36768268Y-106300956D01*
X36831604Y-106330457D01*
X36853509Y-106355737D01*
X36891016Y-106413147D01*
X36891019Y-106413151D01*
X36891021Y-106413153D01*
X37048216Y-106583913D01*
X37048219Y-106583915D01*
X37048222Y-106583918D01*
X37231365Y-106726464D01*
X37231371Y-106726468D01*
X37231374Y-106726470D01*
X37398860Y-106817109D01*
X37434652Y-106836479D01*
X37435497Y-106836936D01*
X37547906Y-106875526D01*
X37655015Y-106912297D01*
X37655017Y-106912297D01*
X37655019Y-106912298D01*
X37883951Y-106950500D01*
X37883952Y-106950500D01*
X38116048Y-106950500D01*
X38116049Y-106950500D01*
X38344981Y-106912298D01*
X38564503Y-106836936D01*
X38768626Y-106726470D01*
X38769170Y-106726047D01*
X38864854Y-106651573D01*
X38951784Y-106583913D01*
X39108979Y-106413153D01*
X39146191Y-106356196D01*
X39199337Y-106310839D01*
X39268569Y-106301415D01*
X39331904Y-106330917D01*
X39353809Y-106356196D01*
X39391016Y-106413147D01*
X39391019Y-106413151D01*
X39391021Y-106413153D01*
X39548216Y-106583913D01*
X39548219Y-106583915D01*
X39548222Y-106583918D01*
X39731365Y-106726464D01*
X39731371Y-106726468D01*
X39731374Y-106726470D01*
X39898860Y-106817109D01*
X39934652Y-106836479D01*
X39935497Y-106836936D01*
X40047906Y-106875526D01*
X40155015Y-106912297D01*
X40155017Y-106912297D01*
X40155019Y-106912298D01*
X40383951Y-106950500D01*
X40383952Y-106950500D01*
X40616048Y-106950500D01*
X40616049Y-106950500D01*
X40844981Y-106912298D01*
X41064503Y-106836936D01*
X41268626Y-106726470D01*
X41269170Y-106726047D01*
X41364854Y-106651573D01*
X41451784Y-106583913D01*
X41608979Y-106413153D01*
X41735924Y-106218849D01*
X41829157Y-106006300D01*
X41886134Y-105781305D01*
X41886135Y-105781297D01*
X41905300Y-105550006D01*
X41905300Y-105549993D01*
X41886135Y-105318702D01*
X41886133Y-105318691D01*
X41829157Y-105093699D01*
X41735924Y-104881151D01*
X41608983Y-104686852D01*
X41608980Y-104686849D01*
X41608979Y-104686847D01*
X41451784Y-104516087D01*
X41268626Y-104373530D01*
X41268617Y-104373525D01*
X41264329Y-104370723D01*
X41264916Y-104369823D01*
X41219091Y-104324340D01*
X41203700Y-104264506D01*
X41203700Y-103575442D01*
X41203701Y-103575421D01*
X41203701Y-103430688D01*
X41176658Y-103294743D01*
X41176656Y-103294737D01*
X41169431Y-103277293D01*
X41123613Y-103166677D01*
X41123612Y-103166675D01*
X41104593Y-103138211D01*
X41104592Y-103138210D01*
X41046600Y-103051417D01*
X41046597Y-103051414D01*
X41046596Y-103051412D01*
X40945487Y-102950303D01*
X40945456Y-102950274D01*
X39240019Y-101244837D01*
X39206534Y-101183514D01*
X39203700Y-101157156D01*
X39203700Y-98549994D01*
X39894556Y-98549994D01*
X39894556Y-98550005D01*
X39914310Y-98864004D01*
X39914311Y-98864011D01*
X39935710Y-98976186D01*
X39961064Y-99109100D01*
X39973270Y-99173083D01*
X40070497Y-99472316D01*
X40070499Y-99472321D01*
X40204461Y-99757003D01*
X40204464Y-99757009D01*
X40373051Y-100022661D01*
X40373054Y-100022665D01*
X40573606Y-100265090D01*
X40573608Y-100265092D01*
X40573610Y-100265094D01*
X40693090Y-100377293D01*
X40802968Y-100480476D01*
X40802978Y-100480484D01*
X41057504Y-100665408D01*
X41057509Y-100665410D01*
X41057516Y-100665416D01*
X41333234Y-100816994D01*
X41333239Y-100816996D01*
X41333241Y-100816997D01*
X41333242Y-100816998D01*
X41625771Y-100932818D01*
X41625774Y-100932819D01*
X41878906Y-100997812D01*
X41930527Y-101011066D01*
X41996010Y-101019338D01*
X42242670Y-101050499D01*
X42242679Y-101050499D01*
X42242682Y-101050500D01*
X42242684Y-101050500D01*
X42557316Y-101050500D01*
X42557318Y-101050500D01*
X42557321Y-101050499D01*
X42557329Y-101050499D01*
X42743593Y-101026968D01*
X42869473Y-101011066D01*
X43174225Y-100932819D01*
X43174228Y-100932818D01*
X43466757Y-100816998D01*
X43466758Y-100816997D01*
X43466756Y-100816997D01*
X43466766Y-100816994D01*
X43742484Y-100665416D01*
X43997030Y-100480478D01*
X44226390Y-100265094D01*
X44426947Y-100022663D01*
X44595537Y-99757007D01*
X44729503Y-99472315D01*
X44826731Y-99173079D01*
X44885688Y-98864015D01*
X44888247Y-98823341D01*
X44905444Y-98550005D01*
X44905444Y-98549994D01*
X44885689Y-98235995D01*
X44885688Y-98235988D01*
X44885688Y-98235985D01*
X44826731Y-97926921D01*
X44729503Y-97627685D01*
X44595537Y-97342993D01*
X44426947Y-97077337D01*
X44426945Y-97077334D01*
X44226393Y-96834909D01*
X44226391Y-96834907D01*
X43997029Y-96619521D01*
X43997021Y-96619515D01*
X43742495Y-96434591D01*
X43742488Y-96434586D01*
X43742484Y-96434584D01*
X43466766Y-96283006D01*
X43466763Y-96283004D01*
X43466758Y-96283002D01*
X43466757Y-96283001D01*
X43174228Y-96167181D01*
X43174225Y-96167180D01*
X42869476Y-96088934D01*
X42869463Y-96088932D01*
X42557329Y-96049500D01*
X42557318Y-96049500D01*
X42242682Y-96049500D01*
X42242670Y-96049500D01*
X41930536Y-96088932D01*
X41930523Y-96088934D01*
X41625774Y-96167180D01*
X41625771Y-96167181D01*
X41333242Y-96283001D01*
X41333241Y-96283002D01*
X41057516Y-96434584D01*
X41057504Y-96434591D01*
X40802978Y-96619515D01*
X40802971Y-96619521D01*
X40573608Y-96834907D01*
X40573606Y-96834909D01*
X40373054Y-97077334D01*
X40373051Y-97077338D01*
X40204464Y-97342990D01*
X40204461Y-97342996D01*
X40070499Y-97627678D01*
X40070497Y-97627683D01*
X39973270Y-97926916D01*
X39914311Y-98235988D01*
X39914310Y-98235995D01*
X39894556Y-98549994D01*
X39203700Y-98549994D01*
X39203700Y-97342843D01*
X39223385Y-97275804D01*
X39240014Y-97255167D01*
X41948579Y-94546602D01*
X41948583Y-94546600D01*
X42046600Y-94448583D01*
X42123611Y-94333327D01*
X42160306Y-94244738D01*
X42176658Y-94205262D01*
X42203701Y-94069308D01*
X42203701Y-93930691D01*
X42203701Y-93925581D01*
X42203700Y-93925555D01*
X42203700Y-80075443D01*
X42203701Y-80075422D01*
X42203701Y-79930689D01*
X42176659Y-79794744D01*
X42176658Y-79794743D01*
X42176658Y-79794739D01*
X42125935Y-79672285D01*
X42124292Y-79667694D01*
X42123611Y-79666676D01*
X42123611Y-79666674D01*
X42123611Y-79666673D01*
X42046600Y-79551417D01*
X41948583Y-79453400D01*
X41948582Y-79453399D01*
X41240019Y-78744836D01*
X41206534Y-78683513D01*
X41203700Y-78657155D01*
X41203700Y-77835494D01*
X41223385Y-77768455D01*
X41264822Y-77730021D01*
X41264334Y-77729274D01*
X41268619Y-77726473D01*
X41268626Y-77726470D01*
X41269170Y-77726047D01*
X41330129Y-77678600D01*
X41451784Y-77583913D01*
X41608979Y-77413153D01*
X41735924Y-77218849D01*
X41829157Y-77006300D01*
X41886134Y-76781305D01*
X41886135Y-76781297D01*
X41905300Y-76550006D01*
X41905300Y-76549993D01*
X41886135Y-76318702D01*
X41886133Y-76318691D01*
X41829157Y-76093699D01*
X41735924Y-75881151D01*
X41608983Y-75686852D01*
X41608980Y-75686849D01*
X41608979Y-75686847D01*
X41451784Y-75516087D01*
X41268626Y-75373530D01*
X41268617Y-75373525D01*
X41264329Y-75370723D01*
X41264916Y-75369823D01*
X41219091Y-75324340D01*
X41203700Y-75264506D01*
X41203700Y-74342844D01*
X41223385Y-74275805D01*
X41240019Y-74255163D01*
X41255163Y-74240019D01*
X41316486Y-74206534D01*
X41342844Y-74203700D01*
X44924558Y-74203700D01*
X44924578Y-74203701D01*
X44930692Y-74203701D01*
X45069310Y-74203701D01*
X45160768Y-74185507D01*
X45205262Y-74176657D01*
X45333327Y-74123611D01*
X45367915Y-74100500D01*
X45448583Y-74046600D01*
X45546600Y-73948583D01*
X45546601Y-73948581D01*
X45553667Y-73941515D01*
X45553670Y-73941511D01*
X46948579Y-72546602D01*
X46948583Y-72546600D01*
X47046600Y-72448583D01*
X47123611Y-72333327D01*
X47176657Y-72205262D01*
X47185697Y-72159814D01*
X47195383Y-72111119D01*
X47203700Y-72069311D01*
X47203700Y-49430691D01*
X47195864Y-49391301D01*
X47195864Y-49391298D01*
X47176657Y-49294739D01*
X47176655Y-49294734D01*
X47153917Y-49239840D01*
X47123611Y-49166673D01*
X47094838Y-49123611D01*
X47046600Y-49051417D01*
X47046598Y-49051414D01*
X46945487Y-48950303D01*
X46945456Y-48950274D01*
X45100940Y-47105758D01*
X45100920Y-47105736D01*
X44998585Y-47003401D01*
X44883323Y-46926386D01*
X44755264Y-46873343D01*
X44755256Y-46873341D01*
X44619310Y-46846299D01*
X44619308Y-46846299D01*
X44480692Y-46846299D01*
X44474578Y-46846299D01*
X44474558Y-46846300D01*
X41780261Y-46846300D01*
X41713222Y-46826615D01*
X41676452Y-46790122D01*
X41608981Y-46686850D01*
X41608980Y-46686849D01*
X41608979Y-46686847D01*
X41451784Y-46516087D01*
X41268626Y-46373530D01*
X41268617Y-46373525D01*
X41264329Y-46370723D01*
X41264916Y-46369823D01*
X41219091Y-46324340D01*
X41203700Y-46264506D01*
X41203700Y-44075443D01*
X41203701Y-44075422D01*
X41203701Y-43930689D01*
X41176659Y-43794744D01*
X41176658Y-43794743D01*
X41176658Y-43794739D01*
X41126971Y-43674785D01*
X41123611Y-43666673D01*
X41046600Y-43551417D01*
X40948583Y-43453400D01*
X40948582Y-43453399D01*
X40240019Y-42744836D01*
X40206534Y-42683513D01*
X40203700Y-42657155D01*
X40203700Y-42162373D01*
X40223385Y-42095334D01*
X40276189Y-42049579D01*
X40345347Y-42039635D01*
X40408903Y-42068660D01*
X40423236Y-42083324D01*
X40573610Y-42265094D01*
X40797611Y-42475446D01*
X40802968Y-42480476D01*
X40802978Y-42480484D01*
X41057504Y-42665408D01*
X41057509Y-42665410D01*
X41057516Y-42665416D01*
X41333234Y-42816994D01*
X41333239Y-42816996D01*
X41333241Y-42816997D01*
X41333242Y-42816998D01*
X41625771Y-42932818D01*
X41625774Y-42932819D01*
X41878906Y-42997812D01*
X41930527Y-43011066D01*
X41996010Y-43019338D01*
X42242670Y-43050499D01*
X42242679Y-43050499D01*
X42242682Y-43050500D01*
X42242684Y-43050500D01*
X42557316Y-43050500D01*
X42557318Y-43050500D01*
X42557321Y-43050499D01*
X42557329Y-43050499D01*
X42743593Y-43026968D01*
X42869473Y-43011066D01*
X43174225Y-42932819D01*
X43174228Y-42932818D01*
X43466757Y-42816998D01*
X43466758Y-42816997D01*
X43466756Y-42816997D01*
X43466766Y-42816994D01*
X43742484Y-42665416D01*
X43997030Y-42480478D01*
X44226390Y-42265094D01*
X44426947Y-42022663D01*
X44595537Y-41757007D01*
X44729503Y-41472315D01*
X44826731Y-41173079D01*
X44885688Y-40864015D01*
X44905444Y-40550000D01*
X44885688Y-40235985D01*
X44826731Y-39926921D01*
X44729503Y-39627685D01*
X44595537Y-39342993D01*
X44560414Y-39287648D01*
X44426948Y-39077338D01*
X44426945Y-39077334D01*
X44226393Y-38834909D01*
X44226391Y-38834907D01*
X43997031Y-38619523D01*
X43997021Y-38619515D01*
X43742495Y-38434591D01*
X43742488Y-38434586D01*
X43742484Y-38434584D01*
X43466766Y-38283006D01*
X43466763Y-38283004D01*
X43466758Y-38283002D01*
X43466757Y-38283001D01*
X43174228Y-38167181D01*
X43174225Y-38167180D01*
X42869476Y-38088934D01*
X42869463Y-38088932D01*
X42557329Y-38049500D01*
X42557318Y-38049500D01*
X42242682Y-38049500D01*
X42242670Y-38049500D01*
X41930536Y-38088932D01*
X41930523Y-38088934D01*
X41625774Y-38167180D01*
X41625771Y-38167181D01*
X41333242Y-38283001D01*
X41333241Y-38283002D01*
X41057516Y-38434584D01*
X41057504Y-38434591D01*
X40802978Y-38619515D01*
X40802968Y-38619523D01*
X40573608Y-38834907D01*
X40573606Y-38834909D01*
X40423243Y-39016667D01*
X40365344Y-39055774D01*
X40295492Y-39057370D01*
X40235866Y-39020948D01*
X40205397Y-38958072D01*
X40203700Y-38937626D01*
X40203700Y-30342844D01*
X40223385Y-30275805D01*
X40240019Y-30255163D01*
X41046595Y-29448588D01*
X41046598Y-29448585D01*
X41046598Y-29448584D01*
X41046600Y-29448583D01*
X41094838Y-29376389D01*
X41123611Y-29333327D01*
X41145583Y-29280280D01*
X41176658Y-29205261D01*
X41203701Y-29069308D01*
X41203701Y-28930691D01*
X41203701Y-28925581D01*
X41203700Y-28925555D01*
X41203700Y-19785494D01*
X41223385Y-19718455D01*
X41264822Y-19680021D01*
X41264334Y-19679274D01*
X41268619Y-19676473D01*
X41268626Y-19676470D01*
X41269170Y-19676047D01*
X41330129Y-19628600D01*
X41451784Y-19533913D01*
X41608979Y-19363153D01*
X41735924Y-19168849D01*
X41829157Y-18956300D01*
X41886134Y-18731305D01*
X41886135Y-18731297D01*
X41905300Y-18500006D01*
X41905300Y-18499993D01*
X41886135Y-18268702D01*
X41886133Y-18268691D01*
X41829157Y-18043699D01*
X41735924Y-17831151D01*
X41608983Y-17636852D01*
X41608980Y-17636849D01*
X41608979Y-17636847D01*
X41451784Y-17466087D01*
X41268626Y-17323530D01*
X41268617Y-17323525D01*
X41264329Y-17320723D01*
X41264916Y-17319823D01*
X41219091Y-17274340D01*
X41203700Y-17214506D01*
X41203700Y-16575443D01*
X41203701Y-16575422D01*
X41203701Y-16430689D01*
X41203700Y-16430687D01*
X41176659Y-16294745D01*
X41176658Y-16294738D01*
X41125940Y-16172298D01*
X41124293Y-16167695D01*
X41123611Y-16166674D01*
X41123611Y-16166673D01*
X41046600Y-16051417D01*
X41046598Y-16051414D01*
X40945487Y-15950303D01*
X40945456Y-15950274D01*
X40550940Y-15555758D01*
X40550920Y-15555736D01*
X40448585Y-15453401D01*
X40390955Y-15414894D01*
X40333327Y-15376389D01*
X40333325Y-15376388D01*
X40205265Y-15323344D01*
X40205256Y-15323341D01*
X40205194Y-15323329D01*
X40205194Y-15323328D01*
X40069310Y-15296299D01*
X40069308Y-15296299D01*
X39930692Y-15296299D01*
X39924578Y-15296299D01*
X39924558Y-15296300D01*
X28342845Y-15296300D01*
X28275806Y-15276615D01*
X28255164Y-15259981D01*
X27740019Y-14744836D01*
X27706534Y-14683513D01*
X27703700Y-14657155D01*
X27703700Y-12075443D01*
X27703701Y-12075422D01*
X27703701Y-11930689D01*
X27676659Y-11794744D01*
X27676658Y-11794743D01*
X27676658Y-11794739D01*
X27625935Y-11672285D01*
X27624292Y-11667694D01*
X27623611Y-11666676D01*
X27623611Y-11666674D01*
X27623611Y-11666673D01*
X27546600Y-11551417D01*
X27495177Y-11499994D01*
X31094556Y-11499994D01*
X31094556Y-11500005D01*
X31114310Y-11814004D01*
X31114311Y-11814011D01*
X31116488Y-11825421D01*
X31167656Y-12093657D01*
X31173270Y-12123083D01*
X31270497Y-12422316D01*
X31270499Y-12422321D01*
X31404461Y-12707003D01*
X31404464Y-12707009D01*
X31573051Y-12972661D01*
X31573054Y-12972665D01*
X31773606Y-13215090D01*
X31773608Y-13215092D01*
X31773610Y-13215094D01*
X31865535Y-13301417D01*
X32002968Y-13430476D01*
X32002978Y-13430484D01*
X32257504Y-13615408D01*
X32257509Y-13615410D01*
X32257516Y-13615416D01*
X32533234Y-13766994D01*
X32533239Y-13766996D01*
X32533241Y-13766997D01*
X32533242Y-13766998D01*
X32825771Y-13882818D01*
X32825774Y-13882819D01*
X33062723Y-13943657D01*
X33130527Y-13961066D01*
X33196010Y-13969338D01*
X33442670Y-14000499D01*
X33442679Y-14000499D01*
X33442682Y-14000500D01*
X33442684Y-14000500D01*
X33757316Y-14000500D01*
X33757318Y-14000500D01*
X33757321Y-14000499D01*
X33757329Y-14000499D01*
X33943593Y-13976968D01*
X34069473Y-13961066D01*
X34374225Y-13882819D01*
X34374228Y-13882818D01*
X34666757Y-13766998D01*
X34666758Y-13766997D01*
X34666756Y-13766997D01*
X34666766Y-13766994D01*
X34942484Y-13615416D01*
X35197030Y-13430478D01*
X35426390Y-13215094D01*
X35626947Y-12972663D01*
X35795537Y-12707007D01*
X35929503Y-12422315D01*
X36026731Y-12123079D01*
X36085688Y-11814015D01*
X36085689Y-11814004D01*
X36105444Y-11500005D01*
X36105444Y-11499994D01*
X39894556Y-11499994D01*
X39894556Y-11500005D01*
X39914310Y-11814004D01*
X39914311Y-11814011D01*
X39916488Y-11825421D01*
X39967656Y-12093657D01*
X39973270Y-12123083D01*
X40070497Y-12422316D01*
X40070499Y-12422321D01*
X40204461Y-12707003D01*
X40204464Y-12707009D01*
X40373051Y-12972661D01*
X40373054Y-12972665D01*
X40573606Y-13215090D01*
X40573608Y-13215092D01*
X40573610Y-13215094D01*
X40665535Y-13301417D01*
X40802968Y-13430476D01*
X40802978Y-13430484D01*
X41057504Y-13615408D01*
X41057509Y-13615410D01*
X41057516Y-13615416D01*
X41333234Y-13766994D01*
X41333239Y-13766996D01*
X41333241Y-13766997D01*
X41333242Y-13766998D01*
X41625771Y-13882818D01*
X41625774Y-13882819D01*
X41862723Y-13943657D01*
X41930527Y-13961066D01*
X41996010Y-13969338D01*
X42242670Y-14000499D01*
X42242679Y-14000499D01*
X42242682Y-14000500D01*
X42242684Y-14000500D01*
X42557316Y-14000500D01*
X42557318Y-14000500D01*
X42557321Y-14000499D01*
X42557329Y-14000499D01*
X42743593Y-13976968D01*
X42869473Y-13961066D01*
X43174225Y-13882819D01*
X43174228Y-13882818D01*
X43466757Y-13766998D01*
X43466758Y-13766997D01*
X43466756Y-13766997D01*
X43466766Y-13766994D01*
X43742484Y-13615416D01*
X43997030Y-13430478D01*
X44226390Y-13215094D01*
X44426947Y-12972663D01*
X44595537Y-12707007D01*
X44729503Y-12422315D01*
X44826731Y-12123079D01*
X44885688Y-11814015D01*
X44885689Y-11814004D01*
X44905444Y-11500005D01*
X44905444Y-11499994D01*
X44885689Y-11185995D01*
X44885688Y-11185988D01*
X44885688Y-11185985D01*
X44826731Y-10876921D01*
X44729503Y-10577685D01*
X44595537Y-10292993D01*
X44475903Y-10104479D01*
X44426948Y-10027338D01*
X44426945Y-10027334D01*
X44226393Y-9784909D01*
X44226391Y-9784907D01*
X44219917Y-9778827D01*
X43997030Y-9569522D01*
X43997027Y-9569520D01*
X43997021Y-9569515D01*
X43742495Y-9384591D01*
X43742488Y-9384586D01*
X43742484Y-9384584D01*
X43466766Y-9233006D01*
X43466763Y-9233004D01*
X43466758Y-9233002D01*
X43466757Y-9233001D01*
X43174228Y-9117181D01*
X43174225Y-9117180D01*
X42869476Y-9038934D01*
X42869463Y-9038932D01*
X42557329Y-8999500D01*
X42557318Y-8999500D01*
X42242682Y-8999500D01*
X42242670Y-8999500D01*
X41930536Y-9038932D01*
X41930523Y-9038934D01*
X41625774Y-9117180D01*
X41625771Y-9117181D01*
X41333242Y-9233001D01*
X41333241Y-9233002D01*
X41057516Y-9384584D01*
X41057504Y-9384591D01*
X40802978Y-9569515D01*
X40802968Y-9569523D01*
X40573608Y-9784907D01*
X40573606Y-9784909D01*
X40373054Y-10027334D01*
X40373051Y-10027338D01*
X40204464Y-10292990D01*
X40204461Y-10292996D01*
X40070499Y-10577678D01*
X40070497Y-10577683D01*
X39973270Y-10876916D01*
X39914311Y-11185988D01*
X39914310Y-11185995D01*
X39894556Y-11499994D01*
X36105444Y-11499994D01*
X36085689Y-11185995D01*
X36085688Y-11185988D01*
X36085688Y-11185985D01*
X36026731Y-10876921D01*
X35929503Y-10577685D01*
X35795537Y-10292993D01*
X35675903Y-10104479D01*
X35626948Y-10027338D01*
X35626945Y-10027334D01*
X35426393Y-9784909D01*
X35426391Y-9784907D01*
X35419917Y-9778827D01*
X35197030Y-9569522D01*
X35197027Y-9569520D01*
X35197021Y-9569515D01*
X34942495Y-9384591D01*
X34942488Y-9384586D01*
X34942484Y-9384584D01*
X34666766Y-9233006D01*
X34666763Y-9233004D01*
X34666758Y-9233002D01*
X34666757Y-9233001D01*
X34374228Y-9117181D01*
X34374225Y-9117180D01*
X34069476Y-9038934D01*
X34069463Y-9038932D01*
X33757329Y-8999500D01*
X33757318Y-8999500D01*
X33442682Y-8999500D01*
X33442670Y-8999500D01*
X33130536Y-9038932D01*
X33130523Y-9038934D01*
X32825774Y-9117180D01*
X32825771Y-9117181D01*
X32533242Y-9233001D01*
X32533241Y-9233002D01*
X32257516Y-9384584D01*
X32257504Y-9384591D01*
X32002978Y-9569515D01*
X32002968Y-9569523D01*
X31773608Y-9784907D01*
X31773606Y-9784909D01*
X31573054Y-10027334D01*
X31573051Y-10027338D01*
X31404464Y-10292990D01*
X31404461Y-10292996D01*
X31270499Y-10577678D01*
X31270497Y-10577683D01*
X31173270Y-10876916D01*
X31114311Y-11185988D01*
X31114310Y-11185995D01*
X31094556Y-11499994D01*
X27495177Y-11499994D01*
X27448583Y-11453400D01*
X27448582Y-11453399D01*
X26553669Y-10558487D01*
X26553667Y-10558484D01*
X26553667Y-10558485D01*
X26546600Y-10551418D01*
X26546600Y-10551417D01*
X26448583Y-10453400D01*
X26368643Y-10399986D01*
X26333323Y-10376386D01*
X26205264Y-10323343D01*
X26205256Y-10323341D01*
X26069310Y-10296299D01*
X26069308Y-10296299D01*
X25930692Y-10296299D01*
X25924578Y-10296299D01*
X25924558Y-10296300D01*
X23304094Y-10296300D01*
X23237055Y-10276615D01*
X23191300Y-10223811D01*
X23186388Y-10211305D01*
X23156093Y-10119882D01*
X23134814Y-10055666D01*
X23042712Y-9906344D01*
X22918656Y-9782288D01*
X22918652Y-9782285D01*
X22812603Y-9716873D01*
X22765878Y-9664925D01*
X22753700Y-9611335D01*
X22753700Y-3980689D01*
X22753699Y-3980687D01*
X22743576Y-3929794D01*
X22726657Y-3844738D01*
X22724617Y-3839812D01*
X22673613Y-3716676D01*
X22596598Y-3601414D01*
X22495487Y-3500303D01*
X22495456Y-3500274D01*
X21550940Y-2555758D01*
X21550920Y-2555736D01*
X21448585Y-2453401D01*
X21360676Y-2394663D01*
X21333327Y-2376389D01*
X21333325Y-2376388D01*
X21205265Y-2323344D01*
X21205256Y-2323341D01*
X21205194Y-2323329D01*
X21205194Y-2323328D01*
X21069310Y-2296299D01*
X21069308Y-2296299D01*
X20930692Y-2296299D01*
X20924578Y-2296299D01*
X20924558Y-2296300D01*
X9575443Y-2296300D01*
X9575423Y-2296299D01*
X9569309Y-2296299D01*
X9430692Y-2296299D01*
X9430690Y-2296299D01*
X9294744Y-2323340D01*
X9294738Y-2323342D01*
X9219720Y-2354416D01*
X9166676Y-2376387D01*
X9128598Y-2401830D01*
X9051414Y-2453401D01*
X9051411Y-2453404D01*
X8296753Y-3208064D01*
X8051419Y-3453398D01*
X8051417Y-3453400D01*
X8004543Y-3500274D01*
X7953400Y-3551416D01*
X7876386Y-3666676D01*
X7823343Y-3794735D01*
X7823341Y-3794743D01*
X7796299Y-3930689D01*
X7796299Y-4075421D01*
X7796300Y-4075442D01*
X7796300Y-6157155D01*
X7776615Y-6224194D01*
X7759981Y-6244836D01*
X7244837Y-6759981D01*
X7183514Y-6793466D01*
X7157156Y-6796300D01*
X4954761Y-6796300D01*
X4887722Y-6776615D01*
X4841967Y-6723811D01*
X4832023Y-6654653D01*
X4861048Y-6591097D01*
X4919826Y-6553323D01*
X4922617Y-6552538D01*
X5096100Y-6506054D01*
X5320212Y-6413224D01*
X5530289Y-6291936D01*
X5722738Y-6144265D01*
X5894265Y-5972738D01*
X6041936Y-5780289D01*
X6163224Y-5570212D01*
X6256054Y-5346100D01*
X6318838Y-5111789D01*
X6350500Y-4871288D01*
X6350500Y-4628712D01*
X6318838Y-4388211D01*
X6256054Y-4153900D01*
X6163224Y-3929788D01*
X6041936Y-3719711D01*
X5894265Y-3527262D01*
X5894260Y-3527256D01*
X5722743Y-3355739D01*
X5722736Y-3355733D01*
X5530293Y-3208067D01*
X5530292Y-3208066D01*
X5530289Y-3208064D01*
X5320212Y-3086776D01*
X5320205Y-3086773D01*
X5096104Y-2993947D01*
X4978944Y-2962554D01*
X4861789Y-2931162D01*
X4861788Y-2931161D01*
X4861785Y-2931161D01*
X4621289Y-2899500D01*
X4621288Y-2899500D01*
X4378712Y-2899500D01*
X4378711Y-2899500D01*
X4138214Y-2931161D01*
X3903895Y-2993947D01*
X3679794Y-3086773D01*
X3679785Y-3086777D01*
X3469706Y-3208067D01*
X3277263Y-3355733D01*
X3277256Y-3355739D01*
X3105739Y-3527256D01*
X3105733Y-3527263D01*
X2958067Y-3719706D01*
X2836777Y-3929785D01*
X2836773Y-3929794D01*
X2743947Y-4153895D01*
X2681161Y-4388214D01*
X2649500Y-4628711D01*
X2649500Y-4871288D01*
X2681161Y-5111785D01*
X2743947Y-5346104D01*
X2836773Y-5570205D01*
X2836776Y-5570212D01*
X2958064Y-5780289D01*
X2958066Y-5780292D01*
X2958067Y-5780293D01*
X3105733Y-5972736D01*
X3105739Y-5972743D01*
X3277256Y-6144260D01*
X3277263Y-6144266D01*
X3360997Y-6208517D01*
X3469711Y-6291936D01*
X3679788Y-6413224D01*
X3903900Y-6506054D01*
X4138211Y-6568838D01*
X4264413Y-6585452D01*
X4328308Y-6613718D01*
X4366780Y-6672042D01*
X4367612Y-6741907D01*
X4330540Y-6801131D01*
X4295680Y-6822952D01*
X4294738Y-6823341D01*
X4294738Y-6823342D01*
X4204182Y-6860851D01*
X4204180Y-6860851D01*
X4166678Y-6876386D01*
X4166674Y-6876388D01*
X4166673Y-6876389D01*
X4127740Y-6902402D01*
X4051416Y-6953400D01*
X4004018Y-7000799D01*
X3953400Y-7051417D01*
X3953397Y-7051420D01*
X3744837Y-7259981D01*
X3683514Y-7293466D01*
X3657156Y-7296300D01*
X3075443Y-7296300D01*
X3075423Y-7296299D01*
X3069309Y-7296299D01*
X2930692Y-7296299D01*
X2930689Y-7296299D01*
X2794745Y-7323339D01*
X2794736Y-7323342D01*
X2704180Y-7360852D01*
X2666678Y-7376386D01*
X2666674Y-7376388D01*
X2666673Y-7376389D01*
X2627740Y-7402402D01*
X2551416Y-7453400D01*
X2502408Y-7502408D01*
X2453400Y-7551417D01*
X2453397Y-7551420D01*
X2051420Y-7953397D01*
X2051417Y-7953400D01*
X2014874Y-7989943D01*
X1953400Y-8051416D01*
X1905162Y-8123611D01*
X1876387Y-8166675D01*
X1823343Y-8294735D01*
X1823341Y-8294743D01*
X1796299Y-8430689D01*
X1796299Y-8575421D01*
X1796300Y-8575442D01*
X1796300Y-49239840D01*
X1776615Y-49306879D01*
X1723811Y-49352634D01*
X1719758Y-49354399D01*
X1714880Y-49356419D01*
X1704182Y-49360851D01*
X1666678Y-49376386D01*
X1666674Y-49376388D01*
X1666673Y-49376389D01*
X1627740Y-49402402D01*
X1551416Y-49453400D01*
X1521880Y-49482937D01*
X1453400Y-49551417D01*
X1453397Y-49551420D01*
X1051420Y-49953397D01*
X1051417Y-49953400D01*
X1012300Y-49992517D01*
X953400Y-50051416D01*
X905162Y-50123611D01*
X876387Y-50166675D01*
X823343Y-50294735D01*
X823341Y-50294743D01*
X796299Y-50430689D01*
X500500Y-50430689D01*
X500500Y-3003750D01*
X500726Y-2996263D01*
X518271Y-2706205D01*
X520076Y-2691340D01*
X544923Y-2555758D01*
X571780Y-2409197D01*
X575364Y-2394663D01*
X660696Y-2120822D01*
X665998Y-2106841D01*
X783731Y-1845249D01*
X790676Y-1832016D01*
X939080Y-1586526D01*
X947567Y-1574230D01*
X1124480Y-1348417D01*
X1134395Y-1337226D01*
X1337226Y-1134395D01*
X1348417Y-1124480D01*
X1574230Y-947567D01*
X1586526Y-939080D01*
X1832016Y-790676D01*
X1845249Y-783731D01*
X2106841Y-665998D01*
X2120822Y-660696D01*
X2394668Y-575362D01*
X2409197Y-571780D01*
X2691344Y-520075D01*
X2706201Y-518271D01*
X2996264Y-500726D01*
X3003751Y-500500D01*
X3065892Y-500500D01*
X46934108Y-500500D01*
X46996249Y-500500D01*
X47003736Y-500726D01*
G37*
%TD.AperFunction*%
%TD*%
M02*
