%TF.GenerationSoftware,KiCad,Pcbnew,8.0.2*%
%TF.CreationDate,2024-08-18T23:54:18+02:00*%
%TF.ProjectId,FX-Pots,46582d50-6f74-4732-9e6b-696361645f70,rev?*%
%TF.SameCoordinates,PX58b1140PY592b260*%
%TF.FileFunction,Copper,L2,Bot*%
%TF.FilePolarity,Positive*%
%FSLAX46Y46*%
G04 Gerber Fmt 4.6, Leading zero omitted, Abs format (unit mm)*
G04 Created by KiCad (PCBNEW 8.0.2) date 2024-08-18 23:54:18*
%MOMM*%
%LPD*%
G01*
G04 APERTURE LIST*
G04 Aperture macros list*
%AMRoundRect*
0 Rectangle with rounded corners*
0 $1 Rounding radius*
0 $2 $3 $4 $5 $6 $7 $8 $9 X,Y pos of 4 corners*
0 Add a 4 corners polygon primitive as box body*
4,1,4,$2,$3,$4,$5,$6,$7,$8,$9,$2,$3,0*
0 Add four circle primitives for the rounded corners*
1,1,$1+$1,$2,$3*
1,1,$1+$1,$4,$5*
1,1,$1+$1,$6,$7*
1,1,$1+$1,$8,$9*
0 Add four rect primitives between the rounded corners*
20,1,$1+$1,$2,$3,$4,$5,0*
20,1,$1+$1,$4,$5,$6,$7,0*
20,1,$1+$1,$6,$7,$8,$9,0*
20,1,$1+$1,$8,$9,$2,$3,0*%
G04 Aperture macros list end*
%TA.AperFunction,ComponentPad*%
%ADD10C,2.000000*%
%TD*%
%TA.AperFunction,WasherPad*%
%ADD11C,4.000000*%
%TD*%
%TA.AperFunction,ComponentPad*%
%ADD12C,1.800000*%
%TD*%
%TA.AperFunction,ComponentPad*%
%ADD13R,1.700000X1.700000*%
%TD*%
%TA.AperFunction,ComponentPad*%
%ADD14O,1.700000X1.700000*%
%TD*%
%TA.AperFunction,SMDPad,CuDef*%
%ADD15RoundRect,0.250000X0.650000X-0.412500X0.650000X0.412500X-0.650000X0.412500X-0.650000X-0.412500X0*%
%TD*%
%TA.AperFunction,SMDPad,CuDef*%
%ADD16RoundRect,0.250000X0.625000X-0.400000X0.625000X0.400000X-0.625000X0.400000X-0.625000X-0.400000X0*%
%TD*%
%TA.AperFunction,SMDPad,CuDef*%
%ADD17RoundRect,0.250000X-0.400000X-0.625000X0.400000X-0.625000X0.400000X0.625000X-0.400000X0.625000X0*%
%TD*%
%TA.AperFunction,SMDPad,CuDef*%
%ADD18RoundRect,0.250000X0.400000X0.625000X-0.400000X0.625000X-0.400000X-0.625000X0.400000X-0.625000X0*%
%TD*%
%TA.AperFunction,SMDPad,CuDef*%
%ADD19RoundRect,0.150000X-0.150000X0.875000X-0.150000X-0.875000X0.150000X-0.875000X0.150000X0.875000X0*%
%TD*%
%TA.AperFunction,SMDPad,CuDef*%
%ADD20RoundRect,0.150000X0.825000X0.150000X-0.825000X0.150000X-0.825000X-0.150000X0.825000X-0.150000X0*%
%TD*%
%TA.AperFunction,ViaPad*%
%ADD21C,0.600000*%
%TD*%
%TA.AperFunction,Conductor*%
%ADD22C,0.406400*%
%TD*%
G04 APERTURE END LIST*
D10*
%TO.P,SW1,1,1*%
%TO.N,GND*%
X-15250000Y44750000D03*
X-8750000Y44750000D03*
%TO.P,SW1,2,2*%
%TO.N,FXSW1*%
X-15250000Y40250000D03*
X-8750000Y40250000D03*
%TO.P,SW1,3,K*%
%TO.N,Net-(SW1-K)*%
X-12000000Y45600000D03*
%TO.P,SW1,4,A*%
%TO.N,FX-LED-1*%
X-12000000Y39400000D03*
%TD*%
D11*
%TO.P,RV3,*%
%TO.N,*%
X8600000Y-15550000D03*
X17400000Y-15550000D03*
D12*
%TO.P,RV3,1,1*%
%TO.N,+5V*%
X15500000Y-22550000D03*
%TO.P,RV3,2,2*%
%TO.N,POT3*%
X13000000Y-22550000D03*
%TO.P,RV3,3,3*%
%TO.N,GND*%
X10500000Y-22550000D03*
%TD*%
D13*
%TO.P,J1,1,Pin_1*%
%TO.N,MPLEX-S0*%
X19525000Y3050000D03*
D14*
%TO.P,J1,2,Pin_2*%
%TO.N,MPLEX-S1*%
X19525000Y510000D03*
%TO.P,J1,3,Pin_3*%
%TO.N,MPLEX-AP*%
X19525000Y-2030000D03*
%TO.P,J1,4,Pin_4*%
%TO.N,MPLEX-S2*%
X19525000Y-4570000D03*
%TO.P,J1,5,Pin_5*%
%TO.N,MPLEX-S3*%
X19525000Y-7110000D03*
%TD*%
D11*
%TO.P,RV4,*%
%TO.N,*%
X8600000Y-44550000D03*
X17400000Y-44550000D03*
D12*
%TO.P,RV4,1,1*%
%TO.N,+5V*%
X15500000Y-51550000D03*
%TO.P,RV4,2,2*%
%TO.N,POT4*%
X13000000Y-51550000D03*
%TO.P,RV4,3,3*%
%TO.N,GND*%
X10500000Y-51550000D03*
%TD*%
D13*
%TO.P,J2,1,Pin_1*%
%TO.N,GND*%
X-21525000Y-7825000D03*
D14*
%TO.P,J2,2,Pin_2*%
%TO.N,+5V*%
X-21525000Y-5285000D03*
%TO.P,J2,3,Pin_3*%
%TO.N,SRCLK*%
X-21525000Y-2745000D03*
%TO.P,J2,4,Pin_4*%
%TO.N,FX-LED-LATCH*%
X-21525000Y-205000D03*
%TO.P,J2,5,Pin_5*%
%TO.N,FX-LED-SIG*%
X-21525000Y2335000D03*
%TD*%
D11*
%TO.P,RV1,*%
%TO.N,*%
X8600000Y42500000D03*
X17400000Y42500000D03*
D12*
%TO.P,RV1,1,1*%
%TO.N,+5V*%
X15500000Y35500000D03*
%TO.P,RV1,2,2*%
%TO.N,POT1*%
X13000000Y35500000D03*
%TO.P,RV1,3,3*%
%TO.N,GND*%
X10500000Y35500000D03*
%TD*%
D10*
%TO.P,SW2,1,1*%
%TO.N,GND*%
X-15250000Y15750000D03*
X-8750000Y15750000D03*
%TO.P,SW2,2,2*%
%TO.N,FXSW2*%
X-15250000Y11250000D03*
X-8750000Y11250000D03*
%TO.P,SW2,3,K*%
%TO.N,Net-(SW2-K)*%
X-12000000Y16600000D03*
%TO.P,SW2,4,A*%
%TO.N,FX-LED-2*%
X-12000000Y10400000D03*
%TD*%
%TO.P,SW3,1,1*%
%TO.N,GND*%
X-15250000Y-13250000D03*
X-8750000Y-13250000D03*
%TO.P,SW3,2,2*%
%TO.N,FXSW3*%
X-15250000Y-17750000D03*
X-8750000Y-17750000D03*
%TO.P,SW3,3,K*%
%TO.N,Net-(SW3-K)*%
X-12000000Y-12400000D03*
%TO.P,SW3,4,A*%
%TO.N,FX-LED-3*%
X-12000000Y-18600000D03*
%TD*%
D11*
%TO.P,RV2,*%
%TO.N,*%
X8600000Y13450000D03*
X17400000Y13450000D03*
D12*
%TO.P,RV2,1,1*%
%TO.N,+5V*%
X15500000Y6450000D03*
%TO.P,RV2,2,2*%
%TO.N,POT2*%
X13000000Y6450000D03*
%TO.P,RV2,3,3*%
%TO.N,GND*%
X10500000Y6450000D03*
%TD*%
D10*
%TO.P,SW4,1,1*%
%TO.N,GND*%
X-15250000Y-42250000D03*
X-8750000Y-42250000D03*
%TO.P,SW4,2,2*%
%TO.N,FXSW4*%
X-15250000Y-46750000D03*
X-8750000Y-46750000D03*
%TO.P,SW4,3,K*%
%TO.N,Net-(SW4-K)*%
X-12000000Y-41400000D03*
%TO.P,SW4,4,A*%
%TO.N,FX-LED-4*%
X-12000000Y-47600000D03*
%TD*%
D15*
%TO.P,C2,1*%
%TO.N,FXSW2*%
X-19000000Y11937500D03*
%TO.P,C2,2*%
%TO.N,GND*%
X-19000000Y15062500D03*
%TD*%
%TO.P,C3,1*%
%TO.N,FXSW3*%
X-19000000Y-17062500D03*
%TO.P,C3,2*%
%TO.N,GND*%
X-19000000Y-13937500D03*
%TD*%
%TO.P,C1,1*%
%TO.N,FXSW1*%
X-18500000Y40937500D03*
%TO.P,C1,2*%
%TO.N,GND*%
X-18500000Y44062500D03*
%TD*%
D16*
%TO.P,R3,1*%
%TO.N,GND*%
X-5500000Y-15550000D03*
%TO.P,R3,2*%
%TO.N,Net-(SW3-K)*%
X-5500000Y-12450000D03*
%TD*%
D17*
%TO.P,R6,1*%
%TO.N,+5V*%
X-11550000Y7000000D03*
%TO.P,R6,2*%
%TO.N,FXSW2*%
X-8450000Y7000000D03*
%TD*%
%TO.P,R7,1*%
%TO.N,+5V*%
X-21050000Y-20000000D03*
%TO.P,R7,2*%
%TO.N,FXSW3*%
X-17950000Y-20000000D03*
%TD*%
D18*
%TO.P,R5,1*%
%TO.N,+5V*%
X-2950000Y43000000D03*
%TO.P,R5,2*%
%TO.N,FXSW1*%
X-6050000Y43000000D03*
%TD*%
D19*
%TO.P,U2,1,COM*%
%TO.N,MPLEX-AP*%
X-5485000Y1650000D03*
%TO.P,U2,2,I7*%
%TO.N,unconnected-(U2-I7-Pad2)*%
X-4215000Y1650000D03*
%TO.P,U2,3,I6*%
%TO.N,unconnected-(U2-I6-Pad3)*%
X-2945000Y1650000D03*
%TO.P,U2,4,I5*%
%TO.N,unconnected-(U2-I5-Pad4)*%
X-1675000Y1650000D03*
%TO.P,U2,5,I4*%
%TO.N,FXSW2*%
X-405000Y1650000D03*
%TO.P,U2,6,I3*%
%TO.N,FXSW1*%
X865000Y1650000D03*
%TO.P,U2,7,I2*%
%TO.N,POT1*%
X2135000Y1650000D03*
%TO.P,U2,8,I1*%
%TO.N,POT2*%
X3405000Y1650000D03*
%TO.P,U2,9,I0*%
%TO.N,unconnected-(U2-I0-Pad9)*%
X4675000Y1650000D03*
%TO.P,U2,10,S0*%
%TO.N,MPLEX-S0*%
X5945000Y1650000D03*
%TO.P,U2,11,S1*%
%TO.N,MPLEX-S1*%
X7215000Y1650000D03*
%TO.P,U2,12,GND*%
%TO.N,GND*%
X8485000Y1650000D03*
%TO.P,U2,13,S3*%
%TO.N,MPLEX-S3*%
X8485000Y-7650000D03*
%TO.P,U2,14,S2*%
%TO.N,MPLEX-S2*%
X7215000Y-7650000D03*
%TO.P,U2,15,~{E}*%
%TO.N,GND*%
X5945000Y-7650000D03*
%TO.P,U2,16,I15*%
%TO.N,unconnected-(U2-I15-Pad16)*%
X4675000Y-7650000D03*
%TO.P,U2,17,I14*%
%TO.N,POT3*%
X3405000Y-7650000D03*
%TO.P,U2,18,I13*%
%TO.N,POT4*%
X2135000Y-7650000D03*
%TO.P,U2,19,I12*%
%TO.N,FXSW4*%
X865000Y-7650000D03*
%TO.P,U2,20,I11*%
%TO.N,FXSW3*%
X-405000Y-7650000D03*
%TO.P,U2,21,I10*%
%TO.N,unconnected-(U2-I10-Pad21)*%
X-1675000Y-7650000D03*
%TO.P,U2,22,I9*%
%TO.N,unconnected-(U2-I9-Pad22)*%
X-2945000Y-7650000D03*
%TO.P,U2,23,I8*%
%TO.N,unconnected-(U2-I8-Pad23)*%
X-4215000Y-7650000D03*
%TO.P,U2,24,VCC*%
%TO.N,+5V*%
X-5485000Y-7650000D03*
%TD*%
D18*
%TO.P,R2,1*%
%TO.N,GND*%
X-8450000Y20000000D03*
%TO.P,R2,2*%
%TO.N,Net-(SW2-K)*%
X-11550000Y20000000D03*
%TD*%
%TO.P,R8,1*%
%TO.N,+5V*%
X-15950000Y-38000000D03*
%TO.P,R8,2*%
%TO.N,FXSW4*%
X-19050000Y-38000000D03*
%TD*%
D20*
%TO.P,U1,1,QB*%
%TO.N,unconnected-(U1-QB-Pad1)*%
X-12025000Y2945000D03*
%TO.P,U1,2,QC*%
%TO.N,FX-LED-1*%
X-12025000Y1675000D03*
%TO.P,U1,3,QD*%
%TO.N,FX-LED-2*%
X-12025000Y405000D03*
%TO.P,U1,4,QE*%
%TO.N,FX-LED-3*%
X-12025000Y-865000D03*
%TO.P,U1,5,QF*%
%TO.N,FX-LED-4*%
X-12025000Y-2135000D03*
%TO.P,U1,6,QG*%
%TO.N,unconnected-(U1-QG-Pad6)*%
X-12025000Y-3405000D03*
%TO.P,U1,7,QH*%
%TO.N,unconnected-(U1-QH-Pad7)*%
X-12025000Y-4675000D03*
%TO.P,U1,8,GND*%
%TO.N,GND*%
X-12025000Y-5945000D03*
%TO.P,U1,9,QH'*%
%TO.N,unconnected-(U1-QH'-Pad9)*%
X-16975000Y-5945000D03*
%TO.P,U1,10,~{SRCLR}*%
%TO.N,+5V*%
X-16975000Y-4675000D03*
%TO.P,U1,11,SRCLK*%
%TO.N,SRCLK*%
X-16975000Y-3405000D03*
%TO.P,U1,12,RCLK*%
%TO.N,FX-LED-LATCH*%
X-16975000Y-2135000D03*
%TO.P,U1,13,~{OE}*%
%TO.N,GND*%
X-16975000Y-865000D03*
%TO.P,U1,14,SER*%
%TO.N,FX-LED-SIG*%
X-16975000Y405000D03*
%TO.P,U1,15,QA*%
%TO.N,unconnected-(U1-QA-Pad15)*%
X-16975000Y1675000D03*
%TO.P,U1,16,VCC*%
%TO.N,+5V*%
X-16975000Y2945000D03*
%TD*%
D18*
%TO.P,R1,1*%
%TO.N,GND*%
X-8950000Y49000000D03*
%TO.P,R1,2*%
%TO.N,Net-(SW1-K)*%
X-12050000Y49000000D03*
%TD*%
%TO.P,R4,1*%
%TO.N,GND*%
X-7950000Y-38000000D03*
%TO.P,R4,2*%
%TO.N,Net-(SW4-K)*%
X-11050000Y-38000000D03*
%TD*%
D15*
%TO.P,C4,1*%
%TO.N,FXSW4*%
X-19000000Y-44562500D03*
%TO.P,C4,2*%
%TO.N,GND*%
X-19000000Y-41437500D03*
%TD*%
D21*
%TO.N,GND*%
X13500000Y1500000D03*
X-9000000Y-6000000D03*
X14000000Y-9500000D03*
%TO.N,FX-LED-3*%
X-7500000Y-21500000D03*
X-8000000Y-3500000D03*
%TO.N,FX-LED-4*%
X-6000000Y-50000000D03*
X-9500000Y-2500000D03*
%TD*%
D22*
%TO.N,MPLEX-S3*%
X17500000Y-6500000D02*
X18110000Y-7110000D01*
X18110000Y-7110000D02*
X19525000Y-7110000D01*
X11000000Y-6500000D02*
X17500000Y-6500000D01*
X10000000Y-5500000D02*
X11000000Y-6500000D01*
X8485000Y-7650000D02*
X8485000Y-6015000D01*
X8485000Y-6015000D02*
X9000000Y-5500000D01*
X9000000Y-5500000D02*
X10000000Y-5500000D01*
%TO.N,MPLEX-S0*%
X5945000Y2945000D02*
X5945000Y1650000D01*
X6500000Y3500000D02*
X5945000Y2945000D01*
X19525000Y3050000D02*
X15450000Y3050000D01*
X15000000Y3500000D02*
X6500000Y3500000D01*
X15450000Y3050000D02*
X15000000Y3500000D01*
%TO.N,MPLEX-S2*%
X7215000Y-5285000D02*
X7215000Y-7650000D01*
X19525000Y-4570000D02*
X7930000Y-4570000D01*
X7930000Y-4570000D02*
X7215000Y-5285000D01*
%TO.N,MPLEX-S1*%
X7500000Y-500000D02*
X16500000Y-500000D01*
X7215000Y-215000D02*
X7500000Y-500000D01*
X17510000Y510000D02*
X19525000Y510000D01*
X7215000Y1650000D02*
X7215000Y-215000D01*
X16500000Y-500000D02*
X17510000Y510000D01*
%TO.N,GND*%
X8485000Y1650000D02*
X13350000Y1650000D01*
X6500000Y-9500000D02*
X14000000Y-9500000D01*
X-12999999Y-5945000D02*
X-14500000Y-4444999D01*
X-14500000Y-1500000D02*
X-15135000Y-865000D01*
X5945000Y-8945000D02*
X6500000Y-9500000D01*
X5945000Y-7650000D02*
X5945000Y-8945000D01*
X-12025000Y-5945000D02*
X-9055000Y-5945000D01*
X13350000Y1650000D02*
X13500000Y1500000D01*
X-12025000Y-5945000D02*
X-12999999Y-5945000D01*
X-15135000Y-865000D02*
X-16975000Y-865000D01*
X-14500000Y-4444999D02*
X-14500000Y-1500000D01*
X-9055000Y-5945000D02*
X-9000000Y-6000000D01*
%TO.N,MPLEX-AP*%
X-4470000Y-2030000D02*
X19525000Y-2030000D01*
X-5500000Y-1000000D02*
X-4470000Y-2030000D01*
X-5485000Y625001D02*
X-5500000Y610001D01*
X-5500000Y610001D02*
X-5500000Y-1000000D01*
X-5485000Y1650000D02*
X-5485000Y625001D01*
%TO.N,+5V*%
X-19175000Y-4675000D02*
X-19785000Y-5285000D01*
X15500000Y35500000D02*
X15500000Y37500000D01*
X-4000000Y51000000D02*
X-2950000Y49950000D01*
X-23500000Y-10000000D02*
X-21050000Y-12450000D01*
X-21525000Y-5285000D02*
X-22785000Y-5285000D01*
X-15500000Y-5653974D02*
X-16478974Y-4675000D01*
X-21050000Y-20000000D02*
X-21050000Y-34950000D01*
X-23000000Y4000000D02*
X-23500000Y3500000D01*
X14500000Y24000000D02*
X15500000Y25000000D01*
X-17500000Y46500000D02*
X-16500000Y47500000D01*
X-22500000Y45500000D02*
X-22000000Y46000000D01*
X14500000Y11000000D02*
X14500000Y24000000D01*
X15500000Y-20000000D02*
X16000000Y-19500000D01*
X3000000Y38000000D02*
X2000000Y39000000D01*
X-23500000Y-6000000D02*
X-23500000Y-10000000D01*
X15500000Y-49500000D02*
X13500000Y-47500000D01*
X2000000Y42000000D02*
X1000000Y43000000D01*
X-23500000Y3500000D02*
X-23500000Y-3310000D01*
X21500000Y-18000000D02*
X21500000Y4500000D01*
X-17000000Y-35500000D02*
X-15950000Y-36550000D01*
X-20500000Y-35500000D02*
X-17000000Y-35500000D01*
X-21050000Y-34950000D02*
X-20500000Y-35500000D01*
X-14350000Y-7650000D02*
X-15500000Y-6500000D01*
X15500000Y6450000D02*
X15500000Y10000000D01*
X-22000000Y46000000D02*
X-21000000Y46000000D01*
X-23500000Y-3310000D02*
X-21525000Y-5285000D01*
X-16500000Y50000000D02*
X-15500000Y51000000D01*
X20000000Y-19500000D02*
X21500000Y-18000000D01*
X2000000Y39000000D02*
X2000000Y42000000D01*
X21500000Y4500000D02*
X19550000Y6450000D01*
X-11550000Y7000000D02*
X-6191400Y1641400D01*
X-6191400Y-6943600D02*
X-5485000Y-7650000D01*
X13500000Y-43000000D02*
X16500000Y-40000000D01*
X15500000Y-22550000D02*
X15500000Y-20000000D01*
X-21000000Y46000000D02*
X-20500000Y46500000D01*
X-15500000Y-6500000D02*
X-15500000Y-5653974D01*
X15500000Y25000000D02*
X15500000Y35500000D01*
X19550000Y6450000D02*
X15500000Y6450000D01*
X15500000Y-51550000D02*
X15500000Y-49500000D01*
X15000000Y38000000D02*
X3000000Y38000000D01*
X-6191400Y1641400D02*
X-6191400Y-6943600D01*
X-15950000Y-36550000D02*
X-15950000Y-38000000D01*
X-16500000Y47500000D02*
X-16500000Y50000000D01*
X16500000Y-40000000D02*
X16500000Y-26000000D01*
X-2950000Y49950000D02*
X-2950000Y43000000D01*
X-16975000Y-4675000D02*
X-19175000Y-4675000D01*
X16500000Y-26000000D02*
X15500000Y-25000000D01*
X-19500000Y4000000D02*
X-22500000Y4000000D01*
X15500000Y37500000D02*
X15000000Y38000000D01*
X-19785000Y-5285000D02*
X-21525000Y-5285000D01*
X-22500000Y4000000D02*
X-23000000Y4000000D01*
X-15500000Y51000000D02*
X-4000000Y51000000D01*
X1000000Y43000000D02*
X-2950000Y43000000D01*
X-5485000Y-7650000D02*
X-14350000Y-7650000D01*
X-21050000Y-12450000D02*
X-21050000Y-20000000D01*
X-22500000Y4000000D02*
X-22500000Y45500000D01*
X-16478974Y-4675000D02*
X-16975000Y-4675000D01*
X16000000Y-19500000D02*
X20000000Y-19500000D01*
X13500000Y-47500000D02*
X13500000Y-43000000D01*
X15500000Y10000000D02*
X14500000Y11000000D01*
X-16975000Y2945000D02*
X-18445000Y2945000D01*
X-18445000Y2945000D02*
X-19500000Y4000000D01*
X-20500000Y46500000D02*
X-17500000Y46500000D01*
X15500000Y-25000000D02*
X15500000Y-22550000D01*
X-22785000Y-5285000D02*
X-23500000Y-6000000D01*
%TO.N,POT1*%
X12500000Y33000000D02*
X10500000Y33000000D01*
X3000000Y33000000D02*
X10500000Y33000000D01*
X13000000Y33500000D02*
X12500000Y33000000D01*
X2135000Y1650000D02*
X2135000Y32135000D01*
X2135000Y32135000D02*
X3000000Y33000000D01*
X13000000Y35500000D02*
X13000000Y33500000D01*
%TO.N,POT2*%
X13000000Y5000000D02*
X13000000Y6450000D01*
X3405000Y1650000D02*
X3405000Y3905000D01*
X4000000Y4500000D02*
X12500000Y4500000D01*
X12500000Y4500000D02*
X13000000Y5000000D01*
X3405000Y3905000D02*
X4000000Y4500000D01*
%TO.N,POT3*%
X4000000Y-11000000D02*
X3405000Y-10405000D01*
X13000000Y-11500000D02*
X12500000Y-11000000D01*
X3405000Y-10405000D02*
X3405000Y-7650000D01*
X13000000Y-22550000D02*
X13000000Y-11500000D01*
X12500000Y-11000000D02*
X4000000Y-11000000D01*
%TO.N,POT4*%
X12500000Y-49000000D02*
X13000000Y-49500000D01*
X2500000Y-49000000D02*
X12500000Y-49000000D01*
X13000000Y-49500000D02*
X13000000Y-51550000D01*
X2135000Y-7650000D02*
X2135000Y-48635000D01*
X2135000Y-48635000D02*
X2500000Y-49000000D01*
%TO.N,FXSW1*%
X-15250000Y40250000D02*
X-14250000Y41250000D01*
X865000Y1650000D02*
X865000Y39635000D01*
X-15937500Y40937500D02*
X-15250000Y40250000D01*
X-18500000Y40937500D02*
X-15937500Y40937500D01*
X-8000000Y43000000D02*
X-6050000Y43000000D01*
X-14250000Y41250000D02*
X-9750000Y41250000D01*
X250000Y40250000D02*
X-8750000Y40250000D01*
X-8750000Y42250000D02*
X-8000000Y43000000D01*
X865000Y39635000D02*
X250000Y40250000D01*
X-9750000Y41250000D02*
X-8750000Y40250000D01*
X-8750000Y40250000D02*
X-8750000Y42250000D01*
%TO.N,FXSW2*%
X-14250000Y12250000D02*
X-9750000Y12250000D01*
X-405000Y10405000D02*
X-1250000Y11250000D01*
X-9750000Y12250000D02*
X-8750000Y11250000D01*
X-405000Y1650000D02*
X-405000Y10405000D01*
X-15937500Y11937500D02*
X-15250000Y11250000D01*
X-15250000Y11250000D02*
X-14250000Y12250000D01*
X-1250000Y11250000D02*
X-8750000Y11250000D01*
X-19000000Y11937500D02*
X-15937500Y11937500D01*
X-8450000Y10950000D02*
X-8750000Y11250000D01*
X-8450000Y7000000D02*
X-8450000Y10950000D01*
%TO.N,FXSW3*%
X-9750000Y-16750000D02*
X-8750000Y-17750000D01*
X-16000000Y-20000000D02*
X-15250000Y-19250000D01*
X-405000Y-16905000D02*
X-1250000Y-17750000D01*
X-1250000Y-17750000D02*
X-8750000Y-17750000D01*
X-15250000Y-19250000D02*
X-15250000Y-17750000D01*
X-17950000Y-20000000D02*
X-16000000Y-20000000D01*
X-14250000Y-16750000D02*
X-9750000Y-16750000D01*
X-19000000Y-17500000D02*
X-17950000Y-18550000D01*
X-19000000Y-17062500D02*
X-19000000Y-17500000D01*
X-15250000Y-17750000D02*
X-14250000Y-16750000D01*
X-405000Y-7650000D02*
X-405000Y-16905000D01*
X-17950000Y-18550000D02*
X-17950000Y-20000000D01*
%TO.N,FXSW4*%
X-20500000Y-38000000D02*
X-19050000Y-38000000D01*
X-19000000Y-44562500D02*
X-15937500Y-44562500D01*
X-20437500Y-44562500D02*
X-21000000Y-44000000D01*
X250000Y-46750000D02*
X-8750000Y-46750000D01*
X-15937500Y-44562500D02*
X-15250000Y-45250000D01*
X-14000000Y-45500000D02*
X-10000000Y-45500000D01*
X865000Y-46135000D02*
X250000Y-46750000D01*
X-15250000Y-46750000D02*
X-14000000Y-45500000D01*
X-21000000Y-44000000D02*
X-21000000Y-38500000D01*
X-19000000Y-44562500D02*
X-20437500Y-44562500D01*
X-10000000Y-45500000D02*
X-8750000Y-46750000D01*
X865000Y-7650000D02*
X865000Y-46135000D01*
X-15250000Y-45250000D02*
X-15250000Y-46750000D01*
X-21000000Y-38500000D02*
X-20500000Y-38000000D01*
%TO.N,SRCLK*%
X-16975000Y-3405000D02*
X-18595000Y-3405000D01*
X-18595000Y-3405000D02*
X-19255000Y-2745000D01*
X-19255000Y-2745000D02*
X-21525000Y-2745000D01*
%TO.N,FX-LED-SIG*%
X-19000000Y1000000D02*
X-19000000Y1500000D01*
X-18405000Y405000D02*
X-19000000Y1000000D01*
X-16975000Y405000D02*
X-18405000Y405000D01*
X-19835000Y2335000D02*
X-21525000Y2335000D01*
X-19000000Y1500000D02*
X-19835000Y2335000D01*
%TO.N,FX-LED-LATCH*%
X-16975000Y-2135000D02*
X-18365000Y-2135000D01*
X-18365000Y-2135000D02*
X-19000000Y-1500000D01*
X-19795000Y-205000D02*
X-21525000Y-205000D01*
X-19000000Y-1500000D02*
X-19000000Y-1000000D01*
X-19000000Y-1000000D02*
X-19795000Y-205000D01*
%TO.N,Net-(SW1-K)*%
X-12000000Y48950000D02*
X-12050000Y49000000D01*
X-12000000Y45600000D02*
X-12000000Y48950000D01*
%TO.N,Net-(SW2-K)*%
X-11550000Y20000000D02*
X-11550000Y17050000D01*
X-11550000Y17050000D02*
X-12000000Y16600000D01*
%TO.N,Net-(SW3-K)*%
X-5500000Y-11000000D02*
X-6000000Y-10500000D01*
X-12000000Y-12400000D02*
X-10100000Y-10500000D01*
X-10100000Y-10500000D02*
X-6000000Y-10500000D01*
X-5500000Y-12450000D02*
X-5500000Y-11000000D01*
%TO.N,Net-(SW4-K)*%
X-11050000Y-38000000D02*
X-11050000Y-40450000D01*
X-11050000Y-40450000D02*
X-12000000Y-41400000D01*
%TO.N,FX-LED-1*%
X-14175000Y1675000D02*
X-12025000Y1675000D01*
X-12000000Y38000000D02*
X-12500000Y37500000D01*
X-14500000Y2000000D02*
X-14175000Y1675000D01*
X-21000000Y5500000D02*
X-15500000Y5500000D01*
X-12000000Y39400000D02*
X-12000000Y38000000D01*
X-14500000Y4500000D02*
X-14500000Y2000000D01*
X-12500000Y37500000D02*
X-21000000Y37500000D01*
X-15500000Y5500000D02*
X-14500000Y4500000D01*
X-21500000Y6000000D02*
X-21000000Y5500000D01*
X-21500000Y37000000D02*
X-21500000Y6000000D01*
X-21000000Y37500000D02*
X-21500000Y37000000D01*
%TO.N,FX-LED-2*%
X-13500000Y8900000D02*
X-13500000Y5500000D01*
X-10500000Y4500000D02*
X-10000000Y4000000D01*
X-10000000Y1500000D02*
X-11095000Y405000D01*
X-13500000Y5500000D02*
X-12500000Y4500000D01*
X-12500000Y4500000D02*
X-10500000Y4500000D01*
X-12000000Y10400000D02*
X-13500000Y8900000D01*
X-11095000Y405000D02*
X-12025000Y405000D01*
X-10000000Y4000000D02*
X-10000000Y1500000D01*
%TO.N,FX-LED-3*%
X-12000000Y-21000000D02*
X-12000000Y-18600000D01*
X-8500000Y-1000000D02*
X-8000000Y-1500000D01*
X-8000000Y-1500000D02*
X-8000000Y-3500000D01*
X-7500000Y-21500000D02*
X-11500000Y-21500000D01*
X-12025000Y-865000D02*
X-8635000Y-865000D01*
X-11500000Y-21500000D02*
X-12000000Y-21000000D01*
X-8635000Y-865000D02*
X-8500000Y-1000000D01*
%TO.N,FX-LED-4*%
X-11500000Y-50000000D02*
X-12000000Y-49500000D01*
X-12000000Y-49500000D02*
X-12000000Y-47600000D01*
X-6000000Y-50000000D02*
X-11500000Y-50000000D01*
X-12025000Y-2135000D02*
X-9865000Y-2135000D01*
X-9865000Y-2135000D02*
X-9500000Y-2500000D01*
%TD*%
%TA.AperFunction,Conductor*%
%TO.N,GND*%
G36*
X3043903Y-11039531D02*
G01*
X3050381Y-11045563D01*
X3450274Y-11445456D01*
X3450303Y-11445487D01*
X3551414Y-11546598D01*
X3665552Y-11622862D01*
X3665548Y-11622867D01*
X3665577Y-11622878D01*
X3666673Y-11623611D01*
X3666679Y-11623613D01*
X3666680Y-11623614D01*
X3794735Y-11676656D01*
X3794736Y-11676656D01*
X3794738Y-11676657D01*
X3794742Y-11676657D01*
X3794743Y-11676658D01*
X3930688Y-11703701D01*
X3930691Y-11703701D01*
X4075422Y-11703701D01*
X4075442Y-11703700D01*
X12157156Y-11703700D01*
X12224195Y-11723385D01*
X12244837Y-11740019D01*
X12259981Y-11755163D01*
X12293466Y-11816486D01*
X12296300Y-11842844D01*
X12296300Y-21264506D01*
X12276615Y-21331545D01*
X12235182Y-21369975D01*
X12235671Y-21370723D01*
X12231376Y-21373528D01*
X12231374Y-21373530D01*
X12134946Y-21448583D01*
X12048217Y-21516086D01*
X11891018Y-21686850D01*
X11853510Y-21744262D01*
X11800363Y-21789618D01*
X11731132Y-21799042D01*
X11667796Y-21769540D01*
X11653084Y-21752562D01*
X11651186Y-21752365D01*
X10982962Y-22420589D01*
X10965925Y-22357007D01*
X10900099Y-22242993D01*
X10807007Y-22149901D01*
X10692993Y-22084075D01*
X10629409Y-22067037D01*
X11298797Y-21397647D01*
X11298797Y-21397645D01*
X11268360Y-21373955D01*
X11268354Y-21373951D01*
X11064302Y-21263523D01*
X11064293Y-21263520D01*
X10844860Y-21188188D01*
X10616007Y-21150000D01*
X10383993Y-21150000D01*
X10155139Y-21188188D01*
X9935706Y-21263520D01*
X9935697Y-21263523D01*
X9731650Y-21373949D01*
X9701200Y-21397647D01*
X10370591Y-22067037D01*
X10307007Y-22084075D01*
X10192993Y-22149901D01*
X10099901Y-22242993D01*
X10034075Y-22357007D01*
X10017037Y-22420591D01*
X9348811Y-21752365D01*
X9264516Y-21881390D01*
X9171317Y-22093864D01*
X9114361Y-22318781D01*
X9095202Y-22549994D01*
X9095202Y-22550005D01*
X9114361Y-22781218D01*
X9171317Y-23006135D01*
X9264515Y-23218606D01*
X9348812Y-23347633D01*
X10017037Y-22679408D01*
X10034075Y-22742993D01*
X10099901Y-22857007D01*
X10192993Y-22950099D01*
X10307007Y-23015925D01*
X10370590Y-23032962D01*
X9701201Y-23702351D01*
X9731649Y-23726050D01*
X9935697Y-23836476D01*
X9935706Y-23836479D01*
X10155139Y-23911811D01*
X10383993Y-23950000D01*
X10616007Y-23950000D01*
X10844860Y-23911811D01*
X11064293Y-23836479D01*
X11064301Y-23836476D01*
X11268355Y-23726047D01*
X11298797Y-23702351D01*
X11298798Y-23702350D01*
X10629410Y-23032962D01*
X10692993Y-23015925D01*
X10807007Y-22950099D01*
X10900099Y-22857007D01*
X10965925Y-22742993D01*
X10982962Y-22679409D01*
X11651186Y-23347633D01*
X11655967Y-23347137D01*
X11699036Y-23310380D01*
X11768268Y-23300956D01*
X11831604Y-23330457D01*
X11853509Y-23355737D01*
X11891016Y-23413147D01*
X11891019Y-23413151D01*
X11891021Y-23413153D01*
X12048216Y-23583913D01*
X12048219Y-23583915D01*
X12048222Y-23583918D01*
X12231365Y-23726464D01*
X12231371Y-23726468D01*
X12231374Y-23726470D01*
X12398860Y-23817109D01*
X12434652Y-23836479D01*
X12435497Y-23836936D01*
X12549487Y-23876068D01*
X12655015Y-23912297D01*
X12655017Y-23912297D01*
X12655019Y-23912298D01*
X12883951Y-23950500D01*
X12883952Y-23950500D01*
X13116048Y-23950500D01*
X13116049Y-23950500D01*
X13344981Y-23912298D01*
X13564503Y-23836936D01*
X13768626Y-23726470D01*
X13769170Y-23726047D01*
X13830129Y-23678600D01*
X13951784Y-23583913D01*
X14108979Y-23413153D01*
X14146191Y-23356196D01*
X14199337Y-23310839D01*
X14268569Y-23301415D01*
X14331904Y-23330917D01*
X14353809Y-23356196D01*
X14391016Y-23413147D01*
X14391019Y-23413151D01*
X14391021Y-23413153D01*
X14548216Y-23583913D01*
X14548219Y-23583915D01*
X14548222Y-23583918D01*
X14731365Y-23726464D01*
X14735666Y-23729274D01*
X14735077Y-23730174D01*
X14780904Y-23775651D01*
X14796300Y-23835494D01*
X14796300Y-24925556D01*
X14796299Y-24925582D01*
X14796299Y-24930692D01*
X14796299Y-25069308D01*
X14796299Y-25069310D01*
X14796298Y-25069310D01*
X14823341Y-25205256D01*
X14823343Y-25205264D01*
X14876386Y-25333323D01*
X14876389Y-25333327D01*
X14953400Y-25448583D01*
X15051417Y-25546600D01*
X15051418Y-25546600D01*
X15058485Y-25553667D01*
X15058484Y-25553667D01*
X15058488Y-25553670D01*
X15759981Y-26255163D01*
X15793466Y-26316486D01*
X15796300Y-26342844D01*
X15796300Y-39657155D01*
X15776615Y-39724194D01*
X15759981Y-39744836D01*
X14352642Y-41152175D01*
X13051420Y-42453397D01*
X13051417Y-42453400D01*
X13017129Y-42487688D01*
X12953398Y-42551418D01*
X12927950Y-42589506D01*
X12907894Y-42619522D01*
X12892087Y-42643178D01*
X12876387Y-42666675D01*
X12823343Y-42794735D01*
X12823341Y-42794743D01*
X12796299Y-42930689D01*
X12796299Y-43075421D01*
X12796300Y-43075442D01*
X12796300Y-47425556D01*
X12796299Y-47425582D01*
X12796299Y-47569309D01*
X12812251Y-47649499D01*
X12812251Y-47649501D01*
X12823341Y-47705254D01*
X12823344Y-47705266D01*
X12876386Y-47833323D01*
X12953401Y-47948585D01*
X13055736Y-48050920D01*
X13055758Y-48050940D01*
X14759981Y-49755163D01*
X14793466Y-49816486D01*
X14796300Y-49842844D01*
X14796300Y-50264506D01*
X14776615Y-50331545D01*
X14735182Y-50369975D01*
X14735671Y-50370723D01*
X14731376Y-50373528D01*
X14731374Y-50373530D01*
X14548216Y-50516087D01*
X14443523Y-50629815D01*
X14391015Y-50686854D01*
X14353808Y-50743804D01*
X14300662Y-50789161D01*
X14231430Y-50798584D01*
X14168095Y-50769082D01*
X14146192Y-50743804D01*
X14108984Y-50686854D01*
X14108982Y-50686852D01*
X14108979Y-50686847D01*
X13951784Y-50516087D01*
X13768626Y-50373530D01*
X13768617Y-50373525D01*
X13764329Y-50370723D01*
X13764916Y-50369823D01*
X13719091Y-50324340D01*
X13703700Y-50264506D01*
X13703700Y-49575443D01*
X13703701Y-49575422D01*
X13703701Y-49430689D01*
X13703700Y-49430687D01*
X13702679Y-49425556D01*
X13676658Y-49294738D01*
X13625940Y-49172298D01*
X13624293Y-49167695D01*
X13623611Y-49166674D01*
X13623611Y-49166673D01*
X13546600Y-49051417D01*
X13546598Y-49051414D01*
X13445487Y-48950303D01*
X13445456Y-48950274D01*
X13050940Y-48555758D01*
X13050920Y-48555736D01*
X12948585Y-48453401D01*
X12833323Y-48376386D01*
X12705264Y-48323343D01*
X12705256Y-48323341D01*
X12569310Y-48296299D01*
X12569308Y-48296299D01*
X12430692Y-48296299D01*
X12424578Y-48296299D01*
X12424558Y-48296300D01*
X2962700Y-48296300D01*
X2895661Y-48276615D01*
X2849906Y-48223811D01*
X2838700Y-48172300D01*
X2838700Y-44549994D01*
X6094556Y-44549994D01*
X6094556Y-44550005D01*
X6114310Y-44864004D01*
X6114311Y-44864011D01*
X6135710Y-44976186D01*
X6161064Y-45109100D01*
X6173270Y-45173083D01*
X6270497Y-45472316D01*
X6270499Y-45472321D01*
X6404461Y-45757003D01*
X6404464Y-45757009D01*
X6573051Y-46022661D01*
X6573054Y-46022665D01*
X6773606Y-46265090D01*
X6773608Y-46265092D01*
X6773610Y-46265094D01*
X6893090Y-46377293D01*
X7002968Y-46480476D01*
X7002978Y-46480484D01*
X7257504Y-46665408D01*
X7257509Y-46665410D01*
X7257516Y-46665416D01*
X7533234Y-46816994D01*
X7533239Y-46816996D01*
X7533241Y-46816997D01*
X7533242Y-46816998D01*
X7825771Y-46932818D01*
X7825774Y-46932819D01*
X8078906Y-46997812D01*
X8130527Y-47011066D01*
X8196010Y-47019338D01*
X8442670Y-47050499D01*
X8442679Y-47050499D01*
X8442682Y-47050500D01*
X8442684Y-47050500D01*
X8757316Y-47050500D01*
X8757318Y-47050500D01*
X8757321Y-47050499D01*
X8757329Y-47050499D01*
X8943593Y-47026968D01*
X9069473Y-47011066D01*
X9374225Y-46932819D01*
X9374228Y-46932818D01*
X9666757Y-46816998D01*
X9666758Y-46816997D01*
X9666756Y-46816997D01*
X9666766Y-46816994D01*
X9942484Y-46665416D01*
X10197030Y-46480478D01*
X10426390Y-46265094D01*
X10626947Y-46022663D01*
X10795537Y-45757007D01*
X10929503Y-45472315D01*
X11026731Y-45173079D01*
X11085688Y-44864015D01*
X11088247Y-44823341D01*
X11105444Y-44550005D01*
X11105444Y-44549994D01*
X11085689Y-44235995D01*
X11085688Y-44235988D01*
X11085688Y-44235985D01*
X11026731Y-43926921D01*
X10929503Y-43627685D01*
X10795537Y-43342993D01*
X10626947Y-43077337D01*
X10626945Y-43077334D01*
X10426393Y-42834909D01*
X10426391Y-42834907D01*
X10197029Y-42619521D01*
X10197021Y-42619515D01*
X9942495Y-42434591D01*
X9942488Y-42434586D01*
X9942484Y-42434584D01*
X9666766Y-42283006D01*
X9666763Y-42283004D01*
X9666758Y-42283002D01*
X9666757Y-42283001D01*
X9374228Y-42167181D01*
X9374225Y-42167180D01*
X9069476Y-42088934D01*
X9069463Y-42088932D01*
X8757329Y-42049500D01*
X8757318Y-42049500D01*
X8442682Y-42049500D01*
X8442670Y-42049500D01*
X8130536Y-42088932D01*
X8130523Y-42088934D01*
X7825774Y-42167180D01*
X7825771Y-42167181D01*
X7533242Y-42283001D01*
X7533241Y-42283002D01*
X7257516Y-42434584D01*
X7257504Y-42434591D01*
X7002978Y-42619515D01*
X7002971Y-42619521D01*
X6773608Y-42834907D01*
X6773606Y-42834909D01*
X6573054Y-43077334D01*
X6573051Y-43077338D01*
X6404464Y-43342990D01*
X6404461Y-43342996D01*
X6270499Y-43627678D01*
X6270497Y-43627683D01*
X6173270Y-43926916D01*
X6114311Y-44235988D01*
X6114310Y-44235995D01*
X6094556Y-44549994D01*
X2838700Y-44549994D01*
X2838700Y-30628711D01*
X11149500Y-30628711D01*
X11149500Y-30871288D01*
X11181161Y-31111785D01*
X11243947Y-31346104D01*
X11336773Y-31570205D01*
X11336776Y-31570212D01*
X11458064Y-31780289D01*
X11458066Y-31780292D01*
X11458067Y-31780293D01*
X11605733Y-31972736D01*
X11605739Y-31972743D01*
X11777256Y-32144260D01*
X11777262Y-32144265D01*
X11969711Y-32291936D01*
X12179788Y-32413224D01*
X12403900Y-32506054D01*
X12638211Y-32568838D01*
X12818586Y-32592584D01*
X12878711Y-32600500D01*
X12878712Y-32600500D01*
X13121289Y-32600500D01*
X13169388Y-32594167D01*
X13361789Y-32568838D01*
X13596100Y-32506054D01*
X13820212Y-32413224D01*
X14030289Y-32291936D01*
X14222738Y-32144265D01*
X14394265Y-31972738D01*
X14541936Y-31780289D01*
X14663224Y-31570212D01*
X14756054Y-31346100D01*
X14818838Y-31111789D01*
X14850500Y-30871288D01*
X14850500Y-30628712D01*
X14818838Y-30388211D01*
X14756054Y-30153900D01*
X14663224Y-29929788D01*
X14541936Y-29719711D01*
X14394265Y-29527262D01*
X14394260Y-29527256D01*
X14222743Y-29355739D01*
X14222736Y-29355733D01*
X14030293Y-29208067D01*
X14030292Y-29208066D01*
X14030289Y-29208064D01*
X13820212Y-29086776D01*
X13820205Y-29086773D01*
X13596104Y-28993947D01*
X13361785Y-28931161D01*
X13121289Y-28899500D01*
X13121288Y-28899500D01*
X12878712Y-28899500D01*
X12878711Y-28899500D01*
X12638214Y-28931161D01*
X12403895Y-28993947D01*
X12179794Y-29086773D01*
X12179785Y-29086777D01*
X11969706Y-29208067D01*
X11777263Y-29355733D01*
X11777256Y-29355739D01*
X11605739Y-29527256D01*
X11605733Y-29527263D01*
X11458067Y-29719706D01*
X11336777Y-29929785D01*
X11336773Y-29929794D01*
X11243947Y-30153895D01*
X11181161Y-30388214D01*
X11149500Y-30628711D01*
X2838700Y-30628711D01*
X2838700Y-15549994D01*
X6094556Y-15549994D01*
X6094556Y-15550005D01*
X6114310Y-15864004D01*
X6114311Y-15864011D01*
X6137500Y-15985570D01*
X6164362Y-16126389D01*
X6173270Y-16173083D01*
X6270497Y-16472316D01*
X6270499Y-16472321D01*
X6404461Y-16757003D01*
X6404464Y-16757009D01*
X6573051Y-17022661D01*
X6573054Y-17022665D01*
X6773606Y-17265090D01*
X6773608Y-17265092D01*
X6773610Y-17265094D01*
X6997612Y-17475446D01*
X7002968Y-17480476D01*
X7002978Y-17480484D01*
X7257504Y-17665408D01*
X7257509Y-17665410D01*
X7257516Y-17665416D01*
X7533234Y-17816994D01*
X7533239Y-17816996D01*
X7533241Y-17816997D01*
X7533242Y-17816998D01*
X7825771Y-17932818D01*
X7825774Y-17932819D01*
X8078906Y-17997812D01*
X8130527Y-18011066D01*
X8175062Y-18016692D01*
X8442670Y-18050499D01*
X8442679Y-18050499D01*
X8442682Y-18050500D01*
X8442684Y-18050500D01*
X8757316Y-18050500D01*
X8757318Y-18050500D01*
X8757321Y-18050499D01*
X8757329Y-18050499D01*
X8946223Y-18026636D01*
X9069473Y-18011066D01*
X9374225Y-17932819D01*
X9374228Y-17932818D01*
X9666757Y-17816998D01*
X9666758Y-17816997D01*
X9666756Y-17816997D01*
X9666766Y-17816994D01*
X9942484Y-17665416D01*
X10197030Y-17480478D01*
X10426390Y-17265094D01*
X10626947Y-17022663D01*
X10795537Y-16757007D01*
X10929503Y-16472315D01*
X11026731Y-16173079D01*
X11085688Y-15864015D01*
X11085689Y-15864004D01*
X11105444Y-15550005D01*
X11105444Y-15549994D01*
X11085689Y-15235995D01*
X11085688Y-15235988D01*
X11085688Y-15235985D01*
X11026731Y-14926921D01*
X10929503Y-14627685D01*
X10795537Y-14342993D01*
X10760414Y-14287648D01*
X10626948Y-14077338D01*
X10626945Y-14077334D01*
X10426393Y-13834909D01*
X10426391Y-13834907D01*
X10197031Y-13619523D01*
X10197021Y-13619515D01*
X9942495Y-13434591D01*
X9942488Y-13434586D01*
X9942484Y-13434584D01*
X9666766Y-13283006D01*
X9666763Y-13283004D01*
X9666758Y-13283002D01*
X9666757Y-13283001D01*
X9374228Y-13167181D01*
X9374225Y-13167180D01*
X9069476Y-13088934D01*
X9069463Y-13088932D01*
X8757329Y-13049500D01*
X8757318Y-13049500D01*
X8442682Y-13049500D01*
X8442670Y-13049500D01*
X8130536Y-13088932D01*
X8130523Y-13088934D01*
X7825774Y-13167180D01*
X7825771Y-13167181D01*
X7533242Y-13283001D01*
X7533241Y-13283002D01*
X7257516Y-13434584D01*
X7257504Y-13434591D01*
X7002978Y-13619515D01*
X7002968Y-13619523D01*
X6773608Y-13834907D01*
X6773606Y-13834909D01*
X6573054Y-14077334D01*
X6573051Y-14077338D01*
X6404464Y-14342990D01*
X6404461Y-14342996D01*
X6270499Y-14627678D01*
X6270497Y-14627683D01*
X6173270Y-14926916D01*
X6114311Y-15235988D01*
X6114310Y-15235995D01*
X6094556Y-15549994D01*
X2838700Y-15549994D01*
X2838700Y-11133244D01*
X2858385Y-11066205D01*
X2911189Y-11020450D01*
X2980347Y-11010506D01*
X3043903Y-11039531D01*
G37*
%TD.AperFunction*%
%TA.AperFunction,Conductor*%
G36*
X-5282497Y-2213131D02*
G01*
X-5276019Y-2219163D01*
X-5019726Y-2475456D01*
X-5019697Y-2475487D01*
X-4918586Y-2576598D01*
X-4833660Y-2633343D01*
X-4803327Y-2653611D01*
X-4803325Y-2653612D01*
X-4803323Y-2653613D01*
X-4675265Y-2706656D01*
X-4675264Y-2706656D01*
X-4675262Y-2706657D01*
X-4675258Y-2706657D01*
X-4675257Y-2706658D01*
X-4539311Y-2733701D01*
X-4539308Y-2733701D01*
X-4394577Y-2733701D01*
X-4394557Y-2733700D01*
X18304529Y-2733700D01*
X18371568Y-2753385D01*
X18406103Y-2786576D01*
X18486505Y-2901401D01*
X18653597Y-3068493D01*
X18653603Y-3068498D01*
X18839158Y-3198425D01*
X18882783Y-3253002D01*
X18889977Y-3322500D01*
X18858454Y-3384855D01*
X18839158Y-3401575D01*
X18653597Y-3531505D01*
X18486506Y-3698596D01*
X18406105Y-3813423D01*
X18351529Y-3857048D01*
X18304530Y-3866300D01*
X8005443Y-3866300D01*
X8005423Y-3866299D01*
X7999309Y-3866299D01*
X7860692Y-3866299D01*
X7860689Y-3866299D01*
X7724744Y-3893340D01*
X7724734Y-3893343D01*
X7652520Y-3923256D01*
X7596674Y-3946387D01*
X7481416Y-4023400D01*
X7453431Y-4051386D01*
X7383400Y-4121417D01*
X7383397Y-4121420D01*
X6766420Y-4738397D01*
X6766417Y-4738400D01*
X6717409Y-4787407D01*
X6668402Y-4836414D01*
X6668400Y-4836417D01*
X6632130Y-4890701D01*
X6623694Y-4903326D01*
X6623693Y-4903327D01*
X6591387Y-4951675D01*
X6591386Y-4951677D01*
X6538343Y-5079735D01*
X6538341Y-5079743D01*
X6511299Y-5215689D01*
X6511299Y-5360421D01*
X6511300Y-5360442D01*
X6511300Y-6053917D01*
X6491615Y-6120956D01*
X6438811Y-6166711D01*
X6369653Y-6176655D01*
X6352705Y-6172993D01*
X6197494Y-6127900D01*
X6197497Y-6127900D01*
X6195000Y-6127703D01*
X6195000Y-9172295D01*
X6195001Y-9172295D01*
X6197486Y-9172100D01*
X6355198Y-9126281D01*
X6496550Y-9042686D01*
X6502717Y-9037903D01*
X6504630Y-9040369D01*
X6553222Y-9013802D01*
X6622917Y-9018749D01*
X6655762Y-9039853D01*
X6656969Y-9038298D01*
X6663132Y-9043078D01*
X6663135Y-9043081D01*
X6804602Y-9126744D01*
X6828920Y-9133809D01*
X6962426Y-9172597D01*
X6962429Y-9172597D01*
X6962431Y-9172598D01*
X6999306Y-9175500D01*
X6999314Y-9175500D01*
X7430686Y-9175500D01*
X7430694Y-9175500D01*
X7467569Y-9172598D01*
X7467571Y-9172597D01*
X7467573Y-9172597D01*
X7509191Y-9160505D01*
X7625398Y-9126744D01*
X7766865Y-9043081D01*
X7766870Y-9043075D01*
X7773031Y-9038298D01*
X7774933Y-9040750D01*
X7823579Y-9014155D01*
X7893274Y-9019104D01*
X7925695Y-9039940D01*
X7926969Y-9038298D01*
X7933132Y-9043078D01*
X7933135Y-9043081D01*
X8074602Y-9126744D01*
X8098920Y-9133809D01*
X8232426Y-9172597D01*
X8232429Y-9172597D01*
X8232431Y-9172598D01*
X8269306Y-9175500D01*
X8269314Y-9175500D01*
X8700686Y-9175500D01*
X8700694Y-9175500D01*
X8737569Y-9172598D01*
X8737571Y-9172597D01*
X8737573Y-9172597D01*
X8779191Y-9160505D01*
X8895398Y-9126744D01*
X9036865Y-9043081D01*
X9153081Y-8926865D01*
X9236744Y-8785398D01*
X9282598Y-8627569D01*
X9285500Y-8590694D01*
X9285500Y-6709306D01*
X9282598Y-6672431D01*
X9273367Y-6640659D01*
X9236745Y-6514606D01*
X9236744Y-6514602D01*
X9228013Y-6499840D01*
X9205968Y-6462561D01*
X9188700Y-6399441D01*
X9188700Y-6357844D01*
X9208385Y-6290805D01*
X9225019Y-6270163D01*
X9255163Y-6240019D01*
X9316486Y-6206534D01*
X9342844Y-6203700D01*
X9657156Y-6203700D01*
X9724195Y-6223385D01*
X9744836Y-6240018D01*
X10453399Y-6948582D01*
X10453400Y-6948583D01*
X10551417Y-7046600D01*
X10666673Y-7123611D01*
X10719720Y-7145583D01*
X10794739Y-7176658D01*
X10794741Y-7176658D01*
X10794743Y-7176659D01*
X10930689Y-7203701D01*
X10930692Y-7203701D01*
X11075423Y-7203701D01*
X11075443Y-7203700D01*
X17157156Y-7203700D01*
X17224195Y-7223385D01*
X17244837Y-7240019D01*
X17560274Y-7555456D01*
X17560303Y-7555487D01*
X17661414Y-7656598D01*
X17776676Y-7733613D01*
X17904733Y-7786655D01*
X17904738Y-7786657D01*
X17904742Y-7786657D01*
X17904743Y-7786658D01*
X18040688Y-7813700D01*
X18040691Y-7813700D01*
X18040692Y-7813700D01*
X18304529Y-7813700D01*
X18371568Y-7833385D01*
X18406103Y-7866576D01*
X18465764Y-7951780D01*
X18486505Y-7981401D01*
X18653599Y-8148495D01*
X18722297Y-8196598D01*
X18847165Y-8284032D01*
X18847167Y-8284033D01*
X18847170Y-8284035D01*
X19061337Y-8383903D01*
X19289592Y-8445063D01*
X19477918Y-8461539D01*
X19524999Y-8465659D01*
X19525000Y-8465659D01*
X19525001Y-8465659D01*
X19564234Y-8462226D01*
X19760408Y-8445063D01*
X19988663Y-8383903D01*
X20202830Y-8284035D01*
X20396401Y-8148495D01*
X20563495Y-7981401D01*
X20570725Y-7971076D01*
X20625302Y-7927451D01*
X20694800Y-7920257D01*
X20757155Y-7951780D01*
X20792569Y-8012009D01*
X20796300Y-8042199D01*
X20796300Y-17657156D01*
X20776615Y-17724195D01*
X20759981Y-17744837D01*
X19744837Y-18759981D01*
X19683514Y-18793466D01*
X19657156Y-18796300D01*
X16075443Y-18796300D01*
X16075423Y-18796299D01*
X16069309Y-18796299D01*
X15930692Y-18796299D01*
X15930689Y-18796299D01*
X15794744Y-18823340D01*
X15794738Y-18823342D01*
X15711701Y-18857738D01*
X15666673Y-18876389D01*
X15666669Y-18876391D01*
X15551416Y-18953400D01*
X15502408Y-19002408D01*
X15453400Y-19051417D01*
X15453397Y-19051420D01*
X15051420Y-19453397D01*
X15051417Y-19453400D01*
X15002408Y-19502408D01*
X14953400Y-19551416D01*
X14876386Y-19666676D01*
X14823343Y-19794735D01*
X14823341Y-19794743D01*
X14796299Y-19930689D01*
X14796299Y-20075421D01*
X14796300Y-20075442D01*
X14796300Y-21264506D01*
X14776615Y-21331545D01*
X14735182Y-21369975D01*
X14735671Y-21370723D01*
X14731376Y-21373528D01*
X14731374Y-21373530D01*
X14634946Y-21448583D01*
X14568885Y-21500000D01*
X14548216Y-21516087D01*
X14398016Y-21679249D01*
X14391015Y-21686854D01*
X14353808Y-21743804D01*
X14300662Y-21789161D01*
X14231430Y-21798584D01*
X14168095Y-21769082D01*
X14146192Y-21743804D01*
X14108984Y-21686854D01*
X14108982Y-21686852D01*
X14108979Y-21686847D01*
X13951784Y-21516087D01*
X13768626Y-21373530D01*
X13768617Y-21373525D01*
X13764329Y-21370723D01*
X13764916Y-21369823D01*
X13719091Y-21324340D01*
X13703700Y-21264506D01*
X13703700Y-15549994D01*
X14894556Y-15549994D01*
X14894556Y-15550005D01*
X14914310Y-15864004D01*
X14914311Y-15864011D01*
X14937500Y-15985570D01*
X14964362Y-16126389D01*
X14973270Y-16173083D01*
X15070497Y-16472316D01*
X15070499Y-16472321D01*
X15204461Y-16757003D01*
X15204464Y-16757009D01*
X15373051Y-17022661D01*
X15373054Y-17022665D01*
X15573606Y-17265090D01*
X15573608Y-17265092D01*
X15573610Y-17265094D01*
X15797612Y-17475446D01*
X15802968Y-17480476D01*
X15802978Y-17480484D01*
X16057504Y-17665408D01*
X16057509Y-17665410D01*
X16057516Y-17665416D01*
X16333234Y-17816994D01*
X16333239Y-17816996D01*
X16333241Y-17816997D01*
X16333242Y-17816998D01*
X16625771Y-17932818D01*
X16625774Y-17932819D01*
X16878906Y-17997812D01*
X16930527Y-18011066D01*
X16975062Y-18016692D01*
X17242670Y-18050499D01*
X17242679Y-18050499D01*
X17242682Y-18050500D01*
X17242684Y-18050500D01*
X17557316Y-18050500D01*
X17557318Y-18050500D01*
X17557321Y-18050499D01*
X17557329Y-18050499D01*
X17746223Y-18026636D01*
X17869473Y-18011066D01*
X18174225Y-17932819D01*
X18174228Y-17932818D01*
X18466757Y-17816998D01*
X18466758Y-17816997D01*
X18466756Y-17816997D01*
X18466766Y-17816994D01*
X18742484Y-17665416D01*
X18997030Y-17480478D01*
X19226390Y-17265094D01*
X19426947Y-17022663D01*
X19595537Y-16757007D01*
X19729503Y-16472315D01*
X19826731Y-16173079D01*
X19885688Y-15864015D01*
X19885689Y-15864004D01*
X19905444Y-15550005D01*
X19905444Y-15549994D01*
X19885689Y-15235995D01*
X19885688Y-15235988D01*
X19885688Y-15235985D01*
X19826731Y-14926921D01*
X19729503Y-14627685D01*
X19595537Y-14342993D01*
X19560414Y-14287648D01*
X19426948Y-14077338D01*
X19426945Y-14077334D01*
X19226393Y-13834909D01*
X19226391Y-13834907D01*
X18997031Y-13619523D01*
X18997021Y-13619515D01*
X18742495Y-13434591D01*
X18742488Y-13434586D01*
X18742484Y-13434584D01*
X18466766Y-13283006D01*
X18466763Y-13283004D01*
X18466758Y-13283002D01*
X18466757Y-13283001D01*
X18174228Y-13167181D01*
X18174225Y-13167180D01*
X17869476Y-13088934D01*
X17869463Y-13088932D01*
X17557329Y-13049500D01*
X17557318Y-13049500D01*
X17242682Y-13049500D01*
X17242670Y-13049500D01*
X16930536Y-13088932D01*
X16930523Y-13088934D01*
X16625774Y-13167180D01*
X16625771Y-13167181D01*
X16333242Y-13283001D01*
X16333241Y-13283002D01*
X16057516Y-13434584D01*
X16057504Y-13434591D01*
X15802978Y-13619515D01*
X15802968Y-13619523D01*
X15573608Y-13834907D01*
X15573606Y-13834909D01*
X15373054Y-14077334D01*
X15373051Y-14077338D01*
X15204464Y-14342990D01*
X15204461Y-14342996D01*
X15070499Y-14627678D01*
X15070497Y-14627683D01*
X14973270Y-14926916D01*
X14914311Y-15235988D01*
X14914310Y-15235995D01*
X14894556Y-15549994D01*
X13703700Y-15549994D01*
X13703700Y-11575443D01*
X13703701Y-11575422D01*
X13703701Y-11430689D01*
X13703700Y-11430687D01*
X13676659Y-11294745D01*
X13676658Y-11294738D01*
X13625940Y-11172298D01*
X13624293Y-11167695D01*
X13623611Y-11166674D01*
X13623611Y-11166673D01*
X13546600Y-11051417D01*
X13546598Y-11051414D01*
X13445487Y-10950303D01*
X13445456Y-10950274D01*
X13050940Y-10555758D01*
X13050920Y-10555736D01*
X12948585Y-10453401D01*
X12833323Y-10376386D01*
X12705264Y-10323343D01*
X12705256Y-10323341D01*
X12569310Y-10296299D01*
X12569308Y-10296299D01*
X12430692Y-10296299D01*
X12424578Y-10296299D01*
X12424558Y-10296300D01*
X4342844Y-10296300D01*
X4275805Y-10276615D01*
X4255163Y-10259981D01*
X4145019Y-10149837D01*
X4111534Y-10088514D01*
X4108700Y-10062156D01*
X4108700Y-9246603D01*
X4128385Y-9179564D01*
X4181189Y-9133809D01*
X4250347Y-9123865D01*
X4267295Y-9127527D01*
X4422426Y-9172597D01*
X4422429Y-9172597D01*
X4422431Y-9172598D01*
X4459306Y-9175500D01*
X4459314Y-9175500D01*
X4890686Y-9175500D01*
X4890694Y-9175500D01*
X4927569Y-9172598D01*
X4927571Y-9172597D01*
X4927573Y-9172597D01*
X4969191Y-9160505D01*
X5085398Y-9126744D01*
X5226865Y-9043081D01*
X5226870Y-9043076D01*
X5233026Y-9038301D01*
X5234839Y-9040638D01*
X5283949Y-9013798D01*
X5353643Y-9018756D01*
X5385996Y-9039551D01*
X5387278Y-9037900D01*
X5393447Y-9042685D01*
X5534801Y-9126281D01*
X5692514Y-9172100D01*
X5692511Y-9172100D01*
X5694998Y-9172295D01*
X5695000Y-9172295D01*
X5695000Y-6127703D01*
X5692503Y-6127900D01*
X5534806Y-6173716D01*
X5534803Y-6173717D01*
X5393449Y-6257313D01*
X5387283Y-6262097D01*
X5385389Y-6259655D01*
X5336580Y-6286239D01*
X5266894Y-6281179D01*
X5234227Y-6260159D01*
X5233031Y-6261702D01*
X5226862Y-6256917D01*
X5102743Y-6183514D01*
X5085398Y-6173256D01*
X5085397Y-6173255D01*
X5085396Y-6173255D01*
X5085393Y-6173254D01*
X4927573Y-6127402D01*
X4927567Y-6127401D01*
X4890701Y-6124500D01*
X4890694Y-6124500D01*
X4459306Y-6124500D01*
X4459298Y-6124500D01*
X4422432Y-6127401D01*
X4422426Y-6127402D01*
X4264606Y-6173254D01*
X4264603Y-6173255D01*
X4123137Y-6256917D01*
X4116969Y-6261702D01*
X4115072Y-6259256D01*
X4066358Y-6285857D01*
X3996666Y-6280873D01*
X3964296Y-6260069D01*
X3963031Y-6261702D01*
X3956862Y-6256917D01*
X3832743Y-6183514D01*
X3815398Y-6173256D01*
X3815397Y-6173255D01*
X3815396Y-6173255D01*
X3815393Y-6173254D01*
X3657573Y-6127402D01*
X3657567Y-6127401D01*
X3620701Y-6124500D01*
X3620694Y-6124500D01*
X3189306Y-6124500D01*
X3189298Y-6124500D01*
X3152432Y-6127401D01*
X3152426Y-6127402D01*
X2994606Y-6173254D01*
X2994603Y-6173255D01*
X2853137Y-6256917D01*
X2846969Y-6261702D01*
X2845072Y-6259256D01*
X2796358Y-6285857D01*
X2726666Y-6280873D01*
X2694296Y-6260069D01*
X2693031Y-6261702D01*
X2686862Y-6256917D01*
X2562743Y-6183514D01*
X2545398Y-6173256D01*
X2545397Y-6173255D01*
X2545396Y-6173255D01*
X2545393Y-6173254D01*
X2387573Y-6127402D01*
X2387567Y-6127401D01*
X2350701Y-6124500D01*
X2350694Y-6124500D01*
X1919306Y-6124500D01*
X1919298Y-6124500D01*
X1882432Y-6127401D01*
X1882426Y-6127402D01*
X1724606Y-6173254D01*
X1724603Y-6173255D01*
X1583137Y-6256917D01*
X1576969Y-6261702D01*
X1575072Y-6259256D01*
X1526358Y-6285857D01*
X1456666Y-6280873D01*
X1424296Y-6260069D01*
X1423031Y-6261702D01*
X1416862Y-6256917D01*
X1292743Y-6183514D01*
X1275398Y-6173256D01*
X1275397Y-6173255D01*
X1275396Y-6173255D01*
X1275393Y-6173254D01*
X1117573Y-6127402D01*
X1117567Y-6127401D01*
X1080701Y-6124500D01*
X1080694Y-6124500D01*
X649306Y-6124500D01*
X649298Y-6124500D01*
X612432Y-6127401D01*
X612426Y-6127402D01*
X454606Y-6173254D01*
X454603Y-6173255D01*
X313137Y-6256917D01*
X306969Y-6261702D01*
X305072Y-6259256D01*
X256358Y-6285857D01*
X186666Y-6280873D01*
X154296Y-6260069D01*
X153031Y-6261702D01*
X146862Y-6256917D01*
X22743Y-6183514D01*
X5398Y-6173256D01*
X5397Y-6173255D01*
X5396Y-6173255D01*
X5393Y-6173254D01*
X-152427Y-6127402D01*
X-152433Y-6127401D01*
X-189299Y-6124500D01*
X-189306Y-6124500D01*
X-620694Y-6124500D01*
X-620702Y-6124500D01*
X-657568Y-6127401D01*
X-657574Y-6127402D01*
X-815394Y-6173254D01*
X-815397Y-6173255D01*
X-956863Y-6256917D01*
X-963031Y-6261702D01*
X-964928Y-6259256D01*
X-1013642Y-6285857D01*
X-1083334Y-6280873D01*
X-1115704Y-6260069D01*
X-1116969Y-6261702D01*
X-1123138Y-6256917D01*
X-1247257Y-6183514D01*
X-1264602Y-6173256D01*
X-1264603Y-6173255D01*
X-1264604Y-6173255D01*
X-1264607Y-6173254D01*
X-1422427Y-6127402D01*
X-1422433Y-6127401D01*
X-1459299Y-6124500D01*
X-1459306Y-6124500D01*
X-1890694Y-6124500D01*
X-1890702Y-6124500D01*
X-1927568Y-6127401D01*
X-1927574Y-6127402D01*
X-2085394Y-6173254D01*
X-2085397Y-6173255D01*
X-2226863Y-6256917D01*
X-2233031Y-6261702D01*
X-2234928Y-6259256D01*
X-2283642Y-6285857D01*
X-2353334Y-6280873D01*
X-2385704Y-6260069D01*
X-2386969Y-6261702D01*
X-2393138Y-6256917D01*
X-2517257Y-6183514D01*
X-2534602Y-6173256D01*
X-2534603Y-6173255D01*
X-2534604Y-6173255D01*
X-2534607Y-6173254D01*
X-2692427Y-6127402D01*
X-2692433Y-6127401D01*
X-2729299Y-6124500D01*
X-2729306Y-6124500D01*
X-3160694Y-6124500D01*
X-3160702Y-6124500D01*
X-3197568Y-6127401D01*
X-3197574Y-6127402D01*
X-3355394Y-6173254D01*
X-3355397Y-6173255D01*
X-3496863Y-6256917D01*
X-3503031Y-6261702D01*
X-3504928Y-6259256D01*
X-3553642Y-6285857D01*
X-3623334Y-6280873D01*
X-3655704Y-6260069D01*
X-3656969Y-6261702D01*
X-3663138Y-6256917D01*
X-3787257Y-6183514D01*
X-3804602Y-6173256D01*
X-3804603Y-6173255D01*
X-3804604Y-6173255D01*
X-3804607Y-6173254D01*
X-3962427Y-6127402D01*
X-3962433Y-6127401D01*
X-3999299Y-6124500D01*
X-3999306Y-6124500D01*
X-4430694Y-6124500D01*
X-4430702Y-6124500D01*
X-4467568Y-6127401D01*
X-4467574Y-6127402D01*
X-4625394Y-6173254D01*
X-4625397Y-6173255D01*
X-4766863Y-6256917D01*
X-4773031Y-6261702D01*
X-4774928Y-6259256D01*
X-4823642Y-6285857D01*
X-4893334Y-6280873D01*
X-4925704Y-6260069D01*
X-4926969Y-6261702D01*
X-4933138Y-6256917D01*
X-5057257Y-6183514D01*
X-5074602Y-6173256D01*
X-5074603Y-6173255D01*
X-5074604Y-6173255D01*
X-5074607Y-6173254D01*
X-5232427Y-6127402D01*
X-5232433Y-6127401D01*
X-5269299Y-6124500D01*
X-5269306Y-6124500D01*
X-5363700Y-6124500D01*
X-5430739Y-6104815D01*
X-5476494Y-6052011D01*
X-5487700Y-6000500D01*
X-5487700Y-2306844D01*
X-5468015Y-2239805D01*
X-5415211Y-2194050D01*
X-5346053Y-2184106D01*
X-5282497Y-2213131D01*
G37*
%TD.AperFunction*%
%TA.AperFunction,Conductor*%
G36*
X-18454564Y-5398385D02*
G01*
X-18408809Y-5451189D01*
X-18398865Y-5520347D01*
X-18402527Y-5537295D01*
X-18447598Y-5692426D01*
X-18447599Y-5692432D01*
X-18450500Y-5729298D01*
X-18450500Y-6160701D01*
X-18447599Y-6197567D01*
X-18447598Y-6197573D01*
X-18401746Y-6355393D01*
X-18401745Y-6355396D01*
X-18401744Y-6355398D01*
X-18375697Y-6399441D01*
X-18318083Y-6496862D01*
X-18318077Y-6496870D01*
X-18201871Y-6613076D01*
X-18201867Y-6613079D01*
X-18201865Y-6613081D01*
X-18060398Y-6696744D01*
X-18038097Y-6703223D01*
X-17902574Y-6742597D01*
X-17902571Y-6742597D01*
X-17902569Y-6742598D01*
X-17865694Y-6745500D01*
X-16242844Y-6745500D01*
X-16175805Y-6765185D01*
X-16130050Y-6817989D01*
X-16128284Y-6822046D01*
X-16127892Y-6822992D01*
X-16123613Y-6833324D01*
X-16046601Y-6948582D01*
X-16046598Y-6948586D01*
X-15944264Y-7050920D01*
X-15944242Y-7050940D01*
X-14899726Y-8095456D01*
X-14899697Y-8095487D01*
X-14798586Y-8196598D01*
X-14798583Y-8196600D01*
X-14683327Y-8273611D01*
X-14658163Y-8284034D01*
X-14658162Y-8284035D01*
X-14658161Y-8284035D01*
X-14555261Y-8326658D01*
X-14555257Y-8326658D01*
X-14555256Y-8326659D01*
X-14419311Y-8353701D01*
X-14419308Y-8353701D01*
X-14274577Y-8353701D01*
X-14274557Y-8353700D01*
X-6409500Y-8353700D01*
X-6342461Y-8373385D01*
X-6296706Y-8426189D01*
X-6285500Y-8477700D01*
X-6285500Y-8590701D01*
X-6282599Y-8627567D01*
X-6282598Y-8627573D01*
X-6236746Y-8785393D01*
X-6236745Y-8785396D01*
X-6153083Y-8926862D01*
X-6153077Y-8926870D01*
X-6036871Y-9043076D01*
X-6036867Y-9043079D01*
X-6036865Y-9043081D01*
X-5895398Y-9126744D01*
X-5871080Y-9133809D01*
X-5737574Y-9172597D01*
X-5737571Y-9172597D01*
X-5737569Y-9172598D01*
X-5700694Y-9175500D01*
X-5700686Y-9175500D01*
X-5269314Y-9175500D01*
X-5269306Y-9175500D01*
X-5232431Y-9172598D01*
X-5232429Y-9172597D01*
X-5232427Y-9172597D01*
X-5190809Y-9160505D01*
X-5074602Y-9126744D01*
X-4933135Y-9043081D01*
X-4933130Y-9043075D01*
X-4926969Y-9038298D01*
X-4925067Y-9040750D01*
X-4876421Y-9014155D01*
X-4806726Y-9019104D01*
X-4774305Y-9039940D01*
X-4773031Y-9038298D01*
X-4766868Y-9043078D01*
X-4766865Y-9043081D01*
X-4625398Y-9126744D01*
X-4601080Y-9133809D01*
X-4467574Y-9172597D01*
X-4467571Y-9172597D01*
X-4467569Y-9172598D01*
X-4430694Y-9175500D01*
X-4430686Y-9175500D01*
X-3999314Y-9175500D01*
X-3999306Y-9175500D01*
X-3962431Y-9172598D01*
X-3962429Y-9172597D01*
X-3962427Y-9172597D01*
X-3920809Y-9160505D01*
X-3804602Y-9126744D01*
X-3663135Y-9043081D01*
X-3663130Y-9043075D01*
X-3656969Y-9038298D01*
X-3655067Y-9040750D01*
X-3606421Y-9014155D01*
X-3536726Y-9019104D01*
X-3504305Y-9039940D01*
X-3503031Y-9038298D01*
X-3496868Y-9043078D01*
X-3496865Y-9043081D01*
X-3355398Y-9126744D01*
X-3331080Y-9133809D01*
X-3197574Y-9172597D01*
X-3197571Y-9172597D01*
X-3197569Y-9172598D01*
X-3160694Y-9175500D01*
X-3160686Y-9175500D01*
X-2729314Y-9175500D01*
X-2729306Y-9175500D01*
X-2692431Y-9172598D01*
X-2692429Y-9172597D01*
X-2692427Y-9172597D01*
X-2650809Y-9160505D01*
X-2534602Y-9126744D01*
X-2393135Y-9043081D01*
X-2393130Y-9043075D01*
X-2386969Y-9038298D01*
X-2385067Y-9040750D01*
X-2336421Y-9014155D01*
X-2266726Y-9019104D01*
X-2234305Y-9039940D01*
X-2233031Y-9038298D01*
X-2226868Y-9043078D01*
X-2226865Y-9043081D01*
X-2085398Y-9126744D01*
X-2061080Y-9133809D01*
X-1927574Y-9172597D01*
X-1927571Y-9172597D01*
X-1927569Y-9172598D01*
X-1890694Y-9175500D01*
X-1890686Y-9175500D01*
X-1459314Y-9175500D01*
X-1459306Y-9175500D01*
X-1422431Y-9172598D01*
X-1422429Y-9172597D01*
X-1422427Y-9172597D01*
X-1267295Y-9127527D01*
X-1197426Y-9127726D01*
X-1138756Y-9165668D01*
X-1109912Y-9229306D01*
X-1108700Y-9246603D01*
X-1108700Y-16562156D01*
X-1128385Y-16629195D01*
X-1145019Y-16649837D01*
X-1505163Y-17009981D01*
X-1566486Y-17043466D01*
X-1592844Y-17046300D01*
X-7350289Y-17046300D01*
X-7417328Y-17026615D01*
X-7454098Y-16990121D01*
X-7561834Y-16825217D01*
X-7624630Y-16757003D01*
X-7730256Y-16642262D01*
X-7926491Y-16489526D01*
X-7926493Y-16489525D01*
X-7926494Y-16489524D01*
X-8145189Y-16371172D01*
X-8145198Y-16371169D01*
X-8380384Y-16290429D01*
X-8625665Y-16249500D01*
X-8874335Y-16249500D01*
X-9119618Y-16290429D01*
X-9124588Y-16291688D01*
X-9125045Y-16289883D01*
X-9186766Y-16292664D01*
X-9244900Y-16259917D01*
X-9301417Y-16203400D01*
X-9301420Y-16203398D01*
X-9358657Y-16165154D01*
X-9416673Y-16126389D01*
X-9416675Y-16126388D01*
X-9544735Y-16073344D01*
X-9544744Y-16073341D01*
X-9544806Y-16073329D01*
X-9544806Y-16073328D01*
X-9680690Y-16046299D01*
X-9680692Y-16046299D01*
X-9819308Y-16046299D01*
X-9825422Y-16046299D01*
X-9825442Y-16046300D01*
X-14174557Y-16046300D01*
X-14174577Y-16046299D01*
X-14180691Y-16046299D01*
X-14319308Y-16046299D01*
X-14319310Y-16046299D01*
X-14455256Y-16073340D01*
X-14455262Y-16073342D01*
X-14530280Y-16104416D01*
X-14583326Y-16126388D01*
X-14695434Y-16201294D01*
X-14695433Y-16201295D01*
X-14698581Y-16203398D01*
X-14755102Y-16259918D01*
X-14816426Y-16293402D01*
X-14874985Y-16289984D01*
X-14875416Y-16291687D01*
X-14880381Y-16290429D01*
X-15125665Y-16249500D01*
X-15374335Y-16249500D01*
X-15619617Y-16290429D01*
X-15854803Y-16371169D01*
X-15854812Y-16371172D01*
X-16073507Y-16489524D01*
X-16269743Y-16642261D01*
X-16438167Y-16825217D01*
X-16574174Y-17033393D01*
X-16674064Y-17261118D01*
X-16735108Y-17502175D01*
X-16735110Y-17502187D01*
X-16755643Y-17749994D01*
X-16755643Y-17750005D01*
X-16735110Y-17997812D01*
X-16735108Y-17997824D01*
X-16674064Y-18238881D01*
X-16574174Y-18466606D01*
X-16438167Y-18674782D01*
X-16412145Y-18703049D01*
X-16269744Y-18857738D01*
X-16146161Y-18953926D01*
X-16105349Y-19010636D01*
X-16101674Y-19080409D01*
X-16134642Y-19139458D01*
X-16255165Y-19259982D01*
X-16316485Y-19293466D01*
X-16342844Y-19296300D01*
X-16695906Y-19296300D01*
X-16762945Y-19276615D01*
X-16808700Y-19223811D01*
X-16813612Y-19211305D01*
X-16834192Y-19149199D01*
X-16865186Y-19055666D01*
X-16957288Y-18906344D01*
X-17081344Y-18782288D01*
X-17081348Y-18782285D01*
X-17187397Y-18716873D01*
X-17234122Y-18664925D01*
X-17246300Y-18611335D01*
X-17246300Y-18480689D01*
X-17246301Y-18480687D01*
X-17257048Y-18426657D01*
X-17273343Y-18344738D01*
X-17273345Y-18344733D01*
X-17326387Y-18216676D01*
X-17403402Y-18101414D01*
X-17504513Y-18000303D01*
X-17504544Y-18000274D01*
X-17622378Y-17882440D01*
X-17655863Y-17821117D01*
X-17652404Y-17755758D01*
X-17610001Y-17627797D01*
X-17599500Y-17525009D01*
X-17599501Y-16599992D01*
X-17610001Y-16497203D01*
X-17665186Y-16330666D01*
X-17757288Y-16181344D01*
X-17881344Y-16057288D01*
X-17974246Y-15999986D01*
X-6874999Y-15999986D01*
X-6864506Y-16102697D01*
X-6809359Y-16269119D01*
X-6809357Y-16269124D01*
X-6717316Y-16418345D01*
X-6593346Y-16542315D01*
X-6444125Y-16634356D01*
X-6444120Y-16634358D01*
X-6277698Y-16689505D01*
X-6277691Y-16689506D01*
X-6174981Y-16699999D01*
X-5750001Y-16699999D01*
X-5250000Y-16699999D01*
X-4825028Y-16699999D01*
X-4825014Y-16699998D01*
X-4722303Y-16689505D01*
X-4555881Y-16634358D01*
X-4555876Y-16634356D01*
X-4406655Y-16542315D01*
X-4282685Y-16418345D01*
X-4190644Y-16269124D01*
X-4190642Y-16269119D01*
X-4135495Y-16102697D01*
X-4135494Y-16102690D01*
X-4125001Y-15999986D01*
X-4125000Y-15999973D01*
X-4125000Y-15800000D01*
X-5250000Y-15800000D01*
X-5250000Y-16699999D01*
X-5750001Y-16699999D01*
X-5750000Y-16699998D01*
X-5750000Y-15800000D01*
X-6874999Y-15800000D01*
X-6874999Y-15999986D01*
X-17974246Y-15999986D01*
X-18030666Y-15965186D01*
X-18197203Y-15910001D01*
X-18197205Y-15910000D01*
X-18299990Y-15899500D01*
X-19700002Y-15899500D01*
X-19700019Y-15899501D01*
X-19802797Y-15910000D01*
X-19802800Y-15910001D01*
X-19969332Y-15965185D01*
X-19969337Y-15965187D01*
X-20118658Y-16057289D01*
X-20134619Y-16073251D01*
X-20195942Y-16106736D01*
X-20265634Y-16101752D01*
X-20321567Y-16059880D01*
X-20345984Y-15994416D01*
X-20346300Y-15985570D01*
X-20346300Y-15100013D01*
X-6875000Y-15100013D01*
X-6875000Y-15300000D01*
X-5750000Y-15300000D01*
X-5250000Y-15300000D01*
X-4125001Y-15300000D01*
X-4125001Y-15100028D01*
X-4125002Y-15100013D01*
X-4135495Y-14997302D01*
X-4190642Y-14830880D01*
X-4190644Y-14830875D01*
X-4282685Y-14681654D01*
X-4406655Y-14557684D01*
X-4555876Y-14465643D01*
X-4555881Y-14465641D01*
X-4722303Y-14410494D01*
X-4722310Y-14410493D01*
X-4825014Y-14400000D01*
X-5250000Y-14400000D01*
X-5250000Y-15300000D01*
X-5750000Y-15300000D01*
X-5750000Y-14400000D01*
X-6174972Y-14400000D01*
X-6174988Y-14400001D01*
X-6277698Y-14410494D01*
X-6444120Y-14465641D01*
X-6444125Y-14465643D01*
X-6593346Y-14557684D01*
X-6717316Y-14681654D01*
X-6809357Y-14830875D01*
X-6809359Y-14830880D01*
X-6864506Y-14997302D01*
X-6864507Y-14997309D01*
X-6875000Y-15100013D01*
X-20346300Y-15100013D01*
X-20346300Y-15013723D01*
X-20326615Y-14946684D01*
X-20273811Y-14900929D01*
X-20204653Y-14890985D01*
X-20141097Y-14920010D01*
X-20134619Y-14926042D01*
X-20118346Y-14942315D01*
X-19969125Y-15034356D01*
X-19969120Y-15034358D01*
X-19802698Y-15089505D01*
X-19802691Y-15089506D01*
X-19699981Y-15099999D01*
X-19250001Y-15099999D01*
X-18750000Y-15099999D01*
X-18300028Y-15099999D01*
X-18300014Y-15099998D01*
X-18197303Y-15089505D01*
X-18030881Y-15034358D01*
X-18030876Y-15034356D01*
X-17881655Y-14942315D01*
X-17757685Y-14818345D01*
X-17665644Y-14669124D01*
X-17665642Y-14669119D01*
X-17610495Y-14502697D01*
X-17610494Y-14502690D01*
X-17600001Y-14399986D01*
X-17600000Y-14399973D01*
X-17600000Y-14187500D01*
X-18750000Y-14187500D01*
X-18750000Y-15099999D01*
X-19250001Y-15099999D01*
X-19250000Y-15099998D01*
X-19250000Y-13687500D01*
X-18750000Y-13687500D01*
X-17600001Y-13687500D01*
X-17600001Y-13475028D01*
X-17600002Y-13475013D01*
X-17610495Y-13372302D01*
X-17651024Y-13249994D01*
X-16755141Y-13249994D01*
X-16755141Y-13250005D01*
X-16734615Y-13497729D01*
X-16734613Y-13497738D01*
X-16673588Y-13738717D01*
X-16573734Y-13966364D01*
X-16473436Y-14119882D01*
X-15773788Y-13420234D01*
X-15762518Y-13462292D01*
X-15690110Y-13587708D01*
X-15587708Y-13690110D01*
X-15462292Y-13762518D01*
X-15420235Y-13773787D01*
X-16120058Y-14473609D01*
X-16073232Y-14510055D01*
X-16073230Y-14510056D01*
X-15854615Y-14628364D01*
X-15854604Y-14628369D01*
X-15619494Y-14709083D01*
X-15374293Y-14750000D01*
X-15125707Y-14750000D01*
X-14880507Y-14709083D01*
X-14645397Y-14628369D01*
X-14645386Y-14628364D01*
X-14426772Y-14510057D01*
X-14426769Y-14510055D01*
X-14379944Y-14473609D01*
X-15079766Y-13773787D01*
X-15037708Y-13762518D01*
X-14912292Y-13690110D01*
X-14809890Y-13587708D01*
X-14737482Y-13462292D01*
X-14726213Y-13420234D01*
X-14026566Y-14119882D01*
X-13926269Y-13966369D01*
X-13826413Y-13738717D01*
X-13765388Y-13497738D01*
X-13765386Y-13497729D01*
X-13744859Y-13250005D01*
X-13744859Y-13249994D01*
X-13765386Y-13002270D01*
X-13765388Y-13002261D01*
X-13826413Y-12761282D01*
X-13926269Y-12533630D01*
X-14013579Y-12399994D01*
X-13505643Y-12399994D01*
X-13505643Y-12400005D01*
X-13485110Y-12647812D01*
X-13485108Y-12647824D01*
X-13424064Y-12888881D01*
X-13324174Y-13116606D01*
X-13188167Y-13324782D01*
X-13188164Y-13324785D01*
X-13019744Y-13507738D01*
X-12823509Y-13660474D01*
X-12604810Y-13778828D01*
X-12369614Y-13859571D01*
X-12124335Y-13900500D01*
X-11875665Y-13900500D01*
X-11630386Y-13859571D01*
X-11395190Y-13778828D01*
X-11176491Y-13660474D01*
X-10980256Y-13507738D01*
X-10811836Y-13324785D01*
X-10762973Y-13249994D01*
X-10255141Y-13249994D01*
X-10255141Y-13250005D01*
X-10234615Y-13497729D01*
X-10234613Y-13497738D01*
X-10173588Y-13738717D01*
X-10073734Y-13966364D01*
X-9973436Y-14119882D01*
X-9273788Y-13420234D01*
X-9262518Y-13462292D01*
X-9190110Y-13587708D01*
X-9087708Y-13690110D01*
X-8962292Y-13762518D01*
X-8920235Y-13773787D01*
X-9620058Y-14473609D01*
X-9573232Y-14510055D01*
X-9573230Y-14510056D01*
X-9354615Y-14628364D01*
X-9354604Y-14628369D01*
X-9119494Y-14709083D01*
X-8874293Y-14750000D01*
X-8625707Y-14750000D01*
X-8380507Y-14709083D01*
X-8145397Y-14628369D01*
X-8145386Y-14628364D01*
X-7926772Y-14510057D01*
X-7926769Y-14510055D01*
X-7879944Y-14473609D01*
X-8579766Y-13773787D01*
X-8537708Y-13762518D01*
X-8412292Y-13690110D01*
X-8309890Y-13587708D01*
X-8237482Y-13462292D01*
X-8226213Y-13420234D01*
X-7526566Y-14119882D01*
X-7426269Y-13966369D01*
X-7326413Y-13738717D01*
X-7265388Y-13497738D01*
X-7265386Y-13497729D01*
X-7244859Y-13250005D01*
X-7244859Y-13249994D01*
X-7265386Y-13002270D01*
X-7265388Y-13002261D01*
X-7326413Y-12761282D01*
X-7426269Y-12533630D01*
X-7526566Y-12380116D01*
X-8226213Y-13079764D01*
X-8237482Y-13037708D01*
X-8309890Y-12912292D01*
X-8412292Y-12809890D01*
X-8537708Y-12737482D01*
X-8579765Y-12726212D01*
X-7879943Y-12026390D01*
X-7879944Y-12026389D01*
X-7926771Y-11989943D01*
X-8145386Y-11871635D01*
X-8145397Y-11871630D01*
X-8380507Y-11790916D01*
X-8625707Y-11750000D01*
X-8874293Y-11750000D01*
X-9119494Y-11790916D01*
X-9354604Y-11871630D01*
X-9354610Y-11871632D01*
X-9573239Y-11989949D01*
X-9620058Y-12026388D01*
X-9620058Y-12026390D01*
X-8920235Y-12726212D01*
X-8962292Y-12737482D01*
X-9087708Y-12809890D01*
X-9190110Y-12912292D01*
X-9262518Y-13037708D01*
X-9273788Y-13079764D01*
X-9973436Y-12380116D01*
X-10073733Y-12533632D01*
X-10173588Y-12761282D01*
X-10234613Y-13002261D01*
X-10234615Y-13002270D01*
X-10255141Y-13249994D01*
X-10762973Y-13249994D01*
X-10675827Y-13116607D01*
X-10575937Y-12888881D01*
X-10514892Y-12647821D01*
X-10494357Y-12400000D01*
X-10495957Y-12380692D01*
X-10514891Y-12152187D01*
X-10514894Y-12152170D01*
X-10523884Y-12116673D01*
X-10546518Y-12027294D01*
X-10543894Y-11957477D01*
X-10513996Y-11909176D01*
X-9844837Y-11240019D01*
X-9783514Y-11206534D01*
X-9757156Y-11203700D01*
X-6619762Y-11203700D01*
X-6552723Y-11223385D01*
X-6506968Y-11276189D01*
X-6497024Y-11345347D01*
X-6526049Y-11408903D01*
X-6554666Y-11433239D01*
X-6593656Y-11457287D01*
X-6717711Y-11581342D01*
X-6809813Y-11730663D01*
X-6809815Y-11730668D01*
X-6837651Y-11814670D01*
X-6864999Y-11897203D01*
X-6864999Y-11897204D01*
X-6865000Y-11897204D01*
X-6875500Y-11999983D01*
X-6875500Y-12900001D01*
X-6875499Y-12900019D01*
X-6865000Y-13002796D01*
X-6864999Y-13002799D01*
X-6809815Y-13169331D01*
X-6809813Y-13169336D01*
X-6787272Y-13205880D01*
X-6717712Y-13318656D01*
X-6593656Y-13442712D01*
X-6444334Y-13534814D01*
X-6277797Y-13589999D01*
X-6175009Y-13600500D01*
X-4824992Y-13600499D01*
X-4722203Y-13589999D01*
X-4555666Y-13534814D01*
X-4406344Y-13442712D01*
X-4282288Y-13318656D01*
X-4190186Y-13169334D01*
X-4135001Y-13002797D01*
X-4124500Y-12900009D01*
X-4124501Y-11999992D01*
X-4125528Y-11989943D01*
X-4135001Y-11897203D01*
X-4135002Y-11897200D01*
X-4190186Y-11730666D01*
X-4282288Y-11581344D01*
X-4406344Y-11457288D01*
X-4555666Y-11365186D01*
X-4644942Y-11335603D01*
X-4711305Y-11313612D01*
X-4768749Y-11273839D01*
X-4795572Y-11209323D01*
X-4796300Y-11195906D01*
X-4796300Y-11075443D01*
X-4796299Y-11075422D01*
X-4796299Y-10930689D01*
X-4796300Y-10930687D01*
X-4800432Y-10909916D01*
X-4823342Y-10794738D01*
X-4874060Y-10672298D01*
X-4875707Y-10667695D01*
X-4876389Y-10666674D01*
X-4876389Y-10666673D01*
X-4953400Y-10551417D01*
X-4953402Y-10551414D01*
X-5054513Y-10450303D01*
X-5054544Y-10450274D01*
X-5449060Y-10055758D01*
X-5449080Y-10055736D01*
X-5551415Y-9953401D01*
X-5609045Y-9914894D01*
X-5666673Y-9876389D01*
X-5666675Y-9876388D01*
X-5794735Y-9823344D01*
X-5794744Y-9823341D01*
X-5794806Y-9823329D01*
X-5794806Y-9823328D01*
X-5930690Y-9796299D01*
X-5930692Y-9796299D01*
X-6069308Y-9796299D01*
X-6075422Y-9796299D01*
X-6075442Y-9796300D01*
X-10024557Y-9796300D01*
X-10024577Y-9796299D01*
X-10030691Y-9796299D01*
X-10169308Y-9796299D01*
X-10169311Y-9796299D01*
X-10305255Y-9823340D01*
X-10305263Y-9823342D01*
X-10389901Y-9858401D01*
X-10433326Y-9876387D01*
X-10548584Y-9953400D01*
X-10597592Y-10002408D01*
X-10646600Y-10051417D01*
X-10646603Y-10051420D01*
X-11505100Y-10909916D01*
X-11566423Y-10943401D01*
X-11624981Y-10939984D01*
X-11625412Y-10941688D01*
X-11630383Y-10940429D01*
X-11875665Y-10899500D01*
X-12124335Y-10899500D01*
X-12369617Y-10940429D01*
X-12604803Y-11021169D01*
X-12604812Y-11021172D01*
X-12823507Y-11139524D01*
X-13019743Y-11292261D01*
X-13188167Y-11475217D01*
X-13324174Y-11683393D01*
X-13424064Y-11911118D01*
X-13485108Y-12152175D01*
X-13485110Y-12152187D01*
X-13505643Y-12399994D01*
X-14013579Y-12399994D01*
X-14026566Y-12380116D01*
X-14726213Y-13079764D01*
X-14737482Y-13037708D01*
X-14809890Y-12912292D01*
X-14912292Y-12809890D01*
X-15037708Y-12737482D01*
X-15079765Y-12726212D01*
X-14379943Y-12026390D01*
X-14379944Y-12026389D01*
X-14426771Y-11989943D01*
X-14645386Y-11871635D01*
X-14645397Y-11871630D01*
X-14880507Y-11790916D01*
X-15125707Y-11750000D01*
X-15374293Y-11750000D01*
X-15619494Y-11790916D01*
X-15854604Y-11871630D01*
X-15854610Y-11871632D01*
X-16073239Y-11989949D01*
X-16120058Y-12026388D01*
X-16120058Y-12026390D01*
X-15420235Y-12726212D01*
X-15462292Y-12737482D01*
X-15587708Y-12809890D01*
X-15690110Y-12912292D01*
X-15762518Y-13037708D01*
X-15773788Y-13079764D01*
X-16473436Y-12380116D01*
X-16573733Y-12533632D01*
X-16673588Y-12761282D01*
X-16734613Y-13002261D01*
X-16734615Y-13002270D01*
X-16755141Y-13249994D01*
X-17651024Y-13249994D01*
X-17665642Y-13205880D01*
X-17665644Y-13205875D01*
X-17757685Y-13056654D01*
X-17881655Y-12932684D01*
X-18030876Y-12840643D01*
X-18030881Y-12840641D01*
X-18197303Y-12785494D01*
X-18197310Y-12785493D01*
X-18300014Y-12775000D01*
X-18750000Y-12775000D01*
X-18750000Y-13687500D01*
X-19250000Y-13687500D01*
X-19250000Y-12775000D01*
X-19699972Y-12775000D01*
X-19699988Y-12775001D01*
X-19802698Y-12785494D01*
X-19969120Y-12840641D01*
X-19969125Y-12840643D01*
X-20118346Y-12932684D01*
X-20134619Y-12948958D01*
X-20195942Y-12982443D01*
X-20265634Y-12977459D01*
X-20321567Y-12935587D01*
X-20345984Y-12870123D01*
X-20346300Y-12861277D01*
X-20346300Y-12380689D01*
X-20346301Y-12380687D01*
X-20373342Y-12244745D01*
X-20373343Y-12244738D01*
X-20373345Y-12244733D01*
X-20426387Y-12116676D01*
X-20503402Y-12001414D01*
X-20604513Y-11900303D01*
X-20604544Y-11900274D01*
X-22759981Y-9744837D01*
X-22793466Y-9683514D01*
X-22796300Y-9657156D01*
X-22796300Y-9229487D01*
X-22776615Y-9162448D01*
X-22723811Y-9116693D01*
X-22654653Y-9106749D01*
X-22625809Y-9116351D01*
X-22625399Y-9115254D01*
X-22482380Y-9168596D01*
X-22482373Y-9168598D01*
X-22422845Y-9174999D01*
X-22422828Y-9175000D01*
X-21775000Y-9175000D01*
X-21775000Y-8258012D01*
X-21717993Y-8290925D01*
X-21590826Y-8325000D01*
X-21459174Y-8325000D01*
X-21332007Y-8290925D01*
X-21275000Y-8258012D01*
X-21275000Y-9175000D01*
X-20627172Y-9175000D01*
X-20627156Y-9174999D01*
X-20567628Y-9168598D01*
X-20567621Y-9168596D01*
X-20432914Y-9118354D01*
X-20432907Y-9118350D01*
X-20317813Y-9032190D01*
X-20317810Y-9032187D01*
X-20231650Y-8917093D01*
X-20231646Y-8917086D01*
X-20181404Y-8782379D01*
X-20181402Y-8782372D01*
X-20175001Y-8722844D01*
X-20175000Y-8722827D01*
X-20175000Y-8075000D01*
X-21091988Y-8075000D01*
X-21059075Y-8017993D01*
X-21025000Y-7890826D01*
X-21025000Y-7759174D01*
X-21059075Y-7632007D01*
X-21091988Y-7575000D01*
X-20175000Y-7575000D01*
X-20175000Y-6927172D01*
X-20175001Y-6927155D01*
X-20181402Y-6867627D01*
X-20181404Y-6867620D01*
X-20231646Y-6732913D01*
X-20231650Y-6732906D01*
X-20317810Y-6617812D01*
X-20317813Y-6617809D01*
X-20432907Y-6531649D01*
X-20432912Y-6531646D01*
X-20564472Y-6482577D01*
X-20620405Y-6440705D01*
X-20644822Y-6375241D01*
X-20629970Y-6306968D01*
X-20608825Y-6278720D01*
X-20486505Y-6156401D01*
X-20416018Y-6055736D01*
X-20406103Y-6041576D01*
X-20351526Y-5997951D01*
X-20304529Y-5988700D01*
X-19860442Y-5988700D01*
X-19860422Y-5988701D01*
X-19854308Y-5988701D01*
X-19715690Y-5988701D01*
X-19624232Y-5970507D01*
X-19579738Y-5961657D01*
X-19451673Y-5908611D01*
X-19446363Y-5905063D01*
X-19336417Y-5831600D01*
X-19238400Y-5733583D01*
X-19238398Y-5733579D01*
X-18919836Y-5415016D01*
X-18858514Y-5381534D01*
X-18832156Y-5378700D01*
X-18521603Y-5378700D01*
X-18454564Y-5398385D01*
G37*
%TD.AperFunction*%
%TA.AperFunction,Conductor*%
G36*
X-15775805Y4776615D02*
G01*
X-15755163Y4759981D01*
X-15240019Y4244837D01*
X-15206534Y4183514D01*
X-15203700Y4157156D01*
X-15203700Y2074444D01*
X-15203701Y2074418D01*
X-15203701Y2069308D01*
X-15203701Y1930692D01*
X-15186149Y1842454D01*
X-15184333Y1833328D01*
X-15184333Y1833326D01*
X-15176659Y1794746D01*
X-15176656Y1794734D01*
X-15123614Y1666677D01*
X-15046599Y1551415D01*
X-14944264Y1449080D01*
X-14944242Y1449060D01*
X-14724726Y1229544D01*
X-14724697Y1229513D01*
X-14623586Y1128402D01*
X-14522855Y1061096D01*
X-14522854Y1061095D01*
X-14508336Y1051394D01*
X-14508321Y1051386D01*
X-14380267Y998345D01*
X-14380262Y998343D01*
X-14380258Y998343D01*
X-14380257Y998342D01*
X-14244312Y971300D01*
X-14244309Y971300D01*
X-14244308Y971300D01*
X-13571603Y971300D01*
X-13504564Y951615D01*
X-13458809Y898811D01*
X-13448865Y829653D01*
X-13452527Y812705D01*
X-13497598Y657574D01*
X-13497599Y657568D01*
X-13500500Y620702D01*
X-13500500Y189299D01*
X-13497599Y152433D01*
X-13497598Y152427D01*
X-13451746Y-5393D01*
X-13451745Y-5396D01*
X-13451744Y-5398D01*
X-13414319Y-68681D01*
X-13368083Y-146862D01*
X-13363298Y-153031D01*
X-13365744Y-154927D01*
X-13339143Y-203642D01*
X-13344127Y-273334D01*
X-13364931Y-305703D01*
X-13363298Y-306969D01*
X-13368083Y-313137D01*
X-13451745Y-454603D01*
X-13451746Y-454606D01*
X-13497598Y-612426D01*
X-13497599Y-612432D01*
X-13500500Y-649298D01*
X-13500500Y-1080701D01*
X-13497599Y-1117567D01*
X-13497598Y-1117573D01*
X-13451746Y-1275393D01*
X-13451745Y-1275396D01*
X-13451744Y-1275398D01*
X-13443120Y-1289981D01*
X-13368083Y-1416862D01*
X-13363298Y-1423031D01*
X-13365744Y-1424927D01*
X-13339143Y-1473642D01*
X-13344127Y-1543334D01*
X-13364931Y-1575703D01*
X-13363298Y-1576969D01*
X-13368083Y-1583137D01*
X-13451745Y-1724603D01*
X-13451746Y-1724606D01*
X-13497598Y-1882426D01*
X-13497599Y-1882432D01*
X-13500500Y-1919298D01*
X-13500500Y-2350701D01*
X-13497599Y-2387567D01*
X-13497598Y-2387573D01*
X-13451746Y-2545393D01*
X-13451745Y-2545396D01*
X-13368083Y-2686862D01*
X-13363298Y-2693031D01*
X-13365744Y-2694927D01*
X-13339143Y-2743642D01*
X-13344127Y-2813334D01*
X-13364931Y-2845703D01*
X-13363298Y-2846969D01*
X-13368083Y-2853137D01*
X-13451745Y-2994603D01*
X-13451746Y-2994606D01*
X-13497598Y-3152426D01*
X-13497599Y-3152432D01*
X-13500500Y-3189298D01*
X-13500500Y-3620701D01*
X-13497599Y-3657567D01*
X-13497598Y-3657573D01*
X-13451746Y-3815393D01*
X-13451745Y-3815396D01*
X-13451744Y-3815398D01*
X-13427377Y-3856600D01*
X-13368083Y-3956862D01*
X-13363298Y-3963031D01*
X-13365744Y-3964927D01*
X-13339143Y-4013642D01*
X-13344127Y-4083334D01*
X-13364931Y-4115703D01*
X-13363298Y-4116969D01*
X-13368083Y-4123137D01*
X-13451745Y-4264603D01*
X-13451746Y-4264606D01*
X-13497598Y-4422426D01*
X-13497599Y-4422432D01*
X-13500500Y-4459298D01*
X-13500500Y-4890701D01*
X-13497599Y-4927567D01*
X-13497598Y-4927573D01*
X-13451746Y-5085393D01*
X-13451745Y-5085396D01*
X-13368083Y-5226862D01*
X-13363298Y-5233031D01*
X-13365631Y-5234840D01*
X-13338790Y-5283995D01*
X-13343774Y-5353687D01*
X-13364530Y-5386021D01*
X-13362903Y-5387283D01*
X-13367687Y-5393449D01*
X-13451282Y-5534801D01*
X-13497101Y-5692513D01*
X-13497296Y-5694998D01*
X-13497295Y-5695000D01*
X-10552705Y-5695000D01*
X-10552705Y-5694998D01*
X-10552900Y-5692513D01*
X-10598719Y-5534801D01*
X-10682315Y-5393447D01*
X-10687100Y-5387278D01*
X-10684634Y-5385364D01*
X-10711198Y-5336776D01*
X-10706251Y-5267082D01*
X-10685144Y-5234232D01*
X-10686699Y-5233026D01*
X-10681923Y-5226868D01*
X-10681919Y-5226865D01*
X-10598256Y-5085398D01*
X-10559406Y-4951677D01*
X-10552403Y-4927573D01*
X-10552402Y-4927567D01*
X-10549500Y-4890694D01*
X-10549500Y-4459306D01*
X-10552402Y-4422431D01*
X-10554969Y-4413597D01*
X-10598255Y-4264606D01*
X-10598256Y-4264603D01*
X-10598256Y-4264602D01*
X-10681919Y-4123135D01*
X-10681922Y-4123132D01*
X-10686702Y-4116969D01*
X-10684250Y-4115066D01*
X-10710845Y-4066421D01*
X-10705896Y-3996726D01*
X-10685060Y-3964304D01*
X-10686702Y-3963031D01*
X-10681925Y-3956870D01*
X-10681919Y-3956865D01*
X-10598256Y-3815398D01*
X-10552402Y-3657569D01*
X-10549500Y-3620694D01*
X-10549500Y-3189306D01*
X-10552402Y-3152431D01*
X-10558972Y-3129816D01*
X-10597473Y-2997295D01*
X-10597274Y-2927426D01*
X-10559332Y-2868756D01*
X-10495694Y-2839912D01*
X-10478397Y-2838700D01*
X-10301121Y-2838700D01*
X-10234082Y-2858385D01*
X-10196129Y-2896726D01*
X-10129816Y-3002262D01*
X-10002262Y-3129816D01*
X-9849522Y-3225789D01*
X-9701740Y-3277500D01*
X-9679255Y-3285368D01*
X-9679250Y-3285369D01*
X-9500004Y-3305565D01*
X-9500000Y-3305565D01*
X-9499996Y-3305565D01*
X-9320751Y-3285369D01*
X-9320748Y-3285368D01*
X-9320745Y-3285368D01*
X-9150478Y-3225789D01*
X-8997738Y-3129816D01*
X-8952444Y-3084521D01*
X-8891123Y-3051037D01*
X-8821432Y-3056021D01*
X-8765498Y-3097892D01*
X-8741080Y-3163356D01*
X-8747722Y-3213157D01*
X-8785368Y-3320742D01*
X-8785370Y-3320750D01*
X-8805565Y-3499996D01*
X-8805565Y-3500003D01*
X-8785370Y-3679249D01*
X-8785369Y-3679254D01*
X-8725789Y-3849523D01*
X-8653667Y-3964304D01*
X-8629816Y-4002262D01*
X-8502262Y-4129816D01*
X-8349522Y-4225789D01*
X-8290319Y-4246505D01*
X-8179255Y-4285368D01*
X-8179250Y-4285369D01*
X-8000004Y-4305565D01*
X-8000000Y-4305565D01*
X-7999996Y-4305565D01*
X-7820751Y-4285369D01*
X-7820748Y-4285368D01*
X-7820745Y-4285368D01*
X-7650478Y-4225789D01*
X-7497738Y-4129816D01*
X-7370184Y-4002262D01*
X-7274211Y-3849522D01*
X-7214632Y-3679255D01*
X-7212189Y-3657573D01*
X-7194435Y-3500003D01*
X-7194435Y-3499996D01*
X-7214631Y-3320750D01*
X-7214634Y-3320737D01*
X-7274211Y-3150478D01*
X-7277296Y-3145567D01*
X-7296300Y-3079599D01*
X-7296300Y-1575443D01*
X-7296299Y-1575422D01*
X-7296299Y-1430689D01*
X-7296300Y-1430687D01*
X-7323341Y-1294744D01*
X-7323342Y-1294738D01*
X-7372254Y-1176657D01*
X-7376389Y-1166673D01*
X-7376391Y-1166670D01*
X-7376392Y-1166667D01*
X-7453397Y-1051421D01*
X-7453403Y-1051413D01*
X-7554513Y-950303D01*
X-7554544Y-950274D01*
X-8084060Y-420758D01*
X-8084080Y-420736D01*
X-8186415Y-318401D01*
X-8301677Y-241386D01*
X-8429736Y-188343D01*
X-8429744Y-188341D01*
X-8565690Y-161299D01*
X-8565692Y-161299D01*
X-8704308Y-161299D01*
X-8710422Y-161299D01*
X-8710442Y-161300D01*
X-10366757Y-161300D01*
X-10433796Y-141615D01*
X-10479551Y-88811D01*
X-10489495Y-19653D01*
X-10460470Y43903D01*
X-10454438Y50381D01*
X-10030510Y474309D01*
X-9551421Y953398D01*
X-9551417Y953400D01*
X-9453400Y1051417D01*
X-9376389Y1166673D01*
X-9323343Y1294738D01*
X-9323340Y1294751D01*
X-9322989Y1296515D01*
X-9322986Y1296515D01*
X-9322986Y1296536D01*
X-9296299Y1430692D01*
X-9296299Y1569309D01*
X-9296299Y1574419D01*
X-9296300Y1574445D01*
X-9296300Y3451756D01*
X-9276615Y3518795D01*
X-9223811Y3564550D01*
X-9154653Y3574494D01*
X-9091097Y3545469D01*
X-9084619Y3539437D01*
X-6931419Y1386237D01*
X-6897934Y1324914D01*
X-6895100Y1298556D01*
X-6895100Y-6822300D01*
X-6914785Y-6889339D01*
X-6967589Y-6935094D01*
X-7019100Y-6946300D01*
X-10929100Y-6946300D01*
X-10996139Y-6926615D01*
X-11041894Y-6873811D01*
X-11051838Y-6804653D01*
X-11022813Y-6741097D01*
X-10964035Y-6703323D01*
X-10963694Y-6703223D01*
X-10939803Y-6696281D01*
X-10798448Y-6612685D01*
X-10798439Y-6612678D01*
X-10682322Y-6496561D01*
X-10682315Y-6496552D01*
X-10598719Y-6355198D01*
X-10552900Y-6197486D01*
X-10552705Y-6195001D01*
X-10552705Y-6195000D01*
X-13497295Y-6195000D01*
X-13497296Y-6195001D01*
X-13497101Y-6197486D01*
X-13451282Y-6355198D01*
X-13367686Y-6496552D01*
X-13367679Y-6496561D01*
X-13251562Y-6612678D01*
X-13251553Y-6612685D01*
X-13110198Y-6696281D01*
X-13086306Y-6703223D01*
X-13027420Y-6740829D01*
X-12998213Y-6804302D01*
X-13007959Y-6873488D01*
X-13053562Y-6926423D01*
X-13120545Y-6946299D01*
X-13120900Y-6946300D01*
X-14007156Y-6946300D01*
X-14074195Y-6926615D01*
X-14094837Y-6909981D01*
X-14759981Y-6244837D01*
X-14793466Y-6183514D01*
X-14796300Y-6157156D01*
X-14796300Y-5584665D01*
X-14797858Y-5576835D01*
X-14823343Y-5448712D01*
X-14844189Y-5398385D01*
X-14876387Y-5320651D01*
X-14876391Y-5320644D01*
X-14893701Y-5294737D01*
X-14953399Y-5205392D01*
X-14953405Y-5205385D01*
X-15054513Y-5104277D01*
X-15054544Y-5104248D01*
X-15463181Y-4695611D01*
X-15496666Y-4634288D01*
X-15499500Y-4607930D01*
X-15499500Y-4459313D01*
X-15499501Y-4459298D01*
X-15502402Y-4422432D01*
X-15502403Y-4422426D01*
X-15548255Y-4264606D01*
X-15548256Y-4264603D01*
X-15548256Y-4264602D01*
X-15631919Y-4123135D01*
X-15631922Y-4123132D01*
X-15636702Y-4116969D01*
X-15634250Y-4115066D01*
X-15660845Y-4066421D01*
X-15655896Y-3996726D01*
X-15635060Y-3964304D01*
X-15636702Y-3963031D01*
X-15631925Y-3956870D01*
X-15631919Y-3956865D01*
X-15548256Y-3815398D01*
X-15502402Y-3657569D01*
X-15499500Y-3620694D01*
X-15499500Y-3189306D01*
X-15502402Y-3152431D01*
X-15508973Y-3129815D01*
X-15548255Y-2994606D01*
X-15548256Y-2994603D01*
X-15548256Y-2994602D01*
X-15631919Y-2853135D01*
X-15631922Y-2853132D01*
X-15636702Y-2846969D01*
X-15634250Y-2845066D01*
X-15660845Y-2796421D01*
X-15655896Y-2726726D01*
X-15635060Y-2694304D01*
X-15636702Y-2693031D01*
X-15631925Y-2686870D01*
X-15631919Y-2686865D01*
X-15548256Y-2545398D01*
X-15502402Y-2387569D01*
X-15499500Y-2350694D01*
X-15499500Y-1919306D01*
X-15502402Y-1882431D01*
X-15504969Y-1873597D01*
X-15548255Y-1724606D01*
X-15548256Y-1724603D01*
X-15548256Y-1724602D01*
X-15631919Y-1583135D01*
X-15631922Y-1583132D01*
X-15636702Y-1576969D01*
X-15634365Y-1575155D01*
X-15661202Y-1526050D01*
X-15656244Y-1456356D01*
X-15635446Y-1423998D01*
X-15637097Y-1422717D01*
X-15632314Y-1416550D01*
X-15548719Y-1275198D01*
X-15502900Y-1117486D01*
X-15502705Y-1115001D01*
X-15502705Y-1115000D01*
X-17101000Y-1115000D01*
X-17168039Y-1095315D01*
X-17213794Y-1042511D01*
X-17225000Y-991000D01*
X-17225000Y-739000D01*
X-17205315Y-671961D01*
X-17152511Y-626206D01*
X-17101000Y-615000D01*
X-15502705Y-615000D01*
X-15502705Y-614998D01*
X-15502900Y-612513D01*
X-15548719Y-454801D01*
X-15632315Y-313447D01*
X-15637100Y-307278D01*
X-15634634Y-305364D01*
X-15661198Y-256776D01*
X-15656251Y-187082D01*
X-15635144Y-154232D01*
X-15636699Y-153026D01*
X-15631923Y-146868D01*
X-15631919Y-146865D01*
X-15548256Y-5398D01*
X-15502402Y152431D01*
X-15499500Y189306D01*
X-15499500Y620694D01*
X-15502402Y657569D01*
X-15504969Y666403D01*
X-15536164Y773776D01*
X-15548256Y815398D01*
X-15631919Y956865D01*
X-15631922Y956868D01*
X-15636702Y963031D01*
X-15634250Y964934D01*
X-15660845Y1013579D01*
X-15655896Y1083274D01*
X-15635060Y1115696D01*
X-15636702Y1116969D01*
X-15631925Y1123130D01*
X-15631919Y1123135D01*
X-15548256Y1264602D01*
X-15502402Y1422431D01*
X-15499500Y1459306D01*
X-15499500Y1890694D01*
X-15502402Y1927569D01*
X-15502417Y1927619D01*
X-15548255Y2085394D01*
X-15548256Y2085397D01*
X-15548256Y2085398D01*
X-15631919Y2226865D01*
X-15631922Y2226868D01*
X-15636702Y2233031D01*
X-15634250Y2234934D01*
X-15660845Y2283579D01*
X-15655896Y2353274D01*
X-15635060Y2385696D01*
X-15636702Y2386969D01*
X-15631925Y2393130D01*
X-15631919Y2393135D01*
X-15548256Y2534602D01*
X-15502402Y2692431D01*
X-15499500Y2729306D01*
X-15499500Y3160694D01*
X-15502402Y3197569D01*
X-15517746Y3250382D01*
X-15548255Y3355394D01*
X-15548256Y3355397D01*
X-15548256Y3355398D01*
X-15631919Y3496865D01*
X-15631921Y3496867D01*
X-15631924Y3496871D01*
X-15748130Y3613077D01*
X-15748138Y3613083D01*
X-15854634Y3676064D01*
X-15889602Y3696744D01*
X-15889603Y3696745D01*
X-15889604Y3696745D01*
X-15889607Y3696746D01*
X-16047427Y3742598D01*
X-16047433Y3742599D01*
X-16084299Y3745500D01*
X-16084306Y3745500D01*
X-17865694Y3745500D01*
X-17865702Y3745500D01*
X-17902568Y3742599D01*
X-17902574Y3742598D01*
X-18060394Y3696746D01*
X-18060399Y3696744D01*
X-18066315Y3693245D01*
X-18134039Y3676064D01*
X-18200302Y3698224D01*
X-18217115Y3712297D01*
X-18949060Y4444242D01*
X-18949080Y4444264D01*
X-19051414Y4546598D01*
X-19051422Y4546604D01*
X-19085236Y4569198D01*
X-19130042Y4622810D01*
X-19138749Y4692135D01*
X-19108595Y4755162D01*
X-19049152Y4791882D01*
X-19016346Y4796300D01*
X-15842844Y4796300D01*
X-15775805Y4776615D01*
G37*
%TD.AperFunction*%
%TA.AperFunction,Conductor*%
G36*
X14724195Y2776615D02*
G01*
X14744837Y2759981D01*
X14900274Y2604544D01*
X14900303Y2604513D01*
X15001413Y2503403D01*
X15001421Y2503397D01*
X15105966Y2433542D01*
X15105967Y2433542D01*
X15111425Y2429896D01*
X15116673Y2426389D01*
X15244738Y2373343D01*
X15244742Y2373343D01*
X15244743Y2373342D01*
X15380688Y2346299D01*
X15380691Y2346299D01*
X15525422Y2346299D01*
X15525442Y2346300D01*
X18050501Y2346300D01*
X18117540Y2326615D01*
X18163295Y2273811D01*
X18174501Y2222300D01*
X18174501Y2152124D01*
X18180908Y2092517D01*
X18231202Y1957672D01*
X18231206Y1957665D01*
X18317452Y1842456D01*
X18317455Y1842453D01*
X18432664Y1756207D01*
X18432671Y1756203D01*
X18564081Y1707190D01*
X18620015Y1665319D01*
X18644432Y1599855D01*
X18629580Y1531582D01*
X18608430Y1503327D01*
X18486503Y1381400D01*
X18406105Y1266577D01*
X18351529Y1222952D01*
X18304530Y1213700D01*
X17585443Y1213700D01*
X17585423Y1213701D01*
X17579309Y1213701D01*
X17440692Y1213701D01*
X17440689Y1213701D01*
X17304744Y1186660D01*
X17304734Y1186657D01*
X17232520Y1156744D01*
X17176674Y1133613D01*
X17061416Y1056600D01*
X17022819Y1018002D01*
X16963400Y958583D01*
X16963397Y958580D01*
X16244837Y240019D01*
X16183514Y206534D01*
X16157156Y203700D01*
X9269692Y203700D01*
X9202653Y223385D01*
X9156898Y276189D01*
X9146954Y345347D01*
X9162960Y390821D01*
X9236282Y514804D01*
X9236283Y514807D01*
X9282099Y672505D01*
X9282100Y672511D01*
X9284999Y709351D01*
X9285000Y709366D01*
X9285000Y1400000D01*
X8359000Y1400000D01*
X8291961Y1419685D01*
X8246206Y1472489D01*
X8235000Y1524000D01*
X8235000Y1776000D01*
X8254685Y1843039D01*
X8307489Y1888794D01*
X8359000Y1900000D01*
X9285000Y1900000D01*
X9285000Y2590635D01*
X9284999Y2590650D01*
X9282100Y2627490D01*
X9282099Y2627496D01*
X9279133Y2637705D01*
X9279332Y2707575D01*
X9317274Y2766245D01*
X9380913Y2795088D01*
X9398209Y2796300D01*
X14657156Y2796300D01*
X14724195Y2776615D01*
G37*
%TD.AperFunction*%
%TA.AperFunction,Conductor*%
G36*
X14331904Y34719083D02*
G01*
X14353809Y34693804D01*
X14391016Y34636853D01*
X14391019Y34636849D01*
X14391021Y34636847D01*
X14548216Y34466087D01*
X14548219Y34466085D01*
X14548222Y34466082D01*
X14731365Y34323536D01*
X14735666Y34320726D01*
X14735077Y34319826D01*
X14780904Y34274349D01*
X14796300Y34214506D01*
X14796300Y28302491D01*
X14776615Y28235452D01*
X14723811Y28189697D01*
X14654653Y28179753D01*
X14591097Y28208778D01*
X14564913Y28240491D01*
X14541936Y28280289D01*
X14394265Y28472738D01*
X14394260Y28472744D01*
X14222743Y28644261D01*
X14222736Y28644267D01*
X14030293Y28791933D01*
X14030292Y28791934D01*
X14030289Y28791936D01*
X13820212Y28913224D01*
X13820205Y28913227D01*
X13596104Y29006053D01*
X13361785Y29068839D01*
X13121289Y29100500D01*
X13121288Y29100500D01*
X12878712Y29100500D01*
X12878711Y29100500D01*
X12638214Y29068839D01*
X12403895Y29006053D01*
X12179794Y28913227D01*
X12179785Y28913223D01*
X11969706Y28791933D01*
X11777263Y28644267D01*
X11777256Y28644261D01*
X11605739Y28472744D01*
X11605733Y28472737D01*
X11458067Y28280294D01*
X11336777Y28070215D01*
X11336773Y28070206D01*
X11243947Y27846105D01*
X11181161Y27611786D01*
X11149500Y27371289D01*
X11149500Y27128712D01*
X11181161Y26888215D01*
X11243947Y26653896D01*
X11336773Y26429795D01*
X11336776Y26429788D01*
X11458064Y26219711D01*
X11458066Y26219708D01*
X11458067Y26219707D01*
X11605733Y26027264D01*
X11605739Y26027257D01*
X11777256Y25855740D01*
X11777262Y25855735D01*
X11969711Y25708064D01*
X12179788Y25586776D01*
X12403900Y25493946D01*
X12638211Y25431162D01*
X12818586Y25407416D01*
X12878711Y25399500D01*
X12878712Y25399500D01*
X13121289Y25399500D01*
X13169388Y25405833D01*
X13361789Y25431162D01*
X13596100Y25493946D01*
X13820212Y25586776D01*
X14030289Y25708064D01*
X14222738Y25855735D01*
X14394265Y26027262D01*
X14541936Y26219711D01*
X14564915Y26259512D01*
X14615479Y26307725D01*
X14684086Y26320949D01*
X14748951Y26294981D01*
X14789480Y26238067D01*
X14796300Y26197510D01*
X14796300Y25342845D01*
X14776615Y25275806D01*
X14759981Y25255164D01*
X14051419Y24546602D01*
X14051417Y24546600D01*
X14002408Y24497592D01*
X13953400Y24448584D01*
X13905162Y24376389D01*
X13876387Y24333325D01*
X13823343Y24205265D01*
X13823341Y24205257D01*
X13796299Y24069311D01*
X13796299Y23924579D01*
X13796300Y23924558D01*
X13796300Y11074444D01*
X13796299Y11074418D01*
X13796299Y10930688D01*
X13822011Y10801429D01*
X13823342Y10794738D01*
X13837268Y10761119D01*
X13876389Y10666673D01*
X13953400Y10551417D01*
X14051417Y10453400D01*
X14051418Y10453400D01*
X14058485Y10446333D01*
X14058484Y10446333D01*
X14058488Y10446330D01*
X14759981Y9744837D01*
X14793466Y9683514D01*
X14796300Y9657156D01*
X14796300Y7735494D01*
X14776615Y7668455D01*
X14735182Y7630025D01*
X14735671Y7629277D01*
X14731376Y7626472D01*
X14731374Y7626470D01*
X14600381Y7524515D01*
X14548217Y7483914D01*
X14391015Y7313146D01*
X14353808Y7256196D01*
X14300662Y7210839D01*
X14231430Y7201416D01*
X14168095Y7230918D01*
X14146192Y7256196D01*
X14108984Y7313146D01*
X14108982Y7313148D01*
X14108979Y7313153D01*
X13951784Y7483913D01*
X13951779Y7483917D01*
X13951777Y7483919D01*
X13768634Y7626465D01*
X13768628Y7626469D01*
X13564504Y7736936D01*
X13564495Y7736939D01*
X13344984Y7812298D01*
X13173282Y7840950D01*
X13116049Y7850500D01*
X12883951Y7850500D01*
X12838164Y7842860D01*
X12655015Y7812298D01*
X12435504Y7736939D01*
X12435495Y7736936D01*
X12231371Y7626469D01*
X12231365Y7626465D01*
X12048222Y7483919D01*
X12048219Y7483916D01*
X11891018Y7313150D01*
X11853510Y7255738D01*
X11800363Y7210382D01*
X11731132Y7200958D01*
X11667796Y7230460D01*
X11653084Y7247438D01*
X11651186Y7247635D01*
X10982962Y6579411D01*
X10965925Y6642993D01*
X10900099Y6757007D01*
X10807007Y6850099D01*
X10692993Y6915925D01*
X10629409Y6932963D01*
X11298797Y7602353D01*
X11298797Y7602355D01*
X11268360Y7626045D01*
X11268354Y7626049D01*
X11064302Y7736477D01*
X11064293Y7736480D01*
X10844860Y7811812D01*
X10616007Y7850000D01*
X10383993Y7850000D01*
X10155139Y7811812D01*
X9935706Y7736480D01*
X9935697Y7736477D01*
X9731650Y7626051D01*
X9701200Y7602353D01*
X10370591Y6932963D01*
X10307007Y6915925D01*
X10192993Y6850099D01*
X10099901Y6757007D01*
X10034075Y6642993D01*
X10017037Y6579409D01*
X9348811Y7247635D01*
X9264516Y7118610D01*
X9171317Y6906136D01*
X9114361Y6681219D01*
X9095202Y6450006D01*
X9095202Y6449995D01*
X9114361Y6218782D01*
X9171317Y5993865D01*
X9264515Y5781394D01*
X9348812Y5652367D01*
X10017037Y6320592D01*
X10034075Y6257007D01*
X10099901Y6142993D01*
X10192993Y6049901D01*
X10307007Y5984075D01*
X10370590Y5967038D01*
X9687063Y5283511D01*
X9683367Y5267255D01*
X9633501Y5218315D01*
X9575097Y5203700D01*
X4075442Y5203700D01*
X4075422Y5203701D01*
X4069308Y5203701D01*
X3930691Y5203701D01*
X3930689Y5203701D01*
X3794743Y5176659D01*
X3794735Y5176657D01*
X3666676Y5123614D01*
X3551416Y5046600D01*
X3502408Y4997592D01*
X3453400Y4948583D01*
X3050381Y4545564D01*
X2989058Y4512079D01*
X2919366Y4517063D01*
X2863433Y4558935D01*
X2839016Y4624399D01*
X2838700Y4633245D01*
X2838700Y13450006D01*
X6094556Y13450006D01*
X6094556Y13449995D01*
X6114310Y13135996D01*
X6114311Y13135989D01*
X6143790Y12981453D01*
X6164362Y12873611D01*
X6173270Y12826917D01*
X6270497Y12527684D01*
X6270499Y12527679D01*
X6404461Y12242997D01*
X6404464Y12242991D01*
X6573051Y11977339D01*
X6573054Y11977335D01*
X6773606Y11734910D01*
X6773608Y11734908D01*
X6773610Y11734906D01*
X6997612Y11524554D01*
X7002968Y11519524D01*
X7002978Y11519516D01*
X7257504Y11334592D01*
X7257509Y11334590D01*
X7257516Y11334584D01*
X7533234Y11183006D01*
X7533239Y11183004D01*
X7533241Y11183003D01*
X7533242Y11183002D01*
X7825771Y11067182D01*
X7825774Y11067181D01*
X8078906Y11002188D01*
X8130527Y10988934D01*
X8196010Y10980662D01*
X8442670Y10949501D01*
X8442679Y10949501D01*
X8442682Y10949500D01*
X8442684Y10949500D01*
X8757316Y10949500D01*
X8757318Y10949500D01*
X8757321Y10949501D01*
X8757329Y10949501D01*
X8943593Y10973032D01*
X9069473Y10988934D01*
X9374225Y11067181D01*
X9374228Y11067182D01*
X9666757Y11183002D01*
X9666758Y11183003D01*
X9666756Y11183003D01*
X9666766Y11183006D01*
X9942484Y11334584D01*
X10197030Y11519522D01*
X10426390Y11734906D01*
X10626947Y11977337D01*
X10795537Y12242993D01*
X10929503Y12527685D01*
X11026731Y12826921D01*
X11085688Y13135985D01*
X11105444Y13450000D01*
X11085688Y13764015D01*
X11026731Y14073079D01*
X10929503Y14372315D01*
X10795537Y14657007D01*
X10760414Y14712352D01*
X10626948Y14922662D01*
X10626945Y14922666D01*
X10426393Y15165091D01*
X10426391Y15165093D01*
X10197031Y15380477D01*
X10197021Y15380485D01*
X9942495Y15565409D01*
X9942488Y15565414D01*
X9942484Y15565416D01*
X9666766Y15716994D01*
X9666763Y15716996D01*
X9666758Y15716998D01*
X9666757Y15716999D01*
X9374228Y15832819D01*
X9374225Y15832820D01*
X9069476Y15911066D01*
X9069463Y15911068D01*
X8757329Y15950500D01*
X8757318Y15950500D01*
X8442682Y15950500D01*
X8442670Y15950500D01*
X8130536Y15911068D01*
X8130523Y15911066D01*
X7825774Y15832820D01*
X7825771Y15832819D01*
X7533242Y15716999D01*
X7533241Y15716998D01*
X7257516Y15565416D01*
X7257504Y15565409D01*
X7002978Y15380485D01*
X7002968Y15380477D01*
X6773608Y15165093D01*
X6773606Y15165091D01*
X6573054Y14922666D01*
X6573051Y14922662D01*
X6404464Y14657010D01*
X6404461Y14657004D01*
X6270499Y14372322D01*
X6270497Y14372317D01*
X6173270Y14073084D01*
X6114311Y13764012D01*
X6114310Y13764005D01*
X6094556Y13450006D01*
X2838700Y13450006D01*
X2838700Y31792156D01*
X2858385Y31859195D01*
X2875019Y31879837D01*
X3255163Y32259981D01*
X3316486Y32293466D01*
X3342844Y32296300D01*
X10430692Y32296300D01*
X12424558Y32296300D01*
X12424578Y32296299D01*
X12430692Y32296299D01*
X12569310Y32296299D01*
X12660768Y32314493D01*
X12705262Y32323343D01*
X12747950Y32341025D01*
X12833323Y32376387D01*
X12833324Y32376388D01*
X12833327Y32376389D01*
X12948583Y32453400D01*
X13046600Y32551417D01*
X13046601Y32551419D01*
X13053667Y32558485D01*
X13053670Y32558489D01*
X13448579Y32953398D01*
X13448583Y32953400D01*
X13546600Y33051417D01*
X13623611Y33166673D01*
X13639595Y33205262D01*
X13676658Y33294738D01*
X13703701Y33430692D01*
X13703701Y33569309D01*
X13703701Y33574419D01*
X13703700Y33574445D01*
X13703700Y34214506D01*
X13723385Y34281545D01*
X13764822Y34319979D01*
X13764334Y34320726D01*
X13768619Y34323527D01*
X13768626Y34323530D01*
X13769170Y34323953D01*
X13830129Y34371400D01*
X13951784Y34466087D01*
X14108979Y34636847D01*
X14146191Y34693804D01*
X14199337Y34739161D01*
X14268569Y34748585D01*
X14331904Y34719083D01*
G37*
%TD.AperFunction*%
%TA.AperFunction,Conductor*%
G36*
X11651186Y5652367D02*
G01*
X11655967Y5652863D01*
X11699036Y5689620D01*
X11768268Y5699044D01*
X11831604Y5669543D01*
X11853509Y5644263D01*
X11891016Y5586853D01*
X11891018Y5586851D01*
X11891021Y5586847D01*
X12048216Y5416087D01*
X12048218Y5416086D01*
X12051690Y5412314D01*
X12050031Y5410788D01*
X12081129Y5359004D01*
X12079006Y5289166D01*
X12039463Y5231563D01*
X11975055Y5204483D01*
X11961145Y5203700D01*
X11424902Y5203700D01*
X11357863Y5223385D01*
X11312108Y5276189D01*
X11310254Y5286193D01*
X10629410Y5967038D01*
X10692993Y5984075D01*
X10807007Y6049901D01*
X10900099Y6142993D01*
X10965925Y6257007D01*
X10982962Y6320591D01*
X11651186Y5652367D01*
G37*
%TD.AperFunction*%
%TA.AperFunction,Conductor*%
G36*
X-10298752Y40526615D02*
G01*
X-10252997Y40473811D01*
X-10242215Y40412060D01*
X-10255643Y40250006D01*
X-10255643Y40249995D01*
X-10235110Y40002188D01*
X-10235108Y40002176D01*
X-10174064Y39761119D01*
X-10074174Y39533394D01*
X-9938167Y39325218D01*
X-9938164Y39325215D01*
X-9769744Y39142262D01*
X-9573509Y38989526D01*
X-9354810Y38871172D01*
X-9119614Y38790429D01*
X-8874335Y38749500D01*
X-8625665Y38749500D01*
X-8380386Y38790429D01*
X-8145190Y38871172D01*
X-7926491Y38989526D01*
X-7730256Y39142262D01*
X-7561836Y39325215D01*
X-7454098Y39490122D01*
X-7400952Y39535478D01*
X-7350289Y39546300D01*
X-92844Y39546300D01*
X-25805Y39526615D01*
X-5163Y39509981D01*
X124981Y39379837D01*
X158466Y39318514D01*
X161300Y39292156D01*
X161300Y11133244D01*
X141615Y11066205D01*
X88811Y11020450D01*
X19653Y11010506D01*
X-43903Y11039531D01*
X-50381Y11045563D01*
X-699060Y11694242D01*
X-699080Y11694264D01*
X-801415Y11796599D01*
X-916677Y11873614D01*
X-1044736Y11926657D01*
X-1044744Y11926659D01*
X-1180690Y11953701D01*
X-1180692Y11953701D01*
X-1319308Y11953701D01*
X-1325422Y11953701D01*
X-1325442Y11953700D01*
X-7350289Y11953700D01*
X-7417328Y11973385D01*
X-7454098Y12009879D01*
X-7561834Y12174783D01*
X-7626119Y12244615D01*
X-7730256Y12357738D01*
X-7926491Y12510474D01*
X-7926493Y12510475D01*
X-7926494Y12510476D01*
X-8145189Y12628828D01*
X-8145198Y12628831D01*
X-8380384Y12709571D01*
X-8625665Y12750500D01*
X-8874335Y12750500D01*
X-9119618Y12709571D01*
X-9124588Y12708312D01*
X-9125045Y12710117D01*
X-9186766Y12707336D01*
X-9244900Y12740083D01*
X-9301417Y12796600D01*
X-9416673Y12873611D01*
X-9416675Y12873612D01*
X-9544735Y12926656D01*
X-9544744Y12926659D01*
X-9544806Y12926671D01*
X-9544806Y12926672D01*
X-9680690Y12953701D01*
X-9680692Y12953701D01*
X-9819308Y12953701D01*
X-9825422Y12953701D01*
X-9825442Y12953700D01*
X-14174557Y12953700D01*
X-14174577Y12953701D01*
X-14180691Y12953701D01*
X-14319308Y12953701D01*
X-14319310Y12953701D01*
X-14455256Y12926660D01*
X-14455262Y12926658D01*
X-14530280Y12895584D01*
X-14583327Y12873612D01*
X-14698582Y12796601D01*
X-14755102Y12740082D01*
X-14816426Y12706598D01*
X-14874985Y12710016D01*
X-14875416Y12708313D01*
X-14880381Y12709571D01*
X-15125665Y12750500D01*
X-15374335Y12750500D01*
X-15619617Y12709571D01*
X-15805258Y12645840D01*
X-15861990Y12642023D01*
X-15862129Y12640604D01*
X-15868191Y12641201D01*
X-15868192Y12641201D01*
X-16006808Y12641201D01*
X-16012922Y12641201D01*
X-16012942Y12641200D01*
X-17578626Y12641200D01*
X-17645665Y12660885D01*
X-17684165Y12700104D01*
X-17688171Y12706598D01*
X-17757288Y12818656D01*
X-17881344Y12942712D01*
X-18030666Y13034814D01*
X-18197203Y13089999D01*
X-18197205Y13090000D01*
X-18299990Y13100500D01*
X-19700002Y13100500D01*
X-19700019Y13100499D01*
X-19802797Y13090000D01*
X-19802800Y13089999D01*
X-19969332Y13034815D01*
X-19969337Y13034813D01*
X-20118658Y12942711D01*
X-20242711Y12818658D01*
X-20334813Y12669337D01*
X-20334815Y12669332D01*
X-20362651Y12585330D01*
X-20389999Y12502797D01*
X-20389999Y12502796D01*
X-20390000Y12502796D01*
X-20400500Y12400017D01*
X-20400500Y11474999D01*
X-20400499Y11474981D01*
X-20390000Y11372204D01*
X-20389999Y11372201D01*
X-20334815Y11205669D01*
X-20334813Y11205664D01*
X-20320835Y11183002D01*
X-20242712Y11056344D01*
X-20118656Y10932288D01*
X-19969334Y10840186D01*
X-19802797Y10785001D01*
X-19700009Y10774500D01*
X-18299992Y10774501D01*
X-18197203Y10785001D01*
X-18030666Y10840186D01*
X-17881344Y10932288D01*
X-17757288Y11056344D01*
X-17684165Y11174897D01*
X-17632217Y11221621D01*
X-17578626Y11233800D01*
X-16868451Y11233800D01*
X-16801412Y11214115D01*
X-16755657Y11161311D01*
X-16744875Y11120040D01*
X-16735110Y11002188D01*
X-16735108Y11002176D01*
X-16674064Y10761119D01*
X-16574174Y10533394D01*
X-16438167Y10325218D01*
X-16438164Y10325215D01*
X-16269744Y10142262D01*
X-16073509Y9989526D01*
X-15854810Y9871172D01*
X-15653701Y9802131D01*
X-15619801Y9790493D01*
X-15619614Y9790429D01*
X-15374335Y9749500D01*
X-15125665Y9749500D01*
X-14880386Y9790429D01*
X-14645190Y9871172D01*
X-14426491Y9989526D01*
X-14230256Y10142262D01*
X-14061836Y10325215D01*
X-13925827Y10533393D01*
X-13825937Y10761119D01*
X-13764892Y11002179D01*
X-13760404Y11056343D01*
X-13744357Y11249995D01*
X-13744357Y11250006D01*
X-13757785Y11412060D01*
X-13743704Y11480496D01*
X-13694859Y11530455D01*
X-13634209Y11546300D01*
X-13266937Y11546300D01*
X-13199898Y11526615D01*
X-13154143Y11473811D01*
X-13144199Y11404653D01*
X-13173224Y11341097D01*
X-13175706Y11338318D01*
X-13188167Y11324783D01*
X-13324174Y11116607D01*
X-13424064Y10888882D01*
X-13485108Y10647825D01*
X-13485110Y10647813D01*
X-13505643Y10400006D01*
X-13505643Y10399995D01*
X-13485110Y10152188D01*
X-13485108Y10152175D01*
X-13453484Y10027296D01*
X-13456110Y9957475D01*
X-13486009Y9909175D01*
X-13738027Y9657156D01*
X-13948580Y9446603D01*
X-13948583Y9446600D01*
X-13997592Y9397592D01*
X-14046600Y9348584D01*
X-14084232Y9292262D01*
X-14123613Y9233325D01*
X-14176657Y9105265D01*
X-14176659Y9105257D01*
X-14203701Y8969311D01*
X-14203701Y8824579D01*
X-14203700Y8824558D01*
X-14203700Y5574444D01*
X-14203701Y5574418D01*
X-14203701Y5498246D01*
X-14223386Y5431207D01*
X-14276190Y5385452D01*
X-14345348Y5375508D01*
X-14408904Y5404533D01*
X-14415382Y5410565D01*
X-14946330Y5941512D01*
X-14946333Y5941516D01*
X-14946333Y5941515D01*
X-14953400Y5948582D01*
X-14953400Y5948583D01*
X-15051417Y6046600D01*
X-15166673Y6123611D01*
X-15166672Y6123611D01*
X-15166677Y6123614D01*
X-15294736Y6176657D01*
X-15294744Y6176659D01*
X-15430690Y6203701D01*
X-15430692Y6203701D01*
X-15569308Y6203701D01*
X-15575422Y6203701D01*
X-15575442Y6203700D01*
X-20657156Y6203700D01*
X-20724195Y6223385D01*
X-20744837Y6240019D01*
X-20759981Y6255163D01*
X-20793466Y6316486D01*
X-20796300Y6342844D01*
X-20796300Y14600014D01*
X-20399999Y14600014D01*
X-20389506Y14497303D01*
X-20334359Y14330881D01*
X-20334357Y14330876D01*
X-20242316Y14181655D01*
X-20118346Y14057685D01*
X-19969125Y13965644D01*
X-19969120Y13965642D01*
X-19802698Y13910495D01*
X-19802691Y13910494D01*
X-19699981Y13900001D01*
X-19250001Y13900001D01*
X-18750000Y13900001D01*
X-18300028Y13900001D01*
X-18300014Y13900002D01*
X-18197303Y13910495D01*
X-18030881Y13965642D01*
X-18030876Y13965644D01*
X-17881655Y14057685D01*
X-17757685Y14181655D01*
X-17665644Y14330876D01*
X-17665642Y14330881D01*
X-17610495Y14497303D01*
X-17610494Y14497310D01*
X-17600001Y14600014D01*
X-17600000Y14600027D01*
X-17600000Y14812500D01*
X-18750000Y14812500D01*
X-18750000Y13900001D01*
X-19250001Y13900001D01*
X-19250000Y13900002D01*
X-19250000Y14812500D01*
X-20399999Y14812500D01*
X-20399999Y14600014D01*
X-20796300Y14600014D01*
X-20796300Y15524987D01*
X-20400000Y15524987D01*
X-20400000Y15312500D01*
X-19250000Y15312500D01*
X-18750000Y15312500D01*
X-17600001Y15312500D01*
X-17600001Y15524972D01*
X-17600002Y15524987D01*
X-17610495Y15627698D01*
X-17651024Y15750006D01*
X-16755141Y15750006D01*
X-16755141Y15749995D01*
X-16734615Y15502271D01*
X-16734613Y15502262D01*
X-16673588Y15261283D01*
X-16573734Y15033636D01*
X-16473436Y14880118D01*
X-15773788Y15579766D01*
X-15762518Y15537708D01*
X-15690110Y15412292D01*
X-15587708Y15309890D01*
X-15462292Y15237482D01*
X-15420235Y15226213D01*
X-16120058Y14526391D01*
X-16073232Y14489945D01*
X-16073230Y14489944D01*
X-15854615Y14371636D01*
X-15854604Y14371631D01*
X-15619494Y14290917D01*
X-15374293Y14250000D01*
X-15125707Y14250000D01*
X-14880507Y14290917D01*
X-14645397Y14371631D01*
X-14645386Y14371636D01*
X-14426772Y14489943D01*
X-14426769Y14489945D01*
X-14379944Y14526391D01*
X-15079766Y15226213D01*
X-15037708Y15237482D01*
X-14912292Y15309890D01*
X-14809890Y15412292D01*
X-14737482Y15537708D01*
X-14726213Y15579766D01*
X-14026566Y14880118D01*
X-13926269Y15033631D01*
X-13826413Y15261283D01*
X-13765388Y15502262D01*
X-13765386Y15502271D01*
X-13744859Y15749995D01*
X-13744859Y15750006D01*
X-13765386Y15997730D01*
X-13765388Y15997739D01*
X-13826413Y16238718D01*
X-13926269Y16466370D01*
X-14013579Y16600006D01*
X-13505643Y16600006D01*
X-13505643Y16599995D01*
X-13485110Y16352188D01*
X-13485108Y16352176D01*
X-13424064Y16111119D01*
X-13324174Y15883394D01*
X-13188167Y15675218D01*
X-13188164Y15675215D01*
X-13019744Y15492262D01*
X-12823509Y15339526D01*
X-12604810Y15221172D01*
X-12369614Y15140429D01*
X-12124335Y15099500D01*
X-11875665Y15099500D01*
X-11630386Y15140429D01*
X-11395190Y15221172D01*
X-11176491Y15339526D01*
X-10980256Y15492262D01*
X-10811836Y15675215D01*
X-10762973Y15750006D01*
X-10255141Y15750006D01*
X-10255141Y15749995D01*
X-10234615Y15502271D01*
X-10234613Y15502262D01*
X-10173588Y15261283D01*
X-10073734Y15033636D01*
X-9973436Y14880118D01*
X-9273788Y15579766D01*
X-9262518Y15537708D01*
X-9190110Y15412292D01*
X-9087708Y15309890D01*
X-8962292Y15237482D01*
X-8920235Y15226213D01*
X-9620058Y14526391D01*
X-9573232Y14489945D01*
X-9573230Y14489944D01*
X-9354615Y14371636D01*
X-9354604Y14371631D01*
X-9119494Y14290917D01*
X-8874293Y14250000D01*
X-8625707Y14250000D01*
X-8380507Y14290917D01*
X-8145397Y14371631D01*
X-8145386Y14371636D01*
X-7926772Y14489943D01*
X-7926769Y14489945D01*
X-7879944Y14526391D01*
X-8579766Y15226213D01*
X-8537708Y15237482D01*
X-8412292Y15309890D01*
X-8309890Y15412292D01*
X-8237482Y15537708D01*
X-8226213Y15579766D01*
X-7526566Y14880118D01*
X-7426269Y15033631D01*
X-7326413Y15261283D01*
X-7265388Y15502262D01*
X-7265386Y15502271D01*
X-7244859Y15749995D01*
X-7244859Y15750006D01*
X-7265386Y15997730D01*
X-7265388Y15997739D01*
X-7326413Y16238718D01*
X-7426269Y16466370D01*
X-7526566Y16619884D01*
X-8226213Y15920236D01*
X-8237482Y15962292D01*
X-8309890Y16087708D01*
X-8412292Y16190110D01*
X-8537708Y16262518D01*
X-8579765Y16273788D01*
X-7879943Y16973610D01*
X-7879944Y16973611D01*
X-7926771Y17010057D01*
X-8145386Y17128365D01*
X-8145397Y17128370D01*
X-8380507Y17209084D01*
X-8625707Y17250000D01*
X-8874293Y17250000D01*
X-9119494Y17209084D01*
X-9354604Y17128370D01*
X-9354610Y17128368D01*
X-9573239Y17010051D01*
X-9620058Y16973612D01*
X-9620058Y16973610D01*
X-8920235Y16273788D01*
X-8962292Y16262518D01*
X-9087708Y16190110D01*
X-9190110Y16087708D01*
X-9262518Y15962292D01*
X-9273788Y15920236D01*
X-9973436Y16619884D01*
X-10073733Y16466368D01*
X-10173588Y16238718D01*
X-10234613Y15997739D01*
X-10234615Y15997730D01*
X-10255141Y15750006D01*
X-10762973Y15750006D01*
X-10675827Y15883393D01*
X-10575937Y16111119D01*
X-10514892Y16352179D01*
X-10494357Y16600000D01*
X-10496005Y16619884D01*
X-10514891Y16847813D01*
X-10514893Y16847825D01*
X-10575937Y17088882D01*
X-10675827Y17316607D01*
X-10811835Y17524783D01*
X-10811836Y17524785D01*
X-10813538Y17526634D01*
X-10813994Y17527557D01*
X-10814979Y17528823D01*
X-10814719Y17529027D01*
X-10844454Y17589292D01*
X-10846300Y17610608D01*
X-10846300Y18611336D01*
X-10826615Y18678375D01*
X-10787396Y18716875D01*
X-10681344Y18782288D01*
X-10557288Y18906344D01*
X-10465186Y19055666D01*
X-10410001Y19222203D01*
X-10399500Y19324991D01*
X-10399500Y19325014D01*
X-9599999Y19325014D01*
X-9589506Y19222303D01*
X-9534359Y19055881D01*
X-9534357Y19055876D01*
X-9442316Y18906655D01*
X-9318346Y18782685D01*
X-9169125Y18690644D01*
X-9169120Y18690642D01*
X-9002698Y18635495D01*
X-9002691Y18635494D01*
X-8899981Y18625001D01*
X-8700001Y18625001D01*
X-8200000Y18625001D01*
X-8000028Y18625001D01*
X-8000014Y18625002D01*
X-7897303Y18635495D01*
X-7730881Y18690642D01*
X-7730876Y18690644D01*
X-7581655Y18782685D01*
X-7457685Y18906655D01*
X-7365644Y19055876D01*
X-7365642Y19055881D01*
X-7310495Y19222303D01*
X-7310494Y19222310D01*
X-7300001Y19325014D01*
X-7300000Y19325027D01*
X-7300000Y19750000D01*
X-8200000Y19750000D01*
X-8200000Y18625001D01*
X-8700001Y18625001D01*
X-8700000Y18625002D01*
X-8700000Y19750000D01*
X-9599999Y19750000D01*
X-9599999Y19325014D01*
X-10399500Y19325014D01*
X-10399501Y20674987D01*
X-9600000Y20674987D01*
X-9600000Y20250000D01*
X-8700000Y20250000D01*
X-8200000Y20250000D01*
X-7300001Y20250000D01*
X-7300001Y20674972D01*
X-7300002Y20674987D01*
X-7310495Y20777698D01*
X-7365642Y20944120D01*
X-7365644Y20944125D01*
X-7457685Y21093346D01*
X-7581655Y21217316D01*
X-7730876Y21309357D01*
X-7730881Y21309359D01*
X-7897303Y21364506D01*
X-7897310Y21364507D01*
X-8000014Y21375000D01*
X-8200000Y21375000D01*
X-8200000Y20250000D01*
X-8700000Y20250000D01*
X-8700000Y21375000D01*
X-8899971Y21375000D01*
X-8899988Y21374999D01*
X-9002698Y21364506D01*
X-9169120Y21309359D01*
X-9169125Y21309357D01*
X-9318346Y21217316D01*
X-9442316Y21093346D01*
X-9534357Y20944125D01*
X-9534359Y20944120D01*
X-9589506Y20777698D01*
X-9589507Y20777691D01*
X-9600000Y20674987D01*
X-10399501Y20674987D01*
X-10399501Y20675008D01*
X-10410001Y20777797D01*
X-10465186Y20944334D01*
X-10557288Y21093656D01*
X-10681344Y21217712D01*
X-10830666Y21309814D01*
X-10997203Y21364999D01*
X-10997205Y21365000D01*
X-11099990Y21375500D01*
X-12000002Y21375500D01*
X-12000020Y21375499D01*
X-12102797Y21365000D01*
X-12102800Y21364999D01*
X-12269332Y21309815D01*
X-12269337Y21309813D01*
X-12418658Y21217711D01*
X-12542711Y21093658D01*
X-12634813Y20944337D01*
X-12634815Y20944332D01*
X-12634885Y20944120D01*
X-12689999Y20777797D01*
X-12689999Y20777796D01*
X-12690000Y20777796D01*
X-12700500Y20675017D01*
X-12700500Y19324999D01*
X-12700499Y19324982D01*
X-12690000Y19222204D01*
X-12689999Y19222201D01*
X-12634885Y19055881D01*
X-12634814Y19055666D01*
X-12542904Y18906655D01*
X-12542711Y18906343D01*
X-12418656Y18782288D01*
X-12312604Y18716875D01*
X-12265879Y18664927D01*
X-12253700Y18611336D01*
X-12253700Y18183937D01*
X-12273385Y18116898D01*
X-12326189Y18071143D01*
X-12357288Y18061629D01*
X-12369613Y18059573D01*
X-12604803Y17978831D01*
X-12604812Y17978828D01*
X-12823507Y17860476D01*
X-13019743Y17707739D01*
X-13188167Y17524783D01*
X-13324174Y17316607D01*
X-13424064Y17088882D01*
X-13485108Y16847825D01*
X-13485110Y16847813D01*
X-13505643Y16600006D01*
X-14013579Y16600006D01*
X-14026566Y16619884D01*
X-14726213Y15920236D01*
X-14737482Y15962292D01*
X-14809890Y16087708D01*
X-14912292Y16190110D01*
X-15037708Y16262518D01*
X-15079765Y16273788D01*
X-14379943Y16973610D01*
X-14379944Y16973611D01*
X-14426771Y17010057D01*
X-14645386Y17128365D01*
X-14645397Y17128370D01*
X-14880507Y17209084D01*
X-15125707Y17250000D01*
X-15374293Y17250000D01*
X-15619494Y17209084D01*
X-15854604Y17128370D01*
X-15854610Y17128368D01*
X-16073239Y17010051D01*
X-16120058Y16973612D01*
X-16120058Y16973610D01*
X-15420235Y16273788D01*
X-15462292Y16262518D01*
X-15587708Y16190110D01*
X-15690110Y16087708D01*
X-15762518Y15962292D01*
X-15773788Y15920236D01*
X-16473436Y16619884D01*
X-16573733Y16466368D01*
X-16673588Y16238718D01*
X-16734613Y15997739D01*
X-16734615Y15997730D01*
X-16755141Y15750006D01*
X-17651024Y15750006D01*
X-17665642Y15794120D01*
X-17665644Y15794125D01*
X-17757685Y15943346D01*
X-17881655Y16067316D01*
X-18030876Y16159357D01*
X-18030881Y16159359D01*
X-18197303Y16214506D01*
X-18197310Y16214507D01*
X-18300014Y16225000D01*
X-18750000Y16225000D01*
X-18750000Y15312500D01*
X-19250000Y15312500D01*
X-19250000Y16225000D01*
X-19699972Y16225000D01*
X-19699988Y16224999D01*
X-19802698Y16214506D01*
X-19969120Y16159359D01*
X-19969125Y16159357D01*
X-20118346Y16067316D01*
X-20242316Y15943346D01*
X-20334357Y15794125D01*
X-20334359Y15794120D01*
X-20389506Y15627698D01*
X-20389507Y15627691D01*
X-20400000Y15524987D01*
X-20796300Y15524987D01*
X-20796300Y36657156D01*
X-20776615Y36724195D01*
X-20759981Y36744837D01*
X-20744837Y36759981D01*
X-20683514Y36793466D01*
X-20657156Y36796300D01*
X-12575442Y36796300D01*
X-12575422Y36796299D01*
X-12569308Y36796299D01*
X-12430690Y36796299D01*
X-12339232Y36814493D01*
X-12294738Y36823343D01*
X-12201865Y36861812D01*
X-12166677Y36876387D01*
X-12166676Y36876388D01*
X-12166673Y36876389D01*
X-12051417Y36953400D01*
X-11953400Y37051417D01*
X-11953399Y37051419D01*
X-11946333Y37058485D01*
X-11946330Y37058489D01*
X-11551421Y37453398D01*
X-11551417Y37453400D01*
X-11453400Y37551417D01*
X-11441445Y37569308D01*
X-11376388Y37666675D01*
X-11360405Y37705261D01*
X-11349550Y37731469D01*
X-11323342Y37794738D01*
X-11296299Y37930692D01*
X-11296299Y38000802D01*
X-11276614Y38067841D01*
X-11231318Y38109856D01*
X-11176491Y38139526D01*
X-10980256Y38292262D01*
X-10811836Y38475215D01*
X-10675827Y38683393D01*
X-10575937Y38911119D01*
X-10514892Y39152179D01*
X-10501109Y39318514D01*
X-10494357Y39399995D01*
X-10494357Y39400006D01*
X-10514891Y39647813D01*
X-10514893Y39647825D01*
X-10575937Y39888882D01*
X-10675827Y40116607D01*
X-10811834Y40324783D01*
X-10824294Y40338318D01*
X-10855215Y40400973D01*
X-10847354Y40470399D01*
X-10803207Y40524554D01*
X-10736789Y40546244D01*
X-10733063Y40546300D01*
X-10365791Y40546300D01*
X-10298752Y40526615D01*
G37*
%TD.AperFunction*%
%TA.AperFunction,Conductor*%
G36*
X1773903Y38230469D02*
G01*
X1780377Y38224441D01*
X2453399Y37551418D01*
X2453400Y37551417D01*
X2551417Y37453400D01*
X2666673Y37376389D01*
X2719720Y37354417D01*
X2794739Y37323342D01*
X2794741Y37323342D01*
X2794743Y37323341D01*
X2930689Y37296299D01*
X2930692Y37296299D01*
X3075423Y37296299D01*
X3075443Y37296300D01*
X14657156Y37296300D01*
X14724195Y37276615D01*
X14744837Y37259981D01*
X14759981Y37244837D01*
X14793466Y37183514D01*
X14796300Y37157156D01*
X14796300Y36785494D01*
X14776615Y36718455D01*
X14735182Y36680025D01*
X14735671Y36679277D01*
X14731376Y36676472D01*
X14731374Y36676470D01*
X14600381Y36574515D01*
X14548217Y36533914D01*
X14391015Y36363146D01*
X14353808Y36306196D01*
X14300662Y36260839D01*
X14231430Y36251416D01*
X14168095Y36280918D01*
X14146192Y36306196D01*
X14108984Y36363146D01*
X14108982Y36363148D01*
X14108979Y36363153D01*
X13951784Y36533913D01*
X13951779Y36533917D01*
X13951777Y36533919D01*
X13768634Y36676465D01*
X13768628Y36676469D01*
X13564504Y36786936D01*
X13564495Y36786939D01*
X13344984Y36862298D01*
X13173282Y36890950D01*
X13116049Y36900500D01*
X12883951Y36900500D01*
X12838164Y36892860D01*
X12655015Y36862298D01*
X12435504Y36786939D01*
X12435495Y36786936D01*
X12231371Y36676469D01*
X12231365Y36676465D01*
X12048222Y36533919D01*
X12048219Y36533916D01*
X11891018Y36363150D01*
X11853510Y36305738D01*
X11800363Y36260382D01*
X11731132Y36250958D01*
X11667796Y36280460D01*
X11653084Y36297438D01*
X11651186Y36297635D01*
X10982962Y35629411D01*
X10965925Y35692993D01*
X10900099Y35807007D01*
X10807007Y35900099D01*
X10692993Y35965925D01*
X10629409Y35982963D01*
X11298797Y36652353D01*
X11298797Y36652355D01*
X11268360Y36676045D01*
X11268354Y36676049D01*
X11064302Y36786477D01*
X11064293Y36786480D01*
X10844860Y36861812D01*
X10616007Y36900000D01*
X10383993Y36900000D01*
X10155139Y36861812D01*
X9935706Y36786480D01*
X9935697Y36786477D01*
X9731650Y36676051D01*
X9701200Y36652353D01*
X10370591Y35982963D01*
X10307007Y35965925D01*
X10192993Y35900099D01*
X10099901Y35807007D01*
X10034075Y35692993D01*
X10017037Y35629409D01*
X9348811Y36297635D01*
X9264516Y36168610D01*
X9171317Y35956136D01*
X9114361Y35731219D01*
X9095202Y35500006D01*
X9095202Y35499995D01*
X9114361Y35268782D01*
X9171317Y35043865D01*
X9264515Y34831394D01*
X9348812Y34702367D01*
X10017037Y35370592D01*
X10034075Y35307007D01*
X10099901Y35192993D01*
X10192993Y35099901D01*
X10307007Y35034075D01*
X10370590Y35017038D01*
X9701201Y34347649D01*
X9731649Y34323950D01*
X9935697Y34213524D01*
X9935706Y34213521D01*
X10155139Y34138189D01*
X10383993Y34100000D01*
X10616007Y34100000D01*
X10844860Y34138189D01*
X11064293Y34213521D01*
X11064301Y34213524D01*
X11268355Y34323953D01*
X11298797Y34347649D01*
X11298798Y34347650D01*
X10629410Y35017038D01*
X10692993Y35034075D01*
X10807007Y35099901D01*
X10900099Y35192993D01*
X10965925Y35307007D01*
X10982962Y35370591D01*
X11651186Y34702367D01*
X11655967Y34702863D01*
X11699036Y34739620D01*
X11768268Y34749044D01*
X11831604Y34719543D01*
X11853509Y34694263D01*
X11891016Y34636853D01*
X11891019Y34636849D01*
X11891021Y34636847D01*
X12048216Y34466087D01*
X12048219Y34466085D01*
X12048222Y34466082D01*
X12231365Y34323536D01*
X12235666Y34320726D01*
X12235077Y34319826D01*
X12280904Y34274349D01*
X12296300Y34214506D01*
X12296300Y33842844D01*
X12276615Y33775805D01*
X12259981Y33755163D01*
X12244837Y33740019D01*
X12183514Y33706534D01*
X12157156Y33703700D01*
X3075443Y33703700D01*
X3075423Y33703701D01*
X3069309Y33703701D01*
X2930692Y33703701D01*
X2930689Y33703701D01*
X2794745Y33676661D01*
X2794736Y33676658D01*
X2704180Y33639148D01*
X2666678Y33623614D01*
X2666674Y33623612D01*
X2666673Y33623611D01*
X2627740Y33597598D01*
X2551416Y33546600D01*
X2502408Y33497592D01*
X2453400Y33448583D01*
X1780381Y32775564D01*
X1719058Y32742079D01*
X1649366Y32747063D01*
X1593433Y32788935D01*
X1569016Y32854399D01*
X1568700Y32863245D01*
X1568700Y38136756D01*
X1588385Y38203795D01*
X1641189Y38249550D01*
X1710347Y38259494D01*
X1773903Y38230469D01*
G37*
%TD.AperFunction*%
%TA.AperFunction,Conductor*%
G36*
X-13071569Y50276615D02*
G01*
X-13025814Y50223811D01*
X-13015870Y50154653D01*
X-13039334Y50100059D01*
X-13038920Y50099803D01*
X-13040646Y50097006D01*
X-13041339Y50095392D01*
X-13042712Y50093657D01*
X-13134813Y49944337D01*
X-13134815Y49944332D01*
X-13134885Y49944120D01*
X-13189999Y49777797D01*
X-13189999Y49777796D01*
X-13190000Y49777796D01*
X-13200500Y49675017D01*
X-13200500Y48324999D01*
X-13200499Y48324982D01*
X-13190000Y48222204D01*
X-13189999Y48222201D01*
X-13134885Y48055881D01*
X-13134814Y48055666D01*
X-13042712Y47906344D01*
X-12918656Y47782288D01*
X-12769334Y47690186D01*
X-12769333Y47690186D01*
X-12763187Y47686395D01*
X-12764836Y47683724D01*
X-12722936Y47646921D01*
X-12703700Y47580585D01*
X-12703700Y46999201D01*
X-12723385Y46932162D01*
X-12768681Y46890147D01*
X-12823504Y46860478D01*
X-12823506Y46860477D01*
X-13019743Y46707739D01*
X-13188167Y46524783D01*
X-13324174Y46316607D01*
X-13424064Y46088882D01*
X-13485108Y45847825D01*
X-13485110Y45847813D01*
X-13505643Y45600006D01*
X-13505643Y45599995D01*
X-13485110Y45352188D01*
X-13485108Y45352176D01*
X-13424064Y45111119D01*
X-13324174Y44883394D01*
X-13188167Y44675218D01*
X-13188164Y44675215D01*
X-13019744Y44492262D01*
X-12823509Y44339526D01*
X-12604810Y44221172D01*
X-12369614Y44140429D01*
X-12124335Y44099500D01*
X-11875665Y44099500D01*
X-11630386Y44140429D01*
X-11395190Y44221172D01*
X-11176491Y44339526D01*
X-10980256Y44492262D01*
X-10811836Y44675215D01*
X-10675827Y44883393D01*
X-10575937Y45111119D01*
X-10514892Y45352179D01*
X-10511365Y45394738D01*
X-10494357Y45599995D01*
X-10494357Y45600006D01*
X-10514891Y45847813D01*
X-10514893Y45847825D01*
X-10575937Y46088882D01*
X-10675827Y46316607D01*
X-10811834Y46524783D01*
X-10902812Y46623611D01*
X-10980256Y46707738D01*
X-11176491Y46860474D01*
X-11176492Y46860475D01*
X-11176495Y46860477D01*
X-11176497Y46860478D01*
X-11231319Y46890147D01*
X-11280909Y46939368D01*
X-11296300Y46999201D01*
X-11296300Y47642177D01*
X-11276615Y47709216D01*
X-11237399Y47747714D01*
X-11181344Y47782288D01*
X-11057288Y47906344D01*
X-10965186Y48055666D01*
X-10910001Y48222203D01*
X-10899500Y48324991D01*
X-10899500Y48325014D01*
X-10099999Y48325014D01*
X-10089506Y48222303D01*
X-10034359Y48055881D01*
X-10034357Y48055876D01*
X-9942316Y47906655D01*
X-9818346Y47782685D01*
X-9669125Y47690644D01*
X-9669120Y47690642D01*
X-9502698Y47635495D01*
X-9502691Y47635494D01*
X-9399981Y47625001D01*
X-9200001Y47625001D01*
X-8700000Y47625001D01*
X-8500028Y47625001D01*
X-8500014Y47625002D01*
X-8397303Y47635495D01*
X-8230881Y47690642D01*
X-8230876Y47690644D01*
X-8081655Y47782685D01*
X-7957685Y47906655D01*
X-7865644Y48055876D01*
X-7865642Y48055881D01*
X-7810495Y48222303D01*
X-7810494Y48222310D01*
X-7800001Y48325014D01*
X-7800000Y48325027D01*
X-7800000Y48750000D01*
X-8700000Y48750000D01*
X-8700000Y47625001D01*
X-9200001Y47625001D01*
X-9200000Y47625002D01*
X-9200000Y48750000D01*
X-10099999Y48750000D01*
X-10099999Y48325014D01*
X-10899500Y48325014D01*
X-10899501Y49675008D01*
X-10901527Y49694837D01*
X-10910001Y49777797D01*
X-10910002Y49777800D01*
X-10965186Y49944334D01*
X-11057288Y50093656D01*
X-11057289Y50093657D01*
X-11058661Y50095392D01*
X-11059232Y50096806D01*
X-11061080Y50099803D01*
X-11060568Y50100119D01*
X-11084799Y50160188D01*
X-11071757Y50228830D01*
X-11023674Y50279524D01*
X-10961392Y50296300D01*
X-10037966Y50296300D01*
X-9970927Y50276615D01*
X-9925172Y50223811D01*
X-9915228Y50154653D01*
X-9938851Y50099692D01*
X-9938525Y50099491D01*
X-9939882Y50097292D01*
X-9940699Y50095390D01*
X-9942316Y50093346D01*
X-10034357Y49944125D01*
X-10034359Y49944120D01*
X-10089506Y49777698D01*
X-10089507Y49777691D01*
X-10100000Y49674987D01*
X-10100000Y49250000D01*
X-7800001Y49250000D01*
X-7800001Y49674972D01*
X-7800002Y49674987D01*
X-7810495Y49777698D01*
X-7865642Y49944120D01*
X-7865644Y49944125D01*
X-7957685Y50093346D01*
X-7959301Y50095390D01*
X-7959974Y50097057D01*
X-7961475Y50099491D01*
X-7961059Y50099748D01*
X-7985441Y50160185D01*
X-7972400Y50228827D01*
X-7924319Y50279522D01*
X-7862034Y50296300D01*
X-4342844Y50296300D01*
X-4275805Y50276615D01*
X-4255163Y50259981D01*
X-3690019Y49694837D01*
X-3656534Y49633514D01*
X-3653700Y49607156D01*
X-3653700Y44388665D01*
X-3673385Y44321626D01*
X-3712603Y44283127D01*
X-3818653Y44217715D01*
X-3818657Y44217712D01*
X-3942711Y44093658D01*
X-4034813Y43944337D01*
X-4034814Y43944334D01*
X-4089999Y43777797D01*
X-4089999Y43777796D01*
X-4090000Y43777796D01*
X-4100500Y43675017D01*
X-4100500Y42324999D01*
X-4100499Y42324982D01*
X-4090000Y42222204D01*
X-4089999Y42222201D01*
X-4034815Y42055669D01*
X-4034813Y42055664D01*
X-4021952Y42034813D01*
X-3942712Y41906344D01*
X-3818656Y41782288D01*
X-3669334Y41690186D01*
X-3502797Y41635001D01*
X-3400009Y41624500D01*
X-2499992Y41624501D01*
X-2499984Y41624502D01*
X-2499981Y41624502D01*
X-2443698Y41630252D01*
X-2397203Y41635001D01*
X-2230666Y41690186D01*
X-2081344Y41782288D01*
X-1957288Y41906344D01*
X-1865186Y42055666D01*
X-1813613Y42211306D01*
X-1773840Y42268749D01*
X-1709325Y42295572D01*
X-1695907Y42296300D01*
X657156Y42296300D01*
X724195Y42276615D01*
X744837Y42259981D01*
X1259981Y41744837D01*
X1293466Y41683514D01*
X1296300Y41657156D01*
X1296300Y40498244D01*
X1276615Y40431205D01*
X1223811Y40385450D01*
X1154653Y40375506D01*
X1091097Y40404531D01*
X1084619Y40410563D01*
X800940Y40694242D01*
X800920Y40694264D01*
X698585Y40796599D01*
X583323Y40873614D01*
X455264Y40926657D01*
X455256Y40926659D01*
X319310Y40953701D01*
X319308Y40953701D01*
X180692Y40953701D01*
X174578Y40953701D01*
X174558Y40953700D01*
X-7350289Y40953700D01*
X-7417328Y40973385D01*
X-7454098Y41009879D01*
X-7561834Y41174783D01*
X-7583443Y41198256D01*
X-7730256Y41357738D01*
X-7926491Y41510474D01*
X-7926492Y41510475D01*
X-7926495Y41510477D01*
X-7926497Y41510478D01*
X-7981319Y41540147D01*
X-8030909Y41589368D01*
X-8046300Y41649201D01*
X-8046300Y41907156D01*
X-8026615Y41974195D01*
X-8009981Y41994837D01*
X-7744837Y42259981D01*
X-7683514Y42293466D01*
X-7657156Y42296300D01*
X-7304094Y42296300D01*
X-7237055Y42276615D01*
X-7191300Y42223811D01*
X-7186388Y42211305D01*
X-7178001Y42185996D01*
X-7139335Y42069308D01*
X-7134814Y42055667D01*
X-7134813Y42055664D01*
X-7121952Y42034813D01*
X-7042712Y41906344D01*
X-6918656Y41782288D01*
X-6769334Y41690186D01*
X-6602797Y41635001D01*
X-6500009Y41624500D01*
X-5599992Y41624501D01*
X-5599984Y41624502D01*
X-5599981Y41624502D01*
X-5543698Y41630252D01*
X-5497203Y41635001D01*
X-5330666Y41690186D01*
X-5181344Y41782288D01*
X-5057288Y41906344D01*
X-4965186Y42055666D01*
X-4910001Y42222203D01*
X-4899500Y42324991D01*
X-4899501Y43675008D01*
X-4910001Y43777797D01*
X-4965186Y43944334D01*
X-5057288Y44093656D01*
X-5181344Y44217712D01*
X-5330666Y44309814D01*
X-5497203Y44364999D01*
X-5497205Y44365000D01*
X-5599990Y44375500D01*
X-6500002Y44375500D01*
X-6500020Y44375499D01*
X-6602797Y44365000D01*
X-6602800Y44364999D01*
X-6769332Y44309815D01*
X-6769337Y44309813D01*
X-6918658Y44217711D01*
X-7042711Y44093658D01*
X-7134813Y43944337D01*
X-7134814Y43944334D01*
X-7178499Y43812500D01*
X-7186387Y43788696D01*
X-7226160Y43731251D01*
X-7290675Y43704428D01*
X-7304093Y43703700D01*
X-7412691Y43703700D01*
X-7479730Y43723385D01*
X-7525485Y43776189D01*
X-7535429Y43845347D01*
X-7516500Y43895521D01*
X-7426268Y44033633D01*
X-7326413Y44261283D01*
X-7265388Y44502262D01*
X-7265386Y44502271D01*
X-7244859Y44749995D01*
X-7244859Y44750006D01*
X-7265386Y44997730D01*
X-7265388Y44997739D01*
X-7326413Y45238718D01*
X-7426269Y45466370D01*
X-7526566Y45619884D01*
X-8226213Y44920236D01*
X-8237482Y44962292D01*
X-8309890Y45087708D01*
X-8412292Y45190110D01*
X-8537708Y45262518D01*
X-8579765Y45273788D01*
X-7879943Y45973610D01*
X-7879944Y45973611D01*
X-7926771Y46010057D01*
X-8145386Y46128365D01*
X-8145397Y46128370D01*
X-8380507Y46209084D01*
X-8625707Y46250000D01*
X-8874293Y46250000D01*
X-9119494Y46209084D01*
X-9354604Y46128370D01*
X-9354610Y46128368D01*
X-9573239Y46010051D01*
X-9620058Y45973612D01*
X-9620058Y45973610D01*
X-8920235Y45273788D01*
X-8962292Y45262518D01*
X-9087708Y45190110D01*
X-9190110Y45087708D01*
X-9262518Y44962292D01*
X-9273788Y44920236D01*
X-9973436Y45619884D01*
X-10073733Y45466368D01*
X-10173588Y45238718D01*
X-10234613Y44997739D01*
X-10234615Y44997730D01*
X-10255141Y44750006D01*
X-10255141Y44749995D01*
X-10234615Y44502271D01*
X-10234613Y44502262D01*
X-10173588Y44261283D01*
X-10073734Y44033636D01*
X-9973436Y43880118D01*
X-9273788Y44579766D01*
X-9262518Y44537708D01*
X-9190110Y44412292D01*
X-9087708Y44309890D01*
X-8962292Y44237482D01*
X-8920235Y44226213D01*
X-9620058Y43526391D01*
X-9573232Y43489945D01*
X-9573230Y43489944D01*
X-9354615Y43371636D01*
X-9354604Y43371631D01*
X-9119493Y43290917D01*
X-9001259Y43271187D01*
X-8938373Y43240737D01*
X-8901934Y43181122D01*
X-8903509Y43111270D01*
X-8933987Y43061197D01*
X-9198580Y42796603D01*
X-9296601Y42698583D01*
X-9296603Y42698581D01*
X-9311248Y42676660D01*
X-9311250Y42676657D01*
X-9373608Y42583334D01*
X-9373615Y42583321D01*
X-9426657Y42455265D01*
X-9426659Y42455257D01*
X-9453701Y42319311D01*
X-9453701Y42174579D01*
X-9453700Y42174558D01*
X-9453700Y42059644D01*
X-9473385Y41992605D01*
X-9526189Y41946850D01*
X-9595347Y41936906D01*
X-9601891Y41938027D01*
X-9680689Y41953701D01*
X-9680692Y41953701D01*
X-9819308Y41953701D01*
X-9825422Y41953701D01*
X-9825442Y41953700D01*
X-14174557Y41953700D01*
X-14174577Y41953701D01*
X-14180691Y41953701D01*
X-14319308Y41953701D01*
X-14319310Y41953701D01*
X-14455256Y41926660D01*
X-14455262Y41926658D01*
X-14530280Y41895584D01*
X-14583326Y41873612D01*
X-14583327Y41873611D01*
X-14691374Y41801417D01*
X-14691375Y41801416D01*
X-14691376Y41801417D01*
X-14698582Y41796601D01*
X-14698586Y41796598D01*
X-14755102Y41740083D01*
X-14816426Y41706599D01*
X-14874988Y41710005D01*
X-14875416Y41708313D01*
X-14880381Y41709571D01*
X-15125665Y41750500D01*
X-15374335Y41750500D01*
X-15619617Y41709571D01*
X-15805258Y41645840D01*
X-15861990Y41642023D01*
X-15862129Y41640604D01*
X-15868191Y41641201D01*
X-15868192Y41641201D01*
X-16006808Y41641201D01*
X-16012922Y41641201D01*
X-16012942Y41641200D01*
X-17078626Y41641200D01*
X-17145665Y41660885D01*
X-17184165Y41700104D01*
X-17257288Y41818656D01*
X-17381343Y41942711D01*
X-17381344Y41942712D01*
X-17530666Y42034814D01*
X-17697203Y42089999D01*
X-17697205Y42090000D01*
X-17799990Y42100500D01*
X-19200002Y42100500D01*
X-19200019Y42100499D01*
X-19302797Y42090000D01*
X-19302800Y42089999D01*
X-19469332Y42034815D01*
X-19469337Y42034813D01*
X-19618658Y41942711D01*
X-19742711Y41818658D01*
X-19834813Y41669337D01*
X-19834815Y41669332D01*
X-19844137Y41641200D01*
X-19889999Y41502797D01*
X-19889999Y41502796D01*
X-19890000Y41502796D01*
X-19900500Y41400017D01*
X-19900500Y40474999D01*
X-19900499Y40474981D01*
X-19890000Y40372204D01*
X-19889999Y40372201D01*
X-19874286Y40324783D01*
X-19834814Y40205666D01*
X-19742712Y40056344D01*
X-19618656Y39932288D01*
X-19469334Y39840186D01*
X-19302797Y39785001D01*
X-19200009Y39774500D01*
X-17799992Y39774501D01*
X-17697203Y39785001D01*
X-17530666Y39840186D01*
X-17381344Y39932288D01*
X-17257288Y40056344D01*
X-17184165Y40174897D01*
X-17132217Y40221621D01*
X-17078626Y40233800D01*
X-16868451Y40233800D01*
X-16801412Y40214115D01*
X-16755657Y40161311D01*
X-16744875Y40120040D01*
X-16735110Y40002188D01*
X-16735108Y40002176D01*
X-16674064Y39761119D01*
X-16574174Y39533394D01*
X-16438167Y39325218D01*
X-16438164Y39325215D01*
X-16269744Y39142262D01*
X-16073509Y38989526D01*
X-15854810Y38871172D01*
X-15619614Y38790429D01*
X-15374335Y38749500D01*
X-15125665Y38749500D01*
X-14880386Y38790429D01*
X-14645190Y38871172D01*
X-14426491Y38989526D01*
X-14230256Y39142262D01*
X-14061836Y39325215D01*
X-13925827Y39533393D01*
X-13825937Y39761119D01*
X-13764892Y40002179D01*
X-13760404Y40056343D01*
X-13744357Y40249995D01*
X-13744357Y40250006D01*
X-13757785Y40412060D01*
X-13743704Y40480496D01*
X-13694859Y40530455D01*
X-13634209Y40546300D01*
X-13266937Y40546300D01*
X-13199898Y40526615D01*
X-13154143Y40473811D01*
X-13144199Y40404653D01*
X-13173224Y40341097D01*
X-13175706Y40338318D01*
X-13188167Y40324783D01*
X-13324174Y40116607D01*
X-13424064Y39888882D01*
X-13485108Y39647825D01*
X-13485110Y39647813D01*
X-13505643Y39400006D01*
X-13505643Y39399995D01*
X-13485110Y39152188D01*
X-13485108Y39152176D01*
X-13424064Y38911119D01*
X-13324174Y38683394D01*
X-13188167Y38475218D01*
X-13188164Y38475215D01*
X-13129678Y38411682D01*
X-13098756Y38349029D01*
X-13106616Y38279603D01*
X-13150763Y38225447D01*
X-13217180Y38203756D01*
X-13220908Y38203700D01*
X-20924557Y38203700D01*
X-20924577Y38203701D01*
X-20930691Y38203701D01*
X-21069308Y38203701D01*
X-21069311Y38203701D01*
X-21205255Y38176660D01*
X-21205263Y38176658D01*
X-21294905Y38139526D01*
X-21333326Y38123612D01*
X-21448584Y38046600D01*
X-21494381Y38000802D01*
X-21546600Y37948583D01*
X-21584619Y37910564D01*
X-21645942Y37877079D01*
X-21715634Y37882063D01*
X-21771567Y37923935D01*
X-21795984Y37989399D01*
X-21796300Y37998245D01*
X-21796300Y43600014D01*
X-19899999Y43600014D01*
X-19889506Y43497303D01*
X-19834359Y43330881D01*
X-19834357Y43330876D01*
X-19742316Y43181655D01*
X-19618346Y43057685D01*
X-19469125Y42965644D01*
X-19469120Y42965642D01*
X-19302698Y42910495D01*
X-19302691Y42910494D01*
X-19199981Y42900001D01*
X-18750001Y42900001D01*
X-18250000Y42900001D01*
X-17800028Y42900001D01*
X-17800014Y42900002D01*
X-17697303Y42910495D01*
X-17530881Y42965642D01*
X-17530876Y42965644D01*
X-17381655Y43057685D01*
X-17257685Y43181655D01*
X-17165644Y43330876D01*
X-17165642Y43330881D01*
X-17110495Y43497303D01*
X-17110494Y43497310D01*
X-17100001Y43600014D01*
X-17100000Y43600027D01*
X-17100000Y43812500D01*
X-18250000Y43812500D01*
X-18250000Y42900001D01*
X-18750001Y42900001D01*
X-18750000Y42900002D01*
X-18750000Y43812500D01*
X-19899999Y43812500D01*
X-19899999Y43600014D01*
X-21796300Y43600014D01*
X-21796300Y44524987D01*
X-19900000Y44524987D01*
X-19900000Y44312500D01*
X-18750000Y44312500D01*
X-18250000Y44312500D01*
X-17100001Y44312500D01*
X-17100001Y44524972D01*
X-17100002Y44524987D01*
X-17110495Y44627698D01*
X-17151024Y44750006D01*
X-16755141Y44750006D01*
X-16755141Y44749995D01*
X-16734615Y44502271D01*
X-16734613Y44502262D01*
X-16673588Y44261283D01*
X-16573734Y44033636D01*
X-16473436Y43880118D01*
X-15773788Y44579766D01*
X-15762518Y44537708D01*
X-15690110Y44412292D01*
X-15587708Y44309890D01*
X-15462292Y44237482D01*
X-15420235Y44226213D01*
X-16120058Y43526391D01*
X-16073232Y43489945D01*
X-16073230Y43489944D01*
X-15854615Y43371636D01*
X-15854604Y43371631D01*
X-15619494Y43290917D01*
X-15374293Y43250000D01*
X-15125707Y43250000D01*
X-14880507Y43290917D01*
X-14645397Y43371631D01*
X-14645386Y43371636D01*
X-14426772Y43489943D01*
X-14426769Y43489945D01*
X-14379944Y43526391D01*
X-15079766Y44226213D01*
X-15037708Y44237482D01*
X-14912292Y44309890D01*
X-14809890Y44412292D01*
X-14737482Y44537708D01*
X-14726213Y44579766D01*
X-14026566Y43880118D01*
X-13926269Y44033631D01*
X-13826413Y44261283D01*
X-13765388Y44502262D01*
X-13765386Y44502271D01*
X-13744859Y44749995D01*
X-13744859Y44750006D01*
X-13765386Y44997730D01*
X-13765388Y44997739D01*
X-13826413Y45238718D01*
X-13926269Y45466370D01*
X-14026566Y45619884D01*
X-14726213Y44920236D01*
X-14737482Y44962292D01*
X-14809890Y45087708D01*
X-14912292Y45190110D01*
X-15037708Y45262518D01*
X-15079765Y45273788D01*
X-14379943Y45973610D01*
X-14379944Y45973611D01*
X-14426771Y46010057D01*
X-14645386Y46128365D01*
X-14645397Y46128370D01*
X-14880507Y46209084D01*
X-15125707Y46250000D01*
X-15374293Y46250000D01*
X-15619494Y46209084D01*
X-15854604Y46128370D01*
X-15854610Y46128368D01*
X-16073239Y46010051D01*
X-16120058Y45973612D01*
X-16120058Y45973610D01*
X-15420235Y45273788D01*
X-15462292Y45262518D01*
X-15587708Y45190110D01*
X-15690110Y45087708D01*
X-15762518Y44962292D01*
X-15773788Y44920236D01*
X-16473436Y45619884D01*
X-16573733Y45466368D01*
X-16673588Y45238718D01*
X-16734613Y44997739D01*
X-16734615Y44997730D01*
X-16755141Y44750006D01*
X-17151024Y44750006D01*
X-17165642Y44794120D01*
X-17165644Y44794125D01*
X-17257685Y44943346D01*
X-17381655Y45067316D01*
X-17530876Y45159357D01*
X-17530881Y45159359D01*
X-17697303Y45214506D01*
X-17697310Y45214507D01*
X-17800014Y45225000D01*
X-18250000Y45225000D01*
X-18250000Y44312500D01*
X-18750000Y44312500D01*
X-18750000Y45225000D01*
X-19199972Y45225000D01*
X-19199988Y45224999D01*
X-19302698Y45214506D01*
X-19469120Y45159359D01*
X-19469125Y45159357D01*
X-19618346Y45067316D01*
X-19742316Y44943346D01*
X-19834357Y44794125D01*
X-19834359Y44794120D01*
X-19889506Y44627698D01*
X-19889507Y44627691D01*
X-19900000Y44524987D01*
X-21796300Y44524987D01*
X-21796300Y45157156D01*
X-21776615Y45224195D01*
X-21759981Y45244837D01*
X-21744837Y45259981D01*
X-21683514Y45293466D01*
X-21657156Y45296300D01*
X-21075442Y45296300D01*
X-21075422Y45296299D01*
X-21069308Y45296299D01*
X-20930690Y45296299D01*
X-20839232Y45314493D01*
X-20794738Y45323343D01*
X-20666673Y45376389D01*
X-20639212Y45394738D01*
X-20551417Y45453400D01*
X-20453400Y45551417D01*
X-20453398Y45551421D01*
X-20244836Y45759984D01*
X-20183513Y45793466D01*
X-20157156Y45796300D01*
X-17575442Y45796300D01*
X-17575422Y45796299D01*
X-17569308Y45796299D01*
X-17430690Y45796299D01*
X-17339232Y45814493D01*
X-17294738Y45823343D01*
X-17235662Y45847813D01*
X-17166677Y45876387D01*
X-17166676Y45876388D01*
X-17166673Y45876389D01*
X-17051417Y45953400D01*
X-16953400Y46051417D01*
X-16953400Y46051419D01*
X-16943192Y46061626D01*
X-16943191Y46061629D01*
X-15953400Y47051417D01*
X-15905162Y47123611D01*
X-15876389Y47166673D01*
X-15854417Y47219720D01*
X-15823342Y47294739D01*
X-15805133Y47386282D01*
X-15796299Y47430690D01*
X-15796299Y47574419D01*
X-15796300Y47574445D01*
X-15796300Y49657156D01*
X-15776615Y49724195D01*
X-15759981Y49744837D01*
X-15244836Y50259981D01*
X-15183513Y50293466D01*
X-15157155Y50296300D01*
X-13138608Y50296300D01*
X-13071569Y50276615D01*
G37*
%TD.AperFunction*%
%TA.AperFunction,Conductor*%
G36*
X22003736Y53499274D02*
G01*
X22293796Y53481729D01*
X22308659Y53479924D01*
X22590798Y53428220D01*
X22605335Y53424637D01*
X22879172Y53339305D01*
X22893163Y53334000D01*
X23154743Y53216273D01*
X23167989Y53209320D01*
X23413465Y53060925D01*
X23425776Y53052427D01*
X23651573Y52875527D01*
X23662781Y52865597D01*
X23865596Y52662782D01*
X23875526Y52651574D01*
X23995481Y52498462D01*
X24052422Y52425783D01*
X24060928Y52413460D01*
X24209316Y52167996D01*
X24216275Y52154737D01*
X24333997Y51893169D01*
X24339306Y51879168D01*
X24424635Y51605337D01*
X24428219Y51590799D01*
X24479923Y51308660D01*
X24481728Y51293795D01*
X24499274Y51003737D01*
X24499500Y50996250D01*
X24499500Y-50996249D01*
X24499274Y-51003736D01*
X24481728Y-51293794D01*
X24479923Y-51308659D01*
X24428219Y-51590798D01*
X24424635Y-51605336D01*
X24339306Y-51879167D01*
X24333997Y-51893168D01*
X24216275Y-52154736D01*
X24209316Y-52167995D01*
X24060928Y-52413459D01*
X24052422Y-52425782D01*
X23875526Y-52651573D01*
X23865596Y-52662781D01*
X23662781Y-52865596D01*
X23651573Y-52875526D01*
X23425782Y-53052422D01*
X23413459Y-53060928D01*
X23167995Y-53209316D01*
X23154736Y-53216275D01*
X22893168Y-53333997D01*
X22879167Y-53339306D01*
X22605336Y-53424635D01*
X22590798Y-53428219D01*
X22308659Y-53479923D01*
X22293794Y-53481728D01*
X22003736Y-53499274D01*
X21996249Y-53499500D01*
X-21996249Y-53499500D01*
X-22003736Y-53499274D01*
X-22293795Y-53481728D01*
X-22308660Y-53479923D01*
X-22590799Y-53428219D01*
X-22605337Y-53424635D01*
X-22879168Y-53339306D01*
X-22893169Y-53333997D01*
X-23154737Y-53216275D01*
X-23167996Y-53209316D01*
X-23413460Y-53060928D01*
X-23425783Y-53052422D01*
X-23651574Y-52875526D01*
X-23662782Y-52865596D01*
X-23865597Y-52662781D01*
X-23875527Y-52651573D01*
X-23928531Y-52583918D01*
X-24052427Y-52425776D01*
X-24060925Y-52413465D01*
X-24209320Y-52167989D01*
X-24216273Y-52154743D01*
X-24334000Y-51893163D01*
X-24339307Y-51879167D01*
X-24424636Y-51605336D01*
X-24428220Y-51590798D01*
X-24435696Y-51550005D01*
X-24479925Y-51308657D01*
X-24481729Y-51293794D01*
X-24499274Y-51003736D01*
X-24499500Y-50996249D01*
X-24499500Y-49378712D01*
X-22100500Y-49378712D01*
X-22100500Y-49621288D01*
X-22089650Y-49703700D01*
X-22068839Y-49861785D01*
X-22006053Y-50096104D01*
X-21936298Y-50264506D01*
X-21913224Y-50320212D01*
X-21791936Y-50530289D01*
X-21791934Y-50530292D01*
X-21791933Y-50530293D01*
X-21644267Y-50722736D01*
X-21644261Y-50722743D01*
X-21472744Y-50894260D01*
X-21472737Y-50894266D01*
X-21359679Y-50981018D01*
X-21280289Y-51041936D01*
X-21070212Y-51163224D01*
X-20846100Y-51256054D01*
X-20611789Y-51318838D01*
X-20431414Y-51342584D01*
X-20371289Y-51350500D01*
X-20371288Y-51350500D01*
X-20128711Y-51350500D01*
X-20080612Y-51344167D01*
X-19888211Y-51318838D01*
X-19653900Y-51256054D01*
X-19429788Y-51163224D01*
X-19219711Y-51041936D01*
X-19027262Y-50894265D01*
X-18855735Y-50722738D01*
X-18708064Y-50530289D01*
X-18586776Y-50320212D01*
X-18493946Y-50096100D01*
X-18431162Y-49861789D01*
X-18399500Y-49621288D01*
X-18399500Y-49378712D01*
X-18431162Y-49138211D01*
X-18493946Y-48903900D01*
X-18586776Y-48679788D01*
X-18708064Y-48469711D01*
X-18820377Y-48323341D01*
X-18855734Y-48277263D01*
X-18855740Y-48277256D01*
X-19027257Y-48105739D01*
X-19027264Y-48105733D01*
X-19219707Y-47958067D01*
X-19219708Y-47958066D01*
X-19219711Y-47958064D01*
X-19429788Y-47836776D01*
X-19429795Y-47836773D01*
X-19653896Y-47743947D01*
X-19771056Y-47712554D01*
X-19888211Y-47681162D01*
X-19888212Y-47681161D01*
X-19888215Y-47681161D01*
X-20128711Y-47649500D01*
X-20128712Y-47649500D01*
X-20371288Y-47649500D01*
X-20371289Y-47649500D01*
X-20611786Y-47681161D01*
X-20846105Y-47743947D01*
X-21070206Y-47836773D01*
X-21070215Y-47836777D01*
X-21280294Y-47958067D01*
X-21472737Y-48105733D01*
X-21472744Y-48105739D01*
X-21644261Y-48277256D01*
X-21644267Y-48277263D01*
X-21791933Y-48469706D01*
X-21913223Y-48679785D01*
X-21913227Y-48679794D01*
X-22006053Y-48903895D01*
X-22068839Y-49138214D01*
X-22099377Y-49370184D01*
X-22100500Y-49378712D01*
X-24499500Y-49378712D01*
X-24499500Y3569311D01*
X-24203701Y3569311D01*
X-24203701Y3424579D01*
X-24203700Y3424558D01*
X-24203700Y-3235556D01*
X-24203701Y-3235582D01*
X-24203701Y-3379310D01*
X-24184803Y-3474309D01*
X-24184803Y-3474311D01*
X-24176659Y-3515254D01*
X-24176656Y-3515266D01*
X-24123614Y-3643323D01*
X-24046599Y-3758585D01*
X-23944264Y-3860920D01*
X-23944242Y-3860940D01*
X-23237864Y-4567318D01*
X-23204379Y-4628641D01*
X-23209363Y-4698333D01*
X-23237863Y-4742680D01*
X-23331600Y-4836417D01*
X-23331603Y-4836420D01*
X-23948580Y-5453397D01*
X-23948583Y-5453400D01*
X-23980564Y-5485381D01*
X-24046598Y-5551414D01*
X-24046600Y-5551417D01*
X-24084739Y-5608498D01*
X-24091306Y-5618326D01*
X-24091307Y-5618327D01*
X-24123613Y-5666675D01*
X-24123614Y-5666677D01*
X-24176657Y-5794735D01*
X-24176659Y-5794743D01*
X-24203701Y-5930689D01*
X-24203701Y-6075421D01*
X-24203700Y-6075442D01*
X-24203700Y-9925556D01*
X-24203701Y-9925582D01*
X-24203701Y-10069309D01*
X-24184333Y-10166672D01*
X-24184333Y-10166674D01*
X-24176659Y-10205254D01*
X-24176656Y-10205266D01*
X-24123614Y-10333323D01*
X-24046599Y-10448585D01*
X-23944264Y-10550920D01*
X-23944242Y-10550940D01*
X-21790019Y-12705163D01*
X-21756534Y-12766486D01*
X-21753700Y-12792844D01*
X-21753700Y-18611335D01*
X-21773385Y-18678374D01*
X-21812603Y-18716873D01*
X-21918653Y-18782285D01*
X-21918657Y-18782288D01*
X-22042711Y-18906342D01*
X-22134813Y-19055663D01*
X-22134815Y-19055668D01*
X-22159057Y-19128827D01*
X-22189999Y-19222203D01*
X-22189999Y-19222204D01*
X-22190000Y-19222204D01*
X-22200500Y-19324983D01*
X-22200500Y-20675001D01*
X-22200499Y-20675018D01*
X-22190000Y-20777796D01*
X-22189999Y-20777799D01*
X-22134815Y-20944331D01*
X-22134813Y-20944336D01*
X-22042711Y-21093657D01*
X-21918656Y-21217712D01*
X-21812604Y-21283125D01*
X-21765879Y-21335073D01*
X-21753700Y-21388664D01*
X-21753700Y-34875556D01*
X-21753701Y-34875582D01*
X-21753701Y-34880692D01*
X-21753701Y-35019308D01*
X-21753701Y-35019310D01*
X-21753702Y-35019310D01*
X-21726659Y-35155256D01*
X-21726657Y-35155264D01*
X-21673614Y-35283323D01*
X-21596599Y-35398585D01*
X-21494264Y-35500920D01*
X-21494242Y-35500940D01*
X-21049726Y-35945456D01*
X-21049697Y-35945487D01*
X-20948586Y-36046598D01*
X-20833324Y-36123613D01*
X-20705267Y-36176655D01*
X-20705262Y-36176657D01*
X-20705258Y-36176657D01*
X-20705257Y-36176658D01*
X-20569312Y-36203700D01*
X-20569309Y-36203700D01*
X-20569308Y-36203700D01*
X-17342844Y-36203700D01*
X-17275805Y-36223385D01*
X-17255163Y-36240019D01*
X-16853456Y-36641726D01*
X-16819971Y-36703049D01*
X-16824955Y-36772741D01*
X-16853456Y-36817088D01*
X-16942711Y-36906342D01*
X-17034813Y-37055663D01*
X-17034815Y-37055668D01*
X-17034885Y-37055880D01*
X-17089999Y-37222203D01*
X-17089999Y-37222204D01*
X-17090000Y-37222204D01*
X-17100500Y-37324983D01*
X-17100500Y-38675001D01*
X-17100499Y-38675018D01*
X-17090000Y-38777796D01*
X-17089999Y-38777799D01*
X-17034885Y-38944119D01*
X-17034814Y-38944334D01*
X-16942712Y-39093656D01*
X-16818656Y-39217712D01*
X-16669334Y-39309814D01*
X-16502797Y-39364999D01*
X-16400009Y-39375500D01*
X-15499992Y-39375499D01*
X-15499984Y-39375498D01*
X-15499981Y-39375498D01*
X-15443698Y-39369748D01*
X-15397203Y-39364999D01*
X-15230666Y-39309814D01*
X-15081344Y-39217712D01*
X-14957288Y-39093656D01*
X-14865186Y-38944334D01*
X-14810001Y-38777797D01*
X-14799500Y-38675009D01*
X-14799501Y-37324992D01*
X-14799670Y-37323342D01*
X-14810001Y-37222203D01*
X-14810002Y-37222200D01*
X-14813613Y-37211304D01*
X-14865186Y-37055666D01*
X-14957288Y-36906344D01*
X-15081344Y-36782288D01*
X-15081348Y-36782285D01*
X-15187397Y-36716873D01*
X-15234122Y-36664925D01*
X-15246300Y-36611335D01*
X-15246300Y-36480689D01*
X-15246301Y-36480687D01*
X-15273342Y-36344745D01*
X-15273343Y-36344738D01*
X-15273345Y-36344733D01*
X-15326387Y-36216676D01*
X-15403402Y-36101414D01*
X-15504513Y-36000303D01*
X-15504544Y-36000274D01*
X-16449060Y-35055758D01*
X-16449080Y-35055736D01*
X-16551415Y-34953401D01*
X-16666677Y-34876386D01*
X-16794736Y-34823343D01*
X-16794744Y-34823341D01*
X-16930690Y-34796299D01*
X-16930692Y-34796299D01*
X-17069308Y-34796299D01*
X-17075422Y-34796299D01*
X-17075442Y-34796300D01*
X-20157156Y-34796300D01*
X-20224195Y-34776615D01*
X-20244837Y-34759981D01*
X-20309981Y-34694837D01*
X-20343466Y-34633514D01*
X-20346300Y-34607156D01*
X-20346300Y-21388664D01*
X-20326615Y-21321625D01*
X-20287396Y-21283125D01*
X-20255611Y-21263520D01*
X-20181344Y-21217712D01*
X-20057288Y-21093656D01*
X-19965186Y-20944334D01*
X-19910001Y-20777797D01*
X-19899500Y-20675009D01*
X-19899501Y-19324992D01*
X-19900082Y-19319309D01*
X-19910001Y-19222203D01*
X-19910002Y-19222200D01*
X-19914187Y-19209570D01*
X-19965186Y-19055666D01*
X-20057288Y-18906344D01*
X-20181344Y-18782288D01*
X-20181348Y-18782285D01*
X-20287397Y-18716873D01*
X-20334122Y-18664925D01*
X-20346300Y-18611335D01*
X-20346300Y-18139430D01*
X-20326615Y-18072391D01*
X-20273811Y-18026636D01*
X-20204653Y-18016692D01*
X-20141097Y-18045717D01*
X-20134619Y-18051749D01*
X-20118656Y-18067712D01*
X-19969334Y-18159814D01*
X-19802797Y-18214999D01*
X-19700009Y-18225500D01*
X-19321045Y-18225499D01*
X-19254006Y-18245183D01*
X-19233364Y-18261818D01*
X-18853456Y-18641726D01*
X-18819971Y-18703049D01*
X-18824955Y-18772741D01*
X-18853456Y-18817088D01*
X-18942711Y-18906342D01*
X-19034813Y-19055663D01*
X-19034815Y-19055668D01*
X-19059057Y-19128827D01*
X-19089999Y-19222203D01*
X-19089999Y-19222204D01*
X-19090000Y-19222204D01*
X-19100500Y-19324983D01*
X-19100500Y-20675001D01*
X-19100499Y-20675018D01*
X-19090000Y-20777796D01*
X-19089999Y-20777799D01*
X-19041028Y-20925582D01*
X-19034814Y-20944334D01*
X-18942712Y-21093656D01*
X-18818656Y-21217712D01*
X-18669334Y-21309814D01*
X-18502797Y-21364999D01*
X-18400009Y-21375500D01*
X-17499992Y-21375499D01*
X-17499984Y-21375498D01*
X-17499981Y-21375498D01*
X-17443698Y-21369748D01*
X-17397203Y-21364999D01*
X-17230666Y-21309814D01*
X-17081344Y-21217712D01*
X-16957288Y-21093656D01*
X-16865186Y-20944334D01*
X-16813613Y-20788694D01*
X-16773840Y-20731251D01*
X-16709325Y-20704428D01*
X-16695907Y-20703700D01*
X-16075442Y-20703700D01*
X-16075422Y-20703701D01*
X-16069308Y-20703701D01*
X-15930690Y-20703701D01*
X-15829209Y-20683514D01*
X-15794738Y-20676657D01*
X-15747658Y-20657156D01*
X-15666677Y-20623613D01*
X-15666676Y-20623612D01*
X-15666673Y-20623611D01*
X-15551417Y-20546600D01*
X-15453400Y-20448583D01*
X-15453399Y-20448581D01*
X-15446333Y-20441515D01*
X-15446330Y-20441511D01*
X-14801421Y-19796602D01*
X-14801417Y-19796600D01*
X-14703400Y-19698583D01*
X-14626389Y-19583327D01*
X-14573343Y-19455262D01*
X-14572974Y-19453405D01*
X-14572969Y-19453406D01*
X-14572969Y-19453379D01*
X-14546299Y-19319309D01*
X-14546299Y-19180692D01*
X-14546299Y-19175582D01*
X-14546300Y-19175556D01*
X-14546300Y-19149199D01*
X-14526615Y-19082160D01*
X-14481317Y-19040144D01*
X-14426790Y-19010636D01*
X-14426491Y-19010474D01*
X-14230256Y-18857738D01*
X-14061836Y-18674785D01*
X-13925827Y-18466607D01*
X-13825937Y-18238881D01*
X-13764892Y-17997821D01*
X-13764891Y-17997812D01*
X-13744357Y-17750005D01*
X-13744357Y-17749994D01*
X-13757785Y-17587940D01*
X-13743704Y-17519504D01*
X-13694859Y-17469545D01*
X-13634209Y-17453700D01*
X-13266937Y-17453700D01*
X-13199898Y-17473385D01*
X-13154143Y-17526189D01*
X-13144199Y-17595347D01*
X-13173224Y-17658903D01*
X-13175706Y-17661682D01*
X-13188167Y-17675217D01*
X-13324174Y-17883393D01*
X-13424064Y-18111118D01*
X-13485108Y-18352175D01*
X-13485110Y-18352187D01*
X-13505643Y-18599994D01*
X-13505643Y-18600005D01*
X-13485110Y-18847812D01*
X-13485108Y-18847824D01*
X-13424064Y-19088881D01*
X-13324174Y-19316606D01*
X-13188167Y-19524782D01*
X-13188164Y-19524785D01*
X-13019744Y-19707738D01*
X-12907960Y-19794743D01*
X-12823512Y-19860472D01*
X-12823508Y-19860475D01*
X-12768683Y-19890144D01*
X-12719092Y-19939363D01*
X-12703700Y-19999199D01*
X-12703700Y-20925556D01*
X-12703701Y-20925582D01*
X-12703701Y-21069309D01*
X-12694017Y-21117990D01*
X-12687555Y-21150478D01*
X-12684333Y-21166672D01*
X-12684333Y-21166674D01*
X-12676659Y-21205254D01*
X-12676656Y-21205266D01*
X-12623614Y-21333323D01*
X-12546599Y-21448585D01*
X-12444264Y-21550920D01*
X-12444242Y-21550940D01*
X-12049726Y-21945456D01*
X-12049697Y-21945487D01*
X-11948586Y-22046598D01*
X-11833326Y-22123612D01*
X-11795818Y-22139148D01*
X-11705262Y-22176658D01*
X-11605781Y-22196446D01*
X-11569313Y-22203700D01*
X-11569310Y-22203701D01*
X-11569308Y-22203701D01*
X-11424577Y-22203701D01*
X-11424557Y-22203700D01*
X-7920399Y-22203700D01*
X-7854429Y-22222705D01*
X-7849522Y-22225789D01*
X-7849519Y-22225790D01*
X-7679255Y-22285368D01*
X-7679250Y-22285369D01*
X-7500004Y-22305565D01*
X-7500000Y-22305565D01*
X-7499996Y-22305565D01*
X-7320751Y-22285369D01*
X-7320748Y-22285368D01*
X-7320745Y-22285368D01*
X-7150478Y-22225789D01*
X-6997738Y-22129816D01*
X-6870184Y-22002262D01*
X-6774211Y-21849522D01*
X-6714632Y-21679255D01*
X-6714631Y-21679249D01*
X-6694435Y-21500003D01*
X-6694435Y-21499996D01*
X-6714631Y-21320750D01*
X-6714632Y-21320745D01*
X-6768544Y-21166673D01*
X-6774211Y-21150478D01*
X-6870184Y-20997738D01*
X-6997738Y-20870184D01*
X-7150477Y-20774211D01*
X-7320746Y-20714631D01*
X-7320751Y-20714630D01*
X-7499996Y-20694435D01*
X-7500004Y-20694435D01*
X-7679250Y-20714630D01*
X-7679255Y-20714631D01*
X-7849519Y-20774209D01*
X-7849522Y-20774211D01*
X-7854429Y-20777294D01*
X-7920399Y-20796300D01*
X-11157156Y-20796300D01*
X-11224195Y-20776615D01*
X-11244837Y-20759981D01*
X-11259981Y-20744837D01*
X-11293466Y-20683514D01*
X-11296300Y-20657156D01*
X-11296300Y-19999199D01*
X-11276615Y-19932160D01*
X-11231317Y-19890144D01*
X-11176493Y-19860475D01*
X-11176494Y-19860475D01*
X-11176491Y-19860474D01*
X-10980256Y-19707738D01*
X-10811836Y-19524785D01*
X-10675827Y-19316607D01*
X-10575937Y-19088881D01*
X-10514892Y-18847821D01*
X-10514891Y-18847812D01*
X-10494357Y-18600005D01*
X-10494357Y-18599994D01*
X-10514891Y-18352187D01*
X-10514893Y-18352175D01*
X-10575937Y-18111118D01*
X-10675827Y-17883393D01*
X-10811834Y-17675217D01*
X-10824294Y-17661682D01*
X-10855215Y-17599027D01*
X-10847354Y-17529601D01*
X-10803207Y-17475446D01*
X-10736789Y-17453756D01*
X-10733063Y-17453700D01*
X-10365791Y-17453700D01*
X-10298752Y-17473385D01*
X-10252997Y-17526189D01*
X-10242215Y-17587940D01*
X-10255643Y-17749994D01*
X-10255643Y-17750005D01*
X-10235110Y-17997812D01*
X-10235108Y-17997824D01*
X-10174064Y-18238881D01*
X-10074174Y-18466606D01*
X-9938167Y-18674782D01*
X-9912145Y-18703049D01*
X-9769744Y-18857738D01*
X-9573509Y-19010474D01*
X-9354810Y-19128828D01*
X-9119614Y-19209571D01*
X-8874335Y-19250500D01*
X-8625665Y-19250500D01*
X-8380386Y-19209571D01*
X-8145190Y-19128828D01*
X-7926491Y-19010474D01*
X-7730256Y-18857738D01*
X-7561836Y-18674785D01*
X-7454098Y-18509878D01*
X-7400952Y-18464522D01*
X-7350289Y-18453700D01*
X-1325442Y-18453700D01*
X-1325422Y-18453701D01*
X-1319308Y-18453701D01*
X-1180690Y-18453701D01*
X-1089232Y-18435507D01*
X-1044738Y-18426657D01*
X-1002050Y-18408975D01*
X-916677Y-18373613D01*
X-916676Y-18373612D01*
X-916673Y-18373611D01*
X-801417Y-18296600D01*
X-703400Y-18198583D01*
X-703399Y-18198581D01*
X-696333Y-18191515D01*
X-696330Y-18191511D01*
X-50381Y-17545562D01*
X10942Y-17512077D01*
X80634Y-17517061D01*
X136567Y-17558933D01*
X160984Y-17624397D01*
X161300Y-17633243D01*
X161300Y-45792156D01*
X141615Y-45859195D01*
X124981Y-45879837D01*
X-5163Y-46009981D01*
X-66486Y-46043466D01*
X-92844Y-46046300D01*
X-7350289Y-46046300D01*
X-7417328Y-46026615D01*
X-7454098Y-45990121D01*
X-7561834Y-45825217D01*
X-7624630Y-45757003D01*
X-7730256Y-45642262D01*
X-7926491Y-45489526D01*
X-7926493Y-45489525D01*
X-7926494Y-45489524D01*
X-8145189Y-45371172D01*
X-8145198Y-45371169D01*
X-8380384Y-45290429D01*
X-8625665Y-45249500D01*
X-8874335Y-45249500D01*
X-9119618Y-45290429D01*
X-9124588Y-45291688D01*
X-9125045Y-45289886D01*
X-9186784Y-45292659D01*
X-9244902Y-45259916D01*
X-9449060Y-45055758D01*
X-9449080Y-45055736D01*
X-9551415Y-44953401D01*
X-9666677Y-44876386D01*
X-9794736Y-44823343D01*
X-9794744Y-44823341D01*
X-9930690Y-44796299D01*
X-9930692Y-44796299D01*
X-10069308Y-44796299D01*
X-10075422Y-44796299D01*
X-10075442Y-44796300D01*
X-13924557Y-44796300D01*
X-13924577Y-44796299D01*
X-13930691Y-44796299D01*
X-14069308Y-44796299D01*
X-14069310Y-44796299D01*
X-14205257Y-44823341D01*
X-14205265Y-44823343D01*
X-14333324Y-44876387D01*
X-14451441Y-44955309D01*
X-14518119Y-44976186D01*
X-14585499Y-44957701D01*
X-14623434Y-44921096D01*
X-14661577Y-44864011D01*
X-14703400Y-44801417D01*
X-14703402Y-44801414D01*
X-14804513Y-44700303D01*
X-14804544Y-44700274D01*
X-15386560Y-44118258D01*
X-15386580Y-44118236D01*
X-15488915Y-44015901D01*
X-15529676Y-43988666D01*
X-15578114Y-43956301D01*
X-15622919Y-43902690D01*
X-15631626Y-43833365D01*
X-15601472Y-43770337D01*
X-15542029Y-43733617D01*
X-15488813Y-43730890D01*
X-15374293Y-43750000D01*
X-15125707Y-43750000D01*
X-14880507Y-43709083D01*
X-14645397Y-43628369D01*
X-14645386Y-43628364D01*
X-14426772Y-43510057D01*
X-14426769Y-43510055D01*
X-14379944Y-43473609D01*
X-15079766Y-42773787D01*
X-15037708Y-42762518D01*
X-14912292Y-42690110D01*
X-14809890Y-42587708D01*
X-14737482Y-42462292D01*
X-14726213Y-42420234D01*
X-14026566Y-43119882D01*
X-13926269Y-42966369D01*
X-13826413Y-42738717D01*
X-13765388Y-42497738D01*
X-13765386Y-42497729D01*
X-13744859Y-42250005D01*
X-13744859Y-42249994D01*
X-13765386Y-42002270D01*
X-13765388Y-42002261D01*
X-13826413Y-41761282D01*
X-13926269Y-41533630D01*
X-14013579Y-41399994D01*
X-13505643Y-41399994D01*
X-13505643Y-41400005D01*
X-13485110Y-41647812D01*
X-13485108Y-41647824D01*
X-13424064Y-41888881D01*
X-13324174Y-42116606D01*
X-13188167Y-42324782D01*
X-13188164Y-42324785D01*
X-13019744Y-42507738D01*
X-12823509Y-42660474D01*
X-12604810Y-42778828D01*
X-12369614Y-42859571D01*
X-12124335Y-42900500D01*
X-11875665Y-42900500D01*
X-11630386Y-42859571D01*
X-11395190Y-42778828D01*
X-11176491Y-42660474D01*
X-10980256Y-42507738D01*
X-10811836Y-42324785D01*
X-10762973Y-42249994D01*
X-10255141Y-42249994D01*
X-10255141Y-42250005D01*
X-10234615Y-42497729D01*
X-10234613Y-42497738D01*
X-10173588Y-42738717D01*
X-10073734Y-42966364D01*
X-9973436Y-43119882D01*
X-9273788Y-42420234D01*
X-9262518Y-42462292D01*
X-9190110Y-42587708D01*
X-9087708Y-42690110D01*
X-8962292Y-42762518D01*
X-8920235Y-42773787D01*
X-9620058Y-43473609D01*
X-9573232Y-43510055D01*
X-9573230Y-43510056D01*
X-9354615Y-43628364D01*
X-9354604Y-43628369D01*
X-9119494Y-43709083D01*
X-8874293Y-43750000D01*
X-8625707Y-43750000D01*
X-8380507Y-43709083D01*
X-8145397Y-43628369D01*
X-8145386Y-43628364D01*
X-7926772Y-43510057D01*
X-7926769Y-43510055D01*
X-7879944Y-43473609D01*
X-8579766Y-42773787D01*
X-8537708Y-42762518D01*
X-8412292Y-42690110D01*
X-8309890Y-42587708D01*
X-8237482Y-42462292D01*
X-8226213Y-42420234D01*
X-7526566Y-43119882D01*
X-7426269Y-42966369D01*
X-7326413Y-42738717D01*
X-7265388Y-42497738D01*
X-7265386Y-42497729D01*
X-7244859Y-42250005D01*
X-7244859Y-42249994D01*
X-7265386Y-42002270D01*
X-7265388Y-42002261D01*
X-7326413Y-41761282D01*
X-7426269Y-41533630D01*
X-7526566Y-41380116D01*
X-8226213Y-42079764D01*
X-8237482Y-42037708D01*
X-8309890Y-41912292D01*
X-8412292Y-41809890D01*
X-8537708Y-41737482D01*
X-8579765Y-41726212D01*
X-7879943Y-41026390D01*
X-7879944Y-41026389D01*
X-7926771Y-40989943D01*
X-8145386Y-40871635D01*
X-8145397Y-40871630D01*
X-8380507Y-40790916D01*
X-8625707Y-40750000D01*
X-8874293Y-40750000D01*
X-9119494Y-40790916D01*
X-9354604Y-40871630D01*
X-9354610Y-40871632D01*
X-9573239Y-40989949D01*
X-9620058Y-41026388D01*
X-9620058Y-41026390D01*
X-8920235Y-41726212D01*
X-8962292Y-41737482D01*
X-9087708Y-41809890D01*
X-9190110Y-41912292D01*
X-9262518Y-42037708D01*
X-9273788Y-42079764D01*
X-9973436Y-41380116D01*
X-10073733Y-41533632D01*
X-10173588Y-41761282D01*
X-10234613Y-42002261D01*
X-10234615Y-42002270D01*
X-10255141Y-42249994D01*
X-10762973Y-42249994D01*
X-10675827Y-42116607D01*
X-10575937Y-41888881D01*
X-10514892Y-41647821D01*
X-10494357Y-41400000D01*
X-10496005Y-41380116D01*
X-10514891Y-41152187D01*
X-10514893Y-41152175D01*
X-10546517Y-41027295D01*
X-10543892Y-40957475D01*
X-10513991Y-40909173D01*
X-10503400Y-40898583D01*
X-10426389Y-40783327D01*
X-10412584Y-40750000D01*
X-10394310Y-40705880D01*
X-10373343Y-40655262D01*
X-10366898Y-40622861D01*
X-10346299Y-40519308D01*
X-10346299Y-40380691D01*
X-10346299Y-40375581D01*
X-10346300Y-40375555D01*
X-10346300Y-39388664D01*
X-10326615Y-39321625D01*
X-10287396Y-39283125D01*
X-10181344Y-39217712D01*
X-10057288Y-39093656D01*
X-9965186Y-38944334D01*
X-9910001Y-38777797D01*
X-9899500Y-38675009D01*
X-9899500Y-38674986D01*
X-9099999Y-38674986D01*
X-9089506Y-38777697D01*
X-9034359Y-38944119D01*
X-9034357Y-38944124D01*
X-8942316Y-39093345D01*
X-8818346Y-39217315D01*
X-8669125Y-39309356D01*
X-8669120Y-39309358D01*
X-8502698Y-39364505D01*
X-8502691Y-39364506D01*
X-8399981Y-39374999D01*
X-8200001Y-39374999D01*
X-7700000Y-39374999D01*
X-7500028Y-39374999D01*
X-7500014Y-39374998D01*
X-7397303Y-39364505D01*
X-7230881Y-39309358D01*
X-7230876Y-39309356D01*
X-7081655Y-39217315D01*
X-6957685Y-39093345D01*
X-6865644Y-38944124D01*
X-6865642Y-38944119D01*
X-6810495Y-38777697D01*
X-6810494Y-38777690D01*
X-6800001Y-38674986D01*
X-6800000Y-38674973D01*
X-6800000Y-38250000D01*
X-7700000Y-38250000D01*
X-7700000Y-39374999D01*
X-8200001Y-39374999D01*
X-8200000Y-39374998D01*
X-8200000Y-38250000D01*
X-9099999Y-38250000D01*
X-9099999Y-38674986D01*
X-9899500Y-38674986D01*
X-9899501Y-37325013D01*
X-9100000Y-37325013D01*
X-9100000Y-37750000D01*
X-8200000Y-37750000D01*
X-7700000Y-37750000D01*
X-6800001Y-37750000D01*
X-6800001Y-37325028D01*
X-6800002Y-37325013D01*
X-6810495Y-37222302D01*
X-6865642Y-37055880D01*
X-6865644Y-37055875D01*
X-6957685Y-36906654D01*
X-7081655Y-36782684D01*
X-7230876Y-36690643D01*
X-7230881Y-36690641D01*
X-7397303Y-36635494D01*
X-7397310Y-36635493D01*
X-7500014Y-36625000D01*
X-7700000Y-36625000D01*
X-7700000Y-37750000D01*
X-8200000Y-37750000D01*
X-8200000Y-36625000D01*
X-8399971Y-36625000D01*
X-8399988Y-36625001D01*
X-8502698Y-36635494D01*
X-8669120Y-36690641D01*
X-8669125Y-36690643D01*
X-8818346Y-36782684D01*
X-8942316Y-36906654D01*
X-9034357Y-37055875D01*
X-9034359Y-37055880D01*
X-9089506Y-37222302D01*
X-9089507Y-37222309D01*
X-9100000Y-37325013D01*
X-9899501Y-37325013D01*
X-9899501Y-37324992D01*
X-9899670Y-37323342D01*
X-9910001Y-37222203D01*
X-9910002Y-37222200D01*
X-9913613Y-37211304D01*
X-9965186Y-37055666D01*
X-10057288Y-36906344D01*
X-10181344Y-36782288D01*
X-10287399Y-36716873D01*
X-10330664Y-36690187D01*
X-10330669Y-36690185D01*
X-10406899Y-36664925D01*
X-10497203Y-36635001D01*
X-10497205Y-36635000D01*
X-10599990Y-36624500D01*
X-11500002Y-36624500D01*
X-11500020Y-36624501D01*
X-11602797Y-36635000D01*
X-11602800Y-36635001D01*
X-11769332Y-36690185D01*
X-11769337Y-36690187D01*
X-11918658Y-36782289D01*
X-12042711Y-36906342D01*
X-12134813Y-37055663D01*
X-12134815Y-37055668D01*
X-12134885Y-37055880D01*
X-12189999Y-37222203D01*
X-12189999Y-37222204D01*
X-12190000Y-37222204D01*
X-12200500Y-37324983D01*
X-12200500Y-38675001D01*
X-12200499Y-38675018D01*
X-12190000Y-38777796D01*
X-12189999Y-38777799D01*
X-12134885Y-38944119D01*
X-12134814Y-38944334D01*
X-12042713Y-39093655D01*
X-12042711Y-39093657D01*
X-11918656Y-39217712D01*
X-11812604Y-39283125D01*
X-11765879Y-39335073D01*
X-11753700Y-39388664D01*
X-11753700Y-39775500D01*
X-11773385Y-39842539D01*
X-11826189Y-39888294D01*
X-11877700Y-39899500D01*
X-12124335Y-39899500D01*
X-12369617Y-39940429D01*
X-12604803Y-40021169D01*
X-12604812Y-40021172D01*
X-12823507Y-40139524D01*
X-13019743Y-40292261D01*
X-13188167Y-40475217D01*
X-13324174Y-40683393D01*
X-13424064Y-40911118D01*
X-13485108Y-41152175D01*
X-13485110Y-41152187D01*
X-13505643Y-41399994D01*
X-14013579Y-41399994D01*
X-14026566Y-41380116D01*
X-14726213Y-42079764D01*
X-14737482Y-42037708D01*
X-14809890Y-41912292D01*
X-14912292Y-41809890D01*
X-15037708Y-41737482D01*
X-15079765Y-41726212D01*
X-14379943Y-41026390D01*
X-14379944Y-41026389D01*
X-14426771Y-40989943D01*
X-14645386Y-40871635D01*
X-14645397Y-40871630D01*
X-14880507Y-40790916D01*
X-15125707Y-40750000D01*
X-15374293Y-40750000D01*
X-15619494Y-40790916D01*
X-15854604Y-40871630D01*
X-15854610Y-40871632D01*
X-16073239Y-40989949D01*
X-16120058Y-41026388D01*
X-16120058Y-41026390D01*
X-15420235Y-41726212D01*
X-15462292Y-41737482D01*
X-15587708Y-41809890D01*
X-15690110Y-41912292D01*
X-15762518Y-42037708D01*
X-15773788Y-42079764D01*
X-16473436Y-41380116D01*
X-16573733Y-41533632D01*
X-16673588Y-41761282D01*
X-16734613Y-42002261D01*
X-16734615Y-42002270D01*
X-16755141Y-42249994D01*
X-16755141Y-42250005D01*
X-16734615Y-42497729D01*
X-16734613Y-42497738D01*
X-16673588Y-42738717D01*
X-16573734Y-42966364D01*
X-16473436Y-43119882D01*
X-15773788Y-42420234D01*
X-15762518Y-42462292D01*
X-15690110Y-42587708D01*
X-15587708Y-42690110D01*
X-15462292Y-42762518D01*
X-15420235Y-42773787D01*
X-16120058Y-43473609D01*
X-16073232Y-43510055D01*
X-16073230Y-43510056D01*
X-15859457Y-43625744D01*
X-15809866Y-43674963D01*
X-15794758Y-43743180D01*
X-15818928Y-43808736D01*
X-15874704Y-43850817D01*
X-15918474Y-43858799D01*
X-16012922Y-43858799D01*
X-16012942Y-43858800D01*
X-17578626Y-43858800D01*
X-17645665Y-43839115D01*
X-17684165Y-43799896D01*
X-17757288Y-43681344D01*
X-17881343Y-43557289D01*
X-17881344Y-43557288D01*
X-18030666Y-43465186D01*
X-18197203Y-43410001D01*
X-18197205Y-43410000D01*
X-18299990Y-43399500D01*
X-19700002Y-43399500D01*
X-19700019Y-43399501D01*
X-19802797Y-43410000D01*
X-19802800Y-43410001D01*
X-19969332Y-43465185D01*
X-19969341Y-43465189D01*
X-20107204Y-43550224D01*
X-20174596Y-43568664D01*
X-20241260Y-43547741D01*
X-20286029Y-43494099D01*
X-20296300Y-43444685D01*
X-20296300Y-42554727D01*
X-20276615Y-42487688D01*
X-20223811Y-42441933D01*
X-20154653Y-42431989D01*
X-20107203Y-42449188D01*
X-19969125Y-42534356D01*
X-19969120Y-42534358D01*
X-19802698Y-42589505D01*
X-19802691Y-42589506D01*
X-19699981Y-42599999D01*
X-19250001Y-42599999D01*
X-18750000Y-42599999D01*
X-18300028Y-42599999D01*
X-18300014Y-42599998D01*
X-18197303Y-42589505D01*
X-18030881Y-42534358D01*
X-18030876Y-42534356D01*
X-17881655Y-42442315D01*
X-17757685Y-42318345D01*
X-17665644Y-42169124D01*
X-17665642Y-42169119D01*
X-17610495Y-42002697D01*
X-17610494Y-42002690D01*
X-17600001Y-41899986D01*
X-17600000Y-41899973D01*
X-17600000Y-41687500D01*
X-18750000Y-41687500D01*
X-18750000Y-42599999D01*
X-19250001Y-42599999D01*
X-19250000Y-42599998D01*
X-19250000Y-41187500D01*
X-18750000Y-41187500D01*
X-17600001Y-41187500D01*
X-17600001Y-40975028D01*
X-17600002Y-40975013D01*
X-17610495Y-40872302D01*
X-17665642Y-40705880D01*
X-17665644Y-40705875D01*
X-17757685Y-40556654D01*
X-17881655Y-40432684D01*
X-18030876Y-40340643D01*
X-18030881Y-40340641D01*
X-18197303Y-40285494D01*
X-18197310Y-40285493D01*
X-18300014Y-40275000D01*
X-18750000Y-40275000D01*
X-18750000Y-41187500D01*
X-19250000Y-41187500D01*
X-19250000Y-40275000D01*
X-19699972Y-40275000D01*
X-19699988Y-40275001D01*
X-19802698Y-40285494D01*
X-19969120Y-40340641D01*
X-19969129Y-40340645D01*
X-20107204Y-40425811D01*
X-20174596Y-40444251D01*
X-20241259Y-40423328D01*
X-20286029Y-40369686D01*
X-20296300Y-40320272D01*
X-20296300Y-39119762D01*
X-20276615Y-39052723D01*
X-20223811Y-39006968D01*
X-20154653Y-38997024D01*
X-20091097Y-39026049D01*
X-20066762Y-39054665D01*
X-20042712Y-39093656D01*
X-19918656Y-39217712D01*
X-19769334Y-39309814D01*
X-19602797Y-39364999D01*
X-19500009Y-39375500D01*
X-18599992Y-39375499D01*
X-18599984Y-39375498D01*
X-18599981Y-39375498D01*
X-18543698Y-39369748D01*
X-18497203Y-39364999D01*
X-18330666Y-39309814D01*
X-18181344Y-39217712D01*
X-18057288Y-39093656D01*
X-17965186Y-38944334D01*
X-17910001Y-38777797D01*
X-17899500Y-38675009D01*
X-17899501Y-37324992D01*
X-17899670Y-37323342D01*
X-17910001Y-37222203D01*
X-17910002Y-37222200D01*
X-17913613Y-37211304D01*
X-17965186Y-37055666D01*
X-18057288Y-36906344D01*
X-18181344Y-36782288D01*
X-18287399Y-36716873D01*
X-18330664Y-36690187D01*
X-18330669Y-36690185D01*
X-18406899Y-36664925D01*
X-18497203Y-36635001D01*
X-18497205Y-36635000D01*
X-18599990Y-36624500D01*
X-19500002Y-36624500D01*
X-19500020Y-36624501D01*
X-19602797Y-36635000D01*
X-19602800Y-36635001D01*
X-19769332Y-36690185D01*
X-19769337Y-36690187D01*
X-19918658Y-36782289D01*
X-20042711Y-36906342D01*
X-20134813Y-37055663D01*
X-20134815Y-37055668D01*
X-20186387Y-37211304D01*
X-20226160Y-37268749D01*
X-20290675Y-37295572D01*
X-20304093Y-37296300D01*
X-20424557Y-37296300D01*
X-20424577Y-37296299D01*
X-20430691Y-37296299D01*
X-20569308Y-37296299D01*
X-20569311Y-37296299D01*
X-20705255Y-37323339D01*
X-20705264Y-37323342D01*
X-20795820Y-37360852D01*
X-20833322Y-37376386D01*
X-20833326Y-37376388D01*
X-20833327Y-37376389D01*
X-20872260Y-37402402D01*
X-20948584Y-37453400D01*
X-20997592Y-37502408D01*
X-21046600Y-37551417D01*
X-21046603Y-37551420D01*
X-21448580Y-37953397D01*
X-21448583Y-37953400D01*
X-21497592Y-38002408D01*
X-21546600Y-38051416D01*
X-21623614Y-38166676D01*
X-21676657Y-38294735D01*
X-21676659Y-38294743D01*
X-21703701Y-38430689D01*
X-21703701Y-38575421D01*
X-21703700Y-38575442D01*
X-21703700Y-43925556D01*
X-21703701Y-43925582D01*
X-21703701Y-44069307D01*
X-21697597Y-44099990D01*
X-21697597Y-44099993D01*
X-21676659Y-44205256D01*
X-21676656Y-44205266D01*
X-21623614Y-44333323D01*
X-21546599Y-44448585D01*
X-21444264Y-44550920D01*
X-21444242Y-44550940D01*
X-20987226Y-45007956D01*
X-20987197Y-45007987D01*
X-20886086Y-45109098D01*
X-20886083Y-45109100D01*
X-20799918Y-45166673D01*
X-20770827Y-45186111D01*
X-20770825Y-45186112D01*
X-20770821Y-45186114D01*
X-20642765Y-45239156D01*
X-20642764Y-45239156D01*
X-20642762Y-45239157D01*
X-20642758Y-45239157D01*
X-20642757Y-45239158D01*
X-20506812Y-45266201D01*
X-20421374Y-45266201D01*
X-20354335Y-45285886D01*
X-20315836Y-45325103D01*
X-20242712Y-45443656D01*
X-20118656Y-45567712D01*
X-19969334Y-45659814D01*
X-19802797Y-45714999D01*
X-19700009Y-45725500D01*
X-18299992Y-45725499D01*
X-18197203Y-45714999D01*
X-18030666Y-45659814D01*
X-17881344Y-45567712D01*
X-17757288Y-45443656D01*
X-17684165Y-45325103D01*
X-17632217Y-45278379D01*
X-17578626Y-45266200D01*
X-16280344Y-45266200D01*
X-16213305Y-45285885D01*
X-16192663Y-45302519D01*
X-16134643Y-45360539D01*
X-16101158Y-45421862D01*
X-16106142Y-45491554D01*
X-16146161Y-45546073D01*
X-16269742Y-45642260D01*
X-16438167Y-45825217D01*
X-16574174Y-46033393D01*
X-16674064Y-46261118D01*
X-16735108Y-46502175D01*
X-16735110Y-46502187D01*
X-16755643Y-46749994D01*
X-16755643Y-46750005D01*
X-16735110Y-46997812D01*
X-16735108Y-46997824D01*
X-16674064Y-47238881D01*
X-16574174Y-47466606D01*
X-16438167Y-47674782D01*
X-16432294Y-47681162D01*
X-16269744Y-47857738D01*
X-16073509Y-48010474D01*
X-15854810Y-48128828D01*
X-15619614Y-48209571D01*
X-15374335Y-48250500D01*
X-15125665Y-48250500D01*
X-14880386Y-48209571D01*
X-14645190Y-48128828D01*
X-14426491Y-48010474D01*
X-14230256Y-47857738D01*
X-14061836Y-47674785D01*
X-13925827Y-47466607D01*
X-13825937Y-47238881D01*
X-13764892Y-46997821D01*
X-13764891Y-46997812D01*
X-13744357Y-46750005D01*
X-13744357Y-46749994D01*
X-13764891Y-46502187D01*
X-13764894Y-46502170D01*
X-13796517Y-46377298D01*
X-13793893Y-46307477D01*
X-13763991Y-46259172D01*
X-13744834Y-46240016D01*
X-13683510Y-46206533D01*
X-13657155Y-46203700D01*
X-13010199Y-46203700D01*
X-12943160Y-46223385D01*
X-12897405Y-46276189D01*
X-12887461Y-46345347D01*
X-12916486Y-46408903D01*
X-12934037Y-46425553D01*
X-13019738Y-46492256D01*
X-13019741Y-46492259D01*
X-13019744Y-46492261D01*
X-13019744Y-46492262D01*
X-13048469Y-46523464D01*
X-13188167Y-46675217D01*
X-13324174Y-46883393D01*
X-13424064Y-47111118D01*
X-13485108Y-47352175D01*
X-13485110Y-47352187D01*
X-13505643Y-47599994D01*
X-13505643Y-47600005D01*
X-13485110Y-47847812D01*
X-13485108Y-47847824D01*
X-13424064Y-48088881D01*
X-13324174Y-48316606D01*
X-13188167Y-48524782D01*
X-13188164Y-48524785D01*
X-13019744Y-48707738D01*
X-12897236Y-48803090D01*
X-12823512Y-48860472D01*
X-12823508Y-48860475D01*
X-12768683Y-48890144D01*
X-12719092Y-48939363D01*
X-12703700Y-48999199D01*
X-12703700Y-49425556D01*
X-12703701Y-49425582D01*
X-12703701Y-49430689D01*
X-12703701Y-49430692D01*
X-12703701Y-49569308D01*
X-12687555Y-49650478D01*
X-12684333Y-49666672D01*
X-12684333Y-49666674D01*
X-12676659Y-49705254D01*
X-12676656Y-49705266D01*
X-12623614Y-49833323D01*
X-12546599Y-49948585D01*
X-12444264Y-50050920D01*
X-12444242Y-50050940D01*
X-12049726Y-50445456D01*
X-12049697Y-50445487D01*
X-11948586Y-50546598D01*
X-11833326Y-50623612D01*
X-11795818Y-50639148D01*
X-11705262Y-50676658D01*
X-11569313Y-50703700D01*
X-11569310Y-50703701D01*
X-11569308Y-50703701D01*
X-11424577Y-50703701D01*
X-11424557Y-50703700D01*
X-6420399Y-50703700D01*
X-6354429Y-50722705D01*
X-6349522Y-50725789D01*
X-6349519Y-50725790D01*
X-6179255Y-50785368D01*
X-6179250Y-50785369D01*
X-6000004Y-50805565D01*
X-6000000Y-50805565D01*
X-5999996Y-50805565D01*
X-5820751Y-50785369D01*
X-5820748Y-50785368D01*
X-5820745Y-50785368D01*
X-5650478Y-50725789D01*
X-5497738Y-50629816D01*
X-5370184Y-50502262D01*
X-5274211Y-50349522D01*
X-5214632Y-50179255D01*
X-5214631Y-50179249D01*
X-5194435Y-50000003D01*
X-5194435Y-49999996D01*
X-5214631Y-49820750D01*
X-5214632Y-49820745D01*
X-5255044Y-49705254D01*
X-5274211Y-49650478D01*
X-5370184Y-49497738D01*
X-5497738Y-49370184D01*
X-5650477Y-49274211D01*
X-5820746Y-49214631D01*
X-5820751Y-49214630D01*
X-5999996Y-49194435D01*
X-6000004Y-49194435D01*
X-6179250Y-49214630D01*
X-6179255Y-49214631D01*
X-6349519Y-49274209D01*
X-6349522Y-49274211D01*
X-6354429Y-49277294D01*
X-6420399Y-49296300D01*
X-11157156Y-49296300D01*
X-11224195Y-49276615D01*
X-11244837Y-49259981D01*
X-11259981Y-49244837D01*
X-11293466Y-49183514D01*
X-11296300Y-49157156D01*
X-11296300Y-48999199D01*
X-11276615Y-48932160D01*
X-11231317Y-48890144D01*
X-11176493Y-48860475D01*
X-11176494Y-48860475D01*
X-11176491Y-48860474D01*
X-10980256Y-48707738D01*
X-10811836Y-48524785D01*
X-10675827Y-48316607D01*
X-10575937Y-48088881D01*
X-10514892Y-47847821D01*
X-10513977Y-47836776D01*
X-10494357Y-47600005D01*
X-10494357Y-47599994D01*
X-10514891Y-47352187D01*
X-10514893Y-47352175D01*
X-10575937Y-47111118D01*
X-10675827Y-46883393D01*
X-10811834Y-46675217D01*
X-10830986Y-46654413D01*
X-10980256Y-46492262D01*
X-10980261Y-46492258D01*
X-10980263Y-46492256D01*
X-11065963Y-46425553D01*
X-11106776Y-46368843D01*
X-11110451Y-46299070D01*
X-11075819Y-46238387D01*
X-11013878Y-46206060D01*
X-10989801Y-46203700D01*
X-10342844Y-46203700D01*
X-10275805Y-46223385D01*
X-10255163Y-46240019D01*
X-10236009Y-46259173D01*
X-10202524Y-46320496D01*
X-10203484Y-46377293D01*
X-10235107Y-46502171D01*
X-10235110Y-46502187D01*
X-10255643Y-46749994D01*
X-10255643Y-46750005D01*
X-10235110Y-46997812D01*
X-10235108Y-46997824D01*
X-10174064Y-47238881D01*
X-10074174Y-47466606D01*
X-9938167Y-47674782D01*
X-9932294Y-47681162D01*
X-9769744Y-47857738D01*
X-9573509Y-48010474D01*
X-9354810Y-48128828D01*
X-9119614Y-48209571D01*
X-8874335Y-48250500D01*
X-8625665Y-48250500D01*
X-8380386Y-48209571D01*
X-8145190Y-48128828D01*
X-7926491Y-48010474D01*
X-7730256Y-47857738D01*
X-7561836Y-47674785D01*
X-7454098Y-47509878D01*
X-7400952Y-47464522D01*
X-7350289Y-47453700D01*
X174558Y-47453700D01*
X174578Y-47453701D01*
X180692Y-47453701D01*
X319310Y-47453701D01*
X434977Y-47430692D01*
X455262Y-47426657D01*
X497950Y-47408975D01*
X583323Y-47373613D01*
X583324Y-47373612D01*
X583327Y-47373611D01*
X698583Y-47296600D01*
X796600Y-47198583D01*
X796601Y-47198581D01*
X803667Y-47191515D01*
X803670Y-47191511D01*
X1219619Y-46775562D01*
X1280942Y-46742077D01*
X1350634Y-46747061D01*
X1406567Y-46788933D01*
X1430984Y-46854397D01*
X1431300Y-46863243D01*
X1431300Y-48560556D01*
X1431299Y-48560582D01*
X1431299Y-48565692D01*
X1431299Y-48704308D01*
X1431299Y-48704310D01*
X1431298Y-48704310D01*
X1458341Y-48840256D01*
X1458343Y-48840264D01*
X1511386Y-48968323D01*
X1588401Y-49083585D01*
X1690736Y-49185920D01*
X1690758Y-49185940D01*
X1950274Y-49445456D01*
X1950303Y-49445487D01*
X2051414Y-49546598D01*
X2051417Y-49546600D01*
X2163196Y-49621288D01*
X2163197Y-49621289D01*
X2166673Y-49623611D01*
X2166676Y-49623613D01*
X2294735Y-49676656D01*
X2294736Y-49676656D01*
X2294738Y-49676657D01*
X2294742Y-49676657D01*
X2294743Y-49676658D01*
X2430689Y-49703701D01*
X2430692Y-49703701D01*
X2575423Y-49703701D01*
X2575443Y-49703700D01*
X12157156Y-49703700D01*
X12224195Y-49723385D01*
X12244837Y-49740019D01*
X12259981Y-49755163D01*
X12293466Y-49816486D01*
X12296300Y-49842844D01*
X12296300Y-50264506D01*
X12276615Y-50331545D01*
X12235182Y-50369975D01*
X12235671Y-50370723D01*
X12231376Y-50373528D01*
X12231374Y-50373530D01*
X12138963Y-50445456D01*
X12048217Y-50516086D01*
X11891018Y-50686850D01*
X11853510Y-50744262D01*
X11800363Y-50789618D01*
X11731132Y-50799042D01*
X11667796Y-50769540D01*
X11653084Y-50752562D01*
X11651186Y-50752365D01*
X10982962Y-51420589D01*
X10965925Y-51357007D01*
X10900099Y-51242993D01*
X10807007Y-51149901D01*
X10692993Y-51084075D01*
X10629409Y-51067037D01*
X11298797Y-50397647D01*
X11298797Y-50397645D01*
X11268360Y-50373955D01*
X11268354Y-50373951D01*
X11064302Y-50263523D01*
X11064293Y-50263520D01*
X10844860Y-50188188D01*
X10616007Y-50150000D01*
X10383993Y-50150000D01*
X10155139Y-50188188D01*
X9935706Y-50263520D01*
X9935697Y-50263523D01*
X9731650Y-50373949D01*
X9701200Y-50397647D01*
X10370591Y-51067037D01*
X10307007Y-51084075D01*
X10192993Y-51149901D01*
X10099901Y-51242993D01*
X10034075Y-51357007D01*
X10017037Y-51420591D01*
X9348811Y-50752365D01*
X9264516Y-50881390D01*
X9171317Y-51093864D01*
X9114361Y-51318781D01*
X9095202Y-51549994D01*
X9095202Y-51550005D01*
X9114361Y-51781218D01*
X9171317Y-52006135D01*
X9264515Y-52218606D01*
X9348812Y-52347633D01*
X10017037Y-51679408D01*
X10034075Y-51742993D01*
X10099901Y-51857007D01*
X10192993Y-51950099D01*
X10307007Y-52015925D01*
X10370590Y-52032962D01*
X9701201Y-52702351D01*
X9731649Y-52726050D01*
X9935697Y-52836476D01*
X9935706Y-52836479D01*
X10155139Y-52911811D01*
X10383993Y-52950000D01*
X10616007Y-52950000D01*
X10844860Y-52911811D01*
X11064293Y-52836479D01*
X11064301Y-52836476D01*
X11268355Y-52726047D01*
X11298797Y-52702351D01*
X11298798Y-52702350D01*
X10629410Y-52032962D01*
X10692993Y-52015925D01*
X10807007Y-51950099D01*
X10900099Y-51857007D01*
X10965925Y-51742993D01*
X10982962Y-51679409D01*
X11651186Y-52347633D01*
X11655967Y-52347137D01*
X11699036Y-52310380D01*
X11768268Y-52300956D01*
X11831604Y-52330457D01*
X11853509Y-52355737D01*
X11891016Y-52413147D01*
X11891019Y-52413151D01*
X11891021Y-52413153D01*
X12048216Y-52583913D01*
X12048219Y-52583915D01*
X12048222Y-52583918D01*
X12231365Y-52726464D01*
X12231371Y-52726468D01*
X12231374Y-52726470D01*
X12398860Y-52817109D01*
X12434652Y-52836479D01*
X12435497Y-52836936D01*
X12547906Y-52875526D01*
X12655015Y-52912297D01*
X12655017Y-52912297D01*
X12655019Y-52912298D01*
X12883951Y-52950500D01*
X12883952Y-52950500D01*
X13116048Y-52950500D01*
X13116049Y-52950500D01*
X13344981Y-52912298D01*
X13564503Y-52836936D01*
X13768626Y-52726470D01*
X13769170Y-52726047D01*
X13864854Y-52651573D01*
X13951784Y-52583913D01*
X14108979Y-52413153D01*
X14146191Y-52356196D01*
X14199337Y-52310839D01*
X14268569Y-52301415D01*
X14331904Y-52330917D01*
X14353809Y-52356196D01*
X14391016Y-52413147D01*
X14391019Y-52413151D01*
X14391021Y-52413153D01*
X14548216Y-52583913D01*
X14548219Y-52583915D01*
X14548222Y-52583918D01*
X14731365Y-52726464D01*
X14731371Y-52726468D01*
X14731374Y-52726470D01*
X14898860Y-52817109D01*
X14934652Y-52836479D01*
X14935497Y-52836936D01*
X15047906Y-52875526D01*
X15155015Y-52912297D01*
X15155017Y-52912297D01*
X15155019Y-52912298D01*
X15383951Y-52950500D01*
X15383952Y-52950500D01*
X15616048Y-52950500D01*
X15616049Y-52950500D01*
X15844981Y-52912298D01*
X16064503Y-52836936D01*
X16268626Y-52726470D01*
X16269170Y-52726047D01*
X16364854Y-52651573D01*
X16451784Y-52583913D01*
X16608979Y-52413153D01*
X16735924Y-52218849D01*
X16829157Y-52006300D01*
X16886134Y-51781305D01*
X16886135Y-51781297D01*
X16905300Y-51550006D01*
X16905300Y-51549993D01*
X16886135Y-51318702D01*
X16886133Y-51318691D01*
X16829157Y-51093699D01*
X16735924Y-50881151D01*
X16608983Y-50686852D01*
X16608980Y-50686849D01*
X16608979Y-50686847D01*
X16451784Y-50516087D01*
X16268626Y-50373530D01*
X16268617Y-50373525D01*
X16264329Y-50370723D01*
X16264916Y-50369823D01*
X16219091Y-50324340D01*
X16203700Y-50264506D01*
X16203700Y-49575442D01*
X16203701Y-49575421D01*
X16203701Y-49430688D01*
X16176658Y-49294743D01*
X16176656Y-49294737D01*
X16169431Y-49277293D01*
X16123613Y-49166677D01*
X16123612Y-49166675D01*
X16104593Y-49138211D01*
X16104592Y-49138210D01*
X16046600Y-49051417D01*
X16046597Y-49051414D01*
X16046596Y-49051412D01*
X15945487Y-48950303D01*
X15945456Y-48950274D01*
X14240019Y-47244837D01*
X14206534Y-47183514D01*
X14203700Y-47157156D01*
X14203700Y-44549994D01*
X14894556Y-44549994D01*
X14894556Y-44550005D01*
X14914310Y-44864004D01*
X14914311Y-44864011D01*
X14935710Y-44976186D01*
X14961064Y-45109100D01*
X14973270Y-45173083D01*
X15070497Y-45472316D01*
X15070499Y-45472321D01*
X15204461Y-45757003D01*
X15204464Y-45757009D01*
X15373051Y-46022661D01*
X15373054Y-46022665D01*
X15573606Y-46265090D01*
X15573608Y-46265092D01*
X15573610Y-46265094D01*
X15693090Y-46377293D01*
X15802968Y-46480476D01*
X15802978Y-46480484D01*
X16057504Y-46665408D01*
X16057509Y-46665410D01*
X16057516Y-46665416D01*
X16333234Y-46816994D01*
X16333239Y-46816996D01*
X16333241Y-46816997D01*
X16333242Y-46816998D01*
X16625771Y-46932818D01*
X16625774Y-46932819D01*
X16878906Y-46997812D01*
X16930527Y-47011066D01*
X16996010Y-47019338D01*
X17242670Y-47050499D01*
X17242679Y-47050499D01*
X17242682Y-47050500D01*
X17242684Y-47050500D01*
X17557316Y-47050500D01*
X17557318Y-47050500D01*
X17557321Y-47050499D01*
X17557329Y-47050499D01*
X17743593Y-47026968D01*
X17869473Y-47011066D01*
X18174225Y-46932819D01*
X18174228Y-46932818D01*
X18466757Y-46816998D01*
X18466758Y-46816997D01*
X18466756Y-46816997D01*
X18466766Y-46816994D01*
X18742484Y-46665416D01*
X18997030Y-46480478D01*
X19226390Y-46265094D01*
X19426947Y-46022663D01*
X19595537Y-45757007D01*
X19729503Y-45472315D01*
X19826731Y-45173079D01*
X19885688Y-44864015D01*
X19888247Y-44823341D01*
X19905444Y-44550005D01*
X19905444Y-44549994D01*
X19885689Y-44235995D01*
X19885688Y-44235988D01*
X19885688Y-44235985D01*
X19826731Y-43926921D01*
X19729503Y-43627685D01*
X19595537Y-43342993D01*
X19426947Y-43077337D01*
X19426945Y-43077334D01*
X19226393Y-42834909D01*
X19226391Y-42834907D01*
X18997029Y-42619521D01*
X18997021Y-42619515D01*
X18742495Y-42434591D01*
X18742488Y-42434586D01*
X18742484Y-42434584D01*
X18466766Y-42283006D01*
X18466763Y-42283004D01*
X18466758Y-42283002D01*
X18466757Y-42283001D01*
X18174228Y-42167181D01*
X18174225Y-42167180D01*
X17869476Y-42088934D01*
X17869463Y-42088932D01*
X17557329Y-42049500D01*
X17557318Y-42049500D01*
X17242682Y-42049500D01*
X17242670Y-42049500D01*
X16930536Y-42088932D01*
X16930523Y-42088934D01*
X16625774Y-42167180D01*
X16625771Y-42167181D01*
X16333242Y-42283001D01*
X16333241Y-42283002D01*
X16057516Y-42434584D01*
X16057504Y-42434591D01*
X15802978Y-42619515D01*
X15802971Y-42619521D01*
X15573608Y-42834907D01*
X15573606Y-42834909D01*
X15373054Y-43077334D01*
X15373051Y-43077338D01*
X15204464Y-43342990D01*
X15204461Y-43342996D01*
X15070499Y-43627678D01*
X15070497Y-43627683D01*
X14973270Y-43926916D01*
X14914311Y-44235988D01*
X14914310Y-44235995D01*
X14894556Y-44549994D01*
X14203700Y-44549994D01*
X14203700Y-43342843D01*
X14223385Y-43275804D01*
X14240014Y-43255167D01*
X16948579Y-40546602D01*
X16948583Y-40546600D01*
X17046600Y-40448583D01*
X17123611Y-40333327D01*
X17160306Y-40244738D01*
X17176658Y-40205262D01*
X17203701Y-40069308D01*
X17203701Y-39930691D01*
X17203701Y-39925581D01*
X17203700Y-39925555D01*
X17203700Y-26075443D01*
X17203701Y-26075422D01*
X17203701Y-25930689D01*
X17176659Y-25794744D01*
X17176658Y-25794743D01*
X17176658Y-25794739D01*
X17125935Y-25672285D01*
X17124292Y-25667694D01*
X17123611Y-25666676D01*
X17123611Y-25666674D01*
X17123611Y-25666673D01*
X17046600Y-25551417D01*
X16948583Y-25453400D01*
X16948582Y-25453399D01*
X16240019Y-24744836D01*
X16206534Y-24683513D01*
X16203700Y-24657155D01*
X16203700Y-23835494D01*
X16223385Y-23768455D01*
X16264822Y-23730021D01*
X16264334Y-23729274D01*
X16268619Y-23726473D01*
X16268626Y-23726470D01*
X16269170Y-23726047D01*
X16330129Y-23678600D01*
X16451784Y-23583913D01*
X16608979Y-23413153D01*
X16735924Y-23218849D01*
X16829157Y-23006300D01*
X16886134Y-22781305D01*
X16886135Y-22781297D01*
X16905300Y-22550006D01*
X16905300Y-22549993D01*
X16886135Y-22318702D01*
X16886133Y-22318691D01*
X16829157Y-22093699D01*
X16735924Y-21881151D01*
X16608983Y-21686852D01*
X16608980Y-21686849D01*
X16608979Y-21686847D01*
X16451784Y-21516087D01*
X16268626Y-21373530D01*
X16268617Y-21373525D01*
X16264329Y-21370723D01*
X16264916Y-21369823D01*
X16219091Y-21324340D01*
X16203700Y-21264506D01*
X16203700Y-20342844D01*
X16223385Y-20275805D01*
X16240019Y-20255163D01*
X16255163Y-20240019D01*
X16316486Y-20206534D01*
X16342844Y-20203700D01*
X19924558Y-20203700D01*
X19924578Y-20203701D01*
X19930692Y-20203701D01*
X20069310Y-20203701D01*
X20160768Y-20185507D01*
X20205262Y-20176657D01*
X20333327Y-20123611D01*
X20367915Y-20100500D01*
X20448583Y-20046600D01*
X20546600Y-19948583D01*
X20546601Y-19948581D01*
X20553667Y-19941515D01*
X20553670Y-19941511D01*
X21948579Y-18546602D01*
X21948583Y-18546600D01*
X22046600Y-18448583D01*
X22123611Y-18333327D01*
X22176657Y-18205262D01*
X22185697Y-18159814D01*
X22195383Y-18111119D01*
X22203700Y-18069311D01*
X22203700Y4569309D01*
X22195864Y4608699D01*
X22195864Y4608702D01*
X22176657Y4705261D01*
X22176655Y4705266D01*
X22153917Y4760160D01*
X22123611Y4833327D01*
X22094838Y4876389D01*
X22046600Y4948583D01*
X22046598Y4948586D01*
X21945487Y5049697D01*
X21945456Y5049726D01*
X20100940Y6894242D01*
X20100920Y6894264D01*
X19998585Y6996599D01*
X19883323Y7073614D01*
X19755264Y7126657D01*
X19755256Y7126659D01*
X19619310Y7153701D01*
X19619308Y7153701D01*
X19480692Y7153701D01*
X19474578Y7153701D01*
X19474558Y7153700D01*
X16780261Y7153700D01*
X16713222Y7173385D01*
X16676452Y7209878D01*
X16608981Y7313150D01*
X16608980Y7313151D01*
X16608979Y7313153D01*
X16451784Y7483913D01*
X16268626Y7626470D01*
X16268617Y7626475D01*
X16264329Y7629277D01*
X16264916Y7630177D01*
X16219091Y7675660D01*
X16203700Y7735494D01*
X16203700Y9924557D01*
X16203701Y9924578D01*
X16203701Y10069311D01*
X16176659Y10205256D01*
X16176658Y10205257D01*
X16176658Y10205261D01*
X16126971Y10325215D01*
X16123611Y10333327D01*
X16046600Y10448583D01*
X15948583Y10546600D01*
X15948582Y10546601D01*
X15240019Y11255164D01*
X15206534Y11316487D01*
X15203700Y11342845D01*
X15203700Y11837627D01*
X15223385Y11904666D01*
X15276189Y11950421D01*
X15345347Y11960365D01*
X15408903Y11931340D01*
X15423236Y11916676D01*
X15573610Y11734906D01*
X15797611Y11524554D01*
X15802968Y11519524D01*
X15802978Y11519516D01*
X16057504Y11334592D01*
X16057509Y11334590D01*
X16057516Y11334584D01*
X16333234Y11183006D01*
X16333239Y11183004D01*
X16333241Y11183003D01*
X16333242Y11183002D01*
X16625771Y11067182D01*
X16625774Y11067181D01*
X16878906Y11002188D01*
X16930527Y10988934D01*
X16996010Y10980662D01*
X17242670Y10949501D01*
X17242679Y10949501D01*
X17242682Y10949500D01*
X17242684Y10949500D01*
X17557316Y10949500D01*
X17557318Y10949500D01*
X17557321Y10949501D01*
X17557329Y10949501D01*
X17743593Y10973032D01*
X17869473Y10988934D01*
X18174225Y11067181D01*
X18174228Y11067182D01*
X18466757Y11183002D01*
X18466758Y11183003D01*
X18466756Y11183003D01*
X18466766Y11183006D01*
X18742484Y11334584D01*
X18997030Y11519522D01*
X19226390Y11734906D01*
X19426947Y11977337D01*
X19595537Y12242993D01*
X19729503Y12527685D01*
X19826731Y12826921D01*
X19885688Y13135985D01*
X19905444Y13450000D01*
X19885688Y13764015D01*
X19826731Y14073079D01*
X19729503Y14372315D01*
X19595537Y14657007D01*
X19560414Y14712352D01*
X19426948Y14922662D01*
X19426945Y14922666D01*
X19226393Y15165091D01*
X19226391Y15165093D01*
X18997031Y15380477D01*
X18997021Y15380485D01*
X18742495Y15565409D01*
X18742488Y15565414D01*
X18742484Y15565416D01*
X18466766Y15716994D01*
X18466763Y15716996D01*
X18466758Y15716998D01*
X18466757Y15716999D01*
X18174228Y15832819D01*
X18174225Y15832820D01*
X17869476Y15911066D01*
X17869463Y15911068D01*
X17557329Y15950500D01*
X17557318Y15950500D01*
X17242682Y15950500D01*
X17242670Y15950500D01*
X16930536Y15911068D01*
X16930523Y15911066D01*
X16625774Y15832820D01*
X16625771Y15832819D01*
X16333242Y15716999D01*
X16333241Y15716998D01*
X16057516Y15565416D01*
X16057504Y15565409D01*
X15802978Y15380485D01*
X15802968Y15380477D01*
X15573608Y15165093D01*
X15573606Y15165091D01*
X15423243Y14983333D01*
X15365344Y14944226D01*
X15295492Y14942630D01*
X15235866Y14979052D01*
X15205397Y15041928D01*
X15203700Y15062374D01*
X15203700Y23657156D01*
X15223385Y23724195D01*
X15240019Y23744837D01*
X16046595Y24551412D01*
X16046598Y24551415D01*
X16046598Y24551416D01*
X16046600Y24551417D01*
X16094838Y24623611D01*
X16123611Y24666673D01*
X16145583Y24719720D01*
X16176658Y24794739D01*
X16203701Y24930692D01*
X16203701Y25069309D01*
X16203701Y25074419D01*
X16203700Y25074445D01*
X16203700Y34214506D01*
X16223385Y34281545D01*
X16264822Y34319979D01*
X16264334Y34320726D01*
X16268619Y34323527D01*
X16268626Y34323530D01*
X16269170Y34323953D01*
X16330129Y34371400D01*
X16451784Y34466087D01*
X16608979Y34636847D01*
X16735924Y34831151D01*
X16829157Y35043700D01*
X16886134Y35268695D01*
X16886135Y35268703D01*
X16905300Y35499994D01*
X16905300Y35500007D01*
X16886135Y35731298D01*
X16886133Y35731309D01*
X16829157Y35956301D01*
X16735924Y36168849D01*
X16608983Y36363148D01*
X16608980Y36363151D01*
X16608979Y36363153D01*
X16451784Y36533913D01*
X16268626Y36676470D01*
X16268617Y36676475D01*
X16264329Y36679277D01*
X16264916Y36680177D01*
X16219091Y36725660D01*
X16203700Y36785494D01*
X16203700Y37424557D01*
X16203701Y37424578D01*
X16203701Y37569311D01*
X16203700Y37569313D01*
X16176659Y37705255D01*
X16176658Y37705262D01*
X16125940Y37827702D01*
X16124293Y37832305D01*
X16123611Y37833326D01*
X16123611Y37833327D01*
X16046600Y37948583D01*
X16046598Y37948586D01*
X15945487Y38049697D01*
X15945456Y38049726D01*
X15550940Y38444242D01*
X15550920Y38444264D01*
X15448585Y38546599D01*
X15390955Y38585106D01*
X15333327Y38623611D01*
X15333325Y38623612D01*
X15205265Y38676656D01*
X15205256Y38676659D01*
X15205194Y38676671D01*
X15205194Y38676672D01*
X15069310Y38703701D01*
X15069308Y38703701D01*
X14930692Y38703701D01*
X14924578Y38703701D01*
X14924558Y38703700D01*
X3342845Y38703700D01*
X3275806Y38723385D01*
X3255164Y38740019D01*
X2740019Y39255164D01*
X2706534Y39316487D01*
X2703700Y39342845D01*
X2703700Y41924557D01*
X2703701Y41924578D01*
X2703701Y42069311D01*
X2676659Y42205256D01*
X2676658Y42205257D01*
X2676658Y42205261D01*
X2625935Y42327715D01*
X2624292Y42332306D01*
X2623611Y42333324D01*
X2623611Y42333326D01*
X2623611Y42333327D01*
X2546600Y42448583D01*
X2495177Y42500006D01*
X6094556Y42500006D01*
X6094556Y42499995D01*
X6114310Y42185996D01*
X6114311Y42185989D01*
X6116488Y42174579D01*
X6167656Y41906343D01*
X6173270Y41876917D01*
X6270497Y41577684D01*
X6270499Y41577679D01*
X6404461Y41292997D01*
X6404464Y41292991D01*
X6573051Y41027339D01*
X6573054Y41027335D01*
X6773606Y40784910D01*
X6773608Y40784908D01*
X6773610Y40784906D01*
X6865535Y40698583D01*
X7002968Y40569524D01*
X7002978Y40569516D01*
X7257504Y40384592D01*
X7257509Y40384590D01*
X7257516Y40384584D01*
X7533234Y40233006D01*
X7533239Y40233004D01*
X7533241Y40233003D01*
X7533242Y40233002D01*
X7825771Y40117182D01*
X7825774Y40117181D01*
X8062723Y40056343D01*
X8130527Y40038934D01*
X8196010Y40030662D01*
X8442670Y39999501D01*
X8442679Y39999501D01*
X8442682Y39999500D01*
X8442684Y39999500D01*
X8757316Y39999500D01*
X8757318Y39999500D01*
X8757321Y39999501D01*
X8757329Y39999501D01*
X8943593Y40023032D01*
X9069473Y40038934D01*
X9374225Y40117181D01*
X9374228Y40117182D01*
X9666757Y40233002D01*
X9666758Y40233003D01*
X9666756Y40233003D01*
X9666766Y40233006D01*
X9942484Y40384584D01*
X10197030Y40569522D01*
X10426390Y40784906D01*
X10626947Y41027337D01*
X10795537Y41292993D01*
X10929503Y41577685D01*
X11026731Y41876921D01*
X11085688Y42185985D01*
X11085689Y42185996D01*
X11105444Y42499995D01*
X11105444Y42500006D01*
X14894556Y42500006D01*
X14894556Y42499995D01*
X14914310Y42185996D01*
X14914311Y42185989D01*
X14916488Y42174579D01*
X14967656Y41906343D01*
X14973270Y41876917D01*
X15070497Y41577684D01*
X15070499Y41577679D01*
X15204461Y41292997D01*
X15204464Y41292991D01*
X15373051Y41027339D01*
X15373054Y41027335D01*
X15573606Y40784910D01*
X15573608Y40784908D01*
X15573610Y40784906D01*
X15665535Y40698583D01*
X15802968Y40569524D01*
X15802978Y40569516D01*
X16057504Y40384592D01*
X16057509Y40384590D01*
X16057516Y40384584D01*
X16333234Y40233006D01*
X16333239Y40233004D01*
X16333241Y40233003D01*
X16333242Y40233002D01*
X16625771Y40117182D01*
X16625774Y40117181D01*
X16862723Y40056343D01*
X16930527Y40038934D01*
X16996010Y40030662D01*
X17242670Y39999501D01*
X17242679Y39999501D01*
X17242682Y39999500D01*
X17242684Y39999500D01*
X17557316Y39999500D01*
X17557318Y39999500D01*
X17557321Y39999501D01*
X17557329Y39999501D01*
X17743593Y40023032D01*
X17869473Y40038934D01*
X18174225Y40117181D01*
X18174228Y40117182D01*
X18466757Y40233002D01*
X18466758Y40233003D01*
X18466756Y40233003D01*
X18466766Y40233006D01*
X18742484Y40384584D01*
X18997030Y40569522D01*
X19226390Y40784906D01*
X19426947Y41027337D01*
X19595537Y41292993D01*
X19729503Y41577685D01*
X19826731Y41876921D01*
X19885688Y42185985D01*
X19885689Y42185996D01*
X19905444Y42499995D01*
X19905444Y42500006D01*
X19885689Y42814005D01*
X19885688Y42814012D01*
X19885688Y42814015D01*
X19826731Y43123079D01*
X19729503Y43422315D01*
X19595537Y43707007D01*
X19475903Y43895521D01*
X19426948Y43972662D01*
X19426945Y43972666D01*
X19226393Y44215091D01*
X19226391Y44215093D01*
X19219917Y44221173D01*
X18997030Y44430478D01*
X18997027Y44430480D01*
X18997021Y44430485D01*
X18742495Y44615409D01*
X18742488Y44615414D01*
X18742484Y44615416D01*
X18466766Y44766994D01*
X18466763Y44766996D01*
X18466758Y44766998D01*
X18466757Y44766999D01*
X18174228Y44882819D01*
X18174225Y44882820D01*
X17869476Y44961066D01*
X17869463Y44961068D01*
X17557329Y45000500D01*
X17557318Y45000500D01*
X17242682Y45000500D01*
X17242670Y45000500D01*
X16930536Y44961068D01*
X16930523Y44961066D01*
X16625774Y44882820D01*
X16625771Y44882819D01*
X16333242Y44766999D01*
X16333241Y44766998D01*
X16057516Y44615416D01*
X16057504Y44615409D01*
X15802978Y44430485D01*
X15802968Y44430477D01*
X15573608Y44215093D01*
X15573606Y44215091D01*
X15373054Y43972666D01*
X15373051Y43972662D01*
X15204464Y43707010D01*
X15204461Y43707004D01*
X15070499Y43422322D01*
X15070497Y43422317D01*
X14973270Y43123084D01*
X14914311Y42814012D01*
X14914310Y42814005D01*
X14894556Y42500006D01*
X11105444Y42500006D01*
X11085689Y42814005D01*
X11085688Y42814012D01*
X11085688Y42814015D01*
X11026731Y43123079D01*
X10929503Y43422315D01*
X10795537Y43707007D01*
X10675903Y43895521D01*
X10626948Y43972662D01*
X10626945Y43972666D01*
X10426393Y44215091D01*
X10426391Y44215093D01*
X10419917Y44221173D01*
X10197030Y44430478D01*
X10197027Y44430480D01*
X10197021Y44430485D01*
X9942495Y44615409D01*
X9942488Y44615414D01*
X9942484Y44615416D01*
X9666766Y44766994D01*
X9666763Y44766996D01*
X9666758Y44766998D01*
X9666757Y44766999D01*
X9374228Y44882819D01*
X9374225Y44882820D01*
X9069476Y44961066D01*
X9069463Y44961068D01*
X8757329Y45000500D01*
X8757318Y45000500D01*
X8442682Y45000500D01*
X8442670Y45000500D01*
X8130536Y44961068D01*
X8130523Y44961066D01*
X7825774Y44882820D01*
X7825771Y44882819D01*
X7533242Y44766999D01*
X7533241Y44766998D01*
X7257516Y44615416D01*
X7257504Y44615409D01*
X7002978Y44430485D01*
X7002968Y44430477D01*
X6773608Y44215093D01*
X6773606Y44215091D01*
X6573054Y43972666D01*
X6573051Y43972662D01*
X6404464Y43707010D01*
X6404461Y43707004D01*
X6270499Y43422322D01*
X6270497Y43422317D01*
X6173270Y43123084D01*
X6114311Y42814012D01*
X6114310Y42814005D01*
X6094556Y42500006D01*
X2495177Y42500006D01*
X2448583Y42546600D01*
X2448582Y42546601D01*
X1553669Y43441513D01*
X1553667Y43441516D01*
X1553667Y43441515D01*
X1546600Y43448582D01*
X1546600Y43448583D01*
X1448583Y43546600D01*
X1368643Y43600014D01*
X1333323Y43623614D01*
X1205264Y43676657D01*
X1205256Y43676659D01*
X1069310Y43703701D01*
X1069308Y43703701D01*
X930692Y43703701D01*
X924578Y43703701D01*
X924558Y43703700D01*
X-1695906Y43703700D01*
X-1762945Y43723385D01*
X-1808700Y43776189D01*
X-1813612Y43788695D01*
X-1843907Y43880118D01*
X-1865186Y43944334D01*
X-1957288Y44093656D01*
X-2081344Y44217712D01*
X-2081348Y44217715D01*
X-2187397Y44283127D01*
X-2234122Y44335075D01*
X-2246300Y44388665D01*
X-2246300Y50019311D01*
X-2246301Y50019313D01*
X-2256424Y50070206D01*
X-2273343Y50155262D01*
X-2275383Y50160188D01*
X-2326387Y50283324D01*
X-2403402Y50398586D01*
X-2504513Y50499697D01*
X-2504544Y50499726D01*
X-3449060Y51444242D01*
X-3449080Y51444264D01*
X-3551415Y51546599D01*
X-3639324Y51605337D01*
X-3666673Y51623611D01*
X-3666675Y51623612D01*
X-3794735Y51676656D01*
X-3794744Y51676659D01*
X-3794806Y51676671D01*
X-3794806Y51676672D01*
X-3930690Y51703701D01*
X-3930692Y51703701D01*
X-4069308Y51703701D01*
X-4075422Y51703701D01*
X-4075442Y51703700D01*
X-15424557Y51703700D01*
X-15424577Y51703701D01*
X-15430691Y51703701D01*
X-15569308Y51703701D01*
X-15569310Y51703701D01*
X-15705256Y51676660D01*
X-15705262Y51676658D01*
X-15780280Y51645584D01*
X-15833324Y51623613D01*
X-15871402Y51598170D01*
X-15948586Y51546599D01*
X-15948589Y51546596D01*
X-16703247Y50791936D01*
X-16948581Y50546602D01*
X-16948583Y50546600D01*
X-16995457Y50499726D01*
X-17046600Y50448584D01*
X-17123614Y50333324D01*
X-17176657Y50205265D01*
X-17176659Y50205257D01*
X-17203701Y50069311D01*
X-17203701Y49924579D01*
X-17203700Y49924558D01*
X-17203700Y47842845D01*
X-17223385Y47775806D01*
X-17240019Y47755164D01*
X-17755163Y47240019D01*
X-17816486Y47206534D01*
X-17842844Y47203700D01*
X-20045239Y47203700D01*
X-20112278Y47223385D01*
X-20158033Y47276189D01*
X-20167977Y47345347D01*
X-20138952Y47408903D01*
X-20080174Y47446677D01*
X-20077383Y47447462D01*
X-19903900Y47493946D01*
X-19679788Y47586776D01*
X-19469711Y47708064D01*
X-19277262Y47855735D01*
X-19105735Y48027262D01*
X-18958064Y48219711D01*
X-18836776Y48429788D01*
X-18743946Y48653900D01*
X-18681162Y48888211D01*
X-18649500Y49128712D01*
X-18649500Y49371288D01*
X-18681162Y49611789D01*
X-18743946Y49846100D01*
X-18836776Y50070212D01*
X-18958064Y50280289D01*
X-19105735Y50472738D01*
X-19105740Y50472744D01*
X-19277257Y50644261D01*
X-19277264Y50644267D01*
X-19469707Y50791933D01*
X-19469708Y50791934D01*
X-19469711Y50791936D01*
X-19679788Y50913224D01*
X-19679795Y50913227D01*
X-19903896Y51006053D01*
X-20021056Y51037446D01*
X-20138211Y51068838D01*
X-20138212Y51068839D01*
X-20138215Y51068839D01*
X-20378711Y51100500D01*
X-20378712Y51100500D01*
X-20621288Y51100500D01*
X-20621289Y51100500D01*
X-20861786Y51068839D01*
X-21096105Y51006053D01*
X-21320206Y50913227D01*
X-21320215Y50913223D01*
X-21530294Y50791933D01*
X-21722737Y50644267D01*
X-21722744Y50644261D01*
X-21894261Y50472744D01*
X-21894267Y50472737D01*
X-22041933Y50280294D01*
X-22163223Y50070215D01*
X-22163227Y50070206D01*
X-22256053Y49846105D01*
X-22318839Y49611786D01*
X-22350500Y49371289D01*
X-22350500Y49128712D01*
X-22318839Y48888215D01*
X-22256053Y48653896D01*
X-22163227Y48429795D01*
X-22163224Y48429788D01*
X-22041936Y48219711D01*
X-22041934Y48219708D01*
X-22041933Y48219707D01*
X-21894267Y48027264D01*
X-21894261Y48027257D01*
X-21722744Y47855740D01*
X-21722737Y47855734D01*
X-21639003Y47791483D01*
X-21530289Y47708064D01*
X-21320212Y47586776D01*
X-21096100Y47493946D01*
X-20861789Y47431162D01*
X-20735587Y47414548D01*
X-20671692Y47386282D01*
X-20633220Y47327958D01*
X-20632388Y47258093D01*
X-20669460Y47198869D01*
X-20704320Y47177048D01*
X-20705262Y47176659D01*
X-20705262Y47176658D01*
X-20795818Y47139149D01*
X-20795820Y47139149D01*
X-20833322Y47123614D01*
X-20833326Y47123612D01*
X-20833327Y47123611D01*
X-20872260Y47097598D01*
X-20948584Y47046600D01*
X-20995982Y46999201D01*
X-21046600Y46948583D01*
X-21046603Y46948580D01*
X-21255163Y46740019D01*
X-21316486Y46706534D01*
X-21342844Y46703700D01*
X-21924557Y46703700D01*
X-21924577Y46703701D01*
X-21930691Y46703701D01*
X-22069308Y46703701D01*
X-22069311Y46703701D01*
X-22205255Y46676661D01*
X-22205264Y46676658D01*
X-22295820Y46639148D01*
X-22333322Y46623614D01*
X-22333326Y46623612D01*
X-22333327Y46623611D01*
X-22372260Y46597598D01*
X-22448584Y46546600D01*
X-22497592Y46497592D01*
X-22546600Y46448583D01*
X-22546603Y46448580D01*
X-22948580Y46046603D01*
X-22948583Y46046600D01*
X-22985126Y46010057D01*
X-23046600Y45948584D01*
X-23094838Y45876389D01*
X-23123613Y45833325D01*
X-23176657Y45705265D01*
X-23176659Y45705257D01*
X-23203701Y45569311D01*
X-23203701Y45424579D01*
X-23203700Y45424558D01*
X-23203700Y4760160D01*
X-23223385Y4693121D01*
X-23276189Y4647366D01*
X-23280242Y4645601D01*
X-23285120Y4643581D01*
X-23295818Y4639149D01*
X-23333322Y4623614D01*
X-23333326Y4623612D01*
X-23333327Y4623611D01*
X-23372260Y4597598D01*
X-23448584Y4546600D01*
X-23478120Y4517063D01*
X-23546600Y4448583D01*
X-23546603Y4448580D01*
X-23948580Y4046603D01*
X-23948583Y4046600D01*
X-23987700Y4007483D01*
X-24046600Y3948584D01*
X-24094838Y3876389D01*
X-24123613Y3833325D01*
X-24176657Y3705265D01*
X-24176659Y3705257D01*
X-24203701Y3569311D01*
X-24499500Y3569311D01*
X-24499500Y50996250D01*
X-24499274Y51003737D01*
X-24481729Y51293795D01*
X-24479924Y51308660D01*
X-24455077Y51444242D01*
X-24428220Y51590803D01*
X-24424636Y51605337D01*
X-24339304Y51879178D01*
X-24334002Y51893159D01*
X-24216269Y52154751D01*
X-24209324Y52167984D01*
X-24060920Y52413474D01*
X-24052433Y52425770D01*
X-23875520Y52651583D01*
X-23865605Y52662774D01*
X-23662774Y52865605D01*
X-23651583Y52875520D01*
X-23425770Y53052433D01*
X-23413474Y53060920D01*
X-23167984Y53209324D01*
X-23154751Y53216269D01*
X-22893159Y53334002D01*
X-22879178Y53339304D01*
X-22605332Y53424638D01*
X-22590803Y53428220D01*
X-22308656Y53479925D01*
X-22293799Y53481729D01*
X-22003736Y53499274D01*
X-21996249Y53499500D01*
X-21934108Y53499500D01*
X21934108Y53499500D01*
X21996249Y53499500D01*
X22003736Y53499274D01*
G37*
%TD.AperFunction*%
%TD*%
M02*
