M48
; DRILL file {KiCad 8.0.4} date 2024-08-14T20:50:56+0200
; FORMAT={-:-/ absolute / metric / decimal}
; #@! TF.CreationDate,2024-08-14T20:50:56+02:00
; #@! TF.GenerationSoftware,Kicad,Pcbnew,8.0.4
; #@! TF.FileFunction,Plated,1,2,PTH
FMAT,2
METRIC
; #@! TA.AperFunction,Plated,PTH,ViaDrill
T1C0.300
; #@! TA.AperFunction,Plated,PTH,ComponentDrill
T2C1.000
; #@! TA.AperFunction,Plated,PTH,ComponentDrill
T3C1.100
%
G90
G05
T1
X15.5Y-56.5
X16.0Y-60.0
X17.0Y-57.5
X17.5Y-75.5
X19.0Y-104.0
X38.5Y-52.5
X39.0Y-63.5
T2
X3.475Y-51.665
X3.475Y-54.205
X3.475Y-56.745
X3.475Y-59.285
X3.475Y-61.825
X13.0Y-8.4
X13.0Y-14.6
X13.0Y-37.4
X13.0Y-43.6
X13.0Y-66.4
X13.0Y-72.6
X13.0Y-95.4
X13.0Y-101.6
X35.5Y-18.5
X35.5Y-47.55
X35.5Y-76.55
X35.5Y-105.55
X38.0Y-18.5
X38.0Y-47.55
X38.0Y-76.55
X38.0Y-105.55
X40.5Y-18.5
X40.5Y-47.55
X40.5Y-76.55
X40.5Y-105.55
X44.525Y-50.95
X44.525Y-53.49
X44.525Y-56.03
X44.525Y-58.57
X44.525Y-61.11
T3
X9.75Y-9.25
X9.75Y-13.75
X9.75Y-38.25
X9.75Y-42.75
X9.75Y-67.25
X9.75Y-71.75
X9.75Y-96.25
X9.75Y-100.75
X16.25Y-9.25
X16.25Y-13.75
X16.25Y-38.25
X16.25Y-42.75
X16.25Y-67.25
X16.25Y-71.75
X16.25Y-96.25
X16.25Y-100.75
M30
