M48
; DRILL file {KiCad 8.0.2} date 2024-08-12T22:50:55+0200
; FORMAT={-:-/ absolute / metric / decimal}
; #@! TF.CreationDate,2024-08-12T22:50:55+02:00
; #@! TF.GenerationSoftware,Kicad,Pcbnew,8.0.2
; #@! TF.FileFunction,Plated,1,2,PTH
FMAT,2
METRIC
; #@! TA.AperFunction,Plated,PTH,ViaDrill
T1C0.300
; #@! TA.AperFunction,Plated,PTH,ComponentDrill
T2C1.000
%
G90
G05
T1
X20.0Y-87.0
X20.0Y-95.0
X20.5Y-18.0
X20.5Y-23.5
X20.5Y-43.0
X20.5Y-47.0
T2
X7.18Y-55.5
X8.5Y-18.0
X8.5Y-47.05
X8.5Y-76.05
X8.5Y-105.05
X9.72Y-55.5
X11.0Y-18.0
X11.0Y-47.05
X11.0Y-76.05
X11.0Y-105.05
X12.26Y-55.5
X13.5Y-18.0
X13.5Y-47.05
X13.5Y-76.05
X13.5Y-105.05
X14.8Y-55.5
X42.5Y-47.05
X42.5Y-76.05
X42.5Y-105.05
X42.92Y-54.5
X43.0Y-18.05
X45.0Y-47.05
X45.0Y-76.05
X45.0Y-105.05
X45.46Y-54.5
X45.5Y-18.05
X47.5Y-47.05
X47.5Y-76.05
X47.5Y-105.05
X48.0Y-18.05
X48.0Y-54.5
M30
