%TF.GenerationSoftware,KiCad,Pcbnew,8.0.4-8.0.4-0~ubuntu22.04.1*%
%TF.CreationDate,2024-08-25T02:19:09+02:00*%
%TF.ProjectId,Deck-Btns,4465636b-2d42-4746-9e73-2e6b69636164,rev?*%
%TF.SameCoordinates,PX5ab1c60PY510ff40*%
%TF.FileFunction,Legend,Top*%
%TF.FilePolarity,Positive*%
%FSLAX46Y46*%
G04 Gerber Fmt 4.6, Leading zero omitted, Abs format (unit mm)*
G04 Created by KiCad (PCBNEW 8.0.4-8.0.4-0~ubuntu22.04.1) date 2024-08-25 02:19:09*
%MOMM*%
%LPD*%
G01*
G04 APERTURE LIST*
%ADD10C,0.150000*%
%ADD11C,0.100000*%
%ADD12C,0.120000*%
G04 APERTURE END LIST*
D10*
X-2277800Y26289161D02*
X-2230181Y26432018D01*
X-2230181Y26432018D02*
X-2230181Y26670113D01*
X-2230181Y26670113D02*
X-2277800Y26765351D01*
X-2277800Y26765351D02*
X-2325420Y26812970D01*
X-2325420Y26812970D02*
X-2420658Y26860589D01*
X-2420658Y26860589D02*
X-2515896Y26860589D01*
X-2515896Y26860589D02*
X-2611134Y26812970D01*
X-2611134Y26812970D02*
X-2658753Y26765351D01*
X-2658753Y26765351D02*
X-2706372Y26670113D01*
X-2706372Y26670113D02*
X-2753991Y26479637D01*
X-2753991Y26479637D02*
X-2801610Y26384399D01*
X-2801610Y26384399D02*
X-2849229Y26336780D01*
X-2849229Y26336780D02*
X-2944467Y26289161D01*
X-2944467Y26289161D02*
X-3039705Y26289161D01*
X-3039705Y26289161D02*
X-3134943Y26336780D01*
X-3134943Y26336780D02*
X-3182562Y26384399D01*
X-3182562Y26384399D02*
X-3230181Y26479637D01*
X-3230181Y26479637D02*
X-3230181Y26717732D01*
X-3230181Y26717732D02*
X-3182562Y26860589D01*
X-2325420Y27860589D02*
X-2277800Y27812970D01*
X-2277800Y27812970D02*
X-2230181Y27670113D01*
X-2230181Y27670113D02*
X-2230181Y27574875D01*
X-2230181Y27574875D02*
X-2277800Y27432018D01*
X-2277800Y27432018D02*
X-2373039Y27336780D01*
X-2373039Y27336780D02*
X-2468277Y27289161D01*
X-2468277Y27289161D02*
X-2658753Y27241542D01*
X-2658753Y27241542D02*
X-2801610Y27241542D01*
X-2801610Y27241542D02*
X-2992086Y27289161D01*
X-2992086Y27289161D02*
X-3087324Y27336780D01*
X-3087324Y27336780D02*
X-3182562Y27432018D01*
X-3182562Y27432018D02*
X-3230181Y27574875D01*
X-3230181Y27574875D02*
X-3230181Y27670113D01*
X-3230181Y27670113D02*
X-3182562Y27812970D01*
X-3182562Y27812970D02*
X-3134943Y27860589D01*
X-2515896Y28241542D02*
X-2515896Y28717732D01*
X-2230181Y28146304D02*
X-3230181Y28479637D01*
X-3230181Y28479637D02*
X-2230181Y28812970D01*
X1969819Y26393923D02*
X2969819Y26727256D01*
X2969819Y26727256D02*
X1969819Y27060589D01*
X2874580Y27965351D02*
X2922200Y27917732D01*
X2922200Y27917732D02*
X2969819Y27774875D01*
X2969819Y27774875D02*
X2969819Y27679637D01*
X2969819Y27679637D02*
X2922200Y27536780D01*
X2922200Y27536780D02*
X2826961Y27441542D01*
X2826961Y27441542D02*
X2731723Y27393923D01*
X2731723Y27393923D02*
X2541247Y27346304D01*
X2541247Y27346304D02*
X2398390Y27346304D01*
X2398390Y27346304D02*
X2207914Y27393923D01*
X2207914Y27393923D02*
X2112676Y27441542D01*
X2112676Y27441542D02*
X2017438Y27536780D01*
X2017438Y27536780D02*
X1969819Y27679637D01*
X1969819Y27679637D02*
X1969819Y27774875D01*
X1969819Y27774875D02*
X2017438Y27917732D01*
X2017438Y27917732D02*
X2065057Y27965351D01*
X2874580Y28965351D02*
X2922200Y28917732D01*
X2922200Y28917732D02*
X2969819Y28774875D01*
X2969819Y28774875D02*
X2969819Y28679637D01*
X2969819Y28679637D02*
X2922200Y28536780D01*
X2922200Y28536780D02*
X2826961Y28441542D01*
X2826961Y28441542D02*
X2731723Y28393923D01*
X2731723Y28393923D02*
X2541247Y28346304D01*
X2541247Y28346304D02*
X2398390Y28346304D01*
X2398390Y28346304D02*
X2207914Y28393923D01*
X2207914Y28393923D02*
X2112676Y28441542D01*
X2112676Y28441542D02*
X2017438Y28536780D01*
X2017438Y28536780D02*
X1969819Y28679637D01*
X1969819Y28679637D02*
X1969819Y28774875D01*
X1969819Y28774875D02*
X2017438Y28917732D01*
X2017438Y28917732D02*
X2065057Y28965351D01*
X4417438Y26860589D02*
X4369819Y26765351D01*
X4369819Y26765351D02*
X4369819Y26622494D01*
X4369819Y26622494D02*
X4417438Y26479637D01*
X4417438Y26479637D02*
X4512676Y26384399D01*
X4512676Y26384399D02*
X4607914Y26336780D01*
X4607914Y26336780D02*
X4798390Y26289161D01*
X4798390Y26289161D02*
X4941247Y26289161D01*
X4941247Y26289161D02*
X5131723Y26336780D01*
X5131723Y26336780D02*
X5226961Y26384399D01*
X5226961Y26384399D02*
X5322200Y26479637D01*
X5322200Y26479637D02*
X5369819Y26622494D01*
X5369819Y26622494D02*
X5369819Y26717732D01*
X5369819Y26717732D02*
X5322200Y26860589D01*
X5322200Y26860589D02*
X5274580Y26908208D01*
X5274580Y26908208D02*
X4941247Y26908208D01*
X4941247Y26908208D02*
X4941247Y26717732D01*
X5369819Y27336780D02*
X4369819Y27336780D01*
X4369819Y27336780D02*
X5369819Y27908208D01*
X5369819Y27908208D02*
X4369819Y27908208D01*
X5369819Y28384399D02*
X4369819Y28384399D01*
X4369819Y28384399D02*
X4369819Y28622494D01*
X4369819Y28622494D02*
X4417438Y28765351D01*
X4417438Y28765351D02*
X4512676Y28860589D01*
X4512676Y28860589D02*
X4607914Y28908208D01*
X4607914Y28908208D02*
X4798390Y28955827D01*
X4798390Y28955827D02*
X4941247Y28955827D01*
X4941247Y28955827D02*
X5131723Y28908208D01*
X5131723Y28908208D02*
X5226961Y28860589D01*
X5226961Y28860589D02*
X5322200Y28765351D01*
X5322200Y28765351D02*
X5369819Y28622494D01*
X5369819Y28622494D02*
X5369819Y28384399D01*
X322200Y26289161D02*
X369819Y26432018D01*
X369819Y26432018D02*
X369819Y26670113D01*
X369819Y26670113D02*
X322200Y26765351D01*
X322200Y26765351D02*
X274580Y26812970D01*
X274580Y26812970D02*
X179342Y26860589D01*
X179342Y26860589D02*
X84104Y26860589D01*
X84104Y26860589D02*
X-11134Y26812970D01*
X-11134Y26812970D02*
X-58753Y26765351D01*
X-58753Y26765351D02*
X-106372Y26670113D01*
X-106372Y26670113D02*
X-153991Y26479637D01*
X-153991Y26479637D02*
X-201610Y26384399D01*
X-201610Y26384399D02*
X-249229Y26336780D01*
X-249229Y26336780D02*
X-344467Y26289161D01*
X-344467Y26289161D02*
X-439705Y26289161D01*
X-439705Y26289161D02*
X-534943Y26336780D01*
X-534943Y26336780D02*
X-582562Y26384399D01*
X-582562Y26384399D02*
X-630181Y26479637D01*
X-630181Y26479637D02*
X-630181Y26717732D01*
X-630181Y26717732D02*
X-582562Y26860589D01*
X274580Y27860589D02*
X322200Y27812970D01*
X322200Y27812970D02*
X369819Y27670113D01*
X369819Y27670113D02*
X369819Y27574875D01*
X369819Y27574875D02*
X322200Y27432018D01*
X322200Y27432018D02*
X226961Y27336780D01*
X226961Y27336780D02*
X131723Y27289161D01*
X131723Y27289161D02*
X-58753Y27241542D01*
X-58753Y27241542D02*
X-201610Y27241542D01*
X-201610Y27241542D02*
X-392086Y27289161D01*
X-392086Y27289161D02*
X-487324Y27336780D01*
X-487324Y27336780D02*
X-582562Y27432018D01*
X-582562Y27432018D02*
X-630181Y27574875D01*
X-630181Y27574875D02*
X-630181Y27670113D01*
X-630181Y27670113D02*
X-582562Y27812970D01*
X-582562Y27812970D02*
X-534943Y27860589D01*
X369819Y28765351D02*
X369819Y28289161D01*
X369819Y28289161D02*
X-630181Y28289161D01*
X-4830181Y26936780D02*
X-5830181Y26936780D01*
X-4830181Y27412970D02*
X-5830181Y27412970D01*
X-5830181Y27412970D02*
X-4830181Y27984398D01*
X-4830181Y27984398D02*
X-5830181Y27984398D01*
X-5830181Y28317732D02*
X-5830181Y28889160D01*
X-4830181Y28603446D02*
X-5830181Y28603446D01*
D11*
X11187967Y-14409800D02*
X11330824Y-14457419D01*
X11330824Y-14457419D02*
X11568919Y-14457419D01*
X11568919Y-14457419D02*
X11664157Y-14409800D01*
X11664157Y-14409800D02*
X11711776Y-14362180D01*
X11711776Y-14362180D02*
X11759395Y-14266942D01*
X11759395Y-14266942D02*
X11759395Y-14171704D01*
X11759395Y-14171704D02*
X11711776Y-14076466D01*
X11711776Y-14076466D02*
X11664157Y-14028847D01*
X11664157Y-14028847D02*
X11568919Y-13981228D01*
X11568919Y-13981228D02*
X11378443Y-13933609D01*
X11378443Y-13933609D02*
X11283205Y-13885990D01*
X11283205Y-13885990D02*
X11235586Y-13838371D01*
X11235586Y-13838371D02*
X11187967Y-13743133D01*
X11187967Y-13743133D02*
X11187967Y-13647895D01*
X11187967Y-13647895D02*
X11235586Y-13552657D01*
X11235586Y-13552657D02*
X11283205Y-13505038D01*
X11283205Y-13505038D02*
X11378443Y-13457419D01*
X11378443Y-13457419D02*
X11616538Y-13457419D01*
X11616538Y-13457419D02*
X11759395Y-13505038D01*
X12092729Y-13457419D02*
X12330824Y-14457419D01*
X12330824Y-14457419D02*
X12521300Y-13743133D01*
X12521300Y-13743133D02*
X12711776Y-14457419D01*
X12711776Y-14457419D02*
X12949872Y-13457419D01*
X13378443Y-14457419D02*
X13568919Y-14457419D01*
X13568919Y-14457419D02*
X13664157Y-14409800D01*
X13664157Y-14409800D02*
X13711776Y-14362180D01*
X13711776Y-14362180D02*
X13807014Y-14219323D01*
X13807014Y-14219323D02*
X13854633Y-14028847D01*
X13854633Y-14028847D02*
X13854633Y-13647895D01*
X13854633Y-13647895D02*
X13807014Y-13552657D01*
X13807014Y-13552657D02*
X13759395Y-13505038D01*
X13759395Y-13505038D02*
X13664157Y-13457419D01*
X13664157Y-13457419D02*
X13473681Y-13457419D01*
X13473681Y-13457419D02*
X13378443Y-13505038D01*
X13378443Y-13505038D02*
X13330824Y-13552657D01*
X13330824Y-13552657D02*
X13283205Y-13647895D01*
X13283205Y-13647895D02*
X13283205Y-13885990D01*
X13283205Y-13885990D02*
X13330824Y-13981228D01*
X13330824Y-13981228D02*
X13378443Y-14028847D01*
X13378443Y-14028847D02*
X13473681Y-14076466D01*
X13473681Y-14076466D02*
X13664157Y-14076466D01*
X13664157Y-14076466D02*
X13759395Y-14028847D01*
X13759395Y-14028847D02*
X13807014Y-13981228D01*
X13807014Y-13981228D02*
X13854633Y-13885990D01*
X-13812033Y-33288500D02*
X-13669176Y-33336119D01*
X-13669176Y-33336119D02*
X-13431081Y-33336119D01*
X-13431081Y-33336119D02*
X-13335843Y-33288500D01*
X-13335843Y-33288500D02*
X-13288224Y-33240880D01*
X-13288224Y-33240880D02*
X-13240605Y-33145642D01*
X-13240605Y-33145642D02*
X-13240605Y-33050404D01*
X-13240605Y-33050404D02*
X-13288224Y-32955166D01*
X-13288224Y-32955166D02*
X-13335843Y-32907547D01*
X-13335843Y-32907547D02*
X-13431081Y-32859928D01*
X-13431081Y-32859928D02*
X-13621557Y-32812309D01*
X-13621557Y-32812309D02*
X-13716795Y-32764690D01*
X-13716795Y-32764690D02*
X-13764414Y-32717071D01*
X-13764414Y-32717071D02*
X-13812033Y-32621833D01*
X-13812033Y-32621833D02*
X-13812033Y-32526595D01*
X-13812033Y-32526595D02*
X-13764414Y-32431357D01*
X-13764414Y-32431357D02*
X-13716795Y-32383738D01*
X-13716795Y-32383738D02*
X-13621557Y-32336119D01*
X-13621557Y-32336119D02*
X-13383462Y-32336119D01*
X-13383462Y-32336119D02*
X-13240605Y-32383738D01*
X-12907271Y-32336119D02*
X-12669176Y-33336119D01*
X-12669176Y-33336119D02*
X-12478700Y-32621833D01*
X-12478700Y-32621833D02*
X-12288224Y-33336119D01*
X-12288224Y-33336119D02*
X-12050128Y-32336119D01*
X-11192986Y-32336119D02*
X-11669176Y-32336119D01*
X-11669176Y-32336119D02*
X-11716795Y-32812309D01*
X-11716795Y-32812309D02*
X-11669176Y-32764690D01*
X-11669176Y-32764690D02*
X-11573938Y-32717071D01*
X-11573938Y-32717071D02*
X-11335843Y-32717071D01*
X-11335843Y-32717071D02*
X-11240605Y-32764690D01*
X-11240605Y-32764690D02*
X-11192986Y-32812309D01*
X-11192986Y-32812309D02*
X-11145367Y-32907547D01*
X-11145367Y-32907547D02*
X-11145367Y-33145642D01*
X-11145367Y-33145642D02*
X-11192986Y-33240880D01*
X-11192986Y-33240880D02*
X-11240605Y-33288500D01*
X-11240605Y-33288500D02*
X-11335843Y-33336119D01*
X-11335843Y-33336119D02*
X-11573938Y-33336119D01*
X-11573938Y-33336119D02*
X-11669176Y-33288500D01*
X-11669176Y-33288500D02*
X-11716795Y-33240880D01*
D10*
X6684819Y30666667D02*
X7399104Y30666667D01*
X7399104Y30666667D02*
X7541961Y30619048D01*
X7541961Y30619048D02*
X7637200Y30523810D01*
X7637200Y30523810D02*
X7684819Y30380953D01*
X7684819Y30380953D02*
X7684819Y30285715D01*
X7684819Y31666667D02*
X7684819Y31095239D01*
X7684819Y31380953D02*
X6684819Y31380953D01*
X6684819Y31380953D02*
X6827676Y31285715D01*
X6827676Y31285715D02*
X6922914Y31190477D01*
X6922914Y31190477D02*
X6970533Y31095239D01*
D11*
X11187967Y5590200D02*
X11330824Y5542581D01*
X11330824Y5542581D02*
X11568919Y5542581D01*
X11568919Y5542581D02*
X11664157Y5590200D01*
X11664157Y5590200D02*
X11711776Y5637820D01*
X11711776Y5637820D02*
X11759395Y5733058D01*
X11759395Y5733058D02*
X11759395Y5828296D01*
X11759395Y5828296D02*
X11711776Y5923534D01*
X11711776Y5923534D02*
X11664157Y5971153D01*
X11664157Y5971153D02*
X11568919Y6018772D01*
X11568919Y6018772D02*
X11378443Y6066391D01*
X11378443Y6066391D02*
X11283205Y6114010D01*
X11283205Y6114010D02*
X11235586Y6161629D01*
X11235586Y6161629D02*
X11187967Y6256867D01*
X11187967Y6256867D02*
X11187967Y6352105D01*
X11187967Y6352105D02*
X11235586Y6447343D01*
X11235586Y6447343D02*
X11283205Y6494962D01*
X11283205Y6494962D02*
X11378443Y6542581D01*
X11378443Y6542581D02*
X11616538Y6542581D01*
X11616538Y6542581D02*
X11759395Y6494962D01*
X12092729Y6542581D02*
X12330824Y5542581D01*
X12330824Y5542581D02*
X12521300Y6256867D01*
X12521300Y6256867D02*
X12711776Y5542581D01*
X12711776Y5542581D02*
X12949872Y6542581D01*
X13473681Y6114010D02*
X13378443Y6161629D01*
X13378443Y6161629D02*
X13330824Y6209248D01*
X13330824Y6209248D02*
X13283205Y6304486D01*
X13283205Y6304486D02*
X13283205Y6352105D01*
X13283205Y6352105D02*
X13330824Y6447343D01*
X13330824Y6447343D02*
X13378443Y6494962D01*
X13378443Y6494962D02*
X13473681Y6542581D01*
X13473681Y6542581D02*
X13664157Y6542581D01*
X13664157Y6542581D02*
X13759395Y6494962D01*
X13759395Y6494962D02*
X13807014Y6447343D01*
X13807014Y6447343D02*
X13854633Y6352105D01*
X13854633Y6352105D02*
X13854633Y6304486D01*
X13854633Y6304486D02*
X13807014Y6209248D01*
X13807014Y6209248D02*
X13759395Y6161629D01*
X13759395Y6161629D02*
X13664157Y6114010D01*
X13664157Y6114010D02*
X13473681Y6114010D01*
X13473681Y6114010D02*
X13378443Y6066391D01*
X13378443Y6066391D02*
X13330824Y6018772D01*
X13330824Y6018772D02*
X13283205Y5923534D01*
X13283205Y5923534D02*
X13283205Y5733058D01*
X13283205Y5733058D02*
X13330824Y5637820D01*
X13330824Y5637820D02*
X13378443Y5590200D01*
X13378443Y5590200D02*
X13473681Y5542581D01*
X13473681Y5542581D02*
X13664157Y5542581D01*
X13664157Y5542581D02*
X13759395Y5590200D01*
X13759395Y5590200D02*
X13807014Y5637820D01*
X13807014Y5637820D02*
X13854633Y5733058D01*
X13854633Y5733058D02*
X13854633Y5923534D01*
X13854633Y5923534D02*
X13807014Y6018772D01*
X13807014Y6018772D02*
X13759395Y6066391D01*
X13759395Y6066391D02*
X13664157Y6114010D01*
X-13812033Y-14409800D02*
X-13669176Y-14457419D01*
X-13669176Y-14457419D02*
X-13431081Y-14457419D01*
X-13431081Y-14457419D02*
X-13335843Y-14409800D01*
X-13335843Y-14409800D02*
X-13288224Y-14362180D01*
X-13288224Y-14362180D02*
X-13240605Y-14266942D01*
X-13240605Y-14266942D02*
X-13240605Y-14171704D01*
X-13240605Y-14171704D02*
X-13288224Y-14076466D01*
X-13288224Y-14076466D02*
X-13335843Y-14028847D01*
X-13335843Y-14028847D02*
X-13431081Y-13981228D01*
X-13431081Y-13981228D02*
X-13621557Y-13933609D01*
X-13621557Y-13933609D02*
X-13716795Y-13885990D01*
X-13716795Y-13885990D02*
X-13764414Y-13838371D01*
X-13764414Y-13838371D02*
X-13812033Y-13743133D01*
X-13812033Y-13743133D02*
X-13812033Y-13647895D01*
X-13812033Y-13647895D02*
X-13764414Y-13552657D01*
X-13764414Y-13552657D02*
X-13716795Y-13505038D01*
X-13716795Y-13505038D02*
X-13621557Y-13457419D01*
X-13621557Y-13457419D02*
X-13383462Y-13457419D01*
X-13383462Y-13457419D02*
X-13240605Y-13505038D01*
X-12907271Y-13457419D02*
X-12669176Y-14457419D01*
X-12669176Y-14457419D02*
X-12478700Y-13743133D01*
X-12478700Y-13743133D02*
X-12288224Y-14457419D01*
X-12288224Y-14457419D02*
X-12050128Y-13457419D01*
X-11240605Y-13790752D02*
X-11240605Y-14457419D01*
X-11478700Y-13409800D02*
X-11716795Y-14124085D01*
X-11716795Y-14124085D02*
X-11097748Y-14124085D01*
X11187967Y25590200D02*
X11330824Y25542581D01*
X11330824Y25542581D02*
X11568919Y25542581D01*
X11568919Y25542581D02*
X11664157Y25590200D01*
X11664157Y25590200D02*
X11711776Y25637820D01*
X11711776Y25637820D02*
X11759395Y25733058D01*
X11759395Y25733058D02*
X11759395Y25828296D01*
X11759395Y25828296D02*
X11711776Y25923534D01*
X11711776Y25923534D02*
X11664157Y25971153D01*
X11664157Y25971153D02*
X11568919Y26018772D01*
X11568919Y26018772D02*
X11378443Y26066391D01*
X11378443Y26066391D02*
X11283205Y26114010D01*
X11283205Y26114010D02*
X11235586Y26161629D01*
X11235586Y26161629D02*
X11187967Y26256867D01*
X11187967Y26256867D02*
X11187967Y26352105D01*
X11187967Y26352105D02*
X11235586Y26447343D01*
X11235586Y26447343D02*
X11283205Y26494962D01*
X11283205Y26494962D02*
X11378443Y26542581D01*
X11378443Y26542581D02*
X11616538Y26542581D01*
X11616538Y26542581D02*
X11759395Y26494962D01*
X12092729Y26542581D02*
X12330824Y25542581D01*
X12330824Y25542581D02*
X12521300Y26256867D01*
X12521300Y26256867D02*
X12711776Y25542581D01*
X12711776Y25542581D02*
X12949872Y26542581D01*
X13235586Y26542581D02*
X13902252Y26542581D01*
X13902252Y26542581D02*
X13473681Y25542581D01*
D10*
X-21361905Y-42254819D02*
X-21361905Y-41254819D01*
X-21361905Y-41731009D02*
X-20790477Y-41731009D01*
X-20790477Y-42254819D02*
X-20790477Y-41254819D01*
X-19790477Y-42254819D02*
X-20361905Y-42254819D01*
X-20076191Y-42254819D02*
X-20076191Y-41254819D01*
X-20076191Y-41254819D02*
X-20171429Y-41397676D01*
X-20171429Y-41397676D02*
X-20266667Y-41492914D01*
X-20266667Y-41492914D02*
X-20361905Y-41540533D01*
D11*
X-13812033Y5590200D02*
X-13669176Y5542581D01*
X-13669176Y5542581D02*
X-13431081Y5542581D01*
X-13431081Y5542581D02*
X-13335843Y5590200D01*
X-13335843Y5590200D02*
X-13288224Y5637820D01*
X-13288224Y5637820D02*
X-13240605Y5733058D01*
X-13240605Y5733058D02*
X-13240605Y5828296D01*
X-13240605Y5828296D02*
X-13288224Y5923534D01*
X-13288224Y5923534D02*
X-13335843Y5971153D01*
X-13335843Y5971153D02*
X-13431081Y6018772D01*
X-13431081Y6018772D02*
X-13621557Y6066391D01*
X-13621557Y6066391D02*
X-13716795Y6114010D01*
X-13716795Y6114010D02*
X-13764414Y6161629D01*
X-13764414Y6161629D02*
X-13812033Y6256867D01*
X-13812033Y6256867D02*
X-13812033Y6352105D01*
X-13812033Y6352105D02*
X-13764414Y6447343D01*
X-13764414Y6447343D02*
X-13716795Y6494962D01*
X-13716795Y6494962D02*
X-13621557Y6542581D01*
X-13621557Y6542581D02*
X-13383462Y6542581D01*
X-13383462Y6542581D02*
X-13240605Y6494962D01*
X-12907271Y6542581D02*
X-12669176Y5542581D01*
X-12669176Y5542581D02*
X-12478700Y6256867D01*
X-12478700Y6256867D02*
X-12288224Y5542581D01*
X-12288224Y5542581D02*
X-12050128Y6542581D01*
X-11764414Y6542581D02*
X-11145367Y6542581D01*
X-11145367Y6542581D02*
X-11478700Y6161629D01*
X-11478700Y6161629D02*
X-11335843Y6161629D01*
X-11335843Y6161629D02*
X-11240605Y6114010D01*
X-11240605Y6114010D02*
X-11192986Y6066391D01*
X-11192986Y6066391D02*
X-11145367Y5971153D01*
X-11145367Y5971153D02*
X-11145367Y5733058D01*
X-11145367Y5733058D02*
X-11192986Y5637820D01*
X-11192986Y5637820D02*
X-11240605Y5590200D01*
X-11240605Y5590200D02*
X-11335843Y5542581D01*
X-11335843Y5542581D02*
X-11621557Y5542581D01*
X-11621557Y5542581D02*
X-11716795Y5590200D01*
X-11716795Y5590200D02*
X-11764414Y5637820D01*
X10711776Y-33288500D02*
X10854633Y-33336119D01*
X10854633Y-33336119D02*
X11092728Y-33336119D01*
X11092728Y-33336119D02*
X11187966Y-33288500D01*
X11187966Y-33288500D02*
X11235585Y-33240880D01*
X11235585Y-33240880D02*
X11283204Y-33145642D01*
X11283204Y-33145642D02*
X11283204Y-33050404D01*
X11283204Y-33050404D02*
X11235585Y-32955166D01*
X11235585Y-32955166D02*
X11187966Y-32907547D01*
X11187966Y-32907547D02*
X11092728Y-32859928D01*
X11092728Y-32859928D02*
X10902252Y-32812309D01*
X10902252Y-32812309D02*
X10807014Y-32764690D01*
X10807014Y-32764690D02*
X10759395Y-32717071D01*
X10759395Y-32717071D02*
X10711776Y-32621833D01*
X10711776Y-32621833D02*
X10711776Y-32526595D01*
X10711776Y-32526595D02*
X10759395Y-32431357D01*
X10759395Y-32431357D02*
X10807014Y-32383738D01*
X10807014Y-32383738D02*
X10902252Y-32336119D01*
X10902252Y-32336119D02*
X11140347Y-32336119D01*
X11140347Y-32336119D02*
X11283204Y-32383738D01*
X11616538Y-32336119D02*
X11854633Y-33336119D01*
X11854633Y-33336119D02*
X12045109Y-32621833D01*
X12045109Y-32621833D02*
X12235585Y-33336119D01*
X12235585Y-33336119D02*
X12473681Y-32336119D01*
X13378442Y-33336119D02*
X12807014Y-33336119D01*
X13092728Y-33336119D02*
X13092728Y-32336119D01*
X13092728Y-32336119D02*
X12997490Y-32478976D01*
X12997490Y-32478976D02*
X12902252Y-32574214D01*
X12902252Y-32574214D02*
X12807014Y-32621833D01*
X13997490Y-32336119D02*
X14092728Y-32336119D01*
X14092728Y-32336119D02*
X14187966Y-32383738D01*
X14187966Y-32383738D02*
X14235585Y-32431357D01*
X14235585Y-32431357D02*
X14283204Y-32526595D01*
X14283204Y-32526595D02*
X14330823Y-32717071D01*
X14330823Y-32717071D02*
X14330823Y-32955166D01*
X14330823Y-32955166D02*
X14283204Y-33145642D01*
X14283204Y-33145642D02*
X14235585Y-33240880D01*
X14235585Y-33240880D02*
X14187966Y-33288500D01*
X14187966Y-33288500D02*
X14092728Y-33336119D01*
X14092728Y-33336119D02*
X13997490Y-33336119D01*
X13997490Y-33336119D02*
X13902252Y-33288500D01*
X13902252Y-33288500D02*
X13854633Y-33240880D01*
X13854633Y-33240880D02*
X13807014Y-33145642D01*
X13807014Y-33145642D02*
X13759395Y-32955166D01*
X13759395Y-32955166D02*
X13759395Y-32717071D01*
X13759395Y-32717071D02*
X13807014Y-32526595D01*
X13807014Y-32526595D02*
X13854633Y-32431357D01*
X13854633Y-32431357D02*
X13902252Y-32383738D01*
X13902252Y-32383738D02*
X13997490Y-32336119D01*
X-13933333Y45590200D02*
X-13790476Y45542581D01*
X-13790476Y45542581D02*
X-13552381Y45542581D01*
X-13552381Y45542581D02*
X-13457143Y45590200D01*
X-13457143Y45590200D02*
X-13409524Y45637820D01*
X-13409524Y45637820D02*
X-13361905Y45733058D01*
X-13361905Y45733058D02*
X-13361905Y45828296D01*
X-13361905Y45828296D02*
X-13409524Y45923534D01*
X-13409524Y45923534D02*
X-13457143Y45971153D01*
X-13457143Y45971153D02*
X-13552381Y46018772D01*
X-13552381Y46018772D02*
X-13742857Y46066391D01*
X-13742857Y46066391D02*
X-13838095Y46114010D01*
X-13838095Y46114010D02*
X-13885714Y46161629D01*
X-13885714Y46161629D02*
X-13933333Y46256867D01*
X-13933333Y46256867D02*
X-13933333Y46352105D01*
X-13933333Y46352105D02*
X-13885714Y46447343D01*
X-13885714Y46447343D02*
X-13838095Y46494962D01*
X-13838095Y46494962D02*
X-13742857Y46542581D01*
X-13742857Y46542581D02*
X-13504762Y46542581D01*
X-13504762Y46542581D02*
X-13361905Y46494962D01*
X-13028571Y46542581D02*
X-12790476Y45542581D01*
X-12790476Y45542581D02*
X-12600000Y46256867D01*
X-12600000Y46256867D02*
X-12409524Y45542581D01*
X-12409524Y45542581D02*
X-12171428Y46542581D01*
X-11266667Y45542581D02*
X-11838095Y45542581D01*
X-11552381Y45542581D02*
X-11552381Y46542581D01*
X-11552381Y46542581D02*
X-11647619Y46399724D01*
X-11647619Y46399724D02*
X-11742857Y46304486D01*
X-11742857Y46304486D02*
X-11838095Y46256867D01*
D10*
X-22361905Y50745181D02*
X-22361905Y51745181D01*
X-22361905Y51268991D02*
X-21790477Y51268991D01*
X-21790477Y50745181D02*
X-21790477Y51745181D01*
X-20885715Y51411848D02*
X-20885715Y50745181D01*
X-21123810Y51792800D02*
X-21361905Y51078515D01*
X-21361905Y51078515D02*
X-20742858Y51078515D01*
D11*
X-13933333Y25590200D02*
X-13790476Y25542581D01*
X-13790476Y25542581D02*
X-13552381Y25542581D01*
X-13552381Y25542581D02*
X-13457143Y25590200D01*
X-13457143Y25590200D02*
X-13409524Y25637820D01*
X-13409524Y25637820D02*
X-13361905Y25733058D01*
X-13361905Y25733058D02*
X-13361905Y25828296D01*
X-13361905Y25828296D02*
X-13409524Y25923534D01*
X-13409524Y25923534D02*
X-13457143Y25971153D01*
X-13457143Y25971153D02*
X-13552381Y26018772D01*
X-13552381Y26018772D02*
X-13742857Y26066391D01*
X-13742857Y26066391D02*
X-13838095Y26114010D01*
X-13838095Y26114010D02*
X-13885714Y26161629D01*
X-13885714Y26161629D02*
X-13933333Y26256867D01*
X-13933333Y26256867D02*
X-13933333Y26352105D01*
X-13933333Y26352105D02*
X-13885714Y26447343D01*
X-13885714Y26447343D02*
X-13838095Y26494962D01*
X-13838095Y26494962D02*
X-13742857Y26542581D01*
X-13742857Y26542581D02*
X-13504762Y26542581D01*
X-13504762Y26542581D02*
X-13361905Y26494962D01*
X-13028571Y26542581D02*
X-12790476Y25542581D01*
X-12790476Y25542581D02*
X-12600000Y26256867D01*
X-12600000Y26256867D02*
X-12409524Y25542581D01*
X-12409524Y25542581D02*
X-12171428Y26542581D01*
X-11838095Y26447343D02*
X-11790476Y26494962D01*
X-11790476Y26494962D02*
X-11695238Y26542581D01*
X-11695238Y26542581D02*
X-11457143Y26542581D01*
X-11457143Y26542581D02*
X-11361905Y26494962D01*
X-11361905Y26494962D02*
X-11314286Y26447343D01*
X-11314286Y26447343D02*
X-11266667Y26352105D01*
X-11266667Y26352105D02*
X-11266667Y26256867D01*
X-11266667Y26256867D02*
X-11314286Y26114010D01*
X-11314286Y26114010D02*
X-11885714Y25542581D01*
X-11885714Y25542581D02*
X-11266667Y25542581D01*
D10*
X20638095Y50745181D02*
X20638095Y51745181D01*
X20638095Y51268991D02*
X21209523Y51268991D01*
X21209523Y50745181D02*
X21209523Y51745181D01*
X21590476Y51745181D02*
X22209523Y51745181D01*
X22209523Y51745181D02*
X21876190Y51364229D01*
X21876190Y51364229D02*
X22019047Y51364229D01*
X22019047Y51364229D02*
X22114285Y51316610D01*
X22114285Y51316610D02*
X22161904Y51268991D01*
X22161904Y51268991D02*
X22209523Y51173753D01*
X22209523Y51173753D02*
X22209523Y50935658D01*
X22209523Y50935658D02*
X22161904Y50840420D01*
X22161904Y50840420D02*
X22114285Y50792800D01*
X22114285Y50792800D02*
X22019047Y50745181D01*
X22019047Y50745181D02*
X21733333Y50745181D01*
X21733333Y50745181D02*
X21638095Y50792800D01*
X21638095Y50792800D02*
X21590476Y50840420D01*
D11*
X11187967Y45590200D02*
X11330824Y45542581D01*
X11330824Y45542581D02*
X11568919Y45542581D01*
X11568919Y45542581D02*
X11664157Y45590200D01*
X11664157Y45590200D02*
X11711776Y45637820D01*
X11711776Y45637820D02*
X11759395Y45733058D01*
X11759395Y45733058D02*
X11759395Y45828296D01*
X11759395Y45828296D02*
X11711776Y45923534D01*
X11711776Y45923534D02*
X11664157Y45971153D01*
X11664157Y45971153D02*
X11568919Y46018772D01*
X11568919Y46018772D02*
X11378443Y46066391D01*
X11378443Y46066391D02*
X11283205Y46114010D01*
X11283205Y46114010D02*
X11235586Y46161629D01*
X11235586Y46161629D02*
X11187967Y46256867D01*
X11187967Y46256867D02*
X11187967Y46352105D01*
X11187967Y46352105D02*
X11235586Y46447343D01*
X11235586Y46447343D02*
X11283205Y46494962D01*
X11283205Y46494962D02*
X11378443Y46542581D01*
X11378443Y46542581D02*
X11616538Y46542581D01*
X11616538Y46542581D02*
X11759395Y46494962D01*
X12092729Y46542581D02*
X12330824Y45542581D01*
X12330824Y45542581D02*
X12521300Y46256867D01*
X12521300Y46256867D02*
X12711776Y45542581D01*
X12711776Y45542581D02*
X12949872Y46542581D01*
X13759395Y46542581D02*
X13568919Y46542581D01*
X13568919Y46542581D02*
X13473681Y46494962D01*
X13473681Y46494962D02*
X13426062Y46447343D01*
X13426062Y46447343D02*
X13330824Y46304486D01*
X13330824Y46304486D02*
X13283205Y46114010D01*
X13283205Y46114010D02*
X13283205Y45733058D01*
X13283205Y45733058D02*
X13330824Y45637820D01*
X13330824Y45637820D02*
X13378443Y45590200D01*
X13378443Y45590200D02*
X13473681Y45542581D01*
X13473681Y45542581D02*
X13664157Y45542581D01*
X13664157Y45542581D02*
X13759395Y45590200D01*
X13759395Y45590200D02*
X13807014Y45637820D01*
X13807014Y45637820D02*
X13854633Y45733058D01*
X13854633Y45733058D02*
X13854633Y45971153D01*
X13854633Y45971153D02*
X13807014Y46066391D01*
X13807014Y46066391D02*
X13759395Y46114010D01*
X13759395Y46114010D02*
X13664157Y46161629D01*
X13664157Y46161629D02*
X13473681Y46161629D01*
X13473681Y46161629D02*
X13378443Y46114010D01*
X13378443Y46114010D02*
X13330824Y46066391D01*
X13330824Y46066391D02*
X13283205Y45971153D01*
D10*
X20138095Y-42254819D02*
X20138095Y-41254819D01*
X20138095Y-41731009D02*
X20709523Y-41731009D01*
X20709523Y-42254819D02*
X20709523Y-41254819D01*
X21138095Y-41350057D02*
X21185714Y-41302438D01*
X21185714Y-41302438D02*
X21280952Y-41254819D01*
X21280952Y-41254819D02*
X21519047Y-41254819D01*
X21519047Y-41254819D02*
X21614285Y-41302438D01*
X21614285Y-41302438D02*
X21661904Y-41350057D01*
X21661904Y-41350057D02*
X21709523Y-41445295D01*
X21709523Y-41445295D02*
X21709523Y-41540533D01*
X21709523Y-41540533D02*
X21661904Y-41683390D01*
X21661904Y-41683390D02*
X21090476Y-42254819D01*
X21090476Y-42254819D02*
X21709523Y-42254819D01*
D11*
%TO.C,SW9*%
X11321300Y-20000000D02*
X14121300Y-20000000D01*
X12521300Y-19400000D02*
X12521300Y-20700000D01*
X12521300Y-20700000D02*
X13521300Y-20000000D01*
X13521300Y-19300000D02*
X13521300Y-20800000D01*
X13521300Y-20000000D02*
X12521300Y-19400000D01*
%TO.C,SW5*%
X-13678700Y-38878700D02*
X-10878700Y-38878700D01*
X-12478700Y-38278700D02*
X-12478700Y-39578700D01*
X-12478700Y-39578700D02*
X-11478700Y-38878700D01*
X-11478700Y-38178700D02*
X-11478700Y-39678700D01*
X-11478700Y-38878700D02*
X-12478700Y-38278700D01*
D12*
%TO.C,J1*%
X-6590000Y32330000D02*
X-6590000Y29670000D01*
X3630000Y32330000D02*
X-6590000Y32330000D01*
X3630000Y32330000D02*
X3630000Y29670000D01*
X3630000Y29670000D02*
X-6590000Y29670000D01*
X4900000Y32330000D02*
X6230000Y32330000D01*
X6230000Y32330000D02*
X6230000Y31000000D01*
D11*
%TO.C,SW8*%
X11321300Y0D02*
X14121300Y0D01*
X12521300Y600000D02*
X12521300Y-700000D01*
X12521300Y-700000D02*
X13521300Y0D01*
X13521300Y700000D02*
X13521300Y-800000D01*
X13521300Y0D02*
X12521300Y600000D01*
%TO.C,SW4*%
X-13678700Y-20000000D02*
X-10878700Y-20000000D01*
X-12478700Y-19400000D02*
X-12478700Y-20700000D01*
X-12478700Y-20700000D02*
X-11478700Y-20000000D01*
X-11478700Y-19300000D02*
X-11478700Y-20800000D01*
X-11478700Y-20000000D02*
X-12478700Y-19400000D01*
%TO.C,SW7*%
X11321300Y20000000D02*
X14121300Y20000000D01*
X12521300Y20600000D02*
X12521300Y19300000D01*
X12521300Y19300000D02*
X13521300Y20000000D01*
X13521300Y20700000D02*
X13521300Y19200000D01*
X13521300Y20000000D02*
X12521300Y20600000D01*
%TO.C,SW3*%
X-13678700Y0D02*
X-10878700Y0D01*
X-12478700Y600000D02*
X-12478700Y-700000D01*
X-12478700Y-700000D02*
X-11478700Y0D01*
X-11478700Y700000D02*
X-11478700Y-800000D01*
X-11478700Y0D02*
X-12478700Y600000D01*
%TO.C,SW10*%
X11321300Y-38878700D02*
X14121300Y-38878700D01*
X12521300Y-38278700D02*
X12521300Y-39578700D01*
X12521300Y-39578700D02*
X13521300Y-38878700D01*
X13521300Y-38178700D02*
X13521300Y-39678700D01*
X13521300Y-38878700D02*
X12521300Y-38278700D01*
%TO.C,SW1*%
X-13800000Y40000000D02*
X-11000000Y40000000D01*
X-12600000Y40600000D02*
X-12600000Y39300000D01*
X-12600000Y39300000D02*
X-11600000Y40000000D01*
X-11600000Y40700000D02*
X-11600000Y39200000D01*
X-11600000Y40000000D02*
X-12600000Y40600000D01*
%TO.C,SW2*%
X-13800000Y20000000D02*
X-11000000Y20000000D01*
X-12600000Y20600000D02*
X-12600000Y19300000D01*
X-12600000Y19300000D02*
X-11600000Y20000000D01*
X-11600000Y20700000D02*
X-11600000Y19200000D01*
X-11600000Y20000000D02*
X-12600000Y20600000D01*
%TO.C,SW6*%
X11321300Y40000000D02*
X14121300Y40000000D01*
X12521300Y40600000D02*
X12521300Y39300000D01*
X12521300Y39300000D02*
X13521300Y40000000D01*
X13521300Y40700000D02*
X13521300Y39200000D01*
X13521300Y40000000D02*
X12521300Y40600000D01*
%TD*%
M02*
