M48
; DRILL file {KiCad 8.0.2} date 2024-08-19T17:56:22+0200
; FORMAT={-:-/ absolute / metric / decimal}
; #@! TF.CreationDate,2024-08-19T17:56:22+02:00
; #@! TF.GenerationSoftware,Kicad,Pcbnew,8.0.2
; #@! TF.FileFunction,Plated,1,2,PTH
FMAT,2
METRIC
; #@! TA.AperFunction,Plated,PTH,ViaDrill
T1C0.300
; #@! TA.AperFunction,Plated,PTH,ComponentDrill
T2C1.000
; #@! TA.AperFunction,Plated,PTH,ComponentDrill
T3C1.100
%
G90
G05
T1
X-19.1Y27.0
X-18.35Y14.25
X-18.1Y34.75
X-17.85Y9.25
X-16.6Y11.75
X-15.85Y-44.25
X-13.35Y33.25
X-12.827Y28.727
X-12.6Y26.5
X-11.1Y32.75
X-11.1Y7.5
X-10.1Y35.0
X-9.35Y6.75
X-9.1Y-29.25
X-8.85Y27.225
X-8.6Y9.75
X-8.1Y34.0
X-7.6Y7.0
X-6.6Y32.5
X-6.6Y25.5
X-6.35Y-30.0
X-5.6Y23.5
X-4.1Y20.5
X-3.35Y-7.75
X-1.35Y35.0
X-1.1Y29.5
X-0.1Y-0.75
X-0.1Y-5.5
X0.775Y-7.125
X0.9Y19.5
X1.9Y30.25
X1.9Y25.0
X2.15Y-6.5
X2.183Y-1.003
X3.15Y25.25
X3.15Y22.25
X4.15Y21.25
X4.9Y25.75
X4.9Y20.0
X4.9Y-0.25
X6.4Y30.0
X6.4Y-0.25
X6.4Y-4.0
X6.9Y14.25
X7.4Y7.5
X7.51Y33.838
X8.4Y32.475
X9.15Y10.5
X9.153Y14.337
X9.9Y9.0
X9.9Y-6.0
X9.9Y-9.25
X15.15Y35.369
X15.4Y33.253
X15.9Y-11.5
X16.15Y-25.75
X16.4Y-9.75
X17.4Y35.25
X18.9Y9.25
X18.9Y-34.5
X19.65Y-43.5
X19.9Y-9.75
X20.9Y-11.5
X21.15Y32.0
X23.4Y29.25
T2
X-19.175Y30.0
X-16.635Y30.0
X-14.095Y30.0
X-12.6Y43.1
X-12.6Y36.9
X-12.6Y23.1
X-12.6Y16.9
X-12.479Y3.1
X-12.479Y-3.1
X-12.479Y-16.9
X-12.479Y-23.1
X-12.479Y-35.779
X-12.479Y-41.979
X-11.555Y30.0
X-9.015Y30.0
X9.325Y30.0
X11.865Y30.0
X12.521Y43.1
X12.521Y36.9
X12.521Y23.1
X12.521Y16.9
X12.521Y3.1
X12.521Y-3.1
X12.521Y-16.9
X12.521Y-23.1
X12.521Y-35.779
X12.521Y-41.979
X14.405Y30.0
X16.945Y30.0
X19.485Y30.0
T3
X-15.85Y42.25
X-15.85Y37.75
X-15.85Y22.25
X-15.85Y17.75
X-15.729Y2.25
X-15.729Y-2.25
X-15.729Y-17.75
X-15.729Y-22.25
X-15.729Y-36.629
X-15.729Y-41.129
X-9.35Y42.25
X-9.35Y37.75
X-9.35Y22.25
X-9.35Y17.75
X-9.229Y2.25
X-9.229Y-2.25
X-9.229Y-17.75
X-9.229Y-22.25
X-9.229Y-36.629
X-9.229Y-41.129
X9.271Y42.25
X9.271Y37.75
X9.271Y22.25
X9.271Y17.75
X9.271Y2.25
X9.271Y-2.25
X9.271Y-17.75
X9.271Y-22.25
X9.271Y-36.629
X9.271Y-41.129
X15.771Y42.25
X15.771Y37.75
X15.771Y22.25
X15.771Y17.75
X15.771Y2.25
X15.771Y-2.25
X15.771Y-17.75
X15.771Y-22.25
X15.771Y-36.629
X15.771Y-41.129
M30
