%TF.GenerationSoftware,KiCad,Pcbnew,8.0.2*%
%TF.CreationDate,2024-08-19T17:56:01+02:00*%
%TF.ProjectId,Deck-Btns,4465636b-2d42-4746-9e73-2e6b69636164,rev?*%
%TF.SameCoordinates,Original*%
%TF.FileFunction,Copper,L1,Top*%
%TF.FilePolarity,Positive*%
%FSLAX46Y46*%
G04 Gerber Fmt 4.6, Leading zero omitted, Abs format (unit mm)*
G04 Created by KiCad (PCBNEW 8.0.2) date 2024-08-19 17:56:01*
%MOMM*%
%LPD*%
G01*
G04 APERTURE LIST*
%TA.AperFunction,ComponentPad*%
%ADD10C,2.000000*%
%TD*%
%TA.AperFunction,ComponentPad*%
%ADD11R,1.700000X1.700000*%
%TD*%
%TA.AperFunction,ComponentPad*%
%ADD12O,1.700000X1.700000*%
%TD*%
%TA.AperFunction,ViaPad*%
%ADD13C,0.600000*%
%TD*%
%TA.AperFunction,Conductor*%
%ADD14C,0.406400*%
%TD*%
G04 APERTURE END LIST*
D10*
%TO.P,SW10,1,1*%
%TO.N,GND*%
X104371320Y-121628680D03*
X110871320Y-121628680D03*
%TO.P,SW10,2,2*%
%TO.N,DECK-SW10*%
X104371320Y-126128680D03*
X110871320Y-126128680D03*
%TO.P,SW10,3,K*%
%TO.N,Net-(SW10-K)*%
X107621320Y-120778680D03*
%TO.P,SW10,4,A*%
%TO.N,DECK-LED-10*%
X107621320Y-126978680D03*
%TD*%
%TO.P,SW9,1,1*%
%TO.N,GND*%
X104371320Y-102750000D03*
X110871320Y-102750000D03*
%TO.P,SW9,2,2*%
%TO.N,DECK-SW9*%
X104371320Y-107250000D03*
X110871320Y-107250000D03*
%TO.P,SW9,3,K*%
%TO.N,Net-(SW9-K)*%
X107621320Y-101900000D03*
%TO.P,SW9,4,A*%
%TO.N,DECK-LED-9*%
X107621320Y-108100000D03*
%TD*%
%TO.P,SW8,1,1*%
%TO.N,GND*%
X104371320Y-82750000D03*
X110871320Y-82750000D03*
%TO.P,SW8,2,2*%
%TO.N,DECK-SW8*%
X104371320Y-87250000D03*
X110871320Y-87250000D03*
%TO.P,SW8,3,K*%
%TO.N,Net-(SW8-K)*%
X107621320Y-81900000D03*
%TO.P,SW8,4,A*%
%TO.N,DECK-LED-8*%
X107621320Y-88100000D03*
%TD*%
%TO.P,SW7,1,1*%
%TO.N,GND*%
X104371320Y-62750000D03*
X110871320Y-62750000D03*
%TO.P,SW7,2,2*%
%TO.N,DECK-SW7*%
X104371320Y-67250000D03*
X110871320Y-67250000D03*
%TO.P,SW7,3,K*%
%TO.N,Net-(SW7-K)*%
X107621320Y-61900000D03*
%TO.P,SW7,4,A*%
%TO.N,DECK-LED-7*%
X107621320Y-68100000D03*
%TD*%
%TO.P,SW6,1,1*%
%TO.N,GND*%
X104371320Y-42750000D03*
X110871320Y-42750000D03*
%TO.P,SW6,2,2*%
%TO.N,DECK-SW6*%
X104371320Y-47250000D03*
X110871320Y-47250000D03*
%TO.P,SW6,3,K*%
%TO.N,Net-(SW6-K)*%
X107621320Y-41900000D03*
%TO.P,SW6,4,A*%
%TO.N,DECK-LED-6*%
X107621320Y-48100000D03*
%TD*%
%TO.P,SW5,1,1*%
%TO.N,GND*%
X79371320Y-121628680D03*
X85871320Y-121628680D03*
%TO.P,SW5,2,2*%
%TO.N,DECK-SW5*%
X79371320Y-126128680D03*
X85871320Y-126128680D03*
%TO.P,SW5,3,K*%
%TO.N,Net-(SW5-K)*%
X82621320Y-120778680D03*
%TO.P,SW5,4,A*%
%TO.N,DECK-LED-5*%
X82621320Y-126978680D03*
%TD*%
%TO.P,SW4,1,1*%
%TO.N,GND*%
X79371320Y-102750000D03*
X85871320Y-102750000D03*
%TO.P,SW4,2,2*%
%TO.N,DECK-SW4*%
X79371320Y-107250000D03*
X85871320Y-107250000D03*
%TO.P,SW4,3,K*%
%TO.N,Net-(SW4-K)*%
X82621320Y-101900000D03*
%TO.P,SW4,4,A*%
%TO.N,DECK-LED-4*%
X82621320Y-108100000D03*
%TD*%
%TO.P,SW3,1,1*%
%TO.N,GND*%
X79371320Y-82750000D03*
X85871320Y-82750000D03*
%TO.P,SW3,2,2*%
%TO.N,DECK-SW3*%
X79371320Y-87250000D03*
X85871320Y-87250000D03*
%TO.P,SW3,3,K*%
%TO.N,Net-(SW3-K)*%
X82621320Y-81900000D03*
%TO.P,SW3,4,A*%
%TO.N,DECK-LED-3*%
X82621320Y-88100000D03*
%TD*%
%TO.P,SW2,1,1*%
%TO.N,GND*%
X79250000Y-62750000D03*
X85750000Y-62750000D03*
%TO.P,SW2,2,2*%
%TO.N,DECK-SW2*%
X79250000Y-67250000D03*
X85750000Y-67250000D03*
%TO.P,SW2,3,K*%
%TO.N,Net-(SW2-K)*%
X82500000Y-61900000D03*
%TO.P,SW2,4,A*%
%TO.N,DECK-LED-2*%
X82500000Y-68100000D03*
%TD*%
%TO.P,SW1,1,1*%
%TO.N,GND*%
X79250000Y-42750000D03*
X85750000Y-42750000D03*
%TO.P,SW1,2,2*%
%TO.N,DECK-SW1*%
X79250000Y-47250000D03*
X85750000Y-47250000D03*
%TO.P,SW1,3,K*%
%TO.N,Net-(SW1-K)*%
X82500000Y-41900000D03*
%TO.P,SW1,4,A*%
%TO.N,DECK-LED-1*%
X82500000Y-48100000D03*
%TD*%
D11*
%TO.P,J2,1,Pin_1*%
%TO.N,MPLEX-DECK*%
X104425000Y-55000000D03*
D12*
%TO.P,J2,2,Pin_2*%
%TO.N,MPLEX-S0*%
X106965000Y-55000000D03*
%TO.P,J2,3,Pin_3*%
%TO.N,MPLEX-S1*%
X109505000Y-55000000D03*
%TO.P,J2,4,Pin_4*%
%TO.N,MPLEX-S2*%
X112045000Y-55000000D03*
%TO.P,J2,5,Pin_5*%
%TO.N,MPLEX-S3*%
X114585000Y-55000000D03*
%TD*%
D11*
%TO.P,J1,1,Pin_1*%
%TO.N,GND*%
X75925000Y-55000000D03*
D12*
%TO.P,J1,2,Pin_2*%
%TO.N,+5V*%
X78465000Y-55000000D03*
%TO.P,J1,3,Pin_3*%
%TO.N,DECK-LED-SIG*%
X81005000Y-55000000D03*
%TO.P,J1,4,Pin_4*%
%TO.N,SRCLK*%
X83545000Y-55000000D03*
%TO.P,J1,5,Pin_5*%
%TO.N,DECK-LED-LATCH*%
X86085000Y-55000000D03*
%TD*%
D13*
%TO.N,DECK-SW2*%
X76750000Y-70750000D03*
X78500000Y-73250000D03*
%TO.N,GND*%
X77000000Y-50250000D03*
X91000000Y-64500000D03*
X94000000Y-55500000D03*
X97000000Y-54750000D03*
%TO.N,+5V*%
X114000000Y-119500000D03*
X114750000Y-128500000D03*
%TO.N,GND*%
X103500000Y-52525000D03*
X112500000Y-49750000D03*
%TO.N,Net-(U2-QH')*%
X96000000Y-65500000D03*
X105000000Y-76000000D03*
X114000000Y-75750000D03*
X111250000Y-110750000D03*
X100000000Y-59250000D03*
X100000000Y-65000000D03*
%TO.N,GND*%
X86000000Y-114250000D03*
X105000000Y-91000000D03*
X105000000Y-94250000D03*
%TO.N,+5V*%
X100000000Y-85250000D03*
X91750000Y-92750000D03*
X86250000Y-57774999D03*
X104250000Y-74500000D03*
X97000000Y-60000000D03*
%TO.N,DECK-LED-5*%
X79250000Y-129250000D03*
X81750000Y-51750000D03*
%TO.N,DECK-LED-4*%
X93750000Y-50000000D03*
X95875000Y-92125000D03*
%TO.N,DECK-LED-8*%
X118500000Y-55750000D03*
X110500000Y-51746800D03*
X110250000Y-49630800D03*
X116250000Y-53000000D03*
X111500000Y-94750000D03*
X115000000Y-94750000D03*
%TO.N,GND*%
X102000000Y-70750000D03*
X76000000Y-58000000D03*
%TO.N,DECK-LED-LATCH*%
X84000000Y-52250000D03*
X88750000Y-115000000D03*
%TO.N,DECK-SW10*%
X95000000Y-85750000D03*
X95000000Y-90500000D03*
X111000000Y-96500000D03*
X116000000Y-96500000D03*
%TO.N,DECK-SW9*%
X97282593Y-86003200D03*
X97250000Y-91500000D03*
%TO.N,DECK-SW7*%
X101500000Y-85250000D03*
X101500000Y-89000000D03*
%TO.N,DECK-LED-7*%
X104253200Y-70663158D03*
X102610029Y-51162200D03*
%TO.N,DECK-SW6*%
X102500000Y-77500000D03*
X87500000Y-78000000D03*
%TO.N,DECK-SW4*%
X86500000Y-75250000D03*
X85750000Y-78250000D03*
%TO.N,DECK-SW5*%
X77250000Y-75750000D03*
%TO.N,MPLEX-DECK*%
X99250000Y-63750000D03*
X101500000Y-55000000D03*
%TO.N,MPLEX-S0*%
X98250000Y-62750000D03*
X98250000Y-59750000D03*
%TO.N,DECK-SW1*%
X89500000Y-61500000D03*
X85000000Y-50000000D03*
%TO.N,SRCLK*%
X82500000Y-58500000D03*
X82272500Y-56272500D03*
%TO.N,DECK-LED-3*%
X87000000Y-51000000D03*
X84000000Y-77500000D03*
%TO.N,DECK-LED-2*%
X88500000Y-52500000D03*
X88500000Y-59500000D03*
%TD*%
D14*
%TO.N,GND*%
X105750000Y-60750000D02*
X106500000Y-60000000D01*
X110500000Y-60000000D02*
X106500000Y-60000000D01*
X105750000Y-61371320D02*
X105750000Y-60750000D01*
X104371320Y-62750000D02*
X105750000Y-61371320D01*
X104371320Y-62750000D02*
X105777720Y-64156400D01*
%TO.N,DECK-SW2*%
X76750000Y-71500000D02*
X78500000Y-73250000D01*
X76750000Y-70750000D02*
X76750000Y-71500000D01*
%TO.N,GND*%
X77750000Y-64250000D02*
X79250000Y-62750000D01*
X77750000Y-69250000D02*
X77750000Y-64250000D01*
X79371320Y-70871320D02*
X77750000Y-69250000D01*
X79371320Y-82750000D02*
X79371320Y-70871320D01*
X80621320Y-84000000D02*
X79371320Y-82750000D01*
X84621320Y-84000000D02*
X80621320Y-84000000D01*
X85871320Y-82750000D02*
X84621320Y-84000000D01*
X77000000Y-45000000D02*
X79250000Y-42750000D01*
X77000000Y-50250000D02*
X77000000Y-45000000D01*
X104371320Y-62750000D02*
X104371320Y-58121320D01*
X105777720Y-64156400D02*
X105777720Y-71500000D01*
X90656400Y-64156400D02*
X87156400Y-64156400D01*
X91000000Y-64500000D02*
X90656400Y-64156400D01*
%TO.N,DECK-LED-5*%
X77250000Y-129250000D02*
X79250000Y-129250000D01*
X72418120Y-64331880D02*
X72418120Y-124418120D01*
X72418120Y-124418120D02*
X77250000Y-129250000D01*
X73500000Y-63250000D02*
X72418120Y-64331880D01*
X73500000Y-57750000D02*
X73500000Y-63250000D01*
X72250000Y-56500000D02*
X73500000Y-57750000D01*
X72250000Y-54000000D02*
X72250000Y-56500000D01*
X81750000Y-51750000D02*
X74500000Y-51750000D01*
X74500000Y-51750000D02*
X72250000Y-54000000D01*
%TO.N,GND*%
X94000000Y-55500000D02*
X96250000Y-55500000D01*
X96250000Y-55500000D02*
X97000000Y-54750000D01*
%TO.N,+5V*%
X114750000Y-120250000D02*
X114000000Y-119500000D01*
X114750000Y-128500000D02*
X114750000Y-120250000D01*
%TO.N,GND*%
X103000000Y-53025000D02*
X103500000Y-52525000D01*
X103000000Y-56750000D02*
X103000000Y-53025000D01*
X104371320Y-58121320D02*
X103000000Y-56750000D01*
%TO.N,DECK-LED-7*%
X102390400Y-51381829D02*
X102610029Y-51162200D01*
X102390400Y-68800358D02*
X102390400Y-51381829D01*
X104253200Y-70663158D02*
X102390400Y-68800358D01*
%TO.N,GND*%
X112500000Y-44378680D02*
X110871320Y-42750000D01*
%TO.N,DECK-LED-8*%
X110500000Y-51746800D02*
X110250000Y-51496800D01*
%TO.N,GND*%
X112500000Y-49750000D02*
X112500000Y-44378680D01*
%TO.N,DECK-LED-4*%
X102513015Y-50000000D02*
X93750000Y-50000000D01*
X103363229Y-50850214D02*
X102513015Y-50000000D01*
X116750000Y-55000000D02*
X114250000Y-52500000D01*
X116750000Y-56500000D02*
X116750000Y-55000000D01*
X113000000Y-89750000D02*
X113000000Y-60250000D01*
X113000000Y-60250000D02*
X116750000Y-56500000D01*
X110250000Y-92500000D02*
X113000000Y-89750000D01*
%TO.N,DECK-LED-8*%
X110250000Y-51496800D02*
X110250000Y-49630800D01*
%TO.N,DECK-LED-4*%
X96250000Y-92500000D02*
X110250000Y-92500000D01*
X95875000Y-92125000D02*
X96250000Y-92500000D01*
X105000000Y-52500000D02*
X103363229Y-50863229D01*
X103363229Y-50863229D02*
X103363229Y-50850214D01*
X114250000Y-52500000D02*
X105000000Y-52500000D01*
%TO.N,Net-(U2-QH')*%
X100000000Y-65000000D02*
X100000000Y-59250000D01*
X96000000Y-67750000D02*
X96000000Y-65500000D01*
X105000000Y-76000000D02*
X104250000Y-76000000D01*
X104250000Y-76000000D02*
X98500000Y-70250000D01*
X113250000Y-90750000D02*
X114000000Y-90000000D01*
X108750000Y-95750000D02*
X108750000Y-95250000D01*
X114000000Y-90000000D02*
X114000000Y-75750000D01*
X108750000Y-95250000D02*
X113250000Y-90750000D01*
X110250000Y-98750000D02*
X108750000Y-97250000D01*
X108750000Y-97250000D02*
X108750000Y-95750000D01*
X111250000Y-110750000D02*
X112277720Y-109722280D01*
X98500000Y-70250000D02*
X96000000Y-67750000D01*
X112277720Y-109722280D02*
X112277720Y-100777720D01*
X112277720Y-100777720D02*
X110250000Y-98750000D01*
%TO.N,GND*%
X86000000Y-114250000D02*
X86750000Y-115000000D01*
X86750000Y-115000000D02*
X86750000Y-115250000D01*
X91500000Y-114250000D02*
X89250000Y-116500000D01*
X91500000Y-105750000D02*
X91500000Y-114250000D01*
X94500000Y-102750000D02*
X91500000Y-105750000D01*
X89250000Y-116500000D02*
X88000000Y-116500000D01*
X104371320Y-102750000D02*
X94500000Y-102750000D01*
X88000000Y-116500000D02*
X86750000Y-115250000D01*
X87750000Y-112500000D02*
X86000000Y-114250000D01*
X87750000Y-104628680D02*
X87750000Y-112500000D01*
X85871320Y-102750000D02*
X87750000Y-104628680D01*
X85871320Y-114378680D02*
X85871320Y-121628680D01*
X86000000Y-114250000D02*
X85871320Y-114378680D01*
X105777720Y-84156400D02*
X104371320Y-82750000D01*
X105000000Y-91000000D02*
X105777720Y-90222280D01*
X105777720Y-90222280D02*
X105777720Y-84156400D01*
X104371320Y-94878680D02*
X105000000Y-94250000D01*
X104371320Y-102750000D02*
X104371320Y-94878680D01*
%TO.N,+5V*%
X96750000Y-85250000D02*
X100000000Y-85250000D01*
X96250000Y-85750000D02*
X96750000Y-85250000D01*
%TO.N,DECK-SW9*%
X97250000Y-86035793D02*
X97282593Y-86003200D01*
X97250000Y-91500000D02*
X97250000Y-86035793D01*
%TO.N,+5V*%
X96250000Y-90250000D02*
X96250000Y-85750000D01*
X93750000Y-92750000D02*
X96250000Y-90250000D01*
X91750000Y-92750000D02*
X93750000Y-92750000D01*
X86250000Y-60250000D02*
X86250000Y-57774999D01*
X88750000Y-62750000D02*
X86250000Y-60250000D01*
X92000000Y-60000000D02*
X89250000Y-62750000D01*
X89250000Y-62750000D02*
X88750000Y-62750000D01*
X97000000Y-60000000D02*
X92000000Y-60000000D01*
X97000000Y-67250000D02*
X104250000Y-74500000D01*
X97000000Y-60000000D02*
X97000000Y-67250000D01*
%TO.N,GND*%
X99500000Y-120750000D02*
X103492640Y-120750000D01*
X98621320Y-121628680D02*
X99500000Y-120750000D01*
X85871320Y-121628680D02*
X98621320Y-121628680D01*
X103492640Y-120750000D02*
X104371320Y-121628680D01*
%TO.N,DECK-LED-LATCH*%
X83500000Y-52750000D02*
X84000000Y-52250000D01*
X74862104Y-52750000D02*
X83500000Y-52750000D01*
X73250000Y-54362104D02*
X74862104Y-52750000D01*
X73250000Y-56500000D02*
X73250000Y-54362104D01*
X73750000Y-57000000D02*
X73250000Y-56500000D01*
X77250000Y-57000000D02*
X73750000Y-57000000D01*
X79500000Y-59250000D02*
X77250000Y-57000000D01*
X80000000Y-59250000D02*
X79500000Y-59250000D01*
X81093600Y-76343600D02*
X81093600Y-60343600D01*
X84500000Y-79750000D02*
X81093600Y-76343600D01*
X81093600Y-60343600D02*
X80000000Y-59250000D01*
X87000000Y-79750000D02*
X84500000Y-79750000D01*
X90500000Y-83250000D02*
X87000000Y-79750000D01*
X90500000Y-113250000D02*
X90500000Y-83250000D01*
X88750000Y-115000000D02*
X90500000Y-113250000D01*
%TO.N,DECK-LED-8*%
X116250000Y-53500000D02*
X118500000Y-55750000D01*
X115000000Y-94750000D02*
X111500000Y-94750000D01*
X116250000Y-53000000D02*
X116250000Y-53500000D01*
%TO.N,GND*%
X102750000Y-71500000D02*
X105777720Y-71500000D01*
X102000000Y-70750000D02*
X102750000Y-71500000D01*
X105777720Y-71500000D02*
X105777720Y-81343600D01*
X105777720Y-81343600D02*
X104371320Y-82750000D01*
X108121320Y-80000000D02*
X110871320Y-82750000D01*
X105250000Y-80000000D02*
X108121320Y-80000000D01*
X104371320Y-80878680D02*
X105250000Y-80000000D01*
X104371320Y-82750000D02*
X104371320Y-80878680D01*
X102871320Y-84250000D02*
X104371320Y-82750000D01*
X92750000Y-84250000D02*
X102871320Y-84250000D01*
X85250000Y-79000000D02*
X87500000Y-79000000D01*
X87500000Y-79000000D02*
X92750000Y-84250000D01*
X85000000Y-78750000D02*
X85250000Y-79000000D01*
X87156400Y-72343600D02*
X85000000Y-74500000D01*
X85000000Y-74500000D02*
X85000000Y-78750000D01*
X87156400Y-64156400D02*
X87156400Y-72343600D01*
X85750000Y-62750000D02*
X87156400Y-64156400D01*
X79250000Y-61250000D02*
X76000000Y-58000000D01*
X79250000Y-62750000D02*
X79250000Y-61250000D01*
X110871320Y-60371320D02*
X110500000Y-60000000D01*
X110871320Y-62750000D02*
X110871320Y-60371320D01*
%TO.N,DECK-SW10*%
X95000000Y-90500000D02*
X95000000Y-85750000D01*
X116000000Y-96500000D02*
X111000000Y-96500000D01*
%TO.N,DECK-SW7*%
X101500000Y-89000000D02*
X101500000Y-85250000D01*
%TO.N,DECK-SW6*%
X87500000Y-78000000D02*
X102000000Y-78000000D01*
X102000000Y-78000000D02*
X102500000Y-77500000D01*
%TO.N,DECK-SW4*%
X85750000Y-76000000D02*
X86500000Y-75250000D01*
X85750000Y-78250000D02*
X85750000Y-76000000D01*
%TO.N,DECK-SW5*%
X77250000Y-75750000D02*
X77250000Y-124007360D01*
X77250000Y-124007360D02*
X79371320Y-126128680D01*
%TO.N,MPLEX-DECK*%
X99250000Y-59500000D02*
X99250000Y-63250000D01*
X99250000Y-63250000D02*
X99250000Y-63750000D01*
X99250000Y-57250000D02*
X99250000Y-59500000D01*
X101500000Y-55000000D02*
X99250000Y-57250000D01*
%TO.N,MPLEX-S0*%
X98250000Y-59750000D02*
X98250000Y-62750000D01*
%TO.N,DECK-SW1*%
X87500000Y-50000000D02*
X89500000Y-52000000D01*
X89500000Y-52000000D02*
X89500000Y-61500000D01*
X85000000Y-50000000D02*
X87500000Y-50000000D01*
%TO.N,SRCLK*%
X82272500Y-58272500D02*
X82500000Y-58500000D01*
X82272500Y-56272500D02*
X82272500Y-58272500D01*
%TO.N,DECK-LED-3*%
X84828600Y-53171400D02*
X87000000Y-51000000D01*
X84000000Y-77500000D02*
X84000000Y-56349018D01*
X84828600Y-55520418D02*
X84828600Y-53171400D01*
X84000000Y-56349018D02*
X84828600Y-55520418D01*
%TO.N,DECK-LED-2*%
X88500000Y-59500000D02*
X88500000Y-52500000D01*
%TD*%
M02*
