M48
; DRILL file {KiCad 8.0.4-8.0.4-0~ubuntu22.04.1} date 2024-08-25T02:19:26+0200
; FORMAT={-:-/ absolute / metric / decimal}
; #@! TF.CreationDate,2024-08-25T02:19:26+02:00
; #@! TF.GenerationSoftware,Kicad,Pcbnew,8.0.4-8.0.4-0~ubuntu22.04.1
; #@! TF.FileFunction,Plated,1,2,PTH
FMAT,2
METRIC
; #@! TA.AperFunction,Plated,PTH,ViaDrill
T1C0.300
; #@! TA.AperFunction,Plated,PTH,ComponentDrill
T2C0.800
; #@! TA.AperFunction,Plated,PTH,ComponentDrill
T3C1.000
%
G90
G05
T1
X-12.5Y22.0
X-12.5Y20.2
X-7.7Y5.2
X-5.3Y20.8
X-5.3Y17.2
X-4.1Y5.0
X-2.13Y8.0
X-2.1Y20.0
X-1.5Y18.6
X-1.5Y9.4
X-1.5Y5.2
X-0.1Y6.4
X0.47Y11.2
X0.5Y8.6
X0.5Y-19.65
X1.73Y11.2
X2.5Y20.0
X5.031Y12.269
X5.1Y9.8
X5.77Y13.2
X5.9Y4.57
X7.1Y9.8
X9.7Y9.8
T2
X-15.4Y40.0
X-15.4Y20.0
X-15.279Y0.0
X-15.279Y-20.0
X-15.279Y-38.879
X-9.8Y40.0
X-9.8Y20.0
X-9.679Y0.0
X-9.679Y-20.0
X-9.679Y-38.879
X9.721Y40.0
X9.721Y20.0
X9.721Y0.0
X9.721Y-20.0
X9.721Y-38.879
X15.321Y40.0
X15.321Y20.0
X15.321Y0.0
X15.321Y-20.0
X15.321Y-38.879
T3
X-14.85Y43.25
X-14.85Y36.75
X-14.85Y23.25
X-14.85Y16.75
X-14.729Y3.25
X-14.729Y-3.25
X-14.729Y-16.75
X-14.729Y-23.25
X-14.729Y-35.629
X-14.729Y-42.129
X-10.35Y43.25
X-10.35Y36.75
X-10.35Y23.25
X-10.35Y16.75
X-10.229Y3.25
X-10.229Y-3.25
X-10.229Y-16.75
X-10.229Y-23.25
X-10.229Y-35.629
X-10.229Y-42.129
X-5.26Y31.0
X-2.72Y31.0
X-0.18Y31.0
X2.36Y31.0
X4.9Y31.0
X10.271Y43.25
X10.271Y36.75
X10.271Y23.25
X10.271Y16.75
X10.271Y3.25
X10.271Y-3.25
X10.271Y-16.75
X10.271Y-23.25
X10.271Y-35.629
X10.271Y-42.129
X14.771Y43.25
X14.771Y36.75
X14.771Y23.25
X14.771Y16.75
X14.771Y3.25
X14.771Y-3.25
X14.771Y-16.75
X14.771Y-23.25
X14.771Y-35.629
X14.771Y-42.129
M30
