%TF.GenerationSoftware,KiCad,Pcbnew,8.0.4-8.0.4-0~ubuntu22.04.1*%
%TF.CreationDate,2024-08-25T02:19:09+02:00*%
%TF.ProjectId,Deck-Btns,4465636b-2d42-4746-9e73-2e6b69636164,rev?*%
%TF.SameCoordinates,PX5ab1c60PY510ff40*%
%TF.FileFunction,Legend,Bot*%
%TF.FilePolarity,Positive*%
%FSLAX46Y46*%
G04 Gerber Fmt 4.6, Leading zero omitted, Abs format (unit mm)*
G04 Created by KiCad (PCBNEW 8.0.4-8.0.4-0~ubuntu22.04.1) date 2024-08-25 02:19:09*
%MOMM*%
%LPD*%
G01*
G04 APERTURE LIST*
%ADD10C,0.150000*%
%ADD11C,0.120000*%
G04 APERTURE END LIST*
D10*
X-2274300Y28910840D02*
X-2226681Y28767983D01*
X-2226681Y28767983D02*
X-2226681Y28529888D01*
X-2226681Y28529888D02*
X-2274300Y28434650D01*
X-2274300Y28434650D02*
X-2321920Y28387031D01*
X-2321920Y28387031D02*
X-2417158Y28339412D01*
X-2417158Y28339412D02*
X-2512396Y28339412D01*
X-2512396Y28339412D02*
X-2607634Y28387031D01*
X-2607634Y28387031D02*
X-2655253Y28434650D01*
X-2655253Y28434650D02*
X-2702872Y28529888D01*
X-2702872Y28529888D02*
X-2750491Y28720364D01*
X-2750491Y28720364D02*
X-2798110Y28815602D01*
X-2798110Y28815602D02*
X-2845729Y28863221D01*
X-2845729Y28863221D02*
X-2940967Y28910840D01*
X-2940967Y28910840D02*
X-3036205Y28910840D01*
X-3036205Y28910840D02*
X-3131443Y28863221D01*
X-3131443Y28863221D02*
X-3179062Y28815602D01*
X-3179062Y28815602D02*
X-3226681Y28720364D01*
X-3226681Y28720364D02*
X-3226681Y28482269D01*
X-3226681Y28482269D02*
X-3179062Y28339412D01*
X-2321920Y27339412D02*
X-2274300Y27387031D01*
X-2274300Y27387031D02*
X-2226681Y27529888D01*
X-2226681Y27529888D02*
X-2226681Y27625126D01*
X-2226681Y27625126D02*
X-2274300Y27767983D01*
X-2274300Y27767983D02*
X-2369539Y27863221D01*
X-2369539Y27863221D02*
X-2464777Y27910840D01*
X-2464777Y27910840D02*
X-2655253Y27958459D01*
X-2655253Y27958459D02*
X-2798110Y27958459D01*
X-2798110Y27958459D02*
X-2988586Y27910840D01*
X-2988586Y27910840D02*
X-3083824Y27863221D01*
X-3083824Y27863221D02*
X-3179062Y27767983D01*
X-3179062Y27767983D02*
X-3226681Y27625126D01*
X-3226681Y27625126D02*
X-3226681Y27529888D01*
X-3226681Y27529888D02*
X-3179062Y27387031D01*
X-3179062Y27387031D02*
X-3131443Y27339412D01*
X-2512396Y26958459D02*
X-2512396Y26482269D01*
X-2226681Y27053697D02*
X-3226681Y26720364D01*
X-3226681Y26720364D02*
X-2226681Y26387031D01*
X4420938Y28339412D02*
X4373319Y28434650D01*
X4373319Y28434650D02*
X4373319Y28577507D01*
X4373319Y28577507D02*
X4420938Y28720364D01*
X4420938Y28720364D02*
X4516176Y28815602D01*
X4516176Y28815602D02*
X4611414Y28863221D01*
X4611414Y28863221D02*
X4801890Y28910840D01*
X4801890Y28910840D02*
X4944747Y28910840D01*
X4944747Y28910840D02*
X5135223Y28863221D01*
X5135223Y28863221D02*
X5230461Y28815602D01*
X5230461Y28815602D02*
X5325700Y28720364D01*
X5325700Y28720364D02*
X5373319Y28577507D01*
X5373319Y28577507D02*
X5373319Y28482269D01*
X5373319Y28482269D02*
X5325700Y28339412D01*
X5325700Y28339412D02*
X5278080Y28291793D01*
X5278080Y28291793D02*
X4944747Y28291793D01*
X4944747Y28291793D02*
X4944747Y28482269D01*
X5373319Y27863221D02*
X4373319Y27863221D01*
X4373319Y27863221D02*
X5373319Y27291793D01*
X5373319Y27291793D02*
X4373319Y27291793D01*
X5373319Y26815602D02*
X4373319Y26815602D01*
X4373319Y26815602D02*
X4373319Y26577507D01*
X4373319Y26577507D02*
X4420938Y26434650D01*
X4420938Y26434650D02*
X4516176Y26339412D01*
X4516176Y26339412D02*
X4611414Y26291793D01*
X4611414Y26291793D02*
X4801890Y26244174D01*
X4801890Y26244174D02*
X4944747Y26244174D01*
X4944747Y26244174D02*
X5135223Y26291793D01*
X5135223Y26291793D02*
X5230461Y26339412D01*
X5230461Y26339412D02*
X5325700Y26434650D01*
X5325700Y26434650D02*
X5373319Y26577507D01*
X5373319Y26577507D02*
X5373319Y26815602D01*
X325700Y28910840D02*
X373319Y28767983D01*
X373319Y28767983D02*
X373319Y28529888D01*
X373319Y28529888D02*
X325700Y28434650D01*
X325700Y28434650D02*
X278080Y28387031D01*
X278080Y28387031D02*
X182842Y28339412D01*
X182842Y28339412D02*
X87604Y28339412D01*
X87604Y28339412D02*
X-7634Y28387031D01*
X-7634Y28387031D02*
X-55253Y28434650D01*
X-55253Y28434650D02*
X-102872Y28529888D01*
X-102872Y28529888D02*
X-150491Y28720364D01*
X-150491Y28720364D02*
X-198110Y28815602D01*
X-198110Y28815602D02*
X-245729Y28863221D01*
X-245729Y28863221D02*
X-340967Y28910840D01*
X-340967Y28910840D02*
X-436205Y28910840D01*
X-436205Y28910840D02*
X-531443Y28863221D01*
X-531443Y28863221D02*
X-579062Y28815602D01*
X-579062Y28815602D02*
X-626681Y28720364D01*
X-626681Y28720364D02*
X-626681Y28482269D01*
X-626681Y28482269D02*
X-579062Y28339412D01*
X278080Y27339412D02*
X325700Y27387031D01*
X325700Y27387031D02*
X373319Y27529888D01*
X373319Y27529888D02*
X373319Y27625126D01*
X373319Y27625126D02*
X325700Y27767983D01*
X325700Y27767983D02*
X230461Y27863221D01*
X230461Y27863221D02*
X135223Y27910840D01*
X135223Y27910840D02*
X-55253Y27958459D01*
X-55253Y27958459D02*
X-198110Y27958459D01*
X-198110Y27958459D02*
X-388586Y27910840D01*
X-388586Y27910840D02*
X-483824Y27863221D01*
X-483824Y27863221D02*
X-579062Y27767983D01*
X-579062Y27767983D02*
X-626681Y27625126D01*
X-626681Y27625126D02*
X-626681Y27529888D01*
X-626681Y27529888D02*
X-579062Y27387031D01*
X-579062Y27387031D02*
X-531443Y27339412D01*
X373319Y26434650D02*
X373319Y26910840D01*
X373319Y26910840D02*
X-626681Y26910840D01*
X-4826681Y28263221D02*
X-5826681Y28263221D01*
X-4826681Y27787031D02*
X-5826681Y27787031D01*
X-5826681Y27787031D02*
X-4826681Y27215603D01*
X-4826681Y27215603D02*
X-5826681Y27215603D01*
X-5826681Y26882269D02*
X-5826681Y26310841D01*
X-4826681Y26596555D02*
X-5826681Y26596555D01*
X1973319Y28806078D02*
X2973319Y28472745D01*
X2973319Y28472745D02*
X1973319Y28139412D01*
X2878080Y27234650D02*
X2925700Y27282269D01*
X2925700Y27282269D02*
X2973319Y27425126D01*
X2973319Y27425126D02*
X2973319Y27520364D01*
X2973319Y27520364D02*
X2925700Y27663221D01*
X2925700Y27663221D02*
X2830461Y27758459D01*
X2830461Y27758459D02*
X2735223Y27806078D01*
X2735223Y27806078D02*
X2544747Y27853697D01*
X2544747Y27853697D02*
X2401890Y27853697D01*
X2401890Y27853697D02*
X2211414Y27806078D01*
X2211414Y27806078D02*
X2116176Y27758459D01*
X2116176Y27758459D02*
X2020938Y27663221D01*
X2020938Y27663221D02*
X1973319Y27520364D01*
X1973319Y27520364D02*
X1973319Y27425126D01*
X1973319Y27425126D02*
X2020938Y27282269D01*
X2020938Y27282269D02*
X2068557Y27234650D01*
X2878080Y26234650D02*
X2925700Y26282269D01*
X2925700Y26282269D02*
X2973319Y26425126D01*
X2973319Y26425126D02*
X2973319Y26520364D01*
X2973319Y26520364D02*
X2925700Y26663221D01*
X2925700Y26663221D02*
X2830461Y26758459D01*
X2830461Y26758459D02*
X2735223Y26806078D01*
X2735223Y26806078D02*
X2544747Y26853697D01*
X2544747Y26853697D02*
X2401890Y26853697D01*
X2401890Y26853697D02*
X2211414Y26806078D01*
X2211414Y26806078D02*
X2116176Y26758459D01*
X2116176Y26758459D02*
X2020938Y26663221D01*
X2020938Y26663221D02*
X1973319Y26520364D01*
X1973319Y26520364D02*
X1973319Y26425126D01*
X1973319Y26425126D02*
X2020938Y26282269D01*
X2020938Y26282269D02*
X2068557Y26234650D01*
X-20145181Y39238095D02*
X-21145181Y39238095D01*
X-21145181Y39238095D02*
X-21145181Y39000000D01*
X-21145181Y39000000D02*
X-21097562Y38857143D01*
X-21097562Y38857143D02*
X-21002324Y38761905D01*
X-21002324Y38761905D02*
X-20907086Y38714286D01*
X-20907086Y38714286D02*
X-20716610Y38666667D01*
X-20716610Y38666667D02*
X-20573753Y38666667D01*
X-20573753Y38666667D02*
X-20383277Y38714286D01*
X-20383277Y38714286D02*
X-20288039Y38761905D01*
X-20288039Y38761905D02*
X-20192800Y38857143D01*
X-20192800Y38857143D02*
X-20145181Y39000000D01*
X-20145181Y39000000D02*
X-20145181Y39238095D01*
X-21049943Y38285714D02*
X-21097562Y38238095D01*
X-21097562Y38238095D02*
X-21145181Y38142857D01*
X-21145181Y38142857D02*
X-21145181Y37904762D01*
X-21145181Y37904762D02*
X-21097562Y37809524D01*
X-21097562Y37809524D02*
X-21049943Y37761905D01*
X-21049943Y37761905D02*
X-20954705Y37714286D01*
X-20954705Y37714286D02*
X-20859467Y37714286D01*
X-20859467Y37714286D02*
X-20716610Y37761905D01*
X-20716610Y37761905D02*
X-20145181Y38333333D01*
X-20145181Y38333333D02*
X-20145181Y37714286D01*
X5554819Y3414286D02*
X4554819Y3414286D01*
X4554819Y3414286D02*
X4554819Y3176191D01*
X4554819Y3176191D02*
X4602438Y3033334D01*
X4602438Y3033334D02*
X4697676Y2938096D01*
X4697676Y2938096D02*
X4792914Y2890477D01*
X4792914Y2890477D02*
X4983390Y2842858D01*
X4983390Y2842858D02*
X5126247Y2842858D01*
X5126247Y2842858D02*
X5316723Y2890477D01*
X5316723Y2890477D02*
X5411961Y2938096D01*
X5411961Y2938096D02*
X5507200Y3033334D01*
X5507200Y3033334D02*
X5554819Y3176191D01*
X5554819Y3176191D02*
X5554819Y3414286D01*
X5554819Y1890477D02*
X5554819Y2461905D01*
X5554819Y2176191D02*
X4554819Y2176191D01*
X4554819Y2176191D02*
X4697676Y2271429D01*
X4697676Y2271429D02*
X4792914Y2366667D01*
X4792914Y2366667D02*
X4840533Y2461905D01*
X5554819Y938096D02*
X5554819Y1509524D01*
X5554819Y1223810D02*
X4554819Y1223810D01*
X4554819Y1223810D02*
X4697676Y1319048D01*
X4697676Y1319048D02*
X4792914Y1414286D01*
X4792914Y1414286D02*
X4840533Y1509524D01*
X18266666Y11945181D02*
X18599999Y12421372D01*
X18838094Y11945181D02*
X18838094Y12945181D01*
X18838094Y12945181D02*
X18457142Y12945181D01*
X18457142Y12945181D02*
X18361904Y12897562D01*
X18361904Y12897562D02*
X18314285Y12849943D01*
X18314285Y12849943D02*
X18266666Y12754705D01*
X18266666Y12754705D02*
X18266666Y12611848D01*
X18266666Y12611848D02*
X18314285Y12516610D01*
X18314285Y12516610D02*
X18361904Y12468991D01*
X18361904Y12468991D02*
X18457142Y12421372D01*
X18457142Y12421372D02*
X18838094Y12421372D01*
X17314285Y11945181D02*
X17885713Y11945181D01*
X17599999Y11945181D02*
X17599999Y12945181D01*
X17599999Y12945181D02*
X17695237Y12802324D01*
X17695237Y12802324D02*
X17790475Y12707086D01*
X17790475Y12707086D02*
X17885713Y12659467D01*
X5154819Y-16385714D02*
X4154819Y-16385714D01*
X4154819Y-16385714D02*
X4154819Y-16623809D01*
X4154819Y-16623809D02*
X4202438Y-16766666D01*
X4202438Y-16766666D02*
X4297676Y-16861904D01*
X4297676Y-16861904D02*
X4392914Y-16909523D01*
X4392914Y-16909523D02*
X4583390Y-16957142D01*
X4583390Y-16957142D02*
X4726247Y-16957142D01*
X4726247Y-16957142D02*
X4916723Y-16909523D01*
X4916723Y-16909523D02*
X5011961Y-16861904D01*
X5011961Y-16861904D02*
X5107200Y-16766666D01*
X5107200Y-16766666D02*
X5154819Y-16623809D01*
X5154819Y-16623809D02*
X5154819Y-16385714D01*
X5154819Y-17909523D02*
X5154819Y-17338095D01*
X5154819Y-17623809D02*
X4154819Y-17623809D01*
X4154819Y-17623809D02*
X4297676Y-17528571D01*
X4297676Y-17528571D02*
X4392914Y-17433333D01*
X4392914Y-17433333D02*
X4440533Y-17338095D01*
X4250057Y-18290476D02*
X4202438Y-18338095D01*
X4202438Y-18338095D02*
X4154819Y-18433333D01*
X4154819Y-18433333D02*
X4154819Y-18671428D01*
X4154819Y-18671428D02*
X4202438Y-18766666D01*
X4202438Y-18766666D02*
X4250057Y-18814285D01*
X4250057Y-18814285D02*
X4345295Y-18861904D01*
X4345295Y-18861904D02*
X4440533Y-18861904D01*
X4440533Y-18861904D02*
X4583390Y-18814285D01*
X4583390Y-18814285D02*
X5154819Y-18242857D01*
X5154819Y-18242857D02*
X5154819Y-18861904D01*
X-19645181Y-39261905D02*
X-20645181Y-39261905D01*
X-20645181Y-39261905D02*
X-20645181Y-39500000D01*
X-20645181Y-39500000D02*
X-20597562Y-39642857D01*
X-20597562Y-39642857D02*
X-20502324Y-39738095D01*
X-20502324Y-39738095D02*
X-20407086Y-39785714D01*
X-20407086Y-39785714D02*
X-20216610Y-39833333D01*
X-20216610Y-39833333D02*
X-20073753Y-39833333D01*
X-20073753Y-39833333D02*
X-19883277Y-39785714D01*
X-19883277Y-39785714D02*
X-19788039Y-39738095D01*
X-19788039Y-39738095D02*
X-19692800Y-39642857D01*
X-19692800Y-39642857D02*
X-19645181Y-39500000D01*
X-19645181Y-39500000D02*
X-19645181Y-39261905D01*
X-20645181Y-40690476D02*
X-20645181Y-40500000D01*
X-20645181Y-40500000D02*
X-20597562Y-40404762D01*
X-20597562Y-40404762D02*
X-20549943Y-40357143D01*
X-20549943Y-40357143D02*
X-20407086Y-40261905D01*
X-20407086Y-40261905D02*
X-20216610Y-40214286D01*
X-20216610Y-40214286D02*
X-19835658Y-40214286D01*
X-19835658Y-40214286D02*
X-19740420Y-40261905D01*
X-19740420Y-40261905D02*
X-19692800Y-40309524D01*
X-19692800Y-40309524D02*
X-19645181Y-40404762D01*
X-19645181Y-40404762D02*
X-19645181Y-40595238D01*
X-19645181Y-40595238D02*
X-19692800Y-40690476D01*
X-19692800Y-40690476D02*
X-19740420Y-40738095D01*
X-19740420Y-40738095D02*
X-19835658Y-40785714D01*
X-19835658Y-40785714D02*
X-20073753Y-40785714D01*
X-20073753Y-40785714D02*
X-20168991Y-40738095D01*
X-20168991Y-40738095D02*
X-20216610Y-40690476D01*
X-20216610Y-40690476D02*
X-20264229Y-40595238D01*
X-20264229Y-40595238D02*
X-20264229Y-40404762D01*
X-20264229Y-40404762D02*
X-20216610Y-40309524D01*
X-20216610Y-40309524D02*
X-20168991Y-40261905D01*
X-20168991Y-40261905D02*
X-20073753Y-40214286D01*
X5754819Y-35785714D02*
X4754819Y-35785714D01*
X4754819Y-35785714D02*
X4754819Y-36023809D01*
X4754819Y-36023809D02*
X4802438Y-36166666D01*
X4802438Y-36166666D02*
X4897676Y-36261904D01*
X4897676Y-36261904D02*
X4992914Y-36309523D01*
X4992914Y-36309523D02*
X5183390Y-36357142D01*
X5183390Y-36357142D02*
X5326247Y-36357142D01*
X5326247Y-36357142D02*
X5516723Y-36309523D01*
X5516723Y-36309523D02*
X5611961Y-36261904D01*
X5611961Y-36261904D02*
X5707200Y-36166666D01*
X5707200Y-36166666D02*
X5754819Y-36023809D01*
X5754819Y-36023809D02*
X5754819Y-35785714D01*
X5754819Y-37309523D02*
X5754819Y-36738095D01*
X5754819Y-37023809D02*
X4754819Y-37023809D01*
X4754819Y-37023809D02*
X4897676Y-36928571D01*
X4897676Y-36928571D02*
X4992914Y-36833333D01*
X4992914Y-36833333D02*
X5040533Y-36738095D01*
X4754819Y-37642857D02*
X4754819Y-38261904D01*
X4754819Y-38261904D02*
X5135771Y-37928571D01*
X5135771Y-37928571D02*
X5135771Y-38071428D01*
X5135771Y-38071428D02*
X5183390Y-38166666D01*
X5183390Y-38166666D02*
X5231009Y-38214285D01*
X5231009Y-38214285D02*
X5326247Y-38261904D01*
X5326247Y-38261904D02*
X5564342Y-38261904D01*
X5564342Y-38261904D02*
X5659580Y-38214285D01*
X5659580Y-38214285D02*
X5707200Y-38166666D01*
X5707200Y-38166666D02*
X5754819Y-38071428D01*
X5754819Y-38071428D02*
X5754819Y-37785714D01*
X5754819Y-37785714D02*
X5707200Y-37690476D01*
X5707200Y-37690476D02*
X5659580Y-37642857D01*
X11233333Y6745181D02*
X11233333Y6030896D01*
X11233333Y6030896D02*
X11280952Y5888039D01*
X11280952Y5888039D02*
X11376190Y5792800D01*
X11376190Y5792800D02*
X11519047Y5745181D01*
X11519047Y5745181D02*
X11614285Y5745181D01*
X10757142Y5745181D02*
X10757142Y6745181D01*
X10757142Y6745181D02*
X10376190Y6745181D01*
X10376190Y6745181D02*
X10280952Y6697562D01*
X10280952Y6697562D02*
X10233333Y6649943D01*
X10233333Y6649943D02*
X10185714Y6554705D01*
X10185714Y6554705D02*
X10185714Y6411848D01*
X10185714Y6411848D02*
X10233333Y6316610D01*
X10233333Y6316610D02*
X10280952Y6268991D01*
X10280952Y6268991D02*
X10376190Y6221372D01*
X10376190Y6221372D02*
X10757142Y6221372D01*
X9804761Y6649943D02*
X9757142Y6697562D01*
X9757142Y6697562D02*
X9661904Y6745181D01*
X9661904Y6745181D02*
X9423809Y6745181D01*
X9423809Y6745181D02*
X9328571Y6697562D01*
X9328571Y6697562D02*
X9280952Y6649943D01*
X9280952Y6649943D02*
X9233333Y6554705D01*
X9233333Y6554705D02*
X9233333Y6459467D01*
X9233333Y6459467D02*
X9280952Y6316610D01*
X9280952Y6316610D02*
X9852380Y5745181D01*
X9852380Y5745181D02*
X9233333Y5745181D01*
X-8861906Y11545181D02*
X-8861906Y12545181D01*
X-8861906Y12545181D02*
X-9100001Y12545181D01*
X-9100001Y12545181D02*
X-9242858Y12497562D01*
X-9242858Y12497562D02*
X-9338096Y12402324D01*
X-9338096Y12402324D02*
X-9385715Y12307086D01*
X-9385715Y12307086D02*
X-9433334Y12116610D01*
X-9433334Y12116610D02*
X-9433334Y11973753D01*
X-9433334Y11973753D02*
X-9385715Y11783277D01*
X-9385715Y11783277D02*
X-9338096Y11688039D01*
X-9338096Y11688039D02*
X-9242858Y11592800D01*
X-9242858Y11592800D02*
X-9100001Y11545181D01*
X-9100001Y11545181D02*
X-8861906Y11545181D01*
X-10004763Y12116610D02*
X-9909525Y12164229D01*
X-9909525Y12164229D02*
X-9861906Y12211848D01*
X-9861906Y12211848D02*
X-9814287Y12307086D01*
X-9814287Y12307086D02*
X-9814287Y12354705D01*
X-9814287Y12354705D02*
X-9861906Y12449943D01*
X-9861906Y12449943D02*
X-9909525Y12497562D01*
X-9909525Y12497562D02*
X-10004763Y12545181D01*
X-10004763Y12545181D02*
X-10195239Y12545181D01*
X-10195239Y12545181D02*
X-10290477Y12497562D01*
X-10290477Y12497562D02*
X-10338096Y12449943D01*
X-10338096Y12449943D02*
X-10385715Y12354705D01*
X-10385715Y12354705D02*
X-10385715Y12307086D01*
X-10385715Y12307086D02*
X-10338096Y12211848D01*
X-10338096Y12211848D02*
X-10290477Y12164229D01*
X-10290477Y12164229D02*
X-10195239Y12116610D01*
X-10195239Y12116610D02*
X-10004763Y12116610D01*
X-10004763Y12116610D02*
X-9909525Y12068991D01*
X-9909525Y12068991D02*
X-9861906Y12021372D01*
X-9861906Y12021372D02*
X-9814287Y11926134D01*
X-9814287Y11926134D02*
X-9814287Y11735658D01*
X-9814287Y11735658D02*
X-9861906Y11640420D01*
X-9861906Y11640420D02*
X-9909525Y11592800D01*
X-9909525Y11592800D02*
X-10004763Y11545181D01*
X-10004763Y11545181D02*
X-10195239Y11545181D01*
X-10195239Y11545181D02*
X-10290477Y11592800D01*
X-10290477Y11592800D02*
X-10338096Y11640420D01*
X-10338096Y11640420D02*
X-10385715Y11735658D01*
X-10385715Y11735658D02*
X-10385715Y11926134D01*
X-10385715Y11926134D02*
X-10338096Y12021372D01*
X-10338096Y12021372D02*
X-10290477Y12068991D01*
X-10290477Y12068991D02*
X-10195239Y12116610D01*
X-19645181Y18738095D02*
X-20645181Y18738095D01*
X-20645181Y18738095D02*
X-20645181Y18500000D01*
X-20645181Y18500000D02*
X-20597562Y18357143D01*
X-20597562Y18357143D02*
X-20502324Y18261905D01*
X-20502324Y18261905D02*
X-20407086Y18214286D01*
X-20407086Y18214286D02*
X-20216610Y18166667D01*
X-20216610Y18166667D02*
X-20073753Y18166667D01*
X-20073753Y18166667D02*
X-19883277Y18214286D01*
X-19883277Y18214286D02*
X-19788039Y18261905D01*
X-19788039Y18261905D02*
X-19692800Y18357143D01*
X-19692800Y18357143D02*
X-19645181Y18500000D01*
X-19645181Y18500000D02*
X-19645181Y18738095D01*
X-20645181Y17833333D02*
X-20645181Y17214286D01*
X-20645181Y17214286D02*
X-20264229Y17547619D01*
X-20264229Y17547619D02*
X-20264229Y17404762D01*
X-20264229Y17404762D02*
X-20216610Y17309524D01*
X-20216610Y17309524D02*
X-20168991Y17261905D01*
X-20168991Y17261905D02*
X-20073753Y17214286D01*
X-20073753Y17214286D02*
X-19835658Y17214286D01*
X-19835658Y17214286D02*
X-19740420Y17261905D01*
X-19740420Y17261905D02*
X-19692800Y17309524D01*
X-19692800Y17309524D02*
X-19645181Y17404762D01*
X-19645181Y17404762D02*
X-19645181Y17690476D01*
X-19645181Y17690476D02*
X-19692800Y17785714D01*
X-19692800Y17785714D02*
X-19740420Y17833333D01*
X661904Y5295181D02*
X661904Y4485658D01*
X661904Y4485658D02*
X614285Y4390420D01*
X614285Y4390420D02*
X566666Y4342800D01*
X566666Y4342800D02*
X471428Y4295181D01*
X471428Y4295181D02*
X280952Y4295181D01*
X280952Y4295181D02*
X185714Y4342800D01*
X185714Y4342800D02*
X138095Y4390420D01*
X138095Y4390420D02*
X90476Y4485658D01*
X90476Y4485658D02*
X90476Y5295181D01*
X-909524Y4295181D02*
X-338096Y4295181D01*
X-623810Y4295181D02*
X-623810Y5295181D01*
X-623810Y5295181D02*
X-528572Y5152324D01*
X-528572Y5152324D02*
X-433334Y5057086D01*
X-433334Y5057086D02*
X-338096Y5009467D01*
X-20145181Y-1261905D02*
X-21145181Y-1261905D01*
X-21145181Y-1261905D02*
X-21145181Y-1500000D01*
X-21145181Y-1500000D02*
X-21097562Y-1642857D01*
X-21097562Y-1642857D02*
X-21002324Y-1738095D01*
X-21002324Y-1738095D02*
X-20907086Y-1785714D01*
X-20907086Y-1785714D02*
X-20716610Y-1833333D01*
X-20716610Y-1833333D02*
X-20573753Y-1833333D01*
X-20573753Y-1833333D02*
X-20383277Y-1785714D01*
X-20383277Y-1785714D02*
X-20288039Y-1738095D01*
X-20288039Y-1738095D02*
X-20192800Y-1642857D01*
X-20192800Y-1642857D02*
X-20145181Y-1500000D01*
X-20145181Y-1500000D02*
X-20145181Y-1261905D01*
X-20811848Y-2690476D02*
X-20145181Y-2690476D01*
X-21192800Y-2452381D02*
X-20478515Y-2214286D01*
X-20478515Y-2214286D02*
X-20478515Y-2833333D01*
X18838094Y9745181D02*
X18838094Y10745181D01*
X18838094Y10745181D02*
X18599999Y10745181D01*
X18599999Y10745181D02*
X18457142Y10697562D01*
X18457142Y10697562D02*
X18361904Y10602324D01*
X18361904Y10602324D02*
X18314285Y10507086D01*
X18314285Y10507086D02*
X18266666Y10316610D01*
X18266666Y10316610D02*
X18266666Y10173753D01*
X18266666Y10173753D02*
X18314285Y9983277D01*
X18314285Y9983277D02*
X18361904Y9888039D01*
X18361904Y9888039D02*
X18457142Y9792800D01*
X18457142Y9792800D02*
X18599999Y9745181D01*
X18599999Y9745181D02*
X18838094Y9745181D01*
X17314285Y9745181D02*
X17885713Y9745181D01*
X17599999Y9745181D02*
X17599999Y10745181D01*
X17599999Y10745181D02*
X17695237Y10602324D01*
X17695237Y10602324D02*
X17790475Y10507086D01*
X17790475Y10507086D02*
X17885713Y10459467D01*
X11233333Y10295181D02*
X11233333Y9580896D01*
X11233333Y9580896D02*
X11280952Y9438039D01*
X11280952Y9438039D02*
X11376190Y9342800D01*
X11376190Y9342800D02*
X11519047Y9295181D01*
X11519047Y9295181D02*
X11614285Y9295181D01*
X10757142Y9295181D02*
X10757142Y10295181D01*
X10757142Y10295181D02*
X10376190Y10295181D01*
X10376190Y10295181D02*
X10280952Y10247562D01*
X10280952Y10247562D02*
X10233333Y10199943D01*
X10233333Y10199943D02*
X10185714Y10104705D01*
X10185714Y10104705D02*
X10185714Y9961848D01*
X10185714Y9961848D02*
X10233333Y9866610D01*
X10233333Y9866610D02*
X10280952Y9818991D01*
X10280952Y9818991D02*
X10376190Y9771372D01*
X10376190Y9771372D02*
X10757142Y9771372D01*
X9233333Y9295181D02*
X9804761Y9295181D01*
X9519047Y9295181D02*
X9519047Y10295181D01*
X9519047Y10295181D02*
X9614285Y10152324D01*
X9614285Y10152324D02*
X9709523Y10057086D01*
X9709523Y10057086D02*
X9804761Y10009467D01*
X-19645181Y-21261905D02*
X-20645181Y-21261905D01*
X-20645181Y-21261905D02*
X-20645181Y-21500000D01*
X-20645181Y-21500000D02*
X-20597562Y-21642857D01*
X-20597562Y-21642857D02*
X-20502324Y-21738095D01*
X-20502324Y-21738095D02*
X-20407086Y-21785714D01*
X-20407086Y-21785714D02*
X-20216610Y-21833333D01*
X-20216610Y-21833333D02*
X-20073753Y-21833333D01*
X-20073753Y-21833333D02*
X-19883277Y-21785714D01*
X-19883277Y-21785714D02*
X-19788039Y-21738095D01*
X-19788039Y-21738095D02*
X-19692800Y-21642857D01*
X-19692800Y-21642857D02*
X-19645181Y-21500000D01*
X-19645181Y-21500000D02*
X-19645181Y-21261905D01*
X-20645181Y-22738095D02*
X-20645181Y-22261905D01*
X-20645181Y-22261905D02*
X-20168991Y-22214286D01*
X-20168991Y-22214286D02*
X-20216610Y-22261905D01*
X-20216610Y-22261905D02*
X-20264229Y-22357143D01*
X-20264229Y-22357143D02*
X-20264229Y-22595238D01*
X-20264229Y-22595238D02*
X-20216610Y-22690476D01*
X-20216610Y-22690476D02*
X-20168991Y-22738095D01*
X-20168991Y-22738095D02*
X-20073753Y-22785714D01*
X-20073753Y-22785714D02*
X-19835658Y-22785714D01*
X-19835658Y-22785714D02*
X-19740420Y-22738095D01*
X-19740420Y-22738095D02*
X-19692800Y-22690476D01*
X-19692800Y-22690476D02*
X-19645181Y-22595238D01*
X-19645181Y-22595238D02*
X-19645181Y-22357143D01*
X-19645181Y-22357143D02*
X-19692800Y-22261905D01*
X-19692800Y-22261905D02*
X-19740420Y-22214286D01*
X13954819Y32538095D02*
X12954819Y32538095D01*
X12954819Y32538095D02*
X12954819Y32300000D01*
X12954819Y32300000D02*
X13002438Y32157143D01*
X13002438Y32157143D02*
X13097676Y32061905D01*
X13097676Y32061905D02*
X13192914Y32014286D01*
X13192914Y32014286D02*
X13383390Y31966667D01*
X13383390Y31966667D02*
X13526247Y31966667D01*
X13526247Y31966667D02*
X13716723Y32014286D01*
X13716723Y32014286D02*
X13811961Y32061905D01*
X13811961Y32061905D02*
X13907200Y32157143D01*
X13907200Y32157143D02*
X13954819Y32300000D01*
X13954819Y32300000D02*
X13954819Y32538095D01*
X13954819Y31490476D02*
X13954819Y31300000D01*
X13954819Y31300000D02*
X13907200Y31204762D01*
X13907200Y31204762D02*
X13859580Y31157143D01*
X13859580Y31157143D02*
X13716723Y31061905D01*
X13716723Y31061905D02*
X13526247Y31014286D01*
X13526247Y31014286D02*
X13145295Y31014286D01*
X13145295Y31014286D02*
X13050057Y31061905D01*
X13050057Y31061905D02*
X13002438Y31109524D01*
X13002438Y31109524D02*
X12954819Y31204762D01*
X12954819Y31204762D02*
X12954819Y31395238D01*
X12954819Y31395238D02*
X13002438Y31490476D01*
X13002438Y31490476D02*
X13050057Y31538095D01*
X13050057Y31538095D02*
X13145295Y31585714D01*
X13145295Y31585714D02*
X13383390Y31585714D01*
X13383390Y31585714D02*
X13478628Y31538095D01*
X13478628Y31538095D02*
X13526247Y31490476D01*
X13526247Y31490476D02*
X13573866Y31395238D01*
X13573866Y31395238D02*
X13573866Y31204762D01*
X13573866Y31204762D02*
X13526247Y31109524D01*
X13526247Y31109524D02*
X13478628Y31061905D01*
X13478628Y31061905D02*
X13383390Y31014286D01*
X18266666Y6945181D02*
X18599999Y7421372D01*
X18838094Y6945181D02*
X18838094Y7945181D01*
X18838094Y7945181D02*
X18457142Y7945181D01*
X18457142Y7945181D02*
X18361904Y7897562D01*
X18361904Y7897562D02*
X18314285Y7849943D01*
X18314285Y7849943D02*
X18266666Y7754705D01*
X18266666Y7754705D02*
X18266666Y7611848D01*
X18266666Y7611848D02*
X18314285Y7516610D01*
X18314285Y7516610D02*
X18361904Y7468991D01*
X18361904Y7468991D02*
X18457142Y7421372D01*
X18457142Y7421372D02*
X18838094Y7421372D01*
X17885713Y7849943D02*
X17838094Y7897562D01*
X17838094Y7897562D02*
X17742856Y7945181D01*
X17742856Y7945181D02*
X17504761Y7945181D01*
X17504761Y7945181D02*
X17409523Y7897562D01*
X17409523Y7897562D02*
X17361904Y7849943D01*
X17361904Y7849943D02*
X17314285Y7754705D01*
X17314285Y7754705D02*
X17314285Y7659467D01*
X17314285Y7659467D02*
X17361904Y7516610D01*
X17361904Y7516610D02*
X17933332Y6945181D01*
X17933332Y6945181D02*
X17314285Y6945181D01*
X4354819Y22814286D02*
X3354819Y22814286D01*
X3354819Y22814286D02*
X3354819Y22576191D01*
X3354819Y22576191D02*
X3402438Y22433334D01*
X3402438Y22433334D02*
X3497676Y22338096D01*
X3497676Y22338096D02*
X3592914Y22290477D01*
X3592914Y22290477D02*
X3783390Y22242858D01*
X3783390Y22242858D02*
X3926247Y22242858D01*
X3926247Y22242858D02*
X4116723Y22290477D01*
X4116723Y22290477D02*
X4211961Y22338096D01*
X4211961Y22338096D02*
X4307200Y22433334D01*
X4307200Y22433334D02*
X4354819Y22576191D01*
X4354819Y22576191D02*
X4354819Y22814286D01*
X4354819Y21290477D02*
X4354819Y21861905D01*
X4354819Y21576191D02*
X3354819Y21576191D01*
X3354819Y21576191D02*
X3497676Y21671429D01*
X3497676Y21671429D02*
X3592914Y21766667D01*
X3592914Y21766667D02*
X3640533Y21861905D01*
X3354819Y20671429D02*
X3354819Y20576191D01*
X3354819Y20576191D02*
X3402438Y20480953D01*
X3402438Y20480953D02*
X3450057Y20433334D01*
X3450057Y20433334D02*
X3545295Y20385715D01*
X3545295Y20385715D02*
X3735771Y20338096D01*
X3735771Y20338096D02*
X3973866Y20338096D01*
X3973866Y20338096D02*
X4164342Y20385715D01*
X4164342Y20385715D02*
X4259580Y20433334D01*
X4259580Y20433334D02*
X4307200Y20480953D01*
X4307200Y20480953D02*
X4354819Y20576191D01*
X4354819Y20576191D02*
X4354819Y20671429D01*
X4354819Y20671429D02*
X4307200Y20766667D01*
X4307200Y20766667D02*
X4259580Y20814286D01*
X4259580Y20814286D02*
X4164342Y20861905D01*
X4164342Y20861905D02*
X3973866Y20909524D01*
X3973866Y20909524D02*
X3735771Y20909524D01*
X3735771Y20909524D02*
X3545295Y20861905D01*
X3545295Y20861905D02*
X3450057Y20814286D01*
X3450057Y20814286D02*
X3402438Y20766667D01*
X3402438Y20766667D02*
X3354819Y20671429D01*
X-8861906Y5045181D02*
X-8861906Y6045181D01*
X-8861906Y6045181D02*
X-9100001Y6045181D01*
X-9100001Y6045181D02*
X-9242858Y5997562D01*
X-9242858Y5997562D02*
X-9338096Y5902324D01*
X-9338096Y5902324D02*
X-9385715Y5807086D01*
X-9385715Y5807086D02*
X-9433334Y5616610D01*
X-9433334Y5616610D02*
X-9433334Y5473753D01*
X-9433334Y5473753D02*
X-9385715Y5283277D01*
X-9385715Y5283277D02*
X-9338096Y5188039D01*
X-9338096Y5188039D02*
X-9242858Y5092800D01*
X-9242858Y5092800D02*
X-9100001Y5045181D01*
X-9100001Y5045181D02*
X-8861906Y5045181D01*
X-9766668Y6045181D02*
X-10433334Y6045181D01*
X-10433334Y6045181D02*
X-10004763Y5045181D01*
D11*
%TO.C,D2*%
X-19600000Y36850000D02*
X-19600000Y40860000D01*
X-17600000Y40860000D02*
X-19600000Y40860000D01*
X-17600000Y36850000D02*
X-17600000Y40860000D01*
%TO.C,D11*%
X6400000Y3650000D02*
X6400000Y-360000D01*
X6400000Y-360000D02*
X8400000Y-360000D01*
X8400000Y3650000D02*
X8400000Y-360000D01*
%TO.C,R1*%
X15127064Y13235000D02*
X14672936Y13235000D01*
X15127064Y11765000D02*
X14672936Y11765000D01*
%TO.C,D12*%
X5900000Y-16350000D02*
X5900000Y-20360000D01*
X5900000Y-20360000D02*
X7900000Y-20360000D01*
X7900000Y-16350000D02*
X7900000Y-20360000D01*
%TO.C,D6*%
X-19100000Y-41650000D02*
X-19100000Y-37640000D01*
X-17100000Y-37640000D02*
X-19100000Y-37640000D01*
X-17100000Y-41650000D02*
X-17100000Y-37640000D01*
%TO.C,D13*%
X6400000Y-35350000D02*
X6400000Y-39360000D01*
X6400000Y-39360000D02*
X8400000Y-39360000D01*
X8400000Y-35350000D02*
X8400000Y-39360000D01*
%TO.C,JP2*%
X9000000Y7700000D02*
X9000000Y8300000D01*
X9700000Y9000000D02*
X11100000Y9000000D01*
X11100000Y7000000D02*
X9700000Y7000000D01*
X11800000Y8300000D02*
X11800000Y7700000D01*
X9000000Y8300000D02*
G75*
G02*
X9700000Y9000000I699999J1D01*
G01*
X9700000Y7000000D02*
G75*
G02*
X9000000Y7700000I-1J699999D01*
G01*
X11100000Y9000000D02*
G75*
G02*
X11800000Y8300000I0J-700000D01*
G01*
X11800000Y7700000D02*
G75*
G02*
X11100000Y7000000I-700000J0D01*
G01*
%TO.C,D8*%
X-11960000Y11000000D02*
X-11960000Y9000000D01*
X-7950000Y11000000D02*
X-11960000Y11000000D01*
X-7950000Y9000000D02*
X-11960000Y9000000D01*
%TO.C,D3*%
X-19100000Y16350000D02*
X-19100000Y20360000D01*
X-17100000Y20360000D02*
X-19100000Y20360000D01*
X-17100000Y16350000D02*
X-17100000Y20360000D01*
D10*
%TO.C,U1*%
X-2975000Y14100000D02*
X-2975000Y14325000D01*
X-2975000Y5900000D02*
X-2975000Y5675000D01*
X2775000Y14325000D02*
X-2975000Y14325000D01*
X2775000Y14100000D02*
X2775000Y14325000D01*
X2775000Y5900000D02*
X2775000Y5675000D01*
X2775000Y5675000D02*
X-2975000Y5675000D01*
D11*
X-3235000Y5595000D02*
X-3715000Y5595000D01*
X-3475000Y5925000D01*
X-3235000Y5595000D01*
G36*
X-3235000Y5595000D02*
G01*
X-3715000Y5595000D01*
X-3475000Y5925000D01*
X-3235000Y5595000D01*
G37*
%TO.C,D4*%
X-19600000Y-3650000D02*
X-19600000Y360000D01*
X-17600000Y360000D02*
X-19600000Y360000D01*
X-17600000Y-3650000D02*
X-17600000Y360000D01*
%TO.C,D1*%
X12750000Y11000000D02*
X16760000Y11000000D01*
X12750000Y9000000D02*
X16760000Y9000000D01*
X16760000Y9000000D02*
X16760000Y11000000D01*
%TO.C,JP1*%
X9000000Y11250000D02*
X9000000Y11850000D01*
X9700000Y12550000D02*
X11100000Y12550000D01*
X11100000Y10550000D02*
X9700000Y10550000D01*
X11800000Y11850000D02*
X11800000Y11250000D01*
X9000000Y11850000D02*
G75*
G02*
X9700000Y12550000I699999J1D01*
G01*
X9700000Y10550000D02*
G75*
G02*
X9000000Y11250000I-1J699999D01*
G01*
X11100000Y12550000D02*
G75*
G02*
X11800000Y11850000I0J-700000D01*
G01*
X11800000Y11250000D02*
G75*
G02*
X11100000Y10550000I-700000J0D01*
G01*
%TO.C,D5*%
X-19100000Y-23650000D02*
X-19100000Y-19640000D01*
X-17100000Y-19640000D02*
X-19100000Y-19640000D01*
X-17100000Y-23650000D02*
X-17100000Y-19640000D01*
%TO.C,D9*%
X10500000Y33450000D02*
X10500000Y29440000D01*
X10500000Y29440000D02*
X12500000Y29440000D01*
X12500000Y33450000D02*
X12500000Y29440000D01*
%TO.C,R2*%
X15127064Y8235000D02*
X14672936Y8235000D01*
X15127064Y6765000D02*
X14672936Y6765000D01*
%TO.C,D10*%
X5400000Y23150000D02*
X5400000Y19140000D01*
X5400000Y19140000D02*
X7400000Y19140000D01*
X7400000Y23150000D02*
X7400000Y19140000D01*
%TO.C,D7*%
X-11960000Y8500000D02*
X-11960000Y6500000D01*
X-7950000Y8500000D02*
X-11960000Y8500000D01*
X-7950000Y6500000D02*
X-11960000Y6500000D01*
%TD*%
M02*
