%TF.GenerationSoftware,KiCad,Pcbnew,8.0.2*%
%TF.CreationDate,2024-08-19T17:56:24+02:00*%
%TF.ProjectId,Deck-Btns,4465636b-2d42-4746-9e73-2e6b69636164,rev?*%
%TF.SameCoordinates,PX5ab1c60PY510ff40*%
%TF.FileFunction,Drillmap*%
%TF.FilePolarity,Positive*%
%FSLAX45Y45*%
G04 Gerber Fmt 4.5, Leading zero omitted, Abs format (unit mm)*
G04 Created by KiCad (PCBNEW 8.0.2) date 2024-08-19 17:56:24*
%MOMM*%
%LPD*%
G01*
G04 APERTURE LIST*
%ADD10C,0.250000*%
%ADD11C,0.200000*%
G04 APERTURE END LIST*
D10*
X-2197868Y-4987868D02*
G75*
G02*
X-2497868Y-4687868I0J300000D01*
G01*
X-2497868Y4712132D02*
X-2497868Y-4687868D01*
X-2497868Y4712132D02*
G75*
G02*
X-2197868Y5012132I300000J0D01*
G01*
X2202132Y5012132D02*
X-2197868Y5012132D01*
X2202132Y5012132D02*
G75*
G02*
X2502132Y4712132I0J-300000D01*
G01*
X2502132Y-4687868D02*
X2502132Y4712132D01*
X2502132Y-4687868D02*
G75*
G02*
X2202132Y-4987868I-300000J0D01*
G01*
X-2197868Y-4987868D02*
X2202132Y-4987868D01*
D11*
X-2249591Y-5311852D02*
X-2249591Y-5111852D01*
X-2249591Y-5111852D02*
X-2201972Y-5111852D01*
X-2201972Y-5111852D02*
X-2173401Y-5121376D01*
X-2173401Y-5121376D02*
X-2154353Y-5140423D01*
X-2154353Y-5140423D02*
X-2144829Y-5159471D01*
X-2144829Y-5159471D02*
X-2135306Y-5197566D01*
X-2135306Y-5197566D02*
X-2135306Y-5226138D01*
X-2135306Y-5226138D02*
X-2144829Y-5264233D01*
X-2144829Y-5264233D02*
X-2154353Y-5283280D01*
X-2154353Y-5283280D02*
X-2173401Y-5302328D01*
X-2173401Y-5302328D02*
X-2201972Y-5311852D01*
X-2201972Y-5311852D02*
X-2249591Y-5311852D01*
X-2049591Y-5311852D02*
X-2049591Y-5178518D01*
X-2049591Y-5216614D02*
X-2040067Y-5197566D01*
X-2040067Y-5197566D02*
X-2030544Y-5188042D01*
X-2030544Y-5188042D02*
X-2011496Y-5178518D01*
X-2011496Y-5178518D02*
X-1992448Y-5178518D01*
X-1925782Y-5311852D02*
X-1925782Y-5178518D01*
X-1925782Y-5111852D02*
X-1935305Y-5121376D01*
X-1935305Y-5121376D02*
X-1925782Y-5130899D01*
X-1925782Y-5130899D02*
X-1916258Y-5121376D01*
X-1916258Y-5121376D02*
X-1925782Y-5111852D01*
X-1925782Y-5111852D02*
X-1925782Y-5130899D01*
X-1801972Y-5311852D02*
X-1821020Y-5302328D01*
X-1821020Y-5302328D02*
X-1830544Y-5283280D01*
X-1830544Y-5283280D02*
X-1830544Y-5111852D01*
X-1697210Y-5311852D02*
X-1716258Y-5302328D01*
X-1716258Y-5302328D02*
X-1725782Y-5283280D01*
X-1725782Y-5283280D02*
X-1725782Y-5111852D01*
X-1468639Y-5311852D02*
X-1468639Y-5111852D01*
X-1468639Y-5111852D02*
X-1401972Y-5254709D01*
X-1401972Y-5254709D02*
X-1335306Y-5111852D01*
X-1335306Y-5111852D02*
X-1335306Y-5311852D01*
X-1154353Y-5311852D02*
X-1154353Y-5207090D01*
X-1154353Y-5207090D02*
X-1163877Y-5188042D01*
X-1163877Y-5188042D02*
X-1182925Y-5178518D01*
X-1182925Y-5178518D02*
X-1221020Y-5178518D01*
X-1221020Y-5178518D02*
X-1240067Y-5188042D01*
X-1154353Y-5302328D02*
X-1173401Y-5311852D01*
X-1173401Y-5311852D02*
X-1221020Y-5311852D01*
X-1221020Y-5311852D02*
X-1240067Y-5302328D01*
X-1240067Y-5302328D02*
X-1249591Y-5283280D01*
X-1249591Y-5283280D02*
X-1249591Y-5264233D01*
X-1249591Y-5264233D02*
X-1240067Y-5245185D01*
X-1240067Y-5245185D02*
X-1221020Y-5235661D01*
X-1221020Y-5235661D02*
X-1173401Y-5235661D01*
X-1173401Y-5235661D02*
X-1154353Y-5226138D01*
X-1059115Y-5178518D02*
X-1059115Y-5378518D01*
X-1059115Y-5188042D02*
X-1040067Y-5178518D01*
X-1040067Y-5178518D02*
X-1001972Y-5178518D01*
X-1001972Y-5178518D02*
X-982924Y-5188042D01*
X-982924Y-5188042D02*
X-973401Y-5197566D01*
X-973401Y-5197566D02*
X-963877Y-5216614D01*
X-963877Y-5216614D02*
X-963877Y-5273757D01*
X-963877Y-5273757D02*
X-973401Y-5292804D01*
X-973401Y-5292804D02*
X-982924Y-5302328D01*
X-982924Y-5302328D02*
X-1001972Y-5311852D01*
X-1001972Y-5311852D02*
X-1040067Y-5311852D01*
X-1040067Y-5311852D02*
X-1059115Y-5302328D01*
X-878163Y-5292804D02*
X-868639Y-5302328D01*
X-868639Y-5302328D02*
X-878163Y-5311852D01*
X-878163Y-5311852D02*
X-887686Y-5302328D01*
X-887686Y-5302328D02*
X-878163Y-5292804D01*
X-878163Y-5292804D02*
X-878163Y-5311852D01*
X-878163Y-5188042D02*
X-868639Y-5197566D01*
X-868639Y-5197566D02*
X-878163Y-5207090D01*
X-878163Y-5207090D02*
X-887686Y-5197566D01*
X-887686Y-5197566D02*
X-878163Y-5188042D01*
X-878163Y-5188042D02*
X-878163Y-5207090D01*
M02*
