%TF.GenerationSoftware,KiCad,Pcbnew,8.0.4-8.0.4-0~ubuntu22.04.1*%
%TF.CreationDate,2024-08-25T02:19:10+02:00*%
%TF.ProjectId,Deck-Btns,4465636b-2d42-4746-9e73-2e6b69636164,rev?*%
%TF.SameCoordinates,PX5ab1c60PY510ff40*%
%TF.FileFunction,Soldermask,Bot*%
%TF.FilePolarity,Negative*%
%FSLAX46Y46*%
G04 Gerber Fmt 4.6, Leading zero omitted, Abs format (unit mm)*
G04 Created by KiCad (PCBNEW 8.0.4-8.0.4-0~ubuntu22.04.1) date 2024-08-25 02:19:10*
%MOMM*%
%LPD*%
G01*
G04 APERTURE LIST*
G04 Aperture macros list*
%AMRoundRect*
0 Rectangle with rounded corners*
0 $1 Rounding radius*
0 $2 $3 $4 $5 $6 $7 $8 $9 X,Y pos of 4 corners*
0 Add a 4 corners polygon primitive as box body*
4,1,4,$2,$3,$4,$5,$6,$7,$8,$9,$2,$3,0*
0 Add four circle primitives for the rounded corners*
1,1,$1+$1,$2,$3*
1,1,$1+$1,$4,$5*
1,1,$1+$1,$6,$7*
1,1,$1+$1,$8,$9*
0 Add four rect primitives between the rounded corners*
20,1,$1+$1,$2,$3,$4,$5,0*
20,1,$1+$1,$4,$5,$6,$7,0*
20,1,$1+$1,$6,$7,$8,$9,0*
20,1,$1+$1,$8,$9,$2,$3,0*%
%AMFreePoly0*
4,1,19,0.500000,-0.750000,0.000000,-0.750000,0.000000,-0.744911,-0.071157,-0.744911,-0.207708,-0.704816,-0.327430,-0.627875,-0.420627,-0.520320,-0.479746,-0.390866,-0.500000,-0.250000,-0.500000,0.250000,-0.479746,0.390866,-0.420627,0.520320,-0.327430,0.627875,-0.207708,0.704816,-0.071157,0.744911,0.000000,0.744911,0.000000,0.750000,0.500000,0.750000,0.500000,-0.750000,0.500000,-0.750000,
$1*%
%AMFreePoly1*
4,1,19,0.000000,0.744911,0.071157,0.744911,0.207708,0.704816,0.327430,0.627875,0.420627,0.520320,0.479746,0.390866,0.500000,0.250000,0.500000,-0.250000,0.479746,-0.390866,0.420627,-0.520320,0.327430,-0.627875,0.207708,-0.704816,0.071157,-0.744911,0.000000,-0.744911,0.000000,-0.750000,-0.500000,-0.750000,-0.500000,0.750000,0.000000,0.750000,0.000000,0.744911,0.000000,0.744911,
$1*%
G04 Aperture macros list end*
%ADD10C,1.700000*%
%ADD11C,1.524000*%
%ADD12R,1.700000X1.700000*%
%ADD13O,1.700000X1.700000*%
%ADD14C,3.200000*%
%ADD15RoundRect,0.225000X-0.375000X0.225000X-0.375000X-0.225000X0.375000X-0.225000X0.375000X0.225000X0*%
%ADD16RoundRect,0.225000X0.375000X-0.225000X0.375000X0.225000X-0.375000X0.225000X-0.375000X-0.225000X0*%
%ADD17RoundRect,0.250000X-0.350000X-0.450000X0.350000X-0.450000X0.350000X0.450000X-0.350000X0.450000X0*%
%ADD18FreePoly0,0.000000*%
%ADD19FreePoly1,0.000000*%
%ADD20RoundRect,0.225000X-0.225000X-0.375000X0.225000X-0.375000X0.225000X0.375000X-0.225000X0.375000X0*%
%ADD21R,1.750000X0.450000*%
%ADD22RoundRect,0.225000X0.225000X0.375000X-0.225000X0.375000X-0.225000X-0.375000X0.225000X-0.375000X0*%
G04 APERTURE END LIST*
D10*
%TO.C,SW9*%
X14771300Y-16750000D03*
X14771300Y-23250000D03*
X10271300Y-16750000D03*
X10271300Y-23250000D03*
D11*
X15321300Y-20000000D03*
X9721300Y-20000000D03*
%TD*%
D10*
%TO.C,SW5*%
X-10228700Y-35628700D03*
X-10228700Y-42128700D03*
X-14728700Y-35628700D03*
X-14728700Y-42128700D03*
D11*
X-9678700Y-38878700D03*
X-15278700Y-38878700D03*
%TD*%
D12*
%TO.C,J1*%
X4900000Y31000000D03*
D13*
X2360000Y31000000D03*
X-180000Y31000000D03*
X-2720000Y31000000D03*
X-5260000Y31000000D03*
%TD*%
D10*
%TO.C,SW8*%
X14771300Y3250000D03*
X14771300Y-3250000D03*
X10271300Y3250000D03*
X10271300Y-3250000D03*
D11*
X15321300Y0D03*
X9721300Y0D03*
%TD*%
D10*
%TO.C,SW4*%
X-10228700Y-16750000D03*
X-10228700Y-23250000D03*
X-14728700Y-16750000D03*
X-14728700Y-23250000D03*
D11*
X-9678700Y-20000000D03*
X-15278700Y-20000000D03*
%TD*%
D10*
%TO.C,SW7*%
X14771300Y23250000D03*
X14771300Y16750000D03*
X10271300Y23250000D03*
X10271300Y16750000D03*
D11*
X15321300Y20000000D03*
X9721300Y20000000D03*
%TD*%
D14*
%TO.C,H1*%
X-20600000Y-46000000D03*
%TD*%
D10*
%TO.C,SW3*%
X-10228700Y3250000D03*
X-10228700Y-3250000D03*
X-14728700Y3250000D03*
X-14728700Y-3250000D03*
D11*
X-9678700Y0D03*
X-15278700Y0D03*
%TD*%
D10*
%TO.C,SW10*%
X14771300Y-35628700D03*
X14771300Y-42128700D03*
X10271300Y-35628700D03*
X10271300Y-42128700D03*
D11*
X15321300Y-38878700D03*
X9721300Y-38878700D03*
%TD*%
D10*
%TO.C,SW1*%
X-10350000Y43250000D03*
X-10350000Y36750000D03*
X-14850000Y43250000D03*
X-14850000Y36750000D03*
D11*
X-9800000Y40000000D03*
X-15400000Y40000000D03*
%TD*%
D14*
%TO.C,H4*%
X-21600000Y47000000D03*
%TD*%
D10*
%TO.C,SW2*%
X-10350000Y23250000D03*
X-10350000Y16750000D03*
X-14850000Y23250000D03*
X-14850000Y16750000D03*
D11*
X-9800000Y20000000D03*
X-15400000Y20000000D03*
%TD*%
D14*
%TO.C,H3*%
X21400000Y47000000D03*
%TD*%
D10*
%TO.C,SW6*%
X14771300Y43250000D03*
X14771300Y36750000D03*
X10271300Y43250000D03*
X10271300Y36750000D03*
D11*
X15321300Y40000000D03*
X9721300Y40000000D03*
%TD*%
D14*
%TO.C,H2*%
X20900000Y-46000000D03*
%TD*%
D15*
%TO.C,D2*%
X-18600000Y40150000D03*
X-18600000Y36850000D03*
%TD*%
D16*
%TO.C,D11*%
X7400000Y350000D03*
X7400000Y3650000D03*
%TD*%
D17*
%TO.C,R1*%
X13900000Y12500000D03*
X15900000Y12500000D03*
%TD*%
D16*
%TO.C,D12*%
X6900000Y-19650000D03*
X6900000Y-16350000D03*
%TD*%
D15*
%TO.C,D6*%
X-18100000Y-38350000D03*
X-18100000Y-41650000D03*
%TD*%
D16*
%TO.C,D13*%
X7400000Y-38650000D03*
X7400000Y-35350000D03*
%TD*%
D18*
%TO.C,JP2*%
X9750000Y8000000D03*
D19*
X11050000Y8000000D03*
%TD*%
D20*
%TO.C,D8*%
X-11250000Y10000000D03*
X-7950000Y10000000D03*
%TD*%
D15*
%TO.C,D3*%
X-18100000Y19650000D03*
X-18100000Y16350000D03*
%TD*%
D21*
%TO.C,U1*%
X-3700000Y6425000D03*
X-3700000Y7075000D03*
X-3700000Y7725000D03*
X-3700000Y8375000D03*
X-3700000Y9025000D03*
X-3700000Y9675000D03*
X-3700000Y10325000D03*
X-3700000Y10975000D03*
X-3700000Y11625000D03*
X-3700000Y12275000D03*
X-3700000Y12925000D03*
X-3700000Y13575000D03*
X3500000Y13575000D03*
X3500000Y12925000D03*
X3500000Y12275000D03*
X3500000Y11625000D03*
X3500000Y10975000D03*
X3500000Y10325000D03*
X3500000Y9675000D03*
X3500000Y9025000D03*
X3500000Y8375000D03*
X3500000Y7725000D03*
X3500000Y7075000D03*
X3500000Y6425000D03*
%TD*%
D15*
%TO.C,D4*%
X-18600000Y-350000D03*
X-18600000Y-3650000D03*
%TD*%
D22*
%TO.C,D1*%
X16050000Y10000000D03*
X12750000Y10000000D03*
%TD*%
D18*
%TO.C,JP1*%
X9750000Y11550000D03*
D19*
X11050000Y11550000D03*
%TD*%
D15*
%TO.C,D5*%
X-18100000Y-20350000D03*
X-18100000Y-23650000D03*
%TD*%
D16*
%TO.C,D9*%
X11500000Y30150000D03*
X11500000Y33450000D03*
%TD*%
D17*
%TO.C,R2*%
X13900000Y7500000D03*
X15900000Y7500000D03*
%TD*%
D16*
%TO.C,D10*%
X6400000Y19850000D03*
X6400000Y23150000D03*
%TD*%
D20*
%TO.C,D7*%
X-11250000Y7500000D03*
X-7950000Y7500000D03*
%TD*%
M02*
