%TF.GenerationSoftware,KiCad,Pcbnew,8.0.4-8.0.4-0~ubuntu22.04.1*%
%TF.CreationDate,2024-08-25T02:19:10+02:00*%
%TF.ProjectId,Deck-Btns,4465636b-2d42-4746-9e73-2e6b69636164,rev?*%
%TF.SameCoordinates,PX5ab1c60PY510ff40*%
%TF.FileFunction,Soldermask,Top*%
%TF.FilePolarity,Negative*%
%FSLAX46Y46*%
G04 Gerber Fmt 4.6, Leading zero omitted, Abs format (unit mm)*
G04 Created by KiCad (PCBNEW 8.0.4-8.0.4-0~ubuntu22.04.1) date 2024-08-25 02:19:10*
%MOMM*%
%LPD*%
G01*
G04 APERTURE LIST*
%ADD10C,1.700000*%
%ADD11C,1.524000*%
%ADD12R,1.700000X1.700000*%
%ADD13O,1.700000X1.700000*%
%ADD14C,3.200000*%
G04 APERTURE END LIST*
D10*
%TO.C,SW9*%
X14771300Y-16750000D03*
X14771300Y-23250000D03*
X10271300Y-16750000D03*
X10271300Y-23250000D03*
D11*
X15321300Y-20000000D03*
X9721300Y-20000000D03*
%TD*%
D10*
%TO.C,SW5*%
X-10228700Y-35628700D03*
X-10228700Y-42128700D03*
X-14728700Y-35628700D03*
X-14728700Y-42128700D03*
D11*
X-9678700Y-38878700D03*
X-15278700Y-38878700D03*
%TD*%
D12*
%TO.C,J1*%
X4900000Y31000000D03*
D13*
X2360000Y31000000D03*
X-180000Y31000000D03*
X-2720000Y31000000D03*
X-5260000Y31000000D03*
%TD*%
D10*
%TO.C,SW8*%
X14771300Y3250000D03*
X14771300Y-3250000D03*
X10271300Y3250000D03*
X10271300Y-3250000D03*
D11*
X15321300Y0D03*
X9721300Y0D03*
%TD*%
D10*
%TO.C,SW4*%
X-10228700Y-16750000D03*
X-10228700Y-23250000D03*
X-14728700Y-16750000D03*
X-14728700Y-23250000D03*
D11*
X-9678700Y-20000000D03*
X-15278700Y-20000000D03*
%TD*%
D10*
%TO.C,SW7*%
X14771300Y23250000D03*
X14771300Y16750000D03*
X10271300Y23250000D03*
X10271300Y16750000D03*
D11*
X15321300Y20000000D03*
X9721300Y20000000D03*
%TD*%
D14*
%TO.C,H1*%
X-20600000Y-46000000D03*
%TD*%
D10*
%TO.C,SW3*%
X-10228700Y3250000D03*
X-10228700Y-3250000D03*
X-14728700Y3250000D03*
X-14728700Y-3250000D03*
D11*
X-9678700Y0D03*
X-15278700Y0D03*
%TD*%
D10*
%TO.C,SW10*%
X14771300Y-35628700D03*
X14771300Y-42128700D03*
X10271300Y-35628700D03*
X10271300Y-42128700D03*
D11*
X15321300Y-38878700D03*
X9721300Y-38878700D03*
%TD*%
D10*
%TO.C,SW1*%
X-10350000Y43250000D03*
X-10350000Y36750000D03*
X-14850000Y43250000D03*
X-14850000Y36750000D03*
D11*
X-9800000Y40000000D03*
X-15400000Y40000000D03*
%TD*%
D14*
%TO.C,H4*%
X-21600000Y47000000D03*
%TD*%
D10*
%TO.C,SW2*%
X-10350000Y23250000D03*
X-10350000Y16750000D03*
X-14850000Y23250000D03*
X-14850000Y16750000D03*
D11*
X-9800000Y20000000D03*
X-15400000Y20000000D03*
%TD*%
D14*
%TO.C,H3*%
X21400000Y47000000D03*
%TD*%
D10*
%TO.C,SW6*%
X14771300Y43250000D03*
X14771300Y36750000D03*
X10271300Y43250000D03*
X10271300Y36750000D03*
D11*
X15321300Y40000000D03*
X9721300Y40000000D03*
%TD*%
D14*
%TO.C,H2*%
X20900000Y-46000000D03*
%TD*%
M02*
