999
dxflib 3.26.4.0
  0
SECTION
  2
HEADER
  9
$ACADVER
  1
AC1015
  9
$HANDSEED
  5
FFFF
  9
$ANGBASE
 50
0.0
  9
$ANGDIR
 70
0
  9
$ATTMODE
 70
1
  9
$AUNITS
 70
0
  9
$AUPREC
 70
0
  9
$CECOLOR
 62
256
  9
$CELTSCALE
 40
1.0
  9
$CHAMFERA
 40
0.0
  9
$CHAMFERB
 40
0.0
  9
$CHAMFERC
 40
0.0
  9
$CHAMFERD
 40
0.0
  9
$CMLJUST
 70
0
  9
$CMLSCALE
 40
1.0
  9
$DIMADEC
 70
0
  9
$DIMALT
 70
0
  9
$DIMALTD
 70
2
  9
$DIMALTF
 40
25.3999999999999986
  9
$DIMALTRND
 40
0.0
  9
$DIMALTTD
 70
2
  9
$DIMALTTZ
 70
0
  9
$DIMALTU
 70
2
  9
$DIMALTZ
 70
0
  9
$DIMAPOST
  1

  9
$DIMASZ
 40
0.18
  9
$DIMATFIT
 70
3
  9
$DIMAUNIT
 70
0
  9
$DIMAZIN
 70
0
  9
$DIMBLK
  1
0
  9
$DIMBLK1
  1
0
  9
$DIMBLK2
  1
0
  9
$DIMCEN
 40
0.09
  9
$DIMCLRD
 70
0
  9
$DIMCLRE
 70
0
  9
$DIMDEC
 70
2
  9
$DIMDLE
 40
0.0
  9
$DIMDLI
 40
0.36
  9
$DIMDSEP
 70
46
  9
$DIMEXE
 40
0.09
  9
$DIMEXO
 40
0.045
  9
$DIMFRAC
 70
0
  9
$DIMGAP
 40
0.045
  9
$DIMJUST
 70
0
  9
$DIMLDRBLK
  1

  9
$DIMLFAC
 40
1.0
  9
$DIMLIM
 70
0
  9
$DIMLUNIT
 70
2
  9
$DIMLWD
 70
-2
  9
$DIMLWE
 70
-2
  9
$DIMPOST
  1

  9
$DIMRND
 40
0.0
  9
$DIMSAH
 70
0
  9
$DIMSCALE
 40
30.0
  9
$DIMSD1
 70
0
  9
$DIMSD2
 70
0
  9
$DIMSE1
 70
0
  9
$DIMSE2
 70
0
  9
$DIMSOXD
 70
0
  9
$DIMTAD
 70
1
  9
$DIMTDEC
 70
4
  9
$DIMTFAC
 40
1.0
  9
$DIMTIH
 70
0
  9
$DIMTIX
 70
0
  9
$DIMTM
 40
0.0
  9
$DIMTOFL
 70
0
  9
$DIMTOH
 70
1
  9
$DIMTOL
 70
0
  9
$DIMTOLJ
 70
1
  9
$DIMTP
 40
0.0
  9
$DIMTSZ
 40
0.0
  9
$DIMTVP
 40
0.0
  9
$DIMTXSTY
  7
Standard
  9
$DIMTXT
 40
0.18
  9
$DIMTZIN
 70
0
  9
$DIMUPT
 70
0
  9
$DIMZIN
 70
0
  9
$DISPSILH
 70
0
  9
$DWGCODEPAGE
  3
ANSI_1252
  9
$ELEVATION
 40
0.0
  9
$FILLETRAD
 40
0.5
  9
$FILLMODE
 70
1
  9
$INSUNITS
 70
4
  9
$LIMCHECK
 70
0
  9
$LTSCALE
 40
1.0
  9
$LUNITS
 70
2
  9
$LUPREC
 70
4
  9
$MAXACTVP
 70
64
  9
$MEASUREMENT
 70
0
  9
$MIRRTEXT
 70
1
  9
$ORTHOMODE
 70
0
  9
$PDMODE
 70
0
  9
$PDSIZE
 40
0.0
  9
$PELEVATION
 40
0.0
  9
$PLIMCHECK
 70
0
  9
$PLINEGEN
 70
0
  9
$PLINEWID
 40
0.0
  9
$PROXYGRAPHICS
 70
1
  9
$PSLTSCALE
 70
1
  9
$PUCSNAME
  2

  9
$QTEXTMODE
 70
0
  9
$REGENMODE
 70
1
  9
$SHADEDGE
 70
3
  9
$SHADEDIF
 70
70
  9
$SKETCHINC
 40
0.1
  9
$SKPOLY
 70
0
  9
$SPLFRAME
 70
0
  9
$SPLINESEGS
 70
8
  9
$SPLINETYPE
 70
6
  9
$SURFTAB1
 70
6
  9
$SURFTAB2
 70
6
  9
$SURFTYPE
 70
6
  9
$SURFU
 70
6
  9
$SURFV
 70
6
  9
$TEXTSIZE
 40
0.2
  9
$TEXTSTYLE
  7
Standard
  9
$THICKNESS
 40
0.0
  9
$TILEMODE
 70
1
  9
$TRACEWID
 40
0.05
  9
$TREEDEPTH
 70
3020
  9
$UCSNAME
  2

  9
$UNITMODE
 70
0
  9
$USERI1
 70
0
  9
$USERI2
 70
0
  9
$USERI3
 70
0
  9
$USERI4
 70
0
  9
$USERI5
 70
0
  9
$USERR1
 40
0.0
  9
$USERR2
 40
0.0
  9
$USERR3
 40
0.0
  9
$USERR4
 40
0.0
  9
$USERR5
 40
0.0
  9
$USRTIMER
 70
1
  9
$VISRETAIN
 70
1
  0
ENDSEC
  0
SECTION
  2
TABLES
  0
TABLE
  2
VPORT
  5
8
100
AcDbSymbolTable
 70
1
  0
VPORT
  5
30
100
AcDbSymbolTableRecord
100
AcDbViewportTableRecord
  2
*Active
 70
0
 10
0.0
 20
0.0
 11
1.0
 21
1.0
 12
286.3055555555554861
 22
148.5
 13
0.0
 23
0.0
 14
10.0
 24
10.0
 15
10.0
 25
10.0
 16
0.0
 26
0.0
 36
1.0
 17
0.0
 27
0.0
 37
0.0
 40
297.0
 41
1.92798353909465
 42
50.0
 43
0.0
 44
0.0
 50
0.0
 51
0.0
 71
0
 72
100
 73
1
 74
3
 75
1
 76
1
 77
0
 78
0
281
0
 65
1
110
0.0
120
0.0
130
0.0
111
1.0
121
0.0
131
0.0
112
0.0
122
1.0
132
0.0
 79
0
146
0.0
  0
ENDTAB
  0
TABLE
  2
LTYPE
  5
5
100
AcDbSymbolTable
 70
50
  0
LTYPE
  5
16
100
AcDbSymbolTableRecord
100
AcDbLinetypeTableRecord
  2
Continuous
 70
0
  3
Solid line
 72
65
 73
0
 40
0.0
  0
LTYPE
  5
31
100
AcDbSymbolTableRecord
100
AcDbLinetypeTableRecord
  2
DASHED2
 70
0
  3
Dashed (.5x) _ _ _ _ _ _ _ _ _ _ _ _ _ _ _ _ _ 
 72
65
 73
2
 40
9.5249999999999986
 49
6.3499999999999996
 74
0
 49
-3.1749999999999998
 74
0
  0
LTYPE
  5
32
100
AcDbSymbolTableRecord
100
AcDbLinetypeTableRecord
  2
CENTER2
 70
0
  3
Center (.5x) ___ _ ___ _ ___ _ ___ _ ___ _ ___
 72
65
 73
4
 40
28.5750000000000028
 49
19.0500000000000007
 74
0
 49
-3.1749999999999998
 74
0
 49
3.1749999999999998
 74
0
 49
-3.1749999999999998
 74
0
  0
LTYPE
  5
33
100
AcDbSymbolTableRecord
100
AcDbLinetypeTableRecord
  2
DASHED
 70
0
  3
Dashed __ __ __ __ __ __ __ __ __ __ __ __ __ _
 72
65
 73
2
 40
19.0499999999999972
 49
12.6999999999999993
 74
0
 49
-6.3499999999999996
 74
0
  0
LTYPE
  5
34
100
AcDbSymbolTableRecord
100
AcDbLinetypeTableRecord
  2
DRAINAGE2
 70
0
  3
Drainage reversed----<----<----<----
 72
65
 73
1
 40
5.0800000000000001
 49
5.0800000000000001
 74
0
  0
LTYPE
  5
35
100
AcDbSymbolTableRecord
100
AcDbLinetypeTableRecord
  2
BATTING
 70
0
  3
Batting SSSSSSSSSSSSSSSSSSSSSSSSSSSSSSSSSSSSSSSSSSSSSSS
 72
65
 73
2
 40
2.5425400000000002
 49
0.00254
 74
0
 49
-2.54
 74
0
  0
LTYPE
  5
36
100
AcDbSymbolTableRecord
100
AcDbLinetypeTableRecord
  2
ACAD_ISO04W100
 70
0
  3
ISO long-dash dot ____ . ____ . ____ . ____ . _
 72
65
 73
4
 40
30.0
 49
24.0
 74
0
 49
-2.9500000000000002
 74
0
 49
0.1
 74
0
 49
-2.9500000000000002
 74
0
  0
LTYPE
  5
37
100
AcDbSymbolTableRecord
100
AcDbLinetypeTableRecord
  2
DOTX2
 70
0
  3
Dot (2x) .  .  .  .  .  .  .  .  .  .  .  .  .  .
 72
65
 73
2
 40
12.6999999999999993
 49
0.1
 74
0
 49
-12.5999999999999996
 74
0
  0
LTYPE
  5
38
100
AcDbSymbolTableRecord
100
AcDbLinetypeTableRecord
  2
TRACKS
 70
0
  3
Tracks -|-|-|-|-|-|-|-|-|-|-|-|-|-|-|-|-|-|-|-|-|-|-|-|-
 72
65
 73
1
 40
3.8100000000000001
 49
3.8100000000000001
 74
0
  0
LTYPE
  5
39
100
AcDbSymbolTableRecord
100
AcDbLinetypeTableRecord
  2
ACAD_ISO14W100
 70
0
  3
ISO dash triple-dot __ . . . __ . . . __ . . . _
 72
65
 73
8
 40
24.0000000000000036
 49
12.0
 74
0
 49
-2.9500000000000002
 74
0
 49
0.1
 74
0
 49
-2.9000000000000004
 74
0
 49
0.1
 74
0
 49
-2.9000000000000004
 74
0
 49
0.1
 74
0
 49
-2.9500000000000002
 74
0
  0
LTYPE
  5
3A
100
AcDbSymbolTableRecord
100
AcDbLinetypeTableRecord
  2
DASHDOT2
 70
0
  3
Dash dot (.5x) _._._._._._._._._._._._._._._.
 72
65
 73
4
 40
12.6999999999999993
 49
6.3499999999999996
 74
0
 49
-3.125
 74
0
 49
0.1
 74
0
 49
-3.125
 74
0
  0
LTYPE
  5
3B
100
AcDbSymbolTableRecord
100
AcDbLinetypeTableRecord
  2
ACAD_ISO03W100
 70
0
  3
ISO dash space __    __    __    __    __    __
 72
65
 73
2
 40
30.0
 49
12.0
 74
0
 49
-18.0
 74
0
  0
LTYPE
  5
3C
100
AcDbSymbolTableRecord
100
AcDbLinetypeTableRecord
  2
DASHEDX2
 70
0
  3
Dashed (2x) ____  ____  ____  ____  ____  ___
 72
65
 73
2
 40
38.0999999999999943
 49
25.3999999999999986
 74
0
 49
-12.6999999999999993
 74
0
  0
LTYPE
  5
3D
100
AcDbSymbolTableRecord
100
AcDbLinetypeTableRecord
  2
DIVIDE2
 70
0
  3
Divide (.5x) __..__..__..__..__..__..__..__.._
 72
65
 73
6
 40
15.8749999999999982
 49
6.3499999999999996
 74
0
 49
-3.125
 74
0
 49
0.1
 74
0
 49
-3.0750000000000002
 74
0
 49
0.1
 74
0
 49
-3.125
 74
0
  0
LTYPE
  5
3E
100
AcDbSymbolTableRecord
100
AcDbLinetypeTableRecord
  2
BORDERX2
 70
0
  3
Border (2x) ____  ____  .  ____  ____  .  ___
 72
65
 73
6
 40
88.8999999999999773
 49
25.3999999999999986
 74
0
 49
-12.6999999999999993
 74
0
 49
25.3999999999999986
 74
0
 49
-12.6499999999999986
 74
0
 49
0.1
 74
0
 49
-12.6499999999999986
 74
0
  0
LTYPE
  5
14
100
AcDbSymbolTableRecord
100
AcDbLinetypeTableRecord
  2
ByBlock
 70
0
  3

 72
65
 73
0
 40
0.0
  0
LTYPE
  5
3F
100
AcDbSymbolTableRecord
100
AcDbLinetypeTableRecord
  2
ACAD_ISO06W100
 70
0
  3
ISO long-dash triple-dot ____ ... ____ ... ____
 72
65
 73
8
 40
36.0000000000000071
 49
24.0
 74
0
 49
-2.9500000000000002
 74
0
 49
0.1
 74
0
 49
-2.9000000000000004
 74
0
 49
0.1
 74
0
 49
-2.9000000000000004
 74
0
 49
0.1
 74
0
 49
-2.9500000000000002
 74
0
  0
LTYPE
  5
40
100
AcDbSymbolTableRecord
100
AcDbLinetypeTableRecord
  2
DASHDOT
 70
0
  3
Dash dot __ . __ . __ . __ . __ . __ . __ . __
 72
65
 73
4
 40
25.4000000000000021
 49
12.6999999999999993
 74
0
 49
-6.2999999999999998
 74
0
 49
0.1
 74
0
 49
-6.2999999999999998
 74
0
  0
LTYPE
  5
41
100
AcDbSymbolTableRecord
100
AcDbLinetypeTableRecord
  2
GAS_LINE
 70
0
  3
Gas line ----GAS----GAS----GAS----GAS----GAS----GAS--
 72
65
 73
2
 40
17.7800000000000011
 49
12.6999999999999993
 74
0
 49
-5.0800000000000001
 74
0
  0
LTYPE
  5
42
100
AcDbSymbolTableRecord
100
AcDbLinetypeTableRecord
  2
BORDER
 70
0
  3
Border __ __ . __ __ . __ __ . __ __ . __ __ .
 72
65
 73
6
 40
44.4499999999999957
 49
12.6999999999999993
 74
0
 49
-6.3499999999999996
 74
0
 49
12.6999999999999993
 74
0
 49
-6.2999999999999998
 74
0
 49
0.1
 74
0
 49
-6.2999999999999998
 74
0
  0
LTYPE
  5
43
100
AcDbSymbolTableRecord
100
AcDbLinetypeTableRecord
  2
ZIGZAG
 70
0
  3
Zig zag /\/\/\/\/\/\/\/\/\/\/\/\/\/\/\/\/\/\/\/\/\/\/\/
 72
65
 73
2
 40
5.0825399999999998
 49
0.00254
 74
0
 49
-5.0800000000000001
 74
0
  0
LTYPE
  5
44
100
AcDbSymbolTableRecord
100
AcDbLinetypeTableRecord
  2
FENCELINE1
 70
0
  3
Fenceline circle ----0-----0----0-----0----0-----0--
 72
65
 73
2
 40
8.8900000000000006
 49
6.3499999999999996
 74
0
 49
-2.54
 74
0
  0
LTYPE
  5
45
100
AcDbSymbolTableRecord
100
AcDbLinetypeTableRecord
  2
DASHDOTX2
 70
0
  3
Dash dot (2x) ____  .  ____  .  ____  .  ___
 72
65
 73
4
 40
50.7999999999999972
 49
25.3999999999999986
 74
0
 49
-12.6499999999999986
 74
0
 49
0.1
 74
0
 49
-12.6499999999999986
 74
0
  0
LTYPE
  5
46
100
AcDbSymbolTableRecord
100
AcDbLinetypeTableRecord
  2
ACAD_ISO12W100
 70
0
  3
ISO dash double-dot __ . . __ . . __ . . __ . . 
 72
65
 73
6
 40
21.0
 49
12.0
 74
0
 49
-2.9500000000000002
 74
0
 49
0.1
 74
0
 49
-2.9000000000000004
 74
0
 49
0.1
 74
0
 49
-2.9500000000000002
 74
0
  0
LTYPE
  5
47
100
AcDbSymbolTableRecord
100
AcDbLinetypeTableRecord
  2
PHANTOMX2
 70
0
  3
Phantom (2x) ____________    ____    ____   _
 72
65
 73
6
 40
127.0000000000000142
 49
63.5
 74
0
 49
-12.6999999999999993
 74
0
 49
12.6999999999999993
 74
0
 49
-12.6999999999999993
 74
0
 49
12.6999999999999993
 74
0
 49
-12.6999999999999993
 74
0
  0
LTYPE
  5
48
100
AcDbSymbolTableRecord
100
AcDbLinetypeTableRecord
  2
ACAD_ISO10W100
 70
0
  3
ISO dash dot __ . __ . __ . __ . __ . __ . __ . 
 72
65
 73
4
 40
18.0
 49
12.0
 74
0
 49
-2.9500000000000002
 74
0
 49
0.1
 74
0
 49
-2.9500000000000002
 74
0
  0
LTYPE
  5
49
100
AcDbSymbolTableRecord
100
AcDbLinetypeTableRecord
  2
DIVIDEX2
 70
0
  3
Divide (2x) ________  .  .  ________  .  .  _
 72
65
 73
6
 40
63.5
 49
25.3999999999999986
 74
0
 49
-12.6499999999999986
 74
0
 49
0.1
 74
0
 49
-12.5999999999999979
 74
0
 49
0.1
 74
0
 49
-12.6499999999999986
 74
0
  0
LTYPE
  5
4A
100
AcDbSymbolTableRecord
100
AcDbLinetypeTableRecord
  2
ACAD_ISO15W100
 70
0
  3
ISO double-dash triple-dot __ __ . . . __ __ . .
 72
65
 73
10
 40
39.0000000000000071
 49
12.0
 74
0
 49
-3.0
 74
0
 49
12.0
 74
0
 49
-2.9500000000000002
 74
0
 49
0.1
 74
0
 49
-2.9000000000000004
 74
0
 49
0.1
 74
0
 49
-2.9000000000000004
 74
0
 49
0.1
 74
0
 49
-2.9500000000000002
 74
0
  0
LTYPE
  5
4B
100
AcDbSymbolTableRecord
100
AcDbLinetypeTableRecord
  2
ACAD_ISO09W100
 70
0
  3
ISO long-dash double-short-dash ____ __ __ ____
 72
65
 73
6
 40
45.0
 49
24.0
 74
0
 49
-3.0
 74
0
 49
6.0
 74
0
 49
-3.0
 74
0
 49
6.0
 74
0
 49
-3.0
 74
0
  0
LTYPE
  5
4C
100
AcDbSymbolTableRecord
100
AcDbLinetypeTableRecord
  2
DOT2
 70
0
  3
Dot (.5x) ........................................
 72
65
 73
2
 40
3.1749999999999998
 49
0.1
 74
0
 49
-3.0749999999999997
 74
0
  0
LTYPE
  5
4D
100
AcDbSymbolTableRecord
100
AcDbLinetypeTableRecord
  2
ACAD_ISO07W100
 70
0
  3
ISO dot . . . . . . . . . . . . . . . . . . . . 
 72
65
 73
2
 40
3.0
 49
0.1
 74
0
 49
-2.8999999999999999
 74
0
  0
LTYPE
  5
4E
100
AcDbSymbolTableRecord
100
AcDbLinetypeTableRecord
  2
ACAD_ISO05W100
 70
0
  3
ISO long-dash double-dot ____ .. ____ .. ____ . 
 72
65
 73
6
 40
33.0000000000000071
 49
24.0
 74
0
 49
-2.9500000000000002
 74
0
 49
0.1
 74
0
 49
-2.9000000000000004
 74
0
 49
0.1
 74
0
 49
-2.9500000000000002
 74
0
  0
LTYPE
  5
4F
100
AcDbSymbolTableRecord
100
AcDbLinetypeTableRecord
  2
DOT
 70
0
  3
Dot . . . . . . . . . . . . . . . . . . . . . . . .
 72
65
 73
2
 40
6.3499999999999996
 49
0.1
 74
0
 49
-6.25
 74
0
  0
LTYPE
  5
50
100
AcDbSymbolTableRecord
100
AcDbLinetypeTableRecord
  2
ACAD_ISO11W100
 70
0
  3
ISO double-dash dot __ __ . __ __ . __ __ . __ _
 72
65
 73
6
 40
33.0
 49
12.0
 74
0
 49
-3.0
 74
0
 49
12.0
 74
0
 49
-2.9500000000000002
 74
0
 49
0.1
 74
0
 49
-2.9500000000000002
 74
0
  0
LTYPE
  5
51
100
AcDbSymbolTableRecord
100
AcDbLinetypeTableRecord
  2
CENTER
 70
0
  3
Center ____ _ ____ _ ____ _ ____ _ ____ _ ____
 72
65
 73
4
 40
50.8000000000000043
 49
31.75
 74
0
 49
-6.3499999999999996
 74
0
 49
6.3499999999999996
 74
0
 49
-6.3499999999999996
 74
0
  0
LTYPE
  5
52
100
AcDbSymbolTableRecord
100
AcDbLinetypeTableRecord
  2
HIDDEN
 70
0
  3
Hidden __ __ __ __ __ __ __ __ __ __ __ __ __ __
 72
65
 73
2
 40
9.5249999999999986
 49
6.3499999999999996
 74
0
 49
-3.1749999999999998
 74
0
  0
LTYPE
  5
53
100
AcDbSymbolTableRecord
100
AcDbLinetypeTableRecord
  2
HIDDENX2
 70
0
  3
Hidden (2x) ____ ____ ____ ____ ____ ____ ____ 
 72
65
 73
2
 40
19.0499999999999972
 49
12.6999999999999993
 74
0
 49
-6.3499999999999996
 74
0
  0
LTYPE
  5
54
100
AcDbSymbolTableRecord
100
AcDbLinetypeTableRecord
  2
DRAINAGE
 70
0
  3
Drainage ---->---->---->----
 72
65
 73
1
 40
5.0800000000000001
 49
5.0800000000000001
 74
0
  0
LTYPE
  5
55
100
AcDbSymbolTableRecord
100
AcDbLinetypeTableRecord
  2
ACAD_ISO08W100
 70
0
  3
ISO long-dash short-dash ____ __ ____ __ ____ _
 72
65
 73
4
 40
36.0
 49
24.0
 74
0
 49
-3.0
 74
0
 49
6.0
 74
0
 49
-3.0
 74
0
  0
LTYPE
  5
56
100
AcDbSymbolTableRecord
100
AcDbLinetypeTableRecord
  2
DIVIDE
 70
0
  3
Divide ____ . . ____ . . ____ . . ____ . . ____
 72
65
 73
6
 40
31.7500000000000036
 49
12.6999999999999993
 74
0
 49
-6.2999999999999998
 74
0
 49
0.1
 74
0
 49
-6.25
 74
0
 49
0.1
 74
0
 49
-6.2999999999999998
 74
0
  0
LTYPE
  5
57
100
AcDbSymbolTableRecord
100
AcDbLinetypeTableRecord
  2
BORDER2
 70
0
  3
Border (.5x) __.__.__.__.__.__.__.__.__.__.__.
 72
65
 73
6
 40
22.2250000000000014
 49
6.3499999999999996
 74
0
 49
-3.1749999999999998
 74
0
 49
6.3499999999999996
 74
0
 49
-3.125
 74
0
 49
0.1
 74
0
 49
-3.125
 74
0
  0
LTYPE
  5
58
100
AcDbSymbolTableRecord
100
AcDbLinetypeTableRecord
  2
CENTERX2
 70
0
  3
Center (2x) ________  __  ________  __  _____
 72
65
 73
4
 40
101.6000000000000085
 49
63.5
 74
0
 49
-12.6999999999999993
 74
0
 49
12.6999999999999993
 74
0
 49
-12.6999999999999993
 74
0
  0
LTYPE
  5
59
100
AcDbSymbolTableRecord
100
AcDbLinetypeTableRecord
  2
HOT_WATER_SUPPLY
 70
0
  3
Hot water supply ---- HW ---- HW ---- HW ----
 72
65
 73
2
 40
17.7800000000000011
 49
12.6999999999999993
 74
0
 49
-5.0800000000000001
 74
0
  0
LTYPE
  5
5A
100
AcDbSymbolTableRecord
100
AcDbLinetypeTableRecord
  2
ACAD_ISO02W100
 70
0
  3
ISO dash __ __ __ __ __ __ __ __ __ __ __ __ __
 72
65
 73
2
 40
15.0
 49
12.0
 74
0
 49
-3.0
 74
0
  0
LTYPE
  5
15
100
AcDbSymbolTableRecord
100
AcDbLinetypeTableRecord
  2
ByLayer
 70
0
  3

 72
65
 73
0
 40
0.0
  0
LTYPE
  5
5B
100
AcDbSymbolTableRecord
100
AcDbLinetypeTableRecord
  2
FENCELINE2
 70
0
  3
Fenceline square ----[]-----[]----[]-----[]----[]---
 72
65
 73
2
 40
8.8900000000000006
 49
6.3499999999999996
 74
0
 49
-2.54
 74
0
  0
LTYPE
  5
5C
100
AcDbSymbolTableRecord
100
AcDbLinetypeTableRecord
  2
HIDDEN2
 70
0
  3
Hidden (.5x) _ _ _ _ _ _ _ _ _ _ _ _ _ _ _ _ _ 
 72
65
 73
2
 40
4.7624999999999993
 49
3.1749999999999998
 74
0
 49
-1.5874999999999999
 74
0
  0
LTYPE
  5
5D
100
AcDbSymbolTableRecord
100
AcDbLinetypeTableRecord
  2
ACAD_ISO13W100
 70
0
  3
ISO double-dash double-dot __ __ . . __ __ . . _
 72
65
 73
8
 40
36.0000000000000071
 49
12.0
 74
0
 49
-3.0
 74
0
 49
12.0
 74
0
 49
-2.9500000000000002
 74
0
 49
0.1
 74
0
 49
-2.9000000000000004
 74
0
 49
0.1
 74
0
 49
-2.9500000000000002
 74
0
  0
LTYPE
  5
5E
100
AcDbSymbolTableRecord
100
AcDbLinetypeTableRecord
  2
PHANTOM2
 70
0
  3
Phantom (.5x) ___ _ _ ___ _ _ ___ _ _ ___ _ _
 72
65
 73
6
 40
31.7500000000000036
 49
15.875
 74
0
 49
-3.1749999999999998
 74
0
 49
3.1749999999999998
 74
0
 49
-3.1749999999999998
 74
0
 49
3.1749999999999998
 74
0
 49
-3.1749999999999998
 74
0
  0
LTYPE
  5
5F
100
AcDbSymbolTableRecord
100
AcDbLinetypeTableRecord
  2
PHANTOM
 70
0
  3
Phantom ______  __  __  ______  __  __  ______ 
 72
65
 73
6
 40
63.5000000000000071
 49
31.75
 74
0
 49
-6.3499999999999996
 74
0
 49
6.3499999999999996
 74
0
 49
-6.3499999999999996
 74
0
 49
6.3499999999999996
 74
0
 49
-6.3499999999999996
 74
0
  0
ENDTAB
  0
TABLE
  2
LAYER
  5
2
100
AcDbSymbolTable
 70
8
  0
LAYER
  5
60
100
AcDbSymbolTableRecord
100
AcDbLayerTableRecord
  2
layer 2
 70
0
 62
1
420
16711680
  6
Continuous
370
25
390
F
  0
LAYER
  5
61
100
AcDbSymbolTableRecord
100
AcDbLayerTableRecord
  2
Defpoints
 70
0
 62
7
420
16777215
  6
Continuous
290
0
370
-3
390
F
  0
LAYER
  5
62
100
AcDbSymbolTableRecord
100
AcDbLayerTableRecord
  2
BLACK
 70
0
 62
7
420
16777215
  6
Continuous
370
-3
390
F
  0
LAYER
  5
63
100
AcDbSymbolTableRecord
100
AcDbLayerTableRecord
  2
layer 1
 70
0
 62
252
420
10526884
  6
Continuous
370
25
390
F
  0
LAYER
  5
64
100
AcDbSymbolTableRecord
100
AcDbLayerTableRecord
  2
medidas
 70
0
 62
6
420
16711935
  6
Continuous
370
25
390
F
  0
LAYER
  5
10
100
AcDbSymbolTableRecord
100
AcDbLayerTableRecord
  2
0
 70
0
 62
7
420
16777215
  6
Continuous
370
-3
390
F
  0
LAYER
  5
65
100
AcDbSymbolTableRecord
100
AcDbLayerTableRecord
  2
layer 4
 70
1
 62
7
420
0
  6
Continuous
370
25
390
F
  0
LAYER
  5
66
100
AcDbSymbolTableRecord
100
AcDbLayerTableRecord
  2
layer 3
 70
0
 62
30
420
16744192
  6
Continuous
370
25
390
F
  0
ENDTAB
  0
TABLE
  2
STYLE
  5
3
100
AcDbSymbolTable
 70
1
  0
STYLE
  5
67
100
AcDbSymbolTableRecord
100
AcDbTextStyleTableRecord
  2
Standard
 70
0
 40
0.0
 41
1.0
 50
0.0
 71
0
 42
2.5
  3

  4

1001
ACAD
1000
txt
1071
0
  0
ENDTAB
  0
TABLE
  2
VIEW
  5
6
100
AcDbSymbolTable
 70
0
  0
ENDTAB
  0
TABLE
  2
UCS
  5
7
100
AcDbSymbolTable
 70
0
  0
ENDTAB
  0
TABLE
  2
APPID
  5
9
100
AcDbSymbolTable
 70
1
  0
APPID
  5
12
100
AcDbSymbolTableRecord
100
AcDbRegAppTableRecord
  2
ACAD
 70
0
  0
APPID
  5
68
100
AcDbSymbolTableRecord
100
AcDbRegAppTableRecord
  2
QCAD
 70
0
  0
ENDTAB
  0
TABLE
  2
DIMSTYLE
  5
A
100
AcDbSymbolTable
 70
1
100
AcDbDimStyleTable
 71
0
  0
DIMSTYLE
105
27
100
AcDbSymbolTableRecord
100
AcDbDimStyleTableRecord
  2
Standard
 41
0.18
 42
0.045
 43
3.75
 44
0.09
 70
0
 73
0
 74
0
 77
1
 78
8
140
0.18
141
2.5
143
0.03937007874016
147
0.045
171
3
172
1
271
2
272
2
274
3
278
44
283
0
284
8
340
67
  0
ENDTAB
  0
TABLE
  2
BLOCK_RECORD
  5
1
100
AcDbSymbolTable
 70
1
  0
BLOCK_RECORD
  5
1F
100
AcDbSymbolTableRecord
100
AcDbBlockTableRecord
  2
*Model_Space
340
22
  0
BLOCK_RECORD
  5
1B
100
AcDbSymbolTableRecord
100
AcDbBlockTableRecord
  2
*Paper_Space
340
1E
  0
BLOCK_RECORD
  5
23
100
AcDbSymbolTableRecord
100
AcDbBlockTableRecord
  2
*Paper_Space0
340
26
  0
ENDTAB
  0
ENDSEC
  0
SECTION
  2
BLOCKS
  0
BLOCK
  5
20
100
AcDbEntity
  8
0
100
AcDbBlockBegin
  2
*Model_Space
 70
0
 10
0.0
 20
0.0
 30
0.0
  3
*Model_Space
  1

  0
ENDBLK
  5
21
100
AcDbEntity
  8
0
100
AcDbBlockEnd
  0
BLOCK
  5
1C
100
AcDbEntity
 67
1
  8
0
100
AcDbBlockBegin
  2
*Paper_Space
 70
0
 10
0.0
 20
0.0
 30
0.0
  3
*Paper_Space
  1

  0
ENDBLK
  5
1D
100
AcDbEntity
 67
1
  8
0
100
AcDbBlockEnd
  0
BLOCK
  5
24
100
AcDbEntity
  8
0
100
AcDbBlockBegin
  2
*Paper_Space0
 70
0
 10
0.0
 20
0.0
 30
0.0
  3
*Paper_Space0
  1

  0
ENDBLK
  5
25
100
AcDbEntity
  8
0
100
AcDbBlockEnd
  0
ENDSEC
  0
SECTION
  2
ENTITIES
  0
LWPOLYLINE
  5
69
100
AcDbEntity
  8
layer 1
 62
256
370
-1
 48
1.0
  6
ByLayer
100
AcDbPolyline
 90
4
 70
1
 10
64.5000000000000142
 20
-161.5
 10
-64.5000000000000142
 20
-161.5
 10
-64.5000000000000142
 20
161.5
 10
64.5000000000000142
 20
161.5
  0
LWPOLYLINE
  5
6A
100
AcDbEntity
  8
0
 62
256
370
-1
 48
1.0
  6
ByLayer
100
AcDbPolyline
 90
8
 70
1
 10
-52.5000008046626974
 20
138.0000019073486044
 10
-37.500000536441803
 20
138.0000019073486044
 42
-0.4142135623730968
 10
-36.0000005364418101
 20
136.5000019073486044
 10
-36.0000005364418101
 20
129.5000017583369925
 42
-0.4142135623730934
 10
-37.500000536441803
 20
128.0000017583369925
 10
-52.5000008046626974
 20
128.0000017583369925
 42
-0.4142135623730968
 10
-54.0000008046626974
 20
129.5000017583369925
 10
-54.0000008046626974
 20
136.5000019073486044
 42
-0.4142135623730934
  0
LWPOLYLINE
  5
6B
100
AcDbEntity
  8
0
 62
256
370
-1
 48
1.0
  6
ByLayer
100
AcDbPolyline
 90
8
 70
1
 10
125.0000977981370056
 20
105.0296554853771056
 10
140.0000980663579071
 20
105.0296554853771056
 42
-0.4142135623730968
 10
141.5000980663579071
 20
103.5296554853771056
 10
141.5000980663579071
 20
96.5296553363654795
 42
-0.4142135623730934
 10
140.0000980663579071
 20
95.0296553363654795
 10
125.0000977981370056
 20
95.0296553363654795
 42
-0.4142135623730968
 10
123.5000977981370056
 20
96.5296553363654795
 10
123.5000977981370056
 20
103.5296554853771056
 42
-0.4142135623730934
  0
LWPOLYLINE
  5
6C
100
AcDbEntity
  8
0
 62
256
370
-1
 48
1.0
  6
ByLayer
100
AcDbPolyline
 90
8
 70
1
 10
230.0001000035088055
 20
105.0296554853771056
 10
215.000099735287904
 20
105.0296554853771056
 42
0.4142135623730968
 10
213.500099735287904
 20
103.5296554853771056
 10
213.500099735287904
 20
96.529655336365451
 42
0.4142135623730934
 10
215.000099735287904
 20
95.029655336365451
 10
230.0001000035088055
 20
95.0296553363654368
 42
0.4142135623730968
 10
231.5001000035088055
 20
96.5296553363654795
 10
231.5001000035088055
 20
103.5296554853771056
 42
0.4142135623730934
  0
LWPOLYLINE
  5
6D
100
AcDbEntity
  8
0
 62
256
370
-1
 48
1.0
  6
ByLayer
100
AcDbPolyline
 90
8
 70
1
 10
52.499999463558197
 20
128.0000017583369925
 10
37.4999991953373026
 20
128.0000017583369925
 42
-0.4142135623730968
 10
35.9999991953373026
 20
129.5000017583369925
 10
35.9999991953373026
 20
136.5000019073486044
 42
-0.4142135623730934
 10
37.4999991953373026
 20
138.0000019073486044
 10
52.499999463558197
 20
138.0000019073486044
 42
-0.4142135623730985
 10
53.999999463558197
 20
136.5000019073486044
 10
53.999999463558197
 20
129.5000017583369925
 42
-0.414213562373095
  0
LWPOLYLINE
  5
6E
100
AcDbEntity
  8
0
 62
256
370
-1
 48
1.0
  6
ByLayer
100
AcDbPolyline
 90
8
 70
1
 10
-37.500000536441803
 20
99.0000017583370209
 10
-52.5000008046626974
 20
99.0000017583370209
 42
-0.4142135623730968
 10
-54.0000008046626974
 20
100.5000017583370067
 10
-54.0000008046626974
 20
107.5000019073486044
 42
-0.4142135623730934
 10
-52.5000008046626974
 20
109.0000019073486044
 10
-37.500000536441803
 20
109.0000019073486044
 42
-0.4142135623730968
 10
-36.0000005364418101
 20
107.5000019073486044
 10
-36.0000005364418101
 20
100.5000017583370067
 42
-0.4142135623730934
  0
LWPOLYLINE
  5
6F
100
AcDbEntity
  8
0
 62
256
370
-1
 48
1.0
  6
ByLayer
100
AcDbPolyline
 90
8
 70
1
 10
140.0000980663579071
 20
66.0296553363655079
 10
125.0000977981370056
 20
66.0296553363655079
 42
-0.4142135623730968
 10
123.5000977981370056
 20
67.5296553363654937
 10
123.5000977981370056
 20
74.5296554853770914
 42
-0.4142135623730934
 10
125.0000977981370056
 20
76.0296554853770914
 10
140.0000980663579071
 20
76.0296554853770914
 42
-0.4142135623730968
 10
141.5000980663579071
 20
74.5296554853770914
 10
141.5000980663579071
 20
67.5296553363654937
 42
-0.4142135623730934
  0
LWPOLYLINE
  5
70
100
AcDbEntity
  8
0
 62
256
370
-1
 48
1.0
  6
ByLayer
100
AcDbPolyline
 90
8
 70
1
 10
215.000099735287904
 20
66.0296553363654795
 10
230.0001000035088055
 20
66.0296553363655079
 42
0.4142135623730968
 10
231.5001000035088055
 20
67.529655336365451
 10
231.5001000035088055
 20
74.5296554853770914
 42
0.4142135623730934
 10
230.0001000035088055
 20
76.0296554853770488
 10
215.000099735287904
 20
76.0296554853770914
 42
0.4142135623730968
 10
213.500099735287904
 20
74.529655485377063
 10
213.500099735287904
 20
67.5296553363654795
 42
0.4142135623730934
  0
LWPOLYLINE
  5
71
100
AcDbEntity
  8
0
 62
256
370
-1
 48
1.0
  6
ByLayer
100
AcDbPolyline
 90
8
 70
1
 10
52.499999463558197
 20
99.0000017583370209
 10
37.4999991953373026
 20
99.0000017583370209
 42
-0.4142135623730968
 10
35.9999991953373026
 20
100.5000017583370067
 10
35.9999991953373026
 20
107.5000019073486044
 42
-0.4142135623730934
 10
37.4999991953373026
 20
109.0000019073486044
 10
52.499999463558197
 20
109.0000019073486044
 42
-0.4142135623730985
 10
53.999999463558197
 20
107.5000019073486044
 10
53.999999463558197
 20
100.5000017583370067
 42
-0.414213562373095
  0
LWPOLYLINE
  5
72
100
AcDbEntity
  8
0
 62
256
370
-1
 48
1.0
  6
ByLayer
100
AcDbPolyline
 90
8
 70
1
 10
-37.500000536441803
 20
70.0000017583370209
 10
-52.5000008046626974
 20
70.0000017583370209
 42
-0.4142135623730968
 10
-54.0000008046626974
 20
71.5000017583370351
 10
-54.0000008046626974
 20
78.5000019073486186
 42
-0.4142135623730934
 10
-52.5000008046626974
 20
80.0000019073486328
 10
-37.500000536441803
 20
80.0000019073486328
 42
-0.4142135623730968
 10
-36.0000005364418101
 20
78.5000019073486044
 10
-36.0000005364418101
 20
71.5000017583370209
 42
-0.4142135623730934
  0
LWPOLYLINE
  5
73
100
AcDbEntity
  8
0
 62
256
370
-1
 48
1.0
  6
ByLayer
100
AcDbPolyline
 90
8
 70
1
 10
140.0000980663579071
 20
37.0296553363655079
 10
125.0000977981370056
 20
37.0296553363655079
 42
-0.4142135623730968
 10
123.5000977981370056
 20
38.5296553363655221
 10
123.5000977981370056
 20
45.5296554853771127
 42
-0.4142135623730934
 10
125.0000977981370056
 20
47.0296554853771198
 10
140.0000980663579071
 20
47.0296554853771198
 42
-0.4142135623730968
 10
141.5000980663579071
 20
45.5296554853770914
 10
141.5000980663579071
 20
38.5296553363655079
 42
-0.4142135623730934
  0
LWPOLYLINE
  5
74
100
AcDbEntity
  8
0
 62
256
370
-1
 48
1.0
  6
ByLayer
100
AcDbPolyline
 90
8
 70
1
 10
215.000099735287904
 20
37.0296553363655221
 10
230.0001000035088055
 20
37.0296553363655221
 42
0.4142135623730968
 10
231.5001000035088055
 20
38.5296553363654866
 10
231.5001000035088055
 20
45.5296554853770914
 42
0.4142135623730934
 10
230.0001000035088055
 20
47.0296554853771127
 10
215.000099735287904
 20
47.0296554853771127
 42
0.4142135623730968
 10
213.500099735287904
 20
45.5296554853770914
 10
213.500099735287904
 20
38.5296553363654795
 42
0.4142135623730934
  0
LWPOLYLINE
  5
75
100
AcDbEntity
  8
0
 62
256
370
-1
 48
1.0
  6
ByLayer
100
AcDbPolyline
 90
8
 70
1
 10
52.499999463558197
 20
70.0000017583370209
 10
37.4999991953373026
 20
70.0000017583370209
 42
-0.4142135623730968
 10
35.9999991953373026
 20
71.5000017583370351
 10
35.9999991953373026
 20
78.5000019073486186
 42
-0.4142135623730934
 10
37.4999991953373026
 20
80.0000019073486328
 10
52.499999463558197
 20
80.0000019073486328
 42
-0.4142135623730985
 10
53.999999463558197
 20
78.5000019073486044
 10
53.999999463558197
 20
71.5000017583370209
 42
-0.414213562373095
  0
LWPOLYLINE
  5
76
100
AcDbEntity
  8
0
 62
256
370
-1
 48
1.0
  6
ByLayer
100
AcDbPolyline
 90
8
 70
1
 10
-37.500000536441803
 20
41.0000017583370067
 10
-52.5000008046626974
 20
41.0000017583370067
 42
-0.4142135623730968
 10
-54.0000008046626974
 20
42.5000017583370422
 10
-54.0000008046626974
 20
49.5000019073486186
 42
-0.4142135623730934
 10
-52.5000008046626974
 20
51.0000019073486186
 10
-37.500000536441803
 20
51.0000019073486186
 42
-0.4142135623730968
 10
-36.0000005364418101
 20
49.5000019073485973
 10
-36.0000005364418101
 20
42.5000017583370067
 42
-0.4142135623730934
  0
LWPOLYLINE
  5
77
100
AcDbEntity
  8
0
 62
256
370
-1
 48
1.0
  6
ByLayer
100
AcDbPolyline
 90
8
 70
1
 10
140.0000980663579071
 20
8.0296553363654954
 10
125.0000977981370056
 20
8.0296553363654954
 42
-0.4142135623730968
 10
123.5000977981370056
 20
9.529655336365531
 10
123.5000977981370056
 20
16.5296554853771092
 42
-0.4142135623730934
 10
125.0000977981370056
 20
18.0296554853771092
 10
140.0000980663579071
 20
18.0296554853771092
 42
-0.4142135623730968
 10
141.5000980663579071
 20
16.5296554853770914
 10
141.5000980663579071
 20
9.5296553363654954
 42
-0.4142135623730934
  0
LWPOLYLINE
  5
78
100
AcDbEntity
  8
0
 62
256
370
-1
 48
1.0
  6
ByLayer
100
AcDbPolyline
 90
8
 70
1
 10
215.000099735287904
 20
8.0296553363654937
 10
230.0001000035088055
 20
8.0296553363654795
 42
0.4142135623730968
 10
231.5001000035088055
 20
9.5296553363655505
 10
231.5001000035088055
 20
16.5296554853771092
 42
0.4142135623730934
 10
230.0001000035088055
 20
18.0296554853771092
 10
215.0000997352878187
 20
18.0296554853770594
 42
0.4142135623730968
 10
213.500099735287904
 20
16.5296554853771092
 10
213.500099735287904
 20
9.5296553363654937
 42
0.4142135623730934
  0
LWPOLYLINE
  5
79
100
AcDbEntity
  8
0
 62
256
370
-1
 48
1.0
  6
ByLayer
100
AcDbPolyline
 90
8
 70
1
 10
52.499999463558197
 20
41.0000017583370067
 10
37.4999991953373026
 20
41.0000017583370067
 42
-0.4142135623730968
 10
35.9999991953373026
 20
42.5000017583370422
 10
35.9999991953373026
 20
49.5000019073486186
 42
-0.4142135623730934
 10
37.4999991953373026
 20
51.0000019073486186
 10
52.499999463558197
 20
51.0000019073486186
 42
-0.4142135623730985
 10
53.999999463558197
 20
49.5000019073485973
 10
53.999999463558197
 20
42.5000017583370067
 42
-0.414213562373095
  0
CIRCLE
  5
7A
100
AcDbEntity
  8
0
 62
256
370
-1
 48
1.0
  6
ByLayer
100
AcDbCircle
 10
20.0000002980232203
 20
133.0000018328427984
 30
0.0
 40
8.0000000000000018
  0
CIRCLE
  5
7B
100
AcDbEntity
  8
0
 62
256
370
-1
 48
1.0
  6
ByLayer
100
AcDbCircle
 10
-19.9999997019767797
 20
133.0000018328427984
 30
0.0
 40
8.0000000000000018
  0
CIRCLE
  5
7C
100
AcDbEntity
  8
0
 62
256
370
-1
 48
1.0
  6
ByLayer
100
AcDbCircle
 10
157.5000989008229055
 20
100.0296554108712996
 30
0.0
 40
8.0000000000000018
  0
CIRCLE
  5
7D
100
AcDbEntity
  8
0
 62
256
370
-1
 48
1.0
  6
ByLayer
100
AcDbCircle
 10
197.5000989008229055
 20
100.0296554108712996
 30
0.0
 40
8.0000000000000018
  0
CIRCLE
  5
7E
100
AcDbEntity
  8
0
 62
256
370
-1
 48
1.0
  6
ByLayer
100
AcDbCircle
 10
20.0000002980232203
 20
104.0000018328427984
 30
0.0
 40
8.0000000000000018
  0
CIRCLE
  5
7F
100
AcDbEntity
  8
0
 62
256
370
-1
 48
1.0
  6
ByLayer
100
AcDbCircle
 10
-19.9999997019767797
 20
104.0000018328427984
 30
0.0
 40
8.0000000000000018
  0
CIRCLE
  5
80
100
AcDbEntity
  8
0
 62
256
370
-1
 48
1.0
  6
ByLayer
100
AcDbCircle
 10
157.5000989008229055
 20
71.0296554108712854
 30
0.0
 40
8.0000000000000018
  0
CIRCLE
  5
81
100
AcDbEntity
  8
0
 62
256
370
-1
 48
1.0
  6
ByLayer
100
AcDbCircle
 10
197.5000989008229055
 20
71.0296554108712854
 30
0.0
 40
8.0000000000000018
  0
CIRCLE
  5
82
100
AcDbEntity
  8
0
 62
256
370
-1
 48
1.0
  6
ByLayer
100
AcDbCircle
 10
20.0000002980232203
 20
75.0000018328428268
 30
0.0
 40
8.0000000000000018
  0
CIRCLE
  5
83
100
AcDbEntity
  8
0
 62
256
370
-1
 48
1.0
  6
ByLayer
100
AcDbCircle
 10
-19.9999997019767797
 20
75.0000018328428268
 30
0.0
 40
8.0000000000000018
  0
CIRCLE
  5
84
100
AcDbEntity
  8
0
 62
256
370
-1
 48
1.0
  6
ByLayer
100
AcDbCircle
 10
157.5000989008229055
 20
42.0296554108713067
 30
0.0
 40
8.0000000000000018
  0
CIRCLE
  5
85
100
AcDbEntity
  8
0
 62
256
370
-1
 48
1.0
  6
ByLayer
100
AcDbCircle
 10
197.5000989008229055
 20
42.0296554108712996
 30
0.0
 40
8.0000000000000018
  0
CIRCLE
  5
86
100
AcDbEntity
  8
0
 62
256
370
-1
 48
1.0
  6
ByLayer
100
AcDbCircle
 10
20.0000002980232203
 20
46.0000018328428126
 30
0.0
 40
8.0000000000000018
  0
CIRCLE
  5
87
100
AcDbEntity
  8
0
 62
256
370
-1
 48
1.0
  6
ByLayer
100
AcDbCircle
 10
-19.9999997019767797
 20
46.0000018328428126
 30
0.0
 40
8.0000000000000018
  0
CIRCLE
  5
88
100
AcDbEntity
  8
0
 62
256
370
-1
 48
1.0
  6
ByLayer
100
AcDbCircle
 10
157.5000989008229055
 20
13.0296554108712996
 30
0.0
 40
8.0000000000000018
  0
CIRCLE
  5
89
100
AcDbEntity
  8
0
 62
256
370
-1
 48
1.0
  6
ByLayer
100
AcDbCircle
 10
197.5000989008229055
 20
13.0296554108712996
 30
0.0
 40
8.0000000000000018
  0
CIRCLE
  5
8A
100
AcDbEntity
  8
0
 62
256
370
-1
 48
1.0
  6
ByLayer
100
AcDbCircle
 10
-46.1742876788737391
 20
14.0140335593086593
 30
0.0
 40
11.0
  0
CIRCLE
  5
8B
100
AcDbEntity
  8
0
 62
256
370
-1
 48
1.0
  6
ByLayer
100
AcDbCircle
 10
151.5000989008229055
 20
-21.9703445891287004
 30
0.0
 40
15.0
  0
CIRCLE
  5
8C
100
AcDbEntity
  8
0
 62
256
370
-1
 48
1.0
  6
ByLayer
100
AcDbCircle
 10
203.5000989008229055
 20
-21.9703445891287004
 30
0.0
 40
15.0
  0
CIRCLE
  5
8D
100
AcDbEntity
  8
0
 62
256
370
-1
 48
1.0
  6
ByLayer
100
AcDbCircle
 10
-32.8537804828248525
 20
-45.6853786502893726
 30
0.0
 40
11.0
  0
LWPOLYLINE
  5
8E
100
AcDbEntity
  8
0
 62
256
370
-1
 48
1.0
  6
ByLayer
100
AcDbPolyline
 90
8
 70
1
 10
-52.5000008046626974
 20
-66.0000009089708328
 10
-37.5000008046626974
 20
-66.0000009089708328
 42
-0.4142135623730908
 10
-36.0000008046626974
 20
-67.5000009089708328
 10
-36.0000008046626974
 20
-74.5000009089708186
 42
-0.4142135623730908
 10
-37.5000008046626974
 20
-76.0000009089708328
 10
-52.5000008046626974
 20
-76.0000009089708328
 42
-0.4142135623730882
 10
-54.0000008046626974
 20
-74.5000009089708328
 10
-54.0000008046626974
 20
-67.5000009089708328
 42
-0.4142135623730882
  0
LWPOLYLINE
  5
8F
100
AcDbEntity
  8
0
 62
256
370
-1
 48
1.0
  6
ByLayer
100
AcDbPolyline
 90
8
 70
1
 10
-27.5000008046627009
 20
-66.0000009089708328
 10
-12.5000008046626991
 20
-66.0000009089708328
 42
-0.4142135623730908
 10
-11.0000008046627098
 20
-67.5000009089708328
 10
-11.0000008046627098
 20
-74.5000009089708186
 42
-0.4142135623730908
 10
-12.5000008046626991
 20
-76.0000009089708328
 10
-27.5000008046627009
 20
-76.0000009089708328
 42
-0.4142135623730882
 10
-29.0000008046627009
 20
-74.5000009089708328
 10
-29.0000008046627009
 20
-67.5000009089708328
 42
-0.4142135623730882
  0
LWPOLYLINE
  5
90
100
AcDbEntity
  8
0
 62
256
370
-1
 48
1.0
  6
ByLayer
100
AcDbPolyline
 90
8
 70
1
 10
-52.5000008046626974
 20
-86.0000009089708328
 10
-37.5000008046626974
 20
-86.0000009089708328
 42
-0.414213562373089
 10
-36.0000008046626974
 20
-87.5000009089708328
 10
-36.0000008046626974
 20
-94.5000009089708328
 42
-0.414213562373089
 10
-37.5000008046626974
 20
-96.0000009089708328
 10
-52.5000008046626974
 20
-96.0000009089708328
 42
-0.4142135623730882
 10
-54.0000008046626974
 20
-94.5000009089708328
 10
-54.0000008046626974
 20
-87.5000009089708328
 42
-0.4142135623730882
  0
LWPOLYLINE
  5
91
100
AcDbEntity
  8
0
 62
256
370
-1
 48
1.0
  6
ByLayer
100
AcDbPolyline
 90
8
 70
1
 10
-27.5000008046627009
 20
-86.0000009089708328
 10
-12.5000008046626991
 20
-86.0000009089708328
 42
-0.414213562373089
 10
-11.0000008046627098
 20
-87.5000009089708328
 10
-11.0000008046626991
 20
-94.5000009089708328
 42
-0.414213562373089
 10
-12.5000008046626991
 20
-96.0000009089708328
 10
-27.5000008046627009
 20
-96.0000009089708328
 42
-0.4142135623730882
 10
-29.0000008046627009
 20
-94.5000009089708328
 10
-29.0000008046627009
 20
-87.5000009089708328
 42
-0.4142135623730882
  0
LWPOLYLINE
  5
92
100
AcDbEntity
  8
0
 62
256
370
-1
 48
1.0
  6
ByLayer
100
AcDbPolyline
 90
8
 70
1
 10
-52.5000008046626974
 20
-106.0000009089708044
 10
-37.5000008046626974
 20
-106.0000009089708044
 42
-0.414213562373089
 10
-36.0000008046626974
 20
-107.5000009089708044
 10
-36.0000008046626974
 20
-114.5000009089708044
 42
-0.414213562373089
 10
-37.5000008046626974
 20
-116.0000009089708044
 10
-52.5000008046626974
 20
-116.0000009089708044
 42
-0.4142135623730882
 10
-54.0000008046626974
 20
-114.5000009089708044
 10
-54.0000008046626974
 20
-107.5000009089708044
 42
-0.4142135623730882
  0
LWPOLYLINE
  5
93
100
AcDbEntity
  8
0
 62
256
370
-1
 48
1.0
  6
ByLayer
100
AcDbPolyline
 90
8
 70
1
 10
-27.5000008046627009
 20
-106.0000009089708044
 10
-12.5000008046626991
 20
-106.0000009089708044
 42
-0.414213562373089
 10
-11.0000008046627098
 20
-107.5000009089708044
 10
-11.0000008046626991
 20
-114.5000009089708044
 42
-0.414213562373089
 10
-12.5000008046626991
 20
-116.0000009089708044
 10
-27.5000008046627009
 20
-116.0000009089708044
 42
-0.4142135623730882
 10
-29.0000008046627009
 20
-114.5000009089708044
 10
-29.0000008046627009
 20
-107.5000009089708044
 42
-0.4142135623730882
  0
LWPOLYLINE
  5
94
100
AcDbEntity
  8
0
 62
256
370
-1
 48
1.0
  6
ByLayer
100
AcDbPolyline
 90
8
 70
1
 10
-52.5000008046626974
 20
-126.0000009089708044
 10
-37.5000008046626974
 20
-126.0000009089708044
 42
-0.414213562373089
 10
-36.0000008046626974
 20
-127.5000009089708044
 10
-36.0000008046626974
 20
-134.5000009089708044
 42
-0.414213562373089
 10
-37.5000008046626974
 20
-136.0000009089708044
 10
-52.5000008046626974
 20
-136.0000009089708044
 42
-0.4142135623730882
 10
-54.0000008046626974
 20
-134.5000009089708044
 10
-54.0000008046626974
 20
-127.5000009089708044
 42
-0.4142135623730882
  0
LWPOLYLINE
  5
95
100
AcDbEntity
  8
0
 62
256
370
-1
 48
1.0
  6
ByLayer
100
AcDbPolyline
 90
8
 70
1
 10
-27.5000008046627009
 20
-126.0000009089708044
 10
-12.5000008046626991
 20
-126.0000009089708044
 42
-0.414213562373089
 10
-11.0000008046627098
 20
-127.5000009089708044
 10
-11.0000008046626991
 20
-134.5000009089708044
 42
-0.414213562373089
 10
-12.5000008046626991
 20
-136.0000009089708044
 10
-27.5000008046627009
 20
-136.0000009089708044
 42
-0.4142135623730882
 10
-29.0000008046627009
 20
-134.5000009089708044
 10
-29.0000008046627009
 20
-127.5000009089708044
 42
-0.4142135623730882
  0
LWPOLYLINE
  5
96
100
AcDbEntity
  8
0
 62
256
370
-1
 48
1.0
  6
ByLayer
100
AcDbPolyline
 90
8
 70
1
 10
12.4999994635582006
 20
-86.0000009089708328
 42
0.4142135623730855
 10
10.9999994635582006
 20
-87.5000009089708186
 10
10.9999994635582006
 20
-94.500000908970847
 42
0.4142135623730855
 10
12.4999994635582006
 20
-96.0000009089708328
 10
27.4999994635581899
 20
-96.0000009089708328
 42
0.4142135623730846
 10
28.9999994635582006
 20
-94.500000908970847
 10
28.9999994635582006
 20
-87.5000009089708186
 42
0.4142135623730846
 10
27.4999994635581899
 20
-86.0000009089708328
  0
LWPOLYLINE
  5
97
100
AcDbEntity
  8
0
 62
256
370
-1
 48
1.0
  6
ByLayer
100
AcDbPolyline
 90
8
 70
1
 10
12.4999994635582006
 20
-126.0000009089708044
 42
0.4142135623730855
 10
10.9999994635582006
 20
-127.5000009089708044
 10
10.9999994635582006
 20
-134.5000009089708044
 42
0.4142135623730855
 10
12.4999994635582006
 20
-136.0000009089708044
 10
27.4999994635581899
 20
-136.0000009089708044
 42
0.4142135623730846
 10
28.9999994635582006
 20
-134.5000009089708044
 10
28.9999994635582006
 20
-127.5000009089708044
 42
0.4142135623730846
 10
27.4999994635581899
 20
-126.0000009089708044
  0
LWPOLYLINE
  5
98
100
AcDbEntity
  8
0
 62
256
370
-1
 48
1.0
  6
ByLayer
100
AcDbPolyline
 90
8
 70
1
 10
35.999999463558197
 20
-67.5000009089708186
 10
35.999999463558197
 20
-74.500000908970847
 42
0.4142135623730855
 10
37.499999463558197
 20
-76.0000009089708328
 10
52.499999463558197
 20
-76.0000009089708328
 42
0.4142135623730846
 10
53.999999463558197
 20
-74.500000908970847
 10
53.999999463558197
 20
-67.5000009089708186
 42
0.4142135623730846
 10
52.499999463558197
 20
-66.0000009089708328
 10
37.499999463558197
 20
-66.0000009089708328
 42
0.4142135623730855
  0
LWPOLYLINE
  5
99
100
AcDbEntity
  8
0
 62
256
370
-1
 48
1.0
  6
ByLayer
100
AcDbPolyline
 90
8
 70
1
 10
12.4999994635582006
 20
-76.0000009089708328
 10
27.4999994635581899
 20
-76.0000009089708328
 42
0.4142135623730846
 10
28.9999994635582006
 20
-74.500000908970847
 10
28.9999994635582006
 20
-67.5000009089708186
 42
0.4142135623730846
 10
27.4999994635581899
 20
-66.0000009089708328
 10
12.4999994635582006
 20
-66.0000009089708328
 42
0.4142135623730855
 10
10.9999994635582006
 20
-67.5000009089708186
 10
10.9999994635582006
 20
-74.500000908970847
 42
0.4142135623730855
  0
LWPOLYLINE
  5
9A
100
AcDbEntity
  8
0
 62
256
370
-1
 48
1.0
  6
ByLayer
100
AcDbPolyline
 90
8
 70
1
 10
37.499999463558197
 20
-126.0000009089708044
 42
0.4142135623730855
 10
35.999999463558197
 20
-127.5000009089708044
 10
35.999999463558197
 20
-134.5000009089708044
 42
0.4142135623730855
 10
37.499999463558197
 20
-136.0000009089708044
 10
52.499999463558197
 20
-136.0000009089708044
 42
0.4142135623730846
 10
53.999999463558197
 20
-134.5000009089708044
 10
53.999999463558197
 20
-127.5000009089708044
 42
0.4142135623730846
 10
52.499999463558197
 20
-126.0000009089708044
  0
LWPOLYLINE
  5
9B
100
AcDbEntity
  8
0
 62
256
370
-1
 48
1.0
  6
ByLayer
100
AcDbPolyline
 90
8
 70
1
 10
12.4999994635582006
 20
-116.0000009089708044
 10
27.4999994635581899
 20
-116.0000009089708044
 42
0.4142135623730846
 10
28.9999994635582006
 20
-114.5000009089708044
 10
28.9999994635582006
 20
-107.5000009089708044
 42
0.4142135623730846
 10
27.4999994635581899
 20
-106.0000009089708044
 10
12.4999994635582006
 20
-106.0000009089708044
 42
0.4142135623730855
 10
10.9999994635582006
 20
-107.5000009089708044
 10
10.9999994635582006
 20
-114.5000009089708044
 42
0.4142135623730855
  0
LWPOLYLINE
  5
9C
100
AcDbEntity
  8
0
 62
256
370
-1
 48
1.0
  6
ByLayer
100
AcDbPolyline
 90
8
 70
1
 10
35.999999463558197
 20
-107.5000009089708044
 10
35.999999463558197
 20
-114.5000009089708044
 42
0.4142135623730855
 10
37.499999463558197
 20
-116.0000009089708044
 10
52.499999463558197
 20
-116.0000009089708044
 42
0.4142135623730846
 10
53.999999463558197
 20
-114.5000009089708044
 10
53.999999463558197
 20
-107.5000009089708044
 42
0.4142135623730846
 10
52.499999463558197
 20
-106.0000009089708044
 10
37.499999463558197
 20
-106.0000009089708044
 42
0.4142135623730855
  0
LWPOLYLINE
  5
9D
100
AcDbEntity
  8
0
 62
256
370
-1
 48
1.0
  6
ByLayer
100
AcDbPolyline
 90
8
 70
1
 10
37.499999463558197
 20
-86.0000009089708328
 42
0.4142135623730855
 10
35.999999463558197
 20
-87.5000009089708186
 10
35.999999463558197
 20
-94.500000908970847
 42
0.4142135623730855
 10
37.499999463558197
 20
-96.0000009089708328
 10
52.499999463558197
 20
-96.0000009089708328
 42
0.4142135623730846
 10
53.999999463558197
 20
-94.500000908970847
 10
53.999999463558197
 20
-87.5000009089708186
 42
0.4142135623730846
 10
52.499999463558197
 20
-86.0000009089708328
  0
LWPOLYLINE
  5
9E
100
AcDbEntity
  8
0
 62
256
370
-1
 48
1.0
  6
ByLayer
100
AcDbPolyline
 90
4
 70
1
 10
-37.5000006705522466
 20
-157.5000022351742075
 10
-52.5000006705522466
 20
-157.5000022351742075
 10
-52.5000006705522466
 20
-142.5000022351742075
 10
-37.5000006705522466
 20
-142.5000022351742075
  0
LINE
  5
9F
100
AcDbEntity
  8
0
 62
256
370
-1
 48
1.0
  6
ByLayer
100
AcDbLine
 10
-12.5000006705522502
 20
-142.5000022351742075
 30
0.0
 11
-12.5000006705522502
 21
-157.5000022351742075
 31
0.0
  0
LINE
  5
A0
100
AcDbEntity
  8
0
 62
256
370
-1
 48
1.0
  6
ByLayer
100
AcDbLine
 10
-27.5000006705522502
 20
-142.5000022351742075
 30
0.0
 11
-27.5000006705522502
 21
-157.5000022351742075
 31
0.0
  0
LINE
  5
A1
100
AcDbEntity
  8
0
 62
256
370
-1
 48
1.0
  6
ByLayer
100
AcDbLine
 10
-12.5000006705522502
 20
-157.5000022351742075
 30
0.0
 11
-27.5000006705522502
 21
-157.5000022351742075
 31
0.0
  0
LINE
  5
A2
100
AcDbEntity
  8
0
 62
256
370
-1
 48
1.0
  6
ByLayer
100
AcDbLine
 10
-12.5000006705522502
 20
-142.5000022351742075
 30
0.0
 11
-27.5000006705522502
 21
-142.5000022351742075
 31
0.0
  0
LINE
  5
A3
100
AcDbEntity
  8
0
 62
256
370
-1
 48
1.0
  6
ByLayer
100
AcDbLine
 10
52.4999993294477534
 20
-157.5000022351742075
 30
0.0
 11
52.4999993294477534
 21
-142.5000022351742075
 31
0.0
  0
LINE
  5
A4
100
AcDbEntity
  8
0
 62
256
370
-1
 48
1.0
  6
ByLayer
100
AcDbLine
 10
27.4999993294477498
 20
-157.5000022351742075
 30
0.0
 11
27.4999993294477498
 21
-142.5000022351742075
 31
0.0
  0
LINE
  5
A5
100
AcDbEntity
  8
0
 62
256
370
-1
 48
1.0
  6
ByLayer
100
AcDbLine
 10
12.4999993294477498
 20
-157.5000022351742075
 30
0.0
 11
12.4999993294477498
 21
-142.5000022351742075
 31
0.0
  0
LINE
  5
A6
100
AcDbEntity
  8
0
 62
256
370
-1
 48
1.0
  6
ByLayer
100
AcDbLine
 10
27.4999993294477498
 20
-142.5000022351742075
 30
0.0
 11
12.4999993294477498
 21
-142.5000022351742075
 31
0.0
  0
LINE
  5
A7
100
AcDbEntity
  8
0
 62
256
370
-1
 48
1.0
  6
ByLayer
100
AcDbLine
 10
52.4999993294477534
 20
-142.5000022351742075
 30
0.0
 11
37.4999993294477534
 21
-142.5000022351742075
 31
0.0
  0
LINE
  5
A8
100
AcDbEntity
  8
0
 62
256
370
-1
 48
1.0
  6
ByLayer
100
AcDbLine
 10
52.4999993294477534
 20
-157.5000022351742075
 30
0.0
 11
37.4999993294477534
 21
-157.5000022351742075
 31
0.0
  0
LINE
  5
A9
100
AcDbEntity
  8
0
 62
256
370
-1
 48
1.0
  6
ByLayer
100
AcDbLine
 10
27.4999993294477498
 20
-157.5000022351742075
 30
0.0
 11
12.4999993294477498
 21
-157.5000022351742075
 31
0.0
  0
LINE
  5
AA
100
AcDbEntity
  8
0
 62
256
370
-1
 48
1.0
  6
ByLayer
100
AcDbLine
 10
37.4999993294477534
 20
-142.5000022351742075
 30
0.0
 11
37.4999993294477534
 21
-157.5000022351742075
 31
0.0
  0
CIRCLE
  5
AB
100
AcDbEntity
  8
0
 62
256
370
-1
 48
1.0
  6
ByLayer
100
AcDbCircle
 10
-45.0000006705522466
 20
-150.0000022351742075
 30
0.0
 40
7.5
  0
CIRCLE
  5
AC
100
AcDbEntity
  8
0
 62
256
370
-1
 48
1.0
  6
ByLayer
100
AcDbCircle
 10
-20.0000006705522502
 20
-150.0000022351742075
 30
0.0
 40
7.5
  0
CIRCLE
  5
AD
100
AcDbEntity
  8
0
 62
256
370
-1
 48
1.0
  6
ByLayer
100
AcDbCircle
 10
19.9999993294477498
 20
-150.0000022351742075
 30
0.0
 40
7.5
  0
CIRCLE
  5
AE
100
AcDbEntity
  8
0
 62
256
370
-1
 48
1.0
  6
ByLayer
100
AcDbCircle
 10
44.9999993294477534
 20
-150.0000022351742075
 30
0.0
 40
7.5
  0
CIRCLE
  5
AF
100
AcDbEntity
  8
0
 62
256
370
-1
 48
1.0
  6
ByLayer
100
AcDbCircle
 10
42.1742876788737391
 20
14.0140335593086593
 30
0.0
 40
11.0
  0
CIRCLE
  5
B0
100
AcDbEntity
  8
0
 62
256
370
-1
 48
1.0
  6
ByLayer
100
AcDbCircle
 10
32.8537804828248525
 20
-45.6853786502893726
 30
0.0
 40
11.0
  0
LWPOLYLINE
  5
B1
100
AcDbEntity
  8
0
 62
256
370
-1
 48
1.0
  6
ByLayer
100
AcDbPolyline
 90
8
 70
1
 10
9.5
 20
8.0140335593086629
 10
-9.5000000000000018
 20
8.0140335593086629
 42
-0.4142135623730948
 10
-11.0
 20
9.5140335593086629
 10
-11.0
 20
18.5140335593086611
 42
-0.4142135623730955
 10
-9.5
 20
20.0140335593086611
 10
9.5
 20
20.0140335593086611
 42
-0.4142135623730953
 10
11.0
 20
18.5140335593086611
 10
11.0
 20
9.5140335593086629
 42
-0.4142135623730944
  0
LWPOLYLINE
  5
B2
100
AcDbEntity
  8
0
 62
256
370
-1
 48
1.0
  6
ByLayer
100
AcDbPolyline
 90
8
 70
1
 10
210.0000989008229055
 20
132.0296554108712996
 10
229.0000989008229055
 20
132.0296554108712996
 42
0.4142135623730948
 10
230.5000989008229055
 20
133.5296554108711859
 10
230.5000989008229055
 20
142.5296554108712996
 42
0.4142135623730955
 10
229.0000989008229055
 20
144.0296554108712996
 10
210.0000989008229055
 20
144.0296554108712996
 42
0.4142135623730953
 10
208.5000989008229055
 20
142.5296554108712996
 10
208.5000989008229055
 20
133.5296554108712996
 42
0.4142135623730944
  0
LWPOLYLINE
  5
B3
100
AcDbEntity
  8
0
 62
256
370
-1
 48
1.0
  6
ByLayer
100
AcDbPolyline
 90
8
 70
1
 10
145.0000989008229055
 20
132.0296554108712996
 10
126.0000989008229055
 20
132.0296554108712996
 42
-0.4142135623730948
 10
124.5000989008229055
 20
133.5296554108711859
 10
124.5000989008229055
 20
142.5296554108712996
 42
-0.4142135623730955
 10
126.0000989008229055
 20
144.0296554108712996
 10
145.0000989008229055
 20
144.0296554108714133
 42
-0.4142135623730953
 10
146.5000989008229055
 20
142.5296554108712996
 10
146.5000989008229055
 20
133.5296554108712996
 42
-0.4142135623730944
  0
LWPOLYLINE
  5
B4
100
AcDbEntity
  8
0
 62
256
370
-1
 48
1.0
  6
ByLayer
100
AcDbPolyline
 90
8
 70
1
 10
-11.0
 20
-50.4859664406913424
 10
-11.0
 20
-41.4859664406913424
 42
-0.4142135623730955
 10
-9.5
 20
-39.9859664406913424
 10
9.5
 20
-39.9859664406913424
 42
-0.4142135623730953
 10
11.0
 20
-41.4859664406913424
 10
10.9999999999999893
 20
-50.4859664406913424
 42
-0.4142135623730948
 10
9.5
 20
-51.9859664406913424
 10
-9.5000000000000018
 20
-51.9859664406913424
 42
-0.4142135623730948
  0
LINE
  5
B5
100
AcDbEntity
  8
layer 3
 62
256
370
-1
 48
1.0
  6
ByLayer
100
AcDbLine
 10
-58.8603975253877465
 20
142.7534593015950861
 30
0.0
 11
56.1396024746122535
 21
142.7534593015950861
 31
0.0
  0
LINE
  5
B6
100
AcDbEntity
  8
layer 3
 62
256
370
-1
 48
1.0
  6
ByLayer
100
AcDbLine
 10
56.1396024746122535
 20
142.7534593015950861
 30
0.0
 11
56.1396024746122535
 21
35.3274269474018183
 31
0.0
  0
LINE
  5
B7
100
AcDbEntity
  8
layer 3
 62
256
370
-1
 48
1.0
  6
ByLayer
100
AcDbLine
 10
56.1396024746122606
 20
35.3274269474018183
 30
0.0
 11
-58.8603975253877394
 21
35.3274269474018325
 31
0.0
  0
LINE
  5
B8
100
AcDbEntity
  8
layer 3
 62
256
370
-1
 48
1.0
  6
ByLayer
100
AcDbLine
 10
-58.8603975253877465
 20
35.3274269474018183
 30
0.0
 11
-58.8603975253877465
 21
142.7534593015950861
 31
0.0
  0
LINE
  5
B9
100
AcDbEntity
  8
layer 3
 62
256
370
-1
 48
1.0
  6
ByLayer
100
AcDbLine
 10
-59.1179373860586566
 20
25.6627765774525507
 30
0.0
 11
55.8820626139413434
 21
25.6627765774525507
 31
0.0
  0
LINE
  5
BA
100
AcDbEntity
  8
layer 3
 62
256
370
-1
 48
1.0
  6
ByLayer
100
AcDbLine
 10
55.8820626139413434
 20
25.6627765774525507
 30
0.0
 11
55.8820626139413434
 21
-59.6066366036884077
 31
0.0
  0
LINE
  5
BB
100
AcDbEntity
  8
layer 3
 62
256
370
-1
 48
1.0
  6
ByLayer
100
AcDbLine
 10
55.8820626139413434
 20
-59.6066366036884077
 30
0.0
 11
-59.1179373860586566
 21
-59.6066366036884006
 31
0.0
  0
LINE
  5
BC
100
AcDbEntity
  8
layer 3
 62
256
370
-1
 48
1.0
  6
ByLayer
100
AcDbLine
 10
-59.1179373860586566
 20
-59.6066366036884006
 30
0.0
 11
-59.1179373860586566
 21
25.6627765774525507
 31
0.0
  0
LINE
  5
BD
100
AcDbEntity
  8
layer 3
 62
256
370
-1
 48
1.0
  6
ByLayer
100
AcDbLine
 10
-59.3118845201841225
 20
-63.347857985059207
 30
0.0
 11
55.6881154798158775
 21
-63.347857985059207
 31
0.0
  0
LINE
  5
BE
100
AcDbEntity
  8
layer 3
 62
256
370
-1
 48
1.0
  6
ByLayer
100
AcDbLine
 10
120.0
 20
153.0
 30
0.0
 11
235.0000989008229055
 21
153.0
 31
0.0
  0
LINE
  5
BF
100
AcDbEntity
  8
layer 3
 62
256
370
-1
 48
1.0
  6
ByLayer
100
AcDbLine
 10
120.0000989008229055
 20
108.0
 30
0.0
 11
235.0000989008229055
 21
108.0
 31
0.0
  0
LINE
  5
C0
100
AcDbEntity
  8
layer 3
 62
256
370
-1
 48
1.0
  6
ByLayer
100
AcDbLine
 10
120.0000749117108967
 20
-5.4927350541190663
 30
0.0
 11
235.0001738125339159
 21
-5.4927350541190663
 31
0.0
  0
LINE
  5
C1
100
AcDbEntity
  8
layer 3
 62
256
370
-1
 48
1.0
  6
ByLayer
100
AcDbLine
 10
55.6881154798158775
 20
-63.347857985059207
 30
0.0
 11
55.6881154798158775
 21
-159.2885471633165082
 31
0.0
  0
LINE
  5
C2
100
AcDbEntity
  8
layer 3
 62
256
370
-1
 48
1.0
  6
ByLayer
100
AcDbLine
 10
235.0000989008229055
 20
153.0
 30
0.0
 11
235.0000989008229055
 21
120.0447809299807034
 31
0.0
  0
LINE
  5
C3
100
AcDbEntity
  8
layer 3
 62
256
370
-1
 48
1.0
  6
ByLayer
100
AcDbLine
 10
235.0000989008229055
 20
108.0
 30
0.0
 11
235.0000989008229055
 21
4.0296554108712996
 31
0.0
  0
LINE
  5
C4
100
AcDbEntity
  8
layer 3
 62
256
370
-1
 48
1.0
  6
ByLayer
100
AcDbLine
 10
235.0001738125339159
 20
-5.4927350541190663
 30
0.0
 11
235.0001738125339159
 21
-38.4479541241383487
 31
0.0
  0
LINE
  5
C5
100
AcDbEntity
  8
layer 3
 62
256
370
-1
 48
1.0
  6
ByLayer
100
AcDbLine
 10
-59.3118845201841225
 20
-159.2885471633165082
 30
0.0
 11
-59.3118845201841225
 21
-63.347857985059207
 31
0.0
  0
LINE
  5
C6
100
AcDbEntity
  8
layer 3
 62
256
370
-1
 48
1.0
  6
ByLayer
100
AcDbLine
 10
119.9999490774009985
 20
120.0625975642463033
 30
0.0
 11
120.0
 21
153.0
 31
0.0
  0
LINE
  5
C7
100
AcDbEntity
  8
layer 3
 62
256
370
-1
 48
1.0
  6
ByLayer
100
AcDbLine
 10
120.0000989008229055
 20
4.0296554108712996
 30
0.0
 11
120.0000989008229055
 21
108.0
 31
0.0
  0
LINE
  5
C8
100
AcDbEntity
  8
layer 3
 62
256
370
-1
 48
1.0
  6
ByLayer
100
AcDbLine
 10
120.0000239891118952
 20
-38.4301374898727488
 30
0.0
 11
120.0000749117108967
 21
-5.4927350541190663
 31
0.0
  0
LINE
  5
C9
100
AcDbEntity
  8
layer 3
 62
256
370
-1
 48
1.0
  6
ByLayer
100
AcDbLine
 10
55.6881154798158775
 20
-159.2885471633165082
 30
0.0
 11
-59.3118845201841296
 21
-159.2885471633165082
 31
0.0
  0
LINE
  5
CA
100
AcDbEntity
  8
layer 3
 62
256
370
-1
 48
1.0
  6
ByLayer
100
AcDbLine
 10
235.0000989008229055
 20
120.0447809299807034
 30
0.0
 11
119.9999490774009985
 21
120.0625975642463033
 31
0.0
  0
LINE
  5
CB
100
AcDbEntity
  8
layer 3
 62
256
370
-1
 48
1.0
  6
ByLayer
100
AcDbLine
 10
234.7848153452356144
 20
-46.2400195143924293
 30
0.0
 11
119.7848153452356144
 21
-46.2400195143924293
 31
0.0
  0
LINE
  5
CC
100
AcDbEntity
  8
layer 3
 62
256
370
-1
 48
1.0
  6
ByLayer
100
AcDbLine
 10
235.0000989008229055
 20
4.0296554108712996
 30
0.0
 11
120.0000989008229055
 21
4.0296554108712996
 31
0.0
  0
LINE
  5
CD
100
AcDbEntity
  8
layer 3
 62
256
370
-1
 48
1.0
  6
ByLayer
100
AcDbLine
 10
235.0001738125339159
 20
-38.4479541241383487
 30
0.0
 11
120.0000239891120088
 21
-38.4301374898727772
 31
0.0
  0
LINE
  5
CE
100
AcDbEntity
  8
layer 3
 62
256
370
-1
 48
1.0
  6
ByLayer
100
AcDbLine
 10
235.0000989008229055
 20
-152.9703445891287004
 30
0.0
 11
120.0000989008229055
 21
-152.9703445891287004
 31
0.0
  0
DIMENSION
  5
CF
100
AcDbEntity
  8
medidas
 62
256
370
-1
 48
1.0
  6
ByLayer
100
AcDbDimension
 10
-75.3234959428866091
 20
142.7534593015950861
 30
0.0
 11
-78.0234959428866119
 21
89.0404431244984664
 31
0.0
 70
1
 71
8
 72
1
 74
0
 75
0
 41
1.0
 42
0.0
  1

  3
Standard
100
AcDbAlignedDimension
 13
-58.8603975253877465
 23
142.7534593015950861
 33
0.0
 14
-58.8603975253877465
 24
35.3274269474018325
 34
0.0
1001
ACAD
1000
DSTYLE
1002
{
1070
144
1040
1.0
1070
40
1040
20.0
1002
}
  0
DIMENSION
  5
D0
100
AcDbEntity
  8
medidas
 62
256
370
-1
 48
1.0
  6
ByLayer
100
AcDbDimension
 10
-75.1310314962118468
 20
25.6627765774525507
 30
0.0
 11
-77.8310314962118497
 21
-16.9719300131179196
 31
0.0
 70
1
 71
8
 72
1
 74
0
 75
0
 41
1.0
 42
0.0
  1

  3
Standard
100
AcDbAlignedDimension
 13
-59.1179373860586495
 23
25.6627765774525507
 33
0.0
 14
-59.1179373860586495
 24
-59.6066366036883934
 34
0.0
1001
ACAD
1000
DSTYLE
1002
{
1070
144
1040
1.0
1070
40
1040
20.0
1002
}
  0
DIMENSION
  5
D1
100
AcDbEntity
  8
medidas
 62
256
370
-1
 48
1.0
  6
ByLayer
100
AcDbDimension
 10
-74.7662314350677377
 20
-63.347857985059207
 30
0.0
 11
-77.4662314350677406
 21
-111.3182025741878647
 31
0.0
 70
1
 71
8
 72
1
 74
0
 75
0
 41
1.0
 42
0.0
  1

  3
Standard
100
AcDbAlignedDimension
 13
-57.146519197765663
 23
-63.347857985059207
 33
0.0
 14
-57.146519197765663
 24
-159.2885471633165082
 34
0.0
1001
ACAD
1000
DSTYLE
1002
{
1070
144
1040
1.0
1070
40
1040
20.0
1002
}
  0
LINE
  5
D2
100
AcDbEntity
  8
layer 2
 62
256
370
-1
 48
1.0
  6
ByLayer
100
AcDbLine
 10
-46.7248863055797585
 20
-30.5299953987693087
 30
0.0
 11
-18.2248863055797585
 21
-30.5299953987693087
 31
0.0
  0
LINE
  5
D3
100
AcDbEntity
  8
layer 2
 62
256
370
-1
 48
1.0
  6
ByLayer
100
AcDbLine
 10
46.7248863055797585
 20
-30.5299953987692909
 30
0.0
 11
18.2248863055797585
 21
-30.5299953987693087
 31
0.0
  0
ARC
  5
D4
100
AcDbEntity
  8
layer 2
 62
256
370
-1
 48
1.0
  6
ByLayer
100
AcDbCircle
 10
-18.2248863055797585
 20
-29.0299953987693087
 30
0.0
 40
1.5
100
AcDbArc
 50
270.0
 51
0.0
  0
ARC
  5
D5
100
AcDbEntity
  8
layer 2
 62
256
370
-1
 48
1.0
  6
ByLayer
100
AcDbCircle
 10
18.2248863055797585
 20
-29.0299953987693016
 30
0.0
 40
1.5
100
AcDbArc
 50
180.0
 51
270.0
  0
LINE
  5
D6
100
AcDbEntity
  8
layer 2
 62
256
370
-1
 48
1.0
  6
ByLayer
100
AcDbLine
 10
-16.7248863055797585
 20
-29.0299953987693087
 30
0.0
 11
-16.7248863055797585
 21
-4.0299953987693051
 31
0.0
  0
LINE
  5
D7
100
AcDbEntity
  8
layer 2
 62
256
370
-1
 48
1.0
  6
ByLayer
100
AcDbLine
 10
16.7248863055797585
 20
-29.0299953987693016
 30
0.0
 11
16.7248863055797585
 21
-4.0299953987693122
 31
0.0
  0
ARC
  5
D8
100
AcDbEntity
  8
layer 2
 62
256
370
-1
 48
1.0
  6
ByLayer
100
AcDbCircle
 10
-18.2248863055797585
 20
-4.0299953987693051
 30
0.0
 40
1.5
100
AcDbArc
 50
0.0
 51
90.0
  0
ARC
  5
D9
100
AcDbEntity
  8
layer 2
 62
256
370
-1
 48
1.0
  6
ByLayer
100
AcDbCircle
 10
18.2248863055797585
 20
-4.0299953987693122
 30
0.0
 40
1.5
100
AcDbArc
 50
90.0
 51
180.0
  0
LINE
  5
DA
100
AcDbEntity
  8
layer 2
 62
256
370
-1
 48
1.0
  6
ByLayer
100
AcDbLine
 10
-18.2248863055797585
 20
-2.5299953987693051
 30
0.0
 11
-46.7248863055797585
 21
-2.5299953987693051
 31
0.0
  0
LINE
  5
DB
100
AcDbEntity
  8
layer 2
 62
256
370
-1
 48
1.0
  6
ByLayer
100
AcDbLine
 10
18.2248863055797585
 20
-2.5299953987693091
 30
0.0
 11
46.7248863055797585
 21
-2.529995398769318
 31
0.0
  0
ARC
  5
DC
100
AcDbEntity
  8
layer 2
 62
256
370
-1
 48
1.0
  6
ByLayer
100
AcDbCircle
 10
-46.7248863055797585
 20
-4.0299953987693051
 30
0.0
 40
1.5
100
AcDbArc
 50
90.0
 51
180.0
  0
ARC
  5
DD
100
AcDbEntity
  8
layer 2
 62
256
370
-1
 48
1.0
  6
ByLayer
100
AcDbCircle
 10
46.7248863055797727
 20
-4.0299953987693247
 30
0.0
 40
1.5
100
AcDbArc
 50
0.0
 51
90.0
  0
LINE
  5
DE
100
AcDbEntity
  8
layer 2
 62
256
370
-1
 48
1.0
  6
ByLayer
100
AcDbLine
 10
-48.2248863055797585
 20
-4.0299953987693051
 30
0.0
 11
-48.2248863055797585
 21
-29.0299953987693087
 31
0.0
  0
LINE
  5
DF
100
AcDbEntity
  8
layer 2
 62
256
370
-1
 48
1.0
  6
ByLayer
100
AcDbLine
 10
48.2248863055797585
 20
-4.0299953987692962
 30
0.0
 11
48.2248863055797585
 21
-29.0299953987692909
 31
0.0
  0
ARC
  5
E0
100
AcDbEntity
  8
layer 2
 62
256
370
-1
 48
1.0
  6
ByLayer
100
AcDbCircle
 10
-46.7248863055797585
 20
-29.0299953987693087
 30
0.0
 40
1.5
100
AcDbArc
 50
180.0
 51
270.0
  0
ARC
  5
E1
100
AcDbEntity
  8
layer 2
 62
256
370
-1
 48
1.0
  6
ByLayer
100
AcDbCircle
 10
46.7248863055797585
 20
-29.0299953987693016
 30
0.0
 40
1.5
100
AcDbArc
 50
270.0
 51
0.0
  0
LINE
  5
E2
100
AcDbEntity
  8
layer 4
 62
256
370
-1
 48
1.0
  6
ByLayer
100
AcDbLine
 10
0.0
 20
-90.0
 30
0.0
 11
0.0000000000000061
 21
10.0
 31
0.0
  0
CIRCLE
  5
E3
100
AcDbEntity
  8
BLACK
 62
256
370
-1
 48
1.0
  6
ByLayer
100
AcDbCircle
 10
172.5000989008229055
 20
37.0296554108712996
 30
0.0
 40
1.5
  0
CIRCLE
  5
E4
100
AcDbEntity
  8
BLACK
 62
256
370
-1
 48
1.0
  6
ByLayer
100
AcDbCircle
 10
182.5000989008229055
 20
37.0296554108712996
 30
0.0
 40
1.5
  0
LINE
  5
E5
100
AcDbEntity
  8
layer 2
 62
256
370
-1
 48
1.0
  6
Continuous
100
AcDbLine
 10
227.5000989008229055
 20
-49.9703445891287004
 30
0.0
 11
127.5000989008229055
 21
-49.9703445891287004
 31
0.0
  0
LINE
  5
E6
100
AcDbEntity
  8
layer 2
 62
256
370
-1
 48
1.0
  6
Continuous
100
AcDbLine
 10
227.5000989008229055
 20
-99.9703445891287004
 30
0.0
 11
127.5000989008229055
 21
-99.9703445891287004
 31
0.0
  0
CIRCLE
  5
E7
100
AcDbEntity
  8
BLACK
 62
256
370
-1
 48
1.0
  6
ByLayer
100
AcDbCircle
 10
163.9600989008229135
 20
143.0196554108713087
 30
0.0
 40
1.5
  0
CIRCLE
  5
E8
100
AcDbEntity
  8
BLACK
 62
256
370
-1
 48
1.0
  6
ByLayer
100
AcDbCircle
 10
163.9600989008229135
 20
133.0196554108713087
 30
0.0
 40
1.5
  0
CIRCLE
  5
E9
100
AcDbEntity
  8
BLACK
 62
256
370
-1
 48
1.0
  6
ByLayer
100
AcDbCircle
 10
172.5100989008228964
 20
55.0296554108712996
 30
0.0
 40
1.5
  0
CIRCLE
  5
EA
100
AcDbEntity
  8
BLACK
 62
256
370
-1
 48
1.0
  6
ByLayer
100
AcDbCircle
 10
182.4900989008229146
 20
55.0296554108713067
 30
0.0
 40
1.5
  0
CIRCLE
  5
EB
100
AcDbEntity
  8
BLACK
 62
256
370
-1
 48
1.0
  6
ByLayer
100
AcDbCircle
 10
159.4600989008229135
 20
143.0196554108713087
 30
0.0
 40
1.5
  0
CIRCLE
  5
EC
100
AcDbEntity
  8
BLACK
 62
256
370
-1
 48
1.0
  6
ByLayer
100
AcDbCircle
 10
159.4600989008229135
 20
133.0196554108713087
 30
0.0
 40
1.5
  0
CIRCLE
  5
ED
100
AcDbEntity
  8
BLACK
 62
256
370
-1
 48
1.0
  6
ByLayer
100
AcDbCircle
 10
172.5100989008228964
 20
50.5296554108712996
 30
0.0
 40
1.5
  0
CIRCLE
  5
EE
100
AcDbEntity
  8
BLACK
 62
256
370
-1
 48
1.0
  6
ByLayer
100
AcDbCircle
 10
182.4900989008229146
 20
50.5296554108713067
 30
0.0
 40
1.5
  0
CIRCLE
  5
EF
100
AcDbEntity
  8
BLACK
 62
256
370
-1
 48
1.0
  6
ByLayer
100
AcDbCircle
 10
172.5200989008229158
 20
100.0296554108712996
 30
0.0
 40
1.5
  0
CIRCLE
  5
F0
100
AcDbEntity
  8
BLACK
 62
256
370
-1
 48
1.0
  6
ByLayer
100
AcDbCircle
 10
182.4800989008228953
 20
100.0296554108712996
 30
0.0
 40
1.5
  0
CIRCLE
  5
F1
100
AcDbEntity
  8
BLACK
 62
256
370
-1
 48
1.0
  6
ByLayer
100
AcDbCircle
 10
181.9700989008229044
 20
143.0196554108713087
 30
0.0
 40
1.5
  0
CIRCLE
  5
F2
100
AcDbEntity
  8
BLACK
 62
256
370
-1
 48
1.0
  6
ByLayer
100
AcDbCircle
 10
181.9700989008229044
 20
133.0196554108713087
 30
0.0
 40
1.5
  0
CIRCLE
  5
F3
100
AcDbEntity
  8
BLACK
 62
256
370
-1
 48
1.0
  6
ByLayer
100
AcDbCircle
 10
172.5100989008228964
 20
73.0396554108712905
 30
0.0
 40
1.5
  0
CIRCLE
  5
F4
100
AcDbEntity
  8
BLACK
 62
256
370
-1
 48
1.0
  6
ByLayer
100
AcDbCircle
 10
182.4900989008229146
 20
73.0396554108712905
 30
0.0
 40
1.5
  0
CIRCLE
  5
F5
100
AcDbEntity
  8
BLACK
 62
256
370
-1
 48
1.0
  6
ByLayer
100
AcDbCircle
 10
154.9600989008229135
 20
143.0196554108713087
 30
0.0
 40
1.5
  0
CIRCLE
  5
F6
100
AcDbEntity
  8
BLACK
 62
256
370
-1
 48
1.0
  6
ByLayer
100
AcDbCircle
 10
154.9600989008229135
 20
133.0196554108713087
 30
0.0
 40
1.5
  0
CIRCLE
  5
F7
100
AcDbEntity
  8
BLACK
 62
256
370
-1
 48
1.0
  6
ByLayer
100
AcDbCircle
 10
172.5100989008228964
 20
46.0296554108712996
 30
0.0
 40
1.5
  0
CIRCLE
  5
F8
100
AcDbEntity
  8
BLACK
 62
256
370
-1
 48
1.0
  6
ByLayer
100
AcDbCircle
 10
182.4900989008229146
 20
46.0296554108712996
 30
0.0
 40
1.5
  0
CIRCLE
  5
F9
100
AcDbEntity
  8
BLACK
 62
256
370
-1
 48
1.0
  6
ByLayer
100
AcDbCircle
 10
172.5000989008229055
 20
41.5396554108712905
 30
0.0
 40
1.5
  0
CIRCLE
  5
FA
100
AcDbEntity
  8
BLACK
 62
256
370
-1
 48
1.0
  6
ByLayer
100
AcDbCircle
 10
182.5000989008229055
 20
41.5396554108712976
 30
0.0
 40
1.5
  0
CIRCLE
  5
FB
100
AcDbEntity
  8
layer 2
 62
256
370
-1
 48
1.0
  6
ByLayer
100
AcDbCircle
 10
202.4520989008229037
 20
-62.4623425891287027
 30
0.0
 40
1.6000000000000001
  0
CIRCLE
  5
FC
100
AcDbEntity
  8
layer 2
 62
256
370
-1
 48
1.0
  6
ByLayer
100
AcDbCircle
 10
202.4520989008229037
 20
-112.4623425891286956
 30
0.0
 40
1.6000000000000001
  0
CIRCLE
  5
FD
100
AcDbEntity
  8
BLACK
 62
256
370
-1
 48
1.0
  6
ByLayer
100
AcDbCircle
 10
172.9800989008228953
 20
143.0496554108713099
 30
0.0
 40
1.5
  0
CIRCLE
  5
FE
100
AcDbEntity
  8
BLACK
 62
256
370
-1
 48
1.0
  6
ByLayer
100
AcDbCircle
 10
172.9800989008228953
 20
133.0496554108713099
 30
0.0
 40
1.5
  0
CIRCLE
  5
FF
100
AcDbEntity
  8
BLACK
 62
256
370
-1
 48
1.0
  6
ByLayer
100
AcDbCircle
 10
172.4800989008228953
 20
64.0496554108712814
 30
0.0
 40
1.5
  0
CIRCLE
  5
100
100
AcDbEntity
  8
BLACK
 62
256
370
-1
 48
1.0
  6
ByLayer
100
AcDbCircle
 10
182.5200989008229158
 20
64.0496554108712814
 30
0.0
 40
1.5
  0
CIRCLE
  5
101
100
AcDbEntity
  8
BLACK
 62
256
370
-1
 48
1.0
  6
ByLayer
100
AcDbCircle
 10
172.5200989008229158
 20
95.5196554108712519
 30
0.0
 40
1.5
  0
CIRCLE
  5
102
100
AcDbEntity
  8
BLACK
 62
256
370
-1
 48
1.0
  6
ByLayer
100
AcDbCircle
 10
182.4800989008228953
 20
95.5196554108712519
 30
0.0
 40
1.5
  0
LINE
  5
103
100
AcDbEntity
  8
layer 2
 62
256
370
-1
 48
1.0
  6
Continuous
100
AcDbLine
 10
127.5000989008229055
 20
-49.9703445891287004
 30
0.0
 11
127.5000989008229055
 21
-99.9703445891287004
 31
0.0
  0
LINE
  5
104
100
AcDbEntity
  8
layer 2
 62
256
370
-1
 48
1.0
  6
Continuous
100
AcDbLine
 10
127.5000989008229055
 20
-99.9703445891287004
 30
0.0
 11
127.5000989008229055
 21
-149.9703445891287004
 31
0.0
  0
CIRCLE
  5
105
100
AcDbEntity
  8
layer 2
 62
256
370
-1
 48
1.0
  6
ByLayer
100
AcDbCircle
 10
202.4620989008228946
 20
-87.4423425891286854
 30
0.0
 40
1.6000000000000001
  0
CIRCLE
  5
106
100
AcDbEntity
  8
layer 2
 62
256
370
-1
 48
1.0
  6
ByLayer
100
AcDbCircle
 10
202.4620989008228946
 20
-137.4423425891287138
 30
0.0
 40
1.6000000000000001
  0
CIRCLE
  5
107
100
AcDbEntity
  8
layer 2
 62
256
370
-1
 48
1.0
  6
ByLayer
100
AcDbCircle
 10
214.9520989008229037
 20
-74.9523425891287047
 30
0.0
 40
1.6000000000000001
  0
CIRCLE
  5
108
100
AcDbEntity
  8
layer 2
 62
256
370
-1
 48
1.0
  6
ByLayer
100
AcDbCircle
 10
214.9520989008229037
 20
-124.9523425891287047
 30
0.0
 40
1.6000000000000001
  0
LINE
  5
109
100
AcDbEntity
  8
layer 2
 62
256
370
-1
 48
1.0
  6
Continuous
100
AcDbLine
 10
127.5000989008229055
 20
-49.9703445891287004
 30
0.0
 11
127.5000989008229055
 21
-99.9703445891287004
 31
0.0
  0
LINE
  5
10A
100
AcDbEntity
  8
layer 2
 62
256
370
-1
 48
1.0
  6
Continuous
100
AcDbLine
 10
127.5000989008229055
 20
-99.9703445891287004
 30
0.0
 11
127.5000989008229055
 21
-149.9703445891287004
 31
0.0
  0
LINE
  5
10B
100
AcDbEntity
  8
layer 2
 62
256
370
-1
 48
1.0
  6
Continuous
100
AcDbLine
 10
127.5000989008229055
 20
-99.9703445891287004
 30
0.0
 11
227.5000989008229055
 21
-99.9703445891287004
 31
0.0
  0
LINE
  5
10C
100
AcDbEntity
  8
layer 2
 62
256
370
-1
 48
1.0
  6
Continuous
100
AcDbLine
 10
127.5000989008229055
 20
-149.9703445891287004
 30
0.0
 11
227.5000989008229055
 21
-149.9703445891287004
 31
0.0
  0
CIRCLE
  5
10D
100
AcDbEntity
  8
BLACK
 62
256
370
-1
 48
1.0
  6
ByLayer
100
AcDbCircle
 10
168.5000989008229055
 20
143.0196554108713087
 30
0.0
 40
1.5
  0
CIRCLE
  5
10E
100
AcDbEntity
  8
BLACK
 62
256
370
-1
 48
1.0
  6
ByLayer
100
AcDbCircle
 10
168.5000989008229055
 20
133.0196554108713087
 30
0.0
 40
1.5
  0
CIRCLE
  5
10F
100
AcDbEntity
  8
BLACK
 62
256
370
-1
 48
1.0
  6
ByLayer
100
AcDbCircle
 10
172.5100989008228964
 20
59.5696554108712562
 30
0.0
 40
1.5
  0
CIRCLE
  5
110
100
AcDbEntity
  8
BLACK
 62
256
370
-1
 48
1.0
  6
ByLayer
100
AcDbCircle
 10
182.4900989008229146
 20
59.5696554108712704
 30
0.0
 40
1.5
  0
CIRCLE
  5
111
100
AcDbEntity
  8
layer 2
 62
256
370
-1
 48
1.0
  6
ByLayer
100
AcDbCircle
 10
152.4960989008229149
 20
-62.4763435891287031
 30
0.0
 40
1.6000000000000001
  0
CIRCLE
  5
112
100
AcDbEntity
  8
layer 2
 62
256
370
-1
 48
1.0
  6
ByLayer
100
AcDbCircle
 10
152.4960989008229149
 20
-112.4763435891287031
 30
0.0
 40
1.6000000000000001
  0
CIRCLE
  5
113
100
AcDbEntity
  8
BLACK
 62
256
370
-1
 48
1.0
  6
ByLayer
100
AcDbCircle
 10
190.9600989008229135
 20
143.0296554108712996
 30
0.0
 40
1.5
  0
CIRCLE
  5
114
100
AcDbEntity
  8
BLACK
 62
256
370
-1
 48
1.0
  6
ByLayer
100
AcDbCircle
 10
190.9600989008229135
 20
133.0296554108712996
 30
0.0
 40
1.5
  0
CIRCLE
  5
115
100
AcDbEntity
  8
BLACK
 62
256
370
-1
 48
1.0
  6
ByLayer
100
AcDbCircle
 10
172.5000989008229055
 20
82.0296554108712996
 30
0.0
 40
1.5
  0
CIRCLE
  5
116
100
AcDbEntity
  8
BLACK
 62
256
370
-1
 48
1.0
  6
ByLayer
100
AcDbCircle
 10
182.5000989008229055
 20
82.0296554108712996
 30
0.0
 40
1.5
  0
CIRCLE
  5
117
100
AcDbEntity
  8
BLACK
 62
256
370
-1
 48
1.0
  6
ByLayer
100
AcDbCircle
 10
177.5000989008229055
 20
143.0196554108713087
 30
0.0
 40
1.5
  0
CIRCLE
  5
118
100
AcDbEntity
  8
BLACK
 62
256
370
-1
 48
1.0
  6
ByLayer
100
AcDbCircle
 10
177.5000989008229055
 20
133.0196554108713087
 30
0.0
 40
1.5
  0
CIRCLE
  5
119
100
AcDbEntity
  8
BLACK
 62
256
370
-1
 48
1.0
  6
ByLayer
100
AcDbCircle
 10
172.5100989008228964
 20
68.5696554108712633
 30
0.0
 40
1.5
  0
CIRCLE
  5
11A
100
AcDbEntity
  8
BLACK
 62
256
370
-1
 48
1.0
  6
ByLayer
100
AcDbCircle
 10
182.4900989008229146
 20
68.5696554108712633
 30
0.0
 40
1.5
  0
CIRCLE
  5
11B
100
AcDbEntity
  8
layer 2
 62
256
370
-1
 48
1.0
  6
ByLayer
100
AcDbCircle
 10
152.5060989008229058
 20
-87.4563435891286929
 30
0.0
 40
1.6000000000000001
  0
CIRCLE
  5
11C
100
AcDbEntity
  8
layer 2
 62
256
370
-1
 48
1.0
  6
ByLayer
100
AcDbCircle
 10
152.5060989008229058
 20
-137.4563435891286929
 30
0.0
 40
1.6000000000000001
  0
CIRCLE
  5
11D
100
AcDbEntity
  8
layer 2
 62
256
370
-1
 48
1.0
  6
ByLayer
100
AcDbCircle
 10
140.0000979008229081
 20
-74.9783435891287127
 30
0.0
 40
1.6000000000000001
  0
CIRCLE
  5
11E
100
AcDbEntity
  8
layer 2
 62
256
370
-1
 48
1.0
  6
ByLayer
100
AcDbCircle
 10
140.0000979008229081
 20
-124.9783435891286985
 30
0.0
 40
1.6000000000000001
  0
CIRCLE
  5
11F
100
AcDbEntity
  8
BLACK
 62
256
370
-1
 48
1.0
  6
ByLayer
100
AcDbCircle
 10
199.8900989008228919
 20
143.0296554108712996
 30
0.0
 40
1.5
  0
CIRCLE
  5
120
100
AcDbEntity
  8
BLACK
 62
256
370
-1
 48
1.0
  6
ByLayer
100
AcDbCircle
 10
199.8900989008228919
 20
133.0296554108712996
 30
0.0
 40
1.5
  0
CIRCLE
  5
121
100
AcDbEntity
  8
BLACK
 62
256
370
-1
 48
1.0
  6
ByLayer
100
AcDbCircle
 10
172.5000989008229055
 20
90.9596554108712496
 30
0.0
 40
1.5
  0
CIRCLE
  5
122
100
AcDbEntity
  8
BLACK
 62
256
370
-1
 48
1.0
  6
ByLayer
100
AcDbCircle
 10
182.5000989008229055
 20
90.9596554108712496
 30
0.0
 40
1.5
  0
LINE
  5
123
100
AcDbEntity
  8
layer 2
 62
256
370
-1
 48
1.0
  6
Continuous
100
AcDbLine
 10
227.5000989008229055
 20
-99.9703445891287004
 30
0.0
 11
227.5000989008229055
 21
-49.9703445891287004
 31
0.0
  0
LINE
  5
124
100
AcDbEntity
  8
layer 2
 62
256
370
-1
 48
1.0
  6
Continuous
100
AcDbLine
 10
227.5000989008229055
 20
-149.9703445891287004
 30
0.0
 11
227.5000989008229055
 21
-99.9703445891287004
 31
0.0
  0
LINE
  5
125
100
AcDbEntity
  8
layer 2
 62
256
370
-1
 48
1.0
  6
Continuous
100
AcDbLine
 10
227.5000989008229055
 20
-99.9703445891287004
 30
0.0
 11
227.5000989008229055
 21
-49.9703445891287004
 31
0.0
  0
LINE
  5
126
100
AcDbEntity
  8
layer 2
 62
256
370
-1
 48
1.0
  6
Continuous
100
AcDbLine
 10
227.5000989008229055
 20
-149.9703445891287004
 30
0.0
 11
227.5000989008229055
 21
-99.9703445891287004
 31
0.0
  0
CIRCLE
  5
127
100
AcDbEntity
  8
BLACK
 62
256
370
-1
 48
1.0
  6
ByLayer
100
AcDbCircle
 10
195.4700989008229044
 20
143.0196554108713087
 30
0.0
 40
1.5
  0
CIRCLE
  5
128
100
AcDbEntity
  8
BLACK
 62
256
370
-1
 48
1.0
  6
ByLayer
100
AcDbCircle
 10
195.4700989008229044
 20
133.0196554108713087
 30
0.0
 40
1.5
  0
CIRCLE
  5
129
100
AcDbEntity
  8
BLACK
 62
256
370
-1
 48
1.0
  6
ByLayer
100
AcDbCircle
 10
172.5100989008228964
 20
86.5396554108712905
 30
0.0
 40
1.5
  0
CIRCLE
  5
12A
100
AcDbEntity
  8
BLACK
 62
256
370
-1
 48
1.0
  6
ByLayer
100
AcDbCircle
 10
182.4900989008229146
 20
86.5396554108712905
 30
0.0
 40
1.5
  0
CIRCLE
  5
12B
100
AcDbEntity
  8
layer 2
 62
256
370
-1
 48
1.0
  6
ByLayer
100
AcDbCircle
 10
189.9560979008228969
 20
-74.9643425891287052
 30
0.0
 40
1.6000000000000001
  0
CIRCLE
  5
12C
100
AcDbEntity
  8
layer 2
 62
256
370
-1
 48
1.0
  6
ByLayer
100
AcDbCircle
 10
189.9560979008228969
 20
-124.9643425891287052
 30
0.0
 40
1.6000000000000001
  0
LINE
  5
12D
100
AcDbEntity
  8
layer 2
 62
256
370
-1
 48
1.0
  6
Continuous
100
AcDbLine
 10
227.5000989008229055
 20
-49.9703445891287004
 30
0.0
 11
127.5000989008229055
 21
-49.9703445891287004
 31
0.0
  0
LINE
  5
12E
100
AcDbEntity
  8
layer 2
 62
256
370
-1
 48
1.0
  6
Continuous
100
AcDbLine
 10
227.5000989008229055
 20
-99.9703445891287004
 30
0.0
 11
127.5000989008229055
 21
-99.9703445891287004
 31
0.0
  0
LINE
  5
12F
100
AcDbEntity
  8
layer 2
 62
256
370
-1
 48
1.0
  6
Continuous
100
AcDbLine
 10
127.5000989008229055
 20
-99.9703445891287004
 30
0.0
 11
227.5000989008229055
 21
-99.9703445891287004
 31
0.0
  0
LINE
  5
130
100
AcDbEntity
  8
layer 2
 62
256
370
-1
 48
1.0
  6
Continuous
100
AcDbLine
 10
127.5000989008229055
 20
-149.9703445891287004
 30
0.0
 11
227.5000989008229055
 21
-149.9703445891287004
 31
0.0
  0
CIRCLE
  5
131
100
AcDbEntity
  8
layer 2
 62
256
370
-1
 48
1.0
  6
ByLayer
100
AcDbCircle
 10
164.9960989008229149
 20
-74.9663435891287122
 30
0.0
 40
1.6000000000000001
  0
CIRCLE
  5
132
100
AcDbEntity
  8
layer 2
 62
256
370
-1
 48
1.0
  6
ByLayer
100
AcDbCircle
 10
164.9960989008229149
 20
-124.966343589128698
 30
0.0
 40
1.6000000000000001
  0
CIRCLE
  5
133
100
AcDbEntity
  8
BLACK
 62
256
370
-1
 48
1.0
  6
ByLayer
100
AcDbCircle
 10
186.4600989008229135
 20
143.0096554108712894
 30
0.0
 40
1.5
  0
CIRCLE
  5
134
100
AcDbEntity
  8
BLACK
 62
256
370
-1
 48
1.0
  6
ByLayer
100
AcDbCircle
 10
186.4600989008229135
 20
133.0096554108712894
 30
0.0
 40
1.5
  0
CIRCLE
  5
135
100
AcDbEntity
  8
BLACK
 62
256
370
-1
 48
1.0
  6
ByLayer
100
AcDbCircle
 10
172.5200989008229158
 20
77.5296554108712996
 30
0.0
 40
1.5
  0
CIRCLE
  5
136
100
AcDbEntity
  8
BLACK
 62
256
370
-1
 48
1.0
  6
ByLayer
100
AcDbCircle
 10
182.4800989008228953
 20
77.5296554108712996
 30
0.0
 40
1.5
  0
LINE
  5
137
100
AcDbEntity
  8
layer 2
 62
256
370
-1
 48
1.0
  6
Continuous
100
AcDbLine
 10
170.0000989008229055
 20
-77.2509395891287056
 30
0.0
 11
170.0000989008229055
 21
-72.2509395891287056
 31
0.0
  0
LINE
  5
138
100
AcDbEntity
  8
layer 2
 62
256
370
-1
 48
1.0
  6
Continuous
100
AcDbLine
 10
170.0000989008229055
 20
-127.2509395891287056
 30
0.0
 11
170.0000989008229055
 21
-122.2509395891287056
 31
0.0
  0
LINE
  5
139
100
AcDbEntity
  8
layer 2
 62
256
370
-1
 48
1.0
  6
Continuous
100
AcDbLine
 10
170.0000989008229055
 20
-72.2509395891287056
 30
0.0
 11
171.7143849008228926
 21
-72.2509395891287056
 31
0.0
  0
LINE
  5
13A
100
AcDbEntity
  8
layer 2
 62
256
370
-1
 48
1.0
  6
Continuous
100
AcDbLine
 10
170.0000989008229055
 20
-122.2509395891287056
 30
0.0
 11
171.7143849008228926
 21
-122.2509395891287056
 31
0.0
  0
LINE
  5
13B
100
AcDbEntity
  8
layer 2
 62
256
370
-1
 48
1.0
  6
Continuous
100
AcDbLine
 10
171.7143849008228926
 20
-72.2509395891287056
 30
0.0
 11
172.1429559008228978
 21
-72.4890345891286927
 31
0.0
  0
LINE
  5
13C
100
AcDbEntity
  8
layer 2
 62
256
370
-1
 48
1.0
  6
Continuous
100
AcDbLine
 10
171.7143849008228926
 20
-122.2509395891287056
 30
0.0
 11
172.1429559008228978
 21
-122.4890345891287069
 31
0.0
  0
LINE
  5
13D
100
AcDbEntity
  8
layer 2
 62
256
370
-1
 48
1.0
  6
Continuous
100
AcDbLine
 10
172.1429559008228978
 20
-72.4890345891286927
 30
0.0
 11
172.3572419008229133
 21
-72.7271295891287082
 31
0.0
  0
LINE
  5
13E
100
AcDbEntity
  8
layer 2
 62
256
370
-1
 48
1.0
  6
Continuous
100
AcDbLine
 10
172.1429559008228978
 20
-122.4890345891287069
 30
0.0
 11
172.3572419008229133
 21
-122.727129589128694
 31
0.0
  0
LINE
  5
13F
100
AcDbEntity
  8
layer 2
 62
256
370
-1
 48
1.0
  6
Continuous
100
AcDbLine
 10
172.3572419008229133
 20
-72.7271295891287082
 30
0.0
 11
172.5715279008229004
 21
-73.2033205891287082
 31
0.0
  0
LINE
  5
140
100
AcDbEntity
  8
layer 2
 62
256
370
-1
 48
1.0
  6
Continuous
100
AcDbLine
 10
172.3572419008229133
 20
-122.727129589128694
 30
0.0
 11
172.5715279008229004
 21
-123.203320589128694
 31
0.0
  0
LINE
  5
141
100
AcDbEntity
  8
layer 2
 62
256
370
-1
 48
1.0
  6
Continuous
100
AcDbLine
 10
172.5715279008229004
 20
-73.2033205891287082
 30
0.0
 11
172.5715279008229004
 21
-73.9176055891286978
 31
0.0
  0
LINE
  5
142
100
AcDbEntity
  8
layer 2
 62
256
370
-1
 48
1.0
  6
Continuous
100
AcDbLine
 10
172.5715279008229004
 20
-123.203320589128694
 30
0.0
 11
172.5715279008229004
 21
-123.9176055891286978
 31
0.0
  0
LINE
  5
143
100
AcDbEntity
  8
layer 2
 62
256
370
-1
 48
1.0
  6
Continuous
100
AcDbLine
 10
172.5715279008229004
 20
-73.9176055891286978
 30
0.0
 11
172.3572419008229133
 21
-74.3937965891286979
 31
0.0
  0
LINE
  5
144
100
AcDbEntity
  8
layer 2
 62
256
370
-1
 48
1.0
  6
Continuous
100
AcDbLine
 10
172.5715279008229004
 20
-123.9176055891286978
 30
0.0
 11
172.3572419008229133
 21
-124.3937965891286979
 31
0.0
  0
LINE
  5
145
100
AcDbEntity
  8
layer 2
 62
256
370
-1
 48
1.0
  6
Continuous
100
AcDbLine
 10
172.3572419008229133
 20
-74.3937965891286979
 30
0.0
 11
172.1429559008228978
 21
-74.6318915891287133
 31
0.0
  0
LINE
  5
146
100
AcDbEntity
  8
layer 2
 62
256
370
-1
 48
1.0
  6
Continuous
100
AcDbLine
 10
172.3572419008229133
 20
-124.3937965891286979
 30
0.0
 11
172.1429559008228978
 21
-124.6318915891286991
 31
0.0
  0
LINE
  5
147
100
AcDbEntity
  8
layer 2
 62
256
370
-1
 48
1.0
  6
Continuous
100
AcDbLine
 10
172.1429559008228978
 20
-74.6318915891287133
 30
0.0
 11
171.7143849008228926
 21
-74.8699865891287004
 31
0.0
  0
LINE
  5
148
100
AcDbEntity
  8
layer 2
 62
256
370
-1
 48
1.0
  6
Continuous
100
AcDbLine
 10
172.1429559008228978
 20
-124.6318915891286991
 30
0.0
 11
171.7143849008228926
 21
-124.8699865891287004
 31
0.0
  0
LINE
  5
149
100
AcDbEntity
  8
layer 2
 62
256
370
-1
 48
1.0
  6
Continuous
100
AcDbLine
 10
171.7143849008228926
 20
-74.8699865891287004
 30
0.0
 11
170.0000989008229055
 21
-74.8699865891287004
 31
0.0
  0
LINE
  5
14A
100
AcDbEntity
  8
layer 2
 62
256
370
-1
 48
1.0
  6
Continuous
100
AcDbLine
 10
171.7143849008228926
 20
-124.8699865891287004
 30
0.0
 11
170.0000989008229055
 21
-124.8699865891287004
 31
0.0
  0
LINE
  5
14B
100
AcDbEntity
  8
layer 2
 62
256
370
-1
 48
1.0
  6
Continuous
100
AcDbLine
 10
174.2858129008229184
 20
-75.822367589128703
 30
0.0
 11
176.4286709008229082
 21
-75.822367589128703
 31
0.0
  0
LINE
  5
14C
100
AcDbEntity
  8
layer 2
 62
256
370
-1
 48
1.0
  6
Continuous
100
AcDbLine
 10
174.2858129008229184
 20
-125.822367589128703
 30
0.0
 11
176.4286709008229082
 21
-125.822367589128703
 31
0.0
  0
LINE
  5
14D
100
AcDbEntity
  8
layer 2
 62
256
370
-1
 48
1.0
  6
Continuous
100
AcDbLine
 10
173.8572419008229133
 20
-77.2509395891287056
 30
0.0
 11
175.3572419008229133
 21
-72.2509395891287056
 31
0.0
  0
LINE
  5
14E
100
AcDbEntity
  8
layer 2
 62
256
370
-1
 48
1.0
  6
Continuous
100
AcDbLine
 10
173.8572419008229133
 20
-127.2509395891287056
 30
0.0
 11
175.3572419008229133
 21
-122.2509395891287056
 31
0.0
  0
LINE
  5
14F
100
AcDbEntity
  8
layer 2
 62
256
370
-1
 48
1.0
  6
Continuous
100
AcDbLine
 10
175.3572419008229133
 20
-72.2509395891287056
 30
0.0
 11
176.8572419008229133
 21
-77.2509395891287056
 31
0.0
  0
LINE
  5
150
100
AcDbEntity
  8
layer 2
 62
256
370
-1
 48
1.0
  6
Continuous
100
AcDbLine
 10
175.3572419008229133
 20
-122.2509395891287056
 30
0.0
 11
176.8572419008229133
 21
-127.2509395891287056
 31
0.0
  0
LINE
  5
151
100
AcDbEntity
  8
layer 2
 62
256
370
-1
 48
1.0
  6
Continuous
100
AcDbLine
 10
178.3572419008229133
 20
-77.2509395891287056
 30
0.0
 11
178.3572419008229133
 21
-72.2509395891287056
 31
0.0
  0
LINE
  5
152
100
AcDbEntity
  8
layer 2
 62
256
370
-1
 48
1.0
  6
Continuous
100
AcDbLine
 10
178.3572419008229133
 20
-127.2509395891287056
 30
0.0
 11
178.3572419008229133
 21
-122.2509395891287056
 31
0.0
  0
LINE
  5
153
100
AcDbEntity
  8
layer 2
 62
256
370
-1
 48
1.0
  6
Continuous
100
AcDbLine
 10
178.3572419008229133
 20
-72.2509395891287056
 30
0.0
 11
179.4286709008229082
 21
-72.2509395891287056
 31
0.0
  0
LINE
  5
154
100
AcDbEntity
  8
layer 2
 62
256
370
-1
 48
1.0
  6
Continuous
100
AcDbLine
 10
178.3572419008229133
 20
-122.2509395891287056
 30
0.0
 11
179.4286709008229082
 21
-122.2509395891287056
 31
0.0
  0
LINE
  5
155
100
AcDbEntity
  8
layer 2
 62
256
370
-1
 48
1.0
  6
Continuous
100
AcDbLine
 10
179.4286709008229082
 20
-72.2509395891287056
 30
0.0
 11
180.0715279008229004
 21
-72.4890345891286927
 31
0.0
  0
LINE
  5
156
100
AcDbEntity
  8
layer 2
 62
256
370
-1
 48
1.0
  6
Continuous
100
AcDbLine
 10
179.4286709008229082
 20
-122.2509395891287056
 30
0.0
 11
180.0715279008229004
 21
-122.4890345891287069
 31
0.0
  0
LINE
  5
157
100
AcDbEntity
  8
layer 2
 62
256
370
-1
 48
1.0
  6
Continuous
100
AcDbLine
 10
180.0715279008229004
 20
-72.4890345891286927
 30
0.0
 11
180.5000989008229055
 21
-72.9652245891286952
 31
0.0
  0
LINE
  5
158
100
AcDbEntity
  8
layer 2
 62
256
370
-1
 48
1.0
  6
Continuous
100
AcDbLine
 10
180.0715279008229004
 20
-122.4890345891287069
 30
0.0
 11
180.5000989008229055
 21
-122.9652245891286952
 31
0.0
  0
LINE
  5
159
100
AcDbEntity
  8
layer 2
 62
256
370
-1
 48
1.0
  6
Continuous
100
AcDbLine
 10
180.5000989008229055
 20
-72.9652245891286952
 30
0.0
 11
180.7143849008228926
 21
-73.4414155891286953
 31
0.0
  0
LINE
  5
15A
100
AcDbEntity
  8
layer 2
 62
256
370
-1
 48
1.0
  6
Continuous
100
AcDbLine
 10
180.5000989008229055
 20
-122.9652245891286952
 30
0.0
 11
180.7143849008228926
 21
-123.4414155891286953
 31
0.0
  0
LINE
  5
15B
100
AcDbEntity
  8
layer 2
 62
256
370
-1
 48
1.0
  6
Continuous
100
AcDbLine
 10
180.7143849008228926
 20
-73.4414155891286953
 30
0.0
 11
180.9286709008229082
 21
-74.3937965891286979
 31
0.0
  0
LINE
  5
15C
100
AcDbEntity
  8
layer 2
 62
256
370
-1
 48
1.0
  6
Continuous
100
AcDbLine
 10
180.7143849008228926
 20
-123.4414155891286953
 30
0.0
 11
180.9286709008229082
 21
-124.3937965891286979
 31
0.0
  0
LINE
  5
15D
100
AcDbEntity
  8
layer 2
 62
256
370
-1
 48
1.0
  6
Continuous
100
AcDbLine
 10
180.9286709008229082
 20
-74.3937965891286979
 30
0.0
 11
180.9286709008229082
 21
-75.1080825891287134
 31
0.0
  0
LINE
  5
15E
100
AcDbEntity
  8
layer 2
 62
256
370
-1
 48
1.0
  6
Continuous
100
AcDbLine
 10
180.9286709008229082
 20
-124.3937965891286979
 30
0.0
 11
180.9286709008229082
 21
-125.1080825891286992
 31
0.0
  0
LINE
  5
15F
100
AcDbEntity
  8
layer 2
 62
256
370
-1
 48
1.0
  6
Continuous
100
AcDbLine
 10
180.9286709008229082
 20
-75.1080825891287134
 30
0.0
 11
180.7143849008228926
 21
-76.060463589128716
 31
0.0
  0
LINE
  5
160
100
AcDbEntity
  8
layer 2
 62
256
370
-1
 48
1.0
  6
Continuous
100
AcDbLine
 10
180.9286709008229082
 20
-125.1080825891286992
 30
0.0
 11
180.7143849008228926
 21
-126.0604635891287018
 31
0.0
  0
LINE
  5
161
100
AcDbEntity
  8
layer 2
 62
256
370
-1
 48
1.0
  6
Continuous
100
AcDbLine
 10
180.7143849008228926
 20
-76.060463589128716
 30
0.0
 11
180.5000989008229055
 21
-76.5366535891287185
 31
0.0
  0
LINE
  5
162
100
AcDbEntity
  8
layer 2
 62
256
370
-1
 48
1.0
  6
Continuous
100
AcDbLine
 10
180.7143849008228926
 20
-126.0604635891287018
 30
0.0
 11
180.5000989008229055
 21
-126.5366535891287043
 31
0.0
  0
LINE
  5
163
100
AcDbEntity
  8
layer 2
 62
256
370
-1
 48
1.0
  6
Continuous
100
AcDbLine
 10
180.5000989008229055
 20
-76.5366535891287185
 30
0.0
 11
180.0715279008229004
 21
-77.0128445891287186
 31
0.0
  0
LINE
  5
164
100
AcDbEntity
  8
layer 2
 62
256
370
-1
 48
1.0
  6
Continuous
100
AcDbLine
 10
180.5000989008229055
 20
-126.5366535891287043
 30
0.0
 11
180.0715279008229004
 21
-127.0128445891287043
 31
0.0
  0
LINE
  5
165
100
AcDbEntity
  8
layer 2
 62
256
370
-1
 48
1.0
  6
Continuous
100
AcDbLine
 10
180.0715279008229004
 20
-77.0128445891287186
 30
0.0
 11
179.4286709008229082
 21
-77.2509395891287056
 31
0.0
  0
LINE
  5
166
100
AcDbEntity
  8
layer 2
 62
256
370
-1
 48
1.0
  6
Continuous
100
AcDbLine
 10
180.0715279008229004
 20
-127.0128445891287043
 30
0.0
 11
179.4286709008229082
 21
-127.2509395891287056
 31
0.0
  0
LINE
  5
167
100
AcDbEntity
  8
layer 2
 62
256
370
-1
 48
1.0
  6
Continuous
100
AcDbLine
 10
179.4286709008229082
 20
-77.2509395891287056
 30
0.0
 11
178.3572419008229133
 21
-77.2509395891287056
 31
0.0
  0
LINE
  5
168
100
AcDbEntity
  8
layer 2
 62
256
370
-1
 48
1.0
  6
Continuous
100
AcDbLine
 10
179.4286709008229082
 20
-127.2509395891287056
 30
0.0
 11
178.3572419008229133
 21
-127.2509395891287056
 31
0.0
  0
LINE
  5
169
100
AcDbEntity
  8
layer 2
 62
256
370
-1
 48
1.0
  6
Continuous
100
AcDbLine
 10
182.6429559008228978
 20
-77.0128445891287186
 30
0.0
 11
183.2858139008229159
 21
-77.2509395891287056
 31
0.0
  0
LINE
  5
16A
100
AcDbEntity
  8
layer 2
 62
256
370
-1
 48
1.0
  6
Continuous
100
AcDbLine
 10
182.6429559008228978
 20
-127.0128445891287043
 30
0.0
 11
183.2858139008229159
 21
-127.2509395891287056
 31
0.0
  0
LINE
  5
16B
100
AcDbEntity
  8
layer 2
 62
256
370
-1
 48
1.0
  6
Continuous
100
AcDbLine
 10
183.2858139008229159
 20
-77.2509395891287056
 30
0.0
 11
184.3572419008229133
 21
-77.2509395891287056
 31
0.0
  0
LINE
  5
16C
100
AcDbEntity
  8
layer 2
 62
256
370
-1
 48
1.0
  6
Continuous
100
AcDbLine
 10
183.2858139008229159
 20
-127.2509395891287056
 30
0.0
 11
184.3572419008229133
 21
-127.2509395891287056
 31
0.0
  0
LINE
  5
16D
100
AcDbEntity
  8
layer 2
 62
256
370
-1
 48
1.0
  6
Continuous
100
AcDbLine
 10
184.3572419008229133
 20
-77.2509395891287056
 30
0.0
 11
184.7858139008229159
 21
-77.0128445891287186
 31
0.0
  0
LINE
  5
16E
100
AcDbEntity
  8
layer 2
 62
256
370
-1
 48
1.0
  6
Continuous
100
AcDbLine
 10
184.3572419008229133
 20
-127.2509395891287056
 30
0.0
 11
184.7858139008229159
 21
-127.0128445891287043
 31
0.0
  0
LINE
  5
16F
100
AcDbEntity
  8
layer 2
 62
256
370
-1
 48
1.0
  6
Continuous
100
AcDbLine
 10
184.7858139008229159
 20
-77.0128445891287186
 30
0.0
 11
185.0000989008229055
 21
-76.7747485891287056
 31
0.0
  0
LINE
  5
170
100
AcDbEntity
  8
layer 2
 62
256
370
-1
 48
1.0
  6
Continuous
100
AcDbLine
 10
184.7858139008229159
 20
-127.0128445891287043
 30
0.0
 11
185.0000989008229055
 21
-126.7747485891287056
 31
0.0
  0
LINE
  5
171
100
AcDbEntity
  8
layer 2
 62
256
370
-1
 48
1.0
  6
Continuous
100
AcDbLine
 10
185.0000989008229055
 20
-76.7747485891287056
 30
0.0
 11
185.2143849008228926
 21
-76.298558589128703
 31
0.0
  0
LINE
  5
172
100
AcDbEntity
  8
layer 2
 62
256
370
-1
 48
1.0
  6
Continuous
100
AcDbLine
 10
185.0000989008229055
 20
-126.7747485891287056
 30
0.0
 11
185.2143849008228926
 21
-126.298558589128703
 31
0.0
  0
LINE
  5
173
100
AcDbEntity
  8
layer 2
 62
256
370
-1
 48
1.0
  6
Continuous
100
AcDbLine
 10
185.2143849008228926
 20
-76.298558589128703
 30
0.0
 11
185.2143849008228926
 21
-75.822367589128703
 31
0.0
  0
LINE
  5
174
100
AcDbEntity
  8
layer 2
 62
256
370
-1
 48
1.0
  6
Continuous
100
AcDbLine
 10
185.2143849008228926
 20
-126.298558589128703
 30
0.0
 11
185.2143849008228926
 21
-125.822367589128703
 31
0.0
  0
LINE
  5
175
100
AcDbEntity
  8
layer 2
 62
256
370
-1
 48
1.0
  6
Continuous
100
AcDbLine
 10
185.2143849008228926
 20
-75.822367589128703
 30
0.0
 11
185.0000989008229055
 21
-75.3461775891287004
 31
0.0
  0
LINE
  5
176
100
AcDbEntity
  8
layer 2
 62
256
370
-1
 48
1.0
  6
Continuous
100
AcDbLine
 10
185.2143849008228926
 20
-125.822367589128703
 30
0.0
 11
185.0000989008229055
 21
-125.3461775891287004
 31
0.0
  0
LINE
  5
177
100
AcDbEntity
  8
layer 2
 62
256
370
-1
 48
1.0
  6
Continuous
100
AcDbLine
 10
185.0000989008229055
 20
-75.3461775891287004
 30
0.0
 11
184.7858139008229159
 21
-75.1080825891287134
 31
0.0
  0
LINE
  5
178
100
AcDbEntity
  8
layer 2
 62
256
370
-1
 48
1.0
  6
Continuous
100
AcDbLine
 10
185.0000989008229055
 20
-125.3461775891287004
 30
0.0
 11
184.7858139008229159
 21
-125.1080825891286992
 31
0.0
  0
LINE
  5
179
100
AcDbEntity
  8
layer 2
 62
256
370
-1
 48
1.0
  6
Continuous
100
AcDbLine
 10
184.7858139008229159
 20
-75.1080825891287134
 30
0.0
 11
184.3572419008229133
 21
-74.8699865891287004
 31
0.0
  0
LINE
  5
17A
100
AcDbEntity
  8
layer 2
 62
256
370
-1
 48
1.0
  6
Continuous
100
AcDbLine
 10
184.7858139008229159
 20
-125.1080825891286992
 30
0.0
 11
184.3572419008229133
 21
-124.8699865891287004
 31
0.0
  0
LINE
  5
17B
100
AcDbEntity
  8
layer 2
 62
256
370
-1
 48
1.0
  6
Continuous
100
AcDbLine
 10
184.3572419008229133
 20
-74.8699865891287004
 30
0.0
 11
183.5000989008229055
 21
-74.6318915891287133
 31
0.0
  0
LINE
  5
17C
100
AcDbEntity
  8
layer 2
 62
256
370
-1
 48
1.0
  6
Continuous
100
AcDbLine
 10
184.3572419008229133
 20
-124.8699865891287004
 30
0.0
 11
183.5000989008229055
 21
-124.6318915891286991
 31
0.0
  0
LINE
  5
17D
100
AcDbEntity
  8
layer 2
 62
256
370
-1
 48
1.0
  6
Continuous
100
AcDbLine
 10
183.5000989008229055
 20
-74.6318915891287133
 30
0.0
 11
183.0715279008229004
 21
-74.3937965891286979
 31
0.0
  0
LINE
  5
17E
100
AcDbEntity
  8
layer 2
 62
256
370
-1
 48
1.0
  6
Continuous
100
AcDbLine
 10
183.5000989008229055
 20
-124.6318915891286991
 30
0.0
 11
183.0715279008229004
 21
-124.3937965891286979
 31
0.0
  0
LINE
  5
17F
100
AcDbEntity
  8
layer 2
 62
256
370
-1
 48
1.0
  6
Continuous
100
AcDbLine
 10
183.0715279008229004
 20
-74.3937965891286979
 30
0.0
 11
182.8572419008229133
 21
-74.1557015891287108
 31
0.0
  0
LINE
  5
180
100
AcDbEntity
  8
layer 2
 62
256
370
-1
 48
1.0
  6
Continuous
100
AcDbLine
 10
183.0715279008229004
 20
-124.3937965891286979
 30
0.0
 11
182.8572419008229133
 21
-124.1557015891286966
 31
0.0
  0
LINE
  5
181
100
AcDbEntity
  8
layer 2
 62
256
370
-1
 48
1.0
  6
Continuous
100
AcDbLine
 10
182.8572419008229133
 20
-74.1557015891287108
 30
0.0
 11
182.6429559008228978
 21
-73.6795105891287108
 31
0.0
  0
LINE
  5
182
100
AcDbEntity
  8
layer 2
 62
256
370
-1
 48
1.0
  6
Continuous
100
AcDbLine
 10
182.8572419008229133
 20
-124.1557015891286966
 30
0.0
 11
182.6429559008228978
 21
-123.6795105891286966
 31
0.0
  0
LINE
  5
183
100
AcDbEntity
  8
layer 2
 62
256
370
-1
 48
1.0
  6
Continuous
100
AcDbLine
 10
182.6429559008228978
 20
-73.6795105891287108
 30
0.0
 11
182.6429559008228978
 21
-73.2033205891287082
 31
0.0
  0
LINE
  5
184
100
AcDbEntity
  8
layer 2
 62
256
370
-1
 48
1.0
  6
Continuous
100
AcDbLine
 10
182.6429559008228978
 20
-123.6795105891286966
 30
0.0
 11
182.6429559008228978
 21
-123.203320589128694
 31
0.0
  0
LINE
  5
185
100
AcDbEntity
  8
layer 2
 62
256
370
-1
 48
1.0
  6
Continuous
100
AcDbLine
 10
182.6429559008228978
 20
-73.2033205891287082
 30
0.0
 11
182.8572419008229133
 21
-72.7271295891287082
 31
0.0
  0
LINE
  5
186
100
AcDbEntity
  8
layer 2
 62
256
370
-1
 48
1.0
  6
Continuous
100
AcDbLine
 10
182.6429559008228978
 20
-123.203320589128694
 30
0.0
 11
182.8572419008229133
 21
-122.727129589128694
 31
0.0
  0
LINE
  5
187
100
AcDbEntity
  8
layer 2
 62
256
370
-1
 48
1.0
  6
Continuous
100
AcDbLine
 10
182.8572419008229133
 20
-72.7271295891287082
 30
0.0
 11
183.0715279008229004
 21
-72.4890345891286927
 31
0.0
  0
LINE
  5
188
100
AcDbEntity
  8
layer 2
 62
256
370
-1
 48
1.0
  6
Continuous
100
AcDbLine
 10
182.8572419008229133
 20
-122.727129589128694
 30
0.0
 11
183.0715279008229004
 21
-122.4890345891287069
 31
0.0
  0
LINE
  5
189
100
AcDbEntity
  8
layer 2
 62
256
370
-1
 48
1.0
  6
Continuous
100
AcDbLine
 10
183.0715279008229004
 20
-72.4890345891286927
 30
0.0
 11
183.5000989008229055
 21
-72.2509395891287056
 31
0.0
  0
LINE
  5
18A
100
AcDbEntity
  8
layer 2
 62
256
370
-1
 48
1.0
  6
Continuous
100
AcDbLine
 10
183.0715279008229004
 20
-122.4890345891287069
 30
0.0
 11
183.5000989008229055
 21
-122.2509395891287056
 31
0.0
  0
LINE
  5
18B
100
AcDbEntity
  8
layer 2
 62
256
370
-1
 48
1.0
  6
Continuous
100
AcDbLine
 10
183.5000989008229055
 20
-72.2509395891287056
 30
0.0
 11
184.5715279008229004
 21
-72.2509395891287056
 31
0.0
  0
LINE
  5
18C
100
AcDbEntity
  8
layer 2
 62
256
370
-1
 48
1.0
  6
Continuous
100
AcDbLine
 10
183.5000989008229055
 20
-122.2509395891287056
 30
0.0
 11
184.5715279008229004
 21
-122.2509395891287056
 31
0.0
  0
LINE
  5
18D
100
AcDbEntity
  8
layer 2
 62
256
370
-1
 48
1.0
  6
Continuous
100
AcDbLine
 10
184.5715279008229004
 20
-72.2509395891287056
 30
0.0
 11
185.2143849008228926
 21
-72.4890345891286927
 31
0.0
  0
LINE
  5
18E
100
AcDbEntity
  8
layer 2
 62
256
370
-1
 48
1.0
  6
Continuous
100
AcDbLine
 10
184.5715279008229004
 20
-122.2509395891287056
 30
0.0
 11
185.2143849008228926
 21
-122.4890345891287069
 31
0.0
  0
LINE
  5
18F
100
AcDbEntity
  8
layer 2
 62
256
370
-1
 48
1.0
  6
Continuous
100
AcDbLine
 10
170.0000989008229055
 20
-77.2509395891287056
 30
0.0
 11
170.0000989008229055
 21
-72.2509395891287056
 31
0.0
  0
LINE
  5
190
100
AcDbEntity
  8
layer 2
 62
256
370
-1
 48
1.0
  6
Continuous
100
AcDbLine
 10
170.0000989008229055
 20
-127.2509395891287056
 30
0.0
 11
170.0000989008229055
 21
-122.2509395891287056
 31
0.0
  0
LINE
  5
191
100
AcDbEntity
  8
layer 2
 62
256
370
-1
 48
1.0
  6
Continuous
100
AcDbLine
 10
170.0000989008229055
 20
-72.2509395891287056
 30
0.0
 11
171.7143849008228926
 21
-72.2509395891287056
 31
0.0
  0
LINE
  5
192
100
AcDbEntity
  8
layer 2
 62
256
370
-1
 48
1.0
  6
Continuous
100
AcDbLine
 10
170.0000989008229055
 20
-122.2509395891287056
 30
0.0
 11
171.7143849008228926
 21
-122.2509395891287056
 31
0.0
  0
LINE
  5
193
100
AcDbEntity
  8
layer 2
 62
256
370
-1
 48
1.0
  6
Continuous
100
AcDbLine
 10
171.7143849008228926
 20
-72.2509395891287056
 30
0.0
 11
172.1429559008228978
 21
-72.4890345891286927
 31
0.0
  0
LINE
  5
194
100
AcDbEntity
  8
layer 2
 62
256
370
-1
 48
1.0
  6
Continuous
100
AcDbLine
 10
171.7143849008228926
 20
-122.2509395891287056
 30
0.0
 11
172.1429559008228978
 21
-122.4890345891287069
 31
0.0
  0
LINE
  5
195
100
AcDbEntity
  8
layer 2
 62
256
370
-1
 48
1.0
  6
Continuous
100
AcDbLine
 10
172.1429559008228978
 20
-72.4890345891286927
 30
0.0
 11
172.3572419008229133
 21
-72.7271295891287082
 31
0.0
  0
LINE
  5
196
100
AcDbEntity
  8
layer 2
 62
256
370
-1
 48
1.0
  6
Continuous
100
AcDbLine
 10
172.1429559008228978
 20
-122.4890345891287069
 30
0.0
 11
172.3572419008229133
 21
-122.727129589128694
 31
0.0
  0
LINE
  5
197
100
AcDbEntity
  8
layer 2
 62
256
370
-1
 48
1.0
  6
Continuous
100
AcDbLine
 10
172.3572419008229133
 20
-72.7271295891287082
 30
0.0
 11
172.5715279008229004
 21
-73.2033205891287082
 31
0.0
  0
LINE
  5
198
100
AcDbEntity
  8
layer 2
 62
256
370
-1
 48
1.0
  6
Continuous
100
AcDbLine
 10
172.3572419008229133
 20
-122.727129589128694
 30
0.0
 11
172.5715279008229004
 21
-123.203320589128694
 31
0.0
  0
LINE
  5
199
100
AcDbEntity
  8
layer 2
 62
256
370
-1
 48
1.0
  6
Continuous
100
AcDbLine
 10
172.5715279008229004
 20
-73.2033205891287082
 30
0.0
 11
172.5715279008229004
 21
-73.9176055891286978
 31
0.0
  0
LINE
  5
19A
100
AcDbEntity
  8
layer 2
 62
256
370
-1
 48
1.0
  6
Continuous
100
AcDbLine
 10
172.5715279008229004
 20
-123.203320589128694
 30
0.0
 11
172.5715279008229004
 21
-123.9176055891286978
 31
0.0
  0
LINE
  5
19B
100
AcDbEntity
  8
layer 2
 62
256
370
-1
 48
1.0
  6
Continuous
100
AcDbLine
 10
172.5715279008229004
 20
-73.9176055891286978
 30
0.0
 11
172.3572419008229133
 21
-74.3937965891286979
 31
0.0
  0
LINE
  5
19C
100
AcDbEntity
  8
layer 2
 62
256
370
-1
 48
1.0
  6
Continuous
100
AcDbLine
 10
172.5715279008229004
 20
-123.9176055891286978
 30
0.0
 11
172.3572419008229133
 21
-124.3937965891286979
 31
0.0
  0
LINE
  5
19D
100
AcDbEntity
  8
layer 2
 62
256
370
-1
 48
1.0
  6
Continuous
100
AcDbLine
 10
172.3572419008229133
 20
-74.3937965891286979
 30
0.0
 11
172.1429559008228978
 21
-74.6318915891287133
 31
0.0
  0
LINE
  5
19E
100
AcDbEntity
  8
layer 2
 62
256
370
-1
 48
1.0
  6
Continuous
100
AcDbLine
 10
172.3572419008229133
 20
-124.3937965891286979
 30
0.0
 11
172.1429559008228978
 21
-124.6318915891286991
 31
0.0
  0
LINE
  5
19F
100
AcDbEntity
  8
layer 2
 62
256
370
-1
 48
1.0
  6
Continuous
100
AcDbLine
 10
172.1429559008228978
 20
-74.6318915891287133
 30
0.0
 11
171.7143849008228926
 21
-74.8699865891287004
 31
0.0
  0
LINE
  5
1A0
100
AcDbEntity
  8
layer 2
 62
256
370
-1
 48
1.0
  6
Continuous
100
AcDbLine
 10
172.1429559008228978
 20
-124.6318915891286991
 30
0.0
 11
171.7143849008228926
 21
-124.8699865891287004
 31
0.0
  0
LINE
  5
1A1
100
AcDbEntity
  8
layer 2
 62
256
370
-1
 48
1.0
  6
Continuous
100
AcDbLine
 10
171.7143849008228926
 20
-74.8699865891287004
 30
0.0
 11
170.0000989008229055
 21
-74.8699865891287004
 31
0.0
  0
LINE
  5
1A2
100
AcDbEntity
  8
layer 2
 62
256
370
-1
 48
1.0
  6
Continuous
100
AcDbLine
 10
171.7143849008228926
 20
-124.8699865891287004
 30
0.0
 11
170.0000989008229055
 21
-124.8699865891287004
 31
0.0
  0
LINE
  5
1A3
100
AcDbEntity
  8
layer 2
 62
256
370
-1
 48
1.0
  6
Continuous
100
AcDbLine
 10
174.2858129008229184
 20
-75.822367589128703
 30
0.0
 11
176.4286709008229082
 21
-75.822367589128703
 31
0.0
  0
LINE
  5
1A4
100
AcDbEntity
  8
layer 2
 62
256
370
-1
 48
1.0
  6
Continuous
100
AcDbLine
 10
174.2858129008229184
 20
-125.822367589128703
 30
0.0
 11
176.4286709008229082
 21
-125.822367589128703
 31
0.0
  0
LINE
  5
1A5
100
AcDbEntity
  8
layer 2
 62
256
370
-1
 48
1.0
  6
Continuous
100
AcDbLine
 10
173.8572419008229133
 20
-77.2509395891287056
 30
0.0
 11
175.3572419008229133
 21
-72.2509395891287056
 31
0.0
  0
LINE
  5
1A6
100
AcDbEntity
  8
layer 2
 62
256
370
-1
 48
1.0
  6
Continuous
100
AcDbLine
 10
173.8572419008229133
 20
-127.2509395891287056
 30
0.0
 11
175.3572419008229133
 21
-122.2509395891287056
 31
0.0
  0
LINE
  5
1A7
100
AcDbEntity
  8
layer 2
 62
256
370
-1
 48
1.0
  6
Continuous
100
AcDbLine
 10
175.3572419008229133
 20
-72.2509395891287056
 30
0.0
 11
176.8572419008229133
 21
-77.2509395891287056
 31
0.0
  0
LINE
  5
1A8
100
AcDbEntity
  8
layer 2
 62
256
370
-1
 48
1.0
  6
Continuous
100
AcDbLine
 10
175.3572419008229133
 20
-122.2509395891287056
 30
0.0
 11
176.8572419008229133
 21
-127.2509395891287056
 31
0.0
  0
LINE
  5
1A9
100
AcDbEntity
  8
layer 2
 62
256
370
-1
 48
1.0
  6
Continuous
100
AcDbLine
 10
178.3572419008229133
 20
-77.2509395891287056
 30
0.0
 11
178.3572419008229133
 21
-72.2509395891287056
 31
0.0
  0
LINE
  5
1AA
100
AcDbEntity
  8
layer 2
 62
256
370
-1
 48
1.0
  6
Continuous
100
AcDbLine
 10
178.3572419008229133
 20
-127.2509395891287056
 30
0.0
 11
178.3572419008229133
 21
-122.2509395891287056
 31
0.0
  0
LINE
  5
1AB
100
AcDbEntity
  8
layer 2
 62
256
370
-1
 48
1.0
  6
Continuous
100
AcDbLine
 10
178.3572419008229133
 20
-72.2509395891287056
 30
0.0
 11
179.4286709008229082
 21
-72.2509395891287056
 31
0.0
  0
LINE
  5
1AC
100
AcDbEntity
  8
layer 2
 62
256
370
-1
 48
1.0
  6
Continuous
100
AcDbLine
 10
178.3572419008229133
 20
-122.2509395891287056
 30
0.0
 11
179.4286709008229082
 21
-122.2509395891287056
 31
0.0
  0
LINE
  5
1AD
100
AcDbEntity
  8
layer 2
 62
256
370
-1
 48
1.0
  6
Continuous
100
AcDbLine
 10
179.4286709008229082
 20
-72.2509395891287056
 30
0.0
 11
180.0715279008229004
 21
-72.4890345891286927
 31
0.0
  0
LINE
  5
1AE
100
AcDbEntity
  8
layer 2
 62
256
370
-1
 48
1.0
  6
Continuous
100
AcDbLine
 10
179.4286709008229082
 20
-122.2509395891287056
 30
0.0
 11
180.0715279008229004
 21
-122.4890345891287069
 31
0.0
  0
LINE
  5
1AF
100
AcDbEntity
  8
layer 2
 62
256
370
-1
 48
1.0
  6
Continuous
100
AcDbLine
 10
180.0715279008229004
 20
-72.4890345891286927
 30
0.0
 11
180.5000989008229055
 21
-72.9652245891286952
 31
0.0
  0
LINE
  5
1B0
100
AcDbEntity
  8
layer 2
 62
256
370
-1
 48
1.0
  6
Continuous
100
AcDbLine
 10
180.0715279008229004
 20
-122.4890345891287069
 30
0.0
 11
180.5000989008229055
 21
-122.9652245891286952
 31
0.0
  0
LINE
  5
1B1
100
AcDbEntity
  8
layer 2
 62
256
370
-1
 48
1.0
  6
Continuous
100
AcDbLine
 10
180.5000989008229055
 20
-72.9652245891286952
 30
0.0
 11
180.7143849008228926
 21
-73.4414155891286953
 31
0.0
  0
LINE
  5
1B2
100
AcDbEntity
  8
layer 2
 62
256
370
-1
 48
1.0
  6
Continuous
100
AcDbLine
 10
180.5000989008229055
 20
-122.9652245891286952
 30
0.0
 11
180.7143849008228926
 21
-123.4414155891286953
 31
0.0
  0
LINE
  5
1B3
100
AcDbEntity
  8
layer 2
 62
256
370
-1
 48
1.0
  6
Continuous
100
AcDbLine
 10
180.7143849008228926
 20
-73.4414155891286953
 30
0.0
 11
180.9286709008229082
 21
-74.3937965891286979
 31
0.0
  0
LINE
  5
1B4
100
AcDbEntity
  8
layer 2
 62
256
370
-1
 48
1.0
  6
Continuous
100
AcDbLine
 10
180.7143849008228926
 20
-123.4414155891286953
 30
0.0
 11
180.9286709008229082
 21
-124.3937965891286979
 31
0.0
  0
LINE
  5
1B5
100
AcDbEntity
  8
layer 2
 62
256
370
-1
 48
1.0
  6
Continuous
100
AcDbLine
 10
180.9286709008229082
 20
-74.3937965891286979
 30
0.0
 11
180.9286709008229082
 21
-75.1080825891287134
 31
0.0
  0
LINE
  5
1B6
100
AcDbEntity
  8
layer 2
 62
256
370
-1
 48
1.0
  6
Continuous
100
AcDbLine
 10
180.9286709008229082
 20
-124.3937965891286979
 30
0.0
 11
180.9286709008229082
 21
-125.1080825891286992
 31
0.0
  0
LINE
  5
1B7
100
AcDbEntity
  8
layer 2
 62
256
370
-1
 48
1.0
  6
Continuous
100
AcDbLine
 10
180.9286709008229082
 20
-75.1080825891287134
 30
0.0
 11
180.7143849008228926
 21
-76.060463589128716
 31
0.0
  0
LINE
  5
1B8
100
AcDbEntity
  8
layer 2
 62
256
370
-1
 48
1.0
  6
Continuous
100
AcDbLine
 10
180.9286709008229082
 20
-125.1080825891286992
 30
0.0
 11
180.7143849008228926
 21
-126.0604635891287018
 31
0.0
  0
LINE
  5
1B9
100
AcDbEntity
  8
layer 2
 62
256
370
-1
 48
1.0
  6
Continuous
100
AcDbLine
 10
180.7143849008228926
 20
-76.060463589128716
 30
0.0
 11
180.5000989008229055
 21
-76.5366535891287185
 31
0.0
  0
LINE
  5
1BA
100
AcDbEntity
  8
layer 2
 62
256
370
-1
 48
1.0
  6
Continuous
100
AcDbLine
 10
180.7143849008228926
 20
-126.0604635891287018
 30
0.0
 11
180.5000989008229055
 21
-126.5366535891287043
 31
0.0
  0
LINE
  5
1BB
100
AcDbEntity
  8
layer 2
 62
256
370
-1
 48
1.0
  6
Continuous
100
AcDbLine
 10
180.5000989008229055
 20
-76.5366535891287185
 30
0.0
 11
180.0715279008229004
 21
-77.0128445891287186
 31
0.0
  0
LINE
  5
1BC
100
AcDbEntity
  8
layer 2
 62
256
370
-1
 48
1.0
  6
Continuous
100
AcDbLine
 10
180.5000989008229055
 20
-126.5366535891287043
 30
0.0
 11
180.0715279008229004
 21
-127.0128445891287043
 31
0.0
  0
LINE
  5
1BD
100
AcDbEntity
  8
layer 2
 62
256
370
-1
 48
1.0
  6
Continuous
100
AcDbLine
 10
180.0715279008229004
 20
-77.0128445891287186
 30
0.0
 11
179.4286709008229082
 21
-77.2509395891287056
 31
0.0
  0
LINE
  5
1BE
100
AcDbEntity
  8
layer 2
 62
256
370
-1
 48
1.0
  6
Continuous
100
AcDbLine
 10
180.0715279008229004
 20
-127.0128445891287043
 30
0.0
 11
179.4286709008229082
 21
-127.2509395891287056
 31
0.0
  0
LINE
  5
1BF
100
AcDbEntity
  8
layer 2
 62
256
370
-1
 48
1.0
  6
Continuous
100
AcDbLine
 10
179.4286709008229082
 20
-77.2509395891287056
 30
0.0
 11
178.3572419008229133
 21
-77.2509395891287056
 31
0.0
  0
LINE
  5
1C0
100
AcDbEntity
  8
layer 2
 62
256
370
-1
 48
1.0
  6
Continuous
100
AcDbLine
 10
179.4286709008229082
 20
-127.2509395891287056
 30
0.0
 11
178.3572419008229133
 21
-127.2509395891287056
 31
0.0
  0
LINE
  5
1C1
100
AcDbEntity
  8
layer 2
 62
256
370
-1
 48
1.0
  6
Continuous
100
AcDbLine
 10
182.6429559008228978
 20
-77.0128445891287186
 30
0.0
 11
183.2858139008229159
 21
-77.2509395891287056
 31
0.0
  0
LINE
  5
1C2
100
AcDbEntity
  8
layer 2
 62
256
370
-1
 48
1.0
  6
Continuous
100
AcDbLine
 10
182.6429559008228978
 20
-127.0128445891287043
 30
0.0
 11
183.2858139008229159
 21
-127.2509395891287056
 31
0.0
  0
LINE
  5
1C3
100
AcDbEntity
  8
layer 2
 62
256
370
-1
 48
1.0
  6
Continuous
100
AcDbLine
 10
183.2858139008229159
 20
-77.2509395891287056
 30
0.0
 11
184.3572419008229133
 21
-77.2509395891287056
 31
0.0
  0
LINE
  5
1C4
100
AcDbEntity
  8
layer 2
 62
256
370
-1
 48
1.0
  6
Continuous
100
AcDbLine
 10
183.2858139008229159
 20
-127.2509395891287056
 30
0.0
 11
184.3572419008229133
 21
-127.2509395891287056
 31
0.0
  0
LINE
  5
1C5
100
AcDbEntity
  8
layer 2
 62
256
370
-1
 48
1.0
  6
Continuous
100
AcDbLine
 10
184.3572419008229133
 20
-77.2509395891287056
 30
0.0
 11
184.7858139008229159
 21
-77.0128445891287186
 31
0.0
  0
LINE
  5
1C6
100
AcDbEntity
  8
layer 2
 62
256
370
-1
 48
1.0
  6
Continuous
100
AcDbLine
 10
184.3572419008229133
 20
-127.2509395891287056
 30
0.0
 11
184.7858139008229159
 21
-127.0128445891287043
 31
0.0
  0
LINE
  5
1C7
100
AcDbEntity
  8
layer 2
 62
256
370
-1
 48
1.0
  6
Continuous
100
AcDbLine
 10
184.7858139008229159
 20
-77.0128445891287186
 30
0.0
 11
185.0000989008229055
 21
-76.7747485891287056
 31
0.0
  0
LINE
  5
1C8
100
AcDbEntity
  8
layer 2
 62
256
370
-1
 48
1.0
  6
Continuous
100
AcDbLine
 10
184.7858139008229159
 20
-127.0128445891287043
 30
0.0
 11
185.0000989008229055
 21
-126.7747485891287056
 31
0.0
  0
LINE
  5
1C9
100
AcDbEntity
  8
layer 2
 62
256
370
-1
 48
1.0
  6
Continuous
100
AcDbLine
 10
185.0000989008229055
 20
-76.7747485891287056
 30
0.0
 11
185.2143849008228926
 21
-76.298558589128703
 31
0.0
  0
LINE
  5
1CA
100
AcDbEntity
  8
layer 2
 62
256
370
-1
 48
1.0
  6
Continuous
100
AcDbLine
 10
185.0000989008229055
 20
-126.7747485891287056
 30
0.0
 11
185.2143849008228926
 21
-126.298558589128703
 31
0.0
  0
LINE
  5
1CB
100
AcDbEntity
  8
layer 2
 62
256
370
-1
 48
1.0
  6
Continuous
100
AcDbLine
 10
185.2143849008228926
 20
-76.298558589128703
 30
0.0
 11
185.2143849008228926
 21
-75.822367589128703
 31
0.0
  0
LINE
  5
1CC
100
AcDbEntity
  8
layer 2
 62
256
370
-1
 48
1.0
  6
Continuous
100
AcDbLine
 10
185.2143849008228926
 20
-126.298558589128703
 30
0.0
 11
185.2143849008228926
 21
-125.822367589128703
 31
0.0
  0
LINE
  5
1CD
100
AcDbEntity
  8
layer 2
 62
256
370
-1
 48
1.0
  6
Continuous
100
AcDbLine
 10
185.2143849008228926
 20
-75.822367589128703
 30
0.0
 11
185.0000989008229055
 21
-75.3461775891287004
 31
0.0
  0
LINE
  5
1CE
100
AcDbEntity
  8
layer 2
 62
256
370
-1
 48
1.0
  6
Continuous
100
AcDbLine
 10
185.2143849008228926
 20
-125.822367589128703
 30
0.0
 11
185.0000989008229055
 21
-125.3461775891287004
 31
0.0
  0
LINE
  5
1CF
100
AcDbEntity
  8
layer 2
 62
256
370
-1
 48
1.0
  6
Continuous
100
AcDbLine
 10
185.0000989008229055
 20
-75.3461775891287004
 30
0.0
 11
184.7858139008229159
 21
-75.1080825891287134
 31
0.0
  0
LINE
  5
1D0
100
AcDbEntity
  8
layer 2
 62
256
370
-1
 48
1.0
  6
Continuous
100
AcDbLine
 10
185.0000989008229055
 20
-125.3461775891287004
 30
0.0
 11
184.7858139008229159
 21
-125.1080825891286992
 31
0.0
  0
LINE
  5
1D1
100
AcDbEntity
  8
layer 2
 62
256
370
-1
 48
1.0
  6
Continuous
100
AcDbLine
 10
184.7858139008229159
 20
-75.1080825891287134
 30
0.0
 11
184.3572419008229133
 21
-74.8699865891287004
 31
0.0
  0
LINE
  5
1D2
100
AcDbEntity
  8
layer 2
 62
256
370
-1
 48
1.0
  6
Continuous
100
AcDbLine
 10
184.7858139008229159
 20
-125.1080825891286992
 30
0.0
 11
184.3572419008229133
 21
-124.8699865891287004
 31
0.0
  0
LINE
  5
1D3
100
AcDbEntity
  8
layer 2
 62
256
370
-1
 48
1.0
  6
Continuous
100
AcDbLine
 10
184.3572419008229133
 20
-74.8699865891287004
 30
0.0
 11
183.5000989008229055
 21
-74.6318915891287133
 31
0.0
  0
LINE
  5
1D4
100
AcDbEntity
  8
layer 2
 62
256
370
-1
 48
1.0
  6
Continuous
100
AcDbLine
 10
184.3572419008229133
 20
-124.8699865891287004
 30
0.0
 11
183.5000989008229055
 21
-124.6318915891286991
 31
0.0
  0
LINE
  5
1D5
100
AcDbEntity
  8
layer 2
 62
256
370
-1
 48
1.0
  6
Continuous
100
AcDbLine
 10
183.5000989008229055
 20
-74.6318915891287133
 30
0.0
 11
183.0715279008229004
 21
-74.3937965891286979
 31
0.0
  0
LINE
  5
1D6
100
AcDbEntity
  8
layer 2
 62
256
370
-1
 48
1.0
  6
Continuous
100
AcDbLine
 10
183.5000989008229055
 20
-124.6318915891286991
 30
0.0
 11
183.0715279008229004
 21
-124.3937965891286979
 31
0.0
  0
LINE
  5
1D7
100
AcDbEntity
  8
layer 2
 62
256
370
-1
 48
1.0
  6
Continuous
100
AcDbLine
 10
183.0715279008229004
 20
-74.3937965891286979
 30
0.0
 11
182.8572419008229133
 21
-74.1557015891287108
 31
0.0
  0
LINE
  5
1D8
100
AcDbEntity
  8
layer 2
 62
256
370
-1
 48
1.0
  6
Continuous
100
AcDbLine
 10
183.0715279008229004
 20
-124.3937965891286979
 30
0.0
 11
182.8572419008229133
 21
-124.1557015891286966
 31
0.0
  0
LINE
  5
1D9
100
AcDbEntity
  8
layer 2
 62
256
370
-1
 48
1.0
  6
Continuous
100
AcDbLine
 10
182.8572419008229133
 20
-74.1557015891287108
 30
0.0
 11
182.6429559008228978
 21
-73.6795105891287108
 31
0.0
  0
LINE
  5
1DA
100
AcDbEntity
  8
layer 2
 62
256
370
-1
 48
1.0
  6
Continuous
100
AcDbLine
 10
182.8572419008229133
 20
-124.1557015891286966
 30
0.0
 11
182.6429559008228978
 21
-123.6795105891286966
 31
0.0
  0
LINE
  5
1DB
100
AcDbEntity
  8
layer 2
 62
256
370
-1
 48
1.0
  6
Continuous
100
AcDbLine
 10
182.6429559008228978
 20
-73.6795105891287108
 30
0.0
 11
182.6429559008228978
 21
-73.2033205891287082
 31
0.0
  0
LINE
  5
1DC
100
AcDbEntity
  8
layer 2
 62
256
370
-1
 48
1.0
  6
Continuous
100
AcDbLine
 10
182.6429559008228978
 20
-123.6795105891286966
 30
0.0
 11
182.6429559008228978
 21
-123.203320589128694
 31
0.0
  0
LINE
  5
1DD
100
AcDbEntity
  8
layer 2
 62
256
370
-1
 48
1.0
  6
Continuous
100
AcDbLine
 10
182.6429559008228978
 20
-73.2033205891287082
 30
0.0
 11
182.8572419008229133
 21
-72.7271295891287082
 31
0.0
  0
LINE
  5
1DE
100
AcDbEntity
  8
layer 2
 62
256
370
-1
 48
1.0
  6
Continuous
100
AcDbLine
 10
182.6429559008228978
 20
-123.203320589128694
 30
0.0
 11
182.8572419008229133
 21
-122.727129589128694
 31
0.0
  0
LINE
  5
1DF
100
AcDbEntity
  8
layer 2
 62
256
370
-1
 48
1.0
  6
Continuous
100
AcDbLine
 10
182.8572419008229133
 20
-72.7271295891287082
 30
0.0
 11
183.0715279008229004
 21
-72.4890345891286927
 31
0.0
  0
LINE
  5
1E0
100
AcDbEntity
  8
layer 2
 62
256
370
-1
 48
1.0
  6
Continuous
100
AcDbLine
 10
182.8572419008229133
 20
-122.727129589128694
 30
0.0
 11
183.0715279008229004
 21
-122.4890345891287069
 31
0.0
  0
LINE
  5
1E1
100
AcDbEntity
  8
layer 2
 62
256
370
-1
 48
1.0
  6
Continuous
100
AcDbLine
 10
183.0715279008229004
 20
-72.4890345891286927
 30
0.0
 11
183.5000989008229055
 21
-72.2509395891287056
 31
0.0
  0
LINE
  5
1E2
100
AcDbEntity
  8
layer 2
 62
256
370
-1
 48
1.0
  6
Continuous
100
AcDbLine
 10
183.0715279008229004
 20
-122.4890345891287069
 30
0.0
 11
183.5000989008229055
 21
-122.2509395891287056
 31
0.0
  0
LINE
  5
1E3
100
AcDbEntity
  8
layer 2
 62
256
370
-1
 48
1.0
  6
Continuous
100
AcDbLine
 10
183.5000989008229055
 20
-72.2509395891287056
 30
0.0
 11
184.5715279008229004
 21
-72.2509395891287056
 31
0.0
  0
LINE
  5
1E4
100
AcDbEntity
  8
layer 2
 62
256
370
-1
 48
1.0
  6
Continuous
100
AcDbLine
 10
183.5000989008229055
 20
-122.2509395891287056
 30
0.0
 11
184.5715279008229004
 21
-122.2509395891287056
 31
0.0
  0
LINE
  5
1E5
100
AcDbEntity
  8
layer 2
 62
256
370
-1
 48
1.0
  6
Continuous
100
AcDbLine
 10
184.5715279008229004
 20
-72.2509395891287056
 30
0.0
 11
185.2143849008228926
 21
-72.4890345891286927
 31
0.0
  0
LINE
  5
1E6
100
AcDbEntity
  8
layer 2
 62
256
370
-1
 48
1.0
  6
Continuous
100
AcDbLine
 10
184.5715279008229004
 20
-122.2509395891287056
 30
0.0
 11
185.2143849008228926
 21
-122.4890345891287069
 31
0.0
  0
CIRCLE
  5
1E7
100
AcDbEntity
  8
layer 2
 62
256
370
-1
 48
1.0
  6
ByLayer
100
AcDbCircle
 10
152.4960989008229149
 20
-62.4763435891287031
 30
0.0
 40
2.8500000000000001
  0
CIRCLE
  5
1E8
100
AcDbEntity
  8
layer 2
 62
256
370
-1
 48
1.0
  6
ByLayer
100
AcDbCircle
 10
152.4960989008229149
 20
-112.4763435891287031
 30
0.0
 40
2.8500000000000001
  0
CIRCLE
  5
1E9
100
AcDbEntity
  8
layer 2
 62
256
370
-1
 48
1.0
  6
ByLayer
100
AcDbCircle
 10
139.9960989008229149
 20
-74.986343589128694
 30
0.0
 40
2.8500000000000001
  0
CIRCLE
  5
1EA
100
AcDbEntity
  8
layer 2
 62
256
370
-1
 48
1.0
  6
ByLayer
100
AcDbCircle
 10
139.9960989008229149
 20
-124.986343589128694
 30
0.0
 40
2.8500000000000001
  0
CIRCLE
  5
1EB
100
AcDbEntity
  8
layer 2
 62
256
370
-1
 48
1.0
  6
ByLayer
100
AcDbCircle
 10
214.9560989008228944
 20
-74.9563435891286929
 30
0.0
 40
2.8500000000000001
  0
CIRCLE
  5
1EC
100
AcDbEntity
  8
layer 2
 62
256
370
-1
 48
1.0
  6
ByLayer
100
AcDbCircle
 10
214.9560989008228944
 20
-124.9563435891287071
 30
0.0
 40
2.8500000000000001
  0
CIRCLE
  5
1ED
100
AcDbEntity
  8
layer 2
 62
256
370
-1
 48
1.0
  6
ByLayer
100
AcDbCircle
 10
189.9560989008228944
 20
-74.9663435891287122
 30
0.0
 40
2.8500000000000001
  0
CIRCLE
  5
1EE
100
AcDbEntity
  8
layer 2
 62
256
370
-1
 48
1.0
  6
ByLayer
100
AcDbCircle
 10
189.9560989008228944
 20
-124.966343589128698
 30
0.0
 40
2.8500000000000001
  0
CIRCLE
  5
1EF
100
AcDbEntity
  8
layer 2
 62
256
370
-1
 48
1.0
  6
ByLayer
100
AcDbCircle
 10
164.9960989008229149
 20
-74.9663435891287122
 30
0.0
 40
2.8500000000000001
  0
CIRCLE
  5
1F0
100
AcDbEntity
  8
layer 2
 62
256
370
-1
 48
1.0
  6
ByLayer
100
AcDbCircle
 10
164.9960989008229149
 20
-124.966343589128698
 30
0.0
 40
2.8500000000000001
  0
CIRCLE
  5
1F1
100
AcDbEntity
  8
layer 2
 62
256
370
-1
 48
1.0
  6
ByLayer
100
AcDbCircle
 10
202.4460989008229035
 20
-62.4663435891287122
 30
0.0
 40
2.8500000000000001
  0
CIRCLE
  5
1F2
100
AcDbEntity
  8
layer 2
 62
256
370
-1
 48
1.0
  6
ByLayer
100
AcDbCircle
 10
202.4460989008229035
 20
-112.466343589128698
 30
0.0
 40
2.8500000000000001
  0
CIRCLE
  5
1F3
100
AcDbEntity
  8
layer 2
 62
256
370
-1
 48
1.0
  6
ByLayer
100
AcDbCircle
 10
152.4960989008229149
 20
-87.4563435891286929
 30
0.0
 40
2.8500000000000001
  0
CIRCLE
  5
1F4
100
AcDbEntity
  8
layer 2
 62
256
370
-1
 48
1.0
  6
ByLayer
100
AcDbCircle
 10
152.4960989008229149
 20
-137.4563435891286929
 30
0.0
 40
2.8500000000000001
  0
CIRCLE
  5
1F5
100
AcDbEntity
  8
layer 2
 62
256
370
-1
 48
1.0
  6
ByLayer
100
AcDbCircle
 10
202.4660989008229137
 20
-87.446343589128702
 30
0.0
 40
2.8500000000000001
  0
CIRCLE
  5
1F6
100
AcDbEntity
  8
layer 2
 62
256
370
-1
 48
1.0
  6
ByLayer
100
AcDbCircle
 10
202.4660989008229137
 20
-137.446343589128702
 30
0.0
 40
2.8500000000000001
  0
LINE
  5
1F7
100
AcDbEntity
  8
layer 1
 62
256
370
-1
 48
1.0
  6
ByLayer
100
AcDbLine
 10
112.5000989008229055
 20
-159.9703445891287004
 30
0.0
 11
242.5000989008229055
 21
-159.9703445891287004
 31
0.0
  0
LINE
  5
1F8
100
AcDbEntity
  8
layer 1
 62
256
370
-1
 48
1.0
  6
ByLayer
100
AcDbLine
 10
242.5000989008229055
 20
-159.9703445891287004
 30
0.0
 11
242.5000989008229055
 21
160.0296554108712996
 31
0.0
  0
LINE
  5
1F9
100
AcDbEntity
  8
layer 1
 62
256
370
-1
 48
1.0
  6
ByLayer
100
AcDbLine
 10
242.5000989008229055
 20
160.0296554108712996
 30
0.0
 11
112.5000989008229055
 21
160.0296554108712996
 31
0.0
  0
LINE
  5
1FA
100
AcDbEntity
  8
layer 4
 62
256
370
-1
 48
1.0
  6
ByLayer
100
AcDbLine
 10
177.5000989008229055
 20
170.0296554108712996
 30
0.0
 11
177.5000989008229055
 21
-189.9703445891287004
 31
0.0
  0
LINE
  5
1FB
100
AcDbEntity
  8
layer 1
 62
256
370
-1
 48
1.0
  6
ByLayer
100
AcDbLine
 10
112.5000989008229055
 20
160.0296554108712996
 30
0.0
 11
112.5000989008229055
 21
-159.9703445891287004
 31
0.0
  0
LINE
  5
1FC
100
AcDbEntity
  8
layer 3
 62
256
370
-1
 48
1.0
  6
ByLayer
100
AcDbLine
 10
119.7848153452356144
 20
-46.2400195143924293
 30
0.0
 11
120.0000989008229055
 21
-152.9703445891287004
 31
0.0
  0
LINE
  5
1FD
100
AcDbEntity
  8
layer 3
 62
256
370
-1
 48
1.0
  6
ByLayer
100
AcDbLine
 10
234.7848153452356144
 20
-46.2400195143924293
 30
0.0
 11
235.0000989008229055
 21
-152.9703445891287004
 31
0.0
  0
DIMENSION
  5
1FE
100
AcDbEntity
  8
medidas
 62
256
370
-1
 48
1.0
  6
ByLayer
100
AcDbDimension
 10
102.8884720327232571
 20
153.0000264551365206
 30
0.0
 11
98.8384465714285909
 21
136.5313314987287185
 31
0.0
 70
129
 71
8
 72
2
 74
0
 75
0
 41
1.0
 42
0.0
  1

  3
Standard
100
AcDbAlignedDimension
 13
119.9999999999999716
 23
153.0000000000000284
 33
0.0
 14
119.9999490774009701
 24
120.0625975642463033
 34
0.0
1001
ACAD
1000
DSTYLE
1002
{
1070
279
1070
2
1070
144
1040
1.0
1070
40
1040
30.0
1002
}
  0
DIMENSION
  5
1FF
100
AcDbEntity
  8
medidas
 62
256
370
-1
 48
1.0
  6
ByLayer
100
AcDbDimension
 10
119.9999999999999716
 20
163.9559016318744682
 30
0.0
 11
177.5000494504114386
 21
168.0059016318744796
 31
0.0
 70
129
 71
8
 72
2
 74
0
 75
0
 41
1.0
 42
0.0
  1

  3
Standard
100
AcDbAlignedDimension
 13
119.9999999999999716
 23
153.0000000000000284
 33
0.0
 14
235.0000989008229055
 24
153.0000000000000284
 34
0.0
1001
ACAD
1000
DSTYLE
1002
{
1070
279
1070
2
1070
144
1040
1.0
1070
40
1040
30.0
1002
}
  0
DIMENSION
  5
200
100
AcDbEntity
  8
medidas
 62
256
370
-1
 48
1.0
  6
ByLayer
100
AcDbDimension
 10
102.8884211101242556
 20
108.0
 30
0.0
 11
98.8384211101242585
 21
56.0148277054356498
 31
0.0
 70
129
 71
8
 72
2
 74
0
 75
0
 41
1.0
 42
0.0
  1

  3
Standard
100
AcDbAlignedDimension
 13
120.0000989008229055
 23
108.0
 33
0.0
 14
120.0000989008229055
 24
4.0296554108712996
 34
0.0
1001
ACAD
1000
DSTYLE
1002
{
1070
279
1070
2
1070
144
1040
1.0
1070
40
1040
30.0
1002
}
  0
DIMENSION
  5
201
100
AcDbEntity
  8
medidas
 62
256
370
-1
 48
1.0
  6
ByLayer
100
AcDbDimension
 10
102.8884063881520206
 20
-5.4927085987652706
 30
0.0
 11
98.8383809268573543
 21
-21.961403555173078
 31
0.0
 70
129
 71
8
 72
2
 74
0
 75
0
 41
1.0
 42
0.0
  1

  3
Standard
100
AcDbAlignedDimension
 13
120.0000749117108967
 23
-5.4927350541190654
 33
0.0
 14
120.0000239891118952
 24
-38.4301374898727843
 34
0.0
1001
ACAD
1000
DSTYLE
1002
{
1070
279
1070
2
1070
144
1040
1.0
1070
40
1040
30.0
1002
}
  0
DIMENSION
  5
202
100
AcDbEntity
  8
medidas
 62
256
370
-1
 48
1.0
  6
ByLayer
100
AcDbDimension
 10
102.9041773529303327
 20
-46.274069104000823
 30
0.0
 11
98.9618273696338662
 21
-99.6474007969094941
 31
0.0
 70
129
 71
8
 72
2
 74
0
 75
0
 41
1.0
 42
0.0
  1

  3
Standard
100
AcDbAlignedDimension
 13
119.7848153452356428
 23
-46.2400195143924293
 33
0.0
 14
120.000098900822934
 24
-152.9703445891287004
 34
0.0
1001
ACAD
1000
DSTYLE
1002
{
1070
279
1070
2
1070
144
1040
1.0
1070
40
1040
30.0
1002
}
  0
ENDSEC
  0
SECTION
  2
OBJECTS
  0
DICTIONARY
  5
C
100
AcDbDictionary
280
0
281
1
  3
ACAD_GROUP
350
D
  3
ACAD_LAYOUT
350
1A
  3
ACAD_MLINESTYLE
350
17
  3
ACAD_PLOTSETTINGS
350
19
  3
ACAD_PLOTSTYLENAME
350
E
  3
AcDbVariableDictionary
350
203
  3
QCAD_OBJECTS
350
204
  0
DICTIONARY
  5
D
100
AcDbDictionary
280
0
281
1
  0
ACDBDICTIONARYWDFLT
  5
E
100
AcDbDictionary
281
1
  3
Normal
350
F
100
AcDbDictionaryWithDefault
340
F
  0
ACDBPLACEHOLDER
  5
F
  0
DICTIONARY
  5
17
100
AcDbDictionary
280
0
281
1
  3
Standard
350
18
  0
MLINESTYLE
  5
18
100
AcDbMlineStyle
  2
STANDARD
 70
0
  3

 62
256
 51
90.0
 52
90.0
 71
2
 49
0.5
 62
256
  6
BYLAYER
 49
-0.5
 62
256
  6
BYLAYER
  0
DICTIONARY
  5
19
100
AcDbDictionary
280
0
281
1
  0
DICTIONARY
  5
1A
100
AcDbDictionary
281
1
  3
Layout1
350
1E
  3
Layout2
350
26
  3
Model
350
22
  0
LAYOUT
  5
1E
100
AcDbPlotSettings
  1

  2
none_device
  4

  6

 40
0.0
 41
0.0
 42
0.0
 43
0.0
 44
0.0
 45
0.0
 46
0.0
 47
0.0
 48
0.0
 49
0.0
140
0.0
141
0.0
142
1.0
143
1.0
 70
688
 72
0
 73
0
 74
5
  7

 75
16
147
1.0
148
0.0
149
0.0
100
AcDbLayout
  1
Layout1
 70
1
 71
1
 10
0.0
 20
0.0
 11
420.0
 21
297.0
 12
0.0
 22
0.0
 32
0.0
 14
100000000000000000000.0
 24
100000000000000000000.0
 34
100000000000000000000.0
 15
-100000000000000000000.0
 25
-100000000000000000000.0
 35
-100000000000000000000.0
146
0.0
 13
0.0
 23
0.0
 33
0.0
 16
1.0
 26
0.0
 36
0.0
 17
0.0
 27
1.0
 37
0.0
 76
0
330
1B
  0
LAYOUT
  5
22
100
AcDbPlotSettings
  1

  2
none_device
  4

  6

 40
0.0
 41
0.0
 42
0.0
 43
0.0
 44
0.0
 45
0.0
 46
0.0
 47
0.0
 48
0.0
 49
0.0
140
0.0
141
0.0
142
1.0
143
1.0
 70
1712
 72
0
 73
0
 74
0
  7

 75
0
147
1.0
148
0.0
149
0.0
100
AcDbLayout
  1
Model
 70
1
 71
0
 10
0.0
 20
0.0
 11
12.0
 21
9.0
 12
0.0
 22
0.0
 32
0.0
 14
0.0
 24
0.0
 34
0.0
 15
0.0
 25
0.0
 35
0.0
146
0.0
 13
0.0
 23
0.0
 33
0.0
 16
1.0
 26
0.0
 36
0.0
 17
0.0
 27
1.0
 37
0.0
 76
0
330
1F
  0
LAYOUT
  5
26
100
AcDbPlotSettings
  1

  2
none_device
  4

  6

 40
0.0
 41
0.0
 42
0.0
 43
0.0
 44
0.0
 45
0.0
 46
0.0
 47
0.0
 48
0.0
 49
0.0
140
0.0
141
0.0
142
1.0
143
1.0
 70
688
 72
0
 73
0
 74
5
  7

 75
16
147
1.0
148
0.0
149
0.0
100
AcDbLayout
  1
Layout2
 70
1
 71
2
 10
0.0
 20
0.0
 11
12.0
 21
9.0
 12
0.0
 22
0.0
 32
0.0
 14
0.0
 24
0.0
 34
0.0
 15
0.0
 25
0.0
 35
0.0
146
0.0
 13
0.0
 23
0.0
 33
0.0
 16
1.0
 26
0.0
 36
0.0
 17
0.0
 27
1.0
 37
0.0
 76
0
330
23
  0
DICTIONARY
  5
203
100
AcDbDictionary
281
1
  3
DIMASSOC
350
206
  3
HIDETEXT
350
205
  0
DICTIONARYVAR
  5
205
100
DictionaryVariables
280
0
  1
2
  0
DICTIONARYVAR
  5
206
100
DictionaryVariables
280
0
  1
1
  0
DICTIONARY
  5
204
100
AcDbDictionary
281
1
  3
ColorSettings/BackgroundColor
350
207
  3
ColorSettings/ColorMode
350
208
  3
DimensionSettings/AngularFormat
350
209
  3
DimensionSettings/AngularPrecision
350
20A
  3
DimensionSettings/DecimalPoint
350
20B
  3
DimensionSettings/DimensionFont
350
20C
  3
DimensionSettings/DimensionTextColor
350
20D
  3
DimensionSettings/KeepProportions
350
20E
  3
DimensionSettings/LinearFormat
350
20F
  3
DimensionSettings/LinearPrecision
350
210
  3
Grid/DisplayGrid00
350
211
  3
Grid/DisplayGrid01
350
212
  3
Grid/DisplayGrid02
350
213
  3
Grid/DisplayGrid03
350
214
  3
Grid/GridSpacingX00
350
215
  3
Grid/GridSpacingX01
350
216
  3
Grid/GridSpacingX02
350
217
  3
Grid/GridSpacingX03
350
218
  3
Grid/GridSpacingY00
350
219
  3
Grid/GridSpacingY01
350
21A
  3
Grid/GridSpacingY02
350
21B
  3
Grid/GridSpacingY03
350
21C
  3
Grid/IsometricGrid00
350
21D
  3
Grid/IsometricGrid01
350
21E
  3
Grid/IsometricGrid02
350
21F
  3
Grid/IsometricGrid03
350
220
  3
Grid/IsometricProjection00
350
221
  3
Grid/IsometricProjection01
350
222
  3
Grid/IsometricProjection02
350
223
  3
Grid/IsometricProjection03
350
224
  3
Grid/MetaGridSpacingX00
350
225
  3
Grid/MetaGridSpacingX01
350
226
  3
Grid/MetaGridSpacingX02
350
227
  3
Grid/MetaGridSpacingX03
350
228
  3
Grid/MetaGridSpacingY00
350
229
  3
Grid/MetaGridSpacingY01
350
22A
  3
Grid/MetaGridSpacingY02
350
22B
  3
Grid/MetaGridSpacingY03
350
22C
  3
MultiPageSettings/Columns
350
22D
  3
MultiPageSettings/GlueMarginsBottom
350
22E
  3
MultiPageSettings/GlueMarginsLeft
350
22F
  3
MultiPageSettings/GlueMarginsRight
350
230
  3
MultiPageSettings/GlueMarginsTop
350
231
  3
MultiPageSettings/PrintCropMarks
350
232
  3
MultiPageSettings/Rows
350
233
  3
PageSettings/OffsetX
350
234
  3
PageSettings/OffsetY
350
235
  3
PageSettings/PageOrientation
350
236
  3
PageSettings/PaperHeight
350
237
  3
PageSettings/PaperWidth
350
238
  3
PageSettings/Scale
350
239
  3
PageSettings/ShowPaperBorders
350
23A
  3
PageTagSettings/EnablePageTags
350
23B
  3
PageTagSettings/TagAlignment
350
23C
  3
PageTagSettings/TagFont
350
23D
  3
PageTagSettings/TagPosition
350
23E
  3
QCADVersion
350
23F
  3
UnitSettings/PaperUnit
350
240
  3
ViewportCenter
350
241
  3
ViewportHeight
350
242
  3
ViewportWidth
350
243
  0
XRECORD
  5
207
330
204
100
AcDbXrecord
280
1
1000
#ffffff
  0
XRECORD
  5
208
330
204
100
AcDbXrecord
280
1
1000
FullColor
  0
XRECORD
  5
209
330
204
100
AcDbXrecord
280
1
 40
0.0
  0
XRECORD
  5
20A
330
204
100
AcDbXrecord
280
1
 40
0.0
  0
XRECORD
  5
20B
330
204
100
AcDbXrecord
280
1
 40
46.0
  0
XRECORD
  5
20C
330
204
100
AcDbXrecord
280
1
1000
Academy Engraved LET
  0
XRECORD
  5
20E
330
204
100
AcDbXrecord
280
1
290
1
  0
XRECORD
  5
20F
330
204
100
AcDbXrecord
280
1
 40
2.0
  0
XRECORD
  5
210
330
204
100
AcDbXrecord
280
1
 40
2.0
  0
XRECORD
  5
211
330
204
100
AcDbXrecord
280
1
290
1
  0
XRECORD
  5
212
330
204
100
AcDbXrecord
280
1
290
1
  0
XRECORD
  5
213
330
204
100
AcDbXrecord
280
1
290
1
  0
XRECORD
  5
214
330
204
100
AcDbXrecord
280
1
290
1
  0
XRECORD
  5
215
330
204
100
AcDbXrecord
280
1
1000
auto
  0
XRECORD
  5
216
330
204
100
AcDbXrecord
280
1
1000
auto
  0
XRECORD
  5
217
330
204
100
AcDbXrecord
280
1
1000
auto
  0
XRECORD
  5
218
330
204
100
AcDbXrecord
280
1
1000
auto
  0
XRECORD
  5
219
330
204
100
AcDbXrecord
280
1
1000
auto
  0
XRECORD
  5
21A
330
204
100
AcDbXrecord
280
1
1000
auto
  0
XRECORD
  5
21B
330
204
100
AcDbXrecord
280
1
1000
auto
  0
XRECORD
  5
21C
330
204
100
AcDbXrecord
280
1
1000
auto
  0
XRECORD
  5
21D
330
204
100
AcDbXrecord
280
1
290
0
  0
XRECORD
  5
21E
330
204
100
AcDbXrecord
280
1
290
0
  0
XRECORD
  5
21F
330
204
100
AcDbXrecord
280
1
290
0
  0
XRECORD
  5
220
330
204
100
AcDbXrecord
280
1
290
0
  0
XRECORD
  5
221
330
204
100
AcDbXrecord
280
1
 90
65537
  0
XRECORD
  5
222
330
204
100
AcDbXrecord
280
1
 90
65537
  0
XRECORD
  5
223
330
204
100
AcDbXrecord
280
1
 90
65537
  0
XRECORD
  5
224
330
204
100
AcDbXrecord
280
1
 90
65537
  0
XRECORD
  5
225
330
204
100
AcDbXrecord
280
1
1000
auto
  0
XRECORD
  5
226
330
204
100
AcDbXrecord
280
1
1000
auto
  0
XRECORD
  5
227
330
204
100
AcDbXrecord
280
1
1000
auto
  0
XRECORD
  5
228
330
204
100
AcDbXrecord
280
1
1000
auto
  0
XRECORD
  5
229
330
204
100
AcDbXrecord
280
1
1000
auto
  0
XRECORD
  5
22A
330
204
100
AcDbXrecord
280
1
1000
auto
  0
XRECORD
  5
22B
330
204
100
AcDbXrecord
280
1
1000
auto
  0
XRECORD
  5
22C
330
204
100
AcDbXrecord
280
1
1000
auto
  0
XRECORD
  5
22D
330
204
100
AcDbXrecord
280
1
 90
1
  0
XRECORD
  5
22E
330
204
100
AcDbXrecord
280
1
 40
10.0
  0
XRECORD
  5
22F
330
204
100
AcDbXrecord
280
1
 40
10.0
  0
XRECORD
  5
230
330
204
100
AcDbXrecord
280
1
 40
10.0
  0
XRECORD
  5
231
330
204
100
AcDbXrecord
280
1
 40
10.0
  0
XRECORD
  5
232
330
204
100
AcDbXrecord
280
1
290
0
  0
XRECORD
  5
233
330
204
100
AcDbXrecord
280
1
 90
1
  0
XRECORD
  5
234
330
204
100
AcDbXrecord
280
1
 40
-98.2499110424093374
  0
XRECORD
  5
235
330
204
100
AcDbXrecord
280
1
 40
-246.3844797178130932
  0
XRECORD
  5
236
330
204
100
AcDbXrecord
280
1
1000
Portrait
  0
XRECORD
  5
237
330
204
100
AcDbXrecord
280
1
 40
297.0
  0
XRECORD
  5
238
330
204
100
AcDbXrecord
280
1
 40
210.0
  0
XRECORD
  5
239
330
204
100
AcDbXrecord
280
1
1000
0.567
  0
XRECORD
  5
23A
330
204
100
AcDbXrecord
280
1
290
1
  0
XRECORD
  5
23B
330
204
100
AcDbXrecord
280
1
290
0
  0
XRECORD
  5
23C
330
204
100
AcDbXrecord
280
1
1000
Inside
  0
XRECORD
  5
23D
330
204
100
AcDbXrecord
280
1
1000
Arial,10,-1,5,50,0,0,0,0,0
  0
XRECORD
  5
23E
330
204
100
AcDbXrecord
280
1
1000
TopLeft
  0
XRECORD
  5
23F
330
204
100
AcDbXrecord
280
1
1000
3.30.1
  0
XRECORD
  5
240
330
204
100
AcDbXrecord
280
1
 90
4
  0
XRECORD
  5
242
330
204
100
AcDbXrecord
280
1
 40
596.4199024390244404
  0
XRECORD
  5
243
330
204
100
AcDbXrecord
280
1
 40
1114.124487804878072
  0
ENDSEC
  0
EOF
