0
SECTION
2
HEADER
9
$INSUNITS
70
4
9
$ACADVER
1
AC1014
9
$HANDSEED
5
FFFF
0
ENDSEC
0
SECTION
2
TABLES
0
TABLE
2
VPORT
5
8
100
AcDbSymbolTable
0
ENDTAB
0
TABLE
2
LTYPE
5
5
100
AcDbSymbolTable
0
LTYPE
5
14
100
AcDbSymbolTableRecord
100
AcDbLinetypeTableRecord
2
BYBLOCK
70
0
0
LTYPE
5
15
100
AcDbSymbolTableRecord
100
AcDbLinetypeTableRecord
2
BYLAYER
70
0
0
ENDTAB
0
TABLE
2
LAYER
5
2
100
AcDbSymbolTable
70
2
0
LAYER
5
50
100
AcDbSymbolTableRecord
100
AcDbLayerTableRecord
2
0
70
0
6
CONTINUOUS
0
ENDTAB
0
TABLE
2
STYLE
5
3
100
AcDbSymbolTable
70
1
0
STYLE
5
11
100
AcDbSymbolTableRecord
100
AcDbTextStyleTableRecord
2
STANDARD
70
0
0
ENDTAB
0
TABLE
2
VIEW
5
6
100
AcDbSymbolTable
70
0
0
ENDTAB
0
TABLE
2
UCS
5
7
100
AcDbSymbolTable
70
0
0
ENDTAB
0
TABLE
2
APPID
5
9
100
AcDbSymbolTable
70
2
0
APPID
5
12
100
AcDbSymbolTableRecord
100
AcDbRegAppTableRecord
2
ACAD
70
0
0
ENDTAB
0
TABLE
2
DIMSTYLE
5
A
100
AcDbSymbolTable
70
1
0
ENDTAB
0
TABLE
2
BLOCK_RECORD
5
1
100
AcDbSymbolTable
70
1
0
BLOCK_RECORD
5
1F
100
AcDbSymbolTableRecord
100
AcDbBlockTableRecord
2
*MODEL_SPACE
0
BLOCK_RECORD
5
1B
100
AcDbSymbolTableRecord
100
AcDbBlockTableRecord
2
*PAPER_SPACE
0
ENDTAB
0
ENDSEC
0
SECTION
2
BLOCKS
0
BLOCK
5
20
100
AcDbEntity
100
AcDbBlockBegin
2
*MODEL_SPACE
0
ENDBLK
5
21
100
AcDbEntity
100
AcDbBlockEnd
0
BLOCK
5
1C
100
AcDbEntity
100
AcDbBlockBegin
2
*PAPER_SPACE
0
ENDBLK
5
1D
100
AcDbEntity
100
AcDbBlockEnd
0
ENDSEC
0
SECTION
2
ENTITIES
0
LWPOLYLINE
5
100
100
AcDbEntity
8
0
100
AcDbPolyline
90
8
70
1
43
0.0
10
-52.500000804662704
20
138.00000190734863
10
-37.500000536441803
20
138.00000190734863
42
-0.41421356237309681
10
-36.00000053644181
20
136.5000019073486
10
-36.00000053644181
20
129.50000175833705
42
-0.41421356237309337
10
-37.500000536441803
20
128.00000175833702
10
-52.500000804662704
20
128.00000175833702
42
-0.41421356237309681
10
-54.000000804662697
20
129.50000175833705
10
-54.000000804662697
20
136.5000019073486
42
-0.41421356237309337
0
LWPOLYLINE
5
101
100
AcDbEntity
8
0
100
AcDbPolyline
90
8
70
1
43
0.0
10
52.499999463558197
20
128.00000175833702
10
37.499999195337296
20
128.00000175833702
42
-0.41421356237309681
10
35.999999195337303
20
129.50000175833705
10
35.999999195337303
20
136.5000019073486
42
-0.41421356237309337
10
37.499999195337296
20
138.00000190734863
10
52.499999463558197
20
138.00000190734863
42
-0.41421356237309853
10
53.999999463558197
20
136.5000019073486
10
53.999999463558197
20
129.50000175833702
42
-0.41421356237309503
0
LWPOLYLINE
5
102
100
AcDbEntity
8
0
100
AcDbPolyline
90
8
70
1
43
0.0
10
-37.500000536441803
20
99.000001758337021
10
-52.500000804662704
20
99.000001758337021
42
-0.41421356237309681
10
-54.000000804662697
20
100.50000175833704
10
-54.000000804662697
20
107.50000190734863
42
-0.41421356237309337
10
-52.500000804662704
20
109.00000190734863
10
-37.500000536441803
20
109.00000190734863
42
-0.41421356237309681
10
-36.00000053644181
20
107.5000019073486
10
-36.00000053644181
20
100.50000175833702
42
-0.41421356237309337
0
LWPOLYLINE
5
103
100
AcDbEntity
8
0
100
AcDbPolyline
90
8
70
1
43
0.0
10
52.499999463558197
20
99.000001758337021
10
37.499999195337296
20
99.000001758337021
42
-0.41421356237309681
10
35.999999195337303
20
100.50000175833704
10
35.999999195337303
20
107.50000190734863
42
-0.41421356237309337
10
37.499999195337296
20
109.00000190734863
10
52.499999463558197
20
109.00000190734863
42
-0.41421356237309853
10
53.999999463558197
20
107.5000019073486
10
53.999999463558197
20
100.50000175833702
42
-0.41421356237309503
0
LWPOLYLINE
5
104
100
AcDbEntity
8
0
100
AcDbPolyline
90
8
70
1
43
0.0
10
-37.500000536441803
20
70.000001758337021
10
-52.500000804662704
20
70.000001758337021
42
-0.41421356237309681
10
-54.000000804662697
20
71.500001758337035
10
-54.000000804662697
20
78.500001907348619
42
-0.41421356237309337
10
-52.500000804662704
20
80.000001907348633
10
-37.500000536441803
20
80.000001907348633
42
-0.41421356237309681
10
-36.00000053644181
20
78.500001907348604
10
-36.00000053644181
20
71.500001758337021
42
-0.41421356237309337
0
LWPOLYLINE
5
105
100
AcDbEntity
8
0
100
AcDbPolyline
90
8
70
1
43
0.0
10
52.499999463558197
20
70.000001758337021
10
37.499999195337296
20
70.000001758337021
42
-0.41421356237309681
10
35.999999195337303
20
71.500001758337035
10
35.999999195337303
20
78.500001907348619
42
-0.41421356237309337
10
37.499999195337296
20
80.000001907348633
10
52.499999463558197
20
80.000001907348633
42
-0.41421356237309853
10
53.999999463558197
20
78.500001907348604
10
53.999999463558197
20
71.500001758337021
42
-0.41421356237309503
0
LWPOLYLINE
5
106
100
AcDbEntity
8
0
100
AcDbPolyline
90
8
70
1
43
0.0
10
-37.500000536441803
20
41.000001758337007
10
-52.500000804662704
20
41.000001758337007
42
-0.41421356237309681
10
-54.000000804662697
20
42.500001758337035
10
-54.000000804662697
20
49.500001907348619
42
-0.41421356237309337
10
-52.500000804662704
20
51.000001907348619
10
-37.500000536441803
20
51.000001907348619
42
-0.41421356237309681
10
-36.00000053644181
20
49.500001907348604
10
-36.00000053644181
20
42.500001758337014
42
-0.41421356237309337
0
LWPOLYLINE
5
107
100
AcDbEntity
8
0
100
AcDbPolyline
90
8
70
1
43
0.0
10
52.499999463558197
20
41.000001758337007
10
37.499999195337296
20
41.000001758337007
42
-0.41421356237309681
10
35.999999195337303
20
42.500001758337035
10
35.999999195337303
20
49.500001907348619
42
-0.41421356237309337
10
37.499999195337296
20
51.000001907348619
10
52.499999463558197
20
51.000001907348619
42
-0.41421356237309853
10
53.999999463558197
20
49.500001907348604
10
53.999999463558197
20
42.500001758337014
42
-0.41421356237309503
0
CIRCLE
5
108
100
AcDbEntity
8
0
100
AcDbCircle
10
20.000000298023224
20
133.00000183284283
30
0
40
8.0000000000000018
210
0
220
0
230
1
0
CIRCLE
5
109
100
AcDbEntity
8
0
100
AcDbCircle
10
-19.999999701976776
20
133.00000183284283
30
0
40
8.0000000000000018
210
0
220
0
230
1
0
CIRCLE
5
110
100
AcDbEntity
8
0
100
AcDbCircle
10
20.000000298023224
20
104.00000183284283
30
0
40
8.0000000000000018
210
0
220
0
230
1
0
CIRCLE
5
111
100
AcDbEntity
8
0
100
AcDbCircle
10
-19.999999701976776
20
104.00000183284283
30
0
40
8.0000000000000018
210
0
220
0
230
1
0
CIRCLE
5
112
100
AcDbEntity
8
0
100
AcDbCircle
10
20.000000298023224
20
75.000001832842827
30
0
40
8.0000000000000018
210
0
220
0
230
1
0
CIRCLE
5
113
100
AcDbEntity
8
0
100
AcDbCircle
10
-19.999999701976776
20
75.000001832842827
30
0
40
8.0000000000000018
210
0
220
0
230
1
0
CIRCLE
5
114
100
AcDbEntity
8
0
100
AcDbCircle
10
20.000000298023224
20
46.000001832842813
30
0
40
8.0000000000000018
210
0
220
0
230
1
0
CIRCLE
5
115
100
AcDbEntity
8
0
100
AcDbCircle
10
-19.999999701976776
20
46.000001832842813
30
0
40
8.0000000000000018
210
0
220
0
230
1
0
CIRCLE
5
116
100
AcDbEntity
8
0
100
AcDbCircle
10
-45.174287678873739
20
14.014033559308663
30
0
40
11
210
0
220
0
230
1
0
CIRCLE
5
117
100
AcDbEntity
8
0
100
AcDbCircle
10
-32.853780482824845
20
-45.685378650289373
30
0
40
11.000000000000004
210
0
220
0
230
1
0
LWPOLYLINE
5
118
100
AcDbEntity
8
0
100
AcDbPolyline
90
8
70
1
43
0.0
10
-52.500000804662704
20
-66.000000908970833
10
-37.500000804662704
20
-66.000000908970833
42
-0.41421356237309076
10
-36.000000804662704
20
-67.500000908970833
10
-36.000000804662704
20
-74.500000908970819
42
-0.41421356237309076
10
-37.500000804662704
20
-76.000000908970833
10
-52.500000804662704
20
-76.000000908970833
42
-0.41421356237308815
10
-54.000000804662704
20
-74.500000908970833
10
-54.000000804662704
20
-67.500000908970833
42
-0.41421356237308815
0
LWPOLYLINE
5
119
100
AcDbEntity
8
0
100
AcDbPolyline
90
8
70
1
43
0.0
10
-27.500000804662701
20
-66.000000908970833
10
-12.500000804662704
20
-66.000000908970833
42
-0.41421356237309076
10
-11.000000804662706
20
-67.500000908970833
10
-11.000000804662706
20
-74.500000908970819
42
-0.41421356237309076
10
-12.500000804662704
20
-76.000000908970833
10
-27.500000804662701
20
-76.000000908970833
42
-0.41421356237308815
10
-29.000000804662704
20
-74.500000908970833
10
-29.000000804662704
20
-67.500000908970833
42
-0.41421356237308815
0
LWPOLYLINE
5
120
100
AcDbEntity
8
0
100
AcDbPolyline
90
8
70
1
43
0.0
10
-52.500000804662704
20
-86.000000908970833
10
-37.500000804662704
20
-86.000000908970833
42
-0.41421356237308898
10
-36.000000804662704
20
-87.500000908970833
10
-36.000000804662697
20
-94.500000908970833
42
-0.41421356237308898
10
-37.500000804662704
20
-96.000000908970833
10
-52.500000804662704
20
-96.000000908970833
42
-0.41421356237308815
10
-54.000000804662704
20
-94.500000908970833
10
-54.000000804662704
20
-87.500000908970833
42
-0.41421356237308815
0
LWPOLYLINE
5
121
100
AcDbEntity
8
0
100
AcDbPolyline
90
8
70
1
43
0.0
10
-27.500000804662701
20
-86.000000908970833
10
-12.500000804662704
20
-86.000000908970833
42
-0.41421356237308898
10
-11.000000804662706
20
-87.500000908970833
10
-11.000000804662697
20
-94.500000908970833
42
-0.41421356237308898
10
-12.500000804662704
20
-96.000000908970833
10
-27.500000804662701
20
-96.000000908970833
42
-0.41421356237308815
10
-29.000000804662704
20
-94.500000908970833
10
-29.000000804662704
20
-87.500000908970833
42
-0.41421356237308815
0
LWPOLYLINE
5
122
100
AcDbEntity
8
0
100
AcDbPolyline
90
8
70
1
43
0.0
10
-52.500000804662704
20
-106.00000090897083
10
-37.500000804662704
20
-106.00000090897083
42
-0.41421356237308898
10
-36.000000804662704
20
-107.50000090897083
10
-36.000000804662697
20
-114.50000090897083
42
-0.41421356237308898
10
-37.500000804662704
20
-116.00000090897083
10
-52.500000804662704
20
-116.00000090897083
42
-0.41421356237308815
10
-54.000000804662704
20
-114.50000090897083
10
-54.000000804662704
20
-107.50000090897083
42
-0.41421356237308815
0
LWPOLYLINE
5
123
100
AcDbEntity
8
0
100
AcDbPolyline
90
8
70
1
43
0.0
10
-27.500000804662701
20
-106.00000090897083
10
-12.500000804662704
20
-106.00000090897083
42
-0.41421356237308898
10
-11.000000804662706
20
-107.50000090897083
10
-11.000000804662697
20
-114.50000090897083
42
-0.41421356237308898
10
-12.500000804662704
20
-116.00000090897083
10
-27.500000804662701
20
-116.00000090897083
42
-0.41421356237308815
10
-29.000000804662704
20
-114.50000090897083
10
-29.000000804662704
20
-107.50000090897083
42
-0.41421356237308815
0
LWPOLYLINE
5
124
100
AcDbEntity
8
0
100
AcDbPolyline
90
8
70
1
43
0.0
10
-52.500000804662704
20
-126.00000090897083
10
-37.500000804662704
20
-126.00000090897083
42
-0.41421356237308898
10
-36.000000804662704
20
-127.50000090897083
10
-36.000000804662697
20
-134.50000090897083
42
-0.41421356237308898
10
-37.500000804662704
20
-136.00000090897083
10
-52.500000804662704
20
-136.00000090897083
42
-0.41421356237308815
10
-54.000000804662704
20
-134.50000090897083
10
-54.000000804662704
20
-127.50000090897083
42
-0.41421356237308815
0
LWPOLYLINE
5
125
100
AcDbEntity
8
0
100
AcDbPolyline
90
8
70
1
43
0.0
10
-27.500000804662701
20
-126.00000090897083
10
-12.500000804662704
20
-126.00000090897083
42
-0.41421356237308898
10
-11.000000804662706
20
-127.50000090897083
10
-11.000000804662697
20
-134.50000090897083
42
-0.41421356237308898
10
-12.500000804662704
20
-136.00000090897083
10
-27.500000804662701
20
-136.00000090897083
42
-0.41421356237308815
10
-29.000000804662704
20
-134.50000090897083
10
-29.000000804662704
20
-127.50000090897083
42
-0.41421356237308815
0
LWPOLYLINE
5
126
100
AcDbEntity
8
0
100
AcDbPolyline
90
8
70
1
43
0.0
10
12.499999463558197
20
-86.000000908970833
42
0.41421356237308554
10
10.999999463558199
20
-87.500000908970819
10
10.999999463558199
20
-94.500000908970847
42
0.41421356237308554
10
12.499999463558197
20
-96.000000908970833
10
27.499999463558193
20
-96.000000908970833
42
0.4142135623730846
10
28.999999463558197
20
-94.500000908970847
10
28.999999463558197
20
-87.500000908970819
42
0.4142135623730846
10
27.499999463558193
20
-86.000000908970833
0
LWPOLYLINE
5
127
100
AcDbEntity
8
0
100
AcDbPolyline
90
8
70
1
43
0.0
10
12.499999463558197
20
-126.00000090897083
42
0.41421356237308554
10
10.999999463558199
20
-127.50000090897082
10
10.999999463558199
20
-134.50000090897083
42
0.41421356237308554
10
12.499999463558197
20
-136.00000090897083
10
27.499999463558193
20
-136.00000090897083
42
0.4142135623730846
10
28.999999463558197
20
-134.50000090897083
10
28.999999463558197
20
-127.50000090897082
42
0.4142135623730846
10
27.499999463558193
20
-126.00000090897083
0
LWPOLYLINE
5
128
100
AcDbEntity
8
0
100
AcDbPolyline
90
8
70
1
43
0.0
10
35.999999463558197
20
-67.500000908970819
10
35.999999463558197
20
-74.500000908970847
42
0.41421356237308554
10
37.499999463558197
20
-76.000000908970833
10
52.499999463558197
20
-76.000000908970833
42
0.4142135623730846
10
53.999999463558197
20
-74.500000908970847
10
53.999999463558197
20
-67.500000908970819
42
0.4142135623730846
10
52.499999463558197
20
-66.000000908970833
10
37.499999463558197
20
-66.000000908970833
42
0.41421356237308554
0
LWPOLYLINE
5
129
100
AcDbEntity
8
0
100
AcDbPolyline
90
8
70
1
43
0.0
10
12.499999463558197
20
-76.000000908970833
10
27.499999463558193
20
-76.000000908970833
42
0.4142135623730846
10
28.999999463558197
20
-74.500000908970847
10
28.999999463558197
20
-67.500000908970819
42
0.4142135623730846
10
27.499999463558193
20
-66.000000908970833
10
12.499999463558197
20
-66.000000908970833
42
0.41421356237308554
10
10.999999463558199
20
-67.500000908970819
10
10.999999463558199
20
-74.500000908970847
42
0.41421356237308554
0
LWPOLYLINE
5
130
100
AcDbEntity
8
0
100
AcDbPolyline
90
8
70
1
43
0.0
10
37.499999463558197
20
-126.00000090897083
42
0.41421356237308554
10
35.999999463558197
20
-127.50000090897082
10
35.999999463558197
20
-134.50000090897083
42
0.41421356237308554
10
37.499999463558197
20
-136.00000090897083
10
52.499999463558197
20
-136.00000090897083
42
0.4142135623730846
10
53.999999463558197
20
-134.50000090897083
10
53.999999463558197
20
-127.50000090897082
42
0.4142135623730846
10
52.499999463558197
20
-126.00000090897083
0
LWPOLYLINE
5
131
100
AcDbEntity
8
0
100
AcDbPolyline
90
8
70
1
43
0.0
10
12.499999463558197
20
-116.00000090897083
10
27.499999463558193
20
-116.00000090897083
42
0.4142135623730846
10
28.999999463558197
20
-114.50000090897085
10
28.999999463558197
20
-107.50000090897082
42
0.4142135623730846
10
27.499999463558193
20
-106.00000090897083
10
12.499999463558197
20
-106.00000090897083
42
0.41421356237308554
10
10.999999463558199
20
-107.50000090897082
10
10.999999463558199
20
-114.50000090897085
42
0.41421356237308554
0
LWPOLYLINE
5
132
100
AcDbEntity
8
0
100
AcDbPolyline
90
8
70
1
43
0.0
10
35.999999463558197
20
-107.50000090897082
10
35.999999463558197
20
-114.50000090897085
42
0.41421356237308554
10
37.499999463558197
20
-116.00000090897083
10
52.499999463558197
20
-116.00000090897083
42
0.4142135623730846
10
53.999999463558197
20
-114.50000090897085
10
53.999999463558197
20
-107.50000090897082
42
0.4142135623730846
10
52.499999463558197
20
-106.00000090897083
10
37.499999463558197
20
-106.00000090897083
42
0.41421356237308554
0
LWPOLYLINE
5
133
100
AcDbEntity
8
0
100
AcDbPolyline
90
8
70
1
43
0.0
10
37.499999463558197
20
-86.000000908970833
42
0.41421356237308554
10
35.999999463558197
20
-87.500000908970819
10
35.999999463558197
20
-94.500000908970847
42
0.41421356237308554
10
37.499999463558197
20
-96.000000908970833
10
52.499999463558197
20
-96.000000908970833
42
0.4142135623730846
10
53.999999463558197
20
-94.500000908970847
10
53.999999463558197
20
-87.500000908970819
42
0.4142135623730846
10
52.499999463558197
20
-86.000000908970833
0
LWPOLYLINE
5
134
100
AcDbEntity
8
0
100
AcDbPolyline
90
4
70
1
43
0.0
10
-37.500000670552254
20
-157.50000223517418
10
-52.500000670552254
20
-157.50000223517418
10
-52.500000670552254
20
-142.50000223517418
10
-37.500000670552254
20
-142.50000223517418
0
LINE
5
135
100
AcDbEntity
8
0
100
AcDbLine
10
-37.500000670552254
20
-157.50000223517418
30
0
11
-52.500000670552254
21
-142.50000223517418
31
0
0
LINE
5
136
100
AcDbEntity
8
0
100
AcDbLine
10
-52.500000670552254
20
-157.50000223517418
30
0
11
-37.500000670552254
21
-142.50000223517418
31
0
0
LWPOLYLINE
5
137
100
AcDbEntity
8
0
100
AcDbPolyline
90
3
70
1
43
0.0
10
-27.500000670552254
20
-157.50000223517418
10
-27.500000670552254
20
-142.50000223517418
10
-12.500000670552254
20
-142.50000223517418
0
LINE
5
138
100
AcDbEntity
8
0
100
AcDbLine
10
-12.500000670552254
20
-157.50000223517418
30
0
11
-27.500000670552254
21
-142.50000223517418
31
0
0
LINE
5
139
100
AcDbEntity
8
0
100
AcDbLine
10
-12.500000670552254
20
-142.50000223517418
30
0
11
-12.500000670552254
21
-157.50000223517418
31
0
0
LINE
5
140
100
AcDbEntity
8
0
100
AcDbLine
10
-12.500000670552254
20
-157.50000223517418
30
0
11
-27.500000670552254
21
-157.50000223517418
31
0
0
LWPOLYLINE
5
141
100
AcDbEntity
8
0
100
AcDbPolyline
90
4
70
1
43
0.0
10
52.499999329447746
20
-157.50000223517418
10
37.499999329447746
20
-142.50000223517418
10
52.499999329447746
20
-142.50000223517418
10
37.499999329447746
20
-157.50000223517418
0
LWPOLYLINE
5
142
100
AcDbEntity
8
0
100
AcDbPolyline
90
3
70
1
43
0.0
10
12.499999329447746
20
-142.50000223517418
10
12.499999329447746
20
-157.50000223517418
10
27.499999329447746
20
-157.50000223517418
0
LINE
5
143
100
AcDbEntity
8
0
100
AcDbLine
10
52.499999329447746
20
-157.50000223517418
30
0
11
52.499999329447746
21
-142.50000223517418
31
0
0
LINE
5
144
100
AcDbEntity
8
0
100
AcDbLine
10
12.499999329447746
20
-157.50000223517418
30
0
11
27.499999329447746
21
-142.50000223517418
31
0
0
LINE
5
145
100
AcDbEntity
8
0
100
AcDbLine
10
27.499999329447746
20
-157.50000223517418
30
0
11
27.499999329447746
21
-142.50000223517418
31
0
0
LINE
5
146
100
AcDbEntity
8
0
100
AcDbLine
10
27.499999329447746
20
-142.50000223517418
30
0
11
12.499999329447746
21
-142.50000223517418
31
0
0
LINE
5
147
100
AcDbEntity
8
0
100
AcDbLine
10
37.499999329447746
20
-142.50000223517418
30
0
11
37.499999329447746
21
-157.50000223517418
31
0
0
CIRCLE
5
148
100
AcDbEntity
8
0
100
AcDbCircle
10
-45.000000670552254
20
-150.00000223517418
30
0
40
7.5
210
0
220
0
230
1
0
CIRCLE
5
149
100
AcDbEntity
8
0
100
AcDbCircle
10
-20.000000670552254
20
-150.00000223517418
30
0
40
7.5
210
0
220
0
230
1
0
CIRCLE
5
150
100
AcDbEntity
8
0
100
AcDbCircle
10
19.999999329447746
20
-150.00000223517418
30
0
40
7.5
210
0
220
0
230
1
0
CIRCLE
5
151
100
AcDbEntity
8
0
100
AcDbCircle
10
44.999999329447746
20
-150.00000223517418
30
0
40
7.5
210
0
220
0
230
1
0
LINE
5
152
100
AcDbEntity
8
0
100
AcDbLine
10
0
20
40
30
0
11
0
21
-68.190934732097446
31
0
0
CIRCLE
5
153
100
AcDbEntity
8
0
100
AcDbCircle
10
45.174287678873739
20
14.014033559308663
30
0
40
11
210
0
220
0
230
1
0
CIRCLE
5
154
100
AcDbEntity
8
0
100
AcDbCircle
10
32.853780482824845
20
-45.685378650289366
30
0
40
11.000000000000004
210
0
220
0
230
1
0
LWPOLYLINE
5
155
100
AcDbEntity
8
0
100
AcDbPolyline
90
8
70
1
43
0.0
10
9.5
20
8.0140335593086629
10
-9.5000000000000018
20
8.0140335593086629
42
-0.41421356237309481
10
-11
20
9.5140335593086629
10
-11
20
18.514033559308665
42
-0.41421356237309548
10
-9.5
20
20.014033559308665
10
9.5
20
20.014033559308665
42
-0.41421356237309531
10
11
20
18.514033559308665
10
11
20
9.5140335593086629
42
-0.41421356237309437
0
LINE
5
156
100
AcDbEntity
8
0
100
AcDbLine
10
11
20
8.0140335593086629
30
0
11
-11
21
20.014033559308665
31
0
0
LINE
5
157
100
AcDbEntity
8
0
100
AcDbLine
10
-11
20
8.0140335593086629
30
0
11
11
21
20.014033559308665
31
0
0
LWPOLYLINE
5
158
100
AcDbEntity
8
0
100
AcDbPolyline
90
8
70
1
43
0.0
10
-11
20
-50.485966440691342
10
-11
20
-41.485966440691335
42
-0.41421356237309548
10
-9.5
20
-39.985966440691335
10
9.5
20
-39.985966440691335
42
-0.41421356237309531
10
11
20
-41.485966440691335
10
10.999999999999995
20
-50.485966440691342
42
-0.41421356237309481
10
9.5
20
-51.985966440691335
10
-9.5000000000000018
20
-51.985966440691342
42
-0.41421356237309481
0
LINE
5
159
100
AcDbEntity
8
0
100
AcDbLine
10
-11
20
-51.985966440691335
30
0
11
11
21
-39.985966440691335
31
0
0
LINE
5
160
100
AcDbEntity
8
0
100
AcDbLine
10
11
20
-51.985966440691335
30
0
11
-11
21
-39.985966440691335
31
0
0
ENDSEC
0
SECTION
2
OBJECTS
0
DICTIONARY
5
C
100
AcDbDictionary
3
ACAD_GROUP
350
D
3
ACAD_MLINESTYLE
350
17
0
DICTIONARY
5
D
100
AcDbDictionary
0
DICTIONARY
5
1A
330
C
100
AcDbDictionary
0
DICTIONARY
5
17
100
AcDbDictionary
0
ENDSEC
0
EOF
