0
SECTION
2
HEADER
9
$INSUNITS
70
4
9
$ACADVER
1
AC1014
9
$HANDSEED
5
FFFF
0
ENDSEC
0
SECTION
2
TABLES
0
TABLE
2
VPORT
5
8
100
AcDbSymbolTable
0
ENDTAB
0
TABLE
2
LTYPE
5
5
100
AcDbSymbolTable
0
LTYPE
5
14
100
AcDbSymbolTableRecord
100
AcDbLinetypeTableRecord
2
BYBLOCK
70
0
0
LTYPE
5
15
100
AcDbSymbolTableRecord
100
AcDbLinetypeTableRecord
2
BYLAYER
70
0
0
ENDTAB
0
TABLE
2
LAYER
5
2
100
AcDbSymbolTable
70
2
0
LAYER
5
50
100
AcDbSymbolTableRecord
100
AcDbLayerTableRecord
2
0
70
0
6
CONTINUOUS
0
ENDTAB
0
TABLE
2
STYLE
5
3
100
AcDbSymbolTable
70
1
0
STYLE
5
11
100
AcDbSymbolTableRecord
100
AcDbTextStyleTableRecord
2
STANDARD
70
0
0
ENDTAB
0
TABLE
2
VIEW
5
6
100
AcDbSymbolTable
70
0
0
ENDTAB
0
TABLE
2
UCS
5
7
100
AcDbSymbolTable
70
0
0
ENDTAB
0
TABLE
2
APPID
5
9
100
AcDbSymbolTable
70
2
0
APPID
5
12
100
AcDbSymbolTableRecord
100
AcDbRegAppTableRecord
2
ACAD
70
0
0
ENDTAB
0
TABLE
2
DIMSTYLE
5
A
100
AcDbSymbolTable
70
1
0
ENDTAB
0
TABLE
2
BLOCK_RECORD
5
1
100
AcDbSymbolTable
70
1
0
BLOCK_RECORD
5
1F
100
AcDbSymbolTableRecord
100
AcDbBlockTableRecord
2
*MODEL_SPACE
0
BLOCK_RECORD
5
1B
100
AcDbSymbolTableRecord
100
AcDbBlockTableRecord
2
*PAPER_SPACE
0
ENDTAB
0
ENDSEC
0
SECTION
2
BLOCKS
0
BLOCK
5
20
100
AcDbEntity
100
AcDbBlockBegin
2
*MODEL_SPACE
0
ENDBLK
5
21
100
AcDbEntity
100
AcDbBlockEnd
0
BLOCK
5
1C
100
AcDbEntity
100
AcDbBlockBegin
2
*PAPER_SPACE
0
ENDBLK
5
1D
100
AcDbEntity
100
AcDbBlockEnd
0
ENDSEC
0
SECTION
2
ENTITIES
0
LWPOLYLINE
5
100
100
AcDbEntity
8
0
100
AcDbPolyline
90
4
70
1
43
0.0
10
-44.448676652920945
20
-12.125533579198331
10
-22.712676652920941
20
-12.125533579198331
10
-22.712676652920941
20
-22.987533579198335
10
-44.448676652920945
20
-22.987533579198335
0
LWPOLYLINE
5
101
100
AcDbEntity
8
0
100
AcDbPolyline
90
8
70
1
43
0.0
10
-14.353089866979163
20
-7.0565335791983355
42
0.41421356237309503
10
-16.853089866979161
20
-4.5565335791983355
10
-44.353089866979161
20
-4.5565335791983355
42
0.41421356237309503
10
-46.853089866979161
20
-7.0565335791983408
10
-46.853089866979161
20
-28.056533579198323
42
0.41421356237309503
10
-44.353089866979161
20
-30.556533579198323
10
-16.853089866979161
20
-30.556533579198323
42
0.41421356237309503
10
-14.353089866979163
20
-28.056533579198323
0
LWPOLYLINE
5
102
100
AcDbEntity
8
0
100
AcDbPolyline
90
8
70
1
43
0.0
10
-14.353089866979168
20
-7.0565335791983399
42
0.41421356237309553
10
-16.853089866979168
20
-4.5565335791983355
10
-44.353089866979161
20
-4.5565335791983355
42
0.41421356237309503
10
-46.853089866979161
20
-7.0565335791983408
10
-46.853089866979161
20
-28.056533579198316
42
0.41421356237309609
10
-44.353089866979161
20
-30.556533579198323
10
-16.853089866979168
20
-30.556533579198323
42
0.41421356237309609
10
-14.353089866979168
20
-28.056533579198316
0
CIRCLE
5
103
100
AcDbEntity
8
0
100
AcDbCircle
10
-44.977724361317712
20
-6.4827182292298149
30
0
40
1.077032937353338
210
0
220
0
230
1
0
LINE
5
104
100
AcDbEntity
8
0
100
AcDbLine
10
-14.353089866979168
20
-17.556533579198337
30
0
11
-50.853092176659153
21
-17.55653357919833
31
0
0
LWPOLYLINE
5
105
100
AcDbEntity
8
0
100
AcDbPolyline
90
4
70
1
43
0.0
10
-22.712676652920941
20
-22.987533579198335
10
-44.448676652920945
20
-22.987533579198335
10
-44.448676652920945
20
-12.125533579198331
10
-22.712676652920941
20
-12.125533579198331
0
CIRCLE
5
106
100
AcDbEntity
8
0
100
AcDbCircle
10
-44.977724361317712
20
-28.482718229229814
30
0
40
1.077032937353338
210
0
220
0
230
1
0
LINE
5
107
100
AcDbEntity
8
0
100
AcDbLine
10
-14.353089866979168
20
-17.556533579198337
30
0
11
-50.853092176659153
21
-17.55653357919833
31
0
0
CIRCLE
5
108
100
AcDbEntity
8
0
100
AcDbCircle
10
-16.477724361317712
20
-28.482718229229814
30
0
40
1.077032937353338
210
0
220
0
230
1
0
CIRCLE
5
109
100
AcDbEntity
8
0
100
AcDbCircle
10
-44.977724361317712
20
-28.482718229229814
30
0
40
1.077032937353338
210
0
220
0
230
1
0
CIRCLE
5
110
100
AcDbEntity
8
0
100
AcDbCircle
10
-16.477724361317712
20
-6.4827182292298149
30
0
40
1.077032937353338
210
0
220
0
230
1
0
CIRCLE
5
111
100
AcDbEntity
8
0
100
AcDbCircle
10
-16.477724361317712
20
-28.482718229229814
30
0
40
1.077032937353338
210
0
220
0
230
1
0
CIRCLE
5
112
100
AcDbEntity
8
0
100
AcDbCircle
10
-16.477724361317712
20
-6.4827182292298149
30
0
40
1.077032937353338
210
0
220
0
230
1
0
CIRCLE
5
113
100
AcDbEntity
8
0
100
AcDbCircle
10
-44.977724361317712
20
-6.4827182292298149
30
0
40
1.077032937353338
210
0
220
0
230
1
0
LINE
5
114
100
AcDbEntity
8
0
100
AcDbLine
10
-1.1352112676056327
20
15
30
0
11
-1.1352112676056327
21
-45
31
0
0
LWPOLYLINE
5
115
100
AcDbEntity
8
0
100
AcDbPolyline
90
8
70
1
43
0.0
10
12.082667331767896
20
-7.0565335791983355
10
12.082667331767896
20
-28.056533579198323
42
0.41421356237309503
10
14.582667331767896
20
-30.556533579198323
10
42.082667331767894
20
-30.556533579198323
42
0.41421356237309503
10
44.582667331767894
20
-28.056533579198323
10
44.582667331767894
20
-7.0565335791983399
42
0.41421356237309503
10
42.082667331767894
20
-4.5565335791983355
10
14.582667331767896
20
-4.5565335791983355
42
0.41421356237309503
0
LWPOLYLINE
5
116
100
AcDbEntity
8
0
100
AcDbPolyline
90
8
70
1
43
0.0
10
44.582667331767894
20
-28.056533579198316
10
44.582667331767894
20
-7.0565335791983399
42
0.41421356237309503
10
42.082667331767894
20
-4.5565335791983355
10
14.582667331767901
20
-4.5565335791983355
42
0.41421356237309553
10
12.082667331767901
20
-7.0565335791983399
10
12.082667331767901
20
-28.056533579198316
42
0.41421356237309609
10
14.582667331767901
20
-30.556533579198323
10
42.082667331767894
20
-30.556533579198323
42
0.41421356237309609
0
CIRCLE
5
117
100
AcDbEntity
8
0
100
AcDbCircle
10
42.707301826106445
20
-6.4827182292298149
30
0
40
1.077032937353338
210
0
220
0
230
1
0
LWPOLYLINE
5
118
100
AcDbEntity
8
0
100
AcDbPolyline
90
4
70
1
43
0.0
10
20.442254117709673
20
-12.125533579198331
10
20.442254117709673
20
-22.987533579198335
10
42.178254117709677
20
-22.987533579198335
10
42.178254117709677
20
-12.125533579198331
0
CIRCLE
5
119
100
AcDbEntity
8
0
100
AcDbCircle
10
14.207301826106447
20
-6.4827182292298149
30
0
40
1.077032937353338
210
0
220
0
230
1
0
LWPOLYLINE
5
120
100
AcDbEntity
8
0
100
AcDbPolyline
90
4
70
1
43
0.0
10
42.178254117709677
20
-22.987533579198335
10
42.178254117709677
20
-12.125533579198331
10
20.442254117709673
20
-12.125533579198331
10
20.442254117709673
20
-22.987533579198335
0
CIRCLE
5
121
100
AcDbEntity
8
0
100
AcDbCircle
10
14.207301826106447
20
-6.4827182292298149
30
0
40
1.077032937353338
210
0
220
0
230
1
0
CIRCLE
5
122
100
AcDbEntity
8
0
100
AcDbCircle
10
42.707301826106445
20
-6.4827182292298149
30
0
40
1.077032937353338
210
0
220
0
230
1
0
CIRCLE
5
123
100
AcDbEntity
8
0
100
AcDbCircle
10
14.207301826106447
20
-28.482718229229814
30
0
40
1.077032937353338
210
0
220
0
230
1
0
CIRCLE
5
124
100
AcDbEntity
8
0
100
AcDbCircle
10
14.207301826106447
20
-28.482718229229814
30
0
40
1.077032937353338
210
0
220
0
230
1
0
CIRCLE
5
125
100
AcDbEntity
8
0
100
AcDbCircle
10
42.707301826106445
20
-28.482718229229814
30
0
40
1.077032937353338
210
0
220
0
230
1
0
CIRCLE
5
126
100
AcDbEntity
8
0
100
AcDbCircle
10
42.707301826106445
20
-28.482718229229814
30
0
40
1.077032937353338
210
0
220
0
230
1
0
ENDSEC
0
SECTION
2
OBJECTS
0
DICTIONARY
5
C
100
AcDbDictionary
3
ACAD_GROUP
350
D
3
ACAD_MLINESTYLE
350
17
0
DICTIONARY
5
D
100
AcDbDictionary
0
DICTIONARY
5
1A
330
C
100
AcDbDictionary
0
DICTIONARY
5
17
100
AcDbDictionary
0
ENDSEC
0
EOF
