M48
; DRILL file {KiCad 9.0.0} date 2025-03-12T03:42:05+0100
; FORMAT={-:-/ absolute / metric / decimal}
; #@! TF.CreationDate,2025-03-12T03:42:05+01:00
; #@! TF.GenerationSoftware,Kicad,Pcbnew,9.0.0
; #@! TF.FileFunction,Plated,1,2,PTH
FMAT,2
METRIC
; #@! TA.AperFunction,Plated,PTH,ViaDrill
T1C0.300
; #@! TA.AperFunction,Plated,PTH,ComponentDrill
T2C1.000
%
G90
G05
T1
X-47.041Y34.976
X-46.406Y-15.189
X-45.263Y-14.173
X-45.263Y-21.158
X-44.501Y-27.762
X-38.151Y-10.744
X-37.77Y14.148
X-37.77Y-35.89
X-37.643Y40.945
X-37.516Y12.37
X-37.516Y-12.649
X-37.389Y37.516
X-37.389Y-37.668
X-37.389Y-40.716
X-36.627Y15.799
X-36.627Y-1.981
X-36.5Y-15.824
X-36.246Y21.006
X-36.246Y-9.093
X-35.992Y-33.985
X-34.722Y-3.632
X-34.468Y-28.905
X-34.341Y12.243
X-34.214Y37.643
X-33.96Y-12.776
X-33.452Y36.754
X-32.055Y-2.108
X-30.15Y-20.015
X-29.896Y-17.348
X-29.769Y-14.935
X-29.388Y-10.363
X-29.261Y15.164
X-29.007Y35.357
X-28.753Y-40.716
X-28.118Y14.148
X-28.118Y-0.711
X-28.118Y-19.888
X-27.864Y39.421
X-26.975Y-7.061
X-22.53Y-17.784
X-22.149Y3.099
X-22.149Y-0.203
X-22.149Y-14.554
X-21.641Y-29.54
X-21.26Y-4.648
X-20.625Y32.817
X-18.212Y20.498
X-12.878Y14.148
X-12.751Y39.167
X-12.751Y-8.966
X-12.751Y-10.49
X-12.751Y-35.89
X-12.624Y-37.795
X-12.497Y37.389
X-12.497Y12.37
X-12.497Y-12.522
X-12.116Y40.945
X-11.735Y-33.858
X-11.481Y15.926
X-9.83Y2.337
X-9.83Y-2.362
X-9.703Y37.389
X-9.703Y-12.649
X-9.068Y-37.668
X-8.814Y12.497
X-6.401Y6.274
X-6.401Y-5.791
X-5.258Y-5.791
X-5.131Y-2.743
X-5.004Y-0.838
X-4.877Y-14.681
X-3.988Y-5.791
X-3.861Y-4.648
X-3.48Y2.21
X-3.353Y17.831
X-3.353Y14.021
X-3.226Y39.675
X-3.226Y-14.3
X-3.099Y-11.324
X-2.21Y-35.255
X-1.702Y17.069
X-1.321Y-20.015
X-0.051Y-14.427
X0.076Y14.275
X0.076Y0.178
X0.203Y19.609
X1.092Y-5.029
X1.981Y14.021
X1.981Y0.178
X3.378Y-28.651
X3.759Y19.101
X4.648Y-13.411
X4.902Y-5.029
X5.41Y28.626
X7.442Y-19.181
X8.585Y0.305
X8.585Y-5.326
X12.014Y14.148
X12.014Y-11.379
X12.141Y-9.22
X12.141Y-35.89
X12.395Y39.167
X12.395Y12.37
X12.522Y37.389
X12.522Y-12.649
X12.649Y-37.668
X12.776Y-33.858
X13.284Y16.053
X13.284Y-10.744
X13.665Y40.691
X14.3Y-40.589
X16.078Y37.516
X16.078Y-12.649
X16.205Y12.497
X20.396Y2.591
X20.396Y0.051
X20.523Y-9.728
X20.65Y-41.097
X20.777Y-15.443
X21.412Y14.529
X21.793Y39.548
X22.047Y0.178
X22.047Y-18.618
X26.873Y-9.982
X27.889Y-29.159
X28.905Y-4.775
X35.382Y2.972
X35.509Y9.195
X35.763Y34.087
X35.763Y28.753
X35.89Y-15.824
X36.144Y-21.412
X37.033Y-10.871
X37.16Y14.148
X37.16Y-35.89
X37.287Y39.167
X37.795Y40.945
X37.795Y15.799
X37.795Y-8.966
X37.795Y-33.985
X38.303Y-12.522
X38.43Y33.96
X39.065Y-37.795
X40.716Y12.497
X41.605Y2.845
X41.605Y-4.394
X44.653Y32.309
X45.288Y16.815
X45.288Y-10.236
X45.923Y-9.474
X46.939Y-39.954
T2
X-28.8Y25.0
X-26.26Y25.0
X-23.72Y25.0
X-21.18Y25.0
X-3.82Y25.0
X-1.28Y25.0
X1.26Y25.0
X3.8Y25.0
M30
