%TF.GenerationSoftware,KiCad,Pcbnew,9.0.6*%
%TF.CreationDate,2025-11-10T17:27:44+01:00*%
%TF.ProjectId,FX-Pads,46582d50-6164-4732-9e6b-696361645f70,rev?*%
%TF.SameCoordinates,PX5f5e100PY5f5e100*%
%TF.FileFunction,Legend,Bot*%
%TF.FilePolarity,Positive*%
%FSLAX46Y46*%
G04 Gerber Fmt 4.6, Leading zero omitted, Abs format (unit mm)*
G04 Created by KiCad (PCBNEW 9.0.6) date 2025-11-10 17:27:44*
%MOMM*%
%LPD*%
G01*
G04 APERTURE LIST*
%ADD10C,0.200000*%
%ADD11C,0.150000*%
%ADD12C,0.120000*%
G04 APERTURE END LIST*
D10*
X-2786055Y35156400D02*
X-2928912Y35108781D01*
X-2928912Y35108781D02*
X-3167007Y35108781D01*
X-3167007Y35108781D02*
X-3262245Y35156400D01*
X-3262245Y35156400D02*
X-3309864Y35204020D01*
X-3309864Y35204020D02*
X-3357483Y35299258D01*
X-3357483Y35299258D02*
X-3357483Y35394496D01*
X-3357483Y35394496D02*
X-3309864Y35489734D01*
X-3309864Y35489734D02*
X-3262245Y35537353D01*
X-3262245Y35537353D02*
X-3167007Y35584972D01*
X-3167007Y35584972D02*
X-2976531Y35632591D01*
X-2976531Y35632591D02*
X-2881293Y35680210D01*
X-2881293Y35680210D02*
X-2833674Y35727829D01*
X-2833674Y35727829D02*
X-2786055Y35823067D01*
X-2786055Y35823067D02*
X-2786055Y35918305D01*
X-2786055Y35918305D02*
X-2833674Y36013543D01*
X-2833674Y36013543D02*
X-2881293Y36061162D01*
X-2881293Y36061162D02*
X-2976531Y36108781D01*
X-2976531Y36108781D02*
X-3214626Y36108781D01*
X-3214626Y36108781D02*
X-3357483Y36061162D01*
X-3690817Y36108781D02*
X-4309864Y36108781D01*
X-4309864Y36108781D02*
X-3976531Y35727829D01*
X-3976531Y35727829D02*
X-4119388Y35727829D01*
X-4119388Y35727829D02*
X-4214626Y35680210D01*
X-4214626Y35680210D02*
X-4262245Y35632591D01*
X-4262245Y35632591D02*
X-4309864Y35537353D01*
X-4309864Y35537353D02*
X-4309864Y35299258D01*
X-4309864Y35299258D02*
X-4262245Y35204020D01*
X-4262245Y35204020D02*
X-4214626Y35156400D01*
X-4214626Y35156400D02*
X-4119388Y35108781D01*
X-4119388Y35108781D02*
X-3833674Y35108781D01*
X-3833674Y35108781D02*
X-3738436Y35156400D01*
X-3738436Y35156400D02*
X-3690817Y35204020D01*
X-22734550Y22697581D02*
X-22925026Y22697581D01*
X-22925026Y22697581D02*
X-23020264Y22649962D01*
X-23020264Y22649962D02*
X-23115502Y22554724D01*
X-23115502Y22554724D02*
X-23163121Y22364248D01*
X-23163121Y22364248D02*
X-23163121Y22030915D01*
X-23163121Y22030915D02*
X-23115502Y21840439D01*
X-23115502Y21840439D02*
X-23020264Y21745200D01*
X-23020264Y21745200D02*
X-22925026Y21697581D01*
X-22925026Y21697581D02*
X-22734550Y21697581D01*
X-22734550Y21697581D02*
X-22639312Y21745200D01*
X-22639312Y21745200D02*
X-22544074Y21840439D01*
X-22544074Y21840439D02*
X-22496455Y22030915D01*
X-22496455Y22030915D02*
X-22496455Y22364248D01*
X-22496455Y22364248D02*
X-22544074Y22554724D01*
X-22544074Y22554724D02*
X-22639312Y22649962D01*
X-22639312Y22649962D02*
X-22734550Y22697581D01*
X-23591693Y22697581D02*
X-23591693Y21888058D01*
X-23591693Y21888058D02*
X-23639312Y21792820D01*
X-23639312Y21792820D02*
X-23686931Y21745200D01*
X-23686931Y21745200D02*
X-23782169Y21697581D01*
X-23782169Y21697581D02*
X-23972645Y21697581D01*
X-23972645Y21697581D02*
X-24067883Y21745200D01*
X-24067883Y21745200D02*
X-24115502Y21792820D01*
X-24115502Y21792820D02*
X-24163121Y21888058D01*
X-24163121Y21888058D02*
X-24163121Y22697581D01*
X-24496455Y22697581D02*
X-25067883Y22697581D01*
X-24782169Y21697581D02*
X-24782169Y22697581D01*
X2293945Y35156400D02*
X2151088Y35108781D01*
X2151088Y35108781D02*
X1912993Y35108781D01*
X1912993Y35108781D02*
X1817755Y35156400D01*
X1817755Y35156400D02*
X1770136Y35204020D01*
X1770136Y35204020D02*
X1722517Y35299258D01*
X1722517Y35299258D02*
X1722517Y35394496D01*
X1722517Y35394496D02*
X1770136Y35489734D01*
X1770136Y35489734D02*
X1817755Y35537353D01*
X1817755Y35537353D02*
X1912993Y35584972D01*
X1912993Y35584972D02*
X2103469Y35632591D01*
X2103469Y35632591D02*
X2198707Y35680210D01*
X2198707Y35680210D02*
X2246326Y35727829D01*
X2246326Y35727829D02*
X2293945Y35823067D01*
X2293945Y35823067D02*
X2293945Y35918305D01*
X2293945Y35918305D02*
X2246326Y36013543D01*
X2246326Y36013543D02*
X2198707Y36061162D01*
X2198707Y36061162D02*
X2103469Y36108781D01*
X2103469Y36108781D02*
X1865374Y36108781D01*
X1865374Y36108781D02*
X1722517Y36061162D01*
X770136Y35108781D02*
X1341564Y35108781D01*
X1055850Y35108781D02*
X1055850Y36108781D01*
X1055850Y36108781D02*
X1151088Y35965924D01*
X1151088Y35965924D02*
X1246326Y35870686D01*
X1246326Y35870686D02*
X1341564Y35823067D01*
X-28351083Y22599162D02*
X-28255845Y22646781D01*
X-28255845Y22646781D02*
X-28112988Y22646781D01*
X-28112988Y22646781D02*
X-27970131Y22599162D01*
X-27970131Y22599162D02*
X-27874893Y22503924D01*
X-27874893Y22503924D02*
X-27827274Y22408686D01*
X-27827274Y22408686D02*
X-27779655Y22218210D01*
X-27779655Y22218210D02*
X-27779655Y22075353D01*
X-27779655Y22075353D02*
X-27827274Y21884877D01*
X-27827274Y21884877D02*
X-27874893Y21789639D01*
X-27874893Y21789639D02*
X-27970131Y21694400D01*
X-27970131Y21694400D02*
X-28112988Y21646781D01*
X-28112988Y21646781D02*
X-28208226Y21646781D01*
X-28208226Y21646781D02*
X-28351083Y21694400D01*
X-28351083Y21694400D02*
X-28398702Y21742020D01*
X-28398702Y21742020D02*
X-28398702Y22075353D01*
X-28398702Y22075353D02*
X-28208226Y22075353D01*
X-28827274Y21646781D02*
X-28827274Y22646781D01*
X-28827274Y22646781D02*
X-29398702Y21646781D01*
X-29398702Y21646781D02*
X-29398702Y22646781D01*
X-29874893Y21646781D02*
X-29874893Y22646781D01*
X-29874893Y22646781D02*
X-30112988Y22646781D01*
X-30112988Y22646781D02*
X-30255845Y22599162D01*
X-30255845Y22599162D02*
X-30351083Y22503924D01*
X-30351083Y22503924D02*
X-30398702Y22408686D01*
X-30398702Y22408686D02*
X-30446321Y22218210D01*
X-30446321Y22218210D02*
X-30446321Y22075353D01*
X-30446321Y22075353D02*
X-30398702Y21884877D01*
X-30398702Y21884877D02*
X-30351083Y21789639D01*
X-30351083Y21789639D02*
X-30255845Y21694400D01*
X-30255845Y21694400D02*
X-30112988Y21646781D01*
X-30112988Y21646781D02*
X-29874893Y21646781D01*
X-25592074Y21697581D02*
X-25592074Y22697581D01*
X-25592074Y22697581D02*
X-26163502Y21697581D01*
X-26163502Y21697581D02*
X-26163502Y22697581D01*
X-26639693Y21697581D02*
X-26639693Y22697581D01*
X-26639693Y22697581D02*
X-27020645Y22697581D01*
X-27020645Y22697581D02*
X-27115883Y22649962D01*
X-27115883Y22649962D02*
X-27163502Y22602343D01*
X-27163502Y22602343D02*
X-27211121Y22507105D01*
X-27211121Y22507105D02*
X-27211121Y22364248D01*
X-27211121Y22364248D02*
X-27163502Y22269010D01*
X-27163502Y22269010D02*
X-27115883Y22221391D01*
X-27115883Y22221391D02*
X-27020645Y22173772D01*
X-27020645Y22173772D02*
X-26639693Y22173772D01*
X-246055Y35156400D02*
X-388912Y35108781D01*
X-388912Y35108781D02*
X-627007Y35108781D01*
X-627007Y35108781D02*
X-722245Y35156400D01*
X-722245Y35156400D02*
X-769864Y35204020D01*
X-769864Y35204020D02*
X-817483Y35299258D01*
X-817483Y35299258D02*
X-817483Y35394496D01*
X-817483Y35394496D02*
X-769864Y35489734D01*
X-769864Y35489734D02*
X-722245Y35537353D01*
X-722245Y35537353D02*
X-627007Y35584972D01*
X-627007Y35584972D02*
X-436531Y35632591D01*
X-436531Y35632591D02*
X-341293Y35680210D01*
X-341293Y35680210D02*
X-293674Y35727829D01*
X-293674Y35727829D02*
X-246055Y35823067D01*
X-246055Y35823067D02*
X-246055Y35918305D01*
X-246055Y35918305D02*
X-293674Y36013543D01*
X-293674Y36013543D02*
X-341293Y36061162D01*
X-341293Y36061162D02*
X-436531Y36108781D01*
X-436531Y36108781D02*
X-674626Y36108781D01*
X-674626Y36108781D02*
X-817483Y36061162D01*
X-1198436Y36013543D02*
X-1246055Y36061162D01*
X-1246055Y36061162D02*
X-1341293Y36108781D01*
X-1341293Y36108781D02*
X-1579388Y36108781D01*
X-1579388Y36108781D02*
X-1674626Y36061162D01*
X-1674626Y36061162D02*
X-1722245Y36013543D01*
X-1722245Y36013543D02*
X-1769864Y35918305D01*
X-1769864Y35918305D02*
X-1769864Y35823067D01*
X-1769864Y35823067D02*
X-1722245Y35680210D01*
X-1722245Y35680210D02*
X-1150817Y35108781D01*
X-1150817Y35108781D02*
X-1769864Y35108781D01*
X-19353217Y22697581D02*
X-19686550Y21697581D01*
X-19686550Y21697581D02*
X-20019883Y22697581D01*
X-20924645Y21792820D02*
X-20877026Y21745200D01*
X-20877026Y21745200D02*
X-20734169Y21697581D01*
X-20734169Y21697581D02*
X-20638931Y21697581D01*
X-20638931Y21697581D02*
X-20496074Y21745200D01*
X-20496074Y21745200D02*
X-20400836Y21840439D01*
X-20400836Y21840439D02*
X-20353217Y21935677D01*
X-20353217Y21935677D02*
X-20305598Y22126153D01*
X-20305598Y22126153D02*
X-20305598Y22269010D01*
X-20305598Y22269010D02*
X-20353217Y22459486D01*
X-20353217Y22459486D02*
X-20400836Y22554724D01*
X-20400836Y22554724D02*
X-20496074Y22649962D01*
X-20496074Y22649962D02*
X-20638931Y22697581D01*
X-20638931Y22697581D02*
X-20734169Y22697581D01*
X-20734169Y22697581D02*
X-20877026Y22649962D01*
X-20877026Y22649962D02*
X-20924645Y22602343D01*
X-21924645Y21792820D02*
X-21877026Y21745200D01*
X-21877026Y21745200D02*
X-21734169Y21697581D01*
X-21734169Y21697581D02*
X-21638931Y21697581D01*
X-21638931Y21697581D02*
X-21496074Y21745200D01*
X-21496074Y21745200D02*
X-21400836Y21840439D01*
X-21400836Y21840439D02*
X-21353217Y21935677D01*
X-21353217Y21935677D02*
X-21305598Y22126153D01*
X-21305598Y22126153D02*
X-21305598Y22269010D01*
X-21305598Y22269010D02*
X-21353217Y22459486D01*
X-21353217Y22459486D02*
X-21400836Y22554724D01*
X-21400836Y22554724D02*
X-21496074Y22649962D01*
X-21496074Y22649962D02*
X-21638931Y22697581D01*
X-21638931Y22697581D02*
X-21734169Y22697581D01*
X-21734169Y22697581D02*
X-21877026Y22649962D01*
X-21877026Y22649962D02*
X-21924645Y22602343D01*
X4833945Y35156400D02*
X4691088Y35108781D01*
X4691088Y35108781D02*
X4452993Y35108781D01*
X4452993Y35108781D02*
X4357755Y35156400D01*
X4357755Y35156400D02*
X4310136Y35204020D01*
X4310136Y35204020D02*
X4262517Y35299258D01*
X4262517Y35299258D02*
X4262517Y35394496D01*
X4262517Y35394496D02*
X4310136Y35489734D01*
X4310136Y35489734D02*
X4357755Y35537353D01*
X4357755Y35537353D02*
X4452993Y35584972D01*
X4452993Y35584972D02*
X4643469Y35632591D01*
X4643469Y35632591D02*
X4738707Y35680210D01*
X4738707Y35680210D02*
X4786326Y35727829D01*
X4786326Y35727829D02*
X4833945Y35823067D01*
X4833945Y35823067D02*
X4833945Y35918305D01*
X4833945Y35918305D02*
X4786326Y36013543D01*
X4786326Y36013543D02*
X4738707Y36061162D01*
X4738707Y36061162D02*
X4643469Y36108781D01*
X4643469Y36108781D02*
X4405374Y36108781D01*
X4405374Y36108781D02*
X4262517Y36061162D01*
X3643469Y36108781D02*
X3548231Y36108781D01*
X3548231Y36108781D02*
X3452993Y36061162D01*
X3452993Y36061162D02*
X3405374Y36013543D01*
X3405374Y36013543D02*
X3357755Y35918305D01*
X3357755Y35918305D02*
X3310136Y35727829D01*
X3310136Y35727829D02*
X3310136Y35489734D01*
X3310136Y35489734D02*
X3357755Y35299258D01*
X3357755Y35299258D02*
X3405374Y35204020D01*
X3405374Y35204020D02*
X3452993Y35156400D01*
X3452993Y35156400D02*
X3548231Y35108781D01*
X3548231Y35108781D02*
X3643469Y35108781D01*
X3643469Y35108781D02*
X3738707Y35156400D01*
X3738707Y35156400D02*
X3786326Y35204020D01*
X3786326Y35204020D02*
X3833945Y35299258D01*
X3833945Y35299258D02*
X3881564Y35489734D01*
X3881564Y35489734D02*
X3881564Y35727829D01*
X3881564Y35727829D02*
X3833945Y35918305D01*
X3833945Y35918305D02*
X3786326Y36013543D01*
X3786326Y36013543D02*
X3738707Y36061162D01*
X3738707Y36061162D02*
X3643469Y36108781D01*
D11*
X-37258223Y40739982D02*
X-37210604Y40692362D01*
X-37210604Y40692362D02*
X-37067747Y40644743D01*
X-37067747Y40644743D02*
X-36972509Y40644743D01*
X-36972509Y40644743D02*
X-36829652Y40692362D01*
X-36829652Y40692362D02*
X-36734414Y40787601D01*
X-36734414Y40787601D02*
X-36686795Y40882839D01*
X-36686795Y40882839D02*
X-36639176Y41073315D01*
X-36639176Y41073315D02*
X-36639176Y41216172D01*
X-36639176Y41216172D02*
X-36686795Y41406648D01*
X-36686795Y41406648D02*
X-36734414Y41501886D01*
X-36734414Y41501886D02*
X-36829652Y41597124D01*
X-36829652Y41597124D02*
X-36972509Y41644743D01*
X-36972509Y41644743D02*
X-37067747Y41644743D01*
X-37067747Y41644743D02*
X-37210604Y41597124D01*
X-37210604Y41597124D02*
X-37258223Y41549505D01*
X-37734414Y40644743D02*
X-37924890Y40644743D01*
X-37924890Y40644743D02*
X-38020128Y40692362D01*
X-38020128Y40692362D02*
X-38067747Y40739982D01*
X-38067747Y40739982D02*
X-38162985Y40882839D01*
X-38162985Y40882839D02*
X-38210604Y41073315D01*
X-38210604Y41073315D02*
X-38210604Y41454267D01*
X-38210604Y41454267D02*
X-38162985Y41549505D01*
X-38162985Y41549505D02*
X-38115366Y41597124D01*
X-38115366Y41597124D02*
X-38020128Y41644743D01*
X-38020128Y41644743D02*
X-37829652Y41644743D01*
X-37829652Y41644743D02*
X-37734414Y41597124D01*
X-37734414Y41597124D02*
X-37686795Y41549505D01*
X-37686795Y41549505D02*
X-37639176Y41454267D01*
X-37639176Y41454267D02*
X-37639176Y41216172D01*
X-37639176Y41216172D02*
X-37686795Y41120934D01*
X-37686795Y41120934D02*
X-37734414Y41073315D01*
X-37734414Y41073315D02*
X-37829652Y41025696D01*
X-37829652Y41025696D02*
X-38020128Y41025696D01*
X-38020128Y41025696D02*
X-38115366Y41073315D01*
X-38115366Y41073315D02*
X-38162985Y41120934D01*
X-38162985Y41120934D02*
X-38210604Y41216172D01*
X-12636350Y-33733248D02*
X-12588731Y-33780868D01*
X-12588731Y-33780868D02*
X-12445874Y-33828487D01*
X-12445874Y-33828487D02*
X-12350636Y-33828487D01*
X-12350636Y-33828487D02*
X-12207779Y-33780868D01*
X-12207779Y-33780868D02*
X-12112541Y-33685629D01*
X-12112541Y-33685629D02*
X-12064922Y-33590391D01*
X-12064922Y-33590391D02*
X-12017303Y-33399915D01*
X-12017303Y-33399915D02*
X-12017303Y-33257058D01*
X-12017303Y-33257058D02*
X-12064922Y-33066582D01*
X-12064922Y-33066582D02*
X-12112541Y-32971344D01*
X-12112541Y-32971344D02*
X-12207779Y-32876106D01*
X-12207779Y-32876106D02*
X-12350636Y-32828487D01*
X-12350636Y-32828487D02*
X-12445874Y-32828487D01*
X-12445874Y-32828487D02*
X-12588731Y-32876106D01*
X-12588731Y-32876106D02*
X-12636350Y-32923725D01*
X-13207779Y-33257058D02*
X-13112541Y-33209439D01*
X-13112541Y-33209439D02*
X-13064922Y-33161820D01*
X-13064922Y-33161820D02*
X-13017303Y-33066582D01*
X-13017303Y-33066582D02*
X-13017303Y-33018963D01*
X-13017303Y-33018963D02*
X-13064922Y-32923725D01*
X-13064922Y-32923725D02*
X-13112541Y-32876106D01*
X-13112541Y-32876106D02*
X-13207779Y-32828487D01*
X-13207779Y-32828487D02*
X-13398255Y-32828487D01*
X-13398255Y-32828487D02*
X-13493493Y-32876106D01*
X-13493493Y-32876106D02*
X-13541112Y-32923725D01*
X-13541112Y-32923725D02*
X-13588731Y-33018963D01*
X-13588731Y-33018963D02*
X-13588731Y-33066582D01*
X-13588731Y-33066582D02*
X-13541112Y-33161820D01*
X-13541112Y-33161820D02*
X-13493493Y-33209439D01*
X-13493493Y-33209439D02*
X-13398255Y-33257058D01*
X-13398255Y-33257058D02*
X-13207779Y-33257058D01*
X-13207779Y-33257058D02*
X-13112541Y-33304677D01*
X-13112541Y-33304677D02*
X-13064922Y-33352296D01*
X-13064922Y-33352296D02*
X-13017303Y-33447534D01*
X-13017303Y-33447534D02*
X-13017303Y-33638010D01*
X-13017303Y-33638010D02*
X-13064922Y-33733248D01*
X-13064922Y-33733248D02*
X-13112541Y-33780868D01*
X-13112541Y-33780868D02*
X-13207779Y-33828487D01*
X-13207779Y-33828487D02*
X-13398255Y-33828487D01*
X-13398255Y-33828487D02*
X-13493493Y-33780868D01*
X-13493493Y-33780868D02*
X-13541112Y-33733248D01*
X-13541112Y-33733248D02*
X-13588731Y-33638010D01*
X-13588731Y-33638010D02*
X-13588731Y-33447534D01*
X-13588731Y-33447534D02*
X-13541112Y-33352296D01*
X-13541112Y-33352296D02*
X-13493493Y-33304677D01*
X-13493493Y-33304677D02*
X-13398255Y-33257058D01*
X37613127Y-34256765D02*
X37660746Y-34304385D01*
X37660746Y-34304385D02*
X37803603Y-34352004D01*
X37803603Y-34352004D02*
X37898841Y-34352004D01*
X37898841Y-34352004D02*
X38041698Y-34304385D01*
X38041698Y-34304385D02*
X38136936Y-34209146D01*
X38136936Y-34209146D02*
X38184555Y-34113908D01*
X38184555Y-34113908D02*
X38232174Y-33923432D01*
X38232174Y-33923432D02*
X38232174Y-33780575D01*
X38232174Y-33780575D02*
X38184555Y-33590099D01*
X38184555Y-33590099D02*
X38136936Y-33494861D01*
X38136936Y-33494861D02*
X38041698Y-33399623D01*
X38041698Y-33399623D02*
X37898841Y-33352004D01*
X37898841Y-33352004D02*
X37803603Y-33352004D01*
X37803603Y-33352004D02*
X37660746Y-33399623D01*
X37660746Y-33399623D02*
X37613127Y-33447242D01*
X37279793Y-33352004D02*
X36613127Y-33352004D01*
X36613127Y-33352004D02*
X37041698Y-34352004D01*
X12741777Y-9260018D02*
X12789396Y-9307638D01*
X12789396Y-9307638D02*
X12932253Y-9355257D01*
X12932253Y-9355257D02*
X13027491Y-9355257D01*
X13027491Y-9355257D02*
X13170348Y-9307638D01*
X13170348Y-9307638D02*
X13265586Y-9212399D01*
X13265586Y-9212399D02*
X13313205Y-9117161D01*
X13313205Y-9117161D02*
X13360824Y-8926685D01*
X13360824Y-8926685D02*
X13360824Y-8783828D01*
X13360824Y-8783828D02*
X13313205Y-8593352D01*
X13313205Y-8593352D02*
X13265586Y-8498114D01*
X13265586Y-8498114D02*
X13170348Y-8402876D01*
X13170348Y-8402876D02*
X13027491Y-8355257D01*
X13027491Y-8355257D02*
X12932253Y-8355257D01*
X12932253Y-8355257D02*
X12789396Y-8402876D01*
X12789396Y-8402876D02*
X12741777Y-8450495D01*
X11884634Y-8355257D02*
X12075110Y-8355257D01*
X12075110Y-8355257D02*
X12170348Y-8402876D01*
X12170348Y-8402876D02*
X12217967Y-8450495D01*
X12217967Y-8450495D02*
X12313205Y-8593352D01*
X12313205Y-8593352D02*
X12360824Y-8783828D01*
X12360824Y-8783828D02*
X12360824Y-9164780D01*
X12360824Y-9164780D02*
X12313205Y-9260018D01*
X12313205Y-9260018D02*
X12265586Y-9307638D01*
X12265586Y-9307638D02*
X12170348Y-9355257D01*
X12170348Y-9355257D02*
X11979872Y-9355257D01*
X11979872Y-9355257D02*
X11884634Y-9307638D01*
X11884634Y-9307638D02*
X11837015Y-9260018D01*
X11837015Y-9260018D02*
X11789396Y-9164780D01*
X11789396Y-9164780D02*
X11789396Y-8926685D01*
X11789396Y-8926685D02*
X11837015Y-8831447D01*
X11837015Y-8831447D02*
X11884634Y-8783828D01*
X11884634Y-8783828D02*
X11979872Y-8736209D01*
X11979872Y-8736209D02*
X12170348Y-8736209D01*
X12170348Y-8736209D02*
X12265586Y-8783828D01*
X12265586Y-8783828D02*
X12313205Y-8831447D01*
X12313205Y-8831447D02*
X12360824Y-8926685D01*
X-37386873Y-9256765D02*
X-37339254Y-9304385D01*
X-37339254Y-9304385D02*
X-37196397Y-9352004D01*
X-37196397Y-9352004D02*
X-37101159Y-9352004D01*
X-37101159Y-9352004D02*
X-36958302Y-9304385D01*
X-36958302Y-9304385D02*
X-36863064Y-9209146D01*
X-36863064Y-9209146D02*
X-36815445Y-9113908D01*
X-36815445Y-9113908D02*
X-36767826Y-8923432D01*
X-36767826Y-8923432D02*
X-36767826Y-8780575D01*
X-36767826Y-8780575D02*
X-36815445Y-8590099D01*
X-36815445Y-8590099D02*
X-36863064Y-8494861D01*
X-36863064Y-8494861D02*
X-36958302Y-8399623D01*
X-36958302Y-8399623D02*
X-37101159Y-8352004D01*
X-37101159Y-8352004D02*
X-37196397Y-8352004D01*
X-37196397Y-8352004D02*
X-37339254Y-8399623D01*
X-37339254Y-8399623D02*
X-37386873Y-8447242D01*
X-38291635Y-8352004D02*
X-37815445Y-8352004D01*
X-37815445Y-8352004D02*
X-37767826Y-8828194D01*
X-37767826Y-8828194D02*
X-37815445Y-8780575D01*
X-37815445Y-8780575D02*
X-37910683Y-8732956D01*
X-37910683Y-8732956D02*
X-38148778Y-8732956D01*
X-38148778Y-8732956D02*
X-38244016Y-8780575D01*
X-38244016Y-8780575D02*
X-38291635Y-8828194D01*
X-38291635Y-8828194D02*
X-38339254Y-8923432D01*
X-38339254Y-8923432D02*
X-38339254Y-9161527D01*
X-38339254Y-9161527D02*
X-38291635Y-9256765D01*
X-38291635Y-9256765D02*
X-38244016Y-9304385D01*
X-38244016Y-9304385D02*
X-38148778Y-9352004D01*
X-38148778Y-9352004D02*
X-37910683Y-9352004D01*
X-37910683Y-9352004D02*
X-37815445Y-9304385D01*
X-37815445Y-9304385D02*
X-37767826Y-9256765D01*
X-12457334Y14771420D02*
X-12409715Y14723800D01*
X-12409715Y14723800D02*
X-12266858Y14676181D01*
X-12266858Y14676181D02*
X-12171620Y14676181D01*
X-12171620Y14676181D02*
X-12028763Y14723800D01*
X-12028763Y14723800D02*
X-11933525Y14819039D01*
X-11933525Y14819039D02*
X-11885906Y14914277D01*
X-11885906Y14914277D02*
X-11838287Y15104753D01*
X-11838287Y15104753D02*
X-11838287Y15247610D01*
X-11838287Y15247610D02*
X-11885906Y15438086D01*
X-11885906Y15438086D02*
X-11933525Y15533324D01*
X-11933525Y15533324D02*
X-12028763Y15628562D01*
X-12028763Y15628562D02*
X-12171620Y15676181D01*
X-12171620Y15676181D02*
X-12266858Y15676181D01*
X-12266858Y15676181D02*
X-12409715Y15628562D01*
X-12409715Y15628562D02*
X-12457334Y15580943D01*
X-13314477Y15342848D02*
X-13314477Y14676181D01*
X-13076382Y15723800D02*
X-12838287Y15009515D01*
X-12838287Y15009515D02*
X-13457334Y15009515D01*
X37613127Y15743235D02*
X37660746Y15695615D01*
X37660746Y15695615D02*
X37803603Y15647996D01*
X37803603Y15647996D02*
X37898841Y15647996D01*
X37898841Y15647996D02*
X38041698Y15695615D01*
X38041698Y15695615D02*
X38136936Y15790854D01*
X38136936Y15790854D02*
X38184555Y15886092D01*
X38184555Y15886092D02*
X38232174Y16076568D01*
X38232174Y16076568D02*
X38232174Y16219425D01*
X38232174Y16219425D02*
X38184555Y16409901D01*
X38184555Y16409901D02*
X38136936Y16505139D01*
X38136936Y16505139D02*
X38041698Y16600377D01*
X38041698Y16600377D02*
X37898841Y16647996D01*
X37898841Y16647996D02*
X37803603Y16647996D01*
X37803603Y16647996D02*
X37660746Y16600377D01*
X37660746Y16600377D02*
X37613127Y16552758D01*
X37279793Y16647996D02*
X36660746Y16647996D01*
X36660746Y16647996D02*
X36994079Y16267044D01*
X36994079Y16267044D02*
X36851222Y16267044D01*
X36851222Y16267044D02*
X36755984Y16219425D01*
X36755984Y16219425D02*
X36708365Y16171806D01*
X36708365Y16171806D02*
X36660746Y16076568D01*
X36660746Y16076568D02*
X36660746Y15838473D01*
X36660746Y15838473D02*
X36708365Y15743235D01*
X36708365Y15743235D02*
X36755984Y15695615D01*
X36755984Y15695615D02*
X36851222Y15647996D01*
X36851222Y15647996D02*
X37136936Y15647996D01*
X37136936Y15647996D02*
X37232174Y15695615D01*
X37232174Y15695615D02*
X37279793Y15743235D01*
X12484478Y40739982D02*
X12532097Y40692362D01*
X12532097Y40692362D02*
X12674954Y40644743D01*
X12674954Y40644743D02*
X12770192Y40644743D01*
X12770192Y40644743D02*
X12913049Y40692362D01*
X12913049Y40692362D02*
X13008287Y40787601D01*
X13008287Y40787601D02*
X13055906Y40882839D01*
X13055906Y40882839D02*
X13103525Y41073315D01*
X13103525Y41073315D02*
X13103525Y41216172D01*
X13103525Y41216172D02*
X13055906Y41406648D01*
X13055906Y41406648D02*
X13008287Y41501886D01*
X13008287Y41501886D02*
X12913049Y41597124D01*
X12913049Y41597124D02*
X12770192Y41644743D01*
X12770192Y41644743D02*
X12674954Y41644743D01*
X12674954Y41644743D02*
X12532097Y41597124D01*
X12532097Y41597124D02*
X12484478Y41549505D01*
X12103525Y41549505D02*
X12055906Y41597124D01*
X12055906Y41597124D02*
X11960668Y41644743D01*
X11960668Y41644743D02*
X11722573Y41644743D01*
X11722573Y41644743D02*
X11627335Y41597124D01*
X11627335Y41597124D02*
X11579716Y41549505D01*
X11579716Y41549505D02*
X11532097Y41454267D01*
X11532097Y41454267D02*
X11532097Y41359029D01*
X11532097Y41359029D02*
X11579716Y41216172D01*
X11579716Y41216172D02*
X12151144Y40644743D01*
X12151144Y40644743D02*
X11532097Y40644743D01*
X4562819Y16505286D02*
X3562819Y16505286D01*
X3562819Y16505286D02*
X3562819Y16267191D01*
X3562819Y16267191D02*
X3610438Y16124334D01*
X3610438Y16124334D02*
X3705676Y16029096D01*
X3705676Y16029096D02*
X3800914Y15981477D01*
X3800914Y15981477D02*
X3991390Y15933858D01*
X3991390Y15933858D02*
X4134247Y15933858D01*
X4134247Y15933858D02*
X4324723Y15981477D01*
X4324723Y15981477D02*
X4419961Y16029096D01*
X4419961Y16029096D02*
X4515200Y16124334D01*
X4515200Y16124334D02*
X4562819Y16267191D01*
X4562819Y16267191D02*
X4562819Y16505286D01*
X3562819Y15600524D02*
X3562819Y14981477D01*
X3562819Y14981477D02*
X3943771Y15314810D01*
X3943771Y15314810D02*
X3943771Y15171953D01*
X3943771Y15171953D02*
X3991390Y15076715D01*
X3991390Y15076715D02*
X4039009Y15029096D01*
X4039009Y15029096D02*
X4134247Y14981477D01*
X4134247Y14981477D02*
X4372342Y14981477D01*
X4372342Y14981477D02*
X4467580Y15029096D01*
X4467580Y15029096D02*
X4515200Y15076715D01*
X4515200Y15076715D02*
X4562819Y15171953D01*
X4562819Y15171953D02*
X4562819Y15457667D01*
X4562819Y15457667D02*
X4515200Y15552905D01*
X4515200Y15552905D02*
X4467580Y15600524D01*
X3658057Y14600524D02*
X3610438Y14552905D01*
X3610438Y14552905D02*
X3562819Y14457667D01*
X3562819Y14457667D02*
X3562819Y14219572D01*
X3562819Y14219572D02*
X3610438Y14124334D01*
X3610438Y14124334D02*
X3658057Y14076715D01*
X3658057Y14076715D02*
X3753295Y14029096D01*
X3753295Y14029096D02*
X3848533Y14029096D01*
X3848533Y14029096D02*
X3991390Y14076715D01*
X3991390Y14076715D02*
X4562819Y14648143D01*
X4562819Y14648143D02*
X4562819Y14029096D01*
X-993181Y22061667D02*
X-1469372Y22395000D01*
X-993181Y22633095D02*
X-1993181Y22633095D01*
X-1993181Y22633095D02*
X-1993181Y22252143D01*
X-1993181Y22252143D02*
X-1945562Y22156905D01*
X-1945562Y22156905D02*
X-1897943Y22109286D01*
X-1897943Y22109286D02*
X-1802705Y22061667D01*
X-1802705Y22061667D02*
X-1659848Y22061667D01*
X-1659848Y22061667D02*
X-1564610Y22109286D01*
X-1564610Y22109286D02*
X-1516991Y22156905D01*
X-1516991Y22156905D02*
X-1469372Y22252143D01*
X-1469372Y22252143D02*
X-1469372Y22633095D01*
X-1659848Y21204524D02*
X-993181Y21204524D01*
X-2040800Y21442619D02*
X-1326515Y21680714D01*
X-1326515Y21680714D02*
X-1326515Y21061667D01*
X31454819Y30214286D02*
X30454819Y30214286D01*
X30454819Y30214286D02*
X30454819Y29976191D01*
X30454819Y29976191D02*
X30502438Y29833334D01*
X30502438Y29833334D02*
X30597676Y29738096D01*
X30597676Y29738096D02*
X30692914Y29690477D01*
X30692914Y29690477D02*
X30883390Y29642858D01*
X30883390Y29642858D02*
X31026247Y29642858D01*
X31026247Y29642858D02*
X31216723Y29690477D01*
X31216723Y29690477D02*
X31311961Y29738096D01*
X31311961Y29738096D02*
X31407200Y29833334D01*
X31407200Y29833334D02*
X31454819Y29976191D01*
X31454819Y29976191D02*
X31454819Y30214286D01*
X30550057Y29261905D02*
X30502438Y29214286D01*
X30502438Y29214286D02*
X30454819Y29119048D01*
X30454819Y29119048D02*
X30454819Y28880953D01*
X30454819Y28880953D02*
X30502438Y28785715D01*
X30502438Y28785715D02*
X30550057Y28738096D01*
X30550057Y28738096D02*
X30645295Y28690477D01*
X30645295Y28690477D02*
X30740533Y28690477D01*
X30740533Y28690477D02*
X30883390Y28738096D01*
X30883390Y28738096D02*
X31454819Y29309524D01*
X31454819Y29309524D02*
X31454819Y28690477D01*
X31454819Y28214286D02*
X31454819Y28023810D01*
X31454819Y28023810D02*
X31407200Y27928572D01*
X31407200Y27928572D02*
X31359580Y27880953D01*
X31359580Y27880953D02*
X31216723Y27785715D01*
X31216723Y27785715D02*
X31026247Y27738096D01*
X31026247Y27738096D02*
X30645295Y27738096D01*
X30645295Y27738096D02*
X30550057Y27785715D01*
X30550057Y27785715D02*
X30502438Y27833334D01*
X30502438Y27833334D02*
X30454819Y27928572D01*
X30454819Y27928572D02*
X30454819Y28119048D01*
X30454819Y28119048D02*
X30502438Y28214286D01*
X30502438Y28214286D02*
X30550057Y28261905D01*
X30550057Y28261905D02*
X30645295Y28309524D01*
X30645295Y28309524D02*
X30883390Y28309524D01*
X30883390Y28309524D02*
X30978628Y28261905D01*
X30978628Y28261905D02*
X31026247Y28214286D01*
X31026247Y28214286D02*
X31073866Y28119048D01*
X31073866Y28119048D02*
X31073866Y27928572D01*
X31073866Y27928572D02*
X31026247Y27833334D01*
X31026247Y27833334D02*
X30978628Y27785715D01*
X30978628Y27785715D02*
X30883390Y27738096D01*
X-6702667Y26377181D02*
X-6702667Y25662896D01*
X-6702667Y25662896D02*
X-6655048Y25520039D01*
X-6655048Y25520039D02*
X-6559810Y25424800D01*
X-6559810Y25424800D02*
X-6416953Y25377181D01*
X-6416953Y25377181D02*
X-6321715Y25377181D01*
X-7702667Y25377181D02*
X-7131239Y25377181D01*
X-7416953Y25377181D02*
X-7416953Y26377181D01*
X-7416953Y26377181D02*
X-7321715Y26234324D01*
X-7321715Y26234324D02*
X-7226477Y26139086D01*
X-7226477Y26139086D02*
X-7131239Y26091467D01*
X31454819Y6214286D02*
X30454819Y6214286D01*
X30454819Y6214286D02*
X30454819Y5976191D01*
X30454819Y5976191D02*
X30502438Y5833334D01*
X30502438Y5833334D02*
X30597676Y5738096D01*
X30597676Y5738096D02*
X30692914Y5690477D01*
X30692914Y5690477D02*
X30883390Y5642858D01*
X30883390Y5642858D02*
X31026247Y5642858D01*
X31026247Y5642858D02*
X31216723Y5690477D01*
X31216723Y5690477D02*
X31311961Y5738096D01*
X31311961Y5738096D02*
X31407200Y5833334D01*
X31407200Y5833334D02*
X31454819Y5976191D01*
X31454819Y5976191D02*
X31454819Y6214286D01*
X30454819Y5309524D02*
X30454819Y4690477D01*
X30454819Y4690477D02*
X30835771Y5023810D01*
X30835771Y5023810D02*
X30835771Y4880953D01*
X30835771Y4880953D02*
X30883390Y4785715D01*
X30883390Y4785715D02*
X30931009Y4738096D01*
X30931009Y4738096D02*
X31026247Y4690477D01*
X31026247Y4690477D02*
X31264342Y4690477D01*
X31264342Y4690477D02*
X31359580Y4738096D01*
X31359580Y4738096D02*
X31407200Y4785715D01*
X31407200Y4785715D02*
X31454819Y4880953D01*
X31454819Y4880953D02*
X31454819Y5166667D01*
X31454819Y5166667D02*
X31407200Y5261905D01*
X31407200Y5261905D02*
X31359580Y5309524D01*
X30454819Y4357143D02*
X30454819Y3738096D01*
X30454819Y3738096D02*
X30835771Y4071429D01*
X30835771Y4071429D02*
X30835771Y3928572D01*
X30835771Y3928572D02*
X30883390Y3833334D01*
X30883390Y3833334D02*
X30931009Y3785715D01*
X30931009Y3785715D02*
X31026247Y3738096D01*
X31026247Y3738096D02*
X31264342Y3738096D01*
X31264342Y3738096D02*
X31359580Y3785715D01*
X31359580Y3785715D02*
X31407200Y3833334D01*
X31407200Y3833334D02*
X31454819Y3928572D01*
X31454819Y3928572D02*
X31454819Y4214286D01*
X31454819Y4214286D02*
X31407200Y4309524D01*
X31407200Y4309524D02*
X31359580Y4357143D01*
X-43189181Y-17149714D02*
X-44189181Y-17149714D01*
X-44189181Y-17149714D02*
X-44189181Y-17387809D01*
X-44189181Y-17387809D02*
X-44141562Y-17530666D01*
X-44141562Y-17530666D02*
X-44046324Y-17625904D01*
X-44046324Y-17625904D02*
X-43951086Y-17673523D01*
X-43951086Y-17673523D02*
X-43760610Y-17721142D01*
X-43760610Y-17721142D02*
X-43617753Y-17721142D01*
X-43617753Y-17721142D02*
X-43427277Y-17673523D01*
X-43427277Y-17673523D02*
X-43332039Y-17625904D01*
X-43332039Y-17625904D02*
X-43236800Y-17530666D01*
X-43236800Y-17530666D02*
X-43189181Y-17387809D01*
X-43189181Y-17387809D02*
X-43189181Y-17149714D01*
X-43189181Y-18673523D02*
X-43189181Y-18102095D01*
X-43189181Y-18387809D02*
X-44189181Y-18387809D01*
X-44189181Y-18387809D02*
X-44046324Y-18292571D01*
X-44046324Y-18292571D02*
X-43951086Y-18197333D01*
X-43951086Y-18197333D02*
X-43903467Y-18102095D01*
X-43760610Y-19244952D02*
X-43808229Y-19149714D01*
X-43808229Y-19149714D02*
X-43855848Y-19102095D01*
X-43855848Y-19102095D02*
X-43951086Y-19054476D01*
X-43951086Y-19054476D02*
X-43998705Y-19054476D01*
X-43998705Y-19054476D02*
X-44093943Y-19102095D01*
X-44093943Y-19102095D02*
X-44141562Y-19149714D01*
X-44141562Y-19149714D02*
X-44189181Y-19244952D01*
X-44189181Y-19244952D02*
X-44189181Y-19435428D01*
X-44189181Y-19435428D02*
X-44141562Y-19530666D01*
X-44141562Y-19530666D02*
X-44093943Y-19578285D01*
X-44093943Y-19578285D02*
X-43998705Y-19625904D01*
X-43998705Y-19625904D02*
X-43951086Y-19625904D01*
X-43951086Y-19625904D02*
X-43855848Y-19578285D01*
X-43855848Y-19578285D02*
X-43808229Y-19530666D01*
X-43808229Y-19530666D02*
X-43760610Y-19435428D01*
X-43760610Y-19435428D02*
X-43760610Y-19244952D01*
X-43760610Y-19244952D02*
X-43712991Y-19149714D01*
X-43712991Y-19149714D02*
X-43665372Y-19102095D01*
X-43665372Y-19102095D02*
X-43570134Y-19054476D01*
X-43570134Y-19054476D02*
X-43379658Y-19054476D01*
X-43379658Y-19054476D02*
X-43284420Y-19102095D01*
X-43284420Y-19102095D02*
X-43236800Y-19149714D01*
X-43236800Y-19149714D02*
X-43189181Y-19244952D01*
X-43189181Y-19244952D02*
X-43189181Y-19435428D01*
X-43189181Y-19435428D02*
X-43236800Y-19530666D01*
X-43236800Y-19530666D02*
X-43284420Y-19578285D01*
X-43284420Y-19578285D02*
X-43379658Y-19625904D01*
X-43379658Y-19625904D02*
X-43570134Y-19625904D01*
X-43570134Y-19625904D02*
X-43665372Y-19578285D01*
X-43665372Y-19578285D02*
X-43712991Y-19530666D01*
X-43712991Y-19530666D02*
X-43760610Y-19435428D01*
X-42545181Y31214286D02*
X-43545181Y31214286D01*
X-43545181Y31214286D02*
X-43545181Y30976191D01*
X-43545181Y30976191D02*
X-43497562Y30833334D01*
X-43497562Y30833334D02*
X-43402324Y30738096D01*
X-43402324Y30738096D02*
X-43307086Y30690477D01*
X-43307086Y30690477D02*
X-43116610Y30642858D01*
X-43116610Y30642858D02*
X-42973753Y30642858D01*
X-42973753Y30642858D02*
X-42783277Y30690477D01*
X-42783277Y30690477D02*
X-42688039Y30738096D01*
X-42688039Y30738096D02*
X-42592800Y30833334D01*
X-42592800Y30833334D02*
X-42545181Y30976191D01*
X-42545181Y30976191D02*
X-42545181Y31214286D01*
X-43449943Y30261905D02*
X-43497562Y30214286D01*
X-43497562Y30214286D02*
X-43545181Y30119048D01*
X-43545181Y30119048D02*
X-43545181Y29880953D01*
X-43545181Y29880953D02*
X-43497562Y29785715D01*
X-43497562Y29785715D02*
X-43449943Y29738096D01*
X-43449943Y29738096D02*
X-43354705Y29690477D01*
X-43354705Y29690477D02*
X-43259467Y29690477D01*
X-43259467Y29690477D02*
X-43116610Y29738096D01*
X-43116610Y29738096D02*
X-42545181Y30309524D01*
X-42545181Y30309524D02*
X-42545181Y29690477D01*
X-43545181Y28833334D02*
X-43545181Y29023810D01*
X-43545181Y29023810D02*
X-43497562Y29119048D01*
X-43497562Y29119048D02*
X-43449943Y29166667D01*
X-43449943Y29166667D02*
X-43307086Y29261905D01*
X-43307086Y29261905D02*
X-43116610Y29309524D01*
X-43116610Y29309524D02*
X-42735658Y29309524D01*
X-42735658Y29309524D02*
X-42640420Y29261905D01*
X-42640420Y29261905D02*
X-42592800Y29214286D01*
X-42592800Y29214286D02*
X-42545181Y29119048D01*
X-42545181Y29119048D02*
X-42545181Y28928572D01*
X-42545181Y28928572D02*
X-42592800Y28833334D01*
X-42592800Y28833334D02*
X-42640420Y28785715D01*
X-42640420Y28785715D02*
X-42735658Y28738096D01*
X-42735658Y28738096D02*
X-42973753Y28738096D01*
X-42973753Y28738096D02*
X-43068991Y28785715D01*
X-43068991Y28785715D02*
X-43116610Y28833334D01*
X-43116610Y28833334D02*
X-43164229Y28928572D01*
X-43164229Y28928572D02*
X-43164229Y29119048D01*
X-43164229Y29119048D02*
X-43116610Y29214286D01*
X-43116610Y29214286D02*
X-43068991Y29261905D01*
X-43068991Y29261905D02*
X-42973753Y29309524D01*
X-22170181Y-4830714D02*
X-23170181Y-4830714D01*
X-23170181Y-4830714D02*
X-23170181Y-5068809D01*
X-23170181Y-5068809D02*
X-23122562Y-5211666D01*
X-23122562Y-5211666D02*
X-23027324Y-5306904D01*
X-23027324Y-5306904D02*
X-22932086Y-5354523D01*
X-22932086Y-5354523D02*
X-22741610Y-5402142D01*
X-22741610Y-5402142D02*
X-22598753Y-5402142D01*
X-22598753Y-5402142D02*
X-22408277Y-5354523D01*
X-22408277Y-5354523D02*
X-22313039Y-5306904D01*
X-22313039Y-5306904D02*
X-22217800Y-5211666D01*
X-22217800Y-5211666D02*
X-22170181Y-5068809D01*
X-22170181Y-5068809D02*
X-22170181Y-4830714D01*
X-23074943Y-5783095D02*
X-23122562Y-5830714D01*
X-23122562Y-5830714D02*
X-23170181Y-5925952D01*
X-23170181Y-5925952D02*
X-23170181Y-6164047D01*
X-23170181Y-6164047D02*
X-23122562Y-6259285D01*
X-23122562Y-6259285D02*
X-23074943Y-6306904D01*
X-23074943Y-6306904D02*
X-22979705Y-6354523D01*
X-22979705Y-6354523D02*
X-22884467Y-6354523D01*
X-22884467Y-6354523D02*
X-22741610Y-6306904D01*
X-22741610Y-6306904D02*
X-22170181Y-5735476D01*
X-22170181Y-5735476D02*
X-22170181Y-6354523D01*
X-23074943Y-6735476D02*
X-23122562Y-6783095D01*
X-23122562Y-6783095D02*
X-23170181Y-6878333D01*
X-23170181Y-6878333D02*
X-23170181Y-7116428D01*
X-23170181Y-7116428D02*
X-23122562Y-7211666D01*
X-23122562Y-7211666D02*
X-23074943Y-7259285D01*
X-23074943Y-7259285D02*
X-22979705Y-7306904D01*
X-22979705Y-7306904D02*
X-22884467Y-7306904D01*
X-22884467Y-7306904D02*
X-22741610Y-7259285D01*
X-22741610Y-7259285D02*
X-22170181Y-6687857D01*
X-22170181Y-6687857D02*
X-22170181Y-7306904D01*
X-47697181Y-30611714D02*
X-48697181Y-30611714D01*
X-48697181Y-30611714D02*
X-48697181Y-30849809D01*
X-48697181Y-30849809D02*
X-48649562Y-30992666D01*
X-48649562Y-30992666D02*
X-48554324Y-31087904D01*
X-48554324Y-31087904D02*
X-48459086Y-31135523D01*
X-48459086Y-31135523D02*
X-48268610Y-31183142D01*
X-48268610Y-31183142D02*
X-48125753Y-31183142D01*
X-48125753Y-31183142D02*
X-47935277Y-31135523D01*
X-47935277Y-31135523D02*
X-47840039Y-31087904D01*
X-47840039Y-31087904D02*
X-47744800Y-30992666D01*
X-47744800Y-30992666D02*
X-47697181Y-30849809D01*
X-47697181Y-30849809D02*
X-47697181Y-30611714D01*
X-48601943Y-31564095D02*
X-48649562Y-31611714D01*
X-48649562Y-31611714D02*
X-48697181Y-31706952D01*
X-48697181Y-31706952D02*
X-48697181Y-31945047D01*
X-48697181Y-31945047D02*
X-48649562Y-32040285D01*
X-48649562Y-32040285D02*
X-48601943Y-32087904D01*
X-48601943Y-32087904D02*
X-48506705Y-32135523D01*
X-48506705Y-32135523D02*
X-48411467Y-32135523D01*
X-48411467Y-32135523D02*
X-48268610Y-32087904D01*
X-48268610Y-32087904D02*
X-47697181Y-31516476D01*
X-47697181Y-31516476D02*
X-47697181Y-32135523D01*
X-47697181Y-33087904D02*
X-47697181Y-32516476D01*
X-47697181Y-32802190D02*
X-48697181Y-32802190D01*
X-48697181Y-32802190D02*
X-48554324Y-32706952D01*
X-48554324Y-32706952D02*
X-48459086Y-32611714D01*
X-48459086Y-32611714D02*
X-48411467Y-32516476D01*
X5102819Y23458667D02*
X4626628Y23792000D01*
X5102819Y24030095D02*
X4102819Y24030095D01*
X4102819Y24030095D02*
X4102819Y23649143D01*
X4102819Y23649143D02*
X4150438Y23553905D01*
X4150438Y23553905D02*
X4198057Y23506286D01*
X4198057Y23506286D02*
X4293295Y23458667D01*
X4293295Y23458667D02*
X4436152Y23458667D01*
X4436152Y23458667D02*
X4531390Y23506286D01*
X4531390Y23506286D02*
X4579009Y23553905D01*
X4579009Y23553905D02*
X4626628Y23649143D01*
X4626628Y23649143D02*
X4626628Y24030095D01*
X4102819Y22553905D02*
X4102819Y23030095D01*
X4102819Y23030095D02*
X4579009Y23077714D01*
X4579009Y23077714D02*
X4531390Y23030095D01*
X4531390Y23030095D02*
X4483771Y22934857D01*
X4483771Y22934857D02*
X4483771Y22696762D01*
X4483771Y22696762D02*
X4531390Y22601524D01*
X4531390Y22601524D02*
X4579009Y22553905D01*
X4579009Y22553905D02*
X4674247Y22506286D01*
X4674247Y22506286D02*
X4912342Y22506286D01*
X4912342Y22506286D02*
X5007580Y22553905D01*
X5007580Y22553905D02*
X5055200Y22601524D01*
X5055200Y22601524D02*
X5102819Y22696762D01*
X5102819Y22696762D02*
X5102819Y22934857D01*
X5102819Y22934857D02*
X5055200Y23030095D01*
X5055200Y23030095D02*
X5007580Y23077714D01*
X-42545181Y5214286D02*
X-43545181Y5214286D01*
X-43545181Y5214286D02*
X-43545181Y4976191D01*
X-43545181Y4976191D02*
X-43497562Y4833334D01*
X-43497562Y4833334D02*
X-43402324Y4738096D01*
X-43402324Y4738096D02*
X-43307086Y4690477D01*
X-43307086Y4690477D02*
X-43116610Y4642858D01*
X-43116610Y4642858D02*
X-42973753Y4642858D01*
X-42973753Y4642858D02*
X-42783277Y4690477D01*
X-42783277Y4690477D02*
X-42688039Y4738096D01*
X-42688039Y4738096D02*
X-42592800Y4833334D01*
X-42592800Y4833334D02*
X-42545181Y4976191D01*
X-42545181Y4976191D02*
X-42545181Y5214286D01*
X-43545181Y4309524D02*
X-43545181Y3690477D01*
X-43545181Y3690477D02*
X-43164229Y4023810D01*
X-43164229Y4023810D02*
X-43164229Y3880953D01*
X-43164229Y3880953D02*
X-43116610Y3785715D01*
X-43116610Y3785715D02*
X-43068991Y3738096D01*
X-43068991Y3738096D02*
X-42973753Y3690477D01*
X-42973753Y3690477D02*
X-42735658Y3690477D01*
X-42735658Y3690477D02*
X-42640420Y3738096D01*
X-42640420Y3738096D02*
X-42592800Y3785715D01*
X-42592800Y3785715D02*
X-42545181Y3880953D01*
X-42545181Y3880953D02*
X-42545181Y4166667D01*
X-42545181Y4166667D02*
X-42592800Y4261905D01*
X-42592800Y4261905D02*
X-42640420Y4309524D01*
X-43545181Y3071429D02*
X-43545181Y2976191D01*
X-43545181Y2976191D02*
X-43497562Y2880953D01*
X-43497562Y2880953D02*
X-43449943Y2833334D01*
X-43449943Y2833334D02*
X-43354705Y2785715D01*
X-43354705Y2785715D02*
X-43164229Y2738096D01*
X-43164229Y2738096D02*
X-42926134Y2738096D01*
X-42926134Y2738096D02*
X-42735658Y2785715D01*
X-42735658Y2785715D02*
X-42640420Y2833334D01*
X-42640420Y2833334D02*
X-42592800Y2880953D01*
X-42592800Y2880953D02*
X-42545181Y2976191D01*
X-42545181Y2976191D02*
X-42545181Y3071429D01*
X-42545181Y3071429D02*
X-42592800Y3166667D01*
X-42592800Y3166667D02*
X-42640420Y3214286D01*
X-42640420Y3214286D02*
X-42735658Y3261905D01*
X-42735658Y3261905D02*
X-42926134Y3309524D01*
X-42926134Y3309524D02*
X-43164229Y3309524D01*
X-43164229Y3309524D02*
X-43354705Y3261905D01*
X-43354705Y3261905D02*
X-43449943Y3214286D01*
X-43449943Y3214286D02*
X-43497562Y3166667D01*
X-43497562Y3166667D02*
X-43545181Y3071429D01*
X454819Y-7785714D02*
X-545181Y-7785714D01*
X-545181Y-7785714D02*
X-545181Y-8023809D01*
X-545181Y-8023809D02*
X-497562Y-8166666D01*
X-497562Y-8166666D02*
X-402324Y-8261904D01*
X-402324Y-8261904D02*
X-307086Y-8309523D01*
X-307086Y-8309523D02*
X-116610Y-8357142D01*
X-116610Y-8357142D02*
X26247Y-8357142D01*
X26247Y-8357142D02*
X216723Y-8309523D01*
X216723Y-8309523D02*
X311961Y-8261904D01*
X311961Y-8261904D02*
X407200Y-8166666D01*
X407200Y-8166666D02*
X454819Y-8023809D01*
X454819Y-8023809D02*
X454819Y-7785714D01*
X-545181Y-8690476D02*
X-545181Y-9309523D01*
X-545181Y-9309523D02*
X-164229Y-8976190D01*
X-164229Y-8976190D02*
X-164229Y-9119047D01*
X-164229Y-9119047D02*
X-116610Y-9214285D01*
X-116610Y-9214285D02*
X-68991Y-9261904D01*
X-68991Y-9261904D02*
X26247Y-9309523D01*
X26247Y-9309523D02*
X264342Y-9309523D01*
X264342Y-9309523D02*
X359580Y-9261904D01*
X359580Y-9261904D02*
X407200Y-9214285D01*
X407200Y-9214285D02*
X454819Y-9119047D01*
X454819Y-9119047D02*
X454819Y-8833333D01*
X454819Y-8833333D02*
X407200Y-8738095D01*
X407200Y-8738095D02*
X359580Y-8690476D01*
X-211848Y-10166666D02*
X454819Y-10166666D01*
X-592800Y-9928571D02*
X121485Y-9690476D01*
X121485Y-9690476D02*
X121485Y-10309523D01*
X-17545181Y30214286D02*
X-18545181Y30214286D01*
X-18545181Y30214286D02*
X-18545181Y29976191D01*
X-18545181Y29976191D02*
X-18497562Y29833334D01*
X-18497562Y29833334D02*
X-18402324Y29738096D01*
X-18402324Y29738096D02*
X-18307086Y29690477D01*
X-18307086Y29690477D02*
X-18116610Y29642858D01*
X-18116610Y29642858D02*
X-17973753Y29642858D01*
X-17973753Y29642858D02*
X-17783277Y29690477D01*
X-17783277Y29690477D02*
X-17688039Y29738096D01*
X-17688039Y29738096D02*
X-17592800Y29833334D01*
X-17592800Y29833334D02*
X-17545181Y29976191D01*
X-17545181Y29976191D02*
X-17545181Y30214286D01*
X-18449943Y29261905D02*
X-18497562Y29214286D01*
X-18497562Y29214286D02*
X-18545181Y29119048D01*
X-18545181Y29119048D02*
X-18545181Y28880953D01*
X-18545181Y28880953D02*
X-18497562Y28785715D01*
X-18497562Y28785715D02*
X-18449943Y28738096D01*
X-18449943Y28738096D02*
X-18354705Y28690477D01*
X-18354705Y28690477D02*
X-18259467Y28690477D01*
X-18259467Y28690477D02*
X-18116610Y28738096D01*
X-18116610Y28738096D02*
X-17545181Y29309524D01*
X-17545181Y29309524D02*
X-17545181Y28690477D01*
X-18545181Y28357143D02*
X-18545181Y27690477D01*
X-18545181Y27690477D02*
X-17545181Y28119048D01*
X-17545181Y4214286D02*
X-18545181Y4214286D01*
X-18545181Y4214286D02*
X-18545181Y3976191D01*
X-18545181Y3976191D02*
X-18497562Y3833334D01*
X-18497562Y3833334D02*
X-18402324Y3738096D01*
X-18402324Y3738096D02*
X-18307086Y3690477D01*
X-18307086Y3690477D02*
X-18116610Y3642858D01*
X-18116610Y3642858D02*
X-17973753Y3642858D01*
X-17973753Y3642858D02*
X-17783277Y3690477D01*
X-17783277Y3690477D02*
X-17688039Y3738096D01*
X-17688039Y3738096D02*
X-17592800Y3833334D01*
X-17592800Y3833334D02*
X-17545181Y3976191D01*
X-17545181Y3976191D02*
X-17545181Y4214286D01*
X-18545181Y3309524D02*
X-18545181Y2690477D01*
X-18545181Y2690477D02*
X-18164229Y3023810D01*
X-18164229Y3023810D02*
X-18164229Y2880953D01*
X-18164229Y2880953D02*
X-18116610Y2785715D01*
X-18116610Y2785715D02*
X-18068991Y2738096D01*
X-18068991Y2738096D02*
X-17973753Y2690477D01*
X-17973753Y2690477D02*
X-17735658Y2690477D01*
X-17735658Y2690477D02*
X-17640420Y2738096D01*
X-17640420Y2738096D02*
X-17592800Y2785715D01*
X-17592800Y2785715D02*
X-17545181Y2880953D01*
X-17545181Y2880953D02*
X-17545181Y3166667D01*
X-17545181Y3166667D02*
X-17592800Y3261905D01*
X-17592800Y3261905D02*
X-17640420Y3309524D01*
X-17545181Y1738096D02*
X-17545181Y2309524D01*
X-17545181Y2023810D02*
X-18545181Y2023810D01*
X-18545181Y2023810D02*
X-18402324Y2119048D01*
X-18402324Y2119048D02*
X-18307086Y2214286D01*
X-18307086Y2214286D02*
X-18259467Y2309524D01*
X7454819Y-7785714D02*
X6454819Y-7785714D01*
X6454819Y-7785714D02*
X6454819Y-8023809D01*
X6454819Y-8023809D02*
X6502438Y-8166666D01*
X6502438Y-8166666D02*
X6597676Y-8261904D01*
X6597676Y-8261904D02*
X6692914Y-8309523D01*
X6692914Y-8309523D02*
X6883390Y-8357142D01*
X6883390Y-8357142D02*
X7026247Y-8357142D01*
X7026247Y-8357142D02*
X7216723Y-8309523D01*
X7216723Y-8309523D02*
X7311961Y-8261904D01*
X7311961Y-8261904D02*
X7407200Y-8166666D01*
X7407200Y-8166666D02*
X7454819Y-8023809D01*
X7454819Y-8023809D02*
X7454819Y-7785714D01*
X6454819Y-8690476D02*
X6454819Y-9309523D01*
X6454819Y-9309523D02*
X6835771Y-8976190D01*
X6835771Y-8976190D02*
X6835771Y-9119047D01*
X6835771Y-9119047D02*
X6883390Y-9214285D01*
X6883390Y-9214285D02*
X6931009Y-9261904D01*
X6931009Y-9261904D02*
X7026247Y-9309523D01*
X7026247Y-9309523D02*
X7264342Y-9309523D01*
X7264342Y-9309523D02*
X7359580Y-9261904D01*
X7359580Y-9261904D02*
X7407200Y-9214285D01*
X7407200Y-9214285D02*
X7454819Y-9119047D01*
X7454819Y-9119047D02*
X7454819Y-8833333D01*
X7454819Y-8833333D02*
X7407200Y-8738095D01*
X7407200Y-8738095D02*
X7359580Y-8690476D01*
X6454819Y-10214285D02*
X6454819Y-9738095D01*
X6454819Y-9738095D02*
X6931009Y-9690476D01*
X6931009Y-9690476D02*
X6883390Y-9738095D01*
X6883390Y-9738095D02*
X6835771Y-9833333D01*
X6835771Y-9833333D02*
X6835771Y-10071428D01*
X6835771Y-10071428D02*
X6883390Y-10166666D01*
X6883390Y-10166666D02*
X6931009Y-10214285D01*
X6931009Y-10214285D02*
X7026247Y-10261904D01*
X7026247Y-10261904D02*
X7264342Y-10261904D01*
X7264342Y-10261904D02*
X7359580Y-10214285D01*
X7359580Y-10214285D02*
X7407200Y-10166666D01*
X7407200Y-10166666D02*
X7454819Y-10071428D01*
X7454819Y-10071428D02*
X7454819Y-9833333D01*
X7454819Y-9833333D02*
X7407200Y-9738095D01*
X7407200Y-9738095D02*
X7359580Y-9690476D01*
X3454819Y-26785714D02*
X2454819Y-26785714D01*
X2454819Y-26785714D02*
X2454819Y-27023809D01*
X2454819Y-27023809D02*
X2502438Y-27166666D01*
X2502438Y-27166666D02*
X2597676Y-27261904D01*
X2597676Y-27261904D02*
X2692914Y-27309523D01*
X2692914Y-27309523D02*
X2883390Y-27357142D01*
X2883390Y-27357142D02*
X3026247Y-27357142D01*
X3026247Y-27357142D02*
X3216723Y-27309523D01*
X3216723Y-27309523D02*
X3311961Y-27261904D01*
X3311961Y-27261904D02*
X3407200Y-27166666D01*
X3407200Y-27166666D02*
X3454819Y-27023809D01*
X3454819Y-27023809D02*
X3454819Y-26785714D01*
X2550057Y-27738095D02*
X2502438Y-27785714D01*
X2502438Y-27785714D02*
X2454819Y-27880952D01*
X2454819Y-27880952D02*
X2454819Y-28119047D01*
X2454819Y-28119047D02*
X2502438Y-28214285D01*
X2502438Y-28214285D02*
X2550057Y-28261904D01*
X2550057Y-28261904D02*
X2645295Y-28309523D01*
X2645295Y-28309523D02*
X2740533Y-28309523D01*
X2740533Y-28309523D02*
X2883390Y-28261904D01*
X2883390Y-28261904D02*
X3454819Y-27690476D01*
X3454819Y-27690476D02*
X3454819Y-28309523D01*
X2788152Y-29166666D02*
X3454819Y-29166666D01*
X2407200Y-28928571D02*
X3121485Y-28690476D01*
X3121485Y-28690476D02*
X3121485Y-29309523D01*
X8104819Y761905D02*
X8914342Y761905D01*
X8914342Y761905D02*
X9009580Y714286D01*
X9009580Y714286D02*
X9057200Y666667D01*
X9057200Y666667D02*
X9104819Y571429D01*
X9104819Y571429D02*
X9104819Y380953D01*
X9104819Y380953D02*
X9057200Y285715D01*
X9057200Y285715D02*
X9009580Y238096D01*
X9009580Y238096D02*
X8914342Y190477D01*
X8914342Y190477D02*
X8104819Y190477D01*
X9104819Y-809523D02*
X9104819Y-238095D01*
X9104819Y-523809D02*
X8104819Y-523809D01*
X8104819Y-523809D02*
X8247676Y-428571D01*
X8247676Y-428571D02*
X8342914Y-333333D01*
X8342914Y-333333D02*
X8390533Y-238095D01*
X6454819Y-18785714D02*
X5454819Y-18785714D01*
X5454819Y-18785714D02*
X5454819Y-19023809D01*
X5454819Y-19023809D02*
X5502438Y-19166666D01*
X5502438Y-19166666D02*
X5597676Y-19261904D01*
X5597676Y-19261904D02*
X5692914Y-19309523D01*
X5692914Y-19309523D02*
X5883390Y-19357142D01*
X5883390Y-19357142D02*
X6026247Y-19357142D01*
X6026247Y-19357142D02*
X6216723Y-19309523D01*
X6216723Y-19309523D02*
X6311961Y-19261904D01*
X6311961Y-19261904D02*
X6407200Y-19166666D01*
X6407200Y-19166666D02*
X6454819Y-19023809D01*
X6454819Y-19023809D02*
X6454819Y-18785714D01*
X6454819Y-20309523D02*
X6454819Y-19738095D01*
X6454819Y-20023809D02*
X5454819Y-20023809D01*
X5454819Y-20023809D02*
X5597676Y-19928571D01*
X5597676Y-19928571D02*
X5692914Y-19833333D01*
X5692914Y-19833333D02*
X5740533Y-19738095D01*
X6454819Y-20785714D02*
X6454819Y-20976190D01*
X6454819Y-20976190D02*
X6407200Y-21071428D01*
X6407200Y-21071428D02*
X6359580Y-21119047D01*
X6359580Y-21119047D02*
X6216723Y-21214285D01*
X6216723Y-21214285D02*
X6026247Y-21261904D01*
X6026247Y-21261904D02*
X5645295Y-21261904D01*
X5645295Y-21261904D02*
X5550057Y-21214285D01*
X5550057Y-21214285D02*
X5502438Y-21166666D01*
X5502438Y-21166666D02*
X5454819Y-21071428D01*
X5454819Y-21071428D02*
X5454819Y-20880952D01*
X5454819Y-20880952D02*
X5502438Y-20785714D01*
X5502438Y-20785714D02*
X5550057Y-20738095D01*
X5550057Y-20738095D02*
X5645295Y-20690476D01*
X5645295Y-20690476D02*
X5883390Y-20690476D01*
X5883390Y-20690476D02*
X5978628Y-20738095D01*
X5978628Y-20738095D02*
X6026247Y-20785714D01*
X6026247Y-20785714D02*
X6073866Y-20880952D01*
X6073866Y-20880952D02*
X6073866Y-21071428D01*
X6073866Y-21071428D02*
X6026247Y-21166666D01*
X6026247Y-21166666D02*
X5978628Y-21214285D01*
X5978628Y-21214285D02*
X5883390Y-21261904D01*
X-23545181Y-27785714D02*
X-24545181Y-27785714D01*
X-24545181Y-27785714D02*
X-24545181Y-28023809D01*
X-24545181Y-28023809D02*
X-24497562Y-28166666D01*
X-24497562Y-28166666D02*
X-24402324Y-28261904D01*
X-24402324Y-28261904D02*
X-24307086Y-28309523D01*
X-24307086Y-28309523D02*
X-24116610Y-28357142D01*
X-24116610Y-28357142D02*
X-23973753Y-28357142D01*
X-23973753Y-28357142D02*
X-23783277Y-28309523D01*
X-23783277Y-28309523D02*
X-23688039Y-28261904D01*
X-23688039Y-28261904D02*
X-23592800Y-28166666D01*
X-23592800Y-28166666D02*
X-23545181Y-28023809D01*
X-23545181Y-28023809D02*
X-23545181Y-27785714D01*
X-24449943Y-28738095D02*
X-24497562Y-28785714D01*
X-24497562Y-28785714D02*
X-24545181Y-28880952D01*
X-24545181Y-28880952D02*
X-24545181Y-29119047D01*
X-24545181Y-29119047D02*
X-24497562Y-29214285D01*
X-24497562Y-29214285D02*
X-24449943Y-29261904D01*
X-24449943Y-29261904D02*
X-24354705Y-29309523D01*
X-24354705Y-29309523D02*
X-24259467Y-29309523D01*
X-24259467Y-29309523D02*
X-24116610Y-29261904D01*
X-24116610Y-29261904D02*
X-23545181Y-28690476D01*
X-23545181Y-28690476D02*
X-23545181Y-29309523D01*
X-24545181Y-29642857D02*
X-24545181Y-30261904D01*
X-24545181Y-30261904D02*
X-24164229Y-29928571D01*
X-24164229Y-29928571D02*
X-24164229Y-30071428D01*
X-24164229Y-30071428D02*
X-24116610Y-30166666D01*
X-24116610Y-30166666D02*
X-24068991Y-30214285D01*
X-24068991Y-30214285D02*
X-23973753Y-30261904D01*
X-23973753Y-30261904D02*
X-23735658Y-30261904D01*
X-23735658Y-30261904D02*
X-23640420Y-30214285D01*
X-23640420Y-30214285D02*
X-23592800Y-30166666D01*
X-23592800Y-30166666D02*
X-23545181Y-30071428D01*
X-23545181Y-30071428D02*
X-23545181Y-29785714D01*
X-23545181Y-29785714D02*
X-23592800Y-29690476D01*
X-23592800Y-29690476D02*
X-23640420Y-29642857D01*
X31454819Y-18785714D02*
X30454819Y-18785714D01*
X30454819Y-18785714D02*
X30454819Y-19023809D01*
X30454819Y-19023809D02*
X30502438Y-19166666D01*
X30502438Y-19166666D02*
X30597676Y-19261904D01*
X30597676Y-19261904D02*
X30692914Y-19309523D01*
X30692914Y-19309523D02*
X30883390Y-19357142D01*
X30883390Y-19357142D02*
X31026247Y-19357142D01*
X31026247Y-19357142D02*
X31216723Y-19309523D01*
X31216723Y-19309523D02*
X31311961Y-19261904D01*
X31311961Y-19261904D02*
X31407200Y-19166666D01*
X31407200Y-19166666D02*
X31454819Y-19023809D01*
X31454819Y-19023809D02*
X31454819Y-18785714D01*
X30550057Y-19738095D02*
X30502438Y-19785714D01*
X30502438Y-19785714D02*
X30454819Y-19880952D01*
X30454819Y-19880952D02*
X30454819Y-20119047D01*
X30454819Y-20119047D02*
X30502438Y-20214285D01*
X30502438Y-20214285D02*
X30550057Y-20261904D01*
X30550057Y-20261904D02*
X30645295Y-20309523D01*
X30645295Y-20309523D02*
X30740533Y-20309523D01*
X30740533Y-20309523D02*
X30883390Y-20261904D01*
X30883390Y-20261904D02*
X31454819Y-19690476D01*
X31454819Y-19690476D02*
X31454819Y-20309523D01*
X30454819Y-20928571D02*
X30454819Y-21023809D01*
X30454819Y-21023809D02*
X30502438Y-21119047D01*
X30502438Y-21119047D02*
X30550057Y-21166666D01*
X30550057Y-21166666D02*
X30645295Y-21214285D01*
X30645295Y-21214285D02*
X30835771Y-21261904D01*
X30835771Y-21261904D02*
X31073866Y-21261904D01*
X31073866Y-21261904D02*
X31264342Y-21214285D01*
X31264342Y-21214285D02*
X31359580Y-21166666D01*
X31359580Y-21166666D02*
X31407200Y-21119047D01*
X31407200Y-21119047D02*
X31454819Y-21023809D01*
X31454819Y-21023809D02*
X31454819Y-20928571D01*
X31454819Y-20928571D02*
X31407200Y-20833333D01*
X31407200Y-20833333D02*
X31359580Y-20785714D01*
X31359580Y-20785714D02*
X31264342Y-20738095D01*
X31264342Y-20738095D02*
X31073866Y-20690476D01*
X31073866Y-20690476D02*
X30835771Y-20690476D01*
X30835771Y-20690476D02*
X30645295Y-20738095D01*
X30645295Y-20738095D02*
X30550057Y-20785714D01*
X30550057Y-20785714D02*
X30502438Y-20833333D01*
X30502438Y-20833333D02*
X30454819Y-20928571D01*
X27454819Y-27785714D02*
X26454819Y-27785714D01*
X26454819Y-27785714D02*
X26454819Y-28023809D01*
X26454819Y-28023809D02*
X26502438Y-28166666D01*
X26502438Y-28166666D02*
X26597676Y-28261904D01*
X26597676Y-28261904D02*
X26692914Y-28309523D01*
X26692914Y-28309523D02*
X26883390Y-28357142D01*
X26883390Y-28357142D02*
X27026247Y-28357142D01*
X27026247Y-28357142D02*
X27216723Y-28309523D01*
X27216723Y-28309523D02*
X27311961Y-28261904D01*
X27311961Y-28261904D02*
X27407200Y-28166666D01*
X27407200Y-28166666D02*
X27454819Y-28023809D01*
X27454819Y-28023809D02*
X27454819Y-27785714D01*
X26550057Y-28738095D02*
X26502438Y-28785714D01*
X26502438Y-28785714D02*
X26454819Y-28880952D01*
X26454819Y-28880952D02*
X26454819Y-29119047D01*
X26454819Y-29119047D02*
X26502438Y-29214285D01*
X26502438Y-29214285D02*
X26550057Y-29261904D01*
X26550057Y-29261904D02*
X26645295Y-29309523D01*
X26645295Y-29309523D02*
X26740533Y-29309523D01*
X26740533Y-29309523D02*
X26883390Y-29261904D01*
X26883390Y-29261904D02*
X27454819Y-28690476D01*
X27454819Y-28690476D02*
X27454819Y-29309523D01*
X26454819Y-30214285D02*
X26454819Y-29738095D01*
X26454819Y-29738095D02*
X26931009Y-29690476D01*
X26931009Y-29690476D02*
X26883390Y-29738095D01*
X26883390Y-29738095D02*
X26835771Y-29833333D01*
X26835771Y-29833333D02*
X26835771Y-30071428D01*
X26835771Y-30071428D02*
X26883390Y-30166666D01*
X26883390Y-30166666D02*
X26931009Y-30214285D01*
X26931009Y-30214285D02*
X27026247Y-30261904D01*
X27026247Y-30261904D02*
X27264342Y-30261904D01*
X27264342Y-30261904D02*
X27359580Y-30214285D01*
X27359580Y-30214285D02*
X27407200Y-30166666D01*
X27407200Y-30166666D02*
X27454819Y-30071428D01*
X27454819Y-30071428D02*
X27454819Y-29833333D01*
X27454819Y-29833333D02*
X27407200Y-29738095D01*
X27407200Y-29738095D02*
X27359580Y-29690476D01*
D12*
%TO.C,C9*%
X-37571156Y42019562D02*
X-37278622Y42019562D01*
X-37571156Y43039562D02*
X-37278622Y43039562D01*
%TO.C,C8*%
X-12949283Y-32453668D02*
X-12656749Y-32453668D01*
X-12949283Y-31433668D02*
X-12656749Y-31433668D01*
%TO.C,C7*%
X37300194Y-32977185D02*
X37592728Y-32977185D01*
X37300194Y-31957185D02*
X37592728Y-31957185D01*
%TO.C,C6*%
X12428844Y-7980438D02*
X12721378Y-7980438D01*
X12428844Y-6960438D02*
X12721378Y-6960438D01*
%TO.C,C5*%
X-37699806Y-7977185D02*
X-37407272Y-7977185D01*
X-37699806Y-6957185D02*
X-37407272Y-6957185D01*
%TO.C,C4*%
X-12770267Y16051000D02*
X-12477733Y16051000D01*
X-12770267Y17071000D02*
X-12477733Y17071000D01*
%TO.C,C3*%
X37300194Y17022815D02*
X37592728Y17022815D01*
X37300194Y18042815D02*
X37592728Y18042815D01*
%TO.C,C2*%
X12171545Y42019562D02*
X12464079Y42019562D01*
X12171545Y43039562D02*
X12464079Y43039562D01*
%TO.C,D32*%
X1108000Y12931000D02*
X1108000Y16941000D01*
X3108000Y12931000D02*
X1108000Y12931000D01*
X3108000Y12931000D02*
X3108000Y16941000D01*
%TO.C,R4*%
X1065000Y21667936D02*
X1065000Y22122064D01*
X-405000Y21667936D02*
X-405000Y22122064D01*
%TO.C,D29*%
X28000000Y26640000D02*
X28000000Y30650000D01*
X30000000Y26640000D02*
X28000000Y26640000D01*
X30000000Y26640000D02*
X30000000Y30650000D01*
%TO.C,J1*%
X-5476000Y32536000D02*
X6644000Y32536000D01*
X-5476000Y26316000D02*
X-4556000Y26316000D01*
X-5476000Y24716000D02*
X-5476000Y32536000D01*
X-4716000Y30276000D02*
X-3716000Y30276000D01*
X-4716000Y28676000D02*
X-4716000Y30276000D01*
X-4556000Y26316000D02*
X-4556000Y24716000D01*
X-4556000Y24716000D02*
X-5476000Y24716000D01*
X-4276000Y26316000D02*
X-4556000Y26316000D01*
X-4276000Y26316000D02*
X-4276000Y25101000D01*
X-4216000Y30276000D02*
X-4216000Y32536000D01*
X-3716000Y30276000D02*
X-3716000Y32536000D01*
X-3716000Y30276000D02*
X-3716000Y28676000D01*
X-3716000Y28676000D02*
X-4716000Y28676000D01*
X-2916000Y32536000D02*
X-2916000Y28176000D01*
X-2916000Y28176000D02*
X4084000Y28176000D01*
X4084000Y28176000D02*
X4084000Y32536000D01*
X4884000Y30276000D02*
X4884000Y28676000D01*
X4884000Y28676000D02*
X5884000Y28676000D01*
X5724000Y26316000D02*
X5444000Y26316000D01*
X5724000Y24716000D02*
X5724000Y26316000D01*
X5884000Y30276000D02*
X4884000Y30276000D01*
X5884000Y28676000D02*
X5884000Y30276000D01*
X6644000Y32536000D02*
X6644000Y24716000D01*
X6644000Y26316000D02*
X5724000Y26316000D01*
X6644000Y24716000D02*
X5724000Y24716000D01*
%TO.C,D33*%
X28000000Y2640000D02*
X28000000Y6650000D01*
X30000000Y2640000D02*
X28000000Y2640000D01*
X30000000Y2640000D02*
X30000000Y6650000D01*
%TO.C,D18*%
X-46644000Y-20724000D02*
X-46644000Y-16714000D01*
X-44644000Y-20724000D02*
X-46644000Y-20724000D01*
X-44644000Y-20724000D02*
X-44644000Y-16714000D01*
%TO.C,D26*%
X-46000000Y27640000D02*
X-46000000Y31650000D01*
X-44000000Y27640000D02*
X-46000000Y27640000D01*
X-44000000Y27640000D02*
X-44000000Y31650000D01*
%TO.C,D22*%
X-19625000Y-3685000D02*
X-19625000Y-7695000D01*
X-21625000Y-3685000D02*
X-19625000Y-3685000D01*
X-21625000Y-3685000D02*
X-21625000Y-7695000D01*
%TO.C,D21*%
X-45152000Y-29466000D02*
X-45152000Y-33476000D01*
X-47152000Y-29466000D02*
X-45152000Y-29466000D01*
X-47152000Y-29466000D02*
X-47152000Y-33476000D01*
%TO.C,R5*%
X3224000Y21667936D02*
X3224000Y22122064D01*
X1754000Y21667936D02*
X1754000Y22122064D01*
%TO.C,D30*%
X-46000000Y1640000D02*
X-46000000Y5650000D01*
X-44000000Y1640000D02*
X-46000000Y1640000D01*
X-44000000Y1640000D02*
X-44000000Y5650000D01*
%TO.C,D34*%
X1000000Y-11360000D02*
X1000000Y-7350000D01*
X3000000Y-11360000D02*
X1000000Y-11360000D01*
X3000000Y-11360000D02*
X3000000Y-7350000D01*
%TO.C,D27*%
X-21000000Y26640000D02*
X-21000000Y30650000D01*
X-19000000Y26640000D02*
X-21000000Y26640000D01*
X-19000000Y26640000D02*
X-19000000Y30650000D01*
%TO.C,D31*%
X-21000000Y640000D02*
X-21000000Y4650000D01*
X-19000000Y640000D02*
X-21000000Y640000D01*
X-19000000Y640000D02*
X-19000000Y4650000D01*
%TO.C,D35*%
X4000000Y-11360000D02*
X4000000Y-7350000D01*
X6000000Y-11360000D02*
X4000000Y-11360000D01*
X6000000Y-11360000D02*
X6000000Y-7350000D01*
%TO.C,D24*%
X6000000Y-25640000D02*
X6000000Y-29650000D01*
X4000000Y-25640000D02*
X6000000Y-25640000D01*
X4000000Y-25640000D02*
X4000000Y-29650000D01*
%TO.C,U1*%
X-7810000Y3860000D02*
X-7810000Y-3860000D01*
X-7810000Y-3860000D02*
X-7545000Y-3860000D01*
X-7545000Y3860000D02*
X-7810000Y3860000D01*
X7545000Y-3860000D02*
X7810000Y-3860000D01*
X7810000Y3860000D02*
X7545000Y3860000D01*
X7810000Y-3860000D02*
X7810000Y3860000D01*
X8020000Y-4990000D02*
X7550000Y-4650000D01*
X8020000Y-4310000D01*
X8020000Y-4990000D01*
G36*
X8020000Y-4990000D02*
G01*
X7550000Y-4650000D01*
X8020000Y-4310000D01*
X8020000Y-4990000D01*
G37*
%TO.C,D19*%
X3000000Y-22360000D02*
X3000000Y-18350000D01*
X5000000Y-22360000D02*
X3000000Y-22360000D01*
X5000000Y-22360000D02*
X5000000Y-18350000D01*
%TO.C,D23*%
X-21000000Y-26640000D02*
X-21000000Y-30650000D01*
X-23000000Y-26640000D02*
X-21000000Y-26640000D01*
X-23000000Y-26640000D02*
X-23000000Y-30650000D01*
%TO.C,D20*%
X28000000Y-22360000D02*
X28000000Y-18350000D01*
X30000000Y-22360000D02*
X28000000Y-22360000D01*
X30000000Y-22360000D02*
X30000000Y-18350000D01*
%TO.C,D25*%
X30000000Y-26640000D02*
X30000000Y-30650000D01*
X28000000Y-26640000D02*
X30000000Y-26640000D01*
X28000000Y-26640000D02*
X28000000Y-30650000D01*
%TD*%
M02*
