%TF.GenerationSoftware,KiCad,Pcbnew,9.0.0*%
%TF.CreationDate,2025-03-12T03:41:42+01:00*%
%TF.ProjectId,FX-Pads,46582d50-6164-4732-9e6b-696361645f70,rev?*%
%TF.SameCoordinates,PX5f5e100PY5f5e100*%
%TF.FileFunction,Legend,Top*%
%TF.FilePolarity,Positive*%
%FSLAX46Y46*%
G04 Gerber Fmt 4.6, Leading zero omitted, Abs format (unit mm)*
G04 Created by KiCad (PCBNEW 9.0.0) date 2025-03-12 03:41:42*
%MOMM*%
%LPD*%
G01*
G04 APERTURE LIST*
%ADD10C,0.150000*%
%ADD11C,0.120000*%
G04 APERTURE END LIST*
D10*
X-25761905Y15895181D02*
X-25761905Y16895181D01*
X-25761905Y16418991D02*
X-25190477Y16418991D01*
X-25190477Y15895181D02*
X-25190477Y16895181D01*
X-24809524Y16895181D02*
X-24142858Y16895181D01*
X-24142858Y16895181D02*
X-24571429Y15895181D01*
X-14309524Y-29607200D02*
X-14166667Y-29654819D01*
X-14166667Y-29654819D02*
X-13928572Y-29654819D01*
X-13928572Y-29654819D02*
X-13833334Y-29607200D01*
X-13833334Y-29607200D02*
X-13785715Y-29559580D01*
X-13785715Y-29559580D02*
X-13738096Y-29464342D01*
X-13738096Y-29464342D02*
X-13738096Y-29369104D01*
X-13738096Y-29369104D02*
X-13785715Y-29273866D01*
X-13785715Y-29273866D02*
X-13833334Y-29226247D01*
X-13833334Y-29226247D02*
X-13928572Y-29178628D01*
X-13928572Y-29178628D02*
X-14119048Y-29131009D01*
X-14119048Y-29131009D02*
X-14214286Y-29083390D01*
X-14214286Y-29083390D02*
X-14261905Y-29035771D01*
X-14261905Y-29035771D02*
X-14309524Y-28940533D01*
X-14309524Y-28940533D02*
X-14309524Y-28845295D01*
X-14309524Y-28845295D02*
X-14261905Y-28750057D01*
X-14261905Y-28750057D02*
X-14214286Y-28702438D01*
X-14214286Y-28702438D02*
X-14119048Y-28654819D01*
X-14119048Y-28654819D02*
X-13880953Y-28654819D01*
X-13880953Y-28654819D02*
X-13738096Y-28702438D01*
X-13404762Y-28654819D02*
X-13166667Y-29654819D01*
X-13166667Y-29654819D02*
X-12976191Y-28940533D01*
X-12976191Y-28940533D02*
X-12785715Y-29654819D01*
X-12785715Y-29654819D02*
X-12547619Y-28654819D01*
X-11642858Y-29654819D02*
X-12214286Y-29654819D01*
X-11928572Y-29654819D02*
X-11928572Y-28654819D01*
X-11928572Y-28654819D02*
X-12023810Y-28797676D01*
X-12023810Y-28797676D02*
X-12119048Y-28892914D01*
X-12119048Y-28892914D02*
X-12214286Y-28940533D01*
X-10785715Y-28988152D02*
X-10785715Y-29654819D01*
X-11023810Y-28607200D02*
X-11261905Y-29321485D01*
X-11261905Y-29321485D02*
X-10642858Y-29321485D01*
X-38833333Y45392800D02*
X-38690476Y45345181D01*
X-38690476Y45345181D02*
X-38452381Y45345181D01*
X-38452381Y45345181D02*
X-38357143Y45392800D01*
X-38357143Y45392800D02*
X-38309524Y45440420D01*
X-38309524Y45440420D02*
X-38261905Y45535658D01*
X-38261905Y45535658D02*
X-38261905Y45630896D01*
X-38261905Y45630896D02*
X-38309524Y45726134D01*
X-38309524Y45726134D02*
X-38357143Y45773753D01*
X-38357143Y45773753D02*
X-38452381Y45821372D01*
X-38452381Y45821372D02*
X-38642857Y45868991D01*
X-38642857Y45868991D02*
X-38738095Y45916610D01*
X-38738095Y45916610D02*
X-38785714Y45964229D01*
X-38785714Y45964229D02*
X-38833333Y46059467D01*
X-38833333Y46059467D02*
X-38833333Y46154705D01*
X-38833333Y46154705D02*
X-38785714Y46249943D01*
X-38785714Y46249943D02*
X-38738095Y46297562D01*
X-38738095Y46297562D02*
X-38642857Y46345181D01*
X-38642857Y46345181D02*
X-38404762Y46345181D01*
X-38404762Y46345181D02*
X-38261905Y46297562D01*
X-37928571Y46345181D02*
X-37690476Y45345181D01*
X-37690476Y45345181D02*
X-37500000Y46059467D01*
X-37500000Y46059467D02*
X-37309524Y45345181D01*
X-37309524Y45345181D02*
X-37071428Y46345181D01*
X-36166667Y45345181D02*
X-36738095Y45345181D01*
X-36452381Y45345181D02*
X-36452381Y46345181D01*
X-36452381Y46345181D02*
X-36547619Y46202324D01*
X-36547619Y46202324D02*
X-36642857Y46107086D01*
X-36642857Y46107086D02*
X-36738095Y46059467D01*
X-25761905Y40895181D02*
X-25761905Y41895181D01*
X-25761905Y41418991D02*
X-25190477Y41418991D01*
X-25190477Y40895181D02*
X-25190477Y41895181D01*
X-24285715Y41561848D02*
X-24285715Y40895181D01*
X-24523810Y41942800D02*
X-24761905Y41228515D01*
X-24761905Y41228515D02*
X-24142858Y41228515D01*
X-38238095Y-9454819D02*
X-38238095Y-8454819D01*
X-38238095Y-8454819D02*
X-38000000Y-8454819D01*
X-38000000Y-8454819D02*
X-37857143Y-8502438D01*
X-37857143Y-8502438D02*
X-37761905Y-8597676D01*
X-37761905Y-8597676D02*
X-37714286Y-8692914D01*
X-37714286Y-8692914D02*
X-37666667Y-8883390D01*
X-37666667Y-8883390D02*
X-37666667Y-9026247D01*
X-37666667Y-9026247D02*
X-37714286Y-9216723D01*
X-37714286Y-9216723D02*
X-37761905Y-9311961D01*
X-37761905Y-9311961D02*
X-37857143Y-9407200D01*
X-37857143Y-9407200D02*
X-38000000Y-9454819D01*
X-38000000Y-9454819D02*
X-38238095Y-9454819D01*
X-37190476Y-9454819D02*
X-37000000Y-9454819D01*
X-37000000Y-9454819D02*
X-36904762Y-9407200D01*
X-36904762Y-9407200D02*
X-36857143Y-9359580D01*
X-36857143Y-9359580D02*
X-36761905Y-9216723D01*
X-36761905Y-9216723D02*
X-36714286Y-9026247D01*
X-36714286Y-9026247D02*
X-36714286Y-8645295D01*
X-36714286Y-8645295D02*
X-36761905Y-8550057D01*
X-36761905Y-8550057D02*
X-36809524Y-8502438D01*
X-36809524Y-8502438D02*
X-36904762Y-8454819D01*
X-36904762Y-8454819D02*
X-37095238Y-8454819D01*
X-37095238Y-8454819D02*
X-37190476Y-8502438D01*
X-37190476Y-8502438D02*
X-37238095Y-8550057D01*
X-37238095Y-8550057D02*
X-37285714Y-8645295D01*
X-37285714Y-8645295D02*
X-37285714Y-8883390D01*
X-37285714Y-8883390D02*
X-37238095Y-8978628D01*
X-37238095Y-8978628D02*
X-37190476Y-9026247D01*
X-37190476Y-9026247D02*
X-37095238Y-9073866D01*
X-37095238Y-9073866D02*
X-36904762Y-9073866D01*
X-36904762Y-9073866D02*
X-36809524Y-9026247D01*
X-36809524Y-9026247D02*
X-36761905Y-8978628D01*
X-36761905Y-8978628D02*
X-36714286Y-8883390D01*
X-41271429Y-11262295D02*
X-41728572Y-11262295D01*
X-41500000Y-11262295D02*
X-41500000Y-10462295D01*
X-41500000Y-10462295D02*
X-41576191Y-10576580D01*
X-41576191Y-10576580D02*
X-41652381Y-10652771D01*
X-41652381Y-10652771D02*
X-41728572Y-10690866D01*
X-13261905Y28395181D02*
X-13261905Y29395181D01*
X-13261905Y28918991D02*
X-12690477Y28918991D01*
X-12690477Y28395181D02*
X-12690477Y29395181D01*
X-11738096Y29395181D02*
X-12214286Y29395181D01*
X-12214286Y29395181D02*
X-12261905Y28918991D01*
X-12261905Y28918991D02*
X-12214286Y28966610D01*
X-12214286Y28966610D02*
X-12119048Y29014229D01*
X-12119048Y29014229D02*
X-11880953Y29014229D01*
X-11880953Y29014229D02*
X-11785715Y28966610D01*
X-11785715Y28966610D02*
X-11738096Y28918991D01*
X-11738096Y28918991D02*
X-11690477Y28823753D01*
X-11690477Y28823753D02*
X-11690477Y28585658D01*
X-11690477Y28585658D02*
X-11738096Y28490420D01*
X-11738096Y28490420D02*
X-11785715Y28442800D01*
X-11785715Y28442800D02*
X-11880953Y28395181D01*
X-11880953Y28395181D02*
X-12119048Y28395181D01*
X-12119048Y28395181D02*
X-12214286Y28442800D01*
X-12214286Y28442800D02*
X-12261905Y28490420D01*
X-44240495Y47983181D02*
X-44240495Y48983181D01*
X-44240495Y48506991D02*
X-43669067Y48506991D01*
X-43669067Y47983181D02*
X-43669067Y48983181D01*
X-42669067Y47983181D02*
X-43240495Y47983181D01*
X-42954781Y47983181D02*
X-42954781Y48983181D01*
X-42954781Y48983181D02*
X-43050019Y48840324D01*
X-43050019Y48840324D02*
X-43145257Y48745086D01*
X-43145257Y48745086D02*
X-43240495Y48697467D01*
X-42335733Y48983181D02*
X-41669067Y48983181D01*
X-41669067Y48983181D02*
X-42097638Y47983181D01*
X36285714Y-34454819D02*
X36285714Y-33454819D01*
X36285714Y-33454819D02*
X36523809Y-33454819D01*
X36523809Y-33454819D02*
X36666666Y-33502438D01*
X36666666Y-33502438D02*
X36761904Y-33597676D01*
X36761904Y-33597676D02*
X36809523Y-33692914D01*
X36809523Y-33692914D02*
X36857142Y-33883390D01*
X36857142Y-33883390D02*
X36857142Y-34026247D01*
X36857142Y-34026247D02*
X36809523Y-34216723D01*
X36809523Y-34216723D02*
X36761904Y-34311961D01*
X36761904Y-34311961D02*
X36666666Y-34407200D01*
X36666666Y-34407200D02*
X36523809Y-34454819D01*
X36523809Y-34454819D02*
X36285714Y-34454819D01*
X37809523Y-34454819D02*
X37238095Y-34454819D01*
X37523809Y-34454819D02*
X37523809Y-33454819D01*
X37523809Y-33454819D02*
X37428571Y-33597676D01*
X37428571Y-33597676D02*
X37333333Y-33692914D01*
X37333333Y-33692914D02*
X37238095Y-33740533D01*
X38666666Y-33454819D02*
X38476190Y-33454819D01*
X38476190Y-33454819D02*
X38380952Y-33502438D01*
X38380952Y-33502438D02*
X38333333Y-33550057D01*
X38333333Y-33550057D02*
X38238095Y-33692914D01*
X38238095Y-33692914D02*
X38190476Y-33883390D01*
X38190476Y-33883390D02*
X38190476Y-34264342D01*
X38190476Y-34264342D02*
X38238095Y-34359580D01*
X38238095Y-34359580D02*
X38285714Y-34407200D01*
X38285714Y-34407200D02*
X38380952Y-34454819D01*
X38380952Y-34454819D02*
X38571428Y-34454819D01*
X38571428Y-34454819D02*
X38666666Y-34407200D01*
X38666666Y-34407200D02*
X38714285Y-34359580D01*
X38714285Y-34359580D02*
X38761904Y-34264342D01*
X38761904Y-34264342D02*
X38761904Y-34026247D01*
X38761904Y-34026247D02*
X38714285Y-33931009D01*
X38714285Y-33931009D02*
X38666666Y-33883390D01*
X38666666Y-33883390D02*
X38571428Y-33835771D01*
X38571428Y-33835771D02*
X38380952Y-33835771D01*
X38380952Y-33835771D02*
X38285714Y-33883390D01*
X38285714Y-33883390D02*
X38238095Y-33931009D01*
X38238095Y-33931009D02*
X38190476Y-34026247D01*
X33728571Y-36262295D02*
X33271428Y-36262295D01*
X33500000Y-36262295D02*
X33500000Y-35462295D01*
X33500000Y-35462295D02*
X33423809Y-35576580D01*
X33423809Y-35576580D02*
X33347619Y-35652771D01*
X33347619Y-35652771D02*
X33271428Y-35690866D01*
X11261905Y-21604819D02*
X11261905Y-20604819D01*
X11261905Y-21081009D02*
X11833333Y-21081009D01*
X11833333Y-21604819D02*
X11833333Y-20604819D01*
X12833333Y-21604819D02*
X12261905Y-21604819D01*
X12547619Y-21604819D02*
X12547619Y-20604819D01*
X12547619Y-20604819D02*
X12452381Y-20747676D01*
X12452381Y-20747676D02*
X12357143Y-20842914D01*
X12357143Y-20842914D02*
X12261905Y-20890533D01*
X13738095Y-20604819D02*
X13261905Y-20604819D01*
X13261905Y-20604819D02*
X13214286Y-21081009D01*
X13214286Y-21081009D02*
X13261905Y-21033390D01*
X13261905Y-21033390D02*
X13357143Y-20985771D01*
X13357143Y-20985771D02*
X13595238Y-20985771D01*
X13595238Y-20985771D02*
X13690476Y-21033390D01*
X13690476Y-21033390D02*
X13738095Y-21081009D01*
X13738095Y-21081009D02*
X13785714Y-21176247D01*
X13785714Y-21176247D02*
X13785714Y-21414342D01*
X13785714Y-21414342D02*
X13738095Y-21509580D01*
X13738095Y-21509580D02*
X13690476Y-21557200D01*
X13690476Y-21557200D02*
X13595238Y-21604819D01*
X13595238Y-21604819D02*
X13357143Y-21604819D01*
X13357143Y-21604819D02*
X13261905Y-21557200D01*
X13261905Y-21557200D02*
X13214286Y-21509580D01*
X35690476Y-4607200D02*
X35833333Y-4654819D01*
X35833333Y-4654819D02*
X36071428Y-4654819D01*
X36071428Y-4654819D02*
X36166666Y-4607200D01*
X36166666Y-4607200D02*
X36214285Y-4559580D01*
X36214285Y-4559580D02*
X36261904Y-4464342D01*
X36261904Y-4464342D02*
X36261904Y-4369104D01*
X36261904Y-4369104D02*
X36214285Y-4273866D01*
X36214285Y-4273866D02*
X36166666Y-4226247D01*
X36166666Y-4226247D02*
X36071428Y-4178628D01*
X36071428Y-4178628D02*
X35880952Y-4131009D01*
X35880952Y-4131009D02*
X35785714Y-4083390D01*
X35785714Y-4083390D02*
X35738095Y-4035771D01*
X35738095Y-4035771D02*
X35690476Y-3940533D01*
X35690476Y-3940533D02*
X35690476Y-3845295D01*
X35690476Y-3845295D02*
X35738095Y-3750057D01*
X35738095Y-3750057D02*
X35785714Y-3702438D01*
X35785714Y-3702438D02*
X35880952Y-3654819D01*
X35880952Y-3654819D02*
X36119047Y-3654819D01*
X36119047Y-3654819D02*
X36261904Y-3702438D01*
X36595238Y-3654819D02*
X36833333Y-4654819D01*
X36833333Y-4654819D02*
X37023809Y-3940533D01*
X37023809Y-3940533D02*
X37214285Y-4654819D01*
X37214285Y-4654819D02*
X37452381Y-3654819D01*
X38357142Y-4654819D02*
X37785714Y-4654819D01*
X38071428Y-4654819D02*
X38071428Y-3654819D01*
X38071428Y-3654819D02*
X37976190Y-3797676D01*
X37976190Y-3797676D02*
X37880952Y-3892914D01*
X37880952Y-3892914D02*
X37785714Y-3940533D01*
X39309523Y-4654819D02*
X38738095Y-4654819D01*
X39023809Y-4654819D02*
X39023809Y-3654819D01*
X39023809Y-3654819D02*
X38928571Y-3797676D01*
X38928571Y-3797676D02*
X38833333Y-3892914D01*
X38833333Y-3892914D02*
X38738095Y-3940533D01*
X-48238095Y-44254819D02*
X-48238095Y-43254819D01*
X-48238095Y-43731009D02*
X-47666667Y-43731009D01*
X-47666667Y-44254819D02*
X-47666667Y-43254819D01*
X-46666667Y-44254819D02*
X-47238095Y-44254819D01*
X-46952381Y-44254819D02*
X-46952381Y-43254819D01*
X-46952381Y-43254819D02*
X-47047619Y-43397676D01*
X-47047619Y-43397676D02*
X-47142857Y-43492914D01*
X-47142857Y-43492914D02*
X-47238095Y-43540533D01*
X-46190476Y-44254819D02*
X-46000000Y-44254819D01*
X-46000000Y-44254819D02*
X-45904762Y-44207200D01*
X-45904762Y-44207200D02*
X-45857143Y-44159580D01*
X-45857143Y-44159580D02*
X-45761905Y-44016723D01*
X-45761905Y-44016723D02*
X-45714286Y-43826247D01*
X-45714286Y-43826247D02*
X-45714286Y-43445295D01*
X-45714286Y-43445295D02*
X-45761905Y-43350057D01*
X-45761905Y-43350057D02*
X-45809524Y-43302438D01*
X-45809524Y-43302438D02*
X-45904762Y-43254819D01*
X-45904762Y-43254819D02*
X-46095238Y-43254819D01*
X-46095238Y-43254819D02*
X-46190476Y-43302438D01*
X-46190476Y-43302438D02*
X-46238095Y-43350057D01*
X-46238095Y-43350057D02*
X-46285714Y-43445295D01*
X-46285714Y-43445295D02*
X-46285714Y-43683390D01*
X-46285714Y-43683390D02*
X-46238095Y-43778628D01*
X-46238095Y-43778628D02*
X-46190476Y-43826247D01*
X-46190476Y-43826247D02*
X-46095238Y-43873866D01*
X-46095238Y-43873866D02*
X-45904762Y-43873866D01*
X-45904762Y-43873866D02*
X-45809524Y-43826247D01*
X-45809524Y-43826247D02*
X-45761905Y-43778628D01*
X-45761905Y-43778628D02*
X-45714286Y-43683390D01*
X11285714Y-34454819D02*
X11285714Y-33454819D01*
X11285714Y-33454819D02*
X11523809Y-33454819D01*
X11523809Y-33454819D02*
X11666666Y-33502438D01*
X11666666Y-33502438D02*
X11761904Y-33597676D01*
X11761904Y-33597676D02*
X11809523Y-33692914D01*
X11809523Y-33692914D02*
X11857142Y-33883390D01*
X11857142Y-33883390D02*
X11857142Y-34026247D01*
X11857142Y-34026247D02*
X11809523Y-34216723D01*
X11809523Y-34216723D02*
X11761904Y-34311961D01*
X11761904Y-34311961D02*
X11666666Y-34407200D01*
X11666666Y-34407200D02*
X11523809Y-34454819D01*
X11523809Y-34454819D02*
X11285714Y-34454819D01*
X12809523Y-34454819D02*
X12238095Y-34454819D01*
X12523809Y-34454819D02*
X12523809Y-33454819D01*
X12523809Y-33454819D02*
X12428571Y-33597676D01*
X12428571Y-33597676D02*
X12333333Y-33692914D01*
X12333333Y-33692914D02*
X12238095Y-33740533D01*
X13714285Y-33454819D02*
X13238095Y-33454819D01*
X13238095Y-33454819D02*
X13190476Y-33931009D01*
X13190476Y-33931009D02*
X13238095Y-33883390D01*
X13238095Y-33883390D02*
X13333333Y-33835771D01*
X13333333Y-33835771D02*
X13571428Y-33835771D01*
X13571428Y-33835771D02*
X13666666Y-33883390D01*
X13666666Y-33883390D02*
X13714285Y-33931009D01*
X13714285Y-33931009D02*
X13761904Y-34026247D01*
X13761904Y-34026247D02*
X13761904Y-34264342D01*
X13761904Y-34264342D02*
X13714285Y-34359580D01*
X13714285Y-34359580D02*
X13666666Y-34407200D01*
X13666666Y-34407200D02*
X13571428Y-34454819D01*
X13571428Y-34454819D02*
X13333333Y-34454819D01*
X13333333Y-34454819D02*
X13238095Y-34407200D01*
X13238095Y-34407200D02*
X13190476Y-34359580D01*
X8728571Y-36262295D02*
X8271428Y-36262295D01*
X8500000Y-36262295D02*
X8500000Y-35462295D01*
X8500000Y-35462295D02*
X8423809Y-35576580D01*
X8423809Y-35576580D02*
X8347619Y-35652771D01*
X8347619Y-35652771D02*
X8271428Y-35690866D01*
X11166667Y45392800D02*
X11309524Y45345181D01*
X11309524Y45345181D02*
X11547619Y45345181D01*
X11547619Y45345181D02*
X11642857Y45392800D01*
X11642857Y45392800D02*
X11690476Y45440420D01*
X11690476Y45440420D02*
X11738095Y45535658D01*
X11738095Y45535658D02*
X11738095Y45630896D01*
X11738095Y45630896D02*
X11690476Y45726134D01*
X11690476Y45726134D02*
X11642857Y45773753D01*
X11642857Y45773753D02*
X11547619Y45821372D01*
X11547619Y45821372D02*
X11357143Y45868991D01*
X11357143Y45868991D02*
X11261905Y45916610D01*
X11261905Y45916610D02*
X11214286Y45964229D01*
X11214286Y45964229D02*
X11166667Y46059467D01*
X11166667Y46059467D02*
X11166667Y46154705D01*
X11166667Y46154705D02*
X11214286Y46249943D01*
X11214286Y46249943D02*
X11261905Y46297562D01*
X11261905Y46297562D02*
X11357143Y46345181D01*
X11357143Y46345181D02*
X11595238Y46345181D01*
X11595238Y46345181D02*
X11738095Y46297562D01*
X12071429Y46345181D02*
X12309524Y45345181D01*
X12309524Y45345181D02*
X12500000Y46059467D01*
X12500000Y46059467D02*
X12690476Y45345181D01*
X12690476Y45345181D02*
X12928572Y46345181D01*
X13214286Y46345181D02*
X13833333Y46345181D01*
X13833333Y46345181D02*
X13500000Y45964229D01*
X13500000Y45964229D02*
X13642857Y45964229D01*
X13642857Y45964229D02*
X13738095Y45916610D01*
X13738095Y45916610D02*
X13785714Y45868991D01*
X13785714Y45868991D02*
X13833333Y45773753D01*
X13833333Y45773753D02*
X13833333Y45535658D01*
X13833333Y45535658D02*
X13785714Y45440420D01*
X13785714Y45440420D02*
X13738095Y45392800D01*
X13738095Y45392800D02*
X13642857Y45345181D01*
X13642857Y45345181D02*
X13357143Y45345181D01*
X13357143Y45345181D02*
X13261905Y45392800D01*
X13261905Y45392800D02*
X13214286Y45440420D01*
X-27535181Y29729334D02*
X-28011372Y29396001D01*
X-27535181Y29157906D02*
X-28535181Y29157906D01*
X-28535181Y29157906D02*
X-28535181Y29538858D01*
X-28535181Y29538858D02*
X-28487562Y29634096D01*
X-28487562Y29634096D02*
X-28439943Y29681715D01*
X-28439943Y29681715D02*
X-28344705Y29729334D01*
X-28344705Y29729334D02*
X-28201848Y29729334D01*
X-28201848Y29729334D02*
X-28106610Y29681715D01*
X-28106610Y29681715D02*
X-28058991Y29634096D01*
X-28058991Y29634096D02*
X-28011372Y29538858D01*
X-28011372Y29538858D02*
X-28011372Y29157906D01*
X-27535181Y30681715D02*
X-27535181Y30110287D01*
X-27535181Y30396001D02*
X-28535181Y30396001D01*
X-28535181Y30396001D02*
X-28392324Y30300763D01*
X-28392324Y30300763D02*
X-28297086Y30205525D01*
X-28297086Y30205525D02*
X-28249467Y30110287D01*
X-13714286Y-34454819D02*
X-13714286Y-33454819D01*
X-13714286Y-33454819D02*
X-13476191Y-33454819D01*
X-13476191Y-33454819D02*
X-13333334Y-33502438D01*
X-13333334Y-33502438D02*
X-13238096Y-33597676D01*
X-13238096Y-33597676D02*
X-13190477Y-33692914D01*
X-13190477Y-33692914D02*
X-13142858Y-33883390D01*
X-13142858Y-33883390D02*
X-13142858Y-34026247D01*
X-13142858Y-34026247D02*
X-13190477Y-34216723D01*
X-13190477Y-34216723D02*
X-13238096Y-34311961D01*
X-13238096Y-34311961D02*
X-13333334Y-34407200D01*
X-13333334Y-34407200D02*
X-13476191Y-34454819D01*
X-13476191Y-34454819D02*
X-13714286Y-34454819D01*
X-12190477Y-34454819D02*
X-12761905Y-34454819D01*
X-12476191Y-34454819D02*
X-12476191Y-33454819D01*
X-12476191Y-33454819D02*
X-12571429Y-33597676D01*
X-12571429Y-33597676D02*
X-12666667Y-33692914D01*
X-12666667Y-33692914D02*
X-12761905Y-33740533D01*
X-11333334Y-33788152D02*
X-11333334Y-34454819D01*
X-11571429Y-33407200D02*
X-11809524Y-34121485D01*
X-11809524Y-34121485D02*
X-11190477Y-34121485D01*
X-16271429Y-36262295D02*
X-16728572Y-36262295D01*
X-16500000Y-36262295D02*
X-16500000Y-35462295D01*
X-16500000Y-35462295D02*
X-16576191Y-35576580D01*
X-16576191Y-35576580D02*
X-16652381Y-35652771D01*
X-16652381Y-35652771D02*
X-16728572Y-35690866D01*
X11166667Y20392800D02*
X11309524Y20345181D01*
X11309524Y20345181D02*
X11547619Y20345181D01*
X11547619Y20345181D02*
X11642857Y20392800D01*
X11642857Y20392800D02*
X11690476Y20440420D01*
X11690476Y20440420D02*
X11738095Y20535658D01*
X11738095Y20535658D02*
X11738095Y20630896D01*
X11738095Y20630896D02*
X11690476Y20726134D01*
X11690476Y20726134D02*
X11642857Y20773753D01*
X11642857Y20773753D02*
X11547619Y20821372D01*
X11547619Y20821372D02*
X11357143Y20868991D01*
X11357143Y20868991D02*
X11261905Y20916610D01*
X11261905Y20916610D02*
X11214286Y20964229D01*
X11214286Y20964229D02*
X11166667Y21059467D01*
X11166667Y21059467D02*
X11166667Y21154705D01*
X11166667Y21154705D02*
X11214286Y21249943D01*
X11214286Y21249943D02*
X11261905Y21297562D01*
X11261905Y21297562D02*
X11357143Y21345181D01*
X11357143Y21345181D02*
X11595238Y21345181D01*
X11595238Y21345181D02*
X11738095Y21297562D01*
X12071429Y21345181D02*
X12309524Y20345181D01*
X12309524Y20345181D02*
X12500000Y21059467D01*
X12500000Y21059467D02*
X12690476Y20345181D01*
X12690476Y20345181D02*
X12928572Y21345181D01*
X13214286Y21345181D02*
X13880952Y21345181D01*
X13880952Y21345181D02*
X13452381Y20345181D01*
X36761905Y15545181D02*
X36761905Y16545181D01*
X36761905Y16545181D02*
X37000000Y16545181D01*
X37000000Y16545181D02*
X37142857Y16497562D01*
X37142857Y16497562D02*
X37238095Y16402324D01*
X37238095Y16402324D02*
X37285714Y16307086D01*
X37285714Y16307086D02*
X37333333Y16116610D01*
X37333333Y16116610D02*
X37333333Y15973753D01*
X37333333Y15973753D02*
X37285714Y15783277D01*
X37285714Y15783277D02*
X37238095Y15688039D01*
X37238095Y15688039D02*
X37142857Y15592800D01*
X37142857Y15592800D02*
X37000000Y15545181D01*
X37000000Y15545181D02*
X36761905Y15545181D01*
X37904762Y16116610D02*
X37809524Y16164229D01*
X37809524Y16164229D02*
X37761905Y16211848D01*
X37761905Y16211848D02*
X37714286Y16307086D01*
X37714286Y16307086D02*
X37714286Y16354705D01*
X37714286Y16354705D02*
X37761905Y16449943D01*
X37761905Y16449943D02*
X37809524Y16497562D01*
X37809524Y16497562D02*
X37904762Y16545181D01*
X37904762Y16545181D02*
X38095238Y16545181D01*
X38095238Y16545181D02*
X38190476Y16497562D01*
X38190476Y16497562D02*
X38238095Y16449943D01*
X38238095Y16449943D02*
X38285714Y16354705D01*
X38285714Y16354705D02*
X38285714Y16307086D01*
X38285714Y16307086D02*
X38238095Y16211848D01*
X38238095Y16211848D02*
X38190476Y16164229D01*
X38190476Y16164229D02*
X38095238Y16116610D01*
X38095238Y16116610D02*
X37904762Y16116610D01*
X37904762Y16116610D02*
X37809524Y16068991D01*
X37809524Y16068991D02*
X37761905Y16021372D01*
X37761905Y16021372D02*
X37714286Y15926134D01*
X37714286Y15926134D02*
X37714286Y15735658D01*
X37714286Y15735658D02*
X37761905Y15640420D01*
X37761905Y15640420D02*
X37809524Y15592800D01*
X37809524Y15592800D02*
X37904762Y15545181D01*
X37904762Y15545181D02*
X38095238Y15545181D01*
X38095238Y15545181D02*
X38190476Y15592800D01*
X38190476Y15592800D02*
X38238095Y15640420D01*
X38238095Y15640420D02*
X38285714Y15735658D01*
X38285714Y15735658D02*
X38285714Y15926134D01*
X38285714Y15926134D02*
X38238095Y16021372D01*
X38238095Y16021372D02*
X38190476Y16068991D01*
X38190476Y16068991D02*
X38095238Y16116610D01*
X33728571Y13737705D02*
X33271428Y13737705D01*
X33500000Y13737705D02*
X33500000Y14537705D01*
X33500000Y14537705D02*
X33423809Y14423420D01*
X33423809Y14423420D02*
X33347619Y14347229D01*
X33347619Y14347229D02*
X33271428Y14309134D01*
X-25761905Y-9104819D02*
X-25761905Y-8104819D01*
X-25761905Y-8581009D02*
X-25190477Y-8581009D01*
X-25190477Y-9104819D02*
X-25190477Y-8104819D01*
X-24666667Y-9104819D02*
X-24476191Y-9104819D01*
X-24476191Y-9104819D02*
X-24380953Y-9057200D01*
X-24380953Y-9057200D02*
X-24333334Y-9009580D01*
X-24333334Y-9009580D02*
X-24238096Y-8866723D01*
X-24238096Y-8866723D02*
X-24190477Y-8676247D01*
X-24190477Y-8676247D02*
X-24190477Y-8295295D01*
X-24190477Y-8295295D02*
X-24238096Y-8200057D01*
X-24238096Y-8200057D02*
X-24285715Y-8152438D01*
X-24285715Y-8152438D02*
X-24380953Y-8104819D01*
X-24380953Y-8104819D02*
X-24571429Y-8104819D01*
X-24571429Y-8104819D02*
X-24666667Y-8152438D01*
X-24666667Y-8152438D02*
X-24714286Y-8200057D01*
X-24714286Y-8200057D02*
X-24761905Y-8295295D01*
X-24761905Y-8295295D02*
X-24761905Y-8533390D01*
X-24761905Y-8533390D02*
X-24714286Y-8628628D01*
X-24714286Y-8628628D02*
X-24666667Y-8676247D01*
X-24666667Y-8676247D02*
X-24571429Y-8723866D01*
X-24571429Y-8723866D02*
X-24380953Y-8723866D01*
X-24380953Y-8723866D02*
X-24285715Y-8676247D01*
X-24285715Y-8676247D02*
X-24238096Y-8628628D01*
X-24238096Y-8628628D02*
X-24190477Y-8533390D01*
X11761905Y15545181D02*
X11761905Y16545181D01*
X11761905Y16545181D02*
X12000000Y16545181D01*
X12000000Y16545181D02*
X12142857Y16497562D01*
X12142857Y16497562D02*
X12238095Y16402324D01*
X12238095Y16402324D02*
X12285714Y16307086D01*
X12285714Y16307086D02*
X12333333Y16116610D01*
X12333333Y16116610D02*
X12333333Y15973753D01*
X12333333Y15973753D02*
X12285714Y15783277D01*
X12285714Y15783277D02*
X12238095Y15688039D01*
X12238095Y15688039D02*
X12142857Y15592800D01*
X12142857Y15592800D02*
X12000000Y15545181D01*
X12000000Y15545181D02*
X11761905Y15545181D01*
X12666667Y16545181D02*
X13333333Y16545181D01*
X13333333Y16545181D02*
X12904762Y15545181D01*
X8728571Y13737705D02*
X8271428Y13737705D01*
X8500000Y13737705D02*
X8500000Y14537705D01*
X8500000Y14537705D02*
X8423809Y14423420D01*
X8423809Y14423420D02*
X8347619Y14347229D01*
X8347619Y14347229D02*
X8271428Y14309134D01*
X-13833333Y45420886D02*
X-13690476Y45373267D01*
X-13690476Y45373267D02*
X-13452381Y45373267D01*
X-13452381Y45373267D02*
X-13357143Y45420886D01*
X-13357143Y45420886D02*
X-13309524Y45468506D01*
X-13309524Y45468506D02*
X-13261905Y45563744D01*
X-13261905Y45563744D02*
X-13261905Y45658982D01*
X-13261905Y45658982D02*
X-13309524Y45754220D01*
X-13309524Y45754220D02*
X-13357143Y45801839D01*
X-13357143Y45801839D02*
X-13452381Y45849458D01*
X-13452381Y45849458D02*
X-13642857Y45897077D01*
X-13642857Y45897077D02*
X-13738095Y45944696D01*
X-13738095Y45944696D02*
X-13785714Y45992315D01*
X-13785714Y45992315D02*
X-13833333Y46087553D01*
X-13833333Y46087553D02*
X-13833333Y46182791D01*
X-13833333Y46182791D02*
X-13785714Y46278029D01*
X-13785714Y46278029D02*
X-13738095Y46325648D01*
X-13738095Y46325648D02*
X-13642857Y46373267D01*
X-13642857Y46373267D02*
X-13404762Y46373267D01*
X-13404762Y46373267D02*
X-13261905Y46325648D01*
X-12928571Y46373267D02*
X-12690476Y45373267D01*
X-12690476Y45373267D02*
X-12500000Y46087553D01*
X-12500000Y46087553D02*
X-12309524Y45373267D01*
X-12309524Y45373267D02*
X-12071428Y46373267D01*
X-11738095Y46278029D02*
X-11690476Y46325648D01*
X-11690476Y46325648D02*
X-11595238Y46373267D01*
X-11595238Y46373267D02*
X-11357143Y46373267D01*
X-11357143Y46373267D02*
X-11261905Y46325648D01*
X-11261905Y46325648D02*
X-11214286Y46278029D01*
X-11214286Y46278029D02*
X-11166667Y46182791D01*
X-11166667Y46182791D02*
X-11166667Y46087553D01*
X-11166667Y46087553D02*
X-11214286Y45944696D01*
X-11214286Y45944696D02*
X-11785714Y45373267D01*
X-11785714Y45373267D02*
X-11166667Y45373267D01*
X11285714Y-9445012D02*
X11285714Y-8445012D01*
X11285714Y-8445012D02*
X11523809Y-8445012D01*
X11523809Y-8445012D02*
X11666666Y-8492631D01*
X11666666Y-8492631D02*
X11761904Y-8587869D01*
X11761904Y-8587869D02*
X11809523Y-8683107D01*
X11809523Y-8683107D02*
X11857142Y-8873583D01*
X11857142Y-8873583D02*
X11857142Y-9016440D01*
X11857142Y-9016440D02*
X11809523Y-9206916D01*
X11809523Y-9206916D02*
X11761904Y-9302154D01*
X11761904Y-9302154D02*
X11666666Y-9397393D01*
X11666666Y-9397393D02*
X11523809Y-9445012D01*
X11523809Y-9445012D02*
X11285714Y-9445012D01*
X12809523Y-9445012D02*
X12238095Y-9445012D01*
X12523809Y-9445012D02*
X12523809Y-8445012D01*
X12523809Y-8445012D02*
X12428571Y-8587869D01*
X12428571Y-8587869D02*
X12333333Y-8683107D01*
X12333333Y-8683107D02*
X12238095Y-8730726D01*
X13761904Y-9445012D02*
X13190476Y-9445012D01*
X13476190Y-9445012D02*
X13476190Y-8445012D01*
X13476190Y-8445012D02*
X13380952Y-8587869D01*
X13380952Y-8587869D02*
X13285714Y-8683107D01*
X13285714Y-8683107D02*
X13190476Y-8730726D01*
X8728571Y-11252488D02*
X8271428Y-11252488D01*
X8500000Y-11252488D02*
X8500000Y-10452488D01*
X8500000Y-10452488D02*
X8423809Y-10566773D01*
X8423809Y-10566773D02*
X8347619Y-10642964D01*
X8347619Y-10642964D02*
X8271428Y-10681059D01*
X36261905Y-21604819D02*
X36261905Y-20604819D01*
X36261905Y-21081009D02*
X36833333Y-21081009D01*
X36833333Y-21604819D02*
X36833333Y-20604819D01*
X37833333Y-21604819D02*
X37261905Y-21604819D01*
X37547619Y-21604819D02*
X37547619Y-20604819D01*
X37547619Y-20604819D02*
X37452381Y-20747676D01*
X37452381Y-20747676D02*
X37357143Y-20842914D01*
X37357143Y-20842914D02*
X37261905Y-20890533D01*
X38690476Y-20604819D02*
X38500000Y-20604819D01*
X38500000Y-20604819D02*
X38404762Y-20652438D01*
X38404762Y-20652438D02*
X38357143Y-20700057D01*
X38357143Y-20700057D02*
X38261905Y-20842914D01*
X38261905Y-20842914D02*
X38214286Y-21033390D01*
X38214286Y-21033390D02*
X38214286Y-21414342D01*
X38214286Y-21414342D02*
X38261905Y-21509580D01*
X38261905Y-21509580D02*
X38309524Y-21557200D01*
X38309524Y-21557200D02*
X38404762Y-21604819D01*
X38404762Y-21604819D02*
X38595238Y-21604819D01*
X38595238Y-21604819D02*
X38690476Y-21557200D01*
X38690476Y-21557200D02*
X38738095Y-21509580D01*
X38738095Y-21509580D02*
X38785714Y-21414342D01*
X38785714Y-21414342D02*
X38785714Y-21176247D01*
X38785714Y-21176247D02*
X38738095Y-21081009D01*
X38738095Y-21081009D02*
X38690476Y-21033390D01*
X38690476Y-21033390D02*
X38595238Y-20985771D01*
X38595238Y-20985771D02*
X38404762Y-20985771D01*
X38404762Y-20985771D02*
X38309524Y-21033390D01*
X38309524Y-21033390D02*
X38261905Y-21081009D01*
X38261905Y-21081009D02*
X38214286Y-21176247D01*
X23761905Y-34104819D02*
X23761905Y-33104819D01*
X23761905Y-33581009D02*
X24333333Y-33581009D01*
X24333333Y-34104819D02*
X24333333Y-33104819D01*
X25333333Y-34104819D02*
X24761905Y-34104819D01*
X25047619Y-34104819D02*
X25047619Y-33104819D01*
X25047619Y-33104819D02*
X24952381Y-33247676D01*
X24952381Y-33247676D02*
X24857143Y-33342914D01*
X24857143Y-33342914D02*
X24761905Y-33390533D01*
X25714286Y-33200057D02*
X25761905Y-33152438D01*
X25761905Y-33152438D02*
X25857143Y-33104819D01*
X25857143Y-33104819D02*
X26095238Y-33104819D01*
X26095238Y-33104819D02*
X26190476Y-33152438D01*
X26190476Y-33152438D02*
X26238095Y-33200057D01*
X26238095Y-33200057D02*
X26285714Y-33295295D01*
X26285714Y-33295295D02*
X26285714Y-33390533D01*
X26285714Y-33390533D02*
X26238095Y-33533390D01*
X26238095Y-33533390D02*
X25666667Y-34104819D01*
X25666667Y-34104819D02*
X26285714Y-34104819D01*
X-39309524Y-29607200D02*
X-39166667Y-29654819D01*
X-39166667Y-29654819D02*
X-38928572Y-29654819D01*
X-38928572Y-29654819D02*
X-38833334Y-29607200D01*
X-38833334Y-29607200D02*
X-38785715Y-29559580D01*
X-38785715Y-29559580D02*
X-38738096Y-29464342D01*
X-38738096Y-29464342D02*
X-38738096Y-29369104D01*
X-38738096Y-29369104D02*
X-38785715Y-29273866D01*
X-38785715Y-29273866D02*
X-38833334Y-29226247D01*
X-38833334Y-29226247D02*
X-38928572Y-29178628D01*
X-38928572Y-29178628D02*
X-39119048Y-29131009D01*
X-39119048Y-29131009D02*
X-39214286Y-29083390D01*
X-39214286Y-29083390D02*
X-39261905Y-29035771D01*
X-39261905Y-29035771D02*
X-39309524Y-28940533D01*
X-39309524Y-28940533D02*
X-39309524Y-28845295D01*
X-39309524Y-28845295D02*
X-39261905Y-28750057D01*
X-39261905Y-28750057D02*
X-39214286Y-28702438D01*
X-39214286Y-28702438D02*
X-39119048Y-28654819D01*
X-39119048Y-28654819D02*
X-38880953Y-28654819D01*
X-38880953Y-28654819D02*
X-38738096Y-28702438D01*
X-38404762Y-28654819D02*
X-38166667Y-29654819D01*
X-38166667Y-29654819D02*
X-37976191Y-28940533D01*
X-37976191Y-28940533D02*
X-37785715Y-29654819D01*
X-37785715Y-29654819D02*
X-37547619Y-28654819D01*
X-36642858Y-29654819D02*
X-37214286Y-29654819D01*
X-36928572Y-29654819D02*
X-36928572Y-28654819D01*
X-36928572Y-28654819D02*
X-37023810Y-28797676D01*
X-37023810Y-28797676D02*
X-37119048Y-28892914D01*
X-37119048Y-28892914D02*
X-37214286Y-28940533D01*
X-36261905Y-28750057D02*
X-36214286Y-28702438D01*
X-36214286Y-28702438D02*
X-36119048Y-28654819D01*
X-36119048Y-28654819D02*
X-35880953Y-28654819D01*
X-35880953Y-28654819D02*
X-35785715Y-28702438D01*
X-35785715Y-28702438D02*
X-35738096Y-28750057D01*
X-35738096Y-28750057D02*
X-35690477Y-28845295D01*
X-35690477Y-28845295D02*
X-35690477Y-28940533D01*
X-35690477Y-28940533D02*
X-35738096Y-29083390D01*
X-35738096Y-29083390D02*
X-36309524Y-29654819D01*
X-36309524Y-29654819D02*
X-35690477Y-29654819D01*
X24238095Y15895181D02*
X24238095Y16895181D01*
X24238095Y16418991D02*
X24809523Y16418991D01*
X24809523Y15895181D02*
X24809523Y16895181D01*
X25190476Y16895181D02*
X25809523Y16895181D01*
X25809523Y16895181D02*
X25476190Y16514229D01*
X25476190Y16514229D02*
X25619047Y16514229D01*
X25619047Y16514229D02*
X25714285Y16466610D01*
X25714285Y16466610D02*
X25761904Y16418991D01*
X25761904Y16418991D02*
X25809523Y16323753D01*
X25809523Y16323753D02*
X25809523Y16085658D01*
X25809523Y16085658D02*
X25761904Y15990420D01*
X25761904Y15990420D02*
X25714285Y15942800D01*
X25714285Y15942800D02*
X25619047Y15895181D01*
X25619047Y15895181D02*
X25333333Y15895181D01*
X25333333Y15895181D02*
X25238095Y15942800D01*
X25238095Y15942800D02*
X25190476Y15990420D01*
X-26238095Y-34104819D02*
X-26238095Y-33104819D01*
X-26238095Y-33581009D02*
X-25666667Y-33581009D01*
X-25666667Y-34104819D02*
X-25666667Y-33104819D01*
X-24666667Y-34104819D02*
X-25238095Y-34104819D01*
X-24952381Y-34104819D02*
X-24952381Y-33104819D01*
X-24952381Y-33104819D02*
X-25047619Y-33247676D01*
X-25047619Y-33247676D02*
X-25142857Y-33342914D01*
X-25142857Y-33342914D02*
X-25238095Y-33390533D01*
X-24333333Y-33104819D02*
X-23714286Y-33104819D01*
X-23714286Y-33104819D02*
X-24047619Y-33485771D01*
X-24047619Y-33485771D02*
X-23904762Y-33485771D01*
X-23904762Y-33485771D02*
X-23809524Y-33533390D01*
X-23809524Y-33533390D02*
X-23761905Y-33581009D01*
X-23761905Y-33581009D02*
X-23714286Y-33676247D01*
X-23714286Y-33676247D02*
X-23714286Y-33914342D01*
X-23714286Y-33914342D02*
X-23761905Y-34009580D01*
X-23761905Y-34009580D02*
X-23809524Y-34057200D01*
X-23809524Y-34057200D02*
X-23904762Y-34104819D01*
X-23904762Y-34104819D02*
X-24190476Y-34104819D01*
X-24190476Y-34104819D02*
X-24285714Y-34057200D01*
X-24285714Y-34057200D02*
X-24333333Y-34009580D01*
X-14309524Y-4607200D02*
X-14166667Y-4654819D01*
X-14166667Y-4654819D02*
X-13928572Y-4654819D01*
X-13928572Y-4654819D02*
X-13833334Y-4607200D01*
X-13833334Y-4607200D02*
X-13785715Y-4559580D01*
X-13785715Y-4559580D02*
X-13738096Y-4464342D01*
X-13738096Y-4464342D02*
X-13738096Y-4369104D01*
X-13738096Y-4369104D02*
X-13785715Y-4273866D01*
X-13785715Y-4273866D02*
X-13833334Y-4226247D01*
X-13833334Y-4226247D02*
X-13928572Y-4178628D01*
X-13928572Y-4178628D02*
X-14119048Y-4131009D01*
X-14119048Y-4131009D02*
X-14214286Y-4083390D01*
X-14214286Y-4083390D02*
X-14261905Y-4035771D01*
X-14261905Y-4035771D02*
X-14309524Y-3940533D01*
X-14309524Y-3940533D02*
X-14309524Y-3845295D01*
X-14309524Y-3845295D02*
X-14261905Y-3750057D01*
X-14261905Y-3750057D02*
X-14214286Y-3702438D01*
X-14214286Y-3702438D02*
X-14119048Y-3654819D01*
X-14119048Y-3654819D02*
X-13880953Y-3654819D01*
X-13880953Y-3654819D02*
X-13738096Y-3702438D01*
X-13404762Y-3654819D02*
X-13166667Y-4654819D01*
X-13166667Y-4654819D02*
X-12976191Y-3940533D01*
X-12976191Y-3940533D02*
X-12785715Y-4654819D01*
X-12785715Y-4654819D02*
X-12547619Y-3654819D01*
X-11642858Y-4654819D02*
X-12214286Y-4654819D01*
X-11928572Y-4654819D02*
X-11928572Y-3654819D01*
X-11928572Y-3654819D02*
X-12023810Y-3797676D01*
X-12023810Y-3797676D02*
X-12119048Y-3892914D01*
X-12119048Y-3892914D02*
X-12214286Y-3940533D01*
X-11309524Y-3654819D02*
X-10690477Y-3654819D01*
X-10690477Y-3654819D02*
X-11023810Y-4035771D01*
X-11023810Y-4035771D02*
X-10880953Y-4035771D01*
X-10880953Y-4035771D02*
X-10785715Y-4083390D01*
X-10785715Y-4083390D02*
X-10738096Y-4131009D01*
X-10738096Y-4131009D02*
X-10690477Y-4226247D01*
X-10690477Y-4226247D02*
X-10690477Y-4464342D01*
X-10690477Y-4464342D02*
X-10738096Y-4559580D01*
X-10738096Y-4559580D02*
X-10785715Y-4607200D01*
X-10785715Y-4607200D02*
X-10880953Y-4654819D01*
X-10880953Y-4654819D02*
X-11166667Y-4654819D01*
X-11166667Y-4654819D02*
X-11261905Y-4607200D01*
X-11261905Y-4607200D02*
X-11309524Y-4559580D01*
X-13714286Y-9454819D02*
X-13714286Y-8454819D01*
X-13714286Y-8454819D02*
X-13476191Y-8454819D01*
X-13476191Y-8454819D02*
X-13333334Y-8502438D01*
X-13333334Y-8502438D02*
X-13238096Y-8597676D01*
X-13238096Y-8597676D02*
X-13190477Y-8692914D01*
X-13190477Y-8692914D02*
X-13142858Y-8883390D01*
X-13142858Y-8883390D02*
X-13142858Y-9026247D01*
X-13142858Y-9026247D02*
X-13190477Y-9216723D01*
X-13190477Y-9216723D02*
X-13238096Y-9311961D01*
X-13238096Y-9311961D02*
X-13333334Y-9407200D01*
X-13333334Y-9407200D02*
X-13476191Y-9454819D01*
X-13476191Y-9454819D02*
X-13714286Y-9454819D01*
X-12190477Y-9454819D02*
X-12761905Y-9454819D01*
X-12476191Y-9454819D02*
X-12476191Y-8454819D01*
X-12476191Y-8454819D02*
X-12571429Y-8597676D01*
X-12571429Y-8597676D02*
X-12666667Y-8692914D01*
X-12666667Y-8692914D02*
X-12761905Y-8740533D01*
X-11571429Y-8454819D02*
X-11476191Y-8454819D01*
X-11476191Y-8454819D02*
X-11380953Y-8502438D01*
X-11380953Y-8502438D02*
X-11333334Y-8550057D01*
X-11333334Y-8550057D02*
X-11285715Y-8645295D01*
X-11285715Y-8645295D02*
X-11238096Y-8835771D01*
X-11238096Y-8835771D02*
X-11238096Y-9073866D01*
X-11238096Y-9073866D02*
X-11285715Y-9264342D01*
X-11285715Y-9264342D02*
X-11333334Y-9359580D01*
X-11333334Y-9359580D02*
X-11380953Y-9407200D01*
X-11380953Y-9407200D02*
X-11476191Y-9454819D01*
X-11476191Y-9454819D02*
X-11571429Y-9454819D01*
X-11571429Y-9454819D02*
X-11666667Y-9407200D01*
X-11666667Y-9407200D02*
X-11714286Y-9359580D01*
X-11714286Y-9359580D02*
X-11761905Y-9264342D01*
X-11761905Y-9264342D02*
X-11809524Y-9073866D01*
X-11809524Y-9073866D02*
X-11809524Y-8835771D01*
X-11809524Y-8835771D02*
X-11761905Y-8645295D01*
X-11761905Y-8645295D02*
X-11714286Y-8550057D01*
X-11714286Y-8550057D02*
X-11666667Y-8502438D01*
X-11666667Y-8502438D02*
X-11571429Y-8454819D01*
X-16271429Y-11262295D02*
X-16728572Y-11262295D01*
X-16500000Y-11262295D02*
X-16500000Y-10462295D01*
X-16500000Y-10462295D02*
X-16576191Y-10576580D01*
X-16576191Y-10576580D02*
X-16652381Y-10652771D01*
X-16652381Y-10652771D02*
X-16728572Y-10690866D01*
X36285714Y-9445012D02*
X36285714Y-8445012D01*
X36285714Y-8445012D02*
X36523809Y-8445012D01*
X36523809Y-8445012D02*
X36666666Y-8492631D01*
X36666666Y-8492631D02*
X36761904Y-8587869D01*
X36761904Y-8587869D02*
X36809523Y-8683107D01*
X36809523Y-8683107D02*
X36857142Y-8873583D01*
X36857142Y-8873583D02*
X36857142Y-9016440D01*
X36857142Y-9016440D02*
X36809523Y-9206916D01*
X36809523Y-9206916D02*
X36761904Y-9302154D01*
X36761904Y-9302154D02*
X36666666Y-9397393D01*
X36666666Y-9397393D02*
X36523809Y-9445012D01*
X36523809Y-9445012D02*
X36285714Y-9445012D01*
X37809523Y-9445012D02*
X37238095Y-9445012D01*
X37523809Y-9445012D02*
X37523809Y-8445012D01*
X37523809Y-8445012D02*
X37428571Y-8587869D01*
X37428571Y-8587869D02*
X37333333Y-8683107D01*
X37333333Y-8683107D02*
X37238095Y-8730726D01*
X38190476Y-8540250D02*
X38238095Y-8492631D01*
X38238095Y-8492631D02*
X38333333Y-8445012D01*
X38333333Y-8445012D02*
X38571428Y-8445012D01*
X38571428Y-8445012D02*
X38666666Y-8492631D01*
X38666666Y-8492631D02*
X38714285Y-8540250D01*
X38714285Y-8540250D02*
X38761904Y-8635488D01*
X38761904Y-8635488D02*
X38761904Y-8730726D01*
X38761904Y-8730726D02*
X38714285Y-8873583D01*
X38714285Y-8873583D02*
X38142857Y-9445012D01*
X38142857Y-9445012D02*
X38761904Y-9445012D01*
X33728571Y-11252488D02*
X33271428Y-11252488D01*
X33500000Y-11252488D02*
X33500000Y-10452488D01*
X33500000Y-10452488D02*
X33423809Y-10566773D01*
X33423809Y-10566773D02*
X33347619Y-10642964D01*
X33347619Y-10642964D02*
X33271428Y-10681059D01*
X-13238095Y15545181D02*
X-13238095Y16545181D01*
X-13238095Y16545181D02*
X-13000000Y16545181D01*
X-13000000Y16545181D02*
X-12857143Y16497562D01*
X-12857143Y16497562D02*
X-12761905Y16402324D01*
X-12761905Y16402324D02*
X-12714286Y16307086D01*
X-12714286Y16307086D02*
X-12666667Y16116610D01*
X-12666667Y16116610D02*
X-12666667Y15973753D01*
X-12666667Y15973753D02*
X-12714286Y15783277D01*
X-12714286Y15783277D02*
X-12761905Y15688039D01*
X-12761905Y15688039D02*
X-12857143Y15592800D01*
X-12857143Y15592800D02*
X-13000000Y15545181D01*
X-13000000Y15545181D02*
X-13238095Y15545181D01*
X-11809524Y16545181D02*
X-12000000Y16545181D01*
X-12000000Y16545181D02*
X-12095238Y16497562D01*
X-12095238Y16497562D02*
X-12142857Y16449943D01*
X-12142857Y16449943D02*
X-12238095Y16307086D01*
X-12238095Y16307086D02*
X-12285714Y16116610D01*
X-12285714Y16116610D02*
X-12285714Y15735658D01*
X-12285714Y15735658D02*
X-12238095Y15640420D01*
X-12238095Y15640420D02*
X-12190476Y15592800D01*
X-12190476Y15592800D02*
X-12095238Y15545181D01*
X-12095238Y15545181D02*
X-11904762Y15545181D01*
X-11904762Y15545181D02*
X-11809524Y15592800D01*
X-11809524Y15592800D02*
X-11761905Y15640420D01*
X-11761905Y15640420D02*
X-11714286Y15735658D01*
X-11714286Y15735658D02*
X-11714286Y15973753D01*
X-11714286Y15973753D02*
X-11761905Y16068991D01*
X-11761905Y16068991D02*
X-11809524Y16116610D01*
X-11809524Y16116610D02*
X-11904762Y16164229D01*
X-11904762Y16164229D02*
X-12095238Y16164229D01*
X-12095238Y16164229D02*
X-12190476Y16116610D01*
X-12190476Y16116610D02*
X-12238095Y16068991D01*
X-12238095Y16068991D02*
X-12285714Y15973753D01*
X-16271429Y13737705D02*
X-16728572Y13737705D01*
X-16500000Y13737705D02*
X-16500000Y14537705D01*
X-16500000Y14537705D02*
X-16576191Y14423420D01*
X-16576191Y14423420D02*
X-16652381Y14347229D01*
X-16652381Y14347229D02*
X-16728572Y14309134D01*
X35690476Y-29607200D02*
X35833333Y-29654819D01*
X35833333Y-29654819D02*
X36071428Y-29654819D01*
X36071428Y-29654819D02*
X36166666Y-29607200D01*
X36166666Y-29607200D02*
X36214285Y-29559580D01*
X36214285Y-29559580D02*
X36261904Y-29464342D01*
X36261904Y-29464342D02*
X36261904Y-29369104D01*
X36261904Y-29369104D02*
X36214285Y-29273866D01*
X36214285Y-29273866D02*
X36166666Y-29226247D01*
X36166666Y-29226247D02*
X36071428Y-29178628D01*
X36071428Y-29178628D02*
X35880952Y-29131009D01*
X35880952Y-29131009D02*
X35785714Y-29083390D01*
X35785714Y-29083390D02*
X35738095Y-29035771D01*
X35738095Y-29035771D02*
X35690476Y-28940533D01*
X35690476Y-28940533D02*
X35690476Y-28845295D01*
X35690476Y-28845295D02*
X35738095Y-28750057D01*
X35738095Y-28750057D02*
X35785714Y-28702438D01*
X35785714Y-28702438D02*
X35880952Y-28654819D01*
X35880952Y-28654819D02*
X36119047Y-28654819D01*
X36119047Y-28654819D02*
X36261904Y-28702438D01*
X36595238Y-28654819D02*
X36833333Y-29654819D01*
X36833333Y-29654819D02*
X37023809Y-28940533D01*
X37023809Y-28940533D02*
X37214285Y-29654819D01*
X37214285Y-29654819D02*
X37452381Y-28654819D01*
X38357142Y-29654819D02*
X37785714Y-29654819D01*
X38071428Y-29654819D02*
X38071428Y-28654819D01*
X38071428Y-28654819D02*
X37976190Y-28797676D01*
X37976190Y-28797676D02*
X37880952Y-28892914D01*
X37880952Y-28892914D02*
X37785714Y-28940533D01*
X39214285Y-28654819D02*
X39023809Y-28654819D01*
X39023809Y-28654819D02*
X38928571Y-28702438D01*
X38928571Y-28702438D02*
X38880952Y-28750057D01*
X38880952Y-28750057D02*
X38785714Y-28892914D01*
X38785714Y-28892914D02*
X38738095Y-29083390D01*
X38738095Y-29083390D02*
X38738095Y-29464342D01*
X38738095Y-29464342D02*
X38785714Y-29559580D01*
X38785714Y-29559580D02*
X38833333Y-29607200D01*
X38833333Y-29607200D02*
X38928571Y-29654819D01*
X38928571Y-29654819D02*
X39119047Y-29654819D01*
X39119047Y-29654819D02*
X39214285Y-29607200D01*
X39214285Y-29607200D02*
X39261904Y-29559580D01*
X39261904Y-29559580D02*
X39309523Y-29464342D01*
X39309523Y-29464342D02*
X39309523Y-29226247D01*
X39309523Y-29226247D02*
X39261904Y-29131009D01*
X39261904Y-29131009D02*
X39214285Y-29083390D01*
X39214285Y-29083390D02*
X39119047Y-29035771D01*
X39119047Y-29035771D02*
X38928571Y-29035771D01*
X38928571Y-29035771D02*
X38833333Y-29083390D01*
X38833333Y-29083390D02*
X38785714Y-29131009D01*
X38785714Y-29131009D02*
X38738095Y-29226247D01*
X-38714286Y-34454819D02*
X-38714286Y-33454819D01*
X-38714286Y-33454819D02*
X-38476191Y-33454819D01*
X-38476191Y-33454819D02*
X-38333334Y-33502438D01*
X-38333334Y-33502438D02*
X-38238096Y-33597676D01*
X-38238096Y-33597676D02*
X-38190477Y-33692914D01*
X-38190477Y-33692914D02*
X-38142858Y-33883390D01*
X-38142858Y-33883390D02*
X-38142858Y-34026247D01*
X-38142858Y-34026247D02*
X-38190477Y-34216723D01*
X-38190477Y-34216723D02*
X-38238096Y-34311961D01*
X-38238096Y-34311961D02*
X-38333334Y-34407200D01*
X-38333334Y-34407200D02*
X-38476191Y-34454819D01*
X-38476191Y-34454819D02*
X-38714286Y-34454819D01*
X-37190477Y-34454819D02*
X-37761905Y-34454819D01*
X-37476191Y-34454819D02*
X-37476191Y-33454819D01*
X-37476191Y-33454819D02*
X-37571429Y-33597676D01*
X-37571429Y-33597676D02*
X-37666667Y-33692914D01*
X-37666667Y-33692914D02*
X-37761905Y-33740533D01*
X-36857143Y-33454819D02*
X-36238096Y-33454819D01*
X-36238096Y-33454819D02*
X-36571429Y-33835771D01*
X-36571429Y-33835771D02*
X-36428572Y-33835771D01*
X-36428572Y-33835771D02*
X-36333334Y-33883390D01*
X-36333334Y-33883390D02*
X-36285715Y-33931009D01*
X-36285715Y-33931009D02*
X-36238096Y-34026247D01*
X-36238096Y-34026247D02*
X-36238096Y-34264342D01*
X-36238096Y-34264342D02*
X-36285715Y-34359580D01*
X-36285715Y-34359580D02*
X-36333334Y-34407200D01*
X-36333334Y-34407200D02*
X-36428572Y-34454819D01*
X-36428572Y-34454819D02*
X-36714286Y-34454819D01*
X-36714286Y-34454819D02*
X-36809524Y-34407200D01*
X-36809524Y-34407200D02*
X-36857143Y-34359580D01*
X-41271429Y-36262295D02*
X-41728572Y-36262295D01*
X-41500000Y-36262295D02*
X-41500000Y-35462295D01*
X-41500000Y-35462295D02*
X-41576191Y-35576580D01*
X-41576191Y-35576580D02*
X-41652381Y-35652771D01*
X-41652381Y-35652771D02*
X-41728572Y-35690866D01*
X36166667Y20392800D02*
X36309524Y20345181D01*
X36309524Y20345181D02*
X36547619Y20345181D01*
X36547619Y20345181D02*
X36642857Y20392800D01*
X36642857Y20392800D02*
X36690476Y20440420D01*
X36690476Y20440420D02*
X36738095Y20535658D01*
X36738095Y20535658D02*
X36738095Y20630896D01*
X36738095Y20630896D02*
X36690476Y20726134D01*
X36690476Y20726134D02*
X36642857Y20773753D01*
X36642857Y20773753D02*
X36547619Y20821372D01*
X36547619Y20821372D02*
X36357143Y20868991D01*
X36357143Y20868991D02*
X36261905Y20916610D01*
X36261905Y20916610D02*
X36214286Y20964229D01*
X36214286Y20964229D02*
X36166667Y21059467D01*
X36166667Y21059467D02*
X36166667Y21154705D01*
X36166667Y21154705D02*
X36214286Y21249943D01*
X36214286Y21249943D02*
X36261905Y21297562D01*
X36261905Y21297562D02*
X36357143Y21345181D01*
X36357143Y21345181D02*
X36595238Y21345181D01*
X36595238Y21345181D02*
X36738095Y21297562D01*
X37071429Y21345181D02*
X37309524Y20345181D01*
X37309524Y20345181D02*
X37500000Y21059467D01*
X37500000Y21059467D02*
X37690476Y20345181D01*
X37690476Y20345181D02*
X37928572Y21345181D01*
X38452381Y20916610D02*
X38357143Y20964229D01*
X38357143Y20964229D02*
X38309524Y21011848D01*
X38309524Y21011848D02*
X38261905Y21107086D01*
X38261905Y21107086D02*
X38261905Y21154705D01*
X38261905Y21154705D02*
X38309524Y21249943D01*
X38309524Y21249943D02*
X38357143Y21297562D01*
X38357143Y21297562D02*
X38452381Y21345181D01*
X38452381Y21345181D02*
X38642857Y21345181D01*
X38642857Y21345181D02*
X38738095Y21297562D01*
X38738095Y21297562D02*
X38785714Y21249943D01*
X38785714Y21249943D02*
X38833333Y21154705D01*
X38833333Y21154705D02*
X38833333Y21107086D01*
X38833333Y21107086D02*
X38785714Y21011848D01*
X38785714Y21011848D02*
X38738095Y20964229D01*
X38738095Y20964229D02*
X38642857Y20916610D01*
X38642857Y20916610D02*
X38452381Y20916610D01*
X38452381Y20916610D02*
X38357143Y20868991D01*
X38357143Y20868991D02*
X38309524Y20821372D01*
X38309524Y20821372D02*
X38261905Y20726134D01*
X38261905Y20726134D02*
X38261905Y20535658D01*
X38261905Y20535658D02*
X38309524Y20440420D01*
X38309524Y20440420D02*
X38357143Y20392800D01*
X38357143Y20392800D02*
X38452381Y20345181D01*
X38452381Y20345181D02*
X38642857Y20345181D01*
X38642857Y20345181D02*
X38738095Y20392800D01*
X38738095Y20392800D02*
X38785714Y20440420D01*
X38785714Y20440420D02*
X38833333Y20535658D01*
X38833333Y20535658D02*
X38833333Y20726134D01*
X38833333Y20726134D02*
X38785714Y20821372D01*
X38785714Y20821372D02*
X38738095Y20868991D01*
X38738095Y20868991D02*
X38642857Y20916610D01*
X-38738095Y-21604819D02*
X-38738095Y-20604819D01*
X-38738095Y-21081009D02*
X-38166667Y-21081009D01*
X-38166667Y-21604819D02*
X-38166667Y-20604819D01*
X-37166667Y-21604819D02*
X-37738095Y-21604819D01*
X-37452381Y-21604819D02*
X-37452381Y-20604819D01*
X-37452381Y-20604819D02*
X-37547619Y-20747676D01*
X-37547619Y-20747676D02*
X-37642857Y-20842914D01*
X-37642857Y-20842914D02*
X-37738095Y-20890533D01*
X-36547619Y-20604819D02*
X-36452381Y-20604819D01*
X-36452381Y-20604819D02*
X-36357143Y-20652438D01*
X-36357143Y-20652438D02*
X-36309524Y-20700057D01*
X-36309524Y-20700057D02*
X-36261905Y-20795295D01*
X-36261905Y-20795295D02*
X-36214286Y-20985771D01*
X-36214286Y-20985771D02*
X-36214286Y-21223866D01*
X-36214286Y-21223866D02*
X-36261905Y-21414342D01*
X-36261905Y-21414342D02*
X-36309524Y-21509580D01*
X-36309524Y-21509580D02*
X-36357143Y-21557200D01*
X-36357143Y-21557200D02*
X-36452381Y-21604819D01*
X-36452381Y-21604819D02*
X-36547619Y-21604819D01*
X-36547619Y-21604819D02*
X-36642857Y-21557200D01*
X-36642857Y-21557200D02*
X-36690476Y-21509580D01*
X-36690476Y-21509580D02*
X-36738095Y-21414342D01*
X-36738095Y-21414342D02*
X-36785714Y-21223866D01*
X-36785714Y-21223866D02*
X-36785714Y-20985771D01*
X-36785714Y-20985771D02*
X-36738095Y-20795295D01*
X-36738095Y-20795295D02*
X-36690476Y-20700057D01*
X-36690476Y-20700057D02*
X-36642857Y-20652438D01*
X-36642857Y-20652438D02*
X-36547619Y-20604819D01*
X-38261905Y28395181D02*
X-38261905Y29395181D01*
X-38261905Y28918991D02*
X-37690477Y28918991D01*
X-37690477Y28395181D02*
X-37690477Y29395181D01*
X-37071429Y28966610D02*
X-37166667Y29014229D01*
X-37166667Y29014229D02*
X-37214286Y29061848D01*
X-37214286Y29061848D02*
X-37261905Y29157086D01*
X-37261905Y29157086D02*
X-37261905Y29204705D01*
X-37261905Y29204705D02*
X-37214286Y29299943D01*
X-37214286Y29299943D02*
X-37166667Y29347562D01*
X-37166667Y29347562D02*
X-37071429Y29395181D01*
X-37071429Y29395181D02*
X-36880953Y29395181D01*
X-36880953Y29395181D02*
X-36785715Y29347562D01*
X-36785715Y29347562D02*
X-36738096Y29299943D01*
X-36738096Y29299943D02*
X-36690477Y29204705D01*
X-36690477Y29204705D02*
X-36690477Y29157086D01*
X-36690477Y29157086D02*
X-36738096Y29061848D01*
X-36738096Y29061848D02*
X-36785715Y29014229D01*
X-36785715Y29014229D02*
X-36880953Y28966610D01*
X-36880953Y28966610D02*
X-37071429Y28966610D01*
X-37071429Y28966610D02*
X-37166667Y28918991D01*
X-37166667Y28918991D02*
X-37214286Y28871372D01*
X-37214286Y28871372D02*
X-37261905Y28776134D01*
X-37261905Y28776134D02*
X-37261905Y28585658D01*
X-37261905Y28585658D02*
X-37214286Y28490420D01*
X-37214286Y28490420D02*
X-37166667Y28442800D01*
X-37166667Y28442800D02*
X-37071429Y28395181D01*
X-37071429Y28395181D02*
X-36880953Y28395181D01*
X-36880953Y28395181D02*
X-36785715Y28442800D01*
X-36785715Y28442800D02*
X-36738096Y28490420D01*
X-36738096Y28490420D02*
X-36690477Y28585658D01*
X-36690477Y28585658D02*
X-36690477Y28776134D01*
X-36690477Y28776134D02*
X-36738096Y28871372D01*
X-36738096Y28871372D02*
X-36785715Y28918991D01*
X-36785715Y28918991D02*
X-36880953Y28966610D01*
X36166667Y45392800D02*
X36309524Y45345181D01*
X36309524Y45345181D02*
X36547619Y45345181D01*
X36547619Y45345181D02*
X36642857Y45392800D01*
X36642857Y45392800D02*
X36690476Y45440420D01*
X36690476Y45440420D02*
X36738095Y45535658D01*
X36738095Y45535658D02*
X36738095Y45630896D01*
X36738095Y45630896D02*
X36690476Y45726134D01*
X36690476Y45726134D02*
X36642857Y45773753D01*
X36642857Y45773753D02*
X36547619Y45821372D01*
X36547619Y45821372D02*
X36357143Y45868991D01*
X36357143Y45868991D02*
X36261905Y45916610D01*
X36261905Y45916610D02*
X36214286Y45964229D01*
X36214286Y45964229D02*
X36166667Y46059467D01*
X36166667Y46059467D02*
X36166667Y46154705D01*
X36166667Y46154705D02*
X36214286Y46249943D01*
X36214286Y46249943D02*
X36261905Y46297562D01*
X36261905Y46297562D02*
X36357143Y46345181D01*
X36357143Y46345181D02*
X36595238Y46345181D01*
X36595238Y46345181D02*
X36738095Y46297562D01*
X37071429Y46345181D02*
X37309524Y45345181D01*
X37309524Y45345181D02*
X37500000Y46059467D01*
X37500000Y46059467D02*
X37690476Y45345181D01*
X37690476Y45345181D02*
X37928572Y46345181D01*
X38738095Y46011848D02*
X38738095Y45345181D01*
X38500000Y46392800D02*
X38261905Y45678515D01*
X38261905Y45678515D02*
X38880952Y45678515D01*
X-38238095Y15545181D02*
X-38238095Y16545181D01*
X-38238095Y16545181D02*
X-38000000Y16545181D01*
X-38000000Y16545181D02*
X-37857143Y16497562D01*
X-37857143Y16497562D02*
X-37761905Y16402324D01*
X-37761905Y16402324D02*
X-37714286Y16307086D01*
X-37714286Y16307086D02*
X-37666667Y16116610D01*
X-37666667Y16116610D02*
X-37666667Y15973753D01*
X-37666667Y15973753D02*
X-37714286Y15783277D01*
X-37714286Y15783277D02*
X-37761905Y15688039D01*
X-37761905Y15688039D02*
X-37857143Y15592800D01*
X-37857143Y15592800D02*
X-38000000Y15545181D01*
X-38000000Y15545181D02*
X-38238095Y15545181D01*
X-36761905Y16545181D02*
X-37238095Y16545181D01*
X-37238095Y16545181D02*
X-37285714Y16068991D01*
X-37285714Y16068991D02*
X-37238095Y16116610D01*
X-37238095Y16116610D02*
X-37142857Y16164229D01*
X-37142857Y16164229D02*
X-36904762Y16164229D01*
X-36904762Y16164229D02*
X-36809524Y16116610D01*
X-36809524Y16116610D02*
X-36761905Y16068991D01*
X-36761905Y16068991D02*
X-36714286Y15973753D01*
X-36714286Y15973753D02*
X-36714286Y15735658D01*
X-36714286Y15735658D02*
X-36761905Y15640420D01*
X-36761905Y15640420D02*
X-36809524Y15592800D01*
X-36809524Y15592800D02*
X-36904762Y15545181D01*
X-36904762Y15545181D02*
X-37142857Y15545181D01*
X-37142857Y15545181D02*
X-37238095Y15592800D01*
X-37238095Y15592800D02*
X-37285714Y15640420D01*
X-41271429Y13737705D02*
X-41728572Y13737705D01*
X-41500000Y13737705D02*
X-41500000Y14537705D01*
X-41500000Y14537705D02*
X-41576191Y14423420D01*
X-41576191Y14423420D02*
X-41652381Y14347229D01*
X-41652381Y14347229D02*
X-41728572Y14309134D01*
X11761905Y40545181D02*
X11761905Y41545181D01*
X11761905Y41545181D02*
X12000000Y41545181D01*
X12000000Y41545181D02*
X12142857Y41497562D01*
X12142857Y41497562D02*
X12238095Y41402324D01*
X12238095Y41402324D02*
X12285714Y41307086D01*
X12285714Y41307086D02*
X12333333Y41116610D01*
X12333333Y41116610D02*
X12333333Y40973753D01*
X12333333Y40973753D02*
X12285714Y40783277D01*
X12285714Y40783277D02*
X12238095Y40688039D01*
X12238095Y40688039D02*
X12142857Y40592800D01*
X12142857Y40592800D02*
X12000000Y40545181D01*
X12000000Y40545181D02*
X11761905Y40545181D01*
X12666667Y41545181D02*
X13285714Y41545181D01*
X13285714Y41545181D02*
X12952381Y41164229D01*
X12952381Y41164229D02*
X13095238Y41164229D01*
X13095238Y41164229D02*
X13190476Y41116610D01*
X13190476Y41116610D02*
X13238095Y41068991D01*
X13238095Y41068991D02*
X13285714Y40973753D01*
X13285714Y40973753D02*
X13285714Y40735658D01*
X13285714Y40735658D02*
X13238095Y40640420D01*
X13238095Y40640420D02*
X13190476Y40592800D01*
X13190476Y40592800D02*
X13095238Y40545181D01*
X13095238Y40545181D02*
X12809524Y40545181D01*
X12809524Y40545181D02*
X12714286Y40592800D01*
X12714286Y40592800D02*
X12666667Y40640420D01*
X8728571Y38737705D02*
X8271428Y38737705D01*
X8500000Y38737705D02*
X8500000Y39537705D01*
X8500000Y39537705D02*
X8423809Y39423420D01*
X8423809Y39423420D02*
X8347619Y39347229D01*
X8347619Y39347229D02*
X8271428Y39309134D01*
X-13238095Y40573267D02*
X-13238095Y41573267D01*
X-13238095Y41573267D02*
X-13000000Y41573267D01*
X-13000000Y41573267D02*
X-12857143Y41525648D01*
X-12857143Y41525648D02*
X-12761905Y41430410D01*
X-12761905Y41430410D02*
X-12714286Y41335172D01*
X-12714286Y41335172D02*
X-12666667Y41144696D01*
X-12666667Y41144696D02*
X-12666667Y41001839D01*
X-12666667Y41001839D02*
X-12714286Y40811363D01*
X-12714286Y40811363D02*
X-12761905Y40716125D01*
X-12761905Y40716125D02*
X-12857143Y40620886D01*
X-12857143Y40620886D02*
X-13000000Y40573267D01*
X-13000000Y40573267D02*
X-13238095Y40573267D01*
X-12285714Y41478029D02*
X-12238095Y41525648D01*
X-12238095Y41525648D02*
X-12142857Y41573267D01*
X-12142857Y41573267D02*
X-11904762Y41573267D01*
X-11904762Y41573267D02*
X-11809524Y41525648D01*
X-11809524Y41525648D02*
X-11761905Y41478029D01*
X-11761905Y41478029D02*
X-11714286Y41382791D01*
X-11714286Y41382791D02*
X-11714286Y41287553D01*
X-11714286Y41287553D02*
X-11761905Y41144696D01*
X-11761905Y41144696D02*
X-12333333Y40573267D01*
X-12333333Y40573267D02*
X-11714286Y40573267D01*
X-16271429Y38765791D02*
X-16728572Y38765791D01*
X-16500000Y38765791D02*
X-16500000Y39565791D01*
X-16500000Y39565791D02*
X-16576191Y39451506D01*
X-16576191Y39451506D02*
X-16652381Y39375315D01*
X-16652381Y39375315D02*
X-16728572Y39337220D01*
X45761905Y-44254819D02*
X45761905Y-43254819D01*
X45761905Y-43731009D02*
X46333333Y-43731009D01*
X46333333Y-44254819D02*
X46333333Y-43254819D01*
X46761905Y-43350057D02*
X46809524Y-43302438D01*
X46809524Y-43302438D02*
X46904762Y-43254819D01*
X46904762Y-43254819D02*
X47142857Y-43254819D01*
X47142857Y-43254819D02*
X47238095Y-43302438D01*
X47238095Y-43302438D02*
X47285714Y-43350057D01*
X47285714Y-43350057D02*
X47333333Y-43445295D01*
X47333333Y-43445295D02*
X47333333Y-43540533D01*
X47333333Y-43540533D02*
X47285714Y-43683390D01*
X47285714Y-43683390D02*
X46714286Y-44254819D01*
X46714286Y-44254819D02*
X47333333Y-44254819D01*
X47952381Y-43254819D02*
X48047619Y-43254819D01*
X48047619Y-43254819D02*
X48142857Y-43302438D01*
X48142857Y-43302438D02*
X48190476Y-43350057D01*
X48190476Y-43350057D02*
X48238095Y-43445295D01*
X48238095Y-43445295D02*
X48285714Y-43635771D01*
X48285714Y-43635771D02*
X48285714Y-43873866D01*
X48285714Y-43873866D02*
X48238095Y-44064342D01*
X48238095Y-44064342D02*
X48190476Y-44159580D01*
X48190476Y-44159580D02*
X48142857Y-44207200D01*
X48142857Y-44207200D02*
X48047619Y-44254819D01*
X48047619Y-44254819D02*
X47952381Y-44254819D01*
X47952381Y-44254819D02*
X47857143Y-44207200D01*
X47857143Y-44207200D02*
X47809524Y-44159580D01*
X47809524Y-44159580D02*
X47761905Y-44064342D01*
X47761905Y-44064342D02*
X47714286Y-43873866D01*
X47714286Y-43873866D02*
X47714286Y-43635771D01*
X47714286Y-43635771D02*
X47761905Y-43445295D01*
X47761905Y-43445295D02*
X47809524Y-43350057D01*
X47809524Y-43350057D02*
X47857143Y-43302438D01*
X47857143Y-43302438D02*
X47952381Y-43254819D01*
X11738095Y28395181D02*
X11738095Y29395181D01*
X11738095Y28918991D02*
X12309523Y28918991D01*
X12309523Y28395181D02*
X12309523Y29395181D01*
X13214285Y29395181D02*
X13023809Y29395181D01*
X13023809Y29395181D02*
X12928571Y29347562D01*
X12928571Y29347562D02*
X12880952Y29299943D01*
X12880952Y29299943D02*
X12785714Y29157086D01*
X12785714Y29157086D02*
X12738095Y28966610D01*
X12738095Y28966610D02*
X12738095Y28585658D01*
X12738095Y28585658D02*
X12785714Y28490420D01*
X12785714Y28490420D02*
X12833333Y28442800D01*
X12833333Y28442800D02*
X12928571Y28395181D01*
X12928571Y28395181D02*
X13119047Y28395181D01*
X13119047Y28395181D02*
X13214285Y28442800D01*
X13214285Y28442800D02*
X13261904Y28490420D01*
X13261904Y28490420D02*
X13309523Y28585658D01*
X13309523Y28585658D02*
X13309523Y28823753D01*
X13309523Y28823753D02*
X13261904Y28918991D01*
X13261904Y28918991D02*
X13214285Y28966610D01*
X13214285Y28966610D02*
X13119047Y29014229D01*
X13119047Y29014229D02*
X12928571Y29014229D01*
X12928571Y29014229D02*
X12833333Y28966610D01*
X12833333Y28966610D02*
X12785714Y28918991D01*
X12785714Y28918991D02*
X12738095Y28823753D01*
X-38833333Y-4607200D02*
X-38690476Y-4654819D01*
X-38690476Y-4654819D02*
X-38452381Y-4654819D01*
X-38452381Y-4654819D02*
X-38357143Y-4607200D01*
X-38357143Y-4607200D02*
X-38309524Y-4559580D01*
X-38309524Y-4559580D02*
X-38261905Y-4464342D01*
X-38261905Y-4464342D02*
X-38261905Y-4369104D01*
X-38261905Y-4369104D02*
X-38309524Y-4273866D01*
X-38309524Y-4273866D02*
X-38357143Y-4226247D01*
X-38357143Y-4226247D02*
X-38452381Y-4178628D01*
X-38452381Y-4178628D02*
X-38642857Y-4131009D01*
X-38642857Y-4131009D02*
X-38738095Y-4083390D01*
X-38738095Y-4083390D02*
X-38785714Y-4035771D01*
X-38785714Y-4035771D02*
X-38833333Y-3940533D01*
X-38833333Y-3940533D02*
X-38833333Y-3845295D01*
X-38833333Y-3845295D02*
X-38785714Y-3750057D01*
X-38785714Y-3750057D02*
X-38738095Y-3702438D01*
X-38738095Y-3702438D02*
X-38642857Y-3654819D01*
X-38642857Y-3654819D02*
X-38404762Y-3654819D01*
X-38404762Y-3654819D02*
X-38261905Y-3702438D01*
X-37928571Y-3654819D02*
X-37690476Y-4654819D01*
X-37690476Y-4654819D02*
X-37500000Y-3940533D01*
X-37500000Y-3940533D02*
X-37309524Y-4654819D01*
X-37309524Y-4654819D02*
X-37071428Y-3654819D01*
X-36642857Y-4654819D02*
X-36452381Y-4654819D01*
X-36452381Y-4654819D02*
X-36357143Y-4607200D01*
X-36357143Y-4607200D02*
X-36309524Y-4559580D01*
X-36309524Y-4559580D02*
X-36214286Y-4416723D01*
X-36214286Y-4416723D02*
X-36166667Y-4226247D01*
X-36166667Y-4226247D02*
X-36166667Y-3845295D01*
X-36166667Y-3845295D02*
X-36214286Y-3750057D01*
X-36214286Y-3750057D02*
X-36261905Y-3702438D01*
X-36261905Y-3702438D02*
X-36357143Y-3654819D01*
X-36357143Y-3654819D02*
X-36547619Y-3654819D01*
X-36547619Y-3654819D02*
X-36642857Y-3702438D01*
X-36642857Y-3702438D02*
X-36690476Y-3750057D01*
X-36690476Y-3750057D02*
X-36738095Y-3845295D01*
X-36738095Y-3845295D02*
X-36738095Y-4083390D01*
X-36738095Y-4083390D02*
X-36690476Y-4178628D01*
X-36690476Y-4178628D02*
X-36642857Y-4226247D01*
X-36642857Y-4226247D02*
X-36547619Y-4273866D01*
X-36547619Y-4273866D02*
X-36357143Y-4273866D01*
X-36357143Y-4273866D02*
X-36261905Y-4226247D01*
X-36261905Y-4226247D02*
X-36214286Y-4178628D01*
X-36214286Y-4178628D02*
X-36166667Y-4083390D01*
X23761905Y-9104819D02*
X23761905Y-8104819D01*
X23761905Y-8581009D02*
X24333333Y-8581009D01*
X24333333Y-9104819D02*
X24333333Y-8104819D01*
X25333333Y-9104819D02*
X24761905Y-9104819D01*
X25047619Y-9104819D02*
X25047619Y-8104819D01*
X25047619Y-8104819D02*
X24952381Y-8247676D01*
X24952381Y-8247676D02*
X24857143Y-8342914D01*
X24857143Y-8342914D02*
X24761905Y-8390533D01*
X26190476Y-8438152D02*
X26190476Y-9104819D01*
X25952381Y-8057200D02*
X25714286Y-8771485D01*
X25714286Y-8771485D02*
X26333333Y-8771485D01*
X-13738095Y-21604819D02*
X-13738095Y-20604819D01*
X-13738095Y-21081009D02*
X-13166667Y-21081009D01*
X-13166667Y-21604819D02*
X-13166667Y-20604819D01*
X-12166667Y-21604819D02*
X-12738095Y-21604819D01*
X-12452381Y-21604819D02*
X-12452381Y-20604819D01*
X-12452381Y-20604819D02*
X-12547619Y-20747676D01*
X-12547619Y-20747676D02*
X-12642857Y-20842914D01*
X-12642857Y-20842914D02*
X-12738095Y-20890533D01*
X-11214286Y-21604819D02*
X-11785714Y-21604819D01*
X-11500000Y-21604819D02*
X-11500000Y-20604819D01*
X-11500000Y-20604819D02*
X-11595238Y-20747676D01*
X-11595238Y-20747676D02*
X-11690476Y-20842914D01*
X-11690476Y-20842914D02*
X-11785714Y-20890533D01*
X24238095Y40895181D02*
X24238095Y41895181D01*
X24238095Y41418991D02*
X24809523Y41418991D01*
X24809523Y40895181D02*
X24809523Y41895181D01*
X25809523Y40895181D02*
X25238095Y40895181D01*
X25523809Y40895181D02*
X25523809Y41895181D01*
X25523809Y41895181D02*
X25428571Y41752324D01*
X25428571Y41752324D02*
X25333333Y41657086D01*
X25333333Y41657086D02*
X25238095Y41609467D01*
X-38238095Y40545181D02*
X-38238095Y41545181D01*
X-38238095Y41545181D02*
X-38000000Y41545181D01*
X-38000000Y41545181D02*
X-37857143Y41497562D01*
X-37857143Y41497562D02*
X-37761905Y41402324D01*
X-37761905Y41402324D02*
X-37714286Y41307086D01*
X-37714286Y41307086D02*
X-37666667Y41116610D01*
X-37666667Y41116610D02*
X-37666667Y40973753D01*
X-37666667Y40973753D02*
X-37714286Y40783277D01*
X-37714286Y40783277D02*
X-37761905Y40688039D01*
X-37761905Y40688039D02*
X-37857143Y40592800D01*
X-37857143Y40592800D02*
X-38000000Y40545181D01*
X-38000000Y40545181D02*
X-38238095Y40545181D01*
X-36714286Y40545181D02*
X-37285714Y40545181D01*
X-37000000Y40545181D02*
X-37000000Y41545181D01*
X-37000000Y41545181D02*
X-37095238Y41402324D01*
X-37095238Y41402324D02*
X-37190476Y41307086D01*
X-37190476Y41307086D02*
X-37285714Y41259467D01*
X-41271429Y38737705D02*
X-41728572Y38737705D01*
X-41500000Y38737705D02*
X-41500000Y39537705D01*
X-41500000Y39537705D02*
X-41576191Y39423420D01*
X-41576191Y39423420D02*
X-41652381Y39347229D01*
X-41652381Y39347229D02*
X-41728572Y39309134D01*
X36761905Y40545181D02*
X36761905Y41545181D01*
X36761905Y41545181D02*
X37000000Y41545181D01*
X37000000Y41545181D02*
X37142857Y41497562D01*
X37142857Y41497562D02*
X37238095Y41402324D01*
X37238095Y41402324D02*
X37285714Y41307086D01*
X37285714Y41307086D02*
X37333333Y41116610D01*
X37333333Y41116610D02*
X37333333Y40973753D01*
X37333333Y40973753D02*
X37285714Y40783277D01*
X37285714Y40783277D02*
X37238095Y40688039D01*
X37238095Y40688039D02*
X37142857Y40592800D01*
X37142857Y40592800D02*
X37000000Y40545181D01*
X37000000Y40545181D02*
X36761905Y40545181D01*
X38190476Y41211848D02*
X38190476Y40545181D01*
X37952381Y41592800D02*
X37714286Y40878515D01*
X37714286Y40878515D02*
X38333333Y40878515D01*
X33728571Y38737705D02*
X33271428Y38737705D01*
X33500000Y38737705D02*
X33500000Y39537705D01*
X33500000Y39537705D02*
X33423809Y39423420D01*
X33423809Y39423420D02*
X33347619Y39347229D01*
X33347619Y39347229D02*
X33271428Y39309134D01*
X36738095Y28395181D02*
X36738095Y29395181D01*
X36738095Y28918991D02*
X37309523Y28918991D01*
X37309523Y28395181D02*
X37309523Y29395181D01*
X37738095Y29299943D02*
X37785714Y29347562D01*
X37785714Y29347562D02*
X37880952Y29395181D01*
X37880952Y29395181D02*
X38119047Y29395181D01*
X38119047Y29395181D02*
X38214285Y29347562D01*
X38214285Y29347562D02*
X38261904Y29299943D01*
X38261904Y29299943D02*
X38309523Y29204705D01*
X38309523Y29204705D02*
X38309523Y29109467D01*
X38309523Y29109467D02*
X38261904Y28966610D01*
X38261904Y28966610D02*
X37690476Y28395181D01*
X37690476Y28395181D02*
X38309523Y28395181D01*
X42017905Y48084781D02*
X42017905Y49084781D01*
X42017905Y48608591D02*
X42589333Y48608591D01*
X42589333Y48084781D02*
X42589333Y49084781D01*
X43589333Y48084781D02*
X43017905Y48084781D01*
X43303619Y48084781D02*
X43303619Y49084781D01*
X43303619Y49084781D02*
X43208381Y48941924D01*
X43208381Y48941924D02*
X43113143Y48846686D01*
X43113143Y48846686D02*
X43017905Y48799067D01*
X44160762Y48656210D02*
X44065524Y48703829D01*
X44065524Y48703829D02*
X44017905Y48751448D01*
X44017905Y48751448D02*
X43970286Y48846686D01*
X43970286Y48846686D02*
X43970286Y48894305D01*
X43970286Y48894305D02*
X44017905Y48989543D01*
X44017905Y48989543D02*
X44065524Y49037162D01*
X44065524Y49037162D02*
X44160762Y49084781D01*
X44160762Y49084781D02*
X44351238Y49084781D01*
X44351238Y49084781D02*
X44446476Y49037162D01*
X44446476Y49037162D02*
X44494095Y48989543D01*
X44494095Y48989543D02*
X44541714Y48894305D01*
X44541714Y48894305D02*
X44541714Y48846686D01*
X44541714Y48846686D02*
X44494095Y48751448D01*
X44494095Y48751448D02*
X44446476Y48703829D01*
X44446476Y48703829D02*
X44351238Y48656210D01*
X44351238Y48656210D02*
X44160762Y48656210D01*
X44160762Y48656210D02*
X44065524Y48608591D01*
X44065524Y48608591D02*
X44017905Y48560972D01*
X44017905Y48560972D02*
X43970286Y48465734D01*
X43970286Y48465734D02*
X43970286Y48275258D01*
X43970286Y48275258D02*
X44017905Y48180020D01*
X44017905Y48180020D02*
X44065524Y48132400D01*
X44065524Y48132400D02*
X44160762Y48084781D01*
X44160762Y48084781D02*
X44351238Y48084781D01*
X44351238Y48084781D02*
X44446476Y48132400D01*
X44446476Y48132400D02*
X44494095Y48180020D01*
X44494095Y48180020D02*
X44541714Y48275258D01*
X44541714Y48275258D02*
X44541714Y48465734D01*
X44541714Y48465734D02*
X44494095Y48560972D01*
X44494095Y48560972D02*
X44446476Y48608591D01*
X44446476Y48608591D02*
X44351238Y48656210D01*
X-38833333Y20392800D02*
X-38690476Y20345181D01*
X-38690476Y20345181D02*
X-38452381Y20345181D01*
X-38452381Y20345181D02*
X-38357143Y20392800D01*
X-38357143Y20392800D02*
X-38309524Y20440420D01*
X-38309524Y20440420D02*
X-38261905Y20535658D01*
X-38261905Y20535658D02*
X-38261905Y20630896D01*
X-38261905Y20630896D02*
X-38309524Y20726134D01*
X-38309524Y20726134D02*
X-38357143Y20773753D01*
X-38357143Y20773753D02*
X-38452381Y20821372D01*
X-38452381Y20821372D02*
X-38642857Y20868991D01*
X-38642857Y20868991D02*
X-38738095Y20916610D01*
X-38738095Y20916610D02*
X-38785714Y20964229D01*
X-38785714Y20964229D02*
X-38833333Y21059467D01*
X-38833333Y21059467D02*
X-38833333Y21154705D01*
X-38833333Y21154705D02*
X-38785714Y21249943D01*
X-38785714Y21249943D02*
X-38738095Y21297562D01*
X-38738095Y21297562D02*
X-38642857Y21345181D01*
X-38642857Y21345181D02*
X-38404762Y21345181D01*
X-38404762Y21345181D02*
X-38261905Y21297562D01*
X-37928571Y21345181D02*
X-37690476Y20345181D01*
X-37690476Y20345181D02*
X-37500000Y21059467D01*
X-37500000Y21059467D02*
X-37309524Y20345181D01*
X-37309524Y20345181D02*
X-37071428Y21345181D01*
X-36214286Y21345181D02*
X-36690476Y21345181D01*
X-36690476Y21345181D02*
X-36738095Y20868991D01*
X-36738095Y20868991D02*
X-36690476Y20916610D01*
X-36690476Y20916610D02*
X-36595238Y20964229D01*
X-36595238Y20964229D02*
X-36357143Y20964229D01*
X-36357143Y20964229D02*
X-36261905Y20916610D01*
X-36261905Y20916610D02*
X-36214286Y20868991D01*
X-36214286Y20868991D02*
X-36166667Y20773753D01*
X-36166667Y20773753D02*
X-36166667Y20535658D01*
X-36166667Y20535658D02*
X-36214286Y20440420D01*
X-36214286Y20440420D02*
X-36261905Y20392800D01*
X-36261905Y20392800D02*
X-36357143Y20345181D01*
X-36357143Y20345181D02*
X-36595238Y20345181D01*
X-36595238Y20345181D02*
X-36690476Y20392800D01*
X-36690476Y20392800D02*
X-36738095Y20440420D01*
X10690476Y-29607200D02*
X10833333Y-29654819D01*
X10833333Y-29654819D02*
X11071428Y-29654819D01*
X11071428Y-29654819D02*
X11166666Y-29607200D01*
X11166666Y-29607200D02*
X11214285Y-29559580D01*
X11214285Y-29559580D02*
X11261904Y-29464342D01*
X11261904Y-29464342D02*
X11261904Y-29369104D01*
X11261904Y-29369104D02*
X11214285Y-29273866D01*
X11214285Y-29273866D02*
X11166666Y-29226247D01*
X11166666Y-29226247D02*
X11071428Y-29178628D01*
X11071428Y-29178628D02*
X10880952Y-29131009D01*
X10880952Y-29131009D02*
X10785714Y-29083390D01*
X10785714Y-29083390D02*
X10738095Y-29035771D01*
X10738095Y-29035771D02*
X10690476Y-28940533D01*
X10690476Y-28940533D02*
X10690476Y-28845295D01*
X10690476Y-28845295D02*
X10738095Y-28750057D01*
X10738095Y-28750057D02*
X10785714Y-28702438D01*
X10785714Y-28702438D02*
X10880952Y-28654819D01*
X10880952Y-28654819D02*
X11119047Y-28654819D01*
X11119047Y-28654819D02*
X11261904Y-28702438D01*
X11595238Y-28654819D02*
X11833333Y-29654819D01*
X11833333Y-29654819D02*
X12023809Y-28940533D01*
X12023809Y-28940533D02*
X12214285Y-29654819D01*
X12214285Y-29654819D02*
X12452381Y-28654819D01*
X13357142Y-29654819D02*
X12785714Y-29654819D01*
X13071428Y-29654819D02*
X13071428Y-28654819D01*
X13071428Y-28654819D02*
X12976190Y-28797676D01*
X12976190Y-28797676D02*
X12880952Y-28892914D01*
X12880952Y-28892914D02*
X12785714Y-28940533D01*
X14261904Y-28654819D02*
X13785714Y-28654819D01*
X13785714Y-28654819D02*
X13738095Y-29131009D01*
X13738095Y-29131009D02*
X13785714Y-29083390D01*
X13785714Y-29083390D02*
X13880952Y-29035771D01*
X13880952Y-29035771D02*
X14119047Y-29035771D01*
X14119047Y-29035771D02*
X14214285Y-29083390D01*
X14214285Y-29083390D02*
X14261904Y-29131009D01*
X14261904Y-29131009D02*
X14309523Y-29226247D01*
X14309523Y-29226247D02*
X14309523Y-29464342D01*
X14309523Y-29464342D02*
X14261904Y-29559580D01*
X14261904Y-29559580D02*
X14214285Y-29607200D01*
X14214285Y-29607200D02*
X14119047Y-29654819D01*
X14119047Y-29654819D02*
X13880952Y-29654819D01*
X13880952Y-29654819D02*
X13785714Y-29607200D01*
X13785714Y-29607200D02*
X13738095Y-29559580D01*
X10690476Y-4607200D02*
X10833333Y-4654819D01*
X10833333Y-4654819D02*
X11071428Y-4654819D01*
X11071428Y-4654819D02*
X11166666Y-4607200D01*
X11166666Y-4607200D02*
X11214285Y-4559580D01*
X11214285Y-4559580D02*
X11261904Y-4464342D01*
X11261904Y-4464342D02*
X11261904Y-4369104D01*
X11261904Y-4369104D02*
X11214285Y-4273866D01*
X11214285Y-4273866D02*
X11166666Y-4226247D01*
X11166666Y-4226247D02*
X11071428Y-4178628D01*
X11071428Y-4178628D02*
X10880952Y-4131009D01*
X10880952Y-4131009D02*
X10785714Y-4083390D01*
X10785714Y-4083390D02*
X10738095Y-4035771D01*
X10738095Y-4035771D02*
X10690476Y-3940533D01*
X10690476Y-3940533D02*
X10690476Y-3845295D01*
X10690476Y-3845295D02*
X10738095Y-3750057D01*
X10738095Y-3750057D02*
X10785714Y-3702438D01*
X10785714Y-3702438D02*
X10880952Y-3654819D01*
X10880952Y-3654819D02*
X11119047Y-3654819D01*
X11119047Y-3654819D02*
X11261904Y-3702438D01*
X11595238Y-3654819D02*
X11833333Y-4654819D01*
X11833333Y-4654819D02*
X12023809Y-3940533D01*
X12023809Y-3940533D02*
X12214285Y-4654819D01*
X12214285Y-4654819D02*
X12452381Y-3654819D01*
X13357142Y-4654819D02*
X12785714Y-4654819D01*
X13071428Y-4654819D02*
X13071428Y-3654819D01*
X13071428Y-3654819D02*
X12976190Y-3797676D01*
X12976190Y-3797676D02*
X12880952Y-3892914D01*
X12880952Y-3892914D02*
X12785714Y-3940533D01*
X13976190Y-3654819D02*
X14071428Y-3654819D01*
X14071428Y-3654819D02*
X14166666Y-3702438D01*
X14166666Y-3702438D02*
X14214285Y-3750057D01*
X14214285Y-3750057D02*
X14261904Y-3845295D01*
X14261904Y-3845295D02*
X14309523Y-4035771D01*
X14309523Y-4035771D02*
X14309523Y-4273866D01*
X14309523Y-4273866D02*
X14261904Y-4464342D01*
X14261904Y-4464342D02*
X14214285Y-4559580D01*
X14214285Y-4559580D02*
X14166666Y-4607200D01*
X14166666Y-4607200D02*
X14071428Y-4654819D01*
X14071428Y-4654819D02*
X13976190Y-4654819D01*
X13976190Y-4654819D02*
X13880952Y-4607200D01*
X13880952Y-4607200D02*
X13833333Y-4559580D01*
X13833333Y-4559580D02*
X13785714Y-4464342D01*
X13785714Y-4464342D02*
X13738095Y-4273866D01*
X13738095Y-4273866D02*
X13738095Y-4035771D01*
X13738095Y-4035771D02*
X13785714Y-3845295D01*
X13785714Y-3845295D02*
X13833333Y-3750057D01*
X13833333Y-3750057D02*
X13880952Y-3702438D01*
X13880952Y-3702438D02*
X13976190Y-3654819D01*
X-13833333Y20392800D02*
X-13690476Y20345181D01*
X-13690476Y20345181D02*
X-13452381Y20345181D01*
X-13452381Y20345181D02*
X-13357143Y20392800D01*
X-13357143Y20392800D02*
X-13309524Y20440420D01*
X-13309524Y20440420D02*
X-13261905Y20535658D01*
X-13261905Y20535658D02*
X-13261905Y20630896D01*
X-13261905Y20630896D02*
X-13309524Y20726134D01*
X-13309524Y20726134D02*
X-13357143Y20773753D01*
X-13357143Y20773753D02*
X-13452381Y20821372D01*
X-13452381Y20821372D02*
X-13642857Y20868991D01*
X-13642857Y20868991D02*
X-13738095Y20916610D01*
X-13738095Y20916610D02*
X-13785714Y20964229D01*
X-13785714Y20964229D02*
X-13833333Y21059467D01*
X-13833333Y21059467D02*
X-13833333Y21154705D01*
X-13833333Y21154705D02*
X-13785714Y21249943D01*
X-13785714Y21249943D02*
X-13738095Y21297562D01*
X-13738095Y21297562D02*
X-13642857Y21345181D01*
X-13642857Y21345181D02*
X-13404762Y21345181D01*
X-13404762Y21345181D02*
X-13261905Y21297562D01*
X-12928571Y21345181D02*
X-12690476Y20345181D01*
X-12690476Y20345181D02*
X-12500000Y21059467D01*
X-12500000Y21059467D02*
X-12309524Y20345181D01*
X-12309524Y20345181D02*
X-12071428Y21345181D01*
X-11261905Y21345181D02*
X-11452381Y21345181D01*
X-11452381Y21345181D02*
X-11547619Y21297562D01*
X-11547619Y21297562D02*
X-11595238Y21249943D01*
X-11595238Y21249943D02*
X-11690476Y21107086D01*
X-11690476Y21107086D02*
X-11738095Y20916610D01*
X-11738095Y20916610D02*
X-11738095Y20535658D01*
X-11738095Y20535658D02*
X-11690476Y20440420D01*
X-11690476Y20440420D02*
X-11642857Y20392800D01*
X-11642857Y20392800D02*
X-11547619Y20345181D01*
X-11547619Y20345181D02*
X-11357143Y20345181D01*
X-11357143Y20345181D02*
X-11261905Y20392800D01*
X-11261905Y20392800D02*
X-11214286Y20440420D01*
X-11214286Y20440420D02*
X-11166667Y20535658D01*
X-11166667Y20535658D02*
X-11166667Y20773753D01*
X-11166667Y20773753D02*
X-11214286Y20868991D01*
X-11214286Y20868991D02*
X-11261905Y20916610D01*
X-11261905Y20916610D02*
X-11357143Y20964229D01*
X-11357143Y20964229D02*
X-11547619Y20964229D01*
X-11547619Y20964229D02*
X-11642857Y20916610D01*
X-11642857Y20916610D02*
X-11690476Y20868991D01*
X-11690476Y20868991D02*
X-11738095Y20773753D01*
D11*
%TO.C,D9*%
X-41000000Y-9750000D02*
X-41000000Y-15250000D01*
X-41000000Y-9750000D02*
X-34000000Y-9750000D01*
X-41000000Y-15250000D02*
X-34450000Y-15250000D01*
X-40200000Y-13400000D02*
X-40200000Y-11600000D01*
X-34800000Y-13400000D02*
X-34800000Y-11600000D01*
X-34450000Y-15250000D02*
X-34000000Y-14800000D01*
X-34000000Y-14800000D02*
X-34000000Y-9750000D01*
%TO.C,D16*%
X34000000Y-34750000D02*
X34000000Y-40250000D01*
X34000000Y-34750000D02*
X41000000Y-34750000D01*
X34000000Y-40250000D02*
X40550000Y-40250000D01*
X34800000Y-38400000D02*
X34800000Y-36600000D01*
X40200000Y-38400000D02*
X40200000Y-36600000D01*
X40550000Y-40250000D02*
X41000000Y-39800000D01*
X41000000Y-39800000D02*
X41000000Y-34750000D01*
%TO.C,D15*%
X9000000Y-34750000D02*
X9000000Y-40250000D01*
X9000000Y-34750000D02*
X16000000Y-34750000D01*
X9000000Y-40250000D02*
X15550000Y-40250000D01*
X9800000Y-38400000D02*
X9800000Y-36600000D01*
X15200000Y-38400000D02*
X15200000Y-36600000D01*
X15550000Y-40250000D02*
X16000000Y-39800000D01*
X16000000Y-39800000D02*
X16000000Y-34750000D01*
%TO.C,R1*%
X-27075000Y29668936D02*
X-27075000Y30123064D01*
X-25605000Y29668936D02*
X-25605000Y30123064D01*
%TO.C,D14*%
X-16000000Y-34750000D02*
X-16000000Y-40250000D01*
X-16000000Y-34750000D02*
X-9000000Y-34750000D01*
X-16000000Y-40250000D02*
X-9450000Y-40250000D01*
X-15200000Y-38400000D02*
X-15200000Y-36600000D01*
X-9800000Y-38400000D02*
X-9800000Y-36600000D01*
X-9450000Y-40250000D02*
X-9000000Y-39800000D01*
X-9000000Y-39800000D02*
X-9000000Y-34750000D01*
%TO.C,D8*%
X34000000Y15250000D02*
X34000000Y9750000D01*
X34000000Y15250000D02*
X41000000Y15250000D01*
X34000000Y9750000D02*
X40550000Y9750000D01*
X34800000Y11600000D02*
X34800000Y13400000D01*
X40200000Y11600000D02*
X40200000Y13400000D01*
X40550000Y9750000D02*
X41000000Y10200000D01*
X41000000Y10200000D02*
X41000000Y15250000D01*
%TO.C,D7*%
X9000000Y15250000D02*
X9000000Y9750000D01*
X9000000Y15250000D02*
X16000000Y15250000D01*
X9000000Y9750000D02*
X15550000Y9750000D01*
X9800000Y11600000D02*
X9800000Y13400000D01*
X15200000Y11600000D02*
X15200000Y13400000D01*
X15550000Y9750000D02*
X16000000Y10200000D01*
X16000000Y10200000D02*
X16000000Y15250000D01*
%TO.C,D11*%
X9000000Y-9740193D02*
X9000000Y-15240193D01*
X9000000Y-9740193D02*
X16000000Y-9740193D01*
X9000000Y-15240193D02*
X15550000Y-15240193D01*
X9800000Y-13390193D02*
X9800000Y-11590193D01*
X15200000Y-13390193D02*
X15200000Y-11590193D01*
X15550000Y-15240193D02*
X16000000Y-14790193D01*
X16000000Y-14790193D02*
X16000000Y-9740193D01*
%TO.C,D10*%
X-16000000Y-9750000D02*
X-16000000Y-15250000D01*
X-16000000Y-9750000D02*
X-9000000Y-9750000D01*
X-16000000Y-15250000D02*
X-9450000Y-15250000D01*
X-15200000Y-13400000D02*
X-15200000Y-11600000D01*
X-9800000Y-13400000D02*
X-9800000Y-11600000D01*
X-9450000Y-15250000D02*
X-9000000Y-14800000D01*
X-9000000Y-14800000D02*
X-9000000Y-9750000D01*
%TO.C,D12*%
X34000000Y-9740193D02*
X34000000Y-15240193D01*
X34000000Y-9740193D02*
X41000000Y-9740193D01*
X34000000Y-15240193D02*
X40550000Y-15240193D01*
X34800000Y-13390193D02*
X34800000Y-11590193D01*
X40200000Y-13390193D02*
X40200000Y-11590193D01*
X40550000Y-15240193D02*
X41000000Y-14790193D01*
X41000000Y-14790193D02*
X41000000Y-9740193D01*
%TO.C,D6*%
X-16000000Y15250000D02*
X-16000000Y9750000D01*
X-16000000Y15250000D02*
X-9000000Y15250000D01*
X-16000000Y9750000D02*
X-9450000Y9750000D01*
X-15200000Y11600000D02*
X-15200000Y13400000D01*
X-9800000Y11600000D02*
X-9800000Y13400000D01*
X-9450000Y9750000D02*
X-9000000Y10200000D01*
X-9000000Y10200000D02*
X-9000000Y15250000D01*
%TO.C,D13*%
X-41000000Y-34750000D02*
X-41000000Y-40250000D01*
X-41000000Y-34750000D02*
X-34000000Y-34750000D01*
X-41000000Y-40250000D02*
X-34450000Y-40250000D01*
X-40200000Y-38400000D02*
X-40200000Y-36600000D01*
X-34800000Y-38400000D02*
X-34800000Y-36600000D01*
X-34450000Y-40250000D02*
X-34000000Y-39800000D01*
X-34000000Y-39800000D02*
X-34000000Y-34750000D01*
%TO.C,D5*%
X-41000000Y15250000D02*
X-41000000Y9750000D01*
X-41000000Y15250000D02*
X-34000000Y15250000D01*
X-41000000Y9750000D02*
X-34450000Y9750000D01*
X-40200000Y11600000D02*
X-40200000Y13400000D01*
X-34800000Y11600000D02*
X-34800000Y13400000D01*
X-34450000Y9750000D02*
X-34000000Y10200000D01*
X-34000000Y10200000D02*
X-34000000Y15250000D01*
%TO.C,D3*%
X9000000Y40250000D02*
X9000000Y34750000D01*
X9000000Y40250000D02*
X16000000Y40250000D01*
X9000000Y34750000D02*
X15550000Y34750000D01*
X9800000Y36600000D02*
X9800000Y38400000D01*
X15200000Y36600000D02*
X15200000Y38400000D01*
X15550000Y34750000D02*
X16000000Y35200000D01*
X16000000Y35200000D02*
X16000000Y40250000D01*
%TO.C,D2*%
X-16000000Y40278086D02*
X-16000000Y34778086D01*
X-16000000Y40278086D02*
X-9000000Y40278086D01*
X-16000000Y34778086D02*
X-9450000Y34778086D01*
X-15200000Y36628086D02*
X-15200000Y38428086D01*
X-9800000Y36628086D02*
X-9800000Y38428086D01*
X-9450000Y34778086D02*
X-9000000Y35228086D01*
X-9000000Y35228086D02*
X-9000000Y40278086D01*
%TO.C,D1*%
X-41000000Y40250000D02*
X-41000000Y34750000D01*
X-41000000Y40250000D02*
X-34000000Y40250000D01*
X-41000000Y34750000D02*
X-34450000Y34750000D01*
X-40200000Y36600000D02*
X-40200000Y38400000D01*
X-34800000Y36600000D02*
X-34800000Y38400000D01*
X-34450000Y34750000D02*
X-34000000Y35200000D01*
X-34000000Y35200000D02*
X-34000000Y40250000D01*
%TO.C,D4*%
X34000000Y40250000D02*
X34000000Y34750000D01*
X34000000Y40250000D02*
X41000000Y40250000D01*
X34000000Y34750000D02*
X40550000Y34750000D01*
X34800000Y36600000D02*
X34800000Y38400000D01*
X40200000Y36600000D02*
X40200000Y38400000D01*
X40550000Y34750000D02*
X41000000Y35200000D01*
X41000000Y35200000D02*
X41000000Y40250000D01*
%TD*%
M02*
