%TF.GenerationSoftware,KiCad,Pcbnew,9.0.0*%
%TF.CreationDate,2025-03-12T03:41:42+01:00*%
%TF.ProjectId,FX-Pads,46582d50-6164-4732-9e6b-696361645f70,rev?*%
%TF.SameCoordinates,PX5f5e100PY5f5e100*%
%TF.FileFunction,Soldermask,Bot*%
%TF.FilePolarity,Negative*%
%FSLAX46Y46*%
G04 Gerber Fmt 4.6, Leading zero omitted, Abs format (unit mm)*
G04 Created by KiCad (PCBNEW 9.0.0) date 2025-03-12 03:41:42*
%MOMM*%
%LPD*%
G01*
G04 APERTURE LIST*
G04 Aperture macros list*
%AMRoundRect*
0 Rectangle with rounded corners*
0 $1 Rounding radius*
0 $2 $3 $4 $5 $6 $7 $8 $9 X,Y pos of 4 corners*
0 Add a 4 corners polygon primitive as box body*
4,1,4,$2,$3,$4,$5,$6,$7,$8,$9,$2,$3,0*
0 Add four circle primitives for the rounded corners*
1,1,$1+$1,$2,$3*
1,1,$1+$1,$4,$5*
1,1,$1+$1,$6,$7*
1,1,$1+$1,$8,$9*
0 Add four rect primitives between the rounded corners*
20,1,$1+$1,$2,$3,$4,$5,0*
20,1,$1+$1,$4,$5,$6,$7,0*
20,1,$1+$1,$6,$7,$8,$9,0*
20,1,$1+$1,$8,$9,$2,$3,0*%
G04 Aperture macros list end*
%ADD10C,3.200000*%
%ADD11C,2.200000*%
%ADD12R,1.700000X1.700000*%
%ADD13O,1.700000X1.700000*%
%ADD14RoundRect,0.150000X0.150000X-0.875000X0.150000X0.875000X-0.150000X0.875000X-0.150000X-0.875000X0*%
G04 APERTURE END LIST*
D10*
%TO.C,H7*%
X-25000000Y12500000D03*
%TD*%
%TO.C,H4*%
X-25000000Y37500000D03*
%TD*%
%TO.C,H5*%
X-12500000Y25000000D03*
%TD*%
D11*
%TO.C,H17*%
X-47000000Y47000000D03*
%TD*%
D10*
%TO.C,H15*%
X12500000Y-25000000D03*
%TD*%
D11*
%TO.C,H19*%
X-47000000Y-47000000D03*
%TD*%
D10*
%TO.C,H9*%
X-25000000Y-12500000D03*
%TD*%
%TO.C,H16*%
X37500000Y-25000000D03*
%TD*%
%TO.C,H12*%
X25000000Y-37500000D03*
%TD*%
%TO.C,H3*%
X25000000Y12500000D03*
%TD*%
%TO.C,H13*%
X-25000000Y-37500000D03*
%TD*%
%TO.C,H10*%
X-37500000Y-25000000D03*
%TD*%
%TO.C,H8*%
X-37500000Y25000000D03*
%TD*%
D11*
%TO.C,H20*%
X47000000Y-47000000D03*
%TD*%
D10*
%TO.C,H6*%
X12500000Y25000000D03*
%TD*%
%TO.C,H14*%
X25000000Y-12500000D03*
%TD*%
%TO.C,H11*%
X-12500000Y-25000000D03*
%TD*%
%TO.C,H1*%
X25000000Y37500000D03*
%TD*%
%TO.C,H2*%
X37500000Y25000000D03*
%TD*%
D11*
%TO.C,H18*%
X47000000Y47000000D03*
%TD*%
D12*
%TO.C,J2*%
X-28800000Y25000000D03*
D13*
X-26260000Y25000000D03*
X-23720000Y25000000D03*
X-21180000Y25000000D03*
%TD*%
D12*
%TO.C,J1*%
X3800000Y25000000D03*
D13*
X1260000Y25000000D03*
X-1280000Y25000000D03*
X-3820000Y25000000D03*
%TD*%
D14*
%TO.C,U1*%
X7485000Y-17150000D03*
X6215000Y-17150000D03*
X4945000Y-17150000D03*
X3675000Y-17150000D03*
X2405000Y-17150000D03*
X1135000Y-17150000D03*
X-135000Y-17150000D03*
X-1405000Y-17150000D03*
X-2675000Y-17150000D03*
X-3945000Y-17150000D03*
X-5215000Y-17150000D03*
X-6485000Y-17150000D03*
X-6485000Y-7850000D03*
X-5215000Y-7850000D03*
X-3945000Y-7850000D03*
X-2675000Y-7850000D03*
X-1405000Y-7850000D03*
X-135000Y-7850000D03*
X1135000Y-7850000D03*
X2405000Y-7850000D03*
X3675000Y-7850000D03*
X4945000Y-7850000D03*
X6215000Y-7850000D03*
X7485000Y-7850000D03*
%TD*%
M02*
