%TF.GenerationSoftware,KiCad,Pcbnew,9.0.0*%
%TF.CreationDate,2025-03-12T03:41:42+01:00*%
%TF.ProjectId,FX-Pads,46582d50-6164-4732-9e6b-696361645f70,rev?*%
%TF.SameCoordinates,PX5f5e100PY5f5e100*%
%TF.FileFunction,Legend,Bot*%
%TF.FilePolarity,Positive*%
%FSLAX46Y46*%
G04 Gerber Fmt 4.6, Leading zero omitted, Abs format (unit mm)*
G04 Created by KiCad (PCBNEW 9.0.0) date 2025-03-12 03:41:42*
%MOMM*%
%LPD*%
G01*
G04 APERTURE LIST*
%ADD10C,0.200000*%
%ADD11C,0.150000*%
%ADD12C,0.120000*%
G04 APERTURE END LIST*
D10*
X-3090855Y21694400D02*
X-3233712Y21646781D01*
X-3233712Y21646781D02*
X-3471807Y21646781D01*
X-3471807Y21646781D02*
X-3567045Y21694400D01*
X-3567045Y21694400D02*
X-3614664Y21742020D01*
X-3614664Y21742020D02*
X-3662283Y21837258D01*
X-3662283Y21837258D02*
X-3662283Y21932496D01*
X-3662283Y21932496D02*
X-3614664Y22027734D01*
X-3614664Y22027734D02*
X-3567045Y22075353D01*
X-3567045Y22075353D02*
X-3471807Y22122972D01*
X-3471807Y22122972D02*
X-3281331Y22170591D01*
X-3281331Y22170591D02*
X-3186093Y22218210D01*
X-3186093Y22218210D02*
X-3138474Y22265829D01*
X-3138474Y22265829D02*
X-3090855Y22361067D01*
X-3090855Y22361067D02*
X-3090855Y22456305D01*
X-3090855Y22456305D02*
X-3138474Y22551543D01*
X-3138474Y22551543D02*
X-3186093Y22599162D01*
X-3186093Y22599162D02*
X-3281331Y22646781D01*
X-3281331Y22646781D02*
X-3519426Y22646781D01*
X-3519426Y22646781D02*
X-3662283Y22599162D01*
X-3995617Y22646781D02*
X-4614664Y22646781D01*
X-4614664Y22646781D02*
X-4281331Y22265829D01*
X-4281331Y22265829D02*
X-4424188Y22265829D01*
X-4424188Y22265829D02*
X-4519426Y22218210D01*
X-4519426Y22218210D02*
X-4567045Y22170591D01*
X-4567045Y22170591D02*
X-4614664Y22075353D01*
X-4614664Y22075353D02*
X-4614664Y21837258D01*
X-4614664Y21837258D02*
X-4567045Y21742020D01*
X-4567045Y21742020D02*
X-4519426Y21694400D01*
X-4519426Y21694400D02*
X-4424188Y21646781D01*
X-4424188Y21646781D02*
X-4138474Y21646781D01*
X-4138474Y21646781D02*
X-4043236Y21694400D01*
X-4043236Y21694400D02*
X-3995617Y21742020D01*
X-22734550Y22697581D02*
X-22925026Y22697581D01*
X-22925026Y22697581D02*
X-23020264Y22649962D01*
X-23020264Y22649962D02*
X-23115502Y22554724D01*
X-23115502Y22554724D02*
X-23163121Y22364248D01*
X-23163121Y22364248D02*
X-23163121Y22030915D01*
X-23163121Y22030915D02*
X-23115502Y21840439D01*
X-23115502Y21840439D02*
X-23020264Y21745200D01*
X-23020264Y21745200D02*
X-22925026Y21697581D01*
X-22925026Y21697581D02*
X-22734550Y21697581D01*
X-22734550Y21697581D02*
X-22639312Y21745200D01*
X-22639312Y21745200D02*
X-22544074Y21840439D01*
X-22544074Y21840439D02*
X-22496455Y22030915D01*
X-22496455Y22030915D02*
X-22496455Y22364248D01*
X-22496455Y22364248D02*
X-22544074Y22554724D01*
X-22544074Y22554724D02*
X-22639312Y22649962D01*
X-22639312Y22649962D02*
X-22734550Y22697581D01*
X-23591693Y22697581D02*
X-23591693Y21888058D01*
X-23591693Y21888058D02*
X-23639312Y21792820D01*
X-23639312Y21792820D02*
X-23686931Y21745200D01*
X-23686931Y21745200D02*
X-23782169Y21697581D01*
X-23782169Y21697581D02*
X-23972645Y21697581D01*
X-23972645Y21697581D02*
X-24067883Y21745200D01*
X-24067883Y21745200D02*
X-24115502Y21792820D01*
X-24115502Y21792820D02*
X-24163121Y21888058D01*
X-24163121Y21888058D02*
X-24163121Y22697581D01*
X-24496455Y22697581D02*
X-25067883Y22697581D01*
X-24782169Y21697581D02*
X-24782169Y22697581D01*
X1989145Y21694400D02*
X1846288Y21646781D01*
X1846288Y21646781D02*
X1608193Y21646781D01*
X1608193Y21646781D02*
X1512955Y21694400D01*
X1512955Y21694400D02*
X1465336Y21742020D01*
X1465336Y21742020D02*
X1417717Y21837258D01*
X1417717Y21837258D02*
X1417717Y21932496D01*
X1417717Y21932496D02*
X1465336Y22027734D01*
X1465336Y22027734D02*
X1512955Y22075353D01*
X1512955Y22075353D02*
X1608193Y22122972D01*
X1608193Y22122972D02*
X1798669Y22170591D01*
X1798669Y22170591D02*
X1893907Y22218210D01*
X1893907Y22218210D02*
X1941526Y22265829D01*
X1941526Y22265829D02*
X1989145Y22361067D01*
X1989145Y22361067D02*
X1989145Y22456305D01*
X1989145Y22456305D02*
X1941526Y22551543D01*
X1941526Y22551543D02*
X1893907Y22599162D01*
X1893907Y22599162D02*
X1798669Y22646781D01*
X1798669Y22646781D02*
X1560574Y22646781D01*
X1560574Y22646781D02*
X1417717Y22599162D01*
X465336Y21646781D02*
X1036764Y21646781D01*
X751050Y21646781D02*
X751050Y22646781D01*
X751050Y22646781D02*
X846288Y22503924D01*
X846288Y22503924D02*
X941526Y22408686D01*
X941526Y22408686D02*
X1036764Y22361067D01*
X-28351083Y22599162D02*
X-28255845Y22646781D01*
X-28255845Y22646781D02*
X-28112988Y22646781D01*
X-28112988Y22646781D02*
X-27970131Y22599162D01*
X-27970131Y22599162D02*
X-27874893Y22503924D01*
X-27874893Y22503924D02*
X-27827274Y22408686D01*
X-27827274Y22408686D02*
X-27779655Y22218210D01*
X-27779655Y22218210D02*
X-27779655Y22075353D01*
X-27779655Y22075353D02*
X-27827274Y21884877D01*
X-27827274Y21884877D02*
X-27874893Y21789639D01*
X-27874893Y21789639D02*
X-27970131Y21694400D01*
X-27970131Y21694400D02*
X-28112988Y21646781D01*
X-28112988Y21646781D02*
X-28208226Y21646781D01*
X-28208226Y21646781D02*
X-28351083Y21694400D01*
X-28351083Y21694400D02*
X-28398702Y21742020D01*
X-28398702Y21742020D02*
X-28398702Y22075353D01*
X-28398702Y22075353D02*
X-28208226Y22075353D01*
X-28827274Y21646781D02*
X-28827274Y22646781D01*
X-28827274Y22646781D02*
X-29398702Y21646781D01*
X-29398702Y21646781D02*
X-29398702Y22646781D01*
X-29874893Y21646781D02*
X-29874893Y22646781D01*
X-29874893Y22646781D02*
X-30112988Y22646781D01*
X-30112988Y22646781D02*
X-30255845Y22599162D01*
X-30255845Y22599162D02*
X-30351083Y22503924D01*
X-30351083Y22503924D02*
X-30398702Y22408686D01*
X-30398702Y22408686D02*
X-30446321Y22218210D01*
X-30446321Y22218210D02*
X-30446321Y22075353D01*
X-30446321Y22075353D02*
X-30398702Y21884877D01*
X-30398702Y21884877D02*
X-30351083Y21789639D01*
X-30351083Y21789639D02*
X-30255845Y21694400D01*
X-30255845Y21694400D02*
X-30112988Y21646781D01*
X-30112988Y21646781D02*
X-29874893Y21646781D01*
X-25592074Y21697581D02*
X-25592074Y22697581D01*
X-25592074Y22697581D02*
X-26163502Y21697581D01*
X-26163502Y21697581D02*
X-26163502Y22697581D01*
X-26639693Y21697581D02*
X-26639693Y22697581D01*
X-26639693Y22697581D02*
X-27020645Y22697581D01*
X-27020645Y22697581D02*
X-27115883Y22649962D01*
X-27115883Y22649962D02*
X-27163502Y22602343D01*
X-27163502Y22602343D02*
X-27211121Y22507105D01*
X-27211121Y22507105D02*
X-27211121Y22364248D01*
X-27211121Y22364248D02*
X-27163502Y22269010D01*
X-27163502Y22269010D02*
X-27115883Y22221391D01*
X-27115883Y22221391D02*
X-27020645Y22173772D01*
X-27020645Y22173772D02*
X-26639693Y22173772D01*
X-550855Y21694400D02*
X-693712Y21646781D01*
X-693712Y21646781D02*
X-931807Y21646781D01*
X-931807Y21646781D02*
X-1027045Y21694400D01*
X-1027045Y21694400D02*
X-1074664Y21742020D01*
X-1074664Y21742020D02*
X-1122283Y21837258D01*
X-1122283Y21837258D02*
X-1122283Y21932496D01*
X-1122283Y21932496D02*
X-1074664Y22027734D01*
X-1074664Y22027734D02*
X-1027045Y22075353D01*
X-1027045Y22075353D02*
X-931807Y22122972D01*
X-931807Y22122972D02*
X-741331Y22170591D01*
X-741331Y22170591D02*
X-646093Y22218210D01*
X-646093Y22218210D02*
X-598474Y22265829D01*
X-598474Y22265829D02*
X-550855Y22361067D01*
X-550855Y22361067D02*
X-550855Y22456305D01*
X-550855Y22456305D02*
X-598474Y22551543D01*
X-598474Y22551543D02*
X-646093Y22599162D01*
X-646093Y22599162D02*
X-741331Y22646781D01*
X-741331Y22646781D02*
X-979426Y22646781D01*
X-979426Y22646781D02*
X-1122283Y22599162D01*
X-1503236Y22551543D02*
X-1550855Y22599162D01*
X-1550855Y22599162D02*
X-1646093Y22646781D01*
X-1646093Y22646781D02*
X-1884188Y22646781D01*
X-1884188Y22646781D02*
X-1979426Y22599162D01*
X-1979426Y22599162D02*
X-2027045Y22551543D01*
X-2027045Y22551543D02*
X-2074664Y22456305D01*
X-2074664Y22456305D02*
X-2074664Y22361067D01*
X-2074664Y22361067D02*
X-2027045Y22218210D01*
X-2027045Y22218210D02*
X-1455617Y21646781D01*
X-1455617Y21646781D02*
X-2074664Y21646781D01*
X-19353217Y22697581D02*
X-19686550Y21697581D01*
X-19686550Y21697581D02*
X-20019883Y22697581D01*
X-20924645Y21792820D02*
X-20877026Y21745200D01*
X-20877026Y21745200D02*
X-20734169Y21697581D01*
X-20734169Y21697581D02*
X-20638931Y21697581D01*
X-20638931Y21697581D02*
X-20496074Y21745200D01*
X-20496074Y21745200D02*
X-20400836Y21840439D01*
X-20400836Y21840439D02*
X-20353217Y21935677D01*
X-20353217Y21935677D02*
X-20305598Y22126153D01*
X-20305598Y22126153D02*
X-20305598Y22269010D01*
X-20305598Y22269010D02*
X-20353217Y22459486D01*
X-20353217Y22459486D02*
X-20400836Y22554724D01*
X-20400836Y22554724D02*
X-20496074Y22649962D01*
X-20496074Y22649962D02*
X-20638931Y22697581D01*
X-20638931Y22697581D02*
X-20734169Y22697581D01*
X-20734169Y22697581D02*
X-20877026Y22649962D01*
X-20877026Y22649962D02*
X-20924645Y22602343D01*
X-21924645Y21792820D02*
X-21877026Y21745200D01*
X-21877026Y21745200D02*
X-21734169Y21697581D01*
X-21734169Y21697581D02*
X-21638931Y21697581D01*
X-21638931Y21697581D02*
X-21496074Y21745200D01*
X-21496074Y21745200D02*
X-21400836Y21840439D01*
X-21400836Y21840439D02*
X-21353217Y21935677D01*
X-21353217Y21935677D02*
X-21305598Y22126153D01*
X-21305598Y22126153D02*
X-21305598Y22269010D01*
X-21305598Y22269010D02*
X-21353217Y22459486D01*
X-21353217Y22459486D02*
X-21400836Y22554724D01*
X-21400836Y22554724D02*
X-21496074Y22649962D01*
X-21496074Y22649962D02*
X-21638931Y22697581D01*
X-21638931Y22697581D02*
X-21734169Y22697581D01*
X-21734169Y22697581D02*
X-21877026Y22649962D01*
X-21877026Y22649962D02*
X-21924645Y22602343D01*
X4529145Y21694400D02*
X4386288Y21646781D01*
X4386288Y21646781D02*
X4148193Y21646781D01*
X4148193Y21646781D02*
X4052955Y21694400D01*
X4052955Y21694400D02*
X4005336Y21742020D01*
X4005336Y21742020D02*
X3957717Y21837258D01*
X3957717Y21837258D02*
X3957717Y21932496D01*
X3957717Y21932496D02*
X4005336Y22027734D01*
X4005336Y22027734D02*
X4052955Y22075353D01*
X4052955Y22075353D02*
X4148193Y22122972D01*
X4148193Y22122972D02*
X4338669Y22170591D01*
X4338669Y22170591D02*
X4433907Y22218210D01*
X4433907Y22218210D02*
X4481526Y22265829D01*
X4481526Y22265829D02*
X4529145Y22361067D01*
X4529145Y22361067D02*
X4529145Y22456305D01*
X4529145Y22456305D02*
X4481526Y22551543D01*
X4481526Y22551543D02*
X4433907Y22599162D01*
X4433907Y22599162D02*
X4338669Y22646781D01*
X4338669Y22646781D02*
X4100574Y22646781D01*
X4100574Y22646781D02*
X3957717Y22599162D01*
X3338669Y22646781D02*
X3243431Y22646781D01*
X3243431Y22646781D02*
X3148193Y22599162D01*
X3148193Y22599162D02*
X3100574Y22551543D01*
X3100574Y22551543D02*
X3052955Y22456305D01*
X3052955Y22456305D02*
X3005336Y22265829D01*
X3005336Y22265829D02*
X3005336Y22027734D01*
X3005336Y22027734D02*
X3052955Y21837258D01*
X3052955Y21837258D02*
X3100574Y21742020D01*
X3100574Y21742020D02*
X3148193Y21694400D01*
X3148193Y21694400D02*
X3243431Y21646781D01*
X3243431Y21646781D02*
X3338669Y21646781D01*
X3338669Y21646781D02*
X3433907Y21694400D01*
X3433907Y21694400D02*
X3481526Y21742020D01*
X3481526Y21742020D02*
X3529145Y21837258D01*
X3529145Y21837258D02*
X3576764Y22027734D01*
X3576764Y22027734D02*
X3576764Y22265829D01*
X3576764Y22265829D02*
X3529145Y22456305D01*
X3529145Y22456305D02*
X3481526Y22551543D01*
X3481526Y22551543D02*
X3433907Y22599162D01*
X3433907Y22599162D02*
X3338669Y22646781D01*
D11*
X-31675181Y25333334D02*
X-30960896Y25333334D01*
X-30960896Y25333334D02*
X-30818039Y25380953D01*
X-30818039Y25380953D02*
X-30722800Y25476191D01*
X-30722800Y25476191D02*
X-30675181Y25619048D01*
X-30675181Y25619048D02*
X-30675181Y25714286D01*
X-31579943Y24904762D02*
X-31627562Y24857143D01*
X-31627562Y24857143D02*
X-31675181Y24761905D01*
X-31675181Y24761905D02*
X-31675181Y24523810D01*
X-31675181Y24523810D02*
X-31627562Y24428572D01*
X-31627562Y24428572D02*
X-31579943Y24380953D01*
X-31579943Y24380953D02*
X-31484705Y24333334D01*
X-31484705Y24333334D02*
X-31389467Y24333334D01*
X-31389467Y24333334D02*
X-31246610Y24380953D01*
X-31246610Y24380953D02*
X-30675181Y24952381D01*
X-30675181Y24952381D02*
X-30675181Y24333334D01*
X5584819Y25333334D02*
X6299104Y25333334D01*
X6299104Y25333334D02*
X6441961Y25380953D01*
X6441961Y25380953D02*
X6537200Y25476191D01*
X6537200Y25476191D02*
X6584819Y25619048D01*
X6584819Y25619048D02*
X6584819Y25714286D01*
X6584819Y24333334D02*
X6584819Y24904762D01*
X6584819Y24619048D02*
X5584819Y24619048D01*
X5584819Y24619048D02*
X5727676Y24714286D01*
X5727676Y24714286D02*
X5822914Y24809524D01*
X5822914Y24809524D02*
X5870533Y24904762D01*
X8604819Y-11738095D02*
X9414342Y-11738095D01*
X9414342Y-11738095D02*
X9509580Y-11785714D01*
X9509580Y-11785714D02*
X9557200Y-11833333D01*
X9557200Y-11833333D02*
X9604819Y-11928571D01*
X9604819Y-11928571D02*
X9604819Y-12119047D01*
X9604819Y-12119047D02*
X9557200Y-12214285D01*
X9557200Y-12214285D02*
X9509580Y-12261904D01*
X9509580Y-12261904D02*
X9414342Y-12309523D01*
X9414342Y-12309523D02*
X8604819Y-12309523D01*
X9604819Y-13309523D02*
X9604819Y-12738095D01*
X9604819Y-13023809D02*
X8604819Y-13023809D01*
X8604819Y-13023809D02*
X8747676Y-12928571D01*
X8747676Y-12928571D02*
X8842914Y-12833333D01*
X8842914Y-12833333D02*
X8890533Y-12738095D01*
D12*
%TO.C,J2*%
X-30130000Y26330000D02*
X-30130000Y25000000D01*
X-28800000Y26330000D02*
X-30130000Y26330000D01*
X-27530000Y26330000D02*
X-27530000Y23670000D01*
X-27530000Y26330000D02*
X-19850000Y26330000D01*
X-27530000Y23670000D02*
X-19850000Y23670000D01*
X-19850000Y26330000D02*
X-19850000Y23670000D01*
%TO.C,J1*%
X-5150000Y23670000D02*
X-5150000Y26330000D01*
X2530000Y26330000D02*
X-5150000Y26330000D01*
X2530000Y23670000D02*
X-5150000Y23670000D01*
X2530000Y23670000D02*
X2530000Y26330000D01*
X3800000Y23670000D02*
X5130000Y23670000D01*
X5130000Y23670000D02*
X5130000Y25000000D01*
%TO.C,U1*%
X-7310000Y-8640000D02*
X-7045000Y-8640000D01*
X-7310000Y-12500000D02*
X-7310000Y-8640000D01*
X-7310000Y-12500000D02*
X-7310000Y-16360000D01*
X-7310000Y-16360000D02*
X-7045000Y-16360000D01*
X8310000Y-8640000D02*
X8045000Y-8640000D01*
X8310000Y-12500000D02*
X8310000Y-8640000D01*
X8310000Y-12500000D02*
X8310000Y-16360000D01*
X8310000Y-16360000D02*
X8045000Y-16360000D01*
X8515000Y-17552500D02*
X8045000Y-17212500D01*
X8515000Y-16872500D01*
X8515000Y-17552500D01*
G36*
X8515000Y-17552500D02*
G01*
X8045000Y-17212500D01*
X8515000Y-16872500D01*
X8515000Y-17552500D01*
G37*
%TD*%
M02*
