M48
; DRILL file {KiCad 9.0.6} date 2025-11-10T17:27:48+0100
; FORMAT={-:-/ absolute / metric / decimal}
; #@! TF.CreationDate,2025-11-10T17:27:48+01:00
; #@! TF.GenerationSoftware,Kicad,Pcbnew,9.0.6
; #@! TF.FileFunction,NonPlated,1,2,NPTH
FMAT,2
METRIC
; #@! TA.AperFunction,NonPlated,NPTH,ComponentDrill
T1C2.200
; #@! TA.AperFunction,NonPlated,NPTH,ComponentDrill
T2C3.200
%
G90
G05
T1
X-47.0Y47.0
X-47.0Y-47.0
X47.0Y47.0
X47.0Y-47.0
T2
X-37.5Y25.0
X-37.5Y-25.0
X-25.0Y37.5
X-25.0Y12.5
X-25.0Y-12.5
X-25.0Y-37.5
X-12.5Y25.0
X-12.5Y-25.0
X12.5Y25.0
X12.5Y-25.0
X25.0Y37.5
X25.0Y12.5
X25.0Y-12.5
X25.0Y-37.5
X37.5Y25.0
X37.5Y-25.0
M30
