M48
; DRILL file {KiCad 9.0.0} date 2025-04-19T08:54:42+0200
; FORMAT={-:-/ absolute / metric / decimal}
; #@! TF.CreationDate,2025-04-19T08:54:42+02:00
; #@! TF.GenerationSoftware,Kicad,Pcbnew,9.0.0
; #@! TF.FileFunction,Plated,1,2,PTH
FMAT,2
METRIC
; #@! TA.AperFunction,Plated,PTH,ViaDrill
T1C0.400
; #@! TA.AperFunction,Plated,PTH,ViaDrill
T2C0.600
; #@! TA.AperFunction,Plated,PTH,ComponentDrill
T3C0.750
; #@! TA.AperFunction,Plated,PTH,ComponentDrill
T4C0.800
; #@! TA.AperFunction,Plated,PTH,ComponentDrill
T5C1.000
; #@! TA.AperFunction,Plated,PTH,ComponentDrill
T6C1.100
; #@! TA.AperFunction,Plated,PTH,ComponentDrill
T7C2.600
%
G90
G05
T1
X-31.018Y-23.58
X-20.534Y-22.624
X-20.269Y16.451
X-18.935Y-15.574
X-15.992Y21.723
X-10.797Y2.933
X-9.634Y3.604
X-6.676Y2.037
X-5.78Y20.275
X-2.52Y-0.614
X-1.838Y5.321
X-0.868Y1.652
X5.782Y25.685
X6.489Y3.095
X6.693Y0.899
X6.693Y-1.482
X6.831Y-5.192
X7.095Y-3.137
X7.87Y4.603
X7.946Y-0.953
X9.636Y2.918
X25.051Y-25.635
X28.15Y-23.555
X31.519Y-22.055
T2
X-12.428Y8.391
T3
X-23.388Y14.995
X-21.388Y14.995
X-19.388Y14.995
X-17.388Y14.995
X-15.388Y14.995
X-13.388Y14.995
X-11.388Y14.995
T4
X-35.188Y5.778
X-35.188Y-4.382
X-32.648Y5.778
X-32.648Y-4.382
X-30.108Y5.778
X-30.108Y-4.382
X-27.568Y5.778
X-27.568Y-4.382
X-25.028Y5.778
X-25.028Y-4.382
X-22.488Y5.778
X23.638Y5.829
X23.638Y-4.331
X26.178Y5.829
X26.178Y-4.331
X28.718Y5.829
X28.718Y-4.331
X31.258Y5.829
X31.258Y-4.331
X33.798Y5.829
X33.798Y-4.331
X36.338Y5.829
T5
X-31.5Y-15.55
X-31.5Y-30.05
X-29.0Y-15.55
X-26.5Y-15.55
X-26.5Y-30.05
X-2.55Y30.1
X-2.55Y15.6
X-0.05Y15.6
X2.45Y30.1
X2.45Y15.6
X27.5Y-15.5
X27.5Y-30.0
X30.0Y-15.5
X32.5Y-15.5
X32.5Y-30.0
T6
X-35.86Y25.65
X-35.86Y21.15
X-29.36Y25.65
X-29.36Y21.15
X-3.08Y-20.398
X-3.08Y-24.898
X3.42Y-20.398
X3.42Y-24.898
X29.862Y25.655
X29.862Y21.155
X36.362Y25.655
X36.362Y21.155
T7
X-34.6Y-23.05
X-23.4Y-23.05
X-5.65Y23.1
X5.55Y23.1
X24.4Y-23.0
X35.6Y-23.0
M30
