%TF.GenerationSoftware,KiCad,Pcbnew,9.0.0*%
%TF.CreationDate,2025-04-19T08:54:27+02:00*%
%TF.ProjectId,Encoders-LCD,456e636f-6465-4727-932d-4c43442e6b69,rev?*%
%TF.SameCoordinates,PX55d4a80PY4e33880*%
%TF.FileFunction,Legend,Top*%
%TF.FilePolarity,Positive*%
%FSLAX46Y46*%
G04 Gerber Fmt 4.6, Leading zero omitted, Abs format (unit mm)*
G04 Created by KiCad (PCBNEW 9.0.0) date 2025-04-19 08:54:27*
%MOMM*%
%LPD*%
G01*
G04 APERTURE LIST*
%ADD10C,0.150000*%
%ADD11C,0.100000*%
%ADD12C,0.120000*%
G04 APERTURE END LIST*
D10*
X37131009Y-20014285D02*
X37131009Y-19680952D01*
X37654819Y-19538095D02*
X37654819Y-20014285D01*
X37654819Y-20014285D02*
X36654819Y-20014285D01*
X36654819Y-20014285D02*
X36654819Y-19538095D01*
X37654819Y-19109523D02*
X36654819Y-19109523D01*
X36654819Y-19109523D02*
X37654819Y-18538095D01*
X37654819Y-18538095D02*
X36654819Y-18538095D01*
X37559580Y-17490476D02*
X37607200Y-17538095D01*
X37607200Y-17538095D02*
X37654819Y-17680952D01*
X37654819Y-17680952D02*
X37654819Y-17776190D01*
X37654819Y-17776190D02*
X37607200Y-17919047D01*
X37607200Y-17919047D02*
X37511961Y-18014285D01*
X37511961Y-18014285D02*
X37416723Y-18061904D01*
X37416723Y-18061904D02*
X37226247Y-18109523D01*
X37226247Y-18109523D02*
X37083390Y-18109523D01*
X37083390Y-18109523D02*
X36892914Y-18061904D01*
X36892914Y-18061904D02*
X36797676Y-18014285D01*
X36797676Y-18014285D02*
X36702438Y-17919047D01*
X36702438Y-17919047D02*
X36654819Y-17776190D01*
X36654819Y-17776190D02*
X36654819Y-17680952D01*
X36654819Y-17680952D02*
X36702438Y-17538095D01*
X36702438Y-17538095D02*
X36750057Y-17490476D01*
X36654819Y-17157142D02*
X36654819Y-16538095D01*
X36654819Y-16538095D02*
X37035771Y-16871428D01*
X37035771Y-16871428D02*
X37035771Y-16728571D01*
X37035771Y-16728571D02*
X37083390Y-16633333D01*
X37083390Y-16633333D02*
X37131009Y-16585714D01*
X37131009Y-16585714D02*
X37226247Y-16538095D01*
X37226247Y-16538095D02*
X37464342Y-16538095D01*
X37464342Y-16538095D02*
X37559580Y-16585714D01*
X37559580Y-16585714D02*
X37607200Y-16633333D01*
X37607200Y-16633333D02*
X37654819Y-16728571D01*
X37654819Y-16728571D02*
X37654819Y-17014285D01*
X37654819Y-17014285D02*
X37607200Y-17109523D01*
X37607200Y-17109523D02*
X37559580Y-17157142D01*
X-21868991Y-20064285D02*
X-21868991Y-19730952D01*
X-21345181Y-19588095D02*
X-21345181Y-20064285D01*
X-21345181Y-20064285D02*
X-22345181Y-20064285D01*
X-22345181Y-20064285D02*
X-22345181Y-19588095D01*
X-21345181Y-19159523D02*
X-22345181Y-19159523D01*
X-22345181Y-19159523D02*
X-21345181Y-18588095D01*
X-21345181Y-18588095D02*
X-22345181Y-18588095D01*
X-21440420Y-17540476D02*
X-21392800Y-17588095D01*
X-21392800Y-17588095D02*
X-21345181Y-17730952D01*
X-21345181Y-17730952D02*
X-21345181Y-17826190D01*
X-21345181Y-17826190D02*
X-21392800Y-17969047D01*
X-21392800Y-17969047D02*
X-21488039Y-18064285D01*
X-21488039Y-18064285D02*
X-21583277Y-18111904D01*
X-21583277Y-18111904D02*
X-21773753Y-18159523D01*
X-21773753Y-18159523D02*
X-21916610Y-18159523D01*
X-21916610Y-18159523D02*
X-22107086Y-18111904D01*
X-22107086Y-18111904D02*
X-22202324Y-18064285D01*
X-22202324Y-18064285D02*
X-22297562Y-17969047D01*
X-22297562Y-17969047D02*
X-22345181Y-17826190D01*
X-22345181Y-17826190D02*
X-22345181Y-17730952D01*
X-22345181Y-17730952D02*
X-22297562Y-17588095D01*
X-22297562Y-17588095D02*
X-22249943Y-17540476D01*
X-22249943Y-17159523D02*
X-22297562Y-17111904D01*
X-22297562Y-17111904D02*
X-22345181Y-17016666D01*
X-22345181Y-17016666D02*
X-22345181Y-16778571D01*
X-22345181Y-16778571D02*
X-22297562Y-16683333D01*
X-22297562Y-16683333D02*
X-22249943Y-16635714D01*
X-22249943Y-16635714D02*
X-22154705Y-16588095D01*
X-22154705Y-16588095D02*
X-22059467Y-16588095D01*
X-22059467Y-16588095D02*
X-21916610Y-16635714D01*
X-21916610Y-16635714D02*
X-21345181Y-17207142D01*
X-21345181Y-17207142D02*
X-21345181Y-16588095D01*
X-7318991Y16685715D02*
X-7318991Y17019048D01*
X-6795181Y17161905D02*
X-6795181Y16685715D01*
X-6795181Y16685715D02*
X-7795181Y16685715D01*
X-7795181Y16685715D02*
X-7795181Y17161905D01*
X-6795181Y17590477D02*
X-7795181Y17590477D01*
X-7795181Y17590477D02*
X-6795181Y18161905D01*
X-6795181Y18161905D02*
X-7795181Y18161905D01*
X-6890420Y19209524D02*
X-6842800Y19161905D01*
X-6842800Y19161905D02*
X-6795181Y19019048D01*
X-6795181Y19019048D02*
X-6795181Y18923810D01*
X-6795181Y18923810D02*
X-6842800Y18780953D01*
X-6842800Y18780953D02*
X-6938039Y18685715D01*
X-6938039Y18685715D02*
X-7033277Y18638096D01*
X-7033277Y18638096D02*
X-7223753Y18590477D01*
X-7223753Y18590477D02*
X-7366610Y18590477D01*
X-7366610Y18590477D02*
X-7557086Y18638096D01*
X-7557086Y18638096D02*
X-7652324Y18685715D01*
X-7652324Y18685715D02*
X-7747562Y18780953D01*
X-7747562Y18780953D02*
X-7795181Y18923810D01*
X-7795181Y18923810D02*
X-7795181Y19019048D01*
X-7795181Y19019048D02*
X-7747562Y19161905D01*
X-7747562Y19161905D02*
X-7699943Y19209524D01*
X-6795181Y20161905D02*
X-6795181Y19590477D01*
X-6795181Y19876191D02*
X-7795181Y19876191D01*
X-7795181Y19876191D02*
X-7652324Y19780953D01*
X-7652324Y19780953D02*
X-7557086Y19685715D01*
X-7557086Y19685715D02*
X-7509467Y19590477D01*
X-18729981Y22041734D02*
X-19206172Y21708401D01*
X-18729981Y21470306D02*
X-19729981Y21470306D01*
X-19729981Y21470306D02*
X-19729981Y21851258D01*
X-19729981Y21851258D02*
X-19682362Y21946496D01*
X-19682362Y21946496D02*
X-19634743Y21994115D01*
X-19634743Y21994115D02*
X-19539505Y22041734D01*
X-19539505Y22041734D02*
X-19396648Y22041734D01*
X-19396648Y22041734D02*
X-19301410Y21994115D01*
X-19301410Y21994115D02*
X-19253791Y21946496D01*
X-19253791Y21946496D02*
X-19206172Y21851258D01*
X-19206172Y21851258D02*
X-19206172Y21470306D01*
X-18729981Y22994115D02*
X-18729981Y22422687D01*
X-18729981Y22708401D02*
X-19729981Y22708401D01*
X-19729981Y22708401D02*
X-19587124Y22613163D01*
X-19587124Y22613163D02*
X-19491886Y22517925D01*
X-19491886Y22517925D02*
X-19444267Y22422687D01*
X31779167Y27247400D02*
X31922024Y27199781D01*
X31922024Y27199781D02*
X32160119Y27199781D01*
X32160119Y27199781D02*
X32255357Y27247400D01*
X32255357Y27247400D02*
X32302976Y27295020D01*
X32302976Y27295020D02*
X32350595Y27390258D01*
X32350595Y27390258D02*
X32350595Y27485496D01*
X32350595Y27485496D02*
X32302976Y27580734D01*
X32302976Y27580734D02*
X32255357Y27628353D01*
X32255357Y27628353D02*
X32160119Y27675972D01*
X32160119Y27675972D02*
X31969643Y27723591D01*
X31969643Y27723591D02*
X31874405Y27771210D01*
X31874405Y27771210D02*
X31826786Y27818829D01*
X31826786Y27818829D02*
X31779167Y27914067D01*
X31779167Y27914067D02*
X31779167Y28009305D01*
X31779167Y28009305D02*
X31826786Y28104543D01*
X31826786Y28104543D02*
X31874405Y28152162D01*
X31874405Y28152162D02*
X31969643Y28199781D01*
X31969643Y28199781D02*
X32207738Y28199781D01*
X32207738Y28199781D02*
X32350595Y28152162D01*
X32683929Y28199781D02*
X32922024Y27199781D01*
X32922024Y27199781D02*
X33112500Y27914067D01*
X33112500Y27914067D02*
X33302976Y27199781D01*
X33302976Y27199781D02*
X33541072Y28199781D01*
X33826786Y28199781D02*
X34445833Y28199781D01*
X34445833Y28199781D02*
X34112500Y27818829D01*
X34112500Y27818829D02*
X34255357Y27818829D01*
X34255357Y27818829D02*
X34350595Y27771210D01*
X34350595Y27771210D02*
X34398214Y27723591D01*
X34398214Y27723591D02*
X34445833Y27628353D01*
X34445833Y27628353D02*
X34445833Y27390258D01*
X34445833Y27390258D02*
X34398214Y27295020D01*
X34398214Y27295020D02*
X34350595Y27247400D01*
X34350595Y27247400D02*
X34255357Y27199781D01*
X34255357Y27199781D02*
X33969643Y27199781D01*
X33969643Y27199781D02*
X33874405Y27247400D01*
X33874405Y27247400D02*
X33826786Y27295020D01*
D11*
X29276095Y1811781D02*
X29276095Y1002258D01*
X29276095Y1002258D02*
X29323714Y907020D01*
X29323714Y907020D02*
X29371333Y859400D01*
X29371333Y859400D02*
X29466571Y811781D01*
X29466571Y811781D02*
X29657047Y811781D01*
X29657047Y811781D02*
X29752285Y859400D01*
X29752285Y859400D02*
X29799904Y907020D01*
X29799904Y907020D02*
X29847523Y1002258D01*
X29847523Y1002258D02*
X29847523Y1811781D01*
X30228476Y1811781D02*
X30847523Y1811781D01*
X30847523Y1811781D02*
X30514190Y1430829D01*
X30514190Y1430829D02*
X30657047Y1430829D01*
X30657047Y1430829D02*
X30752285Y1383210D01*
X30752285Y1383210D02*
X30799904Y1335591D01*
X30799904Y1335591D02*
X30847523Y1240353D01*
X30847523Y1240353D02*
X30847523Y1002258D01*
X30847523Y1002258D02*
X30799904Y907020D01*
X30799904Y907020D02*
X30752285Y859400D01*
X30752285Y859400D02*
X30657047Y811781D01*
X30657047Y811781D02*
X30371333Y811781D01*
X30371333Y811781D02*
X30276095Y859400D01*
X30276095Y859400D02*
X30228476Y907020D01*
D10*
X43238095Y-28254819D02*
X43238095Y-27254819D01*
X43238095Y-27731009D02*
X43809523Y-27731009D01*
X43809523Y-28254819D02*
X43809523Y-27254819D01*
X44714285Y-27588152D02*
X44714285Y-28254819D01*
X44476190Y-27207200D02*
X44238095Y-27921485D01*
X44238095Y-27921485D02*
X44857142Y-27921485D01*
X-25396667Y19613620D02*
X-25444286Y19566000D01*
X-25444286Y19566000D02*
X-25587143Y19518381D01*
X-25587143Y19518381D02*
X-25682381Y19518381D01*
X-25682381Y19518381D02*
X-25825238Y19566000D01*
X-25825238Y19566000D02*
X-25920476Y19661239D01*
X-25920476Y19661239D02*
X-25968095Y19756477D01*
X-25968095Y19756477D02*
X-26015714Y19946953D01*
X-26015714Y19946953D02*
X-26015714Y20089810D01*
X-26015714Y20089810D02*
X-25968095Y20280286D01*
X-25968095Y20280286D02*
X-25920476Y20375524D01*
X-25920476Y20375524D02*
X-25825238Y20470762D01*
X-25825238Y20470762D02*
X-25682381Y20518381D01*
X-25682381Y20518381D02*
X-25587143Y20518381D01*
X-25587143Y20518381D02*
X-25444286Y20470762D01*
X-25444286Y20470762D02*
X-25396667Y20423143D01*
X-24444286Y19518381D02*
X-25015714Y19518381D01*
X-24730000Y19518381D02*
X-24730000Y20518381D01*
X-24730000Y20518381D02*
X-24825238Y20375524D01*
X-24825238Y20375524D02*
X-24920476Y20280286D01*
X-24920476Y20280286D02*
X-25015714Y20232667D01*
X-25549067Y17276820D02*
X-25596686Y17229200D01*
X-25596686Y17229200D02*
X-25739543Y17181581D01*
X-25739543Y17181581D02*
X-25834781Y17181581D01*
X-25834781Y17181581D02*
X-25977638Y17229200D01*
X-25977638Y17229200D02*
X-26072876Y17324439D01*
X-26072876Y17324439D02*
X-26120495Y17419677D01*
X-26120495Y17419677D02*
X-26168114Y17610153D01*
X-26168114Y17610153D02*
X-26168114Y17753010D01*
X-26168114Y17753010D02*
X-26120495Y17943486D01*
X-26120495Y17943486D02*
X-26072876Y18038724D01*
X-26072876Y18038724D02*
X-25977638Y18133962D01*
X-25977638Y18133962D02*
X-25834781Y18181581D01*
X-25834781Y18181581D02*
X-25739543Y18181581D01*
X-25739543Y18181581D02*
X-25596686Y18133962D01*
X-25596686Y18133962D02*
X-25549067Y18086343D01*
X-25168114Y18086343D02*
X-25120495Y18133962D01*
X-25120495Y18133962D02*
X-25025257Y18181581D01*
X-25025257Y18181581D02*
X-24787162Y18181581D01*
X-24787162Y18181581D02*
X-24691924Y18133962D01*
X-24691924Y18133962D02*
X-24644305Y18086343D01*
X-24644305Y18086343D02*
X-24596686Y17991105D01*
X-24596686Y17991105D02*
X-24596686Y17895867D01*
X-24596686Y17895867D02*
X-24644305Y17753010D01*
X-24644305Y17753010D02*
X-25215733Y17181581D01*
X-25215733Y17181581D02*
X-24596686Y17181581D01*
X-16850381Y21990934D02*
X-17326572Y21657601D01*
X-16850381Y21419506D02*
X-17850381Y21419506D01*
X-17850381Y21419506D02*
X-17850381Y21800458D01*
X-17850381Y21800458D02*
X-17802762Y21895696D01*
X-17802762Y21895696D02*
X-17755143Y21943315D01*
X-17755143Y21943315D02*
X-17659905Y21990934D01*
X-17659905Y21990934D02*
X-17517048Y21990934D01*
X-17517048Y21990934D02*
X-17421810Y21943315D01*
X-17421810Y21943315D02*
X-17374191Y21895696D01*
X-17374191Y21895696D02*
X-17326572Y21800458D01*
X-17326572Y21800458D02*
X-17326572Y21419506D01*
X-17755143Y22371887D02*
X-17802762Y22419506D01*
X-17802762Y22419506D02*
X-17850381Y22514744D01*
X-17850381Y22514744D02*
X-17850381Y22752839D01*
X-17850381Y22752839D02*
X-17802762Y22848077D01*
X-17802762Y22848077D02*
X-17755143Y22895696D01*
X-17755143Y22895696D02*
X-17659905Y22943315D01*
X-17659905Y22943315D02*
X-17564667Y22943315D01*
X-17564667Y22943315D02*
X-17421810Y22895696D01*
X-17421810Y22895696D02*
X-16850381Y22324268D01*
X-16850381Y22324268D02*
X-16850381Y22943315D01*
X-44761905Y35745181D02*
X-44761905Y36745181D01*
X-44761905Y36268991D02*
X-44190477Y36268991D01*
X-44190477Y35745181D02*
X-44190477Y36745181D01*
X-43190477Y35745181D02*
X-43761905Y35745181D01*
X-43476191Y35745181D02*
X-43476191Y36745181D01*
X-43476191Y36745181D02*
X-43571429Y36602324D01*
X-43571429Y36602324D02*
X-43666667Y36507086D01*
X-43666667Y36507086D02*
X-43761905Y36459467D01*
X43238095Y35745181D02*
X43238095Y36745181D01*
X43238095Y36268991D02*
X43809523Y36268991D01*
X43809523Y35745181D02*
X43809523Y36745181D01*
X44238095Y36649943D02*
X44285714Y36697562D01*
X44285714Y36697562D02*
X44380952Y36745181D01*
X44380952Y36745181D02*
X44619047Y36745181D01*
X44619047Y36745181D02*
X44714285Y36697562D01*
X44714285Y36697562D02*
X44761904Y36649943D01*
X44761904Y36649943D02*
X44809523Y36554705D01*
X44809523Y36554705D02*
X44809523Y36459467D01*
X44809523Y36459467D02*
X44761904Y36316610D01*
X44761904Y36316610D02*
X44190476Y35745181D01*
X44190476Y35745181D02*
X44809523Y35745181D01*
X-33943333Y27242800D02*
X-33800476Y27195181D01*
X-33800476Y27195181D02*
X-33562381Y27195181D01*
X-33562381Y27195181D02*
X-33467143Y27242800D01*
X-33467143Y27242800D02*
X-33419524Y27290420D01*
X-33419524Y27290420D02*
X-33371905Y27385658D01*
X-33371905Y27385658D02*
X-33371905Y27480896D01*
X-33371905Y27480896D02*
X-33419524Y27576134D01*
X-33419524Y27576134D02*
X-33467143Y27623753D01*
X-33467143Y27623753D02*
X-33562381Y27671372D01*
X-33562381Y27671372D02*
X-33752857Y27718991D01*
X-33752857Y27718991D02*
X-33848095Y27766610D01*
X-33848095Y27766610D02*
X-33895714Y27814229D01*
X-33895714Y27814229D02*
X-33943333Y27909467D01*
X-33943333Y27909467D02*
X-33943333Y28004705D01*
X-33943333Y28004705D02*
X-33895714Y28099943D01*
X-33895714Y28099943D02*
X-33848095Y28147562D01*
X-33848095Y28147562D02*
X-33752857Y28195181D01*
X-33752857Y28195181D02*
X-33514762Y28195181D01*
X-33514762Y28195181D02*
X-33371905Y28147562D01*
X-33038571Y28195181D02*
X-32800476Y27195181D01*
X-32800476Y27195181D02*
X-32610000Y27909467D01*
X-32610000Y27909467D02*
X-32419524Y27195181D01*
X-32419524Y27195181D02*
X-32181428Y28195181D01*
X-31276667Y27195181D02*
X-31848095Y27195181D01*
X-31562381Y27195181D02*
X-31562381Y28195181D01*
X-31562381Y28195181D02*
X-31657619Y28052324D01*
X-31657619Y28052324D02*
X-31752857Y27957086D01*
X-31752857Y27957086D02*
X-31848095Y27909467D01*
X-44761905Y-28254819D02*
X-44761905Y-27254819D01*
X-44761905Y-27731009D02*
X-44190477Y-27731009D01*
X-44190477Y-28254819D02*
X-44190477Y-27254819D01*
X-43809524Y-27254819D02*
X-43190477Y-27254819D01*
X-43190477Y-27254819D02*
X-43523810Y-27635771D01*
X-43523810Y-27635771D02*
X-43380953Y-27635771D01*
X-43380953Y-27635771D02*
X-43285715Y-27683390D01*
X-43285715Y-27683390D02*
X-43238096Y-27731009D01*
X-43238096Y-27731009D02*
X-43190477Y-27826247D01*
X-43190477Y-27826247D02*
X-43190477Y-28064342D01*
X-43190477Y-28064342D02*
X-43238096Y-28159580D01*
X-43238096Y-28159580D02*
X-43285715Y-28207200D01*
X-43285715Y-28207200D02*
X-43380953Y-28254819D01*
X-43380953Y-28254819D02*
X-43666667Y-28254819D01*
X-43666667Y-28254819D02*
X-43761905Y-28207200D01*
X-43761905Y-28207200D02*
X-43809524Y-28159580D01*
D11*
X-29550305Y1760981D02*
X-29550305Y951458D01*
X-29550305Y951458D02*
X-29502686Y856220D01*
X-29502686Y856220D02*
X-29455067Y808600D01*
X-29455067Y808600D02*
X-29359829Y760981D01*
X-29359829Y760981D02*
X-29169353Y760981D01*
X-29169353Y760981D02*
X-29074115Y808600D01*
X-29074115Y808600D02*
X-29026496Y856220D01*
X-29026496Y856220D02*
X-28978877Y951458D01*
X-28978877Y951458D02*
X-28978877Y1760981D01*
X-28550305Y1665743D02*
X-28502686Y1713362D01*
X-28502686Y1713362D02*
X-28407448Y1760981D01*
X-28407448Y1760981D02*
X-28169353Y1760981D01*
X-28169353Y1760981D02*
X-28074115Y1713362D01*
X-28074115Y1713362D02*
X-28026496Y1665743D01*
X-28026496Y1665743D02*
X-27978877Y1570505D01*
X-27978877Y1570505D02*
X-27978877Y1475267D01*
X-27978877Y1475267D02*
X-28026496Y1332410D01*
X-28026496Y1332410D02*
X-28597924Y760981D01*
X-28597924Y760981D02*
X-27978877Y760981D01*
D10*
X-1163333Y-18805200D02*
X-1020476Y-18852819D01*
X-1020476Y-18852819D02*
X-782381Y-18852819D01*
X-782381Y-18852819D02*
X-687143Y-18805200D01*
X-687143Y-18805200D02*
X-639524Y-18757580D01*
X-639524Y-18757580D02*
X-591905Y-18662342D01*
X-591905Y-18662342D02*
X-591905Y-18567104D01*
X-591905Y-18567104D02*
X-639524Y-18471866D01*
X-639524Y-18471866D02*
X-687143Y-18424247D01*
X-687143Y-18424247D02*
X-782381Y-18376628D01*
X-782381Y-18376628D02*
X-972857Y-18329009D01*
X-972857Y-18329009D02*
X-1068095Y-18281390D01*
X-1068095Y-18281390D02*
X-1115714Y-18233771D01*
X-1115714Y-18233771D02*
X-1163333Y-18138533D01*
X-1163333Y-18138533D02*
X-1163333Y-18043295D01*
X-1163333Y-18043295D02*
X-1115714Y-17948057D01*
X-1115714Y-17948057D02*
X-1068095Y-17900438D01*
X-1068095Y-17900438D02*
X-972857Y-17852819D01*
X-972857Y-17852819D02*
X-734762Y-17852819D01*
X-734762Y-17852819D02*
X-591905Y-17900438D01*
X-258571Y-17852819D02*
X-20476Y-18852819D01*
X-20476Y-18852819D02*
X170000Y-18138533D01*
X170000Y-18138533D02*
X360476Y-18852819D01*
X360476Y-18852819D02*
X598572Y-17852819D01*
X931905Y-17948057D02*
X979524Y-17900438D01*
X979524Y-17900438D02*
X1074762Y-17852819D01*
X1074762Y-17852819D02*
X1312857Y-17852819D01*
X1312857Y-17852819D02*
X1408095Y-17900438D01*
X1408095Y-17900438D02*
X1455714Y-17948057D01*
X1455714Y-17948057D02*
X1503333Y-18043295D01*
X1503333Y-18043295D02*
X1503333Y-18138533D01*
X1503333Y-18138533D02*
X1455714Y-18281390D01*
X1455714Y-18281390D02*
X884286Y-18852819D01*
X884286Y-18852819D02*
X1503333Y-18852819D01*
D12*
%TO.C,ENC3*%
X34100000Y-15200000D02*
X34100000Y-15800000D01*
X33800000Y-15500000D02*
X34100000Y-15200000D01*
X34100000Y-15800000D02*
X33800000Y-15500000D01*
X35900000Y-16900000D02*
X24100000Y-16900000D01*
X35900000Y-21000000D02*
X35900000Y-16900000D01*
X24100000Y-21000000D02*
X24100000Y-16900000D01*
X30000000Y-22500000D02*
X30000000Y-23500000D01*
X30500000Y-23000000D02*
X29500000Y-23000000D01*
X35900000Y-25000000D02*
X35900000Y-29100000D01*
X35900000Y-29100000D02*
X33500000Y-29100000D01*
X31300000Y-29100000D02*
X28700000Y-29100000D01*
X26500000Y-29100000D02*
X24100000Y-29100000D01*
X24100000Y-29100000D02*
X24100000Y-25000000D01*
X33000000Y-23000000D02*
G75*
G02*
X27000000Y-23000000I-3000000J0D01*
G01*
X27000000Y-23000000D02*
G75*
G02*
X33000000Y-23000000I3000000J0D01*
G01*
%TO.C,ENC2*%
X-24900000Y-15250000D02*
X-24900000Y-15850000D01*
X-25200000Y-15550000D02*
X-24900000Y-15250000D01*
X-24900000Y-15850000D02*
X-25200000Y-15550000D01*
X-23100000Y-16950000D02*
X-34900000Y-16950000D01*
X-23100000Y-21050000D02*
X-23100000Y-16950000D01*
X-34900000Y-21050000D02*
X-34900000Y-16950000D01*
X-29000000Y-22550000D02*
X-29000000Y-23550000D01*
X-28500000Y-23050000D02*
X-29500000Y-23050000D01*
X-23100000Y-25050000D02*
X-23100000Y-29150000D01*
X-23100000Y-29150000D02*
X-25500000Y-29150000D01*
X-27700000Y-29150000D02*
X-30300000Y-29150000D01*
X-32500000Y-29150000D02*
X-34900000Y-29150000D01*
X-34900000Y-29150000D02*
X-34900000Y-25050000D01*
X-26000000Y-23050000D02*
G75*
G02*
X-32000000Y-23050000I-3000000J0D01*
G01*
X-32000000Y-23050000D02*
G75*
G02*
X-26000000Y-23050000I3000000J0D01*
G01*
%TO.C,ENC1*%
X-4150000Y15300000D02*
X-4150000Y15900000D01*
X-3850000Y15600000D02*
X-4150000Y15300000D01*
X-4150000Y15900000D02*
X-3850000Y15600000D01*
X-5950000Y17000000D02*
X5850000Y17000000D01*
X-5950000Y21100000D02*
X-5950000Y17000000D01*
X5850000Y21100000D02*
X5850000Y17000000D01*
X-50000Y22600000D02*
X-50000Y23600000D01*
X-550000Y23100000D02*
X450000Y23100000D01*
X-5950000Y25100000D02*
X-5950000Y29200000D01*
X-5950000Y29200000D02*
X-3550000Y29200000D01*
X-1350000Y29200000D02*
X1250000Y29200000D01*
X3450000Y29200000D02*
X5850000Y29200000D01*
X5850000Y29200000D02*
X5850000Y25100000D01*
X2950000Y23100000D02*
G75*
G02*
X-3050000Y23100000I-3000000J0D01*
G01*
X-3050000Y23100000D02*
G75*
G02*
X2950000Y23100000I3000000J0D01*
G01*
%TO.C,R1*%
X-20002600Y19331652D02*
X-20002600Y18809148D01*
X-18532600Y19331652D02*
X-18532600Y18809148D01*
%TO.C,SW3*%
X29612500Y24154600D02*
X29612500Y22654600D01*
X30862500Y20154600D02*
X35362500Y20154600D01*
X35362500Y26654600D02*
X30862500Y26654600D01*
X36612500Y22654600D02*
X36612500Y24154600D01*
%TO.C,U3*%
D11*
X17638000Y8669200D02*
X42138000Y8669200D01*
X42138000Y-7330800D01*
X17638000Y-7330800D01*
X17638000Y8669200D01*
D12*
%TO.C,C1*%
X-22678452Y20669000D02*
X-22155948Y20669000D01*
X-22678452Y19199000D02*
X-22155948Y19199000D01*
%TO.C,C2*%
X-22678452Y18383000D02*
X-22155948Y18383000D01*
X-22678452Y16913000D02*
X-22155948Y16913000D01*
%TO.C,R2*%
X-17919800Y19331652D02*
X-17919800Y18809148D01*
X-16449800Y19331652D02*
X-16449800Y18809148D01*
%TO.C,SW1*%
X-36110000Y24150000D02*
X-36110000Y22650000D01*
X-34860000Y20150000D02*
X-30360000Y20150000D01*
X-30360000Y26650000D02*
X-34860000Y26650000D01*
X-29110000Y22650000D02*
X-29110000Y24150000D01*
%TO.C,U2*%
D11*
X-41188400Y8618400D02*
X-16688400Y8618400D01*
X-16688400Y-7381600D01*
X-41188400Y-7381600D01*
X-41188400Y8618400D01*
D12*
%TO.C,SW2*%
X-3330000Y-21898000D02*
X-3330000Y-23398000D01*
X-2080000Y-25898000D02*
X2420000Y-25898000D01*
X2420000Y-19398000D02*
X-2080000Y-19398000D01*
X3670000Y-23398000D02*
X3670000Y-21898000D01*
%TD*%
M02*
