%TF.GenerationSoftware,KiCad,Pcbnew,9.0.0*%
%TF.CreationDate,2025-04-19T08:54:27+02:00*%
%TF.ProjectId,Encoders-LCD,456e636f-6465-4727-932d-4c43442e6b69,rev?*%
%TF.SameCoordinates,PX55d4a80PY4e33880*%
%TF.FileFunction,Copper,L1,Top*%
%TF.FilePolarity,Positive*%
%FSLAX46Y46*%
G04 Gerber Fmt 4.6, Leading zero omitted, Abs format (unit mm)*
G04 Created by KiCad (PCBNEW 9.0.0) date 2025-04-19 08:54:27*
%MOMM*%
%LPD*%
G01*
G04 APERTURE LIST*
G04 Aperture macros list*
%AMRoundRect*
0 Rectangle with rounded corners*
0 $1 Rounding radius*
0 $2 $3 $4 $5 $6 $7 $8 $9 X,Y pos of 4 corners*
0 Add a 4 corners polygon primitive as box body*
4,1,4,$2,$3,$4,$5,$6,$7,$8,$9,$2,$3,0*
0 Add four circle primitives for the rounded corners*
1,1,$1+$1,$2,$3*
1,1,$1+$1,$4,$5*
1,1,$1+$1,$6,$7*
1,1,$1+$1,$8,$9*
0 Add four rect primitives between the rounded corners*
20,1,$1+$1,$2,$3,$4,$5,0*
20,1,$1+$1,$4,$5,$6,$7,0*
20,1,$1+$1,$6,$7,$8,$9,0*
20,1,$1+$1,$8,$9,$2,$3,0*%
G04 Aperture macros list end*
%TA.AperFunction,ComponentPad*%
%ADD10R,2.000000X2.000000*%
%TD*%
%TA.AperFunction,ComponentPad*%
%ADD11C,2.000000*%
%TD*%
%TA.AperFunction,ComponentPad*%
%ADD12C,3.200000*%
%TD*%
%TA.AperFunction,SMDPad,CuDef*%
%ADD13RoundRect,0.250000X-0.475000X0.337500X-0.475000X-0.337500X0.475000X-0.337500X0.475000X0.337500X0*%
%TD*%
%TA.AperFunction,ComponentPad*%
%ADD14C,1.600000*%
%TD*%
%TA.AperFunction,SMDPad,CuDef*%
%ADD15RoundRect,0.250000X0.337500X0.475000X-0.337500X0.475000X-0.337500X-0.475000X0.337500X-0.475000X0*%
%TD*%
%TA.AperFunction,ComponentPad*%
%ADD16RoundRect,0.250000X-0.350000X-0.625000X0.350000X-0.625000X0.350000X0.625000X-0.350000X0.625000X0*%
%TD*%
%TA.AperFunction,ComponentPad*%
%ADD17O,1.200000X1.750000*%
%TD*%
%TA.AperFunction,ViaPad*%
%ADD18C,1.000000*%
%TD*%
%TA.AperFunction,ViaPad*%
%ADD19C,0.800000*%
%TD*%
%TA.AperFunction,Conductor*%
%ADD20C,0.203200*%
%TD*%
%TA.AperFunction,Conductor*%
%ADD21C,0.304800*%
%TD*%
G04 APERTURE END LIST*
D10*
%TO.P,ENC3,A,A*%
%TO.N,/A3*%
X32500000Y-15500000D03*
D11*
%TO.P,ENC3,B,B*%
%TO.N,/B3*%
X27500000Y-15500000D03*
%TO.P,ENC3,C,C*%
%TO.N,GND*%
X30000000Y-15500000D03*
D12*
%TO.P,ENC3,MP*%
%TO.N,N/C*%
X35600000Y-23000000D03*
X24400000Y-23000000D03*
D11*
%TO.P,ENC3,S1,S1*%
%TO.N,GND*%
X27500000Y-30000000D03*
%TO.P,ENC3,S2,S2*%
%TO.N,/SW3*%
X32500000Y-30000000D03*
%TD*%
D10*
%TO.P,ENC2,A,A*%
%TO.N,/A2*%
X-26500000Y-15550000D03*
D11*
%TO.P,ENC2,B,B*%
%TO.N,/B2*%
X-31500000Y-15550000D03*
%TO.P,ENC2,C,C*%
%TO.N,GND*%
X-29000000Y-15550000D03*
D12*
%TO.P,ENC2,MP*%
%TO.N,N/C*%
X-23400000Y-23050000D03*
X-34600000Y-23050000D03*
D11*
%TO.P,ENC2,S1,S1*%
%TO.N,GND*%
X-31500000Y-30050000D03*
%TO.P,ENC2,S2,S2*%
%TO.N,/SW2*%
X-26500000Y-30050000D03*
%TD*%
D10*
%TO.P,ENC1,A,A*%
%TO.N,/A1*%
X-2550000Y15600000D03*
D11*
%TO.P,ENC1,B,B*%
%TO.N,/B1*%
X2450000Y15600000D03*
%TO.P,ENC1,C,C*%
%TO.N,GND*%
X-50000Y15600000D03*
D12*
%TO.P,ENC1,MP*%
%TO.N,N/C*%
X-5650000Y23100000D03*
X5550000Y23100000D03*
D11*
%TO.P,ENC1,S1,S1*%
%TO.N,GND*%
X2450000Y30100000D03*
%TO.P,ENC1,S2,S2*%
%TO.N,/SW1*%
X-2550000Y30100000D03*
%TD*%
D13*
%TO.P,R1,1*%
%TO.N,VCC*%
X-19267600Y20107900D03*
%TO.P,R1,2*%
%TO.N,/SDA*%
X-19267600Y18032900D03*
%TD*%
D11*
%TO.P,SW3,1,1*%
%TO.N,/K3*%
X29862500Y25654600D03*
X36362500Y25654600D03*
%TO.P,SW3,2,2*%
%TO.N,Net-(D3-K)*%
X29862500Y21154600D03*
X36362500Y21154600D03*
%TD*%
D14*
%TO.P,U3,1,E*%
%TO.N,/SEG5*%
X23638000Y-4330800D03*
%TO.P,U3,2,D*%
%TO.N,/SEG4*%
X26178000Y-4330800D03*
%TO.P,U3,3,DP*%
%TO.N,/SEG8*%
X28718000Y-4330800D03*
%TO.P,U3,4,C*%
%TO.N,/SEG3*%
X31258000Y-4330800D03*
%TO.P,U3,5,G*%
%TO.N,/SEG7*%
X33798000Y-4330800D03*
%TO.P,U3,7,B*%
%TO.N,/SEG2*%
X36338000Y5829200D03*
%TO.P,U3,8,DIG3*%
%TO.N,/GR6*%
X33798000Y5829200D03*
%TO.P,U3,9,DIG2*%
%TO.N,/GR5*%
X31258000Y5829200D03*
%TO.P,U3,10,F*%
%TO.N,/SEG6*%
X28718000Y5829200D03*
%TO.P,U3,11,A*%
%TO.N,/SEG1*%
X26178000Y5829200D03*
%TO.P,U3,12,DIG1*%
%TO.N,/GR4*%
X23638000Y5829200D03*
%TD*%
D15*
%TO.P,C1,1*%
%TO.N,VCC*%
X-21379700Y19934000D03*
%TO.P,C1,2*%
%TO.N,GND*%
X-23454700Y19934000D03*
%TD*%
%TO.P,C2,1*%
%TO.N,VCC*%
X-21379700Y17648000D03*
%TO.P,C2,2*%
%TO.N,GND*%
X-23454700Y17648000D03*
%TD*%
D13*
%TO.P,R2,1*%
%TO.N,VCC*%
X-17184800Y20107900D03*
%TO.P,R2,2*%
%TO.N,/SCL*%
X-17184800Y18032900D03*
%TD*%
D11*
%TO.P,SW1,1,1*%
%TO.N,/K3*%
X-35860000Y25650000D03*
X-29360000Y25650000D03*
%TO.P,SW1,2,2*%
%TO.N,Net-(D1-K)*%
X-35860000Y21150000D03*
X-29360000Y21150000D03*
%TD*%
D14*
%TO.P,U2,1,E*%
%TO.N,/SEG5*%
X-35188400Y-4381600D03*
%TO.P,U2,2,D*%
%TO.N,/SEG4*%
X-32648400Y-4381600D03*
%TO.P,U2,3,DP*%
%TO.N,/SEG8*%
X-30108400Y-4381600D03*
%TO.P,U2,4,C*%
%TO.N,/SEG3*%
X-27568400Y-4381600D03*
%TO.P,U2,5,G*%
%TO.N,/SEG7*%
X-25028400Y-4381600D03*
%TO.P,U2,7,B*%
%TO.N,/SEG2*%
X-22488400Y5778400D03*
%TO.P,U2,8,DIG3*%
%TO.N,/GR3*%
X-25028400Y5778400D03*
%TO.P,U2,9,DIG2*%
%TO.N,/GR2*%
X-27568400Y5778400D03*
%TO.P,U2,10,F*%
%TO.N,/SEG6*%
X-30108400Y5778400D03*
%TO.P,U2,11,A*%
%TO.N,/SEG1*%
X-32648400Y5778400D03*
%TO.P,U2,12,DIG1*%
%TO.N,/GR1*%
X-35188400Y5778400D03*
%TD*%
D11*
%TO.P,SW2,1,1*%
%TO.N,/K3*%
X-3080000Y-20398000D03*
X3420000Y-20398000D03*
%TO.P,SW2,2,2*%
%TO.N,Net-(D2-K)*%
X-3080000Y-24898000D03*
X3420000Y-24898000D03*
%TD*%
D16*
%TO.P,J1,1,Pin_1*%
%TO.N,GND*%
X-23388000Y14994800D03*
D17*
%TO.P,J1,2,Pin_2*%
%TO.N,VCC*%
X-21388000Y14994800D03*
%TO.P,J1,3,Pin_3*%
%TO.N,/SDA*%
X-19388000Y14994800D03*
%TO.P,J1,4,Pin_4*%
%TO.N,/SCL*%
X-17388000Y14994800D03*
%TO.P,J1,5,Pin_5*%
%TO.N,/DIO*%
X-15388000Y14994800D03*
%TO.P,J1,6,Pin_6*%
%TO.N,/CLK*%
X-13388000Y14994800D03*
%TO.P,J1,7,Pin_7*%
%TO.N,/STB*%
X-11388000Y14994800D03*
%TD*%
D18*
%TO.N,GND*%
X-12428400Y8390800D03*
D19*
%TO.N,/GR6*%
X-2520500Y-613900D03*
%TO.N,/GR5*%
X-867800Y1652200D03*
%TO.N,/GR4*%
X-1837900Y5320900D03*
%TO.N,/GR1*%
X-6676100Y2037400D03*
%TO.N,/SEG8*%
X6830700Y-5191800D03*
%TO.N,/SEG4*%
X6692800Y899300D03*
X7946400Y-953400D03*
%TO.N,/GR3*%
X-9634000Y3604100D03*
%TO.N,/SEG5*%
X6692800Y-1482500D03*
%TO.N,/GR2*%
X-10797500Y2933300D03*
%TO.N,/SEG6*%
X9635500Y2918100D03*
%TO.N,/SEG7*%
X7095000Y-3137400D03*
%TO.N,/K3*%
X5781600Y25685000D03*
%TO.N,/SCL*%
X25051100Y-25635000D03*
X-20534400Y-22623600D03*
%TO.N,/SDA*%
X-18934900Y-15573900D03*
X31518800Y-22055300D03*
X-5780100Y20275000D03*
%TO.N,/SEG2*%
X7869700Y4602800D03*
%TO.N,/SEG1*%
X6488600Y3094600D03*
%TO.N,VCC*%
X-15992000Y21723000D03*
X-20269000Y16451100D03*
%TO.N,GND*%
X-31018000Y-23579700D03*
X28150500Y-23554700D03*
%TD*%
D20*
%TO.N,/SEG2*%
X35233900Y6933300D02*
X36338000Y5829200D01*
X25280900Y6933300D02*
X35233900Y6933300D01*
X24908000Y6560400D02*
X25280900Y6933300D01*
X24908000Y5239600D02*
X24908000Y6560400D01*
X24271200Y4602800D02*
X24908000Y5239600D01*
X7869700Y4602800D02*
X24271200Y4602800D01*
%TO.N,/SEG7*%
X27780200Y-3267400D02*
X32734600Y-3267400D01*
X27448100Y-4920300D02*
X27448100Y-3599500D01*
X32734600Y-3267400D02*
X33798000Y-4330800D01*
X26981900Y-5386500D02*
X27448100Y-4920300D01*
X9344100Y-5386500D02*
X26981900Y-5386500D01*
X27448100Y-3599500D02*
X27780200Y-3267400D01*
X7095000Y-3137400D02*
X9344100Y-5386500D01*
%TO.N,/SEG5*%
X-29007300Y-1482500D02*
X6692800Y-1482500D01*
X-31378300Y-4971100D02*
X-31378300Y-3853500D01*
X-31378300Y-3853500D02*
X-29007300Y-1482500D01*
X-34082100Y-5487900D02*
X-31895100Y-5487900D01*
X-31895100Y-5487900D02*
X-31378300Y-4971100D01*
X-35188400Y-4381600D02*
X-34082100Y-5487900D01*
%TO.N,/SEG8*%
X-26849400Y-3299400D02*
X-29026200Y-3299400D01*
X-26298400Y-3850400D02*
X-26849400Y-3299400D01*
X-26298400Y-5120400D02*
X-26298400Y-3850400D01*
X-25937300Y-5481500D02*
X-26298400Y-5120400D01*
X-29026200Y-3299400D02*
X-30108400Y-4381600D01*
X6830700Y-5481500D02*
X-25937300Y-5481500D01*
%TO.N,/SEG1*%
X-23711200Y4992400D02*
X-23711200Y6465600D01*
X-23271400Y4552600D02*
X-23711200Y4992400D01*
X-31587200Y6839600D02*
X-32648400Y5778400D01*
X-8726100Y4552600D02*
X-23271400Y4552600D01*
X-8058200Y3884700D02*
X-8726100Y4552600D01*
X6488600Y3884700D02*
X-8058200Y3884700D01*
X-23711200Y6465600D02*
X-24085200Y6839600D01*
X-24085200Y6839600D02*
X-31587200Y6839600D01*
%TO.N,/GR6*%
X-2204300Y-297700D02*
X-2520500Y-613900D01*
X27671100Y-297700D02*
X-2204300Y-297700D01*
X33798000Y5829200D02*
X27671100Y-297700D01*
%TO.N,/GR5*%
X27081000Y1652200D02*
X-867800Y1652200D01*
X31258000Y5829200D02*
X27081000Y1652200D01*
%TO.N,/GR4*%
X23129700Y5320900D02*
X23638000Y5829200D01*
X-1837900Y5320900D02*
X23129700Y5320900D01*
%TO.N,/GR1*%
X-31280000Y1870000D02*
X-35188400Y5778400D01*
X-6843500Y1870000D02*
X-31280000Y1870000D01*
X-6676100Y2037400D02*
X-6843500Y1870000D01*
%TO.N,/SEG8*%
X7120500Y-5771300D02*
X6830700Y-5481500D01*
X27277500Y-5771300D02*
X7120500Y-5771300D01*
X28718000Y-4330800D02*
X27277500Y-5771300D01*
X6830700Y-5191800D02*
X6830700Y-5481500D01*
%TO.N,/SEG4*%
X-27367500Y899300D02*
X-32648400Y-4381600D01*
X6692800Y899300D02*
X-27367500Y899300D01*
X22800600Y-953400D02*
X26178000Y-4330800D01*
X7946400Y-953400D02*
X22800600Y-953400D01*
%TO.N,/GR3*%
X-22854100Y3604100D02*
X-25028400Y5778400D01*
X-9634000Y3604100D02*
X-22854100Y3604100D01*
%TO.N,/SEG5*%
X9541100Y-4330800D02*
X6692800Y-1482500D01*
X23638000Y-4330800D02*
X9541100Y-4330800D01*
%TO.N,/GR2*%
X-24723300Y2933300D02*
X-27568400Y5778400D01*
X-10797500Y2933300D02*
X-24723300Y2933300D01*
%TO.N,/SEG6*%
X9122400Y2405000D02*
X9635500Y2918100D01*
X-6116400Y2405000D02*
X9122400Y2405000D01*
X-6404500Y2693100D02*
X-6116400Y2405000D01*
X-7145100Y2693100D02*
X-6404500Y2693100D01*
X-7577400Y2260800D02*
X-7145100Y2693100D01*
X-26590800Y2260800D02*
X-7577400Y2260800D01*
X-30108400Y5778400D02*
X-26590800Y2260800D01*
X25806900Y2918100D02*
X9635500Y2918100D01*
X28718000Y5829200D02*
X25806900Y2918100D01*
%TO.N,/SEG7*%
X-23784200Y-3137400D02*
X7095000Y-3137400D01*
X-25028400Y-4381600D02*
X-23784200Y-3137400D01*
%TO.N,/K3*%
X36362500Y25654600D02*
X29862500Y25654600D01*
X-35860000Y25650000D02*
X-29360000Y25650000D01*
X5781600Y25654600D02*
X29862500Y25654600D01*
X5777000Y25650000D02*
X5781600Y25654600D01*
X-29360000Y25650000D02*
X5777000Y25650000D01*
X5781600Y25654600D02*
X5781600Y25685000D01*
X-3080000Y-20398000D02*
X3420000Y-20398000D01*
%TO.N,/SCL*%
X12290600Y-22623600D02*
X-20534400Y-22623600D01*
X15302000Y-25635000D02*
X12290600Y-22623600D01*
X25051100Y-25635000D02*
X15302000Y-25635000D01*
X-17184800Y16328700D02*
X-17388000Y16125500D01*
X-17184800Y18032900D02*
X-17184800Y16328700D01*
X-17388000Y14994800D02*
X-17388000Y16125500D01*
%TO.N,/SDA*%
X-19388000Y17912500D02*
X-19388000Y14994800D01*
X-19267600Y18032900D02*
X-19388000Y17912500D01*
X25037400Y-15573900D02*
X31518800Y-22055300D01*
X-18934900Y-15573900D02*
X25037400Y-15573900D01*
X-6984700Y19070400D02*
X-5780100Y20275000D01*
X-18230100Y19070400D02*
X-6984700Y19070400D01*
X-19267600Y18032900D02*
X-18230100Y19070400D01*
%TO.N,Net-(D3-K)*%
X36362500Y21154600D02*
X29862500Y21154600D01*
%TO.N,/SEG3*%
X-25803300Y-6146700D02*
X-27568400Y-4381600D01*
X29442100Y-6146700D02*
X-25803300Y-6146700D01*
X31258000Y-4330800D02*
X29442100Y-6146700D01*
%TO.N,Net-(D2-K)*%
X3420000Y-24898000D02*
X-3080000Y-24898000D01*
%TO.N,/SEG2*%
X-3680400Y5778400D02*
X-22488400Y5778400D01*
X-2504800Y4602800D02*
X-3680400Y5778400D01*
X7869700Y4602800D02*
X-2504800Y4602800D01*
%TO.N,/SEG1*%
X24233500Y3884700D02*
X26178000Y5829200D01*
X6488600Y3884700D02*
X24233500Y3884700D01*
X6488600Y3094600D02*
X6488600Y3884700D01*
%TO.N,Net-(D1-K)*%
X-29360000Y21150000D02*
X-35860000Y21150000D01*
%TO.N,VCC*%
X-19267600Y20107900D02*
X-17184800Y20107900D01*
X-19441500Y19934000D02*
X-19267600Y20107900D01*
X-21379700Y19934000D02*
X-19441500Y19934000D01*
X-17184800Y20530200D02*
X-17184800Y20107900D01*
X-15992000Y21723000D02*
X-17184800Y20530200D01*
X-21379700Y17561800D02*
X-21379700Y17648000D01*
X-20269000Y16451100D02*
X-21379700Y17561800D01*
D21*
%TO.N,GND*%
X-23388000Y17581300D02*
X-23454700Y17648000D01*
X-23388000Y14994800D02*
X-23388000Y17581300D01*
X-23454700Y17648000D02*
X-23454700Y19934000D01*
%TD*%
%TA.AperFunction,Conductor*%
%TO.N,GND*%
G36*
X47003735Y37499274D02*
G01*
X47293796Y37481729D01*
X47308657Y37479925D01*
X47590797Y37428220D01*
X47605334Y37424637D01*
X47879171Y37339305D01*
X47893163Y37334000D01*
X47994682Y37288310D01*
X48154735Y37216276D01*
X48167994Y37209317D01*
X48290726Y37135123D01*
X48413464Y37060925D01*
X48425776Y37052427D01*
X48651573Y36875527D01*
X48662781Y36865597D01*
X48865595Y36662782D01*
X48875525Y36651574D01*
X49052422Y36425783D01*
X49060928Y36413460D01*
X49209316Y36167996D01*
X49216275Y36154737D01*
X49333997Y35893169D01*
X49339306Y35879168D01*
X49424635Y35605337D01*
X49428219Y35590799D01*
X49479923Y35308660D01*
X49481728Y35293795D01*
X49499273Y35003754D01*
X49499499Y34996267D01*
X49499499Y-34996249D01*
X49499273Y-35003736D01*
X49481727Y-35293794D01*
X49479922Y-35308659D01*
X49428218Y-35590797D01*
X49424634Y-35605335D01*
X49339303Y-35879174D01*
X49333993Y-35893176D01*
X49216276Y-36154730D01*
X49209318Y-36167987D01*
X49060927Y-36413458D01*
X49052421Y-36425782D01*
X48875525Y-36651573D01*
X48865595Y-36662781D01*
X48662780Y-36865595D01*
X48651572Y-36875525D01*
X48425781Y-37052422D01*
X48413458Y-37060928D01*
X48167995Y-37209315D01*
X48154736Y-37216274D01*
X47893167Y-37333996D01*
X47879166Y-37339305D01*
X47605335Y-37424634D01*
X47590797Y-37428218D01*
X47308659Y-37479922D01*
X47293794Y-37481727D01*
X47100701Y-37493407D01*
X47003711Y-37499274D01*
X46996239Y-37499500D01*
X-46996249Y-37499500D01*
X-47003736Y-37499274D01*
X-47293795Y-37481728D01*
X-47308660Y-37479923D01*
X-47590799Y-37428219D01*
X-47605337Y-37424635D01*
X-47879168Y-37339306D01*
X-47893169Y-37333997D01*
X-48154737Y-37216275D01*
X-48167996Y-37209316D01*
X-48413460Y-37060928D01*
X-48425783Y-37052422D01*
X-48651574Y-36875525D01*
X-48662782Y-36865595D01*
X-48865597Y-36662781D01*
X-48875527Y-36651573D01*
X-49052423Y-36425781D01*
X-49060925Y-36413464D01*
X-49201634Y-36180704D01*
X-49209317Y-36167994D01*
X-49216276Y-36154735D01*
X-49333998Y-35893167D01*
X-49339307Y-35879166D01*
X-49347904Y-35851578D01*
X-49424637Y-35605334D01*
X-49428220Y-35590797D01*
X-49479924Y-35308659D01*
X-49481729Y-35293794D01*
X-49495514Y-35065894D01*
X-49499276Y-35003712D01*
X-49499501Y-34996238D01*
X-49499501Y-31878711D01*
X-45850500Y-31878711D01*
X-45850500Y-32121288D01*
X-45818839Y-32361785D01*
X-45756053Y-32596104D01*
X-45663227Y-32820205D01*
X-45663224Y-32820212D01*
X-45541936Y-33030289D01*
X-45541934Y-33030292D01*
X-45541933Y-33030293D01*
X-45394267Y-33222736D01*
X-45394261Y-33222743D01*
X-45222744Y-33394260D01*
X-45222738Y-33394265D01*
X-45030289Y-33541936D01*
X-44820212Y-33663224D01*
X-44596100Y-33756054D01*
X-44361789Y-33818838D01*
X-44181414Y-33842584D01*
X-44121289Y-33850500D01*
X-44121288Y-33850500D01*
X-43878711Y-33850500D01*
X-43830612Y-33844167D01*
X-43638211Y-33818838D01*
X-43403900Y-33756054D01*
X-43179788Y-33663224D01*
X-42969711Y-33541936D01*
X-42777262Y-33394265D01*
X-42605735Y-33222738D01*
X-42458064Y-33030289D01*
X-42336776Y-32820212D01*
X-42243946Y-32596100D01*
X-42181162Y-32361789D01*
X-42149500Y-32121288D01*
X-42149500Y-31878712D01*
X-42149500Y-31878711D01*
X42149500Y-31878711D01*
X42149500Y-32121288D01*
X42181161Y-32361785D01*
X42243947Y-32596104D01*
X42336773Y-32820205D01*
X42336776Y-32820212D01*
X42458064Y-33030289D01*
X42458066Y-33030292D01*
X42458067Y-33030293D01*
X42605733Y-33222736D01*
X42605739Y-33222743D01*
X42777256Y-33394260D01*
X42777262Y-33394265D01*
X42969711Y-33541936D01*
X43179788Y-33663224D01*
X43403900Y-33756054D01*
X43638211Y-33818838D01*
X43818586Y-33842584D01*
X43878711Y-33850500D01*
X43878712Y-33850500D01*
X44121289Y-33850500D01*
X44169388Y-33844167D01*
X44361789Y-33818838D01*
X44596100Y-33756054D01*
X44820212Y-33663224D01*
X45030289Y-33541936D01*
X45222738Y-33394265D01*
X45394265Y-33222738D01*
X45541936Y-33030289D01*
X45663224Y-32820212D01*
X45756054Y-32596100D01*
X45818838Y-32361789D01*
X45850500Y-32121288D01*
X45850500Y-31878712D01*
X45818838Y-31638211D01*
X45756054Y-31403900D01*
X45663224Y-31179788D01*
X45541936Y-30969711D01*
X45481018Y-30890321D01*
X45394266Y-30777263D01*
X45394260Y-30777256D01*
X45222743Y-30605739D01*
X45222736Y-30605733D01*
X45030293Y-30458067D01*
X45030292Y-30458066D01*
X45030289Y-30458064D01*
X44820212Y-30336776D01*
X44820205Y-30336773D01*
X44596104Y-30243947D01*
X44478944Y-30212554D01*
X44361789Y-30181162D01*
X44361788Y-30181161D01*
X44361785Y-30181161D01*
X44121289Y-30149500D01*
X44121288Y-30149500D01*
X43878712Y-30149500D01*
X43878711Y-30149500D01*
X43638214Y-30181161D01*
X43403895Y-30243947D01*
X43179794Y-30336773D01*
X43179785Y-30336777D01*
X42969706Y-30458067D01*
X42777263Y-30605733D01*
X42777256Y-30605739D01*
X42605739Y-30777256D01*
X42605733Y-30777263D01*
X42458067Y-30969706D01*
X42336777Y-31179785D01*
X42336773Y-31179794D01*
X42243947Y-31403895D01*
X42181161Y-31638214D01*
X42149500Y-31878711D01*
X-42149500Y-31878711D01*
X-42181162Y-31638211D01*
X-42243946Y-31403900D01*
X-42249661Y-31390102D01*
X-42298227Y-31272851D01*
X-42336773Y-31179794D01*
X-42336778Y-31179785D01*
X-42357140Y-31144517D01*
X-42458064Y-30969711D01*
X-42518982Y-30890321D01*
X-42605734Y-30777263D01*
X-42605740Y-30777256D01*
X-42777257Y-30605739D01*
X-42777264Y-30605733D01*
X-42969707Y-30458067D01*
X-42969708Y-30458066D01*
X-42969711Y-30458064D01*
X-43179788Y-30336776D01*
X-43179795Y-30336773D01*
X-43403896Y-30243947D01*
X-43521056Y-30212554D01*
X-43638211Y-30181162D01*
X-43638212Y-30181161D01*
X-43638215Y-30181161D01*
X-43878711Y-30149500D01*
X-43878712Y-30149500D01*
X-44121288Y-30149500D01*
X-44121289Y-30149500D01*
X-44361786Y-30181161D01*
X-44596105Y-30243947D01*
X-44820206Y-30336773D01*
X-44820215Y-30336777D01*
X-45030294Y-30458067D01*
X-45222737Y-30605733D01*
X-45222744Y-30605739D01*
X-45394261Y-30777256D01*
X-45394267Y-30777263D01*
X-45541933Y-30969706D01*
X-45663223Y-31179785D01*
X-45663227Y-31179794D01*
X-45756053Y-31403895D01*
X-45818839Y-31638214D01*
X-45850500Y-31878711D01*
X-49499501Y-31878711D01*
X-49499501Y-29931947D01*
X-33000000Y-29931947D01*
X-33000000Y-30168052D01*
X-32963066Y-30401247D01*
X-32890103Y-30625802D01*
X-32782913Y-30836174D01*
X-32722662Y-30919104D01*
X-32722660Y-30919105D01*
X-31982963Y-30179408D01*
X-31965925Y-30242993D01*
X-31900099Y-30357007D01*
X-31807007Y-30450099D01*
X-31692993Y-30515925D01*
X-31629410Y-30532962D01*
X-32369107Y-31272658D01*
X-32286172Y-31332914D01*
X-32075803Y-31440102D01*
X-31851248Y-31513065D01*
X-31851249Y-31513065D01*
X-31618052Y-31550000D01*
X-31381948Y-31550000D01*
X-31148753Y-31513065D01*
X-30924198Y-31440102D01*
X-30713837Y-31332918D01*
X-30713831Y-31332914D01*
X-30630896Y-31272658D01*
X-30630895Y-31272658D01*
X-31370592Y-30532962D01*
X-31307007Y-30515925D01*
X-31192993Y-30450099D01*
X-31099901Y-30357007D01*
X-31034075Y-30242993D01*
X-31017038Y-30179409D01*
X-30277342Y-30919105D01*
X-30277342Y-30919104D01*
X-30217086Y-30836169D01*
X-30217082Y-30836163D01*
X-30109898Y-30625802D01*
X-30036935Y-30401247D01*
X-30000000Y-30168052D01*
X-30000000Y-29931947D01*
X-30000007Y-29931902D01*
X-28000500Y-29931902D01*
X-28000500Y-30168097D01*
X-27963554Y-30401368D01*
X-27890567Y-30625996D01*
X-27783481Y-30836163D01*
X-27783343Y-30836433D01*
X-27644517Y-31027510D01*
X-27477510Y-31194517D01*
X-27286433Y-31333343D01*
X-27187009Y-31384002D01*
X-27075997Y-31440566D01*
X-27075995Y-31440566D01*
X-27075992Y-31440568D01*
X-26955588Y-31479689D01*
X-26851369Y-31513553D01*
X-26618097Y-31550500D01*
X-26618092Y-31550500D01*
X-26381903Y-31550500D01*
X-26148632Y-31513553D01*
X-26147130Y-31513065D01*
X-25924008Y-31440568D01*
X-25713567Y-31333343D01*
X-25522490Y-31194517D01*
X-25355483Y-31027510D01*
X-25216657Y-30836433D01*
X-25109432Y-30625992D01*
X-25036447Y-30401368D01*
X-25026217Y-30336777D01*
X-24999500Y-30168097D01*
X-24999500Y-29931903D01*
X-25005112Y-29896474D01*
X-25005112Y-29896473D01*
X-25007413Y-29881947D01*
X26000000Y-29881947D01*
X26000000Y-30118052D01*
X26036934Y-30351247D01*
X26109897Y-30575802D01*
X26217087Y-30786174D01*
X26277338Y-30869104D01*
X26277340Y-30869105D01*
X27017037Y-30129408D01*
X27034075Y-30192993D01*
X27099901Y-30307007D01*
X27192993Y-30400099D01*
X27307007Y-30465925D01*
X27370590Y-30482962D01*
X26630893Y-31222658D01*
X26713828Y-31282914D01*
X26924197Y-31390102D01*
X27148752Y-31463065D01*
X27148751Y-31463065D01*
X27381948Y-31500000D01*
X27618052Y-31500000D01*
X27851247Y-31463065D01*
X28075802Y-31390102D01*
X28286163Y-31282918D01*
X28286169Y-31282914D01*
X28369104Y-31222658D01*
X28369105Y-31222658D01*
X27629408Y-30482962D01*
X27692993Y-30465925D01*
X27807007Y-30400099D01*
X27900099Y-30307007D01*
X27965925Y-30192993D01*
X27982962Y-30129409D01*
X28722658Y-30869105D01*
X28722658Y-30869104D01*
X28782914Y-30786169D01*
X28782918Y-30786163D01*
X28890102Y-30575802D01*
X28963065Y-30351247D01*
X29000000Y-30118052D01*
X29000000Y-29881947D01*
X28999993Y-29881902D01*
X30999500Y-29881902D01*
X30999500Y-30118097D01*
X31036446Y-30351368D01*
X31109433Y-30575996D01*
X31134910Y-30625996D01*
X31216657Y-30786433D01*
X31355483Y-30977510D01*
X31522490Y-31144517D01*
X31713567Y-31283343D01*
X31810856Y-31332914D01*
X31924003Y-31390566D01*
X31924005Y-31390566D01*
X31924008Y-31390568D01*
X31965040Y-31403900D01*
X32148631Y-31463553D01*
X32381903Y-31500500D01*
X32381908Y-31500500D01*
X32618097Y-31500500D01*
X32851368Y-31463553D01*
X32922114Y-31440566D01*
X33075992Y-31390568D01*
X33286433Y-31283343D01*
X33477510Y-31144517D01*
X33644517Y-30977510D01*
X33783343Y-30786433D01*
X33890568Y-30575992D01*
X33963553Y-30351368D01*
X33990511Y-30181162D01*
X34000500Y-30118097D01*
X34000500Y-29881902D01*
X33963553Y-29648631D01*
X33890566Y-29424003D01*
X33783477Y-29213830D01*
X33783343Y-29213567D01*
X33644517Y-29022490D01*
X33477510Y-28855483D01*
X33286433Y-28716657D01*
X33075996Y-28609433D01*
X32851368Y-28536446D01*
X32618097Y-28499500D01*
X32618092Y-28499500D01*
X32381908Y-28499500D01*
X32381903Y-28499500D01*
X32148631Y-28536446D01*
X31924003Y-28609433D01*
X31713566Y-28716657D01*
X31644748Y-28766657D01*
X31522490Y-28855483D01*
X31522488Y-28855485D01*
X31522487Y-28855485D01*
X31355485Y-29022487D01*
X31355485Y-29022488D01*
X31355483Y-29022490D01*
X31319158Y-29072487D01*
X31216657Y-29213566D01*
X31109433Y-29424003D01*
X31036446Y-29648631D01*
X30999500Y-29881902D01*
X28999993Y-29881902D01*
X28963065Y-29648752D01*
X28890102Y-29424197D01*
X28782914Y-29213828D01*
X28722658Y-29130894D01*
X28722658Y-29130893D01*
X27982962Y-29870590D01*
X27965925Y-29807007D01*
X27900099Y-29692993D01*
X27807007Y-29599901D01*
X27692993Y-29534075D01*
X27629409Y-29517037D01*
X28369105Y-28777340D01*
X28369104Y-28777338D01*
X28286174Y-28717087D01*
X28075802Y-28609897D01*
X27851247Y-28536934D01*
X27851248Y-28536934D01*
X27618052Y-28500000D01*
X27381948Y-28500000D01*
X27148752Y-28536934D01*
X26924197Y-28609897D01*
X26713830Y-28717084D01*
X26630894Y-28777340D01*
X27370591Y-29517037D01*
X27307007Y-29534075D01*
X27192993Y-29599901D01*
X27099901Y-29692993D01*
X27034075Y-29807007D01*
X27017037Y-29870591D01*
X26277340Y-29130894D01*
X26217084Y-29213830D01*
X26109897Y-29424197D01*
X26036934Y-29648752D01*
X26000000Y-29881947D01*
X-25007413Y-29881947D01*
X-25019282Y-29807007D01*
X-25036447Y-29698632D01*
X-25109432Y-29474008D01*
X-25109434Y-29474005D01*
X-25109434Y-29474003D01*
X-25216523Y-29263830D01*
X-25216657Y-29263567D01*
X-25355483Y-29072490D01*
X-25522490Y-28905483D01*
X-25713567Y-28766657D01*
X-25924004Y-28659433D01*
X-26148632Y-28586446D01*
X-26381903Y-28549500D01*
X-26381908Y-28549500D01*
X-26618092Y-28549500D01*
X-26618097Y-28549500D01*
X-26851369Y-28586446D01*
X-27075997Y-28659433D01*
X-27286434Y-28766657D01*
X-27369953Y-28827338D01*
X-27477510Y-28905483D01*
X-27477512Y-28905485D01*
X-27477513Y-28905485D01*
X-27644515Y-29072487D01*
X-27644515Y-29072488D01*
X-27644517Y-29072490D01*
X-27686949Y-29130893D01*
X-27783343Y-29263566D01*
X-27890567Y-29474003D01*
X-27963554Y-29698631D01*
X-28000500Y-29931902D01*
X-30000007Y-29931902D01*
X-30036935Y-29698752D01*
X-30109898Y-29474197D01*
X-30217086Y-29263828D01*
X-30277342Y-29180894D01*
X-30277342Y-29180893D01*
X-31017038Y-29920590D01*
X-31034075Y-29857007D01*
X-31099901Y-29742993D01*
X-31192993Y-29649901D01*
X-31307007Y-29584075D01*
X-31370591Y-29567037D01*
X-30630895Y-28827340D01*
X-30630896Y-28827338D01*
X-30713826Y-28767087D01*
X-30924198Y-28659897D01*
X-31148753Y-28586934D01*
X-31148752Y-28586934D01*
X-31381948Y-28550000D01*
X-31618052Y-28550000D01*
X-31851248Y-28586934D01*
X-32075803Y-28659897D01*
X-32286170Y-28767084D01*
X-32369106Y-28827340D01*
X-31629409Y-29567037D01*
X-31692993Y-29584075D01*
X-31807007Y-29649901D01*
X-31900099Y-29742993D01*
X-31965925Y-29857007D01*
X-31982963Y-29920591D01*
X-32722660Y-29180894D01*
X-32782916Y-29263830D01*
X-32890103Y-29474197D01*
X-32963066Y-29698752D01*
X-33000000Y-29931947D01*
X-49499501Y-29931947D01*
X-49499501Y-22912332D01*
X-36700500Y-22912332D01*
X-36700500Y-23187667D01*
X-36700499Y-23187684D01*
X-36664562Y-23460655D01*
X-36664561Y-23460660D01*
X-36664560Y-23460666D01*
X-36656835Y-23489496D01*
X-36593296Y-23726630D01*
X-36487925Y-23981017D01*
X-36487920Y-23981028D01*
X-36412553Y-24111566D01*
X-36350249Y-24219479D01*
X-36350247Y-24219482D01*
X-36350246Y-24219483D01*
X-36182630Y-24437926D01*
X-36182624Y-24437933D01*
X-35987934Y-24632623D01*
X-35987928Y-24632628D01*
X-35769479Y-24800249D01*
X-35645312Y-24871937D01*
X-35531029Y-24937919D01*
X-35531024Y-24937921D01*
X-35531021Y-24937923D01*
X-35276632Y-25043295D01*
X-35010666Y-25114560D01*
X-34737674Y-25150500D01*
X-34737667Y-25150500D01*
X-34462333Y-25150500D01*
X-34462326Y-25150500D01*
X-34189334Y-25114560D01*
X-33923368Y-25043295D01*
X-33668979Y-24937923D01*
X-33430521Y-24800249D01*
X-33212072Y-24632628D01*
X-33017372Y-24437928D01*
X-32849751Y-24219479D01*
X-32712077Y-23981021D01*
X-32606705Y-23726632D01*
X-32535440Y-23460666D01*
X-32499500Y-23187674D01*
X-32499500Y-22912332D01*
X-25500500Y-22912332D01*
X-25500500Y-23187667D01*
X-25500499Y-23187684D01*
X-25464562Y-23460655D01*
X-25464561Y-23460660D01*
X-25464560Y-23460666D01*
X-25456835Y-23489496D01*
X-25393296Y-23726630D01*
X-25287925Y-23981017D01*
X-25287920Y-23981028D01*
X-25212553Y-24111566D01*
X-25150249Y-24219479D01*
X-25150247Y-24219482D01*
X-25150246Y-24219483D01*
X-24982630Y-24437926D01*
X-24982624Y-24437933D01*
X-24787934Y-24632623D01*
X-24787928Y-24632628D01*
X-24569479Y-24800249D01*
X-24445312Y-24871937D01*
X-24331029Y-24937919D01*
X-24331024Y-24937921D01*
X-24331021Y-24937923D01*
X-24076632Y-25043295D01*
X-23810666Y-25114560D01*
X-23537674Y-25150500D01*
X-23537667Y-25150500D01*
X-23262333Y-25150500D01*
X-23262326Y-25150500D01*
X-22989334Y-25114560D01*
X-22723368Y-25043295D01*
X-22468979Y-24937923D01*
X-22230521Y-24800249D01*
X-22012072Y-24632628D01*
X-21817372Y-24437928D01*
X-21649751Y-24219479D01*
X-21512077Y-23981021D01*
X-21406705Y-23726632D01*
X-21335440Y-23460666D01*
X-21325844Y-23387771D01*
X-21297578Y-23323876D01*
X-21239254Y-23285404D01*
X-21169389Y-23284572D01*
X-21115224Y-23316276D01*
X-21108439Y-23323061D01*
X-21108435Y-23323064D01*
X-20960954Y-23421609D01*
X-20960941Y-23421616D01*
X-20866664Y-23460666D01*
X-20797066Y-23489494D01*
X-20797064Y-23489494D01*
X-20797059Y-23489496D01*
X-20623096Y-23524099D01*
X-20623093Y-23524100D01*
X-20623091Y-23524100D01*
X-20445707Y-23524100D01*
X-20445706Y-23524099D01*
X-20387718Y-23512564D01*
X-20271742Y-23489496D01*
X-20271739Y-23489494D01*
X-20271734Y-23489494D01*
X-20107853Y-23421613D01*
X-19960365Y-23323064D01*
X-19899319Y-23262017D01*
X-19837998Y-23228534D01*
X-19811639Y-23225700D01*
X-3571816Y-23225700D01*
X-3504777Y-23245385D01*
X-3459022Y-23298189D01*
X-3449078Y-23367347D01*
X-3478103Y-23430903D01*
X-3533497Y-23467630D01*
X-3559470Y-23476069D01*
X-3655997Y-23507433D01*
X-3866434Y-23614657D01*
X-3951731Y-23676630D01*
X-4057510Y-23753483D01*
X-4057512Y-23753485D01*
X-4057513Y-23753485D01*
X-4224515Y-23920487D01*
X-4224515Y-23920488D01*
X-4224517Y-23920490D01*
X-4284138Y-24002550D01*
X-4363343Y-24111566D01*
X-4470567Y-24322003D01*
X-4543554Y-24546631D01*
X-4580500Y-24779902D01*
X-4580500Y-25016097D01*
X-4543554Y-25249368D01*
X-4470567Y-25473996D01*
X-4433721Y-25546309D01*
X-4363343Y-25684433D01*
X-4224517Y-25875510D01*
X-4057510Y-26042517D01*
X-3866433Y-26181343D01*
X-3812086Y-26209034D01*
X-3655997Y-26288566D01*
X-3655995Y-26288566D01*
X-3655992Y-26288568D01*
X-3535588Y-26327689D01*
X-3431369Y-26361553D01*
X-3198097Y-26398500D01*
X-3198092Y-26398500D01*
X-2961903Y-26398500D01*
X-2728632Y-26361553D01*
X-2504008Y-26288568D01*
X-2293567Y-26181343D01*
X-2102490Y-26042517D01*
X-1935483Y-25875510D01*
X-1796657Y-25684433D01*
X-1737232Y-25567805D01*
X-1689257Y-25517009D01*
X-1626747Y-25500100D01*
X1966747Y-25500100D01*
X2033786Y-25519785D01*
X2077232Y-25567805D01*
X2136657Y-25684433D01*
X2275483Y-25875510D01*
X2442490Y-26042517D01*
X2633567Y-26181343D01*
X2687914Y-26209034D01*
X2844003Y-26288566D01*
X2844005Y-26288566D01*
X2844008Y-26288568D01*
X2964412Y-26327689D01*
X3068631Y-26361553D01*
X3301903Y-26398500D01*
X3301908Y-26398500D01*
X3538097Y-26398500D01*
X3771368Y-26361553D01*
X3995992Y-26288568D01*
X4206433Y-26181343D01*
X4397510Y-26042517D01*
X4564517Y-25875510D01*
X4703343Y-25684433D01*
X4810568Y-25473992D01*
X4883553Y-25249368D01*
X4899212Y-25150500D01*
X4920500Y-25016097D01*
X4920500Y-24779902D01*
X4883553Y-24546631D01*
X4810566Y-24322003D01*
X4754002Y-24210991D01*
X4703343Y-24111567D01*
X4564517Y-23920490D01*
X4397510Y-23753483D01*
X4206433Y-23614657D01*
X3995996Y-23507433D01*
X3917511Y-23481932D01*
X3873496Y-23467630D01*
X3815822Y-23428193D01*
X3788624Y-23363834D01*
X3800539Y-23294988D01*
X3847783Y-23243512D01*
X3911816Y-23225700D01*
X11989840Y-23225700D01*
X12056879Y-23245385D01*
X12077521Y-23262019D01*
X14932302Y-26116800D01*
X15069599Y-26196068D01*
X15222732Y-26237100D01*
X24328339Y-26237100D01*
X24395378Y-26256785D01*
X24416015Y-26273414D01*
X24477062Y-26334461D01*
X24477066Y-26334465D01*
X24624546Y-26433009D01*
X24624559Y-26433016D01*
X24747463Y-26483923D01*
X24788434Y-26500894D01*
X24788436Y-26500894D01*
X24788441Y-26500896D01*
X24962404Y-26535499D01*
X24962407Y-26535500D01*
X24962409Y-26535500D01*
X25139793Y-26535500D01*
X25139794Y-26535499D01*
X25197782Y-26523964D01*
X25313758Y-26500896D01*
X25313761Y-26500894D01*
X25313766Y-26500894D01*
X25477647Y-26433013D01*
X25625135Y-26334464D01*
X25750564Y-26209035D01*
X25849113Y-26061547D01*
X25916994Y-25897666D01*
X25951600Y-25723691D01*
X25951600Y-25546309D01*
X25951600Y-25546306D01*
X25951599Y-25546304D01*
X25916996Y-25372341D01*
X25916993Y-25372332D01*
X25849116Y-25208459D01*
X25849109Y-25208446D01*
X25750564Y-25060965D01*
X25750561Y-25060961D01*
X25625138Y-24935538D01*
X25625134Y-24935535D01*
X25610189Y-24925549D01*
X25565384Y-24871937D01*
X25556677Y-24802612D01*
X25586832Y-24739584D01*
X25603589Y-24724075D01*
X25787928Y-24582628D01*
X25982628Y-24387928D01*
X26150249Y-24169479D01*
X26287923Y-23931021D01*
X26393295Y-23676632D01*
X26464560Y-23410666D01*
X26500500Y-23137674D01*
X26500500Y-22862326D01*
X26464560Y-22589334D01*
X26393295Y-22323368D01*
X26287923Y-22068979D01*
X26287921Y-22068976D01*
X26287919Y-22068971D01*
X26230169Y-21968946D01*
X26150249Y-21830521D01*
X26035781Y-21681343D01*
X25982629Y-21612073D01*
X25982623Y-21612066D01*
X25787933Y-21417376D01*
X25787926Y-21417370D01*
X25569483Y-21249754D01*
X25569482Y-21249753D01*
X25569479Y-21249751D01*
X25417629Y-21162080D01*
X25331028Y-21112080D01*
X25331017Y-21112075D01*
X25076630Y-21006704D01*
X24943649Y-20971072D01*
X24810666Y-20935440D01*
X24810660Y-20935439D01*
X24810655Y-20935438D01*
X24537684Y-20899501D01*
X24537679Y-20899500D01*
X24537674Y-20899500D01*
X24262326Y-20899500D01*
X24262320Y-20899500D01*
X24262315Y-20899501D01*
X23989344Y-20935438D01*
X23989337Y-20935439D01*
X23989334Y-20935440D01*
X23936861Y-20949500D01*
X23723369Y-21006704D01*
X23468982Y-21112075D01*
X23468971Y-21112080D01*
X23230516Y-21249754D01*
X23012073Y-21417370D01*
X23012066Y-21417376D01*
X22817376Y-21612066D01*
X22817370Y-21612073D01*
X22649754Y-21830516D01*
X22512080Y-22068971D01*
X22512075Y-22068982D01*
X22406704Y-22323369D01*
X22335441Y-22589331D01*
X22335438Y-22589344D01*
X22299501Y-22862315D01*
X22299500Y-22862332D01*
X22299500Y-23137667D01*
X22299501Y-23137684D01*
X22335438Y-23410655D01*
X22335439Y-23410660D01*
X22335440Y-23410666D01*
X22361368Y-23507432D01*
X22406704Y-23676630D01*
X22512075Y-23931017D01*
X22512080Y-23931028D01*
X22594861Y-24074407D01*
X22649751Y-24169479D01*
X22649753Y-24169482D01*
X22649754Y-24169483D01*
X22817370Y-24387926D01*
X22817376Y-24387933D01*
X23012066Y-24582623D01*
X23012073Y-24582629D01*
X23077235Y-24632629D01*
X23230521Y-24750249D01*
X23319313Y-24801513D01*
X23367529Y-24852080D01*
X23380751Y-24920687D01*
X23354783Y-24985552D01*
X23297869Y-25026080D01*
X23257313Y-25032900D01*
X15602760Y-25032900D01*
X15535721Y-25013215D01*
X15515079Y-24996581D01*
X12660300Y-22141802D01*
X12660298Y-22141800D01*
X12647772Y-22134568D01*
X12647771Y-22134567D01*
X12523008Y-22062536D01*
X12523003Y-22062533D01*
X12471957Y-22048855D01*
X12369868Y-22021500D01*
X12369866Y-22021500D01*
X4055335Y-22021500D01*
X3988296Y-22001815D01*
X3942541Y-21949011D01*
X3932597Y-21879853D01*
X3961622Y-21816297D01*
X3999040Y-21787015D01*
X4056568Y-21757703D01*
X4206433Y-21681343D01*
X4397510Y-21542517D01*
X4564517Y-21375510D01*
X4703343Y-21184433D01*
X4810568Y-20973992D01*
X4883553Y-20749368D01*
X4920500Y-20516097D01*
X4920500Y-20279902D01*
X4883553Y-20046631D01*
X4810566Y-19822003D01*
X4703342Y-19611566D01*
X4564517Y-19420490D01*
X4397510Y-19253483D01*
X4206433Y-19114657D01*
X3995996Y-19007433D01*
X3771368Y-18934446D01*
X3538097Y-18897500D01*
X3538092Y-18897500D01*
X3301908Y-18897500D01*
X3301903Y-18897500D01*
X3068631Y-18934446D01*
X2844003Y-19007433D01*
X2633566Y-19114657D01*
X2524550Y-19193862D01*
X2442490Y-19253483D01*
X2442488Y-19253485D01*
X2442487Y-19253485D01*
X2275485Y-19420487D01*
X2275485Y-19420488D01*
X2275483Y-19420490D01*
X2215862Y-19502550D01*
X2136657Y-19611566D01*
X2077232Y-19728195D01*
X2029257Y-19778991D01*
X1966747Y-19795900D01*
X-1626747Y-19795900D01*
X-1693786Y-19776215D01*
X-1737232Y-19728195D01*
X-1796658Y-19611566D01*
X-1935483Y-19420490D01*
X-2102490Y-19253483D01*
X-2293567Y-19114657D01*
X-2504004Y-19007433D01*
X-2728632Y-18934446D01*
X-2961903Y-18897500D01*
X-2961908Y-18897500D01*
X-3198092Y-18897500D01*
X-3198097Y-18897500D01*
X-3431369Y-18934446D01*
X-3655997Y-19007433D01*
X-3866434Y-19114657D01*
X-3975450Y-19193862D01*
X-4057510Y-19253483D01*
X-4057512Y-19253485D01*
X-4057513Y-19253485D01*
X-4224515Y-19420487D01*
X-4224515Y-19420488D01*
X-4224517Y-19420490D01*
X-4284138Y-19502550D01*
X-4363343Y-19611566D01*
X-4470567Y-19822003D01*
X-4543554Y-20046631D01*
X-4580500Y-20279902D01*
X-4580500Y-20516097D01*
X-4543554Y-20749368D01*
X-4470567Y-20973996D01*
X-4363343Y-21184433D01*
X-4224517Y-21375510D01*
X-4057510Y-21542517D01*
X-3866433Y-21681343D01*
X-3784480Y-21723100D01*
X-3659040Y-21787015D01*
X-3608244Y-21834990D01*
X-3591449Y-21902811D01*
X-3613986Y-21968946D01*
X-3668701Y-22012397D01*
X-3715335Y-22021500D01*
X-19811639Y-22021500D01*
X-19878678Y-22001815D01*
X-19899316Y-21985185D01*
X-19960365Y-21924136D01*
X-19960366Y-21924135D01*
X-19960367Y-21924134D01*
X-20107847Y-21825590D01*
X-20107860Y-21825583D01*
X-20271733Y-21757706D01*
X-20271742Y-21757703D01*
X-20445706Y-21723100D01*
X-20445709Y-21723100D01*
X-20623091Y-21723100D01*
X-20623094Y-21723100D01*
X-20797059Y-21757703D01*
X-20797068Y-21757706D01*
X-20960941Y-21825583D01*
X-20960954Y-21825590D01*
X-21108435Y-21924135D01*
X-21108439Y-21924138D01*
X-21233862Y-22049561D01*
X-21294474Y-22140273D01*
X-21348087Y-22185077D01*
X-21417412Y-22193784D01*
X-21480439Y-22163629D01*
X-21509671Y-22122317D01*
X-21510282Y-22122619D01*
X-21512081Y-22118971D01*
X-21579722Y-22001815D01*
X-21649751Y-21880521D01*
X-21802585Y-21681343D01*
X-21817371Y-21662073D01*
X-21817377Y-21662066D01*
X-22012067Y-21467376D01*
X-22012074Y-21467370D01*
X-22230517Y-21299754D01*
X-22230518Y-21299753D01*
X-22230521Y-21299751D01*
X-22325593Y-21244861D01*
X-22468972Y-21162080D01*
X-22468983Y-21162075D01*
X-22723370Y-21056704D01*
X-22871516Y-21017009D01*
X-22989334Y-20985440D01*
X-22989340Y-20985439D01*
X-22989345Y-20985438D01*
X-23262316Y-20949501D01*
X-23262321Y-20949500D01*
X-23262326Y-20949500D01*
X-23537674Y-20949500D01*
X-23537680Y-20949500D01*
X-23537685Y-20949501D01*
X-23810656Y-20985438D01*
X-23810663Y-20985439D01*
X-23810666Y-20985440D01*
X-23865378Y-21000100D01*
X-24076631Y-21056704D01*
X-24331018Y-21162075D01*
X-24331029Y-21162080D01*
X-24569484Y-21299754D01*
X-24787927Y-21467370D01*
X-24787934Y-21467376D01*
X-24982624Y-21662066D01*
X-24982630Y-21662073D01*
X-25150246Y-21880516D01*
X-25287920Y-22118971D01*
X-25287925Y-22118982D01*
X-25393296Y-22373369D01*
X-25449500Y-22583125D01*
X-25461881Y-22629338D01*
X-25464559Y-22639331D01*
X-25464562Y-22639344D01*
X-25500499Y-22912315D01*
X-25500500Y-22912332D01*
X-32499500Y-22912332D01*
X-32499500Y-22912326D01*
X-32535440Y-22639334D01*
X-32606705Y-22373368D01*
X-32712077Y-22118979D01*
X-32712079Y-22118976D01*
X-32712081Y-22118971D01*
X-32779722Y-22001815D01*
X-32849751Y-21880521D01*
X-33002585Y-21681343D01*
X-33017371Y-21662073D01*
X-33017377Y-21662066D01*
X-33212067Y-21467376D01*
X-33212074Y-21467370D01*
X-33430517Y-21299754D01*
X-33430518Y-21299753D01*
X-33430521Y-21299751D01*
X-33525593Y-21244861D01*
X-33668972Y-21162080D01*
X-33668983Y-21162075D01*
X-33923370Y-21056704D01*
X-34071516Y-21017009D01*
X-34189334Y-20985440D01*
X-34189340Y-20985439D01*
X-34189345Y-20985438D01*
X-34462316Y-20949501D01*
X-34462321Y-20949500D01*
X-34462326Y-20949500D01*
X-34737674Y-20949500D01*
X-34737680Y-20949500D01*
X-34737685Y-20949501D01*
X-35010656Y-20985438D01*
X-35010663Y-20985439D01*
X-35010666Y-20985440D01*
X-35065378Y-21000100D01*
X-35276631Y-21056704D01*
X-35531018Y-21162075D01*
X-35531029Y-21162080D01*
X-35769484Y-21299754D01*
X-35987927Y-21467370D01*
X-35987934Y-21467376D01*
X-36182624Y-21662066D01*
X-36182630Y-21662073D01*
X-36350246Y-21880516D01*
X-36487920Y-22118971D01*
X-36487925Y-22118982D01*
X-36593296Y-22373369D01*
X-36649500Y-22583125D01*
X-36661881Y-22629338D01*
X-36664559Y-22639331D01*
X-36664562Y-22639344D01*
X-36700499Y-22912315D01*
X-36700500Y-22912332D01*
X-49499501Y-22912332D01*
X-49499501Y-15431902D01*
X-33000500Y-15431902D01*
X-33000500Y-15668097D01*
X-32963554Y-15901368D01*
X-32890567Y-16125996D01*
X-32783343Y-16336433D01*
X-32644517Y-16527510D01*
X-32477510Y-16694517D01*
X-32286433Y-16833343D01*
X-32187009Y-16884002D01*
X-32075997Y-16940566D01*
X-32075995Y-16940566D01*
X-32075992Y-16940568D01*
X-31955588Y-16979689D01*
X-31851369Y-17013553D01*
X-31618097Y-17050500D01*
X-31618092Y-17050500D01*
X-31381903Y-17050500D01*
X-31148632Y-17013553D01*
X-31109432Y-17000816D01*
X-30924008Y-16940568D01*
X-30713567Y-16833343D01*
X-30522490Y-16694517D01*
X-30355483Y-16527510D01*
X-30314615Y-16471259D01*
X-30259289Y-16428596D01*
X-30227457Y-16423902D01*
X-29482963Y-15679408D01*
X-29465925Y-15742993D01*
X-29400099Y-15857007D01*
X-29307007Y-15950099D01*
X-29192993Y-16015925D01*
X-29129411Y-16032962D01*
X-29869107Y-16772658D01*
X-29786172Y-16832914D01*
X-29575803Y-16940102D01*
X-29351248Y-17013065D01*
X-29351249Y-17013065D01*
X-29118052Y-17050000D01*
X-28881948Y-17050000D01*
X-28648753Y-17013065D01*
X-28424198Y-16940102D01*
X-28213829Y-16832914D01*
X-28118143Y-16763394D01*
X-28052337Y-16739914D01*
X-27984283Y-16755739D01*
X-27945991Y-16789400D01*
X-27894978Y-16857544D01*
X-27870605Y-16890102D01*
X-27857545Y-16907547D01*
X-27742336Y-16993793D01*
X-27742329Y-16993797D01*
X-27607483Y-17044091D01*
X-27607484Y-17044091D01*
X-27600556Y-17044835D01*
X-27547873Y-17050500D01*
X-25452128Y-17050499D01*
X-25392517Y-17044091D01*
X-25257669Y-16993796D01*
X-25142454Y-16907546D01*
X-25056204Y-16792331D01*
X-25005909Y-16657483D01*
X-24999500Y-16597873D01*
X-24999501Y-15485204D01*
X-19835400Y-15485204D01*
X-19835400Y-15662595D01*
X-19800797Y-15836558D01*
X-19800794Y-15836567D01*
X-19732917Y-16000440D01*
X-19732910Y-16000453D01*
X-19634365Y-16147934D01*
X-19634362Y-16147938D01*
X-19508939Y-16273361D01*
X-19508935Y-16273364D01*
X-19361454Y-16371909D01*
X-19361441Y-16371916D01*
X-19242307Y-16421262D01*
X-19197566Y-16439794D01*
X-19197564Y-16439794D01*
X-19197559Y-16439796D01*
X-19023596Y-16474399D01*
X-19023593Y-16474400D01*
X-19023591Y-16474400D01*
X-18846207Y-16474400D01*
X-18846206Y-16474399D01*
X-18788218Y-16462864D01*
X-18672242Y-16439796D01*
X-18672239Y-16439794D01*
X-18672234Y-16439794D01*
X-18508353Y-16371913D01*
X-18360865Y-16273364D01*
X-18299819Y-16212317D01*
X-18238498Y-16178834D01*
X-18212139Y-16176000D01*
X24736640Y-16176000D01*
X24803679Y-16195685D01*
X24824321Y-16212319D01*
X30581981Y-21969979D01*
X30615466Y-22031302D01*
X30618300Y-22057660D01*
X30618300Y-22143995D01*
X30652903Y-22317958D01*
X30652906Y-22317967D01*
X30720783Y-22481840D01*
X30720790Y-22481853D01*
X30819335Y-22629334D01*
X30819338Y-22629338D01*
X30944761Y-22754761D01*
X30944765Y-22754764D01*
X31092246Y-22853309D01*
X31092259Y-22853316D01*
X31215163Y-22904223D01*
X31256134Y-22921194D01*
X31256136Y-22921194D01*
X31256141Y-22921196D01*
X31430104Y-22955799D01*
X31430107Y-22955800D01*
X31430109Y-22955800D01*
X31607493Y-22955800D01*
X31607494Y-22955799D01*
X31665482Y-22944264D01*
X31781458Y-22921196D01*
X31781461Y-22921194D01*
X31781466Y-22921194D01*
X31923573Y-22862332D01*
X33499500Y-22862332D01*
X33499500Y-23137667D01*
X33499501Y-23137684D01*
X33535438Y-23410655D01*
X33535439Y-23410660D01*
X33535440Y-23410666D01*
X33561368Y-23507432D01*
X33606704Y-23676630D01*
X33712075Y-23931017D01*
X33712080Y-23931028D01*
X33794861Y-24074407D01*
X33849751Y-24169479D01*
X33849753Y-24169482D01*
X33849754Y-24169483D01*
X34017370Y-24387926D01*
X34017376Y-24387933D01*
X34212066Y-24582623D01*
X34212073Y-24582629D01*
X34277235Y-24632629D01*
X34430521Y-24750249D01*
X34556358Y-24822901D01*
X34668971Y-24887919D01*
X34668976Y-24887921D01*
X34668979Y-24887923D01*
X34923368Y-24993295D01*
X35189334Y-25064560D01*
X35462326Y-25100500D01*
X35462333Y-25100500D01*
X35737667Y-25100500D01*
X35737674Y-25100500D01*
X36010666Y-25064560D01*
X36276632Y-24993295D01*
X36531021Y-24887923D01*
X36769479Y-24750249D01*
X36987928Y-24582628D01*
X37182628Y-24387928D01*
X37350249Y-24169479D01*
X37487923Y-23931021D01*
X37593295Y-23676632D01*
X37664560Y-23410666D01*
X37700500Y-23137674D01*
X37700500Y-22862326D01*
X37664560Y-22589334D01*
X37593295Y-22323368D01*
X37487923Y-22068979D01*
X37487921Y-22068976D01*
X37487919Y-22068971D01*
X37430169Y-21968946D01*
X37350249Y-21830521D01*
X37235781Y-21681343D01*
X37182629Y-21612073D01*
X37182623Y-21612066D01*
X36987933Y-21417376D01*
X36987926Y-21417370D01*
X36769483Y-21249754D01*
X36769482Y-21249753D01*
X36769479Y-21249751D01*
X36617629Y-21162080D01*
X36531028Y-21112080D01*
X36531017Y-21112075D01*
X36276630Y-21006704D01*
X36143649Y-20971072D01*
X36010666Y-20935440D01*
X36010660Y-20935439D01*
X36010655Y-20935438D01*
X35737684Y-20899501D01*
X35737679Y-20899500D01*
X35737674Y-20899500D01*
X35462326Y-20899500D01*
X35462320Y-20899500D01*
X35462315Y-20899501D01*
X35189344Y-20935438D01*
X35189337Y-20935439D01*
X35189334Y-20935440D01*
X35136861Y-20949500D01*
X34923369Y-21006704D01*
X34668982Y-21112075D01*
X34668971Y-21112080D01*
X34430516Y-21249754D01*
X34212073Y-21417370D01*
X34212066Y-21417376D01*
X34017376Y-21612066D01*
X34017370Y-21612073D01*
X33849754Y-21830516D01*
X33712080Y-22068971D01*
X33712075Y-22068982D01*
X33606704Y-22323369D01*
X33535441Y-22589331D01*
X33535438Y-22589344D01*
X33499501Y-22862315D01*
X33499500Y-22862332D01*
X31923573Y-22862332D01*
X31945347Y-22853313D01*
X32092835Y-22754764D01*
X32218264Y-22629335D01*
X32316813Y-22481847D01*
X32384694Y-22317966D01*
X32419300Y-22143991D01*
X32419300Y-21966609D01*
X32419300Y-21966606D01*
X32419299Y-21966604D01*
X32384696Y-21792641D01*
X32384693Y-21792632D01*
X32382366Y-21787015D01*
X32367723Y-21751663D01*
X32316816Y-21628759D01*
X32316809Y-21628746D01*
X32218264Y-21481265D01*
X32218261Y-21481261D01*
X32092838Y-21355838D01*
X32092834Y-21355835D01*
X31945353Y-21257290D01*
X31945340Y-21257283D01*
X31781467Y-21189406D01*
X31781458Y-21189403D01*
X31607494Y-21154800D01*
X31607491Y-21154800D01*
X31521160Y-21154800D01*
X31454121Y-21135115D01*
X31433479Y-21118481D01*
X27527179Y-17212181D01*
X27493694Y-17150858D01*
X27498678Y-17081166D01*
X27540550Y-17025233D01*
X27606014Y-17000816D01*
X27614860Y-17000500D01*
X27618097Y-17000500D01*
X27851368Y-16963553D01*
X27852870Y-16963065D01*
X28075992Y-16890568D01*
X28286433Y-16783343D01*
X28477510Y-16644517D01*
X28644517Y-16477510D01*
X28685385Y-16421259D01*
X28740711Y-16378596D01*
X28772543Y-16373902D01*
X29517037Y-15629408D01*
X29534075Y-15692993D01*
X29599901Y-15807007D01*
X29692993Y-15900099D01*
X29807007Y-15965925D01*
X29870589Y-15982962D01*
X29130893Y-16722658D01*
X29213828Y-16782914D01*
X29424197Y-16890102D01*
X29648752Y-16963065D01*
X29648751Y-16963065D01*
X29881948Y-17000000D01*
X30118052Y-17000000D01*
X30351247Y-16963065D01*
X30575802Y-16890102D01*
X30786171Y-16782914D01*
X30881857Y-16713394D01*
X30947663Y-16689914D01*
X31015717Y-16705739D01*
X31054009Y-16739400D01*
X31142455Y-16857547D01*
X31257664Y-16943793D01*
X31257671Y-16943797D01*
X31392517Y-16994091D01*
X31392516Y-16994091D01*
X31399444Y-16994835D01*
X31452127Y-17000500D01*
X33547872Y-17000499D01*
X33607483Y-16994091D01*
X33742331Y-16943796D01*
X33857546Y-16857546D01*
X33943796Y-16742331D01*
X33994091Y-16607483D01*
X34000500Y-16547873D01*
X34000499Y-14452128D01*
X33994091Y-14392517D01*
X33980278Y-14355483D01*
X33943797Y-14257671D01*
X33943793Y-14257664D01*
X33857547Y-14142455D01*
X33857544Y-14142452D01*
X33742335Y-14056206D01*
X33742328Y-14056202D01*
X33607482Y-14005908D01*
X33607483Y-14005908D01*
X33547883Y-13999501D01*
X33547881Y-13999500D01*
X33547873Y-13999500D01*
X33547864Y-13999500D01*
X31452129Y-13999500D01*
X31452123Y-13999501D01*
X31392516Y-14005908D01*
X31257671Y-14056202D01*
X31257664Y-14056206D01*
X31142455Y-14142452D01*
X31054009Y-14260599D01*
X30998075Y-14302469D01*
X30928383Y-14307453D01*
X30881858Y-14286605D01*
X30786174Y-14217087D01*
X30575802Y-14109897D01*
X30351247Y-14036934D01*
X30351248Y-14036934D01*
X30118052Y-14000000D01*
X29881948Y-14000000D01*
X29648752Y-14036934D01*
X29424197Y-14109897D01*
X29213830Y-14217084D01*
X29130894Y-14277340D01*
X29870591Y-15017037D01*
X29807007Y-15034075D01*
X29692993Y-15099901D01*
X29599901Y-15192993D01*
X29534075Y-15307007D01*
X29517037Y-15370590D01*
X28771809Y-14625363D01*
X28757862Y-14621577D01*
X28727052Y-14615105D01*
X28723361Y-14612214D01*
X28720824Y-14611526D01*
X28711673Y-14603060D01*
X28693680Y-14588968D01*
X28689264Y-14584079D01*
X28644517Y-14522490D01*
X28477510Y-14355483D01*
X28286433Y-14216657D01*
X28238928Y-14192452D01*
X28075996Y-14109433D01*
X27851368Y-14036446D01*
X27618097Y-13999500D01*
X27618092Y-13999500D01*
X27381908Y-13999500D01*
X27381903Y-13999500D01*
X27148631Y-14036446D01*
X26924003Y-14109433D01*
X26713566Y-14216657D01*
X26657119Y-14257669D01*
X26522490Y-14355483D01*
X26522488Y-14355485D01*
X26522487Y-14355485D01*
X26355485Y-14522487D01*
X26355485Y-14522488D01*
X26355483Y-14522490D01*
X26319158Y-14572487D01*
X26216657Y-14713566D01*
X26109433Y-14924003D01*
X26036446Y-15148631D01*
X25999500Y-15381902D01*
X25999500Y-15385140D01*
X25999152Y-15386324D01*
X25999118Y-15386758D01*
X25999026Y-15386750D01*
X25979815Y-15452179D01*
X25927011Y-15497934D01*
X25857853Y-15507878D01*
X25794297Y-15478853D01*
X25787819Y-15472821D01*
X25407099Y-15092101D01*
X25407098Y-15092100D01*
X25269802Y-15012833D01*
X25269803Y-15012833D01*
X25218757Y-14999155D01*
X25116668Y-14971800D01*
X25116666Y-14971800D01*
X-18212139Y-14971800D01*
X-18279178Y-14952115D01*
X-18299816Y-14935485D01*
X-18360865Y-14874436D01*
X-18360866Y-14874435D01*
X-18360867Y-14874434D01*
X-18508347Y-14775890D01*
X-18508360Y-14775883D01*
X-18672233Y-14708006D01*
X-18672242Y-14708003D01*
X-18846206Y-14673400D01*
X-18846209Y-14673400D01*
X-19023591Y-14673400D01*
X-19023594Y-14673400D01*
X-19197559Y-14708003D01*
X-19197568Y-14708006D01*
X-19361441Y-14775883D01*
X-19361454Y-14775890D01*
X-19508935Y-14874435D01*
X-19508939Y-14874438D01*
X-19634362Y-14999861D01*
X-19634365Y-14999865D01*
X-19732910Y-15147346D01*
X-19732917Y-15147359D01*
X-19800794Y-15311232D01*
X-19800797Y-15311241D01*
X-19835400Y-15485204D01*
X-24999501Y-15485204D01*
X-24999501Y-14502128D01*
X-25005909Y-14442517D01*
X-25019722Y-14405483D01*
X-25056203Y-14307671D01*
X-25056207Y-14307664D01*
X-25142453Y-14192455D01*
X-25142456Y-14192452D01*
X-25257665Y-14106206D01*
X-25257672Y-14106202D01*
X-25392518Y-14055908D01*
X-25392517Y-14055908D01*
X-25452117Y-14049501D01*
X-25452119Y-14049500D01*
X-25452127Y-14049500D01*
X-25452136Y-14049500D01*
X-27547871Y-14049500D01*
X-27547877Y-14049501D01*
X-27607484Y-14055908D01*
X-27742329Y-14106202D01*
X-27742336Y-14106206D01*
X-27857545Y-14192452D01*
X-27945991Y-14310599D01*
X-28001925Y-14352469D01*
X-28071617Y-14357453D01*
X-28118142Y-14336605D01*
X-28213826Y-14267087D01*
X-28424198Y-14159897D01*
X-28648753Y-14086934D01*
X-28648752Y-14086934D01*
X-28881948Y-14050000D01*
X-29118052Y-14050000D01*
X-29351248Y-14086934D01*
X-29575803Y-14159897D01*
X-29786170Y-14267084D01*
X-29869106Y-14327340D01*
X-29129409Y-15067037D01*
X-29192993Y-15084075D01*
X-29307007Y-15149901D01*
X-29400099Y-15242993D01*
X-29465925Y-15357007D01*
X-29482963Y-15420590D01*
X-30228191Y-14675363D01*
X-30242138Y-14671577D01*
X-30272948Y-14665105D01*
X-30276639Y-14662214D01*
X-30279176Y-14661526D01*
X-30288327Y-14653060D01*
X-30306320Y-14638968D01*
X-30310736Y-14634079D01*
X-30355483Y-14572490D01*
X-30522490Y-14405483D01*
X-30713567Y-14266657D01*
X-30731217Y-14257664D01*
X-30924004Y-14159433D01*
X-31148632Y-14086446D01*
X-31381903Y-14049500D01*
X-31381908Y-14049500D01*
X-31618092Y-14049500D01*
X-31618097Y-14049500D01*
X-31851369Y-14086446D01*
X-32075997Y-14159433D01*
X-32286434Y-14266657D01*
X-32342881Y-14307669D01*
X-32477510Y-14405483D01*
X-32477512Y-14405485D01*
X-32477513Y-14405485D01*
X-32644515Y-14572487D01*
X-32644515Y-14572488D01*
X-32644517Y-14572490D01*
X-32692816Y-14638968D01*
X-32783343Y-14763566D01*
X-32890567Y-14974003D01*
X-32963554Y-15198631D01*
X-33000500Y-15431902D01*
X-49499501Y-15431902D01*
X-49499501Y5880752D01*
X-36488900Y5880752D01*
X-36488900Y5676049D01*
X-36456878Y5473866D01*
X-36393619Y5279177D01*
X-36300685Y5096787D01*
X-36180372Y4931187D01*
X-36035614Y4786429D01*
X-35880651Y4673844D01*
X-35870010Y4666113D01*
X-35787323Y4623982D01*
X-35687624Y4573182D01*
X-35687622Y4573182D01*
X-35687619Y4573180D01*
X-35661886Y4564819D01*
X-35492935Y4509923D01*
X-35471228Y4506485D01*
X-35290752Y4477900D01*
X-35290751Y4477900D01*
X-35086049Y4477900D01*
X-35086048Y4477900D01*
X-34883866Y4509923D01*
X-34871267Y4514018D01*
X-34801426Y4516014D01*
X-34745266Y4483768D01*
X-31761800Y1500302D01*
X-31649698Y1388200D01*
X-31512402Y1308933D01*
X-31359268Y1267900D01*
X-28149760Y1267900D01*
X-28082721Y1248215D01*
X-28036966Y1195411D01*
X-28027022Y1126253D01*
X-28056047Y1062697D01*
X-28062079Y1056220D01*
X-30168457Y-1050158D01*
X-32205266Y-3086967D01*
X-32266589Y-3120452D01*
X-32331265Y-3117217D01*
X-32343865Y-3113123D01*
X-32509006Y-3086967D01*
X-32546048Y-3081100D01*
X-32750752Y-3081100D01*
X-32775071Y-3084951D01*
X-32952935Y-3113122D01*
X-33147624Y-3176381D01*
X-33330014Y-3269315D01*
X-33495614Y-3389628D01*
X-33640372Y-3534386D01*
X-33760685Y-3699986D01*
X-33807915Y-3792680D01*
X-33855890Y-3843476D01*
X-33923711Y-3860271D01*
X-33989846Y-3837734D01*
X-34028885Y-3792680D01*
X-34071515Y-3709015D01*
X-34076113Y-3699990D01*
X-34083844Y-3689349D01*
X-34196429Y-3534386D01*
X-34341187Y-3389628D01*
X-34506787Y-3269315D01*
X-34506788Y-3269314D01*
X-34506790Y-3269313D01*
X-34563747Y-3240291D01*
X-34689177Y-3176381D01*
X-34883866Y-3113122D01*
X-35058405Y-3085478D01*
X-35086048Y-3081100D01*
X-35290752Y-3081100D01*
X-35315071Y-3084951D01*
X-35492935Y-3113122D01*
X-35687624Y-3176381D01*
X-35870014Y-3269315D01*
X-36035614Y-3389628D01*
X-36180372Y-3534386D01*
X-36300685Y-3699986D01*
X-36393619Y-3882376D01*
X-36456878Y-4077065D01*
X-36488900Y-4279248D01*
X-36488900Y-4483951D01*
X-36456878Y-4686134D01*
X-36393619Y-4880823D01*
X-36300685Y-5063213D01*
X-36180372Y-5228813D01*
X-36035614Y-5373571D01*
X-35917285Y-5459540D01*
X-35870010Y-5493887D01*
X-35787323Y-5536018D01*
X-35687624Y-5586818D01*
X-35687622Y-5586818D01*
X-35687619Y-5586820D01*
X-35661886Y-5595181D01*
X-35492935Y-5650077D01*
X-35391843Y-5666088D01*
X-35290752Y-5682100D01*
X-35290751Y-5682100D01*
X-35086049Y-5682100D01*
X-35086048Y-5682100D01*
X-34883866Y-5650077D01*
X-34871267Y-5645982D01*
X-34801426Y-5643986D01*
X-34745266Y-5676232D01*
X-34451798Y-5969700D01*
X-34314502Y-6048967D01*
X-34161368Y-6090000D01*
X-34161366Y-6090000D01*
X-31815834Y-6090000D01*
X-31815832Y-6090000D01*
X-31662698Y-6048967D01*
X-31525402Y-5969700D01*
X-31413300Y-5857598D01*
X-31015242Y-5459538D01*
X-30953921Y-5426055D01*
X-30884230Y-5431039D01*
X-30854682Y-5446900D01*
X-30790010Y-5493887D01*
X-30707323Y-5536018D01*
X-30607624Y-5586818D01*
X-30607622Y-5586818D01*
X-30607619Y-5586820D01*
X-30581886Y-5595181D01*
X-30412935Y-5650077D01*
X-30311843Y-5666088D01*
X-30210752Y-5682100D01*
X-30210751Y-5682100D01*
X-30006049Y-5682100D01*
X-30006048Y-5682100D01*
X-29803866Y-5650077D01*
X-29609181Y-5586820D01*
X-29426790Y-5493887D01*
X-29276442Y-5384654D01*
X-29261187Y-5373571D01*
X-29261185Y-5373568D01*
X-29261181Y-5373566D01*
X-29116434Y-5228819D01*
X-29116432Y-5228815D01*
X-29116429Y-5228813D01*
X-28996116Y-5063214D01*
X-28996115Y-5063213D01*
X-28996113Y-5063210D01*
X-28948884Y-4970517D01*
X-28900911Y-4919723D01*
X-28833090Y-4902928D01*
X-28766955Y-4925465D01*
X-28727915Y-4970519D01*
X-28680685Y-5063214D01*
X-28560372Y-5228813D01*
X-28415614Y-5373571D01*
X-28297285Y-5459540D01*
X-28250010Y-5493887D01*
X-28167323Y-5536018D01*
X-28067624Y-5586818D01*
X-28067622Y-5586818D01*
X-28067619Y-5586820D01*
X-28041886Y-5595181D01*
X-27872935Y-5650077D01*
X-27771843Y-5666088D01*
X-27670752Y-5682100D01*
X-27670751Y-5682100D01*
X-27466049Y-5682100D01*
X-27466048Y-5682100D01*
X-27263866Y-5650077D01*
X-27251267Y-5645982D01*
X-27181426Y-5643986D01*
X-27125266Y-5676232D01*
X-26285100Y-6516398D01*
X-26172998Y-6628500D01*
X-26035702Y-6707767D01*
X-25882568Y-6748800D01*
X-25882566Y-6748800D01*
X29521366Y-6748800D01*
X29521368Y-6748800D01*
X29674502Y-6707767D01*
X29811798Y-6628500D01*
X29923900Y-6516398D01*
X30814866Y-5625430D01*
X30876187Y-5591947D01*
X30940859Y-5595180D01*
X30953466Y-5599277D01*
X31155648Y-5631300D01*
X31155649Y-5631300D01*
X31360351Y-5631300D01*
X31360352Y-5631300D01*
X31562534Y-5599277D01*
X31757219Y-5536020D01*
X31939610Y-5443087D01*
X32035298Y-5373566D01*
X32105213Y-5322771D01*
X32105215Y-5322768D01*
X32105219Y-5322766D01*
X32249966Y-5178019D01*
X32249968Y-5178015D01*
X32249971Y-5178013D01*
X32370284Y-5012414D01*
X32370285Y-5012413D01*
X32370287Y-5012410D01*
X32417516Y-4919717D01*
X32465489Y-4868923D01*
X32533310Y-4852128D01*
X32599445Y-4874665D01*
X32638483Y-4919717D01*
X32682348Y-5005806D01*
X32685715Y-5012414D01*
X32806028Y-5178013D01*
X32950786Y-5322771D01*
X33092947Y-5426055D01*
X33116390Y-5443087D01*
X33232607Y-5502303D01*
X33298776Y-5536018D01*
X33298778Y-5536018D01*
X33298781Y-5536020D01*
X33325188Y-5544600D01*
X33493465Y-5599277D01*
X33594557Y-5615288D01*
X33695648Y-5631300D01*
X33695649Y-5631300D01*
X33900351Y-5631300D01*
X33900352Y-5631300D01*
X34102534Y-5599277D01*
X34297219Y-5536020D01*
X34479610Y-5443087D01*
X34575298Y-5373566D01*
X34645213Y-5322771D01*
X34645215Y-5322768D01*
X34645219Y-5322766D01*
X34789966Y-5178019D01*
X34789968Y-5178015D01*
X34789971Y-5178013D01*
X34873376Y-5063214D01*
X34910287Y-5012410D01*
X35003220Y-4830019D01*
X35066477Y-4635334D01*
X35098500Y-4433152D01*
X35098500Y-4228448D01*
X35091758Y-4185883D01*
X35066477Y-4026265D01*
X35019724Y-3882376D01*
X35003220Y-3831581D01*
X35003218Y-3831578D01*
X35003218Y-3831576D01*
X34940769Y-3709015D01*
X34910287Y-3649190D01*
X34902556Y-3638549D01*
X34789971Y-3483586D01*
X34645213Y-3338828D01*
X34479613Y-3218515D01*
X34479612Y-3218514D01*
X34479610Y-3218513D01*
X34422653Y-3189491D01*
X34297223Y-3125581D01*
X34102534Y-3062322D01*
X33927995Y-3034678D01*
X33900352Y-3030300D01*
X33695648Y-3030300D01*
X33668004Y-3034678D01*
X33493466Y-3062322D01*
X33480862Y-3066418D01*
X33411021Y-3068412D01*
X33354865Y-3036167D01*
X33104299Y-2785601D01*
X33104291Y-2785595D01*
X33022429Y-2738333D01*
X33022426Y-2738332D01*
X32967004Y-2706334D01*
X32967003Y-2706333D01*
X32915957Y-2692655D01*
X32813868Y-2665300D01*
X27700932Y-2665300D01*
X27598842Y-2692655D01*
X27547797Y-2706333D01*
X27492372Y-2738333D01*
X27492371Y-2738332D01*
X27410508Y-2785595D01*
X27410500Y-2785601D01*
X27078404Y-3117697D01*
X27078403Y-3117699D01*
X27078402Y-3117700D01*
X27019722Y-3176380D01*
X27001470Y-3194632D01*
X26940146Y-3228116D01*
X26870455Y-3223131D01*
X26857494Y-3217435D01*
X26677223Y-3125581D01*
X26482534Y-3062322D01*
X26307995Y-3034678D01*
X26280352Y-3030300D01*
X26075648Y-3030300D01*
X26048004Y-3034678D01*
X25873466Y-3062322D01*
X25860862Y-3066418D01*
X25791021Y-3068412D01*
X25734865Y-3036167D01*
X23810179Y-1111481D01*
X23776694Y-1050158D01*
X23781678Y-980466D01*
X23823550Y-924533D01*
X23889014Y-900116D01*
X23897860Y-899800D01*
X27750366Y-899800D01*
X27750368Y-899800D01*
X27903502Y-858767D01*
X28040798Y-779500D01*
X28152900Y-667398D01*
X33354866Y4534570D01*
X33416187Y4568053D01*
X33480859Y4564820D01*
X33493466Y4560723D01*
X33695648Y4528700D01*
X33695649Y4528700D01*
X33900351Y4528700D01*
X33900352Y4528700D01*
X34102534Y4560723D01*
X34297219Y4623980D01*
X34479610Y4716913D01*
X34575298Y4786434D01*
X34645213Y4837229D01*
X34645215Y4837232D01*
X34645219Y4837234D01*
X34789966Y4981981D01*
X34789968Y4981985D01*
X34789971Y4981987D01*
X34910284Y5147586D01*
X34910285Y5147587D01*
X34910287Y5147590D01*
X34957516Y5240283D01*
X35005489Y5291077D01*
X35073310Y5307872D01*
X35139445Y5285335D01*
X35178483Y5240283D01*
X35211085Y5176300D01*
X35225715Y5147586D01*
X35346028Y4981987D01*
X35490786Y4837229D01*
X35645749Y4724644D01*
X35656390Y4716913D01*
X35772607Y4657697D01*
X35838776Y4623982D01*
X35838778Y4623982D01*
X35838781Y4623980D01*
X35943137Y4590073D01*
X36033465Y4560723D01*
X36081765Y4553073D01*
X36235648Y4528700D01*
X36235649Y4528700D01*
X36440351Y4528700D01*
X36440352Y4528700D01*
X36642534Y4560723D01*
X36837219Y4623980D01*
X37019610Y4716913D01*
X37115298Y4786434D01*
X37185213Y4837229D01*
X37185215Y4837232D01*
X37185219Y4837234D01*
X37329966Y4981981D01*
X37329968Y4981985D01*
X37329971Y4981987D01*
X37413376Y5096786D01*
X37450287Y5147590D01*
X37543220Y5329981D01*
X37606477Y5524666D01*
X37638500Y5726848D01*
X37638500Y5931552D01*
X37608825Y6118910D01*
X37606477Y6133735D01*
X37543218Y6328424D01*
X37506653Y6400185D01*
X37450287Y6510810D01*
X37442556Y6521451D01*
X37329971Y6676414D01*
X37185213Y6821172D01*
X37019613Y6941485D01*
X37019612Y6941486D01*
X37019610Y6941487D01*
X36962653Y6970509D01*
X36837223Y7034419D01*
X36642534Y7097678D01*
X36467995Y7125322D01*
X36440352Y7129700D01*
X36235648Y7129700D01*
X36208004Y7125322D01*
X36033466Y7097678D01*
X36020862Y7093582D01*
X35951021Y7091588D01*
X35894865Y7123833D01*
X35603599Y7415099D01*
X35603594Y7415103D01*
X35575015Y7431602D01*
X35557525Y7441700D01*
X35466304Y7494366D01*
X35466303Y7494367D01*
X35415257Y7508045D01*
X35313168Y7535400D01*
X25201632Y7535400D01*
X25125065Y7514884D01*
X25048496Y7494367D01*
X25048495Y7494366D01*
X24997497Y7464923D01*
X24957275Y7441700D01*
X24945756Y7435050D01*
X24911205Y7415103D01*
X24911200Y7415099D01*
X24538304Y7042203D01*
X24538303Y7042201D01*
X24538302Y7042200D01*
X24479722Y6983620D01*
X24461470Y6965368D01*
X24400146Y6931884D01*
X24330455Y6936869D01*
X24317494Y6942565D01*
X24137223Y7034419D01*
X23942534Y7097678D01*
X23767995Y7125322D01*
X23740352Y7129700D01*
X23535648Y7129700D01*
X23511329Y7125849D01*
X23333465Y7097678D01*
X23138776Y7034419D01*
X22956386Y6941485D01*
X22790786Y6821172D01*
X22646028Y6676414D01*
X22525715Y6510814D01*
X22432781Y6328424D01*
X22369522Y6133735D01*
X22352713Y6027602D01*
X22322784Y5964467D01*
X22263472Y5927536D01*
X22230240Y5923000D01*
X-1115139Y5923000D01*
X-1182178Y5942685D01*
X-1202816Y5959315D01*
X-1263865Y6020364D01*
X-1263866Y6020365D01*
X-1263867Y6020366D01*
X-1411347Y6118910D01*
X-1411360Y6118917D01*
X-1575233Y6186794D01*
X-1575242Y6186797D01*
X-1749206Y6221400D01*
X-1749209Y6221400D01*
X-1926591Y6221400D01*
X-1926594Y6221400D01*
X-2100559Y6186797D01*
X-2100568Y6186794D01*
X-2264441Y6118917D01*
X-2264454Y6118910D01*
X-2411935Y6020365D01*
X-2411939Y6020362D01*
X-2537362Y5894939D01*
X-2616873Y5775943D01*
X-2670486Y5731139D01*
X-2739811Y5722432D01*
X-2802838Y5752587D01*
X-2807656Y5757154D01*
X-3310703Y6260201D01*
X-3326579Y6269367D01*
X-3342456Y6278533D01*
X-3408259Y6316524D01*
X-3447996Y6339466D01*
X-3447997Y6339467D01*
X-3499043Y6353145D01*
X-3601132Y6380500D01*
X-3601134Y6380500D01*
X-21259614Y6380500D01*
X-21326653Y6400185D01*
X-21370098Y6448205D01*
X-21376113Y6460010D01*
X-21496434Y6625619D01*
X-21641181Y6770366D01*
X-21641187Y6770372D01*
X-21806787Y6890685D01*
X-21806788Y6890686D01*
X-21806790Y6890687D01*
X-21884138Y6930098D01*
X-21989177Y6983619D01*
X-22183866Y7046878D01*
X-22358405Y7074522D01*
X-22386048Y7078900D01*
X-22590752Y7078900D01*
X-22615071Y7075049D01*
X-22792935Y7046878D01*
X-22987624Y6983619D01*
X-23165775Y6892845D01*
X-23234444Y6879949D01*
X-23299185Y6906225D01*
X-23309751Y6915649D01*
X-23715501Y7321399D01*
X-23715502Y7321400D01*
X-23852798Y7400667D01*
X-23852797Y7400667D01*
X-23906673Y7415103D01*
X-24005932Y7441700D01*
X-31507932Y7441700D01*
X-31666468Y7441700D01*
X-31765727Y7415103D01*
X-31819603Y7400667D01*
X-31956897Y7321401D01*
X-31956900Y7321399D01*
X-32205266Y7073033D01*
X-32266589Y7039548D01*
X-32331265Y7042783D01*
X-32343865Y7046877D01*
X-32509006Y7073033D01*
X-32546048Y7078900D01*
X-32750752Y7078900D01*
X-32775071Y7075049D01*
X-32952935Y7046878D01*
X-33147624Y6983619D01*
X-33330014Y6890685D01*
X-33495614Y6770372D01*
X-33640372Y6625614D01*
X-33760685Y6460014D01*
X-33807915Y6367320D01*
X-33855890Y6316524D01*
X-33923711Y6299729D01*
X-33989846Y6322266D01*
X-34028885Y6367320D01*
X-34045631Y6400185D01*
X-34076113Y6460010D01*
X-34113024Y6510814D01*
X-34196429Y6625614D01*
X-34341187Y6770372D01*
X-34506787Y6890685D01*
X-34506788Y6890686D01*
X-34506790Y6890687D01*
X-34584138Y6930098D01*
X-34689177Y6983619D01*
X-34883866Y7046878D01*
X-35058405Y7074522D01*
X-35086048Y7078900D01*
X-35290752Y7078900D01*
X-35315071Y7075049D01*
X-35492935Y7046878D01*
X-35687624Y6983619D01*
X-35870014Y6890685D01*
X-36035614Y6770372D01*
X-36180372Y6625614D01*
X-36300685Y6460014D01*
X-36393619Y6277624D01*
X-36456878Y6082935D01*
X-36488900Y5880752D01*
X-49499501Y5880752D01*
X-49499501Y18172987D01*
X-24542200Y18172987D01*
X-24542200Y17898000D01*
X-23704700Y17898000D01*
X-23704700Y19684000D01*
X-24542199Y19684000D01*
X-24542199Y19409014D01*
X-24531706Y19306303D01*
X-24476559Y19139881D01*
X-24476557Y19139876D01*
X-24384516Y18990655D01*
X-24272542Y18878681D01*
X-24239057Y18817358D01*
X-24244041Y18747666D01*
X-24272542Y18703319D01*
X-24384516Y18591346D01*
X-24476557Y18442125D01*
X-24476559Y18442120D01*
X-24531706Y18275698D01*
X-24531707Y18275691D01*
X-24542200Y18172987D01*
X-49499501Y18172987D01*
X-49499501Y21268098D01*
X-37360500Y21268098D01*
X-37360500Y21031903D01*
X-37323554Y20798632D01*
X-37250567Y20574004D01*
X-37191962Y20458987D01*
X-37143343Y20363567D01*
X-37004517Y20172490D01*
X-36837510Y20005483D01*
X-36646433Y19866657D01*
X-36547009Y19815998D01*
X-36435997Y19759434D01*
X-36435995Y19759434D01*
X-36435992Y19759432D01*
X-36315837Y19720391D01*
X-36211369Y19686447D01*
X-35978097Y19649500D01*
X-35978092Y19649500D01*
X-35741903Y19649500D01*
X-35508632Y19686447D01*
X-35463960Y19700962D01*
X-35284008Y19759432D01*
X-35073567Y19866657D01*
X-34882490Y20005483D01*
X-34715483Y20172490D01*
X-34576657Y20363567D01*
X-34517232Y20480195D01*
X-34469257Y20530991D01*
X-34406747Y20547900D01*
X-30813253Y20547900D01*
X-30746214Y20528215D01*
X-30702768Y20480195D01*
X-30643343Y20363567D01*
X-30504517Y20172490D01*
X-30337510Y20005483D01*
X-30146433Y19866657D01*
X-30047009Y19815998D01*
X-29935997Y19759434D01*
X-29935995Y19759434D01*
X-29935992Y19759432D01*
X-29815837Y19720391D01*
X-29711369Y19686447D01*
X-29478097Y19649500D01*
X-29478092Y19649500D01*
X-29241903Y19649500D01*
X-29008632Y19686447D01*
X-28963960Y19700962D01*
X-28784008Y19759432D01*
X-28573567Y19866657D01*
X-28382490Y20005483D01*
X-28215483Y20172490D01*
X-28076657Y20363567D01*
X-28028038Y20458987D01*
X-24542200Y20458987D01*
X-24542200Y20184000D01*
X-23704700Y20184000D01*
X-23704700Y21159000D01*
X-23842173Y21159000D01*
X-23842188Y21158999D01*
X-23944898Y21148506D01*
X-24111320Y21093359D01*
X-24111325Y21093357D01*
X-24260546Y21001316D01*
X-24384516Y20877346D01*
X-24476557Y20728125D01*
X-24476559Y20728120D01*
X-24531706Y20561698D01*
X-24531707Y20561691D01*
X-24542200Y20458987D01*
X-28028038Y20458987D01*
X-27969432Y20574008D01*
X-27896447Y20798632D01*
X-27887186Y20857106D01*
X-27859500Y21031903D01*
X-27859500Y21268098D01*
X-27896447Y21501369D01*
X-27952538Y21673998D01*
X-27969432Y21725992D01*
X-27969434Y21725995D01*
X-27969434Y21725997D01*
X-28076658Y21936434D01*
X-28112422Y21985659D01*
X-28215483Y22127510D01*
X-28382490Y22294517D01*
X-28573567Y22433343D01*
X-28582595Y22437943D01*
X-28784004Y22540567D01*
X-29008632Y22613554D01*
X-29241903Y22650500D01*
X-29241908Y22650500D01*
X-29478092Y22650500D01*
X-29478097Y22650500D01*
X-29711369Y22613554D01*
X-29935997Y22540567D01*
X-30146434Y22433343D01*
X-30255450Y22354138D01*
X-30337510Y22294517D01*
X-30337512Y22294515D01*
X-30337513Y22294515D01*
X-30504515Y22127513D01*
X-30504515Y22127512D01*
X-30504517Y22127510D01*
X-30564138Y22045450D01*
X-30643343Y21936434D01*
X-30702768Y21819805D01*
X-30750743Y21769009D01*
X-30813253Y21752100D01*
X-34406747Y21752100D01*
X-34473786Y21771785D01*
X-34517232Y21819805D01*
X-34576658Y21936434D01*
X-34612422Y21985659D01*
X-34715483Y22127510D01*
X-34882490Y22294517D01*
X-35073567Y22433343D01*
X-35082595Y22437943D01*
X-35284004Y22540567D01*
X-35508632Y22613554D01*
X-35741903Y22650500D01*
X-35741908Y22650500D01*
X-35978092Y22650500D01*
X-35978097Y22650500D01*
X-36211369Y22613554D01*
X-36435997Y22540567D01*
X-36646434Y22433343D01*
X-36755450Y22354138D01*
X-36837510Y22294517D01*
X-36837512Y22294515D01*
X-36837513Y22294515D01*
X-37004515Y22127513D01*
X-37004515Y22127512D01*
X-37004517Y22127510D01*
X-37064138Y22045450D01*
X-37143343Y21936434D01*
X-37250567Y21725997D01*
X-37323554Y21501369D01*
X-37360500Y21268098D01*
X-49499501Y21268098D01*
X-49499501Y25768098D01*
X-37360500Y25768098D01*
X-37360500Y25531903D01*
X-37323554Y25298632D01*
X-37250567Y25074004D01*
X-37152711Y24881952D01*
X-37143343Y24863567D01*
X-37004517Y24672490D01*
X-36837510Y24505483D01*
X-36646433Y24366657D01*
X-36547009Y24315998D01*
X-36435997Y24259434D01*
X-36435995Y24259434D01*
X-36435992Y24259432D01*
X-36315588Y24220311D01*
X-36211369Y24186447D01*
X-35978097Y24149500D01*
X-35978092Y24149500D01*
X-35741903Y24149500D01*
X-35508632Y24186447D01*
X-35494475Y24191047D01*
X-35284008Y24259432D01*
X-35073567Y24366657D01*
X-34882490Y24505483D01*
X-34715483Y24672490D01*
X-34576657Y24863567D01*
X-34517232Y24980195D01*
X-34469257Y25030991D01*
X-34406747Y25047900D01*
X-30813253Y25047900D01*
X-30746214Y25028215D01*
X-30702768Y24980195D01*
X-30643343Y24863567D01*
X-30504517Y24672490D01*
X-30337510Y24505483D01*
X-30146433Y24366657D01*
X-30047009Y24315998D01*
X-29935997Y24259434D01*
X-29935995Y24259434D01*
X-29935992Y24259432D01*
X-29815588Y24220311D01*
X-29711369Y24186447D01*
X-29478097Y24149500D01*
X-29478092Y24149500D01*
X-29241903Y24149500D01*
X-29008632Y24186447D01*
X-28994475Y24191047D01*
X-28784008Y24259432D01*
X-28573567Y24366657D01*
X-28382490Y24505483D01*
X-28215483Y24672490D01*
X-28076657Y24863567D01*
X-28017232Y24980195D01*
X-27969257Y25030991D01*
X-27906747Y25047900D01*
X-6927188Y25047900D01*
X-6860149Y25028215D01*
X-6814394Y24975411D01*
X-6804450Y24906253D01*
X-6833475Y24842697D01*
X-6851702Y24825524D01*
X-7037927Y24682630D01*
X-7037934Y24682624D01*
X-7232624Y24487934D01*
X-7232630Y24487927D01*
X-7400246Y24269484D01*
X-7537920Y24031029D01*
X-7537925Y24031018D01*
X-7643296Y23776631D01*
X-7714559Y23510669D01*
X-7714562Y23510656D01*
X-7750499Y23237685D01*
X-7750500Y23237668D01*
X-7750500Y22962333D01*
X-7750499Y22962316D01*
X-7714562Y22689345D01*
X-7714561Y22689340D01*
X-7714560Y22689334D01*
X-7687648Y22588897D01*
X-7643296Y22423370D01*
X-7537925Y22168983D01*
X-7537920Y22168972D01*
X-7455139Y22025593D01*
X-7400249Y21930521D01*
X-7400247Y21930518D01*
X-7400246Y21930517D01*
X-7232630Y21712074D01*
X-7232624Y21712067D01*
X-7037934Y21517377D01*
X-7037927Y21517371D01*
X-7017071Y21501368D01*
X-6819479Y21349751D01*
X-6686019Y21272698D01*
X-6581029Y21212081D01*
X-6581013Y21212073D01*
X-6467018Y21164856D01*
X-6424025Y21147047D01*
X-6369621Y21103206D01*
X-6347556Y21036912D01*
X-6364835Y20969213D01*
X-6383795Y20944805D01*
X-6479565Y20849035D01*
X-6578110Y20701554D01*
X-6578117Y20701541D01*
X-6645994Y20537668D01*
X-6645997Y20537659D01*
X-6680600Y20363696D01*
X-6680600Y20277360D01*
X-6700285Y20210321D01*
X-6716919Y20189679D01*
X-7197779Y19708819D01*
X-7259102Y19675334D01*
X-7285460Y19672500D01*
X-15835300Y19672500D01*
X-15902339Y19692185D01*
X-15948094Y19744989D01*
X-15959300Y19796500D01*
X-15959301Y20495402D01*
X-15959302Y20495420D01*
X-15969801Y20598197D01*
X-15969803Y20598205D01*
X-15991269Y20662983D01*
X-15993672Y20732811D01*
X-15957941Y20792853D01*
X-15897756Y20823605D01*
X-15836494Y20835791D01*
X-15729342Y20857104D01*
X-15729339Y20857106D01*
X-15729334Y20857106D01*
X-15565453Y20924987D01*
X-15417965Y21023536D01*
X-15292536Y21148965D01*
X-15193987Y21296453D01*
X-15126106Y21460334D01*
X-15117943Y21501369D01*
X-15091501Y21634305D01*
X-15091500Y21634307D01*
X-15091500Y21811694D01*
X-15091501Y21811696D01*
X-15126104Y21985659D01*
X-15126107Y21985668D01*
X-15193984Y22149541D01*
X-15193991Y22149554D01*
X-15292536Y22297035D01*
X-15292539Y22297039D01*
X-15417962Y22422462D01*
X-15417966Y22422465D01*
X-15565447Y22521010D01*
X-15565460Y22521017D01*
X-15729333Y22588894D01*
X-15729342Y22588897D01*
X-15903306Y22623500D01*
X-15903309Y22623500D01*
X-16080691Y22623500D01*
X-16080694Y22623500D01*
X-16254659Y22588897D01*
X-16254668Y22588894D01*
X-16418541Y22521017D01*
X-16418554Y22521010D01*
X-16566035Y22422465D01*
X-16566039Y22422462D01*
X-16691462Y22297039D01*
X-16691465Y22297035D01*
X-16790010Y22149554D01*
X-16790017Y22149541D01*
X-16857894Y21985668D01*
X-16857897Y21985659D01*
X-16892500Y21811696D01*
X-16892500Y21725361D01*
X-16912185Y21658322D01*
X-16928819Y21637680D01*
X-17334281Y21232219D01*
X-17395604Y21198734D01*
X-17421962Y21195900D01*
X-17709801Y21195900D01*
X-17709820Y21195899D01*
X-17812597Y21185400D01*
X-17812600Y21185399D01*
X-17979132Y21130215D01*
X-17979137Y21130213D01*
X-18128458Y21038111D01*
X-18138519Y21028049D01*
X-18199842Y20994564D01*
X-18269534Y20999548D01*
X-18313881Y21028049D01*
X-18323943Y21038111D01*
X-18323944Y21038112D01*
X-18429479Y21103206D01*
X-18473264Y21130213D01*
X-18473269Y21130215D01*
X-18529856Y21148966D01*
X-18639803Y21185399D01*
X-18639805Y21185400D01*
X-18742590Y21195900D01*
X-19792602Y21195900D01*
X-19792620Y21195899D01*
X-19895397Y21185400D01*
X-19895400Y21185399D01*
X-20061932Y21130215D01*
X-20061937Y21130213D01*
X-20211258Y21038111D01*
X-20322919Y20926449D01*
X-20384242Y20892964D01*
X-20453934Y20897948D01*
X-20498281Y20926449D01*
X-20573543Y21001711D01*
X-20573544Y21001712D01*
X-20690661Y21073950D01*
X-20722864Y21093813D01*
X-20722869Y21093815D01*
X-20751209Y21103206D01*
X-20889403Y21148999D01*
X-20889405Y21149000D01*
X-20992190Y21159500D01*
X-21767202Y21159500D01*
X-21767220Y21159499D01*
X-21869997Y21149000D01*
X-21870000Y21148999D01*
X-22036532Y21093815D01*
X-22036537Y21093813D01*
X-22185858Y21001711D01*
X-22309912Y20877657D01*
X-22309917Y20877651D01*
X-22311959Y20874339D01*
X-22313953Y20872547D01*
X-22314393Y20871989D01*
X-22314489Y20872065D01*
X-22363909Y20827617D01*
X-22432872Y20816398D01*
X-22496953Y20844245D01*
X-22523032Y20874344D01*
X-22524881Y20877341D01*
X-22524884Y20877345D01*
X-22648855Y21001316D01*
X-22798076Y21093357D01*
X-22798081Y21093359D01*
X-22964503Y21148506D01*
X-22964510Y21148507D01*
X-23067214Y21159000D01*
X-23204700Y21159000D01*
X-23204700Y16499800D01*
X-23174319Y16469419D01*
X-23140834Y16408096D01*
X-23138000Y16381738D01*
X-23138000Y15275130D01*
X-23157745Y15294875D01*
X-23243255Y15344244D01*
X-23338630Y15369800D01*
X-23437370Y15369800D01*
X-23532745Y15344244D01*
X-23618255Y15294875D01*
X-23638000Y15275130D01*
X-23638000Y16293000D01*
X-23668381Y16323381D01*
X-23701866Y16384704D01*
X-23704700Y16411062D01*
X-23704700Y17398000D01*
X-24542199Y17398000D01*
X-24542199Y17123014D01*
X-24531706Y17020303D01*
X-24476559Y16853881D01*
X-24476557Y16853876D01*
X-24384516Y16704655D01*
X-24260546Y16580685D01*
X-24105780Y16485224D01*
X-24059056Y16433276D01*
X-24047833Y16364313D01*
X-24075677Y16300231D01*
X-24105779Y16274147D01*
X-24206344Y16212118D01*
X-24330316Y16088146D01*
X-24422357Y15938925D01*
X-24422359Y15938920D01*
X-24477506Y15772498D01*
X-24477507Y15772491D01*
X-24488000Y15669787D01*
X-24488000Y15244800D01*
X-23668330Y15244800D01*
X-23688075Y15225055D01*
X-23737444Y15139545D01*
X-23763000Y15044170D01*
X-23763000Y14945430D01*
X-23737444Y14850055D01*
X-23688075Y14764545D01*
X-23668330Y14744800D01*
X-24487999Y14744800D01*
X-24487999Y14319814D01*
X-24477506Y14217103D01*
X-24422359Y14050681D01*
X-24422357Y14050676D01*
X-24330316Y13901455D01*
X-24206346Y13777485D01*
X-24057125Y13685444D01*
X-24057120Y13685442D01*
X-23890698Y13630295D01*
X-23890691Y13630294D01*
X-23787981Y13619801D01*
X-23638001Y13619801D01*
X-23638000Y13619802D01*
X-23638000Y14714470D01*
X-23618255Y14694725D01*
X-23532745Y14645356D01*
X-23437370Y14619800D01*
X-23338630Y14619800D01*
X-23243255Y14645356D01*
X-23157745Y14694725D01*
X-23138000Y14714470D01*
X-23138000Y13619801D01*
X-22988028Y13619801D01*
X-22988014Y13619802D01*
X-22885303Y13630295D01*
X-22718881Y13685442D01*
X-22718876Y13685444D01*
X-22569655Y13777485D01*
X-22445685Y13901455D01*
X-22406055Y13965706D01*
X-22354107Y14012432D01*
X-22285145Y14023655D01*
X-22221063Y13995812D01*
X-22212834Y13988292D01*
X-22104928Y13880386D01*
X-21964788Y13778568D01*
X-21810445Y13699927D01*
X-21645701Y13646398D01*
X-21474611Y13619300D01*
X-21474610Y13619300D01*
X-21301390Y13619300D01*
X-21301389Y13619300D01*
X-21130299Y13646398D01*
X-20965555Y13699927D01*
X-20811212Y13778568D01*
X-20671072Y13880386D01*
X-20548586Y14002872D01*
X-20488318Y14085825D01*
X-20432988Y14128489D01*
X-20363374Y14134468D01*
X-20301579Y14101862D01*
X-20287685Y14085827D01*
X-20227414Y14002872D01*
X-20104928Y13880386D01*
X-19964788Y13778568D01*
X-19810445Y13699927D01*
X-19645701Y13646398D01*
X-19474611Y13619300D01*
X-19474610Y13619300D01*
X-19301390Y13619300D01*
X-19301389Y13619300D01*
X-19130299Y13646398D01*
X-18965555Y13699927D01*
X-18811212Y13778568D01*
X-18671072Y13880386D01*
X-18548586Y14002872D01*
X-18488318Y14085825D01*
X-18432988Y14128489D01*
X-18363374Y14134468D01*
X-18301579Y14101862D01*
X-18287685Y14085827D01*
X-18227414Y14002872D01*
X-18104928Y13880386D01*
X-17964788Y13778568D01*
X-17810445Y13699927D01*
X-17645701Y13646398D01*
X-17474611Y13619300D01*
X-17474610Y13619300D01*
X-17301390Y13619300D01*
X-17301389Y13619300D01*
X-17130299Y13646398D01*
X-16965555Y13699927D01*
X-16811212Y13778568D01*
X-16671072Y13880386D01*
X-16548586Y14002872D01*
X-16488318Y14085825D01*
X-16432988Y14128489D01*
X-16363374Y14134468D01*
X-16301579Y14101862D01*
X-16287685Y14085827D01*
X-16227414Y14002872D01*
X-16104928Y13880386D01*
X-15964788Y13778568D01*
X-15810445Y13699927D01*
X-15645701Y13646398D01*
X-15474611Y13619300D01*
X-15474610Y13619300D01*
X-15301390Y13619300D01*
X-15301389Y13619300D01*
X-15130299Y13646398D01*
X-14965555Y13699927D01*
X-14811212Y13778568D01*
X-14671072Y13880386D01*
X-14548586Y14002872D01*
X-14488318Y14085825D01*
X-14432988Y14128489D01*
X-14363374Y14134468D01*
X-14301579Y14101862D01*
X-14287685Y14085827D01*
X-14227414Y14002872D01*
X-14104928Y13880386D01*
X-13964788Y13778568D01*
X-13810445Y13699927D01*
X-13645701Y13646398D01*
X-13474611Y13619300D01*
X-13474610Y13619300D01*
X-13301390Y13619300D01*
X-13301389Y13619300D01*
X-13130299Y13646398D01*
X-12965555Y13699927D01*
X-12811212Y13778568D01*
X-12671072Y13880386D01*
X-12548586Y14002872D01*
X-12488318Y14085825D01*
X-12432988Y14128489D01*
X-12363374Y14134468D01*
X-12301579Y14101862D01*
X-12287685Y14085827D01*
X-12227414Y14002872D01*
X-12104928Y13880386D01*
X-11964788Y13778568D01*
X-11810445Y13699927D01*
X-11645701Y13646398D01*
X-11474611Y13619300D01*
X-11474610Y13619300D01*
X-11301390Y13619300D01*
X-11301389Y13619300D01*
X-11130299Y13646398D01*
X-10965555Y13699927D01*
X-10811212Y13778568D01*
X-10671072Y13880386D01*
X-10548586Y14002872D01*
X-10446768Y14143012D01*
X-10368127Y14297355D01*
X-10314598Y14462099D01*
X-10287500Y14633189D01*
X-10287500Y15356411D01*
X-10314598Y15527501D01*
X-10368127Y15692245D01*
X-10446768Y15846588D01*
X-10548586Y15986728D01*
X-10671072Y16109214D01*
X-10811212Y16211032D01*
X-10965555Y16289673D01*
X-11130299Y16343202D01*
X-11130301Y16343203D01*
X-11130302Y16343203D01*
X-11263589Y16364313D01*
X-11301389Y16370300D01*
X-11474611Y16370300D01*
X-11512411Y16364313D01*
X-11645698Y16343203D01*
X-11810448Y16289672D01*
X-11964789Y16211032D01*
X-12017872Y16172464D01*
X-12104928Y16109214D01*
X-12104930Y16109212D01*
X-12104931Y16109212D01*
X-12227412Y15986731D01*
X-12227419Y15986722D01*
X-12287683Y15903777D01*
X-12343013Y15861111D01*
X-12412626Y15855133D01*
X-12474421Y15887739D01*
X-12488317Y15903777D01*
X-12536101Y15969543D01*
X-12548586Y15986728D01*
X-12671072Y16109214D01*
X-12811212Y16211032D01*
X-12965555Y16289673D01*
X-13130299Y16343202D01*
X-13130301Y16343203D01*
X-13130302Y16343203D01*
X-13263589Y16364313D01*
X-13301389Y16370300D01*
X-13474611Y16370300D01*
X-13512411Y16364313D01*
X-13645698Y16343203D01*
X-13810448Y16289672D01*
X-13964789Y16211032D01*
X-14017872Y16172464D01*
X-14104928Y16109214D01*
X-14104930Y16109212D01*
X-14104931Y16109212D01*
X-14227412Y15986731D01*
X-14227419Y15986722D01*
X-14287683Y15903777D01*
X-14343013Y15861111D01*
X-14412626Y15855133D01*
X-14474421Y15887739D01*
X-14488317Y15903777D01*
X-14536101Y15969543D01*
X-14548586Y15986728D01*
X-14671072Y16109214D01*
X-14811212Y16211032D01*
X-14965555Y16289673D01*
X-15130299Y16343202D01*
X-15130301Y16343203D01*
X-15130302Y16343203D01*
X-15263589Y16364313D01*
X-15301389Y16370300D01*
X-15474611Y16370300D01*
X-15512411Y16364313D01*
X-15645698Y16343203D01*
X-15810448Y16289672D01*
X-15964789Y16211032D01*
X-16017872Y16172464D01*
X-16104928Y16109214D01*
X-16104930Y16109212D01*
X-16104931Y16109212D01*
X-16227412Y15986731D01*
X-16227419Y15986722D01*
X-16287683Y15903777D01*
X-16307524Y15888478D01*
X-16324572Y15870113D01*
X-16334718Y15867508D01*
X-16343013Y15861111D01*
X-16367980Y15858967D01*
X-16392246Y15852736D01*
X-16402190Y15856030D01*
X-16412626Y15855133D01*
X-16434787Y15866826D01*
X-16458572Y15874704D01*
X-16468961Y15884858D01*
X-16474421Y15887739D01*
X-16484439Y15898717D01*
X-16486448Y15901203D01*
X-16548586Y15986728D01*
X-16585025Y16023167D01*
X-16589143Y16028262D01*
X-16600145Y16054714D01*
X-16613870Y16079850D01*
X-16613693Y16087290D01*
X-16615974Y16092774D01*
X-16613192Y16108323D01*
X-16612478Y16138303D01*
X-16582700Y16249432D01*
X-16582700Y16647865D01*
X-4050500Y16647865D01*
X-4050500Y14552130D01*
X-4050499Y14552124D01*
X-4044092Y14492517D01*
X-3993798Y14357672D01*
X-3993794Y14357665D01*
X-3907548Y14242456D01*
X-3907545Y14242453D01*
X-3792336Y14156207D01*
X-3792329Y14156203D01*
X-3657483Y14105909D01*
X-3657484Y14105909D01*
X-3650556Y14105165D01*
X-3597873Y14099500D01*
X-1502128Y14099501D01*
X-1442517Y14105909D01*
X-1307669Y14156204D01*
X-1192454Y14242454D01*
X-1106204Y14357669D01*
X-1106204Y14357671D01*
X-1104011Y14360599D01*
X-1048077Y14402470D01*
X-978385Y14407454D01*
X-931858Y14386606D01*
X-836172Y14317086D01*
X-625803Y14209898D01*
X-401248Y14136935D01*
X-401249Y14136935D01*
X-168052Y14100000D01*
X68052Y14100000D01*
X301247Y14136935D01*
X525802Y14209898D01*
X736163Y14317082D01*
X736169Y14317086D01*
X819104Y14377342D01*
X819105Y14377342D01*
X79409Y15117038D01*
X142993Y15134075D01*
X257007Y15199901D01*
X350099Y15292993D01*
X415925Y15407007D01*
X432962Y15470591D01*
X1179270Y14724283D01*
X1222943Y14715109D01*
X1264614Y14678741D01*
X1305483Y14622490D01*
X1472490Y14455483D01*
X1663567Y14316657D01*
X1762991Y14265998D01*
X1874003Y14209434D01*
X1874005Y14209434D01*
X1874008Y14209432D01*
X1994412Y14170311D01*
X2098631Y14136447D01*
X2331903Y14099500D01*
X2331908Y14099500D01*
X2568097Y14099500D01*
X2801368Y14136447D01*
X2821573Y14143012D01*
X3025992Y14209432D01*
X3236433Y14316657D01*
X3427510Y14455483D01*
X3594517Y14622490D01*
X3733343Y14813567D01*
X3840568Y15024008D01*
X3913553Y15248632D01*
X3920877Y15294875D01*
X3950500Y15481903D01*
X3950500Y15718098D01*
X3913553Y15951369D01*
X3873553Y16074475D01*
X3840568Y16175992D01*
X3840566Y16175995D01*
X3840566Y16175997D01*
X3772266Y16310043D01*
X3733343Y16386433D01*
X3594517Y16577510D01*
X3427510Y16744517D01*
X3236433Y16883343D01*
X3178660Y16912780D01*
X3025996Y16990567D01*
X2801368Y17063554D01*
X2568097Y17100500D01*
X2568092Y17100500D01*
X2331908Y17100500D01*
X2331903Y17100500D01*
X2098631Y17063554D01*
X1874003Y16990567D01*
X1663566Y16883343D01*
X1607119Y16842331D01*
X1472490Y16744517D01*
X1472488Y16744515D01*
X1472487Y16744515D01*
X1305482Y16577510D01*
X1264615Y16521261D01*
X1209285Y16478596D01*
X1177455Y16473904D01*
X432962Y15729410D01*
X415925Y15792993D01*
X350099Y15907007D01*
X257007Y16000099D01*
X142993Y16065925D01*
X79408Y16082963D01*
X819105Y16822660D01*
X819104Y16822662D01*
X736174Y16882913D01*
X525802Y16990103D01*
X301247Y17063066D01*
X301248Y17063066D01*
X68052Y17100000D01*
X-168052Y17100000D01*
X-401248Y17063066D01*
X-625803Y16990103D01*
X-836176Y16882913D01*
X-931859Y16813395D01*
X-997666Y16789915D01*
X-1065719Y16805741D01*
X-1104010Y16839401D01*
X-1180287Y16941293D01*
X-1192454Y16957546D01*
X-1192456Y16957547D01*
X-1192456Y16957548D01*
X-1307665Y17043794D01*
X-1307672Y17043798D01*
X-1442518Y17094092D01*
X-1442517Y17094092D01*
X-1502117Y17100499D01*
X-1502119Y17100500D01*
X-1502127Y17100500D01*
X-1502136Y17100500D01*
X-3597871Y17100500D01*
X-3597877Y17100499D01*
X-3657484Y17094092D01*
X-3792329Y17043798D01*
X-3792336Y17043794D01*
X-3907545Y16957548D01*
X-3907548Y16957545D01*
X-3993794Y16842336D01*
X-3993798Y16842329D01*
X-4044092Y16707483D01*
X-4050499Y16647884D01*
X-4050500Y16647865D01*
X-16582700Y16647865D01*
X-16582700Y16857345D01*
X-16563015Y16924384D01*
X-16510211Y16970139D01*
X-16497708Y16975050D01*
X-16390466Y17010586D01*
X-16241144Y17102688D01*
X-16117088Y17226744D01*
X-16024986Y17376066D01*
X-15969801Y17542603D01*
X-15959300Y17645391D01*
X-15959301Y18344301D01*
X-15939617Y18411339D01*
X-15886813Y18457094D01*
X-15835301Y18468300D01*
X-6905434Y18468300D01*
X-6905432Y18468300D01*
X-6752298Y18509333D01*
X-6615002Y18588600D01*
X-6502900Y18700702D01*
X-5865421Y19338181D01*
X-5804098Y19371666D01*
X-5777740Y19374500D01*
X-5691407Y19374500D01*
X-5691406Y19374501D01*
X-5633418Y19386036D01*
X-5517442Y19409104D01*
X-5517439Y19409106D01*
X-5517434Y19409106D01*
X-5353553Y19476987D01*
X-5206065Y19575536D01*
X-5080636Y19700965D01*
X-4982087Y19848453D01*
X-4914206Y20012334D01*
X-4879600Y20186309D01*
X-4879600Y20363691D01*
X-4879600Y20363694D01*
X-4879601Y20363696D01*
X-4914204Y20537659D01*
X-4914207Y20537668D01*
X-4982084Y20701541D01*
X-4982091Y20701554D01*
X-5080636Y20849035D01*
X-5080639Y20849039D01*
X-5109317Y20877717D01*
X-5142802Y20939040D01*
X-5137818Y21008732D01*
X-5095946Y21064665D01*
X-5053732Y21085172D01*
X-4973368Y21106705D01*
X-4718979Y21212077D01*
X-4480521Y21349751D01*
X-4262072Y21517372D01*
X-4067372Y21712072D01*
X-3899751Y21930521D01*
X-3762077Y22168979D01*
X-3656705Y22423368D01*
X-3585440Y22689334D01*
X-3549500Y22962326D01*
X-3549500Y23237674D01*
X-3585440Y23510666D01*
X-3656705Y23776632D01*
X-3762077Y24031021D01*
X-3762079Y24031024D01*
X-3762081Y24031029D01*
X-3833137Y24154100D01*
X-3899751Y24269479D01*
X-4067372Y24487928D01*
X-4067377Y24487934D01*
X-4262067Y24682624D01*
X-4262074Y24682630D01*
X-4448298Y24825524D01*
X-4489501Y24881952D01*
X-4493656Y24951698D01*
X-4459444Y25012618D01*
X-4397727Y25045371D01*
X-4372812Y25047900D01*
X4272812Y25047900D01*
X4339851Y25028215D01*
X4385606Y24975411D01*
X4395550Y24906253D01*
X4366525Y24842697D01*
X4348298Y24825524D01*
X4162073Y24682630D01*
X4162066Y24682624D01*
X3967376Y24487934D01*
X3967370Y24487927D01*
X3799754Y24269484D01*
X3662080Y24031029D01*
X3662075Y24031018D01*
X3556704Y23776631D01*
X3485441Y23510669D01*
X3485438Y23510656D01*
X3449501Y23237685D01*
X3449500Y23237668D01*
X3449500Y22962333D01*
X3449501Y22962316D01*
X3485438Y22689345D01*
X3485439Y22689340D01*
X3485440Y22689334D01*
X3512352Y22588897D01*
X3556704Y22423370D01*
X3662075Y22168983D01*
X3662080Y22168972D01*
X3744861Y22025593D01*
X3799751Y21930521D01*
X3799753Y21930518D01*
X3799754Y21930517D01*
X3967370Y21712074D01*
X3967376Y21712067D01*
X4162066Y21517377D01*
X4162073Y21517371D01*
X4182929Y21501368D01*
X4380521Y21349751D01*
X4513981Y21272698D01*
X4618971Y21212081D01*
X4618976Y21212079D01*
X4618979Y21212077D01*
X4873368Y21106705D01*
X5139334Y21035440D01*
X5412326Y20999500D01*
X5412333Y20999500D01*
X5687667Y20999500D01*
X5687674Y20999500D01*
X5960666Y21035440D01*
X6226632Y21106705D01*
X6481021Y21212077D01*
X6586019Y21272698D01*
X28362000Y21272698D01*
X28362000Y21036503D01*
X28398946Y20803232D01*
X28471933Y20578604D01*
X28579157Y20368167D01*
X28717983Y20177090D01*
X28884990Y20010083D01*
X29076067Y19871257D01*
X29175491Y19820598D01*
X29286503Y19764034D01*
X29286505Y19764034D01*
X29286508Y19764032D01*
X29406912Y19724911D01*
X29511131Y19691047D01*
X29744403Y19654100D01*
X29744408Y19654100D01*
X29980597Y19654100D01*
X30213868Y19691047D01*
X30268564Y19708819D01*
X30438492Y19764032D01*
X30648933Y19871257D01*
X30840010Y20010083D01*
X31007017Y20177090D01*
X31145843Y20368167D01*
X31205268Y20484795D01*
X31253243Y20535591D01*
X31315753Y20552500D01*
X34909247Y20552500D01*
X34976286Y20532815D01*
X35019732Y20484795D01*
X35079157Y20368167D01*
X35217983Y20177090D01*
X35384990Y20010083D01*
X35576067Y19871257D01*
X35675491Y19820598D01*
X35786503Y19764034D01*
X35786505Y19764034D01*
X35786508Y19764032D01*
X35906912Y19724911D01*
X36011131Y19691047D01*
X36244403Y19654100D01*
X36244408Y19654100D01*
X36480597Y19654100D01*
X36713868Y19691047D01*
X36768564Y19708819D01*
X36938492Y19764032D01*
X37148933Y19871257D01*
X37340010Y20010083D01*
X37507017Y20177090D01*
X37645843Y20368167D01*
X37753068Y20578608D01*
X37826053Y20803232D01*
X37832549Y20844245D01*
X37863000Y21036503D01*
X37863000Y21272698D01*
X37826053Y21505969D01*
X37776550Y21658322D01*
X37753068Y21730592D01*
X37753066Y21730595D01*
X37753066Y21730597D01*
X37651199Y21930521D01*
X37645843Y21941033D01*
X37507017Y22132110D01*
X37340010Y22299117D01*
X37148933Y22437943D01*
X36938496Y22545167D01*
X36713868Y22618154D01*
X36480597Y22655100D01*
X36480592Y22655100D01*
X36244408Y22655100D01*
X36244403Y22655100D01*
X36011131Y22618154D01*
X35786503Y22545167D01*
X35576066Y22437943D01*
X35467050Y22358738D01*
X35384990Y22299117D01*
X35384988Y22299115D01*
X35384987Y22299115D01*
X35217985Y22132113D01*
X35217985Y22132112D01*
X35217983Y22132110D01*
X35214641Y22127510D01*
X35079157Y21941034D01*
X35019732Y21824405D01*
X34971757Y21773609D01*
X34909247Y21756700D01*
X31315753Y21756700D01*
X31248714Y21776385D01*
X31205268Y21824405D01*
X31151199Y21930521D01*
X31145843Y21941033D01*
X31007017Y22132110D01*
X30840010Y22299117D01*
X30648933Y22437943D01*
X30438496Y22545167D01*
X30213868Y22618154D01*
X29980597Y22655100D01*
X29980592Y22655100D01*
X29744408Y22655100D01*
X29744403Y22655100D01*
X29511131Y22618154D01*
X29286503Y22545167D01*
X29076066Y22437943D01*
X28967050Y22358738D01*
X28884990Y22299117D01*
X28884988Y22299115D01*
X28884987Y22299115D01*
X28717985Y22132113D01*
X28717985Y22132112D01*
X28717983Y22132110D01*
X28714641Y22127510D01*
X28579157Y21941034D01*
X28471933Y21730597D01*
X28398946Y21505969D01*
X28362000Y21272698D01*
X6586019Y21272698D01*
X6719479Y21349751D01*
X6741523Y21366667D01*
X6753610Y21375940D01*
X6917072Y21501369D01*
X6937928Y21517372D01*
X7132628Y21712072D01*
X7300249Y21930521D01*
X7437923Y22168979D01*
X7543295Y22423368D01*
X7614560Y22689334D01*
X7650500Y22962326D01*
X7650500Y23237674D01*
X7614560Y23510666D01*
X7543295Y23776632D01*
X7437923Y24031021D01*
X7437921Y24031024D01*
X7437919Y24031029D01*
X7366863Y24154100D01*
X7300249Y24269479D01*
X7132628Y24487928D01*
X7132623Y24487934D01*
X6937933Y24682624D01*
X6937926Y24682630D01*
X6745707Y24830124D01*
X6704504Y24886552D01*
X6700349Y24956298D01*
X6734561Y25017218D01*
X6796278Y25049971D01*
X6821193Y25052500D01*
X28409247Y25052500D01*
X28476286Y25032815D01*
X28519732Y24984795D01*
X28534252Y24956298D01*
X28579157Y24868167D01*
X28717983Y24677090D01*
X28884990Y24510083D01*
X29076067Y24371257D01*
X29175491Y24320598D01*
X29286503Y24264034D01*
X29286505Y24264034D01*
X29286508Y24264032D01*
X29406912Y24224911D01*
X29511131Y24191047D01*
X29744403Y24154100D01*
X29744408Y24154100D01*
X29980597Y24154100D01*
X30213868Y24191047D01*
X30438492Y24264032D01*
X30648933Y24371257D01*
X30840010Y24510083D01*
X31007017Y24677090D01*
X31145843Y24868167D01*
X31191898Y24958557D01*
X31205268Y24984795D01*
X31253243Y25035591D01*
X31315753Y25052500D01*
X34909247Y25052500D01*
X34976286Y25032815D01*
X35019732Y24984795D01*
X35034252Y24956298D01*
X35079157Y24868167D01*
X35217983Y24677090D01*
X35384990Y24510083D01*
X35576067Y24371257D01*
X35675491Y24320598D01*
X35786503Y24264034D01*
X35786505Y24264034D01*
X35786508Y24264032D01*
X35906912Y24224911D01*
X36011131Y24191047D01*
X36244403Y24154100D01*
X36244408Y24154100D01*
X36480597Y24154100D01*
X36713868Y24191047D01*
X36938492Y24264032D01*
X37148933Y24371257D01*
X37340010Y24510083D01*
X37507017Y24677090D01*
X37645843Y24868167D01*
X37753068Y25078608D01*
X37826053Y25303232D01*
X37862271Y25531903D01*
X37863000Y25536503D01*
X37863000Y25772698D01*
X37826053Y26005969D01*
X37792189Y26110188D01*
X37753068Y26230592D01*
X37753066Y26230595D01*
X37753066Y26230597D01*
X37674665Y26384466D01*
X37645843Y26441033D01*
X37507017Y26632110D01*
X37340010Y26799117D01*
X37148933Y26937943D01*
X36938496Y27045167D01*
X36713868Y27118154D01*
X36480597Y27155100D01*
X36480592Y27155100D01*
X36244408Y27155100D01*
X36244403Y27155100D01*
X36011131Y27118154D01*
X35786503Y27045167D01*
X35576066Y26937943D01*
X35467050Y26858738D01*
X35384990Y26799117D01*
X35384988Y26799115D01*
X35384987Y26799115D01*
X35217985Y26632113D01*
X35217985Y26632112D01*
X35217983Y26632110D01*
X35214641Y26627510D01*
X35079157Y26441034D01*
X35019732Y26324405D01*
X34971757Y26273609D01*
X34909247Y26256700D01*
X31315753Y26256700D01*
X31248714Y26276385D01*
X31205268Y26324405D01*
X31174665Y26384466D01*
X31145843Y26441033D01*
X31007017Y26632110D01*
X30840010Y26799117D01*
X30648933Y26937943D01*
X30438496Y27045167D01*
X30213868Y27118154D01*
X29980597Y27155100D01*
X29980592Y27155100D01*
X29744408Y27155100D01*
X29744403Y27155100D01*
X29511131Y27118154D01*
X29286503Y27045167D01*
X29076066Y26937943D01*
X28967050Y26858738D01*
X28884990Y26799117D01*
X28884988Y26799115D01*
X28884987Y26799115D01*
X28717985Y26632113D01*
X28717985Y26632112D01*
X28717983Y26632110D01*
X28714641Y26627510D01*
X28579157Y26441034D01*
X28519732Y26324405D01*
X28471757Y26273609D01*
X28409247Y26256700D01*
X6534761Y26256700D01*
X6467722Y26276385D01*
X6447084Y26293015D01*
X6355635Y26384464D01*
X6355634Y26384465D01*
X6355633Y26384466D01*
X6208153Y26483010D01*
X6208140Y26483017D01*
X6044267Y26550894D01*
X6044258Y26550897D01*
X5870294Y26585500D01*
X5870291Y26585500D01*
X5692909Y26585500D01*
X5692906Y26585500D01*
X5518941Y26550897D01*
X5518932Y26550894D01*
X5355059Y26483017D01*
X5355046Y26483010D01*
X5207566Y26384466D01*
X5159543Y26336443D01*
X5111518Y26288418D01*
X5050198Y26254934D01*
X5023839Y26252100D01*
X-27906747Y26252100D01*
X-27973786Y26271785D01*
X-28017232Y26319805D01*
X-28076658Y26436434D01*
X-28080000Y26441034D01*
X-28215483Y26627510D01*
X-28382490Y26794517D01*
X-28573567Y26933343D01*
X-28582595Y26937943D01*
X-28784004Y27040567D01*
X-29008632Y27113554D01*
X-29241903Y27150500D01*
X-29241908Y27150500D01*
X-29478092Y27150500D01*
X-29478097Y27150500D01*
X-29711369Y27113554D01*
X-29935997Y27040567D01*
X-30146434Y26933343D01*
X-30255450Y26854138D01*
X-30337510Y26794517D01*
X-30337512Y26794515D01*
X-30337513Y26794515D01*
X-30504515Y26627513D01*
X-30504515Y26627512D01*
X-30504517Y26627510D01*
X-30535039Y26585500D01*
X-30643343Y26436434D01*
X-30702768Y26319805D01*
X-30750743Y26269009D01*
X-30813253Y26252100D01*
X-34406747Y26252100D01*
X-34473786Y26271785D01*
X-34517232Y26319805D01*
X-34576658Y26436434D01*
X-34580000Y26441034D01*
X-34715483Y26627510D01*
X-34882490Y26794517D01*
X-35073567Y26933343D01*
X-35082595Y26937943D01*
X-35284004Y27040567D01*
X-35508632Y27113554D01*
X-35741903Y27150500D01*
X-35741908Y27150500D01*
X-35978092Y27150500D01*
X-35978097Y27150500D01*
X-36211369Y27113554D01*
X-36435997Y27040567D01*
X-36646434Y26933343D01*
X-36755450Y26854138D01*
X-36837510Y26794517D01*
X-36837512Y26794515D01*
X-36837513Y26794515D01*
X-37004515Y26627513D01*
X-37004515Y26627512D01*
X-37004517Y26627510D01*
X-37035039Y26585500D01*
X-37143343Y26436434D01*
X-37250567Y26225997D01*
X-37323554Y26001369D01*
X-37360500Y25768098D01*
X-49499501Y25768098D01*
X-49499501Y32121289D01*
X-45850500Y32121289D01*
X-45850500Y31878712D01*
X-45818839Y31638215D01*
X-45756053Y31403896D01*
X-45690036Y31244517D01*
X-45663224Y31179788D01*
X-45541936Y30969711D01*
X-45541934Y30969708D01*
X-45541933Y30969707D01*
X-45394267Y30777264D01*
X-45394261Y30777257D01*
X-45222744Y30605740D01*
X-45222737Y30605734D01*
X-45109679Y30518982D01*
X-45030289Y30458064D01*
X-44820212Y30336776D01*
X-44596100Y30243946D01*
X-44361789Y30181162D01*
X-44181414Y30157416D01*
X-44121289Y30149500D01*
X-44121288Y30149500D01*
X-43878711Y30149500D01*
X-43830612Y30155833D01*
X-43638211Y30181162D01*
X-43500365Y30218098D01*
X-4050500Y30218098D01*
X-4050500Y29981903D01*
X-4013554Y29748632D01*
X-3940567Y29524004D01*
X-3833481Y29313837D01*
X-3833343Y29313567D01*
X-3694517Y29122490D01*
X-3527510Y28955483D01*
X-3336433Y28816657D01*
X-3237009Y28765998D01*
X-3125997Y28709434D01*
X-3125995Y28709434D01*
X-3125992Y28709432D01*
X-3005588Y28670311D01*
X-2901369Y28636447D01*
X-2668097Y28599500D01*
X-2668092Y28599500D01*
X-2431903Y28599500D01*
X-2198632Y28636447D01*
X-2197130Y28636935D01*
X-1974008Y28709432D01*
X-1763567Y28816657D01*
X-1572490Y28955483D01*
X-1405483Y29122490D01*
X-1266657Y29313567D01*
X-1159432Y29524008D01*
X-1086447Y29748632D01*
X-1061363Y29907007D01*
X-1049500Y29981903D01*
X-1049500Y30218053D01*
X950000Y30218053D01*
X950000Y29981948D01*
X986934Y29748753D01*
X1059897Y29524198D01*
X1167087Y29313826D01*
X1227338Y29230896D01*
X1227340Y29230895D01*
X1967037Y29970592D01*
X1984075Y29907007D01*
X2049901Y29792993D01*
X2142993Y29699901D01*
X2257007Y29634075D01*
X2320590Y29617038D01*
X1580893Y28877342D01*
X1663828Y28817086D01*
X1874197Y28709898D01*
X2098752Y28636935D01*
X2098751Y28636935D01*
X2331948Y28600000D01*
X2568052Y28600000D01*
X2801247Y28636935D01*
X3025802Y28709898D01*
X3236163Y28817082D01*
X3236169Y28817086D01*
X3319104Y28877342D01*
X3319105Y28877342D01*
X2579408Y29617038D01*
X2642993Y29634075D01*
X2757007Y29699901D01*
X2850099Y29792993D01*
X2915925Y29907007D01*
X2932962Y29970591D01*
X3672658Y29230895D01*
X3672658Y29230896D01*
X3732914Y29313831D01*
X3732918Y29313837D01*
X3840102Y29524198D01*
X3913065Y29748753D01*
X3950000Y29981948D01*
X3950000Y30218053D01*
X3913065Y30451248D01*
X3840102Y30675803D01*
X3732914Y30886172D01*
X3672658Y30969106D01*
X3672658Y30969107D01*
X2932962Y30229410D01*
X2915925Y30292993D01*
X2850099Y30407007D01*
X2757007Y30500099D01*
X2642993Y30565925D01*
X2579409Y30582963D01*
X3319105Y31322660D01*
X3319104Y31322662D01*
X3236174Y31382913D01*
X3025802Y31490103D01*
X2801247Y31563066D01*
X2801248Y31563066D01*
X2568052Y31600000D01*
X2331948Y31600000D01*
X2098752Y31563066D01*
X1874197Y31490103D01*
X1663830Y31382916D01*
X1580894Y31322660D01*
X2320591Y30582963D01*
X2257007Y30565925D01*
X2142993Y30500099D01*
X2049901Y30407007D01*
X1984075Y30292993D01*
X1967037Y30229409D01*
X1227340Y30969106D01*
X1167084Y30886170D01*
X1059897Y30675803D01*
X986934Y30451248D01*
X950000Y30218053D01*
X-1049500Y30218053D01*
X-1049500Y30218098D01*
X-1086447Y30451369D01*
X-1159434Y30675997D01*
X-1266523Y30886170D01*
X-1266657Y30886433D01*
X-1405483Y31077510D01*
X-1572490Y31244517D01*
X-1763567Y31383343D01*
X-1974004Y31490567D01*
X-2198632Y31563554D01*
X-2431903Y31600500D01*
X-2431908Y31600500D01*
X-2668092Y31600500D01*
X-2668097Y31600500D01*
X-2901369Y31563554D01*
X-3125997Y31490567D01*
X-3336434Y31383343D01*
X-3419953Y31322662D01*
X-3527510Y31244517D01*
X-3527512Y31244515D01*
X-3527513Y31244515D01*
X-3694515Y31077513D01*
X-3694515Y31077512D01*
X-3694517Y31077510D01*
X-3754138Y30995450D01*
X-3833343Y30886434D01*
X-3940567Y30675997D01*
X-4013554Y30451369D01*
X-4050500Y30218098D01*
X-43500365Y30218098D01*
X-43403900Y30243946D01*
X-43179788Y30336776D01*
X-42969711Y30458064D01*
X-42777262Y30605735D01*
X-42605735Y30777262D01*
X-42458064Y30969711D01*
X-42336776Y31179788D01*
X-42243946Y31403900D01*
X-42181162Y31638211D01*
X-42149500Y31878712D01*
X-42149500Y32121288D01*
X-42149500Y32121289D01*
X42149500Y32121289D01*
X42149500Y31878712D01*
X42181161Y31638215D01*
X42243947Y31403896D01*
X42309964Y31244517D01*
X42336776Y31179788D01*
X42458064Y30969711D01*
X42458066Y30969708D01*
X42458067Y30969707D01*
X42605733Y30777264D01*
X42605739Y30777257D01*
X42777256Y30605740D01*
X42777263Y30605734D01*
X42890321Y30518982D01*
X42969711Y30458064D01*
X43179788Y30336776D01*
X43403900Y30243946D01*
X43638211Y30181162D01*
X43818586Y30157416D01*
X43878711Y30149500D01*
X43878712Y30149500D01*
X44121289Y30149500D01*
X44169388Y30155833D01*
X44361789Y30181162D01*
X44596100Y30243946D01*
X44820212Y30336776D01*
X45030289Y30458064D01*
X45222738Y30605735D01*
X45394265Y30777262D01*
X45541936Y30969711D01*
X45663224Y31179788D01*
X45756054Y31403900D01*
X45818838Y31638211D01*
X45850500Y31878712D01*
X45850500Y32121288D01*
X45818838Y32361789D01*
X45756054Y32596100D01*
X45663224Y32820212D01*
X45541936Y33030289D01*
X45394265Y33222738D01*
X45394260Y33222744D01*
X45222743Y33394261D01*
X45222736Y33394267D01*
X45030293Y33541933D01*
X45030292Y33541934D01*
X45030289Y33541936D01*
X44820212Y33663224D01*
X44820205Y33663227D01*
X44596104Y33756053D01*
X44361785Y33818839D01*
X44121289Y33850500D01*
X44121288Y33850500D01*
X43878712Y33850500D01*
X43878711Y33850500D01*
X43638214Y33818839D01*
X43403895Y33756053D01*
X43179794Y33663227D01*
X43179785Y33663223D01*
X42969706Y33541933D01*
X42777263Y33394267D01*
X42777256Y33394261D01*
X42605739Y33222744D01*
X42605733Y33222737D01*
X42458067Y33030294D01*
X42336777Y32820215D01*
X42336773Y32820206D01*
X42243947Y32596105D01*
X42181161Y32361786D01*
X42149500Y32121289D01*
X-42149500Y32121289D01*
X-42181162Y32361789D01*
X-42243946Y32596100D01*
X-42336776Y32820212D01*
X-42458064Y33030289D01*
X-42605735Y33222738D01*
X-42605740Y33222744D01*
X-42777257Y33394261D01*
X-42777264Y33394267D01*
X-42969707Y33541933D01*
X-42969708Y33541934D01*
X-42969711Y33541936D01*
X-43179788Y33663224D01*
X-43179795Y33663227D01*
X-43403896Y33756053D01*
X-43638215Y33818839D01*
X-43878711Y33850500D01*
X-43878712Y33850500D01*
X-44121288Y33850500D01*
X-44121289Y33850500D01*
X-44361786Y33818839D01*
X-44596105Y33756053D01*
X-44820206Y33663227D01*
X-44820215Y33663223D01*
X-45030294Y33541933D01*
X-45222737Y33394267D01*
X-45222744Y33394261D01*
X-45394261Y33222744D01*
X-45394267Y33222737D01*
X-45541933Y33030294D01*
X-45663223Y32820215D01*
X-45663227Y32820206D01*
X-45756053Y32596105D01*
X-45818839Y32361786D01*
X-45850500Y32121289D01*
X-49499501Y32121289D01*
X-49499501Y34996250D01*
X-49499275Y35003737D01*
X-49481730Y35293795D01*
X-49479925Y35308660D01*
X-49428221Y35590798D01*
X-49424637Y35605336D01*
X-49339305Y35879179D01*
X-49334003Y35893159D01*
X-49216270Y36154751D01*
X-49209325Y36167984D01*
X-49060921Y36413474D01*
X-49052434Y36425770D01*
X-48875521Y36651583D01*
X-48865606Y36662774D01*
X-48662775Y36865605D01*
X-48651584Y36875520D01*
X-48425771Y37052434D01*
X-48413475Y37060921D01*
X-48167990Y37209322D01*
X-48154745Y37216273D01*
X-47893159Y37334003D01*
X-47879178Y37339305D01*
X-47605332Y37424639D01*
X-47590803Y37428221D01*
X-47308657Y37479926D01*
X-47293800Y37481730D01*
X-47003753Y37499274D01*
X-46996266Y37499500D01*
X-46934108Y37499500D01*
X46934107Y37499500D01*
X46996248Y37499500D01*
X47003735Y37499274D01*
G37*
%TD.AperFunction*%
%TD*%
M02*
