M48
; DRILL file {KiCad 8.0.8-8.0.8-0~ubuntu24.04.1} date 2025-02-11T20:21:40+0100
; FORMAT={-:-/ absolute / metric / decimal}
; #@! TF.CreationDate,2025-02-11T20:21:40+01:00
; #@! TF.GenerationSoftware,Kicad,Pcbnew,8.0.8-8.0.8-0~ubuntu24.04.1
; #@! TF.FileFunction,MixedPlating,1,2
FMAT,2
METRIC
; #@! TA.AperFunction,Plated,PTH,ViaDrill
T1C0.500
; #@! TA.AperFunction,Plated,PTH,ComponentDrill
T2C0.600
; #@! TA.AperFunction,Plated,PTH,ComponentDrill
T3C1.000
; #@! TA.AperFunction,Plated,PTH,ComponentDrill
T4C1.100
; #@! TA.AperFunction,Plated,PTH,ComponentDrill
T5C2.600
; #@! TA.AperFunction,NonPlated,NPTH,ComponentDrill
T6C3.200
%
G90
G05
T1
X-39.327Y-13.225
X-34.526Y-13.225
X-24.189Y19.44
X-21.064Y-10.583
X-16.721Y17.484
X-15.222Y-18.178
X-15.197Y18.729
X-14.46Y13.369
X-14.206Y20.684
X-12.581Y28.381
X-10.904Y0.745
X-9.66Y19.465
X-9.203Y20.634
X-8.618Y-14.418
X-8.034Y-18.203
X-7.247Y-10.735
X-3.03Y-13.402
X2.329Y-0.245
X2.354Y-2.607
X2.939Y-13.402
X4.234Y-14.672
X4.92Y13.395
X5.86Y-6.392
X5.86Y-9.872
X5.86Y-18.228
X8.171Y3.971
X8.247Y1.711
X8.577Y27.568
X9.619Y11.083
X11.397Y3.971
X11.448Y1.711
X14.394Y29.676
X15.054Y11.058
X15.334Y18.703
X16.934Y-2.836
X18.458Y-2.836
X20.998Y29.676
X26.637Y17.459
X27.577Y6.689
X27.653Y2.701
X29.126Y-2.836
T2
X-23.706Y32.978
X-22.456Y32.978
X-21.206Y32.978
X-19.956Y32.978
X17.091Y32.816
X18.341Y32.816
X19.591Y32.816
X20.841Y32.816
T3
X-31.5Y-15.55
X-31.5Y-30.05
X-29.0Y-15.55
X-26.5Y-15.55
X-26.5Y-30.05
X-2.55Y30.1
X-2.55Y15.6
X-0.05Y15.6
X2.45Y30.1
X2.45Y15.6
X27.5Y-15.5
X27.5Y-30.0
X30.0Y-15.5
X32.5Y-15.5
X32.5Y-30.0
T4
X-35.86Y25.65
X-35.86Y21.15
X-29.36Y25.65
X-29.36Y21.15
X-3.08Y-20.398
X-3.08Y-24.898
X3.42Y-20.398
X3.42Y-24.898
X29.863Y25.655
X29.863Y21.155
X36.363Y25.655
X36.363Y21.155
T5
X-34.6Y-23.05
X-23.4Y-23.05
X-5.65Y23.1
X5.55Y23.1
X24.4Y-23.0
X35.6Y-23.0
T6
X-44.0Y32.0
X-44.0Y-32.0
X44.0Y32.0
X44.0Y-32.0
M30
