M48
; DRILL file {KiCad 8.0.8-8.0.8-0~ubuntu24.04.1} date 2025-02-17T20:44:30+0100
; FORMAT={-:-/ absolute / metric / decimal}
; #@! TF.CreationDate,2025-02-17T20:44:30+01:00
; #@! TF.GenerationSoftware,Kicad,Pcbnew,8.0.8-8.0.8-0~ubuntu24.04.1
; #@! TF.FileFunction,MixedPlating,1,2
FMAT,2
METRIC
; #@! TA.AperFunction,Plated,PTH,ViaDrill
T1C0.600
; #@! TA.AperFunction,Plated,PTH,ComponentDrill
T2C1.000
; #@! TA.AperFunction,Plated,PTH,ComponentDrill
T3C1.100
; #@! TA.AperFunction,Plated,PTH,ComponentDrill
T4C2.600
; #@! TA.AperFunction,NonPlated,NPTH,ComponentDrill
T5C3.200
%
G90
G05
T1
X-34.12Y10.245
X-34.12Y5.038
X-33.739Y-6.519
X-28.278Y5.038
X-26.881Y-6.392
X-22.055Y10.245
X-21.547Y-4.36
X-20.531Y8.34
X-20.404Y-3.344
X-19.388Y-8.297
X-19.261Y-15.409
X-16.34Y-30.903
X-13.546Y-13.885
X-13.038Y9.991
X-12.911Y5.419
X-12.657Y-20.489
X-12.657Y-34.332
X-10.625Y-24.807
X-10.371Y-15.409
X-10.371Y-20.362
X-10.244Y-32.046
X-10.117Y8.34
X-9.99Y5.419
X-7.704Y-10.456
X-7.577Y-13.885
X-7.45Y-4.487
X-6.688Y12.15
X-6.688Y5.038
X-3.894Y-0.042
X-2.751Y8.662
X-2.751Y5.165
X1.186Y-0.042
X1.44Y5.165
X1.44Y2.117
X5.504Y8.594
X5.504Y1.736
X5.758Y-4.487
X6.012Y-11.726
X7.663Y12.023
X7.79Y5.038
X9.314Y8.721
X9.314Y4.784
X12.743Y9.61
X16.807Y9.737
X16.807Y-5.503
X18.712Y-2.836
X18.966Y-32.935
X19.728Y-4.995
X19.728Y-9.313
X20.998Y-10.202
X21.887Y-2.836
X21.887Y-5.376
X25.57Y-2.836
X25.57Y-8.424
X27.475Y-32.935
X35.476Y-10.456
T2
X-31.5Y-15.55
X-31.5Y-30.05
X-29.0Y-15.55
X-26.5Y-15.55
X-26.5Y-30.05
X-5.418Y-32.046
X-3.894Y-3.344
X-2.878Y-32.046
X-2.55Y30.1
X-2.55Y15.6
X-1.354Y-3.344
X-0.338Y-32.046
X-0.05Y15.6
X1.186Y-3.344
X2.202Y-32.046
X2.45Y30.1
X2.45Y15.6
X3.726Y-3.344
X4.742Y-32.046
X27.5Y-15.5
X27.5Y-30.0
X30.0Y-15.5
X32.5Y-15.5
X32.5Y-30.0
T3
X-35.86Y25.65
X-35.86Y21.15
X-29.36Y25.65
X-29.36Y21.15
X-3.08Y-20.398
X-3.08Y-24.898
X3.42Y-20.398
X3.42Y-24.898
X29.863Y25.655
X29.863Y21.155
X36.363Y25.655
X36.363Y21.155
T4
X-34.6Y-23.05
X-23.4Y-23.05
X-5.65Y23.1
X5.55Y23.1
X24.4Y-23.0
X35.6Y-23.0
T5
X-44.0Y32.0
X-44.0Y-32.0
X44.0Y32.0
X44.0Y-32.0
M30
