%TF.GenerationSoftware,KiCad,Pcbnew,9.0.7*%
%TF.CreationDate,2026-02-13T16:26:25+01:00*%
%TF.ProjectId,Encoders-LCD,456e636f-6465-4727-932d-4c43442e6b69,rev?*%
%TF.SameCoordinates,PX2607d70PY72938b0*%
%TF.FileFunction,Legend,Top*%
%TF.FilePolarity,Positive*%
%FSLAX46Y46*%
G04 Gerber Fmt 4.6, Leading zero omitted, Abs format (unit mm)*
G04 Created by KiCad (PCBNEW 9.0.7) date 2026-02-13 16:26:25*
%MOMM*%
%LPD*%
G01*
G04 APERTURE LIST*
%ADD10C,0.000000*%
%ADD11C,0.074083*%
%ADD12C,0.200000*%
%ADD13C,0.100000*%
%ADD14C,0.150000*%
%ADD15C,0.120000*%
G04 APERTURE END LIST*
D10*
G36*
X56642000Y4953001D02*
G01*
X56314975Y4953001D01*
X56314975Y5280025D01*
X56642000Y5280025D01*
X56642000Y4953001D01*
G37*
G36*
X64896999Y2413001D02*
G01*
X64569974Y2413001D01*
X64569974Y2740026D01*
X64896999Y2740026D01*
X64896999Y2413001D01*
G37*
G36*
X57594500Y8763000D02*
G01*
X57267475Y8763000D01*
X57267475Y9090025D01*
X57594500Y9090025D01*
X57594500Y8763000D01*
G37*
D11*
X27527234Y56769000D02*
X27548109Y56767534D01*
X27568692Y56765091D01*
X27588982Y56761671D01*
X27608981Y56757274D01*
X27628686Y56751900D01*
X27648099Y56745549D01*
X27667219Y56738221D01*
X27686045Y56729917D01*
X27704578Y56720636D01*
X27722817Y56710379D01*
X27740762Y56699145D01*
X27758413Y56686935D01*
X27775769Y56673748D01*
X27792831Y56659585D01*
X27809597Y56644446D01*
X27824880Y56629405D01*
X27839177Y56613850D01*
X27852488Y56597780D01*
X27864812Y56581195D01*
X27876151Y56564095D01*
X27886504Y56546481D01*
X27895871Y56528351D01*
X27904252Y56509708D01*
X27911647Y56490549D01*
X27918056Y56470876D01*
X27923479Y56450688D01*
X27927916Y56429985D01*
X27931367Y56408768D01*
X27933832Y56387035D01*
X27935311Y56364789D01*
X27935804Y56342027D01*
X27935804Y56235136D01*
X27260482Y55934887D01*
X27260761Y55921529D01*
X27261601Y55908441D01*
X27262999Y55895623D01*
X27264957Y55883075D01*
X27267475Y55870798D01*
X27270553Y55858791D01*
X27274190Y55847055D01*
X27278387Y55835589D01*
X27283144Y55824393D01*
X27288462Y55813468D01*
X27294339Y55802813D01*
X27300777Y55792428D01*
X27307775Y55782314D01*
X27315333Y55772471D01*
X27323452Y55762898D01*
X27332131Y55753595D01*
X27341218Y55744732D01*
X27350601Y55736440D01*
X27360278Y55728719D01*
X27370250Y55721569D01*
X27380516Y55714990D01*
X27391077Y55708982D01*
X27401932Y55703545D01*
X27413081Y55698680D01*
X27424524Y55694387D01*
X27436261Y55690666D01*
X27448291Y55687517D01*
X27460615Y55684940D01*
X27473232Y55682935D01*
X27486142Y55681503D01*
X27499346Y55680644D01*
X27512842Y55680357D01*
X27524689Y55680637D01*
X27536359Y55681476D01*
X27547852Y55682874D01*
X27559167Y55684833D01*
X27570305Y55687350D01*
X27581266Y55690428D01*
X27592049Y55694065D01*
X27602655Y55698263D01*
X27613083Y55703020D01*
X27623334Y55708337D01*
X27633408Y55714215D01*
X27643305Y55720653D01*
X27653024Y55727651D01*
X27662565Y55735209D01*
X27671930Y55743328D01*
X27681117Y55752008D01*
X27689661Y55760812D01*
X27697671Y55769903D01*
X27705149Y55779281D01*
X27712094Y55788943D01*
X27718505Y55798892D01*
X27724384Y55809126D01*
X27729730Y55819645D01*
X27734543Y55830449D01*
X27738823Y55841537D01*
X27742571Y55852910D01*
X27745786Y55864567D01*
X27748469Y55876509D01*
X27750619Y55888734D01*
X27752237Y55901242D01*
X27753323Y55914034D01*
X27753877Y55927109D01*
X27753877Y55943036D01*
X27935804Y56023733D01*
X27935804Y55923668D01*
X27935271Y55903818D01*
X27933673Y55884077D01*
X27931009Y55864443D01*
X27927280Y55844917D01*
X27922485Y55825499D01*
X27916624Y55806188D01*
X27909698Y55786984D01*
X27901705Y55767888D01*
X27892647Y55748899D01*
X27882522Y55730018D01*
X27871332Y55711243D01*
X27859075Y55692576D01*
X27845752Y55674015D01*
X27831363Y55655561D01*
X27815907Y55637214D01*
X27799384Y55618974D01*
X27784649Y55604105D01*
X27769433Y55590196D01*
X27753738Y55577246D01*
X27737562Y55565256D01*
X27720907Y55554226D01*
X27703773Y55544155D01*
X27686159Y55535044D01*
X27668065Y55526892D01*
X27649493Y55519699D01*
X27630441Y55513466D01*
X27610909Y55508192D01*
X27590899Y55503877D01*
X27570409Y55500521D01*
X27549441Y55498124D01*
X27527994Y55496686D01*
X27506067Y55496206D01*
X27484105Y55496694D01*
X27462550Y55498159D01*
X27441402Y55500599D01*
X27420662Y55504017D01*
X27400330Y55508411D01*
X27380405Y55513781D01*
X27360889Y55520129D01*
X27341781Y55527454D01*
X27323081Y55535756D01*
X27304791Y55545036D01*
X27286910Y55555293D01*
X27269438Y55566528D01*
X27252376Y55578741D01*
X27235723Y55591932D01*
X27219481Y55606101D01*
X27203649Y55621249D01*
X27188501Y55637081D01*
X27174332Y55653322D01*
X27161141Y55669972D01*
X27148928Y55687032D01*
X27137693Y55704501D01*
X27127436Y55722379D01*
X27118156Y55740666D01*
X27109854Y55759362D01*
X27102529Y55778468D01*
X27096182Y55797983D01*
X27090811Y55817907D01*
X27086417Y55838241D01*
X27083000Y55858984D01*
X27080559Y55880136D01*
X27079095Y55901697D01*
X27078607Y55923668D01*
X27078607Y56338641D01*
X27260430Y56338641D01*
X27260430Y56134012D01*
X27752714Y56352928D01*
X27751765Y56364764D01*
X27750345Y56376363D01*
X27748456Y56387722D01*
X27746096Y56398843D01*
X27743265Y56409725D01*
X27739964Y56420368D01*
X27736193Y56430771D01*
X27731951Y56440935D01*
X27727238Y56450858D01*
X27722055Y56460541D01*
X27716401Y56469984D01*
X27710276Y56479186D01*
X27703680Y56488148D01*
X27696612Y56496868D01*
X27689074Y56505347D01*
X27681065Y56513584D01*
X27671834Y56522273D01*
X27662317Y56530401D01*
X27652516Y56537969D01*
X27642429Y56544976D01*
X27632058Y56551423D01*
X27621402Y56557309D01*
X27610461Y56562635D01*
X27599235Y56567400D01*
X27587725Y56571604D01*
X27575930Y56575248D01*
X27563851Y56578331D01*
X27551487Y56580854D01*
X27538839Y56582816D01*
X27525907Y56584217D01*
X27512690Y56585058D01*
X27499190Y56585338D01*
X27487346Y56585059D01*
X27475690Y56584220D01*
X27464219Y56582821D01*
X27452934Y56580863D01*
X27441836Y56578345D01*
X27430925Y56575267D01*
X27420200Y56571630D01*
X27409661Y56567433D01*
X27399309Y56562675D01*
X27389144Y56557358D01*
X27379166Y56551480D01*
X27369374Y56545043D01*
X27359770Y56538045D01*
X27350353Y56530486D01*
X27341122Y56522368D01*
X27332079Y56513688D01*
X27323409Y56504618D01*
X27315297Y56495328D01*
X27307743Y56485816D01*
X27300748Y56476083D01*
X27294312Y56466130D01*
X27288434Y56455955D01*
X27283115Y56445559D01*
X27278356Y56434942D01*
X27274156Y56424103D01*
X27270515Y56413043D01*
X27267434Y56401761D01*
X27264913Y56390258D01*
X27262952Y56378533D01*
X27261551Y56366586D01*
X27260710Y56354418D01*
X27260430Y56342027D01*
X27260430Y56338641D01*
X27078607Y56338641D01*
X27078607Y56342027D01*
X27079095Y56363989D01*
X27080561Y56385542D01*
X27083004Y56406688D01*
X27086424Y56427425D01*
X27090821Y56447755D01*
X27096195Y56467676D01*
X27102546Y56487189D01*
X27109874Y56506295D01*
X27118178Y56524992D01*
X27127459Y56543281D01*
X27137716Y56561162D01*
X27148950Y56578635D01*
X27161160Y56595700D01*
X27174347Y56612357D01*
X27188510Y56628606D01*
X27203649Y56644446D01*
X27219481Y56659585D01*
X27235722Y56673748D01*
X27252372Y56686935D01*
X27269431Y56699145D01*
X27286900Y56710379D01*
X27304778Y56720636D01*
X27323065Y56729917D01*
X27341762Y56738221D01*
X27360868Y56745549D01*
X27380383Y56751900D01*
X27400307Y56757274D01*
X27420641Y56761671D01*
X27441383Y56765091D01*
X27462535Y56767534D01*
X27484097Y56769000D01*
X27506067Y56769488D01*
X27527234Y56769000D01*
D10*
G36*
X59182000Y3365501D02*
G01*
X58854975Y3365501D01*
X58854975Y3692525D01*
X59182000Y3692525D01*
X59182000Y3365501D01*
G37*
G36*
X62039500Y8128000D02*
G01*
X61712475Y8128000D01*
X61712475Y8455025D01*
X62039500Y8455025D01*
X62039500Y8128000D01*
G37*
G36*
X62039500Y5588000D02*
G01*
X61712475Y5588000D01*
X61712475Y5915025D01*
X62039500Y5915025D01*
X62039500Y5588000D01*
G37*
G36*
X60452000Y9398000D02*
G01*
X60124975Y9398000D01*
X60124975Y9725025D01*
X60452000Y9725025D01*
X60452000Y9398000D01*
G37*
G36*
X64896999Y3048001D02*
G01*
X64569974Y3048001D01*
X64569974Y3375026D01*
X64896999Y3375026D01*
X64896999Y3048001D01*
G37*
G36*
X57912000Y4953001D02*
G01*
X57584975Y4953001D01*
X57584975Y5280025D01*
X57912000Y5280025D01*
X57912000Y4953001D01*
G37*
G36*
X60452000Y3683001D02*
G01*
X60124975Y3683001D01*
X60124975Y4010025D01*
X60452000Y4010025D01*
X60452000Y3683001D01*
G37*
G36*
X61087000Y7175500D02*
G01*
X60759975Y7175500D01*
X60759975Y7502525D01*
X61087000Y7502525D01*
X61087000Y7175500D01*
G37*
G36*
X56959500Y8445500D02*
G01*
X56632475Y8445500D01*
X56632475Y8772525D01*
X56959500Y8772525D01*
X56959500Y8445500D01*
G37*
G36*
X62991999Y10033000D02*
G01*
X62664975Y10033000D01*
X62664975Y10360025D01*
X62991999Y10360025D01*
X62991999Y10033000D01*
G37*
G36*
X59817000Y3365501D02*
G01*
X59489975Y3365501D01*
X59489975Y3692525D01*
X59817000Y3692525D01*
X59817000Y3365501D01*
G37*
G36*
X62991999Y4318000D02*
G01*
X62664975Y4318000D01*
X62664975Y4645025D01*
X62991999Y4645025D01*
X62991999Y4318000D01*
G37*
G36*
X59817000Y6540500D02*
G01*
X59489975Y6540500D01*
X59489975Y6867525D01*
X59817000Y6867525D01*
X59817000Y6540500D01*
G37*
G36*
X63627000Y2413001D02*
G01*
X63299975Y2413001D01*
X63299975Y2740026D01*
X63627000Y2740026D01*
X63627000Y2413001D01*
G37*
G36*
X35703125Y55769681D02*
G01*
X35702769Y55753908D01*
X35701703Y55738419D01*
X35699927Y55723214D01*
X35697440Y55708294D01*
X35694242Y55693657D01*
X35690333Y55679305D01*
X35685714Y55665236D01*
X35680384Y55651451D01*
X35674343Y55637951D01*
X35667592Y55624734D01*
X35660130Y55611802D01*
X35651958Y55599153D01*
X35643075Y55586789D01*
X35633481Y55574708D01*
X35623176Y55562912D01*
X35612161Y55551399D01*
X35600644Y55540384D01*
X35588835Y55530080D01*
X35576733Y55520486D01*
X35564338Y55511603D01*
X35551650Y55503430D01*
X35538670Y55495968D01*
X35525397Y55489217D01*
X35511831Y55483177D01*
X35497973Y55477847D01*
X35483822Y55473227D01*
X35469378Y55469319D01*
X35454641Y55466121D01*
X35439612Y55463633D01*
X35424290Y55461857D01*
X35408676Y55460791D01*
X35392769Y55460435D01*
X35376322Y55460782D01*
X35360240Y55461822D01*
X35344523Y55463555D01*
X35329170Y55465981D01*
X35314182Y55469100D01*
X35299558Y55472912D01*
X35285299Y55477417D01*
X35271405Y55482614D01*
X35257875Y55488504D01*
X35244710Y55495087D01*
X35231909Y55502362D01*
X35219473Y55510330D01*
X35207402Y55518990D01*
X35195695Y55528343D01*
X35184353Y55538387D01*
X35173376Y55549124D01*
X35161864Y55538387D01*
X35150068Y55528343D01*
X35137987Y55518990D01*
X35125623Y55510330D01*
X35112974Y55502362D01*
X35100042Y55495087D01*
X35086826Y55488504D01*
X35073325Y55482614D01*
X35059541Y55477417D01*
X35045472Y55472912D01*
X35031119Y55469100D01*
X35016483Y55465981D01*
X35001562Y55463555D01*
X34986358Y55461822D01*
X34970869Y55460782D01*
X34955096Y55460435D01*
X34938241Y55460782D01*
X34921786Y55461822D01*
X34905731Y55463555D01*
X34890077Y55465981D01*
X34874824Y55469100D01*
X34859970Y55472912D01*
X34845516Y55477417D01*
X34831463Y55482614D01*
X34817810Y55488504D01*
X34804556Y55495087D01*
X34791702Y55502362D01*
X34779248Y55510330D01*
X34767194Y55518990D01*
X34755539Y55528343D01*
X34744284Y55538387D01*
X34733428Y55549124D01*
X34722938Y55560519D01*
X34713117Y55572242D01*
X34703966Y55584293D01*
X34695483Y55596672D01*
X34687669Y55609378D01*
X34680523Y55622413D01*
X34674045Y55635776D01*
X34668234Y55649468D01*
X34663091Y55663488D01*
X34658614Y55677837D01*
X34654804Y55692515D01*
X34651661Y55707522D01*
X34649183Y55722858D01*
X34647372Y55738524D01*
X34646225Y55754520D01*
X34645744Y55770845D01*
X34645744Y56654182D01*
X34827672Y56733769D01*
X34826561Y55775395D01*
X34826707Y55768349D01*
X34827146Y55761437D01*
X34827878Y55754661D01*
X34828903Y55748019D01*
X34830221Y55741512D01*
X34831832Y55735139D01*
X34833736Y55728901D01*
X34835933Y55722796D01*
X34838424Y55716826D01*
X34841208Y55710989D01*
X34844286Y55705286D01*
X34847657Y55699717D01*
X34851322Y55694280D01*
X34855280Y55688977D01*
X34859533Y55683807D01*
X34864079Y55678770D01*
X34868825Y55673945D01*
X34873676Y55669433D01*
X34878633Y55665233D01*
X34883696Y55661345D01*
X34888865Y55657769D01*
X34894140Y55654505D01*
X34899522Y55651552D01*
X34905010Y55648911D01*
X34910605Y55646582D01*
X34916307Y55644563D01*
X34922115Y55642855D01*
X34928031Y55641459D01*
X34934054Y55640373D01*
X34940184Y55639597D01*
X34946422Y55639132D01*
X34952768Y55638977D01*
X34959383Y55639132D01*
X34965874Y55639597D01*
X34972242Y55640373D01*
X34978485Y55641459D01*
X34984604Y55642855D01*
X34990599Y55644563D01*
X34996470Y55646582D01*
X35002218Y55648911D01*
X35007841Y55651552D01*
X35013340Y55654505D01*
X35018715Y55657769D01*
X35023966Y55661345D01*
X35029093Y55665233D01*
X35034096Y55669433D01*
X35038975Y55673945D01*
X35043730Y55678770D01*
X35048411Y55683942D01*
X35052789Y55689220D01*
X35056865Y55694604D01*
X35060638Y55700094D01*
X35064109Y55705689D01*
X35067278Y55711391D01*
X35070145Y55717199D01*
X35072709Y55723114D01*
X35074972Y55729135D01*
X35076933Y55735264D01*
X35078591Y55741499D01*
X35079949Y55747841D01*
X35081004Y55754290D01*
X35081758Y55760847D01*
X35082210Y55767512D01*
X35082361Y55774284D01*
X35082361Y55775395D01*
X35083471Y56654182D01*
X35265397Y56733769D01*
X35264287Y55775395D01*
X35264433Y55768349D01*
X35264872Y55761437D01*
X35265604Y55754661D01*
X35266629Y55748019D01*
X35267947Y55741512D01*
X35269558Y55735139D01*
X35271462Y55728901D01*
X35273659Y55722796D01*
X35276150Y55716826D01*
X35278934Y55710989D01*
X35282012Y55705286D01*
X35285384Y55699717D01*
X35289049Y55694280D01*
X35293007Y55688977D01*
X35297260Y55683807D01*
X35301806Y55678770D01*
X35306552Y55673945D01*
X35311403Y55669433D01*
X35316360Y55665233D01*
X35321423Y55661345D01*
X35326592Y55657769D01*
X35331867Y55654505D01*
X35337249Y55651552D01*
X35342737Y55648911D01*
X35348331Y55646582D01*
X35354033Y55644563D01*
X35359841Y55642855D01*
X35365757Y55641459D01*
X35371780Y55640373D01*
X35377910Y55639597D01*
X35384148Y55639132D01*
X35390494Y55638977D01*
X35396978Y55639132D01*
X35403355Y55639597D01*
X35409625Y55640373D01*
X35415787Y55641459D01*
X35421842Y55642855D01*
X35427791Y55644563D01*
X35433633Y55646582D01*
X35439369Y55648911D01*
X35444998Y55651552D01*
X35450522Y55654505D01*
X35455941Y55657769D01*
X35461254Y55661345D01*
X35466462Y55665233D01*
X35471565Y55669433D01*
X35476563Y55673945D01*
X35481457Y55678770D01*
X35486138Y55683808D01*
X35490516Y55688978D01*
X35494592Y55694281D01*
X35498365Y55699717D01*
X35501836Y55705287D01*
X35505005Y55710990D01*
X35507871Y55716827D01*
X35510436Y55722797D01*
X35512698Y55728902D01*
X35514659Y55735140D01*
X35516318Y55741513D01*
X35517675Y55748020D01*
X35518730Y55754661D01*
X35519484Y55761438D01*
X35519936Y55768349D01*
X35520086Y55775395D01*
X35521197Y56654182D01*
X35703125Y56733769D01*
X35703125Y55769681D01*
G37*
G36*
X64261999Y5588000D02*
G01*
X63934975Y5588000D01*
X63934975Y5915025D01*
X64261999Y5915025D01*
X64261999Y5588000D01*
G37*
G36*
X62991999Y4953001D02*
G01*
X62664975Y4953001D01*
X62664975Y5280025D01*
X62991999Y5280025D01*
X62991999Y4953001D01*
G37*
G36*
X58864500Y7175500D02*
G01*
X58537475Y7175500D01*
X58537475Y7502525D01*
X58864500Y7502525D01*
X58864500Y7175500D01*
G37*
G36*
X56642000Y5270501D02*
G01*
X56314975Y5270501D01*
X56314975Y5597525D01*
X56642000Y5597525D01*
X56642000Y5270501D01*
G37*
G36*
X59817000Y2730501D02*
G01*
X59489975Y2730501D01*
X59489975Y3057525D01*
X59817000Y3057525D01*
X59817000Y2730501D01*
G37*
G36*
X62991999Y3683001D02*
G01*
X62664975Y3683001D01*
X62664975Y4010025D01*
X62991999Y4010025D01*
X62991999Y3683001D01*
G37*
G36*
X61404500Y2413001D02*
G01*
X61077475Y2413001D01*
X61077475Y2740026D01*
X61404500Y2740026D01*
X61404500Y2413001D01*
G37*
G36*
X61087000Y2413001D02*
G01*
X60759975Y2413001D01*
X60759975Y2740026D01*
X61087000Y2740026D01*
X61087000Y2413001D01*
G37*
G36*
X64579499Y6223000D02*
G01*
X64252475Y6223000D01*
X64252475Y6550025D01*
X64579499Y6550025D01*
X64579499Y6223000D01*
G37*
G36*
X59182000Y4635501D02*
G01*
X58854975Y4635501D01*
X58854975Y4962526D01*
X59182000Y4962526D01*
X59182000Y4635501D01*
G37*
G36*
X57902475Y10042525D02*
G01*
X56949975Y10042525D01*
X56949975Y10995025D01*
X57902475Y10995025D01*
X57902475Y10042525D01*
G37*
G36*
X61404500Y9080500D02*
G01*
X61077475Y9080500D01*
X61077475Y9407525D01*
X61404500Y9407525D01*
X61404500Y9080500D01*
G37*
G36*
X62674499Y7175500D02*
G01*
X62347475Y7175500D01*
X62347475Y7502525D01*
X62674499Y7502525D01*
X62674499Y7175500D01*
G37*
G36*
X58547000Y8128000D02*
G01*
X58219975Y8128000D01*
X58219975Y8455025D01*
X58547000Y8455025D01*
X58547000Y8128000D01*
G37*
G36*
X62991999Y9398000D02*
G01*
X62664975Y9398000D01*
X62664975Y9725025D01*
X62991999Y9725025D01*
X62991999Y9398000D01*
G37*
D11*
X28718986Y56769000D02*
X28740559Y56767534D01*
X28761731Y56765091D01*
X28782501Y56761671D01*
X28802870Y56757274D01*
X28822839Y56751900D01*
X28842408Y56745549D01*
X28861576Y56738221D01*
X28880344Y56729917D01*
X28898713Y56720636D01*
X28916681Y56710379D01*
X28934251Y56699145D01*
X28951422Y56686935D01*
X28968193Y56673748D01*
X28984567Y56659585D01*
X29000541Y56644446D01*
X29015824Y56628606D01*
X29030121Y56612359D01*
X29043432Y56595704D01*
X29055757Y56578642D01*
X29067096Y56561172D01*
X29077449Y56543294D01*
X29086816Y56525008D01*
X29095197Y56506314D01*
X29102592Y56487210D01*
X29109000Y56467698D01*
X29114423Y56447777D01*
X29118860Y56427447D01*
X29122311Y56406707D01*
X29124776Y56385557D01*
X29126255Y56363997D01*
X29126748Y56342027D01*
X29126748Y55575793D01*
X28944822Y55496206D01*
X28944822Y56338641D01*
X28944268Y56351715D01*
X28943182Y56364505D01*
X28941564Y56377011D01*
X28939414Y56389233D01*
X28936731Y56401170D01*
X28933515Y56412824D01*
X28929768Y56424194D01*
X28925487Y56435280D01*
X28920674Y56446082D01*
X28915328Y56456599D01*
X28909450Y56466833D01*
X28903038Y56476783D01*
X28896093Y56486449D01*
X28888616Y56495830D01*
X28880605Y56504928D01*
X28872061Y56513742D01*
X28862861Y56522412D01*
X28853458Y56530525D01*
X28843851Y56538078D01*
X28834040Y56545074D01*
X28824026Y56551510D01*
X28813807Y56557388D01*
X28803385Y56562706D01*
X28792759Y56567466D01*
X28781929Y56571666D01*
X28770895Y56575306D01*
X28759657Y56578387D01*
X28748215Y56580908D01*
X28736568Y56582869D01*
X28724716Y56584270D01*
X28712661Y56585111D01*
X28700400Y56585391D01*
X28687722Y56585106D01*
X28675266Y56584253D01*
X28663031Y56582830D01*
X28651019Y56580838D01*
X28639229Y56578278D01*
X28627661Y56575150D01*
X28616315Y56571453D01*
X28605190Y56567188D01*
X28594288Y56562354D01*
X28583608Y56556953D01*
X28573150Y56550985D01*
X28562914Y56544448D01*
X28552899Y56537345D01*
X28543107Y56529674D01*
X28533537Y56521436D01*
X28524189Y56512631D01*
X28515375Y56503696D01*
X28507130Y56494531D01*
X28499455Y56485136D01*
X28492349Y56475512D01*
X28485811Y56465659D01*
X28479843Y56455575D01*
X28474443Y56445261D01*
X28469612Y56434718D01*
X28465349Y56423944D01*
X28461655Y56412940D01*
X28458530Y56401706D01*
X28455973Y56390242D01*
X28453984Y56378547D01*
X28452564Y56366622D01*
X28451712Y56354467D01*
X28451428Y56342080D01*
X28451428Y56338695D01*
X28451428Y55575847D01*
X28269551Y55496206D01*
X28269551Y56342027D01*
X28270040Y56363989D01*
X28271506Y56385542D01*
X28273949Y56406688D01*
X28277369Y56427425D01*
X28281766Y56447755D01*
X28287140Y56467676D01*
X28293491Y56487189D01*
X28300818Y56506295D01*
X28309123Y56524992D01*
X28318403Y56543281D01*
X28328661Y56561162D01*
X28339895Y56578635D01*
X28352105Y56595700D01*
X28365292Y56612357D01*
X28379455Y56628606D01*
X28394594Y56644446D01*
X28410425Y56659585D01*
X28426666Y56673748D01*
X28443316Y56686935D01*
X28460376Y56699145D01*
X28477845Y56710379D01*
X28495723Y56720636D01*
X28514010Y56729917D01*
X28532706Y56738221D01*
X28551812Y56745549D01*
X28571327Y56751900D01*
X28591252Y56757274D01*
X28611585Y56761671D01*
X28632328Y56765091D01*
X28653480Y56767534D01*
X28675041Y56769000D01*
X28697012Y56769488D01*
X28718986Y56769000D01*
D10*
G36*
X59499500Y2730501D02*
G01*
X59172475Y2730501D01*
X59172475Y3057525D01*
X59499500Y3057525D01*
X59499500Y2730501D01*
G37*
G36*
X59182000Y7493000D02*
G01*
X58854975Y7493000D01*
X58854975Y7820025D01*
X59182000Y7820025D01*
X59182000Y7493000D01*
G37*
G36*
X56642000Y7810500D02*
G01*
X56314975Y7810500D01*
X56314975Y8137525D01*
X56642000Y8137525D01*
X56642000Y7810500D01*
G37*
G36*
X56642000Y6223000D02*
G01*
X56314975Y6223000D01*
X56314975Y6550025D01*
X56642000Y6550025D01*
X56642000Y6223000D01*
G37*
G36*
X61404500Y7175500D02*
G01*
X61077475Y7175500D01*
X61077475Y7502525D01*
X61404500Y7502525D01*
X61404500Y7175500D01*
G37*
G36*
X63627000Y5905500D02*
G01*
X63299975Y5905500D01*
X63299975Y6232525D01*
X63627000Y6232525D01*
X63627000Y5905500D01*
G37*
G36*
X63627000Y5270501D02*
G01*
X63299975Y5270501D01*
X63299975Y5597525D01*
X63627000Y5597525D01*
X63627000Y5270501D01*
G37*
G36*
X61404500Y5905500D02*
G01*
X61077475Y5905500D01*
X61077475Y6232525D01*
X61404500Y6232525D01*
X61404500Y5905500D01*
G37*
G36*
X64896999Y3683001D02*
G01*
X64569974Y3683001D01*
X64569974Y4010025D01*
X64896999Y4010025D01*
X64896999Y3683001D01*
G37*
G36*
X60452000Y6858000D02*
G01*
X60124975Y6858000D01*
X60124975Y7185025D01*
X60452000Y7185025D01*
X60452000Y6858000D01*
G37*
G36*
X65214499Y4953001D02*
G01*
X64887475Y4953001D01*
X64887475Y5280025D01*
X65214499Y5280025D01*
X65214499Y4953001D01*
G37*
G36*
X62039500Y3048001D02*
G01*
X61712475Y3048001D01*
X61712475Y3375026D01*
X62039500Y3375026D01*
X62039500Y3048001D01*
G37*
G36*
X63309499Y3683001D02*
G01*
X62982474Y3683001D01*
X62982474Y4010025D01*
X63309499Y4010025D01*
X63309499Y3683001D01*
G37*
G36*
X62357000Y3683001D02*
G01*
X62029975Y3683001D01*
X62029975Y4010025D01*
X62357000Y4010025D01*
X62357000Y3683001D01*
G37*
G36*
X63309499Y3048001D02*
G01*
X62982474Y3048001D01*
X62982474Y3375026D01*
X63309499Y3375026D01*
X63309499Y3048001D01*
G37*
G36*
X62357000Y7175500D02*
G01*
X62029975Y7175500D01*
X62029975Y7502525D01*
X62357000Y7502525D01*
X62357000Y7175500D01*
G37*
G36*
X64261999Y2413001D02*
G01*
X63934975Y2413001D01*
X63934975Y2740026D01*
X64261999Y2740026D01*
X64261999Y2413001D01*
G37*
G36*
X62674499Y4318000D02*
G01*
X62347475Y4318000D01*
X62347475Y4645025D01*
X62674499Y4645025D01*
X62674499Y4318000D01*
G37*
G36*
X56959500Y8128000D02*
G01*
X56632475Y8128000D01*
X56632475Y8455025D01*
X56959500Y8455025D01*
X56959500Y8128000D01*
G37*
G36*
X64261999Y4000501D02*
G01*
X63934975Y4000501D01*
X63934975Y4327526D01*
X64261999Y4327526D01*
X64261999Y4000501D01*
G37*
G36*
X58229500Y7175500D02*
G01*
X57902475Y7175500D01*
X57902475Y7502525D01*
X58229500Y7502525D01*
X58229500Y7175500D01*
G37*
G36*
X59182000Y6540500D02*
G01*
X58854975Y6540500D01*
X58854975Y6867525D01*
X59182000Y6867525D01*
X59182000Y6540500D01*
G37*
G36*
X56959500Y6858000D02*
G01*
X56632475Y6858000D01*
X56632475Y7185025D01*
X56959500Y7185025D01*
X56959500Y6858000D01*
G37*
G36*
X62357000Y4318000D02*
G01*
X62029975Y4318000D01*
X62029975Y4645025D01*
X62357000Y4645025D01*
X62357000Y4318000D01*
G37*
G36*
X57594500Y7175500D02*
G01*
X57267475Y7175500D01*
X57267475Y7502525D01*
X57594500Y7502525D01*
X57594500Y7175500D01*
G37*
G36*
X60769500Y3048001D02*
G01*
X60442475Y3048001D01*
X60442475Y3375026D01*
X60769500Y3375026D01*
X60769500Y3048001D01*
G37*
G36*
X58229500Y6540500D02*
G01*
X57902475Y6540500D01*
X57902475Y6867525D01*
X58229500Y6867525D01*
X58229500Y6540500D01*
G37*
G36*
X60134500Y4318000D02*
G01*
X59807475Y4318000D01*
X59807475Y4645025D01*
X60134500Y4645025D01*
X60134500Y4318000D01*
G37*
G36*
X60134500Y8128000D02*
G01*
X59807475Y8128000D01*
X59807475Y8455025D01*
X60134500Y8455025D01*
X60134500Y8128000D01*
G37*
G36*
X63627000Y3048001D02*
G01*
X63299975Y3048001D01*
X63299975Y3375026D01*
X63627000Y3375026D01*
X63627000Y3048001D01*
G37*
G36*
X62991999Y9080500D02*
G01*
X62664975Y9080500D01*
X62664975Y9407525D01*
X62991999Y9407525D01*
X62991999Y9080500D01*
G37*
G36*
X61722000Y9715500D02*
G01*
X61394975Y9715500D01*
X61394975Y10042525D01*
X61722000Y10042525D01*
X61722000Y9715500D01*
G37*
G36*
X57277000Y8763000D02*
G01*
X56949975Y8763000D01*
X56949975Y9090025D01*
X57277000Y9090025D01*
X57277000Y8763000D01*
G37*
G36*
X61087000Y6858000D02*
G01*
X60759975Y6858000D01*
X60759975Y7185025D01*
X61087000Y7185025D01*
X61087000Y6858000D01*
G37*
G36*
X63944499Y8445500D02*
G01*
X63617474Y8445500D01*
X63617474Y8772525D01*
X63944499Y8772525D01*
X63944499Y8445500D01*
G37*
G36*
X65531999Y4953001D02*
G01*
X65204974Y4953001D01*
X65204974Y5280025D01*
X65531999Y5280025D01*
X65531999Y4953001D01*
G37*
G36*
X59817000Y3683001D02*
G01*
X59489975Y3683001D01*
X59489975Y4010025D01*
X59817000Y4010025D01*
X59817000Y3683001D01*
G37*
G36*
X64896999Y4635501D02*
G01*
X64569974Y4635501D01*
X64569974Y4962526D01*
X64896999Y4962526D01*
X64896999Y4635501D01*
G37*
G36*
X62674499Y6540500D02*
G01*
X62347475Y6540500D01*
X62347475Y6867525D01*
X62674499Y6867525D01*
X62674499Y6540500D01*
G37*
G36*
X56642000Y8445500D02*
G01*
X56314975Y8445500D01*
X56314975Y8772525D01*
X56642000Y8772525D01*
X56642000Y8445500D01*
G37*
G36*
X64579499Y3048001D02*
G01*
X64252475Y3048001D01*
X64252475Y3375026D01*
X64579499Y3375026D01*
X64579499Y3048001D01*
G37*
G36*
X62357000Y8445500D02*
G01*
X62029975Y8445500D01*
X62029975Y8772525D01*
X62357000Y8772525D01*
X62357000Y8445500D01*
G37*
G36*
X64261999Y5905500D02*
G01*
X63934975Y5905500D01*
X63934975Y6232525D01*
X64261999Y6232525D01*
X64261999Y5905500D01*
G37*
G36*
X62039500Y2413001D02*
G01*
X61712475Y2413001D01*
X61712475Y2740026D01*
X62039500Y2740026D01*
X62039500Y2413001D01*
G37*
G36*
X57912000Y8763000D02*
G01*
X57584975Y8763000D01*
X57584975Y9090025D01*
X57912000Y9090025D01*
X57912000Y8763000D01*
G37*
G36*
X59817000Y9080500D02*
G01*
X59489975Y9080500D01*
X59489975Y9407525D01*
X59817000Y9407525D01*
X59817000Y9080500D01*
G37*
G36*
X62674499Y3365501D02*
G01*
X62347475Y3365501D01*
X62347475Y3692525D01*
X62674499Y3692525D01*
X62674499Y3365501D01*
G37*
G36*
X64579499Y4318000D02*
G01*
X64252475Y4318000D01*
X64252475Y4645025D01*
X64579499Y4645025D01*
X64579499Y4318000D01*
G37*
G36*
X64896999Y5588000D02*
G01*
X64569974Y5588000D01*
X64569974Y5915025D01*
X64896999Y5915025D01*
X64896999Y5588000D01*
G37*
G36*
X60452000Y11303000D02*
G01*
X60124975Y11303000D01*
X60124975Y11630025D01*
X60452000Y11630025D01*
X60452000Y11303000D01*
G37*
G36*
X62674499Y6223000D02*
G01*
X62347475Y6223000D01*
X62347475Y6550025D01*
X62674499Y6550025D01*
X62674499Y6223000D01*
G37*
G36*
X62039500Y7493000D02*
G01*
X61712475Y7493000D01*
X61712475Y7820025D01*
X62039500Y7820025D01*
X62039500Y7493000D01*
G37*
G36*
X62039500Y5270501D02*
G01*
X61712475Y5270501D01*
X61712475Y5597525D01*
X62039500Y5597525D01*
X62039500Y5270501D01*
G37*
G36*
X65531999Y5905500D02*
G01*
X65204974Y5905500D01*
X65204974Y6232525D01*
X65531999Y6232525D01*
X65531999Y5905500D01*
G37*
G36*
X59499500Y3683001D02*
G01*
X59172475Y3683001D01*
X59172475Y4010025D01*
X59499500Y4010025D01*
X59499500Y3683001D01*
G37*
G36*
X62357000Y7493000D02*
G01*
X62029975Y7493000D01*
X62029975Y7820025D01*
X62357000Y7820025D01*
X62357000Y7493000D01*
G37*
G36*
X56959500Y6540500D02*
G01*
X56632475Y6540500D01*
X56632475Y6867525D01*
X56959500Y6867525D01*
X56959500Y6540500D01*
G37*
G36*
X64896999Y4318000D02*
G01*
X64569974Y4318000D01*
X64569974Y4645025D01*
X64896999Y4645025D01*
X64896999Y4318000D01*
G37*
G36*
X64896999Y6858000D02*
G01*
X64569974Y6858000D01*
X64569974Y7185025D01*
X64896999Y7185025D01*
X64896999Y6858000D01*
G37*
G36*
X63627000Y3683001D02*
G01*
X63299975Y3683001D01*
X63299975Y4010025D01*
X63627000Y4010025D01*
X63627000Y3683001D01*
G37*
G36*
X58229500Y7810500D02*
G01*
X57902475Y7810500D01*
X57902475Y8137525D01*
X58229500Y8137525D01*
X58229500Y7810500D01*
G37*
G36*
X62991999Y3365501D02*
G01*
X62664975Y3365501D01*
X62664975Y3692525D01*
X62991999Y3692525D01*
X62991999Y3365501D01*
G37*
G36*
X62357000Y4000501D02*
G01*
X62029975Y4000501D01*
X62029975Y4327526D01*
X62357000Y4327526D01*
X62357000Y4000501D01*
G37*
G36*
X58547000Y4953001D02*
G01*
X58219975Y4953001D01*
X58219975Y5280025D01*
X58547000Y5280025D01*
X58547000Y4953001D01*
G37*
G36*
X58229500Y5270501D02*
G01*
X57902475Y5270501D01*
X57902475Y5597525D01*
X58229500Y5597525D01*
X58229500Y5270501D01*
G37*
G36*
X57594500Y6540500D02*
G01*
X57267475Y6540500D01*
X57267475Y6867525D01*
X57594500Y6867525D01*
X57594500Y6540500D01*
G37*
G36*
X59499500Y7810500D02*
G01*
X59172475Y7810500D01*
X59172475Y8137525D01*
X59499500Y8137525D01*
X59499500Y7810500D01*
G37*
G36*
X64261999Y6540500D02*
G01*
X63934975Y6540500D01*
X63934975Y6867525D01*
X64261999Y6867525D01*
X64261999Y6540500D01*
G37*
G36*
X60769500Y7175500D02*
G01*
X60442475Y7175500D01*
X60442475Y7502525D01*
X60769500Y7502525D01*
X60769500Y7175500D01*
G37*
G36*
X57594500Y8128000D02*
G01*
X57267475Y8128000D01*
X57267475Y8455025D01*
X57594500Y8455025D01*
X57594500Y8128000D01*
G37*
G36*
X60769500Y4000501D02*
G01*
X60442475Y4000501D01*
X60442475Y4327526D01*
X60769500Y4327526D01*
X60769500Y4000501D01*
G37*
G36*
X62674499Y4000501D02*
G01*
X62347475Y4000501D01*
X62347475Y4327526D01*
X62674499Y4327526D01*
X62674499Y4000501D01*
G37*
G36*
X56642000Y8763000D02*
G01*
X56314975Y8763000D01*
X56314975Y9090025D01*
X56642000Y9090025D01*
X56642000Y8763000D01*
G37*
G36*
X27527234Y56769000D02*
G01*
X27548109Y56767534D01*
X27568692Y56765091D01*
X27588982Y56761671D01*
X27608981Y56757274D01*
X27628686Y56751900D01*
X27648099Y56745549D01*
X27667219Y56738221D01*
X27686045Y56729917D01*
X27704578Y56720636D01*
X27722817Y56710379D01*
X27740762Y56699145D01*
X27758413Y56686935D01*
X27775769Y56673748D01*
X27792831Y56659585D01*
X27809597Y56644446D01*
X27824880Y56629405D01*
X27839177Y56613850D01*
X27852488Y56597780D01*
X27864812Y56581195D01*
X27876151Y56564095D01*
X27886504Y56546481D01*
X27895871Y56528351D01*
X27904252Y56509708D01*
X27911647Y56490549D01*
X27918056Y56470876D01*
X27923479Y56450688D01*
X27927916Y56429985D01*
X27931367Y56408768D01*
X27933832Y56387035D01*
X27935311Y56364789D01*
X27935804Y56342027D01*
X27935804Y56235136D01*
X27260482Y55934887D01*
X27260761Y55921529D01*
X27261601Y55908441D01*
X27262999Y55895623D01*
X27264957Y55883075D01*
X27267475Y55870798D01*
X27270553Y55858791D01*
X27274190Y55847055D01*
X27278387Y55835589D01*
X27283144Y55824393D01*
X27288462Y55813468D01*
X27294339Y55802813D01*
X27300777Y55792428D01*
X27307775Y55782314D01*
X27315333Y55772471D01*
X27323452Y55762898D01*
X27332131Y55753595D01*
X27341218Y55744732D01*
X27350601Y55736440D01*
X27360278Y55728719D01*
X27370250Y55721569D01*
X27380516Y55714990D01*
X27391077Y55708982D01*
X27401932Y55703545D01*
X27413081Y55698680D01*
X27424524Y55694387D01*
X27436261Y55690666D01*
X27448291Y55687517D01*
X27460615Y55684940D01*
X27473232Y55682935D01*
X27486142Y55681503D01*
X27499346Y55680644D01*
X27512842Y55680357D01*
X27524689Y55680637D01*
X27536359Y55681476D01*
X27547852Y55682874D01*
X27559167Y55684833D01*
X27570305Y55687350D01*
X27581266Y55690428D01*
X27592049Y55694065D01*
X27602655Y55698263D01*
X27613083Y55703020D01*
X27623334Y55708337D01*
X27633408Y55714215D01*
X27643305Y55720653D01*
X27653024Y55727651D01*
X27662565Y55735209D01*
X27671930Y55743328D01*
X27681117Y55752008D01*
X27689661Y55760812D01*
X27697671Y55769903D01*
X27705149Y55779281D01*
X27712094Y55788943D01*
X27718505Y55798892D01*
X27724384Y55809126D01*
X27729730Y55819645D01*
X27734543Y55830449D01*
X27738823Y55841537D01*
X27742571Y55852910D01*
X27745786Y55864567D01*
X27748469Y55876509D01*
X27750619Y55888734D01*
X27752237Y55901242D01*
X27753323Y55914034D01*
X27753877Y55927109D01*
X27753877Y55943036D01*
X27935804Y56023733D01*
X27935804Y55923668D01*
X27935271Y55903818D01*
X27933673Y55884077D01*
X27931009Y55864443D01*
X27927280Y55844917D01*
X27922485Y55825499D01*
X27916624Y55806188D01*
X27909698Y55786984D01*
X27901705Y55767888D01*
X27892647Y55748899D01*
X27882522Y55730018D01*
X27871332Y55711243D01*
X27859075Y55692576D01*
X27845752Y55674015D01*
X27831363Y55655561D01*
X27815907Y55637214D01*
X27799384Y55618974D01*
X27784649Y55604105D01*
X27769433Y55590196D01*
X27753738Y55577246D01*
X27737562Y55565256D01*
X27720907Y55554226D01*
X27703773Y55544155D01*
X27686159Y55535044D01*
X27668065Y55526892D01*
X27649493Y55519699D01*
X27630441Y55513466D01*
X27610909Y55508192D01*
X27590899Y55503877D01*
X27570409Y55500521D01*
X27549441Y55498124D01*
X27527994Y55496686D01*
X27506067Y55496206D01*
X27484105Y55496694D01*
X27462550Y55498159D01*
X27441402Y55500599D01*
X27420662Y55504017D01*
X27400330Y55508411D01*
X27380405Y55513781D01*
X27360889Y55520129D01*
X27341781Y55527454D01*
X27323081Y55535756D01*
X27304791Y55545036D01*
X27286910Y55555293D01*
X27269438Y55566528D01*
X27252376Y55578741D01*
X27235723Y55591932D01*
X27219481Y55606101D01*
X27203649Y55621249D01*
X27188501Y55637081D01*
X27174332Y55653322D01*
X27161141Y55669972D01*
X27148928Y55687032D01*
X27137693Y55704501D01*
X27127436Y55722379D01*
X27118156Y55740666D01*
X27109854Y55759362D01*
X27102529Y55778468D01*
X27096182Y55797983D01*
X27090811Y55817907D01*
X27086417Y55838241D01*
X27083000Y55858984D01*
X27080559Y55880136D01*
X27079095Y55901697D01*
X27078607Y55923668D01*
X27078607Y56338641D01*
X27260430Y56338641D01*
X27260430Y56134012D01*
X27752714Y56352928D01*
X27751765Y56364764D01*
X27750345Y56376363D01*
X27748456Y56387722D01*
X27746096Y56398843D01*
X27743265Y56409725D01*
X27739964Y56420368D01*
X27736193Y56430771D01*
X27731951Y56440935D01*
X27727238Y56450858D01*
X27722055Y56460541D01*
X27716401Y56469984D01*
X27710276Y56479186D01*
X27703680Y56488148D01*
X27696612Y56496868D01*
X27689074Y56505347D01*
X27681065Y56513584D01*
X27671834Y56522273D01*
X27662317Y56530401D01*
X27652516Y56537969D01*
X27642429Y56544976D01*
X27632058Y56551423D01*
X27621402Y56557309D01*
X27610461Y56562635D01*
X27599235Y56567400D01*
X27587725Y56571604D01*
X27575930Y56575248D01*
X27563851Y56578331D01*
X27551487Y56580854D01*
X27538839Y56582816D01*
X27525907Y56584217D01*
X27512690Y56585058D01*
X27499190Y56585338D01*
X27487346Y56585059D01*
X27475690Y56584220D01*
X27464219Y56582821D01*
X27452934Y56580863D01*
X27441836Y56578345D01*
X27430925Y56575267D01*
X27420200Y56571630D01*
X27409661Y56567433D01*
X27399309Y56562675D01*
X27389144Y56557358D01*
X27379166Y56551480D01*
X27369374Y56545043D01*
X27359770Y56538045D01*
X27350353Y56530486D01*
X27341122Y56522368D01*
X27332079Y56513688D01*
X27323409Y56504618D01*
X27315297Y56495328D01*
X27307743Y56485816D01*
X27300748Y56476083D01*
X27294312Y56466130D01*
X27288434Y56455955D01*
X27283115Y56445559D01*
X27278356Y56434942D01*
X27274156Y56424103D01*
X27270515Y56413043D01*
X27267434Y56401761D01*
X27264913Y56390258D01*
X27262952Y56378533D01*
X27261551Y56366586D01*
X27260710Y56354418D01*
X27260430Y56342027D01*
X27260430Y56338641D01*
X27078607Y56338641D01*
X27078607Y56342027D01*
X27079095Y56363989D01*
X27080561Y56385542D01*
X27083004Y56406688D01*
X27086424Y56427425D01*
X27090821Y56447755D01*
X27096195Y56467676D01*
X27102546Y56487189D01*
X27109874Y56506295D01*
X27118178Y56524992D01*
X27127459Y56543281D01*
X27137716Y56561162D01*
X27148950Y56578635D01*
X27161160Y56595700D01*
X27174347Y56612357D01*
X27188510Y56628606D01*
X27203649Y56644446D01*
X27219481Y56659585D01*
X27235722Y56673748D01*
X27252372Y56686935D01*
X27269431Y56699145D01*
X27286900Y56710379D01*
X27304778Y56720636D01*
X27323065Y56729917D01*
X27341762Y56738221D01*
X27360868Y56745549D01*
X27380383Y56751900D01*
X27400307Y56757274D01*
X27420641Y56761671D01*
X27441383Y56765091D01*
X27462535Y56767534D01*
X27484097Y56769000D01*
X27506067Y56769488D01*
X27527234Y56769000D01*
G37*
G36*
X28718986Y56769000D02*
G01*
X28740559Y56767534D01*
X28761731Y56765091D01*
X28782501Y56761671D01*
X28802870Y56757274D01*
X28822839Y56751900D01*
X28842408Y56745549D01*
X28861576Y56738221D01*
X28880344Y56729917D01*
X28898713Y56720636D01*
X28916681Y56710379D01*
X28934251Y56699145D01*
X28951422Y56686935D01*
X28968193Y56673748D01*
X28984567Y56659585D01*
X29000541Y56644446D01*
X29015824Y56628606D01*
X29030121Y56612359D01*
X29043432Y56595704D01*
X29055757Y56578642D01*
X29067096Y56561172D01*
X29077449Y56543294D01*
X29086816Y56525008D01*
X29095197Y56506314D01*
X29102592Y56487210D01*
X29109000Y56467698D01*
X29114423Y56447777D01*
X29118860Y56427447D01*
X29122311Y56406707D01*
X29124776Y56385557D01*
X29126255Y56363997D01*
X29126748Y56342027D01*
X29126748Y55575793D01*
X28944822Y55496206D01*
X28944822Y56338641D01*
X28944268Y56351715D01*
X28943182Y56364505D01*
X28941564Y56377011D01*
X28939414Y56389233D01*
X28936731Y56401170D01*
X28933515Y56412824D01*
X28929768Y56424194D01*
X28925487Y56435280D01*
X28920674Y56446082D01*
X28915328Y56456599D01*
X28909450Y56466833D01*
X28903038Y56476783D01*
X28896093Y56486449D01*
X28888616Y56495830D01*
X28880605Y56504928D01*
X28872061Y56513742D01*
X28862861Y56522412D01*
X28853458Y56530525D01*
X28843851Y56538078D01*
X28834040Y56545074D01*
X28824026Y56551510D01*
X28813807Y56557388D01*
X28803385Y56562706D01*
X28792759Y56567466D01*
X28781929Y56571666D01*
X28770895Y56575306D01*
X28759657Y56578387D01*
X28748215Y56580908D01*
X28736568Y56582869D01*
X28724716Y56584270D01*
X28712661Y56585111D01*
X28700400Y56585391D01*
X28687722Y56585106D01*
X28675266Y56584253D01*
X28663031Y56582830D01*
X28651019Y56580838D01*
X28639229Y56578278D01*
X28627661Y56575150D01*
X28616315Y56571453D01*
X28605190Y56567188D01*
X28594288Y56562354D01*
X28583608Y56556953D01*
X28573150Y56550985D01*
X28562914Y56544448D01*
X28552899Y56537345D01*
X28543107Y56529674D01*
X28533537Y56521436D01*
X28524189Y56512631D01*
X28515375Y56503696D01*
X28507130Y56494531D01*
X28499455Y56485136D01*
X28492349Y56475512D01*
X28485811Y56465659D01*
X28479843Y56455575D01*
X28474443Y56445261D01*
X28469612Y56434718D01*
X28465349Y56423944D01*
X28461655Y56412940D01*
X28458530Y56401706D01*
X28455973Y56390242D01*
X28453984Y56378547D01*
X28452564Y56366622D01*
X28451712Y56354467D01*
X28451428Y56342080D01*
X28451428Y56338695D01*
X28451428Y55575847D01*
X28269551Y55496206D01*
X28269551Y56342027D01*
X28270040Y56363989D01*
X28271506Y56385542D01*
X28273949Y56406688D01*
X28277369Y56427425D01*
X28281766Y56447755D01*
X28287140Y56467676D01*
X28293491Y56487189D01*
X28300818Y56506295D01*
X28309123Y56524992D01*
X28318403Y56543281D01*
X28328661Y56561162D01*
X28339895Y56578635D01*
X28352105Y56595700D01*
X28365292Y56612357D01*
X28379455Y56628606D01*
X28394594Y56644446D01*
X28410425Y56659585D01*
X28426666Y56673748D01*
X28443316Y56686935D01*
X28460376Y56699145D01*
X28477845Y56710379D01*
X28495723Y56720636D01*
X28514010Y56729917D01*
X28532706Y56738221D01*
X28551812Y56745549D01*
X28571327Y56751900D01*
X28591252Y56757274D01*
X28611585Y56761671D01*
X28632328Y56765091D01*
X28653480Y56767534D01*
X28675041Y56769000D01*
X28697012Y56769488D01*
X28718986Y56769000D01*
G37*
G36*
X60134500Y10985500D02*
G01*
X59807475Y10985500D01*
X59807475Y11312525D01*
X60134500Y11312525D01*
X60134500Y10985500D01*
G37*
G36*
X57277000Y5588000D02*
G01*
X56949975Y5588000D01*
X56949975Y5915025D01*
X57277000Y5915025D01*
X57277000Y5588000D01*
G37*
G36*
X62357000Y2413001D02*
G01*
X62029975Y2413001D01*
X62029975Y2740026D01*
X62357000Y2740026D01*
X62357000Y2413001D01*
G37*
G36*
X64579499Y8763000D02*
G01*
X64252475Y8763000D01*
X64252475Y9090025D01*
X64579499Y9090025D01*
X64579499Y8763000D01*
G37*
G36*
X60134500Y6223000D02*
G01*
X59807475Y6223000D01*
X59807475Y6550025D01*
X60134500Y6550025D01*
X60134500Y6223000D01*
G37*
G36*
X65531999Y8445500D02*
G01*
X65204974Y8445500D01*
X65204974Y8772525D01*
X65531999Y8772525D01*
X65531999Y8445500D01*
G37*
G36*
X59499500Y3365501D02*
G01*
X59172475Y3365501D01*
X59172475Y3692525D01*
X59499500Y3692525D01*
X59499500Y3365501D01*
G37*
G36*
X60134500Y6858000D02*
G01*
X59807475Y6858000D01*
X59807475Y7185025D01*
X60134500Y7185025D01*
X60134500Y6858000D01*
G37*
G36*
X57594500Y6858000D02*
G01*
X57267475Y6858000D01*
X57267475Y7185025D01*
X57594500Y7185025D01*
X57594500Y6858000D01*
G37*
G36*
X63944499Y7175500D02*
G01*
X63617474Y7175500D01*
X63617474Y7502525D01*
X63944499Y7502525D01*
X63944499Y7175500D01*
G37*
G36*
X60452000Y4635501D02*
G01*
X60124975Y4635501D01*
X60124975Y4962526D01*
X60452000Y4962526D01*
X60452000Y4635501D01*
G37*
G36*
X64896999Y5905500D02*
G01*
X64569974Y5905500D01*
X64569974Y6232525D01*
X64896999Y6232525D01*
X64896999Y5905500D01*
G37*
G36*
X30396589Y56657622D02*
G01*
X30410068Y56666840D01*
X30423797Y56675464D01*
X30437775Y56683494D01*
X30452003Y56690929D01*
X30466479Y56697770D01*
X30481205Y56704017D01*
X30496180Y56709669D01*
X30511405Y56714726D01*
X30526879Y56719189D01*
X30542602Y56723056D01*
X30558574Y56726329D01*
X30574795Y56729007D01*
X30591266Y56731090D01*
X30607986Y56732578D01*
X30624956Y56733471D01*
X30642174Y56733769D01*
X30664140Y56733280D01*
X30685707Y56731814D01*
X30706874Y56729371D01*
X30727642Y56725951D01*
X30748010Y56721554D01*
X30767979Y56716180D01*
X30787549Y56709829D01*
X30806719Y56702502D01*
X30825490Y56694197D01*
X30843861Y56684916D01*
X30861833Y56674659D01*
X30879406Y56663425D01*
X30896580Y56651215D01*
X30913354Y56638028D01*
X30929728Y56623865D01*
X30945704Y56608726D01*
X30960986Y56592886D01*
X30975283Y56576639D01*
X30988594Y56559984D01*
X31000919Y56542922D01*
X31012258Y56525452D01*
X31022611Y56507574D01*
X31031978Y56489288D01*
X31040359Y56470594D01*
X31047754Y56451491D01*
X31054163Y56431979D01*
X31059586Y56412058D01*
X31064023Y56391727D01*
X31067474Y56370987D01*
X31069939Y56349838D01*
X31071418Y56328278D01*
X31071911Y56306308D01*
X31071911Y55540074D01*
X30889984Y55460487D01*
X30889984Y56302922D01*
X30889430Y56315996D01*
X30888344Y56328786D01*
X30886726Y56341291D01*
X30884576Y56353513D01*
X30881893Y56365451D01*
X30878678Y56377105D01*
X30874930Y56388475D01*
X30870649Y56399560D01*
X30865836Y56410362D01*
X30860491Y56420880D01*
X30854612Y56431114D01*
X30848200Y56441064D01*
X30841256Y56450729D01*
X30833778Y56460111D01*
X30825767Y56469209D01*
X30817223Y56478023D01*
X30808023Y56486693D01*
X30798620Y56494805D01*
X30789013Y56502359D01*
X30779202Y56509354D01*
X30769188Y56515791D01*
X30758970Y56521668D01*
X30748548Y56526987D01*
X30737922Y56531746D01*
X30727092Y56535946D01*
X30716058Y56539587D01*
X30704819Y56542668D01*
X30693377Y56545189D01*
X30681730Y56547150D01*
X30669879Y56548551D01*
X30657823Y56549391D01*
X30645562Y56549672D01*
X30632480Y56549392D01*
X30619664Y56548553D01*
X30607114Y56547154D01*
X30594831Y56545196D01*
X30582814Y56542678D01*
X30571064Y56539601D01*
X30559579Y56535963D01*
X30548361Y56531766D01*
X30537409Y56527009D01*
X30526722Y56521692D01*
X30516302Y56515814D01*
X30506147Y56509377D01*
X30496259Y56502379D01*
X30486636Y56494821D01*
X30477278Y56486702D01*
X30468186Y56478023D01*
X30459646Y56469096D01*
X30451649Y56459959D01*
X30444193Y56450610D01*
X30437279Y56441050D01*
X30430906Y56431279D01*
X30425076Y56421295D01*
X30419786Y56411099D01*
X30415038Y56400691D01*
X30410832Y56390070D01*
X30407167Y56379236D01*
X30404042Y56368188D01*
X30401459Y56356928D01*
X30399417Y56345454D01*
X30397916Y56333766D01*
X30396956Y56321864D01*
X30396537Y56309747D01*
X30396537Y56302922D01*
X30396537Y55540074D01*
X30214662Y55460489D01*
X30214662Y57098736D01*
X30396589Y57178322D01*
X30396589Y56657622D01*
G37*
G36*
X64896999Y6223000D02*
G01*
X64569974Y6223000D01*
X64569974Y6550025D01*
X64896999Y6550025D01*
X64896999Y6223000D01*
G37*
G36*
X64579499Y4635501D02*
G01*
X64252475Y4635501D01*
X64252475Y4962526D01*
X64579499Y4962526D01*
X64579499Y4635501D01*
G37*
G36*
X63944499Y4953001D02*
G01*
X63617474Y4953001D01*
X63617474Y5280025D01*
X63944499Y5280025D01*
X63944499Y4953001D01*
G37*
G36*
X60134500Y10350500D02*
G01*
X59807475Y10350500D01*
X59807475Y10677525D01*
X60134500Y10677525D01*
X60134500Y10350500D01*
G37*
G36*
X59817000Y11303000D02*
G01*
X59489975Y11303000D01*
X59489975Y11630025D01*
X59817000Y11630025D01*
X59817000Y11303000D01*
G37*
G36*
X59182000Y3048001D02*
G01*
X58854975Y3048001D01*
X58854975Y3375026D01*
X59182000Y3375026D01*
X59182000Y3048001D01*
G37*
G36*
X58547000Y6223000D02*
G01*
X58219975Y6223000D01*
X58219975Y6550025D01*
X58547000Y6550025D01*
X58547000Y6223000D01*
G37*
G36*
X61722000Y4635501D02*
G01*
X61394975Y4635501D01*
X61394975Y4962526D01*
X61722000Y4962526D01*
X61722000Y4635501D01*
G37*
G36*
X64896999Y4953001D02*
G01*
X64569974Y4953001D01*
X64569974Y5280025D01*
X64896999Y5280025D01*
X64896999Y4953001D01*
G37*
G36*
X65531999Y7175500D02*
G01*
X65204974Y7175500D01*
X65204974Y7502525D01*
X65531999Y7502525D01*
X65531999Y7175500D01*
G37*
G36*
X61087000Y6223000D02*
G01*
X60759975Y6223000D01*
X60759975Y6550025D01*
X61087000Y6550025D01*
X61087000Y6223000D01*
G37*
G36*
X58229500Y6858000D02*
G01*
X57902475Y6858000D01*
X57902475Y7185025D01*
X58229500Y7185025D01*
X58229500Y6858000D01*
G37*
G36*
X60134500Y4000501D02*
G01*
X59807475Y4000501D01*
X59807475Y4327526D01*
X60134500Y4327526D01*
X60134500Y4000501D01*
G37*
G36*
X32522155Y66653198D02*
G01*
X32524896Y66652994D01*
X32527625Y66652658D01*
X32530336Y66652194D01*
X32533026Y66651604D01*
X32535691Y66650893D01*
X32538326Y66650064D01*
X32540928Y66649119D01*
X32543491Y66648063D01*
X32546013Y66646899D01*
X32548489Y66645630D01*
X32550915Y66644259D01*
X32553287Y66642790D01*
X32555601Y66641226D01*
X32557853Y66639571D01*
X32560038Y66637828D01*
X32562153Y66636001D01*
X32564194Y66634092D01*
X32566156Y66632105D01*
X32568035Y66630044D01*
X32569828Y66627911D01*
X32571529Y66625711D01*
X32573136Y66623446D01*
X32574644Y66621120D01*
X32576049Y66618736D01*
X32577347Y66616298D01*
X32578533Y66613810D01*
X32579604Y66611273D01*
X32580556Y66608692D01*
X32581384Y66606071D01*
X32582085Y66603412D01*
X32582654Y66600719D01*
X32603843Y66487278D01*
X32623375Y66382076D01*
X32810927Y65374053D01*
X32811501Y65371338D01*
X32812199Y65368614D01*
X32813951Y65363155D01*
X32816150Y65357712D01*
X32818766Y65352321D01*
X32821768Y65347017D01*
X32825126Y65341837D01*
X32828809Y65336815D01*
X32832785Y65331988D01*
X32837026Y65327391D01*
X32841498Y65323060D01*
X32846173Y65319030D01*
X32851019Y65315337D01*
X32856005Y65312017D01*
X32861101Y65309106D01*
X32863681Y65307814D01*
X32866277Y65306639D01*
X32868884Y65305583D01*
X32871500Y65304651D01*
X33693683Y64968126D01*
X33698807Y64965884D01*
X33704237Y64964011D01*
X33709925Y64962504D01*
X33715823Y64961360D01*
X33721885Y64960576D01*
X33728063Y64960149D01*
X33734310Y64960076D01*
X33740578Y64960353D01*
X33746820Y64960978D01*
X33752990Y64961947D01*
X33759039Y64963257D01*
X33764921Y64964905D01*
X33770588Y64966888D01*
X33775993Y64969203D01*
X33781088Y64971846D01*
X33785827Y64974815D01*
X34627113Y65552189D01*
X34715351Y65612762D01*
X34810492Y65678044D01*
X34812800Y65679546D01*
X34815178Y65680930D01*
X34817620Y65682198D01*
X34820120Y65683350D01*
X34822673Y65684386D01*
X34825274Y65685307D01*
X34827918Y65686113D01*
X34830599Y65686805D01*
X34833312Y65687384D01*
X34836052Y65687849D01*
X34841591Y65688442D01*
X34847174Y65688588D01*
X34852758Y65688292D01*
X34858302Y65687556D01*
X34863762Y65686386D01*
X34869097Y65684784D01*
X34871705Y65683823D01*
X34874265Y65682755D01*
X34876773Y65681581D01*
X34879223Y65680303D01*
X34881610Y65678919D01*
X34883928Y65677431D01*
X34886174Y65675839D01*
X34888340Y65674144D01*
X34890422Y65672346D01*
X34892415Y65670446D01*
X34974019Y65588896D01*
X35049736Y65513180D01*
X35286090Y65276719D01*
X35361752Y65201056D01*
X35598213Y64964594D01*
X35673878Y64888931D01*
X35755426Y64807382D01*
X35757326Y64805384D01*
X35759124Y64803298D01*
X35760818Y64801128D01*
X35762409Y64798879D01*
X35763896Y64796558D01*
X35765279Y64794169D01*
X35767728Y64789208D01*
X35769755Y64784040D01*
X35771354Y64778705D01*
X35772524Y64773245D01*
X35773259Y64767704D01*
X35773556Y64762123D01*
X35773412Y64756543D01*
X35772823Y64751007D01*
X35771786Y64745558D01*
X35770296Y64740236D01*
X35769381Y64737636D01*
X35768351Y64735084D01*
X35767207Y64732585D01*
X35765947Y64730144D01*
X35764571Y64727767D01*
X35763080Y64725458D01*
X35697743Y64630317D01*
X35637224Y64542025D01*
X35071995Y63718398D01*
X35069040Y63713643D01*
X35066416Y63708540D01*
X35064127Y63703135D01*
X35062176Y63697476D01*
X35060566Y63691608D01*
X35059301Y63685578D01*
X35058383Y63679434D01*
X35057815Y63673222D01*
X35057601Y63666989D01*
X35057744Y63660780D01*
X35058247Y63654645D01*
X35059113Y63648627D01*
X35060345Y63642776D01*
X35061946Y63637137D01*
X35063920Y63631756D01*
X35066270Y63626682D01*
X35429872Y62778600D01*
X35431929Y62773396D01*
X35434464Y62768239D01*
X35437442Y62763160D01*
X35440825Y62758190D01*
X35444579Y62753360D01*
X35448668Y62748699D01*
X35453054Y62744240D01*
X35457703Y62740013D01*
X35462579Y62736048D01*
X35467644Y62732377D01*
X35472865Y62729031D01*
X35478203Y62726039D01*
X35483624Y62723434D01*
X35489092Y62721245D01*
X35494570Y62719504D01*
X35500023Y62718241D01*
X36467218Y62538340D01*
X36572473Y62518808D01*
X36685914Y62497672D01*
X36688612Y62497094D01*
X36691275Y62496385D01*
X36693901Y62495550D01*
X36696486Y62494592D01*
X36699025Y62493516D01*
X36701518Y62492325D01*
X36703958Y62491024D01*
X36706345Y62489616D01*
X36708673Y62488106D01*
X36710940Y62486498D01*
X36715276Y62483001D01*
X36719326Y62479159D01*
X36723063Y62475004D01*
X36726460Y62470566D01*
X36729491Y62465880D01*
X36732128Y62460976D01*
X36733290Y62458452D01*
X36734344Y62455886D01*
X36735286Y62453282D01*
X36736112Y62450644D01*
X36736820Y62447975D01*
X36737406Y62445280D01*
X36737866Y62442562D01*
X36738198Y62439826D01*
X36738397Y62437076D01*
X36738461Y62434316D01*
X36738408Y62318948D01*
X36738408Y62211928D01*
X36738354Y61877491D01*
X36738354Y61770470D01*
X36738354Y61436139D01*
X36738354Y61329119D01*
X36738354Y61213804D01*
X36738286Y61211049D01*
X36738082Y61208302D01*
X36737746Y61205569D01*
X36737281Y61202854D01*
X36736692Y61200160D01*
X36735981Y61197492D01*
X36735151Y61194854D01*
X36734206Y61192250D01*
X36733150Y61189684D01*
X36731985Y61187159D01*
X36730715Y61184681D01*
X36729344Y61182253D01*
X36727874Y61179879D01*
X36726310Y61177563D01*
X36724654Y61175310D01*
X36722909Y61173123D01*
X36721080Y61171007D01*
X36719170Y61168966D01*
X36717181Y61167003D01*
X36715118Y61165123D01*
X36712983Y61163330D01*
X36710780Y61161627D01*
X36708513Y61160020D01*
X36706184Y61158512D01*
X36703798Y61157107D01*
X36701357Y61155809D01*
X36698865Y61154623D01*
X36696324Y61153552D01*
X36693740Y61152600D01*
X36691114Y61151772D01*
X36688451Y61151071D01*
X36685753Y61150503D01*
X36572418Y61129419D01*
X36467164Y61109781D01*
X35529025Y60935232D01*
X35526311Y60934666D01*
X35523589Y60933975D01*
X35520864Y60933163D01*
X35518141Y60932233D01*
X35512716Y60930037D01*
X35507348Y60927418D01*
X35502075Y60924408D01*
X35496930Y60921037D01*
X35491949Y60917337D01*
X35487167Y60913339D01*
X35482620Y60909075D01*
X35478342Y60904575D01*
X35474370Y60899872D01*
X35470738Y60894996D01*
X35467481Y60889978D01*
X35464635Y60884851D01*
X35463378Y60882255D01*
X35462236Y60879644D01*
X35461214Y60877021D01*
X35460318Y60874390D01*
X35099232Y59972264D01*
X35096992Y59967138D01*
X35095124Y59961707D01*
X35093624Y59956016D01*
X35092490Y59950115D01*
X35091718Y59944049D01*
X35091303Y59937867D01*
X35091243Y59931615D01*
X35091533Y59925342D01*
X35092170Y59919094D01*
X35093150Y59912920D01*
X35094469Y59906866D01*
X35096124Y59900981D01*
X35098111Y59895310D01*
X35100427Y59889903D01*
X35103067Y59884805D01*
X35106028Y59880066D01*
X35637275Y59105988D01*
X35697848Y59017804D01*
X35763186Y58922556D01*
X35764688Y58920247D01*
X35766072Y58917870D01*
X35767340Y58915428D01*
X35768492Y58912928D01*
X35769528Y58910375D01*
X35770449Y58907774D01*
X35771255Y58905130D01*
X35771947Y58902449D01*
X35772526Y58899736D01*
X35772992Y58896996D01*
X35773586Y58891457D01*
X35773734Y58885874D01*
X35773440Y58880290D01*
X35772707Y58874747D01*
X35771540Y58869286D01*
X35769942Y58863951D01*
X35768984Y58861343D01*
X35767919Y58858783D01*
X35766748Y58856275D01*
X35765473Y58853825D01*
X35764093Y58851438D01*
X35762608Y58849119D01*
X35761021Y58846874D01*
X35759330Y58844708D01*
X35757536Y58842625D01*
X35755641Y58840632D01*
X35673984Y58759083D01*
X35598320Y58683420D01*
X35361752Y58446959D01*
X35286090Y58371295D01*
X35049736Y58134888D01*
X34974019Y58059171D01*
X34892470Y57977621D01*
X34890477Y57975726D01*
X34888394Y57973932D01*
X34886228Y57972241D01*
X34883982Y57970654D01*
X34881664Y57969169D01*
X34879276Y57967789D01*
X34874318Y57965343D01*
X34869151Y57963319D01*
X34863815Y57961722D01*
X34858355Y57960555D01*
X34852811Y57959822D01*
X34847227Y57959528D01*
X34841644Y57959676D01*
X34836105Y57960270D01*
X34830652Y57961315D01*
X34825328Y57962814D01*
X34822726Y57963735D01*
X34820173Y57964771D01*
X34817673Y57965923D01*
X34815232Y57967191D01*
X34812854Y57968575D01*
X34810545Y57970076D01*
X34715351Y58035305D01*
X34627166Y58095826D01*
X33869891Y58615514D01*
X33865162Y58618455D01*
X33860095Y58621036D01*
X33854738Y58623255D01*
X33849135Y58625112D01*
X33843334Y58626605D01*
X33837381Y58627732D01*
X33831322Y58628493D01*
X33825204Y58628886D01*
X33819072Y58628909D01*
X33812974Y58628562D01*
X33806955Y58627842D01*
X33801062Y58626750D01*
X33795341Y58625282D01*
X33789838Y58623439D01*
X33784600Y58621218D01*
X33779674Y58618619D01*
X33622514Y58530112D01*
X33575265Y58505110D01*
X33549975Y58491946D01*
X33527694Y58480509D01*
X33364917Y58397140D01*
X33362442Y58395958D01*
X33359946Y58394919D01*
X33357433Y58394021D01*
X33354907Y58393263D01*
X33352374Y58392643D01*
X33349837Y58392159D01*
X33347300Y58391811D01*
X33344769Y58391595D01*
X33342246Y58391512D01*
X33339738Y58391558D01*
X33337247Y58391733D01*
X33334778Y58392035D01*
X33332336Y58392462D01*
X33329925Y58393012D01*
X33327549Y58393685D01*
X33325213Y58394478D01*
X33322920Y58395390D01*
X33320676Y58396419D01*
X33318484Y58397564D01*
X33316349Y58398823D01*
X33314276Y58400194D01*
X33312268Y58401676D01*
X33310330Y58403267D01*
X33308466Y58404966D01*
X33306680Y58406771D01*
X33304978Y58408680D01*
X33303362Y58410692D01*
X33301839Y58412805D01*
X33300411Y58415017D01*
X33299083Y58417328D01*
X33297860Y58419735D01*
X33296746Y58422236D01*
X33226754Y58591221D01*
X33185819Y58690107D01*
X32528876Y60277699D01*
X32487993Y60376478D01*
X32441440Y60488957D01*
X32440452Y60491527D01*
X32439595Y60494136D01*
X32438867Y60496780D01*
X32438267Y60499454D01*
X32437792Y60502152D01*
X32437442Y60504871D01*
X32437214Y60507604D01*
X32437107Y60510346D01*
X32437120Y60513094D01*
X32437250Y60515842D01*
X32437496Y60518585D01*
X32437856Y60521318D01*
X32438330Y60524036D01*
X32438914Y60526735D01*
X32439608Y60529408D01*
X32440410Y60532052D01*
X32441318Y60534661D01*
X32442331Y60537231D01*
X32443447Y60539756D01*
X32444664Y60542232D01*
X32445981Y60544653D01*
X32447397Y60547015D01*
X32448908Y60549312D01*
X32450515Y60551541D01*
X32452215Y60553695D01*
X32454007Y60555769D01*
X32455888Y60557760D01*
X32457858Y60559662D01*
X32459915Y60561469D01*
X32462057Y60563178D01*
X32464283Y60564783D01*
X32466590Y60566279D01*
X32570347Y60629796D01*
X32577846Y60634564D01*
X32585841Y60640001D01*
X32594183Y60645990D01*
X32602726Y60652410D01*
X32611321Y60659144D01*
X32619822Y60666073D01*
X32628080Y60673078D01*
X32635949Y60680041D01*
X32704664Y60727095D01*
X32770245Y60778179D01*
X32832512Y60833117D01*
X32891287Y60891731D01*
X32946390Y60953843D01*
X32997642Y61019276D01*
X33044864Y61087851D01*
X33087876Y61159391D01*
X33126499Y61233719D01*
X33160554Y61310656D01*
X33189861Y61390025D01*
X33214242Y61471649D01*
X33233517Y61555349D01*
X33247507Y61640947D01*
X33256032Y61728267D01*
X33258914Y61817131D01*
X33257158Y61886594D01*
X33251945Y61955145D01*
X33243361Y62022700D01*
X33231490Y62089173D01*
X33216417Y62154479D01*
X33198228Y62218535D01*
X33177006Y62281254D01*
X33152837Y62342553D01*
X33125805Y62402346D01*
X33095995Y62460549D01*
X33063493Y62517076D01*
X33028382Y62571844D01*
X32990748Y62624766D01*
X32950676Y62675759D01*
X32908250Y62724738D01*
X32863554Y62771617D01*
X32816675Y62816312D01*
X32767697Y62858738D01*
X32716704Y62898811D01*
X32663781Y62936445D01*
X32609014Y62971555D01*
X32552486Y63004058D01*
X32494283Y63033867D01*
X32434490Y63060899D01*
X32373192Y63085068D01*
X32310472Y63106290D01*
X32246417Y63124479D01*
X32181110Y63139552D01*
X32114637Y63151423D01*
X32047082Y63160007D01*
X31978531Y63165220D01*
X31909068Y63166976D01*
X31839610Y63165220D01*
X31771063Y63160007D01*
X31703513Y63151423D01*
X31637044Y63139552D01*
X31571741Y63124479D01*
X31507688Y63106290D01*
X31444972Y63085068D01*
X31383676Y63060899D01*
X31323886Y63033867D01*
X31265686Y63004058D01*
X31209160Y62971555D01*
X31154395Y62936445D01*
X31101474Y62898811D01*
X31050483Y62858738D01*
X31001506Y62816312D01*
X30954628Y62771617D01*
X30909934Y62724738D01*
X30867509Y62675759D01*
X30827437Y62624766D01*
X30789804Y62571844D01*
X30754694Y62517076D01*
X30722192Y62460549D01*
X30692383Y62402346D01*
X30665352Y62342553D01*
X30641183Y62281254D01*
X30619961Y62218535D01*
X30601772Y62154479D01*
X30586699Y62089173D01*
X30574829Y62022700D01*
X30566245Y61955145D01*
X30561032Y61886594D01*
X30559276Y61817131D01*
X30560000Y61772522D01*
X30562157Y61728276D01*
X30565724Y61684416D01*
X30570680Y61640963D01*
X30577002Y61597940D01*
X30584667Y61555368D01*
X30593654Y61513272D01*
X30603939Y61471671D01*
X30615500Y61430590D01*
X30628316Y61390049D01*
X30642363Y61350072D01*
X30657619Y61310680D01*
X30674062Y61271895D01*
X30691669Y61233741D01*
X30730287Y61159411D01*
X30773294Y61087868D01*
X30820511Y61019290D01*
X30871758Y60953854D01*
X30926857Y60891739D01*
X30985629Y60833122D01*
X31047894Y60778181D01*
X31113473Y60727095D01*
X31182187Y60680041D01*
X31190073Y60673076D01*
X31198344Y60666065D01*
X31206853Y60659130D01*
X31215450Y60652390D01*
X31223990Y60645966D01*
X31232325Y60639979D01*
X31240307Y60634549D01*
X31247790Y60629796D01*
X31351600Y60566279D01*
X31353912Y60564783D01*
X31356142Y60563178D01*
X31358288Y60561469D01*
X31360349Y60559662D01*
X31362323Y60557760D01*
X31364208Y60555769D01*
X31367705Y60551541D01*
X31370828Y60547015D01*
X31373563Y60542232D01*
X31375898Y60537231D01*
X31377820Y60532052D01*
X31379315Y60526735D01*
X31380371Y60521318D01*
X31380975Y60515842D01*
X31381113Y60510346D01*
X31380772Y60504871D01*
X31380419Y60502152D01*
X31379940Y60499454D01*
X31379336Y60496780D01*
X31378604Y60494136D01*
X31377742Y60491527D01*
X31376750Y60488957D01*
X31330250Y60376478D01*
X31289260Y60277699D01*
X30632317Y58690107D01*
X30591328Y58591221D01*
X30521444Y58422236D01*
X30520330Y58419735D01*
X30519107Y58417328D01*
X30517779Y58415017D01*
X30516351Y58412805D01*
X30514827Y58410692D01*
X30513212Y58408680D01*
X30511509Y58406771D01*
X30509724Y58404966D01*
X30507860Y58403267D01*
X30505922Y58401676D01*
X30503914Y58400194D01*
X30501840Y58398823D01*
X30499705Y58397564D01*
X30497514Y58396419D01*
X30495269Y58395390D01*
X30492977Y58394478D01*
X30490640Y58393685D01*
X30488264Y58393012D01*
X30485853Y58392462D01*
X30483411Y58392035D01*
X30480943Y58391733D01*
X30478452Y58391558D01*
X30475943Y58391512D01*
X30473421Y58391595D01*
X30470889Y58391811D01*
X30468352Y58392159D01*
X30465815Y58392643D01*
X30463282Y58393263D01*
X30460757Y58394021D01*
X30458244Y58394919D01*
X30455748Y58395958D01*
X30453273Y58397140D01*
X30290441Y58480509D01*
X30242937Y58505110D01*
X30195675Y58530112D01*
X30038461Y58618619D01*
X30033544Y58621218D01*
X30028314Y58623439D01*
X30022819Y58625282D01*
X30017104Y58626750D01*
X30011216Y58627842D01*
X30005202Y58628562D01*
X29999107Y58628909D01*
X29992978Y58628886D01*
X29986862Y58628493D01*
X29980805Y58627732D01*
X29974853Y58626605D01*
X29969053Y58625112D01*
X29963451Y58623255D01*
X29958093Y58621036D01*
X29953026Y58618455D01*
X29948297Y58615514D01*
X29191023Y58095826D01*
X29102784Y58035305D01*
X29007697Y57970076D01*
X29005388Y57968575D01*
X29003010Y57967191D01*
X29000569Y57965923D01*
X28998069Y57964771D01*
X28995516Y57963735D01*
X28992915Y57962814D01*
X28990271Y57962007D01*
X28987590Y57961315D01*
X28984877Y57960736D01*
X28982137Y57960270D01*
X28976598Y57959676D01*
X28971015Y57959528D01*
X28965431Y57959822D01*
X28959887Y57960555D01*
X28954427Y57961722D01*
X28949092Y57963319D01*
X28946484Y57964278D01*
X28943924Y57965343D01*
X28941416Y57966514D01*
X28938966Y57967789D01*
X28936579Y57969169D01*
X28934260Y57970654D01*
X28932015Y57972241D01*
X28929849Y57973932D01*
X28927766Y57975726D01*
X28925773Y57977621D01*
X28844117Y58059171D01*
X28768453Y58134888D01*
X28532100Y58371188D01*
X28456437Y58446851D01*
X28219867Y58683420D01*
X28144204Y58759083D01*
X28062602Y58840632D01*
X28060701Y58842630D01*
X28058904Y58844716D01*
X28057209Y58846886D01*
X28055619Y58849135D01*
X28054132Y58851456D01*
X28052750Y58853845D01*
X28050300Y58858806D01*
X28048275Y58863974D01*
X28046676Y58869309D01*
X28045509Y58874769D01*
X28044776Y58880310D01*
X28044482Y58885891D01*
X28044630Y58891471D01*
X28045223Y58897007D01*
X28046265Y58902456D01*
X28047761Y58907778D01*
X28048680Y58910378D01*
X28049714Y58912930D01*
X28050862Y58915429D01*
X28052126Y58917870D01*
X28053507Y58920247D01*
X28055003Y58922556D01*
X28120339Y59017804D01*
X28180913Y59105988D01*
X28712108Y59880066D01*
X28715077Y59884806D01*
X28717724Y59889905D01*
X28720044Y59895315D01*
X28722033Y59900988D01*
X28723690Y59906877D01*
X28725009Y59912934D01*
X28725987Y59919112D01*
X28726622Y59925362D01*
X28726909Y59931637D01*
X28726846Y59937890D01*
X28726428Y59944073D01*
X28725652Y59950137D01*
X28724515Y59956036D01*
X28723014Y59961722D01*
X28721144Y59967147D01*
X28718903Y59972264D01*
X28357817Y60874390D01*
X28356925Y60877021D01*
X28355908Y60879644D01*
X28353517Y60884851D01*
X28350679Y60889978D01*
X28347428Y60894996D01*
X28343800Y60899872D01*
X28339831Y60904575D01*
X28335555Y60909075D01*
X28331009Y60913339D01*
X28326226Y60917337D01*
X28321243Y60921037D01*
X28316095Y60924408D01*
X28310817Y60927418D01*
X28305444Y60930037D01*
X28300012Y60932233D01*
X28294555Y60933975D01*
X28291829Y60934666D01*
X28289110Y60935232D01*
X27351024Y61109781D01*
X27245770Y61129419D01*
X27132382Y61150502D01*
X27129684Y61151071D01*
X27127020Y61151771D01*
X27124394Y61152599D01*
X27121808Y61153551D01*
X27119267Y61154622D01*
X27116773Y61155809D01*
X27114331Y61157107D01*
X27111942Y61158512D01*
X27109612Y61160020D01*
X27107342Y61161627D01*
X27103001Y61165123D01*
X27098944Y61168966D01*
X27095200Y61173123D01*
X27091794Y61177563D01*
X27088756Y61182253D01*
X27086110Y61187159D01*
X27084943Y61189684D01*
X27083885Y61192250D01*
X27082938Y61194854D01*
X27082107Y61197492D01*
X27081395Y61200160D01*
X27080804Y61202854D01*
X27080339Y61205569D01*
X27080002Y61208302D01*
X27079798Y61211049D01*
X27079729Y61213804D01*
X27079729Y61329119D01*
X27079729Y61436139D01*
X27079729Y61770470D01*
X27079729Y61877491D01*
X27079729Y62211928D01*
X27079729Y62318948D01*
X27079675Y62434316D01*
X27079743Y62437076D01*
X27079947Y62439826D01*
X27080283Y62442562D01*
X27080747Y62445280D01*
X27081337Y62447975D01*
X27082048Y62450644D01*
X27082878Y62453282D01*
X27083823Y62455886D01*
X27084879Y62458452D01*
X27086044Y62460976D01*
X27087314Y62463453D01*
X27088685Y62465880D01*
X27090154Y62468252D01*
X27091719Y62470566D01*
X27093375Y62472818D01*
X27095119Y62475004D01*
X27096948Y62477119D01*
X27098859Y62479159D01*
X27100847Y62481121D01*
X27102911Y62483001D01*
X27105045Y62484795D01*
X27107248Y62486498D01*
X27109515Y62488106D01*
X27111844Y62489616D01*
X27114230Y62491024D01*
X27116671Y62492325D01*
X27119164Y62493516D01*
X27121704Y62494592D01*
X27124288Y62495550D01*
X27126914Y62496385D01*
X27129578Y62497094D01*
X27132276Y62497672D01*
X27245717Y62518808D01*
X27350970Y62538340D01*
X28318165Y62718241D01*
X28320886Y62718811D01*
X28323618Y62719504D01*
X28329096Y62721245D01*
X28334564Y62723434D01*
X28339986Y62726039D01*
X28345325Y62729031D01*
X28350547Y62732377D01*
X28355614Y62736048D01*
X28360492Y62740013D01*
X28365144Y62744240D01*
X28369534Y62748699D01*
X28373627Y62753360D01*
X28377386Y62758190D01*
X28380776Y62763160D01*
X28383761Y62768239D01*
X28386304Y62773396D01*
X28387399Y62775994D01*
X28388371Y62778600D01*
X28751919Y63626682D01*
X28754259Y63631756D01*
X28756227Y63637137D01*
X28757823Y63642776D01*
X28759053Y63648627D01*
X28759918Y63654644D01*
X28760421Y63660780D01*
X28760565Y63666988D01*
X28760353Y63673222D01*
X28759788Y63679434D01*
X28758873Y63685578D01*
X28757611Y63691608D01*
X28756004Y63697475D01*
X28754056Y63703135D01*
X28751770Y63708540D01*
X28749148Y63713643D01*
X28746193Y63718398D01*
X28180966Y64542025D01*
X28120446Y64630317D01*
X28055163Y64725458D01*
X28053662Y64727766D01*
X28052278Y64730144D01*
X28051010Y64732584D01*
X28049858Y64735084D01*
X28048822Y64737636D01*
X28047901Y64740236D01*
X28047095Y64742878D01*
X28046403Y64745557D01*
X28045824Y64748269D01*
X28045359Y64751007D01*
X28044766Y64756543D01*
X28044620Y64762123D01*
X28044916Y64767704D01*
X28045652Y64773245D01*
X28046823Y64778704D01*
X28048424Y64784039D01*
X28049386Y64786647D01*
X28050453Y64789208D01*
X28051627Y64791717D01*
X28052905Y64794169D01*
X28054289Y64796558D01*
X28055777Y64798879D01*
X28057369Y64801128D01*
X28059064Y64803298D01*
X28060862Y64805384D01*
X28062762Y64807382D01*
X28144312Y64888931D01*
X28219975Y64964594D01*
X28456383Y65201002D01*
X28532046Y65276665D01*
X28768507Y65513180D01*
X28844170Y65588896D01*
X28925773Y65670446D01*
X28927766Y65672346D01*
X28929849Y65674144D01*
X28932015Y65675839D01*
X28934260Y65677431D01*
X28936579Y65678919D01*
X28938966Y65680303D01*
X28943924Y65682755D01*
X28949092Y65684784D01*
X28954427Y65686386D01*
X28959887Y65687556D01*
X28965431Y65688292D01*
X28971015Y65688588D01*
X28976598Y65688442D01*
X28982137Y65687849D01*
X28987590Y65686805D01*
X28992915Y65685307D01*
X28995516Y65684386D01*
X28998069Y65683350D01*
X29000569Y65682198D01*
X29003010Y65680930D01*
X29005388Y65679546D01*
X29007697Y65678044D01*
X29102839Y65612762D01*
X29191076Y65552189D01*
X30032363Y64974815D01*
X30037102Y64971846D01*
X30042198Y64969203D01*
X30047603Y64966888D01*
X30053269Y64964905D01*
X30059151Y64963257D01*
X30065200Y64961947D01*
X30071370Y64960978D01*
X30077612Y64960353D01*
X30083881Y64960076D01*
X30090127Y64960149D01*
X30096305Y64960576D01*
X30102367Y64961360D01*
X30108265Y64962504D01*
X30113953Y64964011D01*
X30119383Y64965884D01*
X30124508Y64968126D01*
X30946689Y65304651D01*
X30951922Y65306639D01*
X30957105Y65309106D01*
X30962208Y65312017D01*
X30967200Y65315337D01*
X30972051Y65319030D01*
X30976728Y65323060D01*
X30981203Y65327391D01*
X30985444Y65331988D01*
X30989420Y65336815D01*
X30993101Y65341837D01*
X30996456Y65347017D01*
X30999454Y65352321D01*
X31002065Y65357712D01*
X31004257Y65363155D01*
X31006000Y65368614D01*
X31007264Y65374053D01*
X31194869Y66382076D01*
X31214400Y66487278D01*
X31235536Y66600666D01*
X31236105Y66603363D01*
X31236805Y66606027D01*
X31237632Y66608653D01*
X31238583Y66611237D01*
X31239653Y66613777D01*
X31240838Y66616270D01*
X31242135Y66618711D01*
X31243538Y66621097D01*
X31245044Y66623426D01*
X31246649Y66625693D01*
X31250140Y66630030D01*
X31253979Y66634082D01*
X31258131Y66637822D01*
X31262566Y66641222D01*
X31267251Y66644256D01*
X31272153Y66646897D01*
X31274675Y66648062D01*
X31277239Y66649118D01*
X31279842Y66650063D01*
X31282479Y66650893D01*
X31285145Y66651604D01*
X31287838Y66652193D01*
X31290552Y66652658D01*
X31293284Y66652994D01*
X31296030Y66653198D01*
X31298786Y66653266D01*
X31414099Y66653266D01*
X31521119Y66653266D01*
X31855558Y66653266D01*
X31962578Y66653266D01*
X32297017Y66653266D01*
X32404036Y66653266D01*
X32519404Y66653266D01*
X32522155Y66653198D01*
G37*
G36*
X63309499Y2730501D02*
G01*
X62982474Y2730501D01*
X62982474Y3057525D01*
X63309499Y3057525D01*
X63309499Y2730501D01*
G37*
G36*
X59182000Y10033000D02*
G01*
X58854975Y10033000D01*
X58854975Y10360025D01*
X59182000Y10360025D01*
X59182000Y10033000D01*
G37*
G36*
X61404500Y11303000D02*
G01*
X61077475Y11303000D01*
X61077475Y11630025D01*
X61404500Y11630025D01*
X61404500Y11303000D01*
G37*
G36*
X56642000Y7493000D02*
G01*
X56314975Y7493000D01*
X56314975Y7820025D01*
X56642000Y7820025D01*
X56642000Y7493000D01*
G37*
G36*
X65214499Y3683001D02*
G01*
X64887475Y3683001D01*
X64887475Y4010025D01*
X65214499Y4010025D01*
X65214499Y3683001D01*
G37*
G36*
X60134500Y5905500D02*
G01*
X59807475Y5905500D01*
X59807475Y6232525D01*
X60134500Y6232525D01*
X60134500Y5905500D01*
G37*
G36*
X64896999Y7493000D02*
G01*
X64569974Y7493000D01*
X64569974Y7820025D01*
X64896999Y7820025D01*
X64896999Y7493000D01*
G37*
G36*
X57277000Y4953001D02*
G01*
X56949975Y4953001D01*
X56949975Y5280025D01*
X57277000Y5280025D01*
X57277000Y4953001D01*
G37*
G36*
X60134500Y7493000D02*
G01*
X59807475Y7493000D01*
X59807475Y7820025D01*
X60134500Y7820025D01*
X60134500Y7493000D01*
G37*
G36*
X62991999Y10668000D02*
G01*
X62664975Y10668000D01*
X62664975Y10995025D01*
X62991999Y10995025D01*
X62991999Y10668000D01*
G37*
G36*
X61404500Y2730501D02*
G01*
X61077475Y2730501D01*
X61077475Y3057525D01*
X61404500Y3057525D01*
X61404500Y2730501D01*
G37*
G36*
X62991999Y4635501D02*
G01*
X62664975Y4635501D01*
X62664975Y4962526D01*
X62991999Y4962526D01*
X62991999Y4635501D01*
G37*
G36*
X64261999Y8128000D02*
G01*
X63934975Y8128000D01*
X63934975Y8455025D01*
X64261999Y8455025D01*
X64261999Y8128000D01*
G37*
G36*
X59817000Y6858000D02*
G01*
X59489975Y6858000D01*
X59489975Y7185025D01*
X59817000Y7185025D01*
X59817000Y6858000D01*
G37*
G36*
X62674499Y5905500D02*
G01*
X62347475Y5905500D01*
X62347475Y6232525D01*
X62674499Y6232525D01*
X62674499Y5905500D01*
G37*
G36*
X58547000Y8763000D02*
G01*
X58219975Y8763000D01*
X58219975Y9090025D01*
X58547000Y9090025D01*
X58547000Y8763000D01*
G37*
G36*
X59817000Y4953001D02*
G01*
X59489975Y4953001D01*
X59489975Y5280025D01*
X59817000Y5280025D01*
X59817000Y4953001D01*
G37*
G36*
X57594500Y5270501D02*
G01*
X57267475Y5270501D01*
X57267475Y5597525D01*
X57594500Y5597525D01*
X57594500Y5270501D01*
G37*
G36*
X59499500Y8128000D02*
G01*
X59172475Y8128000D01*
X59172475Y8455025D01*
X59499500Y8455025D01*
X59499500Y8128000D01*
G37*
G36*
X63627000Y5588000D02*
G01*
X63299975Y5588000D01*
X63299975Y5915025D01*
X63627000Y5915025D01*
X63627000Y5588000D01*
G37*
G36*
X61722000Y4953001D02*
G01*
X61394975Y4953001D01*
X61394975Y5280025D01*
X61722000Y5280025D01*
X61722000Y4953001D01*
G37*
G36*
X59182000Y9080500D02*
G01*
X58854975Y9080500D01*
X58854975Y9407525D01*
X59182000Y9407525D01*
X59182000Y9080500D01*
G37*
G36*
X62991999Y4000501D02*
G01*
X62664975Y4000501D01*
X62664975Y4327526D01*
X62991999Y4327526D01*
X62991999Y4000501D01*
G37*
G36*
X58229500Y8763000D02*
G01*
X57902475Y8763000D01*
X57902475Y9090025D01*
X58229500Y9090025D01*
X58229500Y8763000D01*
G37*
G36*
X60769500Y4318000D02*
G01*
X60442475Y4318000D01*
X60442475Y4645025D01*
X60769500Y4645025D01*
X60769500Y4318000D01*
G37*
G36*
X59499500Y10668000D02*
G01*
X59172475Y10668000D01*
X59172475Y10995025D01*
X59499500Y10995025D01*
X59499500Y10668000D01*
G37*
G36*
X63627000Y4953001D02*
G01*
X63299975Y4953001D01*
X63299975Y5280025D01*
X63627000Y5280025D01*
X63627000Y4953001D01*
G37*
G36*
X60769500Y6540500D02*
G01*
X60442475Y6540500D01*
X60442475Y6867525D01*
X60769500Y6867525D01*
X60769500Y6540500D01*
G37*
G36*
X62039500Y10350500D02*
G01*
X61712475Y10350500D01*
X61712475Y10677525D01*
X62039500Y10677525D01*
X62039500Y10350500D01*
G37*
G36*
X64261999Y7175500D02*
G01*
X63934975Y7175500D01*
X63934975Y7502525D01*
X64261999Y7502525D01*
X64261999Y7175500D01*
G37*
G36*
X57277000Y6858000D02*
G01*
X56949975Y6858000D01*
X56949975Y7185025D01*
X57277000Y7185025D01*
X57277000Y6858000D01*
G37*
G36*
X62357000Y9398000D02*
G01*
X62029975Y9398000D01*
X62029975Y9725025D01*
X62357000Y9725025D01*
X62357000Y9398000D01*
G37*
G36*
X62674499Y9080500D02*
G01*
X62347475Y9080500D01*
X62347475Y9407525D01*
X62674499Y9407525D01*
X62674499Y9080500D01*
G37*
G36*
X59182000Y6223000D02*
G01*
X58854975Y6223000D01*
X58854975Y6550025D01*
X59182000Y6550025D01*
X59182000Y6223000D01*
G37*
G36*
X59182000Y4000501D02*
G01*
X58854975Y4000501D01*
X58854975Y4327526D01*
X59182000Y4327526D01*
X59182000Y4000501D01*
G37*
G36*
X60452000Y10033000D02*
G01*
X60124975Y10033000D01*
X60124975Y10360025D01*
X60452000Y10360025D01*
X60452000Y10033000D01*
G37*
G36*
X37461210Y56733282D02*
G01*
X37483123Y56731816D01*
X37504583Y56729373D01*
X37525591Y56725953D01*
X37546146Y56721556D01*
X37566248Y56716182D01*
X37585898Y56709831D01*
X37605095Y56702503D01*
X37623839Y56694199D01*
X37642130Y56684918D01*
X37659969Y56674660D01*
X37677356Y56663427D01*
X37694289Y56651216D01*
X37710770Y56638030D01*
X37726798Y56623867D01*
X37742373Y56608728D01*
X37757656Y56592357D01*
X37771953Y56575648D01*
X37785264Y56558602D01*
X37797589Y56541219D01*
X37808927Y56523499D01*
X37819280Y56505441D01*
X37828647Y56487046D01*
X37837028Y56468313D01*
X37844423Y56449244D01*
X37850832Y56429836D01*
X37856255Y56410092D01*
X37860692Y56390010D01*
X37864143Y56369591D01*
X37866608Y56348834D01*
X37868087Y56327740D01*
X37868580Y56306309D01*
X37868580Y56301759D01*
X37686653Y56222172D01*
X37686653Y56302870D01*
X37686108Y56315944D01*
X37685028Y56328734D01*
X37683415Y56341240D01*
X37681267Y56353461D01*
X37678586Y56365399D01*
X37675370Y56377053D01*
X37671621Y56388423D01*
X37667339Y56399509D01*
X37662523Y56410310D01*
X37657174Y56420828D01*
X37651292Y56431062D01*
X37644878Y56441012D01*
X37637930Y56450677D01*
X37630450Y56460059D01*
X37622438Y56469157D01*
X37613893Y56477971D01*
X37604693Y56486641D01*
X37595289Y56494753D01*
X37585682Y56502307D01*
X37575872Y56509302D01*
X37565857Y56515739D01*
X37555639Y56521616D01*
X37545217Y56526935D01*
X37534591Y56531694D01*
X37523761Y56535894D01*
X37512727Y56539535D01*
X37501489Y56542616D01*
X37490046Y56545137D01*
X37478399Y56547098D01*
X37466548Y56548499D01*
X37454492Y56549340D01*
X37442232Y56549620D01*
X37429415Y56549340D01*
X37416839Y56548501D01*
X37404505Y56547102D01*
X37392412Y56545144D01*
X37380560Y56542626D01*
X37368949Y56539549D01*
X37357578Y56535912D01*
X37346447Y56531714D01*
X37335556Y56526957D01*
X37324905Y56521640D01*
X37314493Y56515762D01*
X37304321Y56509325D01*
X37294388Y56502327D01*
X37284693Y56494769D01*
X37275237Y56486650D01*
X37266020Y56477971D01*
X37257206Y56468901D01*
X37248962Y56459610D01*
X37241286Y56450098D01*
X37234180Y56440366D01*
X37227643Y56430412D01*
X37221674Y56420237D01*
X37216274Y56409841D01*
X37211443Y56399224D01*
X37207181Y56388385D01*
X37203487Y56377325D01*
X37200362Y56366043D01*
X37197805Y56354540D01*
X37195816Y56342815D01*
X37194396Y56330868D01*
X37193544Y56318700D01*
X37193260Y56306309D01*
X37193260Y56302923D01*
X37193260Y55540077D01*
X37011383Y55460489D01*
X37011383Y56306309D01*
X37011871Y56328271D01*
X37013337Y56349824D01*
X37015780Y56370970D01*
X37019200Y56391707D01*
X37023597Y56412036D01*
X37028971Y56431958D01*
X37035322Y56451471D01*
X37042650Y56470576D01*
X37050954Y56489273D01*
X37060235Y56507562D01*
X37070492Y56525443D01*
X37081726Y56542916D01*
X37093937Y56559981D01*
X37107123Y56576638D01*
X37121286Y56592887D01*
X37136426Y56608728D01*
X37152257Y56623867D01*
X37168498Y56638030D01*
X37185149Y56651216D01*
X37202208Y56663427D01*
X37219677Y56674660D01*
X37237555Y56684918D01*
X37255842Y56694199D01*
X37274539Y56702503D01*
X37293645Y56709831D01*
X37313160Y56716182D01*
X37333084Y56721556D01*
X37353417Y56725953D01*
X37374160Y56729373D01*
X37395312Y56731816D01*
X37416873Y56733282D01*
X37438844Y56733770D01*
X37461210Y56733282D01*
G37*
G36*
X63944499Y8763000D02*
G01*
X63617474Y8763000D01*
X63617474Y9090025D01*
X63944499Y9090025D01*
X63944499Y8763000D01*
G37*
G36*
X62039500Y2730501D02*
G01*
X61712475Y2730501D01*
X61712475Y3057525D01*
X62039500Y3057525D01*
X62039500Y2730501D01*
G37*
G36*
X59817000Y6223000D02*
G01*
X59489975Y6223000D01*
X59489975Y6550025D01*
X59817000Y6550025D01*
X59817000Y6223000D01*
G37*
G36*
X62991999Y3048001D02*
G01*
X62664975Y3048001D01*
X62664975Y3375026D01*
X62991999Y3375026D01*
X62991999Y3048001D01*
G37*
G36*
X61404500Y6223000D02*
G01*
X61077475Y6223000D01*
X61077475Y6550025D01*
X61404500Y6550025D01*
X61404500Y6223000D01*
G37*
G36*
X61722000Y9398000D02*
G01*
X61394975Y9398000D01*
X61394975Y9725025D01*
X61722000Y9725025D01*
X61722000Y9398000D01*
G37*
G36*
X63309499Y4953001D02*
G01*
X62982474Y4953001D01*
X62982474Y5280025D01*
X63309499Y5280025D01*
X63309499Y4953001D01*
G37*
G36*
X34470219Y55887948D02*
G01*
X34469726Y55865986D01*
X34468247Y55844431D01*
X34465782Y55823284D01*
X34462331Y55802543D01*
X34457894Y55782211D01*
X34452471Y55762286D01*
X34446062Y55742770D01*
X34438667Y55723662D01*
X34430286Y55704963D01*
X34420919Y55686672D01*
X34410566Y55668791D01*
X34399227Y55651319D01*
X34386902Y55634257D01*
X34373592Y55617604D01*
X34359295Y55601362D01*
X34344012Y55585530D01*
X34328037Y55570382D01*
X34311662Y55556213D01*
X34294888Y55543022D01*
X34277714Y55530809D01*
X34260141Y55519574D01*
X34242169Y55509317D01*
X34223797Y55500037D01*
X34205026Y55491735D01*
X34185856Y55484410D01*
X34166286Y55478062D01*
X34146317Y55472692D01*
X34125949Y55468298D01*
X34105182Y55464880D01*
X34084015Y55462440D01*
X34062448Y55460975D01*
X34040483Y55460487D01*
X34018521Y55460975D01*
X33996968Y55462439D01*
X33975823Y55464880D01*
X33955085Y55468297D01*
X33934756Y55472691D01*
X33914835Y55478062D01*
X33895321Y55484410D01*
X33876216Y55491735D01*
X33857519Y55500037D01*
X33839230Y55509317D01*
X33821349Y55519574D01*
X33803876Y55530809D01*
X33786811Y55543022D01*
X33770154Y55556213D01*
X33753905Y55570382D01*
X33738064Y55585530D01*
X33722925Y55601362D01*
X33708762Y55617603D01*
X33695576Y55634253D01*
X33683365Y55651312D01*
X33672131Y55668781D01*
X33661874Y55686659D01*
X33652593Y55704947D01*
X33644289Y55723643D01*
X33636961Y55742749D01*
X33630610Y55762264D01*
X33625236Y55782188D01*
X33620839Y55802522D01*
X33617419Y55823264D01*
X33614976Y55844416D01*
X33613510Y55865978D01*
X33613022Y55887948D01*
X33613022Y56302923D01*
X33794844Y56302923D01*
X33794844Y55891389D01*
X33794896Y55891389D01*
X33795194Y55878446D01*
X33796087Y55865769D01*
X33797575Y55853358D01*
X33799658Y55841215D01*
X33802336Y55829338D01*
X33805609Y55817728D01*
X33809477Y55806384D01*
X33813940Y55795307D01*
X33818997Y55784496D01*
X33824649Y55773952D01*
X33830896Y55763675D01*
X33837737Y55753665D01*
X33845172Y55743921D01*
X33853202Y55734443D01*
X33861826Y55725233D01*
X33871044Y55716288D01*
X33880801Y55707618D01*
X33890724Y55699506D01*
X33900814Y55691952D01*
X33911071Y55684957D01*
X33921495Y55678520D01*
X33932087Y55672643D01*
X33942846Y55667324D01*
X33953773Y55662565D01*
X33964868Y55658365D01*
X33976131Y55654724D01*
X33987562Y55651643D01*
X33999163Y55649122D01*
X34010932Y55647161D01*
X34022870Y55645760D01*
X34034978Y55644920D01*
X34047255Y55644639D01*
X34059103Y55644919D01*
X34070775Y55645758D01*
X34082270Y55647157D01*
X34093588Y55649115D01*
X34104729Y55651633D01*
X34115693Y55654710D01*
X34126480Y55658348D01*
X34137088Y55662545D01*
X34147519Y55667302D01*
X34157771Y55672619D01*
X34167845Y55678497D01*
X34177741Y55684934D01*
X34187457Y55691932D01*
X34196994Y55699490D01*
X34206352Y55707609D01*
X34215530Y55716288D01*
X34224083Y55725093D01*
X34232102Y55734185D01*
X34239587Y55743562D01*
X34246537Y55753225D01*
X34252952Y55763174D01*
X34258834Y55773408D01*
X34264182Y55783927D01*
X34268995Y55794731D01*
X34273275Y55805819D01*
X34277021Y55817192D01*
X34280233Y55828849D01*
X34282911Y55840790D01*
X34285056Y55853015D01*
X34286668Y55865523D01*
X34287746Y55878315D01*
X34288290Y55891389D01*
X34288290Y56302923D01*
X34287746Y56315997D01*
X34286668Y56328787D01*
X34285056Y56341293D01*
X34282911Y56353515D01*
X34280233Y56365453D01*
X34277021Y56377106D01*
X34273275Y56388476D01*
X34268995Y56399562D01*
X34264182Y56410364D01*
X34258834Y56420882D01*
X34252952Y56431115D01*
X34246537Y56441065D01*
X34239587Y56450731D01*
X34232102Y56460113D01*
X34224083Y56469210D01*
X34215530Y56478024D01*
X34206299Y56486695D01*
X34196783Y56494807D01*
X34186981Y56502361D01*
X34176895Y56509356D01*
X34166522Y56515792D01*
X34155865Y56521670D01*
X34144922Y56526988D01*
X34133695Y56531748D01*
X34122181Y56535948D01*
X34110383Y56539588D01*
X34098300Y56542669D01*
X34085931Y56545190D01*
X34073277Y56547151D01*
X34060337Y56548552D01*
X34047113Y56549393D01*
X34033603Y56549673D01*
X34021760Y56549394D01*
X34010103Y56548554D01*
X33998633Y56547156D01*
X33987348Y56545198D01*
X33976250Y56542680D01*
X33965338Y56539602D01*
X33954613Y56535965D01*
X33944075Y56531768D01*
X33933723Y56527011D01*
X33923558Y56521693D01*
X33913579Y56515816D01*
X33903788Y56509378D01*
X33894183Y56502380D01*
X33884766Y56494822D01*
X33875536Y56486703D01*
X33866493Y56478024D01*
X33857953Y56469098D01*
X33849956Y56459961D01*
X33842500Y56450613D01*
X33835585Y56441053D01*
X33829213Y56431281D01*
X33823382Y56421297D01*
X33818093Y56411101D01*
X33813345Y56400693D01*
X33809138Y56390072D01*
X33805473Y56379237D01*
X33802349Y56368190D01*
X33799766Y56356930D01*
X33797724Y56345455D01*
X33796223Y56333767D01*
X33795263Y56321865D01*
X33794844Y56309749D01*
X33794844Y56302923D01*
X33613022Y56302923D01*
X33613022Y56306308D01*
X33613098Y56309749D01*
X33613510Y56328269D01*
X33614976Y56349823D01*
X33617419Y56370968D01*
X33620839Y56391705D01*
X33625236Y56412035D01*
X33630610Y56431956D01*
X33636961Y56451469D01*
X33644289Y56470574D01*
X33652593Y56489272D01*
X33661874Y56507561D01*
X33672131Y56525442D01*
X33683365Y56542915D01*
X33695576Y56559980D01*
X33708762Y56576637D01*
X33722925Y56592885D01*
X33738064Y56608726D01*
X33753904Y56623865D01*
X33770152Y56638028D01*
X33786806Y56651215D01*
X33803868Y56663425D01*
X33821338Y56674659D01*
X33839216Y56684916D01*
X33857502Y56694197D01*
X33876196Y56702502D01*
X33895299Y56709829D01*
X33914811Y56716180D01*
X33934732Y56721554D01*
X33955063Y56725951D01*
X33975803Y56729371D01*
X33996953Y56731814D01*
X34018513Y56733280D01*
X34040483Y56733769D01*
X34057840Y56733467D01*
X34074949Y56732561D01*
X34091808Y56731051D01*
X34108419Y56728937D01*
X34124780Y56726219D01*
X34140892Y56722897D01*
X34156756Y56718971D01*
X34172371Y56714441D01*
X34187737Y56709307D01*
X34202854Y56703569D01*
X34217723Y56697227D01*
X34232344Y56690281D01*
X34246716Y56682732D01*
X34260840Y56674578D01*
X34274716Y56665820D01*
X34288344Y56656458D01*
X34288344Y57098682D01*
X34470219Y57178322D01*
X34470219Y55887948D01*
G37*
G36*
X62991999Y8445500D02*
G01*
X62664975Y8445500D01*
X62664975Y8772525D01*
X62991999Y8772525D01*
X62991999Y8445500D01*
G37*
G36*
X63309499Y6540500D02*
G01*
X62982474Y6540500D01*
X62982474Y6867525D01*
X63309499Y6867525D01*
X63309499Y6540500D01*
G37*
G36*
X59499500Y5588000D02*
G01*
X59172475Y5588000D01*
X59172475Y5915025D01*
X59499500Y5915025D01*
X59499500Y5588000D01*
G37*
G36*
X62039500Y4953001D02*
G01*
X61712475Y4953001D01*
X61712475Y5280025D01*
X62039500Y5280025D01*
X62039500Y4953001D01*
G37*
G36*
X58864500Y6223000D02*
G01*
X58537475Y6223000D01*
X58537475Y6550025D01*
X58864500Y6550025D01*
X58864500Y6223000D01*
G37*
G36*
X62674499Y2413001D02*
G01*
X62347475Y2413001D01*
X62347475Y2740026D01*
X62674499Y2740026D01*
X62674499Y2413001D01*
G37*
G36*
X56642000Y6858000D02*
G01*
X56314975Y6858000D01*
X56314975Y7185025D01*
X56642000Y7185025D01*
X56642000Y6858000D01*
G37*
G36*
X61722000Y10350500D02*
G01*
X61394975Y10350500D01*
X61394975Y10677525D01*
X61722000Y10677525D01*
X61722000Y10350500D01*
G37*
G36*
X57594500Y8445500D02*
G01*
X57267475Y8445500D01*
X57267475Y8772525D01*
X57594500Y8772525D01*
X57594500Y8445500D01*
G37*
G36*
X62991999Y6858000D02*
G01*
X62664975Y6858000D01*
X62664975Y7185025D01*
X62991999Y7185025D01*
X62991999Y6858000D01*
G37*
G36*
X56642000Y5588000D02*
G01*
X56314975Y5588000D01*
X56314975Y5915025D01*
X56642000Y5915025D01*
X56642000Y5588000D01*
G37*
G36*
X32930062Y56733282D02*
G01*
X32951975Y56731816D01*
X32973436Y56729373D01*
X32994443Y56725953D01*
X33014998Y56721556D01*
X33035101Y56716182D01*
X33054750Y56709831D01*
X33073947Y56702503D01*
X33092692Y56694199D01*
X33110983Y56684918D01*
X33128822Y56674660D01*
X33146208Y56663427D01*
X33163142Y56651216D01*
X33179623Y56638030D01*
X33195651Y56623867D01*
X33211226Y56608728D01*
X33226509Y56592357D01*
X33240806Y56575648D01*
X33254117Y56558602D01*
X33266441Y56541219D01*
X33277780Y56523499D01*
X33288133Y56505441D01*
X33297500Y56487046D01*
X33305881Y56468313D01*
X33313276Y56449244D01*
X33319685Y56429836D01*
X33325108Y56410092D01*
X33329545Y56390010D01*
X33332996Y56369591D01*
X33335461Y56348834D01*
X33336940Y56327740D01*
X33337433Y56306309D01*
X33337433Y56301759D01*
X33155506Y56222172D01*
X33155506Y56302870D01*
X33154952Y56315944D01*
X33153864Y56328734D01*
X33152244Y56341240D01*
X33150090Y56353461D01*
X33147404Y56365399D01*
X33144186Y56377053D01*
X33140435Y56388423D01*
X33136152Y56399509D01*
X33131336Y56410310D01*
X33125989Y56420828D01*
X33120110Y56431062D01*
X33113700Y56441012D01*
X33106758Y56450677D01*
X33099285Y56460059D01*
X33091281Y56469157D01*
X33082746Y56477971D01*
X33073537Y56486641D01*
X33064127Y56494753D01*
X33054515Y56502307D01*
X33044702Y56509302D01*
X33034686Y56515739D01*
X33024468Y56521616D01*
X33014048Y56526935D01*
X33003424Y56531694D01*
X32992596Y56535894D01*
X32981566Y56539535D01*
X32970331Y56542616D01*
X32958891Y56545137D01*
X32947247Y56547098D01*
X32935398Y56548499D01*
X32923344Y56549340D01*
X32911085Y56549620D01*
X32898258Y56549340D01*
X32885674Y56548501D01*
X32873333Y56547102D01*
X32861235Y56545144D01*
X32849378Y56542626D01*
X32837763Y56539549D01*
X32826391Y56535912D01*
X32815259Y56531714D01*
X32804369Y56526957D01*
X32793720Y56521640D01*
X32783311Y56515762D01*
X32773143Y56509325D01*
X32763216Y56502327D01*
X32753528Y56494769D01*
X32744081Y56486650D01*
X32734873Y56477971D01*
X32726050Y56468909D01*
X32717799Y56459625D01*
X32710119Y56450118D01*
X32703010Y56440388D01*
X32696472Y56430436D01*
X32690503Y56420261D01*
X32685105Y56409863D01*
X32680276Y56399244D01*
X32676016Y56388402D01*
X32672326Y56377339D01*
X32669203Y56366054D01*
X32666650Y56354548D01*
X32664664Y56342820D01*
X32663246Y56330871D01*
X32662396Y56318700D01*
X32662112Y56306309D01*
X32662112Y56302923D01*
X32662112Y55540077D01*
X32480236Y55460489D01*
X32480236Y56306309D01*
X32480724Y56328271D01*
X32482188Y56349824D01*
X32484629Y56370970D01*
X32488046Y56391707D01*
X32492440Y56412036D01*
X32497810Y56431958D01*
X32504158Y56451471D01*
X32511483Y56470576D01*
X32519785Y56489273D01*
X32529064Y56507562D01*
X32539322Y56525443D01*
X32550557Y56542916D01*
X32562770Y56559981D01*
X32575961Y56576638D01*
X32590130Y56592887D01*
X32605278Y56608728D01*
X32621101Y56623867D01*
X32637335Y56638030D01*
X32653981Y56651216D01*
X32671038Y56663427D01*
X32688506Y56674660D01*
X32706384Y56684918D01*
X32724672Y56694199D01*
X32743371Y56702503D01*
X32762479Y56709831D01*
X32781998Y56716182D01*
X32801925Y56721556D01*
X32822262Y56725953D01*
X32843008Y56729373D01*
X32864162Y56731816D01*
X32885725Y56733282D01*
X32907696Y56733770D01*
X32930062Y56733282D01*
G37*
G36*
X62991999Y2730501D02*
G01*
X62664975Y2730501D01*
X62664975Y3057525D01*
X62991999Y3057525D01*
X62991999Y2730501D01*
G37*
G36*
X59499500Y5905500D02*
G01*
X59172475Y5905500D01*
X59172475Y6232525D01*
X59499500Y6232525D01*
X59499500Y5905500D01*
G37*
G36*
X62991999Y7175500D02*
G01*
X62664975Y7175500D01*
X62664975Y7502525D01*
X62991999Y7502525D01*
X62991999Y7175500D01*
G37*
G36*
X61087000Y7810500D02*
G01*
X60759975Y7810500D01*
X60759975Y8137525D01*
X61087000Y8137525D01*
X61087000Y7810500D01*
G37*
G36*
X62674499Y7810500D02*
G01*
X62347475Y7810500D01*
X62347475Y8137525D01*
X62674499Y8137525D01*
X62674499Y7810500D01*
G37*
G36*
X65214499Y3048001D02*
G01*
X64887475Y3048001D01*
X64887475Y3375026D01*
X65214499Y3375026D01*
X65214499Y3048001D01*
G37*
G36*
X62991999Y11303000D02*
G01*
X62664975Y11303000D01*
X62664975Y11630025D01*
X62991999Y11630025D01*
X62991999Y11303000D01*
G37*
G36*
X64896999Y8763000D02*
G01*
X64569974Y8763000D01*
X64569974Y9090025D01*
X64896999Y9090025D01*
X64896999Y8763000D01*
G37*
G36*
X63627000Y4318000D02*
G01*
X63299975Y4318000D01*
X63299975Y4645025D01*
X63627000Y4645025D01*
X63627000Y4318000D01*
G37*
G36*
X59817000Y2413001D02*
G01*
X59489975Y2413001D01*
X59489975Y2740026D01*
X59817000Y2740026D01*
X59817000Y2413001D01*
G37*
G36*
X59182000Y2413001D02*
G01*
X58854975Y2413001D01*
X58854975Y2740026D01*
X59182000Y2740026D01*
X59182000Y2413001D01*
G37*
G36*
X64261999Y3683001D02*
G01*
X63934975Y3683001D01*
X63934975Y4010025D01*
X64261999Y4010025D01*
X64261999Y3683001D01*
G37*
G36*
X58547000Y6858000D02*
G01*
X58219975Y6858000D01*
X58219975Y7185025D01*
X58547000Y7185025D01*
X58547000Y6858000D01*
G37*
G36*
X63944499Y6223000D02*
G01*
X63617474Y6223000D01*
X63617474Y6550025D01*
X63944499Y6550025D01*
X63944499Y6223000D01*
G37*
G36*
X57912000Y6858000D02*
G01*
X57584975Y6858000D01*
X57584975Y7185025D01*
X57912000Y7185025D01*
X57912000Y6858000D01*
G37*
G36*
X65214499Y4635501D02*
G01*
X64887475Y4635501D01*
X64887475Y4962526D01*
X65214499Y4962526D01*
X65214499Y4635501D01*
G37*
G36*
X60134500Y3365501D02*
G01*
X59807475Y3365501D01*
X59807475Y3692525D01*
X60134500Y3692525D01*
X60134500Y3365501D01*
G37*
G36*
X59182000Y5588000D02*
G01*
X58854975Y5588000D01*
X58854975Y5915025D01*
X59182000Y5915025D01*
X59182000Y5588000D01*
G37*
G36*
X65214499Y7810500D02*
G01*
X64887475Y7810500D01*
X64887475Y8137525D01*
X65214499Y8137525D01*
X65214499Y7810500D01*
G37*
G36*
X62674499Y4953001D02*
G01*
X62347475Y4953001D01*
X62347475Y5280025D01*
X62674499Y5280025D01*
X62674499Y4953001D01*
G37*
G36*
X63944499Y5905500D02*
G01*
X63617474Y5905500D01*
X63617474Y6232525D01*
X63944499Y6232525D01*
X63944499Y5905500D01*
G37*
G36*
X63309499Y5905500D02*
G01*
X62982474Y5905500D01*
X62982474Y6232525D01*
X63309499Y6232525D01*
X63309499Y5905500D01*
G37*
G36*
X63944499Y5588000D02*
G01*
X63617474Y5588000D01*
X63617474Y5915025D01*
X63944499Y5915025D01*
X63944499Y5588000D01*
G37*
G36*
X31799042Y56733279D02*
G01*
X31820597Y56731813D01*
X31841744Y56729370D01*
X31862485Y56725950D01*
X31882817Y56721553D01*
X31902742Y56716179D01*
X31922258Y56709828D01*
X31941366Y56702500D01*
X31960066Y56694196D01*
X31978356Y56684915D01*
X31996237Y56674657D01*
X32013709Y56663424D01*
X32030771Y56651213D01*
X32047424Y56638027D01*
X32063666Y56623864D01*
X32079498Y56608725D01*
X32094637Y56592884D01*
X32108800Y56576637D01*
X32121986Y56559983D01*
X32134197Y56542920D01*
X32145431Y56525451D01*
X32155688Y56507573D01*
X32164969Y56489287D01*
X32173273Y56470592D01*
X32180601Y56451489D01*
X32186951Y56431977D01*
X32192325Y56412056D01*
X32196722Y56391726D01*
X32200143Y56370986D01*
X32202586Y56349836D01*
X32204051Y56328276D01*
X32204540Y56306306D01*
X32204540Y55540072D01*
X32022613Y55460486D01*
X32022613Y56098343D01*
X31647699Y55945784D01*
X31633512Y55938622D01*
X31620238Y55931165D01*
X31607879Y55923413D01*
X31596434Y55915365D01*
X31585904Y55907023D01*
X31576289Y55898385D01*
X31567589Y55889452D01*
X31559804Y55880223D01*
X31552934Y55870700D01*
X31546980Y55860881D01*
X31544346Y55855861D01*
X31541941Y55850767D01*
X31539765Y55845599D01*
X31537818Y55840357D01*
X31536100Y55835042D01*
X31534611Y55829653D01*
X31533351Y55824190D01*
X31532320Y55818653D01*
X31531519Y55813043D01*
X31530946Y55807359D01*
X31530488Y55795768D01*
X31530603Y55791037D01*
X31530949Y55786288D01*
X31531526Y55781521D01*
X31532334Y55776737D01*
X31533373Y55771936D01*
X31534643Y55767116D01*
X31536144Y55762279D01*
X31537876Y55757424D01*
X31539840Y55752551D01*
X31542035Y55747659D01*
X31544461Y55742750D01*
X31547119Y55737823D01*
X31550009Y55732877D01*
X31553130Y55727913D01*
X31556483Y55722930D01*
X31560068Y55717929D01*
X31567146Y55709057D01*
X31570875Y55704835D01*
X31574730Y55700756D01*
X31578711Y55696820D01*
X31582818Y55693028D01*
X31587052Y55689378D01*
X31591412Y55685871D01*
X31595898Y55682508D01*
X31600511Y55679287D01*
X31610116Y55673275D01*
X31620227Y55667835D01*
X31630843Y55662967D01*
X31641965Y55658672D01*
X31653594Y55654949D01*
X31665729Y55651799D01*
X31678370Y55649221D01*
X31691518Y55647216D01*
X31705173Y55645784D01*
X31719335Y55644924D01*
X31734004Y55644638D01*
X31743035Y55644771D01*
X31751933Y55645171D01*
X31760696Y55645838D01*
X31769326Y55646771D01*
X31777823Y55647971D01*
X31786186Y55649437D01*
X31794415Y55651171D01*
X31802511Y55653171D01*
X31810474Y55655437D01*
X31818303Y55657970D01*
X31826000Y55660770D01*
X31833563Y55663836D01*
X31840993Y55667170D01*
X31848290Y55670769D01*
X31855454Y55674636D01*
X31862486Y55678769D01*
X31930695Y55507107D01*
X31919537Y55501456D01*
X31908227Y55496170D01*
X31896766Y55491250D01*
X31885154Y55486696D01*
X31873390Y55482507D01*
X31861475Y55478682D01*
X31849409Y55475223D01*
X31837192Y55472129D01*
X31824823Y55469399D01*
X31812303Y55467034D01*
X31799631Y55465033D01*
X31786809Y55463396D01*
X31773834Y55462123D01*
X31760709Y55461214D01*
X31747432Y55460669D01*
X31734004Y55460487D01*
X31712842Y55460975D01*
X31691980Y55462439D01*
X31671419Y55464880D01*
X31651158Y55468297D01*
X31631199Y55472691D01*
X31611541Y55478062D01*
X31592185Y55484410D01*
X31573130Y55491735D01*
X31554378Y55500037D01*
X31535928Y55509316D01*
X31517780Y55519574D01*
X31499935Y55530809D01*
X31482392Y55543022D01*
X31465153Y55556213D01*
X31448218Y55570382D01*
X31431585Y55585530D01*
X31420849Y55597006D01*
X31410804Y55608695D01*
X31401451Y55620597D01*
X31392791Y55632710D01*
X31384824Y55645037D01*
X31377548Y55657576D01*
X31370966Y55670328D01*
X31365075Y55683294D01*
X31359878Y55696473D01*
X31355373Y55709865D01*
X31351561Y55723471D01*
X31348442Y55737290D01*
X31346016Y55751324D01*
X31344283Y55765571D01*
X31343243Y55780033D01*
X31342897Y55794710D01*
X31342897Y55803758D01*
X31343746Y55829767D01*
X31346295Y55854811D01*
X31350543Y55878890D01*
X31356491Y55902004D01*
X31364137Y55924153D01*
X31368598Y55934865D01*
X31373484Y55945336D01*
X31378794Y55955566D01*
X31384530Y55965554D01*
X31390690Y55975301D01*
X31397275Y55984806D01*
X31404285Y55994070D01*
X31411721Y56003093D01*
X31427866Y56020414D01*
X31445711Y56036770D01*
X31465256Y56052159D01*
X31486501Y56066583D01*
X31509446Y56080041D01*
X31534091Y56092533D01*
X31560437Y56104059D01*
X32022716Y56294929D01*
X32022437Y56308288D01*
X32021598Y56321378D01*
X32020199Y56334199D01*
X32018241Y56346749D01*
X32015723Y56359030D01*
X32012645Y56371042D01*
X32009008Y56382783D01*
X32004811Y56394253D01*
X32000054Y56405454D01*
X31994736Y56416384D01*
X31988859Y56427043D01*
X31982421Y56437432D01*
X31975423Y56447550D01*
X31967865Y56457396D01*
X31959746Y56466971D01*
X31951067Y56476275D01*
X31941962Y56485157D01*
X31932565Y56493465D01*
X31922876Y56501200D01*
X31912896Y56508363D01*
X31902623Y56514952D01*
X31892059Y56520968D01*
X31881202Y56526412D01*
X31870052Y56531282D01*
X31858610Y56535579D01*
X31846875Y56539303D01*
X31834846Y56542455D01*
X31822525Y56545033D01*
X31809910Y56547038D01*
X31797002Y56548471D01*
X31783800Y56549330D01*
X31770305Y56549617D01*
X31758457Y56549337D01*
X31746787Y56548498D01*
X31735295Y56547099D01*
X31723979Y56545141D01*
X31712841Y56542623D01*
X31701881Y56539546D01*
X31691098Y56535909D01*
X31680492Y56531711D01*
X31670063Y56526954D01*
X31659812Y56521637D01*
X31649739Y56515759D01*
X31639842Y56509322D01*
X31630123Y56502324D01*
X31620581Y56494766D01*
X31611217Y56486647D01*
X31602030Y56477968D01*
X31593485Y56469154D01*
X31585473Y56460056D01*
X31577993Y56450674D01*
X31571046Y56441009D01*
X31564631Y56431059D01*
X31558749Y56420825D01*
X31553400Y56410307D01*
X31548585Y56399506D01*
X31544302Y56388420D01*
X31540553Y56377050D01*
X31537338Y56365396D01*
X31534656Y56353458D01*
X31532508Y56341237D01*
X31530895Y56328731D01*
X31529815Y56315941D01*
X31529270Y56302867D01*
X31529270Y56286938D01*
X31347343Y56206241D01*
X31347343Y56306306D01*
X31347876Y56326146D01*
X31349474Y56345880D01*
X31352138Y56365507D01*
X31355867Y56385028D01*
X31360662Y56404442D01*
X31366522Y56423750D01*
X31373449Y56442951D01*
X31381441Y56462047D01*
X31390500Y56481037D01*
X31400624Y56499920D01*
X31411815Y56518698D01*
X31424071Y56537369D01*
X31437394Y56555935D01*
X31451784Y56574396D01*
X31467240Y56592751D01*
X31483762Y56611000D01*
X31498498Y56625869D01*
X31513714Y56639779D01*
X31529409Y56652728D01*
X31545584Y56664718D01*
X31562239Y56675748D01*
X31579374Y56685819D01*
X31596988Y56694930D01*
X31615081Y56703082D01*
X31633654Y56710275D01*
X31652706Y56716508D01*
X31672237Y56721782D01*
X31692248Y56726097D01*
X31712737Y56729453D01*
X31733706Y56731850D01*
X31755153Y56733288D01*
X31777080Y56733767D01*
X31799042Y56733279D01*
G37*
G36*
X65522475Y9407525D02*
G01*
X63299975Y9407525D01*
X63299975Y9725025D01*
X63299975Y11312525D01*
X63617474Y11312525D01*
X63617474Y9725025D01*
X65204974Y9725025D01*
X65204974Y11312525D01*
X63617474Y11312525D01*
X63299975Y11312525D01*
X63299975Y11630025D01*
X65522475Y11630025D01*
X65522475Y9407525D01*
G37*
G36*
X60769500Y9080500D02*
G01*
X60442475Y9080500D01*
X60442475Y9407525D01*
X60769500Y9407525D01*
X60769500Y9080500D01*
G37*
G36*
X59182000Y9398000D02*
G01*
X58854975Y9398000D01*
X58854975Y9725025D01*
X59182000Y9725025D01*
X59182000Y9398000D01*
G37*
G36*
X64261999Y4318000D02*
G01*
X63934975Y4318000D01*
X63934975Y4645025D01*
X64261999Y4645025D01*
X64261999Y4318000D01*
G37*
G36*
X64261999Y8763000D02*
G01*
X63934975Y8763000D01*
X63934975Y9090025D01*
X64261999Y9090025D01*
X64261999Y8763000D01*
G37*
G36*
X57912000Y6223000D02*
G01*
X57584975Y6223000D01*
X57584975Y6550025D01*
X57912000Y6550025D01*
X57912000Y6223000D01*
G37*
G36*
X64261999Y4635501D02*
G01*
X63934975Y4635501D01*
X63934975Y4962526D01*
X64261999Y4962526D01*
X64261999Y4635501D01*
G37*
G36*
X59499500Y9080500D02*
G01*
X59172475Y9080500D01*
X59172475Y9407525D01*
X59499500Y9407525D01*
X59499500Y9080500D01*
G37*
G36*
X59182000Y8445500D02*
G01*
X58854975Y8445500D01*
X58854975Y8772525D01*
X59182000Y8772525D01*
X59182000Y8445500D01*
G37*
G36*
X62674499Y7493000D02*
G01*
X62347475Y7493000D01*
X62347475Y7820025D01*
X62674499Y7820025D01*
X62674499Y7493000D01*
G37*
G36*
X61722000Y5588000D02*
G01*
X61394975Y5588000D01*
X61394975Y5915025D01*
X61722000Y5915025D01*
X61722000Y5588000D01*
G37*
G36*
X59817000Y10350500D02*
G01*
X59489975Y10350500D01*
X59489975Y10677525D01*
X59817000Y10677525D01*
X59817000Y10350500D01*
G37*
G36*
X60452000Y8128000D02*
G01*
X60124975Y8128000D01*
X60124975Y8455025D01*
X60452000Y8455025D01*
X60452000Y8128000D01*
G37*
G36*
X62674499Y10033000D02*
G01*
X62347475Y10033000D01*
X62347475Y10360025D01*
X62674499Y10360025D01*
X62674499Y10033000D01*
G37*
G36*
X62357000Y9715500D02*
G01*
X62029975Y9715500D01*
X62029975Y10042525D01*
X62357000Y10042525D01*
X62357000Y9715500D01*
G37*
G36*
X61404500Y8445500D02*
G01*
X61077475Y8445500D01*
X61077475Y8772525D01*
X61404500Y8772525D01*
X61404500Y8445500D01*
G37*
G36*
X58229500Y5905500D02*
G01*
X57902475Y5905500D01*
X57902475Y6232525D01*
X58229500Y6232525D01*
X58229500Y5905500D01*
G37*
G36*
X63627000Y8445500D02*
G01*
X63299975Y8445500D01*
X63299975Y8772525D01*
X63627000Y8772525D01*
X63627000Y8445500D01*
G37*
G36*
X59817000Y8445500D02*
G01*
X59489975Y8445500D01*
X59489975Y8772525D01*
X59817000Y8772525D01*
X59817000Y8445500D01*
G37*
G36*
X62357000Y11303000D02*
G01*
X62029975Y11303000D01*
X62029975Y11630025D01*
X62357000Y11630025D01*
X62357000Y11303000D01*
G37*
G36*
X64261999Y4953001D02*
G01*
X63934975Y4953001D01*
X63934975Y5280025D01*
X64261999Y5280025D01*
X64261999Y4953001D01*
G37*
G36*
X60769500Y9715500D02*
G01*
X60442475Y9715500D01*
X60442475Y10042525D01*
X60769500Y10042525D01*
X60769500Y9715500D01*
G37*
G36*
X63944499Y3683001D02*
G01*
X63617474Y3683001D01*
X63617474Y4010025D01*
X63944499Y4010025D01*
X63944499Y3683001D01*
G37*
G36*
X57902475Y3057525D02*
G01*
X56949975Y3057525D01*
X56949975Y4010025D01*
X57902475Y4010025D01*
X57902475Y3057525D01*
G37*
G36*
X38592904Y56733228D02*
G01*
X38613778Y56731763D01*
X38634361Y56729320D01*
X38654652Y56725900D01*
X38674650Y56721503D01*
X38694355Y56716129D01*
X38713768Y56709778D01*
X38732888Y56702450D01*
X38751714Y56694146D01*
X38770247Y56684865D01*
X38788486Y56674607D01*
X38806431Y56663373D01*
X38824082Y56651163D01*
X38841439Y56637976D01*
X38858500Y56623813D01*
X38875267Y56608674D01*
X38890549Y56593634D01*
X38904846Y56578078D01*
X38918157Y56562008D01*
X38930482Y56545423D01*
X38941821Y56528323D01*
X38952174Y56510709D01*
X38961541Y56492580D01*
X38969922Y56473936D01*
X38977317Y56454778D01*
X38983726Y56435104D01*
X38989149Y56414916D01*
X38993586Y56394214D01*
X38997037Y56372996D01*
X38999502Y56351264D01*
X39000981Y56329017D01*
X39001474Y56306256D01*
X39001474Y56199365D01*
X38326150Y55899115D01*
X38326430Y55885756D01*
X38327269Y55872668D01*
X38328668Y55859851D01*
X38330626Y55847303D01*
X38333144Y55835026D01*
X38336222Y55823020D01*
X38339859Y55811283D01*
X38344056Y55799817D01*
X38348814Y55788622D01*
X38354131Y55777697D01*
X38360009Y55767042D01*
X38366446Y55756657D01*
X38373445Y55746543D01*
X38381003Y55736700D01*
X38389122Y55727126D01*
X38397801Y55717824D01*
X38406888Y55708970D01*
X38416270Y55700686D01*
X38425947Y55692971D01*
X38435919Y55685827D01*
X38446185Y55679253D01*
X38456746Y55673249D01*
X38467601Y55667816D01*
X38478750Y55662954D01*
X38490193Y55658663D01*
X38501930Y55654943D01*
X38513960Y55651795D01*
X38526284Y55649219D01*
X38538901Y55647215D01*
X38551811Y55645783D01*
X38565015Y55644924D01*
X38578511Y55644638D01*
X38590358Y55644917D01*
X38602026Y55645757D01*
X38613517Y55647155D01*
X38624829Y55649113D01*
X38635964Y55651631D01*
X38646921Y55654709D01*
X38657701Y55658346D01*
X38668304Y55662543D01*
X38678731Y55667300D01*
X38688980Y55672618D01*
X38699054Y55678495D01*
X38708952Y55684933D01*
X38718673Y55691931D01*
X38728220Y55699489D01*
X38737590Y55707608D01*
X38746786Y55716287D01*
X38755321Y55725092D01*
X38763326Y55734183D01*
X38770799Y55743560D01*
X38777740Y55753223D01*
X38784151Y55763172D01*
X38790030Y55773406D01*
X38795377Y55783925D01*
X38800192Y55794729D01*
X38804475Y55805818D01*
X38808226Y55817190D01*
X38811445Y55828848D01*
X38814131Y55840789D01*
X38816284Y55853013D01*
X38817905Y55865522D01*
X38818992Y55878313D01*
X38819546Y55891388D01*
X38819546Y55907264D01*
X39001474Y55987962D01*
X39001474Y55887896D01*
X39000941Y55868047D01*
X38999343Y55848306D01*
X38996679Y55828672D01*
X38992950Y55809146D01*
X38988155Y55789728D01*
X38982294Y55770417D01*
X38975368Y55751213D01*
X38967375Y55732117D01*
X38958317Y55713128D01*
X38948192Y55694247D01*
X38937002Y55675472D01*
X38924745Y55656804D01*
X38911422Y55638244D01*
X38897032Y55619790D01*
X38881576Y55601443D01*
X38865054Y55583203D01*
X38850318Y55568334D01*
X38835102Y55554424D01*
X38819407Y55541475D01*
X38803232Y55529485D01*
X38786577Y55518455D01*
X38769442Y55508384D01*
X38751828Y55499273D01*
X38733735Y55491121D01*
X38715162Y55483928D01*
X38696110Y55477695D01*
X38676579Y55472421D01*
X38656569Y55468106D01*
X38636079Y55464750D01*
X38615111Y55462353D01*
X38593664Y55460915D01*
X38571737Y55460435D01*
X38549775Y55460923D01*
X38528218Y55462388D01*
X38507067Y55464828D01*
X38486324Y55468245D01*
X38465988Y55472639D01*
X38446061Y55478010D01*
X38426541Y55484358D01*
X38407430Y55491683D01*
X38388729Y55499985D01*
X38370437Y55509265D01*
X38352556Y55519522D01*
X38335085Y55530757D01*
X38318026Y55542970D01*
X38301378Y55556161D01*
X38285142Y55570330D01*
X38269319Y55585478D01*
X38254171Y55601310D01*
X38240002Y55617551D01*
X38226811Y55634201D01*
X38214598Y55651261D01*
X38203363Y55668729D01*
X38193106Y55686607D01*
X38183826Y55704895D01*
X38175524Y55723591D01*
X38168199Y55742697D01*
X38161851Y55762212D01*
X38156480Y55782136D01*
X38152086Y55802470D01*
X38148669Y55823213D01*
X38146229Y55844365D01*
X38144764Y55865926D01*
X38144276Y55887896D01*
X38144276Y56302923D01*
X38326100Y56302923D01*
X38326100Y56098294D01*
X38818384Y56317210D01*
X38817434Y56329047D01*
X38816015Y56340645D01*
X38814125Y56352005D01*
X38811765Y56363126D01*
X38808934Y56374007D01*
X38805633Y56384650D01*
X38801862Y56395053D01*
X38797620Y56405217D01*
X38792907Y56415140D01*
X38787724Y56424823D01*
X38782070Y56434266D01*
X38775945Y56443468D01*
X38769349Y56452430D01*
X38762282Y56461150D01*
X38754744Y56469628D01*
X38746734Y56477865D01*
X38737486Y56486554D01*
X38727956Y56494683D01*
X38718146Y56502251D01*
X38708054Y56509258D01*
X38697680Y56515705D01*
X38687024Y56521591D01*
X38676086Y56526916D01*
X38664864Y56531681D01*
X38653359Y56535886D01*
X38641571Y56539529D01*
X38629498Y56542613D01*
X38617141Y56545135D01*
X38604499Y56547097D01*
X38591571Y56548499D01*
X38578358Y56549340D01*
X38564859Y56549620D01*
X38553016Y56549340D01*
X38541359Y56548501D01*
X38529888Y56547102D01*
X38518604Y56545144D01*
X38507506Y56542626D01*
X38496594Y56539549D01*
X38485869Y56535912D01*
X38475331Y56531714D01*
X38464979Y56526957D01*
X38454814Y56521640D01*
X38444835Y56515762D01*
X38435044Y56509325D01*
X38425440Y56502327D01*
X38416022Y56494769D01*
X38406792Y56486650D01*
X38397749Y56477971D01*
X38389079Y56468901D01*
X38380967Y56459610D01*
X38373413Y56450098D01*
X38366418Y56440366D01*
X38359982Y56430412D01*
X38354104Y56420237D01*
X38348785Y56409841D01*
X38344026Y56399224D01*
X38339826Y56388385D01*
X38336185Y56377325D01*
X38333104Y56366043D01*
X38330583Y56354540D01*
X38328622Y56342815D01*
X38327221Y56330868D01*
X38326380Y56318700D01*
X38326100Y56306309D01*
X38326100Y56302923D01*
X38144276Y56302923D01*
X38144276Y56306256D01*
X38144277Y56306309D01*
X38144764Y56328217D01*
X38146228Y56349771D01*
X38148669Y56370916D01*
X38152086Y56391654D01*
X38156480Y56411983D01*
X38161851Y56431904D01*
X38168198Y56451418D01*
X38175523Y56470523D01*
X38183825Y56489220D01*
X38193105Y56507509D01*
X38203362Y56525390D01*
X38214597Y56542863D01*
X38226810Y56559928D01*
X38240002Y56576585D01*
X38254171Y56592834D01*
X38269319Y56608674D01*
X38285142Y56623813D01*
X38301376Y56637976D01*
X38318022Y56651163D01*
X38335078Y56663373D01*
X38352546Y56674607D01*
X38370424Y56684865D01*
X38388712Y56694146D01*
X38407411Y56702450D01*
X38426520Y56709778D01*
X38446038Y56716129D01*
X38465965Y56721503D01*
X38486302Y56725900D01*
X38507048Y56729320D01*
X38528203Y56731763D01*
X38549766Y56733228D01*
X38571737Y56733717D01*
X38592904Y56733228D01*
G37*
G36*
X62674499Y3048001D02*
G01*
X62347475Y3048001D01*
X62347475Y3375026D01*
X62674499Y3375026D01*
X62674499Y3048001D01*
G37*
G36*
X65214499Y5270501D02*
G01*
X64887475Y5270501D01*
X64887475Y5597525D01*
X65214499Y5597525D01*
X65214499Y5270501D01*
G37*
G36*
X59499500Y10350500D02*
G01*
X59172475Y10350500D01*
X59172475Y10677525D01*
X59499500Y10677525D01*
X59499500Y10350500D01*
G37*
G36*
X62357000Y10033000D02*
G01*
X62029975Y10033000D01*
X62029975Y10360025D01*
X62357000Y10360025D01*
X62357000Y10033000D01*
G37*
G36*
X62357000Y7810500D02*
G01*
X62029975Y7810500D01*
X62029975Y8137525D01*
X62357000Y8137525D01*
X62357000Y7810500D01*
G37*
G36*
X61404500Y6858000D02*
G01*
X61077475Y6858000D01*
X61077475Y7185025D01*
X61404500Y7185025D01*
X61404500Y6858000D01*
G37*
G36*
X64579499Y3365501D02*
G01*
X64252475Y3365501D01*
X64252475Y3692525D01*
X64579499Y3692525D01*
X64579499Y3365501D01*
G37*
G36*
X58547000Y5588000D02*
G01*
X58219975Y5588000D01*
X58219975Y5915025D01*
X58547000Y5915025D01*
X58547000Y5588000D01*
G37*
G36*
X65531999Y4635501D02*
G01*
X65204974Y4635501D01*
X65204974Y4962526D01*
X65531999Y4962526D01*
X65531999Y4635501D01*
G37*
G36*
X59182000Y10668000D02*
G01*
X58854975Y10668000D01*
X58854975Y10995025D01*
X59182000Y10995025D01*
X59182000Y10668000D01*
G37*
G36*
X58864500Y5588000D02*
G01*
X58537475Y5588000D01*
X58537475Y5915025D01*
X58864500Y5915025D01*
X58864500Y5588000D01*
G37*
G36*
X60452000Y9715500D02*
G01*
X60124975Y9715500D01*
X60124975Y10042525D01*
X60452000Y10042525D01*
X60452000Y9715500D01*
G37*
G36*
X61404500Y10033000D02*
G01*
X61077475Y10033000D01*
X61077475Y10360025D01*
X61404500Y10360025D01*
X61404500Y10033000D01*
G37*
G36*
X62357000Y4635501D02*
G01*
X62029975Y4635501D01*
X62029975Y4962526D01*
X62357000Y4962526D01*
X62357000Y4635501D01*
G37*
G36*
X63627000Y8763000D02*
G01*
X63299975Y8763000D01*
X63299975Y9090025D01*
X63627000Y9090025D01*
X63627000Y8763000D01*
G37*
G36*
X61087000Y9398000D02*
G01*
X60759975Y9398000D01*
X60759975Y9725025D01*
X61087000Y9725025D01*
X61087000Y9398000D01*
G37*
G36*
X26339258Y56769000D02*
G01*
X26360811Y56767534D01*
X26381957Y56765091D01*
X26402694Y56761671D01*
X26423024Y56757274D01*
X26442945Y56751900D01*
X26462458Y56745549D01*
X26481563Y56738221D01*
X26500260Y56729917D01*
X26518549Y56720636D01*
X26536430Y56710379D01*
X26553903Y56699145D01*
X26570968Y56686935D01*
X26587625Y56673748D01*
X26603874Y56659585D01*
X26619715Y56644446D01*
X26634854Y56628606D01*
X26649016Y56612359D01*
X26662203Y56595704D01*
X26674413Y56578642D01*
X26685647Y56561172D01*
X26695905Y56543294D01*
X26705186Y56525008D01*
X26713490Y56506314D01*
X26720817Y56487210D01*
X26727168Y56467698D01*
X26732542Y56447777D01*
X26736940Y56427447D01*
X26740360Y56406707D01*
X26742803Y56385557D01*
X26744269Y56363997D01*
X26744757Y56342027D01*
X26744757Y55923668D01*
X26744269Y55901706D01*
X26742803Y55880151D01*
X26740360Y55859003D01*
X26736940Y55838263D01*
X26732543Y55817930D01*
X26727169Y55798006D01*
X26720818Y55778489D01*
X26713490Y55759381D01*
X26705186Y55740682D01*
X26695905Y55722392D01*
X26685648Y55704510D01*
X26674414Y55687038D01*
X26662203Y55669976D01*
X26649017Y55653324D01*
X26634854Y55637081D01*
X26619715Y55621249D01*
X26603875Y55606102D01*
X26587627Y55591933D01*
X26570973Y55578742D01*
X26553910Y55566529D01*
X26536441Y55555294D01*
X26518563Y55545036D01*
X26500277Y55535757D01*
X26481583Y55527455D01*
X26462480Y55520130D01*
X26442968Y55513782D01*
X26423047Y55508411D01*
X26402716Y55504017D01*
X26381976Y55500600D01*
X26360826Y55498159D01*
X26339267Y55496694D01*
X26317296Y55496206D01*
X26299939Y55496508D01*
X26282830Y55497412D01*
X26265971Y55498920D01*
X26249361Y55501031D01*
X26232999Y55503746D01*
X26216887Y55507064D01*
X26201023Y55510987D01*
X26185408Y55515514D01*
X26170042Y55520646D01*
X26154924Y55526383D01*
X26140055Y55532725D01*
X26125435Y55539672D01*
X26111062Y55547224D01*
X26096938Y55555383D01*
X26083062Y55564147D01*
X26069434Y55573518D01*
X26069434Y55131294D01*
X25887560Y55051654D01*
X25887560Y56338588D01*
X26069380Y56338588D01*
X26069380Y55927055D01*
X26069434Y55927055D01*
X26069732Y55914111D01*
X26070623Y55901434D01*
X26072109Y55889024D01*
X26074189Y55876880D01*
X26076864Y55865003D01*
X26080133Y55853392D01*
X26083998Y55842049D01*
X26088458Y55830971D01*
X26093513Y55820161D01*
X26099164Y55809617D01*
X26105410Y55799340D01*
X26112252Y55789330D01*
X26119690Y55779586D01*
X26127724Y55770109D01*
X26136355Y55760898D01*
X26145581Y55751954D01*
X26155329Y55743284D01*
X26165246Y55735171D01*
X26175332Y55727617D01*
X26185586Y55720622D01*
X26196009Y55714185D01*
X26206601Y55708307D01*
X26217361Y55702989D01*
X26228290Y55698229D01*
X26239388Y55694029D01*
X26250654Y55690389D01*
X26262089Y55687308D01*
X26273693Y55684787D01*
X26285465Y55682826D01*
X26297406Y55681425D01*
X26309516Y55680584D01*
X26321794Y55680304D01*
X26333641Y55680583D01*
X26345311Y55681423D01*
X26356804Y55682821D01*
X26368119Y55684779D01*
X26379257Y55687297D01*
X26390218Y55690375D01*
X26401001Y55694013D01*
X26411607Y55698210D01*
X26422035Y55702967D01*
X26432286Y55708285D01*
X26442360Y55714162D01*
X26452257Y55720600D01*
X26461976Y55727598D01*
X26471517Y55735156D01*
X26480882Y55743275D01*
X26490069Y55751954D01*
X26498613Y55760759D01*
X26506623Y55769850D01*
X26514101Y55779227D01*
X26521045Y55788890D01*
X26527457Y55798839D01*
X26533335Y55809073D01*
X26538681Y55819592D01*
X26543494Y55830396D01*
X26547775Y55841484D01*
X26551522Y55852858D01*
X26554738Y55864515D01*
X26557421Y55876456D01*
X26559571Y55888681D01*
X26561189Y55901189D01*
X26562275Y55913981D01*
X26562829Y55927055D01*
X26562829Y56338588D01*
X26562275Y56351662D01*
X26561189Y56364452D01*
X26559571Y56376957D01*
X26557421Y56389179D01*
X26554738Y56401117D01*
X26551522Y56412771D01*
X26547775Y56424141D01*
X26543494Y56435227D01*
X26538681Y56446029D01*
X26533335Y56456547D01*
X26527457Y56466780D01*
X26521045Y56476730D01*
X26514101Y56486396D01*
X26506623Y56495777D01*
X26498613Y56504875D01*
X26490069Y56513688D01*
X26480829Y56522359D01*
X26471306Y56530471D01*
X26461500Y56538025D01*
X26451410Y56545021D01*
X26441037Y56551457D01*
X26430380Y56557335D01*
X26419439Y56562653D01*
X26408213Y56567413D01*
X26396703Y56571613D01*
X26384907Y56575253D01*
X26372827Y56578334D01*
X26360461Y56580855D01*
X26347810Y56582816D01*
X26334873Y56584217D01*
X26321650Y56585058D01*
X26308141Y56585338D01*
X26296298Y56585059D01*
X26284641Y56584220D01*
X26273170Y56582821D01*
X26261886Y56580863D01*
X26250788Y56578345D01*
X26239876Y56575267D01*
X26229151Y56571630D01*
X26218612Y56567433D01*
X26208260Y56562675D01*
X26198095Y56557358D01*
X26188117Y56551480D01*
X26178325Y56545043D01*
X26168721Y56538045D01*
X26159303Y56530486D01*
X26150073Y56522368D01*
X26141030Y56513688D01*
X26132490Y56504762D01*
X26124492Y56495625D01*
X26117036Y56486277D01*
X26110122Y56476717D01*
X26103750Y56466946D01*
X26097919Y56456962D01*
X26092629Y56446766D01*
X26087881Y56436358D01*
X26083675Y56425737D01*
X26080010Y56414903D01*
X26076885Y56403856D01*
X26074302Y56392595D01*
X26072261Y56381121D01*
X26070760Y56369433D01*
X26069800Y56357531D01*
X26069380Y56345414D01*
X26069380Y56338588D01*
X25887560Y56338588D01*
X25887560Y56342027D01*
X25887636Y56345414D01*
X25888053Y56363989D01*
X25889532Y56385542D01*
X25891997Y56406688D01*
X25895448Y56427425D01*
X25899885Y56447755D01*
X25905308Y56467676D01*
X25911717Y56487189D01*
X25919112Y56506295D01*
X25927492Y56524992D01*
X25936859Y56543281D01*
X25947212Y56561162D01*
X25958551Y56578635D01*
X25970876Y56595700D01*
X25984186Y56612357D01*
X25998483Y56628606D01*
X26013766Y56644446D01*
X26029741Y56659585D01*
X26046116Y56673748D01*
X26062890Y56686935D01*
X26080064Y56699145D01*
X26097637Y56710379D01*
X26115609Y56720636D01*
X26133981Y56729917D01*
X26152751Y56738221D01*
X26171922Y56745549D01*
X26191492Y56751900D01*
X26211461Y56757274D01*
X26231829Y56761671D01*
X26252597Y56765091D01*
X26273764Y56767534D01*
X26295330Y56769000D01*
X26317296Y56769488D01*
X26339258Y56769000D01*
G37*
G36*
X60769500Y3365501D02*
G01*
X60442475Y3365501D01*
X60442475Y3692525D01*
X60769500Y3692525D01*
X60769500Y3365501D01*
G37*
G36*
X63627000Y7175500D02*
G01*
X63299975Y7175500D01*
X63299975Y7502525D01*
X63627000Y7502525D01*
X63627000Y7175500D01*
G37*
G36*
X64896999Y3365501D02*
G01*
X64569974Y3365501D01*
X64569974Y3692525D01*
X64896999Y3692525D01*
X64896999Y3365501D01*
G37*
G36*
X64887475Y10042525D02*
G01*
X63934975Y10042525D01*
X63934975Y10995025D01*
X64887475Y10995025D01*
X64887475Y10042525D01*
G37*
G36*
X59499500Y6858000D02*
G01*
X59172475Y6858000D01*
X59172475Y7185025D01*
X59499500Y7185025D01*
X59499500Y6858000D01*
G37*
G36*
X61722000Y3683001D02*
G01*
X61394975Y3683001D01*
X61394975Y4010025D01*
X61722000Y4010025D01*
X61722000Y3683001D01*
G37*
G36*
X56959500Y6223000D02*
G01*
X56632475Y6223000D01*
X56632475Y6550025D01*
X56959500Y6550025D01*
X56959500Y6223000D01*
G37*
G36*
X59499500Y11303000D02*
G01*
X59172475Y11303000D01*
X59172475Y11630025D01*
X59499500Y11630025D01*
X59499500Y11303000D01*
G37*
G36*
X60769500Y4635501D02*
G01*
X60442475Y4635501D01*
X60442475Y4962526D01*
X60769500Y4962526D01*
X60769500Y4635501D01*
G37*
G36*
X61722000Y10668000D02*
G01*
X61394975Y10668000D01*
X61394975Y10995025D01*
X61722000Y10995025D01*
X61722000Y10668000D01*
G37*
G36*
X59817000Y9398000D02*
G01*
X59489975Y9398000D01*
X59489975Y9725025D01*
X59817000Y9725025D01*
X59817000Y9398000D01*
G37*
G36*
X62039500Y10985500D02*
G01*
X61712475Y10985500D01*
X61712475Y11312525D01*
X62039500Y11312525D01*
X62039500Y10985500D01*
G37*
G36*
X61404500Y3048001D02*
G01*
X61077475Y3048001D01*
X61077475Y3375026D01*
X61404500Y3375026D01*
X61404500Y3048001D01*
G37*
G36*
X60134500Y2730501D02*
G01*
X59807475Y2730501D01*
X59807475Y3057525D01*
X60134500Y3057525D01*
X60134500Y2730501D01*
G37*
G36*
X61087000Y10668000D02*
G01*
X60759975Y10668000D01*
X60759975Y10995025D01*
X61087000Y10995025D01*
X61087000Y10668000D01*
G37*
G36*
X63309499Y6223000D02*
G01*
X62982474Y6223000D01*
X62982474Y6550025D01*
X63309499Y6550025D01*
X63309499Y6223000D01*
G37*
G36*
X64261999Y6858000D02*
G01*
X63934975Y6858000D01*
X63934975Y7185025D01*
X64261999Y7185025D01*
X64261999Y6858000D01*
G37*
G36*
X62991999Y6540500D02*
G01*
X62664975Y6540500D01*
X62664975Y6867525D01*
X62991999Y6867525D01*
X62991999Y6540500D01*
G37*
D11*
X25146000Y56769000D02*
X25167573Y56767534D01*
X25188745Y56765091D01*
X25209515Y56761671D01*
X25229884Y56757274D01*
X25249853Y56751900D01*
X25269422Y56745549D01*
X25288590Y56738221D01*
X25307358Y56729917D01*
X25325726Y56720636D01*
X25343695Y56710379D01*
X25361265Y56699145D01*
X25378436Y56686935D01*
X25395208Y56673748D01*
X25411581Y56659585D01*
X25427556Y56644446D01*
X25442839Y56628606D01*
X25457136Y56612359D01*
X25470446Y56595704D01*
X25482771Y56578642D01*
X25494110Y56561172D01*
X25504463Y56543294D01*
X25513830Y56525008D01*
X25522210Y56506314D01*
X25529605Y56487210D01*
X25536014Y56467698D01*
X25541437Y56447777D01*
X25545874Y56427447D01*
X25549325Y56406707D01*
X25551790Y56385557D01*
X25553269Y56363997D01*
X25553762Y56342027D01*
X25553762Y55923668D01*
X25553269Y55901706D01*
X25551790Y55880151D01*
X25549325Y55859003D01*
X25545874Y55838263D01*
X25541437Y55817930D01*
X25536014Y55798006D01*
X25529605Y55778489D01*
X25522210Y55759381D01*
X25513830Y55740682D01*
X25504463Y55722392D01*
X25494110Y55704510D01*
X25482771Y55687038D01*
X25470446Y55669976D01*
X25457136Y55653324D01*
X25442839Y55637081D01*
X25427556Y55621249D01*
X25411581Y55606102D01*
X25395206Y55591933D01*
X25378432Y55578742D01*
X25361258Y55566529D01*
X25343685Y55555294D01*
X25325713Y55545036D01*
X25307341Y55535757D01*
X25288570Y55527455D01*
X25269400Y55520130D01*
X25249830Y55513782D01*
X25229861Y55508411D01*
X25209493Y55504017D01*
X25188725Y55500600D01*
X25167558Y55498159D01*
X25145992Y55496694D01*
X25124026Y55496206D01*
X25102064Y55496694D01*
X25080509Y55498159D01*
X25059362Y55500599D01*
X25038621Y55504017D01*
X25018289Y55508411D01*
X24998364Y55513781D01*
X24978848Y55520129D01*
X24959740Y55527454D01*
X24941041Y55535756D01*
X24922750Y55545036D01*
X24904869Y55555293D01*
X24887397Y55566528D01*
X24870335Y55578741D01*
X24853682Y55591932D01*
X24837440Y55606101D01*
X24821608Y55621249D01*
X24806460Y55637081D01*
X24792291Y55653322D01*
X24779100Y55669972D01*
X24766887Y55687032D01*
X24755652Y55704501D01*
X24745395Y55722379D01*
X24736115Y55740666D01*
X24727813Y55759362D01*
X24720488Y55778468D01*
X24714140Y55797983D01*
X24708769Y55817907D01*
X24704376Y55838241D01*
X24700958Y55858984D01*
X24698518Y55880136D01*
X24697053Y55901697D01*
X24696565Y55923668D01*
X24696565Y56338588D01*
X24878386Y56338588D01*
X24878386Y55927055D01*
X24878440Y55927055D01*
X24878737Y55914111D01*
X24879628Y55901434D01*
X24881114Y55889024D01*
X24883194Y55876880D01*
X24885869Y55865003D01*
X24889139Y55853392D01*
X24893003Y55842049D01*
X24897463Y55830971D01*
X24902518Y55820161D01*
X24908169Y55809617D01*
X24914415Y55799340D01*
X24921258Y55789330D01*
X24928696Y55779586D01*
X24936730Y55770109D01*
X24945360Y55760898D01*
X24954587Y55751954D01*
X24964335Y55743284D01*
X24974252Y55735171D01*
X24984337Y55727617D01*
X24994592Y55720622D01*
X25005014Y55714185D01*
X25015606Y55708307D01*
X25026366Y55702989D01*
X25037295Y55698229D01*
X25048393Y55694029D01*
X25059659Y55690389D01*
X25071094Y55687308D01*
X25082698Y55684787D01*
X25094470Y55682826D01*
X25106411Y55681425D01*
X25118521Y55680584D01*
X25130799Y55680304D01*
X25142647Y55680583D01*
X25154317Y55681423D01*
X25165809Y55682821D01*
X25177125Y55684779D01*
X25188262Y55687297D01*
X25199223Y55690375D01*
X25210006Y55694013D01*
X25220612Y55698210D01*
X25231040Y55702967D01*
X25241292Y55708285D01*
X25251365Y55714162D01*
X25261262Y55720600D01*
X25270981Y55727598D01*
X25280523Y55735156D01*
X25289887Y55743275D01*
X25299074Y55751954D01*
X25307618Y55760759D01*
X25315629Y55769850D01*
X25323106Y55779227D01*
X25330051Y55788890D01*
X25336462Y55798839D01*
X25342341Y55809073D01*
X25347687Y55819592D01*
X25352500Y55830396D01*
X25356780Y55841484D01*
X25360528Y55852858D01*
X25363743Y55864515D01*
X25366426Y55876456D01*
X25368576Y55888681D01*
X25370194Y55901189D01*
X25371280Y55913981D01*
X25371834Y55927055D01*
X25371834Y56338588D01*
X25371280Y56351662D01*
X25370194Y56364452D01*
X25368576Y56376957D01*
X25366426Y56389179D01*
X25363743Y56401117D01*
X25360528Y56412771D01*
X25356780Y56424141D01*
X25352500Y56435227D01*
X25347687Y56446029D01*
X25342341Y56456547D01*
X25336462Y56466780D01*
X25330051Y56476730D01*
X25323106Y56486396D01*
X25315629Y56495777D01*
X25307618Y56504875D01*
X25299074Y56513688D01*
X25289834Y56522359D01*
X25280311Y56530471D01*
X25270505Y56538025D01*
X25260416Y56545021D01*
X25250042Y56551457D01*
X25239385Y56557335D01*
X25228444Y56562653D01*
X25217218Y56567413D01*
X25205708Y56571613D01*
X25193913Y56575253D01*
X25181832Y56578334D01*
X25169467Y56580855D01*
X25156816Y56582816D01*
X25143878Y56584217D01*
X25130655Y56585058D01*
X25117146Y56585338D01*
X25105303Y56585059D01*
X25093646Y56584220D01*
X25082175Y56582821D01*
X25070891Y56580863D01*
X25059793Y56578345D01*
X25048881Y56575267D01*
X25038156Y56571630D01*
X25027618Y56567433D01*
X25017266Y56562675D01*
X25007101Y56557358D01*
X24997122Y56551480D01*
X24987331Y56545043D01*
X24977726Y56538045D01*
X24968309Y56530486D01*
X24959078Y56522368D01*
X24950035Y56513688D01*
X24941495Y56504762D01*
X24933498Y56495625D01*
X24926042Y56486277D01*
X24919128Y56476717D01*
X24912755Y56466946D01*
X24906924Y56456962D01*
X24901635Y56446766D01*
X24896887Y56436358D01*
X24892680Y56425737D01*
X24889015Y56414903D01*
X24885891Y56403856D01*
X24883308Y56392595D01*
X24881266Y56381121D01*
X24879765Y56369433D01*
X24878805Y56357531D01*
X24878386Y56345414D01*
X24878386Y56338588D01*
X24696565Y56338588D01*
X24696565Y56342027D01*
X24696640Y56345414D01*
X24697053Y56363989D01*
X24698519Y56385542D01*
X24700962Y56406688D01*
X24704382Y56427425D01*
X24708779Y56447755D01*
X24714153Y56467676D01*
X24720504Y56487189D01*
X24727832Y56506295D01*
X24736136Y56524992D01*
X24745417Y56543281D01*
X24755674Y56561162D01*
X24766908Y56578635D01*
X24779118Y56595700D01*
X24792305Y56612357D01*
X24806468Y56628606D01*
X24821607Y56644446D01*
X24837439Y56659585D01*
X24853679Y56673748D01*
X24870329Y56686935D01*
X24887389Y56699145D01*
X24904858Y56710379D01*
X24922735Y56720636D01*
X24941023Y56729917D01*
X24959719Y56738221D01*
X24978825Y56745549D01*
X24998340Y56751900D01*
X25018264Y56757274D01*
X25038598Y56761671D01*
X25059341Y56765091D01*
X25080493Y56767534D01*
X25102055Y56769000D01*
X25124025Y56769488D01*
X25146000Y56769000D01*
D10*
G36*
X59817000Y5905500D02*
G01*
X59489975Y5905500D01*
X59489975Y6232525D01*
X59817000Y6232525D01*
X59817000Y5905500D01*
G37*
G36*
X62674499Y8445500D02*
G01*
X62347475Y8445500D01*
X62347475Y8772525D01*
X62674499Y8772525D01*
X62674499Y8445500D01*
G37*
G36*
X61722000Y11303000D02*
G01*
X61394975Y11303000D01*
X61394975Y11630025D01*
X61722000Y11630025D01*
X61722000Y11303000D01*
G37*
G36*
X64579499Y6858000D02*
G01*
X64252475Y6858000D01*
X64252475Y7185025D01*
X64579499Y7185025D01*
X64579499Y6858000D01*
G37*
G36*
X60452000Y7175500D02*
G01*
X60124975Y7175500D01*
X60124975Y7502525D01*
X60452000Y7502525D01*
X60452000Y7175500D01*
G37*
G36*
X62991999Y5588000D02*
G01*
X62664975Y5588000D01*
X62664975Y5915025D01*
X62991999Y5915025D01*
X62991999Y5588000D01*
G37*
G36*
X61722000Y7810500D02*
G01*
X61394975Y7810500D01*
X61394975Y8137525D01*
X61722000Y8137525D01*
X61722000Y7810500D01*
G37*
G36*
X62039500Y4635501D02*
G01*
X61712475Y4635501D01*
X61712475Y4962526D01*
X62039500Y4962526D01*
X62039500Y4635501D01*
G37*
G36*
X60452000Y4318000D02*
G01*
X60124975Y4318000D01*
X60124975Y4645025D01*
X60452000Y4645025D01*
X60452000Y4318000D01*
G37*
G36*
X57912000Y5270501D02*
G01*
X57584975Y5270501D01*
X57584975Y5597525D01*
X57912000Y5597525D01*
X57912000Y5270501D01*
G37*
G36*
X59817000Y8128000D02*
G01*
X59489975Y8128000D01*
X59489975Y8455025D01*
X59817000Y8455025D01*
X59817000Y8128000D01*
G37*
G36*
X60134500Y8445500D02*
G01*
X59807475Y8445500D01*
X59807475Y8772525D01*
X60134500Y8772525D01*
X60134500Y8445500D01*
G37*
G36*
X62674499Y11303000D02*
G01*
X62347475Y11303000D01*
X62347475Y11630025D01*
X62674499Y11630025D01*
X62674499Y11303000D01*
G37*
G36*
X62357000Y5905500D02*
G01*
X62029975Y5905500D01*
X62029975Y6232525D01*
X62357000Y6232525D01*
X62357000Y5905500D01*
G37*
G36*
X63309499Y7175500D02*
G01*
X62982474Y7175500D01*
X62982474Y7502525D01*
X63309499Y7502525D01*
X63309499Y7175500D01*
G37*
G36*
X63944499Y2413001D02*
G01*
X63617474Y2413001D01*
X63617474Y2740026D01*
X63944499Y2740026D01*
X63944499Y2413001D01*
G37*
G36*
X57277000Y6540500D02*
G01*
X56949975Y6540500D01*
X56949975Y6867525D01*
X57277000Y6867525D01*
X57277000Y6540500D01*
G37*
G36*
X63309499Y5270501D02*
G01*
X62982474Y5270501D01*
X62982474Y5597525D01*
X63309499Y5597525D01*
X63309499Y5270501D01*
G37*
G36*
X65214499Y2730501D02*
G01*
X64887475Y2730501D01*
X64887475Y3057525D01*
X65214499Y3057525D01*
X65214499Y2730501D01*
G37*
G36*
X64261999Y3048001D02*
G01*
X63934975Y3048001D01*
X63934975Y3375026D01*
X64261999Y3375026D01*
X64261999Y3048001D01*
G37*
G36*
X61087000Y9715500D02*
G01*
X60759975Y9715500D01*
X60759975Y10042525D01*
X61087000Y10042525D01*
X61087000Y9715500D01*
G37*
G36*
X60769500Y6858000D02*
G01*
X60442475Y6858000D01*
X60442475Y7185025D01*
X60769500Y7185025D01*
X60769500Y6858000D01*
G37*
D11*
X26339258Y56769000D02*
X26360811Y56767534D01*
X26381957Y56765091D01*
X26402694Y56761671D01*
X26423024Y56757274D01*
X26442945Y56751900D01*
X26462458Y56745549D01*
X26481563Y56738221D01*
X26500260Y56729917D01*
X26518549Y56720636D01*
X26536430Y56710379D01*
X26553903Y56699145D01*
X26570968Y56686935D01*
X26587625Y56673748D01*
X26603874Y56659585D01*
X26619715Y56644446D01*
X26634854Y56628606D01*
X26649016Y56612359D01*
X26662203Y56595704D01*
X26674413Y56578642D01*
X26685647Y56561172D01*
X26695905Y56543294D01*
X26705186Y56525008D01*
X26713490Y56506314D01*
X26720817Y56487210D01*
X26727168Y56467698D01*
X26732542Y56447777D01*
X26736940Y56427447D01*
X26740360Y56406707D01*
X26742803Y56385557D01*
X26744269Y56363997D01*
X26744757Y56342027D01*
X26744757Y55923668D01*
X26744269Y55901706D01*
X26742803Y55880151D01*
X26740360Y55859003D01*
X26736940Y55838263D01*
X26732543Y55817930D01*
X26727169Y55798006D01*
X26720818Y55778489D01*
X26713490Y55759381D01*
X26705186Y55740682D01*
X26695905Y55722392D01*
X26685648Y55704510D01*
X26674414Y55687038D01*
X26662203Y55669976D01*
X26649017Y55653324D01*
X26634854Y55637081D01*
X26619715Y55621249D01*
X26603875Y55606102D01*
X26587627Y55591933D01*
X26570973Y55578742D01*
X26553910Y55566529D01*
X26536441Y55555294D01*
X26518563Y55545036D01*
X26500277Y55535757D01*
X26481583Y55527455D01*
X26462480Y55520130D01*
X26442968Y55513782D01*
X26423047Y55508411D01*
X26402716Y55504017D01*
X26381976Y55500600D01*
X26360826Y55498159D01*
X26339267Y55496694D01*
X26317296Y55496206D01*
X26299939Y55496508D01*
X26282830Y55497412D01*
X26265971Y55498920D01*
X26249361Y55501031D01*
X26232999Y55503746D01*
X26216887Y55507064D01*
X26201023Y55510987D01*
X26185408Y55515514D01*
X26170042Y55520646D01*
X26154924Y55526383D01*
X26140055Y55532725D01*
X26125435Y55539672D01*
X26111062Y55547224D01*
X26096938Y55555383D01*
X26083062Y55564147D01*
X26069434Y55573518D01*
X26069434Y55131294D01*
X25887560Y55051654D01*
X25887560Y56338588D01*
X26069380Y56338588D01*
X26069380Y55927055D01*
X26069434Y55927055D01*
X26069732Y55914111D01*
X26070623Y55901434D01*
X26072109Y55889024D01*
X26074189Y55876880D01*
X26076864Y55865003D01*
X26080133Y55853392D01*
X26083998Y55842049D01*
X26088458Y55830971D01*
X26093513Y55820161D01*
X26099164Y55809617D01*
X26105410Y55799340D01*
X26112252Y55789330D01*
X26119690Y55779586D01*
X26127724Y55770109D01*
X26136355Y55760898D01*
X26145581Y55751954D01*
X26155329Y55743284D01*
X26165246Y55735171D01*
X26175332Y55727617D01*
X26185586Y55720622D01*
X26196009Y55714185D01*
X26206601Y55708307D01*
X26217361Y55702989D01*
X26228290Y55698229D01*
X26239388Y55694029D01*
X26250654Y55690389D01*
X26262089Y55687308D01*
X26273693Y55684787D01*
X26285465Y55682826D01*
X26297406Y55681425D01*
X26309516Y55680584D01*
X26321794Y55680304D01*
X26333641Y55680583D01*
X26345311Y55681423D01*
X26356804Y55682821D01*
X26368119Y55684779D01*
X26379257Y55687297D01*
X26390218Y55690375D01*
X26401001Y55694013D01*
X26411607Y55698210D01*
X26422035Y55702967D01*
X26432286Y55708285D01*
X26442360Y55714162D01*
X26452257Y55720600D01*
X26461976Y55727598D01*
X26471517Y55735156D01*
X26480882Y55743275D01*
X26490069Y55751954D01*
X26498613Y55760759D01*
X26506623Y55769850D01*
X26514101Y55779227D01*
X26521045Y55788890D01*
X26527457Y55798839D01*
X26533335Y55809073D01*
X26538681Y55819592D01*
X26543494Y55830396D01*
X26547775Y55841484D01*
X26551522Y55852858D01*
X26554738Y55864515D01*
X26557421Y55876456D01*
X26559571Y55888681D01*
X26561189Y55901189D01*
X26562275Y55913981D01*
X26562829Y55927055D01*
X26562829Y56338588D01*
X26562275Y56351662D01*
X26561189Y56364452D01*
X26559571Y56376957D01*
X26557421Y56389179D01*
X26554738Y56401117D01*
X26551522Y56412771D01*
X26547775Y56424141D01*
X26543494Y56435227D01*
X26538681Y56446029D01*
X26533335Y56456547D01*
X26527457Y56466780D01*
X26521045Y56476730D01*
X26514101Y56486396D01*
X26506623Y56495777D01*
X26498613Y56504875D01*
X26490069Y56513688D01*
X26480829Y56522359D01*
X26471306Y56530471D01*
X26461500Y56538025D01*
X26451410Y56545021D01*
X26441037Y56551457D01*
X26430380Y56557335D01*
X26419439Y56562653D01*
X26408213Y56567413D01*
X26396703Y56571613D01*
X26384907Y56575253D01*
X26372827Y56578334D01*
X26360461Y56580855D01*
X26347810Y56582816D01*
X26334873Y56584217D01*
X26321650Y56585058D01*
X26308141Y56585338D01*
X26296298Y56585059D01*
X26284641Y56584220D01*
X26273170Y56582821D01*
X26261886Y56580863D01*
X26250788Y56578345D01*
X26239876Y56575267D01*
X26229151Y56571630D01*
X26218612Y56567433D01*
X26208260Y56562675D01*
X26198095Y56557358D01*
X26188117Y56551480D01*
X26178325Y56545043D01*
X26168721Y56538045D01*
X26159303Y56530486D01*
X26150073Y56522368D01*
X26141030Y56513688D01*
X26132490Y56504762D01*
X26124492Y56495625D01*
X26117036Y56486277D01*
X26110122Y56476717D01*
X26103750Y56466946D01*
X26097919Y56456962D01*
X26092629Y56446766D01*
X26087881Y56436358D01*
X26083675Y56425737D01*
X26080010Y56414903D01*
X26076885Y56403856D01*
X26074302Y56392595D01*
X26072261Y56381121D01*
X26070760Y56369433D01*
X26069800Y56357531D01*
X26069380Y56345414D01*
X26069380Y56338588D01*
X25887560Y56338588D01*
X25887560Y56342027D01*
X25887636Y56345414D01*
X25888053Y56363989D01*
X25889532Y56385542D01*
X25891997Y56406688D01*
X25895448Y56427425D01*
X25899885Y56447755D01*
X25905308Y56467676D01*
X25911717Y56487189D01*
X25919112Y56506295D01*
X25927492Y56524992D01*
X25936859Y56543281D01*
X25947212Y56561162D01*
X25958551Y56578635D01*
X25970876Y56595700D01*
X25984186Y56612357D01*
X25998483Y56628606D01*
X26013766Y56644446D01*
X26029741Y56659585D01*
X26046116Y56673748D01*
X26062890Y56686935D01*
X26080064Y56699145D01*
X26097637Y56710379D01*
X26115609Y56720636D01*
X26133981Y56729917D01*
X26152751Y56738221D01*
X26171922Y56745549D01*
X26191492Y56751900D01*
X26211461Y56757274D01*
X26231829Y56761671D01*
X26252597Y56765091D01*
X26273764Y56767534D01*
X26295330Y56769000D01*
X26317296Y56769488D01*
X26339258Y56769000D01*
D10*
G36*
X64261999Y8445500D02*
G01*
X63934975Y8445500D01*
X63934975Y8772525D01*
X64261999Y8772525D01*
X64261999Y8445500D01*
G37*
G36*
X61722000Y5270501D02*
G01*
X61394975Y5270501D01*
X61394975Y5597525D01*
X61722000Y5597525D01*
X61722000Y5270501D01*
G37*
G36*
X62991999Y10985500D02*
G01*
X62664975Y10985500D01*
X62664975Y11312525D01*
X62991999Y11312525D01*
X62991999Y10985500D01*
G37*
G36*
X36330189Y56733279D02*
G01*
X36351742Y56731813D01*
X36372888Y56729370D01*
X36393625Y56725950D01*
X36413954Y56721553D01*
X36433875Y56716179D01*
X36453389Y56709828D01*
X36472494Y56702500D01*
X36491191Y56694196D01*
X36509480Y56684915D01*
X36527361Y56674657D01*
X36544834Y56663424D01*
X36561899Y56651213D01*
X36578556Y56638027D01*
X36594805Y56623864D01*
X36610646Y56608725D01*
X36625785Y56592884D01*
X36639947Y56576637D01*
X36653134Y56559983D01*
X36665344Y56542920D01*
X36676578Y56525451D01*
X36686835Y56507573D01*
X36696116Y56489287D01*
X36704420Y56470592D01*
X36711748Y56451489D01*
X36718099Y56431977D01*
X36723472Y56412056D01*
X36727870Y56391726D01*
X36731290Y56370986D01*
X36733733Y56349836D01*
X36735198Y56328276D01*
X36735687Y56306306D01*
X36735687Y55540072D01*
X36553761Y55460486D01*
X36553761Y56098343D01*
X36178846Y55945784D01*
X36164659Y55938622D01*
X36151385Y55931165D01*
X36139026Y55923413D01*
X36127582Y55915365D01*
X36117052Y55907023D01*
X36107436Y55898385D01*
X36098736Y55889452D01*
X36090951Y55880223D01*
X36084081Y55870700D01*
X36078127Y55860881D01*
X36075493Y55855861D01*
X36073088Y55850767D01*
X36070912Y55845599D01*
X36068965Y55840357D01*
X36067247Y55835042D01*
X36065758Y55829653D01*
X36064498Y55824190D01*
X36063467Y55818653D01*
X36062666Y55813043D01*
X36062093Y55807359D01*
X36061635Y55795768D01*
X36061750Y55791037D01*
X36062096Y55786288D01*
X36062673Y55781521D01*
X36063481Y55776737D01*
X36064520Y55771936D01*
X36065790Y55767116D01*
X36067291Y55762279D01*
X36069023Y55757424D01*
X36070987Y55752551D01*
X36073182Y55747659D01*
X36075609Y55742750D01*
X36078267Y55737823D01*
X36081156Y55732877D01*
X36084277Y55727913D01*
X36087630Y55722930D01*
X36091215Y55717929D01*
X36098294Y55709057D01*
X36102022Y55704835D01*
X36105877Y55700756D01*
X36109858Y55696820D01*
X36113966Y55693028D01*
X36118200Y55689378D01*
X36122560Y55685871D01*
X36127046Y55682508D01*
X36131659Y55679287D01*
X36141264Y55673275D01*
X36151374Y55667835D01*
X36161991Y55662967D01*
X36173113Y55658672D01*
X36184742Y55654949D01*
X36196877Y55651799D01*
X36209518Y55649221D01*
X36222666Y55647216D01*
X36236321Y55645784D01*
X36250483Y55644924D01*
X36265152Y55644638D01*
X36274174Y55644771D01*
X36283065Y55645171D01*
X36291825Y55645838D01*
X36300452Y55646771D01*
X36308947Y55647971D01*
X36317310Y55649437D01*
X36325541Y55651171D01*
X36333639Y55653171D01*
X36341605Y55655437D01*
X36349437Y55657970D01*
X36357137Y55660770D01*
X36364703Y55663836D01*
X36372136Y55667170D01*
X36379436Y55670769D01*
X36386602Y55674636D01*
X36393634Y55678769D01*
X36461844Y55507107D01*
X36450685Y55501456D01*
X36439375Y55496170D01*
X36427914Y55491250D01*
X36416302Y55486696D01*
X36404538Y55482507D01*
X36392623Y55478682D01*
X36380557Y55475223D01*
X36368339Y55472129D01*
X36355970Y55469399D01*
X36343450Y55467034D01*
X36330779Y55465033D01*
X36317956Y55463396D01*
X36304982Y55462123D01*
X36291857Y55461214D01*
X36278580Y55460669D01*
X36265152Y55460487D01*
X36243990Y55460975D01*
X36223128Y55462439D01*
X36202567Y55464880D01*
X36182306Y55468297D01*
X36162347Y55472691D01*
X36142689Y55478062D01*
X36123333Y55484410D01*
X36104279Y55491735D01*
X36085526Y55500037D01*
X36067076Y55509316D01*
X36048928Y55519574D01*
X36031083Y55530809D01*
X36013540Y55543022D01*
X35996301Y55556213D01*
X35979365Y55570382D01*
X35962733Y55585530D01*
X35951997Y55597006D01*
X35941952Y55608695D01*
X35932600Y55620597D01*
X35923939Y55632710D01*
X35915972Y55645037D01*
X35908696Y55657576D01*
X35902114Y55670328D01*
X35896223Y55683294D01*
X35891026Y55696473D01*
X35886521Y55709865D01*
X35882709Y55723471D01*
X35879590Y55737290D01*
X35877164Y55751324D01*
X35875431Y55765571D01*
X35874391Y55780033D01*
X35874045Y55794710D01*
X35874045Y55803758D01*
X35874894Y55829767D01*
X35877443Y55854811D01*
X35881691Y55878890D01*
X35887638Y55902004D01*
X35895285Y55924153D01*
X35899746Y55934865D01*
X35904632Y55945336D01*
X35909942Y55955566D01*
X35915677Y55965554D01*
X35921838Y55975301D01*
X35928423Y55984806D01*
X35935433Y55994070D01*
X35942868Y56003093D01*
X35959014Y56020414D01*
X35976859Y56036770D01*
X35996403Y56052159D01*
X36017649Y56066583D01*
X36040594Y56080041D01*
X36065239Y56092533D01*
X36091585Y56104059D01*
X36553865Y56294929D01*
X36553585Y56308288D01*
X36552746Y56321378D01*
X36551347Y56334199D01*
X36549389Y56346749D01*
X36546871Y56359030D01*
X36543794Y56371042D01*
X36540156Y56382783D01*
X36535959Y56394253D01*
X36531202Y56405454D01*
X36525885Y56416384D01*
X36520007Y56427043D01*
X36513569Y56437432D01*
X36506571Y56447550D01*
X36499013Y56457396D01*
X36490894Y56466971D01*
X36482214Y56476275D01*
X36473109Y56485157D01*
X36463712Y56493465D01*
X36454023Y56501200D01*
X36444043Y56508363D01*
X36433770Y56514952D01*
X36423206Y56520968D01*
X36412349Y56526412D01*
X36401199Y56531282D01*
X36389757Y56535579D01*
X36378022Y56539303D01*
X36365994Y56542455D01*
X36353672Y56545033D01*
X36341058Y56547038D01*
X36328150Y56548471D01*
X36314948Y56549330D01*
X36301452Y56549617D01*
X36289604Y56549337D01*
X36277933Y56548498D01*
X36266437Y56547099D01*
X36255119Y56545141D01*
X36243978Y56542623D01*
X36233014Y56539546D01*
X36222228Y56535909D01*
X36211619Y56531711D01*
X36201189Y56526954D01*
X36190936Y56521637D01*
X36180862Y56515759D01*
X36170967Y56509322D01*
X36161251Y56502324D01*
X36151714Y56494766D01*
X36142356Y56486647D01*
X36133178Y56477968D01*
X36124625Y56469154D01*
X36116606Y56460056D01*
X36109121Y56450674D01*
X36102171Y56441009D01*
X36095755Y56431059D01*
X36089874Y56420825D01*
X36084526Y56410307D01*
X36079712Y56399506D01*
X36075433Y56388420D01*
X36071687Y56377050D01*
X36068474Y56365396D01*
X36065796Y56353458D01*
X36063651Y56341237D01*
X36062040Y56328731D01*
X36060962Y56315941D01*
X36060417Y56302867D01*
X36060417Y56286938D01*
X35878491Y56206241D01*
X35878491Y56306306D01*
X35879024Y56326146D01*
X35880622Y56345880D01*
X35883285Y56365507D01*
X35887015Y56385028D01*
X35891810Y56404442D01*
X35897670Y56423750D01*
X35904597Y56442951D01*
X35912589Y56462047D01*
X35921648Y56481037D01*
X35931772Y56499920D01*
X35942962Y56518698D01*
X35955219Y56537369D01*
X35968542Y56555935D01*
X35982931Y56574396D01*
X35998387Y56592751D01*
X36014909Y56611000D01*
X36029645Y56625869D01*
X36044861Y56639779D01*
X36060556Y56652728D01*
X36076732Y56664718D01*
X36093387Y56675748D01*
X36110521Y56685819D01*
X36128135Y56694930D01*
X36146229Y56703082D01*
X36164801Y56710275D01*
X36183853Y56716508D01*
X36203385Y56721782D01*
X36223395Y56726097D01*
X36243885Y56729453D01*
X36264853Y56731850D01*
X36286301Y56733288D01*
X36308227Y56733767D01*
X36330189Y56733279D01*
G37*
G36*
X58864500Y8445500D02*
G01*
X58537475Y8445500D01*
X58537475Y8772525D01*
X58864500Y8772525D01*
X58864500Y8445500D01*
G37*
G36*
X61087000Y4318000D02*
G01*
X60759975Y4318000D01*
X60759975Y4645025D01*
X61087000Y4645025D01*
X61087000Y4318000D01*
G37*
G36*
X64579499Y7493000D02*
G01*
X64252475Y7493000D01*
X64252475Y7820025D01*
X64579499Y7820025D01*
X64579499Y7493000D01*
G37*
G36*
X61087000Y4635501D02*
G01*
X60759975Y4635501D01*
X60759975Y4962526D01*
X61087000Y4962526D01*
X61087000Y4635501D01*
G37*
G36*
X63944499Y3048001D02*
G01*
X63617474Y3048001D01*
X63617474Y3375026D01*
X63944499Y3375026D01*
X63944499Y3048001D01*
G37*
G36*
X60134500Y6540500D02*
G01*
X59807475Y6540500D01*
X59807475Y6867525D01*
X60134500Y6867525D01*
X60134500Y6540500D01*
G37*
G36*
X57277000Y6223000D02*
G01*
X56949975Y6223000D01*
X56949975Y6550025D01*
X57277000Y6550025D01*
X57277000Y6223000D01*
G37*
G36*
X61087000Y10033000D02*
G01*
X60759975Y10033000D01*
X60759975Y10360025D01*
X61087000Y10360025D01*
X61087000Y10033000D01*
G37*
G36*
X61087000Y2730501D02*
G01*
X60759975Y2730501D01*
X60759975Y3057525D01*
X61087000Y3057525D01*
X61087000Y2730501D01*
G37*
G36*
X60452000Y4953001D02*
G01*
X60124975Y4953001D01*
X60124975Y5280025D01*
X60452000Y5280025D01*
X60452000Y4953001D01*
G37*
G36*
X62357000Y6540500D02*
G01*
X62029975Y6540500D01*
X62029975Y6867525D01*
X62357000Y6867525D01*
X62357000Y6540500D01*
G37*
G36*
X59182000Y4953001D02*
G01*
X58854975Y4953001D01*
X58854975Y5280025D01*
X59182000Y5280025D01*
X59182000Y4953001D01*
G37*
G36*
X60452000Y10985500D02*
G01*
X60124975Y10985500D01*
X60124975Y11312525D01*
X60452000Y11312525D01*
X60452000Y10985500D01*
G37*
G36*
X62039500Y8763000D02*
G01*
X61712475Y8763000D01*
X61712475Y9090025D01*
X62039500Y9090025D01*
X62039500Y8763000D01*
G37*
G36*
X62357000Y6858000D02*
G01*
X62029975Y6858000D01*
X62029975Y7185025D01*
X62357000Y7185025D01*
X62357000Y6858000D01*
G37*
G36*
X61404500Y4953001D02*
G01*
X61077475Y4953001D01*
X61077475Y5280025D01*
X61404500Y5280025D01*
X61404500Y4953001D01*
G37*
G36*
X65531999Y3683001D02*
G01*
X65204974Y3683001D01*
X65204974Y4010025D01*
X65531999Y4010025D01*
X65531999Y3683001D01*
G37*
G36*
X58537475Y2422525D02*
G01*
X56314975Y2422525D01*
X56314975Y2740026D01*
X56314975Y4327526D01*
X56632475Y4327526D01*
X56632475Y2740026D01*
X58219975Y2740026D01*
X58219975Y4327526D01*
X56632475Y4327526D01*
X56314975Y4327526D01*
X56314975Y4645025D01*
X58537475Y4645025D01*
X58537475Y2422525D01*
G37*
G36*
X56642000Y7175500D02*
G01*
X56314975Y7175500D01*
X56314975Y7502525D01*
X56642000Y7502525D01*
X56642000Y7175500D01*
G37*
G36*
X59499500Y3048001D02*
G01*
X59172475Y3048001D01*
X59172475Y3375026D01*
X59499500Y3375026D01*
X59499500Y3048001D01*
G37*
G36*
X61404500Y9715500D02*
G01*
X61077475Y9715500D01*
X61077475Y10042525D01*
X61404500Y10042525D01*
X61404500Y9715500D01*
G37*
G36*
X60452000Y3048001D02*
G01*
X60124975Y3048001D01*
X60124975Y3375026D01*
X60452000Y3375026D01*
X60452000Y3048001D01*
G37*
G36*
X61404500Y8763000D02*
G01*
X61077475Y8763000D01*
X61077475Y9090025D01*
X61404500Y9090025D01*
X61404500Y8763000D01*
G37*
G36*
X61404500Y5588000D02*
G01*
X61077475Y5588000D01*
X61077475Y5915025D01*
X61404500Y5915025D01*
X61404500Y5588000D01*
G37*
G36*
X58229500Y6223000D02*
G01*
X57902475Y6223000D01*
X57902475Y6550025D01*
X58229500Y6550025D01*
X58229500Y6223000D01*
G37*
G36*
X63944499Y2730501D02*
G01*
X63617474Y2730501D01*
X63617474Y3057525D01*
X63944499Y3057525D01*
X63944499Y2730501D01*
G37*
G36*
X25146000Y56769000D02*
G01*
X25167573Y56767534D01*
X25188745Y56765091D01*
X25209515Y56761671D01*
X25229884Y56757274D01*
X25249853Y56751900D01*
X25269422Y56745549D01*
X25288590Y56738221D01*
X25307358Y56729917D01*
X25325726Y56720636D01*
X25343695Y56710379D01*
X25361265Y56699145D01*
X25378436Y56686935D01*
X25395208Y56673748D01*
X25411581Y56659585D01*
X25427556Y56644446D01*
X25442839Y56628606D01*
X25457136Y56612359D01*
X25470446Y56595704D01*
X25482771Y56578642D01*
X25494110Y56561172D01*
X25504463Y56543294D01*
X25513830Y56525008D01*
X25522210Y56506314D01*
X25529605Y56487210D01*
X25536014Y56467698D01*
X25541437Y56447777D01*
X25545874Y56427447D01*
X25549325Y56406707D01*
X25551790Y56385557D01*
X25553269Y56363997D01*
X25553762Y56342027D01*
X25553762Y55923668D01*
X25553269Y55901706D01*
X25551790Y55880151D01*
X25549325Y55859003D01*
X25545874Y55838263D01*
X25541437Y55817930D01*
X25536014Y55798006D01*
X25529605Y55778489D01*
X25522210Y55759381D01*
X25513830Y55740682D01*
X25504463Y55722392D01*
X25494110Y55704510D01*
X25482771Y55687038D01*
X25470446Y55669976D01*
X25457136Y55653324D01*
X25442839Y55637081D01*
X25427556Y55621249D01*
X25411581Y55606102D01*
X25395206Y55591933D01*
X25378432Y55578742D01*
X25361258Y55566529D01*
X25343685Y55555294D01*
X25325713Y55545036D01*
X25307341Y55535757D01*
X25288570Y55527455D01*
X25269400Y55520130D01*
X25249830Y55513782D01*
X25229861Y55508411D01*
X25209493Y55504017D01*
X25188725Y55500600D01*
X25167558Y55498159D01*
X25145992Y55496694D01*
X25124026Y55496206D01*
X25102064Y55496694D01*
X25080509Y55498159D01*
X25059362Y55500599D01*
X25038621Y55504017D01*
X25018289Y55508411D01*
X24998364Y55513781D01*
X24978848Y55520129D01*
X24959740Y55527454D01*
X24941041Y55535756D01*
X24922750Y55545036D01*
X24904869Y55555293D01*
X24887397Y55566528D01*
X24870335Y55578741D01*
X24853682Y55591932D01*
X24837440Y55606101D01*
X24821608Y55621249D01*
X24806460Y55637081D01*
X24792291Y55653322D01*
X24779100Y55669972D01*
X24766887Y55687032D01*
X24755652Y55704501D01*
X24745395Y55722379D01*
X24736115Y55740666D01*
X24727813Y55759362D01*
X24720488Y55778468D01*
X24714140Y55797983D01*
X24708769Y55817907D01*
X24704376Y55838241D01*
X24700958Y55858984D01*
X24698518Y55880136D01*
X24697053Y55901697D01*
X24696565Y55923668D01*
X24696565Y56338588D01*
X24878386Y56338588D01*
X24878386Y55927055D01*
X24878440Y55927055D01*
X24878737Y55914111D01*
X24879628Y55901434D01*
X24881114Y55889024D01*
X24883194Y55876880D01*
X24885869Y55865003D01*
X24889139Y55853392D01*
X24893003Y55842049D01*
X24897463Y55830971D01*
X24902518Y55820161D01*
X24908169Y55809617D01*
X24914415Y55799340D01*
X24921258Y55789330D01*
X24928696Y55779586D01*
X24936730Y55770109D01*
X24945360Y55760898D01*
X24954587Y55751954D01*
X24964335Y55743284D01*
X24974252Y55735171D01*
X24984337Y55727617D01*
X24994592Y55720622D01*
X25005014Y55714185D01*
X25015606Y55708307D01*
X25026366Y55702989D01*
X25037295Y55698229D01*
X25048393Y55694029D01*
X25059659Y55690389D01*
X25071094Y55687308D01*
X25082698Y55684787D01*
X25094470Y55682826D01*
X25106411Y55681425D01*
X25118521Y55680584D01*
X25130799Y55680304D01*
X25142647Y55680583D01*
X25154317Y55681423D01*
X25165809Y55682821D01*
X25177125Y55684779D01*
X25188262Y55687297D01*
X25199223Y55690375D01*
X25210006Y55694013D01*
X25220612Y55698210D01*
X25231040Y55702967D01*
X25241292Y55708285D01*
X25251365Y55714162D01*
X25261262Y55720600D01*
X25270981Y55727598D01*
X25280523Y55735156D01*
X25289887Y55743275D01*
X25299074Y55751954D01*
X25307618Y55760759D01*
X25315629Y55769850D01*
X25323106Y55779227D01*
X25330051Y55788890D01*
X25336462Y55798839D01*
X25342341Y55809073D01*
X25347687Y55819592D01*
X25352500Y55830396D01*
X25356780Y55841484D01*
X25360528Y55852858D01*
X25363743Y55864515D01*
X25366426Y55876456D01*
X25368576Y55888681D01*
X25370194Y55901189D01*
X25371280Y55913981D01*
X25371834Y55927055D01*
X25371834Y56338588D01*
X25371280Y56351662D01*
X25370194Y56364452D01*
X25368576Y56376957D01*
X25366426Y56389179D01*
X25363743Y56401117D01*
X25360528Y56412771D01*
X25356780Y56424141D01*
X25352500Y56435227D01*
X25347687Y56446029D01*
X25342341Y56456547D01*
X25336462Y56466780D01*
X25330051Y56476730D01*
X25323106Y56486396D01*
X25315629Y56495777D01*
X25307618Y56504875D01*
X25299074Y56513688D01*
X25289834Y56522359D01*
X25280311Y56530471D01*
X25270505Y56538025D01*
X25260416Y56545021D01*
X25250042Y56551457D01*
X25239385Y56557335D01*
X25228444Y56562653D01*
X25217218Y56567413D01*
X25205708Y56571613D01*
X25193913Y56575253D01*
X25181832Y56578334D01*
X25169467Y56580855D01*
X25156816Y56582816D01*
X25143878Y56584217D01*
X25130655Y56585058D01*
X25117146Y56585338D01*
X25105303Y56585059D01*
X25093646Y56584220D01*
X25082175Y56582821D01*
X25070891Y56580863D01*
X25059793Y56578345D01*
X25048881Y56575267D01*
X25038156Y56571630D01*
X25027618Y56567433D01*
X25017266Y56562675D01*
X25007101Y56557358D01*
X24997122Y56551480D01*
X24987331Y56545043D01*
X24977726Y56538045D01*
X24968309Y56530486D01*
X24959078Y56522368D01*
X24950035Y56513688D01*
X24941495Y56504762D01*
X24933498Y56495625D01*
X24926042Y56486277D01*
X24919128Y56476717D01*
X24912755Y56466946D01*
X24906924Y56456962D01*
X24901635Y56446766D01*
X24896887Y56436358D01*
X24892680Y56425737D01*
X24889015Y56414903D01*
X24885891Y56403856D01*
X24883308Y56392595D01*
X24881266Y56381121D01*
X24879765Y56369433D01*
X24878805Y56357531D01*
X24878386Y56345414D01*
X24878386Y56338588D01*
X24696565Y56338588D01*
X24696565Y56342027D01*
X24696640Y56345414D01*
X24697053Y56363989D01*
X24698519Y56385542D01*
X24700962Y56406688D01*
X24704382Y56427425D01*
X24708779Y56447755D01*
X24714153Y56467676D01*
X24720504Y56487189D01*
X24727832Y56506295D01*
X24736136Y56524992D01*
X24745417Y56543281D01*
X24755674Y56561162D01*
X24766908Y56578635D01*
X24779118Y56595700D01*
X24792305Y56612357D01*
X24806468Y56628606D01*
X24821607Y56644446D01*
X24837439Y56659585D01*
X24853679Y56673748D01*
X24870329Y56686935D01*
X24887389Y56699145D01*
X24904858Y56710379D01*
X24922735Y56720636D01*
X24941023Y56729917D01*
X24959719Y56738221D01*
X24978825Y56745549D01*
X24998340Y56751900D01*
X25018264Y56757274D01*
X25038598Y56761671D01*
X25059341Y56765091D01*
X25080493Y56767534D01*
X25102055Y56769000D01*
X25124025Y56769488D01*
X25146000Y56769000D01*
G37*
G36*
X56642000Y5905500D02*
G01*
X56314975Y5905500D01*
X56314975Y6232525D01*
X56642000Y6232525D01*
X56642000Y5905500D01*
G37*
G36*
X65214499Y6540500D02*
G01*
X64887475Y6540500D01*
X64887475Y6867525D01*
X65214499Y6867525D01*
X65214499Y6540500D01*
G37*
G36*
X63627000Y6540500D02*
G01*
X63299975Y6540500D01*
X63299975Y6867525D01*
X63627000Y6867525D01*
X63627000Y6540500D01*
G37*
G36*
X62039500Y4318000D02*
G01*
X61712475Y4318000D01*
X61712475Y4645025D01*
X62039500Y4645025D01*
X62039500Y4318000D01*
G37*
G36*
X58537475Y9407525D02*
G01*
X56314975Y9407525D01*
X56314975Y9725025D01*
X56314975Y11312525D01*
X56632475Y11312525D01*
X56632475Y9725025D01*
X58219975Y9725025D01*
X58219975Y11312525D01*
X56632475Y11312525D01*
X56314975Y11312525D01*
X56314975Y11630025D01*
X58537475Y11630025D01*
X58537475Y9407525D01*
G37*
G36*
X61722000Y3048001D02*
G01*
X61394975Y3048001D01*
X61394975Y3375026D01*
X61722000Y3375026D01*
X61722000Y3048001D01*
G37*
G36*
X64579499Y2730501D02*
G01*
X64252475Y2730501D01*
X64252475Y3057525D01*
X64579499Y3057525D01*
X64579499Y2730501D01*
G37*
G36*
X61087000Y5270501D02*
G01*
X60759975Y5270501D01*
X60759975Y5597525D01*
X61087000Y5597525D01*
X61087000Y5270501D01*
G37*
G36*
X62991999Y8763000D02*
G01*
X62664975Y8763000D01*
X62664975Y9090025D01*
X62991999Y9090025D01*
X62991999Y8763000D01*
G37*
G36*
X62357000Y3048001D02*
G01*
X62029975Y3048001D01*
X62029975Y3375026D01*
X62357000Y3375026D01*
X62357000Y3048001D01*
G37*
G36*
X60769500Y10033000D02*
G01*
X60442475Y10033000D01*
X60442475Y10360025D01*
X60769500Y10360025D01*
X60769500Y10033000D01*
G37*
G36*
X61087000Y8763000D02*
G01*
X60759975Y8763000D01*
X60759975Y9090025D01*
X61087000Y9090025D01*
X61087000Y8763000D01*
G37*
G36*
X59817000Y4318000D02*
G01*
X59489975Y4318000D01*
X59489975Y4645025D01*
X59817000Y4645025D01*
X59817000Y4318000D01*
G37*
G36*
X60452000Y2730501D02*
G01*
X60124975Y2730501D01*
X60124975Y3057525D01*
X60452000Y3057525D01*
X60452000Y2730501D01*
G37*
G36*
X60769500Y2413001D02*
G01*
X60442475Y2413001D01*
X60442475Y2740026D01*
X60769500Y2740026D01*
X60769500Y2413001D01*
G37*
G36*
X61722000Y8445500D02*
G01*
X61394975Y8445500D01*
X61394975Y8772525D01*
X61722000Y8772525D01*
X61722000Y8445500D01*
G37*
G36*
X62991999Y5270501D02*
G01*
X62664975Y5270501D01*
X62664975Y5597525D01*
X62991999Y5597525D01*
X62991999Y5270501D01*
G37*
G36*
X59182000Y3683001D02*
G01*
X58854975Y3683001D01*
X58854975Y4010025D01*
X59182000Y4010025D01*
X59182000Y3683001D01*
G37*
G36*
X58547000Y7493000D02*
G01*
X58219975Y7493000D01*
X58219975Y7820025D01*
X58547000Y7820025D01*
X58547000Y7493000D01*
G37*
G36*
X61087000Y3683001D02*
G01*
X60759975Y3683001D01*
X60759975Y4010025D01*
X61087000Y4010025D01*
X61087000Y3683001D01*
G37*
G36*
X59182000Y10350500D02*
G01*
X58854975Y10350500D01*
X58854975Y10677525D01*
X59182000Y10677525D01*
X59182000Y10350500D01*
G37*
G36*
X32589700Y65100163D02*
G01*
X32589647Y65100136D01*
X32589620Y65100122D01*
X32589592Y65100109D01*
X32668073Y65083172D01*
X32745860Y65064424D01*
X32822932Y65043890D01*
X32899268Y65021595D01*
X32974846Y64997563D01*
X33049645Y64971820D01*
X33123643Y64944390D01*
X33196818Y64915299D01*
X33269151Y64884571D01*
X33340619Y64852231D01*
X33411200Y64818305D01*
X33480874Y64782816D01*
X33549619Y64745791D01*
X33617414Y64707254D01*
X33684237Y64667229D01*
X33750066Y64625742D01*
X34822676Y65361880D01*
X35134800Y65049649D01*
X35446925Y64737578D01*
X34720579Y63678988D01*
X34764733Y63612377D01*
X34807342Y63544675D01*
X34848382Y63475910D01*
X34887831Y63406106D01*
X34925664Y63335288D01*
X34961857Y63263481D01*
X34996388Y63190712D01*
X35029232Y63117005D01*
X35060366Y63042385D01*
X35089767Y62966879D01*
X35117410Y62890511D01*
X35143273Y62813306D01*
X35167331Y62735290D01*
X35189561Y62656488D01*
X35209940Y62576926D01*
X35228444Y62496629D01*
X36470947Y62265519D01*
X36470947Y61824007D01*
X36470947Y61382657D01*
X35251399Y61155666D01*
X35234919Y61071568D01*
X35216381Y60988231D01*
X35195812Y60905682D01*
X35173242Y60823947D01*
X35148698Y60743054D01*
X35122208Y60663029D01*
X35093801Y60583899D01*
X35063505Y60505692D01*
X35031349Y60428435D01*
X34997361Y60352154D01*
X34961568Y60276876D01*
X34924000Y60202628D01*
X34884685Y60129438D01*
X34843651Y60057332D01*
X34800926Y59986337D01*
X34756538Y59916480D01*
X35447032Y58910436D01*
X35134800Y58598311D01*
X34822676Y58286187D01*
X33829851Y58967478D01*
X33784531Y58936901D01*
X33738714Y58907024D01*
X33692403Y58877857D01*
X33645601Y58849414D01*
X33598313Y58821706D01*
X33550542Y58794744D01*
X33502292Y58768542D01*
X33453566Y58743110D01*
X32755689Y60429534D01*
X32841418Y60485718D01*
X32923276Y60547043D01*
X33001032Y60613281D01*
X33074458Y60684203D01*
X33143326Y60759579D01*
X33207406Y60839182D01*
X33266469Y60922783D01*
X33320287Y61010152D01*
X33368630Y61101061D01*
X33411270Y61195281D01*
X33447979Y61292583D01*
X33478526Y61392738D01*
X33502683Y61495518D01*
X33520222Y61600694D01*
X33530913Y61708037D01*
X33534527Y61817318D01*
X33532412Y61900956D01*
X33526135Y61983497D01*
X33515797Y62064837D01*
X33501502Y62144876D01*
X33483351Y62223511D01*
X33461447Y62300640D01*
X33435891Y62376160D01*
X33406786Y62449970D01*
X33374234Y62521967D01*
X33338338Y62592050D01*
X33299199Y62660115D01*
X33256919Y62726062D01*
X33211602Y62789787D01*
X33163348Y62851189D01*
X33112261Y62910165D01*
X33058441Y62966614D01*
X33001993Y63020433D01*
X32943017Y63071520D01*
X32881616Y63119773D01*
X32817892Y63165090D01*
X32751947Y63207369D01*
X32683884Y63246507D01*
X32613805Y63282402D01*
X32541811Y63314952D01*
X32468005Y63344056D01*
X32392489Y63369611D01*
X32315366Y63391514D01*
X32236738Y63409664D01*
X32156706Y63423958D01*
X32075373Y63434295D01*
X31992841Y63440572D01*
X31909212Y63442687D01*
X31825569Y63440572D01*
X31743024Y63434295D01*
X31661679Y63423958D01*
X31581636Y63409664D01*
X31502997Y63391514D01*
X31425865Y63369611D01*
X31350342Y63344056D01*
X31276529Y63314952D01*
X31204529Y63282402D01*
X31134444Y63246507D01*
X31066377Y63207369D01*
X31000428Y63165090D01*
X30936701Y63119773D01*
X30875297Y63071520D01*
X30816319Y63020433D01*
X30759869Y62966614D01*
X30706049Y62910165D01*
X30654961Y62851189D01*
X30606707Y62789787D01*
X30561390Y62726062D01*
X30519111Y62660115D01*
X30479972Y62592050D01*
X30444076Y62521967D01*
X30411526Y62449970D01*
X30382422Y62376160D01*
X30356867Y62300640D01*
X30334964Y62223511D01*
X30316814Y62144876D01*
X30302519Y62064837D01*
X30292182Y61983497D01*
X30285905Y61900956D01*
X30283790Y61817318D01*
X30284699Y61762449D01*
X30287405Y61708037D01*
X30291881Y61654109D01*
X30298098Y61600694D01*
X30306027Y61547821D01*
X30315639Y61495518D01*
X30326906Y61443814D01*
X30339799Y61392738D01*
X30354289Y61342318D01*
X30370348Y61292583D01*
X30387948Y61243561D01*
X30407059Y61195281D01*
X30427652Y61147771D01*
X30449700Y61101061D01*
X30473174Y61055178D01*
X30498045Y61010152D01*
X30524283Y60966011D01*
X30551862Y60922783D01*
X30580751Y60880497D01*
X30610923Y60839182D01*
X30674999Y60759579D01*
X30743860Y60684203D01*
X30817277Y60613281D01*
X30895022Y60547043D01*
X30935445Y60515752D01*
X30976865Y60485718D01*
X31019251Y60456969D01*
X31062576Y60429534D01*
X30364644Y58743110D01*
X30315918Y58768542D01*
X30267668Y58794744D01*
X30219897Y58821706D01*
X30172609Y58849414D01*
X30125808Y58877857D01*
X30079497Y58907024D01*
X30033680Y58936901D01*
X29988361Y58967478D01*
X28995588Y58286187D01*
X28683464Y58598311D01*
X28371286Y58910436D01*
X29061726Y59916480D01*
X29017330Y59986337D01*
X28974598Y60057332D01*
X28933559Y60129438D01*
X28894242Y60202628D01*
X28856674Y60276876D01*
X28820883Y60352154D01*
X28786897Y60428435D01*
X28754745Y60505692D01*
X28724455Y60583899D01*
X28696055Y60663029D01*
X28669573Y60743054D01*
X28645037Y60823947D01*
X28622475Y60905682D01*
X28601916Y60988231D01*
X28583388Y61071568D01*
X28566918Y61155666D01*
X27347370Y61382656D01*
X27347370Y61824007D01*
X27347316Y62265519D01*
X28589820Y62496629D01*
X28608323Y62576926D01*
X28628700Y62656488D01*
X28650928Y62735290D01*
X28674983Y62813306D01*
X28700843Y62890511D01*
X28728485Y62966879D01*
X28757884Y63042385D01*
X28789017Y63117005D01*
X28821862Y63190712D01*
X28856395Y63263481D01*
X28892593Y63335288D01*
X28930432Y63406106D01*
X28969889Y63475910D01*
X29010941Y63544675D01*
X29053565Y63612377D01*
X29097737Y63678988D01*
X28371338Y64737578D01*
X28683463Y65049649D01*
X28995640Y65361880D01*
X30068143Y64625742D01*
X30133973Y64667229D01*
X30200798Y64707253D01*
X30268595Y64745791D01*
X30337343Y64782816D01*
X30407021Y64818304D01*
X30477607Y64852231D01*
X30549080Y64884571D01*
X30621418Y64915299D01*
X30694598Y64944390D01*
X30768601Y64971820D01*
X30843404Y64997563D01*
X30918986Y65021595D01*
X30995325Y65043890D01*
X31072400Y65064424D01*
X31150189Y65083172D01*
X31228670Y65100109D01*
X31228509Y65100163D01*
X31467701Y66385743D01*
X31909159Y66385743D01*
X32350564Y66385743D01*
X32589700Y65100163D01*
G37*
G36*
X58864500Y5905500D02*
G01*
X58537475Y5905500D01*
X58537475Y6232525D01*
X58864500Y6232525D01*
X58864500Y5905500D01*
G37*
G36*
X59182000Y9715500D02*
G01*
X58854975Y9715500D01*
X58854975Y10042525D01*
X59182000Y10042525D01*
X59182000Y9715500D01*
G37*
G36*
X61404500Y6540500D02*
G01*
X61077475Y6540500D01*
X61077475Y6867525D01*
X61404500Y6867525D01*
X61404500Y6540500D01*
G37*
G36*
X63944499Y6540500D02*
G01*
X63617474Y6540500D01*
X63617474Y6867525D01*
X63944499Y6867525D01*
X63944499Y6540500D01*
G37*
G36*
X59817000Y5588000D02*
G01*
X59489975Y5588000D01*
X59489975Y5915025D01*
X59817000Y5915025D01*
X59817000Y5588000D01*
G37*
G36*
X59182000Y6858000D02*
G01*
X58854975Y6858000D01*
X58854975Y7185025D01*
X59182000Y7185025D01*
X59182000Y6858000D01*
G37*
G36*
X63309499Y6858000D02*
G01*
X62982474Y6858000D01*
X62982474Y7185025D01*
X63309499Y7185025D01*
X63309499Y6858000D01*
G37*
G36*
X64579499Y7810500D02*
G01*
X64252475Y7810500D01*
X64252475Y8137525D01*
X64579499Y8137525D01*
X64579499Y7810500D01*
G37*
G36*
X62357000Y4953001D02*
G01*
X62029975Y4953001D01*
X62029975Y5280025D01*
X62357000Y5280025D01*
X62357000Y4953001D01*
G37*
D12*
X68082219Y59840617D02*
X69082219Y60173950D01*
X69082219Y60173950D02*
X68082219Y60507283D01*
X68986980Y61412045D02*
X69034600Y61364426D01*
X69034600Y61364426D02*
X69082219Y61221569D01*
X69082219Y61221569D02*
X69082219Y61126331D01*
X69082219Y61126331D02*
X69034600Y60983474D01*
X69034600Y60983474D02*
X68939361Y60888236D01*
X68939361Y60888236D02*
X68844123Y60840617D01*
X68844123Y60840617D02*
X68653647Y60792998D01*
X68653647Y60792998D02*
X68510790Y60792998D01*
X68510790Y60792998D02*
X68320314Y60840617D01*
X68320314Y60840617D02*
X68225076Y60888236D01*
X68225076Y60888236D02*
X68129838Y60983474D01*
X68129838Y60983474D02*
X68082219Y61126331D01*
X68082219Y61126331D02*
X68082219Y61221569D01*
X68082219Y61221569D02*
X68129838Y61364426D01*
X68129838Y61364426D02*
X68177457Y61412045D01*
X68986980Y62412045D02*
X69034600Y62364426D01*
X69034600Y62364426D02*
X69082219Y62221569D01*
X69082219Y62221569D02*
X69082219Y62126331D01*
X69082219Y62126331D02*
X69034600Y61983474D01*
X69034600Y61983474D02*
X68939361Y61888236D01*
X68939361Y61888236D02*
X68844123Y61840617D01*
X68844123Y61840617D02*
X68653647Y61792998D01*
X68653647Y61792998D02*
X68510790Y61792998D01*
X68510790Y61792998D02*
X68320314Y61840617D01*
X68320314Y61840617D02*
X68225076Y61888236D01*
X68225076Y61888236D02*
X68129838Y61983474D01*
X68129838Y61983474D02*
X68082219Y62126331D01*
X68082219Y62126331D02*
X68082219Y62221569D01*
X68082219Y62221569D02*
X68129838Y62364426D01*
X68129838Y62364426D02*
X68177457Y62412045D01*
X66097838Y60456483D02*
X66050219Y60361245D01*
X66050219Y60361245D02*
X66050219Y60218388D01*
X66050219Y60218388D02*
X66097838Y60075531D01*
X66097838Y60075531D02*
X66193076Y59980293D01*
X66193076Y59980293D02*
X66288314Y59932674D01*
X66288314Y59932674D02*
X66478790Y59885055D01*
X66478790Y59885055D02*
X66621647Y59885055D01*
X66621647Y59885055D02*
X66812123Y59932674D01*
X66812123Y59932674D02*
X66907361Y59980293D01*
X66907361Y59980293D02*
X67002600Y60075531D01*
X67002600Y60075531D02*
X67050219Y60218388D01*
X67050219Y60218388D02*
X67050219Y60313626D01*
X67050219Y60313626D02*
X67002600Y60456483D01*
X67002600Y60456483D02*
X66954980Y60504102D01*
X66954980Y60504102D02*
X66621647Y60504102D01*
X66621647Y60504102D02*
X66621647Y60313626D01*
X67050219Y60932674D02*
X66050219Y60932674D01*
X66050219Y60932674D02*
X67050219Y61504102D01*
X67050219Y61504102D02*
X66050219Y61504102D01*
X67050219Y61980293D02*
X66050219Y61980293D01*
X66050219Y61980293D02*
X66050219Y62218388D01*
X66050219Y62218388D02*
X66097838Y62361245D01*
X66097838Y62361245D02*
X66193076Y62456483D01*
X66193076Y62456483D02*
X66288314Y62504102D01*
X66288314Y62504102D02*
X66478790Y62551721D01*
X66478790Y62551721D02*
X66621647Y62551721D01*
X66621647Y62551721D02*
X66812123Y62504102D01*
X66812123Y62504102D02*
X66907361Y62456483D01*
X66907361Y62456483D02*
X67002600Y62361245D01*
X67002600Y62361245D02*
X67050219Y62218388D01*
X67050219Y62218388D02*
X67050219Y61980293D01*
X73047800Y60037455D02*
X73095419Y60180312D01*
X73095419Y60180312D02*
X73095419Y60418407D01*
X73095419Y60418407D02*
X73047800Y60513645D01*
X73047800Y60513645D02*
X73000180Y60561264D01*
X73000180Y60561264D02*
X72904942Y60608883D01*
X72904942Y60608883D02*
X72809704Y60608883D01*
X72809704Y60608883D02*
X72714466Y60561264D01*
X72714466Y60561264D02*
X72666847Y60513645D01*
X72666847Y60513645D02*
X72619228Y60418407D01*
X72619228Y60418407D02*
X72571609Y60227931D01*
X72571609Y60227931D02*
X72523990Y60132693D01*
X72523990Y60132693D02*
X72476371Y60085074D01*
X72476371Y60085074D02*
X72381133Y60037455D01*
X72381133Y60037455D02*
X72285895Y60037455D01*
X72285895Y60037455D02*
X72190657Y60085074D01*
X72190657Y60085074D02*
X72143038Y60132693D01*
X72143038Y60132693D02*
X72095419Y60227931D01*
X72095419Y60227931D02*
X72095419Y60466026D01*
X72095419Y60466026D02*
X72143038Y60608883D01*
X73000180Y61608883D02*
X73047800Y61561264D01*
X73047800Y61561264D02*
X73095419Y61418407D01*
X73095419Y61418407D02*
X73095419Y61323169D01*
X73095419Y61323169D02*
X73047800Y61180312D01*
X73047800Y61180312D02*
X72952561Y61085074D01*
X72952561Y61085074D02*
X72857323Y61037455D01*
X72857323Y61037455D02*
X72666847Y60989836D01*
X72666847Y60989836D02*
X72523990Y60989836D01*
X72523990Y60989836D02*
X72333514Y61037455D01*
X72333514Y61037455D02*
X72238276Y61085074D01*
X72238276Y61085074D02*
X72143038Y61180312D01*
X72143038Y61180312D02*
X72095419Y61323169D01*
X72095419Y61323169D02*
X72095419Y61418407D01*
X72095419Y61418407D02*
X72143038Y61561264D01*
X72143038Y61561264D02*
X72190657Y61608883D01*
X73095419Y62513645D02*
X73095419Y62037455D01*
X73095419Y62037455D02*
X72095419Y62037455D01*
X71066600Y59986655D02*
X71114219Y60129512D01*
X71114219Y60129512D02*
X71114219Y60367607D01*
X71114219Y60367607D02*
X71066600Y60462845D01*
X71066600Y60462845D02*
X71018980Y60510464D01*
X71018980Y60510464D02*
X70923742Y60558083D01*
X70923742Y60558083D02*
X70828504Y60558083D01*
X70828504Y60558083D02*
X70733266Y60510464D01*
X70733266Y60510464D02*
X70685647Y60462845D01*
X70685647Y60462845D02*
X70638028Y60367607D01*
X70638028Y60367607D02*
X70590409Y60177131D01*
X70590409Y60177131D02*
X70542790Y60081893D01*
X70542790Y60081893D02*
X70495171Y60034274D01*
X70495171Y60034274D02*
X70399933Y59986655D01*
X70399933Y59986655D02*
X70304695Y59986655D01*
X70304695Y59986655D02*
X70209457Y60034274D01*
X70209457Y60034274D02*
X70161838Y60081893D01*
X70161838Y60081893D02*
X70114219Y60177131D01*
X70114219Y60177131D02*
X70114219Y60415226D01*
X70114219Y60415226D02*
X70161838Y60558083D01*
X71114219Y60986655D02*
X70114219Y60986655D01*
X70114219Y60986655D02*
X70114219Y61224750D01*
X70114219Y61224750D02*
X70161838Y61367607D01*
X70161838Y61367607D02*
X70257076Y61462845D01*
X70257076Y61462845D02*
X70352314Y61510464D01*
X70352314Y61510464D02*
X70542790Y61558083D01*
X70542790Y61558083D02*
X70685647Y61558083D01*
X70685647Y61558083D02*
X70876123Y61510464D01*
X70876123Y61510464D02*
X70971361Y61462845D01*
X70971361Y61462845D02*
X71066600Y61367607D01*
X71066600Y61367607D02*
X71114219Y61224750D01*
X71114219Y61224750D02*
X71114219Y60986655D01*
X70828504Y61939036D02*
X70828504Y62415226D01*
X71114219Y61843798D02*
X70114219Y62177131D01*
X70114219Y62177131D02*
X71114219Y62510464D01*
D13*
X34657312Y5801525D02*
X34323979Y6277716D01*
X34085884Y5801525D02*
X34085884Y6801525D01*
X34085884Y6801525D02*
X34466836Y6801525D01*
X34466836Y6801525D02*
X34562074Y6753906D01*
X34562074Y6753906D02*
X34609693Y6706287D01*
X34609693Y6706287D02*
X34657312Y6611049D01*
X34657312Y6611049D02*
X34657312Y6468192D01*
X34657312Y6468192D02*
X34609693Y6372954D01*
X34609693Y6372954D02*
X34562074Y6325335D01*
X34562074Y6325335D02*
X34466836Y6277716D01*
X34466836Y6277716D02*
X34085884Y6277716D01*
X34990646Y6801525D02*
X35609693Y6801525D01*
X35609693Y6801525D02*
X35276360Y6420573D01*
X35276360Y6420573D02*
X35419217Y6420573D01*
X35419217Y6420573D02*
X35514455Y6372954D01*
X35514455Y6372954D02*
X35562074Y6325335D01*
X35562074Y6325335D02*
X35609693Y6230097D01*
X35609693Y6230097D02*
X35609693Y5992002D01*
X35609693Y5992002D02*
X35562074Y5896764D01*
X35562074Y5896764D02*
X35514455Y5849144D01*
X35514455Y5849144D02*
X35419217Y5801525D01*
X35419217Y5801525D02*
X35133503Y5801525D01*
X35133503Y5801525D02*
X35038265Y5849144D01*
X35038265Y5849144D02*
X34990646Y5896764D01*
X36038265Y5801525D02*
X36038265Y6801525D01*
X36038265Y6801525D02*
X36371598Y6087240D01*
X36371598Y6087240D02*
X36704931Y6801525D01*
X36704931Y6801525D02*
X36704931Y5801525D01*
X37704931Y5801525D02*
X37133503Y5801525D01*
X37419217Y5801525D02*
X37419217Y6801525D01*
X37419217Y6801525D02*
X37323979Y6658668D01*
X37323979Y6658668D02*
X37228741Y6563430D01*
X37228741Y6563430D02*
X37133503Y6515811D01*
X38038265Y6801525D02*
X38704931Y5801525D01*
X38704931Y6801525D02*
X38038265Y5801525D01*
X38990646Y6801525D02*
X39657312Y5801525D01*
X39657312Y6801525D02*
X38990646Y5801525D01*
X39943027Y6801525D02*
X40609693Y5801525D01*
X40609693Y6801525D02*
X39943027Y5801525D01*
X42704932Y6801525D02*
X42800170Y6801525D01*
X42800170Y6801525D02*
X42895408Y6753906D01*
X42895408Y6753906D02*
X42943027Y6706287D01*
X42943027Y6706287D02*
X42990646Y6611049D01*
X42990646Y6611049D02*
X43038265Y6420573D01*
X43038265Y6420573D02*
X43038265Y6182478D01*
X43038265Y6182478D02*
X42990646Y5992002D01*
X42990646Y5992002D02*
X42943027Y5896764D01*
X42943027Y5896764D02*
X42895408Y5849144D01*
X42895408Y5849144D02*
X42800170Y5801525D01*
X42800170Y5801525D02*
X42704932Y5801525D01*
X42704932Y5801525D02*
X42609694Y5849144D01*
X42609694Y5849144D02*
X42562075Y5896764D01*
X42562075Y5896764D02*
X42514456Y5992002D01*
X42514456Y5992002D02*
X42466837Y6182478D01*
X42466837Y6182478D02*
X42466837Y6420573D01*
X42466837Y6420573D02*
X42514456Y6611049D01*
X42514456Y6611049D02*
X42562075Y6706287D01*
X42562075Y6706287D02*
X42609694Y6753906D01*
X42609694Y6753906D02*
X42704932Y6801525D01*
X43371599Y5801525D02*
X43895408Y6468192D01*
X43371599Y6468192D02*
X43895408Y5801525D01*
X44466837Y6801525D02*
X44562075Y6801525D01*
X44562075Y6801525D02*
X44657313Y6753906D01*
X44657313Y6753906D02*
X44704932Y6706287D01*
X44704932Y6706287D02*
X44752551Y6611049D01*
X44752551Y6611049D02*
X44800170Y6420573D01*
X44800170Y6420573D02*
X44800170Y6182478D01*
X44800170Y6182478D02*
X44752551Y5992002D01*
X44752551Y5992002D02*
X44704932Y5896764D01*
X44704932Y5896764D02*
X44657313Y5849144D01*
X44657313Y5849144D02*
X44562075Y5801525D01*
X44562075Y5801525D02*
X44466837Y5801525D01*
X44466837Y5801525D02*
X44371599Y5849144D01*
X44371599Y5849144D02*
X44323980Y5896764D01*
X44323980Y5896764D02*
X44276361Y5992002D01*
X44276361Y5992002D02*
X44228742Y6182478D01*
X44228742Y6182478D02*
X44228742Y6420573D01*
X44228742Y6420573D02*
X44276361Y6611049D01*
X44276361Y6611049D02*
X44323980Y6706287D01*
X44323980Y6706287D02*
X44371599Y6753906D01*
X44371599Y6753906D02*
X44466837Y6801525D01*
X45752551Y5801525D02*
X45181123Y5801525D01*
X45466837Y5801525D02*
X45466837Y6801525D01*
X45466837Y6801525D02*
X45371599Y6658668D01*
X45371599Y6658668D02*
X45276361Y6563430D01*
X45276361Y6563430D02*
X45181123Y6515811D01*
X34562074Y4191581D02*
X34085884Y4191581D01*
X34085884Y4191581D02*
X34085884Y5191581D01*
X35466836Y4286820D02*
X35419217Y4239200D01*
X35419217Y4239200D02*
X35276360Y4191581D01*
X35276360Y4191581D02*
X35181122Y4191581D01*
X35181122Y4191581D02*
X35038265Y4239200D01*
X35038265Y4239200D02*
X34943027Y4334439D01*
X34943027Y4334439D02*
X34895408Y4429677D01*
X34895408Y4429677D02*
X34847789Y4620153D01*
X34847789Y4620153D02*
X34847789Y4763010D01*
X34847789Y4763010D02*
X34895408Y4953486D01*
X34895408Y4953486D02*
X34943027Y5048724D01*
X34943027Y5048724D02*
X35038265Y5143962D01*
X35038265Y5143962D02*
X35181122Y5191581D01*
X35181122Y5191581D02*
X35276360Y5191581D01*
X35276360Y5191581D02*
X35419217Y5143962D01*
X35419217Y5143962D02*
X35466836Y5096343D01*
X35895408Y4191581D02*
X35895408Y5191581D01*
X35895408Y5191581D02*
X36133503Y5191581D01*
X36133503Y5191581D02*
X36276360Y5143962D01*
X36276360Y5143962D02*
X36371598Y5048724D01*
X36371598Y5048724D02*
X36419217Y4953486D01*
X36419217Y4953486D02*
X36466836Y4763010D01*
X36466836Y4763010D02*
X36466836Y4620153D01*
X36466836Y4620153D02*
X36419217Y4429677D01*
X36419217Y4429677D02*
X36371598Y4334439D01*
X36371598Y4334439D02*
X36276360Y4239200D01*
X36276360Y4239200D02*
X36133503Y4191581D01*
X36133503Y4191581D02*
X35895408Y4191581D01*
X36895408Y4572534D02*
X37657313Y4572534D01*
X38133503Y4715391D02*
X38466836Y4715391D01*
X38609693Y4191581D02*
X38133503Y4191581D01*
X38133503Y4191581D02*
X38133503Y5191581D01*
X38133503Y5191581D02*
X38609693Y5191581D01*
X39038265Y4191581D02*
X39038265Y5191581D01*
X39038265Y5191581D02*
X39609693Y4191581D01*
X39609693Y4191581D02*
X39609693Y5191581D01*
X40657312Y4286820D02*
X40609693Y4239200D01*
X40609693Y4239200D02*
X40466836Y4191581D01*
X40466836Y4191581D02*
X40371598Y4191581D01*
X40371598Y4191581D02*
X40228741Y4239200D01*
X40228741Y4239200D02*
X40133503Y4334439D01*
X40133503Y4334439D02*
X40085884Y4429677D01*
X40085884Y4429677D02*
X40038265Y4620153D01*
X40038265Y4620153D02*
X40038265Y4763010D01*
X40038265Y4763010D02*
X40085884Y4953486D01*
X40085884Y4953486D02*
X40133503Y5048724D01*
X40133503Y5048724D02*
X40228741Y5143962D01*
X40228741Y5143962D02*
X40371598Y5191581D01*
X40371598Y5191581D02*
X40466836Y5191581D01*
X40466836Y5191581D02*
X40609693Y5143962D01*
X40609693Y5143962D02*
X40657312Y5096343D01*
X41276360Y5191581D02*
X41466836Y5191581D01*
X41466836Y5191581D02*
X41562074Y5143962D01*
X41562074Y5143962D02*
X41657312Y5048724D01*
X41657312Y5048724D02*
X41704931Y4858248D01*
X41704931Y4858248D02*
X41704931Y4524915D01*
X41704931Y4524915D02*
X41657312Y4334439D01*
X41657312Y4334439D02*
X41562074Y4239200D01*
X41562074Y4239200D02*
X41466836Y4191581D01*
X41466836Y4191581D02*
X41276360Y4191581D01*
X41276360Y4191581D02*
X41181122Y4239200D01*
X41181122Y4239200D02*
X41085884Y4334439D01*
X41085884Y4334439D02*
X41038265Y4524915D01*
X41038265Y4524915D02*
X41038265Y4858248D01*
X41038265Y4858248D02*
X41085884Y5048724D01*
X41085884Y5048724D02*
X41181122Y5143962D01*
X41181122Y5143962D02*
X41276360Y5191581D01*
X42133503Y4191581D02*
X42133503Y5191581D01*
X42133503Y5191581D02*
X42371598Y5191581D01*
X42371598Y5191581D02*
X42514455Y5143962D01*
X42514455Y5143962D02*
X42609693Y5048724D01*
X42609693Y5048724D02*
X42657312Y4953486D01*
X42657312Y4953486D02*
X42704931Y4763010D01*
X42704931Y4763010D02*
X42704931Y4620153D01*
X42704931Y4620153D02*
X42657312Y4429677D01*
X42657312Y4429677D02*
X42609693Y4334439D01*
X42609693Y4334439D02*
X42514455Y4239200D01*
X42514455Y4239200D02*
X42371598Y4191581D01*
X42371598Y4191581D02*
X42133503Y4191581D01*
X43133503Y4715391D02*
X43466836Y4715391D01*
X43609693Y4191581D02*
X43133503Y4191581D01*
X43133503Y4191581D02*
X43133503Y5191581D01*
X43133503Y5191581D02*
X43609693Y5191581D01*
X44609693Y4191581D02*
X44276360Y4667772D01*
X44038265Y4191581D02*
X44038265Y5191581D01*
X44038265Y5191581D02*
X44419217Y5191581D01*
X44419217Y5191581D02*
X44514455Y5143962D01*
X44514455Y5143962D02*
X44562074Y5096343D01*
X44562074Y5096343D02*
X44609693Y5001105D01*
X44609693Y5001105D02*
X44609693Y4858248D01*
X44609693Y4858248D02*
X44562074Y4763010D01*
X44562074Y4763010D02*
X44514455Y4715391D01*
X44514455Y4715391D02*
X44419217Y4667772D01*
X44419217Y4667772D02*
X44038265Y4667772D01*
X44990646Y4239200D02*
X45133503Y4191581D01*
X45133503Y4191581D02*
X45371598Y4191581D01*
X45371598Y4191581D02*
X45466836Y4239200D01*
X45466836Y4239200D02*
X45514455Y4286820D01*
X45514455Y4286820D02*
X45562074Y4382058D01*
X45562074Y4382058D02*
X45562074Y4477296D01*
X45562074Y4477296D02*
X45514455Y4572534D01*
X45514455Y4572534D02*
X45466836Y4620153D01*
X45466836Y4620153D02*
X45371598Y4667772D01*
X45371598Y4667772D02*
X45181122Y4715391D01*
X45181122Y4715391D02*
X45085884Y4763010D01*
X45085884Y4763010D02*
X45038265Y4810629D01*
X45038265Y4810629D02*
X44990646Y4905867D01*
X44990646Y4905867D02*
X44990646Y5001105D01*
X44990646Y5001105D02*
X45038265Y5096343D01*
X45038265Y5096343D02*
X45085884Y5143962D01*
X45085884Y5143962D02*
X45181122Y5191581D01*
X45181122Y5191581D02*
X45419217Y5191581D01*
X45419217Y5191581D02*
X45562074Y5143962D01*
X46657313Y4858248D02*
X46895408Y4191581D01*
X46895408Y4191581D02*
X47133503Y4858248D01*
X48038265Y4191581D02*
X47466837Y4191581D01*
X47752551Y4191581D02*
X47752551Y5191581D01*
X47752551Y5191581D02*
X47657313Y5048724D01*
X47657313Y5048724D02*
X47562075Y4953486D01*
X47562075Y4953486D02*
X47466837Y4905867D01*
X48466837Y4286820D02*
X48514456Y4239200D01*
X48514456Y4239200D02*
X48466837Y4191581D01*
X48466837Y4191581D02*
X48419218Y4239200D01*
X48419218Y4239200D02*
X48466837Y4286820D01*
X48466837Y4286820D02*
X48466837Y4191581D01*
X48847789Y5191581D02*
X49466836Y5191581D01*
X49466836Y5191581D02*
X49133503Y4810629D01*
X49133503Y4810629D02*
X49276360Y4810629D01*
X49276360Y4810629D02*
X49371598Y4763010D01*
X49371598Y4763010D02*
X49419217Y4715391D01*
X49419217Y4715391D02*
X49466836Y4620153D01*
X49466836Y4620153D02*
X49466836Y4382058D01*
X49466836Y4382058D02*
X49419217Y4286820D01*
X49419217Y4286820D02*
X49371598Y4239200D01*
X49371598Y4239200D02*
X49276360Y4191581D01*
X49276360Y4191581D02*
X48990646Y4191581D01*
X48990646Y4191581D02*
X48895408Y4239200D01*
X48895408Y4239200D02*
X48847789Y4286820D01*
D14*
X81901167Y65389400D02*
X82044024Y65341781D01*
X82044024Y65341781D02*
X82282119Y65341781D01*
X82282119Y65341781D02*
X82377357Y65389400D01*
X82377357Y65389400D02*
X82424976Y65437020D01*
X82424976Y65437020D02*
X82472595Y65532258D01*
X82472595Y65532258D02*
X82472595Y65627496D01*
X82472595Y65627496D02*
X82424976Y65722734D01*
X82424976Y65722734D02*
X82377357Y65770353D01*
X82377357Y65770353D02*
X82282119Y65817972D01*
X82282119Y65817972D02*
X82091643Y65865591D01*
X82091643Y65865591D02*
X81996405Y65913210D01*
X81996405Y65913210D02*
X81948786Y65960829D01*
X81948786Y65960829D02*
X81901167Y66056067D01*
X81901167Y66056067D02*
X81901167Y66151305D01*
X81901167Y66151305D02*
X81948786Y66246543D01*
X81948786Y66246543D02*
X81996405Y66294162D01*
X81996405Y66294162D02*
X82091643Y66341781D01*
X82091643Y66341781D02*
X82329738Y66341781D01*
X82329738Y66341781D02*
X82472595Y66294162D01*
X82805929Y66341781D02*
X83044024Y65341781D01*
X83044024Y65341781D02*
X83234500Y66056067D01*
X83234500Y66056067D02*
X83424976Y65341781D01*
X83424976Y65341781D02*
X83663072Y66341781D01*
X83948786Y66341781D02*
X84567833Y66341781D01*
X84567833Y66341781D02*
X84234500Y65960829D01*
X84234500Y65960829D02*
X84377357Y65960829D01*
X84377357Y65960829D02*
X84472595Y65913210D01*
X84472595Y65913210D02*
X84520214Y65865591D01*
X84520214Y65865591D02*
X84567833Y65770353D01*
X84567833Y65770353D02*
X84567833Y65532258D01*
X84567833Y65532258D02*
X84520214Y65437020D01*
X84520214Y65437020D02*
X84472595Y65389400D01*
X84472595Y65389400D02*
X84377357Y65341781D01*
X84377357Y65341781D02*
X84091643Y65341781D01*
X84091643Y65341781D02*
X83996405Y65389400D01*
X83996405Y65389400D02*
X83948786Y65437020D01*
D13*
X79398095Y39953781D02*
X79398095Y39144258D01*
X79398095Y39144258D02*
X79445714Y39049020D01*
X79445714Y39049020D02*
X79493333Y39001400D01*
X79493333Y39001400D02*
X79588571Y38953781D01*
X79588571Y38953781D02*
X79779047Y38953781D01*
X79779047Y38953781D02*
X79874285Y39001400D01*
X79874285Y39001400D02*
X79921904Y39049020D01*
X79921904Y39049020D02*
X79969523Y39144258D01*
X79969523Y39144258D02*
X79969523Y39953781D01*
X80350476Y39953781D02*
X80969523Y39953781D01*
X80969523Y39953781D02*
X80636190Y39572829D01*
X80636190Y39572829D02*
X80779047Y39572829D01*
X80779047Y39572829D02*
X80874285Y39525210D01*
X80874285Y39525210D02*
X80921904Y39477591D01*
X80921904Y39477591D02*
X80969523Y39382353D01*
X80969523Y39382353D02*
X80969523Y39144258D01*
X80969523Y39144258D02*
X80921904Y39049020D01*
X80921904Y39049020D02*
X80874285Y39001400D01*
X80874285Y39001400D02*
X80779047Y38953781D01*
X80779047Y38953781D02*
X80493333Y38953781D01*
X80493333Y38953781D02*
X80398095Y39001400D01*
X80398095Y39001400D02*
X80350476Y39049020D01*
D14*
X93360095Y9887181D02*
X93360095Y10887181D01*
X93360095Y10410991D02*
X93931523Y10410991D01*
X93931523Y9887181D02*
X93931523Y10887181D01*
X94836285Y10553848D02*
X94836285Y9887181D01*
X94598190Y10934800D02*
X94360095Y10220515D01*
X94360095Y10220515D02*
X94979142Y10220515D01*
X87253009Y18127715D02*
X87253009Y18461048D01*
X87776819Y18603905D02*
X87776819Y18127715D01*
X87776819Y18127715D02*
X86776819Y18127715D01*
X86776819Y18127715D02*
X86776819Y18603905D01*
X87776819Y19032477D02*
X86776819Y19032477D01*
X86776819Y19032477D02*
X87776819Y19603905D01*
X87776819Y19603905D02*
X86776819Y19603905D01*
X87681580Y20651524D02*
X87729200Y20603905D01*
X87729200Y20603905D02*
X87776819Y20461048D01*
X87776819Y20461048D02*
X87776819Y20365810D01*
X87776819Y20365810D02*
X87729200Y20222953D01*
X87729200Y20222953D02*
X87633961Y20127715D01*
X87633961Y20127715D02*
X87538723Y20080096D01*
X87538723Y20080096D02*
X87348247Y20032477D01*
X87348247Y20032477D02*
X87205390Y20032477D01*
X87205390Y20032477D02*
X87014914Y20080096D01*
X87014914Y20080096D02*
X86919676Y20127715D01*
X86919676Y20127715D02*
X86824438Y20222953D01*
X86824438Y20222953D02*
X86776819Y20365810D01*
X86776819Y20365810D02*
X86776819Y20461048D01*
X86776819Y20461048D02*
X86824438Y20603905D01*
X86824438Y20603905D02*
X86872057Y20651524D01*
X86776819Y20984858D02*
X86776819Y21603905D01*
X86776819Y21603905D02*
X87157771Y21270572D01*
X87157771Y21270572D02*
X87157771Y21413429D01*
X87157771Y21413429D02*
X87205390Y21508667D01*
X87205390Y21508667D02*
X87253009Y21556286D01*
X87253009Y21556286D02*
X87348247Y21603905D01*
X87348247Y21603905D02*
X87586342Y21603905D01*
X87586342Y21603905D02*
X87681580Y21556286D01*
X87681580Y21556286D02*
X87729200Y21508667D01*
X87729200Y21508667D02*
X87776819Y21413429D01*
X87776819Y21413429D02*
X87776819Y21127715D01*
X87776819Y21127715D02*
X87729200Y21032477D01*
X87729200Y21032477D02*
X87681580Y20984858D01*
X41859580Y41235334D02*
X41907200Y41187715D01*
X41907200Y41187715D02*
X41954819Y41044858D01*
X41954819Y41044858D02*
X41954819Y40949620D01*
X41954819Y40949620D02*
X41907200Y40806763D01*
X41907200Y40806763D02*
X41811961Y40711525D01*
X41811961Y40711525D02*
X41716723Y40663906D01*
X41716723Y40663906D02*
X41526247Y40616287D01*
X41526247Y40616287D02*
X41383390Y40616287D01*
X41383390Y40616287D02*
X41192914Y40663906D01*
X41192914Y40663906D02*
X41097676Y40711525D01*
X41097676Y40711525D02*
X41002438Y40806763D01*
X41002438Y40806763D02*
X40954819Y40949620D01*
X40954819Y40949620D02*
X40954819Y41044858D01*
X40954819Y41044858D02*
X41002438Y41187715D01*
X41002438Y41187715D02*
X41050057Y41235334D01*
X40954819Y42092477D02*
X40954819Y41902001D01*
X40954819Y41902001D02*
X41002438Y41806763D01*
X41002438Y41806763D02*
X41050057Y41759144D01*
X41050057Y41759144D02*
X41192914Y41663906D01*
X41192914Y41663906D02*
X41383390Y41616287D01*
X41383390Y41616287D02*
X41764342Y41616287D01*
X41764342Y41616287D02*
X41859580Y41663906D01*
X41859580Y41663906D02*
X41907200Y41711525D01*
X41907200Y41711525D02*
X41954819Y41806763D01*
X41954819Y41806763D02*
X41954819Y41997239D01*
X41954819Y41997239D02*
X41907200Y42092477D01*
X41907200Y42092477D02*
X41859580Y42140096D01*
X41859580Y42140096D02*
X41764342Y42187715D01*
X41764342Y42187715D02*
X41526247Y42187715D01*
X41526247Y42187715D02*
X41431009Y42140096D01*
X41431009Y42140096D02*
X41383390Y42092477D01*
X41383390Y42092477D02*
X41335771Y41997239D01*
X41335771Y41997239D02*
X41335771Y41806763D01*
X41335771Y41806763D02*
X41383390Y41711525D01*
X41383390Y41711525D02*
X41431009Y41663906D01*
X41431009Y41663906D02*
X41526247Y41616287D01*
X70863619Y49972934D02*
X70387428Y49639601D01*
X70863619Y49401506D02*
X69863619Y49401506D01*
X69863619Y49401506D02*
X69863619Y49782458D01*
X69863619Y49782458D02*
X69911238Y49877696D01*
X69911238Y49877696D02*
X69958857Y49925315D01*
X69958857Y49925315D02*
X70054095Y49972934D01*
X70054095Y49972934D02*
X70196952Y49972934D01*
X70196952Y49972934D02*
X70292190Y49925315D01*
X70292190Y49925315D02*
X70339809Y49877696D01*
X70339809Y49877696D02*
X70387428Y49782458D01*
X70387428Y49782458D02*
X70387428Y49401506D01*
X69863619Y50306268D02*
X69863619Y50925315D01*
X69863619Y50925315D02*
X70244571Y50591982D01*
X70244571Y50591982D02*
X70244571Y50734839D01*
X70244571Y50734839D02*
X70292190Y50830077D01*
X70292190Y50830077D02*
X70339809Y50877696D01*
X70339809Y50877696D02*
X70435047Y50925315D01*
X70435047Y50925315D02*
X70673142Y50925315D01*
X70673142Y50925315D02*
X70768380Y50877696D01*
X70768380Y50877696D02*
X70816000Y50830077D01*
X70816000Y50830077D02*
X70863619Y50734839D01*
X70863619Y50734839D02*
X70863619Y50449125D01*
X70863619Y50449125D02*
X70816000Y50353887D01*
X70816000Y50353887D02*
X70768380Y50306268D01*
X46206580Y38314334D02*
X46254200Y38266715D01*
X46254200Y38266715D02*
X46301819Y38123858D01*
X46301819Y38123858D02*
X46301819Y38028620D01*
X46301819Y38028620D02*
X46254200Y37885763D01*
X46254200Y37885763D02*
X46158961Y37790525D01*
X46158961Y37790525D02*
X46063723Y37742906D01*
X46063723Y37742906D02*
X45873247Y37695287D01*
X45873247Y37695287D02*
X45730390Y37695287D01*
X45730390Y37695287D02*
X45539914Y37742906D01*
X45539914Y37742906D02*
X45444676Y37790525D01*
X45444676Y37790525D02*
X45349438Y37885763D01*
X45349438Y37885763D02*
X45301819Y38028620D01*
X45301819Y38028620D02*
X45301819Y38123858D01*
X45301819Y38123858D02*
X45349438Y38266715D01*
X45349438Y38266715D02*
X45397057Y38314334D01*
X45730390Y38885763D02*
X45682771Y38790525D01*
X45682771Y38790525D02*
X45635152Y38742906D01*
X45635152Y38742906D02*
X45539914Y38695287D01*
X45539914Y38695287D02*
X45492295Y38695287D01*
X45492295Y38695287D02*
X45397057Y38742906D01*
X45397057Y38742906D02*
X45349438Y38790525D01*
X45349438Y38790525D02*
X45301819Y38885763D01*
X45301819Y38885763D02*
X45301819Y39076239D01*
X45301819Y39076239D02*
X45349438Y39171477D01*
X45349438Y39171477D02*
X45397057Y39219096D01*
X45397057Y39219096D02*
X45492295Y39266715D01*
X45492295Y39266715D02*
X45539914Y39266715D01*
X45539914Y39266715D02*
X45635152Y39219096D01*
X45635152Y39219096D02*
X45682771Y39171477D01*
X45682771Y39171477D02*
X45730390Y39076239D01*
X45730390Y39076239D02*
X45730390Y38885763D01*
X45730390Y38885763D02*
X45778009Y38790525D01*
X45778009Y38790525D02*
X45825628Y38742906D01*
X45825628Y38742906D02*
X45920866Y38695287D01*
X45920866Y38695287D02*
X46111342Y38695287D01*
X46111342Y38695287D02*
X46206580Y38742906D01*
X46206580Y38742906D02*
X46254200Y38790525D01*
X46254200Y38790525D02*
X46301819Y38885763D01*
X46301819Y38885763D02*
X46301819Y39076239D01*
X46301819Y39076239D02*
X46254200Y39171477D01*
X46254200Y39171477D02*
X46206580Y39219096D01*
X46206580Y39219096D02*
X46111342Y39266715D01*
X46111342Y39266715D02*
X45920866Y39266715D01*
X45920866Y39266715D02*
X45825628Y39219096D01*
X45825628Y39219096D02*
X45778009Y39171477D01*
X45778009Y39171477D02*
X45730390Y39076239D01*
X5360095Y73887181D02*
X5360095Y74887181D01*
X5360095Y74410991D02*
X5931523Y74410991D01*
X5931523Y73887181D02*
X5931523Y74887181D01*
X6931523Y73887181D02*
X6360095Y73887181D01*
X6645809Y73887181D02*
X6645809Y74887181D01*
X6645809Y74887181D02*
X6550571Y74744324D01*
X6550571Y74744324D02*
X6455333Y74649086D01*
X6455333Y74649086D02*
X6360095Y74601467D01*
X93360095Y73887181D02*
X93360095Y74887181D01*
X93360095Y74410991D02*
X93931523Y74410991D01*
X93931523Y73887181D02*
X93931523Y74887181D01*
X94360095Y74791943D02*
X94407714Y74839562D01*
X94407714Y74839562D02*
X94502952Y74887181D01*
X94502952Y74887181D02*
X94741047Y74887181D01*
X94741047Y74887181D02*
X94836285Y74839562D01*
X94836285Y74839562D02*
X94883904Y74791943D01*
X94883904Y74791943D02*
X94931523Y74696705D01*
X94931523Y74696705D02*
X94931523Y74601467D01*
X94931523Y74601467D02*
X94883904Y74458610D01*
X94883904Y74458610D02*
X94312476Y73887181D01*
X94312476Y73887181D02*
X94931523Y73887181D01*
X16178667Y65384800D02*
X16321524Y65337181D01*
X16321524Y65337181D02*
X16559619Y65337181D01*
X16559619Y65337181D02*
X16654857Y65384800D01*
X16654857Y65384800D02*
X16702476Y65432420D01*
X16702476Y65432420D02*
X16750095Y65527658D01*
X16750095Y65527658D02*
X16750095Y65622896D01*
X16750095Y65622896D02*
X16702476Y65718134D01*
X16702476Y65718134D02*
X16654857Y65765753D01*
X16654857Y65765753D02*
X16559619Y65813372D01*
X16559619Y65813372D02*
X16369143Y65860991D01*
X16369143Y65860991D02*
X16273905Y65908610D01*
X16273905Y65908610D02*
X16226286Y65956229D01*
X16226286Y65956229D02*
X16178667Y66051467D01*
X16178667Y66051467D02*
X16178667Y66146705D01*
X16178667Y66146705D02*
X16226286Y66241943D01*
X16226286Y66241943D02*
X16273905Y66289562D01*
X16273905Y66289562D02*
X16369143Y66337181D01*
X16369143Y66337181D02*
X16607238Y66337181D01*
X16607238Y66337181D02*
X16750095Y66289562D01*
X17083429Y66337181D02*
X17321524Y65337181D01*
X17321524Y65337181D02*
X17512000Y66051467D01*
X17512000Y66051467D02*
X17702476Y65337181D01*
X17702476Y65337181D02*
X17940572Y66337181D01*
X18845333Y65337181D02*
X18273905Y65337181D01*
X18559619Y65337181D02*
X18559619Y66337181D01*
X18559619Y66337181D02*
X18464381Y66194324D01*
X18464381Y66194324D02*
X18369143Y66099086D01*
X18369143Y66099086D02*
X18273905Y66051467D01*
X5360095Y9887181D02*
X5360095Y10887181D01*
X5360095Y10410991D02*
X5931523Y10410991D01*
X5931523Y9887181D02*
X5931523Y10887181D01*
X6312476Y10887181D02*
X6931523Y10887181D01*
X6931523Y10887181D02*
X6598190Y10506229D01*
X6598190Y10506229D02*
X6741047Y10506229D01*
X6741047Y10506229D02*
X6836285Y10458610D01*
X6836285Y10458610D02*
X6883904Y10410991D01*
X6883904Y10410991D02*
X6931523Y10315753D01*
X6931523Y10315753D02*
X6931523Y10077658D01*
X6931523Y10077658D02*
X6883904Y9982420D01*
X6883904Y9982420D02*
X6836285Y9934800D01*
X6836285Y9934800D02*
X6741047Y9887181D01*
X6741047Y9887181D02*
X6455333Y9887181D01*
X6455333Y9887181D02*
X6360095Y9934800D01*
X6360095Y9934800D02*
X6312476Y9982420D01*
X72946419Y50074534D02*
X72470228Y49741201D01*
X72946419Y49503106D02*
X71946419Y49503106D01*
X71946419Y49503106D02*
X71946419Y49884058D01*
X71946419Y49884058D02*
X71994038Y49979296D01*
X71994038Y49979296D02*
X72041657Y50026915D01*
X72041657Y50026915D02*
X72136895Y50074534D01*
X72136895Y50074534D02*
X72279752Y50074534D01*
X72279752Y50074534D02*
X72374990Y50026915D01*
X72374990Y50026915D02*
X72422609Y49979296D01*
X72422609Y49979296D02*
X72470228Y49884058D01*
X72470228Y49884058D02*
X72470228Y49503106D01*
X72279752Y50931677D02*
X72946419Y50931677D01*
X71898800Y50693582D02*
X72613085Y50455487D01*
X72613085Y50455487D02*
X72613085Y51074534D01*
X28253009Y18077715D02*
X28253009Y18411048D01*
X28776819Y18553905D02*
X28776819Y18077715D01*
X28776819Y18077715D02*
X27776819Y18077715D01*
X27776819Y18077715D02*
X27776819Y18553905D01*
X28776819Y18982477D02*
X27776819Y18982477D01*
X27776819Y18982477D02*
X28776819Y19553905D01*
X28776819Y19553905D02*
X27776819Y19553905D01*
X28681580Y20601524D02*
X28729200Y20553905D01*
X28729200Y20553905D02*
X28776819Y20411048D01*
X28776819Y20411048D02*
X28776819Y20315810D01*
X28776819Y20315810D02*
X28729200Y20172953D01*
X28729200Y20172953D02*
X28633961Y20077715D01*
X28633961Y20077715D02*
X28538723Y20030096D01*
X28538723Y20030096D02*
X28348247Y19982477D01*
X28348247Y19982477D02*
X28205390Y19982477D01*
X28205390Y19982477D02*
X28014914Y20030096D01*
X28014914Y20030096D02*
X27919676Y20077715D01*
X27919676Y20077715D02*
X27824438Y20172953D01*
X27824438Y20172953D02*
X27776819Y20315810D01*
X27776819Y20315810D02*
X27776819Y20411048D01*
X27776819Y20411048D02*
X27824438Y20553905D01*
X27824438Y20553905D02*
X27872057Y20601524D01*
X27872057Y20982477D02*
X27824438Y21030096D01*
X27824438Y21030096D02*
X27776819Y21125334D01*
X27776819Y21125334D02*
X27776819Y21363429D01*
X27776819Y21363429D02*
X27824438Y21458667D01*
X27824438Y21458667D02*
X27872057Y21506286D01*
X27872057Y21506286D02*
X27967295Y21553905D01*
X27967295Y21553905D02*
X28062533Y21553905D01*
X28062533Y21553905D02*
X28205390Y21506286D01*
X28205390Y21506286D02*
X28776819Y20934858D01*
X28776819Y20934858D02*
X28776819Y21553905D01*
D13*
X20571695Y39902981D02*
X20571695Y39093458D01*
X20571695Y39093458D02*
X20619314Y38998220D01*
X20619314Y38998220D02*
X20666933Y38950600D01*
X20666933Y38950600D02*
X20762171Y38902981D01*
X20762171Y38902981D02*
X20952647Y38902981D01*
X20952647Y38902981D02*
X21047885Y38950600D01*
X21047885Y38950600D02*
X21095504Y38998220D01*
X21095504Y38998220D02*
X21143123Y39093458D01*
X21143123Y39093458D02*
X21143123Y39902981D01*
X21571695Y39807743D02*
X21619314Y39855362D01*
X21619314Y39855362D02*
X21714552Y39902981D01*
X21714552Y39902981D02*
X21952647Y39902981D01*
X21952647Y39902981D02*
X22047885Y39855362D01*
X22047885Y39855362D02*
X22095504Y39807743D01*
X22095504Y39807743D02*
X22143123Y39712505D01*
X22143123Y39712505D02*
X22143123Y39617267D01*
X22143123Y39617267D02*
X22095504Y39474410D01*
X22095504Y39474410D02*
X21524076Y38902981D01*
X21524076Y38902981D02*
X22143123Y38902981D01*
D14*
X42803009Y54827715D02*
X42803009Y55161048D01*
X43326819Y55303905D02*
X43326819Y54827715D01*
X43326819Y54827715D02*
X42326819Y54827715D01*
X42326819Y54827715D02*
X42326819Y55303905D01*
X43326819Y55732477D02*
X42326819Y55732477D01*
X42326819Y55732477D02*
X43326819Y56303905D01*
X43326819Y56303905D02*
X42326819Y56303905D01*
X43231580Y57351524D02*
X43279200Y57303905D01*
X43279200Y57303905D02*
X43326819Y57161048D01*
X43326819Y57161048D02*
X43326819Y57065810D01*
X43326819Y57065810D02*
X43279200Y56922953D01*
X43279200Y56922953D02*
X43183961Y56827715D01*
X43183961Y56827715D02*
X43088723Y56780096D01*
X43088723Y56780096D02*
X42898247Y56732477D01*
X42898247Y56732477D02*
X42755390Y56732477D01*
X42755390Y56732477D02*
X42564914Y56780096D01*
X42564914Y56780096D02*
X42469676Y56827715D01*
X42469676Y56827715D02*
X42374438Y56922953D01*
X42374438Y56922953D02*
X42326819Y57065810D01*
X42326819Y57065810D02*
X42326819Y57161048D01*
X42326819Y57161048D02*
X42374438Y57303905D01*
X42374438Y57303905D02*
X42422057Y57351524D01*
X43326819Y58303905D02*
X43326819Y57732477D01*
X43326819Y58018191D02*
X42326819Y58018191D01*
X42326819Y58018191D02*
X42469676Y57922953D01*
X42469676Y57922953D02*
X42564914Y57827715D01*
X42564914Y57827715D02*
X42612533Y57732477D01*
X48958667Y19336800D02*
X49101524Y19289181D01*
X49101524Y19289181D02*
X49339619Y19289181D01*
X49339619Y19289181D02*
X49434857Y19336800D01*
X49434857Y19336800D02*
X49482476Y19384420D01*
X49482476Y19384420D02*
X49530095Y19479658D01*
X49530095Y19479658D02*
X49530095Y19574896D01*
X49530095Y19574896D02*
X49482476Y19670134D01*
X49482476Y19670134D02*
X49434857Y19717753D01*
X49434857Y19717753D02*
X49339619Y19765372D01*
X49339619Y19765372D02*
X49149143Y19812991D01*
X49149143Y19812991D02*
X49053905Y19860610D01*
X49053905Y19860610D02*
X49006286Y19908229D01*
X49006286Y19908229D02*
X48958667Y20003467D01*
X48958667Y20003467D02*
X48958667Y20098705D01*
X48958667Y20098705D02*
X49006286Y20193943D01*
X49006286Y20193943D02*
X49053905Y20241562D01*
X49053905Y20241562D02*
X49149143Y20289181D01*
X49149143Y20289181D02*
X49387238Y20289181D01*
X49387238Y20289181D02*
X49530095Y20241562D01*
X49863429Y20289181D02*
X50101524Y19289181D01*
X50101524Y19289181D02*
X50292000Y20003467D01*
X50292000Y20003467D02*
X50482476Y19289181D01*
X50482476Y19289181D02*
X50720572Y20289181D01*
X51053905Y20193943D02*
X51101524Y20241562D01*
X51101524Y20241562D02*
X51196762Y20289181D01*
X51196762Y20289181D02*
X51434857Y20289181D01*
X51434857Y20289181D02*
X51530095Y20241562D01*
X51530095Y20241562D02*
X51577714Y20193943D01*
X51577714Y20193943D02*
X51625333Y20098705D01*
X51625333Y20098705D02*
X51625333Y20003467D01*
X51625333Y20003467D02*
X51577714Y19860610D01*
X51577714Y19860610D02*
X51006286Y19289181D01*
X51006286Y19289181D02*
X51625333Y19289181D01*
D15*
%TO.C,SW3*%
X79734500Y62296600D02*
X79734500Y60796600D01*
X80984500Y58296600D02*
X85484500Y58296600D01*
X85484500Y64796600D02*
X80984500Y64796600D01*
X86734500Y60796600D02*
X86734500Y62296600D01*
%TO.C,U3*%
D13*
X67760000Y46811200D02*
X92260000Y46811200D01*
X92260000Y30811200D01*
X67760000Y30811200D01*
X67760000Y46811200D01*
D15*
%TO.C,ENC3*%
X74222000Y17142000D02*
X74222000Y21242000D01*
X74222000Y9042000D02*
X74222000Y13142000D01*
X76622000Y9042000D02*
X74222000Y9042000D01*
X80122000Y15642000D02*
X80122000Y14642000D01*
X80622000Y15142000D02*
X79622000Y15142000D01*
X81422000Y9042000D02*
X78822000Y9042000D01*
X83922000Y22642000D02*
X84222000Y22942000D01*
X84222000Y22942000D02*
X84222000Y22342000D01*
X84222000Y22342000D02*
X83922000Y22642000D01*
X86022000Y21242000D02*
X74222000Y21242000D01*
X86022000Y17142000D02*
X86022000Y21242000D01*
X86022000Y13142000D02*
X86022000Y9042000D01*
X86022000Y9042000D02*
X83622000Y9042000D01*
X83122000Y15142000D02*
G75*
G02*
X77122000Y15142000I-3000000J0D01*
G01*
X77122000Y15142000D02*
G75*
G02*
X83122000Y15142000I3000000J0D01*
G01*
%TO.C,C6*%
X42445000Y41140748D02*
X42445000Y41663252D01*
X43915000Y41140748D02*
X43915000Y41663252D01*
%TO.C,R3*%
X69637000Y53010748D02*
X69637000Y53533252D01*
X71107000Y53010748D02*
X71107000Y53533252D01*
%TO.C,C8*%
X45210000Y41255733D02*
X45210000Y41548267D01*
X46230000Y41255733D02*
X46230000Y41548267D01*
%TO.C,SW1*%
X14012000Y62292000D02*
X14012000Y60792000D01*
X15262000Y58292000D02*
X19762000Y58292000D01*
X19762000Y64792000D02*
X15262000Y64792000D01*
X21012000Y60792000D02*
X21012000Y62292000D01*
%TO.C,R4*%
X71717000Y52960748D02*
X71717000Y53483252D01*
X73187000Y52960748D02*
X73187000Y53483252D01*
%TO.C,ENC2*%
X15222000Y17092000D02*
X15222000Y21192000D01*
X15222000Y8992000D02*
X15222000Y13092000D01*
X17622000Y8992000D02*
X15222000Y8992000D01*
X21122000Y15592000D02*
X21122000Y14592000D01*
X21622000Y15092000D02*
X20622000Y15092000D01*
X22422000Y8992000D02*
X19822000Y8992000D01*
X24922000Y22592000D02*
X25222000Y22892000D01*
X25222000Y22892000D02*
X25222000Y22292000D01*
X25222000Y22292000D02*
X24922000Y22592000D01*
X27022000Y21192000D02*
X15222000Y21192000D01*
X27022000Y17092000D02*
X27022000Y21192000D01*
X27022000Y13092000D02*
X27022000Y8992000D01*
X27022000Y8992000D02*
X24622000Y8992000D01*
X24122000Y15092000D02*
G75*
G02*
X18122000Y15092000I-3000000J0D01*
G01*
X18122000Y15092000D02*
G75*
G02*
X24122000Y15092000I3000000J0D01*
G01*
%TO.C,U2*%
D13*
X8933600Y46760400D02*
X33433600Y46760400D01*
X33433600Y30760400D01*
X8933600Y30760400D01*
X8933600Y46760400D01*
D15*
%TO.C,ENC1*%
X44172000Y67342000D02*
X46572000Y67342000D01*
X44172000Y63242000D02*
X44172000Y67342000D01*
X44172000Y59242000D02*
X44172000Y55142000D01*
X44172000Y55142000D02*
X55972000Y55142000D01*
X45972000Y54042000D02*
X46272000Y53742000D01*
X45972000Y53442000D02*
X45972000Y54042000D01*
X46272000Y53742000D02*
X45972000Y53442000D01*
X48772000Y67342000D02*
X51372000Y67342000D01*
X49572000Y61242000D02*
X50572000Y61242000D01*
X50072000Y60742000D02*
X50072000Y61742000D01*
X53572000Y67342000D02*
X55972000Y67342000D01*
X55972000Y67342000D02*
X55972000Y63242000D01*
X55972000Y59242000D02*
X55972000Y55142000D01*
X53072000Y61242000D02*
G75*
G02*
X47072000Y61242000I-3000000J0D01*
G01*
X47072000Y61242000D02*
G75*
G02*
X53072000Y61242000I3000000J0D01*
G01*
%TO.C,SW2*%
X46792000Y16244000D02*
X46792000Y14744000D01*
X48042000Y12244000D02*
X52542000Y12244000D01*
X52542000Y18744000D02*
X48042000Y18744000D01*
X53792000Y14744000D02*
X53792000Y16244000D01*
%TD*%
M02*
