M48
; DRILL file {KiCad 9.0.4} date 2025-09-06T12:35:57+0200
; FORMAT={-:-/ absolute / metric / decimal}
; #@! TF.CreationDate,2025-09-06T12:35:57+02:00
; #@! TF.GenerationSoftware,Kicad,Pcbnew,9.0.4
; #@! TF.FileFunction,Plated,1,2,PTH
FMAT,2
METRIC
; #@! TA.AperFunction,Plated,PTH,ViaDrill
T1C0.500
; #@! TA.AperFunction,Plated,PTH,ComponentDrill
T2C0.750
; #@! TA.AperFunction,Plated,PTH,ComponentDrill
T3C0.800
; #@! TA.AperFunction,Plated,PTH,ComponentDrill
T4C1.000
; #@! TA.AperFunction,Plated,PTH,ComponentDrill
T5C1.100
; #@! TA.AperFunction,Plated,PTH,ComponentDrill
T6C2.600
%
G90
G05
T1
X26.467Y37.033
X26.518Y35.814
X26.822Y33.731
X28.702Y37.033
X29.718Y35.865
X30.734Y33.731
X36.068Y14.884
X38.252Y35.213
X38.252Y28.854
X40.234Y37.084
X40.234Y35.213
X40.234Y28.905
X41.859Y14.834
X42.672Y41.554
X43.231Y65.837
X43.586Y36.982
X43.586Y28.55
X44.399Y43.536
X50.107Y35.216
X50.107Y39.776
X51.122Y34.302
X52.324Y56.083
X53.442Y63.602
X53.492Y41.605
X54.254Y50.597
X54.254Y47.041
X58.471Y59.385
X59.08Y57.506
X60.554Y44.552
X60.604Y49.276
X60.612Y62.695
X60.757Y59.233
X62.332Y23.368
X62.382Y57.556
X62.433Y35.204
X70.51Y60.808
X71.831Y20.625
X72.288Y67.412
X72.39Y28.753
X72.39Y26.116
X73.762Y28.753
X73.762Y26.314
X76.251Y28.905
X76.251Y26.873
X78.486Y24.504
X78.842Y39.732
X86.258Y39.675
X89.306Y39.472
T2
X34.222Y9.662
X36.222Y9.662
X38.222Y9.662
X40.222Y9.662
X66.452Y56.982
X68.452Y56.982
X70.452Y56.982
X72.452Y56.982
T3
X14.934Y43.92
X14.934Y33.76
X17.474Y43.92
X17.474Y33.76
X20.014Y43.92
X20.014Y33.76
X22.554Y43.92
X22.554Y33.76
X25.094Y43.92
X25.094Y33.76
X27.634Y43.92
X73.76Y43.971
X73.76Y33.811
X76.3Y43.971
X76.3Y33.811
X78.84Y43.971
X78.84Y33.811
X81.38Y43.971
X81.38Y33.811
X83.92Y43.971
X83.92Y33.811
X86.46Y43.971
T4
X18.622Y22.592
X18.622Y8.092
X21.122Y22.592
X23.622Y22.592
X23.622Y8.092
X47.572Y68.242
X47.572Y53.742
X50.072Y53.742
X52.572Y68.242
X52.572Y53.742
X77.622Y22.642
X77.622Y8.142
X80.122Y22.642
X82.622Y22.642
X82.622Y8.142
T5
X14.262Y63.792
X14.262Y59.292
X20.762Y63.792
X20.762Y59.292
X47.042Y17.744
X47.042Y13.244
X53.542Y17.744
X53.542Y13.244
X79.984Y63.797
X79.984Y59.297
X86.484Y63.797
X86.484Y59.297
T6
X15.522Y15.092
X26.722Y15.092
X44.472Y61.242
X55.672Y61.242
X74.522Y15.142
X85.722Y15.142
M30
