%TF.GenerationSoftware,KiCad,Pcbnew,9.0.0*%
%TF.CreationDate,2025-04-19T08:54:27+02:00*%
%TF.ProjectId,Encoders-LCD,456e636f-6465-4727-932d-4c43442e6b69,rev?*%
%TF.SameCoordinates,PX55d4a80PY4e33880*%
%TF.FileFunction,Legend,Bot*%
%TF.FilePolarity,Positive*%
%FSLAX46Y46*%
G04 Gerber Fmt 4.6, Leading zero omitted, Abs format (unit mm)*
G04 Created by KiCad (PCBNEW 9.0.0) date 2025-04-19 08:54:27*
%MOMM*%
%LPD*%
G01*
G04 APERTURE LIST*
%ADD10C,0.200000*%
%ADD11C,0.150000*%
%ADD12C,0.120000*%
%ADD13C,0.250000*%
%ADD14C,0.100000*%
G04 APERTURE END LIST*
D10*
X-10729200Y12691546D02*
X-10681581Y12548689D01*
X-10681581Y12548689D02*
X-10681581Y12310594D01*
X-10681581Y12310594D02*
X-10729200Y12215356D01*
X-10729200Y12215356D02*
X-10776820Y12167737D01*
X-10776820Y12167737D02*
X-10872058Y12120118D01*
X-10872058Y12120118D02*
X-10967296Y12120118D01*
X-10967296Y12120118D02*
X-11062534Y12167737D01*
X-11062534Y12167737D02*
X-11110153Y12215356D01*
X-11110153Y12215356D02*
X-11157772Y12310594D01*
X-11157772Y12310594D02*
X-11205391Y12501070D01*
X-11205391Y12501070D02*
X-11253010Y12596308D01*
X-11253010Y12596308D02*
X-11300629Y12643927D01*
X-11300629Y12643927D02*
X-11395867Y12691546D01*
X-11395867Y12691546D02*
X-11491105Y12691546D01*
X-11491105Y12691546D02*
X-11586343Y12643927D01*
X-11586343Y12643927D02*
X-11633962Y12596308D01*
X-11633962Y12596308D02*
X-11681581Y12501070D01*
X-11681581Y12501070D02*
X-11681581Y12262975D01*
X-11681581Y12262975D02*
X-11633962Y12120118D01*
X-11681581Y11834403D02*
X-11681581Y11262975D01*
X-10681581Y11548689D02*
X-11681581Y11548689D01*
X-11205391Y10596308D02*
X-11157772Y10453451D01*
X-11157772Y10453451D02*
X-11110153Y10405832D01*
X-11110153Y10405832D02*
X-11014915Y10358213D01*
X-11014915Y10358213D02*
X-10872058Y10358213D01*
X-10872058Y10358213D02*
X-10776820Y10405832D01*
X-10776820Y10405832D02*
X-10729200Y10453451D01*
X-10729200Y10453451D02*
X-10681581Y10548689D01*
X-10681581Y10548689D02*
X-10681581Y10929641D01*
X-10681581Y10929641D02*
X-11681581Y10929641D01*
X-11681581Y10929641D02*
X-11681581Y10596308D01*
X-11681581Y10596308D02*
X-11633962Y10501070D01*
X-11633962Y10501070D02*
X-11586343Y10453451D01*
X-11586343Y10453451D02*
X-11491105Y10405832D01*
X-11491105Y10405832D02*
X-11395867Y10405832D01*
X-11395867Y10405832D02*
X-11300629Y10453451D01*
X-11300629Y10453451D02*
X-11253010Y10501070D01*
X-11253010Y10501070D02*
X-11205391Y10596308D01*
X-11205391Y10596308D02*
X-11205391Y10929641D01*
X-12859620Y12224899D02*
X-12812000Y12272518D01*
X-12812000Y12272518D02*
X-12764381Y12415375D01*
X-12764381Y12415375D02*
X-12764381Y12510613D01*
X-12764381Y12510613D02*
X-12812000Y12653470D01*
X-12812000Y12653470D02*
X-12907239Y12748708D01*
X-12907239Y12748708D02*
X-13002477Y12796327D01*
X-13002477Y12796327D02*
X-13192953Y12843946D01*
X-13192953Y12843946D02*
X-13335810Y12843946D01*
X-13335810Y12843946D02*
X-13526286Y12796327D01*
X-13526286Y12796327D02*
X-13621524Y12748708D01*
X-13621524Y12748708D02*
X-13716762Y12653470D01*
X-13716762Y12653470D02*
X-13764381Y12510613D01*
X-13764381Y12510613D02*
X-13764381Y12415375D01*
X-13764381Y12415375D02*
X-13716762Y12272518D01*
X-13716762Y12272518D02*
X-13669143Y12224899D01*
X-12764381Y11320137D02*
X-12764381Y11796327D01*
X-12764381Y11796327D02*
X-13764381Y11796327D01*
X-12764381Y10986803D02*
X-13764381Y10986803D01*
X-12764381Y10415375D02*
X-13335810Y10843946D01*
X-13764381Y10415375D02*
X-13192953Y10986803D01*
X-14847181Y12694727D02*
X-15847181Y12694727D01*
X-15847181Y12694727D02*
X-15847181Y12456632D01*
X-15847181Y12456632D02*
X-15799562Y12313775D01*
X-15799562Y12313775D02*
X-15704324Y12218537D01*
X-15704324Y12218537D02*
X-15609086Y12170918D01*
X-15609086Y12170918D02*
X-15418610Y12123299D01*
X-15418610Y12123299D02*
X-15275753Y12123299D01*
X-15275753Y12123299D02*
X-15085277Y12170918D01*
X-15085277Y12170918D02*
X-14990039Y12218537D01*
X-14990039Y12218537D02*
X-14894800Y12313775D01*
X-14894800Y12313775D02*
X-14847181Y12456632D01*
X-14847181Y12456632D02*
X-14847181Y12694727D01*
X-14847181Y11694727D02*
X-15847181Y11694727D01*
X-15847181Y11028061D02*
X-15847181Y10837585D01*
X-15847181Y10837585D02*
X-15799562Y10742347D01*
X-15799562Y10742347D02*
X-15704324Y10647109D01*
X-15704324Y10647109D02*
X-15513848Y10599490D01*
X-15513848Y10599490D02*
X-15180515Y10599490D01*
X-15180515Y10599490D02*
X-14990039Y10647109D01*
X-14990039Y10647109D02*
X-14894800Y10742347D01*
X-14894800Y10742347D02*
X-14847181Y10837585D01*
X-14847181Y10837585D02*
X-14847181Y11028061D01*
X-14847181Y11028061D02*
X-14894800Y11123299D01*
X-14894800Y11123299D02*
X-14990039Y11218537D01*
X-14990039Y11218537D02*
X-15180515Y11266156D01*
X-15180515Y11266156D02*
X-15513848Y11266156D01*
X-15513848Y11266156D02*
X-15704324Y11218537D01*
X-15704324Y11218537D02*
X-15799562Y11123299D01*
X-15799562Y11123299D02*
X-15847181Y11028061D01*
X-16977600Y12691546D02*
X-16929981Y12548689D01*
X-16929981Y12548689D02*
X-16929981Y12310594D01*
X-16929981Y12310594D02*
X-16977600Y12215356D01*
X-16977600Y12215356D02*
X-17025220Y12167737D01*
X-17025220Y12167737D02*
X-17120458Y12120118D01*
X-17120458Y12120118D02*
X-17215696Y12120118D01*
X-17215696Y12120118D02*
X-17310934Y12167737D01*
X-17310934Y12167737D02*
X-17358553Y12215356D01*
X-17358553Y12215356D02*
X-17406172Y12310594D01*
X-17406172Y12310594D02*
X-17453791Y12501070D01*
X-17453791Y12501070D02*
X-17501410Y12596308D01*
X-17501410Y12596308D02*
X-17549029Y12643927D01*
X-17549029Y12643927D02*
X-17644267Y12691546D01*
X-17644267Y12691546D02*
X-17739505Y12691546D01*
X-17739505Y12691546D02*
X-17834743Y12643927D01*
X-17834743Y12643927D02*
X-17882362Y12596308D01*
X-17882362Y12596308D02*
X-17929981Y12501070D01*
X-17929981Y12501070D02*
X-17929981Y12262975D01*
X-17929981Y12262975D02*
X-17882362Y12120118D01*
X-17025220Y11120118D02*
X-16977600Y11167737D01*
X-16977600Y11167737D02*
X-16929981Y11310594D01*
X-16929981Y11310594D02*
X-16929981Y11405832D01*
X-16929981Y11405832D02*
X-16977600Y11548689D01*
X-16977600Y11548689D02*
X-17072839Y11643927D01*
X-17072839Y11643927D02*
X-17168077Y11691546D01*
X-17168077Y11691546D02*
X-17358553Y11739165D01*
X-17358553Y11739165D02*
X-17501410Y11739165D01*
X-17501410Y11739165D02*
X-17691886Y11691546D01*
X-17691886Y11691546D02*
X-17787124Y11643927D01*
X-17787124Y11643927D02*
X-17882362Y11548689D01*
X-17882362Y11548689D02*
X-17929981Y11405832D01*
X-17929981Y11405832D02*
X-17929981Y11310594D01*
X-17929981Y11310594D02*
X-17882362Y11167737D01*
X-17882362Y11167737D02*
X-17834743Y11120118D01*
X-16929981Y10215356D02*
X-16929981Y10691546D01*
X-16929981Y10691546D02*
X-17929981Y10691546D01*
X-18958800Y12742346D02*
X-18911181Y12599489D01*
X-18911181Y12599489D02*
X-18911181Y12361394D01*
X-18911181Y12361394D02*
X-18958800Y12266156D01*
X-18958800Y12266156D02*
X-19006420Y12218537D01*
X-19006420Y12218537D02*
X-19101658Y12170918D01*
X-19101658Y12170918D02*
X-19196896Y12170918D01*
X-19196896Y12170918D02*
X-19292134Y12218537D01*
X-19292134Y12218537D02*
X-19339753Y12266156D01*
X-19339753Y12266156D02*
X-19387372Y12361394D01*
X-19387372Y12361394D02*
X-19434991Y12551870D01*
X-19434991Y12551870D02*
X-19482610Y12647108D01*
X-19482610Y12647108D02*
X-19530229Y12694727D01*
X-19530229Y12694727D02*
X-19625467Y12742346D01*
X-19625467Y12742346D02*
X-19720705Y12742346D01*
X-19720705Y12742346D02*
X-19815943Y12694727D01*
X-19815943Y12694727D02*
X-19863562Y12647108D01*
X-19863562Y12647108D02*
X-19911181Y12551870D01*
X-19911181Y12551870D02*
X-19911181Y12313775D01*
X-19911181Y12313775D02*
X-19863562Y12170918D01*
X-18911181Y11742346D02*
X-19911181Y11742346D01*
X-19911181Y11742346D02*
X-19911181Y11504251D01*
X-19911181Y11504251D02*
X-19863562Y11361394D01*
X-19863562Y11361394D02*
X-19768324Y11266156D01*
X-19768324Y11266156D02*
X-19673086Y11218537D01*
X-19673086Y11218537D02*
X-19482610Y11170918D01*
X-19482610Y11170918D02*
X-19339753Y11170918D01*
X-19339753Y11170918D02*
X-19149277Y11218537D01*
X-19149277Y11218537D02*
X-19054039Y11266156D01*
X-19054039Y11266156D02*
X-18958800Y11361394D01*
X-18958800Y11361394D02*
X-18911181Y11504251D01*
X-18911181Y11504251D02*
X-18911181Y11742346D01*
X-19196896Y10789965D02*
X-19196896Y10313775D01*
X-18911181Y10885203D02*
X-19911181Y10551870D01*
X-19911181Y10551870D02*
X-18911181Y10218537D01*
X-21943181Y12888384D02*
X-20943181Y12555051D01*
X-20943181Y12555051D02*
X-21943181Y12221718D01*
X-21038420Y11316956D02*
X-20990800Y11364575D01*
X-20990800Y11364575D02*
X-20943181Y11507432D01*
X-20943181Y11507432D02*
X-20943181Y11602670D01*
X-20943181Y11602670D02*
X-20990800Y11745527D01*
X-20990800Y11745527D02*
X-21086039Y11840765D01*
X-21086039Y11840765D02*
X-21181277Y11888384D01*
X-21181277Y11888384D02*
X-21371753Y11936003D01*
X-21371753Y11936003D02*
X-21514610Y11936003D01*
X-21514610Y11936003D02*
X-21705086Y11888384D01*
X-21705086Y11888384D02*
X-21800324Y11840765D01*
X-21800324Y11840765D02*
X-21895562Y11745527D01*
X-21895562Y11745527D02*
X-21943181Y11602670D01*
X-21943181Y11602670D02*
X-21943181Y11507432D01*
X-21943181Y11507432D02*
X-21895562Y11364575D01*
X-21895562Y11364575D02*
X-21847943Y11316956D01*
X-21038420Y10316956D02*
X-20990800Y10364575D01*
X-20990800Y10364575D02*
X-20943181Y10507432D01*
X-20943181Y10507432D02*
X-20943181Y10602670D01*
X-20943181Y10602670D02*
X-20990800Y10745527D01*
X-20990800Y10745527D02*
X-21086039Y10840765D01*
X-21086039Y10840765D02*
X-21181277Y10888384D01*
X-21181277Y10888384D02*
X-21371753Y10936003D01*
X-21371753Y10936003D02*
X-21514610Y10936003D01*
X-21514610Y10936003D02*
X-21705086Y10888384D01*
X-21705086Y10888384D02*
X-21800324Y10840765D01*
X-21800324Y10840765D02*
X-21895562Y10745527D01*
X-21895562Y10745527D02*
X-21943181Y10602670D01*
X-21943181Y10602670D02*
X-21943181Y10507432D01*
X-21943181Y10507432D02*
X-21895562Y10364575D01*
X-21895562Y10364575D02*
X-21847943Y10316956D01*
X-23927562Y12272518D02*
X-23975181Y12367756D01*
X-23975181Y12367756D02*
X-23975181Y12510613D01*
X-23975181Y12510613D02*
X-23927562Y12653470D01*
X-23927562Y12653470D02*
X-23832324Y12748708D01*
X-23832324Y12748708D02*
X-23737086Y12796327D01*
X-23737086Y12796327D02*
X-23546610Y12843946D01*
X-23546610Y12843946D02*
X-23403753Y12843946D01*
X-23403753Y12843946D02*
X-23213277Y12796327D01*
X-23213277Y12796327D02*
X-23118039Y12748708D01*
X-23118039Y12748708D02*
X-23022800Y12653470D01*
X-23022800Y12653470D02*
X-22975181Y12510613D01*
X-22975181Y12510613D02*
X-22975181Y12415375D01*
X-22975181Y12415375D02*
X-23022800Y12272518D01*
X-23022800Y12272518D02*
X-23070420Y12224899D01*
X-23070420Y12224899D02*
X-23403753Y12224899D01*
X-23403753Y12224899D02*
X-23403753Y12415375D01*
X-22975181Y11796327D02*
X-23975181Y11796327D01*
X-23975181Y11796327D02*
X-22975181Y11224899D01*
X-22975181Y11224899D02*
X-23975181Y11224899D01*
X-22975181Y10748708D02*
X-23975181Y10748708D01*
X-23975181Y10748708D02*
X-23975181Y10510613D01*
X-23975181Y10510613D02*
X-23927562Y10367756D01*
X-23927562Y10367756D02*
X-23832324Y10272518D01*
X-23832324Y10272518D02*
X-23737086Y10224899D01*
X-23737086Y10224899D02*
X-23546610Y10177280D01*
X-23546610Y10177280D02*
X-23403753Y10177280D01*
X-23403753Y10177280D02*
X-23213277Y10224899D01*
X-23213277Y10224899D02*
X-23118039Y10272518D01*
X-23118039Y10272518D02*
X-23022800Y10367756D01*
X-23022800Y10367756D02*
X-22975181Y10510613D01*
X-22975181Y10510613D02*
X-22975181Y10748708D01*
D11*
X779504Y11033981D02*
X779504Y10224458D01*
X779504Y10224458D02*
X731885Y10129220D01*
X731885Y10129220D02*
X684266Y10081600D01*
X684266Y10081600D02*
X589028Y10033981D01*
X589028Y10033981D02*
X398552Y10033981D01*
X398552Y10033981D02*
X303314Y10081600D01*
X303314Y10081600D02*
X255695Y10129220D01*
X255695Y10129220D02*
X208076Y10224458D01*
X208076Y10224458D02*
X208076Y11033981D01*
X-744305Y11033981D02*
X-268115Y11033981D01*
X-268115Y11033981D02*
X-220496Y10557791D01*
X-220496Y10557791D02*
X-268115Y10605410D01*
X-268115Y10605410D02*
X-363353Y10653029D01*
X-363353Y10653029D02*
X-601448Y10653029D01*
X-601448Y10653029D02*
X-696686Y10605410D01*
X-696686Y10605410D02*
X-744305Y10557791D01*
X-744305Y10557791D02*
X-791924Y10462553D01*
X-791924Y10462553D02*
X-791924Y10224458D01*
X-791924Y10224458D02*
X-744305Y10129220D01*
X-744305Y10129220D02*
X-696686Y10081600D01*
X-696686Y10081600D02*
X-601448Y10033981D01*
X-601448Y10033981D02*
X-363353Y10033981D01*
X-363353Y10033981D02*
X-268115Y10081600D01*
X-268115Y10081600D02*
X-220496Y10129220D01*
X-32988781Y-20158895D02*
X-32179258Y-20158895D01*
X-32179258Y-20158895D02*
X-32084020Y-20206514D01*
X-32084020Y-20206514D02*
X-32036400Y-20254133D01*
X-32036400Y-20254133D02*
X-31988781Y-20349371D01*
X-31988781Y-20349371D02*
X-31988781Y-20539847D01*
X-31988781Y-20539847D02*
X-32036400Y-20635085D01*
X-32036400Y-20635085D02*
X-32084020Y-20682704D01*
X-32084020Y-20682704D02*
X-32179258Y-20730323D01*
X-32179258Y-20730323D02*
X-32988781Y-20730323D01*
X-32655448Y-21635085D02*
X-31988781Y-21635085D01*
X-33036400Y-21396990D02*
X-32322115Y-21158895D01*
X-32322115Y-21158895D02*
X-32322115Y-21777942D01*
X26054819Y-21988095D02*
X26864342Y-21988095D01*
X26864342Y-21988095D02*
X26959580Y-22035714D01*
X26959580Y-22035714D02*
X27007200Y-22083333D01*
X27007200Y-22083333D02*
X27054819Y-22178571D01*
X27054819Y-22178571D02*
X27054819Y-22369047D01*
X27054819Y-22369047D02*
X27007200Y-22464285D01*
X27007200Y-22464285D02*
X26959580Y-22511904D01*
X26959580Y-22511904D02*
X26864342Y-22559523D01*
X26864342Y-22559523D02*
X26054819Y-22559523D01*
X26054819Y-23464285D02*
X26054819Y-23273809D01*
X26054819Y-23273809D02*
X26102438Y-23178571D01*
X26102438Y-23178571D02*
X26150057Y-23130952D01*
X26150057Y-23130952D02*
X26292914Y-23035714D01*
X26292914Y-23035714D02*
X26483390Y-22988095D01*
X26483390Y-22988095D02*
X26864342Y-22988095D01*
X26864342Y-22988095D02*
X26959580Y-23035714D01*
X26959580Y-23035714D02*
X27007200Y-23083333D01*
X27007200Y-23083333D02*
X27054819Y-23178571D01*
X27054819Y-23178571D02*
X27054819Y-23369047D01*
X27054819Y-23369047D02*
X27007200Y-23464285D01*
X27007200Y-23464285D02*
X26959580Y-23511904D01*
X26959580Y-23511904D02*
X26864342Y-23559523D01*
X26864342Y-23559523D02*
X26626247Y-23559523D01*
X26626247Y-23559523D02*
X26531009Y-23511904D01*
X26531009Y-23511904D02*
X26483390Y-23464285D01*
X26483390Y-23464285D02*
X26435771Y-23369047D01*
X26435771Y-23369047D02*
X26435771Y-23178571D01*
X26435771Y-23178571D02*
X26483390Y-23083333D01*
X26483390Y-23083333D02*
X26531009Y-23035714D01*
X26531009Y-23035714D02*
X26626247Y-22988095D01*
X10124419Y-22671905D02*
X9124419Y-22671905D01*
X9124419Y-22671905D02*
X9124419Y-22910000D01*
X9124419Y-22910000D02*
X9172038Y-23052857D01*
X9172038Y-23052857D02*
X9267276Y-23148095D01*
X9267276Y-23148095D02*
X9362514Y-23195714D01*
X9362514Y-23195714D02*
X9552990Y-23243333D01*
X9552990Y-23243333D02*
X9695847Y-23243333D01*
X9695847Y-23243333D02*
X9886323Y-23195714D01*
X9886323Y-23195714D02*
X9981561Y-23148095D01*
X9981561Y-23148095D02*
X10076800Y-23052857D01*
X10076800Y-23052857D02*
X10124419Y-22910000D01*
X10124419Y-22910000D02*
X10124419Y-22671905D01*
X9219657Y-23624286D02*
X9172038Y-23671905D01*
X9172038Y-23671905D02*
X9124419Y-23767143D01*
X9124419Y-23767143D02*
X9124419Y-24005238D01*
X9124419Y-24005238D02*
X9172038Y-24100476D01*
X9172038Y-24100476D02*
X9219657Y-24148095D01*
X9219657Y-24148095D02*
X9314895Y-24195714D01*
X9314895Y-24195714D02*
X9410133Y-24195714D01*
X9410133Y-24195714D02*
X9552990Y-24148095D01*
X9552990Y-24148095D02*
X10124419Y-23576667D01*
X10124419Y-23576667D02*
X10124419Y-24195714D01*
X-30181506Y17174981D02*
X-30181506Y18174981D01*
X-30181506Y18174981D02*
X-30419601Y18174981D01*
X-30419601Y18174981D02*
X-30562458Y18127362D01*
X-30562458Y18127362D02*
X-30657696Y18032124D01*
X-30657696Y18032124D02*
X-30705315Y17936886D01*
X-30705315Y17936886D02*
X-30752934Y17746410D01*
X-30752934Y17746410D02*
X-30752934Y17603553D01*
X-30752934Y17603553D02*
X-30705315Y17413077D01*
X-30705315Y17413077D02*
X-30657696Y17317839D01*
X-30657696Y17317839D02*
X-30562458Y17222600D01*
X-30562458Y17222600D02*
X-30419601Y17174981D01*
X-30419601Y17174981D02*
X-30181506Y17174981D01*
X-31705315Y17174981D02*
X-31133887Y17174981D01*
X-31419601Y17174981D02*
X-31419601Y18174981D01*
X-31419601Y18174981D02*
X-31324363Y18032124D01*
X-31324363Y18032124D02*
X-31229125Y17936886D01*
X-31229125Y17936886D02*
X-31133887Y17889267D01*
X2804819Y23611905D02*
X3614342Y23611905D01*
X3614342Y23611905D02*
X3709580Y23564286D01*
X3709580Y23564286D02*
X3757200Y23516667D01*
X3757200Y23516667D02*
X3804819Y23421429D01*
X3804819Y23421429D02*
X3804819Y23230953D01*
X3804819Y23230953D02*
X3757200Y23135715D01*
X3757200Y23135715D02*
X3709580Y23088096D01*
X3709580Y23088096D02*
X3614342Y23040477D01*
X3614342Y23040477D02*
X2804819Y23040477D01*
X3804819Y22040477D02*
X3804819Y22611905D01*
X3804819Y22326191D02*
X2804819Y22326191D01*
X2804819Y22326191D02*
X2947676Y22421429D01*
X2947676Y22421429D02*
X3042914Y22516667D01*
X3042914Y22516667D02*
X3090533Y22611905D01*
X-17054667Y18841981D02*
X-17054667Y18127696D01*
X-17054667Y18127696D02*
X-17007048Y17984839D01*
X-17007048Y17984839D02*
X-16911810Y17889600D01*
X-16911810Y17889600D02*
X-16768953Y17841981D01*
X-16768953Y17841981D02*
X-16673715Y17841981D01*
X-18054667Y17841981D02*
X-17483239Y17841981D01*
X-17768953Y17841981D02*
X-17768953Y18841981D01*
X-17768953Y18841981D02*
X-17673715Y18699124D01*
X-17673715Y18699124D02*
X-17578477Y18603886D01*
X-17578477Y18603886D02*
X-17483239Y18556267D01*
X29152894Y18952981D02*
X29152894Y19952981D01*
X29152894Y19952981D02*
X28914799Y19952981D01*
X28914799Y19952981D02*
X28771942Y19905362D01*
X28771942Y19905362D02*
X28676704Y19810124D01*
X28676704Y19810124D02*
X28629085Y19714886D01*
X28629085Y19714886D02*
X28581466Y19524410D01*
X28581466Y19524410D02*
X28581466Y19381553D01*
X28581466Y19381553D02*
X28629085Y19191077D01*
X28629085Y19191077D02*
X28676704Y19095839D01*
X28676704Y19095839D02*
X28771942Y19000600D01*
X28771942Y19000600D02*
X28914799Y18952981D01*
X28914799Y18952981D02*
X29152894Y18952981D01*
X28248132Y19952981D02*
X27629085Y19952981D01*
X27629085Y19952981D02*
X27962418Y19572029D01*
X27962418Y19572029D02*
X27819561Y19572029D01*
X27819561Y19572029D02*
X27724323Y19524410D01*
X27724323Y19524410D02*
X27676704Y19476791D01*
X27676704Y19476791D02*
X27629085Y19381553D01*
X27629085Y19381553D02*
X27629085Y19143458D01*
X27629085Y19143458D02*
X27676704Y19048220D01*
X27676704Y19048220D02*
X27724323Y19000600D01*
X27724323Y19000600D02*
X27819561Y18952981D01*
X27819561Y18952981D02*
X28105275Y18952981D01*
X28105275Y18952981D02*
X28200513Y19000600D01*
X28200513Y19000600D02*
X28248132Y19048220D01*
D12*
%TO.C,U5*%
X3767600Y8858900D02*
X-3732400Y8858900D01*
X3767600Y8718800D02*
X3767600Y8858900D01*
X3767600Y-8901000D02*
X3767600Y-9041100D01*
X3767600Y-9041100D02*
X-3732400Y-9041100D01*
X-3732400Y8858900D02*
X-3732400Y8718800D01*
X-3732400Y-9041100D02*
X-3732400Y-8901000D01*
D13*
X4848900Y8968800D02*
G75*
G02*
X4598900Y8968800I-125000J0D01*
G01*
X4598900Y8968800D02*
G75*
G02*
X4848900Y8968800I125000J0D01*
G01*
D12*
%TO.C,U4*%
X-31560000Y-22800000D02*
X-31560000Y-20850000D01*
X-31560000Y-22800000D02*
X-31560000Y-24750000D01*
X-26440000Y-22800000D02*
X-26440000Y-20850000D01*
X-26440000Y-22800000D02*
X-26440000Y-24750000D01*
X-31465000Y-20100000D02*
X-31795000Y-20340000D01*
X-31795000Y-19860000D01*
X-31465000Y-20100000D01*
G36*
X-31465000Y-20100000D02*
G01*
X-31795000Y-20340000D01*
X-31795000Y-19860000D01*
X-31465000Y-20100000D01*
G37*
%TO.C,U6*%
X27440000Y-22750000D02*
X27440000Y-20800000D01*
X27440000Y-22750000D02*
X27440000Y-24700000D01*
X32560000Y-22750000D02*
X32560000Y-20800000D01*
X32560000Y-22750000D02*
X32560000Y-24700000D01*
X27535000Y-20050000D02*
X27205000Y-20290000D01*
X27205000Y-19810000D01*
X27535000Y-20050000D01*
G36*
X27535000Y-20050000D02*
G01*
X27205000Y-20290000D01*
X27205000Y-19810000D01*
X27535000Y-20050000D01*
G37*
%TO.C,D2*%
X6031200Y-21111600D02*
X8431200Y-21111600D01*
X6031200Y-25911600D02*
X6031200Y-21111600D01*
X8120200Y-24273600D02*
X6342200Y-24273600D01*
X8431200Y-21111600D02*
X8431200Y-25911600D01*
X8431200Y-25911600D02*
X6031200Y-25911600D01*
D14*
X7231200Y-24273600D02*
X6342200Y-22749600D01*
X8120200Y-22749600D01*
X7231200Y-24273600D01*
G36*
X7231200Y-24273600D02*
G01*
X6342200Y-22749600D01*
X8120200Y-22749600D01*
X7231200Y-24273600D01*
G37*
X6031200Y-24911600D02*
X5731200Y-24911600D01*
X5731200Y-24111600D01*
X6031200Y-24111600D01*
X6031200Y-24911600D01*
G36*
X6031200Y-24911600D02*
G01*
X5731200Y-24911600D01*
X5731200Y-24111600D01*
X6031200Y-24111600D01*
X6031200Y-24911600D01*
G37*
X8731200Y-24911600D02*
X8431200Y-24911600D01*
X8431200Y-24111600D01*
X8731200Y-24111600D01*
X8731200Y-24911600D01*
G36*
X8731200Y-24911600D02*
G01*
X8431200Y-24911600D01*
X8431200Y-24111600D01*
X8731200Y-24111600D01*
X8731200Y-24911600D01*
G37*
D12*
%TO.C,D1*%
X-33319600Y16702800D02*
X-28519600Y16702800D01*
X-33319600Y14302800D02*
X-33319600Y16702800D01*
X-30157600Y16391800D02*
X-30157600Y14613800D01*
X-28519600Y16702800D02*
X-28519600Y14302800D01*
X-28519600Y14302800D02*
X-33319600Y14302800D01*
D14*
X-30157600Y15502800D02*
X-31681600Y14613800D01*
X-31681600Y16391800D01*
X-30157600Y15502800D01*
G36*
X-30157600Y15502800D02*
G01*
X-31681600Y14613800D01*
X-31681600Y16391800D01*
X-30157600Y15502800D01*
G37*
X-29519600Y16702800D02*
X-30319600Y16702800D01*
X-30319600Y17002800D01*
X-29519600Y17002800D01*
X-29519600Y16702800D01*
G36*
X-29519600Y16702800D02*
G01*
X-30319600Y16702800D01*
X-30319600Y17002800D01*
X-29519600Y17002800D01*
X-29519600Y16702800D01*
G37*
X-29519600Y14002800D02*
X-30319600Y14002800D01*
X-30319600Y14302800D01*
X-29519600Y14302800D01*
X-29519600Y14002800D01*
G36*
X-29519600Y14002800D02*
G01*
X-30319600Y14002800D01*
X-30319600Y14302800D01*
X-29519600Y14302800D01*
X-29519600Y14002800D01*
G37*
D12*
%TO.C,U1*%
X-2610000Y22850000D02*
X-2610000Y24800000D01*
X-2610000Y22850000D02*
X-2610000Y20900000D01*
X2510000Y22850000D02*
X2510000Y24800000D01*
X2510000Y22850000D02*
X2510000Y20900000D01*
X2745000Y19910000D02*
X2415000Y20150000D01*
X2745000Y20390000D01*
X2745000Y19910000D01*
G36*
X2745000Y19910000D02*
G01*
X2415000Y20150000D01*
X2745000Y20390000D01*
X2745000Y19910000D01*
G37*
%TO.C,J1*%
X-25448000Y21354800D02*
X-9328000Y21354800D01*
X-25448000Y15134800D02*
X-24528000Y15134800D01*
X-25448000Y13534800D02*
X-25448000Y21354800D01*
X-24688000Y19094800D02*
X-23688000Y19094800D01*
X-24688000Y17494800D02*
X-24688000Y19094800D01*
X-24528000Y15134800D02*
X-24528000Y13534800D01*
X-24528000Y13534800D02*
X-25448000Y13534800D01*
X-24248000Y15134800D02*
X-24528000Y15134800D01*
X-24248000Y15134800D02*
X-24248000Y13919800D01*
X-24188000Y19094800D02*
X-24188000Y21354800D01*
X-23688000Y19094800D02*
X-23688000Y21354800D01*
X-23688000Y19094800D02*
X-23688000Y17494800D01*
X-23688000Y17494800D02*
X-24688000Y17494800D01*
X-22888000Y21354800D02*
X-22888000Y16994800D01*
X-22888000Y16994800D02*
X-11888000Y16994800D01*
X-11888000Y16994800D02*
X-11888000Y21354800D01*
X-11088000Y19094800D02*
X-11088000Y17494800D01*
X-11088000Y17494800D02*
X-10088000Y17494800D01*
X-10248000Y15134800D02*
X-10528000Y15134800D01*
X-10248000Y13534800D02*
X-10248000Y15134800D01*
X-10088000Y19094800D02*
X-11088000Y19094800D01*
X-10088000Y17494800D02*
X-10088000Y19094800D01*
X-9328000Y21354800D02*
X-9328000Y13534800D01*
X-9328000Y15134800D02*
X-10248000Y15134800D01*
X-9328000Y13534800D02*
X-10248000Y13534800D01*
%TO.C,D3*%
X26014800Y18480800D02*
X30814800Y18480800D01*
X26014800Y16080800D02*
X26014800Y18480800D01*
X29176800Y18169800D02*
X29176800Y16391800D01*
X30814800Y18480800D02*
X30814800Y16080800D01*
X30814800Y16080800D02*
X26014800Y16080800D01*
D14*
X29176800Y17280800D02*
X27652800Y16391800D01*
X27652800Y18169800D01*
X29176800Y17280800D01*
G36*
X29176800Y17280800D02*
G01*
X27652800Y16391800D01*
X27652800Y18169800D01*
X29176800Y17280800D01*
G37*
X29814800Y18480800D02*
X29014800Y18480800D01*
X29014800Y18780800D01*
X29814800Y18780800D01*
X29814800Y18480800D01*
G36*
X29814800Y18480800D02*
G01*
X29014800Y18480800D01*
X29014800Y18780800D01*
X29814800Y18780800D01*
X29814800Y18480800D01*
G37*
X29814800Y15780800D02*
X29014800Y15780800D01*
X29014800Y16080800D01*
X29814800Y16080800D01*
X29814800Y15780800D01*
G36*
X29814800Y15780800D02*
G01*
X29014800Y15780800D01*
X29014800Y16080800D01*
X29814800Y16080800D01*
X29814800Y15780800D01*
G37*
%TD*%
M02*
