%TF.GenerationSoftware,KiCad,Pcbnew,9.0.0*%
%TF.CreationDate,2025-04-19T08:54:42+02:00*%
%TF.ProjectId,Encoders-LCD,456e636f-6465-4727-932d-4c43442e6b69,rev?*%
%TF.SameCoordinates,PX55d4a80PY4e33880*%
%TF.FileFunction,Drillmap*%
%TF.FilePolarity,Positive*%
%FSLAX45Y45*%
G04 Gerber Fmt 4.5, Leading zero omitted, Abs format (unit mm)*
G04 Created by KiCad (PCBNEW 9.0.0) date 2025-04-19 08:54:42*
%MOMM*%
%LPD*%
G01*
G04 APERTURE LIST*
%ADD10C,0.250000*%
%ADD11C,0.200000*%
%ADD12C,0.100000*%
%ADD13C,0.110000*%
%ADD14C,0.260000*%
G04 APERTURE END LIST*
D10*
X5000000Y-3500000D02*
G75*
G02*
X4700000Y-3800000I-300000J0D01*
G01*
X-5000000Y3500000D02*
G75*
G02*
X-4700000Y3800000I300000J0D01*
G01*
X-5000000Y3500000D02*
X-5000000Y-3500000D01*
X4700000Y3800000D02*
G75*
G02*
X5000000Y3500000I0J-300000D01*
G01*
X-4700000Y-3800000D02*
G75*
G02*
X-5000000Y-3500000I0J300000D01*
G01*
X-4700000Y-3800000D02*
X4700000Y-3800000D01*
X5000000Y-3500000D02*
X5000000Y3500000D01*
X4700000Y3800000D02*
X-4700000Y3800000D01*
D11*
D12*
X-3121800Y-2337970D02*
X-3081800Y-2377970D01*
X-3081800Y-2337970D02*
X-3121800Y-2377970D01*
X-2073440Y-2242360D02*
X-2033440Y-2282360D01*
X-2033440Y-2242360D02*
X-2073440Y-2282360D01*
X-2046900Y1665110D02*
X-2006900Y1625110D01*
X-2006900Y1665110D02*
X-2046900Y1625110D01*
X-1913490Y-1537390D02*
X-1873490Y-1577390D01*
X-1873490Y-1537390D02*
X-1913490Y-1577390D01*
X-1619200Y2192300D02*
X-1579200Y2152300D01*
X-1579200Y2192300D02*
X-1619200Y2152300D01*
X-1099750Y313330D02*
X-1059750Y273330D01*
X-1059750Y313330D02*
X-1099750Y273330D01*
X-983400Y380410D02*
X-943400Y340410D01*
X-943400Y380410D02*
X-983400Y340410D01*
X-687610Y223740D02*
X-647610Y183740D01*
X-647610Y223740D02*
X-687610Y183740D01*
X-598010Y2047500D02*
X-558010Y2007500D01*
X-558010Y2047500D02*
X-598010Y2007500D01*
X-272050Y-41390D02*
X-232050Y-81390D01*
X-232050Y-41390D02*
X-272050Y-81390D01*
X-203790Y552090D02*
X-163790Y512090D01*
X-163790Y552090D02*
X-203790Y512090D01*
X-106780Y185220D02*
X-66780Y145220D01*
X-66780Y185220D02*
X-106780Y145220D01*
X558160Y2588500D02*
X598160Y2548500D01*
X598160Y2588500D02*
X558160Y2548500D01*
X628860Y329460D02*
X668860Y289460D01*
X668860Y329460D02*
X628860Y289460D01*
X649280Y109930D02*
X689280Y69930D01*
X689280Y109930D02*
X649280Y69930D01*
X649280Y-128250D02*
X689280Y-168250D01*
X689280Y-128250D02*
X649280Y-168250D01*
X663070Y-499180D02*
X703070Y-539180D01*
X703070Y-499180D02*
X663070Y-539180D01*
X689500Y-293740D02*
X729500Y-333740D01*
X729500Y-293740D02*
X689500Y-333740D01*
X766970Y480280D02*
X806970Y440280D01*
X806970Y480280D02*
X766970Y440280D01*
X774640Y-75340D02*
X814640Y-115340D01*
X814640Y-75340D02*
X774640Y-115340D01*
X943550Y311810D02*
X983550Y271810D01*
X983550Y311810D02*
X943550Y271810D01*
X2485110Y-2543500D02*
X2525110Y-2583500D01*
X2525110Y-2543500D02*
X2485110Y-2583500D01*
X2795050Y-2335470D02*
X2835050Y-2375470D01*
X2835050Y-2335470D02*
X2795050Y-2375470D01*
X3131880Y-2185530D02*
X3171880Y-2225530D01*
X3171880Y-2185530D02*
X3131880Y-2225530D01*
X-1212840Y839080D02*
G75*
G02*
X-1272840Y839080I-30000J0D01*
G01*
X-1272840Y839080D02*
G75*
G02*
X-1212840Y839080I30000J0D01*
G01*
X-2338800Y1536980D02*
X-2338800Y1461980D01*
X-2376300Y1499480D02*
X-2301300Y1499480D01*
X-2138800Y1536980D02*
X-2138800Y1461980D01*
X-2176300Y1499480D02*
X-2101300Y1499480D01*
X-1938800Y1536980D02*
X-1938800Y1461980D01*
X-1976300Y1499480D02*
X-1901300Y1499480D01*
X-1738800Y1536980D02*
X-1738800Y1461980D01*
X-1776300Y1499480D02*
X-1701300Y1499480D01*
X-1538800Y1536980D02*
X-1538800Y1461980D01*
X-1576300Y1499480D02*
X-1501300Y1499480D01*
X-1338800Y1536980D02*
X-1338800Y1461980D01*
X-1376300Y1499480D02*
X-1301300Y1499480D01*
X-1138800Y1536980D02*
X-1138800Y1461980D01*
X-1176300Y1499480D02*
X-1101300Y1499480D01*
X-3490555Y549556D02*
X-3490555Y606125D01*
X-3547124Y606125D01*
X-3547124Y549556D01*
X-3490555Y549556D01*
X-3490555Y-466444D02*
X-3490555Y-409875D01*
X-3547124Y-409875D01*
X-3547124Y-466444D01*
X-3490555Y-466444D01*
X-3236555Y549556D02*
X-3236555Y606125D01*
X-3293124Y606125D01*
X-3293124Y549556D01*
X-3236555Y549556D01*
X-3236555Y-466444D02*
X-3236555Y-409875D01*
X-3293124Y-409875D01*
X-3293124Y-466444D01*
X-3236555Y-466444D01*
X-2982555Y549556D02*
X-2982555Y606125D01*
X-3039124Y606125D01*
X-3039124Y549556D01*
X-2982555Y549556D01*
X-2982555Y-466444D02*
X-2982555Y-409875D01*
X-3039124Y-409875D01*
X-3039124Y-466444D01*
X-2982555Y-466444D01*
X-2728556Y549556D02*
X-2728556Y606125D01*
X-2785125Y606125D01*
X-2785125Y549556D01*
X-2728556Y549556D01*
X-2728556Y-466444D02*
X-2728556Y-409875D01*
X-2785125Y-409875D01*
X-2785125Y-466444D01*
X-2728556Y-466444D01*
X-2474556Y549556D02*
X-2474556Y606125D01*
X-2531125Y606125D01*
X-2531125Y549556D01*
X-2474556Y549556D01*
X-2474556Y-466444D02*
X-2474556Y-409875D01*
X-2531125Y-409875D01*
X-2531125Y-466444D01*
X-2474556Y-466444D01*
X-2220556Y549556D02*
X-2220556Y606125D01*
X-2277125Y606125D01*
X-2277125Y549556D01*
X-2220556Y549556D01*
X2392085Y554636D02*
X2392085Y611205D01*
X2335516Y611205D01*
X2335516Y554636D01*
X2392085Y554636D01*
X2392085Y-461364D02*
X2392085Y-404795D01*
X2335516Y-404795D01*
X2335516Y-461364D01*
X2392085Y-461364D01*
X2646085Y554636D02*
X2646085Y611205D01*
X2589516Y611205D01*
X2589516Y554636D01*
X2646085Y554636D01*
X2646085Y-461364D02*
X2646085Y-404795D01*
X2589516Y-404795D01*
X2589516Y-461364D01*
X2646085Y-461364D01*
X2900084Y554636D02*
X2900084Y611205D01*
X2843515Y611205D01*
X2843515Y554636D01*
X2900084Y554636D01*
X2900084Y-461364D02*
X2900084Y-404795D01*
X2843515Y-404795D01*
X2843515Y-461364D01*
X2900084Y-461364D01*
X3154084Y554636D02*
X3154084Y611205D01*
X3097515Y611205D01*
X3097515Y554636D01*
X3154084Y554636D01*
X3154084Y-461364D02*
X3154084Y-404795D01*
X3097515Y-404795D01*
X3097515Y-461364D01*
X3154084Y-461364D01*
X3408084Y554636D02*
X3408084Y611205D01*
X3351515Y611205D01*
X3351515Y554636D01*
X3408084Y554636D01*
X3408084Y-461364D02*
X3408084Y-404795D01*
X3351515Y-404795D01*
X3351515Y-461364D01*
X3408084Y-461364D01*
X3662084Y554636D02*
X3662084Y611205D01*
X3605515Y611205D01*
X3605515Y554636D01*
X3662084Y554636D01*
X-3150000Y-1605000D02*
X-3100000Y-1555000D01*
X-3150000Y-1505000D01*
X-3200000Y-1555000D01*
X-3150000Y-1605000D01*
X-3150000Y-3055000D02*
X-3100000Y-3005000D01*
X-3150000Y-2955000D01*
X-3200000Y-3005000D01*
X-3150000Y-3055000D01*
X-2900000Y-1605000D02*
X-2850000Y-1555000D01*
X-2900000Y-1505000D01*
X-2950000Y-1555000D01*
X-2900000Y-1605000D01*
X-2650000Y-1605000D02*
X-2600000Y-1555000D01*
X-2650000Y-1505000D01*
X-2700000Y-1555000D01*
X-2650000Y-1605000D01*
X-2650000Y-3055000D02*
X-2600000Y-3005000D01*
X-2650000Y-2955000D01*
X-2700000Y-3005000D01*
X-2650000Y-3055000D01*
X-255000Y2960000D02*
X-205000Y3010000D01*
X-255000Y3060000D01*
X-305000Y3010000D01*
X-255000Y2960000D01*
X-255000Y1510000D02*
X-205000Y1560000D01*
X-255000Y1610000D01*
X-305000Y1560000D01*
X-255000Y1510000D01*
X-5000Y1510000D02*
X45000Y1560000D01*
X-5000Y1610000D01*
X-55000Y1560000D01*
X-5000Y1510000D01*
X245000Y2960000D02*
X295000Y3010000D01*
X245000Y3060000D01*
X195000Y3010000D01*
X245000Y2960000D01*
X245000Y1510000D02*
X295000Y1560000D01*
X245000Y1610000D01*
X195000Y1560000D01*
X245000Y1510000D01*
X2750000Y-1600000D02*
X2800000Y-1550000D01*
X2750000Y-1500000D01*
X2700000Y-1550000D01*
X2750000Y-1600000D01*
X2750000Y-3050000D02*
X2800000Y-3000000D01*
X2750000Y-2950000D01*
X2700000Y-3000000D01*
X2750000Y-3050000D01*
X3000000Y-1600000D02*
X3050000Y-1550000D01*
X3000000Y-1500000D01*
X2950000Y-1550000D01*
X3000000Y-1600000D01*
X3250000Y-1600000D02*
X3300000Y-1550000D01*
X3250000Y-1500000D01*
X3200000Y-1550000D01*
X3250000Y-1600000D01*
X3250000Y-3050000D02*
X3300000Y-3000000D01*
X3250000Y-2950000D01*
X3200000Y-3000000D01*
X3250000Y-3050000D01*
D13*
X-3641000Y2620000D02*
X-3531000Y2510000D01*
X-3531000Y2620000D02*
X-3641000Y2510000D01*
X-3531000Y2565000D02*
G75*
G02*
X-3641000Y2565000I-55000J0D01*
G01*
X-3641000Y2565000D02*
G75*
G02*
X-3531000Y2565000I55000J0D01*
G01*
X-3641000Y2170000D02*
X-3531000Y2060000D01*
X-3531000Y2170000D02*
X-3641000Y2060000D01*
X-3531000Y2115000D02*
G75*
G02*
X-3641000Y2115000I-55000J0D01*
G01*
X-3641000Y2115000D02*
G75*
G02*
X-3531000Y2115000I55000J0D01*
G01*
X-2991000Y2620000D02*
X-2881000Y2510000D01*
X-2881000Y2620000D02*
X-2991000Y2510000D01*
X-2881000Y2565000D02*
G75*
G02*
X-2991000Y2565000I-55000J0D01*
G01*
X-2991000Y2565000D02*
G75*
G02*
X-2881000Y2565000I55000J0D01*
G01*
X-2991000Y2170000D02*
X-2881000Y2060000D01*
X-2881000Y2170000D02*
X-2991000Y2060000D01*
X-2881000Y2115000D02*
G75*
G02*
X-2991000Y2115000I-55000J0D01*
G01*
X-2991000Y2115000D02*
G75*
G02*
X-2881000Y2115000I55000J0D01*
G01*
X-363000Y-1984800D02*
X-253000Y-2094800D01*
X-253000Y-1984800D02*
X-363000Y-2094800D01*
X-253000Y-2039800D02*
G75*
G02*
X-363000Y-2039800I-55000J0D01*
G01*
X-363000Y-2039800D02*
G75*
G02*
X-253000Y-2039800I55000J0D01*
G01*
X-363000Y-2434800D02*
X-253000Y-2544800D01*
X-253000Y-2434800D02*
X-363000Y-2544800D01*
X-253000Y-2489800D02*
G75*
G02*
X-363000Y-2489800I-55000J0D01*
G01*
X-363000Y-2489800D02*
G75*
G02*
X-253000Y-2489800I55000J0D01*
G01*
X287000Y-1984800D02*
X397000Y-2094800D01*
X397000Y-1984800D02*
X287000Y-2094800D01*
X397000Y-2039800D02*
G75*
G02*
X287000Y-2039800I-55000J0D01*
G01*
X287000Y-2039800D02*
G75*
G02*
X397000Y-2039800I55000J0D01*
G01*
X287000Y-2434800D02*
X397000Y-2544800D01*
X397000Y-2434800D02*
X287000Y-2544800D01*
X397000Y-2489800D02*
G75*
G02*
X287000Y-2489800I-55000J0D01*
G01*
X287000Y-2489800D02*
G75*
G02*
X397000Y-2489800I55000J0D01*
G01*
X2931250Y2620460D02*
X3041250Y2510460D01*
X3041250Y2620460D02*
X2931250Y2510460D01*
X3041250Y2565460D02*
G75*
G02*
X2931250Y2565460I-55000J0D01*
G01*
X2931250Y2565460D02*
G75*
G02*
X3041250Y2565460I55000J0D01*
G01*
X2931250Y2170460D02*
X3041250Y2060460D01*
X3041250Y2170460D02*
X2931250Y2060460D01*
X3041250Y2115460D02*
G75*
G02*
X2931250Y2115460I-55000J0D01*
G01*
X2931250Y2115460D02*
G75*
G02*
X3041250Y2115460I55000J0D01*
G01*
X3581250Y2620460D02*
X3691250Y2510460D01*
X3691250Y2620460D02*
X3581250Y2510460D01*
X3691250Y2565460D02*
G75*
G02*
X3581250Y2565460I-55000J0D01*
G01*
X3581250Y2565460D02*
G75*
G02*
X3691250Y2565460I55000J0D01*
G01*
X3581250Y2170460D02*
X3691250Y2060460D01*
X3691250Y2170460D02*
X3581250Y2060460D01*
X3691250Y2115460D02*
G75*
G02*
X3581250Y2115460I-55000J0D01*
G01*
X3581250Y2115460D02*
G75*
G02*
X3691250Y2115460I55000J0D01*
G01*
D14*
X-3590000Y-2175000D02*
X-3330000Y-2435000D01*
X-3330000Y-2175000D02*
X-3590000Y-2435000D01*
X-3460000Y-2175000D02*
X-3460000Y-2435000D01*
X-3590000Y-2305000D02*
X-3330000Y-2305000D01*
X-2470000Y-2175000D02*
X-2210000Y-2435000D01*
X-2210000Y-2175000D02*
X-2470000Y-2435000D01*
X-2340000Y-2175000D02*
X-2340000Y-2435000D01*
X-2470000Y-2305000D02*
X-2210000Y-2305000D01*
X-695000Y2440000D02*
X-435000Y2180000D01*
X-435000Y2440000D02*
X-695000Y2180000D01*
X-565000Y2440000D02*
X-565000Y2180000D01*
X-695000Y2310000D02*
X-435000Y2310000D01*
X425000Y2440000D02*
X685000Y2180000D01*
X685000Y2440000D02*
X425000Y2180000D01*
X555000Y2440000D02*
X555000Y2180000D01*
X425000Y2310000D02*
X685000Y2310000D01*
X2310000Y-2170000D02*
X2570000Y-2430000D01*
X2570000Y-2170000D02*
X2310000Y-2430000D01*
X2440000Y-2170000D02*
X2440000Y-2430000D01*
X2310000Y-2300000D02*
X2570000Y-2300000D01*
X3430000Y-2170000D02*
X3690000Y-2430000D01*
X3690000Y-2170000D02*
X3430000Y-2430000D01*
X3560000Y-2170000D02*
X3560000Y-2430000D01*
X3430000Y-2300000D02*
X3690000Y-2300000D01*
D11*
X-4751723Y-4123984D02*
X-4751723Y-3923984D01*
X-4751723Y-3923984D02*
X-4704104Y-3923984D01*
X-4704104Y-3923984D02*
X-4675533Y-3933508D01*
X-4675533Y-3933508D02*
X-4656485Y-3952555D01*
X-4656485Y-3952555D02*
X-4646961Y-3971603D01*
X-4646961Y-3971603D02*
X-4637438Y-4009698D01*
X-4637438Y-4009698D02*
X-4637438Y-4038269D01*
X-4637438Y-4038269D02*
X-4646961Y-4076365D01*
X-4646961Y-4076365D02*
X-4656485Y-4095412D01*
X-4656485Y-4095412D02*
X-4675533Y-4114460D01*
X-4675533Y-4114460D02*
X-4704104Y-4123984D01*
X-4704104Y-4123984D02*
X-4751723Y-4123984D01*
X-4551723Y-4123984D02*
X-4551723Y-3990650D01*
X-4551723Y-4028746D02*
X-4542200Y-4009698D01*
X-4542200Y-4009698D02*
X-4532676Y-4000174D01*
X-4532676Y-4000174D02*
X-4513628Y-3990650D01*
X-4513628Y-3990650D02*
X-4494580Y-3990650D01*
X-4427914Y-4123984D02*
X-4427914Y-3990650D01*
X-4427914Y-3923984D02*
X-4437438Y-3933508D01*
X-4437438Y-3933508D02*
X-4427914Y-3943031D01*
X-4427914Y-3943031D02*
X-4418390Y-3933508D01*
X-4418390Y-3933508D02*
X-4427914Y-3923984D01*
X-4427914Y-3923984D02*
X-4427914Y-3943031D01*
X-4304104Y-4123984D02*
X-4323152Y-4114460D01*
X-4323152Y-4114460D02*
X-4332676Y-4095412D01*
X-4332676Y-4095412D02*
X-4332676Y-3923984D01*
X-4199342Y-4123984D02*
X-4218390Y-4114460D01*
X-4218390Y-4114460D02*
X-4227914Y-4095412D01*
X-4227914Y-4095412D02*
X-4227914Y-3923984D01*
X-3970771Y-4123984D02*
X-3970771Y-3923984D01*
X-3970771Y-3923984D02*
X-3904104Y-4066841D01*
X-3904104Y-4066841D02*
X-3837438Y-3923984D01*
X-3837438Y-3923984D02*
X-3837438Y-4123984D01*
X-3656485Y-4123984D02*
X-3656485Y-4019222D01*
X-3656485Y-4019222D02*
X-3666009Y-4000174D01*
X-3666009Y-4000174D02*
X-3685057Y-3990650D01*
X-3685057Y-3990650D02*
X-3723152Y-3990650D01*
X-3723152Y-3990650D02*
X-3742199Y-4000174D01*
X-3656485Y-4114460D02*
X-3675533Y-4123984D01*
X-3675533Y-4123984D02*
X-3723152Y-4123984D01*
X-3723152Y-4123984D02*
X-3742199Y-4114460D01*
X-3742199Y-4114460D02*
X-3751723Y-4095412D01*
X-3751723Y-4095412D02*
X-3751723Y-4076365D01*
X-3751723Y-4076365D02*
X-3742199Y-4057317D01*
X-3742199Y-4057317D02*
X-3723152Y-4047793D01*
X-3723152Y-4047793D02*
X-3675533Y-4047793D01*
X-3675533Y-4047793D02*
X-3656485Y-4038269D01*
X-3561247Y-3990650D02*
X-3561247Y-4190650D01*
X-3561247Y-4000174D02*
X-3542199Y-3990650D01*
X-3542199Y-3990650D02*
X-3504104Y-3990650D01*
X-3504104Y-3990650D02*
X-3485057Y-4000174D01*
X-3485057Y-4000174D02*
X-3475533Y-4009698D01*
X-3475533Y-4009698D02*
X-3466009Y-4028746D01*
X-3466009Y-4028746D02*
X-3466009Y-4085888D01*
X-3466009Y-4085888D02*
X-3475533Y-4104936D01*
X-3475533Y-4104936D02*
X-3485057Y-4114460D01*
X-3485057Y-4114460D02*
X-3504104Y-4123984D01*
X-3504104Y-4123984D02*
X-3542199Y-4123984D01*
X-3542199Y-4123984D02*
X-3561247Y-4114460D01*
X-3380295Y-4104936D02*
X-3370771Y-4114460D01*
X-3370771Y-4114460D02*
X-3380295Y-4123984D01*
X-3380295Y-4123984D02*
X-3389818Y-4114460D01*
X-3389818Y-4114460D02*
X-3380295Y-4104936D01*
X-3380295Y-4104936D02*
X-3380295Y-4123984D01*
X-3380295Y-4000174D02*
X-3370771Y-4009698D01*
X-3370771Y-4009698D02*
X-3380295Y-4019222D01*
X-3380295Y-4019222D02*
X-3389818Y-4009698D01*
X-3389818Y-4009698D02*
X-3380295Y-4000174D01*
X-3380295Y-4000174D02*
X-3380295Y-4019222D01*
D12*
X-5052500Y-4432500D02*
X-5012500Y-4472500D01*
X-5012500Y-4432500D02*
X-5052500Y-4472500D01*
D11*
X-4713628Y-4343984D02*
X-4694580Y-4343984D01*
X-4694580Y-4343984D02*
X-4675533Y-4353508D01*
X-4675533Y-4353508D02*
X-4666009Y-4363031D01*
X-4666009Y-4363031D02*
X-4656485Y-4382079D01*
X-4656485Y-4382079D02*
X-4646961Y-4420174D01*
X-4646961Y-4420174D02*
X-4646961Y-4467793D01*
X-4646961Y-4467793D02*
X-4656485Y-4505889D01*
X-4656485Y-4505889D02*
X-4666009Y-4524936D01*
X-4666009Y-4524936D02*
X-4675533Y-4534460D01*
X-4675533Y-4534460D02*
X-4694580Y-4543984D01*
X-4694580Y-4543984D02*
X-4713628Y-4543984D01*
X-4713628Y-4543984D02*
X-4732676Y-4534460D01*
X-4732676Y-4534460D02*
X-4742200Y-4524936D01*
X-4742200Y-4524936D02*
X-4751723Y-4505889D01*
X-4751723Y-4505889D02*
X-4761247Y-4467793D01*
X-4761247Y-4467793D02*
X-4761247Y-4420174D01*
X-4761247Y-4420174D02*
X-4751723Y-4382079D01*
X-4751723Y-4382079D02*
X-4742200Y-4363031D01*
X-4742200Y-4363031D02*
X-4732676Y-4353508D01*
X-4732676Y-4353508D02*
X-4713628Y-4343984D01*
X-4561247Y-4524936D02*
X-4551723Y-4534460D01*
X-4551723Y-4534460D02*
X-4561247Y-4543984D01*
X-4561247Y-4543984D02*
X-4570771Y-4534460D01*
X-4570771Y-4534460D02*
X-4561247Y-4524936D01*
X-4561247Y-4524936D02*
X-4561247Y-4543984D01*
X-4380295Y-4410650D02*
X-4380295Y-4543984D01*
X-4427914Y-4334460D02*
X-4475533Y-4477317D01*
X-4475533Y-4477317D02*
X-4351723Y-4477317D01*
X-4237438Y-4343984D02*
X-4218390Y-4343984D01*
X-4218390Y-4343984D02*
X-4199342Y-4353508D01*
X-4199342Y-4353508D02*
X-4189818Y-4363031D01*
X-4189818Y-4363031D02*
X-4180295Y-4382079D01*
X-4180295Y-4382079D02*
X-4170771Y-4420174D01*
X-4170771Y-4420174D02*
X-4170771Y-4467793D01*
X-4170771Y-4467793D02*
X-4180295Y-4505889D01*
X-4180295Y-4505889D02*
X-4189818Y-4524936D01*
X-4189818Y-4524936D02*
X-4199342Y-4534460D01*
X-4199342Y-4534460D02*
X-4218390Y-4543984D01*
X-4218390Y-4543984D02*
X-4237438Y-4543984D01*
X-4237438Y-4543984D02*
X-4256485Y-4534460D01*
X-4256485Y-4534460D02*
X-4266009Y-4524936D01*
X-4266009Y-4524936D02*
X-4275533Y-4505889D01*
X-4275533Y-4505889D02*
X-4285057Y-4467793D01*
X-4285057Y-4467793D02*
X-4285057Y-4420174D01*
X-4285057Y-4420174D02*
X-4275533Y-4382079D01*
X-4275533Y-4382079D02*
X-4266009Y-4363031D01*
X-4266009Y-4363031D02*
X-4256485Y-4353508D01*
X-4256485Y-4353508D02*
X-4237438Y-4343984D01*
X-4046961Y-4343984D02*
X-4027914Y-4343984D01*
X-4027914Y-4343984D02*
X-4008866Y-4353508D01*
X-4008866Y-4353508D02*
X-3999342Y-4363031D01*
X-3999342Y-4363031D02*
X-3989818Y-4382079D01*
X-3989818Y-4382079D02*
X-3980295Y-4420174D01*
X-3980295Y-4420174D02*
X-3980295Y-4467793D01*
X-3980295Y-4467793D02*
X-3989818Y-4505889D01*
X-3989818Y-4505889D02*
X-3999342Y-4524936D01*
X-3999342Y-4524936D02*
X-4008866Y-4534460D01*
X-4008866Y-4534460D02*
X-4027914Y-4543984D01*
X-4027914Y-4543984D02*
X-4046961Y-4543984D01*
X-4046961Y-4543984D02*
X-4066009Y-4534460D01*
X-4066009Y-4534460D02*
X-4075533Y-4524936D01*
X-4075533Y-4524936D02*
X-4085057Y-4505889D01*
X-4085057Y-4505889D02*
X-4094580Y-4467793D01*
X-4094580Y-4467793D02*
X-4094580Y-4420174D01*
X-4094580Y-4420174D02*
X-4085057Y-4382079D01*
X-4085057Y-4382079D02*
X-4075533Y-4363031D01*
X-4075533Y-4363031D02*
X-4066009Y-4353508D01*
X-4066009Y-4353508D02*
X-4046961Y-4343984D01*
X-3894580Y-4543984D02*
X-3894580Y-4410650D01*
X-3894580Y-4429698D02*
X-3885057Y-4420174D01*
X-3885057Y-4420174D02*
X-3866009Y-4410650D01*
X-3866009Y-4410650D02*
X-3837437Y-4410650D01*
X-3837437Y-4410650D02*
X-3818390Y-4420174D01*
X-3818390Y-4420174D02*
X-3808866Y-4439222D01*
X-3808866Y-4439222D02*
X-3808866Y-4543984D01*
X-3808866Y-4439222D02*
X-3799342Y-4420174D01*
X-3799342Y-4420174D02*
X-3780295Y-4410650D01*
X-3780295Y-4410650D02*
X-3751723Y-4410650D01*
X-3751723Y-4410650D02*
X-3732676Y-4420174D01*
X-3732676Y-4420174D02*
X-3723152Y-4439222D01*
X-3723152Y-4439222D02*
X-3723152Y-4543984D01*
X-3627914Y-4543984D02*
X-3627914Y-4410650D01*
X-3627914Y-4429698D02*
X-3618390Y-4420174D01*
X-3618390Y-4420174D02*
X-3599342Y-4410650D01*
X-3599342Y-4410650D02*
X-3570771Y-4410650D01*
X-3570771Y-4410650D02*
X-3551723Y-4420174D01*
X-3551723Y-4420174D02*
X-3542199Y-4439222D01*
X-3542199Y-4439222D02*
X-3542199Y-4543984D01*
X-3542199Y-4439222D02*
X-3532676Y-4420174D01*
X-3532676Y-4420174D02*
X-3513628Y-4410650D01*
X-3513628Y-4410650D02*
X-3485057Y-4410650D01*
X-3485057Y-4410650D02*
X-3466009Y-4420174D01*
X-3466009Y-4420174D02*
X-3456485Y-4439222D01*
X-3456485Y-4439222D02*
X-3456485Y-4543984D01*
X-3066009Y-4334460D02*
X-3237437Y-4591603D01*
X-2808866Y-4343984D02*
X-2789818Y-4343984D01*
X-2789818Y-4343984D02*
X-2770771Y-4353508D01*
X-2770771Y-4353508D02*
X-2761247Y-4363031D01*
X-2761247Y-4363031D02*
X-2751723Y-4382079D01*
X-2751723Y-4382079D02*
X-2742199Y-4420174D01*
X-2742199Y-4420174D02*
X-2742199Y-4467793D01*
X-2742199Y-4467793D02*
X-2751723Y-4505889D01*
X-2751723Y-4505889D02*
X-2761247Y-4524936D01*
X-2761247Y-4524936D02*
X-2770771Y-4534460D01*
X-2770771Y-4534460D02*
X-2789818Y-4543984D01*
X-2789818Y-4543984D02*
X-2808866Y-4543984D01*
X-2808866Y-4543984D02*
X-2827914Y-4534460D01*
X-2827914Y-4534460D02*
X-2837437Y-4524936D01*
X-2837437Y-4524936D02*
X-2846961Y-4505889D01*
X-2846961Y-4505889D02*
X-2856485Y-4467793D01*
X-2856485Y-4467793D02*
X-2856485Y-4420174D01*
X-2856485Y-4420174D02*
X-2846961Y-4382079D01*
X-2846961Y-4382079D02*
X-2837437Y-4363031D01*
X-2837437Y-4363031D02*
X-2827914Y-4353508D01*
X-2827914Y-4353508D02*
X-2808866Y-4343984D01*
X-2656485Y-4524936D02*
X-2646961Y-4534460D01*
X-2646961Y-4534460D02*
X-2656485Y-4543984D01*
X-2656485Y-4543984D02*
X-2666009Y-4534460D01*
X-2666009Y-4534460D02*
X-2656485Y-4524936D01*
X-2656485Y-4524936D02*
X-2656485Y-4543984D01*
X-2523152Y-4343984D02*
X-2504104Y-4343984D01*
X-2504104Y-4343984D02*
X-2485056Y-4353508D01*
X-2485056Y-4353508D02*
X-2475533Y-4363031D01*
X-2475533Y-4363031D02*
X-2466009Y-4382079D01*
X-2466009Y-4382079D02*
X-2456485Y-4420174D01*
X-2456485Y-4420174D02*
X-2456485Y-4467793D01*
X-2456485Y-4467793D02*
X-2466009Y-4505889D01*
X-2466009Y-4505889D02*
X-2475533Y-4524936D01*
X-2475533Y-4524936D02*
X-2485056Y-4534460D01*
X-2485056Y-4534460D02*
X-2504104Y-4543984D01*
X-2504104Y-4543984D02*
X-2523152Y-4543984D01*
X-2523152Y-4543984D02*
X-2542199Y-4534460D01*
X-2542199Y-4534460D02*
X-2551723Y-4524936D01*
X-2551723Y-4524936D02*
X-2561247Y-4505889D01*
X-2561247Y-4505889D02*
X-2570771Y-4467793D01*
X-2570771Y-4467793D02*
X-2570771Y-4420174D01*
X-2570771Y-4420174D02*
X-2561247Y-4382079D01*
X-2561247Y-4382079D02*
X-2551723Y-4363031D01*
X-2551723Y-4363031D02*
X-2542199Y-4353508D01*
X-2542199Y-4353508D02*
X-2523152Y-4343984D01*
X-2266009Y-4543984D02*
X-2380295Y-4543984D01*
X-2323152Y-4543984D02*
X-2323152Y-4343984D01*
X-2323152Y-4343984D02*
X-2342199Y-4372555D01*
X-2342199Y-4372555D02*
X-2361247Y-4391603D01*
X-2361247Y-4391603D02*
X-2380295Y-4401127D01*
X-2085056Y-4343984D02*
X-2180295Y-4343984D01*
X-2180295Y-4343984D02*
X-2189818Y-4439222D01*
X-2189818Y-4439222D02*
X-2180295Y-4429698D01*
X-2180295Y-4429698D02*
X-2161247Y-4420174D01*
X-2161247Y-4420174D02*
X-2113628Y-4420174D01*
X-2113628Y-4420174D02*
X-2094580Y-4429698D01*
X-2094580Y-4429698D02*
X-2085056Y-4439222D01*
X-2085056Y-4439222D02*
X-2075533Y-4458270D01*
X-2075533Y-4458270D02*
X-2075533Y-4505889D01*
X-2075533Y-4505889D02*
X-2085056Y-4524936D01*
X-2085056Y-4524936D02*
X-2094580Y-4534460D01*
X-2094580Y-4534460D02*
X-2113628Y-4543984D01*
X-2113628Y-4543984D02*
X-2161247Y-4543984D01*
X-2161247Y-4543984D02*
X-2180295Y-4534460D01*
X-2180295Y-4534460D02*
X-2189818Y-4524936D01*
X-2008866Y-4343984D02*
X-1875533Y-4343984D01*
X-1875533Y-4343984D02*
X-1961247Y-4543984D01*
X-1808866Y-4343984D02*
X-1808866Y-4382079D01*
X-1732675Y-4343984D02*
X-1732675Y-4382079D01*
X-1437437Y-4620174D02*
X-1446961Y-4610650D01*
X-1446961Y-4610650D02*
X-1466009Y-4582079D01*
X-1466009Y-4582079D02*
X-1475532Y-4563031D01*
X-1475532Y-4563031D02*
X-1485056Y-4534460D01*
X-1485056Y-4534460D02*
X-1494580Y-4486841D01*
X-1494580Y-4486841D02*
X-1494580Y-4448746D01*
X-1494580Y-4448746D02*
X-1485056Y-4401127D01*
X-1485056Y-4401127D02*
X-1475532Y-4372555D01*
X-1475532Y-4372555D02*
X-1466009Y-4353508D01*
X-1466009Y-4353508D02*
X-1446961Y-4324936D01*
X-1446961Y-4324936D02*
X-1437437Y-4315412D01*
X-1370771Y-4363031D02*
X-1361247Y-4353508D01*
X-1361247Y-4353508D02*
X-1342199Y-4343984D01*
X-1342199Y-4343984D02*
X-1294580Y-4343984D01*
X-1294580Y-4343984D02*
X-1275533Y-4353508D01*
X-1275533Y-4353508D02*
X-1266009Y-4363031D01*
X-1266009Y-4363031D02*
X-1256485Y-4382079D01*
X-1256485Y-4382079D02*
X-1256485Y-4401127D01*
X-1256485Y-4401127D02*
X-1266009Y-4429698D01*
X-1266009Y-4429698D02*
X-1380294Y-4543984D01*
X-1380294Y-4543984D02*
X-1256485Y-4543984D01*
X-1085056Y-4410650D02*
X-1085056Y-4543984D01*
X-1132675Y-4334460D02*
X-1180294Y-4477317D01*
X-1180294Y-4477317D02*
X-1056485Y-4477317D01*
X-827913Y-4543984D02*
X-827913Y-4343984D01*
X-742199Y-4543984D02*
X-742199Y-4439222D01*
X-742199Y-4439222D02*
X-751723Y-4420174D01*
X-751723Y-4420174D02*
X-770770Y-4410650D01*
X-770770Y-4410650D02*
X-799342Y-4410650D01*
X-799342Y-4410650D02*
X-818390Y-4420174D01*
X-818390Y-4420174D02*
X-827913Y-4429698D01*
X-618390Y-4543984D02*
X-637437Y-4534460D01*
X-637437Y-4534460D02*
X-646961Y-4524936D01*
X-646961Y-4524936D02*
X-656485Y-4505889D01*
X-656485Y-4505889D02*
X-656485Y-4448746D01*
X-656485Y-4448746D02*
X-646961Y-4429698D01*
X-646961Y-4429698D02*
X-637437Y-4420174D01*
X-637437Y-4420174D02*
X-618390Y-4410650D01*
X-618390Y-4410650D02*
X-589818Y-4410650D01*
X-589818Y-4410650D02*
X-570771Y-4420174D01*
X-570771Y-4420174D02*
X-561247Y-4429698D01*
X-561247Y-4429698D02*
X-551723Y-4448746D01*
X-551723Y-4448746D02*
X-551723Y-4505889D01*
X-551723Y-4505889D02*
X-561247Y-4524936D01*
X-561247Y-4524936D02*
X-570771Y-4534460D01*
X-570771Y-4534460D02*
X-589818Y-4543984D01*
X-589818Y-4543984D02*
X-618390Y-4543984D01*
X-437437Y-4543984D02*
X-456485Y-4534460D01*
X-456485Y-4534460D02*
X-466009Y-4515412D01*
X-466009Y-4515412D02*
X-466009Y-4343984D01*
X-285056Y-4534460D02*
X-304104Y-4543984D01*
X-304104Y-4543984D02*
X-342199Y-4543984D01*
X-342199Y-4543984D02*
X-361247Y-4534460D01*
X-361247Y-4534460D02*
X-370770Y-4515412D01*
X-370770Y-4515412D02*
X-370770Y-4439222D01*
X-370770Y-4439222D02*
X-361247Y-4420174D01*
X-361247Y-4420174D02*
X-342199Y-4410650D01*
X-342199Y-4410650D02*
X-304104Y-4410650D01*
X-304104Y-4410650D02*
X-285056Y-4420174D01*
X-285056Y-4420174D02*
X-275532Y-4439222D01*
X-275532Y-4439222D02*
X-275532Y-4458270D01*
X-275532Y-4458270D02*
X-370770Y-4477317D01*
X-199342Y-4534460D02*
X-180294Y-4543984D01*
X-180294Y-4543984D02*
X-142199Y-4543984D01*
X-142199Y-4543984D02*
X-123151Y-4534460D01*
X-123151Y-4534460D02*
X-113628Y-4515412D01*
X-113628Y-4515412D02*
X-113628Y-4505889D01*
X-113628Y-4505889D02*
X-123151Y-4486841D01*
X-123151Y-4486841D02*
X-142199Y-4477317D01*
X-142199Y-4477317D02*
X-170771Y-4477317D01*
X-170771Y-4477317D02*
X-189818Y-4467793D01*
X-189818Y-4467793D02*
X-199342Y-4448746D01*
X-199342Y-4448746D02*
X-199342Y-4439222D01*
X-199342Y-4439222D02*
X-189818Y-4420174D01*
X-189818Y-4420174D02*
X-170771Y-4410650D01*
X-170771Y-4410650D02*
X-142199Y-4410650D01*
X-142199Y-4410650D02*
X-123151Y-4420174D01*
X-46961Y-4620174D02*
X-37437Y-4610650D01*
X-37437Y-4610650D02*
X-18390Y-4582079D01*
X-18390Y-4582079D02*
X-8866Y-4563031D01*
X-8866Y-4563031D02*
X658Y-4534460D01*
X658Y-4534460D02*
X10182Y-4486841D01*
X10182Y-4486841D02*
X10182Y-4448746D01*
X10182Y-4448746D02*
X658Y-4401127D01*
X658Y-4401127D02*
X-8866Y-4372555D01*
X-8866Y-4372555D02*
X-18390Y-4353508D01*
X-18390Y-4353508D02*
X-37437Y-4324936D01*
X-37437Y-4324936D02*
X-46961Y-4315412D01*
D12*
X-5012500Y-4716500D02*
G75*
G02*
X-5072500Y-4716500I-30000J0D01*
G01*
X-5072500Y-4716500D02*
G75*
G02*
X-5012500Y-4716500I30000J0D01*
G01*
D11*
X-4713628Y-4607984D02*
X-4694580Y-4607984D01*
X-4694580Y-4607984D02*
X-4675533Y-4617508D01*
X-4675533Y-4617508D02*
X-4666009Y-4627031D01*
X-4666009Y-4627031D02*
X-4656485Y-4646079D01*
X-4656485Y-4646079D02*
X-4646961Y-4684174D01*
X-4646961Y-4684174D02*
X-4646961Y-4731793D01*
X-4646961Y-4731793D02*
X-4656485Y-4769889D01*
X-4656485Y-4769889D02*
X-4666009Y-4788936D01*
X-4666009Y-4788936D02*
X-4675533Y-4798460D01*
X-4675533Y-4798460D02*
X-4694580Y-4807984D01*
X-4694580Y-4807984D02*
X-4713628Y-4807984D01*
X-4713628Y-4807984D02*
X-4732676Y-4798460D01*
X-4732676Y-4798460D02*
X-4742200Y-4788936D01*
X-4742200Y-4788936D02*
X-4751723Y-4769889D01*
X-4751723Y-4769889D02*
X-4761247Y-4731793D01*
X-4761247Y-4731793D02*
X-4761247Y-4684174D01*
X-4761247Y-4684174D02*
X-4751723Y-4646079D01*
X-4751723Y-4646079D02*
X-4742200Y-4627031D01*
X-4742200Y-4627031D02*
X-4732676Y-4617508D01*
X-4732676Y-4617508D02*
X-4713628Y-4607984D01*
X-4561247Y-4788936D02*
X-4551723Y-4798460D01*
X-4551723Y-4798460D02*
X-4561247Y-4807984D01*
X-4561247Y-4807984D02*
X-4570771Y-4798460D01*
X-4570771Y-4798460D02*
X-4561247Y-4788936D01*
X-4561247Y-4788936D02*
X-4561247Y-4807984D01*
X-4380295Y-4607984D02*
X-4418390Y-4607984D01*
X-4418390Y-4607984D02*
X-4437438Y-4617508D01*
X-4437438Y-4617508D02*
X-4446961Y-4627031D01*
X-4446961Y-4627031D02*
X-4466009Y-4655603D01*
X-4466009Y-4655603D02*
X-4475533Y-4693698D01*
X-4475533Y-4693698D02*
X-4475533Y-4769889D01*
X-4475533Y-4769889D02*
X-4466009Y-4788936D01*
X-4466009Y-4788936D02*
X-4456485Y-4798460D01*
X-4456485Y-4798460D02*
X-4437438Y-4807984D01*
X-4437438Y-4807984D02*
X-4399342Y-4807984D01*
X-4399342Y-4807984D02*
X-4380295Y-4798460D01*
X-4380295Y-4798460D02*
X-4370771Y-4788936D01*
X-4370771Y-4788936D02*
X-4361247Y-4769889D01*
X-4361247Y-4769889D02*
X-4361247Y-4722270D01*
X-4361247Y-4722270D02*
X-4370771Y-4703222D01*
X-4370771Y-4703222D02*
X-4380295Y-4693698D01*
X-4380295Y-4693698D02*
X-4399342Y-4684174D01*
X-4399342Y-4684174D02*
X-4437438Y-4684174D01*
X-4437438Y-4684174D02*
X-4456485Y-4693698D01*
X-4456485Y-4693698D02*
X-4466009Y-4703222D01*
X-4466009Y-4703222D02*
X-4475533Y-4722270D01*
X-4237438Y-4607984D02*
X-4218390Y-4607984D01*
X-4218390Y-4607984D02*
X-4199342Y-4617508D01*
X-4199342Y-4617508D02*
X-4189818Y-4627031D01*
X-4189818Y-4627031D02*
X-4180295Y-4646079D01*
X-4180295Y-4646079D02*
X-4170771Y-4684174D01*
X-4170771Y-4684174D02*
X-4170771Y-4731793D01*
X-4170771Y-4731793D02*
X-4180295Y-4769889D01*
X-4180295Y-4769889D02*
X-4189818Y-4788936D01*
X-4189818Y-4788936D02*
X-4199342Y-4798460D01*
X-4199342Y-4798460D02*
X-4218390Y-4807984D01*
X-4218390Y-4807984D02*
X-4237438Y-4807984D01*
X-4237438Y-4807984D02*
X-4256485Y-4798460D01*
X-4256485Y-4798460D02*
X-4266009Y-4788936D01*
X-4266009Y-4788936D02*
X-4275533Y-4769889D01*
X-4275533Y-4769889D02*
X-4285057Y-4731793D01*
X-4285057Y-4731793D02*
X-4285057Y-4684174D01*
X-4285057Y-4684174D02*
X-4275533Y-4646079D01*
X-4275533Y-4646079D02*
X-4266009Y-4627031D01*
X-4266009Y-4627031D02*
X-4256485Y-4617508D01*
X-4256485Y-4617508D02*
X-4237438Y-4607984D01*
X-4046961Y-4607984D02*
X-4027914Y-4607984D01*
X-4027914Y-4607984D02*
X-4008866Y-4617508D01*
X-4008866Y-4617508D02*
X-3999342Y-4627031D01*
X-3999342Y-4627031D02*
X-3989818Y-4646079D01*
X-3989818Y-4646079D02*
X-3980295Y-4684174D01*
X-3980295Y-4684174D02*
X-3980295Y-4731793D01*
X-3980295Y-4731793D02*
X-3989818Y-4769889D01*
X-3989818Y-4769889D02*
X-3999342Y-4788936D01*
X-3999342Y-4788936D02*
X-4008866Y-4798460D01*
X-4008866Y-4798460D02*
X-4027914Y-4807984D01*
X-4027914Y-4807984D02*
X-4046961Y-4807984D01*
X-4046961Y-4807984D02*
X-4066009Y-4798460D01*
X-4066009Y-4798460D02*
X-4075533Y-4788936D01*
X-4075533Y-4788936D02*
X-4085057Y-4769889D01*
X-4085057Y-4769889D02*
X-4094580Y-4731793D01*
X-4094580Y-4731793D02*
X-4094580Y-4684174D01*
X-4094580Y-4684174D02*
X-4085057Y-4646079D01*
X-4085057Y-4646079D02*
X-4075533Y-4627031D01*
X-4075533Y-4627031D02*
X-4066009Y-4617508D01*
X-4066009Y-4617508D02*
X-4046961Y-4607984D01*
X-3894580Y-4807984D02*
X-3894580Y-4674650D01*
X-3894580Y-4693698D02*
X-3885057Y-4684174D01*
X-3885057Y-4684174D02*
X-3866009Y-4674650D01*
X-3866009Y-4674650D02*
X-3837437Y-4674650D01*
X-3837437Y-4674650D02*
X-3818390Y-4684174D01*
X-3818390Y-4684174D02*
X-3808866Y-4703222D01*
X-3808866Y-4703222D02*
X-3808866Y-4807984D01*
X-3808866Y-4703222D02*
X-3799342Y-4684174D01*
X-3799342Y-4684174D02*
X-3780295Y-4674650D01*
X-3780295Y-4674650D02*
X-3751723Y-4674650D01*
X-3751723Y-4674650D02*
X-3732676Y-4684174D01*
X-3732676Y-4684174D02*
X-3723152Y-4703222D01*
X-3723152Y-4703222D02*
X-3723152Y-4807984D01*
X-3627914Y-4807984D02*
X-3627914Y-4674650D01*
X-3627914Y-4693698D02*
X-3618390Y-4684174D01*
X-3618390Y-4684174D02*
X-3599342Y-4674650D01*
X-3599342Y-4674650D02*
X-3570771Y-4674650D01*
X-3570771Y-4674650D02*
X-3551723Y-4684174D01*
X-3551723Y-4684174D02*
X-3542199Y-4703222D01*
X-3542199Y-4703222D02*
X-3542199Y-4807984D01*
X-3542199Y-4703222D02*
X-3532676Y-4684174D01*
X-3532676Y-4684174D02*
X-3513628Y-4674650D01*
X-3513628Y-4674650D02*
X-3485057Y-4674650D01*
X-3485057Y-4674650D02*
X-3466009Y-4684174D01*
X-3466009Y-4684174D02*
X-3456485Y-4703222D01*
X-3456485Y-4703222D02*
X-3456485Y-4807984D01*
X-3066009Y-4598460D02*
X-3237437Y-4855603D01*
X-2808866Y-4607984D02*
X-2789818Y-4607984D01*
X-2789818Y-4607984D02*
X-2770771Y-4617508D01*
X-2770771Y-4617508D02*
X-2761247Y-4627031D01*
X-2761247Y-4627031D02*
X-2751723Y-4646079D01*
X-2751723Y-4646079D02*
X-2742199Y-4684174D01*
X-2742199Y-4684174D02*
X-2742199Y-4731793D01*
X-2742199Y-4731793D02*
X-2751723Y-4769889D01*
X-2751723Y-4769889D02*
X-2761247Y-4788936D01*
X-2761247Y-4788936D02*
X-2770771Y-4798460D01*
X-2770771Y-4798460D02*
X-2789818Y-4807984D01*
X-2789818Y-4807984D02*
X-2808866Y-4807984D01*
X-2808866Y-4807984D02*
X-2827914Y-4798460D01*
X-2827914Y-4798460D02*
X-2837437Y-4788936D01*
X-2837437Y-4788936D02*
X-2846961Y-4769889D01*
X-2846961Y-4769889D02*
X-2856485Y-4731793D01*
X-2856485Y-4731793D02*
X-2856485Y-4684174D01*
X-2856485Y-4684174D02*
X-2846961Y-4646079D01*
X-2846961Y-4646079D02*
X-2837437Y-4627031D01*
X-2837437Y-4627031D02*
X-2827914Y-4617508D01*
X-2827914Y-4617508D02*
X-2808866Y-4607984D01*
X-2656485Y-4788936D02*
X-2646961Y-4798460D01*
X-2646961Y-4798460D02*
X-2656485Y-4807984D01*
X-2656485Y-4807984D02*
X-2666009Y-4798460D01*
X-2666009Y-4798460D02*
X-2656485Y-4788936D01*
X-2656485Y-4788936D02*
X-2656485Y-4807984D01*
X-2523152Y-4607984D02*
X-2504104Y-4607984D01*
X-2504104Y-4607984D02*
X-2485056Y-4617508D01*
X-2485056Y-4617508D02*
X-2475533Y-4627031D01*
X-2475533Y-4627031D02*
X-2466009Y-4646079D01*
X-2466009Y-4646079D02*
X-2456485Y-4684174D01*
X-2456485Y-4684174D02*
X-2456485Y-4731793D01*
X-2456485Y-4731793D02*
X-2466009Y-4769889D01*
X-2466009Y-4769889D02*
X-2475533Y-4788936D01*
X-2475533Y-4788936D02*
X-2485056Y-4798460D01*
X-2485056Y-4798460D02*
X-2504104Y-4807984D01*
X-2504104Y-4807984D02*
X-2523152Y-4807984D01*
X-2523152Y-4807984D02*
X-2542199Y-4798460D01*
X-2542199Y-4798460D02*
X-2551723Y-4788936D01*
X-2551723Y-4788936D02*
X-2561247Y-4769889D01*
X-2561247Y-4769889D02*
X-2570771Y-4731793D01*
X-2570771Y-4731793D02*
X-2570771Y-4684174D01*
X-2570771Y-4684174D02*
X-2561247Y-4646079D01*
X-2561247Y-4646079D02*
X-2551723Y-4627031D01*
X-2551723Y-4627031D02*
X-2542199Y-4617508D01*
X-2542199Y-4617508D02*
X-2523152Y-4607984D01*
X-2380295Y-4627031D02*
X-2370771Y-4617508D01*
X-2370771Y-4617508D02*
X-2351723Y-4607984D01*
X-2351723Y-4607984D02*
X-2304104Y-4607984D01*
X-2304104Y-4607984D02*
X-2285056Y-4617508D01*
X-2285056Y-4617508D02*
X-2275533Y-4627031D01*
X-2275533Y-4627031D02*
X-2266009Y-4646079D01*
X-2266009Y-4646079D02*
X-2266009Y-4665127D01*
X-2266009Y-4665127D02*
X-2275533Y-4693698D01*
X-2275533Y-4693698D02*
X-2389818Y-4807984D01*
X-2389818Y-4807984D02*
X-2266009Y-4807984D01*
X-2199342Y-4607984D02*
X-2075533Y-4607984D01*
X-2075533Y-4607984D02*
X-2142199Y-4684174D01*
X-2142199Y-4684174D02*
X-2113628Y-4684174D01*
X-2113628Y-4684174D02*
X-2094580Y-4693698D01*
X-2094580Y-4693698D02*
X-2085056Y-4703222D01*
X-2085056Y-4703222D02*
X-2075533Y-4722270D01*
X-2075533Y-4722270D02*
X-2075533Y-4769889D01*
X-2075533Y-4769889D02*
X-2085056Y-4788936D01*
X-2085056Y-4788936D02*
X-2094580Y-4798460D01*
X-2094580Y-4798460D02*
X-2113628Y-4807984D01*
X-2113628Y-4807984D02*
X-2170771Y-4807984D01*
X-2170771Y-4807984D02*
X-2189818Y-4798460D01*
X-2189818Y-4798460D02*
X-2199342Y-4788936D01*
X-1904104Y-4607984D02*
X-1942199Y-4607984D01*
X-1942199Y-4607984D02*
X-1961247Y-4617508D01*
X-1961247Y-4617508D02*
X-1970771Y-4627031D01*
X-1970771Y-4627031D02*
X-1989818Y-4655603D01*
X-1989818Y-4655603D02*
X-1999342Y-4693698D01*
X-1999342Y-4693698D02*
X-1999342Y-4769889D01*
X-1999342Y-4769889D02*
X-1989818Y-4788936D01*
X-1989818Y-4788936D02*
X-1980294Y-4798460D01*
X-1980294Y-4798460D02*
X-1961247Y-4807984D01*
X-1961247Y-4807984D02*
X-1923152Y-4807984D01*
X-1923152Y-4807984D02*
X-1904104Y-4798460D01*
X-1904104Y-4798460D02*
X-1894580Y-4788936D01*
X-1894580Y-4788936D02*
X-1885056Y-4769889D01*
X-1885056Y-4769889D02*
X-1885056Y-4722270D01*
X-1885056Y-4722270D02*
X-1894580Y-4703222D01*
X-1894580Y-4703222D02*
X-1904104Y-4693698D01*
X-1904104Y-4693698D02*
X-1923152Y-4684174D01*
X-1923152Y-4684174D02*
X-1961247Y-4684174D01*
X-1961247Y-4684174D02*
X-1980294Y-4693698D01*
X-1980294Y-4693698D02*
X-1989818Y-4703222D01*
X-1989818Y-4703222D02*
X-1999342Y-4722270D01*
X-1808866Y-4607984D02*
X-1808866Y-4646079D01*
X-1732675Y-4607984D02*
X-1732675Y-4646079D01*
X-1437437Y-4884174D02*
X-1446961Y-4874650D01*
X-1446961Y-4874650D02*
X-1466009Y-4846079D01*
X-1466009Y-4846079D02*
X-1475532Y-4827031D01*
X-1475532Y-4827031D02*
X-1485056Y-4798460D01*
X-1485056Y-4798460D02*
X-1494580Y-4750841D01*
X-1494580Y-4750841D02*
X-1494580Y-4712746D01*
X-1494580Y-4712746D02*
X-1485056Y-4665127D01*
X-1485056Y-4665127D02*
X-1475532Y-4636555D01*
X-1475532Y-4636555D02*
X-1466009Y-4617508D01*
X-1466009Y-4617508D02*
X-1446961Y-4588936D01*
X-1446961Y-4588936D02*
X-1437437Y-4579412D01*
X-1256485Y-4807984D02*
X-1370771Y-4807984D01*
X-1313628Y-4807984D02*
X-1313628Y-4607984D01*
X-1313628Y-4607984D02*
X-1332675Y-4636555D01*
X-1332675Y-4636555D02*
X-1351723Y-4655603D01*
X-1351723Y-4655603D02*
X-1370771Y-4665127D01*
X-1018390Y-4807984D02*
X-1018390Y-4607984D01*
X-932675Y-4807984D02*
X-932675Y-4703222D01*
X-932675Y-4703222D02*
X-942199Y-4684174D01*
X-942199Y-4684174D02*
X-961247Y-4674650D01*
X-961247Y-4674650D02*
X-989818Y-4674650D01*
X-989818Y-4674650D02*
X-1008866Y-4684174D01*
X-1008866Y-4684174D02*
X-1018390Y-4693698D01*
X-808866Y-4807984D02*
X-827913Y-4798460D01*
X-827913Y-4798460D02*
X-837437Y-4788936D01*
X-837437Y-4788936D02*
X-846961Y-4769889D01*
X-846961Y-4769889D02*
X-846961Y-4712746D01*
X-846961Y-4712746D02*
X-837437Y-4693698D01*
X-837437Y-4693698D02*
X-827913Y-4684174D01*
X-827913Y-4684174D02*
X-808866Y-4674650D01*
X-808866Y-4674650D02*
X-780294Y-4674650D01*
X-780294Y-4674650D02*
X-761247Y-4684174D01*
X-761247Y-4684174D02*
X-751723Y-4693698D01*
X-751723Y-4693698D02*
X-742199Y-4712746D01*
X-742199Y-4712746D02*
X-742199Y-4769889D01*
X-742199Y-4769889D02*
X-751723Y-4788936D01*
X-751723Y-4788936D02*
X-761247Y-4798460D01*
X-761247Y-4798460D02*
X-780294Y-4807984D01*
X-780294Y-4807984D02*
X-808866Y-4807984D01*
X-627913Y-4807984D02*
X-646961Y-4798460D01*
X-646961Y-4798460D02*
X-656485Y-4779412D01*
X-656485Y-4779412D02*
X-656485Y-4607984D01*
X-475532Y-4798460D02*
X-494580Y-4807984D01*
X-494580Y-4807984D02*
X-532675Y-4807984D01*
X-532675Y-4807984D02*
X-551723Y-4798460D01*
X-551723Y-4798460D02*
X-561247Y-4779412D01*
X-561247Y-4779412D02*
X-561247Y-4703222D01*
X-561247Y-4703222D02*
X-551723Y-4684174D01*
X-551723Y-4684174D02*
X-532675Y-4674650D01*
X-532675Y-4674650D02*
X-494580Y-4674650D01*
X-494580Y-4674650D02*
X-475532Y-4684174D01*
X-475532Y-4684174D02*
X-466009Y-4703222D01*
X-466009Y-4703222D02*
X-466009Y-4722270D01*
X-466009Y-4722270D02*
X-561247Y-4741317D01*
X-399342Y-4884174D02*
X-389818Y-4874650D01*
X-389818Y-4874650D02*
X-370770Y-4846079D01*
X-370770Y-4846079D02*
X-361247Y-4827031D01*
X-361247Y-4827031D02*
X-351723Y-4798460D01*
X-351723Y-4798460D02*
X-342199Y-4750841D01*
X-342199Y-4750841D02*
X-342199Y-4712746D01*
X-342199Y-4712746D02*
X-351723Y-4665127D01*
X-351723Y-4665127D02*
X-361247Y-4636555D01*
X-361247Y-4636555D02*
X-370770Y-4617508D01*
X-370770Y-4617508D02*
X-389818Y-4588936D01*
X-389818Y-4588936D02*
X-399342Y-4579412D01*
D12*
X-5050000Y-4943000D02*
X-5050000Y-5018000D01*
X-5087500Y-4980500D02*
X-5012500Y-4980500D01*
D11*
X-4713628Y-4871984D02*
X-4694580Y-4871984D01*
X-4694580Y-4871984D02*
X-4675533Y-4881508D01*
X-4675533Y-4881508D02*
X-4666009Y-4891031D01*
X-4666009Y-4891031D02*
X-4656485Y-4910079D01*
X-4656485Y-4910079D02*
X-4646961Y-4948174D01*
X-4646961Y-4948174D02*
X-4646961Y-4995793D01*
X-4646961Y-4995793D02*
X-4656485Y-5033889D01*
X-4656485Y-5033889D02*
X-4666009Y-5052936D01*
X-4666009Y-5052936D02*
X-4675533Y-5062460D01*
X-4675533Y-5062460D02*
X-4694580Y-5071984D01*
X-4694580Y-5071984D02*
X-4713628Y-5071984D01*
X-4713628Y-5071984D02*
X-4732676Y-5062460D01*
X-4732676Y-5062460D02*
X-4742200Y-5052936D01*
X-4742200Y-5052936D02*
X-4751723Y-5033889D01*
X-4751723Y-5033889D02*
X-4761247Y-4995793D01*
X-4761247Y-4995793D02*
X-4761247Y-4948174D01*
X-4761247Y-4948174D02*
X-4751723Y-4910079D01*
X-4751723Y-4910079D02*
X-4742200Y-4891031D01*
X-4742200Y-4891031D02*
X-4732676Y-4881508D01*
X-4732676Y-4881508D02*
X-4713628Y-4871984D01*
X-4561247Y-5052936D02*
X-4551723Y-5062460D01*
X-4551723Y-5062460D02*
X-4561247Y-5071984D01*
X-4561247Y-5071984D02*
X-4570771Y-5062460D01*
X-4570771Y-5062460D02*
X-4561247Y-5052936D01*
X-4561247Y-5052936D02*
X-4561247Y-5071984D01*
X-4485057Y-4871984D02*
X-4351723Y-4871984D01*
X-4351723Y-4871984D02*
X-4437438Y-5071984D01*
X-4180295Y-4871984D02*
X-4275533Y-4871984D01*
X-4275533Y-4871984D02*
X-4285057Y-4967222D01*
X-4285057Y-4967222D02*
X-4275533Y-4957698D01*
X-4275533Y-4957698D02*
X-4256485Y-4948174D01*
X-4256485Y-4948174D02*
X-4208866Y-4948174D01*
X-4208866Y-4948174D02*
X-4189818Y-4957698D01*
X-4189818Y-4957698D02*
X-4180295Y-4967222D01*
X-4180295Y-4967222D02*
X-4170771Y-4986270D01*
X-4170771Y-4986270D02*
X-4170771Y-5033889D01*
X-4170771Y-5033889D02*
X-4180295Y-5052936D01*
X-4180295Y-5052936D02*
X-4189818Y-5062460D01*
X-4189818Y-5062460D02*
X-4208866Y-5071984D01*
X-4208866Y-5071984D02*
X-4256485Y-5071984D01*
X-4256485Y-5071984D02*
X-4275533Y-5062460D01*
X-4275533Y-5062460D02*
X-4285057Y-5052936D01*
X-4046961Y-4871984D02*
X-4027914Y-4871984D01*
X-4027914Y-4871984D02*
X-4008866Y-4881508D01*
X-4008866Y-4881508D02*
X-3999342Y-4891031D01*
X-3999342Y-4891031D02*
X-3989818Y-4910079D01*
X-3989818Y-4910079D02*
X-3980295Y-4948174D01*
X-3980295Y-4948174D02*
X-3980295Y-4995793D01*
X-3980295Y-4995793D02*
X-3989818Y-5033889D01*
X-3989818Y-5033889D02*
X-3999342Y-5052936D01*
X-3999342Y-5052936D02*
X-4008866Y-5062460D01*
X-4008866Y-5062460D02*
X-4027914Y-5071984D01*
X-4027914Y-5071984D02*
X-4046961Y-5071984D01*
X-4046961Y-5071984D02*
X-4066009Y-5062460D01*
X-4066009Y-5062460D02*
X-4075533Y-5052936D01*
X-4075533Y-5052936D02*
X-4085057Y-5033889D01*
X-4085057Y-5033889D02*
X-4094580Y-4995793D01*
X-4094580Y-4995793D02*
X-4094580Y-4948174D01*
X-4094580Y-4948174D02*
X-4085057Y-4910079D01*
X-4085057Y-4910079D02*
X-4075533Y-4891031D01*
X-4075533Y-4891031D02*
X-4066009Y-4881508D01*
X-4066009Y-4881508D02*
X-4046961Y-4871984D01*
X-3894580Y-5071984D02*
X-3894580Y-4938650D01*
X-3894580Y-4957698D02*
X-3885057Y-4948174D01*
X-3885057Y-4948174D02*
X-3866009Y-4938650D01*
X-3866009Y-4938650D02*
X-3837437Y-4938650D01*
X-3837437Y-4938650D02*
X-3818390Y-4948174D01*
X-3818390Y-4948174D02*
X-3808866Y-4967222D01*
X-3808866Y-4967222D02*
X-3808866Y-5071984D01*
X-3808866Y-4967222D02*
X-3799342Y-4948174D01*
X-3799342Y-4948174D02*
X-3780295Y-4938650D01*
X-3780295Y-4938650D02*
X-3751723Y-4938650D01*
X-3751723Y-4938650D02*
X-3732676Y-4948174D01*
X-3732676Y-4948174D02*
X-3723152Y-4967222D01*
X-3723152Y-4967222D02*
X-3723152Y-5071984D01*
X-3627914Y-5071984D02*
X-3627914Y-4938650D01*
X-3627914Y-4957698D02*
X-3618390Y-4948174D01*
X-3618390Y-4948174D02*
X-3599342Y-4938650D01*
X-3599342Y-4938650D02*
X-3570771Y-4938650D01*
X-3570771Y-4938650D02*
X-3551723Y-4948174D01*
X-3551723Y-4948174D02*
X-3542199Y-4967222D01*
X-3542199Y-4967222D02*
X-3542199Y-5071984D01*
X-3542199Y-4967222D02*
X-3532676Y-4948174D01*
X-3532676Y-4948174D02*
X-3513628Y-4938650D01*
X-3513628Y-4938650D02*
X-3485057Y-4938650D01*
X-3485057Y-4938650D02*
X-3466009Y-4948174D01*
X-3466009Y-4948174D02*
X-3456485Y-4967222D01*
X-3456485Y-4967222D02*
X-3456485Y-5071984D01*
X-3066009Y-4862460D02*
X-3237437Y-5119603D01*
X-2808866Y-4871984D02*
X-2789818Y-4871984D01*
X-2789818Y-4871984D02*
X-2770771Y-4881508D01*
X-2770771Y-4881508D02*
X-2761247Y-4891031D01*
X-2761247Y-4891031D02*
X-2751723Y-4910079D01*
X-2751723Y-4910079D02*
X-2742199Y-4948174D01*
X-2742199Y-4948174D02*
X-2742199Y-4995793D01*
X-2742199Y-4995793D02*
X-2751723Y-5033889D01*
X-2751723Y-5033889D02*
X-2761247Y-5052936D01*
X-2761247Y-5052936D02*
X-2770771Y-5062460D01*
X-2770771Y-5062460D02*
X-2789818Y-5071984D01*
X-2789818Y-5071984D02*
X-2808866Y-5071984D01*
X-2808866Y-5071984D02*
X-2827914Y-5062460D01*
X-2827914Y-5062460D02*
X-2837437Y-5052936D01*
X-2837437Y-5052936D02*
X-2846961Y-5033889D01*
X-2846961Y-5033889D02*
X-2856485Y-4995793D01*
X-2856485Y-4995793D02*
X-2856485Y-4948174D01*
X-2856485Y-4948174D02*
X-2846961Y-4910079D01*
X-2846961Y-4910079D02*
X-2837437Y-4891031D01*
X-2837437Y-4891031D02*
X-2827914Y-4881508D01*
X-2827914Y-4881508D02*
X-2808866Y-4871984D01*
X-2656485Y-5052936D02*
X-2646961Y-5062460D01*
X-2646961Y-5062460D02*
X-2656485Y-5071984D01*
X-2656485Y-5071984D02*
X-2666009Y-5062460D01*
X-2666009Y-5062460D02*
X-2656485Y-5052936D01*
X-2656485Y-5052936D02*
X-2656485Y-5071984D01*
X-2523152Y-4871984D02*
X-2504104Y-4871984D01*
X-2504104Y-4871984D02*
X-2485056Y-4881508D01*
X-2485056Y-4881508D02*
X-2475533Y-4891031D01*
X-2475533Y-4891031D02*
X-2466009Y-4910079D01*
X-2466009Y-4910079D02*
X-2456485Y-4948174D01*
X-2456485Y-4948174D02*
X-2456485Y-4995793D01*
X-2456485Y-4995793D02*
X-2466009Y-5033889D01*
X-2466009Y-5033889D02*
X-2475533Y-5052936D01*
X-2475533Y-5052936D02*
X-2485056Y-5062460D01*
X-2485056Y-5062460D02*
X-2504104Y-5071984D01*
X-2504104Y-5071984D02*
X-2523152Y-5071984D01*
X-2523152Y-5071984D02*
X-2542199Y-5062460D01*
X-2542199Y-5062460D02*
X-2551723Y-5052936D01*
X-2551723Y-5052936D02*
X-2561247Y-5033889D01*
X-2561247Y-5033889D02*
X-2570771Y-4995793D01*
X-2570771Y-4995793D02*
X-2570771Y-4948174D01*
X-2570771Y-4948174D02*
X-2561247Y-4910079D01*
X-2561247Y-4910079D02*
X-2551723Y-4891031D01*
X-2551723Y-4891031D02*
X-2542199Y-4881508D01*
X-2542199Y-4881508D02*
X-2523152Y-4871984D01*
X-2380295Y-4891031D02*
X-2370771Y-4881508D01*
X-2370771Y-4881508D02*
X-2351723Y-4871984D01*
X-2351723Y-4871984D02*
X-2304104Y-4871984D01*
X-2304104Y-4871984D02*
X-2285056Y-4881508D01*
X-2285056Y-4881508D02*
X-2275533Y-4891031D01*
X-2275533Y-4891031D02*
X-2266009Y-4910079D01*
X-2266009Y-4910079D02*
X-2266009Y-4929127D01*
X-2266009Y-4929127D02*
X-2275533Y-4957698D01*
X-2275533Y-4957698D02*
X-2389818Y-5071984D01*
X-2389818Y-5071984D02*
X-2266009Y-5071984D01*
X-2170771Y-5071984D02*
X-2132676Y-5071984D01*
X-2132676Y-5071984D02*
X-2113628Y-5062460D01*
X-2113628Y-5062460D02*
X-2104104Y-5052936D01*
X-2104104Y-5052936D02*
X-2085056Y-5024365D01*
X-2085056Y-5024365D02*
X-2075533Y-4986270D01*
X-2075533Y-4986270D02*
X-2075533Y-4910079D01*
X-2075533Y-4910079D02*
X-2085056Y-4891031D01*
X-2085056Y-4891031D02*
X-2094580Y-4881508D01*
X-2094580Y-4881508D02*
X-2113628Y-4871984D01*
X-2113628Y-4871984D02*
X-2151723Y-4871984D01*
X-2151723Y-4871984D02*
X-2170771Y-4881508D01*
X-2170771Y-4881508D02*
X-2180295Y-4891031D01*
X-2180295Y-4891031D02*
X-2189818Y-4910079D01*
X-2189818Y-4910079D02*
X-2189818Y-4957698D01*
X-2189818Y-4957698D02*
X-2180295Y-4976746D01*
X-2180295Y-4976746D02*
X-2170771Y-4986270D01*
X-2170771Y-4986270D02*
X-2151723Y-4995793D01*
X-2151723Y-4995793D02*
X-2113628Y-4995793D01*
X-2113628Y-4995793D02*
X-2094580Y-4986270D01*
X-2094580Y-4986270D02*
X-2085056Y-4976746D01*
X-2085056Y-4976746D02*
X-2075533Y-4957698D01*
X-1894580Y-4871984D02*
X-1989818Y-4871984D01*
X-1989818Y-4871984D02*
X-1999342Y-4967222D01*
X-1999342Y-4967222D02*
X-1989818Y-4957698D01*
X-1989818Y-4957698D02*
X-1970771Y-4948174D01*
X-1970771Y-4948174D02*
X-1923152Y-4948174D01*
X-1923152Y-4948174D02*
X-1904104Y-4957698D01*
X-1904104Y-4957698D02*
X-1894580Y-4967222D01*
X-1894580Y-4967222D02*
X-1885056Y-4986270D01*
X-1885056Y-4986270D02*
X-1885056Y-5033889D01*
X-1885056Y-5033889D02*
X-1894580Y-5052936D01*
X-1894580Y-5052936D02*
X-1904104Y-5062460D01*
X-1904104Y-5062460D02*
X-1923152Y-5071984D01*
X-1923152Y-5071984D02*
X-1970771Y-5071984D01*
X-1970771Y-5071984D02*
X-1989818Y-5062460D01*
X-1989818Y-5062460D02*
X-1999342Y-5052936D01*
X-1808866Y-4871984D02*
X-1808866Y-4910079D01*
X-1732675Y-4871984D02*
X-1732675Y-4910079D01*
X-1437437Y-5148174D02*
X-1446961Y-5138650D01*
X-1446961Y-5138650D02*
X-1466009Y-5110079D01*
X-1466009Y-5110079D02*
X-1475532Y-5091031D01*
X-1475532Y-5091031D02*
X-1485056Y-5062460D01*
X-1485056Y-5062460D02*
X-1494580Y-5014841D01*
X-1494580Y-5014841D02*
X-1494580Y-4976746D01*
X-1494580Y-4976746D02*
X-1485056Y-4929127D01*
X-1485056Y-4929127D02*
X-1475532Y-4900555D01*
X-1475532Y-4900555D02*
X-1466009Y-4881508D01*
X-1466009Y-4881508D02*
X-1446961Y-4852936D01*
X-1446961Y-4852936D02*
X-1437437Y-4843412D01*
X-1380294Y-4871984D02*
X-1246961Y-4871984D01*
X-1246961Y-4871984D02*
X-1332675Y-5071984D01*
X-1018390Y-5071984D02*
X-1018390Y-4871984D01*
X-932675Y-5071984D02*
X-932675Y-4967222D01*
X-932675Y-4967222D02*
X-942199Y-4948174D01*
X-942199Y-4948174D02*
X-961247Y-4938650D01*
X-961247Y-4938650D02*
X-989818Y-4938650D01*
X-989818Y-4938650D02*
X-1008866Y-4948174D01*
X-1008866Y-4948174D02*
X-1018390Y-4957698D01*
X-808866Y-5071984D02*
X-827913Y-5062460D01*
X-827913Y-5062460D02*
X-837437Y-5052936D01*
X-837437Y-5052936D02*
X-846961Y-5033889D01*
X-846961Y-5033889D02*
X-846961Y-4976746D01*
X-846961Y-4976746D02*
X-837437Y-4957698D01*
X-837437Y-4957698D02*
X-827913Y-4948174D01*
X-827913Y-4948174D02*
X-808866Y-4938650D01*
X-808866Y-4938650D02*
X-780294Y-4938650D01*
X-780294Y-4938650D02*
X-761247Y-4948174D01*
X-761247Y-4948174D02*
X-751723Y-4957698D01*
X-751723Y-4957698D02*
X-742199Y-4976746D01*
X-742199Y-4976746D02*
X-742199Y-5033889D01*
X-742199Y-5033889D02*
X-751723Y-5052936D01*
X-751723Y-5052936D02*
X-761247Y-5062460D01*
X-761247Y-5062460D02*
X-780294Y-5071984D01*
X-780294Y-5071984D02*
X-808866Y-5071984D01*
X-627913Y-5071984D02*
X-646961Y-5062460D01*
X-646961Y-5062460D02*
X-656485Y-5043412D01*
X-656485Y-5043412D02*
X-656485Y-4871984D01*
X-475532Y-5062460D02*
X-494580Y-5071984D01*
X-494580Y-5071984D02*
X-532675Y-5071984D01*
X-532675Y-5071984D02*
X-551723Y-5062460D01*
X-551723Y-5062460D02*
X-561247Y-5043412D01*
X-561247Y-5043412D02*
X-561247Y-4967222D01*
X-561247Y-4967222D02*
X-551723Y-4948174D01*
X-551723Y-4948174D02*
X-532675Y-4938650D01*
X-532675Y-4938650D02*
X-494580Y-4938650D01*
X-494580Y-4938650D02*
X-475532Y-4948174D01*
X-475532Y-4948174D02*
X-466009Y-4967222D01*
X-466009Y-4967222D02*
X-466009Y-4986270D01*
X-466009Y-4986270D02*
X-561247Y-5005317D01*
X-389818Y-5062460D02*
X-370770Y-5071984D01*
X-370770Y-5071984D02*
X-332675Y-5071984D01*
X-332675Y-5071984D02*
X-313628Y-5062460D01*
X-313628Y-5062460D02*
X-304104Y-5043412D01*
X-304104Y-5043412D02*
X-304104Y-5033889D01*
X-304104Y-5033889D02*
X-313628Y-5014841D01*
X-313628Y-5014841D02*
X-332675Y-5005317D01*
X-332675Y-5005317D02*
X-361247Y-5005317D01*
X-361247Y-5005317D02*
X-380294Y-4995793D01*
X-380294Y-4995793D02*
X-389818Y-4976746D01*
X-389818Y-4976746D02*
X-389818Y-4967222D01*
X-389818Y-4967222D02*
X-380294Y-4948174D01*
X-380294Y-4948174D02*
X-361247Y-4938650D01*
X-361247Y-4938650D02*
X-332675Y-4938650D01*
X-332675Y-4938650D02*
X-313628Y-4948174D01*
X-237437Y-5148174D02*
X-227913Y-5138650D01*
X-227913Y-5138650D02*
X-208866Y-5110079D01*
X-208866Y-5110079D02*
X-199342Y-5091031D01*
X-199342Y-5091031D02*
X-189818Y-5062460D01*
X-189818Y-5062460D02*
X-180294Y-5014841D01*
X-180294Y-5014841D02*
X-180294Y-4976746D01*
X-180294Y-4976746D02*
X-189818Y-4929127D01*
X-189818Y-4929127D02*
X-199342Y-4900555D01*
X-199342Y-4900555D02*
X-208866Y-4881508D01*
X-208866Y-4881508D02*
X-227913Y-4852936D01*
X-227913Y-4852936D02*
X-237437Y-4843412D01*
D12*
X-5024216Y-5272785D02*
X-5024216Y-5216216D01*
X-5080785Y-5216216D01*
X-5080785Y-5272785D01*
X-5024216Y-5272785D01*
D11*
X-4713628Y-5135984D02*
X-4694580Y-5135984D01*
X-4694580Y-5135984D02*
X-4675533Y-5145508D01*
X-4675533Y-5145508D02*
X-4666009Y-5155031D01*
X-4666009Y-5155031D02*
X-4656485Y-5174079D01*
X-4656485Y-5174079D02*
X-4646961Y-5212174D01*
X-4646961Y-5212174D02*
X-4646961Y-5259793D01*
X-4646961Y-5259793D02*
X-4656485Y-5297889D01*
X-4656485Y-5297889D02*
X-4666009Y-5316936D01*
X-4666009Y-5316936D02*
X-4675533Y-5326460D01*
X-4675533Y-5326460D02*
X-4694580Y-5335984D01*
X-4694580Y-5335984D02*
X-4713628Y-5335984D01*
X-4713628Y-5335984D02*
X-4732676Y-5326460D01*
X-4732676Y-5326460D02*
X-4742200Y-5316936D01*
X-4742200Y-5316936D02*
X-4751723Y-5297889D01*
X-4751723Y-5297889D02*
X-4761247Y-5259793D01*
X-4761247Y-5259793D02*
X-4761247Y-5212174D01*
X-4761247Y-5212174D02*
X-4751723Y-5174079D01*
X-4751723Y-5174079D02*
X-4742200Y-5155031D01*
X-4742200Y-5155031D02*
X-4732676Y-5145508D01*
X-4732676Y-5145508D02*
X-4713628Y-5135984D01*
X-4561247Y-5316936D02*
X-4551723Y-5326460D01*
X-4551723Y-5326460D02*
X-4561247Y-5335984D01*
X-4561247Y-5335984D02*
X-4570771Y-5326460D01*
X-4570771Y-5326460D02*
X-4561247Y-5316936D01*
X-4561247Y-5316936D02*
X-4561247Y-5335984D01*
X-4437438Y-5221698D02*
X-4456485Y-5212174D01*
X-4456485Y-5212174D02*
X-4466009Y-5202650D01*
X-4466009Y-5202650D02*
X-4475533Y-5183603D01*
X-4475533Y-5183603D02*
X-4475533Y-5174079D01*
X-4475533Y-5174079D02*
X-4466009Y-5155031D01*
X-4466009Y-5155031D02*
X-4456485Y-5145508D01*
X-4456485Y-5145508D02*
X-4437438Y-5135984D01*
X-4437438Y-5135984D02*
X-4399342Y-5135984D01*
X-4399342Y-5135984D02*
X-4380295Y-5145508D01*
X-4380295Y-5145508D02*
X-4370771Y-5155031D01*
X-4370771Y-5155031D02*
X-4361247Y-5174079D01*
X-4361247Y-5174079D02*
X-4361247Y-5183603D01*
X-4361247Y-5183603D02*
X-4370771Y-5202650D01*
X-4370771Y-5202650D02*
X-4380295Y-5212174D01*
X-4380295Y-5212174D02*
X-4399342Y-5221698D01*
X-4399342Y-5221698D02*
X-4437438Y-5221698D01*
X-4437438Y-5221698D02*
X-4456485Y-5231222D01*
X-4456485Y-5231222D02*
X-4466009Y-5240746D01*
X-4466009Y-5240746D02*
X-4475533Y-5259793D01*
X-4475533Y-5259793D02*
X-4475533Y-5297889D01*
X-4475533Y-5297889D02*
X-4466009Y-5316936D01*
X-4466009Y-5316936D02*
X-4456485Y-5326460D01*
X-4456485Y-5326460D02*
X-4437438Y-5335984D01*
X-4437438Y-5335984D02*
X-4399342Y-5335984D01*
X-4399342Y-5335984D02*
X-4380295Y-5326460D01*
X-4380295Y-5326460D02*
X-4370771Y-5316936D01*
X-4370771Y-5316936D02*
X-4361247Y-5297889D01*
X-4361247Y-5297889D02*
X-4361247Y-5259793D01*
X-4361247Y-5259793D02*
X-4370771Y-5240746D01*
X-4370771Y-5240746D02*
X-4380295Y-5231222D01*
X-4380295Y-5231222D02*
X-4399342Y-5221698D01*
X-4237438Y-5135984D02*
X-4218390Y-5135984D01*
X-4218390Y-5135984D02*
X-4199342Y-5145508D01*
X-4199342Y-5145508D02*
X-4189818Y-5155031D01*
X-4189818Y-5155031D02*
X-4180295Y-5174079D01*
X-4180295Y-5174079D02*
X-4170771Y-5212174D01*
X-4170771Y-5212174D02*
X-4170771Y-5259793D01*
X-4170771Y-5259793D02*
X-4180295Y-5297889D01*
X-4180295Y-5297889D02*
X-4189818Y-5316936D01*
X-4189818Y-5316936D02*
X-4199342Y-5326460D01*
X-4199342Y-5326460D02*
X-4218390Y-5335984D01*
X-4218390Y-5335984D02*
X-4237438Y-5335984D01*
X-4237438Y-5335984D02*
X-4256485Y-5326460D01*
X-4256485Y-5326460D02*
X-4266009Y-5316936D01*
X-4266009Y-5316936D02*
X-4275533Y-5297889D01*
X-4275533Y-5297889D02*
X-4285057Y-5259793D01*
X-4285057Y-5259793D02*
X-4285057Y-5212174D01*
X-4285057Y-5212174D02*
X-4275533Y-5174079D01*
X-4275533Y-5174079D02*
X-4266009Y-5155031D01*
X-4266009Y-5155031D02*
X-4256485Y-5145508D01*
X-4256485Y-5145508D02*
X-4237438Y-5135984D01*
X-4046961Y-5135984D02*
X-4027914Y-5135984D01*
X-4027914Y-5135984D02*
X-4008866Y-5145508D01*
X-4008866Y-5145508D02*
X-3999342Y-5155031D01*
X-3999342Y-5155031D02*
X-3989818Y-5174079D01*
X-3989818Y-5174079D02*
X-3980295Y-5212174D01*
X-3980295Y-5212174D02*
X-3980295Y-5259793D01*
X-3980295Y-5259793D02*
X-3989818Y-5297889D01*
X-3989818Y-5297889D02*
X-3999342Y-5316936D01*
X-3999342Y-5316936D02*
X-4008866Y-5326460D01*
X-4008866Y-5326460D02*
X-4027914Y-5335984D01*
X-4027914Y-5335984D02*
X-4046961Y-5335984D01*
X-4046961Y-5335984D02*
X-4066009Y-5326460D01*
X-4066009Y-5326460D02*
X-4075533Y-5316936D01*
X-4075533Y-5316936D02*
X-4085057Y-5297889D01*
X-4085057Y-5297889D02*
X-4094580Y-5259793D01*
X-4094580Y-5259793D02*
X-4094580Y-5212174D01*
X-4094580Y-5212174D02*
X-4085057Y-5174079D01*
X-4085057Y-5174079D02*
X-4075533Y-5155031D01*
X-4075533Y-5155031D02*
X-4066009Y-5145508D01*
X-4066009Y-5145508D02*
X-4046961Y-5135984D01*
X-3894580Y-5335984D02*
X-3894580Y-5202650D01*
X-3894580Y-5221698D02*
X-3885057Y-5212174D01*
X-3885057Y-5212174D02*
X-3866009Y-5202650D01*
X-3866009Y-5202650D02*
X-3837437Y-5202650D01*
X-3837437Y-5202650D02*
X-3818390Y-5212174D01*
X-3818390Y-5212174D02*
X-3808866Y-5231222D01*
X-3808866Y-5231222D02*
X-3808866Y-5335984D01*
X-3808866Y-5231222D02*
X-3799342Y-5212174D01*
X-3799342Y-5212174D02*
X-3780295Y-5202650D01*
X-3780295Y-5202650D02*
X-3751723Y-5202650D01*
X-3751723Y-5202650D02*
X-3732676Y-5212174D01*
X-3732676Y-5212174D02*
X-3723152Y-5231222D01*
X-3723152Y-5231222D02*
X-3723152Y-5335984D01*
X-3627914Y-5335984D02*
X-3627914Y-5202650D01*
X-3627914Y-5221698D02*
X-3618390Y-5212174D01*
X-3618390Y-5212174D02*
X-3599342Y-5202650D01*
X-3599342Y-5202650D02*
X-3570771Y-5202650D01*
X-3570771Y-5202650D02*
X-3551723Y-5212174D01*
X-3551723Y-5212174D02*
X-3542199Y-5231222D01*
X-3542199Y-5231222D02*
X-3542199Y-5335984D01*
X-3542199Y-5231222D02*
X-3532676Y-5212174D01*
X-3532676Y-5212174D02*
X-3513628Y-5202650D01*
X-3513628Y-5202650D02*
X-3485057Y-5202650D01*
X-3485057Y-5202650D02*
X-3466009Y-5212174D01*
X-3466009Y-5212174D02*
X-3456485Y-5231222D01*
X-3456485Y-5231222D02*
X-3456485Y-5335984D01*
X-3066009Y-5126460D02*
X-3237437Y-5383603D01*
X-2808866Y-5135984D02*
X-2789818Y-5135984D01*
X-2789818Y-5135984D02*
X-2770771Y-5145508D01*
X-2770771Y-5145508D02*
X-2761247Y-5155031D01*
X-2761247Y-5155031D02*
X-2751723Y-5174079D01*
X-2751723Y-5174079D02*
X-2742199Y-5212174D01*
X-2742199Y-5212174D02*
X-2742199Y-5259793D01*
X-2742199Y-5259793D02*
X-2751723Y-5297889D01*
X-2751723Y-5297889D02*
X-2761247Y-5316936D01*
X-2761247Y-5316936D02*
X-2770771Y-5326460D01*
X-2770771Y-5326460D02*
X-2789818Y-5335984D01*
X-2789818Y-5335984D02*
X-2808866Y-5335984D01*
X-2808866Y-5335984D02*
X-2827914Y-5326460D01*
X-2827914Y-5326460D02*
X-2837437Y-5316936D01*
X-2837437Y-5316936D02*
X-2846961Y-5297889D01*
X-2846961Y-5297889D02*
X-2856485Y-5259793D01*
X-2856485Y-5259793D02*
X-2856485Y-5212174D01*
X-2856485Y-5212174D02*
X-2846961Y-5174079D01*
X-2846961Y-5174079D02*
X-2837437Y-5155031D01*
X-2837437Y-5155031D02*
X-2827914Y-5145508D01*
X-2827914Y-5145508D02*
X-2808866Y-5135984D01*
X-2656485Y-5316936D02*
X-2646961Y-5326460D01*
X-2646961Y-5326460D02*
X-2656485Y-5335984D01*
X-2656485Y-5335984D02*
X-2666009Y-5326460D01*
X-2666009Y-5326460D02*
X-2656485Y-5316936D01*
X-2656485Y-5316936D02*
X-2656485Y-5335984D01*
X-2523152Y-5135984D02*
X-2504104Y-5135984D01*
X-2504104Y-5135984D02*
X-2485056Y-5145508D01*
X-2485056Y-5145508D02*
X-2475533Y-5155031D01*
X-2475533Y-5155031D02*
X-2466009Y-5174079D01*
X-2466009Y-5174079D02*
X-2456485Y-5212174D01*
X-2456485Y-5212174D02*
X-2456485Y-5259793D01*
X-2456485Y-5259793D02*
X-2466009Y-5297889D01*
X-2466009Y-5297889D02*
X-2475533Y-5316936D01*
X-2475533Y-5316936D02*
X-2485056Y-5326460D01*
X-2485056Y-5326460D02*
X-2504104Y-5335984D01*
X-2504104Y-5335984D02*
X-2523152Y-5335984D01*
X-2523152Y-5335984D02*
X-2542199Y-5326460D01*
X-2542199Y-5326460D02*
X-2551723Y-5316936D01*
X-2551723Y-5316936D02*
X-2561247Y-5297889D01*
X-2561247Y-5297889D02*
X-2570771Y-5259793D01*
X-2570771Y-5259793D02*
X-2570771Y-5212174D01*
X-2570771Y-5212174D02*
X-2561247Y-5174079D01*
X-2561247Y-5174079D02*
X-2551723Y-5155031D01*
X-2551723Y-5155031D02*
X-2542199Y-5145508D01*
X-2542199Y-5145508D02*
X-2523152Y-5135984D01*
X-2389818Y-5135984D02*
X-2266009Y-5135984D01*
X-2266009Y-5135984D02*
X-2332676Y-5212174D01*
X-2332676Y-5212174D02*
X-2304104Y-5212174D01*
X-2304104Y-5212174D02*
X-2285056Y-5221698D01*
X-2285056Y-5221698D02*
X-2275533Y-5231222D01*
X-2275533Y-5231222D02*
X-2266009Y-5250270D01*
X-2266009Y-5250270D02*
X-2266009Y-5297889D01*
X-2266009Y-5297889D02*
X-2275533Y-5316936D01*
X-2275533Y-5316936D02*
X-2285056Y-5326460D01*
X-2285056Y-5326460D02*
X-2304104Y-5335984D01*
X-2304104Y-5335984D02*
X-2361247Y-5335984D01*
X-2361247Y-5335984D02*
X-2380295Y-5326460D01*
X-2380295Y-5326460D02*
X-2389818Y-5316936D01*
X-2075533Y-5335984D02*
X-2189818Y-5335984D01*
X-2132676Y-5335984D02*
X-2132676Y-5135984D01*
X-2132676Y-5135984D02*
X-2151723Y-5164555D01*
X-2151723Y-5164555D02*
X-2170771Y-5183603D01*
X-2170771Y-5183603D02*
X-2189818Y-5193127D01*
X-1894580Y-5135984D02*
X-1989818Y-5135984D01*
X-1989818Y-5135984D02*
X-1999342Y-5231222D01*
X-1999342Y-5231222D02*
X-1989818Y-5221698D01*
X-1989818Y-5221698D02*
X-1970771Y-5212174D01*
X-1970771Y-5212174D02*
X-1923152Y-5212174D01*
X-1923152Y-5212174D02*
X-1904104Y-5221698D01*
X-1904104Y-5221698D02*
X-1894580Y-5231222D01*
X-1894580Y-5231222D02*
X-1885056Y-5250270D01*
X-1885056Y-5250270D02*
X-1885056Y-5297889D01*
X-1885056Y-5297889D02*
X-1894580Y-5316936D01*
X-1894580Y-5316936D02*
X-1904104Y-5326460D01*
X-1904104Y-5326460D02*
X-1923152Y-5335984D01*
X-1923152Y-5335984D02*
X-1970771Y-5335984D01*
X-1970771Y-5335984D02*
X-1989818Y-5326460D01*
X-1989818Y-5326460D02*
X-1999342Y-5316936D01*
X-1808866Y-5135984D02*
X-1808866Y-5174079D01*
X-1732675Y-5135984D02*
X-1732675Y-5174079D01*
X-1437437Y-5412174D02*
X-1446961Y-5402650D01*
X-1446961Y-5402650D02*
X-1466009Y-5374079D01*
X-1466009Y-5374079D02*
X-1475532Y-5355031D01*
X-1475532Y-5355031D02*
X-1485056Y-5326460D01*
X-1485056Y-5326460D02*
X-1494580Y-5278841D01*
X-1494580Y-5278841D02*
X-1494580Y-5240746D01*
X-1494580Y-5240746D02*
X-1485056Y-5193127D01*
X-1485056Y-5193127D02*
X-1475532Y-5164555D01*
X-1475532Y-5164555D02*
X-1466009Y-5145508D01*
X-1466009Y-5145508D02*
X-1446961Y-5116936D01*
X-1446961Y-5116936D02*
X-1437437Y-5107412D01*
X-1370771Y-5155031D02*
X-1361247Y-5145508D01*
X-1361247Y-5145508D02*
X-1342199Y-5135984D01*
X-1342199Y-5135984D02*
X-1294580Y-5135984D01*
X-1294580Y-5135984D02*
X-1275533Y-5145508D01*
X-1275533Y-5145508D02*
X-1266009Y-5155031D01*
X-1266009Y-5155031D02*
X-1256485Y-5174079D01*
X-1256485Y-5174079D02*
X-1256485Y-5193127D01*
X-1256485Y-5193127D02*
X-1266009Y-5221698D01*
X-1266009Y-5221698D02*
X-1380294Y-5335984D01*
X-1380294Y-5335984D02*
X-1256485Y-5335984D01*
X-1180294Y-5155031D02*
X-1170771Y-5145508D01*
X-1170771Y-5145508D02*
X-1151723Y-5135984D01*
X-1151723Y-5135984D02*
X-1104104Y-5135984D01*
X-1104104Y-5135984D02*
X-1085056Y-5145508D01*
X-1085056Y-5145508D02*
X-1075533Y-5155031D01*
X-1075533Y-5155031D02*
X-1066009Y-5174079D01*
X-1066009Y-5174079D02*
X-1066009Y-5193127D01*
X-1066009Y-5193127D02*
X-1075533Y-5221698D01*
X-1075533Y-5221698D02*
X-1189818Y-5335984D01*
X-1189818Y-5335984D02*
X-1066009Y-5335984D01*
X-827913Y-5335984D02*
X-827913Y-5135984D01*
X-742199Y-5335984D02*
X-742199Y-5231222D01*
X-742199Y-5231222D02*
X-751723Y-5212174D01*
X-751723Y-5212174D02*
X-770770Y-5202650D01*
X-770770Y-5202650D02*
X-799342Y-5202650D01*
X-799342Y-5202650D02*
X-818390Y-5212174D01*
X-818390Y-5212174D02*
X-827913Y-5221698D01*
X-618390Y-5335984D02*
X-637437Y-5326460D01*
X-637437Y-5326460D02*
X-646961Y-5316936D01*
X-646961Y-5316936D02*
X-656485Y-5297889D01*
X-656485Y-5297889D02*
X-656485Y-5240746D01*
X-656485Y-5240746D02*
X-646961Y-5221698D01*
X-646961Y-5221698D02*
X-637437Y-5212174D01*
X-637437Y-5212174D02*
X-618390Y-5202650D01*
X-618390Y-5202650D02*
X-589818Y-5202650D01*
X-589818Y-5202650D02*
X-570771Y-5212174D01*
X-570771Y-5212174D02*
X-561247Y-5221698D01*
X-561247Y-5221698D02*
X-551723Y-5240746D01*
X-551723Y-5240746D02*
X-551723Y-5297889D01*
X-551723Y-5297889D02*
X-561247Y-5316936D01*
X-561247Y-5316936D02*
X-570771Y-5326460D01*
X-570771Y-5326460D02*
X-589818Y-5335984D01*
X-589818Y-5335984D02*
X-618390Y-5335984D01*
X-437437Y-5335984D02*
X-456485Y-5326460D01*
X-456485Y-5326460D02*
X-466009Y-5307412D01*
X-466009Y-5307412D02*
X-466009Y-5135984D01*
X-285056Y-5326460D02*
X-304104Y-5335984D01*
X-304104Y-5335984D02*
X-342199Y-5335984D01*
X-342199Y-5335984D02*
X-361247Y-5326460D01*
X-361247Y-5326460D02*
X-370770Y-5307412D01*
X-370770Y-5307412D02*
X-370770Y-5231222D01*
X-370770Y-5231222D02*
X-361247Y-5212174D01*
X-361247Y-5212174D02*
X-342199Y-5202650D01*
X-342199Y-5202650D02*
X-304104Y-5202650D01*
X-304104Y-5202650D02*
X-285056Y-5212174D01*
X-285056Y-5212174D02*
X-275532Y-5231222D01*
X-275532Y-5231222D02*
X-275532Y-5250270D01*
X-275532Y-5250270D02*
X-370770Y-5269317D01*
X-199342Y-5326460D02*
X-180294Y-5335984D01*
X-180294Y-5335984D02*
X-142199Y-5335984D01*
X-142199Y-5335984D02*
X-123151Y-5326460D01*
X-123151Y-5326460D02*
X-113628Y-5307412D01*
X-113628Y-5307412D02*
X-113628Y-5297889D01*
X-113628Y-5297889D02*
X-123151Y-5278841D01*
X-123151Y-5278841D02*
X-142199Y-5269317D01*
X-142199Y-5269317D02*
X-170771Y-5269317D01*
X-170771Y-5269317D02*
X-189818Y-5259793D01*
X-189818Y-5259793D02*
X-199342Y-5240746D01*
X-199342Y-5240746D02*
X-199342Y-5231222D01*
X-199342Y-5231222D02*
X-189818Y-5212174D01*
X-189818Y-5212174D02*
X-170771Y-5202650D01*
X-170771Y-5202650D02*
X-142199Y-5202650D01*
X-142199Y-5202650D02*
X-123151Y-5212174D01*
X-46961Y-5412174D02*
X-37437Y-5402650D01*
X-37437Y-5402650D02*
X-18390Y-5374079D01*
X-18390Y-5374079D02*
X-8866Y-5355031D01*
X-8866Y-5355031D02*
X658Y-5326460D01*
X658Y-5326460D02*
X10182Y-5278841D01*
X10182Y-5278841D02*
X10182Y-5240746D01*
X10182Y-5240746D02*
X658Y-5193127D01*
X658Y-5193127D02*
X-8866Y-5164555D01*
X-8866Y-5164555D02*
X-18390Y-5145508D01*
X-18390Y-5145508D02*
X-37437Y-5116936D01*
X-37437Y-5116936D02*
X-46961Y-5107412D01*
D12*
X-5062500Y-5558500D02*
X-5012500Y-5508500D01*
X-5062500Y-5458500D01*
X-5112500Y-5508500D01*
X-5062500Y-5558500D01*
D11*
X-4646961Y-5599984D02*
X-4761247Y-5599984D01*
X-4704104Y-5599984D02*
X-4704104Y-5399984D01*
X-4704104Y-5399984D02*
X-4723152Y-5428555D01*
X-4723152Y-5428555D02*
X-4742200Y-5447603D01*
X-4742200Y-5447603D02*
X-4761247Y-5457127D01*
X-4561247Y-5580936D02*
X-4551723Y-5590460D01*
X-4551723Y-5590460D02*
X-4561247Y-5599984D01*
X-4561247Y-5599984D02*
X-4570771Y-5590460D01*
X-4570771Y-5590460D02*
X-4561247Y-5580936D01*
X-4561247Y-5580936D02*
X-4561247Y-5599984D01*
X-4427914Y-5399984D02*
X-4408866Y-5399984D01*
X-4408866Y-5399984D02*
X-4389819Y-5409508D01*
X-4389819Y-5409508D02*
X-4380295Y-5419031D01*
X-4380295Y-5419031D02*
X-4370771Y-5438079D01*
X-4370771Y-5438079D02*
X-4361247Y-5476174D01*
X-4361247Y-5476174D02*
X-4361247Y-5523793D01*
X-4361247Y-5523793D02*
X-4370771Y-5561889D01*
X-4370771Y-5561889D02*
X-4380295Y-5580936D01*
X-4380295Y-5580936D02*
X-4389819Y-5590460D01*
X-4389819Y-5590460D02*
X-4408866Y-5599984D01*
X-4408866Y-5599984D02*
X-4427914Y-5599984D01*
X-4427914Y-5599984D02*
X-4446961Y-5590460D01*
X-4446961Y-5590460D02*
X-4456485Y-5580936D01*
X-4456485Y-5580936D02*
X-4466009Y-5561889D01*
X-4466009Y-5561889D02*
X-4475533Y-5523793D01*
X-4475533Y-5523793D02*
X-4475533Y-5476174D01*
X-4475533Y-5476174D02*
X-4466009Y-5438079D01*
X-4466009Y-5438079D02*
X-4456485Y-5419031D01*
X-4456485Y-5419031D02*
X-4446961Y-5409508D01*
X-4446961Y-5409508D02*
X-4427914Y-5399984D01*
X-4237438Y-5399984D02*
X-4218390Y-5399984D01*
X-4218390Y-5399984D02*
X-4199342Y-5409508D01*
X-4199342Y-5409508D02*
X-4189818Y-5419031D01*
X-4189818Y-5419031D02*
X-4180295Y-5438079D01*
X-4180295Y-5438079D02*
X-4170771Y-5476174D01*
X-4170771Y-5476174D02*
X-4170771Y-5523793D01*
X-4170771Y-5523793D02*
X-4180295Y-5561889D01*
X-4180295Y-5561889D02*
X-4189818Y-5580936D01*
X-4189818Y-5580936D02*
X-4199342Y-5590460D01*
X-4199342Y-5590460D02*
X-4218390Y-5599984D01*
X-4218390Y-5599984D02*
X-4237438Y-5599984D01*
X-4237438Y-5599984D02*
X-4256485Y-5590460D01*
X-4256485Y-5590460D02*
X-4266009Y-5580936D01*
X-4266009Y-5580936D02*
X-4275533Y-5561889D01*
X-4275533Y-5561889D02*
X-4285057Y-5523793D01*
X-4285057Y-5523793D02*
X-4285057Y-5476174D01*
X-4285057Y-5476174D02*
X-4275533Y-5438079D01*
X-4275533Y-5438079D02*
X-4266009Y-5419031D01*
X-4266009Y-5419031D02*
X-4256485Y-5409508D01*
X-4256485Y-5409508D02*
X-4237438Y-5399984D01*
X-4046961Y-5399984D02*
X-4027914Y-5399984D01*
X-4027914Y-5399984D02*
X-4008866Y-5409508D01*
X-4008866Y-5409508D02*
X-3999342Y-5419031D01*
X-3999342Y-5419031D02*
X-3989818Y-5438079D01*
X-3989818Y-5438079D02*
X-3980295Y-5476174D01*
X-3980295Y-5476174D02*
X-3980295Y-5523793D01*
X-3980295Y-5523793D02*
X-3989818Y-5561889D01*
X-3989818Y-5561889D02*
X-3999342Y-5580936D01*
X-3999342Y-5580936D02*
X-4008866Y-5590460D01*
X-4008866Y-5590460D02*
X-4027914Y-5599984D01*
X-4027914Y-5599984D02*
X-4046961Y-5599984D01*
X-4046961Y-5599984D02*
X-4066009Y-5590460D01*
X-4066009Y-5590460D02*
X-4075533Y-5580936D01*
X-4075533Y-5580936D02*
X-4085057Y-5561889D01*
X-4085057Y-5561889D02*
X-4094580Y-5523793D01*
X-4094580Y-5523793D02*
X-4094580Y-5476174D01*
X-4094580Y-5476174D02*
X-4085057Y-5438079D01*
X-4085057Y-5438079D02*
X-4075533Y-5419031D01*
X-4075533Y-5419031D02*
X-4066009Y-5409508D01*
X-4066009Y-5409508D02*
X-4046961Y-5399984D01*
X-3894580Y-5599984D02*
X-3894580Y-5466650D01*
X-3894580Y-5485698D02*
X-3885057Y-5476174D01*
X-3885057Y-5476174D02*
X-3866009Y-5466650D01*
X-3866009Y-5466650D02*
X-3837437Y-5466650D01*
X-3837437Y-5466650D02*
X-3818390Y-5476174D01*
X-3818390Y-5476174D02*
X-3808866Y-5495222D01*
X-3808866Y-5495222D02*
X-3808866Y-5599984D01*
X-3808866Y-5495222D02*
X-3799342Y-5476174D01*
X-3799342Y-5476174D02*
X-3780295Y-5466650D01*
X-3780295Y-5466650D02*
X-3751723Y-5466650D01*
X-3751723Y-5466650D02*
X-3732676Y-5476174D01*
X-3732676Y-5476174D02*
X-3723152Y-5495222D01*
X-3723152Y-5495222D02*
X-3723152Y-5599984D01*
X-3627914Y-5599984D02*
X-3627914Y-5466650D01*
X-3627914Y-5485698D02*
X-3618390Y-5476174D01*
X-3618390Y-5476174D02*
X-3599342Y-5466650D01*
X-3599342Y-5466650D02*
X-3570771Y-5466650D01*
X-3570771Y-5466650D02*
X-3551723Y-5476174D01*
X-3551723Y-5476174D02*
X-3542199Y-5495222D01*
X-3542199Y-5495222D02*
X-3542199Y-5599984D01*
X-3542199Y-5495222D02*
X-3532676Y-5476174D01*
X-3532676Y-5476174D02*
X-3513628Y-5466650D01*
X-3513628Y-5466650D02*
X-3485057Y-5466650D01*
X-3485057Y-5466650D02*
X-3466009Y-5476174D01*
X-3466009Y-5476174D02*
X-3456485Y-5495222D01*
X-3456485Y-5495222D02*
X-3456485Y-5599984D01*
X-3066009Y-5390460D02*
X-3237437Y-5647603D01*
X-2808866Y-5399984D02*
X-2789818Y-5399984D01*
X-2789818Y-5399984D02*
X-2770771Y-5409508D01*
X-2770771Y-5409508D02*
X-2761247Y-5419031D01*
X-2761247Y-5419031D02*
X-2751723Y-5438079D01*
X-2751723Y-5438079D02*
X-2742199Y-5476174D01*
X-2742199Y-5476174D02*
X-2742199Y-5523793D01*
X-2742199Y-5523793D02*
X-2751723Y-5561889D01*
X-2751723Y-5561889D02*
X-2761247Y-5580936D01*
X-2761247Y-5580936D02*
X-2770771Y-5590460D01*
X-2770771Y-5590460D02*
X-2789818Y-5599984D01*
X-2789818Y-5599984D02*
X-2808866Y-5599984D01*
X-2808866Y-5599984D02*
X-2827914Y-5590460D01*
X-2827914Y-5590460D02*
X-2837437Y-5580936D01*
X-2837437Y-5580936D02*
X-2846961Y-5561889D01*
X-2846961Y-5561889D02*
X-2856485Y-5523793D01*
X-2856485Y-5523793D02*
X-2856485Y-5476174D01*
X-2856485Y-5476174D02*
X-2846961Y-5438079D01*
X-2846961Y-5438079D02*
X-2837437Y-5419031D01*
X-2837437Y-5419031D02*
X-2827914Y-5409508D01*
X-2827914Y-5409508D02*
X-2808866Y-5399984D01*
X-2656485Y-5580936D02*
X-2646961Y-5590460D01*
X-2646961Y-5590460D02*
X-2656485Y-5599984D01*
X-2656485Y-5599984D02*
X-2666009Y-5590460D01*
X-2666009Y-5590460D02*
X-2656485Y-5580936D01*
X-2656485Y-5580936D02*
X-2656485Y-5599984D01*
X-2523152Y-5399984D02*
X-2504104Y-5399984D01*
X-2504104Y-5399984D02*
X-2485056Y-5409508D01*
X-2485056Y-5409508D02*
X-2475533Y-5419031D01*
X-2475533Y-5419031D02*
X-2466009Y-5438079D01*
X-2466009Y-5438079D02*
X-2456485Y-5476174D01*
X-2456485Y-5476174D02*
X-2456485Y-5523793D01*
X-2456485Y-5523793D02*
X-2466009Y-5561889D01*
X-2466009Y-5561889D02*
X-2475533Y-5580936D01*
X-2475533Y-5580936D02*
X-2485056Y-5590460D01*
X-2485056Y-5590460D02*
X-2504104Y-5599984D01*
X-2504104Y-5599984D02*
X-2523152Y-5599984D01*
X-2523152Y-5599984D02*
X-2542199Y-5590460D01*
X-2542199Y-5590460D02*
X-2551723Y-5580936D01*
X-2551723Y-5580936D02*
X-2561247Y-5561889D01*
X-2561247Y-5561889D02*
X-2570771Y-5523793D01*
X-2570771Y-5523793D02*
X-2570771Y-5476174D01*
X-2570771Y-5476174D02*
X-2561247Y-5438079D01*
X-2561247Y-5438079D02*
X-2551723Y-5419031D01*
X-2551723Y-5419031D02*
X-2542199Y-5409508D01*
X-2542199Y-5409508D02*
X-2523152Y-5399984D01*
X-2389818Y-5399984D02*
X-2266009Y-5399984D01*
X-2266009Y-5399984D02*
X-2332676Y-5476174D01*
X-2332676Y-5476174D02*
X-2304104Y-5476174D01*
X-2304104Y-5476174D02*
X-2285056Y-5485698D01*
X-2285056Y-5485698D02*
X-2275533Y-5495222D01*
X-2275533Y-5495222D02*
X-2266009Y-5514270D01*
X-2266009Y-5514270D02*
X-2266009Y-5561889D01*
X-2266009Y-5561889D02*
X-2275533Y-5580936D01*
X-2275533Y-5580936D02*
X-2285056Y-5590460D01*
X-2285056Y-5590460D02*
X-2304104Y-5599984D01*
X-2304104Y-5599984D02*
X-2361247Y-5599984D01*
X-2361247Y-5599984D02*
X-2380295Y-5590460D01*
X-2380295Y-5590460D02*
X-2389818Y-5580936D01*
X-2170771Y-5599984D02*
X-2132676Y-5599984D01*
X-2132676Y-5599984D02*
X-2113628Y-5590460D01*
X-2113628Y-5590460D02*
X-2104104Y-5580936D01*
X-2104104Y-5580936D02*
X-2085056Y-5552365D01*
X-2085056Y-5552365D02*
X-2075533Y-5514270D01*
X-2075533Y-5514270D02*
X-2075533Y-5438079D01*
X-2075533Y-5438079D02*
X-2085056Y-5419031D01*
X-2085056Y-5419031D02*
X-2094580Y-5409508D01*
X-2094580Y-5409508D02*
X-2113628Y-5399984D01*
X-2113628Y-5399984D02*
X-2151723Y-5399984D01*
X-2151723Y-5399984D02*
X-2170771Y-5409508D01*
X-2170771Y-5409508D02*
X-2180295Y-5419031D01*
X-2180295Y-5419031D02*
X-2189818Y-5438079D01*
X-2189818Y-5438079D02*
X-2189818Y-5485698D01*
X-2189818Y-5485698D02*
X-2180295Y-5504746D01*
X-2180295Y-5504746D02*
X-2170771Y-5514270D01*
X-2170771Y-5514270D02*
X-2151723Y-5523793D01*
X-2151723Y-5523793D02*
X-2113628Y-5523793D01*
X-2113628Y-5523793D02*
X-2094580Y-5514270D01*
X-2094580Y-5514270D02*
X-2085056Y-5504746D01*
X-2085056Y-5504746D02*
X-2075533Y-5485698D01*
X-1904104Y-5466650D02*
X-1904104Y-5599984D01*
X-1951723Y-5390460D02*
X-1999342Y-5533317D01*
X-1999342Y-5533317D02*
X-1875533Y-5533317D01*
X-1808866Y-5399984D02*
X-1808866Y-5438079D01*
X-1732675Y-5399984D02*
X-1732675Y-5438079D01*
X-1437437Y-5676174D02*
X-1446961Y-5666650D01*
X-1446961Y-5666650D02*
X-1466009Y-5638079D01*
X-1466009Y-5638079D02*
X-1475532Y-5619031D01*
X-1475532Y-5619031D02*
X-1485056Y-5590460D01*
X-1485056Y-5590460D02*
X-1494580Y-5542841D01*
X-1494580Y-5542841D02*
X-1494580Y-5504746D01*
X-1494580Y-5504746D02*
X-1485056Y-5457127D01*
X-1485056Y-5457127D02*
X-1475532Y-5428555D01*
X-1475532Y-5428555D02*
X-1466009Y-5409508D01*
X-1466009Y-5409508D02*
X-1446961Y-5380936D01*
X-1446961Y-5380936D02*
X-1437437Y-5371412D01*
X-1256485Y-5599984D02*
X-1370771Y-5599984D01*
X-1313628Y-5599984D02*
X-1313628Y-5399984D01*
X-1313628Y-5399984D02*
X-1332675Y-5428555D01*
X-1332675Y-5428555D02*
X-1351723Y-5447603D01*
X-1351723Y-5447603D02*
X-1370771Y-5457127D01*
X-1075533Y-5399984D02*
X-1170771Y-5399984D01*
X-1170771Y-5399984D02*
X-1180294Y-5495222D01*
X-1180294Y-5495222D02*
X-1170771Y-5485698D01*
X-1170771Y-5485698D02*
X-1151723Y-5476174D01*
X-1151723Y-5476174D02*
X-1104104Y-5476174D01*
X-1104104Y-5476174D02*
X-1085056Y-5485698D01*
X-1085056Y-5485698D02*
X-1075533Y-5495222D01*
X-1075533Y-5495222D02*
X-1066009Y-5514270D01*
X-1066009Y-5514270D02*
X-1066009Y-5561889D01*
X-1066009Y-5561889D02*
X-1075533Y-5580936D01*
X-1075533Y-5580936D02*
X-1085056Y-5590460D01*
X-1085056Y-5590460D02*
X-1104104Y-5599984D01*
X-1104104Y-5599984D02*
X-1151723Y-5599984D01*
X-1151723Y-5599984D02*
X-1170771Y-5590460D01*
X-1170771Y-5590460D02*
X-1180294Y-5580936D01*
X-827913Y-5599984D02*
X-827913Y-5399984D01*
X-742199Y-5599984D02*
X-742199Y-5495222D01*
X-742199Y-5495222D02*
X-751723Y-5476174D01*
X-751723Y-5476174D02*
X-770770Y-5466650D01*
X-770770Y-5466650D02*
X-799342Y-5466650D01*
X-799342Y-5466650D02*
X-818390Y-5476174D01*
X-818390Y-5476174D02*
X-827913Y-5485698D01*
X-618390Y-5599984D02*
X-637437Y-5590460D01*
X-637437Y-5590460D02*
X-646961Y-5580936D01*
X-646961Y-5580936D02*
X-656485Y-5561889D01*
X-656485Y-5561889D02*
X-656485Y-5504746D01*
X-656485Y-5504746D02*
X-646961Y-5485698D01*
X-646961Y-5485698D02*
X-637437Y-5476174D01*
X-637437Y-5476174D02*
X-618390Y-5466650D01*
X-618390Y-5466650D02*
X-589818Y-5466650D01*
X-589818Y-5466650D02*
X-570771Y-5476174D01*
X-570771Y-5476174D02*
X-561247Y-5485698D01*
X-561247Y-5485698D02*
X-551723Y-5504746D01*
X-551723Y-5504746D02*
X-551723Y-5561889D01*
X-551723Y-5561889D02*
X-561247Y-5580936D01*
X-561247Y-5580936D02*
X-570771Y-5590460D01*
X-570771Y-5590460D02*
X-589818Y-5599984D01*
X-589818Y-5599984D02*
X-618390Y-5599984D01*
X-437437Y-5599984D02*
X-456485Y-5590460D01*
X-456485Y-5590460D02*
X-466009Y-5571412D01*
X-466009Y-5571412D02*
X-466009Y-5399984D01*
X-285056Y-5590460D02*
X-304104Y-5599984D01*
X-304104Y-5599984D02*
X-342199Y-5599984D01*
X-342199Y-5599984D02*
X-361247Y-5590460D01*
X-361247Y-5590460D02*
X-370770Y-5571412D01*
X-370770Y-5571412D02*
X-370770Y-5495222D01*
X-370770Y-5495222D02*
X-361247Y-5476174D01*
X-361247Y-5476174D02*
X-342199Y-5466650D01*
X-342199Y-5466650D02*
X-304104Y-5466650D01*
X-304104Y-5466650D02*
X-285056Y-5476174D01*
X-285056Y-5476174D02*
X-275532Y-5495222D01*
X-275532Y-5495222D02*
X-275532Y-5514270D01*
X-275532Y-5514270D02*
X-370770Y-5533317D01*
X-199342Y-5590460D02*
X-180294Y-5599984D01*
X-180294Y-5599984D02*
X-142199Y-5599984D01*
X-142199Y-5599984D02*
X-123151Y-5590460D01*
X-123151Y-5590460D02*
X-113628Y-5571412D01*
X-113628Y-5571412D02*
X-113628Y-5561889D01*
X-113628Y-5561889D02*
X-123151Y-5542841D01*
X-123151Y-5542841D02*
X-142199Y-5533317D01*
X-142199Y-5533317D02*
X-170771Y-5533317D01*
X-170771Y-5533317D02*
X-189818Y-5523793D01*
X-189818Y-5523793D02*
X-199342Y-5504746D01*
X-199342Y-5504746D02*
X-199342Y-5495222D01*
X-199342Y-5495222D02*
X-189818Y-5476174D01*
X-189818Y-5476174D02*
X-170771Y-5466650D01*
X-170771Y-5466650D02*
X-142199Y-5466650D01*
X-142199Y-5466650D02*
X-123151Y-5476174D01*
X-46961Y-5676174D02*
X-37437Y-5666650D01*
X-37437Y-5666650D02*
X-18390Y-5638079D01*
X-18390Y-5638079D02*
X-8866Y-5619031D01*
X-8866Y-5619031D02*
X658Y-5590460D01*
X658Y-5590460D02*
X10182Y-5542841D01*
X10182Y-5542841D02*
X10182Y-5504746D01*
X10182Y-5504746D02*
X658Y-5457127D01*
X658Y-5457127D02*
X-8866Y-5428555D01*
X-8866Y-5428555D02*
X-18390Y-5409508D01*
X-18390Y-5409508D02*
X-37437Y-5380936D01*
X-37437Y-5380936D02*
X-46961Y-5371412D01*
D13*
X-5122500Y-5717500D02*
X-5012500Y-5827500D01*
X-5012500Y-5717500D02*
X-5122500Y-5827500D01*
X-5012500Y-5772500D02*
G75*
G02*
X-5122500Y-5772500I-55000J0D01*
G01*
X-5122500Y-5772500D02*
G75*
G02*
X-5012500Y-5772500I55000J0D01*
G01*
D11*
X-4646961Y-5863984D02*
X-4761247Y-5863984D01*
X-4704104Y-5863984D02*
X-4704104Y-5663984D01*
X-4704104Y-5663984D02*
X-4723152Y-5692555D01*
X-4723152Y-5692555D02*
X-4742200Y-5711603D01*
X-4742200Y-5711603D02*
X-4761247Y-5721127D01*
X-4561247Y-5844936D02*
X-4551723Y-5854460D01*
X-4551723Y-5854460D02*
X-4561247Y-5863984D01*
X-4561247Y-5863984D02*
X-4570771Y-5854460D01*
X-4570771Y-5854460D02*
X-4561247Y-5844936D01*
X-4561247Y-5844936D02*
X-4561247Y-5863984D01*
X-4361247Y-5863984D02*
X-4475533Y-5863984D01*
X-4418390Y-5863984D02*
X-4418390Y-5663984D01*
X-4418390Y-5663984D02*
X-4437438Y-5692555D01*
X-4437438Y-5692555D02*
X-4456485Y-5711603D01*
X-4456485Y-5711603D02*
X-4475533Y-5721127D01*
X-4237438Y-5663984D02*
X-4218390Y-5663984D01*
X-4218390Y-5663984D02*
X-4199342Y-5673508D01*
X-4199342Y-5673508D02*
X-4189818Y-5683031D01*
X-4189818Y-5683031D02*
X-4180295Y-5702079D01*
X-4180295Y-5702079D02*
X-4170771Y-5740174D01*
X-4170771Y-5740174D02*
X-4170771Y-5787793D01*
X-4170771Y-5787793D02*
X-4180295Y-5825888D01*
X-4180295Y-5825888D02*
X-4189818Y-5844936D01*
X-4189818Y-5844936D02*
X-4199342Y-5854460D01*
X-4199342Y-5854460D02*
X-4218390Y-5863984D01*
X-4218390Y-5863984D02*
X-4237438Y-5863984D01*
X-4237438Y-5863984D02*
X-4256485Y-5854460D01*
X-4256485Y-5854460D02*
X-4266009Y-5844936D01*
X-4266009Y-5844936D02*
X-4275533Y-5825888D01*
X-4275533Y-5825888D02*
X-4285057Y-5787793D01*
X-4285057Y-5787793D02*
X-4285057Y-5740174D01*
X-4285057Y-5740174D02*
X-4275533Y-5702079D01*
X-4275533Y-5702079D02*
X-4266009Y-5683031D01*
X-4266009Y-5683031D02*
X-4256485Y-5673508D01*
X-4256485Y-5673508D02*
X-4237438Y-5663984D01*
X-4046961Y-5663984D02*
X-4027914Y-5663984D01*
X-4027914Y-5663984D02*
X-4008866Y-5673508D01*
X-4008866Y-5673508D02*
X-3999342Y-5683031D01*
X-3999342Y-5683031D02*
X-3989818Y-5702079D01*
X-3989818Y-5702079D02*
X-3980295Y-5740174D01*
X-3980295Y-5740174D02*
X-3980295Y-5787793D01*
X-3980295Y-5787793D02*
X-3989818Y-5825888D01*
X-3989818Y-5825888D02*
X-3999342Y-5844936D01*
X-3999342Y-5844936D02*
X-4008866Y-5854460D01*
X-4008866Y-5854460D02*
X-4027914Y-5863984D01*
X-4027914Y-5863984D02*
X-4046961Y-5863984D01*
X-4046961Y-5863984D02*
X-4066009Y-5854460D01*
X-4066009Y-5854460D02*
X-4075533Y-5844936D01*
X-4075533Y-5844936D02*
X-4085057Y-5825888D01*
X-4085057Y-5825888D02*
X-4094580Y-5787793D01*
X-4094580Y-5787793D02*
X-4094580Y-5740174D01*
X-4094580Y-5740174D02*
X-4085057Y-5702079D01*
X-4085057Y-5702079D02*
X-4075533Y-5683031D01*
X-4075533Y-5683031D02*
X-4066009Y-5673508D01*
X-4066009Y-5673508D02*
X-4046961Y-5663984D01*
X-3894580Y-5863984D02*
X-3894580Y-5730650D01*
X-3894580Y-5749698D02*
X-3885057Y-5740174D01*
X-3885057Y-5740174D02*
X-3866009Y-5730650D01*
X-3866009Y-5730650D02*
X-3837437Y-5730650D01*
X-3837437Y-5730650D02*
X-3818390Y-5740174D01*
X-3818390Y-5740174D02*
X-3808866Y-5759222D01*
X-3808866Y-5759222D02*
X-3808866Y-5863984D01*
X-3808866Y-5759222D02*
X-3799342Y-5740174D01*
X-3799342Y-5740174D02*
X-3780295Y-5730650D01*
X-3780295Y-5730650D02*
X-3751723Y-5730650D01*
X-3751723Y-5730650D02*
X-3732676Y-5740174D01*
X-3732676Y-5740174D02*
X-3723152Y-5759222D01*
X-3723152Y-5759222D02*
X-3723152Y-5863984D01*
X-3627914Y-5863984D02*
X-3627914Y-5730650D01*
X-3627914Y-5749698D02*
X-3618390Y-5740174D01*
X-3618390Y-5740174D02*
X-3599342Y-5730650D01*
X-3599342Y-5730650D02*
X-3570771Y-5730650D01*
X-3570771Y-5730650D02*
X-3551723Y-5740174D01*
X-3551723Y-5740174D02*
X-3542199Y-5759222D01*
X-3542199Y-5759222D02*
X-3542199Y-5863984D01*
X-3542199Y-5759222D02*
X-3532676Y-5740174D01*
X-3532676Y-5740174D02*
X-3513628Y-5730650D01*
X-3513628Y-5730650D02*
X-3485057Y-5730650D01*
X-3485057Y-5730650D02*
X-3466009Y-5740174D01*
X-3466009Y-5740174D02*
X-3456485Y-5759222D01*
X-3456485Y-5759222D02*
X-3456485Y-5863984D01*
X-3066009Y-5654460D02*
X-3237437Y-5911603D01*
X-2808866Y-5663984D02*
X-2789818Y-5663984D01*
X-2789818Y-5663984D02*
X-2770771Y-5673508D01*
X-2770771Y-5673508D02*
X-2761247Y-5683031D01*
X-2761247Y-5683031D02*
X-2751723Y-5702079D01*
X-2751723Y-5702079D02*
X-2742199Y-5740174D01*
X-2742199Y-5740174D02*
X-2742199Y-5787793D01*
X-2742199Y-5787793D02*
X-2751723Y-5825888D01*
X-2751723Y-5825888D02*
X-2761247Y-5844936D01*
X-2761247Y-5844936D02*
X-2770771Y-5854460D01*
X-2770771Y-5854460D02*
X-2789818Y-5863984D01*
X-2789818Y-5863984D02*
X-2808866Y-5863984D01*
X-2808866Y-5863984D02*
X-2827914Y-5854460D01*
X-2827914Y-5854460D02*
X-2837437Y-5844936D01*
X-2837437Y-5844936D02*
X-2846961Y-5825888D01*
X-2846961Y-5825888D02*
X-2856485Y-5787793D01*
X-2856485Y-5787793D02*
X-2856485Y-5740174D01*
X-2856485Y-5740174D02*
X-2846961Y-5702079D01*
X-2846961Y-5702079D02*
X-2837437Y-5683031D01*
X-2837437Y-5683031D02*
X-2827914Y-5673508D01*
X-2827914Y-5673508D02*
X-2808866Y-5663984D01*
X-2656485Y-5844936D02*
X-2646961Y-5854460D01*
X-2646961Y-5854460D02*
X-2656485Y-5863984D01*
X-2656485Y-5863984D02*
X-2666009Y-5854460D01*
X-2666009Y-5854460D02*
X-2656485Y-5844936D01*
X-2656485Y-5844936D02*
X-2656485Y-5863984D01*
X-2523152Y-5663984D02*
X-2504104Y-5663984D01*
X-2504104Y-5663984D02*
X-2485056Y-5673508D01*
X-2485056Y-5673508D02*
X-2475533Y-5683031D01*
X-2475533Y-5683031D02*
X-2466009Y-5702079D01*
X-2466009Y-5702079D02*
X-2456485Y-5740174D01*
X-2456485Y-5740174D02*
X-2456485Y-5787793D01*
X-2456485Y-5787793D02*
X-2466009Y-5825888D01*
X-2466009Y-5825888D02*
X-2475533Y-5844936D01*
X-2475533Y-5844936D02*
X-2485056Y-5854460D01*
X-2485056Y-5854460D02*
X-2504104Y-5863984D01*
X-2504104Y-5863984D02*
X-2523152Y-5863984D01*
X-2523152Y-5863984D02*
X-2542199Y-5854460D01*
X-2542199Y-5854460D02*
X-2551723Y-5844936D01*
X-2551723Y-5844936D02*
X-2561247Y-5825888D01*
X-2561247Y-5825888D02*
X-2570771Y-5787793D01*
X-2570771Y-5787793D02*
X-2570771Y-5740174D01*
X-2570771Y-5740174D02*
X-2561247Y-5702079D01*
X-2561247Y-5702079D02*
X-2551723Y-5683031D01*
X-2551723Y-5683031D02*
X-2542199Y-5673508D01*
X-2542199Y-5673508D02*
X-2523152Y-5663984D01*
X-2285056Y-5730650D02*
X-2285056Y-5863984D01*
X-2332676Y-5654460D02*
X-2380295Y-5797317D01*
X-2380295Y-5797317D02*
X-2256485Y-5797317D01*
X-2199342Y-5663984D02*
X-2075533Y-5663984D01*
X-2075533Y-5663984D02*
X-2142199Y-5740174D01*
X-2142199Y-5740174D02*
X-2113628Y-5740174D01*
X-2113628Y-5740174D02*
X-2094580Y-5749698D01*
X-2094580Y-5749698D02*
X-2085056Y-5759222D01*
X-2085056Y-5759222D02*
X-2075533Y-5778269D01*
X-2075533Y-5778269D02*
X-2075533Y-5825888D01*
X-2075533Y-5825888D02*
X-2085056Y-5844936D01*
X-2085056Y-5844936D02*
X-2094580Y-5854460D01*
X-2094580Y-5854460D02*
X-2113628Y-5863984D01*
X-2113628Y-5863984D02*
X-2170771Y-5863984D01*
X-2170771Y-5863984D02*
X-2189818Y-5854460D01*
X-2189818Y-5854460D02*
X-2199342Y-5844936D01*
X-2008866Y-5663984D02*
X-1885056Y-5663984D01*
X-1885056Y-5663984D02*
X-1951723Y-5740174D01*
X-1951723Y-5740174D02*
X-1923152Y-5740174D01*
X-1923152Y-5740174D02*
X-1904104Y-5749698D01*
X-1904104Y-5749698D02*
X-1894580Y-5759222D01*
X-1894580Y-5759222D02*
X-1885056Y-5778269D01*
X-1885056Y-5778269D02*
X-1885056Y-5825888D01*
X-1885056Y-5825888D02*
X-1894580Y-5844936D01*
X-1894580Y-5844936D02*
X-1904104Y-5854460D01*
X-1904104Y-5854460D02*
X-1923152Y-5863984D01*
X-1923152Y-5863984D02*
X-1980294Y-5863984D01*
X-1980294Y-5863984D02*
X-1999342Y-5854460D01*
X-1999342Y-5854460D02*
X-2008866Y-5844936D01*
X-1808866Y-5663984D02*
X-1808866Y-5702079D01*
X-1732675Y-5663984D02*
X-1732675Y-5702079D01*
X-1437437Y-5940174D02*
X-1446961Y-5930650D01*
X-1446961Y-5930650D02*
X-1466009Y-5902079D01*
X-1466009Y-5902079D02*
X-1475532Y-5883031D01*
X-1475532Y-5883031D02*
X-1485056Y-5854460D01*
X-1485056Y-5854460D02*
X-1494580Y-5806841D01*
X-1494580Y-5806841D02*
X-1494580Y-5768746D01*
X-1494580Y-5768746D02*
X-1485056Y-5721127D01*
X-1485056Y-5721127D02*
X-1475532Y-5692555D01*
X-1475532Y-5692555D02*
X-1466009Y-5673508D01*
X-1466009Y-5673508D02*
X-1446961Y-5644936D01*
X-1446961Y-5644936D02*
X-1437437Y-5635412D01*
X-1256485Y-5863984D02*
X-1370771Y-5863984D01*
X-1313628Y-5863984D02*
X-1313628Y-5663984D01*
X-1313628Y-5663984D02*
X-1332675Y-5692555D01*
X-1332675Y-5692555D02*
X-1351723Y-5711603D01*
X-1351723Y-5711603D02*
X-1370771Y-5721127D01*
X-1180294Y-5683031D02*
X-1170771Y-5673508D01*
X-1170771Y-5673508D02*
X-1151723Y-5663984D01*
X-1151723Y-5663984D02*
X-1104104Y-5663984D01*
X-1104104Y-5663984D02*
X-1085056Y-5673508D01*
X-1085056Y-5673508D02*
X-1075533Y-5683031D01*
X-1075533Y-5683031D02*
X-1066009Y-5702079D01*
X-1066009Y-5702079D02*
X-1066009Y-5721127D01*
X-1066009Y-5721127D02*
X-1075533Y-5749698D01*
X-1075533Y-5749698D02*
X-1189818Y-5863984D01*
X-1189818Y-5863984D02*
X-1066009Y-5863984D01*
X-827913Y-5863984D02*
X-827913Y-5663984D01*
X-742199Y-5863984D02*
X-742199Y-5759222D01*
X-742199Y-5759222D02*
X-751723Y-5740174D01*
X-751723Y-5740174D02*
X-770770Y-5730650D01*
X-770770Y-5730650D02*
X-799342Y-5730650D01*
X-799342Y-5730650D02*
X-818390Y-5740174D01*
X-818390Y-5740174D02*
X-827913Y-5749698D01*
X-618390Y-5863984D02*
X-637437Y-5854460D01*
X-637437Y-5854460D02*
X-646961Y-5844936D01*
X-646961Y-5844936D02*
X-656485Y-5825888D01*
X-656485Y-5825888D02*
X-656485Y-5768746D01*
X-656485Y-5768746D02*
X-646961Y-5749698D01*
X-646961Y-5749698D02*
X-637437Y-5740174D01*
X-637437Y-5740174D02*
X-618390Y-5730650D01*
X-618390Y-5730650D02*
X-589818Y-5730650D01*
X-589818Y-5730650D02*
X-570771Y-5740174D01*
X-570771Y-5740174D02*
X-561247Y-5749698D01*
X-561247Y-5749698D02*
X-551723Y-5768746D01*
X-551723Y-5768746D02*
X-551723Y-5825888D01*
X-551723Y-5825888D02*
X-561247Y-5844936D01*
X-561247Y-5844936D02*
X-570771Y-5854460D01*
X-570771Y-5854460D02*
X-589818Y-5863984D01*
X-589818Y-5863984D02*
X-618390Y-5863984D01*
X-437437Y-5863984D02*
X-456485Y-5854460D01*
X-456485Y-5854460D02*
X-466009Y-5835412D01*
X-466009Y-5835412D02*
X-466009Y-5663984D01*
X-285056Y-5854460D02*
X-304104Y-5863984D01*
X-304104Y-5863984D02*
X-342199Y-5863984D01*
X-342199Y-5863984D02*
X-361247Y-5854460D01*
X-361247Y-5854460D02*
X-370770Y-5835412D01*
X-370770Y-5835412D02*
X-370770Y-5759222D01*
X-370770Y-5759222D02*
X-361247Y-5740174D01*
X-361247Y-5740174D02*
X-342199Y-5730650D01*
X-342199Y-5730650D02*
X-304104Y-5730650D01*
X-304104Y-5730650D02*
X-285056Y-5740174D01*
X-285056Y-5740174D02*
X-275532Y-5759222D01*
X-275532Y-5759222D02*
X-275532Y-5778269D01*
X-275532Y-5778269D02*
X-370770Y-5797317D01*
X-199342Y-5854460D02*
X-180294Y-5863984D01*
X-180294Y-5863984D02*
X-142199Y-5863984D01*
X-142199Y-5863984D02*
X-123151Y-5854460D01*
X-123151Y-5854460D02*
X-113628Y-5835412D01*
X-113628Y-5835412D02*
X-113628Y-5825888D01*
X-113628Y-5825888D02*
X-123151Y-5806841D01*
X-123151Y-5806841D02*
X-142199Y-5797317D01*
X-142199Y-5797317D02*
X-170771Y-5797317D01*
X-170771Y-5797317D02*
X-189818Y-5787793D01*
X-189818Y-5787793D02*
X-199342Y-5768746D01*
X-199342Y-5768746D02*
X-199342Y-5759222D01*
X-199342Y-5759222D02*
X-189818Y-5740174D01*
X-189818Y-5740174D02*
X-170771Y-5730650D01*
X-170771Y-5730650D02*
X-142199Y-5730650D01*
X-142199Y-5730650D02*
X-123151Y-5740174D01*
X-46961Y-5940174D02*
X-37437Y-5930650D01*
X-37437Y-5930650D02*
X-18390Y-5902079D01*
X-18390Y-5902079D02*
X-8866Y-5883031D01*
X-8866Y-5883031D02*
X658Y-5854460D01*
X658Y-5854460D02*
X10182Y-5806841D01*
X10182Y-5806841D02*
X10182Y-5768746D01*
X10182Y-5768746D02*
X658Y-5721127D01*
X658Y-5721127D02*
X-8866Y-5692555D01*
X-8866Y-5692555D02*
X-18390Y-5673508D01*
X-18390Y-5673508D02*
X-37437Y-5644936D01*
X-37437Y-5644936D02*
X-46961Y-5635412D01*
X-5212500Y-5936500D02*
X-5012500Y-6136500D01*
X-5012500Y-5936500D02*
X-5212500Y-6136500D01*
X-5112500Y-5936500D02*
X-5112500Y-6136500D01*
X-5212500Y-6036500D02*
X-5012500Y-6036500D01*
X-4761247Y-5947031D02*
X-4751723Y-5937508D01*
X-4751723Y-5937508D02*
X-4732676Y-5927984D01*
X-4732676Y-5927984D02*
X-4685057Y-5927984D01*
X-4685057Y-5927984D02*
X-4666009Y-5937508D01*
X-4666009Y-5937508D02*
X-4656485Y-5947031D01*
X-4656485Y-5947031D02*
X-4646961Y-5966079D01*
X-4646961Y-5966079D02*
X-4646961Y-5985127D01*
X-4646961Y-5985127D02*
X-4656485Y-6013698D01*
X-4656485Y-6013698D02*
X-4770771Y-6127984D01*
X-4770771Y-6127984D02*
X-4646961Y-6127984D01*
X-4561247Y-6108936D02*
X-4551723Y-6118460D01*
X-4551723Y-6118460D02*
X-4561247Y-6127984D01*
X-4561247Y-6127984D02*
X-4570771Y-6118460D01*
X-4570771Y-6118460D02*
X-4561247Y-6108936D01*
X-4561247Y-6108936D02*
X-4561247Y-6127984D01*
X-4380295Y-5927984D02*
X-4418390Y-5927984D01*
X-4418390Y-5927984D02*
X-4437438Y-5937508D01*
X-4437438Y-5937508D02*
X-4446961Y-5947031D01*
X-4446961Y-5947031D02*
X-4466009Y-5975603D01*
X-4466009Y-5975603D02*
X-4475533Y-6013698D01*
X-4475533Y-6013698D02*
X-4475533Y-6089888D01*
X-4475533Y-6089888D02*
X-4466009Y-6108936D01*
X-4466009Y-6108936D02*
X-4456485Y-6118460D01*
X-4456485Y-6118460D02*
X-4437438Y-6127984D01*
X-4437438Y-6127984D02*
X-4399342Y-6127984D01*
X-4399342Y-6127984D02*
X-4380295Y-6118460D01*
X-4380295Y-6118460D02*
X-4370771Y-6108936D01*
X-4370771Y-6108936D02*
X-4361247Y-6089888D01*
X-4361247Y-6089888D02*
X-4361247Y-6042269D01*
X-4361247Y-6042269D02*
X-4370771Y-6023222D01*
X-4370771Y-6023222D02*
X-4380295Y-6013698D01*
X-4380295Y-6013698D02*
X-4399342Y-6004174D01*
X-4399342Y-6004174D02*
X-4437438Y-6004174D01*
X-4437438Y-6004174D02*
X-4456485Y-6013698D01*
X-4456485Y-6013698D02*
X-4466009Y-6023222D01*
X-4466009Y-6023222D02*
X-4475533Y-6042269D01*
X-4237438Y-5927984D02*
X-4218390Y-5927984D01*
X-4218390Y-5927984D02*
X-4199342Y-5937508D01*
X-4199342Y-5937508D02*
X-4189818Y-5947031D01*
X-4189818Y-5947031D02*
X-4180295Y-5966079D01*
X-4180295Y-5966079D02*
X-4170771Y-6004174D01*
X-4170771Y-6004174D02*
X-4170771Y-6051793D01*
X-4170771Y-6051793D02*
X-4180295Y-6089888D01*
X-4180295Y-6089888D02*
X-4189818Y-6108936D01*
X-4189818Y-6108936D02*
X-4199342Y-6118460D01*
X-4199342Y-6118460D02*
X-4218390Y-6127984D01*
X-4218390Y-6127984D02*
X-4237438Y-6127984D01*
X-4237438Y-6127984D02*
X-4256485Y-6118460D01*
X-4256485Y-6118460D02*
X-4266009Y-6108936D01*
X-4266009Y-6108936D02*
X-4275533Y-6089888D01*
X-4275533Y-6089888D02*
X-4285057Y-6051793D01*
X-4285057Y-6051793D02*
X-4285057Y-6004174D01*
X-4285057Y-6004174D02*
X-4275533Y-5966079D01*
X-4275533Y-5966079D02*
X-4266009Y-5947031D01*
X-4266009Y-5947031D02*
X-4256485Y-5937508D01*
X-4256485Y-5937508D02*
X-4237438Y-5927984D01*
X-4046961Y-5927984D02*
X-4027914Y-5927984D01*
X-4027914Y-5927984D02*
X-4008866Y-5937508D01*
X-4008866Y-5937508D02*
X-3999342Y-5947031D01*
X-3999342Y-5947031D02*
X-3989818Y-5966079D01*
X-3989818Y-5966079D02*
X-3980295Y-6004174D01*
X-3980295Y-6004174D02*
X-3980295Y-6051793D01*
X-3980295Y-6051793D02*
X-3989818Y-6089888D01*
X-3989818Y-6089888D02*
X-3999342Y-6108936D01*
X-3999342Y-6108936D02*
X-4008866Y-6118460D01*
X-4008866Y-6118460D02*
X-4027914Y-6127984D01*
X-4027914Y-6127984D02*
X-4046961Y-6127984D01*
X-4046961Y-6127984D02*
X-4066009Y-6118460D01*
X-4066009Y-6118460D02*
X-4075533Y-6108936D01*
X-4075533Y-6108936D02*
X-4085057Y-6089888D01*
X-4085057Y-6089888D02*
X-4094580Y-6051793D01*
X-4094580Y-6051793D02*
X-4094580Y-6004174D01*
X-4094580Y-6004174D02*
X-4085057Y-5966079D01*
X-4085057Y-5966079D02*
X-4075533Y-5947031D01*
X-4075533Y-5947031D02*
X-4066009Y-5937508D01*
X-4066009Y-5937508D02*
X-4046961Y-5927984D01*
X-3894580Y-6127984D02*
X-3894580Y-5994650D01*
X-3894580Y-6013698D02*
X-3885057Y-6004174D01*
X-3885057Y-6004174D02*
X-3866009Y-5994650D01*
X-3866009Y-5994650D02*
X-3837437Y-5994650D01*
X-3837437Y-5994650D02*
X-3818390Y-6004174D01*
X-3818390Y-6004174D02*
X-3808866Y-6023222D01*
X-3808866Y-6023222D02*
X-3808866Y-6127984D01*
X-3808866Y-6023222D02*
X-3799342Y-6004174D01*
X-3799342Y-6004174D02*
X-3780295Y-5994650D01*
X-3780295Y-5994650D02*
X-3751723Y-5994650D01*
X-3751723Y-5994650D02*
X-3732676Y-6004174D01*
X-3732676Y-6004174D02*
X-3723152Y-6023222D01*
X-3723152Y-6023222D02*
X-3723152Y-6127984D01*
X-3627914Y-6127984D02*
X-3627914Y-5994650D01*
X-3627914Y-6013698D02*
X-3618390Y-6004174D01*
X-3618390Y-6004174D02*
X-3599342Y-5994650D01*
X-3599342Y-5994650D02*
X-3570771Y-5994650D01*
X-3570771Y-5994650D02*
X-3551723Y-6004174D01*
X-3551723Y-6004174D02*
X-3542199Y-6023222D01*
X-3542199Y-6023222D02*
X-3542199Y-6127984D01*
X-3542199Y-6023222D02*
X-3532676Y-6004174D01*
X-3532676Y-6004174D02*
X-3513628Y-5994650D01*
X-3513628Y-5994650D02*
X-3485057Y-5994650D01*
X-3485057Y-5994650D02*
X-3466009Y-6004174D01*
X-3466009Y-6004174D02*
X-3456485Y-6023222D01*
X-3456485Y-6023222D02*
X-3456485Y-6127984D01*
X-3066009Y-5918460D02*
X-3237437Y-6175603D01*
X-2808866Y-5927984D02*
X-2789818Y-5927984D01*
X-2789818Y-5927984D02*
X-2770771Y-5937508D01*
X-2770771Y-5937508D02*
X-2761247Y-5947031D01*
X-2761247Y-5947031D02*
X-2751723Y-5966079D01*
X-2751723Y-5966079D02*
X-2742199Y-6004174D01*
X-2742199Y-6004174D02*
X-2742199Y-6051793D01*
X-2742199Y-6051793D02*
X-2751723Y-6089888D01*
X-2751723Y-6089888D02*
X-2761247Y-6108936D01*
X-2761247Y-6108936D02*
X-2770771Y-6118460D01*
X-2770771Y-6118460D02*
X-2789818Y-6127984D01*
X-2789818Y-6127984D02*
X-2808866Y-6127984D01*
X-2808866Y-6127984D02*
X-2827914Y-6118460D01*
X-2827914Y-6118460D02*
X-2837437Y-6108936D01*
X-2837437Y-6108936D02*
X-2846961Y-6089888D01*
X-2846961Y-6089888D02*
X-2856485Y-6051793D01*
X-2856485Y-6051793D02*
X-2856485Y-6004174D01*
X-2856485Y-6004174D02*
X-2846961Y-5966079D01*
X-2846961Y-5966079D02*
X-2837437Y-5947031D01*
X-2837437Y-5947031D02*
X-2827914Y-5937508D01*
X-2827914Y-5937508D02*
X-2808866Y-5927984D01*
X-2656485Y-6108936D02*
X-2646961Y-6118460D01*
X-2646961Y-6118460D02*
X-2656485Y-6127984D01*
X-2656485Y-6127984D02*
X-2666009Y-6118460D01*
X-2666009Y-6118460D02*
X-2656485Y-6108936D01*
X-2656485Y-6108936D02*
X-2656485Y-6127984D01*
X-2456485Y-6127984D02*
X-2570771Y-6127984D01*
X-2513628Y-6127984D02*
X-2513628Y-5927984D01*
X-2513628Y-5927984D02*
X-2532676Y-5956555D01*
X-2532676Y-5956555D02*
X-2551723Y-5975603D01*
X-2551723Y-5975603D02*
X-2570771Y-5985127D01*
X-2332676Y-5927984D02*
X-2313628Y-5927984D01*
X-2313628Y-5927984D02*
X-2294580Y-5937508D01*
X-2294580Y-5937508D02*
X-2285056Y-5947031D01*
X-2285056Y-5947031D02*
X-2275533Y-5966079D01*
X-2275533Y-5966079D02*
X-2266009Y-6004174D01*
X-2266009Y-6004174D02*
X-2266009Y-6051793D01*
X-2266009Y-6051793D02*
X-2275533Y-6089888D01*
X-2275533Y-6089888D02*
X-2285056Y-6108936D01*
X-2285056Y-6108936D02*
X-2294580Y-6118460D01*
X-2294580Y-6118460D02*
X-2313628Y-6127984D01*
X-2313628Y-6127984D02*
X-2332676Y-6127984D01*
X-2332676Y-6127984D02*
X-2351723Y-6118460D01*
X-2351723Y-6118460D02*
X-2361247Y-6108936D01*
X-2361247Y-6108936D02*
X-2370771Y-6089888D01*
X-2370771Y-6089888D02*
X-2380295Y-6051793D01*
X-2380295Y-6051793D02*
X-2380295Y-6004174D01*
X-2380295Y-6004174D02*
X-2370771Y-5966079D01*
X-2370771Y-5966079D02*
X-2361247Y-5947031D01*
X-2361247Y-5947031D02*
X-2351723Y-5937508D01*
X-2351723Y-5937508D02*
X-2332676Y-5927984D01*
X-2189818Y-5947031D02*
X-2180295Y-5937508D01*
X-2180295Y-5937508D02*
X-2161247Y-5927984D01*
X-2161247Y-5927984D02*
X-2113628Y-5927984D01*
X-2113628Y-5927984D02*
X-2094580Y-5937508D01*
X-2094580Y-5937508D02*
X-2085056Y-5947031D01*
X-2085056Y-5947031D02*
X-2075533Y-5966079D01*
X-2075533Y-5966079D02*
X-2075533Y-5985127D01*
X-2075533Y-5985127D02*
X-2085056Y-6013698D01*
X-2085056Y-6013698D02*
X-2199342Y-6127984D01*
X-2199342Y-6127984D02*
X-2075533Y-6127984D01*
X-1904104Y-5994650D02*
X-1904104Y-6127984D01*
X-1951723Y-5918460D02*
X-1999342Y-6061317D01*
X-1999342Y-6061317D02*
X-1875533Y-6061317D01*
X-1808866Y-5927984D02*
X-1808866Y-5966079D01*
X-1732675Y-5927984D02*
X-1732675Y-5966079D01*
X-1437437Y-6204174D02*
X-1446961Y-6194650D01*
X-1446961Y-6194650D02*
X-1466009Y-6166079D01*
X-1466009Y-6166079D02*
X-1475532Y-6147031D01*
X-1475532Y-6147031D02*
X-1485056Y-6118460D01*
X-1485056Y-6118460D02*
X-1494580Y-6070841D01*
X-1494580Y-6070841D02*
X-1494580Y-6032746D01*
X-1494580Y-6032746D02*
X-1485056Y-5985127D01*
X-1485056Y-5985127D02*
X-1475532Y-5956555D01*
X-1475532Y-5956555D02*
X-1466009Y-5937508D01*
X-1466009Y-5937508D02*
X-1446961Y-5908936D01*
X-1446961Y-5908936D02*
X-1437437Y-5899412D01*
X-1275533Y-5927984D02*
X-1313628Y-5927984D01*
X-1313628Y-5927984D02*
X-1332675Y-5937508D01*
X-1332675Y-5937508D02*
X-1342199Y-5947031D01*
X-1342199Y-5947031D02*
X-1361247Y-5975603D01*
X-1361247Y-5975603D02*
X-1370771Y-6013698D01*
X-1370771Y-6013698D02*
X-1370771Y-6089888D01*
X-1370771Y-6089888D02*
X-1361247Y-6108936D01*
X-1361247Y-6108936D02*
X-1351723Y-6118460D01*
X-1351723Y-6118460D02*
X-1332675Y-6127984D01*
X-1332675Y-6127984D02*
X-1294580Y-6127984D01*
X-1294580Y-6127984D02*
X-1275533Y-6118460D01*
X-1275533Y-6118460D02*
X-1266009Y-6108936D01*
X-1266009Y-6108936D02*
X-1256485Y-6089888D01*
X-1256485Y-6089888D02*
X-1256485Y-6042269D01*
X-1256485Y-6042269D02*
X-1266009Y-6023222D01*
X-1266009Y-6023222D02*
X-1275533Y-6013698D01*
X-1275533Y-6013698D02*
X-1294580Y-6004174D01*
X-1294580Y-6004174D02*
X-1332675Y-6004174D01*
X-1332675Y-6004174D02*
X-1351723Y-6013698D01*
X-1351723Y-6013698D02*
X-1361247Y-6023222D01*
X-1361247Y-6023222D02*
X-1370771Y-6042269D01*
X-1018390Y-6127984D02*
X-1018390Y-5927984D01*
X-932675Y-6127984D02*
X-932675Y-6023222D01*
X-932675Y-6023222D02*
X-942199Y-6004174D01*
X-942199Y-6004174D02*
X-961247Y-5994650D01*
X-961247Y-5994650D02*
X-989818Y-5994650D01*
X-989818Y-5994650D02*
X-1008866Y-6004174D01*
X-1008866Y-6004174D02*
X-1018390Y-6013698D01*
X-808866Y-6127984D02*
X-827913Y-6118460D01*
X-827913Y-6118460D02*
X-837437Y-6108936D01*
X-837437Y-6108936D02*
X-846961Y-6089888D01*
X-846961Y-6089888D02*
X-846961Y-6032746D01*
X-846961Y-6032746D02*
X-837437Y-6013698D01*
X-837437Y-6013698D02*
X-827913Y-6004174D01*
X-827913Y-6004174D02*
X-808866Y-5994650D01*
X-808866Y-5994650D02*
X-780294Y-5994650D01*
X-780294Y-5994650D02*
X-761247Y-6004174D01*
X-761247Y-6004174D02*
X-751723Y-6013698D01*
X-751723Y-6013698D02*
X-742199Y-6032746D01*
X-742199Y-6032746D02*
X-742199Y-6089888D01*
X-742199Y-6089888D02*
X-751723Y-6108936D01*
X-751723Y-6108936D02*
X-761247Y-6118460D01*
X-761247Y-6118460D02*
X-780294Y-6127984D01*
X-780294Y-6127984D02*
X-808866Y-6127984D01*
X-627913Y-6127984D02*
X-646961Y-6118460D01*
X-646961Y-6118460D02*
X-656485Y-6099412D01*
X-656485Y-6099412D02*
X-656485Y-5927984D01*
X-475532Y-6118460D02*
X-494580Y-6127984D01*
X-494580Y-6127984D02*
X-532675Y-6127984D01*
X-532675Y-6127984D02*
X-551723Y-6118460D01*
X-551723Y-6118460D02*
X-561247Y-6099412D01*
X-561247Y-6099412D02*
X-561247Y-6023222D01*
X-561247Y-6023222D02*
X-551723Y-6004174D01*
X-551723Y-6004174D02*
X-532675Y-5994650D01*
X-532675Y-5994650D02*
X-494580Y-5994650D01*
X-494580Y-5994650D02*
X-475532Y-6004174D01*
X-475532Y-6004174D02*
X-466009Y-6023222D01*
X-466009Y-6023222D02*
X-466009Y-6042269D01*
X-466009Y-6042269D02*
X-561247Y-6061317D01*
X-389818Y-6118460D02*
X-370770Y-6127984D01*
X-370770Y-6127984D02*
X-332675Y-6127984D01*
X-332675Y-6127984D02*
X-313628Y-6118460D01*
X-313628Y-6118460D02*
X-304104Y-6099412D01*
X-304104Y-6099412D02*
X-304104Y-6089888D01*
X-304104Y-6089888D02*
X-313628Y-6070841D01*
X-313628Y-6070841D02*
X-332675Y-6061317D01*
X-332675Y-6061317D02*
X-361247Y-6061317D01*
X-361247Y-6061317D02*
X-380294Y-6051793D01*
X-380294Y-6051793D02*
X-389818Y-6032746D01*
X-389818Y-6032746D02*
X-389818Y-6023222D01*
X-389818Y-6023222D02*
X-380294Y-6004174D01*
X-380294Y-6004174D02*
X-361247Y-5994650D01*
X-361247Y-5994650D02*
X-332675Y-5994650D01*
X-332675Y-5994650D02*
X-313628Y-6004174D01*
X-237437Y-6204174D02*
X-227913Y-6194650D01*
X-227913Y-6194650D02*
X-208866Y-6166079D01*
X-208866Y-6166079D02*
X-199342Y-6147031D01*
X-199342Y-6147031D02*
X-189818Y-6118460D01*
X-189818Y-6118460D02*
X-180294Y-6070841D01*
X-180294Y-6070841D02*
X-180294Y-6032746D01*
X-180294Y-6032746D02*
X-189818Y-5985127D01*
X-189818Y-5985127D02*
X-199342Y-5956555D01*
X-199342Y-5956555D02*
X-208866Y-5937508D01*
X-208866Y-5937508D02*
X-227913Y-5908936D01*
X-227913Y-5908936D02*
X-237437Y-5899412D01*
M02*
