%TF.GenerationSoftware,KiCad,Pcbnew,9.0.7*%
%TF.CreationDate,2026-02-13T16:26:24+01:00*%
%TF.ProjectId,Encoders-LCD,456e636f-6465-4727-932d-4c43442e6b69,rev?*%
%TF.SameCoordinates,PX2607d70PY72938b0*%
%TF.FileFunction,Copper,L2,Bot*%
%TF.FilePolarity,Positive*%
%FSLAX46Y46*%
G04 Gerber Fmt 4.6, Leading zero omitted, Abs format (unit mm)*
G04 Created by KiCad (PCBNEW 9.0.7) date 2026-02-13 16:26:24*
%MOMM*%
%LPD*%
G01*
G04 APERTURE LIST*
G04 Aperture macros list*
%AMRoundRect*
0 Rectangle with rounded corners*
0 $1 Rounding radius*
0 $2 $3 $4 $5 $6 $7 $8 $9 X,Y pos of 4 corners*
0 Add a 4 corners polygon primitive as box body*
4,1,4,$2,$3,$4,$5,$6,$7,$8,$9,$2,$3,0*
0 Add four circle primitives for the rounded corners*
1,1,$1+$1,$2,$3*
1,1,$1+$1,$4,$5*
1,1,$1+$1,$6,$7*
1,1,$1+$1,$8,$9*
0 Add four rect primitives between the rounded corners*
20,1,$1+$1,$2,$3,$4,$5,0*
20,1,$1+$1,$4,$5,$6,$7,0*
20,1,$1+$1,$6,$7,$8,$9,0*
20,1,$1+$1,$8,$9,$2,$3,0*%
%AMFreePoly0*
4,1,23,0.500000,-0.750000,0.000000,-0.750000,0.000000,-0.745722,-0.065263,-0.745722,-0.191342,-0.711940,-0.304381,-0.646677,-0.396677,-0.554381,-0.461940,-0.441342,-0.495722,-0.315263,-0.495722,-0.250000,-0.500000,-0.250000,-0.500000,0.250000,-0.495722,0.250000,-0.495722,0.315263,-0.461940,0.441342,-0.396677,0.554381,-0.304381,0.646677,-0.191342,0.711940,-0.065263,0.745722,0.000000,0.745722,
0.000000,0.750000,0.500000,0.750000,0.500000,-0.750000,0.500000,-0.750000,$1*%
%AMFreePoly1*
4,1,23,0.000000,0.745722,0.065263,0.745722,0.191342,0.711940,0.304381,0.646677,0.396677,0.554381,0.461940,0.441342,0.495722,0.315263,0.495722,0.250000,0.500000,0.250000,0.500000,-0.250000,0.495722,-0.250000,0.495722,-0.315263,0.461940,-0.441342,0.396677,-0.554381,0.304381,-0.646677,0.191342,-0.711940,0.065263,-0.745722,0.000000,-0.745722,0.000000,-0.750000,-0.500000,-0.750000,
-0.500000,0.750000,0.000000,0.750000,0.000000,0.745722,0.000000,0.745722,$1*%
G04 Aperture macros list end*
%TA.AperFunction,ComponentPad*%
%ADD10C,2.000000*%
%TD*%
%TA.AperFunction,ComponentPad*%
%ADD11C,1.600000*%
%TD*%
%TA.AperFunction,ComponentPad*%
%ADD12R,2.000000X2.000000*%
%TD*%
%TA.AperFunction,ComponentPad*%
%ADD13C,3.200000*%
%TD*%
%TA.AperFunction,SMDPad,CuDef*%
%ADD14RoundRect,0.137500X0.862500X0.137500X-0.862500X0.137500X-0.862500X-0.137500X0.862500X-0.137500X0*%
%TD*%
%TA.AperFunction,SMDPad,CuDef*%
%ADD15RoundRect,0.237500X0.237500X-0.300000X0.237500X0.300000X-0.237500X0.300000X-0.237500X-0.300000X0*%
%TD*%
%TA.AperFunction,SMDPad,CuDef*%
%ADD16RoundRect,0.150000X-0.150000X0.825000X-0.150000X-0.825000X0.150000X-0.825000X0.150000X0.825000X0*%
%TD*%
%TA.AperFunction,SMDPad,CuDef*%
%ADD17RoundRect,0.250000X0.450000X-0.350000X0.450000X0.350000X-0.450000X0.350000X-0.450000X-0.350000X0*%
%TD*%
%TA.AperFunction,ComponentPad*%
%ADD18RoundRect,0.250000X-0.350000X-0.625000X0.350000X-0.625000X0.350000X0.625000X-0.350000X0.625000X0*%
%TD*%
%TA.AperFunction,ComponentPad*%
%ADD19O,1.200000X1.750000*%
%TD*%
%TA.AperFunction,SMDPad,CuDef*%
%ADD20FreePoly0,90.000000*%
%TD*%
%TA.AperFunction,SMDPad,CuDef*%
%ADD21FreePoly1,90.000000*%
%TD*%
%TA.AperFunction,SMDPad,CuDef*%
%ADD22RoundRect,0.250000X-0.337500X-0.475000X0.337500X-0.475000X0.337500X0.475000X-0.337500X0.475000X0*%
%TD*%
%TA.AperFunction,SMDPad,CuDef*%
%ADD23RoundRect,0.225000X-0.375000X0.225000X-0.375000X-0.225000X0.375000X-0.225000X0.375000X0.225000X0*%
%TD*%
%TA.AperFunction,SMDPad,CuDef*%
%ADD24RoundRect,0.237500X-0.300000X-0.237500X0.300000X-0.237500X0.300000X0.237500X-0.300000X0.237500X0*%
%TD*%
%TA.AperFunction,SMDPad,CuDef*%
%ADD25RoundRect,0.225000X0.225000X0.375000X-0.225000X0.375000X-0.225000X-0.375000X0.225000X-0.375000X0*%
%TD*%
%TA.AperFunction,SMDPad,CuDef*%
%ADD26RoundRect,0.150000X0.150000X-0.825000X0.150000X0.825000X-0.150000X0.825000X-0.150000X-0.825000X0*%
%TD*%
%TA.AperFunction,SMDPad,CuDef*%
%ADD27RoundRect,0.250000X0.475000X-0.337500X0.475000X0.337500X-0.475000X0.337500X-0.475000X-0.337500X0*%
%TD*%
%TA.AperFunction,ViaPad*%
%ADD28C,0.900000*%
%TD*%
%TA.AperFunction,Conductor*%
%ADD29C,0.203200*%
%TD*%
%TA.AperFunction,Conductor*%
%ADD30C,0.304800*%
%TD*%
G04 APERTURE END LIST*
D10*
%TO.P,SW3,1,1*%
%TO.N,Net-(D1-K)*%
X79984500Y63796600D03*
X86484500Y63796600D03*
%TO.P,SW3,2,2*%
%TO.N,/SEG3*%
X79984500Y59296600D03*
X86484500Y59296600D03*
%TD*%
D11*
%TO.P,U3,1,E*%
%TO.N,/SEG5*%
X73760000Y33811200D03*
%TO.P,U3,2,D*%
%TO.N,/SEG4*%
X76300000Y33811200D03*
%TO.P,U3,3,DP*%
%TO.N,/SEG8*%
X78840000Y33811200D03*
%TO.P,U3,4,C*%
%TO.N,/SEG3*%
X81380000Y33811200D03*
%TO.P,U3,5,G*%
%TO.N,/SEG7*%
X83920000Y33811200D03*
%TO.P,U3,7,B*%
%TO.N,/SEG2*%
X86460000Y43971200D03*
%TO.P,U3,8,DIG3*%
%TO.N,/COM6*%
X83920000Y43971200D03*
%TO.P,U3,9,DIG2*%
%TO.N,/COM5*%
X81380000Y43971200D03*
%TO.P,U3,10,F*%
%TO.N,/SEG6*%
X78840000Y43971200D03*
%TO.P,U3,11,A*%
%TO.N,/SEG1*%
X76300000Y43971200D03*
%TO.P,U3,12,DIG1*%
%TO.N,/COM4*%
X73760000Y43971200D03*
%TD*%
D12*
%TO.P,ENC3,A,A*%
%TO.N,/A3*%
X82622000Y22642000D03*
D10*
%TO.P,ENC3,B,B*%
%TO.N,/B3*%
X77622000Y22642000D03*
%TO.P,ENC3,C,C*%
%TO.N,GND*%
X80122000Y22642000D03*
D13*
%TO.P,ENC3,MP*%
%TO.N,N/C*%
X85722000Y15142000D03*
X74522000Y15142000D03*
D10*
%TO.P,ENC3,S1,S1*%
%TO.N,GND*%
X77622000Y8142000D03*
%TO.P,ENC3,S2,S2*%
%TO.N,/SW3*%
X82622000Y8142000D03*
%TD*%
%TO.P,SW1,1,1*%
%TO.N,Net-(D1-K)*%
X14262000Y63792000D03*
X20762000Y63792000D03*
%TO.P,SW1,2,2*%
%TO.N,/SEG5*%
X14262000Y59292000D03*
X20762000Y59292000D03*
%TD*%
D12*
%TO.P,ENC2,A,A*%
%TO.N,/A2*%
X23622000Y22592000D03*
D10*
%TO.P,ENC2,B,B*%
%TO.N,/B2*%
X18622000Y22592000D03*
%TO.P,ENC2,C,C*%
%TO.N,GND*%
X21122000Y22592000D03*
D13*
%TO.P,ENC2,MP*%
%TO.N,N/C*%
X26722000Y15092000D03*
X15522000Y15092000D03*
D10*
%TO.P,ENC2,S1,S1*%
%TO.N,GND*%
X18622000Y8092000D03*
%TO.P,ENC2,S2,S2*%
%TO.N,/SW2*%
X23622000Y8092000D03*
%TD*%
D11*
%TO.P,U2,1,E*%
%TO.N,/SEG5*%
X14933600Y33760400D03*
%TO.P,U2,2,D*%
%TO.N,/SEG4*%
X17473600Y33760400D03*
%TO.P,U2,3,DP*%
%TO.N,/SEG8*%
X20013600Y33760400D03*
%TO.P,U2,4,C*%
%TO.N,/SEG3*%
X22553600Y33760400D03*
%TO.P,U2,5,G*%
%TO.N,/SEG7*%
X25093600Y33760400D03*
%TO.P,U2,7,B*%
%TO.N,/SEG2*%
X27633600Y43920400D03*
%TO.P,U2,8,DIG3*%
%TO.N,/COM3*%
X25093600Y43920400D03*
%TO.P,U2,9,DIG2*%
%TO.N,/COM2*%
X22553600Y43920400D03*
%TO.P,U2,10,F*%
%TO.N,/SEG6*%
X20013600Y43920400D03*
%TO.P,U2,11,A*%
%TO.N,/SEG1*%
X17473600Y43920400D03*
%TO.P,U2,12,DIG1*%
%TO.N,/COM1*%
X14933600Y43920400D03*
%TD*%
D12*
%TO.P,ENC1,A,A*%
%TO.N,/A1*%
X47572000Y53742000D03*
D10*
%TO.P,ENC1,B,B*%
%TO.N,/B1*%
X52572000Y53742000D03*
%TO.P,ENC1,C,C*%
%TO.N,GND*%
X50072000Y53742000D03*
D13*
%TO.P,ENC1,MP*%
%TO.N,N/C*%
X44472000Y61242000D03*
X55672000Y61242000D03*
D10*
%TO.P,ENC1,S1,S1*%
%TO.N,GND*%
X52572000Y68242000D03*
%TO.P,ENC1,S2,S2*%
%TO.N,/SW1*%
X47572000Y68242000D03*
%TD*%
%TO.P,SW2,1,1*%
%TO.N,Net-(D1-K)*%
X47042000Y17744000D03*
X53542000Y17744000D03*
%TO.P,SW2,2,2*%
%TO.N,/SEG4*%
X47042000Y13244000D03*
X53542000Y13244000D03*
%TD*%
D14*
%TO.P,U5,1,VSS*%
%TO.N,GND*%
X55069000Y37719000D03*
%TO.P,U5,2,COM0/AD*%
%TO.N,/COM0*%
X55069000Y36449000D03*
%TO.P,U5,3,COM1/KS0*%
%TO.N,/COM1*%
X55069000Y35179000D03*
%TO.P,U5,4,COM2/KS1*%
%TO.N,/COM2*%
X55069000Y33909000D03*
%TO.P,U5,5,COM3/KS2*%
%TO.N,/COM3*%
X55069000Y32639000D03*
%TO.P,U5,6,COM4*%
%TO.N,/COM4*%
X55069000Y31369000D03*
%TO.P,U5,7,COM5*%
%TO.N,/COM5*%
X55069000Y30099000D03*
%TO.P,U5,8,COM6*%
%TO.N,/COM6*%
X55069000Y28829000D03*
%TO.P,U5,9,COM7*%
%TO.N,unconnected-(U5-COM7-Pad9)*%
X55069000Y27559000D03*
%TO.P,U5,10,ROW11/K10/INT*%
%TO.N,unconnected-(U5-ROW11{slash}K10{slash}INT-Pad10)*%
X55069000Y26289000D03*
%TO.P,U5,11,ROW10/K9*%
%TO.N,unconnected-(U5-ROW10{slash}K9-Pad11)*%
X55069000Y25019000D03*
%TO.P,U5,12,ROW9/K8*%
%TO.N,unconnected-(U5-ROW9{slash}K8-Pad12)*%
X55069000Y23749000D03*
%TO.P,U5,13,ROW8/K7*%
%TO.N,unconnected-(U5-ROW8{slash}K7-Pad13)*%
X45769000Y23749000D03*
%TO.P,U5,14,ROW7/K6*%
%TO.N,/SEG8*%
X45769000Y25019000D03*
%TO.P,U5,15,ROW6/K5*%
%TO.N,/SEG7*%
X45769000Y26289000D03*
%TO.P,U5,16,ROW5/K4*%
%TO.N,/SEG6*%
X45769000Y27559000D03*
%TO.P,U5,17,ROW4/K3*%
%TO.N,/SEG5*%
X45769000Y28829000D03*
%TO.P,U5,18,ROW3/K2*%
%TO.N,/SEG4*%
X45769000Y30099000D03*
%TO.P,U5,19,ROW2/K1*%
%TO.N,/SEG3*%
X45769000Y31369000D03*
%TO.P,U5,20,ROW1/A0*%
%TO.N,/SEG2*%
X45769000Y32639000D03*
%TO.P,U5,21,ROW0/A1*%
%TO.N,/SEG1*%
X45769000Y33909000D03*
%TO.P,U5,22,SCL*%
%TO.N,/SCL*%
X45769000Y35179000D03*
%TO.P,U5,23,SDA*%
%TO.N,/SDA*%
X45769000Y36449000D03*
%TO.P,U5,24,VDD*%
%TO.N,VCC*%
X45769000Y37719000D03*
%TD*%
D15*
%TO.P,C7,1*%
%TO.N,VCC*%
X15622000Y18779500D03*
%TO.P,C7,2*%
%TO.N,GND*%
X15622000Y20504500D03*
%TD*%
D16*
%TO.P,U4,1,VCC*%
%TO.N,VCC*%
X19217000Y17817000D03*
%TO.P,U4,2,PA6*%
%TO.N,/B2*%
X20487000Y17817000D03*
%TO.P,U4,3,PA7*%
%TO.N,/A2*%
X21757000Y17817000D03*
%TO.P,U4,4,PA1*%
%TO.N,/SDA*%
X23027000Y17817000D03*
%TO.P,U4,5,PA2*%
%TO.N,/SCL*%
X23027000Y12867000D03*
%TO.P,U4,6,~{RESET}/PA0*%
%TO.N,unconnected-(U4-~{RESET}{slash}PA0-Pad6)*%
X21757000Y12867000D03*
%TO.P,U4,7,PA3*%
%TO.N,/SW2*%
X20487000Y12867000D03*
%TO.P,U4,8,GND*%
%TO.N,GND*%
X19217000Y12867000D03*
%TD*%
%TO.P,U6,1,VCC*%
%TO.N,VCC*%
X78217000Y17867000D03*
%TO.P,U6,2,PA6*%
%TO.N,/B3*%
X79487000Y17867000D03*
%TO.P,U6,3,PA7*%
%TO.N,/A3*%
X80757000Y17867000D03*
%TO.P,U6,4,PA1*%
%TO.N,/SDA*%
X82027000Y17867000D03*
%TO.P,U6,5,PA2*%
%TO.N,/SCL*%
X82027000Y12917000D03*
%TO.P,U6,6,~{RESET}/PA0*%
%TO.N,unconnected-(U6-~{RESET}{slash}PA0-Pad6)*%
X80757000Y12917000D03*
%TO.P,U6,7,PA3*%
%TO.N,/SW3*%
X79487000Y12917000D03*
%TO.P,U6,8,GND*%
%TO.N,GND*%
X78217000Y12917000D03*
%TD*%
D17*
%TO.P,R1,1*%
%TO.N,Net-(JP1-B)*%
X52322000Y46242000D03*
%TO.P,R1,2*%
%TO.N,Net-(D2-K)*%
X52322000Y48242000D03*
%TD*%
D18*
%TO.P,J1,1,Pin_1*%
%TO.N,GND*%
X66452000Y56982000D03*
D19*
%TO.P,J1,2,Pin_2*%
%TO.N,VCC*%
X68452000Y56982000D03*
%TO.P,J1,3,Pin_3*%
%TO.N,/SDA*%
X70452000Y56982000D03*
%TO.P,J1,4,Pin_4*%
%TO.N,/SCL*%
X72452000Y56982000D03*
%TD*%
D20*
%TO.P,JP2,1,A*%
%TO.N,/SEG1*%
X48792000Y42782000D03*
D21*
%TO.P,JP2,2,B*%
%TO.N,Net-(JP2-B)*%
X48792000Y44082000D03*
%TD*%
D22*
%TO.P,C1,1*%
%TO.N,VCC*%
X55084500Y55642000D03*
%TO.P,C1,2*%
%TO.N,GND*%
X57159500Y55642000D03*
%TD*%
D23*
%TO.P,D2,1,K*%
%TO.N,Net-(D2-K)*%
X56962000Y48233600D03*
%TO.P,D2,2,A*%
%TO.N,/COM0*%
X56962000Y44933600D03*
%TD*%
D24*
%TO.P,C3,1*%
%TO.N,VCC*%
X55259500Y57802000D03*
%TO.P,C3,2*%
%TO.N,GND*%
X56984500Y57802000D03*
%TD*%
D17*
%TO.P,R2,1*%
%TO.N,Net-(JP2-B)*%
X48812000Y46332000D03*
%TO.P,R2,2*%
%TO.N,Net-(D2-K)*%
X48812000Y48332000D03*
%TD*%
D25*
%TO.P,D1,1,K*%
%TO.N,Net-(D1-K)*%
X62864000Y35687000D03*
%TO.P,D1,2,A*%
%TO.N,/COM1*%
X59564000Y35687000D03*
%TD*%
D26*
%TO.P,U1,1,VCC*%
%TO.N,VCC*%
X51977000Y58517000D03*
%TO.P,U1,2,PA6*%
%TO.N,/B1*%
X50707000Y58517000D03*
%TO.P,U1,3,PA7*%
%TO.N,/A1*%
X49437000Y58517000D03*
%TO.P,U1,4,PA1*%
%TO.N,/SDA*%
X48167000Y58517000D03*
%TO.P,U1,5,PA2*%
%TO.N,/SCL*%
X48167000Y63467000D03*
%TO.P,U1,6,~{RESET}/PA0*%
%TO.N,unconnected-(U1-~{RESET}{slash}PA0-Pad6)*%
X49437000Y63467000D03*
%TO.P,U1,7,PA3*%
%TO.N,/SW1*%
X50707000Y63467000D03*
%TO.P,U1,8,GND*%
%TO.N,GND*%
X51977000Y63467000D03*
%TD*%
D27*
%TO.P,C5,1*%
%TO.N,VCC*%
X13122000Y18604500D03*
%TO.P,C5,2*%
%TO.N,GND*%
X13122000Y20679500D03*
%TD*%
D15*
%TO.P,C4,1*%
%TO.N,VCC*%
X74622000Y18779500D03*
%TO.P,C4,2*%
%TO.N,GND*%
X74622000Y20504500D03*
%TD*%
D27*
%TO.P,C2,1*%
%TO.N,VCC*%
X72122000Y18604500D03*
%TO.P,C2,2*%
%TO.N,GND*%
X72122000Y20679500D03*
%TD*%
D20*
%TO.P,JP1,1,A*%
%TO.N,/SEG2*%
X52342000Y42782000D03*
D21*
%TO.P,JP1,2,B*%
%TO.N,Net-(JP1-B)*%
X52342000Y44082000D03*
%TD*%
D28*
%TO.N,/SEG2*%
X27559000Y38735000D03*
%TO.N,GND*%
X53441275Y40030725D03*
X59563000Y57023000D03*
X17145000Y20447000D03*
X76454000Y20320000D03*
%TO.N,Net-(D1-K)*%
X62865000Y41656000D03*
X63119000Y46990000D03*
X69723000Y36449000D03*
X72898000Y36322000D03*
%TO.N,/SEG1*%
X51308000Y41148000D03*
X57716800Y41148000D03*
%TO.N,VCC*%
X43307000Y38608000D03*
X34671000Y11430000D03*
X39370000Y48641000D03*
X38989000Y11176000D03*
X43307000Y48641000D03*
X43688000Y45085000D03*
X53848000Y59055000D03*
%TO.N,/SEG2*%
X55753000Y42799000D03*
X58166000Y42799000D03*
%TO.N,/SEG3*%
X52705000Y31242000D03*
X81407000Y38100000D03*
%TO.N,/COM1*%
X49784000Y37338000D03*
X41021000Y37338000D03*
%TO.N,/SDA*%
X39116000Y38862000D03*
X37084000Y19177000D03*
X45720000Y51816000D03*
X39116000Y23876000D03*
X41529000Y51562000D03*
X37211000Y16002000D03*
%TO.N,/SCL*%
X40148645Y24264200D03*
X42418000Y45593000D03*
%TO.N,/SEG7*%
X52451000Y27813000D03*
X25146000Y26289000D03*
%TO.N,/SEG6*%
X69596000Y42418000D03*
X72136000Y42418000D03*
X18415000Y38481000D03*
X50927000Y27813000D03*
X58293000Y40005000D03*
%TO.N,/SEG5*%
X73406000Y29210000D03*
X52959000Y29210000D03*
%TO.N,/SEG4*%
X76200000Y30353000D03*
X51943000Y30226000D03*
%TO.N,/SEG8*%
X51943000Y26035000D03*
X78613000Y26797000D03*
X20066000Y26543000D03*
%TO.N,/COM2*%
X41910000Y36195000D03*
X50673000Y36195000D03*
%TO.N,/COM3*%
X42799000Y34925000D03*
X50038000Y34925000D03*
%TD*%
D29*
%TO.N,/SEG2*%
X33401000Y38735000D02*
X34036000Y38100000D01*
X34036000Y38100000D02*
X34036000Y34925000D01*
X36322000Y32639000D02*
X45769000Y32639000D01*
X27559000Y38735000D02*
X33401000Y38735000D01*
X34036000Y34925000D02*
X36322000Y32639000D01*
%TO.N,/SEG4*%
X47042000Y13244000D02*
X45049000Y13244000D01*
X45049000Y13244000D02*
X44196000Y14097000D01*
X76200000Y30353000D02*
X71446800Y25599800D01*
X44196000Y19431000D02*
X44196000Y14097000D01*
X71446800Y25599800D02*
X60397800Y25599800D01*
X45212000Y20447000D02*
X44196000Y19431000D01*
X60397800Y25599800D02*
X55245000Y20447000D01*
X55245000Y20447000D02*
X45212000Y20447000D01*
D30*
%TO.N,GND*%
X59563000Y57023000D02*
X57763500Y57023000D01*
X55626000Y51054000D02*
X57159500Y52587500D01*
X50072000Y52163000D02*
X51181000Y51054000D01*
X15679500Y20447000D02*
X15622000Y20504500D01*
X51181000Y51054000D02*
X55626000Y51054000D01*
X55069000Y37719000D02*
X55069000Y38403000D01*
X57159500Y55642000D02*
X57159500Y52587500D01*
X50072000Y53742000D02*
X50072000Y52163000D01*
X51977000Y65820000D02*
X52572000Y66415000D01*
X57763500Y57023000D02*
X56984500Y57802000D01*
X74806500Y20320000D02*
X74622000Y20504500D01*
X55069000Y38403000D02*
X53441275Y40030725D01*
X17145000Y20447000D02*
X15679500Y20447000D01*
X52572000Y66415000D02*
X52572000Y68242000D01*
X76454000Y20320000D02*
X74806500Y20320000D01*
X51977000Y63467000D02*
X51977000Y65820000D01*
D29*
%TO.N,Net-(D1-K)*%
X85979000Y28956000D02*
X85979000Y35814000D01*
X21971000Y65001000D02*
X20762000Y63792000D01*
X83820000Y36576000D02*
X83566000Y36322000D01*
X79984500Y69875500D02*
X77470000Y72390000D01*
X84963000Y27940000D02*
X85979000Y28956000D01*
X85979000Y35814000D02*
X85217000Y36576000D01*
X77851000Y61663100D02*
X79984500Y63796600D01*
X79984500Y63796600D02*
X79984500Y69875500D01*
X79984500Y63796600D02*
X86484500Y63796600D01*
X68961000Y35687000D02*
X62864000Y35687000D01*
X69342000Y25019000D02*
X82042000Y25019000D01*
X63119000Y46990000D02*
X74422000Y46990000D01*
X62864000Y35687000D02*
X62864000Y41655000D01*
X85217000Y36576000D02*
X83820000Y36576000D01*
X47042000Y17744000D02*
X53542000Y17744000D01*
X74422000Y46990000D02*
X77851000Y50419000D01*
X69723000Y36449000D02*
X68961000Y35687000D01*
X77851000Y50419000D02*
X77851000Y61663100D01*
X77470000Y72390000D02*
X23495000Y72390000D01*
X53542000Y17744000D02*
X60817000Y25019000D01*
X83566000Y36322000D02*
X72898000Y36322000D01*
X62864000Y41655000D02*
X62865000Y41656000D01*
X60817000Y25019000D02*
X69342000Y25019000D01*
X21971000Y70866000D02*
X21971000Y65001000D01*
X82042000Y25019000D02*
X84963000Y27940000D01*
X23495000Y72390000D02*
X21971000Y70866000D01*
%TO.N,/SEG1*%
X57785000Y41148000D02*
X57716800Y41148000D01*
X48006000Y37973000D02*
X48792000Y38759000D01*
X17473600Y42089400D02*
X17473600Y43920400D01*
X47498000Y33909000D02*
X48006000Y34417000D01*
X34925000Y38608000D02*
X32893000Y40640000D01*
X49928000Y42782000D02*
X50292000Y42418000D01*
X75059200Y45212000D02*
X76300000Y43971200D01*
X50673000Y41656000D02*
X51181000Y41148000D01*
X18923000Y40640000D02*
X17473600Y42089400D01*
X45769000Y33909000D02*
X36322000Y33909000D01*
X50673000Y42037000D02*
X50673000Y41656000D01*
X50292000Y42418000D02*
X50673000Y42037000D01*
X34925000Y35306000D02*
X34925000Y38608000D01*
X36322000Y33909000D02*
X34925000Y35306000D01*
X51181000Y41148000D02*
X51308000Y41148000D01*
X61849000Y45212000D02*
X75059200Y45212000D01*
X45769000Y33909000D02*
X47498000Y33909000D01*
X32893000Y40640000D02*
X18923000Y40640000D01*
X48792000Y38759000D02*
X48792000Y42782000D01*
X48792000Y42782000D02*
X49928000Y42782000D01*
X48006000Y34417000D02*
X48006000Y37973000D01*
X61849000Y45212000D02*
X57785000Y41148000D01*
%TO.N,VCC*%
X54006500Y59055000D02*
X55259500Y57802000D01*
X55259500Y57802000D02*
X52692000Y57802000D01*
X76621000Y17867000D02*
X75708500Y18779500D01*
X11938000Y48006000D02*
X38735000Y48006000D01*
X32131000Y11430000D02*
X34671000Y11430000D01*
X38735000Y48006000D02*
X39370000Y48641000D01*
X13122000Y5928000D02*
X14478000Y4572000D01*
X14478000Y4572000D02*
X25273000Y4572000D01*
X53848000Y59055000D02*
X54006500Y59055000D01*
X9652000Y20447000D02*
X9652000Y45720000D01*
X72122000Y18604500D02*
X68261500Y18604500D01*
X43688000Y37719000D02*
X43307000Y38100000D01*
X59944000Y10287000D02*
X39878000Y10287000D01*
X43307000Y38100000D02*
X43307000Y38608000D01*
X55084500Y55642000D02*
X55084500Y57627000D01*
X25273000Y4572000D02*
X32131000Y11430000D01*
X55084500Y57627000D02*
X55259500Y57802000D01*
X78217000Y17867000D02*
X76621000Y17867000D01*
X15711000Y17817000D02*
X15621000Y17907000D01*
X11494500Y18604500D02*
X9652000Y20447000D01*
X45769000Y37719000D02*
X43688000Y37719000D01*
X13122000Y18604500D02*
X13122000Y5928000D01*
X43307000Y48641000D02*
X43688000Y48260000D01*
X75708500Y18779500D02*
X74622000Y18779500D01*
X43688000Y48260000D02*
X43688000Y45085000D01*
X13122000Y18604500D02*
X15447000Y18604500D01*
X74447000Y18604500D02*
X74622000Y18779500D01*
X15621000Y17907000D02*
X15622000Y17908000D01*
X52692000Y57802000D02*
X51977000Y58517000D01*
X15622000Y17908000D02*
X15622000Y18779500D01*
X72122000Y18604500D02*
X74447000Y18604500D01*
X15447000Y18604500D02*
X15622000Y18779500D01*
X19217000Y17817000D02*
X15711000Y17817000D01*
X39878000Y10287000D02*
X38989000Y11176000D01*
X68261500Y18604500D02*
X59944000Y10287000D01*
X9652000Y45720000D02*
X11938000Y48006000D01*
X13122000Y18604500D02*
X11494500Y18604500D01*
%TO.N,/B1*%
X52572000Y56001000D02*
X52572000Y53742000D01*
X50707000Y58517000D02*
X50707000Y57878000D01*
X50707000Y57878000D02*
X52578000Y56007000D01*
X52578000Y56007000D02*
X52572000Y56001000D01*
%TO.N,/SW1*%
X48514000Y65532000D02*
X47572000Y66474000D01*
X50165000Y65532000D02*
X48514000Y65532000D01*
X50707000Y63467000D02*
X50707000Y64990000D01*
X50707000Y64990000D02*
X50165000Y65532000D01*
X47572000Y66474000D02*
X47572000Y68242000D01*
%TO.N,/A1*%
X48006000Y56388000D02*
X47572000Y55954000D01*
X47572000Y55954000D02*
X47572000Y53742000D01*
X48768000Y56388000D02*
X48006000Y56388000D01*
X49437000Y58517000D02*
X49437000Y57057000D01*
X49437000Y57057000D02*
X48768000Y56388000D01*
%TO.N,/SW2*%
X23622000Y9271000D02*
X23622000Y8092000D01*
X20487000Y10755000D02*
X21209000Y10033000D01*
X20487000Y12867000D02*
X20487000Y10755000D01*
X21209000Y10033000D02*
X22860000Y10033000D01*
X22860000Y10033000D02*
X23622000Y9271000D01*
%TO.N,/B2*%
X20487000Y18883000D02*
X18622000Y20748000D01*
X18622000Y20748000D02*
X18622000Y22592000D01*
X20487000Y17817000D02*
X20487000Y18883000D01*
%TO.N,/A2*%
X23622000Y20701000D02*
X23622000Y22592000D01*
X21757000Y18836000D02*
X23622000Y20701000D01*
X21757000Y17817000D02*
X21757000Y18836000D01*
%TO.N,/SW3*%
X79487000Y11277000D02*
X82622000Y8142000D01*
X79487000Y12917000D02*
X79487000Y11277000D01*
%TO.N,/B3*%
X79487000Y17867000D02*
X79487000Y19065000D01*
X79487000Y19065000D02*
X77622000Y20930000D01*
X77622000Y20930000D02*
X77622000Y22642000D01*
%TO.N,/A3*%
X80757000Y19416000D02*
X81534000Y20193000D01*
X82296000Y20193000D02*
X82622000Y20519000D01*
X80757000Y17867000D02*
X80757000Y19416000D01*
X81534000Y20193000D02*
X82296000Y20193000D01*
X82622000Y20519000D02*
X82622000Y22642000D01*
%TO.N,/SEG4*%
X47042000Y13244000D02*
X53542000Y13244000D01*
%TO.N,/SEG2*%
X48514000Y33147000D02*
X48006000Y32639000D01*
X48006000Y32639000D02*
X45769000Y32639000D01*
X61341000Y45974000D02*
X58166000Y42799000D01*
X51435000Y39370000D02*
X50419000Y39370000D01*
X48514000Y37465000D02*
X48514000Y33147000D01*
X55736000Y42782000D02*
X55753000Y42799000D01*
X52342000Y42782000D02*
X52342000Y40277000D01*
X85979000Y45974000D02*
X61341000Y45974000D01*
X52342000Y42782000D02*
X55736000Y42782000D01*
X52342000Y40277000D02*
X51435000Y39370000D01*
X50419000Y39370000D02*
X48514000Y37465000D01*
X86460000Y45493000D02*
X85979000Y45974000D01*
X86460000Y43971200D02*
X86460000Y45493000D01*
%TO.N,Net-(D2-K)*%
X48812000Y48332000D02*
X52232000Y48332000D01*
X56953600Y48242000D02*
X56962000Y48233600D01*
X52232000Y48332000D02*
X52322000Y48242000D01*
X52322000Y48242000D02*
X56953600Y48242000D01*
%TO.N,/SEG3*%
X80772000Y47625000D02*
X85090000Y47625000D01*
X79984500Y59296600D02*
X79984500Y48412500D01*
X79984500Y48412500D02*
X80391000Y48006000D01*
X23241000Y31369000D02*
X22553600Y32056400D01*
X88646000Y45339000D02*
X88646000Y40005000D01*
X86741000Y38100000D02*
X81407000Y38100000D01*
X22553600Y32056400D02*
X22553600Y33760400D01*
X88646000Y40005000D02*
X86741000Y38100000D01*
X45769000Y31369000D02*
X52578000Y31369000D01*
X52578000Y31369000D02*
X52705000Y31242000D01*
X86484500Y59296600D02*
X79984500Y59296600D01*
X80391000Y48006000D02*
X80772000Y47625000D01*
X86360000Y47625000D02*
X88646000Y45339000D01*
X45769000Y31369000D02*
X23241000Y31369000D01*
X85090000Y47625000D02*
X86360000Y47625000D01*
%TO.N,/COM1*%
X29845000Y43180000D02*
X29845000Y45339000D01*
X28829000Y46355000D02*
X15748000Y46355000D01*
X57531000Y35687000D02*
X59564000Y35687000D01*
X36703000Y38227000D02*
X36703000Y39624000D01*
X36703000Y39624000D02*
X33655000Y42672000D01*
X55069000Y35179000D02*
X57023000Y35179000D01*
X37592000Y37338000D02*
X36703000Y38227000D01*
X51943000Y35941000D02*
X51943000Y36957000D01*
X15748000Y46355000D02*
X14933600Y45540600D01*
X57023000Y35179000D02*
X57531000Y35687000D01*
X33655000Y42672000D02*
X30353000Y42672000D01*
X41021000Y37338000D02*
X37592000Y37338000D01*
X30353000Y42672000D02*
X29845000Y43180000D01*
X51943000Y36957000D02*
X51562000Y37338000D01*
X52197000Y35687000D02*
X51943000Y35941000D01*
X52705000Y35179000D02*
X52197000Y35687000D01*
X14933600Y45540600D02*
X14933600Y43920400D01*
X55069000Y35179000D02*
X52705000Y35179000D01*
X51562000Y37338000D02*
X49784000Y37338000D01*
X29845000Y45339000D02*
X28829000Y46355000D01*
%TO.N,/SDA*%
X43815000Y9017000D02*
X37719000Y9017000D01*
X82027000Y17867000D02*
X82027000Y16892001D01*
X37375000Y17817000D02*
X38354000Y18796000D01*
X46129730Y36449000D02*
X47074800Y37394070D01*
X52070000Y61087000D02*
X54229000Y63246000D01*
X47074800Y37394070D02*
X47074800Y50461200D01*
X60452000Y9017000D02*
X43815000Y9017000D01*
X48167000Y60740000D02*
X48514000Y61087000D01*
X48514000Y61087000D02*
X52070000Y61087000D01*
X45769000Y36449000D02*
X46129730Y36449000D01*
X37084000Y19177000D02*
X37084000Y21844000D01*
X76454000Y16764000D02*
X76170200Y17047800D01*
X69469000Y63246000D02*
X70452000Y62263000D01*
X37719000Y9017000D02*
X37338000Y9398000D01*
X37338000Y15875000D02*
X37211000Y16002000D01*
X82027000Y16892001D02*
X81721199Y16586200D01*
X47074800Y50461200D02*
X45720000Y51816000D01*
X46355000Y58166000D02*
X47816000Y58166000D01*
X76631800Y16586200D02*
X76454000Y16764000D01*
X45720000Y57531000D02*
X46355000Y58166000D01*
X54229000Y63246000D02*
X69469000Y63246000D01*
X39116000Y38862000D02*
X39116000Y46482000D01*
X37338000Y9398000D02*
X37338000Y15875000D01*
X38354000Y18796000D02*
X39116000Y19558000D01*
X70452000Y62263000D02*
X70452000Y56982000D01*
X68482800Y17047800D02*
X62865000Y11430000D01*
X76170200Y17047800D02*
X68482800Y17047800D01*
X47816000Y58166000D02*
X48167000Y58517000D01*
X41529000Y48895000D02*
X41529000Y51562000D01*
X45720000Y51816000D02*
X45720000Y57531000D01*
X81721199Y16586200D02*
X76631800Y16586200D01*
X48167000Y58517000D02*
X48167000Y60740000D01*
X39116000Y19558000D02*
X39116000Y23876000D01*
X62865000Y11430000D02*
X60452000Y9017000D01*
X23027000Y17817000D02*
X37375000Y17817000D01*
X39116000Y46482000D02*
X41529000Y48895000D01*
X37084000Y21844000D02*
X39116000Y23876000D01*
%TO.N,/SCL*%
X42418000Y37530001D02*
X42418000Y45593000D01*
X65278000Y13208000D02*
X60679600Y8609600D01*
X37856600Y17409600D02*
X39116000Y18669000D01*
X40148645Y19701645D02*
X40148645Y24264200D01*
X42418000Y45593000D02*
X42418000Y62484000D01*
X72452000Y62803000D02*
X72452000Y56982000D01*
X23027000Y15534000D02*
X24130000Y16637000D01*
X24130000Y16637000D02*
X24902600Y17409600D01*
X60679600Y8609600D02*
X37550249Y8609600D01*
X48167000Y63467000D02*
X48167000Y62196000D01*
X48167000Y63467000D02*
X43401000Y63467000D01*
X44769001Y35179000D02*
X42418000Y37530001D01*
X75283209Y13208000D02*
X65278000Y13208000D01*
X48514000Y61849000D02*
X52257264Y61849000D01*
X76807209Y14732000D02*
X75283209Y13208000D01*
X24902600Y17409600D02*
X36322000Y17409600D01*
X39116000Y18669000D02*
X40148645Y19701645D01*
X42418000Y62484000D02*
X43401000Y63467000D01*
X37550249Y8609600D02*
X36322000Y9837849D01*
X36322000Y17409600D02*
X37856600Y17409600D01*
X45769000Y35179000D02*
X44769001Y35179000D01*
X48167000Y62196000D02*
X48514000Y61849000D01*
X23027000Y12867000D02*
X23027000Y15534000D01*
X54060664Y63652400D02*
X71602600Y63652400D01*
X36322000Y9837849D02*
X36322000Y17409600D01*
X71602600Y63652400D02*
X72452000Y62803000D01*
X82027000Y12917000D02*
X82027000Y13891999D01*
X81186999Y14732000D02*
X76807209Y14732000D01*
X52257264Y61849000D02*
X54060664Y63652400D01*
X82027000Y13891999D02*
X81186999Y14732000D01*
%TO.N,/COM0*%
X56515000Y36449000D02*
X56962000Y36896000D01*
X56962000Y36896000D02*
X56962000Y44933600D01*
X55069000Y36449000D02*
X56515000Y36449000D01*
%TO.N,/SEG7*%
X45769000Y26289000D02*
X25146000Y26289000D01*
X50927000Y26289000D02*
X52451000Y27813000D01*
X45769000Y26289000D02*
X50927000Y26289000D01*
%TO.N,/SEG6*%
X13208000Y29464000D02*
X13208000Y37211000D01*
X15113000Y27559000D02*
X13208000Y29464000D01*
X69596000Y42418000D02*
X61087000Y42418000D01*
X59817000Y41148000D02*
X58674000Y40005000D01*
X61087000Y42418000D02*
X59817000Y41148000D01*
X45769000Y27559000D02*
X15113000Y27559000D01*
X58674000Y40005000D02*
X58293000Y40005000D01*
X78840000Y43971200D02*
X77286800Y42418000D01*
X45769000Y27559000D02*
X50673000Y27559000D01*
X18161000Y38227000D02*
X18415000Y38481000D01*
X14224000Y38227000D02*
X18161000Y38227000D01*
X77286800Y42418000D02*
X72136000Y42418000D01*
X13208000Y37211000D02*
X14224000Y38227000D01*
X50673000Y27559000D02*
X50927000Y27813000D01*
%TO.N,Net-(JP1-B)*%
X52342000Y46222000D02*
X52322000Y46242000D01*
X52342000Y44082000D02*
X52342000Y46222000D01*
%TO.N,/SEG5*%
X73760000Y29945000D02*
X73760000Y33811200D01*
X45769000Y28829000D02*
X15875000Y28829000D01*
X52578000Y28829000D02*
X52959000Y29210000D01*
X14933600Y29770400D02*
X14933600Y33760400D01*
X15875000Y28829000D02*
X14933600Y29770400D01*
X73406000Y29591000D02*
X73760000Y29945000D01*
X45769000Y28829000D02*
X52578000Y28829000D01*
X73406000Y29210000D02*
X73406000Y29591000D01*
%TO.N,Net-(JP2-B)*%
X48792000Y44082000D02*
X48792000Y46312000D01*
X48792000Y46312000D02*
X48812000Y46332000D01*
%TO.N,/SEG4*%
X17473600Y30659400D02*
X17473600Y33760400D01*
X45769000Y30099000D02*
X18034000Y30099000D01*
X51816000Y30099000D02*
X51943000Y30226000D01*
X45769000Y30099000D02*
X51816000Y30099000D01*
X76200000Y30353000D02*
X76300000Y30453000D01*
X76300000Y30453000D02*
X76300000Y33811200D01*
X18034000Y30099000D02*
X17473600Y30659400D01*
%TO.N,/SEG8*%
X78840000Y27024000D02*
X78840000Y33811200D01*
X50927000Y25019000D02*
X51943000Y26035000D01*
X78613000Y26797000D02*
X78840000Y27024000D01*
X45769000Y25019000D02*
X50927000Y25019000D01*
X21590000Y25019000D02*
X20066000Y26543000D01*
X45769000Y25019000D02*
X21590000Y25019000D01*
%TO.N,/COM2*%
X36830000Y36195000D02*
X36195000Y36830000D01*
X24353200Y45720000D02*
X22553600Y43920400D01*
X29972000Y42164000D02*
X29337000Y42799000D01*
X51562000Y33909000D02*
X51181000Y34290000D01*
X33528000Y42164000D02*
X29972000Y42164000D01*
X51181000Y34290000D02*
X51181000Y35687000D01*
X55069000Y33909000D02*
X51562000Y33909000D01*
X51181000Y35687000D02*
X50673000Y36195000D01*
X29337000Y45085000D02*
X28702000Y45720000D01*
X29337000Y42799000D02*
X29337000Y45085000D01*
X28702000Y45720000D02*
X24353200Y45720000D01*
X41910000Y36195000D02*
X36830000Y36195000D01*
X36195000Y36830000D02*
X36195000Y39497000D01*
X36195000Y39497000D02*
X33528000Y42164000D01*
%TO.N,/COM3*%
X33274000Y41529000D02*
X25781000Y41529000D01*
X35560000Y39243000D02*
X33274000Y41529000D01*
X25093600Y42216400D02*
X25093600Y43920400D01*
X42799000Y34925000D02*
X36322000Y34925000D01*
X51181000Y32639000D02*
X50038000Y33782000D01*
X55069000Y32639000D02*
X51181000Y32639000D01*
X25781000Y41529000D02*
X25093600Y42216400D01*
X50038000Y33782000D02*
X50038000Y34925000D01*
X36322000Y34925000D02*
X35560000Y35687000D01*
X35560000Y35687000D02*
X35560000Y39243000D01*
%TO.N,/COM4*%
X70739000Y32512000D02*
X70739000Y43307000D01*
X55069000Y31369000D02*
X69596000Y31369000D01*
X73760000Y43971200D02*
X71403200Y43971200D01*
X69596000Y31369000D02*
X70739000Y32512000D01*
X71403200Y43971200D02*
X70739000Y43307000D01*
%TO.N,/COM5*%
X55069000Y30099000D02*
X68902150Y30099000D01*
X71247000Y32443850D02*
X71247000Y40513000D01*
X80772000Y41529000D02*
X81380000Y42137000D01*
X71247000Y40513000D02*
X72263000Y41529000D01*
X81380000Y42137000D02*
X81380000Y43971200D01*
X68902150Y30099000D02*
X71247000Y32443850D01*
X72263000Y41529000D02*
X80772000Y41529000D01*
%TO.N,/COM6*%
X72009000Y40513000D02*
X82550000Y40513000D01*
X83920000Y41883000D02*
X83920000Y43971200D01*
X55069000Y28829000D02*
X68208300Y28829000D01*
X71755000Y32375700D02*
X71755000Y40259000D01*
X82550000Y40513000D02*
X83920000Y41883000D01*
X71755000Y40259000D02*
X72009000Y40513000D01*
X68208300Y28829000D02*
X71755000Y32375700D01*
%TD*%
%TA.AperFunction,Conductor*%
%TO.N,GND*%
G36*
X18359539Y17195215D02*
G01*
X18405294Y17142411D01*
X18416500Y17090900D01*
X18416500Y16926299D01*
X18419401Y16889433D01*
X18419402Y16889427D01*
X18465254Y16731607D01*
X18465255Y16731604D01*
X18465256Y16731602D01*
X18469383Y16724624D01*
X18548917Y16590138D01*
X18548923Y16590130D01*
X18665129Y16473924D01*
X18665133Y16473921D01*
X18665135Y16473919D01*
X18806602Y16390256D01*
X18848224Y16378164D01*
X18964426Y16344403D01*
X18964429Y16344403D01*
X18964431Y16344402D01*
X19001306Y16341500D01*
X19001314Y16341500D01*
X19432686Y16341500D01*
X19432694Y16341500D01*
X19469569Y16344402D01*
X19469571Y16344403D01*
X19469573Y16344403D01*
X19568729Y16373211D01*
X19627398Y16390256D01*
X19768865Y16473919D01*
X19768870Y16473925D01*
X19775031Y16478702D01*
X19776933Y16476250D01*
X19825579Y16502845D01*
X19895274Y16497896D01*
X19927695Y16477060D01*
X19928969Y16478702D01*
X19935132Y16473922D01*
X19935135Y16473919D01*
X20076602Y16390256D01*
X20118224Y16378164D01*
X20234426Y16344403D01*
X20234429Y16344403D01*
X20234431Y16344402D01*
X20271306Y16341500D01*
X20271314Y16341500D01*
X20702686Y16341500D01*
X20702694Y16341500D01*
X20739569Y16344402D01*
X20739571Y16344403D01*
X20739573Y16344403D01*
X20838729Y16373211D01*
X20897398Y16390256D01*
X21038865Y16473919D01*
X21038870Y16473925D01*
X21045031Y16478702D01*
X21046933Y16476250D01*
X21095579Y16502845D01*
X21165274Y16497896D01*
X21197695Y16477060D01*
X21198969Y16478702D01*
X21205132Y16473922D01*
X21205135Y16473919D01*
X21346602Y16390256D01*
X21388224Y16378164D01*
X21504426Y16344403D01*
X21504429Y16344403D01*
X21504431Y16344402D01*
X21541306Y16341500D01*
X21541314Y16341500D01*
X21972686Y16341500D01*
X21972694Y16341500D01*
X22009569Y16344402D01*
X22009571Y16344403D01*
X22009573Y16344403D01*
X22108729Y16373211D01*
X22167398Y16390256D01*
X22308865Y16473919D01*
X22308870Y16473925D01*
X22315031Y16478702D01*
X22316933Y16476250D01*
X22365579Y16502845D01*
X22435274Y16497896D01*
X22467695Y16477060D01*
X22468969Y16478702D01*
X22475132Y16473922D01*
X22475135Y16473919D01*
X22616602Y16390256D01*
X22641193Y16383112D01*
X22736949Y16355291D01*
X22740950Y16352736D01*
X22745687Y16352397D01*
X22770117Y16334109D01*
X22795835Y16317685D01*
X22797819Y16313372D01*
X22801621Y16310526D01*
X22812285Y16281933D01*
X22825041Y16254212D01*
X22824378Y16249511D01*
X22826038Y16245062D01*
X22819552Y16215248D01*
X22815295Y16185026D01*
X22811915Y16180145D01*
X22811186Y16176789D01*
X22790036Y16148534D01*
X22657302Y16015800D01*
X22657301Y16015800D01*
X22657300Y16015799D01*
X22545201Y15903700D01*
X22545199Y15903697D01*
X22465933Y15766403D01*
X22424900Y15613267D01*
X22424900Y14358853D01*
X22405215Y14291814D01*
X22352411Y14246059D01*
X22283253Y14236115D01*
X22237779Y14252121D01*
X22170661Y14291814D01*
X22167398Y14293744D01*
X22167397Y14293745D01*
X22167396Y14293745D01*
X22167393Y14293746D01*
X22009573Y14339598D01*
X22009567Y14339599D01*
X21972701Y14342500D01*
X21972694Y14342500D01*
X21541306Y14342500D01*
X21541298Y14342500D01*
X21504432Y14339599D01*
X21504426Y14339598D01*
X21346606Y14293746D01*
X21346603Y14293745D01*
X21205137Y14210083D01*
X21198969Y14205298D01*
X21197072Y14207744D01*
X21148358Y14181143D01*
X21078666Y14186127D01*
X21046296Y14206931D01*
X21045031Y14205298D01*
X21038862Y14210083D01*
X20900661Y14291814D01*
X20897398Y14293744D01*
X20897397Y14293745D01*
X20897396Y14293745D01*
X20897393Y14293746D01*
X20739573Y14339598D01*
X20739567Y14339599D01*
X20702701Y14342500D01*
X20702694Y14342500D01*
X20271306Y14342500D01*
X20271298Y14342500D01*
X20234432Y14339599D01*
X20234426Y14339598D01*
X20076606Y14293746D01*
X20076603Y14293745D01*
X19935140Y14210085D01*
X19928974Y14205301D01*
X19927174Y14207621D01*
X19877913Y14180770D01*
X19808225Y14185807D01*
X19775992Y14206539D01*
X19774722Y14204900D01*
X19768552Y14209686D01*
X19627196Y14293283D01*
X19627193Y14293284D01*
X19469494Y14339100D01*
X19469497Y14339100D01*
X19467000Y14339297D01*
X19467000Y11394705D01*
X19467001Y11394705D01*
X19469486Y11394900D01*
X19627198Y11440719D01*
X19697779Y11482460D01*
X19765502Y11499643D01*
X19831765Y11477483D01*
X19875529Y11423017D01*
X19884900Y11375728D01*
X19884900Y10675732D01*
X19925933Y10522598D01*
X19930437Y10514797D01*
X19995155Y10402702D01*
X19995156Y10402697D01*
X19995157Y10402697D01*
X20005197Y10385305D01*
X20005201Y10385300D01*
X20473200Y9917302D01*
X20727200Y9663302D01*
X20839302Y9551200D01*
X20976598Y9471933D01*
X21129732Y9430900D01*
X22539511Y9430900D01*
X22606550Y9411215D01*
X22652305Y9358411D01*
X22662249Y9289253D01*
X22633224Y9225697D01*
X22627192Y9219219D01*
X22477485Y9069513D01*
X22477485Y9069512D01*
X22477483Y9069510D01*
X22435051Y9011107D01*
X22338657Y8878434D01*
X22231433Y8667997D01*
X22158446Y8443369D01*
X22121500Y8210098D01*
X22121500Y7973903D01*
X22158446Y7740632D01*
X22231433Y7516004D01*
X22338519Y7305837D01*
X22338657Y7305567D01*
X22477483Y7114490D01*
X22644490Y6947483D01*
X22835567Y6808657D01*
X22934991Y6757998D01*
X23046003Y6701434D01*
X23046005Y6701434D01*
X23046008Y6701432D01*
X23166412Y6662311D01*
X23270631Y6628447D01*
X23503903Y6591500D01*
X23503908Y6591500D01*
X23740097Y6591500D01*
X23973368Y6628447D01*
X23974870Y6628935D01*
X24197992Y6701432D01*
X24408433Y6808657D01*
X24599510Y6947483D01*
X24766517Y7114490D01*
X24905343Y7305567D01*
X25012568Y7516008D01*
X25085553Y7740632D01*
X25095783Y7805223D01*
X25122500Y7973903D01*
X25122500Y8210098D01*
X25085553Y8443369D01*
X25012566Y8667997D01*
X24905477Y8878170D01*
X24905343Y8878433D01*
X24766517Y9069510D01*
X24599510Y9236517D01*
X24408433Y9375343D01*
X24226614Y9467985D01*
X24175818Y9515960D01*
X24175625Y9516292D01*
X24103800Y9640698D01*
X23991698Y9752800D01*
X23827196Y9917302D01*
X23229702Y10514797D01*
X23229701Y10514798D01*
X23227574Y10516026D01*
X23216191Y10522598D01*
X23154296Y10558333D01*
X23092404Y10594066D01*
X23092403Y10594067D01*
X23041357Y10607745D01*
X22939268Y10635100D01*
X22939266Y10635100D01*
X21509760Y10635100D01*
X21442721Y10654785D01*
X21422079Y10671419D01*
X21125419Y10968079D01*
X21091934Y11029402D01*
X21089100Y11055760D01*
X21089100Y11375148D01*
X21108785Y11442187D01*
X21161589Y11487942D01*
X21230747Y11497886D01*
X21276215Y11481883D01*
X21346602Y11440256D01*
X21346605Y11440256D01*
X21346607Y11440254D01*
X21504426Y11394403D01*
X21504429Y11394403D01*
X21504431Y11394402D01*
X21541306Y11391500D01*
X21541314Y11391500D01*
X21972686Y11391500D01*
X21972694Y11391500D01*
X22009569Y11394402D01*
X22009571Y11394403D01*
X22009573Y11394403D01*
X22051191Y11406495D01*
X22167398Y11440256D01*
X22308865Y11523919D01*
X22308870Y11523925D01*
X22315031Y11528702D01*
X22316933Y11526250D01*
X22365579Y11552845D01*
X22435274Y11547896D01*
X22467695Y11527060D01*
X22468969Y11528702D01*
X22475132Y11523922D01*
X22475135Y11523919D01*
X22616602Y11440256D01*
X22616609Y11440254D01*
X22774426Y11394403D01*
X22774429Y11394403D01*
X22774431Y11394402D01*
X22811306Y11391500D01*
X22811314Y11391500D01*
X23242686Y11391500D01*
X23242694Y11391500D01*
X23279569Y11394402D01*
X23279571Y11394403D01*
X23279573Y11394403D01*
X23321191Y11406495D01*
X23437398Y11440256D01*
X23578865Y11523919D01*
X23695081Y11640135D01*
X23778744Y11781602D01*
X23824598Y11939431D01*
X23827500Y11976306D01*
X23827500Y13757694D01*
X23824598Y13794569D01*
X23821548Y13805066D01*
X23778745Y13952394D01*
X23778744Y13952397D01*
X23778744Y13952398D01*
X23695081Y14093865D01*
X23695079Y14093867D01*
X23695076Y14093871D01*
X23665419Y14123528D01*
X23631934Y14184851D01*
X23629100Y14211209D01*
X23629100Y15233240D01*
X23648785Y15300279D01*
X23665419Y15320921D01*
X24611800Y16267302D01*
X24717709Y16373211D01*
X24840273Y16495776D01*
X24901594Y16529259D01*
X24971285Y16524275D01*
X25027219Y16482404D01*
X25051636Y16416939D01*
X25036784Y16348666D01*
X25026329Y16332608D01*
X24971753Y16261483D01*
X24834080Y16023029D01*
X24834075Y16023018D01*
X24728704Y15768631D01*
X24657441Y15502669D01*
X24657438Y15502656D01*
X24621501Y15229685D01*
X24621500Y15229668D01*
X24621500Y14954333D01*
X24621501Y14954316D01*
X24657438Y14681345D01*
X24657439Y14681340D01*
X24657440Y14681334D01*
X24657441Y14681332D01*
X24728704Y14415370D01*
X24834075Y14160983D01*
X24834080Y14160972D01*
X24872825Y14093865D01*
X24971751Y13922521D01*
X24971753Y13922518D01*
X24971754Y13922517D01*
X25139370Y13704074D01*
X25139376Y13704067D01*
X25334066Y13509377D01*
X25334072Y13509372D01*
X25552521Y13341751D01*
X25704370Y13254081D01*
X25790971Y13204081D01*
X25790976Y13204079D01*
X25790979Y13204077D01*
X26045368Y13098705D01*
X26311334Y13027440D01*
X26584326Y12991500D01*
X26584333Y12991500D01*
X26859667Y12991500D01*
X26859674Y12991500D01*
X27132666Y13027440D01*
X27398632Y13098705D01*
X27653021Y13204077D01*
X27891479Y13341751D01*
X28109928Y13509372D01*
X28304628Y13704072D01*
X28472249Y13922521D01*
X28609923Y14160979D01*
X28715295Y14415368D01*
X28786560Y14681334D01*
X28822500Y14954326D01*
X28822500Y15229674D01*
X28786560Y15502666D01*
X28715295Y15768632D01*
X28609923Y16023021D01*
X28609921Y16023024D01*
X28609919Y16023029D01*
X28537458Y16148534D01*
X28472249Y16261479D01*
X28333067Y16442866D01*
X28304629Y16479927D01*
X28304623Y16479934D01*
X28188738Y16595819D01*
X28155253Y16657142D01*
X28160237Y16726834D01*
X28202109Y16782767D01*
X28267573Y16807184D01*
X28276419Y16807500D01*
X35595900Y16807500D01*
X35662939Y16787815D01*
X35708694Y16735011D01*
X35719900Y16683500D01*
X35719900Y11979840D01*
X35700215Y11912801D01*
X35647411Y11867046D01*
X35578253Y11857102D01*
X35514697Y11886127D01*
X35492798Y11910949D01*
X35409302Y12035908D01*
X35409299Y12035912D01*
X35276911Y12168300D01*
X35276907Y12168303D01*
X35121237Y12272319D01*
X35121228Y12272324D01*
X34948251Y12343973D01*
X34948243Y12343975D01*
X34764620Y12380500D01*
X34764616Y12380500D01*
X34577384Y12380500D01*
X34577379Y12380500D01*
X34393756Y12343975D01*
X34393748Y12343973D01*
X34220771Y12272324D01*
X34220762Y12272319D01*
X34065093Y12168304D01*
X34023290Y12126500D01*
X33965207Y12068418D01*
X33903887Y12034934D01*
X33877528Y12032100D01*
X32210268Y12032100D01*
X32051732Y12032100D01*
X31959852Y12007481D01*
X31898597Y11991068D01*
X31898596Y11991067D01*
X31761305Y11911803D01*
X31761300Y11911799D01*
X25059921Y5210419D01*
X24998598Y5176934D01*
X24972240Y5174100D01*
X14778760Y5174100D01*
X14711721Y5193785D01*
X14691079Y5210419D01*
X13760419Y6141079D01*
X13726934Y6202402D01*
X13724100Y6228760D01*
X13724100Y8210053D01*
X17122000Y8210053D01*
X17122000Y7973948D01*
X17158934Y7740753D01*
X17231897Y7516198D01*
X17339087Y7305826D01*
X17399338Y7222896D01*
X17399340Y7222895D01*
X18139037Y7962592D01*
X18156075Y7899007D01*
X18221901Y7784993D01*
X18314993Y7691901D01*
X18429007Y7626075D01*
X18492590Y7609038D01*
X17752893Y6869342D01*
X17835828Y6809086D01*
X18046197Y6701898D01*
X18270752Y6628935D01*
X18270751Y6628935D01*
X18503948Y6592000D01*
X18740052Y6592000D01*
X18973247Y6628935D01*
X19197802Y6701898D01*
X19408163Y6809082D01*
X19408169Y6809086D01*
X19491104Y6869342D01*
X19491105Y6869342D01*
X18751408Y7609038D01*
X18814993Y7626075D01*
X18929007Y7691901D01*
X19022099Y7784993D01*
X19087925Y7899007D01*
X19104962Y7962591D01*
X19844658Y7222895D01*
X19844658Y7222896D01*
X19904914Y7305831D01*
X19904918Y7305837D01*
X20012102Y7516198D01*
X20085065Y7740753D01*
X20122000Y7973948D01*
X20122000Y8210053D01*
X20085065Y8443248D01*
X20012102Y8667803D01*
X19904914Y8878172D01*
X19844658Y8961106D01*
X19844658Y8961107D01*
X19104962Y8221410D01*
X19087925Y8284993D01*
X19022099Y8399007D01*
X18929007Y8492099D01*
X18814993Y8557925D01*
X18751409Y8574963D01*
X19491105Y9314660D01*
X19491104Y9314662D01*
X19408174Y9374913D01*
X19197802Y9482103D01*
X18973247Y9555066D01*
X18973248Y9555066D01*
X18740052Y9592000D01*
X18503948Y9592000D01*
X18270752Y9555066D01*
X18046197Y9482103D01*
X17835830Y9374916D01*
X17752894Y9314660D01*
X18492591Y8574963D01*
X18429007Y8557925D01*
X18314993Y8492099D01*
X18221901Y8399007D01*
X18156075Y8284993D01*
X18139037Y8221409D01*
X17399340Y8961106D01*
X17339084Y8878170D01*
X17231897Y8667803D01*
X17158934Y8443248D01*
X17122000Y8210053D01*
X13724100Y8210053D01*
X13724100Y11976351D01*
X18417000Y11976351D01*
X18419899Y11939511D01*
X18419900Y11939505D01*
X18465716Y11781807D01*
X18465717Y11781804D01*
X18549314Y11640448D01*
X18549321Y11640439D01*
X18665438Y11524322D01*
X18665447Y11524315D01*
X18806801Y11440719D01*
X18964514Y11394900D01*
X18964511Y11394900D01*
X18966998Y11394705D01*
X18967000Y11394705D01*
X18967000Y12617000D01*
X18417000Y12617000D01*
X18417000Y11976351D01*
X13724100Y11976351D01*
X13724100Y13620083D01*
X13743785Y13687122D01*
X13796589Y13732877D01*
X13865747Y13742821D01*
X13929303Y13713796D01*
X13936347Y13706789D01*
X13936501Y13706942D01*
X14134066Y13509377D01*
X14134072Y13509372D01*
X14352521Y13341751D01*
X14504370Y13254081D01*
X14590971Y13204081D01*
X14590976Y13204079D01*
X14590979Y13204077D01*
X14845368Y13098705D01*
X15111334Y13027440D01*
X15384326Y12991500D01*
X15384333Y12991500D01*
X15659667Y12991500D01*
X15659674Y12991500D01*
X15932666Y13027440D01*
X16198632Y13098705D01*
X16453021Y13204077D01*
X16691479Y13341751D01*
X16909928Y13509372D01*
X17104628Y13704072D01*
X17145740Y13757650D01*
X18417000Y13757650D01*
X18417000Y13117000D01*
X18967000Y13117000D01*
X18967000Y14339297D01*
X18964503Y14339100D01*
X18806806Y14293284D01*
X18806803Y14293283D01*
X18665447Y14209686D01*
X18665438Y14209679D01*
X18549321Y14093562D01*
X18549314Y14093553D01*
X18465717Y13952197D01*
X18465716Y13952194D01*
X18419900Y13794496D01*
X18419899Y13794490D01*
X18417000Y13757650D01*
X17145740Y13757650D01*
X17272249Y13922521D01*
X17409923Y14160979D01*
X17515295Y14415368D01*
X17586560Y14681334D01*
X17622500Y14954326D01*
X17622500Y15229674D01*
X17586560Y15502666D01*
X17515295Y15768632D01*
X17409923Y16023021D01*
X17409921Y16023024D01*
X17409919Y16023029D01*
X17337458Y16148534D01*
X17272249Y16261479D01*
X17133067Y16442866D01*
X17104629Y16479927D01*
X17104623Y16479934D01*
X16909933Y16674624D01*
X16909926Y16674630D01*
X16691483Y16842246D01*
X16691482Y16842247D01*
X16691479Y16842249D01*
X16563067Y16916388D01*
X16449506Y16981953D01*
X16450036Y16982872D01*
X16402077Y17026998D01*
X16384398Y17094594D01*
X16406071Y17161017D01*
X16460215Y17205179D01*
X16508343Y17214900D01*
X18292500Y17214900D01*
X18359539Y17195215D01*
G37*
%TD.AperFunction*%
%TA.AperFunction,Conductor*%
G36*
X38945456Y47418675D02*
G01*
X39003319Y47379513D01*
X39030824Y47315285D01*
X39019238Y47246382D01*
X38995382Y47212881D01*
X38746302Y46963800D01*
X38634201Y46851700D01*
X38634199Y46851697D01*
X38554933Y46714403D01*
X38537298Y46648589D01*
X38517875Y46576100D01*
X38513900Y46561267D01*
X38513900Y39655473D01*
X38494215Y39588434D01*
X38477581Y39567792D01*
X38377700Y39467912D01*
X38377697Y39467908D01*
X38273681Y39312238D01*
X38273676Y39312229D01*
X38202027Y39139252D01*
X38202025Y39139244D01*
X38165500Y38955621D01*
X38165500Y38768380D01*
X38202025Y38584757D01*
X38202027Y38584749D01*
X38273676Y38411772D01*
X38273681Y38411763D01*
X38377697Y38256093D01*
X38377700Y38256089D01*
X38482008Y38151781D01*
X38515493Y38090458D01*
X38510509Y38020766D01*
X38468637Y37964833D01*
X38403173Y37940416D01*
X38394327Y37940100D01*
X37892760Y37940100D01*
X37825721Y37959785D01*
X37805079Y37976419D01*
X37341419Y38440079D01*
X37307934Y38501402D01*
X37305100Y38527760D01*
X37305100Y39703267D01*
X37286524Y39772592D01*
X37264067Y39856402D01*
X37184800Y39993698D01*
X37072698Y40105800D01*
X35601764Y41576734D01*
X34024701Y43153798D01*
X34020360Y43156304D01*
X34019595Y43156746D01*
X34019593Y43156748D01*
X33887408Y43233064D01*
X33887403Y43233067D01*
X33836357Y43246745D01*
X33734268Y43274100D01*
X33734266Y43274100D01*
X30653760Y43274100D01*
X30624319Y43282745D01*
X30594333Y43289268D01*
X30589317Y43293023D01*
X30586721Y43293785D01*
X30566079Y43310419D01*
X30483419Y43393079D01*
X30449934Y43454402D01*
X30447100Y43480760D01*
X30447100Y45418267D01*
X30446860Y45419164D01*
X30406067Y45571402D01*
X30326800Y45708698D01*
X30214698Y45820800D01*
X29198698Y46836800D01*
X29198697Y46836801D01*
X29198694Y46836803D01*
X29186056Y46844099D01*
X29186055Y46844100D01*
X29061408Y46916065D01*
X29061403Y46916067D01*
X29010357Y46929745D01*
X28908268Y46957100D01*
X15827268Y46957100D01*
X15668732Y46957100D01*
X15576852Y46932481D01*
X15515597Y46916068D01*
X15515596Y46916067D01*
X15378305Y46836803D01*
X15378300Y46836799D01*
X14451801Y45910300D01*
X14451799Y45910297D01*
X14372533Y45773003D01*
X14359779Y45725404D01*
X14342968Y45662664D01*
X14331500Y45619867D01*
X14331500Y45149187D01*
X14311815Y45082148D01*
X14263796Y45038703D01*
X14251988Y45032687D01*
X14086386Y44912372D01*
X13941628Y44767614D01*
X13821315Y44602014D01*
X13728381Y44419624D01*
X13665122Y44224935D01*
X13633100Y44022752D01*
X13633100Y43818049D01*
X13665122Y43615866D01*
X13728381Y43421177D01*
X13776104Y43327517D01*
X13810343Y43260319D01*
X13821315Y43238787D01*
X13941628Y43073187D01*
X14086384Y42928431D01*
X14182069Y42858913D01*
X14251990Y42808113D01*
X14334677Y42765982D01*
X14434376Y42715182D01*
X14434378Y42715182D01*
X14434381Y42715180D01*
X14458569Y42707321D01*
X14629065Y42651923D01*
X14730157Y42635912D01*
X14831248Y42619900D01*
X14831249Y42619900D01*
X15035951Y42619900D01*
X15035952Y42619900D01*
X15238134Y42651923D01*
X15432819Y42715180D01*
X15615210Y42808113D01*
X15718495Y42883153D01*
X15780816Y42928431D01*
X15780819Y42928434D01*
X15851720Y42999335D01*
X15925566Y43073181D01*
X15925568Y43073185D01*
X15925571Y43073187D01*
X16045884Y43238786D01*
X16045885Y43238787D01*
X16045887Y43238790D01*
X16093116Y43331483D01*
X16141089Y43382277D01*
X16208910Y43399072D01*
X16275045Y43376535D01*
X16314083Y43331483D01*
X16343322Y43274100D01*
X16361315Y43238786D01*
X16481628Y43073187D01*
X16481634Y43073181D01*
X16626381Y42928434D01*
X16791990Y42808113D01*
X16803795Y42802099D01*
X16854590Y42754126D01*
X16871500Y42691614D01*
X16871500Y42010132D01*
X16885824Y41956677D01*
X16912533Y41856997D01*
X16912534Y41856996D01*
X16974249Y41750102D01*
X16974250Y41750099D01*
X16991795Y41719709D01*
X16991799Y41719704D01*
X16991800Y41719702D01*
X18441200Y40270302D01*
X18553302Y40158200D01*
X18690598Y40078933D01*
X18843732Y40037900D01*
X32592240Y40037900D01*
X32659279Y40018215D01*
X32679921Y40001581D01*
X33132721Y39548781D01*
X33166206Y39487458D01*
X33161222Y39417766D01*
X33119350Y39361833D01*
X33053886Y39337416D01*
X33045040Y39337100D01*
X28352472Y39337100D01*
X28285433Y39356785D01*
X28264795Y39373415D01*
X28164908Y39473302D01*
X28164907Y39473303D01*
X28164906Y39473304D01*
X28009237Y39577319D01*
X28009228Y39577324D01*
X27836251Y39648973D01*
X27836243Y39648975D01*
X27652620Y39685500D01*
X27652616Y39685500D01*
X27465384Y39685500D01*
X27465379Y39685500D01*
X27281756Y39648975D01*
X27281748Y39648973D01*
X27108771Y39577324D01*
X27108762Y39577319D01*
X26953092Y39473303D01*
X26953088Y39473300D01*
X26820700Y39340912D01*
X26820697Y39340908D01*
X26716681Y39185238D01*
X26716676Y39185229D01*
X26645027Y39012252D01*
X26645025Y39012244D01*
X26608500Y38828621D01*
X26608500Y38641380D01*
X26645025Y38457757D01*
X26645027Y38457749D01*
X26716676Y38284772D01*
X26716681Y38284763D01*
X26820697Y38129093D01*
X26820700Y38129089D01*
X26953088Y37996701D01*
X26953092Y37996698D01*
X27108762Y37892682D01*
X27108771Y37892677D01*
X27147956Y37876446D01*
X27281749Y37821027D01*
X27465379Y37784501D01*
X27465383Y37784500D01*
X27465384Y37784500D01*
X27652617Y37784500D01*
X27652618Y37784501D01*
X27836251Y37821027D01*
X28009231Y37892678D01*
X28164908Y37996698D01*
X28264792Y38096583D01*
X28326113Y38130066D01*
X28352472Y38132900D01*
X33100240Y38132900D01*
X33167279Y38113215D01*
X33187921Y38096581D01*
X33397581Y37886921D01*
X33431066Y37825598D01*
X33433900Y37799240D01*
X33433900Y34845732D01*
X33443662Y34809302D01*
X33474933Y34692597D01*
X33474934Y34692596D01*
X33536188Y34586500D01*
X33536189Y34586499D01*
X33554199Y34555303D01*
X35926721Y32182781D01*
X35960206Y32121458D01*
X35955222Y32051766D01*
X35913350Y31995833D01*
X35847886Y31971416D01*
X35839040Y31971100D01*
X23541760Y31971100D01*
X23474721Y31990785D01*
X23454079Y32007419D01*
X23192019Y32269479D01*
X23177315Y32296407D01*
X23160723Y32322225D01*
X23159831Y32328426D01*
X23158534Y32330802D01*
X23155700Y32357160D01*
X23155700Y32531614D01*
X23175385Y32598653D01*
X23223404Y32642098D01*
X23235210Y32648113D01*
X23400819Y32768434D01*
X23545566Y32913181D01*
X23545568Y32913185D01*
X23545571Y32913187D01*
X23665884Y33078786D01*
X23665885Y33078787D01*
X23665887Y33078790D01*
X23713116Y33171483D01*
X23761089Y33222277D01*
X23828910Y33239072D01*
X23895045Y33216535D01*
X23934083Y33171483D01*
X23934515Y33170637D01*
X23981315Y33078786D01*
X24101628Y32913187D01*
X24246386Y32768429D01*
X24342069Y32698913D01*
X24411990Y32648113D01*
X24494677Y32605982D01*
X24594376Y32555182D01*
X24594378Y32555182D01*
X24594381Y32555180D01*
X24632720Y32542723D01*
X24789065Y32491923D01*
X24890157Y32475912D01*
X24991248Y32459900D01*
X24991249Y32459900D01*
X25195951Y32459900D01*
X25195952Y32459900D01*
X25398134Y32491923D01*
X25592819Y32555180D01*
X25775210Y32648113D01*
X25868190Y32715668D01*
X25940813Y32768429D01*
X25940815Y32768432D01*
X25940819Y32768434D01*
X26085566Y32913181D01*
X26085568Y32913185D01*
X26085571Y32913187D01*
X26171815Y33031894D01*
X26205887Y33078790D01*
X26298820Y33261181D01*
X26362077Y33455866D01*
X26394100Y33658048D01*
X26394100Y33862752D01*
X26362077Y34064934D01*
X26298820Y34259619D01*
X26298818Y34259622D01*
X26298818Y34259624D01*
X26250187Y34355066D01*
X26205887Y34442010D01*
X26194630Y34457504D01*
X26085571Y34607614D01*
X25940813Y34752372D01*
X25775213Y34872685D01*
X25775212Y34872686D01*
X25775210Y34872687D01*
X25718253Y34901709D01*
X25592823Y34965619D01*
X25398134Y35028878D01*
X25218397Y35057345D01*
X25195952Y35060900D01*
X24991248Y35060900D01*
X24968803Y35057345D01*
X24789065Y35028878D01*
X24594376Y34965619D01*
X24411986Y34872685D01*
X24246386Y34752372D01*
X24101628Y34607614D01*
X23981315Y34442014D01*
X23934085Y34349320D01*
X23886110Y34298524D01*
X23818289Y34281729D01*
X23752154Y34304266D01*
X23713115Y34349320D01*
X23696131Y34382653D01*
X23665887Y34442010D01*
X23654630Y34457504D01*
X23545571Y34607614D01*
X23400813Y34752372D01*
X23235213Y34872685D01*
X23235212Y34872686D01*
X23235210Y34872687D01*
X23178253Y34901709D01*
X23052823Y34965619D01*
X22858134Y35028878D01*
X22678397Y35057345D01*
X22655952Y35060900D01*
X22451248Y35060900D01*
X22428803Y35057345D01*
X22249065Y35028878D01*
X22054376Y34965619D01*
X21871986Y34872685D01*
X21706386Y34752372D01*
X21561628Y34607614D01*
X21441315Y34442014D01*
X21394085Y34349320D01*
X21346110Y34298524D01*
X21278289Y34281729D01*
X21212154Y34304266D01*
X21173115Y34349320D01*
X21156131Y34382653D01*
X21125887Y34442010D01*
X21114630Y34457504D01*
X21005571Y34607614D01*
X20860813Y34752372D01*
X20695213Y34872685D01*
X20695212Y34872686D01*
X20695210Y34872687D01*
X20638253Y34901709D01*
X20512823Y34965619D01*
X20318134Y35028878D01*
X20138397Y35057345D01*
X20115952Y35060900D01*
X19911248Y35060900D01*
X19888803Y35057345D01*
X19709065Y35028878D01*
X19514376Y34965619D01*
X19331986Y34872685D01*
X19166386Y34752372D01*
X19021628Y34607614D01*
X18901315Y34442014D01*
X18854085Y34349320D01*
X18806110Y34298524D01*
X18738289Y34281729D01*
X18672154Y34304266D01*
X18633115Y34349320D01*
X18616131Y34382653D01*
X18585887Y34442010D01*
X18574630Y34457504D01*
X18465571Y34607614D01*
X18320813Y34752372D01*
X18155213Y34872685D01*
X18155212Y34872686D01*
X18155210Y34872687D01*
X18098253Y34901709D01*
X17972823Y34965619D01*
X17778134Y35028878D01*
X17598397Y35057345D01*
X17575952Y35060900D01*
X17371248Y35060900D01*
X17348803Y35057345D01*
X17169065Y35028878D01*
X16974376Y34965619D01*
X16791986Y34872685D01*
X16626386Y34752372D01*
X16481628Y34607614D01*
X16361315Y34442014D01*
X16314085Y34349320D01*
X16266110Y34298524D01*
X16198289Y34281729D01*
X16132154Y34304266D01*
X16093115Y34349320D01*
X16076131Y34382653D01*
X16045887Y34442010D01*
X16034630Y34457504D01*
X15925571Y34607614D01*
X15780813Y34752372D01*
X15615213Y34872685D01*
X15615212Y34872686D01*
X15615210Y34872687D01*
X15558253Y34901709D01*
X15432823Y34965619D01*
X15238134Y35028878D01*
X15058397Y35057345D01*
X15035952Y35060900D01*
X14831248Y35060900D01*
X14808803Y35057345D01*
X14629065Y35028878D01*
X14434376Y34965619D01*
X14251986Y34872685D01*
X14086386Y34752372D01*
X14086382Y34752368D01*
X14021781Y34687766D01*
X13960458Y34654281D01*
X13890766Y34659265D01*
X13834833Y34701137D01*
X13810416Y34766601D01*
X13810100Y34775447D01*
X13810100Y36910240D01*
X13829785Y36977279D01*
X13846419Y36997921D01*
X14437079Y37588581D01*
X14498402Y37622066D01*
X14524760Y37624900D01*
X17973367Y37624900D01*
X18020819Y37615462D01*
X18137749Y37567027D01*
X18321379Y37530501D01*
X18321383Y37530500D01*
X18321384Y37530500D01*
X18508617Y37530500D01*
X18508618Y37530501D01*
X18692251Y37567027D01*
X18865231Y37638678D01*
X19020908Y37742698D01*
X19153302Y37875092D01*
X19257322Y38030769D01*
X19328973Y38203749D01*
X19365500Y38387384D01*
X19365500Y38574616D01*
X19328973Y38758251D01*
X19273554Y38892044D01*
X19257323Y38931229D01*
X19257318Y38931238D01*
X19153302Y39086908D01*
X19153299Y39086912D01*
X19020911Y39219300D01*
X19020907Y39219303D01*
X18865237Y39323319D01*
X18865228Y39323324D01*
X18692251Y39394973D01*
X18692243Y39394975D01*
X18508620Y39431500D01*
X18508616Y39431500D01*
X18321384Y39431500D01*
X18321379Y39431500D01*
X18137756Y39394975D01*
X18137748Y39394973D01*
X17964771Y39323324D01*
X17964762Y39323319D01*
X17809092Y39219303D01*
X17809088Y39219300D01*
X17676700Y39086912D01*
X17676697Y39086908D01*
X17572681Y38931238D01*
X17572677Y38931231D01*
X17562082Y38905649D01*
X17518241Y38851245D01*
X17451947Y38829179D01*
X17447520Y38829100D01*
X14144732Y38829100D01*
X14042642Y38801745D01*
X13991597Y38788067D01*
X13939955Y38758251D01*
X13854303Y38708801D01*
X13854300Y38708799D01*
X12726201Y37580700D01*
X12726199Y37580697D01*
X12646933Y37443403D01*
X12635169Y37399500D01*
X12605900Y37290268D01*
X12605900Y29384732D01*
X12631746Y29288275D01*
X12646933Y29231597D01*
X12646936Y29231592D01*
X12713451Y29116383D01*
X12713452Y29116383D01*
X12726200Y29094302D01*
X14631200Y27189302D01*
X14743302Y27077200D01*
X14880598Y26997933D01*
X15033732Y26956900D01*
X19028114Y26956900D01*
X19095153Y26937215D01*
X19140908Y26884411D01*
X19150852Y26815253D01*
X19149731Y26808709D01*
X19115500Y26636620D01*
X19115500Y26449380D01*
X19152025Y26265757D01*
X19152027Y26265749D01*
X19223676Y26092772D01*
X19223681Y26092763D01*
X19327697Y25937093D01*
X19327700Y25937089D01*
X19460088Y25804701D01*
X19460092Y25804698D01*
X19615762Y25700682D01*
X19615768Y25700679D01*
X19615769Y25700678D01*
X19788749Y25629027D01*
X19967890Y25593394D01*
X19972379Y25592501D01*
X19972383Y25592500D01*
X20113640Y25592500D01*
X20180679Y25572815D01*
X20201321Y25556181D01*
X21108200Y24649302D01*
X21220302Y24537200D01*
X21357598Y24457933D01*
X21510732Y24416900D01*
X38125655Y24416900D01*
X38192694Y24397215D01*
X38238449Y24344411D01*
X38248393Y24275253D01*
X38240216Y24245447D01*
X38202027Y24153252D01*
X38202025Y24153244D01*
X38165500Y23969621D01*
X38165500Y23828361D01*
X38145815Y23761322D01*
X38129181Y23740680D01*
X36714302Y22325800D01*
X36602201Y22213700D01*
X36602199Y22213697D01*
X36522933Y22076403D01*
X36481900Y21923267D01*
X36481900Y19970473D01*
X36462215Y19903434D01*
X36445581Y19882792D01*
X36345700Y19782912D01*
X36345697Y19782908D01*
X36241681Y19627238D01*
X36241676Y19627229D01*
X36170027Y19454252D01*
X36170025Y19454244D01*
X36133500Y19270621D01*
X36133500Y19083380D01*
X36170025Y18899757D01*
X36170027Y18899749D01*
X36241676Y18726772D01*
X36241681Y18726763D01*
X36318370Y18611991D01*
X36339248Y18545314D01*
X36320764Y18477933D01*
X36268785Y18431243D01*
X36215268Y18419100D01*
X23951500Y18419100D01*
X23884461Y18438785D01*
X23838706Y18491589D01*
X23827500Y18543100D01*
X23827500Y18707687D01*
X23827499Y18707702D01*
X23826412Y18721510D01*
X23824598Y18744569D01*
X23820782Y18757702D01*
X23782777Y18888517D01*
X23778744Y18902398D01*
X23695081Y19043865D01*
X23695079Y19043867D01*
X23695076Y19043871D01*
X23578870Y19160077D01*
X23578862Y19160083D01*
X23466920Y19226285D01*
X23437398Y19243744D01*
X23437397Y19243745D01*
X23437396Y19243745D01*
X23437393Y19243746D01*
X23312400Y19280060D01*
X23253514Y19317666D01*
X23224308Y19381139D01*
X23234054Y19450325D01*
X23259311Y19486814D01*
X24103800Y20331302D01*
X24183067Y20468598D01*
X24224100Y20621732D01*
X24224100Y20967501D01*
X24243785Y21034540D01*
X24296589Y21080295D01*
X24348100Y21091501D01*
X24669871Y21091501D01*
X24669872Y21091501D01*
X24729483Y21097909D01*
X24864331Y21148204D01*
X24979546Y21234454D01*
X25065796Y21349669D01*
X25116091Y21484517D01*
X25122500Y21544127D01*
X25122499Y23639872D01*
X25116091Y23699483D01*
X25102278Y23736517D01*
X25065797Y23834329D01*
X25065793Y23834336D01*
X24979547Y23949545D01*
X24979544Y23949548D01*
X24864335Y24035794D01*
X24864328Y24035798D01*
X24729482Y24086092D01*
X24729483Y24086092D01*
X24669883Y24092499D01*
X24669881Y24092500D01*
X24669873Y24092500D01*
X24669864Y24092500D01*
X22574129Y24092500D01*
X22574123Y24092499D01*
X22514516Y24086092D01*
X22379671Y24035798D01*
X22379664Y24035794D01*
X22264455Y23949548D01*
X22176009Y23831401D01*
X22120075Y23789531D01*
X22050383Y23784547D01*
X22003858Y23805395D01*
X21908174Y23874913D01*
X21697802Y23982103D01*
X21473247Y24055066D01*
X21473248Y24055066D01*
X21240052Y24092000D01*
X21003948Y24092000D01*
X20770752Y24055066D01*
X20546197Y23982103D01*
X20335830Y23874916D01*
X20252894Y23814660D01*
X20992591Y23074963D01*
X20929007Y23057925D01*
X20814993Y22992099D01*
X20721901Y22899007D01*
X20656075Y22784993D01*
X20639037Y22721410D01*
X19892727Y23467720D01*
X19849052Y23476895D01*
X19807384Y23513261D01*
X19766517Y23569510D01*
X19599510Y23736517D01*
X19408433Y23875343D01*
X19390783Y23884336D01*
X19197996Y23982567D01*
X18973368Y24055554D01*
X18740097Y24092500D01*
X18740092Y24092500D01*
X18503908Y24092500D01*
X18503903Y24092500D01*
X18270631Y24055554D01*
X18046003Y23982567D01*
X17835566Y23875343D01*
X17779119Y23834331D01*
X17644490Y23736517D01*
X17644488Y23736515D01*
X17644487Y23736515D01*
X17477485Y23569513D01*
X17477485Y23569512D01*
X17477483Y23569510D01*
X17445797Y23525898D01*
X17338657Y23378434D01*
X17231433Y23167997D01*
X17158446Y22943369D01*
X17121500Y22710098D01*
X17121500Y22473903D01*
X17158446Y22240632D01*
X17231433Y22016004D01*
X17338657Y21805567D01*
X17477483Y21614490D01*
X17644490Y21447483D01*
X17775085Y21352600D01*
X17835568Y21308656D01*
X17883064Y21284456D01*
X17948217Y21251259D01*
X17952194Y21249233D01*
X18002990Y21201259D01*
X18019900Y21138748D01*
X18019900Y20668732D01*
X18032494Y20621732D01*
X18060933Y20515597D01*
X18060934Y20515596D01*
X18099844Y20448202D01*
X18099845Y20448200D01*
X18140199Y20378304D01*
X18140201Y20378301D01*
X19021104Y19497398D01*
X19054589Y19436075D01*
X19049605Y19366383D01*
X19007733Y19310450D01*
X18968018Y19290641D01*
X18806606Y19243747D01*
X18806603Y19243745D01*
X18665137Y19160083D01*
X18665129Y19160077D01*
X18548923Y19043871D01*
X18548917Y19043863D01*
X18465255Y18902397D01*
X18465254Y18902394D01*
X18419402Y18744574D01*
X18419401Y18744568D01*
X18416500Y18707702D01*
X18416500Y18543100D01*
X18396815Y18476061D01*
X18344011Y18430306D01*
X18292500Y18419100D01*
X16721500Y18419100D01*
X16654461Y18438785D01*
X16608706Y18491589D01*
X16597500Y18543100D01*
X16597499Y19128670D01*
X16597498Y19128688D01*
X16587174Y19229753D01*
X16582287Y19244500D01*
X16532908Y19393516D01*
X16442340Y19540350D01*
X16428017Y19554673D01*
X16394532Y19615996D01*
X16399516Y19685688D01*
X16428021Y19730040D01*
X16441947Y19743965D01*
X16532448Y19890689D01*
X16532453Y19890700D01*
X16586680Y20054348D01*
X16596999Y20155346D01*
X16597000Y20155359D01*
X16597000Y20254500D01*
X14647001Y20254500D01*
X14647001Y20155346D01*
X14657319Y20054348D01*
X14711546Y19890700D01*
X14711551Y19890689D01*
X14802052Y19743966D01*
X14802055Y19743962D01*
X14815982Y19730035D01*
X14849467Y19668712D01*
X14844483Y19599020D01*
X14815984Y19554675D01*
X14801661Y19540352D01*
X14711093Y19393519D01*
X14711091Y19393514D01*
X14693225Y19339598D01*
X14677619Y19292500D01*
X14677319Y19291596D01*
X14663448Y19271564D01*
X14653326Y19249397D01*
X14643913Y19243349D01*
X14637546Y19234151D01*
X14615047Y19224798D01*
X14594548Y19211623D01*
X14577446Y19209165D01*
X14573030Y19207328D01*
X14559613Y19206600D01*
X14384781Y19206600D01*
X14317742Y19226285D01*
X14279242Y19265504D01*
X14246986Y19317800D01*
X14189712Y19410656D01*
X14065656Y19534712D01*
X14062342Y19536757D01*
X14060546Y19538752D01*
X14059989Y19539193D01*
X14060064Y19539289D01*
X14015618Y19588703D01*
X14004397Y19657666D01*
X14032240Y19721748D01*
X14062348Y19747835D01*
X14065342Y19749682D01*
X14189315Y19873655D01*
X14281356Y20022876D01*
X14281358Y20022881D01*
X14336505Y20189303D01*
X14336506Y20189310D01*
X14346999Y20292014D01*
X14347000Y20292027D01*
X14347000Y20429500D01*
X11897001Y20429500D01*
X11897001Y20292014D01*
X11907494Y20189303D01*
X11962641Y20022881D01*
X11962643Y20022876D01*
X12054684Y19873655D01*
X12178655Y19749684D01*
X12178659Y19749681D01*
X12181656Y19747832D01*
X12183279Y19746028D01*
X12184323Y19745202D01*
X12184181Y19745024D01*
X12228381Y19695884D01*
X12239602Y19626921D01*
X12211759Y19562839D01*
X12181661Y19536759D01*
X12178349Y19534717D01*
X12178343Y19534712D01*
X12054288Y19410657D01*
X12054287Y19410655D01*
X11964758Y19265504D01*
X11957171Y19258681D01*
X11952932Y19249397D01*
X11931631Y19235709D01*
X11912810Y19218779D01*
X11901174Y19216135D01*
X11894154Y19211623D01*
X11859219Y19206600D01*
X11795260Y19206600D01*
X11728221Y19226285D01*
X11707579Y19242919D01*
X10290419Y20660079D01*
X10256934Y20721402D01*
X10254100Y20747760D01*
X10254100Y20853655D01*
X14647000Y20853655D01*
X14647000Y20754500D01*
X15372000Y20754500D01*
X15872000Y20754500D01*
X16596999Y20754500D01*
X16596999Y20853640D01*
X16596998Y20853655D01*
X16586680Y20954653D01*
X16532453Y21118301D01*
X16532448Y21118312D01*
X16441947Y21265035D01*
X16441944Y21265039D01*
X16320038Y21386945D01*
X16320034Y21386948D01*
X16173311Y21477449D01*
X16173300Y21477454D01*
X16009652Y21531681D01*
X15908654Y21542000D01*
X15872000Y21542000D01*
X15872000Y20754500D01*
X15372000Y20754500D01*
X15372000Y21542000D01*
X15335361Y21542000D01*
X15335343Y21541999D01*
X15234347Y21531681D01*
X15070699Y21477454D01*
X15070688Y21477449D01*
X14923965Y21386948D01*
X14923961Y21386945D01*
X14802055Y21265039D01*
X14802052Y21265035D01*
X14711551Y21118312D01*
X14711546Y21118301D01*
X14657319Y20954653D01*
X14647000Y20853655D01*
X10254100Y20853655D01*
X10254100Y21066987D01*
X11897000Y21066987D01*
X11897000Y20929500D01*
X12872000Y20929500D01*
X13372000Y20929500D01*
X14346999Y20929500D01*
X14346999Y21066972D01*
X14346998Y21066987D01*
X14336505Y21169698D01*
X14281358Y21336120D01*
X14281356Y21336125D01*
X14189315Y21485346D01*
X14065345Y21609316D01*
X13916124Y21701357D01*
X13916119Y21701359D01*
X13749697Y21756506D01*
X13749690Y21756507D01*
X13646986Y21767000D01*
X13372000Y21767000D01*
X13372000Y20929500D01*
X12872000Y20929500D01*
X12872000Y21767000D01*
X12597029Y21767000D01*
X12597012Y21766999D01*
X12494302Y21756506D01*
X12327880Y21701359D01*
X12327875Y21701357D01*
X12178654Y21609316D01*
X12054684Y21485346D01*
X11962643Y21336125D01*
X11962641Y21336120D01*
X11907494Y21169698D01*
X11907493Y21169691D01*
X11897000Y21066987D01*
X10254100Y21066987D01*
X10254100Y45419240D01*
X10273785Y45486279D01*
X10290419Y45506921D01*
X12151079Y47367581D01*
X12212402Y47401066D01*
X12238760Y47403900D01*
X38814267Y47403900D01*
X38814268Y47403900D01*
X38875606Y47420336D01*
X38945456Y47418675D01*
G37*
%TD.AperFunction*%
%TA.AperFunction,Conductor*%
G36*
X20656075Y22399007D02*
G01*
X20721901Y22284993D01*
X20814993Y22191901D01*
X20929007Y22126075D01*
X20992589Y22109038D01*
X20252893Y21369342D01*
X20335828Y21309086D01*
X20546197Y21201898D01*
X20770752Y21128935D01*
X20770751Y21128935D01*
X21003948Y21092000D01*
X21240052Y21092000D01*
X21473247Y21128935D01*
X21697802Y21201898D01*
X21908171Y21309086D01*
X22003857Y21378606D01*
X22069663Y21402086D01*
X22137717Y21386261D01*
X22176009Y21352600D01*
X22208906Y21308656D01*
X22253390Y21249233D01*
X22264455Y21234453D01*
X22379664Y21148207D01*
X22379671Y21148203D01*
X22405022Y21138748D01*
X22514517Y21097909D01*
X22574127Y21091500D01*
X22861641Y21091501D01*
X22928679Y21071817D01*
X22974434Y21019013D01*
X22984378Y20949854D01*
X22955353Y20886299D01*
X22949321Y20879820D01*
X21387302Y19317800D01*
X21387301Y19317799D01*
X21276042Y19206542D01*
X21251485Y19187493D01*
X21205139Y19160084D01*
X21198973Y19155300D01*
X21197082Y19157737D01*
X21148296Y19131129D01*
X21078607Y19136150D01*
X21047824Y19152942D01*
X21040644Y19158302D01*
X21038865Y19160081D01*
X21035955Y19161802D01*
X21030614Y19165789D01*
X21018784Y19181547D01*
X20997402Y19203157D01*
X20978608Y19235709D01*
X20968800Y19252698D01*
X20856698Y19364800D01*
X19260419Y20961079D01*
X19245715Y20988007D01*
X19229123Y21013825D01*
X19228231Y21020026D01*
X19226934Y21022402D01*
X19224100Y21048760D01*
X19224100Y21138748D01*
X19243785Y21205787D01*
X19291806Y21249233D01*
X19295783Y21251259D01*
X19408433Y21308657D01*
X19599510Y21447483D01*
X19766517Y21614490D01*
X19807385Y21670741D01*
X19862711Y21713404D01*
X19894543Y21718098D01*
X20639037Y22462592D01*
X20656075Y22399007D01*
G37*
%TD.AperFunction*%
%TA.AperFunction,Conductor*%
G36*
X79656075Y22449007D02*
G01*
X79721901Y22334993D01*
X79814993Y22241901D01*
X79929007Y22176075D01*
X79992589Y22159038D01*
X79252893Y21419342D01*
X79335828Y21359086D01*
X79546197Y21251898D01*
X79770752Y21178935D01*
X79770751Y21178935D01*
X80003948Y21142000D01*
X80240052Y21142000D01*
X80473247Y21178935D01*
X80697802Y21251898D01*
X80908171Y21359086D01*
X81003857Y21428606D01*
X81069663Y21452086D01*
X81137717Y21436261D01*
X81176009Y21402600D01*
X81215634Y21349669D01*
X81253390Y21299233D01*
X81264455Y21284453D01*
X81379664Y21198207D01*
X81379671Y21198203D01*
X81405022Y21188748D01*
X81514517Y21147909D01*
X81574127Y21141500D01*
X81895900Y21141501D01*
X81904586Y21138951D01*
X81913547Y21140239D01*
X81937583Y21129262D01*
X81962939Y21121817D01*
X81968867Y21114975D01*
X81977103Y21111214D01*
X81991389Y21088983D01*
X82008694Y21069013D01*
X82010981Y21058498D01*
X82014877Y21052436D01*
X82019900Y21017501D01*
X82019900Y20919100D01*
X82000215Y20852061D01*
X81947411Y20806306D01*
X81895900Y20795100D01*
X81454732Y20795100D01*
X81352642Y20767745D01*
X81301597Y20754067D01*
X81203790Y20697598D01*
X81164303Y20674801D01*
X81164300Y20674799D01*
X80275201Y19785700D01*
X80275199Y19785697D01*
X80195934Y19648404D01*
X80195933Y19648402D01*
X80166980Y19540350D01*
X80158360Y19508180D01*
X80121994Y19448520D01*
X80059147Y19417992D01*
X79989771Y19426287D01*
X79950904Y19452594D01*
X78288250Y21115248D01*
X78254765Y21176571D01*
X78259749Y21246263D01*
X78301621Y21302196D01*
X78319631Y21313411D01*
X78408433Y21358657D01*
X78599510Y21497483D01*
X78766517Y21664490D01*
X78807385Y21720741D01*
X78862711Y21763404D01*
X78894543Y21768098D01*
X79639037Y22512592D01*
X79656075Y22449007D01*
G37*
%TD.AperFunction*%
%TA.AperFunction,Conductor*%
G36*
X55043567Y42160215D02*
G01*
X55064204Y42143586D01*
X55109290Y42098500D01*
X55147093Y42060697D01*
X55302762Y41956682D01*
X55302768Y41956679D01*
X55302769Y41956678D01*
X55475749Y41885027D01*
X55659379Y41848501D01*
X55659383Y41848500D01*
X55659384Y41848500D01*
X55846617Y41848500D01*
X55846618Y41848501D01*
X56030251Y41885027D01*
X56188449Y41950556D01*
X56257916Y41958024D01*
X56320395Y41926749D01*
X56356048Y41866661D01*
X56359900Y41835994D01*
X56359900Y38560039D01*
X56340215Y38493000D01*
X56287411Y38447245D01*
X56218253Y38437301D01*
X56194203Y38444102D01*
X56194186Y38444043D01*
X56032024Y38491156D01*
X56032018Y38491157D01*
X55995890Y38494000D01*
X55319000Y38494000D01*
X55319000Y37843000D01*
X55299315Y37775961D01*
X55246511Y37730206D01*
X55195000Y37719000D01*
X55069000Y37719000D01*
X55069000Y37593000D01*
X55049315Y37525961D01*
X54996511Y37480206D01*
X54945000Y37469000D01*
X53575326Y37469000D01*
X53616781Y37326306D01*
X53616781Y37326305D01*
X53698770Y37187669D01*
X53698776Y37187661D01*
X53714402Y37172035D01*
X53747887Y37110712D01*
X53742903Y37041020D01*
X53714406Y36996677D01*
X53698379Y36980649D01*
X53698368Y36980635D01*
X53616320Y36841897D01*
X53616317Y36841890D01*
X53571346Y36687103D01*
X53571345Y36687097D01*
X53568500Y36650943D01*
X53568500Y36247078D01*
X53568501Y36247053D01*
X53571346Y36210902D01*
X53616317Y36056111D01*
X53616317Y36056110D01*
X53616318Y36056108D01*
X53616319Y36056106D01*
X53622058Y36046402D01*
X53668294Y35968220D01*
X53685475Y35900496D01*
X53663315Y35834234D01*
X53608849Y35790471D01*
X53561561Y35781100D01*
X53005760Y35781100D01*
X52938721Y35800785D01*
X52918079Y35817419D01*
X52581419Y36154079D01*
X52547934Y36215402D01*
X52545100Y36241760D01*
X52545100Y37036267D01*
X52545100Y37036268D01*
X52504067Y37189402D01*
X52424800Y37326698D01*
X52312698Y37438800D01*
X52126598Y37624900D01*
X51931702Y37819797D01*
X51931698Y37819800D01*
X51926588Y37822750D01*
X51926588Y37822751D01*
X51902411Y37836709D01*
X51902410Y37836709D01*
X51794404Y37899066D01*
X51794403Y37899067D01*
X51743357Y37912745D01*
X51641268Y37940100D01*
X51641266Y37940100D01*
X50577472Y37940100D01*
X50510433Y37959785D01*
X50498997Y37969000D01*
X53575326Y37969000D01*
X54819000Y37969000D01*
X54819000Y38494000D01*
X54142128Y38494000D01*
X54142106Y38493999D01*
X54105978Y38491156D01*
X53951310Y38446221D01*
X53951307Y38446220D01*
X53812668Y38364230D01*
X53812660Y38364224D01*
X53698776Y38250340D01*
X53698770Y38250332D01*
X53616781Y38111696D01*
X53616781Y38111695D01*
X53575326Y37969000D01*
X50498997Y37969000D01*
X50489795Y37976415D01*
X50389908Y38076302D01*
X50389904Y38076305D01*
X50389903Y38076306D01*
X50267898Y38157827D01*
X50223092Y38211439D01*
X50214385Y38280764D01*
X50244539Y38343791D01*
X50249107Y38348610D01*
X50401900Y38501402D01*
X50632079Y38731581D01*
X50693402Y38765066D01*
X50719760Y38767900D01*
X51514266Y38767900D01*
X51514268Y38767900D01*
X51667402Y38808933D01*
X51804698Y38888200D01*
X51916800Y39000302D01*
X52823800Y39907302D01*
X52903068Y40044599D01*
X52944100Y40197732D01*
X52944100Y40356268D01*
X52944100Y41756657D01*
X52963785Y41823696D01*
X53016589Y41869451D01*
X53020651Y41871219D01*
X53037729Y41878293D01*
X53037731Y41878295D01*
X53037743Y41878299D01*
X53151757Y41944125D01*
X53256449Y42024459D01*
X53349541Y42117551D01*
X53360156Y42131386D01*
X53416584Y42172589D01*
X53458533Y42179900D01*
X54976528Y42179900D01*
X55043567Y42160215D01*
G37*
%TD.AperFunction*%
%TA.AperFunction,Conductor*%
G36*
X50226215Y57131883D02*
G01*
X50296602Y57090256D01*
X50296605Y57090256D01*
X50296607Y57090254D01*
X50454426Y57044403D01*
X50454429Y57044403D01*
X50454431Y57044402D01*
X50491306Y57041500D01*
X50640640Y57041500D01*
X50707679Y57021815D01*
X50728321Y57005181D01*
X51933581Y55799921D01*
X51967066Y55738598D01*
X51969900Y55712240D01*
X51969900Y55195254D01*
X51950215Y55128215D01*
X51902196Y55084770D01*
X51785569Y55025345D01*
X51770234Y55014203D01*
X51594490Y54886517D01*
X51594488Y54886515D01*
X51594487Y54886515D01*
X51427482Y54719510D01*
X51386615Y54663261D01*
X51331285Y54620596D01*
X51299455Y54615904D01*
X50554962Y53871410D01*
X50537925Y53934993D01*
X50472099Y54049007D01*
X50379007Y54142099D01*
X50264993Y54207925D01*
X50201408Y54224963D01*
X50941105Y54964660D01*
X50941104Y54964662D01*
X50858174Y55024913D01*
X50647802Y55132103D01*
X50423247Y55205066D01*
X50423248Y55205066D01*
X50190052Y55242000D01*
X49953948Y55242000D01*
X49720752Y55205066D01*
X49496197Y55132103D01*
X49285824Y55024913D01*
X49190141Y54955395D01*
X49124334Y54931915D01*
X49056281Y54947741D01*
X49017990Y54981401D01*
X48940607Y55084770D01*
X48929546Y55099546D01*
X48929544Y55099547D01*
X48929544Y55099548D01*
X48814335Y55185794D01*
X48814328Y55185798D01*
X48679482Y55236092D01*
X48679483Y55236092D01*
X48619883Y55242499D01*
X48619881Y55242500D01*
X48619873Y55242500D01*
X48619865Y55242500D01*
X48298100Y55242500D01*
X48231061Y55262185D01*
X48185306Y55314989D01*
X48174100Y55366500D01*
X48174100Y55653240D01*
X48182744Y55682681D01*
X48189268Y55712667D01*
X48193022Y55717683D01*
X48193785Y55720279D01*
X48210419Y55740921D01*
X48219079Y55749581D01*
X48280402Y55783066D01*
X48306760Y55785900D01*
X48847266Y55785900D01*
X48847268Y55785900D01*
X49000402Y55826933D01*
X49137698Y55906200D01*
X49249800Y56018302D01*
X49918800Y56687302D01*
X49954766Y56749598D01*
X49998067Y56824598D01*
X50039100Y56977732D01*
X50039100Y57025148D01*
X50058785Y57092187D01*
X50111589Y57137942D01*
X50180747Y57147886D01*
X50226215Y57131883D01*
G37*
%TD.AperFunction*%
%TA.AperFunction,Conductor*%
G36*
X97125735Y75641274D02*
G01*
X97415796Y75623729D01*
X97430657Y75621925D01*
X97712797Y75570220D01*
X97727334Y75566637D01*
X98001171Y75481305D01*
X98015163Y75476000D01*
X98116682Y75430310D01*
X98276735Y75358276D01*
X98289994Y75351317D01*
X98412726Y75277123D01*
X98535464Y75202925D01*
X98547776Y75194427D01*
X98773573Y75017527D01*
X98784781Y75007597D01*
X98987595Y74804782D01*
X98997525Y74793574D01*
X99174422Y74567783D01*
X99182928Y74555460D01*
X99331316Y74309996D01*
X99338275Y74296737D01*
X99455997Y74035169D01*
X99461306Y74021168D01*
X99546635Y73747337D01*
X99550219Y73732799D01*
X99601923Y73450660D01*
X99603728Y73435795D01*
X99621273Y73145754D01*
X99621499Y73138267D01*
X99621499Y3145751D01*
X99621273Y3138264D01*
X99603727Y2848206D01*
X99601922Y2833341D01*
X99550218Y2551203D01*
X99546634Y2536665D01*
X99461303Y2262826D01*
X99455993Y2248824D01*
X99338276Y1987270D01*
X99331318Y1974013D01*
X99182927Y1728542D01*
X99174421Y1716218D01*
X98997525Y1490427D01*
X98987595Y1479219D01*
X98784780Y1276405D01*
X98773572Y1266475D01*
X98547781Y1089578D01*
X98535458Y1081072D01*
X98289995Y932685D01*
X98276736Y925726D01*
X98015167Y808004D01*
X98001166Y802695D01*
X97727335Y717366D01*
X97712797Y713782D01*
X97430659Y662078D01*
X97415794Y660273D01*
X97222701Y648593D01*
X97125711Y642726D01*
X97118239Y642500D01*
X3125751Y642500D01*
X3118264Y642726D01*
X2828205Y660272D01*
X2813340Y662077D01*
X2531201Y713781D01*
X2516663Y717365D01*
X2242832Y802694D01*
X2228831Y808003D01*
X1967263Y925725D01*
X1954004Y932684D01*
X1708540Y1081072D01*
X1696217Y1089578D01*
X1470426Y1266475D01*
X1459218Y1276405D01*
X1256403Y1479219D01*
X1246473Y1490427D01*
X1069577Y1716219D01*
X1061075Y1728536D01*
X920366Y1961296D01*
X912683Y1974006D01*
X905724Y1987265D01*
X788002Y2248833D01*
X782693Y2262834D01*
X774096Y2290422D01*
X697363Y2536666D01*
X693780Y2551203D01*
X642076Y2833341D01*
X640271Y2848206D01*
X626486Y3076106D01*
X622724Y3138288D01*
X622499Y3145762D01*
X622499Y6263289D01*
X4271500Y6263289D01*
X4271500Y6020712D01*
X4303161Y5780215D01*
X4365947Y5545896D01*
X4458773Y5321795D01*
X4458776Y5321788D01*
X4580064Y5111711D01*
X4580066Y5111708D01*
X4580067Y5111707D01*
X4727733Y4919264D01*
X4727739Y4919257D01*
X4899256Y4747740D01*
X4899262Y4747735D01*
X5091711Y4600064D01*
X5301788Y4478776D01*
X5525900Y4385946D01*
X5760211Y4323162D01*
X5940586Y4299416D01*
X6000711Y4291500D01*
X6000712Y4291500D01*
X6243289Y4291500D01*
X6291388Y4297833D01*
X6483789Y4323162D01*
X6718100Y4385946D01*
X6942212Y4478776D01*
X7152289Y4600064D01*
X7344738Y4747735D01*
X7516265Y4919262D01*
X7663936Y5111711D01*
X7785224Y5321788D01*
X7878054Y5545900D01*
X7940838Y5780211D01*
X7972500Y6020712D01*
X7972500Y6263288D01*
X7940838Y6503789D01*
X7878054Y6738100D01*
X7785224Y6962212D01*
X7663936Y7172289D01*
X7603018Y7251679D01*
X7516266Y7364737D01*
X7516260Y7364744D01*
X7344743Y7536261D01*
X7344736Y7536267D01*
X7152293Y7683933D01*
X7152292Y7683934D01*
X7152289Y7683936D01*
X6942212Y7805224D01*
X6942205Y7805227D01*
X6718104Y7898053D01*
X6600944Y7929446D01*
X6483789Y7960838D01*
X6483788Y7960839D01*
X6483785Y7960839D01*
X6243289Y7992500D01*
X6243288Y7992500D01*
X6000712Y7992500D01*
X6000711Y7992500D01*
X5760214Y7960839D01*
X5525895Y7898053D01*
X5301794Y7805227D01*
X5301785Y7805223D01*
X5091706Y7683933D01*
X4899263Y7536267D01*
X4899256Y7536261D01*
X4727739Y7364744D01*
X4727733Y7364737D01*
X4580067Y7172294D01*
X4458777Y6962215D01*
X4458773Y6962206D01*
X4365947Y6738105D01*
X4303161Y6503786D01*
X4271500Y6263289D01*
X622499Y6263289D01*
X622499Y45799268D01*
X9049900Y45799268D01*
X9049900Y20367732D01*
X9059661Y20331304D01*
X9090933Y20214597D01*
X9090934Y20214596D01*
X9157731Y20098900D01*
X9157733Y20098896D01*
X9170198Y20077305D01*
X9170201Y20077300D01*
X10092202Y19155300D01*
X11012700Y18234802D01*
X11124802Y18122700D01*
X11262098Y18043433D01*
X11415232Y18002400D01*
X11859219Y18002400D01*
X11926258Y17982715D01*
X11964757Y17943497D01*
X12054288Y17798344D01*
X12178344Y17674288D01*
X12327666Y17582186D01*
X12434904Y17546651D01*
X12492349Y17506878D01*
X12519172Y17442362D01*
X12519900Y17428945D01*
X12519900Y5848732D01*
X12560933Y5695598D01*
X12640200Y5558302D01*
X14108302Y4090200D01*
X14245599Y4010932D01*
X14398732Y3969900D01*
X14398735Y3969900D01*
X25352266Y3969900D01*
X25352268Y3969900D01*
X25505402Y4010933D01*
X25642698Y4090200D01*
X25754800Y4202302D01*
X27815787Y6263289D01*
X92271500Y6263289D01*
X92271500Y6020712D01*
X92303161Y5780215D01*
X92365947Y5545896D01*
X92458773Y5321795D01*
X92458776Y5321788D01*
X92580064Y5111711D01*
X92580066Y5111708D01*
X92580067Y5111707D01*
X92727733Y4919264D01*
X92727739Y4919257D01*
X92899256Y4747740D01*
X92899262Y4747735D01*
X93091711Y4600064D01*
X93301788Y4478776D01*
X93525900Y4385946D01*
X93760211Y4323162D01*
X93940586Y4299416D01*
X94000711Y4291500D01*
X94000712Y4291500D01*
X94243289Y4291500D01*
X94291388Y4297833D01*
X94483789Y4323162D01*
X94718100Y4385946D01*
X94942212Y4478776D01*
X95152289Y4600064D01*
X95344738Y4747735D01*
X95516265Y4919262D01*
X95663936Y5111711D01*
X95785224Y5321788D01*
X95878054Y5545900D01*
X95940838Y5780211D01*
X95972500Y6020712D01*
X95972500Y6263288D01*
X95940838Y6503789D01*
X95878054Y6738100D01*
X95785224Y6962212D01*
X95663936Y7172289D01*
X95603018Y7251679D01*
X95516266Y7364737D01*
X95516260Y7364744D01*
X95344743Y7536261D01*
X95344736Y7536267D01*
X95152293Y7683933D01*
X95152292Y7683934D01*
X95152289Y7683936D01*
X94942212Y7805224D01*
X94942205Y7805227D01*
X94718104Y7898053D01*
X94600944Y7929446D01*
X94483789Y7960838D01*
X94483788Y7960839D01*
X94483785Y7960839D01*
X94243289Y7992500D01*
X94243288Y7992500D01*
X94000712Y7992500D01*
X94000711Y7992500D01*
X93760214Y7960839D01*
X93525895Y7898053D01*
X93301794Y7805227D01*
X93301785Y7805223D01*
X93091706Y7683933D01*
X92899263Y7536267D01*
X92899256Y7536261D01*
X92727739Y7364744D01*
X92727733Y7364737D01*
X92580067Y7172294D01*
X92458777Y6962215D01*
X92458773Y6962206D01*
X92365947Y6738105D01*
X92303161Y6503786D01*
X92271500Y6263289D01*
X27815787Y6263289D01*
X32344079Y10791581D01*
X32405402Y10825066D01*
X32431760Y10827900D01*
X33877528Y10827900D01*
X33944567Y10808215D01*
X33965204Y10791586D01*
X34017835Y10738955D01*
X34065093Y10691697D01*
X34220762Y10587682D01*
X34220768Y10587679D01*
X34220769Y10587678D01*
X34393749Y10516027D01*
X34577379Y10479501D01*
X34577383Y10479500D01*
X34577384Y10479500D01*
X34764617Y10479500D01*
X34764618Y10479501D01*
X34948251Y10516027D01*
X35121231Y10587678D01*
X35276908Y10691698D01*
X35409302Y10824092D01*
X35462874Y10904268D01*
X35492798Y10949052D01*
X35546410Y10993857D01*
X35615735Y11002564D01*
X35678763Y10972410D01*
X35715482Y10912967D01*
X35719900Y10880161D01*
X35719900Y9758581D01*
X35760933Y9605447D01*
X35840200Y9468151D01*
X37180551Y8127800D01*
X37317847Y8048533D01*
X37470981Y8007500D01*
X37470983Y8007500D01*
X60758866Y8007500D01*
X60758868Y8007500D01*
X60912002Y8048533D01*
X61049298Y8127800D01*
X61161400Y8239902D01*
X61181551Y8260053D01*
X76122000Y8260053D01*
X76122000Y8023948D01*
X76158934Y7790753D01*
X76231897Y7566198D01*
X76339087Y7355826D01*
X76399338Y7272896D01*
X76399340Y7272895D01*
X77139037Y8012592D01*
X77156075Y7949007D01*
X77221901Y7834993D01*
X77314993Y7741901D01*
X77429007Y7676075D01*
X77492590Y7659038D01*
X76752893Y6919342D01*
X76835828Y6859086D01*
X77046197Y6751898D01*
X77270752Y6678935D01*
X77270751Y6678935D01*
X77503948Y6642000D01*
X77740052Y6642000D01*
X77973247Y6678935D01*
X78197802Y6751898D01*
X78408163Y6859082D01*
X78408169Y6859086D01*
X78491104Y6919342D01*
X78491105Y6919342D01*
X77751408Y7659038D01*
X77814993Y7676075D01*
X77929007Y7741901D01*
X78022099Y7834993D01*
X78087925Y7949007D01*
X78104962Y8012591D01*
X78844658Y7272895D01*
X78844658Y7272896D01*
X78904914Y7355831D01*
X78904918Y7355837D01*
X79012102Y7566198D01*
X79085065Y7790753D01*
X79122000Y8023948D01*
X79122000Y8260053D01*
X79085065Y8493248D01*
X79012102Y8717803D01*
X78904914Y8928172D01*
X78844658Y9011106D01*
X78844658Y9011107D01*
X78104962Y8271410D01*
X78087925Y8334993D01*
X78022099Y8449007D01*
X77929007Y8542099D01*
X77814993Y8607925D01*
X77751409Y8624963D01*
X78491105Y9364660D01*
X78491104Y9364662D01*
X78408174Y9424913D01*
X78197802Y9532103D01*
X77973247Y9605066D01*
X77973248Y9605066D01*
X77740052Y9642000D01*
X77503948Y9642000D01*
X77270752Y9605066D01*
X77046197Y9532103D01*
X76835830Y9424916D01*
X76752894Y9364660D01*
X77492591Y8624963D01*
X77429007Y8607925D01*
X77314993Y8542099D01*
X77221901Y8449007D01*
X77156075Y8334993D01*
X77139037Y8271409D01*
X76399340Y9011106D01*
X76339084Y8928170D01*
X76231897Y8717803D01*
X76158934Y8493248D01*
X76122000Y8260053D01*
X61181551Y8260053D01*
X64947849Y12026351D01*
X77417000Y12026351D01*
X77419899Y11989511D01*
X77419900Y11989505D01*
X77465716Y11831807D01*
X77465717Y11831804D01*
X77549314Y11690448D01*
X77549321Y11690439D01*
X77665438Y11574322D01*
X77665447Y11574315D01*
X77806801Y11490719D01*
X77964514Y11444900D01*
X77964511Y11444900D01*
X77966998Y11444705D01*
X77967000Y11444705D01*
X77967000Y12667000D01*
X77417000Y12667000D01*
X77417000Y12026351D01*
X64947849Y12026351D01*
X65491079Y12569581D01*
X65552402Y12603066D01*
X65578760Y12605900D01*
X75362475Y12605900D01*
X75362477Y12605900D01*
X75515611Y12646933D01*
X75652907Y12726200D01*
X75765009Y12838302D01*
X77020288Y14093581D01*
X77047215Y14108285D01*
X77073034Y14124877D01*
X77079234Y14125769D01*
X77081611Y14127066D01*
X77107969Y14129900D01*
X77337666Y14129900D01*
X77404705Y14110215D01*
X77450460Y14057411D01*
X77460404Y13988253D01*
X77456743Y13971305D01*
X77419899Y13844488D01*
X77417000Y13807650D01*
X77417000Y13167000D01*
X78093000Y13167000D01*
X78160039Y13147315D01*
X78205794Y13094511D01*
X78217000Y13043000D01*
X78217000Y12917000D01*
X78343000Y12917000D01*
X78410039Y12897315D01*
X78455794Y12844511D01*
X78467000Y12793000D01*
X78467000Y11444705D01*
X78467001Y11444705D01*
X78469486Y11444900D01*
X78627198Y11490719D01*
X78697779Y11532460D01*
X78765502Y11549643D01*
X78831765Y11527483D01*
X78875529Y11473017D01*
X78884900Y11425728D01*
X78884900Y11197732D01*
X78903489Y11128360D01*
X78925933Y11044597D01*
X78925934Y11044596D01*
X78934706Y11029402D01*
X78981588Y10948200D01*
X79001929Y10912967D01*
X79005199Y10907304D01*
X79005201Y10907301D01*
X81168645Y8743857D01*
X81202130Y8682534D01*
X81198895Y8617859D01*
X81158447Y8493372D01*
X81121500Y8260098D01*
X81121500Y8023903D01*
X81158446Y7790632D01*
X81231433Y7566004D01*
X81256910Y7516004D01*
X81338657Y7355567D01*
X81477483Y7164490D01*
X81644490Y6997483D01*
X81835567Y6858657D01*
X81932856Y6809086D01*
X82046003Y6751434D01*
X82046005Y6751434D01*
X82046008Y6751432D01*
X82087040Y6738100D01*
X82270631Y6678447D01*
X82503903Y6641500D01*
X82503908Y6641500D01*
X82740097Y6641500D01*
X82973368Y6678447D01*
X83044114Y6701434D01*
X83197992Y6751432D01*
X83408433Y6858657D01*
X83599510Y6997483D01*
X83766517Y7164490D01*
X83905343Y7355567D01*
X84012568Y7566008D01*
X84085553Y7790632D01*
X84112511Y7960838D01*
X84122500Y8023903D01*
X84122500Y8260098D01*
X84085553Y8493369D01*
X84024089Y8682534D01*
X84012568Y8717992D01*
X84012566Y8717995D01*
X84012566Y8717997D01*
X83905477Y8928170D01*
X83905343Y8928433D01*
X83766517Y9119510D01*
X83599510Y9286517D01*
X83408433Y9425343D01*
X83397527Y9430900D01*
X83197996Y9532567D01*
X82973368Y9605554D01*
X82740097Y9642500D01*
X82740092Y9642500D01*
X82503908Y9642500D01*
X82503903Y9642500D01*
X82270628Y9605553D01*
X82146141Y9565105D01*
X82076300Y9563110D01*
X82020143Y9595355D01*
X80376091Y11239407D01*
X80342606Y11300730D01*
X80347590Y11370422D01*
X80389462Y11426355D01*
X80454926Y11450772D01*
X80498367Y11446164D01*
X80504431Y11444402D01*
X80541306Y11441500D01*
X80541314Y11441500D01*
X80972686Y11441500D01*
X80972694Y11441500D01*
X81009569Y11444402D01*
X81009571Y11444403D01*
X81009573Y11444403D01*
X81051191Y11456495D01*
X81167398Y11490256D01*
X81308865Y11573919D01*
X81308870Y11573925D01*
X81315031Y11578702D01*
X81316933Y11576250D01*
X81365579Y11602845D01*
X81435274Y11597896D01*
X81467695Y11577060D01*
X81468969Y11578702D01*
X81475132Y11573922D01*
X81475135Y11573919D01*
X81616602Y11490256D01*
X81624567Y11487942D01*
X81774426Y11444403D01*
X81774429Y11444403D01*
X81774431Y11444402D01*
X81811306Y11441500D01*
X81811314Y11441500D01*
X82242686Y11441500D01*
X82242694Y11441500D01*
X82279569Y11444402D01*
X82279571Y11444403D01*
X82279573Y11444403D01*
X82321191Y11456495D01*
X82437398Y11490256D01*
X82578865Y11573919D01*
X82695081Y11690135D01*
X82778744Y11831602D01*
X82824598Y11989431D01*
X82827500Y12026306D01*
X82827500Y13807694D01*
X82824598Y13844569D01*
X82824153Y13846100D01*
X82787424Y13972521D01*
X82778744Y14002398D01*
X82695081Y14143865D01*
X82695079Y14143867D01*
X82695076Y14143871D01*
X82578870Y14260077D01*
X82578861Y14260084D01*
X82430684Y14347715D01*
X82431239Y14348655D01*
X82401905Y14368592D01*
X81582946Y15187551D01*
X81556697Y15213800D01*
X81470270Y15263698D01*
X81442609Y15279668D01*
X83621500Y15279668D01*
X83621500Y15004333D01*
X83621501Y15004316D01*
X83657438Y14731345D01*
X83657439Y14731340D01*
X83657440Y14731334D01*
X83670838Y14681332D01*
X83728704Y14465370D01*
X83834075Y14210983D01*
X83834080Y14210972D01*
X83883273Y14125769D01*
X83971751Y13972521D01*
X83971753Y13972518D01*
X83971754Y13972517D01*
X84139370Y13754074D01*
X84139376Y13754067D01*
X84334066Y13559377D01*
X84334073Y13559371D01*
X84399235Y13509371D01*
X84552521Y13391751D01*
X84705778Y13303268D01*
X84790971Y13254081D01*
X84790976Y13254079D01*
X84790979Y13254077D01*
X85045368Y13148705D01*
X85311334Y13077440D01*
X85584326Y13041500D01*
X85584333Y13041500D01*
X85859667Y13041500D01*
X85859674Y13041500D01*
X86132666Y13077440D01*
X86398632Y13148705D01*
X86653021Y13254077D01*
X86891479Y13391751D01*
X87109928Y13559372D01*
X87304628Y13754072D01*
X87472249Y13972521D01*
X87609172Y14209679D01*
X87609919Y14210972D01*
X87609919Y14210973D01*
X87609923Y14210979D01*
X87715295Y14465368D01*
X87786560Y14731334D01*
X87822500Y15004326D01*
X87822500Y15279674D01*
X87786560Y15552666D01*
X87715295Y15818632D01*
X87609923Y16073021D01*
X87609921Y16073024D01*
X87609919Y16073029D01*
X87527084Y16216502D01*
X87472249Y16311479D01*
X87357781Y16460657D01*
X87304629Y16529927D01*
X87304623Y16529934D01*
X87109933Y16724624D01*
X87109926Y16724630D01*
X86891483Y16892246D01*
X86891482Y16892247D01*
X86891479Y16892249D01*
X86778345Y16957567D01*
X86653028Y17029920D01*
X86653017Y17029925D01*
X86398630Y17135296D01*
X86264348Y17171276D01*
X86132666Y17206560D01*
X86132660Y17206561D01*
X86132655Y17206562D01*
X85859684Y17242499D01*
X85859679Y17242500D01*
X85859674Y17242500D01*
X85584326Y17242500D01*
X85584320Y17242500D01*
X85584315Y17242499D01*
X85311344Y17206562D01*
X85311337Y17206561D01*
X85311334Y17206560D01*
X85268994Y17195215D01*
X85045369Y17135296D01*
X84790982Y17029925D01*
X84790971Y17029920D01*
X84552516Y16892246D01*
X84334073Y16724630D01*
X84334066Y16724624D01*
X84139376Y16529934D01*
X84139370Y16529927D01*
X83971754Y16311484D01*
X83834080Y16073029D01*
X83834075Y16073018D01*
X83728704Y15818631D01*
X83657441Y15552669D01*
X83657438Y15552656D01*
X83621501Y15279685D01*
X83621500Y15279668D01*
X81442609Y15279668D01*
X81419403Y15293066D01*
X81419402Y15293067D01*
X81368356Y15306745D01*
X81266267Y15334100D01*
X76886477Y15334100D01*
X76727941Y15334100D01*
X76724079Y15334100D01*
X76657040Y15353785D01*
X76611285Y15406589D01*
X76601140Y15441915D01*
X76586560Y15552666D01*
X76515295Y15818632D01*
X76515291Y15818642D01*
X76514748Y15820242D01*
X76514726Y15820753D01*
X76514244Y15822554D01*
X76514647Y15822663D01*
X76511840Y15890051D01*
X76547134Y15950351D01*
X76609427Y15981997D01*
X76632168Y15984100D01*
X81800465Y15984100D01*
X81800467Y15984100D01*
X81953601Y16025133D01*
X82090897Y16104400D01*
X82202999Y16216502D01*
X82401908Y16415413D01*
X82431238Y16435343D01*
X82430682Y16436284D01*
X82480527Y16465763D01*
X82578865Y16523919D01*
X82695081Y16640135D01*
X82778744Y16781602D01*
X82821219Y16927800D01*
X82824597Y16939427D01*
X82824598Y16939433D01*
X82827499Y16976299D01*
X82827500Y16976306D01*
X82827500Y18757694D01*
X82824598Y18794569D01*
X82793270Y18902398D01*
X82778745Y18952394D01*
X82778744Y18952397D01*
X82778744Y18952398D01*
X82695081Y19093865D01*
X82695079Y19093867D01*
X82695076Y19093871D01*
X82578870Y19210077D01*
X82578862Y19210083D01*
X82460536Y19280060D01*
X82437398Y19293744D01*
X82437397Y19293745D01*
X82437396Y19293745D01*
X82437393Y19293746D01*
X82279573Y19339598D01*
X82279567Y19339599D01*
X82242701Y19342500D01*
X82242694Y19342500D01*
X81834360Y19342500D01*
X81813114Y19348739D01*
X81791026Y19350318D01*
X81780242Y19358391D01*
X81767321Y19362185D01*
X81752821Y19378919D01*
X81735093Y19392190D01*
X81730385Y19404811D01*
X81721566Y19414989D01*
X81718414Y19436907D01*
X81710676Y19457654D01*
X81713538Y19470815D01*
X81711622Y19484147D01*
X81720821Y19504291D01*
X81725528Y19525927D01*
X81738796Y19543653D01*
X81740647Y19547703D01*
X81746679Y19554181D01*
X81747079Y19554581D01*
X81808402Y19588066D01*
X81834760Y19590900D01*
X82375266Y19590900D01*
X82375268Y19590900D01*
X82528402Y19631933D01*
X82665698Y19711200D01*
X82777800Y19823302D01*
X83103800Y20149302D01*
X83183068Y20286599D01*
X83224100Y20439732D01*
X83224100Y20598268D01*
X83224100Y21017501D01*
X83243785Y21084540D01*
X83296589Y21130295D01*
X83348100Y21141501D01*
X83669871Y21141501D01*
X83669872Y21141501D01*
X83729483Y21147909D01*
X83864331Y21198204D01*
X83979546Y21284454D01*
X84065796Y21399669D01*
X84116091Y21534517D01*
X84122500Y21594127D01*
X84122499Y23689872D01*
X84116091Y23749483D01*
X84111675Y23761322D01*
X84065797Y23884329D01*
X84065793Y23884336D01*
X83979547Y23999545D01*
X83979544Y23999548D01*
X83864335Y24085794D01*
X83864328Y24085798D01*
X83729482Y24136092D01*
X83729483Y24136092D01*
X83669883Y24142499D01*
X83669881Y24142500D01*
X83669873Y24142500D01*
X83669864Y24142500D01*
X81574129Y24142500D01*
X81574123Y24142499D01*
X81514516Y24136092D01*
X81379671Y24085798D01*
X81379664Y24085794D01*
X81264455Y23999548D01*
X81176009Y23881401D01*
X81120075Y23839531D01*
X81050383Y23834547D01*
X81003858Y23855395D01*
X80908174Y23924913D01*
X80697802Y24032103D01*
X80473247Y24105066D01*
X80473248Y24105066D01*
X80240052Y24142000D01*
X80003948Y24142000D01*
X79770752Y24105066D01*
X79546197Y24032103D01*
X79335830Y23924916D01*
X79252894Y23864660D01*
X79992591Y23124963D01*
X79929007Y23107925D01*
X79814993Y23042099D01*
X79721901Y22949007D01*
X79656075Y22834993D01*
X79639037Y22771410D01*
X78892727Y23517720D01*
X78849052Y23526895D01*
X78807384Y23563261D01*
X78766517Y23619510D01*
X78599510Y23786517D01*
X78408433Y23925343D01*
X78360928Y23949548D01*
X78197996Y24032567D01*
X77973368Y24105554D01*
X77740097Y24142500D01*
X77740092Y24142500D01*
X77503908Y24142500D01*
X77503903Y24142500D01*
X77270631Y24105554D01*
X77046003Y24032567D01*
X76835566Y23925343D01*
X76779119Y23884331D01*
X76644490Y23786517D01*
X76644488Y23786515D01*
X76644487Y23786515D01*
X76477485Y23619513D01*
X76477485Y23619512D01*
X76477483Y23619510D01*
X76424843Y23547058D01*
X76338657Y23428434D01*
X76231433Y23217997D01*
X76158446Y22993369D01*
X76121500Y22760098D01*
X76121500Y22523903D01*
X76158446Y22290632D01*
X76231433Y22066004D01*
X76304162Y21923267D01*
X76338657Y21855567D01*
X76477483Y21664490D01*
X76644490Y21497483D01*
X76713305Y21447486D01*
X76835568Y21358656D01*
X76918389Y21316457D01*
X76946378Y21302196D01*
X76952194Y21299233D01*
X77002990Y21251259D01*
X77019900Y21188748D01*
X77019900Y20850732D01*
X77034807Y20795100D01*
X77060933Y20697598D01*
X77077599Y20668732D01*
X77077600Y20668730D01*
X77140199Y20560304D01*
X77140201Y20560301D01*
X78146321Y19554181D01*
X78179806Y19492858D01*
X78174822Y19423166D01*
X78132950Y19367233D01*
X78067486Y19342816D01*
X78058640Y19342500D01*
X78001298Y19342500D01*
X77964432Y19339599D01*
X77964426Y19339598D01*
X77806606Y19293746D01*
X77806603Y19293745D01*
X77665137Y19210083D01*
X77665129Y19210077D01*
X77548923Y19093871D01*
X77548917Y19093863D01*
X77465255Y18952397D01*
X77465254Y18952394D01*
X77419402Y18794574D01*
X77419401Y18794568D01*
X77416500Y18757702D01*
X77416500Y18593100D01*
X77396815Y18526061D01*
X77344011Y18480306D01*
X77292500Y18469100D01*
X76921760Y18469100D01*
X76854721Y18488785D01*
X76834079Y18505419D01*
X76078199Y19261299D01*
X76078198Y19261300D01*
X76024157Y19292500D01*
X76024157Y19292501D01*
X76024155Y19292501D01*
X76022000Y19293745D01*
X75955834Y19331946D01*
X75940904Y19340566D01*
X75940903Y19340567D01*
X75860224Y19362185D01*
X75787768Y19381600D01*
X75787766Y19381600D01*
X75609464Y19381600D01*
X75602568Y19383625D01*
X75595486Y19382390D01*
X75569483Y19393340D01*
X75542425Y19401285D01*
X75536148Y19407378D01*
X75531093Y19409506D01*
X75514789Y19428108D01*
X75507195Y19435479D01*
X75505501Y19437949D01*
X75442340Y19540350D01*
X75419911Y19562779D01*
X75413429Y19572233D01*
X75406003Y19594989D01*
X75394532Y19615996D01*
X75395361Y19627598D01*
X75391753Y19638655D01*
X75397808Y19661813D01*
X75399516Y19685688D01*
X75407162Y19697587D01*
X75409429Y19706252D01*
X75417513Y19713691D01*
X75428021Y19730040D01*
X75441947Y19743965D01*
X75532448Y19890689D01*
X75532453Y19890700D01*
X75586680Y20054348D01*
X75596999Y20155346D01*
X75597000Y20155359D01*
X75597000Y20254500D01*
X73647001Y20254500D01*
X73647001Y20155346D01*
X73657319Y20054348D01*
X73711546Y19890700D01*
X73711551Y19890689D01*
X73802052Y19743966D01*
X73802055Y19743962D01*
X73815982Y19730035D01*
X73849467Y19668712D01*
X73844483Y19599020D01*
X73815984Y19554675D01*
X73801661Y19540352D01*
X73711093Y19393519D01*
X73711091Y19393514D01*
X73693225Y19339598D01*
X73677619Y19292500D01*
X73677319Y19291596D01*
X73663448Y19271564D01*
X73653326Y19249397D01*
X73643913Y19243349D01*
X73637546Y19234151D01*
X73615047Y19224798D01*
X73594548Y19211623D01*
X73577446Y19209165D01*
X73573030Y19207328D01*
X73559613Y19206600D01*
X73384781Y19206600D01*
X73317742Y19226285D01*
X73279242Y19265504D01*
X73246986Y19317800D01*
X73189712Y19410656D01*
X73065656Y19534712D01*
X73062342Y19536757D01*
X73060546Y19538752D01*
X73059989Y19539193D01*
X73060064Y19539289D01*
X73015618Y19588703D01*
X73004397Y19657666D01*
X73032240Y19721748D01*
X73062348Y19747835D01*
X73065342Y19749682D01*
X73189315Y19873655D01*
X73281356Y20022876D01*
X73281358Y20022881D01*
X73336505Y20189303D01*
X73336506Y20189310D01*
X73346999Y20292014D01*
X73347000Y20292027D01*
X73347000Y20429500D01*
X70897001Y20429500D01*
X70897001Y20292014D01*
X70907494Y20189303D01*
X70962641Y20022881D01*
X70962643Y20022876D01*
X71054684Y19873655D01*
X71178655Y19749684D01*
X71178659Y19749681D01*
X71181656Y19747832D01*
X71183279Y19746028D01*
X71184323Y19745202D01*
X71184181Y19745024D01*
X71228381Y19695884D01*
X71239602Y19626921D01*
X71211759Y19562839D01*
X71181661Y19536759D01*
X71178349Y19534717D01*
X71178343Y19534712D01*
X71054288Y19410657D01*
X71054287Y19410655D01*
X70964758Y19265504D01*
X70912810Y19218779D01*
X70859219Y19206600D01*
X68182232Y19206600D01*
X68110925Y19187493D01*
X68029096Y19165567D01*
X68029091Y19165565D01*
X67904904Y19093865D01*
X67904903Y19093864D01*
X67891805Y19086303D01*
X67891800Y19086299D01*
X59730921Y10925419D01*
X59669598Y10891934D01*
X59643240Y10889100D01*
X40178760Y10889100D01*
X40149319Y10897745D01*
X40119333Y10904268D01*
X40114317Y10908023D01*
X40111721Y10908785D01*
X40091079Y10925419D01*
X39975819Y11040679D01*
X39942334Y11102002D01*
X39939500Y11128360D01*
X39939500Y11269617D01*
X39939499Y11269621D01*
X39926219Y11336384D01*
X39902973Y11453251D01*
X39831322Y11626231D01*
X39831321Y11626232D01*
X39831318Y11626238D01*
X39727302Y11781908D01*
X39727299Y11781912D01*
X39594911Y11914300D01*
X39594907Y11914303D01*
X39439237Y12018319D01*
X39439228Y12018324D01*
X39266251Y12089973D01*
X39266243Y12089975D01*
X39082620Y12126500D01*
X39082616Y12126500D01*
X38895384Y12126500D01*
X38895379Y12126500D01*
X38711756Y12089975D01*
X38711748Y12089973D01*
X38538771Y12018324D01*
X38538762Y12018319D01*
X38383092Y11914303D01*
X38383088Y11914300D01*
X38250700Y11781912D01*
X38250697Y11781908D01*
X38167202Y11656949D01*
X38113590Y11612144D01*
X38044265Y11603437D01*
X37981237Y11633592D01*
X37944518Y11693035D01*
X37940100Y11725840D01*
X37940100Y15344705D01*
X37959785Y15411744D01*
X37960998Y15413596D01*
X38053318Y15551763D01*
X38053318Y15551764D01*
X38053322Y15551769D01*
X38124973Y15724749D01*
X38161500Y15908384D01*
X38161500Y16095616D01*
X38124973Y16279251D01*
X38068575Y16415408D01*
X38053323Y16452229D01*
X38053318Y16452238D01*
X37949302Y16607908D01*
X37949299Y16607912D01*
X37940918Y16616293D01*
X37907433Y16677616D01*
X37912417Y16747308D01*
X37954289Y16803241D01*
X37996500Y16823747D01*
X38089002Y16848533D01*
X38226298Y16927800D01*
X38338400Y17039902D01*
X39597800Y18299302D01*
X40630445Y19331947D01*
X40709713Y19469244D01*
X40750745Y19622377D01*
X40750745Y19780913D01*
X40750745Y23470728D01*
X40770430Y23537767D01*
X40787059Y23558405D01*
X40886947Y23658292D01*
X40990967Y23813969D01*
X41062618Y23986949D01*
X41099145Y24170584D01*
X41099145Y24292900D01*
X41118830Y24359939D01*
X41171634Y24405694D01*
X41223145Y24416900D01*
X44261561Y24416900D01*
X44328600Y24397215D01*
X44374355Y24344411D01*
X44384299Y24275253D01*
X44368294Y24229780D01*
X44316317Y24141891D01*
X44316317Y24141890D01*
X44271346Y23987103D01*
X44271345Y23987097D01*
X44268500Y23950943D01*
X44268500Y23547078D01*
X44268501Y23547053D01*
X44271346Y23510902D01*
X44316317Y23356111D01*
X44316320Y23356104D01*
X44398369Y23217364D01*
X44398378Y23217352D01*
X44512351Y23103379D01*
X44512355Y23103376D01*
X44512357Y23103374D01*
X44512360Y23103373D01*
X44512363Y23103370D01*
X44589208Y23057925D01*
X44651106Y23021319D01*
X44691928Y23009459D01*
X44805897Y22976347D01*
X44805900Y22976347D01*
X44805902Y22976346D01*
X44842065Y22973500D01*
X46695934Y22973501D01*
X46732098Y22976346D01*
X46886894Y23021319D01*
X47025643Y23103374D01*
X47139626Y23217357D01*
X47221681Y23356106D01*
X47266654Y23510902D01*
X47269500Y23547065D01*
X47269499Y23950934D01*
X47266654Y23987098D01*
X47221681Y24141894D01*
X47169706Y24229780D01*
X47152525Y24297504D01*
X47174685Y24363766D01*
X47229151Y24407529D01*
X47276439Y24416900D01*
X51006266Y24416900D01*
X51006268Y24416900D01*
X51159402Y24457933D01*
X51296698Y24537200D01*
X51408800Y24649302D01*
X51807678Y25048182D01*
X51869001Y25081666D01*
X51895359Y25084500D01*
X52036617Y25084500D01*
X52036618Y25084501D01*
X52220251Y25121027D01*
X52393231Y25192678D01*
X52548908Y25296698D01*
X52681302Y25429092D01*
X52785322Y25584769D01*
X52856973Y25757749D01*
X52893500Y25941384D01*
X52893500Y26128616D01*
X52856973Y26312251D01*
X52785322Y26485231D01*
X52785321Y26485232D01*
X52785318Y26485238D01*
X52681302Y26640908D01*
X52681299Y26640912D01*
X52637837Y26684374D01*
X52604352Y26745697D01*
X52609336Y26815389D01*
X52651208Y26871322D01*
X52701326Y26893672D01*
X52728251Y26899027D01*
X52901231Y26970678D01*
X53056908Y27074698D01*
X53189302Y27207092D01*
X53293322Y27362769D01*
X53293323Y27362772D01*
X53293325Y27362775D01*
X53329939Y27451171D01*
X53373779Y27505575D01*
X53440073Y27527640D01*
X53507773Y27510361D01*
X53555383Y27459224D01*
X53568500Y27403722D01*
X53568500Y27357080D01*
X53568501Y27357053D01*
X53571346Y27320902D01*
X53616317Y27166111D01*
X53616320Y27166104D01*
X53698369Y27027364D01*
X53698378Y27027352D01*
X53714049Y27011681D01*
X53747534Y26950358D01*
X53742550Y26880666D01*
X53714049Y26836319D01*
X53698378Y26820649D01*
X53698369Y26820637D01*
X53616320Y26681897D01*
X53616317Y26681890D01*
X53571346Y26527103D01*
X53571345Y26527097D01*
X53568500Y26490943D01*
X53568500Y26087078D01*
X53568501Y26087053D01*
X53571346Y26050902D01*
X53616317Y25896111D01*
X53616320Y25896104D01*
X53698369Y25757364D01*
X53698378Y25757352D01*
X53714049Y25741681D01*
X53747534Y25680358D01*
X53742550Y25610666D01*
X53714049Y25566319D01*
X53698378Y25550649D01*
X53698369Y25550637D01*
X53616320Y25411897D01*
X53616317Y25411890D01*
X53571346Y25257103D01*
X53571345Y25257097D01*
X53568500Y25220943D01*
X53568500Y24817078D01*
X53568501Y24817053D01*
X53571346Y24780902D01*
X53616317Y24626111D01*
X53616320Y24626104D01*
X53698369Y24487364D01*
X53698378Y24487352D01*
X53714049Y24471681D01*
X53747534Y24410358D01*
X53742550Y24340666D01*
X53714049Y24296319D01*
X53698378Y24280649D01*
X53698369Y24280637D01*
X53616320Y24141897D01*
X53616317Y24141890D01*
X53571346Y23987103D01*
X53571345Y23987097D01*
X53568500Y23950943D01*
X53568500Y23547078D01*
X53568501Y23547053D01*
X53571346Y23510902D01*
X53616317Y23356111D01*
X53616320Y23356104D01*
X53698369Y23217364D01*
X53698378Y23217352D01*
X53812351Y23103379D01*
X53812355Y23103376D01*
X53812357Y23103374D01*
X53812360Y23103373D01*
X53812363Y23103370D01*
X53889208Y23057925D01*
X53951106Y23021319D01*
X53991928Y23009459D01*
X54105897Y22976347D01*
X54105900Y22976347D01*
X54105902Y22976346D01*
X54142065Y22973500D01*
X55995934Y22973501D01*
X56032098Y22976346D01*
X56186894Y23021319D01*
X56325643Y23103374D01*
X56439626Y23217357D01*
X56521681Y23356106D01*
X56566654Y23510902D01*
X56569500Y23547065D01*
X56569499Y23950934D01*
X56566654Y23987098D01*
X56521681Y24141894D01*
X56439626Y24280643D01*
X56423952Y24296317D01*
X56390465Y24357639D01*
X56395448Y24427331D01*
X56423952Y24471683D01*
X56439626Y24487357D01*
X56521681Y24626106D01*
X56566654Y24780902D01*
X56569500Y24817065D01*
X56569499Y25220934D01*
X56566654Y25257098D01*
X56521681Y25411894D01*
X56439626Y25550643D01*
X56423952Y25566317D01*
X56390465Y25627639D01*
X56395448Y25697331D01*
X56423952Y25741683D01*
X56429584Y25747315D01*
X56439626Y25757357D01*
X56521681Y25896106D01*
X56566654Y26050902D01*
X56569500Y26087065D01*
X56569499Y26490934D01*
X56566654Y26527098D01*
X56521681Y26681894D01*
X56487767Y26739240D01*
X56439630Y26820637D01*
X56439628Y26820639D01*
X56439626Y26820643D01*
X56423952Y26836317D01*
X56390465Y26897639D01*
X56395448Y26967331D01*
X56423952Y27011683D01*
X56439626Y27027357D01*
X56521681Y27166106D01*
X56566654Y27320902D01*
X56569500Y27357065D01*
X56569499Y27760934D01*
X56566654Y27797098D01*
X56521681Y27951894D01*
X56469706Y28039780D01*
X56452525Y28107504D01*
X56474685Y28173766D01*
X56529151Y28217529D01*
X56576439Y28226900D01*
X68287566Y28226900D01*
X68287568Y28226900D01*
X68440702Y28267933D01*
X68577998Y28347200D01*
X68690100Y28459302D01*
X72236800Y32006002D01*
X72241779Y32014626D01*
X72316067Y32143298D01*
X72357100Y32296432D01*
X72357100Y33183453D01*
X72376785Y33250492D01*
X72429589Y33296247D01*
X72498747Y33306191D01*
X72562303Y33277166D01*
X72591583Y33239750D01*
X72642733Y33139363D01*
X72647715Y33129586D01*
X72768028Y32963987D01*
X72768034Y32963981D01*
X72912781Y32819234D01*
X73078390Y32698913D01*
X73090195Y32692899D01*
X73140990Y32644926D01*
X73157900Y32582414D01*
X73157900Y30245762D01*
X73149255Y30216325D01*
X73142732Y30186334D01*
X73138977Y30181319D01*
X73138215Y30178723D01*
X73121580Y30158080D01*
X73075728Y30112229D01*
X73035503Y30085351D01*
X72955774Y30052325D01*
X72955762Y30052319D01*
X72800092Y29948303D01*
X72800088Y29948300D01*
X72667700Y29815912D01*
X72667697Y29815908D01*
X72563681Y29660238D01*
X72563676Y29660229D01*
X72492027Y29487252D01*
X72492025Y29487244D01*
X72455500Y29303621D01*
X72455500Y29116383D01*
X72492025Y28932757D01*
X72492027Y28932749D01*
X72563676Y28759772D01*
X72563681Y28759763D01*
X72667697Y28604093D01*
X72667700Y28604089D01*
X72800088Y28471701D01*
X72800092Y28471698D01*
X72955762Y28367682D01*
X72955775Y28367675D01*
X73005202Y28347202D01*
X73072399Y28319368D01*
X73126802Y28275529D01*
X73148867Y28209235D01*
X73131588Y28141535D01*
X73112627Y28117127D01*
X71233721Y26238219D01*
X71172398Y26204734D01*
X71146040Y26201900D01*
X60477068Y26201900D01*
X60318532Y26201900D01*
X60226652Y26177281D01*
X60165397Y26160868D01*
X60165396Y26160867D01*
X60028105Y26081603D01*
X60028100Y26081599D01*
X55031921Y21085419D01*
X54970598Y21051934D01*
X54944240Y21049100D01*
X45132732Y21049100D01*
X45001087Y21013825D01*
X44979594Y21008066D01*
X44931680Y20980402D01*
X44931679Y20980401D01*
X44842303Y20928801D01*
X44842300Y20928799D01*
X43714201Y19800700D01*
X43714199Y19800697D01*
X43634933Y19663403D01*
X43616601Y19594989D01*
X43593900Y19510268D01*
X43593900Y14017732D01*
X43611461Y13952194D01*
X43634933Y13864597D01*
X43634934Y13864596D01*
X43669302Y13805069D01*
X43669303Y13805066D01*
X43714195Y13727309D01*
X43714199Y13727304D01*
X43714200Y13727302D01*
X44567200Y12874302D01*
X44679302Y12762200D01*
X44816598Y12682933D01*
X44969732Y12641900D01*
X45128268Y12641900D01*
X45588747Y12641900D01*
X45655786Y12622215D01*
X45699232Y12574195D01*
X45758657Y12457567D01*
X45897483Y12266490D01*
X46064490Y12099483D01*
X46255567Y11960657D01*
X46354991Y11909998D01*
X46466003Y11853434D01*
X46466005Y11853434D01*
X46466008Y11853432D01*
X46533194Y11831602D01*
X46690631Y11780447D01*
X46923903Y11743500D01*
X46923908Y11743500D01*
X47160097Y11743500D01*
X47393368Y11780447D01*
X47397877Y11781912D01*
X47617992Y11853432D01*
X47828433Y11960657D01*
X48019510Y12099483D01*
X48186517Y12266490D01*
X48325343Y12457567D01*
X48384768Y12574195D01*
X48432743Y12624991D01*
X48495253Y12641900D01*
X52088747Y12641900D01*
X52155786Y12622215D01*
X52199232Y12574195D01*
X52258657Y12457567D01*
X52397483Y12266490D01*
X52564490Y12099483D01*
X52755567Y11960657D01*
X52854991Y11909998D01*
X52966003Y11853434D01*
X52966005Y11853434D01*
X52966008Y11853432D01*
X53033194Y11831602D01*
X53190631Y11780447D01*
X53423903Y11743500D01*
X53423908Y11743500D01*
X53660097Y11743500D01*
X53893368Y11780447D01*
X53897877Y11781912D01*
X54117992Y11853432D01*
X54328433Y11960657D01*
X54519510Y12099483D01*
X54686517Y12266490D01*
X54825343Y12457567D01*
X54932568Y12668008D01*
X55005553Y12892632D01*
X55006295Y12897315D01*
X55042500Y13125903D01*
X55042500Y13362098D01*
X55005553Y13595369D01*
X54940852Y13794496D01*
X54932568Y13819992D01*
X54932566Y13819995D01*
X54932566Y13819997D01*
X54876002Y13931009D01*
X54825343Y14030433D01*
X54686517Y14221510D01*
X54519510Y14388517D01*
X54328433Y14527343D01*
X54117996Y14634567D01*
X53893368Y14707554D01*
X53660097Y14744500D01*
X53660092Y14744500D01*
X53423908Y14744500D01*
X53423903Y14744500D01*
X53190631Y14707554D01*
X52966003Y14634567D01*
X52755566Y14527343D01*
X52670269Y14465370D01*
X52564490Y14388517D01*
X52564488Y14388515D01*
X52564487Y14388515D01*
X52397485Y14221513D01*
X52397485Y14221512D01*
X52397483Y14221510D01*
X52352681Y14159846D01*
X52258657Y14030434D01*
X52199232Y13913805D01*
X52151257Y13863009D01*
X52088747Y13846100D01*
X48495253Y13846100D01*
X48428214Y13865785D01*
X48384768Y13913805D01*
X48355470Y13971305D01*
X48325343Y14030433D01*
X48186517Y14221510D01*
X48019510Y14388517D01*
X47828433Y14527343D01*
X47617996Y14634567D01*
X47393368Y14707554D01*
X47160097Y14744500D01*
X47160092Y14744500D01*
X46923908Y14744500D01*
X46923903Y14744500D01*
X46690631Y14707554D01*
X46466003Y14634567D01*
X46255566Y14527343D01*
X46170269Y14465370D01*
X46064490Y14388517D01*
X46064488Y14388515D01*
X46064487Y14388515D01*
X45897485Y14221513D01*
X45897485Y14221512D01*
X45897483Y14221510D01*
X45852681Y14159846D01*
X45758657Y14030434D01*
X45699232Y13913805D01*
X45688782Y13902741D01*
X45682460Y13888897D01*
X45665279Y13877856D01*
X45651257Y13863009D01*
X45635577Y13858768D01*
X45623682Y13851123D01*
X45588747Y13846100D01*
X45349760Y13846100D01*
X45282721Y13865785D01*
X45262079Y13882419D01*
X44834419Y14310079D01*
X44800934Y14371402D01*
X44798100Y14397760D01*
X44798100Y19130240D01*
X44817785Y19197279D01*
X44834419Y19217921D01*
X45425079Y19808581D01*
X45486402Y19842066D01*
X45512760Y19844900D01*
X54492040Y19844900D01*
X54559079Y19825215D01*
X54604834Y19772411D01*
X54614778Y19703253D01*
X54585753Y19639697D01*
X54579721Y19633219D01*
X54143855Y19197355D01*
X54082532Y19163870D01*
X54017856Y19167105D01*
X53893370Y19207553D01*
X53660097Y19244500D01*
X53660092Y19244500D01*
X53423908Y19244500D01*
X53423903Y19244500D01*
X53190631Y19207554D01*
X52966003Y19134567D01*
X52755566Y19027343D01*
X52652414Y18952398D01*
X52564490Y18888517D01*
X52564488Y18888515D01*
X52564487Y18888515D01*
X52397485Y18721513D01*
X52397485Y18721512D01*
X52397483Y18721510D01*
X52387440Y18707687D01*
X52258657Y18530434D01*
X52199232Y18413805D01*
X52151257Y18363009D01*
X52088747Y18346100D01*
X48495253Y18346100D01*
X48428214Y18365785D01*
X48384768Y18413805D01*
X48350884Y18480306D01*
X48325343Y18530433D01*
X48186517Y18721510D01*
X48019510Y18888517D01*
X47828433Y19027343D01*
X47795995Y19043871D01*
X47617996Y19134567D01*
X47393368Y19207554D01*
X47160097Y19244500D01*
X47160092Y19244500D01*
X46923908Y19244500D01*
X46923903Y19244500D01*
X46690631Y19207554D01*
X46466003Y19134567D01*
X46255566Y19027343D01*
X46152414Y18952398D01*
X46064490Y18888517D01*
X46064488Y18888515D01*
X46064487Y18888515D01*
X45897485Y18721513D01*
X45897485Y18721512D01*
X45897483Y18721510D01*
X45887440Y18707687D01*
X45758657Y18530434D01*
X45651433Y18319997D01*
X45578446Y18095369D01*
X45541500Y17862098D01*
X45541500Y17625903D01*
X45578446Y17392632D01*
X45651433Y17168004D01*
X45758657Y16957567D01*
X45897483Y16766490D01*
X46064490Y16599483D01*
X46255567Y16460657D01*
X46344373Y16415408D01*
X46466003Y16353434D01*
X46466005Y16353434D01*
X46466008Y16353432D01*
X46576026Y16317685D01*
X46690631Y16280447D01*
X46923903Y16243500D01*
X46923908Y16243500D01*
X47160097Y16243500D01*
X47393368Y16280447D01*
X47397941Y16281933D01*
X47617992Y16353432D01*
X47621641Y16355291D01*
X47690263Y16390256D01*
X47828433Y16460657D01*
X48019510Y16599483D01*
X48186517Y16766490D01*
X48325343Y16957567D01*
X48384768Y17074195D01*
X48432743Y17124991D01*
X48495253Y17141900D01*
X52088747Y17141900D01*
X52155786Y17122215D01*
X52199232Y17074195D01*
X52246232Y16981953D01*
X52258657Y16957567D01*
X52397483Y16766490D01*
X52564490Y16599483D01*
X52755567Y16460657D01*
X52844373Y16415408D01*
X52966003Y16353434D01*
X52966005Y16353434D01*
X52966008Y16353432D01*
X53076026Y16317685D01*
X53190631Y16280447D01*
X53423903Y16243500D01*
X53423908Y16243500D01*
X53660097Y16243500D01*
X53893368Y16280447D01*
X53897941Y16281933D01*
X54117992Y16353432D01*
X54121641Y16355291D01*
X54190263Y16390256D01*
X54328433Y16460657D01*
X54519510Y16599483D01*
X54686517Y16766490D01*
X54825343Y16957567D01*
X54932568Y17168008D01*
X55005553Y17392632D01*
X55011304Y17428945D01*
X55042500Y17625903D01*
X55042500Y17862098D01*
X55014099Y18041408D01*
X55005553Y18095368D01*
X54965102Y18219859D01*
X54963108Y18289699D01*
X54995351Y18345855D01*
X57503152Y20853655D01*
X73647000Y20853655D01*
X73647000Y20754500D01*
X74372000Y20754500D01*
X74872000Y20754500D01*
X75596999Y20754500D01*
X75596999Y20853640D01*
X75596998Y20853655D01*
X75586680Y20954653D01*
X75532453Y21118301D01*
X75532448Y21118312D01*
X75441947Y21265035D01*
X75441944Y21265039D01*
X75320038Y21386945D01*
X75320034Y21386948D01*
X75173311Y21477449D01*
X75173300Y21477454D01*
X75009652Y21531681D01*
X74908654Y21542000D01*
X74872000Y21542000D01*
X74872000Y20754500D01*
X74372000Y20754500D01*
X74372000Y21542000D01*
X74335361Y21542000D01*
X74335343Y21541999D01*
X74234347Y21531681D01*
X74070699Y21477454D01*
X74070688Y21477449D01*
X73923965Y21386948D01*
X73923961Y21386945D01*
X73802055Y21265039D01*
X73802052Y21265035D01*
X73711551Y21118312D01*
X73711546Y21118301D01*
X73657319Y20954653D01*
X73647000Y20853655D01*
X57503152Y20853655D01*
X57716484Y21066987D01*
X70897000Y21066987D01*
X70897000Y20929500D01*
X71872000Y20929500D01*
X72372000Y20929500D01*
X73346999Y20929500D01*
X73346999Y21066972D01*
X73346998Y21066987D01*
X73336505Y21169698D01*
X73281358Y21336120D01*
X73281356Y21336125D01*
X73189315Y21485346D01*
X73065345Y21609316D01*
X72916124Y21701357D01*
X72916119Y21701359D01*
X72749697Y21756506D01*
X72749690Y21756507D01*
X72646986Y21767000D01*
X72372000Y21767000D01*
X72372000Y20929500D01*
X71872000Y20929500D01*
X71872000Y21767000D01*
X71597029Y21767000D01*
X71597012Y21766999D01*
X71494302Y21756506D01*
X71327880Y21701359D01*
X71327875Y21701357D01*
X71178654Y21609316D01*
X71054684Y21485346D01*
X70962643Y21336125D01*
X70962641Y21336120D01*
X70907494Y21169698D01*
X70907493Y21169691D01*
X70897000Y21066987D01*
X57716484Y21066987D01*
X61030079Y24380581D01*
X61091402Y24414066D01*
X61117760Y24416900D01*
X82121266Y24416900D01*
X82121268Y24416900D01*
X82274402Y24457933D01*
X82411698Y24537200D01*
X82523800Y24649302D01*
X85444800Y27570302D01*
X86460800Y28586302D01*
X86484334Y28627065D01*
X86484335Y28627065D01*
X86513235Y28677124D01*
X86540067Y28723598D01*
X86581100Y28876732D01*
X86581100Y35893268D01*
X86540067Y36046402D01*
X86460800Y36183698D01*
X86348698Y36295800D01*
X85586698Y37057800D01*
X85559722Y37073375D01*
X85559722Y37073376D01*
X85449408Y37137064D01*
X85449403Y37137067D01*
X85398357Y37150745D01*
X85296268Y37178100D01*
X83740732Y37178100D01*
X83689302Y37164319D01*
X83587596Y37137067D01*
X83587591Y37137064D01*
X83477277Y37073376D01*
X83477278Y37073375D01*
X83450301Y37057800D01*
X83352921Y36960419D01*
X83291598Y36926934D01*
X83265240Y36924100D01*
X81626448Y36924100D01*
X81559409Y36943785D01*
X81513654Y36996589D01*
X81503710Y37065747D01*
X81532735Y37129303D01*
X81591513Y37167077D01*
X81602257Y37169717D01*
X81644399Y37178100D01*
X81684251Y37186027D01*
X81857231Y37257678D01*
X82012908Y37361698D01*
X82112792Y37461583D01*
X82174113Y37495066D01*
X82200472Y37497900D01*
X86820266Y37497900D01*
X86820268Y37497900D01*
X86973402Y37538933D01*
X87110698Y37618200D01*
X87222800Y37730302D01*
X89127800Y39635302D01*
X89149673Y39673188D01*
X89149674Y39673188D01*
X89179435Y39724739D01*
X89207067Y39772598D01*
X89248100Y39925732D01*
X89248100Y45418268D01*
X89207067Y45571402D01*
X89127800Y45708698D01*
X89015698Y45820800D01*
X86729698Y48106800D01*
X86729696Y48106801D01*
X86729691Y48106805D01*
X86647370Y48154332D01*
X86647367Y48154333D01*
X86592404Y48186066D01*
X86592403Y48186067D01*
X86541357Y48199745D01*
X86439268Y48227100D01*
X86439266Y48227100D01*
X81072760Y48227100D01*
X81005721Y48246785D01*
X80985079Y48263419D01*
X80622919Y48625579D01*
X80589434Y48686902D01*
X80586600Y48713260D01*
X80586600Y57843348D01*
X80606285Y57910387D01*
X80654306Y57953833D01*
X80656644Y57955024D01*
X80770933Y58013257D01*
X80962010Y58152083D01*
X81129017Y58319090D01*
X81267843Y58510167D01*
X81324798Y58621948D01*
X81327268Y58626795D01*
X81375243Y58677591D01*
X81437753Y58694500D01*
X85031247Y58694500D01*
X85098286Y58674815D01*
X85141732Y58626795D01*
X85187585Y58536804D01*
X85201157Y58510167D01*
X85339983Y58319090D01*
X85506990Y58152083D01*
X85698067Y58013257D01*
X85797491Y57962598D01*
X85908503Y57906034D01*
X85908505Y57906034D01*
X85908508Y57906032D01*
X86004202Y57874939D01*
X86133131Y57833047D01*
X86366403Y57796100D01*
X86366408Y57796100D01*
X86602597Y57796100D01*
X86835868Y57833047D01*
X86867571Y57843348D01*
X87060492Y57906032D01*
X87270933Y58013257D01*
X87462010Y58152083D01*
X87629017Y58319090D01*
X87767843Y58510167D01*
X87875068Y58720608D01*
X87948053Y58945232D01*
X87950611Y58961384D01*
X87985000Y59178503D01*
X87985000Y59414698D01*
X87948053Y59647969D01*
X87906145Y59776946D01*
X87875068Y59872592D01*
X87875066Y59872595D01*
X87875066Y59872597D01*
X87807168Y60005853D01*
X87767843Y60083033D01*
X87629017Y60274110D01*
X87462010Y60441117D01*
X87270933Y60579943D01*
X87060496Y60687167D01*
X86835868Y60760154D01*
X86602597Y60797100D01*
X86602592Y60797100D01*
X86366408Y60797100D01*
X86366403Y60797100D01*
X86133131Y60760154D01*
X85908503Y60687167D01*
X85698066Y60579943D01*
X85623730Y60525934D01*
X85506990Y60441117D01*
X85506988Y60441115D01*
X85506987Y60441115D01*
X85339985Y60274113D01*
X85339985Y60274112D01*
X85339983Y60274110D01*
X85336641Y60269510D01*
X85201157Y60083034D01*
X85141732Y59966405D01*
X85093757Y59915609D01*
X85031247Y59898700D01*
X81437753Y59898700D01*
X81370714Y59918385D01*
X81327268Y59966405D01*
X81281415Y60056396D01*
X81267843Y60083033D01*
X81129017Y60274110D01*
X80962010Y60441117D01*
X80770933Y60579943D01*
X80560496Y60687167D01*
X80335868Y60760154D01*
X80102597Y60797100D01*
X80102592Y60797100D01*
X79866408Y60797100D01*
X79866403Y60797100D01*
X79633131Y60760154D01*
X79408503Y60687167D01*
X79198066Y60579943D01*
X79123730Y60525934D01*
X79006990Y60441117D01*
X79006988Y60441115D01*
X79006987Y60441115D01*
X78839985Y60274113D01*
X78839985Y60274112D01*
X78839983Y60274110D01*
X78836641Y60269510D01*
X78701155Y60083031D01*
X78687584Y60056396D01*
X78639609Y60005600D01*
X78571788Y59988806D01*
X78505653Y60011344D01*
X78462203Y60066060D01*
X78453100Y60112692D01*
X78453100Y61362341D01*
X78472785Y61429380D01*
X78489415Y61450018D01*
X79382645Y62343249D01*
X79443966Y62376732D01*
X79508641Y62373498D01*
X79633132Y62333047D01*
X79720610Y62319192D01*
X79866403Y62296100D01*
X79866408Y62296100D01*
X80102597Y62296100D01*
X80335868Y62333047D01*
X80367260Y62343247D01*
X80560492Y62406032D01*
X80770933Y62513257D01*
X80962010Y62652083D01*
X81129017Y62819090D01*
X81267843Y63010167D01*
X81327268Y63126795D01*
X81375243Y63177591D01*
X81437753Y63194500D01*
X85031247Y63194500D01*
X85098286Y63174815D01*
X85141732Y63126795D01*
X85201157Y63010167D01*
X85339983Y62819090D01*
X85506990Y62652083D01*
X85698067Y62513257D01*
X85797491Y62462598D01*
X85908503Y62406034D01*
X85908505Y62406034D01*
X85908508Y62406032D01*
X85983696Y62381602D01*
X86133131Y62333047D01*
X86366403Y62296100D01*
X86366408Y62296100D01*
X86602597Y62296100D01*
X86835868Y62333047D01*
X86867260Y62343247D01*
X87060492Y62406032D01*
X87270933Y62513257D01*
X87462010Y62652083D01*
X87629017Y62819090D01*
X87767843Y63010167D01*
X87875068Y63220608D01*
X87948053Y63445232D01*
X87951501Y63467000D01*
X87985000Y63678503D01*
X87985000Y63914698D01*
X87948053Y64147969D01*
X87879923Y64357650D01*
X87875068Y64372592D01*
X87875066Y64372595D01*
X87875066Y64372597D01*
X87783556Y64552194D01*
X87767843Y64583033D01*
X87629017Y64774110D01*
X87462010Y64941117D01*
X87270933Y65079943D01*
X87245586Y65092858D01*
X87060496Y65187167D01*
X86835868Y65260154D01*
X86602597Y65297100D01*
X86602592Y65297100D01*
X86366408Y65297100D01*
X86366403Y65297100D01*
X86133131Y65260154D01*
X85908503Y65187167D01*
X85698066Y65079943D01*
X85657129Y65050200D01*
X85506990Y64941117D01*
X85506988Y64941115D01*
X85506987Y64941115D01*
X85339985Y64774113D01*
X85339985Y64774112D01*
X85339983Y64774110D01*
X85329620Y64759846D01*
X85201157Y64583034D01*
X85141732Y64466405D01*
X85093757Y64415609D01*
X85031247Y64398700D01*
X81437753Y64398700D01*
X81370714Y64418385D01*
X81327268Y64466405D01*
X81283556Y64552194D01*
X81267843Y64583033D01*
X81129017Y64774110D01*
X80962010Y64941117D01*
X80770933Y65079943D01*
X80770932Y65079944D01*
X80770930Y65079945D01*
X80654304Y65139370D01*
X80603509Y65187344D01*
X80586600Y65249854D01*
X80586600Y69954767D01*
X80568930Y70020712D01*
X80545567Y70107902D01*
X80466300Y70245198D01*
X80448209Y70263289D01*
X92271500Y70263289D01*
X92271500Y70020712D01*
X92303161Y69780215D01*
X92365947Y69545896D01*
X92431964Y69386517D01*
X92458776Y69321788D01*
X92580064Y69111711D01*
X92580066Y69111708D01*
X92580067Y69111707D01*
X92727733Y68919264D01*
X92727739Y68919257D01*
X92899256Y68747740D01*
X92899263Y68747734D01*
X93012321Y68660982D01*
X93091711Y68600064D01*
X93301788Y68478776D01*
X93525900Y68385946D01*
X93760211Y68323162D01*
X93940586Y68299416D01*
X94000711Y68291500D01*
X94000712Y68291500D01*
X94243289Y68291500D01*
X94291388Y68297833D01*
X94483789Y68323162D01*
X94718100Y68385946D01*
X94942212Y68478776D01*
X95152289Y68600064D01*
X95344738Y68747735D01*
X95516265Y68919262D01*
X95663936Y69111711D01*
X95785224Y69321788D01*
X95878054Y69545900D01*
X95940838Y69780211D01*
X95972500Y70020712D01*
X95972500Y70263288D01*
X95940838Y70503789D01*
X95878054Y70738100D01*
X95785224Y70962212D01*
X95663936Y71172289D01*
X95516265Y71364738D01*
X95516260Y71364744D01*
X95344743Y71536261D01*
X95344736Y71536267D01*
X95152293Y71683933D01*
X95152292Y71683934D01*
X95152289Y71683936D01*
X94942212Y71805224D01*
X94942205Y71805227D01*
X94718104Y71898053D01*
X94483785Y71960839D01*
X94243289Y71992500D01*
X94243288Y71992500D01*
X94000712Y71992500D01*
X94000711Y71992500D01*
X93760214Y71960839D01*
X93525895Y71898053D01*
X93301794Y71805227D01*
X93301785Y71805223D01*
X93091706Y71683933D01*
X92899263Y71536267D01*
X92899256Y71536261D01*
X92727739Y71364744D01*
X92727733Y71364737D01*
X92580067Y71172294D01*
X92458777Y70962215D01*
X92458773Y70962206D01*
X92365947Y70738105D01*
X92303161Y70503786D01*
X92271500Y70263289D01*
X80448209Y70263289D01*
X80354198Y70357300D01*
X77839698Y72871800D01*
X77702402Y72951067D01*
X77702403Y72951067D01*
X77651357Y72964745D01*
X77549268Y72992100D01*
X23574268Y72992100D01*
X23415732Y72992100D01*
X23313642Y72964745D01*
X23262597Y72951067D01*
X23125303Y72871801D01*
X23125300Y72871799D01*
X21489201Y71235700D01*
X21489199Y71235697D01*
X21409933Y71098403D01*
X21368900Y70945267D01*
X21368900Y65343198D01*
X21349215Y65276159D01*
X21296411Y65230404D01*
X21227253Y65220460D01*
X21206582Y65225267D01*
X21113371Y65255553D01*
X20880097Y65292500D01*
X20880092Y65292500D01*
X20643908Y65292500D01*
X20643903Y65292500D01*
X20410631Y65255554D01*
X20186003Y65182567D01*
X19975566Y65075343D01*
X19866550Y64996138D01*
X19784490Y64936517D01*
X19784488Y64936515D01*
X19784487Y64936515D01*
X19617485Y64769513D01*
X19617485Y64769512D01*
X19617483Y64769510D01*
X19562528Y64693871D01*
X19478657Y64578434D01*
X19371433Y64367997D01*
X19298446Y64143369D01*
X19261500Y63910098D01*
X19261500Y63673903D01*
X19298446Y63440632D01*
X19371433Y63216004D01*
X19416888Y63126795D01*
X19478657Y63005567D01*
X19617483Y62814490D01*
X19784490Y62647483D01*
X19975567Y62508657D01*
X20074991Y62457998D01*
X20186003Y62401434D01*
X20186005Y62401434D01*
X20186008Y62401432D01*
X20262027Y62376732D01*
X20410631Y62328447D01*
X20643903Y62291500D01*
X20643908Y62291500D01*
X20880097Y62291500D01*
X21113368Y62328447D01*
X21155901Y62342267D01*
X21337992Y62401432D01*
X21548433Y62508657D01*
X21739510Y62647483D01*
X21906517Y62814490D01*
X22045343Y63005567D01*
X22152568Y63216008D01*
X22225553Y63440632D01*
X22232847Y63486685D01*
X22262500Y63673903D01*
X22262500Y63910098D01*
X22227005Y64134200D01*
X22225553Y64143368D01*
X22185102Y64267859D01*
X22183108Y64337699D01*
X22215350Y64393853D01*
X22452800Y64631302D01*
X22508363Y64727541D01*
X22532067Y64768598D01*
X22573100Y64921732D01*
X22573100Y70565240D01*
X22592785Y70632279D01*
X22609419Y70652921D01*
X23708079Y71751581D01*
X23769402Y71785066D01*
X23795760Y71787900D01*
X77169240Y71787900D01*
X77236279Y71768215D01*
X77256921Y71751581D01*
X79346081Y69662421D01*
X79379566Y69601098D01*
X79382400Y69574740D01*
X79382400Y65249854D01*
X79362715Y65182815D01*
X79314696Y65139370D01*
X79198069Y65079945D01*
X79157129Y65050200D01*
X79006990Y64941117D01*
X79006988Y64941115D01*
X79006987Y64941115D01*
X78839985Y64774113D01*
X78839985Y64774112D01*
X78839983Y64774110D01*
X78829620Y64759846D01*
X78701157Y64583034D01*
X78593933Y64372597D01*
X78520946Y64147969D01*
X78484000Y63914698D01*
X78484000Y63678503D01*
X78520947Y63445231D01*
X78520947Y63445228D01*
X78561395Y63320744D01*
X78563390Y63250903D01*
X78531145Y63194745D01*
X77481302Y62144900D01*
X77369201Y62032800D01*
X77369199Y62032797D01*
X77289933Y61895503D01*
X77248900Y61742367D01*
X77248900Y50719760D01*
X77229215Y50652721D01*
X77212581Y50632079D01*
X74208921Y47628419D01*
X74147598Y47594934D01*
X74121240Y47592100D01*
X63912472Y47592100D01*
X63845433Y47611785D01*
X63824795Y47628415D01*
X63724908Y47728302D01*
X63724907Y47728303D01*
X63724906Y47728304D01*
X63569237Y47832319D01*
X63569228Y47832324D01*
X63396251Y47903973D01*
X63396243Y47903975D01*
X63212620Y47940500D01*
X63212616Y47940500D01*
X63025384Y47940500D01*
X63025379Y47940500D01*
X62841756Y47903975D01*
X62841748Y47903973D01*
X62668771Y47832324D01*
X62668762Y47832319D01*
X62513092Y47728303D01*
X62513088Y47728300D01*
X62380700Y47595912D01*
X62380697Y47595908D01*
X62276681Y47440238D01*
X62276676Y47440229D01*
X62205027Y47267252D01*
X62205025Y47267244D01*
X62168500Y47083621D01*
X62168500Y46896381D01*
X62202731Y46724291D01*
X62196504Y46654700D01*
X62153641Y46599522D01*
X62087751Y46576278D01*
X62081114Y46576100D01*
X61261732Y46576100D01*
X61206376Y46561267D01*
X61108596Y46535067D01*
X61108591Y46535064D01*
X61003519Y46474401D01*
X60993947Y46468875D01*
X60971302Y46455801D01*
X58301320Y43785819D01*
X58239997Y43752334D01*
X58213639Y43749500D01*
X58072379Y43749500D01*
X57888756Y43712975D01*
X57888748Y43712973D01*
X57735553Y43649517D01*
X57702924Y43646010D01*
X57670453Y43641340D01*
X57668365Y43642294D01*
X57666083Y43642048D01*
X57636739Y43656737D01*
X57606897Y43670365D01*
X57605656Y43672296D01*
X57603604Y43673323D01*
X57586863Y43701539D01*
X57569123Y43729143D01*
X57568687Y43732173D01*
X57567952Y43733412D01*
X57564100Y43764078D01*
X57564100Y43930018D01*
X57583785Y43997057D01*
X57636589Y44042812D01*
X57642855Y44045273D01*
X57645687Y44046594D01*
X57645697Y44046597D01*
X57790044Y44135632D01*
X57909968Y44255556D01*
X57999003Y44399903D01*
X58052349Y44560892D01*
X58062500Y44660255D01*
X58062499Y45206944D01*
X58062474Y45207185D01*
X58052349Y45306308D01*
X58052348Y45306311D01*
X58048029Y45319346D01*
X57999003Y45467297D01*
X57998999Y45467303D01*
X57998998Y45467306D01*
X57909970Y45611641D01*
X57909967Y45611645D01*
X57790044Y45731568D01*
X57790040Y45731571D01*
X57645705Y45820599D01*
X57645699Y45820602D01*
X57645697Y45820603D01*
X57645694Y45820604D01*
X57484709Y45873949D01*
X57385346Y45884100D01*
X56538662Y45884100D01*
X56538644Y45884099D01*
X56439292Y45873950D01*
X56439289Y45873949D01*
X56278305Y45820604D01*
X56278294Y45820599D01*
X56133959Y45731571D01*
X56133955Y45731568D01*
X56014032Y45611645D01*
X56014029Y45611641D01*
X55925001Y45467306D01*
X55924996Y45467295D01*
X55871651Y45306310D01*
X55861500Y45206953D01*
X55861500Y44660263D01*
X55861501Y44660245D01*
X55871650Y44560893D01*
X55871651Y44560890D01*
X55924996Y44399906D01*
X55925001Y44399895D01*
X56014029Y44255560D01*
X56014032Y44255556D01*
X56133955Y44135633D01*
X56133959Y44135630D01*
X56278294Y44046602D01*
X56278297Y44046601D01*
X56278303Y44046597D01*
X56278308Y44046596D01*
X56284846Y44043547D01*
X56283891Y44041501D01*
X56294935Y44033855D01*
X56317103Y44023731D01*
X56323149Y44014324D01*
X56332345Y44007957D01*
X56341702Y43985454D01*
X56354877Y43964953D01*
X56357335Y43947858D01*
X56359171Y43943442D01*
X56359900Y43930018D01*
X56359900Y43762007D01*
X56340215Y43694968D01*
X56287411Y43649213D01*
X56218253Y43639269D01*
X56188447Y43647446D01*
X56030251Y43712973D01*
X56030243Y43712975D01*
X55846620Y43749500D01*
X55846616Y43749500D01*
X55659384Y43749500D01*
X55659379Y43749500D01*
X55475756Y43712975D01*
X55475748Y43712973D01*
X55302771Y43641324D01*
X55302762Y43641319D01*
X55147093Y43537304D01*
X55105379Y43495589D01*
X55030207Y43420418D01*
X54968887Y43386934D01*
X54942528Y43384100D01*
X53712150Y43384100D01*
X53645111Y43403785D01*
X53599356Y43456589D01*
X53589412Y43525746D01*
X53590931Y43536310D01*
X53597500Y43582000D01*
X53597500Y44147826D01*
X53596406Y44156132D01*
X53594446Y44171026D01*
X53580275Y44278662D01*
X53546200Y44405829D01*
X53495701Y44527743D01*
X53495698Y44527748D01*
X53495697Y44527751D01*
X53495696Y44527752D01*
X53433913Y44634763D01*
X53429875Y44641757D01*
X53415688Y44660245D01*
X53349544Y44746445D01*
X53349541Y44746449D01*
X53256449Y44839541D01*
X53240012Y44852154D01*
X53151767Y44919868D01*
X53151749Y44919880D01*
X53052870Y44976968D01*
X53004654Y45027535D01*
X52991432Y45096142D01*
X53017400Y45161007D01*
X53074314Y45201535D01*
X53075839Y45202052D01*
X53091334Y45207186D01*
X53240656Y45299288D01*
X53364712Y45423344D01*
X53456814Y45572666D01*
X53511999Y45739203D01*
X53522500Y45841991D01*
X53522499Y46642008D01*
X53521202Y46654700D01*
X53511999Y46744797D01*
X53511998Y46744800D01*
X53481511Y46836803D01*
X53456814Y46911334D01*
X53364712Y47060656D01*
X53271049Y47154319D01*
X53237564Y47215642D01*
X53242548Y47285334D01*
X53271049Y47329681D01*
X53316702Y47375334D01*
X53364712Y47423344D01*
X53456814Y47572666D01*
X53456815Y47572669D01*
X53460605Y47578813D01*
X53462829Y47577441D01*
X53500936Y47620734D01*
X53567162Y47639900D01*
X55892801Y47639900D01*
X55959840Y47620215D01*
X55998339Y47580998D01*
X56014031Y47555557D01*
X56133955Y47435633D01*
X56133959Y47435630D01*
X56278294Y47346602D01*
X56278297Y47346601D01*
X56278303Y47346597D01*
X56439292Y47293251D01*
X56538655Y47283100D01*
X57385344Y47283101D01*
X57385352Y47283102D01*
X57385355Y47283102D01*
X57439760Y47288660D01*
X57484708Y47293251D01*
X57645697Y47346597D01*
X57790044Y47435632D01*
X57909968Y47555556D01*
X57999003Y47699903D01*
X58052349Y47860892D01*
X58062500Y47960255D01*
X58062499Y48506944D01*
X58056357Y48567067D01*
X58052349Y48606308D01*
X58052348Y48606311D01*
X58019262Y48706159D01*
X57999003Y48767297D01*
X57998999Y48767303D01*
X57998998Y48767306D01*
X57909970Y48911641D01*
X57909967Y48911645D01*
X57790044Y49031568D01*
X57790040Y49031571D01*
X57645705Y49120599D01*
X57645699Y49120602D01*
X57645697Y49120603D01*
X57573888Y49144398D01*
X57484709Y49173949D01*
X57385346Y49184100D01*
X56538662Y49184100D01*
X56538644Y49184099D01*
X56439292Y49173950D01*
X56439289Y49173949D01*
X56278305Y49120604D01*
X56278294Y49120599D01*
X56133959Y49031571D01*
X56133955Y49031568D01*
X56014033Y48911646D01*
X56014032Y48911644D01*
X56008702Y48903004D01*
X55956757Y48856279D01*
X55903164Y48844100D01*
X53567162Y48844100D01*
X53500123Y48863785D01*
X53462788Y48906534D01*
X53460605Y48905187D01*
X53456814Y48911334D01*
X53364712Y49060656D01*
X53240656Y49184712D01*
X53091334Y49276814D01*
X52924797Y49331999D01*
X52924795Y49332000D01*
X52822010Y49342500D01*
X51821998Y49342500D01*
X51821980Y49342499D01*
X51719203Y49332000D01*
X51719200Y49331999D01*
X51552668Y49276815D01*
X51552663Y49276813D01*
X51403342Y49184711D01*
X51279289Y49060658D01*
X51279288Y49060656D01*
X51237558Y48993002D01*
X51185612Y48946279D01*
X51132021Y48934100D01*
X50057162Y48934100D01*
X49990123Y48953785D01*
X49952788Y48996534D01*
X49950605Y48995187D01*
X49946814Y49001334D01*
X49854712Y49150656D01*
X49730656Y49274712D01*
X49620754Y49342500D01*
X49581336Y49366813D01*
X49581331Y49366815D01*
X49579862Y49367302D01*
X49414797Y49421999D01*
X49414795Y49422000D01*
X49312010Y49432500D01*
X48311998Y49432500D01*
X48311980Y49432499D01*
X48209203Y49422000D01*
X48209200Y49421999D01*
X48042668Y49366815D01*
X48042663Y49366813D01*
X47893342Y49274711D01*
X47888581Y49269949D01*
X47827258Y49236464D01*
X47757566Y49241448D01*
X47701633Y49283320D01*
X47677216Y49348784D01*
X47676900Y49357630D01*
X47676900Y50540466D01*
X47676900Y50540468D01*
X47657867Y50611500D01*
X47635868Y50693601D01*
X47560757Y50823698D01*
X47556602Y50830895D01*
X47556598Y50830900D01*
X46706819Y51680679D01*
X46673334Y51742002D01*
X46670500Y51768360D01*
X46670500Y51909617D01*
X46670499Y51909621D01*
X46633962Y52093310D01*
X46640189Y52162902D01*
X46683052Y52218079D01*
X46748942Y52241323D01*
X46755579Y52241501D01*
X48619871Y52241501D01*
X48619872Y52241501D01*
X48679483Y52247909D01*
X48814331Y52298204D01*
X48929546Y52384454D01*
X49015796Y52499669D01*
X49015796Y52499671D01*
X49017989Y52502599D01*
X49073923Y52544470D01*
X49143615Y52549454D01*
X49190142Y52528606D01*
X49285828Y52459086D01*
X49496197Y52351898D01*
X49720752Y52278935D01*
X49720751Y52278935D01*
X49953948Y52242000D01*
X50190052Y52242000D01*
X50423247Y52278935D01*
X50647802Y52351898D01*
X50858163Y52459082D01*
X50858169Y52459086D01*
X50941104Y52519342D01*
X50941105Y52519342D01*
X50201409Y53259038D01*
X50264993Y53276075D01*
X50379007Y53341901D01*
X50472099Y53434993D01*
X50537925Y53549007D01*
X50554962Y53612592D01*
X51301270Y52866283D01*
X51344943Y52857109D01*
X51386614Y52820741D01*
X51427483Y52764490D01*
X51594490Y52597483D01*
X51785567Y52458657D01*
X51857683Y52421912D01*
X51996003Y52351434D01*
X51996005Y52351434D01*
X51996008Y52351432D01*
X52116412Y52312311D01*
X52220631Y52278447D01*
X52453903Y52241500D01*
X52453908Y52241500D01*
X52690097Y52241500D01*
X52923368Y52278447D01*
X52924870Y52278935D01*
X53147992Y52351432D01*
X53358433Y52458657D01*
X53549510Y52597483D01*
X53716517Y52764490D01*
X53855343Y52955567D01*
X53962568Y53166008D01*
X54035553Y53390632D01*
X54042579Y53434993D01*
X54072500Y53623903D01*
X54072500Y53860098D01*
X54035553Y54093369D01*
X53962566Y54317997D01*
X53878906Y54482188D01*
X53855343Y54528433D01*
X53716517Y54719510D01*
X53549510Y54886517D01*
X53358433Y55025343D01*
X53358432Y55025344D01*
X53358430Y55025345D01*
X53241804Y55084770D01*
X53191009Y55132744D01*
X53174100Y55195254D01*
X53174100Y55889016D01*
X53178325Y55921109D01*
X53180100Y55927732D01*
X53180100Y56086268D01*
X53139068Y56239401D01*
X53059800Y56376698D01*
X52474574Y56961924D01*
X52463450Y56982296D01*
X52448564Y57000105D01*
X52447020Y57012385D01*
X52441089Y57023247D01*
X52442744Y57046400D01*
X52439850Y57069429D01*
X52445190Y57080594D01*
X52446073Y57092939D01*
X52459983Y57111522D01*
X52469999Y57132459D01*
X52484641Y57144460D01*
X52487945Y57148872D01*
X52497079Y57155094D01*
X52498095Y57155723D01*
X52528865Y57173919D01*
X52530994Y57176049D01*
X52539638Y57181389D01*
X52567216Y57188958D01*
X52593846Y57199414D01*
X52604814Y57199900D01*
X52612732Y57199900D01*
X52771268Y57199900D01*
X54248086Y57199900D01*
X54315125Y57180215D01*
X54353623Y57140998D01*
X54362415Y57126745D01*
X54376659Y57103651D01*
X54446081Y57034229D01*
X54460784Y57007302D01*
X54477377Y56981483D01*
X54478268Y56975283D01*
X54479566Y56972906D01*
X54482400Y56946548D01*
X54482400Y56904782D01*
X54462715Y56837743D01*
X54423497Y56799243D01*
X54278342Y56709711D01*
X54154289Y56585658D01*
X54062187Y56436337D01*
X54062185Y56436332D01*
X54034349Y56352330D01*
X54007001Y56269797D01*
X54007001Y56269796D01*
X54007000Y56269796D01*
X53996500Y56167017D01*
X53996500Y55116999D01*
X53996501Y55116981D01*
X54007000Y55014204D01*
X54007001Y55014201D01*
X54049312Y54886517D01*
X54062186Y54847666D01*
X54154288Y54698344D01*
X54278344Y54574288D01*
X54427666Y54482186D01*
X54594203Y54427001D01*
X54696991Y54416500D01*
X55472008Y54416501D01*
X55472016Y54416502D01*
X55472019Y54416502D01*
X55528302Y54422252D01*
X55574797Y54427001D01*
X55741334Y54482186D01*
X55890656Y54574288D01*
X56014712Y54698344D01*
X56016752Y54701653D01*
X56018745Y54703445D01*
X56019193Y54704011D01*
X56019289Y54703935D01*
X56068694Y54748377D01*
X56137656Y54759605D01*
X56201740Y54731766D01*
X56227829Y54701661D01*
X56229681Y54698659D01*
X56229683Y54698656D01*
X56353654Y54574685D01*
X56502875Y54482644D01*
X56502880Y54482642D01*
X56669302Y54427495D01*
X56669309Y54427494D01*
X56772019Y54417001D01*
X56909499Y54417001D01*
X57409500Y54417001D01*
X57546972Y54417001D01*
X57546986Y54417002D01*
X57649697Y54427495D01*
X57816119Y54482642D01*
X57816124Y54482644D01*
X57965345Y54574685D01*
X58089315Y54698655D01*
X58181356Y54847876D01*
X58181358Y54847881D01*
X58236505Y55014303D01*
X58236506Y55014310D01*
X58246999Y55117014D01*
X58247000Y55117027D01*
X58247000Y55392000D01*
X57409500Y55392000D01*
X57409500Y54417001D01*
X56909499Y54417001D01*
X56909500Y54417002D01*
X56909500Y56697000D01*
X56858500Y56697000D01*
X56791461Y56716685D01*
X56745706Y56769489D01*
X56734500Y56821000D01*
X56734500Y56997000D01*
X57234500Y56997000D01*
X57285500Y56997000D01*
X57352539Y56977315D01*
X57398294Y56924511D01*
X57409500Y56873000D01*
X57409500Y55892000D01*
X58246999Y55892000D01*
X58246999Y56166972D01*
X58246998Y56166987D01*
X58236505Y56269698D01*
X58181358Y56436120D01*
X58181356Y56436125D01*
X58089315Y56585346D01*
X57988364Y56686297D01*
X57789699Y56814246D01*
X57776710Y56829266D01*
X57760385Y56840570D01*
X57754324Y56855152D01*
X57743995Y56867095D01*
X57741188Y56886754D01*
X57733567Y56905088D01*
X57736351Y56920631D01*
X57734119Y56936263D01*
X57742385Y56954317D01*
X57745887Y56973863D01*
X57760847Y56994637D01*
X57763207Y56999790D01*
X57765718Y57001401D01*
X57769159Y57006178D01*
X57866948Y57103967D01*
X57957448Y57250689D01*
X57957453Y57250700D01*
X58011680Y57414348D01*
X58021999Y57515346D01*
X58022000Y57515359D01*
X58022000Y57552000D01*
X57234500Y57552000D01*
X57234500Y56997000D01*
X56734500Y56997000D01*
X56734500Y58052000D01*
X57234500Y58052000D01*
X58021999Y58052000D01*
X58021999Y58088640D01*
X58021998Y58088655D01*
X58011680Y58189653D01*
X57957453Y58353301D01*
X57957448Y58353312D01*
X57866947Y58500035D01*
X57866944Y58500039D01*
X57745038Y58621945D01*
X57745034Y58621948D01*
X57598311Y58712449D01*
X57598300Y58712454D01*
X57434652Y58766681D01*
X57333654Y58777000D01*
X57234500Y58777000D01*
X57234500Y58052000D01*
X56734500Y58052000D01*
X56734500Y58777001D01*
X56635360Y58777000D01*
X56635344Y58776999D01*
X56534347Y58766681D01*
X56370699Y58712454D01*
X56370688Y58712449D01*
X56223965Y58621948D01*
X56210032Y58608015D01*
X56148708Y58574532D01*
X56079016Y58579518D01*
X56034672Y58608018D01*
X56020351Y58622339D01*
X56020350Y58622340D01*
X55903360Y58694500D01*
X55873518Y58712907D01*
X55873513Y58712909D01*
X55830784Y58727068D01*
X55709753Y58767174D01*
X55709751Y58767175D01*
X55608684Y58777500D01*
X55608677Y58777500D01*
X55186860Y58777500D01*
X55119821Y58797185D01*
X55099179Y58813819D01*
X54870197Y59042801D01*
X54836712Y59104124D01*
X54841696Y59173816D01*
X54883568Y59229749D01*
X54949032Y59254166D01*
X54991174Y59248742D01*
X54991446Y59249756D01*
X54995367Y59248706D01*
X54995368Y59248705D01*
X55261334Y59177440D01*
X55534326Y59141500D01*
X55534333Y59141500D01*
X55809667Y59141500D01*
X55809674Y59141500D01*
X56082666Y59177440D01*
X56348632Y59248705D01*
X56603021Y59354077D01*
X56841479Y59491751D01*
X57059928Y59659372D01*
X57254628Y59854072D01*
X57422249Y60072521D01*
X57559923Y60310979D01*
X57665295Y60565368D01*
X57736560Y60831334D01*
X57772500Y61104326D01*
X57772500Y61379674D01*
X57736560Y61652666D01*
X57665295Y61918632D01*
X57559923Y62173021D01*
X57559921Y62173024D01*
X57559919Y62173029D01*
X57486139Y62300819D01*
X57422249Y62411479D01*
X57422246Y62411482D01*
X57422245Y62411485D01*
X57396978Y62444413D01*
X57371783Y62509582D01*
X57385821Y62578027D01*
X57434635Y62628017D01*
X57495353Y62643900D01*
X69168240Y62643900D01*
X69235279Y62624215D01*
X69255921Y62607581D01*
X69813581Y62049921D01*
X69847066Y61988598D01*
X69849900Y61962240D01*
X69849900Y58243023D01*
X69830215Y58175984D01*
X69798786Y58142705D01*
X69735070Y58096413D01*
X69612588Y57973931D01*
X69612581Y57973922D01*
X69552317Y57890977D01*
X69496987Y57848311D01*
X69427374Y57842333D01*
X69365579Y57874939D01*
X69351683Y57890977D01*
X69303899Y57956743D01*
X69291414Y57973928D01*
X69168928Y58096414D01*
X69028788Y58198232D01*
X68874445Y58276873D01*
X68709701Y58330402D01*
X68709699Y58330403D01*
X68709698Y58330403D01*
X68563765Y58353516D01*
X68538611Y58357500D01*
X68365389Y58357500D01*
X68340235Y58353516D01*
X68194302Y58330403D01*
X68029552Y58276872D01*
X67875211Y58198232D01*
X67735073Y58096415D01*
X67627166Y57988508D01*
X67565843Y57955024D01*
X67496151Y57960008D01*
X67440218Y58001880D01*
X67433946Y58011094D01*
X67394317Y58075344D01*
X67270345Y58199316D01*
X67121124Y58291357D01*
X67121119Y58291359D01*
X66954697Y58346506D01*
X66954690Y58346507D01*
X66851986Y58357000D01*
X66702000Y58357000D01*
X66702000Y57262330D01*
X66682255Y57282075D01*
X66596745Y57331444D01*
X66501370Y57357000D01*
X66402630Y57357000D01*
X66307255Y57331444D01*
X66221745Y57282075D01*
X66202000Y57262330D01*
X66202000Y58357000D01*
X66052027Y58357000D01*
X66052012Y58356999D01*
X65949302Y58346506D01*
X65782880Y58291359D01*
X65782875Y58291357D01*
X65633654Y58199316D01*
X65509684Y58075346D01*
X65417643Y57926125D01*
X65417641Y57926120D01*
X65362494Y57759698D01*
X65362493Y57759691D01*
X65352000Y57656987D01*
X65352000Y57232000D01*
X66171670Y57232000D01*
X66151925Y57212255D01*
X66102556Y57126745D01*
X66077000Y57031370D01*
X66077000Y56932630D01*
X66102556Y56837255D01*
X66151925Y56751745D01*
X66171670Y56732000D01*
X65352001Y56732000D01*
X65352001Y56307014D01*
X65362494Y56204303D01*
X65417641Y56037881D01*
X65417643Y56037876D01*
X65509684Y55888655D01*
X65633654Y55764685D01*
X65782875Y55672644D01*
X65782880Y55672642D01*
X65949302Y55617495D01*
X65949309Y55617494D01*
X66052019Y55607001D01*
X66201999Y55607001D01*
X66202000Y55607002D01*
X66202000Y56701670D01*
X66221745Y56681925D01*
X66307255Y56632556D01*
X66402630Y56607000D01*
X66501370Y56607000D01*
X66596745Y56632556D01*
X66682255Y56681925D01*
X66702000Y56701670D01*
X66702000Y55607001D01*
X66851972Y55607001D01*
X66851986Y55607002D01*
X66954697Y55617495D01*
X67121119Y55672642D01*
X67121124Y55672644D01*
X67270345Y55764685D01*
X67394315Y55888655D01*
X67433945Y55952906D01*
X67485893Y55999632D01*
X67554855Y56010855D01*
X67618937Y55983012D01*
X67627166Y55975492D01*
X67735072Y55867586D01*
X67875212Y55765768D01*
X68029555Y55687127D01*
X68194299Y55633598D01*
X68365389Y55606500D01*
X68365390Y55606500D01*
X68538610Y55606500D01*
X68538611Y55606500D01*
X68709701Y55633598D01*
X68874445Y55687127D01*
X69028788Y55765768D01*
X69168928Y55867586D01*
X69291414Y55990072D01*
X69351682Y56073025D01*
X69407012Y56115689D01*
X69476626Y56121668D01*
X69538421Y56089062D01*
X69552315Y56073027D01*
X69612586Y55990072D01*
X69735072Y55867586D01*
X69875212Y55765768D01*
X70029555Y55687127D01*
X70194299Y55633598D01*
X70365389Y55606500D01*
X70365390Y55606500D01*
X70538610Y55606500D01*
X70538611Y55606500D01*
X70709701Y55633598D01*
X70874445Y55687127D01*
X71028788Y55765768D01*
X71168928Y55867586D01*
X71291414Y55990072D01*
X71351682Y56073025D01*
X71407012Y56115689D01*
X71476626Y56121668D01*
X71538421Y56089062D01*
X71552315Y56073027D01*
X71612586Y55990072D01*
X71735072Y55867586D01*
X71875212Y55765768D01*
X72029555Y55687127D01*
X72194299Y55633598D01*
X72365389Y55606500D01*
X72365390Y55606500D01*
X72538610Y55606500D01*
X72538611Y55606500D01*
X72709701Y55633598D01*
X72874445Y55687127D01*
X73028788Y55765768D01*
X73168928Y55867586D01*
X73291414Y55990072D01*
X73393232Y56130212D01*
X73471873Y56284555D01*
X73525402Y56449299D01*
X73552500Y56620389D01*
X73552500Y57343611D01*
X73525402Y57514701D01*
X73471873Y57679445D01*
X73393232Y57833788D01*
X73291414Y57973928D01*
X73168928Y58096414D01*
X73105213Y58142706D01*
X73062549Y58198036D01*
X73054100Y58243023D01*
X73054100Y62882267D01*
X73031717Y62965800D01*
X73013067Y63035402D01*
X72933800Y63172698D01*
X72821698Y63284800D01*
X71972298Y64134200D01*
X71972297Y64134201D01*
X71960374Y64141084D01*
X71948452Y64147968D01*
X71835008Y64213464D01*
X71835003Y64213467D01*
X71783957Y64227145D01*
X71681868Y64254500D01*
X53981396Y64254500D01*
X53904829Y64233984D01*
X53828260Y64213467D01*
X53828255Y64213464D01*
X53714812Y64147968D01*
X53707727Y64143878D01*
X53690966Y64134201D01*
X53690964Y64134199D01*
X52810085Y63253319D01*
X52748762Y63219834D01*
X52722404Y63217000D01*
X52101000Y63217000D01*
X52033961Y63236685D01*
X51988206Y63289489D01*
X51977000Y63341000D01*
X51977000Y63467000D01*
X51851000Y63467000D01*
X51783961Y63486685D01*
X51738206Y63539489D01*
X51727000Y63591000D01*
X51727000Y63717000D01*
X52227000Y63717000D01*
X52777000Y63717000D01*
X52777000Y64357635D01*
X52776999Y64357650D01*
X52774100Y64394490D01*
X52774099Y64394496D01*
X52728283Y64552194D01*
X52728282Y64552197D01*
X52644685Y64693553D01*
X52644678Y64693562D01*
X52528561Y64809679D01*
X52528552Y64809686D01*
X52387196Y64893283D01*
X52387193Y64893284D01*
X52229494Y64939100D01*
X52229497Y64939100D01*
X52227000Y64939297D01*
X52227000Y63717000D01*
X51727000Y63717000D01*
X51727000Y64939297D01*
X51724503Y64939100D01*
X51566806Y64893284D01*
X51566799Y64893281D01*
X51496220Y64851541D01*
X51428496Y64834358D01*
X51362234Y64856518D01*
X51318471Y64910985D01*
X51309100Y64958273D01*
X51309100Y65069267D01*
X51307472Y65075343D01*
X51268067Y65222402D01*
X51188800Y65359698D01*
X51076698Y65471800D01*
X50534698Y66013800D01*
X50397402Y66093067D01*
X50397403Y66093067D01*
X50346357Y66106745D01*
X50244268Y66134100D01*
X50244266Y66134100D01*
X48814760Y66134100D01*
X48747721Y66153785D01*
X48727079Y66170419D01*
X48210419Y66687079D01*
X48195715Y66714007D01*
X48179123Y66739825D01*
X48178231Y66746026D01*
X48176934Y66748402D01*
X48174100Y66774760D01*
X48174100Y66788748D01*
X48193785Y66855787D01*
X48241806Y66899233D01*
X48358431Y66958656D01*
X48358430Y66958656D01*
X48358433Y66958657D01*
X48549510Y67097483D01*
X48716517Y67264490D01*
X48855343Y67455567D01*
X48962568Y67666008D01*
X49035553Y67890632D01*
X49060637Y68049007D01*
X49072500Y68123903D01*
X49072500Y68360053D01*
X51072000Y68360053D01*
X51072000Y68123948D01*
X51108934Y67890753D01*
X51181897Y67666198D01*
X51289087Y67455826D01*
X51349338Y67372896D01*
X51349340Y67372895D01*
X52089037Y68112592D01*
X52106075Y68049007D01*
X52171901Y67934993D01*
X52264993Y67841901D01*
X52379007Y67776075D01*
X52442590Y67759038D01*
X51702893Y67019342D01*
X51785828Y66959086D01*
X51996197Y66851898D01*
X52220752Y66778935D01*
X52220751Y66778935D01*
X52453948Y66742000D01*
X52690052Y66742000D01*
X52923247Y66778935D01*
X53147802Y66851898D01*
X53358163Y66959082D01*
X53358169Y66959086D01*
X53441104Y67019342D01*
X53441105Y67019342D01*
X52701408Y67759038D01*
X52764993Y67776075D01*
X52879007Y67841901D01*
X52972099Y67934993D01*
X53037925Y68049007D01*
X53054962Y68112592D01*
X53794658Y67372895D01*
X53794658Y67372896D01*
X53854914Y67455831D01*
X53854918Y67455837D01*
X53962102Y67666198D01*
X54035065Y67890753D01*
X54072000Y68123948D01*
X54072000Y68360053D01*
X54035065Y68593248D01*
X53962102Y68817803D01*
X53854914Y69028172D01*
X53794658Y69111106D01*
X53794658Y69111107D01*
X53054962Y68371410D01*
X53037925Y68434993D01*
X52972099Y68549007D01*
X52879007Y68642099D01*
X52764993Y68707925D01*
X52701409Y68724963D01*
X53441105Y69464660D01*
X53441104Y69464662D01*
X53358174Y69524913D01*
X53147802Y69632103D01*
X52923247Y69705066D01*
X52923248Y69705066D01*
X52690052Y69742000D01*
X52453948Y69742000D01*
X52220752Y69705066D01*
X51996197Y69632103D01*
X51785830Y69524916D01*
X51702894Y69464660D01*
X52442591Y68724963D01*
X52379007Y68707925D01*
X52264993Y68642099D01*
X52171901Y68549007D01*
X52106075Y68434993D01*
X52089037Y68371409D01*
X51349340Y69111106D01*
X51289084Y69028170D01*
X51181897Y68817803D01*
X51108934Y68593248D01*
X51072000Y68360053D01*
X49072500Y68360053D01*
X49072500Y68360098D01*
X49035553Y68593369D01*
X48962566Y68817997D01*
X48855477Y69028170D01*
X48855343Y69028433D01*
X48716517Y69219510D01*
X48549510Y69386517D01*
X48358433Y69525343D01*
X48147996Y69632567D01*
X47923368Y69705554D01*
X47690097Y69742500D01*
X47690092Y69742500D01*
X47453908Y69742500D01*
X47453903Y69742500D01*
X47220631Y69705554D01*
X46996003Y69632567D01*
X46785566Y69525343D01*
X46702047Y69464662D01*
X46594490Y69386517D01*
X46594488Y69386515D01*
X46594487Y69386515D01*
X46427485Y69219513D01*
X46427485Y69219512D01*
X46427483Y69219510D01*
X46367862Y69137450D01*
X46288657Y69028434D01*
X46181433Y68817997D01*
X46108446Y68593369D01*
X46071500Y68360098D01*
X46071500Y68123903D01*
X46108446Y67890632D01*
X46181433Y67666004D01*
X46288519Y67455837D01*
X46288657Y67455567D01*
X46427483Y67264490D01*
X46594490Y67097483D01*
X46702042Y67019342D01*
X46785568Y66958656D01*
X46902194Y66899233D01*
X46952990Y66851259D01*
X46969900Y66788748D01*
X46969900Y66394732D01*
X47010933Y66241598D01*
X47072996Y66134100D01*
X47090200Y66104302D01*
X47090202Y66104300D01*
X48040321Y65154181D01*
X48073806Y65092858D01*
X48068822Y65023166D01*
X48026950Y64967233D01*
X47961486Y64942816D01*
X47952640Y64942500D01*
X47951298Y64942500D01*
X47914432Y64939599D01*
X47914426Y64939598D01*
X47756606Y64893746D01*
X47756603Y64893745D01*
X47615137Y64810083D01*
X47615129Y64810077D01*
X47498923Y64693871D01*
X47498917Y64693863D01*
X47415255Y64552397D01*
X47415254Y64552394D01*
X47369402Y64394574D01*
X47369401Y64394568D01*
X47366500Y64357702D01*
X47366500Y64193100D01*
X47346815Y64126061D01*
X47294011Y64080306D01*
X47242500Y64069100D01*
X43321732Y64069100D01*
X43219642Y64041745D01*
X43168597Y64028067D01*
X43031303Y63948801D01*
X43031300Y63948799D01*
X41936201Y62853700D01*
X41936199Y62853697D01*
X41856933Y62716403D01*
X41840003Y62653219D01*
X41833764Y62629934D01*
X41815900Y62563267D01*
X41815900Y52625148D01*
X41796215Y52558109D01*
X41743411Y52512354D01*
X41674253Y52502410D01*
X41667709Y52503531D01*
X41622620Y52512500D01*
X41622616Y52512500D01*
X41435384Y52512500D01*
X41435379Y52512500D01*
X41251756Y52475975D01*
X41251748Y52475973D01*
X41078771Y52404324D01*
X41078762Y52404319D01*
X40923092Y52300303D01*
X40923088Y52300300D01*
X40790700Y52167912D01*
X40790697Y52167908D01*
X40686681Y52012238D01*
X40686676Y52012229D01*
X40615027Y51839252D01*
X40615025Y51839244D01*
X40578500Y51655621D01*
X40578500Y51468380D01*
X40615025Y51284757D01*
X40615027Y51284749D01*
X40686676Y51111772D01*
X40686681Y51111763D01*
X40790696Y50956094D01*
X40790697Y50956093D01*
X40790698Y50956092D01*
X40890582Y50856208D01*
X40924066Y50794887D01*
X40926900Y50768528D01*
X40926900Y49195761D01*
X40907215Y49128722D01*
X40890581Y49108080D01*
X40517160Y48734660D01*
X40455837Y48701175D01*
X40386145Y48706159D01*
X40330212Y48748031D01*
X40307863Y48798147D01*
X40283973Y48918251D01*
X40212322Y49091231D01*
X40212321Y49091232D01*
X40212318Y49091238D01*
X40108302Y49246908D01*
X40108299Y49246912D01*
X39975911Y49379300D01*
X39975907Y49379303D01*
X39820237Y49483319D01*
X39820228Y49483324D01*
X39647251Y49554973D01*
X39647243Y49554975D01*
X39463620Y49591500D01*
X39463616Y49591500D01*
X39276384Y49591500D01*
X39276379Y49591500D01*
X39092756Y49554975D01*
X39092748Y49554973D01*
X38919771Y49483324D01*
X38919762Y49483319D01*
X38764092Y49379303D01*
X38764088Y49379300D01*
X38631700Y49246912D01*
X38631697Y49246908D01*
X38527681Y49091238D01*
X38527676Y49091229D01*
X38456027Y48918252D01*
X38456025Y48918244D01*
X38419500Y48734621D01*
X38419500Y48732100D01*
X38419127Y48730830D01*
X38418903Y48728555D01*
X38418471Y48728598D01*
X38399815Y48665061D01*
X38347011Y48619306D01*
X38295500Y48608100D01*
X11858732Y48608100D01*
X11756642Y48580745D01*
X11705597Y48567067D01*
X11601461Y48506944D01*
X11568303Y48487801D01*
X11568300Y48487799D01*
X9170201Y46089700D01*
X9170199Y46089697D01*
X9090933Y45952403D01*
X9079651Y45910298D01*
X9049900Y45799268D01*
X622499Y45799268D01*
X622499Y59410098D01*
X12761500Y59410098D01*
X12761500Y59173903D01*
X12798446Y58940632D01*
X12871433Y58716004D01*
X12962741Y58536804D01*
X12978657Y58505567D01*
X13117483Y58314490D01*
X13284490Y58147483D01*
X13475567Y58008657D01*
X13571046Y57960008D01*
X13686003Y57901434D01*
X13686005Y57901434D01*
X13686008Y57901432D01*
X13767545Y57874939D01*
X13910631Y57828447D01*
X14143903Y57791500D01*
X14143908Y57791500D01*
X14380097Y57791500D01*
X14613368Y57828447D01*
X14629809Y57833789D01*
X14837992Y57901432D01*
X15048433Y58008657D01*
X15239510Y58147483D01*
X15406517Y58314490D01*
X15545343Y58505567D01*
X15652568Y58716008D01*
X15725553Y58940632D01*
X15741735Y59042801D01*
X15762500Y59173903D01*
X15762500Y59410098D01*
X19261500Y59410098D01*
X19261500Y59173903D01*
X19298446Y58940632D01*
X19371433Y58716004D01*
X19462741Y58536804D01*
X19478657Y58505567D01*
X19617483Y58314490D01*
X19784490Y58147483D01*
X19975567Y58008657D01*
X20071046Y57960008D01*
X20186003Y57901434D01*
X20186005Y57901434D01*
X20186008Y57901432D01*
X20267545Y57874939D01*
X20410631Y57828447D01*
X20643903Y57791500D01*
X20643908Y57791500D01*
X20880097Y57791500D01*
X21113368Y57828447D01*
X21129809Y57833789D01*
X21337992Y57901432D01*
X21548433Y58008657D01*
X21739510Y58147483D01*
X21906517Y58314490D01*
X22045343Y58505567D01*
X22152568Y58716008D01*
X22225553Y58940632D01*
X22241735Y59042801D01*
X22262500Y59173903D01*
X22262500Y59410098D01*
X22225553Y59643369D01*
X22164541Y59831143D01*
X22152568Y59867992D01*
X22152566Y59867995D01*
X22152566Y59867997D01*
X22080796Y60008853D01*
X22045343Y60078433D01*
X21906517Y60269510D01*
X21739510Y60436517D01*
X21548433Y60575343D01*
X21539405Y60579943D01*
X21337996Y60682567D01*
X21113368Y60755554D01*
X20880097Y60792500D01*
X20880092Y60792500D01*
X20643908Y60792500D01*
X20643903Y60792500D01*
X20410631Y60755554D01*
X20186003Y60682567D01*
X19975566Y60575343D01*
X19907560Y60525933D01*
X19784490Y60436517D01*
X19784488Y60436515D01*
X19784487Y60436515D01*
X19617485Y60269513D01*
X19617485Y60269512D01*
X19617483Y60269510D01*
X19560628Y60191256D01*
X19478657Y60078434D01*
X19371433Y59867997D01*
X19298446Y59643369D01*
X19261500Y59410098D01*
X15762500Y59410098D01*
X15725553Y59643369D01*
X15664541Y59831143D01*
X15652568Y59867992D01*
X15652566Y59867995D01*
X15652566Y59867997D01*
X15580796Y60008853D01*
X15545343Y60078433D01*
X15406517Y60269510D01*
X15239510Y60436517D01*
X15048433Y60575343D01*
X15039405Y60579943D01*
X14837996Y60682567D01*
X14613368Y60755554D01*
X14380097Y60792500D01*
X14380092Y60792500D01*
X14143908Y60792500D01*
X14143903Y60792500D01*
X13910631Y60755554D01*
X13686003Y60682567D01*
X13475566Y60575343D01*
X13407560Y60525933D01*
X13284490Y60436517D01*
X13284488Y60436515D01*
X13284487Y60436515D01*
X13117485Y60269513D01*
X13117485Y60269512D01*
X13117483Y60269510D01*
X13060628Y60191256D01*
X12978657Y60078434D01*
X12871433Y59867997D01*
X12798446Y59643369D01*
X12761500Y59410098D01*
X622499Y59410098D01*
X622499Y63910098D01*
X12761500Y63910098D01*
X12761500Y63673903D01*
X12798446Y63440632D01*
X12871433Y63216004D01*
X12916888Y63126795D01*
X12978657Y63005567D01*
X13117483Y62814490D01*
X13284490Y62647483D01*
X13475567Y62508657D01*
X13574991Y62457998D01*
X13686003Y62401434D01*
X13686005Y62401434D01*
X13686008Y62401432D01*
X13762027Y62376732D01*
X13910631Y62328447D01*
X14143903Y62291500D01*
X14143908Y62291500D01*
X14380097Y62291500D01*
X14613368Y62328447D01*
X14655901Y62342267D01*
X14837992Y62401432D01*
X15048433Y62508657D01*
X15239510Y62647483D01*
X15406517Y62814490D01*
X15545343Y63005567D01*
X15652568Y63216008D01*
X15725553Y63440632D01*
X15732847Y63486685D01*
X15762500Y63673903D01*
X15762500Y63910098D01*
X15725553Y64143369D01*
X15662411Y64337699D01*
X15652568Y64367992D01*
X15652566Y64367995D01*
X15652566Y64367997D01*
X15558711Y64552197D01*
X15545343Y64578433D01*
X15406517Y64769510D01*
X15239510Y64936517D01*
X15048433Y65075343D01*
X15014058Y65092858D01*
X14837996Y65182567D01*
X14613368Y65255554D01*
X14380097Y65292500D01*
X14380092Y65292500D01*
X14143908Y65292500D01*
X14143903Y65292500D01*
X13910631Y65255554D01*
X13686003Y65182567D01*
X13475566Y65075343D01*
X13366550Y64996138D01*
X13284490Y64936517D01*
X13284488Y64936515D01*
X13284487Y64936515D01*
X13117485Y64769513D01*
X13117485Y64769512D01*
X13117483Y64769510D01*
X13062528Y64693871D01*
X12978657Y64578434D01*
X12871433Y64367997D01*
X12798446Y64143369D01*
X12761500Y63910098D01*
X622499Y63910098D01*
X622499Y70263289D01*
X4271500Y70263289D01*
X4271500Y70020712D01*
X4303161Y69780215D01*
X4365947Y69545896D01*
X4431964Y69386517D01*
X4458776Y69321788D01*
X4580064Y69111711D01*
X4580066Y69111708D01*
X4580067Y69111707D01*
X4727733Y68919264D01*
X4727739Y68919257D01*
X4899256Y68747740D01*
X4899263Y68747734D01*
X5012321Y68660982D01*
X5091711Y68600064D01*
X5301788Y68478776D01*
X5525900Y68385946D01*
X5760211Y68323162D01*
X5940586Y68299416D01*
X6000711Y68291500D01*
X6000712Y68291500D01*
X6243289Y68291500D01*
X6291388Y68297833D01*
X6483789Y68323162D01*
X6718100Y68385946D01*
X6942212Y68478776D01*
X7152289Y68600064D01*
X7344738Y68747735D01*
X7516265Y68919262D01*
X7663936Y69111711D01*
X7785224Y69321788D01*
X7878054Y69545900D01*
X7940838Y69780211D01*
X7972500Y70020712D01*
X7972500Y70263288D01*
X7940838Y70503789D01*
X7878054Y70738100D01*
X7785224Y70962212D01*
X7663936Y71172289D01*
X7516265Y71364738D01*
X7516260Y71364744D01*
X7344743Y71536261D01*
X7344736Y71536267D01*
X7152293Y71683933D01*
X7152292Y71683934D01*
X7152289Y71683936D01*
X6942212Y71805224D01*
X6942205Y71805227D01*
X6718104Y71898053D01*
X6483785Y71960839D01*
X6243289Y71992500D01*
X6243288Y71992500D01*
X6000712Y71992500D01*
X6000711Y71992500D01*
X5760214Y71960839D01*
X5525895Y71898053D01*
X5301794Y71805227D01*
X5301785Y71805223D01*
X5091706Y71683933D01*
X4899263Y71536267D01*
X4899256Y71536261D01*
X4727739Y71364744D01*
X4727733Y71364737D01*
X4580067Y71172294D01*
X4458777Y70962215D01*
X4458773Y70962206D01*
X4365947Y70738105D01*
X4303161Y70503786D01*
X4271500Y70263289D01*
X622499Y70263289D01*
X622499Y73138250D01*
X622725Y73145737D01*
X640270Y73435795D01*
X642075Y73450660D01*
X693779Y73732798D01*
X697363Y73747336D01*
X782695Y74021179D01*
X787997Y74035159D01*
X905730Y74296751D01*
X912675Y74309984D01*
X1061079Y74555474D01*
X1069566Y74567770D01*
X1246479Y74793583D01*
X1256394Y74804774D01*
X1459225Y75007605D01*
X1470416Y75017520D01*
X1696229Y75194434D01*
X1708525Y75202921D01*
X1954010Y75351322D01*
X1967255Y75358273D01*
X2228841Y75476003D01*
X2242822Y75481305D01*
X2516668Y75566639D01*
X2531197Y75570221D01*
X2813343Y75621926D01*
X2828200Y75623730D01*
X3118247Y75641274D01*
X3125734Y75641500D01*
X3187892Y75641500D01*
X97056107Y75641500D01*
X97118248Y75641500D01*
X97125735Y75641274D01*
G37*
%TD.AperFunction*%
%TD*%
M02*
