M48
; DRILL file {KiCad 8.0.8-8.0.8-0~ubuntu24.04.1} date 2025-02-14T01:20:24+0100
; FORMAT={-:-/ absolute / metric / decimal}
; #@! TF.CreationDate,2025-02-14T01:20:24+01:00
; #@! TF.GenerationSoftware,Kicad,Pcbnew,8.0.8-8.0.8-0~ubuntu24.04.1
; #@! TF.FileFunction,MixedPlating,1,2
FMAT,2
METRIC
; #@! TA.AperFunction,Plated,PTH,ViaDrill
T1C0.500
; #@! TA.AperFunction,Plated,PTH,ComponentDrill
T2C1.000
; #@! TA.AperFunction,Plated,PTH,ComponentDrill
T3C1.100
; #@! TA.AperFunction,Plated,PTH,ComponentDrill
T4C2.600
; #@! TA.AperFunction,NonPlated,NPTH,ComponentDrill
T5C3.200
%
G90
G05
T1
X-41.232Y8.086
X-38.692Y6.816
X-33.612Y-6.646
X-31.58Y-33.57
X-30.564Y10.118
X-24.468Y-31.538
X-18.88Y6.816
X-18.88Y-6.646
X-13.292Y-31.538
X-11.768Y-9.694
X-11.768Y-16.044
X-11.26Y10.118
X-9.99Y8.086
X-9.736Y-34.332
X-8.974Y-31.538
X-8.212Y-15.536
X-8.212Y-18.076
X-6.942Y-5.884
X-6.18Y-21.378
X-6.18Y-29.506
X-2.878Y-18.076
X-2.624Y7.832
X-0.05Y6.562
X1.186Y-3.344
X2.202Y7.832
X2.202Y4.784
X6.012Y-15.536
X6.52Y-0.55
X6.52Y-8.424
X7.79Y4.784
X19.982Y4.784
X19.982Y-11.472
X25.062Y-2.328
X25.062Y-13.25
X26.586Y-32.808
X27.094Y6.562
X34.714Y-12.742
X37.254Y-30.776
X37.254Y-32.808
X37.254Y-36.693
X41.572Y-12.742
T2
X-31.5Y-15.55
X-31.5Y-30.05
X-29.0Y-15.55
X-26.5Y-15.55
X-26.5Y-30.05
X-5.418Y-32.046
X-3.904Y-0.55
X-2.878Y-32.046
X-2.55Y30.1
X-2.55Y15.6
X-1.364Y-0.55
X-0.338Y-32.046
X-0.05Y15.6
X1.176Y-0.55
X2.202Y-32.046
X2.45Y30.1
X2.45Y15.6
X3.716Y-0.55
X4.742Y-32.046
X27.5Y-15.5
X27.5Y-30.0
X30.0Y-15.5
X32.5Y-15.5
X32.5Y-30.0
T3
X-35.86Y25.65
X-35.86Y21.15
X-29.36Y25.65
X-29.36Y21.15
X-3.08Y-20.398
X-3.08Y-24.898
X3.42Y-20.398
X3.42Y-24.898
X29.863Y25.655
X29.863Y21.155
X36.363Y25.655
X36.363Y21.155
T4
X-34.6Y-23.05
X-23.4Y-23.05
X-5.65Y23.1
X5.55Y23.1
X24.4Y-23.0
X35.6Y-23.0
T5
X-44.0Y32.0
X-44.0Y-32.0
X44.0Y32.0
X44.0Y-32.0
M30
