%TF.GenerationSoftware,KiCad,Pcbnew,9.0.4*%
%TF.CreationDate,2025-09-26T15:30:34+02:00*%
%TF.ProjectId,Encoders-LCD,456e636f-6465-4727-932d-4c43442e6b69,rev?*%
%TF.SameCoordinates,PX2607d70PY72938b0*%
%TF.FileFunction,Soldermask,Top*%
%TF.FilePolarity,Negative*%
%FSLAX46Y46*%
G04 Gerber Fmt 4.6, Leading zero omitted, Abs format (unit mm)*
G04 Created by KiCad (PCBNEW 9.0.4) date 2025-09-26 15:30:34*
%MOMM*%
%LPD*%
G01*
G04 APERTURE LIST*
G04 Aperture macros list*
%AMRoundRect*
0 Rectangle with rounded corners*
0 $1 Rounding radius*
0 $2 $3 $4 $5 $6 $7 $8 $9 X,Y pos of 4 corners*
0 Add a 4 corners polygon primitive as box body*
4,1,4,$2,$3,$4,$5,$6,$7,$8,$9,$2,$3,0*
0 Add four circle primitives for the rounded corners*
1,1,$1+$1,$2,$3*
1,1,$1+$1,$4,$5*
1,1,$1+$1,$6,$7*
1,1,$1+$1,$8,$9*
0 Add four rect primitives between the rounded corners*
20,1,$1+$1,$2,$3,$4,$5,0*
20,1,$1+$1,$4,$5,$6,$7,0*
20,1,$1+$1,$6,$7,$8,$9,0*
20,1,$1+$1,$8,$9,$2,$3,0*%
G04 Aperture macros list end*
%ADD10C,2.000000*%
%ADD11C,1.600000*%
%ADD12C,3.200000*%
%ADD13R,2.000000X2.000000*%
%ADD14RoundRect,0.250000X0.475000X-0.337500X0.475000X0.337500X-0.475000X0.337500X-0.475000X-0.337500X0*%
%ADD15RoundRect,0.250000X0.337500X0.475000X-0.337500X0.475000X-0.337500X-0.475000X0.337500X-0.475000X0*%
%ADD16RoundRect,0.250000X-0.350000X-0.625000X0.350000X-0.625000X0.350000X0.625000X-0.350000X0.625000X0*%
%ADD17O,1.200000X1.750000*%
%ADD18RoundRect,0.250000X0.350000X0.625000X-0.350000X0.625000X-0.350000X-0.625000X0.350000X-0.625000X0*%
G04 APERTURE END LIST*
D10*
%TO.C,SW3*%
X79984500Y63796600D03*
X86484500Y63796600D03*
X79984500Y59296600D03*
X86484500Y59296600D03*
%TD*%
D11*
%TO.C,U3*%
X73760000Y33811200D03*
X76300000Y33811200D03*
X78840000Y33811200D03*
X81380000Y33811200D03*
X83920000Y33811200D03*
X86460000Y43971200D03*
X83920000Y43971200D03*
X81380000Y43971200D03*
X78840000Y43971200D03*
X76300000Y43971200D03*
X73760000Y43971200D03*
%TD*%
D12*
%TO.C,H4*%
X94122000Y6142000D03*
%TD*%
D13*
%TO.C,ENC3*%
X82622000Y22642000D03*
D10*
X77622000Y22642000D03*
X80122000Y22642000D03*
D12*
X85722000Y15142000D03*
X74522000Y15142000D03*
D10*
X77622000Y8142000D03*
X82622000Y8142000D03*
%TD*%
D14*
%TO.C,R3*%
X70372000Y52234500D03*
X70372000Y54309500D03*
%TD*%
D12*
%TO.C,H1*%
X6122000Y70142000D03*
%TD*%
%TO.C,H2*%
X94122000Y70142000D03*
%TD*%
D10*
%TO.C,SW1*%
X14262000Y63792000D03*
X20762000Y63792000D03*
X14262000Y59292000D03*
X20762000Y59292000D03*
%TD*%
D12*
%TO.C,H3*%
X6122000Y6142000D03*
%TD*%
D14*
%TO.C,R4*%
X72452000Y52184500D03*
X72452000Y54259500D03*
%TD*%
D13*
%TO.C,ENC2*%
X23622000Y22592000D03*
D10*
X18622000Y22592000D03*
X21122000Y22592000D03*
D12*
X26722000Y15092000D03*
X15522000Y15092000D03*
D10*
X18622000Y8092000D03*
X23622000Y8092000D03*
%TD*%
D11*
%TO.C,U2*%
X14933600Y33760400D03*
X17473600Y33760400D03*
X20013600Y33760400D03*
X22553600Y33760400D03*
X25093600Y33760400D03*
X27633600Y43920400D03*
X25093600Y43920400D03*
X22553600Y43920400D03*
X20013600Y43920400D03*
X17473600Y43920400D03*
X14933600Y43920400D03*
%TD*%
D13*
%TO.C,ENC1*%
X47572000Y53742000D03*
D10*
X52572000Y53742000D03*
X50072000Y53742000D03*
D12*
X44472000Y61242000D03*
X55672000Y61242000D03*
D10*
X52572000Y68242000D03*
X47572000Y68242000D03*
%TD*%
D15*
%TO.C,C5*%
X68079500Y53422000D03*
X66004500Y53422000D03*
%TD*%
D10*
%TO.C,SW2*%
X47042000Y17744000D03*
X53542000Y17744000D03*
X47042000Y13244000D03*
X53542000Y13244000D03*
%TD*%
D15*
%TO.C,C6*%
X36179500Y12992000D03*
X34104500Y12992000D03*
%TD*%
D16*
%TO.C,J1*%
X66452000Y56982000D03*
D17*
X68452000Y56982000D03*
X70452000Y56982000D03*
X72452000Y56982000D03*
%TD*%
D18*
%TO.C,J2*%
X40222000Y9662000D03*
D17*
X38222000Y9662000D03*
X36222000Y9662000D03*
X34222000Y9662000D03*
%TD*%
M02*
