%TF.GenerationSoftware,KiCad,Pcbnew,8.0.8-8.0.8-0~ubuntu24.04.1*%
%TF.CreationDate,2025-02-11T20:21:18+01:00*%
%TF.ProjectId,Encoders-LCD,456e636f-6465-4727-932d-4c43442e6b69,rev?*%
%TF.SameCoordinates,PX55d4a80PY4e33880*%
%TF.FileFunction,Copper,L2,Bot*%
%TF.FilePolarity,Positive*%
%FSLAX46Y46*%
G04 Gerber Fmt 4.6, Leading zero omitted, Abs format (unit mm)*
G04 Created by KiCad (PCBNEW 8.0.8-8.0.8-0~ubuntu24.04.1) date 2025-02-11 20:21:18*
%MOMM*%
%LPD*%
G01*
G04 APERTURE LIST*
G04 Aperture macros list*
%AMRoundRect*
0 Rectangle with rounded corners*
0 $1 Rounding radius*
0 $2 $3 $4 $5 $6 $7 $8 $9 X,Y pos of 4 corners*
0 Add a 4 corners polygon primitive as box body*
4,1,4,$2,$3,$4,$5,$6,$7,$8,$9,$2,$3,0*
0 Add four circle primitives for the rounded corners*
1,1,$1+$1,$2,$3*
1,1,$1+$1,$4,$5*
1,1,$1+$1,$6,$7*
1,1,$1+$1,$8,$9*
0 Add four rect primitives between the rounded corners*
20,1,$1+$1,$2,$3,$4,$5,0*
20,1,$1+$1,$4,$5,$6,$7,0*
20,1,$1+$1,$6,$7,$8,$9,0*
20,1,$1+$1,$8,$9,$2,$3,0*%
G04 Aperture macros list end*
%TA.AperFunction,SMDPad,CuDef*%
%ADD10RoundRect,0.150000X0.150000X-0.825000X0.150000X0.825000X-0.150000X0.825000X-0.150000X-0.825000X0*%
%TD*%
%TA.AperFunction,SMDPad,CuDef*%
%ADD11RoundRect,0.150000X-0.150000X0.825000X-0.150000X-0.825000X0.150000X-0.825000X0.150000X0.825000X0*%
%TD*%
%TA.AperFunction,SMDPad,CuDef*%
%ADD12RoundRect,0.250000X0.337500X0.475000X-0.337500X0.475000X-0.337500X-0.475000X0.337500X-0.475000X0*%
%TD*%
%TA.AperFunction,SMDPad,CuDef*%
%ADD13RoundRect,0.250000X-0.337500X-0.475000X0.337500X-0.475000X0.337500X0.475000X-0.337500X0.475000X0*%
%TD*%
%TA.AperFunction,SMDPad,CuDef*%
%ADD14RoundRect,0.250000X-0.475000X0.337500X-0.475000X-0.337500X0.475000X-0.337500X0.475000X0.337500X0*%
%TD*%
%TA.AperFunction,SMDPad,CuDef*%
%ADD15RoundRect,0.250000X0.475000X-0.337500X0.475000X0.337500X-0.475000X0.337500X-0.475000X-0.337500X0*%
%TD*%
%TA.AperFunction,ComponentPad*%
%ADD16C,2.000000*%
%TD*%
%TA.AperFunction,ComponentPad*%
%ADD17R,2.000000X2.000000*%
%TD*%
%TA.AperFunction,ComponentPad*%
%ADD18C,3.200000*%
%TD*%
%TA.AperFunction,ComponentPad*%
%ADD19RoundRect,0.225000X-0.225000X-0.475000X0.225000X-0.475000X0.225000X0.475000X-0.225000X0.475000X0*%
%TD*%
%TA.AperFunction,ComponentPad*%
%ADD20O,0.900000X1.400000*%
%TD*%
%TA.AperFunction,ViaPad*%
%ADD21C,1.000000*%
%TD*%
%TA.AperFunction,Conductor*%
%ADD22C,0.406400*%
%TD*%
%TA.AperFunction,Conductor*%
%ADD23C,0.355600*%
%TD*%
G04 APERTURE END LIST*
D10*
%TO.P,U6,1,~{PL}*%
%TO.N,/PL*%
X3599000Y-10645000D03*
%TO.P,U6,2,CP*%
%TO.N,/CLK*%
X2329000Y-10645000D03*
%TO.P,U6,3,D4*%
%TO.N,/SFTSW*%
X1059000Y-10645000D03*
%TO.P,U6,4,D5*%
%TO.N,/SW3*%
X-211000Y-10645000D03*
%TO.P,U6,5,D6*%
%TO.N,/SW2*%
X-1481000Y-10645000D03*
%TO.P,U6,6,D7*%
%TO.N,/SW1*%
X-2751000Y-10645000D03*
%TO.P,U6,7,~{Q7}*%
%TO.N,unconnected-(U6-~{Q7}-Pad7)*%
X-4021000Y-10645000D03*
%TO.P,U6,8,GND*%
%TO.N,GND*%
X-5291000Y-10645000D03*
%TO.P,U6,9,Q7*%
%TO.N,/SER_S*%
X-5291000Y-5695000D03*
%TO.P,U6,10,DS*%
%TO.N,unconnected-(U6-DS-Pad10)*%
X-4021000Y-5695000D03*
%TO.P,U6,11,D0*%
%TO.N,unconnected-(U6-D0-Pad11)*%
X-2751000Y-5695000D03*
%TO.P,U6,12,D1*%
%TO.N,unconnected-(U6-D1-Pad12)*%
X-1481000Y-5695000D03*
%TO.P,U6,13,D2*%
%TO.N,unconnected-(U6-D2-Pad13)*%
X-211000Y-5695000D03*
%TO.P,U6,14,D3*%
%TO.N,unconnected-(U6-D3-Pad14)*%
X1059000Y-5695000D03*
%TO.P,U6,15,~{CE}*%
%TO.N,GND*%
X2329000Y-5695000D03*
%TO.P,U6,16,VCC*%
%TO.N,VCC*%
X3599000Y-5695000D03*
%TD*%
D11*
%TO.P,U5,16,VCC*%
%TO.N,VCC*%
X-22309000Y3579000D03*
%TO.P,U5,15,~{CE}*%
%TO.N,GND*%
X-21039000Y3579000D03*
%TO.P,U5,14,D3*%
%TO.N,unconnected-(U5-D3-Pad14)*%
X-19769000Y3579000D03*
%TO.P,U5,13,D2*%
%TO.N,unconnected-(U5-D2-Pad13)*%
X-18499000Y3579000D03*
%TO.P,U5,12,D1*%
%TO.N,unconnected-(U5-D1-Pad12)*%
X-17229000Y3579000D03*
%TO.P,U5,11,D0*%
%TO.N,unconnected-(U5-D0-Pad11)*%
X-15959000Y3579000D03*
%TO.P,U5,10,DS*%
%TO.N,unconnected-(U5-DS-Pad10)*%
X-14689000Y3579000D03*
%TO.P,U5,9,Q7*%
%TO.N,/SER_B*%
X-13419000Y3579000D03*
%TO.P,U5,8,GND*%
%TO.N,GND*%
X-13419000Y8529000D03*
%TO.P,U5,7,~{Q7}*%
%TO.N,unconnected-(U5-~{Q7}-Pad7)*%
X-14689000Y8529000D03*
%TO.P,U5,6,D7*%
%TO.N,/B1*%
X-15959000Y8529000D03*
%TO.P,U5,5,D6*%
%TO.N,/B2*%
X-17229000Y8529000D03*
%TO.P,U5,4,D5*%
%TO.N,/B3*%
X-18499000Y8529000D03*
%TO.P,U5,3,D4*%
%TO.N,/RSW*%
X-19769000Y8529000D03*
%TO.P,U5,2,CP*%
%TO.N,/CLK*%
X-21039000Y8529000D03*
%TO.P,U5,1,~{PL}*%
%TO.N,/PL*%
X-22309000Y8529000D03*
%TD*%
D10*
%TO.P,U4,1,~{PL}*%
%TO.N,/PL*%
X22141000Y3325000D03*
%TO.P,U4,2,CP*%
%TO.N,/CLK*%
X20871000Y3325000D03*
%TO.P,U4,3,D4*%
%TO.N,/LSW*%
X19601000Y3325000D03*
%TO.P,U4,4,D5*%
%TO.N,/A3*%
X18331000Y3325000D03*
%TO.P,U4,5,D6*%
%TO.N,/A2*%
X17061000Y3325000D03*
%TO.P,U4,6,D7*%
%TO.N,/A1*%
X15791000Y3325000D03*
%TO.P,U4,7,~{Q7}*%
%TO.N,unconnected-(U4-~{Q7}-Pad7)*%
X14521000Y3325000D03*
%TO.P,U4,8,GND*%
%TO.N,GND*%
X13251000Y3325000D03*
%TO.P,U4,9,Q7*%
%TO.N,/SER_A*%
X13251000Y8275000D03*
%TO.P,U4,10,DS*%
%TO.N,unconnected-(U4-DS-Pad10)*%
X14521000Y8275000D03*
%TO.P,U4,11,D0*%
%TO.N,unconnected-(U4-D0-Pad11)*%
X15791000Y8275000D03*
%TO.P,U4,12,D1*%
%TO.N,unconnected-(U4-D1-Pad12)*%
X17061000Y8275000D03*
%TO.P,U4,13,D2*%
%TO.N,unconnected-(U4-D2-Pad13)*%
X18331000Y8275000D03*
%TO.P,U4,14,D3*%
%TO.N,unconnected-(U4-D3-Pad14)*%
X19601000Y8275000D03*
%TO.P,U4,15,~{CE}*%
%TO.N,GND*%
X20871000Y8275000D03*
%TO.P,U4,16,VCC*%
%TO.N,VCC*%
X22141000Y8275000D03*
%TD*%
D12*
%TO.P,R14,1*%
%TO.N,/SFTSW*%
X-5904500Y-24934000D03*
%TO.P,R14,2*%
%TO.N,GND*%
X-7979500Y-24934000D03*
%TD*%
%TO.P,R13,1*%
%TO.N,/SW1*%
X-2602500Y33486000D03*
%TO.P,R13,2*%
%TO.N,GND*%
X-4677500Y33486000D03*
%TD*%
D13*
%TO.P,R12,1*%
%TO.N,/SW2*%
X-26521500Y-33316000D03*
%TO.P,R12,2*%
%TO.N,GND*%
X-24446500Y-33316000D03*
%TD*%
%TO.P,R11,1*%
%TO.N,/SW3*%
X32660500Y-33316000D03*
%TO.P,R11,2*%
%TO.N,GND*%
X34735500Y-33316000D03*
%TD*%
D12*
%TO.P,R10,1*%
%TO.N,/B3*%
X27623500Y-10710000D03*
%TO.P,R10,2*%
%TO.N,GND*%
X25548500Y-10710000D03*
%TD*%
D14*
%TO.P,R9,1*%
%TO.N,GND*%
X32428000Y-10434500D03*
%TO.P,R9,2*%
%TO.N,/A3*%
X32428000Y-12509500D03*
%TD*%
D12*
%TO.P,R8,1*%
%TO.N,/B2*%
X-31558500Y-11218000D03*
%TO.P,R8,2*%
%TO.N,GND*%
X-33633500Y-11218000D03*
%TD*%
D14*
%TO.P,R7,2*%
%TO.N,/A2*%
X-26500000Y-12509500D03*
%TO.P,R7,1*%
%TO.N,GND*%
X-26500000Y-10434500D03*
%TD*%
%TO.P,R6,1*%
%TO.N,/B1*%
X2202000Y12171500D03*
%TO.P,R6,2*%
%TO.N,GND*%
X2202000Y10096500D03*
%TD*%
D15*
%TO.P,R5,1*%
%TO.N,GND*%
X-2624000Y10096500D03*
%TO.P,R5,2*%
%TO.N,/A1*%
X-2624000Y12171500D03*
%TD*%
D12*
%TO.P,R2,1*%
%TO.N,/RSW*%
X36513500Y16468000D03*
%TO.P,R2,2*%
%TO.N,GND*%
X34438500Y16468000D03*
%TD*%
%TO.P,R1,2*%
%TO.N,GND*%
X-37951500Y17230000D03*
%TO.P,R1,1*%
%TO.N,/LSW*%
X-35876500Y17230000D03*
%TD*%
D16*
%TO.P,SW3,1,1*%
%TO.N,VCC*%
X29862514Y25654586D03*
X36362514Y25654586D03*
%TO.P,SW3,2,2*%
%TO.N,/RSW*%
X29862514Y21154586D03*
X36362514Y21154586D03*
%TD*%
%TO.P,SW2,1,1*%
%TO.N,VCC*%
X-35860000Y25650000D03*
X-29360000Y25650000D03*
%TO.P,SW2,2,2*%
%TO.N,/LSW*%
X-35860000Y21150000D03*
X-29360000Y21150000D03*
%TD*%
%TO.P,SW1,1,1*%
%TO.N,VCC*%
X-3080000Y-20398000D03*
X3420000Y-20398000D03*
%TO.P,SW1,2,2*%
%TO.N,/SFTSW*%
X-3080000Y-24898000D03*
X3420000Y-24898000D03*
%TD*%
D17*
%TO.P,ENC3,A,A*%
%TO.N,/A3*%
X32500000Y-15500000D03*
D16*
%TO.P,ENC3,B,B*%
%TO.N,/B3*%
X27500000Y-15500000D03*
%TO.P,ENC3,C,C*%
%TO.N,VCC*%
X30000000Y-15500000D03*
D18*
%TO.P,ENC3,MP*%
%TO.N,N/C*%
X35600000Y-23000000D03*
X24400000Y-23000000D03*
D16*
%TO.P,ENC3,S1,S1*%
%TO.N,VCC*%
X27500000Y-30000000D03*
%TO.P,ENC3,S2,S2*%
%TO.N,/SW3*%
X32500000Y-30000000D03*
%TD*%
D17*
%TO.P,ENC2,A,A*%
%TO.N,/A2*%
X-26500000Y-15550000D03*
D16*
%TO.P,ENC2,B,B*%
%TO.N,/B2*%
X-31500000Y-15550000D03*
%TO.P,ENC2,C,C*%
%TO.N,VCC*%
X-29000000Y-15550000D03*
D18*
%TO.P,ENC2,MP*%
%TO.N,N/C*%
X-23400000Y-23050000D03*
X-34600000Y-23050000D03*
D16*
%TO.P,ENC2,S1,S1*%
%TO.N,VCC*%
X-31500000Y-30050000D03*
%TO.P,ENC2,S2,S2*%
%TO.N,/SW2*%
X-26500000Y-30050000D03*
%TD*%
D17*
%TO.P,ENC1,A,A*%
%TO.N,/A1*%
X-2550000Y15600000D03*
D16*
%TO.P,ENC1,B,B*%
%TO.N,/B1*%
X2450000Y15600000D03*
%TO.P,ENC1,C,C*%
%TO.N,VCC*%
X-50000Y15600000D03*
D18*
%TO.P,ENC1,MP*%
%TO.N,N/C*%
X-5650000Y23100000D03*
X5550000Y23100000D03*
D16*
%TO.P,ENC1,S1,S1*%
%TO.N,VCC*%
X2450000Y30100000D03*
%TO.P,ENC1,S2,S2*%
%TO.N,/SW1*%
X-2550000Y30100000D03*
%TD*%
D15*
%TO.P,C2,1*%
%TO.N,VCC*%
X-15324000Y32956500D03*
%TO.P,C2,2*%
%TO.N,GND*%
X-15324000Y35031500D03*
%TD*%
D14*
%TO.P,C3,1*%
%TO.N,VCC*%
X-27516000Y35031500D03*
%TO.P,C3,2*%
%TO.N,GND*%
X-27516000Y32956500D03*
%TD*%
D19*
%TO.P,J1,1,Pin_1*%
%TO.N,GND*%
X-23706000Y32978000D03*
D20*
%TO.P,J1,2,Pin_2*%
%TO.N,/PL*%
X-22456000Y32978000D03*
%TO.P,J1,3,Pin_3*%
%TO.N,/CLK*%
X-21206000Y32978000D03*
%TO.P,J1,4,Pin_4*%
%TO.N,VCC*%
X-19956000Y32978000D03*
%TD*%
D19*
%TO.P,J2,1,Pin_1*%
%TO.N,GND*%
X17091000Y32815500D03*
D20*
%TO.P,J2,2,Pin_2*%
%TO.N,/SER_A*%
X18341000Y32815500D03*
%TO.P,J2,3,Pin_3*%
%TO.N,/SER_B*%
X19591000Y32815500D03*
%TO.P,J2,4,Pin_4*%
%TO.N,/SER_S*%
X20841000Y32815500D03*
%TD*%
D21*
%TO.N,GND*%
X-21064400Y-10583000D03*
X5859600Y-18228400D03*
X-15222400Y-18177600D03*
X2329000Y-245200D03*
X2354400Y-2607400D03*
X-7246800Y-10735400D03*
X-8034200Y-18203000D03*
X-34526400Y-13224600D03*
X-39327000Y-13224600D03*
%TO.N,VCC*%
X5859600Y-6392000D03*
X5859600Y-9871800D03*
X8171000Y3971200D03*
X11396800Y3971200D03*
%TO.N,/B1*%
X4919800Y13394600D03*
%TO.N,VCC*%
X-12580800Y28380600D03*
X8577400Y27567800D03*
X15054400Y11057800D03*
X9618800Y11083200D03*
%TO.N,/B3*%
X26636800Y17458600D03*
X27576600Y6689000D03*
X-16721000Y17484000D03*
X27652800Y2701200D03*
%TO.N,/A1*%
X11447600Y1710600D03*
X8247200Y1710600D03*
%TO.N,/A2*%
X16934000Y-2836000D03*
X-10904400Y745400D03*
%TO.N,/PL*%
X4234000Y-14672400D03*
X-9659800Y19465200D03*
X-8618400Y-14418400D03*
X-24188600Y19439800D03*
%TO.N,/CLK*%
X-9202600Y20633600D03*
X-3030400Y-13402400D03*
X-14206400Y20684400D03*
X2938600Y-13402400D03*
%TO.N,/B1*%
X-14460400Y13369200D03*
%TO.N,/RSW*%
X15333800Y18703200D03*
X-15197000Y18728600D03*
%TO.N,/SER_S*%
X14394000Y29676000D03*
X20998000Y29676000D03*
%TO.N,/A3*%
X18458000Y-2836000D03*
X29126000Y-2836000D03*
%TD*%
D22*
%TO.N,VCC*%
X-3080000Y-20398000D02*
X3420000Y-20398000D01*
D23*
%TO.N,/SFTSW*%
X-3080000Y-24898000D02*
X3420000Y-24898000D01*
D22*
%TO.N,/RSW*%
X29862514Y21154586D02*
X28135400Y22881700D01*
X28135400Y22881700D02*
X28135400Y26475600D01*
X28135400Y26475600D02*
X29253000Y27593200D01*
X38600200Y23392272D02*
X36362514Y21154586D01*
X29253000Y27593200D02*
X37304800Y27593200D01*
X37304800Y27593200D02*
X38651000Y26247000D01*
X38651000Y26247000D02*
X38600200Y26196200D01*
X38600200Y26196200D02*
X38600200Y23392272D01*
%TO.N,VCC*%
X29862514Y25654586D02*
X36362514Y25654586D01*
%TO.N,GND*%
X-21064400Y-10583000D02*
X-21212900Y-10434500D01*
X-21212900Y-10434500D02*
X-26500000Y-10434500D01*
D23*
%TO.N,VCC*%
X3599000Y-5695000D02*
X3599000Y-3725000D01*
X3599000Y-3725000D02*
X5072200Y-2251800D01*
X5072200Y-2251800D02*
X9847400Y-2251800D01*
X9847400Y-2251800D02*
X10431600Y-1667600D01*
X10431600Y-1667600D02*
X10431600Y2498000D01*
X10431600Y2498000D02*
X11396800Y3463200D01*
X11396800Y3463200D02*
X11396800Y3971200D01*
%TO.N,/SER_S*%
X-5291000Y-5695000D02*
X-5291000Y-1947000D01*
X8806000Y-1058000D02*
X9822000Y-42000D01*
X11854000Y29676000D02*
X14394000Y29676000D01*
X-5291000Y-1947000D02*
X-4402000Y-1058000D01*
X-4402000Y-1058000D02*
X754200Y-1058000D01*
X754200Y-1058000D02*
X1186000Y-1489800D01*
X1186000Y-1489800D02*
X3091000Y-1489800D01*
X3091000Y-1489800D02*
X3522800Y-1058000D01*
X3522800Y-1058000D02*
X8806000Y-1058000D01*
X9822000Y-42000D02*
X9822000Y4530000D01*
X9822000Y4530000D02*
X10838000Y5546000D01*
X10838000Y5546000D02*
X10838000Y28660000D01*
X10838000Y28660000D02*
X11854000Y29676000D01*
D22*
%TO.N,GND*%
X17091000Y32815500D02*
X15289100Y34617400D01*
X15289100Y34617400D02*
X-3546100Y34617400D01*
X-3546100Y34617400D02*
X-4677500Y33486000D01*
X5961200Y-18330000D02*
X5859600Y-18228400D01*
X25548500Y-10710000D02*
X15156000Y-10710000D01*
X7536000Y-18330000D02*
X5961200Y-18330000D01*
X15156000Y-10710000D02*
X7536000Y-18330000D01*
X-15222400Y-30293400D02*
X-18245000Y-33316000D01*
X-15222400Y-18177600D02*
X-15222400Y-30293400D01*
X-18245000Y-33316000D02*
X-24446500Y-33316000D01*
X-2624000Y4352200D02*
X-2624000Y10096500D01*
X2329000Y-245200D02*
X1973400Y-245200D01*
X1973400Y-245200D02*
X-2624000Y4352200D01*
X2329000Y-5695000D02*
X2329000Y-2632800D01*
X2329000Y-2632800D02*
X2354400Y-2607400D01*
X-5381400Y-10735400D02*
X-5291000Y-10645000D01*
X-7979500Y-18257700D02*
X-8034200Y-18203000D01*
X-7979500Y-24934000D02*
X-7979500Y-18257700D01*
X-7246800Y-10735400D02*
X-5381400Y-10735400D01*
X-33633500Y-12331700D02*
X-34526400Y-13224600D01*
X-33633500Y-11218000D02*
X-33633500Y-12331700D01*
X-39327000Y-13224600D02*
X-39327000Y16747400D01*
X-39327000Y16747400D02*
X-38844400Y17230000D01*
X-38844400Y17230000D02*
X-37951500Y17230000D01*
%TO.N,VCC*%
X3420000Y-17467600D02*
X5580200Y-15307400D01*
X3420000Y-20398000D02*
X3420000Y-17467600D01*
X4296000Y-6392000D02*
X3599000Y-5695000D01*
X5580200Y-15307400D02*
X5859600Y-15028000D01*
X5859600Y-15028000D02*
X5859600Y-9871800D01*
X5859600Y-6392000D02*
X4296000Y-6392000D01*
D23*
X8145600Y3996600D02*
X8145600Y6765200D01*
X8171000Y3971200D02*
X8145600Y3996600D01*
%TO.N,/B1*%
X4919800Y13394600D02*
X4655400Y13394600D01*
X4655400Y13394600D02*
X2450000Y15600000D01*
%TO.N,VCC*%
X-50000Y15600000D02*
X-50000Y27600000D01*
X-50000Y27600000D02*
X2450000Y30100000D01*
D22*
X-12606200Y28355200D02*
X-12580800Y28380600D01*
X-14409600Y28355200D02*
X-12606200Y28355200D01*
X8577400Y28812400D02*
X7289800Y30100000D01*
X8577400Y27567800D02*
X8577400Y28812400D01*
X7289800Y30100000D02*
X2450000Y30100000D01*
X29862514Y25654586D02*
X32580400Y22936700D01*
X24782600Y18906400D02*
X21556800Y15680600D01*
X32580400Y22936700D02*
X32580400Y20278000D01*
X32580400Y20278000D02*
X31208800Y18906400D01*
X31208800Y18906400D02*
X24782600Y18906400D01*
X21556800Y15680600D02*
X21556800Y11057800D01*
D23*
X22141000Y8275000D02*
X22141000Y10473600D01*
X22141000Y10473600D02*
X21556800Y11057800D01*
X21556800Y11057800D02*
X15054400Y11057800D01*
X9644200Y8797200D02*
X9644200Y11057800D01*
X525600Y7933600D02*
X1694000Y6765200D01*
X9644200Y8263800D02*
X9644200Y8797200D01*
X-50000Y15600000D02*
X525600Y15024400D01*
X525600Y9406800D02*
X525600Y7933600D01*
X1694000Y6765200D02*
X8145600Y6765200D01*
X9212400Y7832000D02*
X9644200Y8263800D01*
X9644200Y11057800D02*
X9618800Y11083200D01*
X525600Y15024400D02*
X525600Y9406800D01*
X8145600Y6765200D02*
X9212400Y7832000D01*
%TO.N,/B3*%
X-18499000Y8529000D02*
X-18499000Y15706000D01*
X27623500Y2671900D02*
X27623500Y-10710000D01*
X-18499000Y15706000D02*
X-16721000Y17484000D01*
X26636800Y17458600D02*
X27576600Y16518800D01*
X27576600Y16518800D02*
X27576600Y6689000D01*
X27652800Y2701200D02*
X27623500Y2671900D01*
%TO.N,/A1*%
X15333800Y974000D02*
X15257600Y974000D01*
X1617800Y1710600D02*
X-363400Y3691800D01*
X15791000Y3325000D02*
X15791000Y1431200D01*
X15791000Y1431200D02*
X15333800Y974000D01*
X-363400Y11489600D02*
X-1045300Y12171500D01*
X15257600Y974000D02*
X12184200Y974000D01*
X12184200Y974000D02*
X11447600Y1710600D01*
X8247200Y1710600D02*
X1617800Y1710600D01*
X-363400Y3691800D02*
X-363400Y11489600D01*
X-1045300Y12171500D02*
X-2624000Y12171500D01*
%TO.N,/A2*%
X-12805500Y-12509500D02*
X-10421800Y-10125800D01*
X-26500000Y-12509500D02*
X-12805500Y-12509500D01*
X-10421800Y-10125800D02*
X-10421800Y262800D01*
X-10421800Y262800D02*
X-10904400Y745400D01*
X17061000Y-2709000D02*
X17061000Y3325000D01*
X16934000Y-2836000D02*
X17061000Y-2709000D01*
D22*
%TO.N,/PL*%
X-9329600Y-6290400D02*
X-9329600Y19135000D01*
X-8618400Y-14418400D02*
X-9329600Y-13707200D01*
X-24188600Y19439800D02*
X-22309000Y21319400D01*
X-9329600Y-13707200D02*
X-9329600Y-6290400D01*
D23*
X-22309000Y8529000D02*
X-22309000Y22233800D01*
D22*
X-9329600Y19135000D02*
X-9659800Y19465200D01*
X-22309000Y21319400D02*
X-22309000Y22233800D01*
X4208600Y-14647000D02*
X4234000Y-14672400D01*
X4208600Y-12716600D02*
X4208600Y-14647000D01*
X3599000Y-10645000D02*
X3599000Y-12107000D01*
X3599000Y-12107000D02*
X4208600Y-12716600D01*
D23*
X-22309000Y22233800D02*
X-22309000Y32831000D01*
D22*
%TO.N,/CLK*%
X-7094400Y-13402400D02*
X-8669200Y-11827600D01*
X2329000Y-12792800D02*
X2938600Y-13402400D01*
X2329000Y-10645000D02*
X2329000Y-12792800D01*
X-19743600Y20684400D02*
X-21039000Y21979800D01*
X-8669200Y-11827600D02*
X-8669200Y20100200D01*
D23*
X-21039000Y21979800D02*
X-21039000Y32811000D01*
D22*
X-8669200Y20100200D02*
X-9202600Y20633600D01*
X-3030400Y-13402400D02*
X-7094400Y-13402400D01*
X-14206400Y20684400D02*
X-19743600Y20684400D01*
D23*
X-21039000Y8529000D02*
X-21039000Y21979800D01*
D22*
%TO.N,VCC*%
X-31500000Y-30050000D02*
X-31500000Y-31464213D01*
X-31500000Y-31464213D02*
X-28048013Y-34916200D01*
X-28048013Y-34916200D02*
X36568200Y-34916200D01*
X36568200Y-34916200D02*
X37304800Y-34179600D01*
X37304800Y-34179600D02*
X37304800Y-30572800D01*
X37304800Y-30572800D02*
X34232000Y-27500000D01*
X34232000Y-27500000D02*
X30000000Y-27500000D01*
D23*
%TO.N,/LSW*%
X-29360000Y21150000D02*
X-29360000Y-3867200D01*
X39133600Y-34179600D02*
X39133600Y2548800D01*
X36492000Y5190400D02*
X19982000Y5190400D01*
X-29360000Y-3867200D02*
X-37599800Y-12107000D01*
X19982000Y5190400D02*
X19601000Y4809400D01*
X-37599800Y-12107000D02*
X-37599800Y-33798600D01*
X-37599800Y-33798600D02*
X-35783700Y-35614700D01*
X-35783700Y-35614700D02*
X37698500Y-35614700D01*
X19601000Y4809400D02*
X19601000Y3325000D01*
X37698500Y-35614700D02*
X39133600Y-34179600D01*
X39133600Y2548800D02*
X36492000Y5190400D01*
%TO.N,/B1*%
X-15959000Y8529000D02*
X-15959000Y11870600D01*
X-15959000Y11870600D02*
X-14460400Y13369200D01*
D22*
%TO.N,/RSW*%
X-18346600Y18728600D02*
X-19426100Y17649100D01*
X-19426100Y17649100D02*
X-19667400Y17407800D01*
D23*
X-19769000Y8529000D02*
X-19769000Y17306200D01*
X-19769000Y17306200D02*
X-19426100Y17649100D01*
D22*
X29862514Y21154586D02*
X17785186Y21154586D01*
X17785186Y21154586D02*
X15333800Y18703200D01*
X-15197000Y18728600D02*
X-18346600Y18728600D01*
D23*
%TO.N,/SW3*%
X-211000Y-10645000D02*
X-211000Y-15840800D01*
X-211000Y-15840800D02*
X-1074600Y-16704400D01*
X-10193200Y-18736400D02*
X-10193200Y-27321600D01*
X-1074600Y-16704400D02*
X-8161200Y-16704400D01*
X-10193200Y-27321600D02*
X-4097200Y-33417600D01*
X-8161200Y-16704400D02*
X-10193200Y-18736400D01*
X-4097200Y-33417600D02*
X32558900Y-33417600D01*
X32558900Y-33417600D02*
X32660500Y-33316000D01*
%TO.N,/SW2*%
X-26500000Y-30050000D02*
X-25498800Y-29048800D01*
X-19692800Y-28159800D02*
X-19692800Y-16704400D01*
X-25498800Y-29048800D02*
X-20581800Y-29048800D01*
X-18372000Y-15383600D02*
X-2446200Y-15383600D01*
X-20581800Y-29048800D02*
X-19692800Y-28159800D01*
X-2446200Y-15383600D02*
X-1481000Y-14418400D01*
X-19692800Y-16704400D02*
X-18372000Y-15383600D01*
X-1481000Y-14418400D02*
X-1481000Y-10645000D01*
%TO.N,/SW1*%
X-2751000Y-10645000D02*
X-2751000Y-9670001D01*
X-2751000Y-9670001D02*
X-3997001Y-8424000D01*
X-3997001Y-8424000D02*
X-5418000Y-8424000D01*
X-5418000Y-8424000D02*
X-6942000Y-6900000D01*
X-6942000Y-6900000D02*
X-6942000Y19135000D01*
X-6942000Y19135000D02*
X-8085000Y20278000D01*
X-8085000Y20278000D02*
X-8085000Y27542400D01*
X-8085000Y27542400D02*
X-5527400Y30100000D01*
X-5527400Y30100000D02*
X-2550000Y30100000D01*
%TO.N,/SER_S*%
X20998000Y32658500D02*
X20841000Y32815500D01*
X20998000Y29676000D02*
X20998000Y32658500D01*
%TO.N,/SER_B*%
X-9228000Y35264000D02*
X18712000Y35264000D01*
X19591000Y32815500D02*
X19591000Y34385000D01*
X19591000Y34385000D02*
X18712000Y35264000D01*
X-13419000Y3579000D02*
X-13419000Y5419000D01*
X-10752000Y33740000D02*
X-9228000Y35264000D01*
X-13419000Y5419000D02*
X-10752000Y8086000D01*
X-10752000Y8086000D02*
X-10752000Y33740000D01*
%TO.N,/SER_A*%
X13251000Y8275000D02*
X13251000Y23707000D01*
X13251000Y23707000D02*
X18341000Y28797000D01*
X18341000Y28797000D02*
X18341000Y32815500D01*
%TO.N,/A3*%
X18331000Y3325000D02*
X18331000Y-2709000D01*
X18331000Y-2709000D02*
X18458000Y-2836000D01*
D22*
X32428000Y-12509500D02*
X29126000Y-9207500D01*
X29126000Y-9207500D02*
X29126000Y-2836000D01*
D23*
%TO.N,/B2*%
X-31558500Y-11218000D02*
X-31558500Y-7894500D01*
X-31558500Y-7894500D02*
X-24214000Y-550000D01*
X-24214000Y-550000D02*
X-24214000Y5800000D01*
X-24214000Y5800000D02*
X-23706000Y6308000D01*
X-17610000Y6308000D02*
X-17229000Y6689000D01*
X-23706000Y6308000D02*
X-17610000Y6308000D01*
X-17229000Y6689000D02*
X-17229000Y8529000D01*
X-31558500Y-11218000D02*
X-31558500Y-15491500D01*
X-31558500Y-15491500D02*
X-31500000Y-15550000D01*
%TO.N,/B3*%
X27623500Y-10710000D02*
X27623500Y-15376500D01*
X27623500Y-15376500D02*
X27500000Y-15500000D01*
%TO.N,/CLK*%
X-21039000Y32811000D02*
X-21206000Y32978000D01*
%TO.N,/PL*%
X-22309000Y32831000D02*
X-22456000Y32978000D01*
D22*
%TO.N,VCC*%
X-29000000Y-15550000D02*
X-29000000Y-7571200D01*
%TO.N,/PL*%
X3599000Y-10645000D02*
X3599000Y-9059000D01*
X3599000Y-9059000D02*
X4132400Y-8525600D01*
X4132400Y-8525600D02*
X18559600Y-8525600D01*
X18559600Y-8525600D02*
X22141000Y-4944200D01*
X22141000Y-4944200D02*
X22141000Y3325000D01*
%TO.N,/CLK*%
X2329000Y-10645000D02*
X2329000Y-8703400D01*
X2329000Y-8703400D02*
X3319600Y-7712800D01*
X3319600Y-7712800D02*
X18254800Y-7712800D01*
X18254800Y-7712800D02*
X20871000Y-5096600D01*
X20871000Y-5096600D02*
X20871000Y3325000D01*
D23*
%TO.N,/SFTSW*%
X1059000Y-10645000D02*
X1059000Y-17288600D01*
X1059000Y-17288600D02*
X271600Y-18076000D01*
X-5904500Y-19375300D02*
X-5904500Y-24934000D01*
X271600Y-18076000D02*
X-4605200Y-18076000D01*
X-4605200Y-18076000D02*
X-5904500Y-19375300D01*
D22*
%TO.N,VCC*%
X27500000Y-30000000D02*
X22203200Y-30000000D01*
X22203200Y-30000000D02*
X20794800Y-28591600D01*
X20794800Y-28591600D02*
X20794800Y-23105200D01*
X20794800Y-23105200D02*
X18087600Y-20398000D01*
X18087600Y-20398000D02*
X3420000Y-20398000D01*
%TO.N,/SW3*%
X32660500Y-33316000D02*
X32660500Y-30160500D01*
X32660500Y-30160500D02*
X32500000Y-30000000D01*
%TO.N,VCC*%
X27500000Y-30000000D02*
X30000000Y-27500000D01*
X30000000Y-27500000D02*
X30000000Y-15500000D01*
%TO.N,/A3*%
X32500000Y-15500000D02*
X32500000Y-12581500D01*
X32500000Y-12581500D02*
X32428000Y-12509500D01*
%TO.N,/RSW*%
X36513500Y16468000D02*
X36513500Y21003600D01*
X36513500Y21003600D02*
X36362514Y21154586D01*
D23*
%TO.N,/LSW*%
X-35860000Y21150000D02*
X-29360000Y21150000D01*
D22*
%TO.N,VCC*%
X-27516000Y35031500D02*
X-28612100Y35031500D01*
X-28612100Y35031500D02*
X-29360000Y34283600D01*
X-29360000Y34283600D02*
X-29360000Y25650000D01*
X-35860000Y25650000D02*
X-29360000Y25650000D01*
X-31500000Y-30050000D02*
X-29000000Y-27550000D01*
X-29000000Y-27550000D02*
X-29000000Y-15550000D01*
X-15324000Y29269600D02*
X-14409600Y28355200D01*
X-15324000Y32956500D02*
X-15324000Y29269600D01*
X-15324000Y32956500D02*
X-19934500Y32956500D01*
X-19934500Y32956500D02*
X-19956000Y32978000D01*
X-19956000Y32978000D02*
X-19956000Y34562000D01*
X-19956000Y34562000D02*
X-20425500Y35031500D01*
X-27516000Y35031500D02*
X-20425500Y35031500D01*
D23*
%TO.N,/LSW*%
X-35876500Y17230000D02*
X-35876500Y21133500D01*
X-35876500Y21133500D02*
X-35860000Y21150000D01*
%TO.N,/A2*%
X-26500000Y-15550000D02*
X-26500000Y-12509500D01*
%TO.N,/SW2*%
X-26500000Y-30050000D02*
X-26500000Y-33294500D01*
X-26500000Y-33294500D02*
X-26521500Y-33316000D01*
%TO.N,/SFTSW*%
X-5904500Y-24934000D02*
X-3116000Y-24934000D01*
X-3116000Y-24934000D02*
X-3080000Y-24898000D01*
%TO.N,/B1*%
X2202000Y12171500D02*
X2202000Y15352000D01*
X2202000Y15352000D02*
X2450000Y15600000D01*
%TO.N,/A1*%
X-2624000Y12171500D02*
X-2624000Y15526000D01*
X-2624000Y15526000D02*
X-2550000Y15600000D01*
%TO.N,/SW1*%
X-2550000Y30100000D02*
X-2550000Y33433500D01*
X-2550000Y33433500D02*
X-2602500Y33486000D01*
D22*
%TO.N,VCC*%
X-22309000Y-880200D02*
X-22309000Y3579000D01*
X-29000000Y-7571200D02*
X-22309000Y-880200D01*
%TD*%
%TA.AperFunction,Conductor*%
%TO.N,GND*%
G36*
X-32317466Y-7886440D02*
G01*
X-32261533Y-7928312D01*
X-32237116Y-7993776D01*
X-32236800Y-8002622D01*
X-32236800Y-10002218D01*
X-32256485Y-10069257D01*
X-32295702Y-10107756D01*
X-32364656Y-10150287D01*
X-32488712Y-10274343D01*
X-32488717Y-10274349D01*
X-32490759Y-10277661D01*
X-32492753Y-10279453D01*
X-32493193Y-10280011D01*
X-32493289Y-10279935D01*
X-32542709Y-10324383D01*
X-32611672Y-10335602D01*
X-32675753Y-10307755D01*
X-32701832Y-10277656D01*
X-32703681Y-10274659D01*
X-32703684Y-10274655D01*
X-32827655Y-10150684D01*
X-32976876Y-10058643D01*
X-32976881Y-10058641D01*
X-33143303Y-10003494D01*
X-33143310Y-10003493D01*
X-33246014Y-9993000D01*
X-33383500Y-9993000D01*
X-33383500Y-12442999D01*
X-33246028Y-12442999D01*
X-33246014Y-12442998D01*
X-33143303Y-12432505D01*
X-32976881Y-12377358D01*
X-32976876Y-12377356D01*
X-32827655Y-12285315D01*
X-32703682Y-12161342D01*
X-32701835Y-12158348D01*
X-32700031Y-12156724D01*
X-32699202Y-12155677D01*
X-32699024Y-12155818D01*
X-32649890Y-12111621D01*
X-32580927Y-12100396D01*
X-32516844Y-12128236D01*
X-32490757Y-12158341D01*
X-32488712Y-12161656D01*
X-32364656Y-12285712D01*
X-32295704Y-12328241D01*
X-32248979Y-12380188D01*
X-32236800Y-12433780D01*
X-32236800Y-14168713D01*
X-32256485Y-14235752D01*
X-32301782Y-14277767D01*
X-32323499Y-14289519D01*
X-32323506Y-14289523D01*
X-32519743Y-14442261D01*
X-32688167Y-14625217D01*
X-32824174Y-14833393D01*
X-32924064Y-15061118D01*
X-32985108Y-15302175D01*
X-32985110Y-15302187D01*
X-33005643Y-15549994D01*
X-33005643Y-15550005D01*
X-32985110Y-15797812D01*
X-32985108Y-15797824D01*
X-32924064Y-16038881D01*
X-32824174Y-16266606D01*
X-32688167Y-16474782D01*
X-32688164Y-16474785D01*
X-32519744Y-16657738D01*
X-32323509Y-16810474D01*
X-32323507Y-16810475D01*
X-32119281Y-16920997D01*
X-32104810Y-16928828D01*
X-31869614Y-17009571D01*
X-31624335Y-17050500D01*
X-31375665Y-17050500D01*
X-31130386Y-17009571D01*
X-30895190Y-16928828D01*
X-30676491Y-16810474D01*
X-30480256Y-16657738D01*
X-30341228Y-16506712D01*
X-30281343Y-16470724D01*
X-30211505Y-16472824D01*
X-30158774Y-16506711D01*
X-30019744Y-16657738D01*
X-29959167Y-16704887D01*
X-29823512Y-16810472D01*
X-29823508Y-16810475D01*
X-29768683Y-16840144D01*
X-29719092Y-16889363D01*
X-29703700Y-16949199D01*
X-29703700Y-27207155D01*
X-29723385Y-27274194D01*
X-29740019Y-27294836D01*
X-31005100Y-28559916D01*
X-31066423Y-28593401D01*
X-31124981Y-28589984D01*
X-31125412Y-28591688D01*
X-31130383Y-28590429D01*
X-31375665Y-28549500D01*
X-31624335Y-28549500D01*
X-31869617Y-28590429D01*
X-32104803Y-28671169D01*
X-32104812Y-28671172D01*
X-32323507Y-28789524D01*
X-32519743Y-28942261D01*
X-32688167Y-29125217D01*
X-32824174Y-29333393D01*
X-32924064Y-29561118D01*
X-32985108Y-29802175D01*
X-32985110Y-29802187D01*
X-33005643Y-30049994D01*
X-33005643Y-30050005D01*
X-32985110Y-30297812D01*
X-32985108Y-30297824D01*
X-32924064Y-30538881D01*
X-32824174Y-30766606D01*
X-32688167Y-30974782D01*
X-32688164Y-30974785D01*
X-32519744Y-31157738D01*
X-32323509Y-31310474D01*
X-32268683Y-31340144D01*
X-32219094Y-31389361D01*
X-32203701Y-31449198D01*
X-32203701Y-31533522D01*
X-32182876Y-31638210D01*
X-32182876Y-31638212D01*
X-32176659Y-31669467D01*
X-32176656Y-31669479D01*
X-32123614Y-31797536D01*
X-32046599Y-31912798D01*
X-31944264Y-32015133D01*
X-31944242Y-32015153D01*
X-29234676Y-34724719D01*
X-29201191Y-34786042D01*
X-29206175Y-34855734D01*
X-29248047Y-34911667D01*
X-29313511Y-34936084D01*
X-29322357Y-34936400D01*
X-35451377Y-34936400D01*
X-35518416Y-34916715D01*
X-35539058Y-34900081D01*
X-36885181Y-33553958D01*
X-36918666Y-33492635D01*
X-36921500Y-33466277D01*
X-36921500Y-23408614D01*
X-36901815Y-23341575D01*
X-36849011Y-23295820D01*
X-36779853Y-23285876D01*
X-36716297Y-23314901D01*
X-36678523Y-23373679D01*
X-36676098Y-23383369D01*
X-36647878Y-23519169D01*
X-36627334Y-23618034D01*
X-36627333Y-23618037D01*
X-36531106Y-23888793D01*
X-36531107Y-23888793D01*
X-36398902Y-24143935D01*
X-36233188Y-24378700D01*
X-36204877Y-24409013D01*
X-36037053Y-24588708D01*
X-35961485Y-24650187D01*
X-35814147Y-24770055D01*
X-35568618Y-24919365D01*
X-35420177Y-24983841D01*
X-35305058Y-25033844D01*
X-35028358Y-25111371D01*
X-34778080Y-25145771D01*
X-34743679Y-25150500D01*
X-34743678Y-25150500D01*
X-34456321Y-25150500D01*
X-34422215Y-25145812D01*
X-34171642Y-25111371D01*
X-33894942Y-25033844D01*
X-33779823Y-24983841D01*
X-33631383Y-24919365D01*
X-33631380Y-24919363D01*
X-33631375Y-24919361D01*
X-33385853Y-24770055D01*
X-33162947Y-24588708D01*
X-32966811Y-24378698D01*
X-32801099Y-24143936D01*
X-32668896Y-23888797D01*
X-32572666Y-23618032D01*
X-32514202Y-23336686D01*
X-32494592Y-23050000D01*
X-32514202Y-22763314D01*
X-32572666Y-22481968D01*
X-32668895Y-22211206D01*
X-32668894Y-22211206D01*
X-32801099Y-21956064D01*
X-32966813Y-21721299D01*
X-33045446Y-21637105D01*
X-33162947Y-21511292D01*
X-33385853Y-21329945D01*
X-33385854Y-21329944D01*
X-33631383Y-21180634D01*
X-33894937Y-21066158D01*
X-33894939Y-21066157D01*
X-33894942Y-21066156D01*
X-34024422Y-21029877D01*
X-34171636Y-20988630D01*
X-34171641Y-20988629D01*
X-34171642Y-20988629D01*
X-34313982Y-20969064D01*
X-34456321Y-20949500D01*
X-34456322Y-20949500D01*
X-34743678Y-20949500D01*
X-34743679Y-20949500D01*
X-35028358Y-20988629D01*
X-35028365Y-20988630D01*
X-35236139Y-21046845D01*
X-35305058Y-21066156D01*
X-35305061Y-21066156D01*
X-35305064Y-21066158D01*
X-35305065Y-21066158D01*
X-35568618Y-21180634D01*
X-35814147Y-21329944D01*
X-36037050Y-21511289D01*
X-36233188Y-21721299D01*
X-36398902Y-21956064D01*
X-36531106Y-22211206D01*
X-36627333Y-22481962D01*
X-36627334Y-22481965D01*
X-36642609Y-22555474D01*
X-36675407Y-22713314D01*
X-36676093Y-22716613D01*
X-36709006Y-22778246D01*
X-36770014Y-22812300D01*
X-36839749Y-22807965D01*
X-36896071Y-22766617D01*
X-36921096Y-22701383D01*
X-36921500Y-22691385D01*
X-36921500Y-12439322D01*
X-36901815Y-12372283D01*
X-36885186Y-12351646D01*
X-36276526Y-11742986D01*
X-34720999Y-11742986D01*
X-34710506Y-11845697D01*
X-34655359Y-12012119D01*
X-34655357Y-12012124D01*
X-34563316Y-12161345D01*
X-34439346Y-12285315D01*
X-34290125Y-12377356D01*
X-34290120Y-12377358D01*
X-34123698Y-12432505D01*
X-34123691Y-12432506D01*
X-34020981Y-12442999D01*
X-33883501Y-12442999D01*
X-33883500Y-12442998D01*
X-33883500Y-11468000D01*
X-34720999Y-11468000D01*
X-34720999Y-11742986D01*
X-36276526Y-11742986D01*
X-34875616Y-10342076D01*
X-34814296Y-10308593D01*
X-34744604Y-10313577D01*
X-34688671Y-10355449D01*
X-34664254Y-10420913D01*
X-34670232Y-10468762D01*
X-34710505Y-10590298D01*
X-34710507Y-10590309D01*
X-34721000Y-10693013D01*
X-34721000Y-10968000D01*
X-33883500Y-10968000D01*
X-33883500Y-9993000D01*
X-34020973Y-9993000D01*
X-34020988Y-9993001D01*
X-34123698Y-10003494D01*
X-34245237Y-10043768D01*
X-34315066Y-10046170D01*
X-34375108Y-10010438D01*
X-34406300Y-9947917D01*
X-34398739Y-9878458D01*
X-34371925Y-9838385D01*
X-32448481Y-7914940D01*
X-32387158Y-7881456D01*
X-32317466Y-7886440D01*
G37*
%TD.AperFunction*%
%TA.AperFunction,Conductor*%
G36*
X-8710285Y-16081585D02*
G01*
X-8664530Y-16134389D01*
X-8654586Y-16203547D01*
X-8683611Y-16267103D01*
X-8689643Y-16273581D01*
X-9672114Y-17256053D01*
X-10625591Y-18209530D01*
X-10672832Y-18256770D01*
X-10720072Y-18304010D01*
X-10794987Y-18416128D01*
X-10796634Y-18420734D01*
X-10845433Y-18538544D01*
X-10845436Y-18538554D01*
X-10858229Y-18602871D01*
X-10871500Y-18669588D01*
X-10871500Y-27388411D01*
X-10845436Y-27519445D01*
X-10845434Y-27519453D01*
X-10824783Y-27569308D01*
X-10824783Y-27569309D01*
X-10794305Y-27642891D01*
X-10794304Y-27642893D01*
X-10752630Y-27705262D01*
X-10720071Y-27753990D01*
X-10720068Y-27753994D01*
X-4624070Y-33849991D01*
X-4529591Y-33944470D01*
X-4529588Y-33944472D01*
X-4529587Y-33944473D01*
X-4468339Y-33985398D01*
X-4423533Y-34039010D01*
X-4414826Y-34108335D01*
X-4444980Y-34171362D01*
X-4504423Y-34208082D01*
X-4537229Y-34212500D01*
X-23286847Y-34212500D01*
X-23353886Y-34192815D01*
X-23399641Y-34140011D01*
X-23409585Y-34070853D01*
X-23404553Y-34049496D01*
X-23369495Y-33943697D01*
X-23369494Y-33943690D01*
X-23359001Y-33840986D01*
X-23359000Y-33840973D01*
X-23359000Y-33566000D01*
X-24322500Y-33566000D01*
X-24389539Y-33546315D01*
X-24435294Y-33493511D01*
X-24446500Y-33442000D01*
X-24446500Y-33316000D01*
X-24572500Y-33316000D01*
X-24639539Y-33296315D01*
X-24685294Y-33243511D01*
X-24696500Y-33192000D01*
X-24696500Y-33066000D01*
X-24196500Y-33066000D01*
X-23359001Y-33066000D01*
X-23359001Y-32791028D01*
X-23359002Y-32791013D01*
X-23369495Y-32688302D01*
X-23424642Y-32521880D01*
X-23424644Y-32521875D01*
X-23516685Y-32372654D01*
X-23640655Y-32248684D01*
X-23789876Y-32156643D01*
X-23789881Y-32156641D01*
X-23956303Y-32101494D01*
X-23956310Y-32101493D01*
X-24059014Y-32091000D01*
X-24196500Y-32091000D01*
X-24196500Y-33066000D01*
X-24696500Y-33066000D01*
X-24696500Y-32091000D01*
X-24833973Y-32091000D01*
X-24833988Y-32091001D01*
X-24936698Y-32101494D01*
X-25103120Y-32156641D01*
X-25103125Y-32156643D01*
X-25252346Y-32248684D01*
X-25376317Y-32372655D01*
X-25376321Y-32372660D01*
X-25378174Y-32375665D01*
X-25379982Y-32377290D01*
X-25380798Y-32378323D01*
X-25380975Y-32378183D01*
X-25430126Y-32422385D01*
X-25499089Y-32433601D01*
X-25563169Y-32405752D01*
X-25589247Y-32375653D01*
X-25589263Y-32375628D01*
X-25591288Y-32372344D01*
X-25715344Y-32248288D01*
X-25736417Y-32235290D01*
X-25762799Y-32219017D01*
X-25809522Y-32167068D01*
X-25821700Y-32113479D01*
X-25821700Y-31462945D01*
X-25802015Y-31395906D01*
X-25756717Y-31353890D01*
X-25731313Y-31340142D01*
X-25676491Y-31310474D01*
X-25480256Y-31157738D01*
X-25311836Y-30974785D01*
X-25175827Y-30766607D01*
X-25075937Y-30538881D01*
X-25014892Y-30297821D01*
X-25005225Y-30181161D01*
X-24994357Y-30050005D01*
X-24994357Y-30049993D01*
X-25009989Y-29861340D01*
X-24995908Y-29792904D01*
X-24947063Y-29742945D01*
X-24886413Y-29727100D01*
X-20514992Y-29727100D01*
X-20514991Y-29727099D01*
X-20383947Y-29701034D01*
X-20296660Y-29664878D01*
X-20260504Y-29649902D01*
X-20149409Y-29575670D01*
X-20054930Y-29481191D01*
X-19165930Y-28592191D01*
X-19137405Y-28549500D01*
X-19091698Y-28481096D01*
X-19077863Y-28447696D01*
X-19056685Y-28396568D01*
X-19056685Y-28396567D01*
X-19056684Y-28396564D01*
X-19040566Y-28357653D01*
X-19014500Y-28226607D01*
X-19014500Y-28092993D01*
X-19014500Y-17036723D01*
X-18994815Y-16969684D01*
X-18978181Y-16949042D01*
X-18127358Y-16098219D01*
X-18066035Y-16064734D01*
X-18039677Y-16061900D01*
X-8777324Y-16061900D01*
X-8710285Y-16081585D01*
G37*
%TD.AperFunction*%
%TA.AperFunction,Conductor*%
G36*
X-5103485Y-17402385D02*
G01*
X-5057730Y-17455189D01*
X-5047786Y-17524347D01*
X-5076811Y-17587903D01*
X-5082843Y-17594381D01*
X-5792470Y-18304009D01*
X-6336891Y-18848430D01*
X-6378857Y-18890396D01*
X-6431372Y-18942910D01*
X-6505602Y-19054002D01*
X-6520580Y-19090161D01*
X-6520581Y-19090160D01*
X-6556731Y-19177436D01*
X-6556736Y-19177453D01*
X-6579175Y-19290258D01*
X-6579174Y-19290259D01*
X-6582800Y-19308489D01*
X-6582800Y-23718218D01*
X-6602485Y-23785257D01*
X-6641702Y-23823756D01*
X-6710656Y-23866287D01*
X-6834712Y-23990343D01*
X-6834717Y-23990349D01*
X-6836759Y-23993661D01*
X-6838753Y-23995453D01*
X-6839193Y-23996011D01*
X-6839289Y-23995935D01*
X-6888709Y-24040383D01*
X-6957672Y-24051602D01*
X-7021753Y-24023755D01*
X-7047832Y-23993656D01*
X-7049681Y-23990659D01*
X-7049684Y-23990655D01*
X-7173655Y-23866684D01*
X-7322876Y-23774643D01*
X-7322881Y-23774641D01*
X-7489303Y-23719494D01*
X-7489310Y-23719493D01*
X-7592014Y-23709000D01*
X-7729500Y-23709000D01*
X-7729500Y-26158999D01*
X-7592028Y-26158999D01*
X-7592014Y-26158998D01*
X-7489303Y-26148505D01*
X-7322881Y-26093358D01*
X-7322876Y-26093356D01*
X-7173655Y-26001315D01*
X-7049682Y-25877342D01*
X-7047835Y-25874348D01*
X-7046031Y-25872724D01*
X-7045202Y-25871677D01*
X-7045024Y-25871818D01*
X-6995890Y-25827621D01*
X-6926927Y-25816396D01*
X-6862844Y-25844236D01*
X-6836757Y-25874341D01*
X-6834712Y-25877656D01*
X-6710656Y-26001712D01*
X-6561334Y-26093814D01*
X-6394797Y-26148999D01*
X-6292009Y-26159500D01*
X-5516992Y-26159499D01*
X-5516984Y-26159498D01*
X-5516981Y-26159498D01*
X-5460698Y-26153748D01*
X-5414203Y-26148999D01*
X-5247666Y-26093814D01*
X-5098344Y-26001712D01*
X-4974288Y-25877656D01*
X-4882186Y-25728334D01*
X-4871901Y-25697294D01*
X-4832127Y-25639850D01*
X-4767611Y-25613028D01*
X-4754195Y-25612300D01*
X-4472785Y-25612300D01*
X-4405746Y-25631985D01*
X-4368979Y-25668476D01*
X-4268164Y-25822785D01*
X-4099744Y-26005738D01*
X-3903509Y-26158474D01*
X-3684810Y-26276828D01*
X-3449614Y-26357571D01*
X-3204335Y-26398500D01*
X-2955665Y-26398500D01*
X-2710386Y-26357571D01*
X-2475190Y-26276828D01*
X-2256491Y-26158474D01*
X-2060256Y-26005738D01*
X-1891836Y-25822785D01*
X-1887662Y-25816396D01*
X-1767503Y-25632479D01*
X-1714356Y-25587122D01*
X-1663694Y-25576300D01*
X2003694Y-25576300D01*
X2070733Y-25595985D01*
X2107503Y-25632479D01*
X2231833Y-25822782D01*
X2231836Y-25822785D01*
X2400256Y-26005738D01*
X2596491Y-26158474D01*
X2815190Y-26276828D01*
X3050386Y-26357571D01*
X3295665Y-26398500D01*
X3544335Y-26398500D01*
X3789614Y-26357571D01*
X4024810Y-26276828D01*
X4243509Y-26158474D01*
X4439744Y-26005738D01*
X4608164Y-25822785D01*
X4744173Y-25614607D01*
X4844063Y-25386881D01*
X4905108Y-25145821D01*
X4907963Y-25111369D01*
X4925643Y-24898005D01*
X4925643Y-24897994D01*
X4905109Y-24650187D01*
X4905107Y-24650175D01*
X4844063Y-24409118D01*
X4744173Y-24181393D01*
X4608166Y-23973217D01*
X4586557Y-23949744D01*
X4439744Y-23790262D01*
X4243509Y-23637526D01*
X4243507Y-23637525D01*
X4243506Y-23637524D01*
X4024811Y-23519172D01*
X4024802Y-23519169D01*
X3789616Y-23438429D01*
X3544335Y-23397500D01*
X3295665Y-23397500D01*
X3050383Y-23438429D01*
X2815197Y-23519169D01*
X2815188Y-23519172D01*
X2596493Y-23637524D01*
X2400257Y-23790261D01*
X2231833Y-23973217D01*
X2107503Y-24163521D01*
X2054356Y-24208878D01*
X2003694Y-24219700D01*
X-1663694Y-24219700D01*
X-1730733Y-24200015D01*
X-1767503Y-24163521D01*
X-1891834Y-23973217D01*
X-1913443Y-23949744D01*
X-2060256Y-23790262D01*
X-2256491Y-23637526D01*
X-2256493Y-23637525D01*
X-2256494Y-23637524D01*
X-2475189Y-23519172D01*
X-2475198Y-23519169D01*
X-2710384Y-23438429D01*
X-2955665Y-23397500D01*
X-3204335Y-23397500D01*
X-3449617Y-23438429D01*
X-3684803Y-23519169D01*
X-3684812Y-23519172D01*
X-3903507Y-23637524D01*
X-4099743Y-23790261D01*
X-4268167Y-23973217D01*
X-4404173Y-24181392D01*
X-4404228Y-24181518D01*
X-4404266Y-24181562D01*
X-4406615Y-24185904D01*
X-4407509Y-24185420D01*
X-4449188Y-24235001D01*
X-4515925Y-24255686D01*
X-4517781Y-24255700D01*
X-4754195Y-24255700D01*
X-4821234Y-24236015D01*
X-4866989Y-24183211D01*
X-4871901Y-24170705D01*
X-4882186Y-24139666D01*
X-4974288Y-23990344D01*
X-5098344Y-23866288D01*
X-5098345Y-23866287D01*
X-5167298Y-23823756D01*
X-5214022Y-23771808D01*
X-5226200Y-23718218D01*
X-5226200Y-19707623D01*
X-5206515Y-19640584D01*
X-5189881Y-19619942D01*
X-4360558Y-18790619D01*
X-4299235Y-18757134D01*
X-4272877Y-18754300D01*
X-3656356Y-18754300D01*
X-3589317Y-18773985D01*
X-3543562Y-18826789D01*
X-3533618Y-18895947D01*
X-3562643Y-18959503D01*
X-3616093Y-18995581D01*
X-3684803Y-19019169D01*
X-3684812Y-19019172D01*
X-3903507Y-19137524D01*
X-4099740Y-19290259D01*
X-4099741Y-19290259D01*
X-4268167Y-19473217D01*
X-4404174Y-19681393D01*
X-4504064Y-19909118D01*
X-4565108Y-20150175D01*
X-4565110Y-20150187D01*
X-4585643Y-20397994D01*
X-4585643Y-20398005D01*
X-4565110Y-20645812D01*
X-4565108Y-20645824D01*
X-4504064Y-20886881D01*
X-4404174Y-21114606D01*
X-4268167Y-21322782D01*
X-4268164Y-21322785D01*
X-4099744Y-21505738D01*
X-3903509Y-21658474D01*
X-3684810Y-21776828D01*
X-3449614Y-21857571D01*
X-3204335Y-21898500D01*
X-2955665Y-21898500D01*
X-2710386Y-21857571D01*
X-2475190Y-21776828D01*
X-2256491Y-21658474D01*
X-2060256Y-21505738D01*
X-1891836Y-21322785D01*
X-1784098Y-21157878D01*
X-1730952Y-21112522D01*
X-1680289Y-21101700D01*
X2020289Y-21101700D01*
X2087328Y-21121385D01*
X2124098Y-21157879D01*
X2231833Y-21322782D01*
X2231836Y-21322785D01*
X2400256Y-21505738D01*
X2596491Y-21658474D01*
X2815190Y-21776828D01*
X3050386Y-21857571D01*
X3295665Y-21898500D01*
X3544335Y-21898500D01*
X3789614Y-21857571D01*
X4024810Y-21776828D01*
X4243509Y-21658474D01*
X4439744Y-21505738D01*
X4608164Y-21322785D01*
X4715902Y-21157878D01*
X4769048Y-21112522D01*
X4819711Y-21101700D01*
X17744756Y-21101700D01*
X17811795Y-21121385D01*
X17832437Y-21138019D01*
X20054781Y-23360363D01*
X20088266Y-23421686D01*
X20091100Y-23448044D01*
X20091100Y-28517156D01*
X20091099Y-28517182D01*
X20091099Y-28660910D01*
X20106738Y-28739526D01*
X20106738Y-28739528D01*
X20118141Y-28796854D01*
X20118144Y-28796866D01*
X20171186Y-28924923D01*
X20248201Y-29040185D01*
X20350536Y-29142520D01*
X20350558Y-29142540D01*
X21653474Y-30445456D01*
X21653503Y-30445487D01*
X21754613Y-30546597D01*
X21754621Y-30546603D01*
X21848129Y-30609083D01*
X21869864Y-30623605D01*
X21869873Y-30623611D01*
X21997938Y-30676657D01*
X21997942Y-30676657D01*
X21997943Y-30676658D01*
X22133888Y-30703700D01*
X22133891Y-30703700D01*
X22133892Y-30703700D01*
X26100289Y-30703700D01*
X26167328Y-30723385D01*
X26204098Y-30759879D01*
X26311833Y-30924782D01*
X26311836Y-30924785D01*
X26480256Y-31107738D01*
X26676491Y-31260474D01*
X26676493Y-31260475D01*
X26823704Y-31340142D01*
X26895190Y-31378828D01*
X27130386Y-31459571D01*
X27375665Y-31500500D01*
X27624335Y-31500500D01*
X27869614Y-31459571D01*
X28104810Y-31378828D01*
X28323509Y-31260474D01*
X28519744Y-31107738D01*
X28688164Y-30924785D01*
X28824173Y-30716607D01*
X28924063Y-30488881D01*
X28985108Y-30247821D01*
X28985429Y-30243946D01*
X29005643Y-30000005D01*
X29005643Y-29999994D01*
X28985109Y-29752187D01*
X28985106Y-29752170D01*
X28972156Y-29701033D01*
X28953482Y-29627294D01*
X28956106Y-29557477D01*
X28986004Y-29509176D01*
X30255163Y-28240019D01*
X30316486Y-28206534D01*
X30342844Y-28203700D01*
X33889156Y-28203700D01*
X33956195Y-28223385D01*
X33976837Y-28240019D01*
X36564781Y-30827963D01*
X36598266Y-30889286D01*
X36601100Y-30915644D01*
X36601100Y-33836756D01*
X36581415Y-33903795D01*
X36564781Y-33924437D01*
X36313037Y-34176181D01*
X36251714Y-34209666D01*
X36225356Y-34212500D01*
X35895153Y-34212500D01*
X35828114Y-34192815D01*
X35782359Y-34140011D01*
X35772415Y-34070853D01*
X35777447Y-34049496D01*
X35812505Y-33943697D01*
X35812506Y-33943690D01*
X35822999Y-33840986D01*
X35823000Y-33840973D01*
X35823000Y-33566000D01*
X34859500Y-33566000D01*
X34792461Y-33546315D01*
X34746706Y-33493511D01*
X34735500Y-33442000D01*
X34735500Y-33316000D01*
X34609500Y-33316000D01*
X34542461Y-33296315D01*
X34496706Y-33243511D01*
X34485500Y-33192000D01*
X34485500Y-33066000D01*
X34985500Y-33066000D01*
X35822999Y-33066000D01*
X35822999Y-32791028D01*
X35822998Y-32791013D01*
X35812505Y-32688302D01*
X35757358Y-32521880D01*
X35757356Y-32521875D01*
X35665315Y-32372654D01*
X35541345Y-32248684D01*
X35392124Y-32156643D01*
X35392119Y-32156641D01*
X35225697Y-32101494D01*
X35225690Y-32101493D01*
X35122986Y-32091000D01*
X34985500Y-32091000D01*
X34985500Y-33066000D01*
X34485500Y-33066000D01*
X34485500Y-32091000D01*
X34348027Y-32091000D01*
X34348012Y-32091001D01*
X34245302Y-32101494D01*
X34078880Y-32156641D01*
X34078875Y-32156643D01*
X33929654Y-32248684D01*
X33805683Y-32372655D01*
X33805679Y-32372660D01*
X33803826Y-32375665D01*
X33802018Y-32377290D01*
X33801202Y-32378323D01*
X33801025Y-32378183D01*
X33751874Y-32422385D01*
X33682911Y-32433601D01*
X33618831Y-32405752D01*
X33592753Y-32375653D01*
X33592737Y-32375628D01*
X33590712Y-32372344D01*
X33466656Y-32248288D01*
X33466655Y-32248287D01*
X33423104Y-32221425D01*
X33376379Y-32169477D01*
X33364200Y-32115886D01*
X33364200Y-31289422D01*
X33383885Y-31222383D01*
X33412036Y-31191569D01*
X33519744Y-31107738D01*
X33688164Y-30924785D01*
X33824173Y-30716607D01*
X33924063Y-30488881D01*
X33985108Y-30247821D01*
X33985429Y-30243946D01*
X34005643Y-30000005D01*
X34005643Y-29999994D01*
X33985109Y-29752187D01*
X33985107Y-29752175D01*
X33924063Y-29511118D01*
X33824173Y-29283393D01*
X33688166Y-29075217D01*
X33655915Y-29040183D01*
X33519744Y-28892262D01*
X33323509Y-28739526D01*
X33323507Y-28739525D01*
X33323506Y-28739524D01*
X33104811Y-28621172D01*
X33104802Y-28621169D01*
X32869616Y-28540429D01*
X32624335Y-28499500D01*
X32375665Y-28499500D01*
X32130383Y-28540429D01*
X31895197Y-28621169D01*
X31895188Y-28621172D01*
X31676493Y-28739524D01*
X31480257Y-28892261D01*
X31311833Y-29075217D01*
X31175826Y-29283393D01*
X31075936Y-29511118D01*
X31014892Y-29752175D01*
X31014890Y-29752187D01*
X30994357Y-29999994D01*
X30994357Y-30000005D01*
X31014890Y-30247812D01*
X31014892Y-30247824D01*
X31075936Y-30488881D01*
X31175826Y-30716606D01*
X31311833Y-30924782D01*
X31311836Y-30924785D01*
X31480256Y-31107738D01*
X31587961Y-31191568D01*
X31676494Y-31260476D01*
X31676496Y-31260477D01*
X31729982Y-31289422D01*
X31891818Y-31377003D01*
X31941408Y-31426221D01*
X31956800Y-31486057D01*
X31956800Y-32115886D01*
X31937115Y-32182925D01*
X31897896Y-32221425D01*
X31854344Y-32248287D01*
X31730289Y-32372342D01*
X31638187Y-32521663D01*
X31638185Y-32521668D01*
X31638115Y-32521880D01*
X31594233Y-32654306D01*
X31554463Y-32711749D01*
X31489947Y-32738572D01*
X31476529Y-32739300D01*
X-3764877Y-32739300D01*
X-3831916Y-32719615D01*
X-3852558Y-32702981D01*
X-9478581Y-27076958D01*
X-9512066Y-27015635D01*
X-9514900Y-26989277D01*
X-9514900Y-25458986D01*
X-9066999Y-25458986D01*
X-9056506Y-25561697D01*
X-9001359Y-25728119D01*
X-9001357Y-25728124D01*
X-8909316Y-25877345D01*
X-8785346Y-26001315D01*
X-8636125Y-26093356D01*
X-8636120Y-26093358D01*
X-8469698Y-26148505D01*
X-8469691Y-26148506D01*
X-8366981Y-26158999D01*
X-8229501Y-26158999D01*
X-8229500Y-26158998D01*
X-8229500Y-25184000D01*
X-9066999Y-25184000D01*
X-9066999Y-25458986D01*
X-9514900Y-25458986D01*
X-9514900Y-24409013D01*
X-9067000Y-24409013D01*
X-9067000Y-24684000D01*
X-8229500Y-24684000D01*
X-8229500Y-23709000D01*
X-8366973Y-23709000D01*
X-8366988Y-23709001D01*
X-8469698Y-23719494D01*
X-8636120Y-23774641D01*
X-8636125Y-23774643D01*
X-8785346Y-23866684D01*
X-8909316Y-23990654D01*
X-9001357Y-24139875D01*
X-9001359Y-24139880D01*
X-9056506Y-24306302D01*
X-9056507Y-24306309D01*
X-9067000Y-24409013D01*
X-9514900Y-24409013D01*
X-9514900Y-19068723D01*
X-9495215Y-19001684D01*
X-9478581Y-18981042D01*
X-7916558Y-17419019D01*
X-7855235Y-17385534D01*
X-7828877Y-17382700D01*
X-5170524Y-17382700D01*
X-5103485Y-17402385D01*
G37*
%TD.AperFunction*%
%TA.AperFunction,Conductor*%
G36*
X36226716Y4492415D02*
G01*
X36247358Y4475781D01*
X38418981Y2304158D01*
X38452466Y2242835D01*
X38455300Y2216477D01*
X38455300Y-33847276D01*
X38435615Y-33914315D01*
X38418981Y-33934957D01*
X38220181Y-34133757D01*
X38158858Y-34167242D01*
X38089166Y-34162258D01*
X38033233Y-34120386D01*
X38008816Y-34054922D01*
X38008500Y-34046076D01*
X38008500Y-30503489D01*
X38008499Y-30503487D01*
X37981458Y-30367545D01*
X37981457Y-30367538D01*
X37981455Y-30367533D01*
X37928413Y-30239476D01*
X37851398Y-30124214D01*
X37750287Y-30023103D01*
X37750256Y-30023074D01*
X34782940Y-27055758D01*
X34782920Y-27055736D01*
X34680585Y-26953401D01*
X34565323Y-26876386D01*
X34437264Y-26823343D01*
X34437256Y-26823341D01*
X34301310Y-26796299D01*
X34301308Y-26796299D01*
X34162692Y-26796299D01*
X34156578Y-26796299D01*
X34156558Y-26796300D01*
X30827700Y-26796300D01*
X30760661Y-26776615D01*
X30714906Y-26723811D01*
X30703700Y-26672300D01*
X30703700Y-23000000D01*
X33494592Y-23000000D01*
X33514201Y-23286680D01*
X33572666Y-23568034D01*
X33572667Y-23568037D01*
X33668894Y-23838793D01*
X33668893Y-23838793D01*
X33801098Y-24093935D01*
X33966812Y-24328700D01*
X34041820Y-24409013D01*
X34162947Y-24538708D01*
X34341535Y-24684000D01*
X34385853Y-24720055D01*
X34631382Y-24869365D01*
X34818237Y-24950526D01*
X34894942Y-24983844D01*
X35171642Y-25061371D01*
X35421920Y-25095771D01*
X35456321Y-25100500D01*
X35456322Y-25100500D01*
X35743679Y-25100500D01*
X35774370Y-25096281D01*
X36028358Y-25061371D01*
X36305058Y-24983844D01*
X36502680Y-24898005D01*
X36568617Y-24869365D01*
X36568620Y-24869363D01*
X36568625Y-24869361D01*
X36814147Y-24720055D01*
X37037053Y-24538708D01*
X37233189Y-24328698D01*
X37398901Y-24093936D01*
X37531104Y-23838797D01*
X37627334Y-23568032D01*
X37685798Y-23286686D01*
X37705408Y-23000000D01*
X37685798Y-22713314D01*
X37627334Y-22431968D01*
X37531105Y-22161206D01*
X37531106Y-22161206D01*
X37398901Y-21906064D01*
X37233187Y-21671299D01*
X37154554Y-21587105D01*
X37037053Y-21461292D01*
X36814147Y-21279945D01*
X36814146Y-21279944D01*
X36568617Y-21130634D01*
X36305063Y-21016158D01*
X36305061Y-21016157D01*
X36305058Y-21016156D01*
X36175578Y-20979877D01*
X36028364Y-20938630D01*
X36028359Y-20938629D01*
X36028358Y-20938629D01*
X35886018Y-20919064D01*
X35743679Y-20899500D01*
X35743678Y-20899500D01*
X35456322Y-20899500D01*
X35456321Y-20899500D01*
X35171642Y-20938629D01*
X35171635Y-20938630D01*
X34993188Y-20988629D01*
X34894942Y-21016156D01*
X34894939Y-21016156D01*
X34894936Y-21016158D01*
X34894935Y-21016158D01*
X34631382Y-21130634D01*
X34385853Y-21279944D01*
X34162950Y-21461289D01*
X33966812Y-21671299D01*
X33801098Y-21906064D01*
X33668894Y-22161206D01*
X33572667Y-22431962D01*
X33572666Y-22431965D01*
X33514201Y-22713319D01*
X33494592Y-23000000D01*
X30703700Y-23000000D01*
X30703700Y-16899199D01*
X30723385Y-16832160D01*
X30768683Y-16790144D01*
X30823509Y-16760474D01*
X30879411Y-16716963D01*
X30944401Y-16691321D01*
X31012941Y-16704887D01*
X31054837Y-16740506D01*
X31142452Y-16857544D01*
X31142455Y-16857547D01*
X31257664Y-16943793D01*
X31257671Y-16943797D01*
X31392517Y-16994091D01*
X31392516Y-16994091D01*
X31399444Y-16994835D01*
X31452127Y-17000500D01*
X33547872Y-17000499D01*
X33607483Y-16994091D01*
X33742331Y-16943796D01*
X33857546Y-16857546D01*
X33943796Y-16742331D01*
X33994091Y-16607483D01*
X34000500Y-16547873D01*
X34000499Y-14452128D01*
X33994091Y-14392517D01*
X33993566Y-14391110D01*
X33943797Y-14257671D01*
X33943793Y-14257664D01*
X33857547Y-14142455D01*
X33857544Y-14142452D01*
X33742335Y-14056206D01*
X33742328Y-14056202D01*
X33607482Y-14005908D01*
X33607483Y-14005908D01*
X33547883Y-13999501D01*
X33547881Y-13999500D01*
X33547873Y-13999500D01*
X33547865Y-13999500D01*
X33327700Y-13999500D01*
X33260661Y-13979815D01*
X33214906Y-13927011D01*
X33203700Y-13875500D01*
X33203700Y-13612514D01*
X33223385Y-13545475D01*
X33262602Y-13506976D01*
X33371656Y-13439712D01*
X33495712Y-13315656D01*
X33587814Y-13166334D01*
X33642999Y-12999797D01*
X33653500Y-12897009D01*
X33653499Y-12121992D01*
X33653346Y-12120499D01*
X33642999Y-12019203D01*
X33642998Y-12019200D01*
X33640652Y-12012119D01*
X33587814Y-11852666D01*
X33495712Y-11703344D01*
X33371656Y-11579288D01*
X33368342Y-11577243D01*
X33366546Y-11575248D01*
X33365989Y-11574807D01*
X33366064Y-11574711D01*
X33321618Y-11525297D01*
X33310397Y-11456334D01*
X33338240Y-11392252D01*
X33368348Y-11366165D01*
X33371342Y-11364318D01*
X33495315Y-11240345D01*
X33587356Y-11091124D01*
X33587358Y-11091119D01*
X33642505Y-10924697D01*
X33642506Y-10924690D01*
X33652999Y-10821986D01*
X33653000Y-10821973D01*
X33653000Y-10684500D01*
X32552000Y-10684500D01*
X32484961Y-10664815D01*
X32439206Y-10612011D01*
X32428000Y-10560500D01*
X32428000Y-10434500D01*
X32302000Y-10434500D01*
X32234961Y-10414815D01*
X32189206Y-10362011D01*
X32178000Y-10310500D01*
X32178000Y-10184500D01*
X32678000Y-10184500D01*
X33652999Y-10184500D01*
X33652999Y-10047028D01*
X33652998Y-10047013D01*
X33642505Y-9944302D01*
X33587358Y-9777880D01*
X33587356Y-9777875D01*
X33495315Y-9628654D01*
X33371345Y-9504684D01*
X33222124Y-9412643D01*
X33222119Y-9412641D01*
X33055697Y-9357494D01*
X33055690Y-9357493D01*
X32952986Y-9347000D01*
X32678000Y-9347000D01*
X32678000Y-10184500D01*
X32178000Y-10184500D01*
X32178000Y-9347000D01*
X31903029Y-9347000D01*
X31903012Y-9347001D01*
X31800302Y-9357494D01*
X31633880Y-9412641D01*
X31633875Y-9412643D01*
X31484654Y-9504684D01*
X31360684Y-9628654D01*
X31268643Y-9777875D01*
X31268641Y-9777880D01*
X31213494Y-9944302D01*
X31213493Y-9944309D01*
X31207061Y-10007263D01*
X31180664Y-10071955D01*
X31123482Y-10112105D01*
X31053671Y-10114967D01*
X30996022Y-10082340D01*
X29866019Y-8952337D01*
X29832534Y-8891014D01*
X29829700Y-8864656D01*
X29829700Y-3600003D01*
X29849385Y-3532964D01*
X29857847Y-3521338D01*
X29954388Y-3403704D01*
X29961910Y-3394538D01*
X30054814Y-3220727D01*
X30112024Y-3032132D01*
X30131341Y-2836000D01*
X30112024Y-2639868D01*
X30054814Y-2451273D01*
X30054811Y-2451269D01*
X30054811Y-2451266D01*
X29961913Y-2277467D01*
X29961909Y-2277460D01*
X29836883Y-2125116D01*
X29684537Y-2000089D01*
X29684532Y-2000086D01*
X29510733Y-1907188D01*
X29510727Y-1907186D01*
X29322132Y-1849976D01*
X29322129Y-1849975D01*
X29126000Y-1830659D01*
X28929870Y-1849975D01*
X28741266Y-1907188D01*
X28567467Y-2000086D01*
X28567463Y-2000089D01*
X28504465Y-2051790D01*
X28440155Y-2079103D01*
X28371287Y-2067312D01*
X28319727Y-2020160D01*
X28301800Y-1955937D01*
X28301800Y1880884D01*
X28321485Y1947923D01*
X28347134Y1976736D01*
X28363683Y1990317D01*
X28488710Y2142662D01*
X28573508Y2301307D01*
X28581611Y2316467D01*
X28581611Y2316468D01*
X28581614Y2316473D01*
X28638824Y2505068D01*
X28658141Y2701200D01*
X28638824Y2897332D01*
X28581614Y3085927D01*
X28581611Y3085931D01*
X28581611Y3085934D01*
X28488713Y3259733D01*
X28488709Y3259740D01*
X28363683Y3412084D01*
X28211339Y3537110D01*
X28211332Y3537114D01*
X28037533Y3630012D01*
X28037527Y3630014D01*
X27848932Y3687224D01*
X27848929Y3687225D01*
X27652800Y3706541D01*
X27456670Y3687225D01*
X27268066Y3630012D01*
X27094267Y3537114D01*
X27094260Y3537110D01*
X26941916Y3412084D01*
X26816890Y3259740D01*
X26816886Y3259733D01*
X26723988Y3085934D01*
X26666775Y2897330D01*
X26647459Y2701200D01*
X26666775Y2505071D01*
X26723988Y2316467D01*
X26816886Y2142668D01*
X26816890Y2142661D01*
X26917053Y2020614D01*
X26944366Y1956305D01*
X26945200Y1941949D01*
X26945200Y-9494218D01*
X26925515Y-9561257D01*
X26886298Y-9599756D01*
X26817344Y-9642287D01*
X26693288Y-9766343D01*
X26693283Y-9766349D01*
X26691241Y-9769661D01*
X26689247Y-9771453D01*
X26688807Y-9772011D01*
X26688711Y-9771935D01*
X26639291Y-9816383D01*
X26570328Y-9827602D01*
X26506247Y-9799755D01*
X26480168Y-9769656D01*
X26478319Y-9766659D01*
X26478316Y-9766655D01*
X26354345Y-9642684D01*
X26205124Y-9550643D01*
X26205119Y-9550641D01*
X26038697Y-9495494D01*
X26038690Y-9495493D01*
X25935986Y-9485000D01*
X25798500Y-9485000D01*
X25798500Y-11934999D01*
X25935972Y-11934999D01*
X25935986Y-11934998D01*
X26038697Y-11924505D01*
X26205119Y-11869358D01*
X26205124Y-11869356D01*
X26354345Y-11777315D01*
X26478318Y-11653342D01*
X26480165Y-11650348D01*
X26481969Y-11648724D01*
X26482798Y-11647677D01*
X26482976Y-11647818D01*
X26532110Y-11603621D01*
X26601073Y-11592396D01*
X26665156Y-11620236D01*
X26691243Y-11650341D01*
X26693288Y-11653656D01*
X26817344Y-11777712D01*
X26886296Y-11820241D01*
X26933021Y-11872188D01*
X26945200Y-11925780D01*
X26945200Y-14020219D01*
X26925515Y-14087258D01*
X26880218Y-14129274D01*
X26676493Y-14239524D01*
X26480257Y-14392261D01*
X26311833Y-14575217D01*
X26175826Y-14783393D01*
X26075936Y-15011118D01*
X26014892Y-15252175D01*
X26014890Y-15252187D01*
X25994357Y-15499994D01*
X25994357Y-15500005D01*
X26014890Y-15747812D01*
X26014892Y-15747824D01*
X26075936Y-15988881D01*
X26175826Y-16216606D01*
X26311833Y-16424782D01*
X26341229Y-16456714D01*
X26480256Y-16607738D01*
X26676491Y-16760474D01*
X26895190Y-16878828D01*
X27130386Y-16959571D01*
X27375665Y-17000500D01*
X27624335Y-17000500D01*
X27869614Y-16959571D01*
X28104810Y-16878828D01*
X28323509Y-16760474D01*
X28519744Y-16607738D01*
X28658772Y-16456712D01*
X28718657Y-16420724D01*
X28788495Y-16422824D01*
X28841226Y-16456711D01*
X28980256Y-16607738D01*
X29087643Y-16691321D01*
X29176488Y-16760472D01*
X29176492Y-16760475D01*
X29231317Y-16790144D01*
X29280908Y-16839363D01*
X29296300Y-16899199D01*
X29296300Y-27157155D01*
X29276615Y-27224194D01*
X29259981Y-27244836D01*
X27994900Y-28509916D01*
X27933577Y-28543401D01*
X27875019Y-28539984D01*
X27874588Y-28541688D01*
X27869617Y-28540429D01*
X27624335Y-28499500D01*
X27375665Y-28499500D01*
X27130383Y-28540429D01*
X26895197Y-28621169D01*
X26895188Y-28621172D01*
X26676493Y-28739524D01*
X26480257Y-28892261D01*
X26311833Y-29075217D01*
X26204098Y-29240121D01*
X26150952Y-29285478D01*
X26100289Y-29296300D01*
X22546044Y-29296300D01*
X22479005Y-29276615D01*
X22458363Y-29259981D01*
X21534819Y-28336437D01*
X21501334Y-28275114D01*
X21498500Y-28248756D01*
X21498500Y-23180643D01*
X21498501Y-23180622D01*
X21498501Y-23035889D01*
X21491362Y-23000000D01*
X22294592Y-23000000D01*
X22314201Y-23286680D01*
X22372666Y-23568034D01*
X22372667Y-23568037D01*
X22468894Y-23838793D01*
X22468893Y-23838793D01*
X22601098Y-24093935D01*
X22766812Y-24328700D01*
X22841820Y-24409013D01*
X22962947Y-24538708D01*
X23141535Y-24684000D01*
X23185853Y-24720055D01*
X23431382Y-24869365D01*
X23618237Y-24950526D01*
X23694942Y-24983844D01*
X23971642Y-25061371D01*
X24221920Y-25095771D01*
X24256321Y-25100500D01*
X24256322Y-25100500D01*
X24543679Y-25100500D01*
X24574370Y-25096281D01*
X24828358Y-25061371D01*
X25105058Y-24983844D01*
X25302680Y-24898005D01*
X25368617Y-24869365D01*
X25368620Y-24869363D01*
X25368625Y-24869361D01*
X25614147Y-24720055D01*
X25837053Y-24538708D01*
X26033189Y-24328698D01*
X26198901Y-24093936D01*
X26331104Y-23838797D01*
X26427334Y-23568032D01*
X26485798Y-23286686D01*
X26505408Y-23000000D01*
X26485798Y-22713314D01*
X26427334Y-22431968D01*
X26331105Y-22161206D01*
X26331106Y-22161206D01*
X26198901Y-21906064D01*
X26033187Y-21671299D01*
X25954554Y-21587105D01*
X25837053Y-21461292D01*
X25614147Y-21279945D01*
X25614146Y-21279944D01*
X25368617Y-21130634D01*
X25105063Y-21016158D01*
X25105061Y-21016157D01*
X25105058Y-21016156D01*
X24975578Y-20979877D01*
X24828364Y-20938630D01*
X24828359Y-20938629D01*
X24828358Y-20938629D01*
X24686018Y-20919064D01*
X24543679Y-20899500D01*
X24543678Y-20899500D01*
X24256322Y-20899500D01*
X24256321Y-20899500D01*
X23971642Y-20938629D01*
X23971635Y-20938630D01*
X23793188Y-20988629D01*
X23694942Y-21016156D01*
X23694939Y-21016156D01*
X23694936Y-21016158D01*
X23694935Y-21016158D01*
X23431382Y-21130634D01*
X23185853Y-21279944D01*
X22962950Y-21461289D01*
X22766812Y-21671299D01*
X22601098Y-21906064D01*
X22468894Y-22161206D01*
X22372667Y-22431962D01*
X22372666Y-22431965D01*
X22314201Y-22713319D01*
X22294592Y-23000000D01*
X21491362Y-23000000D01*
X21471458Y-22899943D01*
X21471456Y-22899935D01*
X21418414Y-22771879D01*
X21418410Y-22771872D01*
X21379286Y-22713319D01*
X21379283Y-22713314D01*
X21341400Y-22656617D01*
X21341398Y-22656615D01*
X21341396Y-22656612D01*
X21240287Y-22555503D01*
X21240256Y-22555474D01*
X18638540Y-19953758D01*
X18638520Y-19953736D01*
X18536185Y-19851401D01*
X18420923Y-19774386D01*
X18292864Y-19721343D01*
X18292856Y-19721341D01*
X18156910Y-19694299D01*
X18156908Y-19694299D01*
X18018292Y-19694299D01*
X18012178Y-19694299D01*
X18012158Y-19694300D01*
X4819711Y-19694300D01*
X4752672Y-19674615D01*
X4715902Y-19638121D01*
X4608166Y-19473217D01*
X4589014Y-19452413D01*
X4439744Y-19290262D01*
X4243509Y-19137526D01*
X4243508Y-19137525D01*
X4243505Y-19137523D01*
X4243503Y-19137522D01*
X4188681Y-19107853D01*
X4139091Y-19058632D01*
X4123700Y-18998799D01*
X4123700Y-17810444D01*
X4143385Y-17743405D01*
X4160019Y-17722763D01*
X5142276Y-16740506D01*
X6126799Y-15755983D01*
X6308179Y-15574602D01*
X6308183Y-15574600D01*
X6406200Y-15476583D01*
X6483211Y-15361327D01*
X6536257Y-15233262D01*
X6547109Y-15178705D01*
X6563300Y-15097309D01*
X6563300Y-14958692D01*
X6563300Y-11234986D01*
X24461001Y-11234986D01*
X24471494Y-11337697D01*
X24526641Y-11504119D01*
X24526643Y-11504124D01*
X24618684Y-11653345D01*
X24742654Y-11777315D01*
X24891875Y-11869356D01*
X24891880Y-11869358D01*
X25058302Y-11924505D01*
X25058309Y-11924506D01*
X25161019Y-11934999D01*
X25298499Y-11934999D01*
X25298500Y-11934998D01*
X25298500Y-10960000D01*
X24461001Y-10960000D01*
X24461001Y-11234986D01*
X6563300Y-11234986D01*
X6563300Y-10635803D01*
X6582985Y-10568764D01*
X6591447Y-10557138D01*
X6622747Y-10519000D01*
X6695510Y-10430338D01*
X6742686Y-10342078D01*
X6788411Y-10256533D01*
X6788411Y-10256532D01*
X6788414Y-10256527D01*
X6810108Y-10185013D01*
X24461000Y-10185013D01*
X24461000Y-10460000D01*
X25298500Y-10460000D01*
X25298500Y-9485000D01*
X25161027Y-9485000D01*
X25161012Y-9485001D01*
X25058302Y-9495494D01*
X24891880Y-9550641D01*
X24891875Y-9550643D01*
X24742654Y-9642684D01*
X24618684Y-9766654D01*
X24526643Y-9915875D01*
X24526641Y-9915880D01*
X24471494Y-10082302D01*
X24471493Y-10082309D01*
X24461000Y-10185013D01*
X6810108Y-10185013D01*
X6845624Y-10067932D01*
X6864941Y-9871800D01*
X6845624Y-9675668D01*
X6788414Y-9487073D01*
X6788411Y-9487067D01*
X6748155Y-9411753D01*
X6733913Y-9343351D01*
X6758913Y-9278107D01*
X6815218Y-9236736D01*
X6857513Y-9229300D01*
X18484158Y-9229300D01*
X18484178Y-9229301D01*
X18490292Y-9229301D01*
X18628910Y-9229301D01*
X18720368Y-9211107D01*
X18764862Y-9202257D01*
X18892927Y-9149211D01*
X18892932Y-9149207D01*
X18892935Y-9149206D01*
X18909416Y-9138194D01*
X18909417Y-9138193D01*
X18934024Y-9121750D01*
X19008183Y-9072200D01*
X19106200Y-8974183D01*
X19106201Y-8974181D01*
X19113267Y-8967115D01*
X19113270Y-8967111D01*
X22589579Y-5490802D01*
X22589583Y-5490800D01*
X22687600Y-5392783D01*
X22764611Y-5277527D01*
X22817657Y-5149462D01*
X22833187Y-5071389D01*
X22844700Y-5013509D01*
X22844700Y-4874892D01*
X22844700Y2124442D01*
X22861968Y2187563D01*
X22892744Y2239602D01*
X22933081Y2378442D01*
X22938597Y2397427D01*
X22938598Y2397433D01*
X22939773Y2412364D01*
X22941500Y2434306D01*
X22941500Y4215694D01*
X22938598Y4252569D01*
X22938597Y4252574D01*
X22909274Y4353505D01*
X22909473Y4423375D01*
X22947415Y4482045D01*
X23011054Y4510888D01*
X23028350Y4512100D01*
X36159677Y4512100D01*
X36226716Y4492415D01*
G37*
%TD.AperFunction*%
%TA.AperFunction,Conductor*%
G36*
X-16457075Y32233115D02*
G01*
X-16418575Y32193896D01*
X-16391712Y32150344D01*
X-16267656Y32026288D01*
X-16118334Y31934186D01*
X-16112701Y31932320D01*
X-16055256Y31892552D01*
X-16028429Y31828037D01*
X-16027700Y31814613D01*
X-16027700Y29344044D01*
X-16027701Y29344018D01*
X-16027701Y29338908D01*
X-16027701Y29200292D01*
X-16004871Y29085523D01*
X-16000657Y29064338D01*
X-16000656Y29064334D01*
X-15947614Y28936277D01*
X-15870599Y28821015D01*
X-15768264Y28718680D01*
X-15768242Y28718660D01*
X-14959326Y27909744D01*
X-14959297Y27909713D01*
X-14858186Y27808602D01*
X-14742924Y27731587D01*
X-14614865Y27678544D01*
X-14614864Y27678544D01*
X-14614862Y27678543D01*
X-14614858Y27678543D01*
X-14614857Y27678542D01*
X-14478911Y27651499D01*
X-14478908Y27651499D01*
X-14334177Y27651499D01*
X-14334157Y27651500D01*
X-13313854Y27651500D01*
X-13246815Y27631815D01*
X-13235189Y27623353D01*
X-13139340Y27544691D01*
X-13139333Y27544687D01*
X-12965534Y27451789D01*
X-12965531Y27451789D01*
X-12965527Y27451786D01*
X-12776932Y27394576D01*
X-12580800Y27375259D01*
X-12384668Y27394576D01*
X-12196073Y27451786D01*
X-12022262Y27544690D01*
X-11869917Y27669717D01*
X-11744890Y27822062D01*
X-11663658Y27974036D01*
X-11614696Y28023880D01*
X-11546559Y28039341D01*
X-11480879Y28015510D01*
X-11438510Y27959952D01*
X-11430300Y27915583D01*
X-11430300Y8418324D01*
X-11449985Y8351285D01*
X-11466619Y8330643D01*
X-12454911Y7342352D01*
X-12516234Y7308867D01*
X-12585926Y7313851D01*
X-12641859Y7355723D01*
X-12666276Y7421187D01*
X-12661668Y7464629D01*
X-12621901Y7601508D01*
X-12621900Y7601511D01*
X-12619001Y7638351D01*
X-12619000Y7638366D01*
X-12619000Y8279000D01*
X-13169000Y8279000D01*
X-13169000Y7056705D01*
X-13168999Y7056705D01*
X-13166512Y7056900D01*
X-13166506Y7056901D01*
X-13029628Y7096668D01*
X-12959759Y7096469D01*
X-12901089Y7058527D01*
X-12872245Y6994889D01*
X-12882386Y6925759D01*
X-12907352Y6889911D01*
X-13633161Y6164100D01*
X-13851391Y5945870D01*
X-13898632Y5898630D01*
X-13945872Y5851390D01*
X-14020104Y5740294D01*
X-14020105Y5740292D01*
X-14033936Y5706899D01*
X-14033936Y5706898D01*
X-14071233Y5616856D01*
X-14071236Y5616846D01*
X-14096918Y5487729D01*
X-14096922Y5487706D01*
X-14097299Y5485813D01*
X-14097300Y5485803D01*
X-14097300Y5115918D01*
X-14116985Y5048879D01*
X-14169789Y5003124D01*
X-14238947Y4993180D01*
X-14270711Y5004347D01*
X-14271446Y5002647D01*
X-14278607Y5005746D01*
X-14436427Y5051598D01*
X-14436433Y5051599D01*
X-14473299Y5054500D01*
X-14473306Y5054500D01*
X-14904694Y5054500D01*
X-14904702Y5054500D01*
X-14941568Y5051599D01*
X-14941574Y5051598D01*
X-15099394Y5005746D01*
X-15099397Y5005745D01*
X-15240863Y4922083D01*
X-15247031Y4917298D01*
X-15248928Y4919744D01*
X-15297642Y4893143D01*
X-15367334Y4898127D01*
X-15399704Y4918931D01*
X-15400969Y4917298D01*
X-15407138Y4922083D01*
X-15499222Y4976541D01*
X-15548602Y5005744D01*
X-15548603Y5005745D01*
X-15548604Y5005745D01*
X-15548607Y5005746D01*
X-15706427Y5051598D01*
X-15706433Y5051599D01*
X-15743299Y5054500D01*
X-15743306Y5054500D01*
X-16174694Y5054500D01*
X-16174702Y5054500D01*
X-16211568Y5051599D01*
X-16211574Y5051598D01*
X-16369394Y5005746D01*
X-16369397Y5005745D01*
X-16510863Y4922083D01*
X-16517031Y4917298D01*
X-16518928Y4919744D01*
X-16567642Y4893143D01*
X-16637334Y4898127D01*
X-16669704Y4918931D01*
X-16670969Y4917298D01*
X-16677138Y4922083D01*
X-16769222Y4976541D01*
X-16818602Y5005744D01*
X-16818603Y5005745D01*
X-16818604Y5005745D01*
X-16818607Y5005746D01*
X-16976427Y5051598D01*
X-16976433Y5051599D01*
X-17013299Y5054500D01*
X-17013306Y5054500D01*
X-17444694Y5054500D01*
X-17444702Y5054500D01*
X-17481568Y5051599D01*
X-17481574Y5051598D01*
X-17639394Y5005746D01*
X-17639397Y5005745D01*
X-17780863Y4922083D01*
X-17787031Y4917298D01*
X-17788928Y4919744D01*
X-17837642Y4893143D01*
X-17907334Y4898127D01*
X-17939704Y4918931D01*
X-17940969Y4917298D01*
X-17947138Y4922083D01*
X-18039222Y4976541D01*
X-18088602Y5005744D01*
X-18088603Y5005745D01*
X-18088604Y5005745D01*
X-18088607Y5005746D01*
X-18246427Y5051598D01*
X-18246433Y5051599D01*
X-18283299Y5054500D01*
X-18283306Y5054500D01*
X-18714694Y5054500D01*
X-18714702Y5054500D01*
X-18751568Y5051599D01*
X-18751574Y5051598D01*
X-18909394Y5005746D01*
X-18909397Y5005745D01*
X-19050863Y4922083D01*
X-19057031Y4917298D01*
X-19058928Y4919744D01*
X-19107642Y4893143D01*
X-19177334Y4898127D01*
X-19209704Y4918931D01*
X-19210969Y4917298D01*
X-19217138Y4922083D01*
X-19309222Y4976541D01*
X-19358602Y5005744D01*
X-19358603Y5005745D01*
X-19358604Y5005745D01*
X-19358607Y5005746D01*
X-19516427Y5051598D01*
X-19516433Y5051599D01*
X-19553299Y5054500D01*
X-19553306Y5054500D01*
X-19984694Y5054500D01*
X-19984702Y5054500D01*
X-20021568Y5051599D01*
X-20021574Y5051598D01*
X-20179394Y5005746D01*
X-20179397Y5005745D01*
X-20320860Y4922085D01*
X-20327026Y4917301D01*
X-20328826Y4919621D01*
X-20378087Y4892770D01*
X-20447775Y4897807D01*
X-20480008Y4918539D01*
X-20481278Y4916900D01*
X-20487448Y4921686D01*
X-20628804Y5005283D01*
X-20628807Y5005284D01*
X-20786506Y5051100D01*
X-20786503Y5051100D01*
X-20789000Y5051297D01*
X-20789000Y2106705D01*
X-20788999Y2106705D01*
X-20786514Y2106900D01*
X-20628802Y2152719D01*
X-20487450Y2236314D01*
X-20481283Y2241097D01*
X-20479370Y2238631D01*
X-20430778Y2265198D01*
X-20361083Y2260251D01*
X-20328238Y2239147D01*
X-20327031Y2240702D01*
X-20320868Y2235922D01*
X-20320865Y2235919D01*
X-20179398Y2152256D01*
X-20146372Y2142661D01*
X-20021574Y2106403D01*
X-20021571Y2106403D01*
X-20021569Y2106402D01*
X-19984694Y2103500D01*
X-19984686Y2103500D01*
X-19553314Y2103500D01*
X-19553306Y2103500D01*
X-19516431Y2106402D01*
X-19516429Y2106403D01*
X-19516427Y2106403D01*
X-19454338Y2124442D01*
X-19358602Y2152256D01*
X-19217135Y2235919D01*
X-19217130Y2235925D01*
X-19210969Y2240702D01*
X-19209067Y2238250D01*
X-19160421Y2264845D01*
X-19090726Y2259896D01*
X-19058305Y2239060D01*
X-19057031Y2240702D01*
X-19050868Y2235922D01*
X-19050865Y2235919D01*
X-18909398Y2152256D01*
X-18876372Y2142661D01*
X-18751574Y2106403D01*
X-18751571Y2106403D01*
X-18751569Y2106402D01*
X-18714694Y2103500D01*
X-18714686Y2103500D01*
X-18283314Y2103500D01*
X-18283306Y2103500D01*
X-18246431Y2106402D01*
X-18246429Y2106403D01*
X-18246427Y2106403D01*
X-18184338Y2124442D01*
X-18088602Y2152256D01*
X-17947135Y2235919D01*
X-17947130Y2235925D01*
X-17940969Y2240702D01*
X-17939067Y2238250D01*
X-17890421Y2264845D01*
X-17820726Y2259896D01*
X-17788305Y2239060D01*
X-17787031Y2240702D01*
X-17780868Y2235922D01*
X-17780865Y2235919D01*
X-17639398Y2152256D01*
X-17606372Y2142661D01*
X-17481574Y2106403D01*
X-17481571Y2106403D01*
X-17481569Y2106402D01*
X-17444694Y2103500D01*
X-17444686Y2103500D01*
X-17013314Y2103500D01*
X-17013306Y2103500D01*
X-16976431Y2106402D01*
X-16976429Y2106403D01*
X-16976427Y2106403D01*
X-16914338Y2124442D01*
X-16818602Y2152256D01*
X-16677135Y2235919D01*
X-16677130Y2235925D01*
X-16670969Y2240702D01*
X-16669067Y2238250D01*
X-16620421Y2264845D01*
X-16550726Y2259896D01*
X-16518305Y2239060D01*
X-16517031Y2240702D01*
X-16510868Y2235922D01*
X-16510865Y2235919D01*
X-16369398Y2152256D01*
X-16336372Y2142661D01*
X-16211574Y2106403D01*
X-16211571Y2106403D01*
X-16211569Y2106402D01*
X-16174694Y2103500D01*
X-16174686Y2103500D01*
X-15743314Y2103500D01*
X-15743306Y2103500D01*
X-15706431Y2106402D01*
X-15706429Y2106403D01*
X-15706427Y2106403D01*
X-15644338Y2124442D01*
X-15548602Y2152256D01*
X-15407135Y2235919D01*
X-15407130Y2235925D01*
X-15400969Y2240702D01*
X-15399067Y2238250D01*
X-15350421Y2264845D01*
X-15280726Y2259896D01*
X-15248305Y2239060D01*
X-15247031Y2240702D01*
X-15240868Y2235922D01*
X-15240865Y2235919D01*
X-15099398Y2152256D01*
X-15066372Y2142661D01*
X-14941574Y2106403D01*
X-14941571Y2106403D01*
X-14941569Y2106402D01*
X-14904694Y2103500D01*
X-14904686Y2103500D01*
X-14473314Y2103500D01*
X-14473306Y2103500D01*
X-14436431Y2106402D01*
X-14436429Y2106403D01*
X-14436427Y2106403D01*
X-14374338Y2124442D01*
X-14278602Y2152256D01*
X-14137135Y2235919D01*
X-14137130Y2235925D01*
X-14130969Y2240702D01*
X-14129067Y2238250D01*
X-14080421Y2264845D01*
X-14010726Y2259896D01*
X-13978305Y2239060D01*
X-13977031Y2240702D01*
X-13970868Y2235922D01*
X-13970865Y2235919D01*
X-13829398Y2152256D01*
X-13796372Y2142661D01*
X-13671574Y2106403D01*
X-13671571Y2106403D01*
X-13671569Y2106402D01*
X-13634694Y2103500D01*
X-13634686Y2103500D01*
X-13203314Y2103500D01*
X-13203306Y2103500D01*
X-13166431Y2106402D01*
X-13166429Y2106403D01*
X-13166427Y2106403D01*
X-13104338Y2124442D01*
X-13008602Y2152256D01*
X-12867135Y2235919D01*
X-12750919Y2352135D01*
X-12667256Y2493602D01*
X-12621402Y2651431D01*
X-12618500Y2688306D01*
X-12618500Y4469694D01*
X-12621402Y4506569D01*
X-12622657Y4510888D01*
X-12666821Y4662900D01*
X-12667256Y4664398D01*
X-12723433Y4759389D01*
X-12740700Y4822509D01*
X-12740700Y5086677D01*
X-12721015Y5153716D01*
X-12704381Y5174358D01*
X-10244981Y7633757D01*
X-10183658Y7667242D01*
X-10113966Y7662258D01*
X-10058033Y7620386D01*
X-10033616Y7554922D01*
X-10033300Y7546076D01*
X-10033300Y1586973D01*
X-10052985Y1519934D01*
X-10105789Y1474179D01*
X-10174947Y1464235D01*
X-10235965Y1491120D01*
X-10345861Y1581310D01*
X-10345868Y1581314D01*
X-10519667Y1674212D01*
X-10519673Y1674214D01*
X-10708268Y1731424D01*
X-10708271Y1731425D01*
X-10904400Y1750741D01*
X-11100530Y1731425D01*
X-11289134Y1674212D01*
X-11462933Y1581314D01*
X-11462940Y1581310D01*
X-11615284Y1456284D01*
X-11740310Y1303940D01*
X-11740314Y1303933D01*
X-11833212Y1130134D01*
X-11890425Y941530D01*
X-11909741Y745400D01*
X-11890425Y549271D01*
X-11833212Y360667D01*
X-11740314Y186868D01*
X-11740310Y186861D01*
X-11615284Y34517D01*
X-11462940Y-90509D01*
X-11462933Y-90513D01*
X-11289132Y-183412D01*
X-11289130Y-183412D01*
X-11289127Y-183414D01*
X-11188103Y-214059D01*
X-11129666Y-252356D01*
X-11101210Y-316168D01*
X-11100100Y-332719D01*
X-11100100Y-9793477D01*
X-11119785Y-9860516D01*
X-11136419Y-9881158D01*
X-13050142Y-11794881D01*
X-13111465Y-11828366D01*
X-13137823Y-11831200D01*
X-25284219Y-11831200D01*
X-25351258Y-11811515D01*
X-25389758Y-11772297D01*
X-25432288Y-11703344D01*
X-25556344Y-11579288D01*
X-25559658Y-11577243D01*
X-25561454Y-11575248D01*
X-25562011Y-11574807D01*
X-25561936Y-11574711D01*
X-25606382Y-11525297D01*
X-25617603Y-11456334D01*
X-25589760Y-11392252D01*
X-25559652Y-11366165D01*
X-25556658Y-11364318D01*
X-25432685Y-11240345D01*
X-25340644Y-11091124D01*
X-25340642Y-11091119D01*
X-25285495Y-10924697D01*
X-25285494Y-10924690D01*
X-25275001Y-10821986D01*
X-25275000Y-10821973D01*
X-25275000Y-10684500D01*
X-27724999Y-10684500D01*
X-27724999Y-10821986D01*
X-27714506Y-10924697D01*
X-27659359Y-11091119D01*
X-27659357Y-11091124D01*
X-27567316Y-11240345D01*
X-27443345Y-11364316D01*
X-27443341Y-11364319D01*
X-27440344Y-11366168D01*
X-27438721Y-11367972D01*
X-27437677Y-11368798D01*
X-27437819Y-11368976D01*
X-27393619Y-11418116D01*
X-27382398Y-11487079D01*
X-27410241Y-11551161D01*
X-27440339Y-11577241D01*
X-27443651Y-11579283D01*
X-27443657Y-11579288D01*
X-27567711Y-11703342D01*
X-27659813Y-11852663D01*
X-27659815Y-11852668D01*
X-27684042Y-11925780D01*
X-27714999Y-12019203D01*
X-27714999Y-12019204D01*
X-27715000Y-12019204D01*
X-27725500Y-12121983D01*
X-27725500Y-12897001D01*
X-27725499Y-12897019D01*
X-27715000Y-12999796D01*
X-27714999Y-12999799D01*
X-27659815Y-13166331D01*
X-27659813Y-13166336D01*
X-27646574Y-13187800D01*
X-27567712Y-13315656D01*
X-27443656Y-13439712D01*
X-27294334Y-13531814D01*
X-27263299Y-13542097D01*
X-27205854Y-13581867D01*
X-27179029Y-13646382D01*
X-27178300Y-13659804D01*
X-27178300Y-13925500D01*
X-27197985Y-13992539D01*
X-27250789Y-14038294D01*
X-27302300Y-14049500D01*
X-27547870Y-14049500D01*
X-27547877Y-14049501D01*
X-27607484Y-14055908D01*
X-27742329Y-14106202D01*
X-27742336Y-14106206D01*
X-27857545Y-14192452D01*
X-27945162Y-14309493D01*
X-28001096Y-14351363D01*
X-28070787Y-14356347D01*
X-28120590Y-14333035D01*
X-28176490Y-14289526D01*
X-28176494Y-14289524D01*
X-28231319Y-14259853D01*
X-28280909Y-14210632D01*
X-28296300Y-14150799D01*
X-28296300Y-10047013D01*
X-27725000Y-10047013D01*
X-27725000Y-10184500D01*
X-26750000Y-10184500D01*
X-26250000Y-10184500D01*
X-25275001Y-10184500D01*
X-25275001Y-10047028D01*
X-25275002Y-10047013D01*
X-25285495Y-9944302D01*
X-25340642Y-9777880D01*
X-25340644Y-9777875D01*
X-25432685Y-9628654D01*
X-25556655Y-9504684D01*
X-25705876Y-9412643D01*
X-25705881Y-9412641D01*
X-25872303Y-9357494D01*
X-25872310Y-9357493D01*
X-25975014Y-9347000D01*
X-26250000Y-9347000D01*
X-26250000Y-10184500D01*
X-26750000Y-10184500D01*
X-26750000Y-9347000D01*
X-27024971Y-9347000D01*
X-27024988Y-9347001D01*
X-27127698Y-9357494D01*
X-27294120Y-9412641D01*
X-27294125Y-9412643D01*
X-27443346Y-9504684D01*
X-27567316Y-9628654D01*
X-27659357Y-9777875D01*
X-27659359Y-9777880D01*
X-27714506Y-9944302D01*
X-27714507Y-9944309D01*
X-27725000Y-10047013D01*
X-28296300Y-10047013D01*
X-28296300Y-7914043D01*
X-28276615Y-7847004D01*
X-28259986Y-7826367D01*
X-21860421Y-1426802D01*
X-21860417Y-1426800D01*
X-21762400Y-1328783D01*
X-21685389Y-1213527D01*
X-21632343Y-1085462D01*
X-21626763Y-1057409D01*
X-21609913Y-972705D01*
X-21605299Y-949509D01*
X-21605299Y-805781D01*
X-21605300Y-805755D01*
X-21605300Y2032918D01*
X-21585615Y2099957D01*
X-21532811Y2145712D01*
X-21463653Y2155656D01*
X-21446705Y2151994D01*
X-21291495Y2106901D01*
X-21291489Y2106900D01*
X-21289002Y2106705D01*
X-21289000Y2106705D01*
X-21289000Y5051297D01*
X-21291497Y5051100D01*
X-21449194Y5005284D01*
X-21449197Y5005283D01*
X-21590551Y4921687D01*
X-21596717Y4916903D01*
X-21598611Y4919345D01*
X-21647420Y4892761D01*
X-21717106Y4897821D01*
X-21749773Y4918841D01*
X-21750969Y4917298D01*
X-21757138Y4922083D01*
X-21849222Y4976541D01*
X-21898602Y5005744D01*
X-21898603Y5005745D01*
X-21898604Y5005745D01*
X-21898607Y5005746D01*
X-22056427Y5051598D01*
X-22056433Y5051599D01*
X-22093299Y5054500D01*
X-22093306Y5054500D01*
X-22524694Y5054500D01*
X-22524702Y5054500D01*
X-22561568Y5051599D01*
X-22561574Y5051598D01*
X-22719394Y5005746D01*
X-22719397Y5005745D01*
X-22860863Y4922083D01*
X-22860871Y4922077D01*
X-22977077Y4805871D01*
X-22977083Y4805863D01*
X-23060745Y4664397D01*
X-23060746Y4664394D01*
X-23106598Y4506574D01*
X-23106599Y4506568D01*
X-23109500Y4469702D01*
X-23109500Y2688299D01*
X-23106599Y2651433D01*
X-23106598Y2651427D01*
X-23060746Y2493607D01*
X-23060745Y2493604D01*
X-23029968Y2441563D01*
X-23012700Y2378442D01*
X-23012700Y-537355D01*
X-23032385Y-604394D01*
X-23049019Y-625036D01*
X-23396688Y-972705D01*
X-23458011Y-1006190D01*
X-23527703Y-1001206D01*
X-23583636Y-959334D01*
X-23608053Y-893870D01*
X-23598930Y-837573D01*
X-23587878Y-810891D01*
X-23561766Y-747852D01*
X-23535700Y-616806D01*
X-23535700Y-483193D01*
X-23535700Y5467677D01*
X-23516015Y5534716D01*
X-23499381Y5555358D01*
X-23461358Y5593381D01*
X-23400035Y5626866D01*
X-23373677Y5629700D01*
X-17543192Y5629700D01*
X-17543191Y5629701D01*
X-17412147Y5655766D01*
X-17298175Y5702975D01*
X-17298172Y5702976D01*
X-17295017Y5704284D01*
X-17288704Y5706898D01*
X-17288703Y5706899D01*
X-17288702Y5706899D01*
X-17208952Y5760187D01*
X-17177609Y5781130D01*
X-17083130Y5875609D01*
X-16702130Y6256609D01*
X-16670282Y6304273D01*
X-16670280Y6304275D01*
X-16649090Y6335989D01*
X-16627898Y6367704D01*
X-16582088Y6478300D01*
X-16576766Y6491147D01*
X-16550700Y6622193D01*
X-16550700Y6755806D01*
X-16550700Y6992083D01*
X-16531015Y7059122D01*
X-16478211Y7104877D01*
X-16409053Y7114821D01*
X-16377295Y7103642D01*
X-16376554Y7105353D01*
X-16369403Y7102259D01*
X-16369398Y7102256D01*
X-16350164Y7096668D01*
X-16211574Y7056403D01*
X-16211571Y7056403D01*
X-16211569Y7056402D01*
X-16174694Y7053500D01*
X-16174686Y7053500D01*
X-15743314Y7053500D01*
X-15743306Y7053500D01*
X-15706431Y7056402D01*
X-15706429Y7056403D01*
X-15706427Y7056403D01*
X-15646799Y7073727D01*
X-15548602Y7102256D01*
X-15407135Y7185919D01*
X-15407130Y7185925D01*
X-15400969Y7190702D01*
X-15399067Y7188250D01*
X-15350421Y7214845D01*
X-15280726Y7209896D01*
X-15248305Y7189060D01*
X-15247031Y7190702D01*
X-15240868Y7185922D01*
X-15240865Y7185919D01*
X-15099398Y7102256D01*
X-15080164Y7096668D01*
X-14941574Y7056403D01*
X-14941571Y7056403D01*
X-14941569Y7056402D01*
X-14904694Y7053500D01*
X-14904686Y7053500D01*
X-14473314Y7053500D01*
X-14473306Y7053500D01*
X-14436431Y7056402D01*
X-14436429Y7056403D01*
X-14436427Y7056403D01*
X-14376799Y7073727D01*
X-14278602Y7102256D01*
X-14137135Y7185919D01*
X-14137132Y7185923D01*
X-14130974Y7190699D01*
X-14129161Y7188362D01*
X-14080051Y7215202D01*
X-14010357Y7210244D01*
X-13978004Y7189449D01*
X-13976722Y7191100D01*
X-13970553Y7186315D01*
X-13829199Y7102719D01*
X-13671486Y7056900D01*
X-13671489Y7056900D01*
X-13669002Y7056705D01*
X-13669000Y7056705D01*
X-13669000Y8779000D01*
X-13169000Y8779000D01*
X-12619000Y8779000D01*
X-12619000Y9419635D01*
X-12619001Y9419650D01*
X-12621900Y9456490D01*
X-12621901Y9456496D01*
X-12667717Y9614194D01*
X-12667718Y9614197D01*
X-12751315Y9755553D01*
X-12751322Y9755562D01*
X-12867439Y9871679D01*
X-12867448Y9871686D01*
X-13008804Y9955283D01*
X-13008807Y9955284D01*
X-13166506Y10001100D01*
X-13166503Y10001100D01*
X-13169000Y10001297D01*
X-13169000Y8779000D01*
X-13669000Y8779000D01*
X-13669000Y10001297D01*
X-13671497Y10001100D01*
X-13829194Y9955284D01*
X-13829197Y9955283D01*
X-13970551Y9871687D01*
X-13976717Y9866903D01*
X-13978611Y9869345D01*
X-14027420Y9842761D01*
X-14097106Y9847821D01*
X-14129773Y9868841D01*
X-14130969Y9867298D01*
X-14137138Y9872083D01*
X-14255374Y9942007D01*
X-14278602Y9955744D01*
X-14278603Y9955745D01*
X-14278604Y9955745D01*
X-14278607Y9955746D01*
X-14436427Y10001598D01*
X-14436433Y10001599D01*
X-14473299Y10004500D01*
X-14473306Y10004500D01*
X-14904694Y10004500D01*
X-14904702Y10004500D01*
X-14941568Y10001599D01*
X-14941574Y10001598D01*
X-15099394Y9955746D01*
X-15106554Y9952647D01*
X-15107815Y9955559D01*
X-15161394Y9942007D01*
X-15227641Y9964215D01*
X-15271364Y10018714D01*
X-15280700Y10065918D01*
X-15280700Y11538278D01*
X-15261015Y11605317D01*
X-15244385Y11625955D01*
X-14542800Y12327541D01*
X-14481477Y12361025D01*
X-14466403Y12362646D01*
X-14466463Y12363262D01*
X-14460401Y12363860D01*
X-14460400Y12363859D01*
X-14264268Y12383176D01*
X-14075673Y12440386D01*
X-13901862Y12533290D01*
X-13749517Y12658317D01*
X-13624490Y12810662D01*
X-13531586Y12984473D01*
X-13474376Y13173068D01*
X-13455059Y13369200D01*
X-13474376Y13565332D01*
X-13531586Y13753927D01*
X-13531589Y13753931D01*
X-13531589Y13753934D01*
X-13624487Y13927733D01*
X-13624491Y13927740D01*
X-13749517Y14080084D01*
X-13901861Y14205110D01*
X-13901868Y14205114D01*
X-14075667Y14298012D01*
X-14075673Y14298014D01*
X-14212519Y14339526D01*
X-14264271Y14355225D01*
X-14460400Y14374541D01*
X-14656530Y14355225D01*
X-14845134Y14298012D01*
X-15018933Y14205114D01*
X-15018940Y14205110D01*
X-15171284Y14080084D01*
X-15296310Y13927740D01*
X-15296314Y13927733D01*
X-15389212Y13753934D01*
X-15446425Y13565330D01*
X-15466338Y13363138D01*
X-15468996Y13363400D01*
X-15485426Y13307444D01*
X-15502060Y13286802D01*
X-15952793Y12836068D01*
X-16391391Y12397470D01*
X-16420870Y12367991D01*
X-16485872Y12302990D01*
X-16560787Y12190872D01*
X-16562434Y12186266D01*
X-16611234Y12068454D01*
X-16611236Y12068446D01*
X-16637300Y11937412D01*
X-16637300Y10065918D01*
X-16656985Y9998879D01*
X-16709789Y9953124D01*
X-16778947Y9943180D01*
X-16810711Y9954347D01*
X-16811446Y9952647D01*
X-16818607Y9955746D01*
X-16976427Y10001598D01*
X-16976433Y10001599D01*
X-17013299Y10004500D01*
X-17013306Y10004500D01*
X-17444694Y10004500D01*
X-17444702Y10004500D01*
X-17481568Y10001599D01*
X-17481574Y10001598D01*
X-17639394Y9955746D01*
X-17646554Y9952647D01*
X-17647815Y9955559D01*
X-17701394Y9942007D01*
X-17767641Y9964215D01*
X-17811364Y10018714D01*
X-17820700Y10065918D01*
X-17820700Y15373678D01*
X-17801015Y15440717D01*
X-17784386Y15461355D01*
X-16803400Y16442341D01*
X-16742077Y16475825D01*
X-16727003Y16477446D01*
X-16727063Y16478062D01*
X-16721001Y16478660D01*
X-16721000Y16478659D01*
X-16524868Y16497976D01*
X-16336273Y16555186D01*
X-16333410Y16556716D01*
X-16209978Y16622692D01*
X-16162462Y16648090D01*
X-16010117Y16773117D01*
X-15885090Y16925462D01*
X-15805766Y17073867D01*
X-15792189Y17099267D01*
X-15792189Y17099268D01*
X-15792186Y17099273D01*
X-15734976Y17287868D01*
X-15715659Y17484000D01*
X-15733654Y17666708D01*
X-15720635Y17735352D01*
X-15672570Y17786062D01*
X-15604719Y17802737D01*
X-15574260Y17797521D01*
X-15393132Y17742576D01*
X-15197000Y17723259D01*
X-15000868Y17742576D01*
X-14812273Y17799786D01*
X-14638462Y17892690D01*
X-14486117Y18017717D01*
X-14361090Y18170062D01*
X-14292860Y18297711D01*
X-14268189Y18343867D01*
X-14268189Y18343868D01*
X-14268186Y18343873D01*
X-14210976Y18532468D01*
X-14191659Y18728600D01*
X-14210976Y18924732D01*
X-14268186Y19113327D01*
X-14268189Y19113331D01*
X-14268189Y19113334D01*
X-14361087Y19287133D01*
X-14361091Y19287140D01*
X-14486117Y19439484D01*
X-14553680Y19494931D01*
X-14593014Y19552676D01*
X-14594885Y19622521D01*
X-14558698Y19682289D01*
X-14495942Y19713005D01*
X-14439019Y19709444D01*
X-14425367Y19705303D01*
X-14402532Y19698376D01*
X-14206400Y19679059D01*
X-14010268Y19698376D01*
X-13821673Y19755586D01*
X-13647862Y19848490D01*
X-13495517Y19973517D01*
X-13370490Y20125862D01*
X-13311716Y20235821D01*
X-13277589Y20299667D01*
X-13277589Y20299668D01*
X-13277586Y20299673D01*
X-13220376Y20488268D01*
X-13201059Y20684400D01*
X-13220376Y20880532D01*
X-13277586Y21069127D01*
X-13277589Y21069131D01*
X-13277589Y21069134D01*
X-13370487Y21242933D01*
X-13370491Y21242940D01*
X-13495517Y21395284D01*
X-13647861Y21520310D01*
X-13647868Y21520314D01*
X-13821667Y21613212D01*
X-13821673Y21613214D01*
X-13963203Y21656147D01*
X-14010271Y21670425D01*
X-14206400Y21689741D01*
X-14402530Y21670425D01*
X-14591134Y21613212D01*
X-14764933Y21520314D01*
X-14764940Y21520310D01*
X-14891739Y21416247D01*
X-14956049Y21388934D01*
X-14970404Y21388100D01*
X-19400756Y21388100D01*
X-19467795Y21407785D01*
X-19488437Y21424419D01*
X-20324381Y22260363D01*
X-20357866Y22321686D01*
X-20360700Y22348044D01*
X-20360700Y31688284D01*
X-20341015Y31755323D01*
X-20288211Y31801078D01*
X-20219053Y31811022D01*
X-20212509Y31809901D01*
X-20133931Y31794271D01*
X-20049619Y31777501D01*
X-20049617Y31777500D01*
X-20049616Y31777500D01*
X-19862383Y31777500D01*
X-19862382Y31777501D01*
X-19678749Y31814027D01*
X-19505769Y31885678D01*
X-19350092Y31989698D01*
X-19217698Y32122092D01*
X-19169304Y32194519D01*
X-19167184Y32197691D01*
X-19113572Y32242496D01*
X-19064082Y32252800D01*
X-16524114Y32252800D01*
X-16457075Y32233115D01*
G37*
%TD.AperFunction*%
%TA.AperFunction,Conductor*%
G36*
X-7760297Y18993590D02*
G01*
X-7753819Y18987558D01*
X-7656619Y18890358D01*
X-7623134Y18829035D01*
X-7620300Y18802677D01*
X-7620300Y-6966811D01*
X-7594236Y-7097845D01*
X-7594234Y-7097853D01*
X-7573773Y-7147250D01*
X-7543106Y-7221289D01*
X-7543102Y-7221296D01*
X-7476606Y-7320814D01*
X-7468870Y-7332391D01*
X-5944870Y-8856391D01*
X-5885243Y-8916018D01*
X-5850390Y-8950871D01*
X-5734231Y-9028487D01*
X-5735311Y-9030102D01*
X-5691870Y-9072751D01*
X-5676391Y-9140884D01*
X-5700205Y-9206571D01*
X-5737029Y-9239908D01*
X-5842556Y-9302317D01*
X-5842562Y-9302321D01*
X-5958679Y-9418438D01*
X-5958686Y-9418447D01*
X-6042283Y-9559803D01*
X-6042284Y-9559806D01*
X-6088100Y-9717504D01*
X-6088101Y-9717510D01*
X-6091000Y-9754350D01*
X-6091000Y-10395000D01*
X-5415000Y-10395000D01*
X-5347961Y-10414685D01*
X-5302206Y-10467489D01*
X-5291000Y-10519000D01*
X-5291000Y-10645000D01*
X-5165000Y-10645000D01*
X-5097961Y-10664685D01*
X-5052206Y-10717489D01*
X-5041000Y-10769000D01*
X-5041000Y-12117295D01*
X-5040999Y-12117295D01*
X-5038514Y-12117100D01*
X-4880802Y-12071281D01*
X-4739450Y-11987686D01*
X-4733283Y-11982903D01*
X-4731370Y-11985369D01*
X-4682778Y-11958802D01*
X-4613083Y-11963749D01*
X-4580238Y-11984853D01*
X-4579031Y-11983298D01*
X-4572868Y-11988078D01*
X-4572865Y-11988081D01*
X-4431398Y-12071744D01*
X-4402444Y-12080156D01*
X-4273574Y-12117597D01*
X-4273571Y-12117597D01*
X-4273569Y-12117598D01*
X-4236694Y-12120500D01*
X-4236686Y-12120500D01*
X-3805314Y-12120500D01*
X-3805306Y-12120500D01*
X-3768431Y-12117598D01*
X-3768429Y-12117597D01*
X-3768427Y-12117597D01*
X-3709222Y-12100396D01*
X-3610602Y-12071744D01*
X-3469135Y-11988081D01*
X-3469130Y-11988075D01*
X-3462969Y-11983298D01*
X-3461067Y-11985750D01*
X-3412421Y-11959155D01*
X-3342726Y-11964104D01*
X-3310305Y-11984940D01*
X-3309031Y-11983298D01*
X-3302868Y-11988078D01*
X-3302865Y-11988081D01*
X-3161398Y-12071744D01*
X-3132444Y-12080156D01*
X-3003574Y-12117597D01*
X-3003571Y-12117597D01*
X-3003569Y-12117598D01*
X-2966694Y-12120500D01*
X-2966686Y-12120500D01*
X-2535314Y-12120500D01*
X-2535306Y-12120500D01*
X-2498431Y-12117598D01*
X-2498429Y-12117597D01*
X-2498427Y-12117597D01*
X-2439222Y-12100396D01*
X-2340602Y-12071744D01*
X-2340595Y-12071739D01*
X-2333446Y-12068647D01*
X-2332180Y-12071573D01*
X-2278708Y-12058002D01*
X-2212444Y-12080156D01*
X-2168675Y-12134618D01*
X-2159300Y-12181917D01*
X-2159300Y-12560827D01*
X-2178985Y-12627866D01*
X-2231789Y-12673621D01*
X-2300947Y-12683565D01*
X-2361965Y-12656680D01*
X-2471861Y-12566490D01*
X-2471868Y-12566486D01*
X-2645667Y-12473588D01*
X-2645673Y-12473586D01*
X-2781098Y-12432505D01*
X-2834271Y-12416375D01*
X-3030400Y-12397059D01*
X-3226530Y-12416375D01*
X-3415134Y-12473588D01*
X-3588933Y-12566486D01*
X-3588940Y-12566490D01*
X-3715739Y-12670553D01*
X-3780049Y-12697866D01*
X-3794404Y-12698700D01*
X-6751555Y-12698700D01*
X-6818594Y-12679015D01*
X-6839236Y-12662381D01*
X-7929181Y-11572436D01*
X-7949268Y-11535649D01*
X-6091000Y-11535649D01*
X-6088101Y-11572489D01*
X-6088100Y-11572495D01*
X-6042284Y-11730193D01*
X-6042283Y-11730196D01*
X-5958686Y-11871552D01*
X-5958679Y-11871561D01*
X-5842562Y-11987678D01*
X-5842553Y-11987685D01*
X-5701199Y-12071281D01*
X-5543486Y-12117100D01*
X-5543489Y-12117100D01*
X-5541002Y-12117295D01*
X-5541000Y-12117295D01*
X-5541000Y-10895000D01*
X-6091000Y-10895000D01*
X-6091000Y-11535649D01*
X-7949268Y-11535649D01*
X-7962666Y-11511113D01*
X-7965500Y-11484755D01*
X-7965500Y18899877D01*
X-7945815Y18966916D01*
X-7893011Y19012671D01*
X-7823853Y19022615D01*
X-7760297Y18993590D01*
G37*
%TD.AperFunction*%
%TA.AperFunction,Conductor*%
G36*
X488916Y-1755985D02*
G01*
X509558Y-1772619D01*
X659130Y-1922191D01*
X753609Y-2016670D01*
X864704Y-2090902D01*
X886648Y-2099991D01*
X937011Y-2120852D01*
X937015Y-2120853D01*
X988147Y-2142034D01*
X988151Y-2142034D01*
X988152Y-2142035D01*
X1119188Y-2168099D01*
X1119192Y-2168100D01*
X1119193Y-2168100D01*
X3157808Y-2168100D01*
X3157809Y-2168099D01*
X3288853Y-2142034D01*
X3376140Y-2105878D01*
X3412296Y-2090902D01*
X3523391Y-2016670D01*
X3617870Y-1922191D01*
X3767442Y-1772619D01*
X3828765Y-1739134D01*
X3855123Y-1736300D01*
X4329077Y-1736300D01*
X4396116Y-1755985D01*
X4441871Y-1808789D01*
X4451815Y-1877947D01*
X4422790Y-1941503D01*
X4416758Y-1947981D01*
X3166609Y-3198130D01*
X3119368Y-3245370D01*
X3072128Y-3292610D01*
X2997213Y-3404728D01*
X2995566Y-3409334D01*
X2946767Y-3527144D01*
X2946764Y-3527154D01*
X2934015Y-3591250D01*
X2920700Y-3658188D01*
X2920700Y-4158663D01*
X2901015Y-4225702D01*
X2848211Y-4271457D01*
X2779053Y-4281401D01*
X2747075Y-4270147D01*
X2746354Y-4271815D01*
X2739193Y-4268716D01*
X2581494Y-4222900D01*
X2581497Y-4222900D01*
X2579000Y-4222703D01*
X2579000Y-7167295D01*
X2586804Y-7174509D01*
X2628071Y-7183179D01*
X2677827Y-7232230D01*
X2693166Y-7300395D01*
X2669217Y-7366032D01*
X2657103Y-7380113D01*
X2265453Y-7771764D01*
X1880420Y-8156797D01*
X1880417Y-8156800D01*
X1831408Y-8205809D01*
X1782399Y-8254817D01*
X1782398Y-8254818D01*
X1738621Y-8320337D01*
X1738621Y-8320338D01*
X1722005Y-8345205D01*
X1705389Y-8370072D01*
X1705385Y-8370079D01*
X1652343Y-8498135D01*
X1652341Y-8498143D01*
X1625299Y-8634089D01*
X1625299Y-8778821D01*
X1625300Y-8778842D01*
X1625300Y-9098396D01*
X1605615Y-9165435D01*
X1552811Y-9211190D01*
X1483653Y-9221134D01*
X1466706Y-9217473D01*
X1311567Y-9172401D01*
X1274701Y-9169500D01*
X1274694Y-9169500D01*
X843306Y-9169500D01*
X843298Y-9169500D01*
X806432Y-9172401D01*
X806426Y-9172402D01*
X648606Y-9218254D01*
X648603Y-9218255D01*
X507137Y-9301917D01*
X500969Y-9306702D01*
X499072Y-9304256D01*
X450358Y-9330857D01*
X380666Y-9325873D01*
X348296Y-9305069D01*
X347031Y-9306702D01*
X340862Y-9301917D01*
X232124Y-9237610D01*
X199398Y-9218256D01*
X199397Y-9218255D01*
X199396Y-9218255D01*
X199393Y-9218254D01*
X41573Y-9172402D01*
X41567Y-9172401D01*
X4701Y-9169500D01*
X4694Y-9169500D01*
X-426694Y-9169500D01*
X-426702Y-9169500D01*
X-463568Y-9172401D01*
X-463574Y-9172402D01*
X-621394Y-9218254D01*
X-621397Y-9218255D01*
X-762863Y-9301917D01*
X-769031Y-9306702D01*
X-770928Y-9304256D01*
X-819642Y-9330857D01*
X-889334Y-9325873D01*
X-921704Y-9305069D01*
X-922969Y-9306702D01*
X-929138Y-9301917D01*
X-1037876Y-9237610D01*
X-1070602Y-9218256D01*
X-1070603Y-9218255D01*
X-1070604Y-9218255D01*
X-1070607Y-9218254D01*
X-1228427Y-9172402D01*
X-1228433Y-9172401D01*
X-1265299Y-9169500D01*
X-1265306Y-9169500D01*
X-1696694Y-9169500D01*
X-1696702Y-9169500D01*
X-1733568Y-9172401D01*
X-1733574Y-9172402D01*
X-1891394Y-9218254D01*
X-1891397Y-9218255D01*
X-2038138Y-9305037D01*
X-2105862Y-9322220D01*
X-2172125Y-9300060D01*
X-2204360Y-9267197D01*
X-2224129Y-9237610D01*
X-2224131Y-9237608D01*
X-2224133Y-9237605D01*
X-2224134Y-9237604D01*
X-3564607Y-7897132D01*
X-3564611Y-7897129D01*
X-3675706Y-7822897D01*
X-3711860Y-7807921D01*
X-3711861Y-7807921D01*
X-3799148Y-7771766D01*
X-3799156Y-7771764D01*
X-3799157Y-7771764D01*
X-3930190Y-7745700D01*
X-3930194Y-7745700D01*
X-5085677Y-7745700D01*
X-5152716Y-7726015D01*
X-5173358Y-7709381D01*
X-5500558Y-7382181D01*
X-5534043Y-7320858D01*
X-5529059Y-7251166D01*
X-5487187Y-7195233D01*
X-5421723Y-7170816D01*
X-5412877Y-7170500D01*
X-5075314Y-7170500D01*
X-5075306Y-7170500D01*
X-5038431Y-7167598D01*
X-5038429Y-7167597D01*
X-5038427Y-7167597D01*
X-4996809Y-7155505D01*
X-4880602Y-7121744D01*
X-4739135Y-7038081D01*
X-4739130Y-7038075D01*
X-4732969Y-7033298D01*
X-4731067Y-7035750D01*
X-4682421Y-7009155D01*
X-4612726Y-7014104D01*
X-4580305Y-7034940D01*
X-4579031Y-7033298D01*
X-4572868Y-7038078D01*
X-4572865Y-7038081D01*
X-4431398Y-7121744D01*
X-4428393Y-7122617D01*
X-4273574Y-7167597D01*
X-4273571Y-7167597D01*
X-4273569Y-7167598D01*
X-4236694Y-7170500D01*
X-4236686Y-7170500D01*
X-3805314Y-7170500D01*
X-3805306Y-7170500D01*
X-3768431Y-7167598D01*
X-3768429Y-7167597D01*
X-3768427Y-7167597D01*
X-3726809Y-7155505D01*
X-3610602Y-7121744D01*
X-3469135Y-7038081D01*
X-3469130Y-7038075D01*
X-3462969Y-7033298D01*
X-3461067Y-7035750D01*
X-3412421Y-7009155D01*
X-3342726Y-7014104D01*
X-3310305Y-7034940D01*
X-3309031Y-7033298D01*
X-3302868Y-7038078D01*
X-3302865Y-7038081D01*
X-3161398Y-7121744D01*
X-3158393Y-7122617D01*
X-3003574Y-7167597D01*
X-3003571Y-7167597D01*
X-3003569Y-7167598D01*
X-2966694Y-7170500D01*
X-2966686Y-7170500D01*
X-2535314Y-7170500D01*
X-2535306Y-7170500D01*
X-2498431Y-7167598D01*
X-2498429Y-7167597D01*
X-2498427Y-7167597D01*
X-2456809Y-7155505D01*
X-2340602Y-7121744D01*
X-2199135Y-7038081D01*
X-2199130Y-7038075D01*
X-2192969Y-7033298D01*
X-2191067Y-7035750D01*
X-2142421Y-7009155D01*
X-2072726Y-7014104D01*
X-2040305Y-7034940D01*
X-2039031Y-7033298D01*
X-2032868Y-7038078D01*
X-2032865Y-7038081D01*
X-1891398Y-7121744D01*
X-1888393Y-7122617D01*
X-1733574Y-7167597D01*
X-1733571Y-7167597D01*
X-1733569Y-7167598D01*
X-1696694Y-7170500D01*
X-1696686Y-7170500D01*
X-1265314Y-7170500D01*
X-1265306Y-7170500D01*
X-1228431Y-7167598D01*
X-1228429Y-7167597D01*
X-1228427Y-7167597D01*
X-1186809Y-7155505D01*
X-1070602Y-7121744D01*
X-929135Y-7038081D01*
X-929130Y-7038075D01*
X-922969Y-7033298D01*
X-921067Y-7035750D01*
X-872421Y-7009155D01*
X-802726Y-7014104D01*
X-770305Y-7034940D01*
X-769031Y-7033298D01*
X-762868Y-7038078D01*
X-762865Y-7038081D01*
X-621398Y-7121744D01*
X-618393Y-7122617D01*
X-463574Y-7167597D01*
X-463571Y-7167597D01*
X-463569Y-7167598D01*
X-426694Y-7170500D01*
X-426686Y-7170500D01*
X4686Y-7170500D01*
X4694Y-7170500D01*
X41569Y-7167598D01*
X41571Y-7167597D01*
X41573Y-7167597D01*
X83191Y-7155505D01*
X199398Y-7121744D01*
X340865Y-7038081D01*
X340870Y-7038075D01*
X347031Y-7033298D01*
X348933Y-7035750D01*
X397579Y-7009155D01*
X467274Y-7014104D01*
X499695Y-7034940D01*
X500969Y-7033298D01*
X507132Y-7038078D01*
X507135Y-7038081D01*
X648602Y-7121744D01*
X651607Y-7122617D01*
X806426Y-7167597D01*
X806429Y-7167597D01*
X806431Y-7167598D01*
X843306Y-7170500D01*
X843314Y-7170500D01*
X1274686Y-7170500D01*
X1274694Y-7170500D01*
X1311569Y-7167598D01*
X1311571Y-7167597D01*
X1311573Y-7167597D01*
X1353191Y-7155505D01*
X1469398Y-7121744D01*
X1610865Y-7038081D01*
X1610868Y-7038077D01*
X1617026Y-7033301D01*
X1618839Y-7035638D01*
X1667949Y-7008798D01*
X1737643Y-7013756D01*
X1769996Y-7034551D01*
X1771278Y-7032900D01*
X1777447Y-7037685D01*
X1918801Y-7121281D01*
X2076514Y-7167100D01*
X2076511Y-7167100D01*
X2078998Y-7167295D01*
X2079000Y-7167295D01*
X2079000Y-4222703D01*
X2076503Y-4222900D01*
X1918806Y-4268716D01*
X1918803Y-4268717D01*
X1777449Y-4352313D01*
X1771283Y-4357097D01*
X1769389Y-4354655D01*
X1720580Y-4381239D01*
X1650894Y-4376179D01*
X1618227Y-4355159D01*
X1617031Y-4356702D01*
X1610862Y-4351917D01*
X1475416Y-4271815D01*
X1469398Y-4268256D01*
X1469397Y-4268255D01*
X1469396Y-4268255D01*
X1469393Y-4268254D01*
X1311573Y-4222402D01*
X1311567Y-4222401D01*
X1274701Y-4219500D01*
X1274694Y-4219500D01*
X843306Y-4219500D01*
X843298Y-4219500D01*
X806432Y-4222401D01*
X806426Y-4222402D01*
X648606Y-4268254D01*
X648603Y-4268255D01*
X507137Y-4351917D01*
X500969Y-4356702D01*
X499072Y-4354256D01*
X450358Y-4380857D01*
X380666Y-4375873D01*
X348296Y-4355069D01*
X347031Y-4356702D01*
X340862Y-4351917D01*
X205416Y-4271815D01*
X199398Y-4268256D01*
X199397Y-4268255D01*
X199396Y-4268255D01*
X199393Y-4268254D01*
X41573Y-4222402D01*
X41567Y-4222401D01*
X4701Y-4219500D01*
X4694Y-4219500D01*
X-426694Y-4219500D01*
X-426702Y-4219500D01*
X-463568Y-4222401D01*
X-463574Y-4222402D01*
X-621394Y-4268254D01*
X-621397Y-4268255D01*
X-762863Y-4351917D01*
X-769031Y-4356702D01*
X-770928Y-4354256D01*
X-819642Y-4380857D01*
X-889334Y-4375873D01*
X-921704Y-4355069D01*
X-922969Y-4356702D01*
X-929138Y-4351917D01*
X-1064584Y-4271815D01*
X-1070602Y-4268256D01*
X-1070603Y-4268255D01*
X-1070604Y-4268255D01*
X-1070607Y-4268254D01*
X-1228427Y-4222402D01*
X-1228433Y-4222401D01*
X-1265299Y-4219500D01*
X-1265306Y-4219500D01*
X-1696694Y-4219500D01*
X-1696702Y-4219500D01*
X-1733568Y-4222401D01*
X-1733574Y-4222402D01*
X-1891394Y-4268254D01*
X-1891397Y-4268255D01*
X-2032863Y-4351917D01*
X-2039031Y-4356702D01*
X-2040928Y-4354256D01*
X-2089642Y-4380857D01*
X-2159334Y-4375873D01*
X-2191704Y-4355069D01*
X-2192969Y-4356702D01*
X-2199138Y-4351917D01*
X-2334584Y-4271815D01*
X-2340602Y-4268256D01*
X-2340603Y-4268255D01*
X-2340604Y-4268255D01*
X-2340607Y-4268254D01*
X-2498427Y-4222402D01*
X-2498433Y-4222401D01*
X-2535299Y-4219500D01*
X-2535306Y-4219500D01*
X-2966694Y-4219500D01*
X-2966702Y-4219500D01*
X-3003568Y-4222401D01*
X-3003574Y-4222402D01*
X-3161394Y-4268254D01*
X-3161397Y-4268255D01*
X-3302863Y-4351917D01*
X-3309031Y-4356702D01*
X-3310928Y-4354256D01*
X-3359642Y-4380857D01*
X-3429334Y-4375873D01*
X-3461704Y-4355069D01*
X-3462969Y-4356702D01*
X-3469138Y-4351917D01*
X-3604584Y-4271815D01*
X-3610602Y-4268256D01*
X-3610603Y-4268255D01*
X-3610604Y-4268255D01*
X-3610607Y-4268254D01*
X-3768427Y-4222402D01*
X-3768433Y-4222401D01*
X-3805299Y-4219500D01*
X-3805306Y-4219500D01*
X-4236694Y-4219500D01*
X-4236702Y-4219500D01*
X-4273568Y-4222401D01*
X-4273574Y-4222402D01*
X-4431394Y-4268254D01*
X-4438554Y-4271353D01*
X-4439815Y-4268441D01*
X-4493394Y-4281993D01*
X-4559641Y-4259785D01*
X-4603364Y-4205286D01*
X-4612700Y-4158082D01*
X-4612700Y-2279323D01*
X-4593015Y-2212284D01*
X-4576381Y-2191642D01*
X-4157358Y-1772619D01*
X-4096035Y-1739134D01*
X-4069677Y-1736300D01*
X421877Y-1736300D01*
X488916Y-1755985D01*
G37*
%TD.AperFunction*%
%TA.AperFunction,Conductor*%
G36*
X19182705Y1899642D02*
G01*
X19183446Y1901353D01*
X19190597Y1898259D01*
X19190602Y1898256D01*
X19200515Y1895376D01*
X19348426Y1852403D01*
X19348429Y1852403D01*
X19348431Y1852402D01*
X19385306Y1849500D01*
X19385314Y1849500D01*
X19816686Y1849500D01*
X19816694Y1849500D01*
X19853569Y1852402D01*
X19853571Y1852403D01*
X19853573Y1852403D01*
X20008705Y1897473D01*
X20078574Y1897274D01*
X20137244Y1859332D01*
X20166088Y1795694D01*
X20167300Y1778397D01*
X20167300Y-4753755D01*
X20147615Y-4820794D01*
X20130981Y-4841436D01*
X17999637Y-6972781D01*
X17938314Y-7006266D01*
X17911956Y-7009100D01*
X6871090Y-7009100D01*
X6804051Y-6989415D01*
X6758296Y-6936611D01*
X6748352Y-6867453D01*
X6761732Y-6826647D01*
X6788411Y-6776733D01*
X6788411Y-6776732D01*
X6788414Y-6776727D01*
X6845624Y-6588132D01*
X6864941Y-6392000D01*
X6845624Y-6195868D01*
X6788414Y-6007273D01*
X6788411Y-6007269D01*
X6788411Y-6007266D01*
X6695513Y-5833467D01*
X6695509Y-5833460D01*
X6570483Y-5681116D01*
X6418139Y-5556090D01*
X6418132Y-5556086D01*
X6244333Y-5463188D01*
X6244327Y-5463186D01*
X6055732Y-5405976D01*
X6055729Y-5405975D01*
X5859600Y-5386659D01*
X5663470Y-5405975D01*
X5474866Y-5463188D01*
X5301067Y-5556086D01*
X5301060Y-5556090D01*
X5174261Y-5660153D01*
X5109951Y-5687466D01*
X5095596Y-5688300D01*
X4638844Y-5688300D01*
X4571805Y-5668615D01*
X4551163Y-5651981D01*
X4435819Y-5536637D01*
X4402334Y-5475314D01*
X4399500Y-5448956D01*
X4399500Y-4804313D01*
X4399499Y-4804298D01*
X4396598Y-4767432D01*
X4396597Y-4767426D01*
X4350745Y-4609606D01*
X4350745Y-4609605D01*
X4350744Y-4609604D01*
X4350744Y-4609602D01*
X4294567Y-4514611D01*
X4277300Y-4451491D01*
X4277300Y-4057323D01*
X4296985Y-3990284D01*
X4313619Y-3969642D01*
X5316842Y-2966419D01*
X5378165Y-2932934D01*
X5404523Y-2930100D01*
X9914208Y-2930100D01*
X9914209Y-2930099D01*
X10045253Y-2904034D01*
X10132540Y-2867878D01*
X10168696Y-2852902D01*
X10279791Y-2778670D01*
X10374270Y-2684191D01*
X10432820Y-2625641D01*
X10432829Y-2625630D01*
X10958471Y-2099991D01*
X11014144Y-2016670D01*
X11025223Y-2000089D01*
X11025225Y-2000086D01*
X11032702Y-1988896D01*
X11060332Y-1922191D01*
X11077728Y-1880194D01*
X11083832Y-1865456D01*
X11083834Y-1865452D01*
X11109900Y-1734406D01*
X11109900Y-1600793D01*
X11109900Y601707D01*
X11129585Y668746D01*
X11182389Y714501D01*
X11246054Y725110D01*
X11251464Y724578D01*
X11251468Y724576D01*
X11447600Y705259D01*
X11447600Y705260D01*
X11453663Y704662D01*
X11453401Y702005D01*
X11509357Y685574D01*
X11529999Y668940D01*
X11657330Y541609D01*
X11751809Y447130D01*
X11862904Y372898D01*
X11892418Y360673D01*
X11986347Y321766D01*
X12117388Y295701D01*
X12117392Y295700D01*
X12117393Y295700D01*
X15400608Y295700D01*
X15400609Y295701D01*
X15531653Y321766D01*
X15625582Y360673D01*
X15655096Y372898D01*
X15766191Y447130D01*
X15860670Y541609D01*
X16171019Y851958D01*
X16232342Y885443D01*
X16302034Y880459D01*
X16357967Y838587D01*
X16382384Y773123D01*
X16382700Y764277D01*
X16382700Y-1935502D01*
X16363015Y-2002541D01*
X16337365Y-2031355D01*
X16223116Y-2125116D01*
X16098090Y-2277460D01*
X16098086Y-2277467D01*
X16005188Y-2451266D01*
X15947975Y-2639870D01*
X15928659Y-2836000D01*
X15947975Y-3032129D01*
X16005188Y-3220733D01*
X16098086Y-3394532D01*
X16098090Y-3394539D01*
X16223116Y-3546883D01*
X16375460Y-3671909D01*
X16375467Y-3671913D01*
X16549266Y-3764811D01*
X16549269Y-3764811D01*
X16549273Y-3764814D01*
X16737868Y-3822024D01*
X16934000Y-3841341D01*
X17130132Y-3822024D01*
X17318727Y-3764814D01*
X17492538Y-3671910D01*
X17617335Y-3569490D01*
X17681645Y-3542178D01*
X17750512Y-3553969D01*
X17774665Y-3569491D01*
X17899460Y-3671909D01*
X17899467Y-3671913D01*
X18073266Y-3764811D01*
X18073269Y-3764811D01*
X18073273Y-3764814D01*
X18261868Y-3822024D01*
X18458000Y-3841341D01*
X18654132Y-3822024D01*
X18842727Y-3764814D01*
X19016538Y-3671910D01*
X19168883Y-3546883D01*
X19293910Y-3394538D01*
X19386814Y-3220727D01*
X19444024Y-3032132D01*
X19463341Y-2836000D01*
X19444024Y-2639868D01*
X19386814Y-2451273D01*
X19386811Y-2451269D01*
X19386811Y-2451266D01*
X19293913Y-2277467D01*
X19293909Y-2277460D01*
X19168883Y-2125116D01*
X19054635Y-2031355D01*
X19015301Y-1973609D01*
X19009300Y-1935502D01*
X19009300Y1788083D01*
X19028985Y1855122D01*
X19081789Y1900877D01*
X19150947Y1910821D01*
X19182705Y1899642D01*
G37*
%TD.AperFunction*%
%TA.AperFunction,Conductor*%
G36*
X18446716Y34566015D02*
G01*
X18467358Y34549381D01*
X18876381Y34140358D01*
X18909866Y34079035D01*
X18912700Y34052677D01*
X18912700Y34043088D01*
X18893015Y33976049D01*
X18840211Y33930294D01*
X18771053Y33920350D01*
X18741248Y33928527D01*
X18618255Y33979472D01*
X18618243Y33979475D01*
X18434620Y34016000D01*
X18434616Y34016000D01*
X18247384Y34016000D01*
X18247379Y34016000D01*
X18063756Y33979475D01*
X18063748Y33979473D01*
X17890771Y33907824D01*
X17890764Y33907820D01*
X17863576Y33889653D01*
X17796898Y33868776D01*
X17729589Y33887217D01*
X17624486Y33952046D01*
X17624481Y33952048D01*
X17463606Y34005356D01*
X17364322Y34015500D01*
X17341000Y34015500D01*
X17341000Y32982489D01*
X17331060Y32999705D01*
X17275205Y33055560D01*
X17206796Y33095056D01*
X17130496Y33115500D01*
X17051504Y33115500D01*
X16975204Y33095056D01*
X16906795Y33055560D01*
X16850940Y32999705D01*
X16811444Y32931296D01*
X16791000Y32854996D01*
X16791000Y32776004D01*
X16811444Y32699704D01*
X16850940Y32631295D01*
X16906795Y32575440D01*
X16975204Y32535944D01*
X17051504Y32515500D01*
X17130496Y32515500D01*
X17206796Y32535944D01*
X17275205Y32575440D01*
X17331060Y32631295D01*
X17341000Y32648512D01*
X17341000Y31615501D01*
X17364308Y31615501D01*
X17364322Y31615502D01*
X17463605Y31625644D01*
X17499695Y31637603D01*
X17569524Y31640005D01*
X17629566Y31604274D01*
X17660759Y31541753D01*
X17662700Y31519897D01*
X17662700Y29129323D01*
X17643015Y29062284D01*
X17626381Y29041642D01*
X12818609Y24233870D01*
X12781994Y24197255D01*
X12724128Y24139390D01*
X12649898Y24028298D01*
X12634920Y23992139D01*
X12634919Y23992140D01*
X12598769Y23904864D01*
X12598764Y23904848D01*
X12572700Y23773812D01*
X12572700Y9518509D01*
X12555433Y9455389D01*
X12499254Y9360395D01*
X12499254Y9360394D01*
X12453402Y9202574D01*
X12453401Y9202568D01*
X12450500Y9165702D01*
X12450500Y7384299D01*
X12453401Y7347433D01*
X12453402Y7347427D01*
X12499254Y7189607D01*
X12499255Y7189604D01*
X12499256Y7189602D01*
X12500056Y7188250D01*
X12582917Y7048138D01*
X12582923Y7048130D01*
X12699129Y6931924D01*
X12699133Y6931921D01*
X12699135Y6931919D01*
X12840602Y6848256D01*
X12882224Y6836164D01*
X12998426Y6802403D01*
X12998429Y6802403D01*
X12998431Y6802402D01*
X13035306Y6799500D01*
X13035314Y6799500D01*
X13466686Y6799500D01*
X13466694Y6799500D01*
X13503569Y6802402D01*
X13503571Y6802403D01*
X13503573Y6802403D01*
X13545191Y6814495D01*
X13661398Y6848256D01*
X13802865Y6931919D01*
X13802870Y6931925D01*
X13809031Y6936702D01*
X13810933Y6934250D01*
X13859579Y6960845D01*
X13929274Y6955896D01*
X13961695Y6935060D01*
X13962969Y6936702D01*
X13969132Y6931922D01*
X13969135Y6931919D01*
X14110602Y6848256D01*
X14152224Y6836164D01*
X14268426Y6802403D01*
X14268429Y6802403D01*
X14268431Y6802402D01*
X14305306Y6799500D01*
X14305314Y6799500D01*
X14736686Y6799500D01*
X14736694Y6799500D01*
X14773569Y6802402D01*
X14773571Y6802403D01*
X14773573Y6802403D01*
X14815191Y6814495D01*
X14931398Y6848256D01*
X15072865Y6931919D01*
X15072870Y6931925D01*
X15079031Y6936702D01*
X15080933Y6934250D01*
X15129579Y6960845D01*
X15199274Y6955896D01*
X15231695Y6935060D01*
X15232969Y6936702D01*
X15239132Y6931922D01*
X15239135Y6931919D01*
X15380602Y6848256D01*
X15422224Y6836164D01*
X15538426Y6802403D01*
X15538429Y6802403D01*
X15538431Y6802402D01*
X15575306Y6799500D01*
X15575314Y6799500D01*
X16006686Y6799500D01*
X16006694Y6799500D01*
X16043569Y6802402D01*
X16043571Y6802403D01*
X16043573Y6802403D01*
X16085191Y6814495D01*
X16201398Y6848256D01*
X16342865Y6931919D01*
X16342870Y6931925D01*
X16349031Y6936702D01*
X16350933Y6934250D01*
X16399579Y6960845D01*
X16469274Y6955896D01*
X16501695Y6935060D01*
X16502969Y6936702D01*
X16509132Y6931922D01*
X16509135Y6931919D01*
X16650602Y6848256D01*
X16692224Y6836164D01*
X16808426Y6802403D01*
X16808429Y6802403D01*
X16808431Y6802402D01*
X16845306Y6799500D01*
X16845314Y6799500D01*
X17276686Y6799500D01*
X17276694Y6799500D01*
X17313569Y6802402D01*
X17313571Y6802403D01*
X17313573Y6802403D01*
X17355191Y6814495D01*
X17471398Y6848256D01*
X17612865Y6931919D01*
X17612870Y6931925D01*
X17619031Y6936702D01*
X17620933Y6934250D01*
X17669579Y6960845D01*
X17739274Y6955896D01*
X17771695Y6935060D01*
X17772969Y6936702D01*
X17779132Y6931922D01*
X17779135Y6931919D01*
X17920602Y6848256D01*
X17962224Y6836164D01*
X18078426Y6802403D01*
X18078429Y6802403D01*
X18078431Y6802402D01*
X18115306Y6799500D01*
X18115314Y6799500D01*
X18546686Y6799500D01*
X18546694Y6799500D01*
X18583569Y6802402D01*
X18583571Y6802403D01*
X18583573Y6802403D01*
X18625191Y6814495D01*
X18741398Y6848256D01*
X18882865Y6931919D01*
X18882870Y6931925D01*
X18889031Y6936702D01*
X18890933Y6934250D01*
X18939579Y6960845D01*
X19009274Y6955896D01*
X19041695Y6935060D01*
X19042969Y6936702D01*
X19049132Y6931922D01*
X19049135Y6931919D01*
X19190602Y6848256D01*
X19232224Y6836164D01*
X19348426Y6802403D01*
X19348429Y6802403D01*
X19348431Y6802402D01*
X19385306Y6799500D01*
X19385314Y6799500D01*
X19816686Y6799500D01*
X19816694Y6799500D01*
X19853569Y6802402D01*
X19853571Y6802403D01*
X19853573Y6802403D01*
X19895191Y6814495D01*
X20011398Y6848256D01*
X20152865Y6931919D01*
X20152870Y6931924D01*
X20159026Y6936699D01*
X20160839Y6934362D01*
X20209949Y6961202D01*
X20279643Y6956244D01*
X20311996Y6935449D01*
X20313278Y6937100D01*
X20319447Y6932315D01*
X20460801Y6848719D01*
X20618514Y6802900D01*
X20618511Y6802900D01*
X20620998Y6802705D01*
X20621000Y6802705D01*
X20621000Y9747297D01*
X20618503Y9747100D01*
X20460806Y9701284D01*
X20460803Y9701283D01*
X20319449Y9617687D01*
X20313283Y9612903D01*
X20311389Y9615345D01*
X20262580Y9588761D01*
X20192894Y9593821D01*
X20160227Y9614841D01*
X20159031Y9613298D01*
X20152862Y9618083D01*
X20017416Y9698185D01*
X20011398Y9701744D01*
X20011397Y9701745D01*
X20011396Y9701745D01*
X20011393Y9701746D01*
X19853573Y9747598D01*
X19853567Y9747599D01*
X19816701Y9750500D01*
X19816694Y9750500D01*
X19385306Y9750500D01*
X19385298Y9750500D01*
X19348432Y9747599D01*
X19348426Y9747598D01*
X19190606Y9701746D01*
X19190603Y9701745D01*
X19049137Y9618083D01*
X19042969Y9613298D01*
X19041072Y9615744D01*
X18992358Y9589143D01*
X18922666Y9594127D01*
X18890296Y9614931D01*
X18889031Y9613298D01*
X18882862Y9618083D01*
X18747416Y9698185D01*
X18741398Y9701744D01*
X18741397Y9701745D01*
X18741396Y9701745D01*
X18741393Y9701746D01*
X18583573Y9747598D01*
X18583567Y9747599D01*
X18546701Y9750500D01*
X18546694Y9750500D01*
X18115306Y9750500D01*
X18115298Y9750500D01*
X18078432Y9747599D01*
X18078426Y9747598D01*
X17920606Y9701746D01*
X17920603Y9701745D01*
X17779137Y9618083D01*
X17772969Y9613298D01*
X17771072Y9615744D01*
X17722358Y9589143D01*
X17652666Y9594127D01*
X17620296Y9614931D01*
X17619031Y9613298D01*
X17612862Y9618083D01*
X17477416Y9698185D01*
X17471398Y9701744D01*
X17471397Y9701745D01*
X17471396Y9701745D01*
X17471393Y9701746D01*
X17313573Y9747598D01*
X17313567Y9747599D01*
X17276701Y9750500D01*
X17276694Y9750500D01*
X16845306Y9750500D01*
X16845298Y9750500D01*
X16808432Y9747599D01*
X16808426Y9747598D01*
X16650606Y9701746D01*
X16650603Y9701745D01*
X16509137Y9618083D01*
X16502969Y9613298D01*
X16501072Y9615744D01*
X16452358Y9589143D01*
X16382666Y9594127D01*
X16350296Y9614931D01*
X16349031Y9613298D01*
X16342862Y9618083D01*
X16207416Y9698185D01*
X16201398Y9701744D01*
X16201397Y9701745D01*
X16201396Y9701745D01*
X16201393Y9701746D01*
X16043573Y9747598D01*
X16043567Y9747599D01*
X16006701Y9750500D01*
X16006694Y9750500D01*
X15575306Y9750500D01*
X15575298Y9750500D01*
X15538432Y9747599D01*
X15538426Y9747598D01*
X15380606Y9701746D01*
X15380603Y9701745D01*
X15239137Y9618083D01*
X15232969Y9613298D01*
X15231072Y9615744D01*
X15182358Y9589143D01*
X15112666Y9594127D01*
X15080296Y9614931D01*
X15079031Y9613298D01*
X15072862Y9618083D01*
X14937416Y9698185D01*
X14931398Y9701744D01*
X14931397Y9701745D01*
X14931396Y9701745D01*
X14931393Y9701746D01*
X14773573Y9747598D01*
X14773567Y9747599D01*
X14736701Y9750500D01*
X14736694Y9750500D01*
X14305306Y9750500D01*
X14305298Y9750500D01*
X14268432Y9747599D01*
X14268426Y9747598D01*
X14110606Y9701746D01*
X14103446Y9698647D01*
X14102185Y9701559D01*
X14048606Y9688007D01*
X13982359Y9710215D01*
X13938636Y9764714D01*
X13929300Y9811918D01*
X13929300Y10545262D01*
X13948985Y10612301D01*
X14001789Y10658056D01*
X14070947Y10668000D01*
X14134503Y10638975D01*
X14162658Y10603715D01*
X14218486Y10499268D01*
X14218490Y10499261D01*
X14343516Y10346917D01*
X14495860Y10221891D01*
X14495867Y10221887D01*
X14669666Y10128989D01*
X14669669Y10128989D01*
X14669673Y10128986D01*
X14858268Y10071776D01*
X15054400Y10052459D01*
X15250532Y10071776D01*
X15439127Y10128986D01*
X15612938Y10221890D01*
X15649181Y10251635D01*
X15769992Y10350781D01*
X15771686Y10348717D01*
X15822871Y10376666D01*
X15849229Y10379500D01*
X21224477Y10379500D01*
X21291516Y10359815D01*
X21312158Y10343181D01*
X21426381Y10228958D01*
X21459866Y10167635D01*
X21462700Y10141277D01*
X21462700Y9811337D01*
X21443015Y9744298D01*
X21390211Y9698543D01*
X21321053Y9688599D01*
X21289075Y9699853D01*
X21288354Y9698185D01*
X21281193Y9701284D01*
X21123494Y9747100D01*
X21123497Y9747100D01*
X21121000Y9747297D01*
X21121000Y6802705D01*
X21121001Y6802705D01*
X21123486Y6802900D01*
X21281198Y6848719D01*
X21422550Y6932314D01*
X21428717Y6937097D01*
X21430630Y6934631D01*
X21479222Y6961198D01*
X21548917Y6956251D01*
X21581762Y6935147D01*
X21582969Y6936702D01*
X21589132Y6931922D01*
X21589135Y6931919D01*
X21730602Y6848256D01*
X21772224Y6836164D01*
X21888426Y6802403D01*
X21888429Y6802403D01*
X21888431Y6802402D01*
X21925306Y6799500D01*
X21925314Y6799500D01*
X22356686Y6799500D01*
X22356694Y6799500D01*
X22393569Y6802402D01*
X22393571Y6802403D01*
X22393573Y6802403D01*
X22435191Y6814495D01*
X22551398Y6848256D01*
X22692865Y6931919D01*
X22809081Y7048135D01*
X22892744Y7189602D01*
X22928842Y7313851D01*
X22938597Y7347427D01*
X22938598Y7347433D01*
X22941500Y7384306D01*
X22941500Y9165694D01*
X22938598Y9202569D01*
X22913006Y9290655D01*
X22892745Y9360394D01*
X22892745Y9360395D01*
X22892744Y9360396D01*
X22892744Y9360398D01*
X22836567Y9455389D01*
X22819300Y9518509D01*
X22819300Y10540408D01*
X22819299Y10540409D01*
X22805613Y10609217D01*
X22793234Y10671452D01*
X22744429Y10789277D01*
X22742784Y10793875D01*
X22742102Y10794896D01*
X22712369Y10839395D01*
X22667871Y10905991D01*
X22667869Y10905994D01*
X22296819Y11277044D01*
X22263334Y11338367D01*
X22260500Y11364725D01*
X22260500Y15337756D01*
X22280185Y15404795D01*
X22296819Y15425437D01*
X25037763Y18166381D01*
X25099086Y18199866D01*
X25125444Y18202700D01*
X25693193Y18202700D01*
X25760232Y18183015D01*
X25805987Y18130211D01*
X25815931Y18061053D01*
X25802551Y18020247D01*
X25707988Y17843333D01*
X25650775Y17654730D01*
X25631459Y17458600D01*
X25650775Y17262471D01*
X25651796Y17259105D01*
X25701365Y17095698D01*
X25707988Y17073867D01*
X25800886Y16900068D01*
X25800890Y16900061D01*
X25925916Y16747717D01*
X26078259Y16622692D01*
X26078267Y16622687D01*
X26252066Y16529789D01*
X26252069Y16529789D01*
X26252073Y16529786D01*
X26440668Y16472576D01*
X26636800Y16453259D01*
X26636800Y16453260D01*
X26642863Y16452662D01*
X26642601Y16450005D01*
X26698557Y16433574D01*
X26719199Y16416940D01*
X26861981Y16274158D01*
X26895466Y16212835D01*
X26898300Y16186477D01*
X26898300Y7483829D01*
X26878615Y7416790D01*
X26869102Y7404985D01*
X26869581Y7404592D01*
X26740690Y7247540D01*
X26740686Y7247533D01*
X26647788Y7073734D01*
X26590575Y6885130D01*
X26571259Y6689000D01*
X26590575Y6492871D01*
X26590576Y6492868D01*
X26647785Y6304275D01*
X26647788Y6304267D01*
X26740686Y6130468D01*
X26740691Y6130461D01*
X26789189Y6071365D01*
X26816502Y6007055D01*
X26804711Y5938187D01*
X26757558Y5886627D01*
X26693336Y5868700D01*
X19915188Y5868700D01*
X19784154Y5842636D01*
X19784142Y5842633D01*
X19733013Y5821455D01*
X19733014Y5821454D01*
X19660706Y5791504D01*
X19549609Y5717271D01*
X19549605Y5717268D01*
X19180494Y5348155D01*
X19168609Y5336270D01*
X19121368Y5289030D01*
X19074128Y5241790D01*
X18999899Y5130699D01*
X18999898Y5130697D01*
X18986233Y5097706D01*
X18986233Y5097705D01*
X18948767Y5007256D01*
X18948764Y5007246D01*
X18926192Y4893766D01*
X18922700Y4876212D01*
X18922700Y4861918D01*
X18903015Y4794879D01*
X18850211Y4749124D01*
X18781053Y4739180D01*
X18749289Y4750347D01*
X18748554Y4748647D01*
X18741393Y4751746D01*
X18583573Y4797598D01*
X18583567Y4797599D01*
X18546701Y4800500D01*
X18546694Y4800500D01*
X18115306Y4800500D01*
X18115298Y4800500D01*
X18078432Y4797599D01*
X18078426Y4797598D01*
X17920606Y4751746D01*
X17920603Y4751745D01*
X17779137Y4668083D01*
X17772969Y4663298D01*
X17771072Y4665744D01*
X17722358Y4639143D01*
X17652666Y4644127D01*
X17620296Y4664931D01*
X17619031Y4663298D01*
X17612862Y4668083D01*
X17511796Y4727853D01*
X17471398Y4751744D01*
X17471397Y4751745D01*
X17471396Y4751745D01*
X17471393Y4751746D01*
X17313573Y4797598D01*
X17313567Y4797599D01*
X17276701Y4800500D01*
X17276694Y4800500D01*
X16845306Y4800500D01*
X16845298Y4800500D01*
X16808432Y4797599D01*
X16808426Y4797598D01*
X16650606Y4751746D01*
X16650603Y4751745D01*
X16509137Y4668083D01*
X16502969Y4663298D01*
X16501072Y4665744D01*
X16452358Y4639143D01*
X16382666Y4644127D01*
X16350296Y4664931D01*
X16349031Y4663298D01*
X16342862Y4668083D01*
X16241796Y4727853D01*
X16201398Y4751744D01*
X16201397Y4751745D01*
X16201396Y4751745D01*
X16201393Y4751746D01*
X16043573Y4797598D01*
X16043567Y4797599D01*
X16006701Y4800500D01*
X16006694Y4800500D01*
X15575306Y4800500D01*
X15575298Y4800500D01*
X15538432Y4797599D01*
X15538426Y4797598D01*
X15380606Y4751746D01*
X15380603Y4751745D01*
X15239137Y4668083D01*
X15232969Y4663298D01*
X15231072Y4665744D01*
X15182358Y4639143D01*
X15112666Y4644127D01*
X15080296Y4664931D01*
X15079031Y4663298D01*
X15072862Y4668083D01*
X14971796Y4727853D01*
X14931398Y4751744D01*
X14931397Y4751745D01*
X14931396Y4751745D01*
X14931393Y4751746D01*
X14773573Y4797598D01*
X14773567Y4797599D01*
X14736701Y4800500D01*
X14736694Y4800500D01*
X14305306Y4800500D01*
X14305298Y4800500D01*
X14268432Y4797599D01*
X14268426Y4797598D01*
X14110606Y4751746D01*
X14110603Y4751745D01*
X13969140Y4668085D01*
X13962974Y4663301D01*
X13961174Y4665621D01*
X13911913Y4638770D01*
X13842225Y4643807D01*
X13809992Y4664539D01*
X13808722Y4662900D01*
X13802552Y4667686D01*
X13661196Y4751283D01*
X13661193Y4751284D01*
X13503494Y4797100D01*
X13503497Y4797100D01*
X13501000Y4797297D01*
X13501000Y3449000D01*
X13481315Y3381961D01*
X13428511Y3336206D01*
X13377000Y3325000D01*
X13251000Y3325000D01*
X13251000Y3199000D01*
X13231315Y3131961D01*
X13178511Y3086206D01*
X13127000Y3075000D01*
X12451000Y3075000D01*
X12451000Y2434351D01*
X12452174Y2419440D01*
X12437809Y2351063D01*
X12388758Y2301307D01*
X12320593Y2285968D01*
X12254956Y2309917D01*
X12232703Y2331047D01*
X12158483Y2421484D01*
X12006139Y2546510D01*
X12006132Y2546514D01*
X11832328Y2639414D01*
X11800082Y2649196D01*
X11741643Y2687494D01*
X11713187Y2751306D01*
X11723748Y2820373D01*
X11748393Y2855534D01*
X11923670Y3030809D01*
X11969302Y3099102D01*
X11997902Y3141904D01*
X12003785Y3156110D01*
X12039681Y3204510D01*
X12107683Y3260317D01*
X12232710Y3412662D01*
X12286478Y3513256D01*
X12335439Y3563099D01*
X12403577Y3578560D01*
X12413389Y3575000D01*
X13001000Y3575000D01*
X13001000Y4797297D01*
X12998503Y4797100D01*
X12840806Y4751284D01*
X12840803Y4751283D01*
X12699447Y4667686D01*
X12699438Y4667679D01*
X12583321Y4551562D01*
X12583314Y4551553D01*
X12505224Y4419509D01*
X12454155Y4371825D01*
X12385413Y4359322D01*
X12320824Y4385968D01*
X12289134Y4424177D01*
X12232713Y4529733D01*
X12232709Y4529740D01*
X12107683Y4682084D01*
X11955339Y4807110D01*
X11955332Y4807114D01*
X11781533Y4900012D01*
X11781527Y4900014D01*
X11592932Y4957224D01*
X11592929Y4957225D01*
X11486795Y4967678D01*
X11422008Y4993839D01*
X11381650Y5050874D01*
X11378533Y5120674D01*
X11395847Y5159971D01*
X11439102Y5224704D01*
X11454078Y5260860D01*
X11490234Y5348147D01*
X11516300Y5479193D01*
X11516300Y5612807D01*
X11516300Y28327677D01*
X11535985Y28394716D01*
X11552619Y28415358D01*
X12098642Y28961381D01*
X12159965Y28994866D01*
X12186323Y28997700D01*
X13599171Y28997700D01*
X13666210Y28978015D01*
X13678015Y28968503D01*
X13678408Y28968981D01*
X13835460Y28840091D01*
X13835467Y28840087D01*
X14009266Y28747189D01*
X14009269Y28747189D01*
X14009273Y28747186D01*
X14197868Y28689976D01*
X14394000Y28670659D01*
X14590132Y28689976D01*
X14778727Y28747186D01*
X14812667Y28765327D01*
X14951481Y28839525D01*
X14952538Y28840090D01*
X15104883Y28965117D01*
X15229910Y29117462D01*
X15322814Y29291273D01*
X15380024Y29479868D01*
X15399341Y29676000D01*
X15380024Y29872132D01*
X15322814Y30060727D01*
X15322811Y30060731D01*
X15322811Y30060734D01*
X15229913Y30234533D01*
X15229909Y30234540D01*
X15104883Y30386884D01*
X14952539Y30511910D01*
X14952532Y30511914D01*
X14778733Y30604812D01*
X14778727Y30604814D01*
X14590132Y30662024D01*
X14590129Y30662025D01*
X14394000Y30681341D01*
X14197870Y30662025D01*
X14009266Y30604812D01*
X13835467Y30511914D01*
X13835460Y30511910D01*
X13678408Y30383019D01*
X13676713Y30385084D01*
X13625529Y30357134D01*
X13599171Y30354300D01*
X11787188Y30354300D01*
X11656154Y30328236D01*
X11656146Y30328234D01*
X11582802Y30297853D01*
X11532703Y30277102D01*
X11500853Y30255820D01*
X11469003Y30234538D01*
X11421609Y30202871D01*
X11421605Y30202868D01*
X10640439Y29421700D01*
X10405609Y29186870D01*
X10364466Y29145727D01*
X10311128Y29092390D01*
X10236898Y28981298D01*
X10236897Y28981294D01*
X10230198Y28965120D01*
X10230197Y28965117D01*
X10185766Y28857854D01*
X10185764Y28857846D01*
X10159700Y28726812D01*
X10159700Y12131834D01*
X10140015Y12064795D01*
X10087211Y12019040D01*
X10018053Y12009096D01*
X9999712Y12013172D01*
X9817474Y12068453D01*
X9814929Y12069225D01*
X9618800Y12088541D01*
X9422670Y12069225D01*
X9234066Y12012012D01*
X9060267Y11919114D01*
X9060260Y11919110D01*
X8907916Y11794084D01*
X8782890Y11641740D01*
X8782886Y11641733D01*
X8689988Y11467934D01*
X8632775Y11279330D01*
X8613459Y11083200D01*
X8632775Y10887071D01*
X8632776Y10887068D01*
X8673407Y10753125D01*
X8689988Y10698467D01*
X8782886Y10524668D01*
X8782890Y10524661D01*
X8907918Y10372316D01*
X8920562Y10361940D01*
X8959898Y10304195D01*
X8965900Y10266085D01*
X8965900Y8596123D01*
X8946215Y8529084D01*
X8929581Y8508442D01*
X7900958Y7479819D01*
X7839635Y7446334D01*
X7813277Y7443500D01*
X2026323Y7443500D01*
X1959284Y7463185D01*
X1938642Y7479819D01*
X1240219Y8178242D01*
X1206734Y8239565D01*
X1203900Y8265923D01*
X1203900Y8978283D01*
X1223585Y9045322D01*
X1276389Y9091077D01*
X1345547Y9101021D01*
X1393000Y9083820D01*
X1407876Y9074644D01*
X1407880Y9074642D01*
X1574302Y9019495D01*
X1574309Y9019494D01*
X1677019Y9009001D01*
X1951999Y9009001D01*
X2452000Y9009001D01*
X2726972Y9009001D01*
X2726986Y9009002D01*
X2829697Y9019495D01*
X2996119Y9074642D01*
X2996124Y9074644D01*
X3145345Y9166685D01*
X3269315Y9290655D01*
X3361356Y9439876D01*
X3361358Y9439881D01*
X3416505Y9606303D01*
X3416506Y9606310D01*
X3426999Y9709014D01*
X3427000Y9709027D01*
X3427000Y9846500D01*
X2452000Y9846500D01*
X2452000Y9009001D01*
X1951999Y9009001D01*
X1952000Y9009002D01*
X1952000Y9972500D01*
X1971685Y10039539D01*
X2024489Y10085294D01*
X2076000Y10096500D01*
X2202000Y10096500D01*
X2202000Y10222500D01*
X2221685Y10289539D01*
X2274489Y10335294D01*
X2326000Y10346500D01*
X3426999Y10346500D01*
X3426999Y10483972D01*
X3426998Y10483987D01*
X3416505Y10586698D01*
X3361358Y10753120D01*
X3361356Y10753125D01*
X3269315Y10902346D01*
X3145344Y11026317D01*
X3145341Y11026319D01*
X3142339Y11028171D01*
X3140713Y11029979D01*
X3139677Y11030798D01*
X3139817Y11030976D01*
X3095617Y11080120D01*
X3084397Y11149083D01*
X3112243Y11213164D01*
X3142344Y11239246D01*
X3145656Y11241288D01*
X3269712Y11365344D01*
X3361814Y11514666D01*
X3416999Y11681203D01*
X3427500Y11783991D01*
X3427499Y12559008D01*
X3416999Y12661797D01*
X3361814Y12828334D01*
X3269712Y12977656D01*
X3145656Y13101712D01*
X3006976Y13187250D01*
X2996336Y13193813D01*
X2996335Y13193814D01*
X2996334Y13193814D01*
X2965294Y13204100D01*
X2907850Y13243873D01*
X2881028Y13308389D01*
X2880300Y13321805D01*
X2880300Y13911077D01*
X2899985Y13978116D01*
X2952789Y14023871D01*
X3021947Y14033815D01*
X3085503Y14004790D01*
X3091978Y13998761D01*
X3525406Y13565332D01*
X3929886Y13160852D01*
X3960864Y13109170D01*
X3990986Y13009873D01*
X3990988Y13009867D01*
X4083886Y12836068D01*
X4083890Y12836061D01*
X4208916Y12683717D01*
X4361260Y12558691D01*
X4361267Y12558687D01*
X4535066Y12465789D01*
X4535069Y12465789D01*
X4535073Y12465786D01*
X4723668Y12408576D01*
X4919800Y12389259D01*
X5115932Y12408576D01*
X5304527Y12465786D01*
X5313319Y12470485D01*
X5478332Y12558687D01*
X5478338Y12558690D01*
X5630683Y12683717D01*
X5755710Y12836062D01*
X5835034Y12984467D01*
X5848611Y13009867D01*
X5848611Y13009868D01*
X5848614Y13009873D01*
X5905824Y13198468D01*
X5925141Y13394600D01*
X5905824Y13590732D01*
X5848614Y13779327D01*
X5848611Y13779331D01*
X5848611Y13779334D01*
X5755713Y13953133D01*
X5755709Y13953140D01*
X5630683Y14105484D01*
X5478339Y14230510D01*
X5478332Y14230514D01*
X5304533Y14323412D01*
X5304527Y14323414D01*
X5135985Y14374541D01*
X5115929Y14380625D01*
X4919800Y14399941D01*
X4723668Y14380625D01*
X4723663Y14380624D01*
X4721866Y14380078D01*
X4720879Y14380070D01*
X4717696Y14379436D01*
X4717575Y14380041D01*
X4651999Y14379461D01*
X4598201Y14411061D01*
X3928749Y15080512D01*
X3895264Y15141835D01*
X3896225Y15198634D01*
X3935105Y15352167D01*
X3935105Y15352168D01*
X3935108Y15352179D01*
X3935109Y15352188D01*
X3955643Y15599995D01*
X3955643Y15600006D01*
X3935109Y15847813D01*
X3935107Y15847825D01*
X3874063Y16088882D01*
X3774173Y16316607D01*
X3638166Y16524783D01*
X3582173Y16585607D01*
X3469744Y16707738D01*
X3273509Y16860474D01*
X3273507Y16860475D01*
X3273506Y16860476D01*
X3054811Y16978828D01*
X3054802Y16978831D01*
X2819616Y17059571D01*
X2574335Y17100500D01*
X2325665Y17100500D01*
X2080383Y17059571D01*
X1845197Y16978831D01*
X1845188Y16978828D01*
X1626493Y16860476D01*
X1430255Y16707738D01*
X1430252Y16707735D01*
X1291229Y16556716D01*
X1231342Y16520725D01*
X1161504Y16522826D01*
X1108771Y16556716D01*
X969747Y16707735D01*
X969744Y16707738D01*
X799692Y16840095D01*
X773509Y16860474D01*
X773508Y16860475D01*
X773505Y16860477D01*
X773498Y16860481D01*
X693282Y16903892D01*
X643692Y16953111D01*
X628300Y17012946D01*
X628300Y23100000D01*
X3444592Y23100000D01*
X3464201Y22813320D01*
X3522666Y22531966D01*
X3522667Y22531963D01*
X3618891Y22261214D01*
X3618893Y22261207D01*
X3751098Y22006065D01*
X3916812Y21771300D01*
X3971210Y21713055D01*
X4112947Y21561292D01*
X4335853Y21379945D01*
X4561158Y21242933D01*
X4581382Y21230635D01*
X4767011Y21150006D01*
X4844942Y21116156D01*
X5121642Y21038629D01*
X5371920Y21004229D01*
X5406321Y20999500D01*
X5406322Y20999500D01*
X5693679Y20999500D01*
X5724370Y21003719D01*
X5978358Y21038629D01*
X6255058Y21116156D01*
X6429987Y21192138D01*
X6518617Y21230635D01*
X6518620Y21230637D01*
X6518625Y21230639D01*
X6764147Y21379945D01*
X6987053Y21561292D01*
X7183189Y21771302D01*
X7348901Y22006064D01*
X7481104Y22261203D01*
X7481104Y22261204D01*
X7481106Y22261207D01*
X7481109Y22261214D01*
X7577332Y22531963D01*
X7577333Y22531966D01*
X7577334Y22531968D01*
X7635798Y22813314D01*
X7655408Y23100000D01*
X7635798Y23386686D01*
X7577334Y23668032D01*
X7571746Y23683754D01*
X7481105Y23938794D01*
X7481106Y23938794D01*
X7348901Y24193936D01*
X7183187Y24428701D01*
X7072844Y24546848D01*
X6987053Y24638708D01*
X6764147Y24820055D01*
X6764146Y24820056D01*
X6518617Y24969366D01*
X6255063Y25083842D01*
X6255061Y25083843D01*
X6255058Y25083844D01*
X6125578Y25120123D01*
X5978364Y25161370D01*
X5978359Y25161371D01*
X5978358Y25161371D01*
X5836018Y25180936D01*
X5693679Y25200500D01*
X5693678Y25200500D01*
X5406322Y25200500D01*
X5406321Y25200500D01*
X5121642Y25161371D01*
X5121635Y25161370D01*
X4913861Y25103155D01*
X4844942Y25083844D01*
X4844939Y25083844D01*
X4844936Y25083842D01*
X4844935Y25083842D01*
X4581382Y24969366D01*
X4335853Y24820056D01*
X4112950Y24638711D01*
X3916812Y24428701D01*
X3751098Y24193936D01*
X3618894Y23938794D01*
X3522667Y23668038D01*
X3522666Y23668035D01*
X3464201Y23386681D01*
X3444592Y23100000D01*
X628300Y23100000D01*
X628300Y27267678D01*
X647985Y27334717D01*
X664614Y27355354D01*
X1928359Y28619100D01*
X1989680Y28652583D01*
X2056302Y28648698D01*
X2080386Y28640429D01*
X2325665Y28599500D01*
X2574335Y28599500D01*
X2819614Y28640429D01*
X3054810Y28721172D01*
X3273509Y28839526D01*
X3469744Y28992262D01*
X3638164Y29175215D01*
X3745902Y29340122D01*
X3799048Y29385478D01*
X3849711Y29396300D01*
X6946956Y29396300D01*
X7013995Y29376615D01*
X7034637Y29359981D01*
X7837381Y28557237D01*
X7870866Y28495914D01*
X7873700Y28469556D01*
X7873700Y28331805D01*
X7854015Y28264766D01*
X7845553Y28253140D01*
X7741491Y28126340D01*
X7741486Y28126333D01*
X7648588Y27952534D01*
X7591375Y27763930D01*
X7572059Y27567800D01*
X7591375Y27371671D01*
X7591376Y27371668D01*
X7640394Y27210077D01*
X7648588Y27183067D01*
X7741486Y27009268D01*
X7741490Y27009261D01*
X7866516Y26856917D01*
X8018860Y26731891D01*
X8018867Y26731887D01*
X8192666Y26638989D01*
X8192669Y26638989D01*
X8192673Y26638986D01*
X8381268Y26581776D01*
X8577400Y26562459D01*
X8773532Y26581776D01*
X8962127Y26638986D01*
X9135938Y26731890D01*
X9288283Y26856917D01*
X9413310Y27009262D01*
X9506214Y27183073D01*
X9563424Y27371668D01*
X9582741Y27567800D01*
X9563424Y27763932D01*
X9506214Y27952527D01*
X9506211Y27952531D01*
X9506211Y27952534D01*
X9413313Y28126333D01*
X9413311Y28126335D01*
X9413310Y28126338D01*
X9365604Y28184468D01*
X9309247Y28253140D01*
X9281934Y28317450D01*
X9281100Y28331805D01*
X9281100Y28881709D01*
X9277103Y28901799D01*
X9277103Y28901800D01*
X9254057Y29017662D01*
X9224225Y29089684D01*
X9201012Y29145725D01*
X9201011Y29145727D01*
X9164552Y29200292D01*
X9124000Y29260983D01*
X9123998Y29260986D01*
X9022887Y29362097D01*
X9022856Y29362126D01*
X7840740Y30544242D01*
X7840720Y30544264D01*
X7738385Y30646599D01*
X7623123Y30723614D01*
X7495064Y30776657D01*
X7495056Y30776659D01*
X7359110Y30803701D01*
X7359108Y30803701D01*
X7220492Y30803701D01*
X7214378Y30803701D01*
X7214358Y30803700D01*
X3849711Y30803700D01*
X3782672Y30823385D01*
X3745902Y30859879D01*
X3638166Y31024783D01*
X3616557Y31048256D01*
X3469744Y31207738D01*
X3273509Y31360474D01*
X3273507Y31360475D01*
X3273506Y31360476D01*
X3054811Y31478828D01*
X3054802Y31478831D01*
X2819616Y31559571D01*
X2574335Y31600500D01*
X2325665Y31600500D01*
X2080383Y31559571D01*
X1845197Y31478831D01*
X1845188Y31478828D01*
X1626493Y31360476D01*
X1430257Y31207739D01*
X1261833Y31024783D01*
X1125826Y30816607D01*
X1025936Y30588882D01*
X964892Y30347825D01*
X964890Y30347813D01*
X944357Y30100006D01*
X944357Y30099995D01*
X964891Y29852183D01*
X1003775Y29698634D01*
X1001150Y29628814D01*
X971250Y29580513D01*
X-133557Y28475704D01*
X-482391Y28126870D01*
X-529632Y28079630D01*
X-576872Y28032390D01*
X-651787Y27920272D01*
X-653434Y27915666D01*
X-702233Y27797856D01*
X-702236Y27797846D01*
X-714566Y27735860D01*
X-714565Y27735859D01*
X-725965Y27678543D01*
X-728300Y27666806D01*
X-728300Y17012946D01*
X-747985Y16945907D01*
X-793282Y16903892D01*
X-873503Y16860479D01*
X-873517Y16860469D01*
X-929412Y16816965D01*
X-994406Y16791323D01*
X-1062946Y16804890D01*
X-1104840Y16840508D01*
X-1106204Y16842330D01*
X-1106204Y16842331D01*
X-1192454Y16957546D01*
X-1239841Y16993020D01*
X-1307665Y17043794D01*
X-1307672Y17043798D01*
X-1442518Y17094092D01*
X-1442517Y17094092D01*
X-1502117Y17100499D01*
X-1502119Y17100500D01*
X-1502127Y17100500D01*
X-1502136Y17100500D01*
X-3597871Y17100500D01*
X-3597877Y17100499D01*
X-3657484Y17094092D01*
X-3792329Y17043798D01*
X-3792336Y17043794D01*
X-3907545Y16957548D01*
X-3907548Y16957545D01*
X-3993794Y16842336D01*
X-3993798Y16842329D01*
X-4044092Y16707483D01*
X-4050499Y16647884D01*
X-4050500Y16647865D01*
X-4050500Y14552130D01*
X-4050499Y14552124D01*
X-4044092Y14492517D01*
X-3993798Y14357672D01*
X-3993794Y14357665D01*
X-3907548Y14242456D01*
X-3907545Y14242453D01*
X-3792336Y14156207D01*
X-3792329Y14156203D01*
X-3750039Y14140430D01*
X-3657483Y14105909D01*
X-3597873Y14099500D01*
X-3426300Y14099501D01*
X-3359261Y14079817D01*
X-3313506Y14027013D01*
X-3302300Y13975501D01*
X-3302300Y13321805D01*
X-3321985Y13254766D01*
X-3374789Y13209011D01*
X-3387290Y13204102D01*
X-3404280Y13198471D01*
X-3418334Y13193814D01*
X-3418337Y13193813D01*
X-3567658Y13101711D01*
X-3691711Y12977658D01*
X-3783813Y12828337D01*
X-3783815Y12828332D01*
X-3802282Y12772602D01*
X-3838999Y12661797D01*
X-3838999Y12661796D01*
X-3839000Y12661796D01*
X-3849500Y12559017D01*
X-3849500Y11783999D01*
X-3849499Y11783981D01*
X-3839000Y11681204D01*
X-3838999Y11681201D01*
X-3783815Y11514669D01*
X-3783813Y11514664D01*
X-3770574Y11493200D01*
X-3691712Y11365344D01*
X-3567656Y11241288D01*
X-3564372Y11239263D01*
X-3564347Y11239247D01*
X-3562555Y11237254D01*
X-3561989Y11236807D01*
X-3562066Y11236711D01*
X-3517621Y11187301D01*
X-3506397Y11118339D01*
X-3534239Y11054256D01*
X-3564335Y11028174D01*
X-3567340Y11026321D01*
X-3567345Y11026317D01*
X-3691316Y10902346D01*
X-3783357Y10753125D01*
X-3783359Y10753120D01*
X-3838506Y10586698D01*
X-3838507Y10586691D01*
X-3849000Y10483987D01*
X-3849000Y10346500D01*
X-1399001Y10346500D01*
X-1399001Y10483972D01*
X-1399002Y10483987D01*
X-1409495Y10586698D01*
X-1464642Y10753120D01*
X-1464644Y10753125D01*
X-1556685Y10902346D01*
X-1680656Y11026317D01*
X-1680659Y11026319D01*
X-1683661Y11028171D01*
X-1685287Y11029979D01*
X-1686323Y11030798D01*
X-1686183Y11030976D01*
X-1730383Y11080120D01*
X-1741603Y11149083D01*
X-1713757Y11213164D01*
X-1683656Y11239246D01*
X-1680344Y11241288D01*
X-1556288Y11365344D01*
X-1513758Y11434298D01*
X-1461810Y11481021D01*
X-1408219Y11493200D01*
X-1377623Y11493200D01*
X-1310584Y11473515D01*
X-1289942Y11456881D01*
X-1078019Y11244958D01*
X-1044534Y11183635D01*
X-1041700Y11157277D01*
X-1041700Y3624989D01*
X-1015636Y3493955D01*
X-1015634Y3493947D01*
X-992258Y3437513D01*
X-992258Y3437512D01*
X-964506Y3370511D01*
X-964502Y3370504D01*
X-899353Y3273002D01*
X-890270Y3259409D01*
X1090930Y1278209D01*
X1185409Y1183730D01*
X1296504Y1109498D01*
X1332659Y1094522D01*
X1419947Y1058366D01*
X1550988Y1032301D01*
X1550992Y1032300D01*
X1550993Y1032300D01*
X7452371Y1032300D01*
X7519410Y1012615D01*
X7531215Y1003103D01*
X7531608Y1003581D01*
X7688660Y874691D01*
X7688667Y874687D01*
X7862466Y781789D01*
X7862469Y781789D01*
X7862473Y781786D01*
X8051068Y724576D01*
X8247200Y705259D01*
X8443332Y724576D01*
X8631927Y781786D01*
X8805738Y874690D01*
X8941035Y985727D01*
X9005345Y1013039D01*
X9074212Y1001248D01*
X9125773Y954096D01*
X9143700Y889873D01*
X9143700Y290323D01*
X9124015Y223284D01*
X9107381Y202642D01*
X8561358Y-343381D01*
X8500035Y-376866D01*
X8473677Y-379700D01*
X3455988Y-379700D01*
X3324954Y-405764D01*
X3324942Y-405767D01*
X3273813Y-426945D01*
X3273814Y-426946D01*
X3201506Y-456896D01*
X3090409Y-531129D01*
X3090405Y-531132D01*
X2846358Y-775181D01*
X2785035Y-808666D01*
X2758677Y-811500D01*
X1518323Y-811500D01*
X1451284Y-791815D01*
X1430642Y-775181D01*
X1186594Y-531132D01*
X1186590Y-531129D01*
X1075495Y-456897D01*
X1039341Y-441921D01*
X1039340Y-441921D01*
X952053Y-405766D01*
X952045Y-405764D01*
X952044Y-405764D01*
X821011Y-379700D01*
X821007Y-379700D01*
X-4335193Y-379700D01*
X-4468807Y-379700D01*
X-4468812Y-379700D01*
X-4599848Y-405764D01*
X-4599864Y-405769D01*
X-4687140Y-441919D01*
X-4687139Y-441920D01*
X-4723298Y-456898D01*
X-4834391Y-531129D01*
X-4834395Y-531132D01*
X-5516784Y-1213523D01*
X-5723391Y-1420130D01*
X-5770632Y-1467370D01*
X-5817872Y-1514610D01*
X-5892787Y-1626728D01*
X-5894434Y-1631334D01*
X-5943234Y-1749146D01*
X-5943236Y-1749154D01*
X-5966369Y-1865450D01*
X-5966368Y-1865451D01*
X-5969300Y-1880192D01*
X-5969300Y-4451491D01*
X-5986568Y-4514612D01*
X-6032968Y-4593071D01*
X-6084037Y-4640754D01*
X-6152778Y-4653258D01*
X-6217368Y-4626613D01*
X-6257298Y-4569278D01*
X-6263700Y-4529950D01*
X-6263700Y9709014D01*
X-3848999Y9709014D01*
X-3838506Y9606303D01*
X-3783359Y9439881D01*
X-3783357Y9439876D01*
X-3691316Y9290655D01*
X-3567346Y9166685D01*
X-3418125Y9074644D01*
X-3418120Y9074642D01*
X-3251698Y9019495D01*
X-3251691Y9019494D01*
X-3148981Y9009001D01*
X-2874001Y9009001D01*
X-2374000Y9009001D01*
X-2099028Y9009001D01*
X-2099014Y9009002D01*
X-1996303Y9019495D01*
X-1829881Y9074642D01*
X-1829876Y9074644D01*
X-1680655Y9166685D01*
X-1556685Y9290655D01*
X-1464644Y9439876D01*
X-1464642Y9439881D01*
X-1409495Y9606303D01*
X-1409494Y9606310D01*
X-1399001Y9709014D01*
X-1399000Y9709027D01*
X-1399000Y9846500D01*
X-2374000Y9846500D01*
X-2374000Y9009001D01*
X-2874001Y9009001D01*
X-2874000Y9009002D01*
X-2874000Y9846500D01*
X-3848999Y9846500D01*
X-3848999Y9709014D01*
X-6263700Y9709014D01*
X-6263700Y19201802D01*
X-6263700Y19201807D01*
X-6264195Y19204293D01*
X-6264194Y19204309D01*
X-6264197Y19204308D01*
X-6289765Y19332846D01*
X-6289766Y19332853D01*
X-6333934Y19439483D01*
X-6340898Y19456296D01*
X-6340899Y19456298D01*
X-6340900Y19456300D01*
X-6415129Y19567390D01*
X-6460673Y19612934D01*
X-6509609Y19661870D01*
X-7370381Y20522642D01*
X-7403866Y20583965D01*
X-7406700Y20610323D01*
X-7406700Y21589108D01*
X-7387015Y21656147D01*
X-7334211Y21701902D01*
X-7265053Y21711846D01*
X-7201497Y21682821D01*
X-7192077Y21673745D01*
X-7087053Y21561292D01*
X-6864147Y21379945D01*
X-6638842Y21242933D01*
X-6618618Y21230635D01*
X-6432989Y21150006D01*
X-6355058Y21116156D01*
X-6078358Y21038629D01*
X-5828080Y21004229D01*
X-5793679Y20999500D01*
X-5793678Y20999500D01*
X-5506321Y20999500D01*
X-5475630Y21003719D01*
X-5221642Y21038629D01*
X-4944942Y21116156D01*
X-4770013Y21192138D01*
X-4681383Y21230635D01*
X-4681380Y21230637D01*
X-4681375Y21230639D01*
X-4435853Y21379945D01*
X-4212947Y21561292D01*
X-4016811Y21771302D01*
X-3851099Y22006064D01*
X-3718896Y22261203D01*
X-3718896Y22261204D01*
X-3718894Y22261207D01*
X-3718891Y22261214D01*
X-3622668Y22531963D01*
X-3622667Y22531966D01*
X-3622666Y22531968D01*
X-3564202Y22813314D01*
X-3544592Y23100000D01*
X-3564202Y23386686D01*
X-3622666Y23668032D01*
X-3628254Y23683754D01*
X-3718895Y23938794D01*
X-3718894Y23938794D01*
X-3851099Y24193936D01*
X-4016813Y24428701D01*
X-4127156Y24546848D01*
X-4212947Y24638708D01*
X-4435853Y24820055D01*
X-4435854Y24820056D01*
X-4681383Y24969366D01*
X-4944937Y25083842D01*
X-4944939Y25083843D01*
X-4944942Y25083844D01*
X-5074422Y25120123D01*
X-5221636Y25161370D01*
X-5221641Y25161371D01*
X-5221642Y25161371D01*
X-5363982Y25180936D01*
X-5506321Y25200500D01*
X-5506322Y25200500D01*
X-5793678Y25200500D01*
X-5793679Y25200500D01*
X-6078358Y25161371D01*
X-6078365Y25161370D01*
X-6286139Y25103155D01*
X-6355058Y25083844D01*
X-6355061Y25083844D01*
X-6355064Y25083842D01*
X-6355065Y25083842D01*
X-6618618Y24969366D01*
X-6864147Y24820056D01*
X-7087050Y24638711D01*
X-7192077Y24526256D01*
X-7252221Y24490697D01*
X-7322043Y24493300D01*
X-7379373Y24533238D01*
X-7406010Y24597830D01*
X-7406700Y24610893D01*
X-7406700Y27210077D01*
X-7387015Y27277116D01*
X-7370381Y27297758D01*
X-5282758Y29385381D01*
X-5221435Y29418866D01*
X-5195077Y29421700D01*
X-3966306Y29421700D01*
X-3899267Y29402015D01*
X-3862497Y29365521D01*
X-3738167Y29175218D01*
X-3738164Y29175215D01*
X-3569744Y28992262D01*
X-3373509Y28839526D01*
X-3373507Y28839525D01*
X-3171478Y28730192D01*
X-3154810Y28721172D01*
X-2919614Y28640429D01*
X-2674335Y28599500D01*
X-2425665Y28599500D01*
X-2180386Y28640429D01*
X-1945190Y28721172D01*
X-1726491Y28839526D01*
X-1530256Y28992262D01*
X-1361836Y29175215D01*
X-1225827Y29383393D01*
X-1125937Y29611119D01*
X-1064892Y29852179D01*
X-1063239Y29872130D01*
X-1044357Y30099995D01*
X-1044357Y30100006D01*
X-1064891Y30347813D01*
X-1064893Y30347825D01*
X-1125937Y30588882D01*
X-1225827Y30816607D01*
X-1361834Y31024783D01*
X-1383443Y31048256D01*
X-1530256Y31207738D01*
X-1726491Y31360474D01*
X-1726492Y31360475D01*
X-1726495Y31360477D01*
X-1726502Y31360481D01*
X-1806718Y31403892D01*
X-1856308Y31453111D01*
X-1871700Y31512946D01*
X-1871700Y32292178D01*
X16141001Y32292178D01*
X16151144Y32192893D01*
X16204452Y32032019D01*
X16204457Y32032008D01*
X16293424Y31887772D01*
X16293427Y31887768D01*
X16413267Y31767928D01*
X16413271Y31767925D01*
X16557507Y31678958D01*
X16557518Y31678953D01*
X16718393Y31625645D01*
X16817683Y31615501D01*
X16841000Y31615502D01*
X16841000Y32565500D01*
X16141001Y32565500D01*
X16141001Y32292178D01*
X-1871700Y32292178D01*
X-1871700Y32302602D01*
X-1852015Y32369641D01*
X-1812795Y32408142D01*
X-1796344Y32418288D01*
X-1672288Y32542344D01*
X-1580186Y32691666D01*
X-1525001Y32858203D01*
X-1514500Y32960991D01*
X-1514500Y33338823D01*
X16141000Y33338823D01*
X16141000Y33065500D01*
X16841000Y33065500D01*
X16841000Y34015501D01*
X16817693Y34015500D01*
X16817674Y34015499D01*
X16718392Y34005356D01*
X16557518Y33952048D01*
X16557507Y33952043D01*
X16413271Y33863076D01*
X16413267Y33863073D01*
X16293427Y33743233D01*
X16293424Y33743229D01*
X16204457Y33598993D01*
X16204452Y33598982D01*
X16151144Y33438107D01*
X16141000Y33338823D01*
X-1514500Y33338823D01*
X-1514501Y34011008D01*
X-1514646Y34012423D01*
X-1525001Y34113797D01*
X-1525002Y34113800D01*
X-1531391Y34133080D01*
X-1580186Y34280334D01*
X-1609463Y34327800D01*
X-1651901Y34396604D01*
X-1670341Y34463996D01*
X-1649418Y34530660D01*
X-1595776Y34575429D01*
X-1546362Y34585700D01*
X18379677Y34585700D01*
X18446716Y34566015D01*
G37*
%TD.AperFunction*%
%TA.AperFunction,Conductor*%
G36*
X520103Y6979390D02*
G01*
X526581Y6973358D01*
X1167130Y6332809D01*
X1243328Y6256611D01*
X1261610Y6238329D01*
X1372701Y6164100D01*
X1372704Y6164098D01*
X1406791Y6149979D01*
X1445011Y6134148D01*
X1445015Y6134147D01*
X1496147Y6112966D01*
X1496151Y6112966D01*
X1496152Y6112965D01*
X1627188Y6086901D01*
X1627192Y6086900D01*
X1627193Y6086900D01*
X7343300Y6086900D01*
X7410339Y6067215D01*
X7456094Y6014411D01*
X7467300Y5962900D01*
X7467300Y4735205D01*
X7447615Y4668166D01*
X7439153Y4656540D01*
X7335091Y4529740D01*
X7335086Y4529733D01*
X7242188Y4355934D01*
X7184975Y4167330D01*
X7165659Y3971200D01*
X7184975Y3775071D01*
X7242188Y3586467D01*
X7335086Y3412668D01*
X7335090Y3412661D01*
X7460116Y3260317D01*
X7612460Y3135291D01*
X7612467Y3135287D01*
X7786266Y3042389D01*
X7786269Y3042389D01*
X7786273Y3042386D01*
X7974868Y2985176D01*
X8171000Y2965859D01*
X8367132Y2985176D01*
X8555727Y3042386D01*
X8616744Y3075000D01*
X8729532Y3135287D01*
X8729538Y3135290D01*
X8881883Y3260317D01*
X8923846Y3311450D01*
X8981592Y3350784D01*
X9051437Y3352655D01*
X9111205Y3316468D01*
X9141921Y3253712D01*
X9143700Y3232785D01*
X9143700Y2531328D01*
X9124015Y2464289D01*
X9071211Y2418534D01*
X9002053Y2408590D01*
X8941035Y2435475D01*
X8805739Y2546510D01*
X8805732Y2546514D01*
X8631933Y2639412D01*
X8631927Y2639414D01*
X8506197Y2677554D01*
X8443329Y2696625D01*
X8247200Y2715941D01*
X8051070Y2696625D01*
X7862466Y2639412D01*
X7688667Y2546514D01*
X7688660Y2546510D01*
X7531608Y2417619D01*
X7529913Y2419684D01*
X7478729Y2391734D01*
X7452371Y2388900D01*
X1950123Y2388900D01*
X1883084Y2408585D01*
X1862442Y2425219D01*
X351219Y3936442D01*
X317734Y3997765D01*
X314900Y4024123D01*
X314900Y6885677D01*
X334585Y6952716D01*
X387389Y6998471D01*
X456547Y7008415D01*
X520103Y6979390D01*
G37*
%TD.AperFunction*%
%TA.AperFunction,Conductor*%
G36*
X-5666011Y34566015D02*
G01*
X-5620256Y34513211D01*
X-5610312Y34444053D01*
X-5627512Y34396603D01*
X-5699354Y34280131D01*
X-5699359Y34280120D01*
X-5754506Y34113698D01*
X-5754507Y34113691D01*
X-5765000Y34010987D01*
X-5765000Y33736000D01*
X-4801500Y33736000D01*
X-4734461Y33716315D01*
X-4688706Y33663511D01*
X-4677500Y33612000D01*
X-4677500Y33486000D01*
X-4551500Y33486000D01*
X-4484461Y33466315D01*
X-4438706Y33413511D01*
X-4427500Y33362000D01*
X-4427500Y32261001D01*
X-4290028Y32261001D01*
X-4290014Y32261002D01*
X-4187303Y32271495D01*
X-4020881Y32326642D01*
X-4020876Y32326644D01*
X-3871655Y32418685D01*
X-3747682Y32542658D01*
X-3745835Y32545652D01*
X-3744031Y32547276D01*
X-3743202Y32548323D01*
X-3743024Y32548182D01*
X-3693890Y32592379D01*
X-3624927Y32603604D01*
X-3560844Y32575764D01*
X-3534757Y32545659D01*
X-3532712Y32542344D01*
X-3408656Y32418288D01*
X-3287203Y32343376D01*
X-3240479Y32291430D01*
X-3228300Y32237838D01*
X-3228300Y31512946D01*
X-3247985Y31445907D01*
X-3293282Y31403892D01*
X-3373499Y31360481D01*
X-3373506Y31360477D01*
X-3569743Y31207739D01*
X-3738167Y31024783D01*
X-3862497Y30834479D01*
X-3915644Y30789122D01*
X-3966306Y30778300D01*
X-5594207Y30778300D01*
X-5620273Y30773116D01*
X-5620278Y30773116D01*
X-5725247Y30752236D01*
X-5725253Y30752234D01*
X-5794354Y30723611D01*
X-5794355Y30723611D01*
X-5848692Y30701105D01*
X-5848694Y30701104D01*
X-5959791Y30626871D01*
X-5959795Y30626868D01*
X-7896685Y28689976D01*
X-8517391Y28069270D01*
X-8544878Y28041783D01*
X-8611872Y27974790D01*
X-8686787Y27862672D01*
X-8688434Y27858066D01*
X-8737233Y27740256D01*
X-8737236Y27740246D01*
X-8756323Y27644286D01*
X-8763300Y27609212D01*
X-8763300Y21713055D01*
X-8782985Y21646016D01*
X-8835789Y21600261D01*
X-8904947Y21590317D01*
X-8923295Y21594394D01*
X-9006470Y21619625D01*
X-9202600Y21638941D01*
X-9398730Y21619625D01*
X-9587334Y21562412D01*
X-9761133Y21469514D01*
X-9761140Y21469510D01*
X-9871035Y21379320D01*
X-9935345Y21352007D01*
X-10004213Y21363798D01*
X-10055773Y21410950D01*
X-10073700Y21475173D01*
X-10073700Y32961014D01*
X-5764999Y32961014D01*
X-5754506Y32858303D01*
X-5699359Y32691881D01*
X-5699357Y32691876D01*
X-5607316Y32542655D01*
X-5483346Y32418685D01*
X-5334125Y32326644D01*
X-5334120Y32326642D01*
X-5167698Y32271495D01*
X-5167691Y32271494D01*
X-5064981Y32261001D01*
X-4927501Y32261001D01*
X-4927500Y32261002D01*
X-4927500Y33236000D01*
X-5764999Y33236000D01*
X-5764999Y32961014D01*
X-10073700Y32961014D01*
X-10073700Y33407677D01*
X-10054015Y33474716D01*
X-10037381Y33495358D01*
X-8983358Y34549381D01*
X-8922035Y34582866D01*
X-8895677Y34585700D01*
X-5733050Y34585700D01*
X-5666011Y34566015D01*
G37*
%TD.AperFunction*%
%TA.AperFunction,Conductor*%
G36*
X47003735Y37499274D02*
G01*
X47293796Y37481729D01*
X47308657Y37479925D01*
X47590797Y37428220D01*
X47605334Y37424637D01*
X47879171Y37339305D01*
X47893163Y37334000D01*
X47994682Y37288310D01*
X48154735Y37216276D01*
X48167994Y37209317D01*
X48290726Y37135123D01*
X48413464Y37060925D01*
X48425776Y37052427D01*
X48651573Y36875527D01*
X48662781Y36865597D01*
X48865595Y36662782D01*
X48875525Y36651574D01*
X49052422Y36425783D01*
X49060928Y36413460D01*
X49209316Y36167996D01*
X49216275Y36154737D01*
X49333997Y35893169D01*
X49339306Y35879168D01*
X49424635Y35605337D01*
X49428219Y35590799D01*
X49479923Y35308660D01*
X49481728Y35293795D01*
X49499273Y35003754D01*
X49499499Y34996267D01*
X49499499Y-34996249D01*
X49499273Y-35003736D01*
X49481727Y-35293794D01*
X49479922Y-35308659D01*
X49428218Y-35590797D01*
X49424634Y-35605335D01*
X49339303Y-35879174D01*
X49333993Y-35893176D01*
X49216276Y-36154730D01*
X49209318Y-36167987D01*
X49060927Y-36413458D01*
X49052421Y-36425782D01*
X48875525Y-36651573D01*
X48865595Y-36662781D01*
X48662780Y-36865595D01*
X48651572Y-36875525D01*
X48425781Y-37052422D01*
X48413458Y-37060928D01*
X48167995Y-37209315D01*
X48154736Y-37216274D01*
X47893167Y-37333996D01*
X47879166Y-37339305D01*
X47605335Y-37424634D01*
X47590797Y-37428218D01*
X47308659Y-37479922D01*
X47293794Y-37481727D01*
X47100701Y-37493407D01*
X47003711Y-37499274D01*
X46996239Y-37499500D01*
X-46996249Y-37499500D01*
X-47003736Y-37499274D01*
X-47293795Y-37481728D01*
X-47308660Y-37479923D01*
X-47590799Y-37428219D01*
X-47605337Y-37424635D01*
X-47879168Y-37339306D01*
X-47893169Y-37333997D01*
X-48154737Y-37216275D01*
X-48167996Y-37209316D01*
X-48413460Y-37060928D01*
X-48425783Y-37052422D01*
X-48651574Y-36875525D01*
X-48662782Y-36865595D01*
X-48865597Y-36662781D01*
X-48875527Y-36651573D01*
X-49052423Y-36425781D01*
X-49060925Y-36413464D01*
X-49180417Y-36215801D01*
X-49209317Y-36167994D01*
X-49216276Y-36154735D01*
X-49333998Y-35893167D01*
X-49339307Y-35879166D01*
X-49347904Y-35851578D01*
X-49424637Y-35605334D01*
X-49428220Y-35590797D01*
X-49479924Y-35308659D01*
X-49481729Y-35293794D01*
X-49495514Y-35065894D01*
X-49499276Y-35003712D01*
X-49499501Y-34996238D01*
X-49499501Y-31878711D01*
X-45850500Y-31878711D01*
X-45850500Y-32121288D01*
X-45833729Y-32248684D01*
X-45818838Y-32361789D01*
X-45815927Y-32372654D01*
X-45756053Y-32596104D01*
X-45663227Y-32820205D01*
X-45663224Y-32820212D01*
X-45541936Y-33030289D01*
X-45541934Y-33030292D01*
X-45541933Y-33030293D01*
X-45394267Y-33222736D01*
X-45394261Y-33222743D01*
X-45222744Y-33394260D01*
X-45222737Y-33394266D01*
X-45128890Y-33466277D01*
X-45030289Y-33541936D01*
X-44820212Y-33663224D01*
X-44596100Y-33756054D01*
X-44361789Y-33818838D01*
X-44181414Y-33842584D01*
X-44121289Y-33850500D01*
X-44121288Y-33850500D01*
X-43878711Y-33850500D01*
X-43830612Y-33844167D01*
X-43638211Y-33818838D01*
X-43403900Y-33756054D01*
X-43179788Y-33663224D01*
X-42969711Y-33541936D01*
X-42777262Y-33394265D01*
X-42605735Y-33222738D01*
X-42458064Y-33030289D01*
X-42336776Y-32820212D01*
X-42243946Y-32596100D01*
X-42181162Y-32361789D01*
X-42149500Y-32121288D01*
X-42149500Y-31878712D01*
X-42181162Y-31638211D01*
X-42243946Y-31403900D01*
X-42245571Y-31399978D01*
X-42303354Y-31260476D01*
X-42336776Y-31179788D01*
X-42458064Y-30969711D01*
X-42605735Y-30777262D01*
X-42605740Y-30777256D01*
X-42777257Y-30605739D01*
X-42777264Y-30605733D01*
X-42969707Y-30458067D01*
X-42969708Y-30458066D01*
X-42969711Y-30458064D01*
X-43179788Y-30336776D01*
X-43179795Y-30336773D01*
X-43403896Y-30243947D01*
X-43638215Y-30181161D01*
X-43878711Y-30149500D01*
X-43878712Y-30149500D01*
X-44121288Y-30149500D01*
X-44121289Y-30149500D01*
X-44361786Y-30181161D01*
X-44596105Y-30243947D01*
X-44820206Y-30336773D01*
X-44820215Y-30336777D01*
X-45030294Y-30458067D01*
X-45222737Y-30605733D01*
X-45222744Y-30605739D01*
X-45394261Y-30777256D01*
X-45394267Y-30777263D01*
X-45541933Y-30969706D01*
X-45663223Y-31179785D01*
X-45663227Y-31179794D01*
X-45756053Y-31403895D01*
X-45756054Y-31403900D01*
X-45818837Y-31638210D01*
X-45818838Y-31638212D01*
X-45850500Y-31878711D01*
X-49499501Y-31878711D01*
X-49499501Y-12040188D01*
X-38278100Y-12040188D01*
X-38278100Y-33865411D01*
X-38252036Y-33996445D01*
X-38252034Y-33996453D01*
X-38230063Y-34049496D01*
X-38221638Y-34069834D01*
X-38200902Y-34119896D01*
X-38140919Y-34209666D01*
X-38139026Y-34212498D01*
X-38139026Y-34212500D01*
X-38126673Y-34230987D01*
X-38126670Y-34230991D01*
X-36310570Y-36047091D01*
X-36216091Y-36141570D01*
X-36216090Y-36141571D01*
X-36157522Y-36180705D01*
X-36104996Y-36215802D01*
X-36070909Y-36229921D01*
X-36032689Y-36245752D01*
X-36032685Y-36245753D01*
X-35981553Y-36266934D01*
X-35981549Y-36266934D01*
X-35981548Y-36266935D01*
X-35850512Y-36292999D01*
X-35850508Y-36293000D01*
X-35850507Y-36293000D01*
X37765308Y-36293000D01*
X37765309Y-36292999D01*
X37896353Y-36266934D01*
X37983640Y-36230778D01*
X38019796Y-36215802D01*
X38130891Y-36141570D01*
X38225370Y-36047091D01*
X39660470Y-34611991D01*
X39668817Y-34599499D01*
X39734702Y-34500896D01*
X39749678Y-34464740D01*
X39785834Y-34377453D01*
X39811900Y-34246407D01*
X39811900Y-34112793D01*
X39811900Y-31878711D01*
X42149500Y-31878711D01*
X42149500Y-32121288D01*
X42166271Y-32248684D01*
X42181162Y-32361789D01*
X42184073Y-32372654D01*
X42243947Y-32596104D01*
X42336773Y-32820205D01*
X42336776Y-32820212D01*
X42458064Y-33030289D01*
X42458066Y-33030292D01*
X42458067Y-33030293D01*
X42605733Y-33222736D01*
X42605739Y-33222743D01*
X42777256Y-33394260D01*
X42777263Y-33394266D01*
X42871110Y-33466277D01*
X42969711Y-33541936D01*
X43179788Y-33663224D01*
X43403900Y-33756054D01*
X43638211Y-33818838D01*
X43818586Y-33842584D01*
X43878711Y-33850500D01*
X43878712Y-33850500D01*
X44121289Y-33850500D01*
X44169388Y-33844167D01*
X44361789Y-33818838D01*
X44596100Y-33756054D01*
X44820212Y-33663224D01*
X45030289Y-33541936D01*
X45222738Y-33394265D01*
X45394265Y-33222738D01*
X45541936Y-33030289D01*
X45663224Y-32820212D01*
X45756054Y-32596100D01*
X45818838Y-32361789D01*
X45850500Y-32121288D01*
X45850500Y-31878712D01*
X45818838Y-31638211D01*
X45756054Y-31403900D01*
X45754429Y-31399978D01*
X45696646Y-31260476D01*
X45663224Y-31179788D01*
X45541936Y-30969711D01*
X45394265Y-30777262D01*
X45394260Y-30777256D01*
X45222743Y-30605739D01*
X45222736Y-30605733D01*
X45030293Y-30458067D01*
X45030292Y-30458066D01*
X45030289Y-30458064D01*
X44820212Y-30336776D01*
X44820205Y-30336773D01*
X44596104Y-30243947D01*
X44361785Y-30181161D01*
X44121289Y-30149500D01*
X44121288Y-30149500D01*
X43878712Y-30149500D01*
X43878711Y-30149500D01*
X43638214Y-30181161D01*
X43403895Y-30243947D01*
X43179794Y-30336773D01*
X43179785Y-30336777D01*
X42969706Y-30458067D01*
X42777263Y-30605733D01*
X42777256Y-30605739D01*
X42605739Y-30777256D01*
X42605733Y-30777263D01*
X42458067Y-30969706D01*
X42336777Y-31179785D01*
X42336773Y-31179794D01*
X42243947Y-31403895D01*
X42243946Y-31403900D01*
X42181163Y-31638210D01*
X42181162Y-31638212D01*
X42149500Y-31878711D01*
X39811900Y-31878711D01*
X39811900Y2615607D01*
X39795785Y2696624D01*
X39785834Y2746652D01*
X39755744Y2819296D01*
X39755298Y2820373D01*
X39734705Y2870090D01*
X39734701Y2870097D01*
X39694414Y2930391D01*
X39660471Y2981191D01*
X39660469Y2981194D01*
X39660466Y2981197D01*
X36924394Y5717268D01*
X36924391Y5717271D01*
X36860163Y5760186D01*
X36860162Y5760187D01*
X36813305Y5791497D01*
X36813298Y5791501D01*
X36813296Y5791502D01*
X36807991Y5793700D01*
X36777141Y5806479D01*
X36777140Y5806479D01*
X36689853Y5842634D01*
X36689845Y5842636D01*
X36689844Y5842636D01*
X36558811Y5868700D01*
X36558807Y5868700D01*
X28459864Y5868700D01*
X28392825Y5888385D01*
X28347070Y5941189D01*
X28337126Y6010347D01*
X28364011Y6071365D01*
X28385290Y6097295D01*
X28412510Y6130462D01*
X28470167Y6238330D01*
X28505411Y6304267D01*
X28505411Y6304268D01*
X28505414Y6304273D01*
X28562624Y6492868D01*
X28581941Y6689000D01*
X28562624Y6885132D01*
X28505414Y7073727D01*
X28505411Y7073731D01*
X28505411Y7073734D01*
X28412513Y7247533D01*
X28412509Y7247540D01*
X28283619Y7404592D01*
X28285683Y7406287D01*
X28257734Y7457471D01*
X28254900Y7483829D01*
X28254900Y15943014D01*
X33351001Y15943014D01*
X33361494Y15840303D01*
X33416641Y15673881D01*
X33416643Y15673876D01*
X33508684Y15524655D01*
X33632654Y15400685D01*
X33781875Y15308644D01*
X33781880Y15308642D01*
X33948302Y15253495D01*
X33948309Y15253494D01*
X34051019Y15243001D01*
X34188499Y15243001D01*
X34188500Y15243002D01*
X34188500Y16218000D01*
X33351001Y16218000D01*
X33351001Y15943014D01*
X28254900Y15943014D01*
X28254900Y16585608D01*
X28247524Y16622692D01*
X28247524Y16622693D01*
X28231155Y16704984D01*
X28228834Y16716653D01*
X28180026Y16834484D01*
X28178383Y16839076D01*
X28177702Y16840096D01*
X28131704Y16908936D01*
X28103471Y16951190D01*
X28061674Y16992987D01*
X33351000Y16992987D01*
X33351000Y16718000D01*
X34188500Y16718000D01*
X34188500Y17693000D01*
X34051027Y17693000D01*
X34051012Y17692999D01*
X33948302Y17682506D01*
X33781880Y17627359D01*
X33781875Y17627357D01*
X33632654Y17535316D01*
X33508684Y17411346D01*
X33416643Y17262125D01*
X33416641Y17262120D01*
X33361494Y17095698D01*
X33361493Y17095691D01*
X33351000Y16992987D01*
X28061674Y16992987D01*
X28061641Y16993020D01*
X28008991Y17045670D01*
X27678460Y17376201D01*
X27644975Y17437524D01*
X27643354Y17452598D01*
X27642738Y17452537D01*
X27640236Y17477938D01*
X27622824Y17654732D01*
X27565614Y17843327D01*
X27565611Y17843333D01*
X27471049Y18020247D01*
X27456807Y18088650D01*
X27481807Y18153893D01*
X27538112Y18195264D01*
X27580407Y18202700D01*
X31133358Y18202700D01*
X31133378Y18202699D01*
X31139492Y18202699D01*
X31278110Y18202699D01*
X31369568Y18220893D01*
X31414062Y18229743D01*
X31542127Y18282789D01*
X31564461Y18297712D01*
X31657383Y18359800D01*
X31755400Y18457817D01*
X31755401Y18457819D01*
X31762467Y18464885D01*
X31762470Y18464889D01*
X33028979Y19731398D01*
X33028983Y19731400D01*
X33127000Y19829417D01*
X33204011Y19944673D01*
X33208543Y19955613D01*
X33244433Y20042262D01*
X33257057Y20072738D01*
X33269999Y20137801D01*
X33284100Y20208691D01*
X33284100Y20347308D01*
X33284100Y23006008D01*
X33274401Y23054766D01*
X33257057Y23141962D01*
X33204011Y23270027D01*
X33200949Y23274609D01*
X33200945Y23274616D01*
X33127001Y23385282D01*
X33126995Y23385289D01*
X33025887Y23486397D01*
X33025856Y23486426D01*
X31773077Y24739205D01*
X31739592Y24800528D01*
X31744576Y24870220D01*
X31786448Y24926153D01*
X31851912Y24950570D01*
X31860758Y24950886D01*
X34962803Y24950886D01*
X35029842Y24931201D01*
X35066612Y24894707D01*
X35174347Y24729804D01*
X35174350Y24729801D01*
X35342770Y24546848D01*
X35539005Y24394112D01*
X35757704Y24275758D01*
X35992900Y24195015D01*
X36238179Y24154086D01*
X36486849Y24154086D01*
X36732128Y24195015D01*
X36967324Y24275758D01*
X37186023Y24394112D01*
X37382258Y24546848D01*
X37550678Y24729801D01*
X37668691Y24910435D01*
X37721837Y24955791D01*
X37791069Y24965215D01*
X37854404Y24935713D01*
X37891736Y24876653D01*
X37896500Y24842613D01*
X37896500Y23735117D01*
X37876815Y23668078D01*
X37860181Y23647436D01*
X36857414Y22644670D01*
X36796091Y22611185D01*
X36737533Y22614602D01*
X36737102Y22612898D01*
X36732131Y22614157D01*
X36486849Y22655086D01*
X36238179Y22655086D01*
X35992897Y22614157D01*
X35757711Y22533417D01*
X35757702Y22533414D01*
X35539007Y22415062D01*
X35342771Y22262325D01*
X35174347Y22079369D01*
X35038340Y21871193D01*
X34938450Y21643468D01*
X34877406Y21402411D01*
X34877404Y21402399D01*
X34856871Y21154592D01*
X34856871Y21154581D01*
X34877404Y20906774D01*
X34877406Y20906762D01*
X34938450Y20665705D01*
X35038340Y20437980D01*
X35174347Y20229804D01*
X35174350Y20229801D01*
X35342770Y20046848D01*
X35499580Y19924798D01*
X35539008Y19894110D01*
X35539010Y19894109D01*
X35744817Y19782732D01*
X35794408Y19733512D01*
X35809800Y19673677D01*
X35809800Y17668114D01*
X35790115Y17601075D01*
X35750896Y17562575D01*
X35707344Y17535713D01*
X35583288Y17411657D01*
X35583283Y17411651D01*
X35581241Y17408339D01*
X35579247Y17406547D01*
X35578807Y17405989D01*
X35578711Y17406065D01*
X35529291Y17361617D01*
X35460328Y17350398D01*
X35396247Y17378245D01*
X35370168Y17408344D01*
X35368319Y17411341D01*
X35368316Y17411345D01*
X35244345Y17535316D01*
X35095124Y17627357D01*
X35095119Y17627359D01*
X34928697Y17682506D01*
X34928690Y17682507D01*
X34825986Y17693000D01*
X34688500Y17693000D01*
X34688500Y15243001D01*
X34825972Y15243001D01*
X34825986Y15243002D01*
X34928697Y15253495D01*
X35095119Y15308642D01*
X35095124Y15308644D01*
X35244345Y15400685D01*
X35368318Y15524658D01*
X35370165Y15527652D01*
X35371969Y15529276D01*
X35372798Y15530323D01*
X35372976Y15530182D01*
X35422110Y15574379D01*
X35491073Y15585604D01*
X35555156Y15557764D01*
X35581243Y15527659D01*
X35583288Y15524344D01*
X35707344Y15400288D01*
X35856666Y15308186D01*
X36023203Y15253001D01*
X36125991Y15242500D01*
X36901008Y15242501D01*
X36901016Y15242502D01*
X36901019Y15242502D01*
X36957302Y15248252D01*
X37003797Y15253001D01*
X37170334Y15308186D01*
X37319656Y15400288D01*
X37443712Y15524344D01*
X37535814Y15673666D01*
X37590999Y15840203D01*
X37601500Y15942991D01*
X37601499Y16993008D01*
X37590999Y17095797D01*
X37535814Y17262334D01*
X37443712Y17411656D01*
X37319656Y17535712D01*
X37319655Y17535713D01*
X37276104Y17562575D01*
X37229379Y17614523D01*
X37217200Y17668114D01*
X37217200Y19857759D01*
X37236885Y19924798D01*
X37265036Y19955612D01*
X37382258Y20046848D01*
X37550678Y20229801D01*
X37686687Y20437979D01*
X37786577Y20665705D01*
X37847622Y20906765D01*
X37847623Y20906774D01*
X37868157Y21154581D01*
X37868157Y21154592D01*
X37847623Y21402399D01*
X37847620Y21402416D01*
X37839647Y21433899D01*
X37815996Y21527292D01*
X37818620Y21597109D01*
X37848518Y21645410D01*
X39048779Y22845670D01*
X39048783Y22845672D01*
X39146800Y22943689D01*
X39223811Y23058945D01*
X39240817Y23100000D01*
X39250334Y23122978D01*
X39276857Y23187010D01*
X39282430Y23215027D01*
X39303901Y23322964D01*
X39303901Y23461581D01*
X39303901Y23466691D01*
X39303900Y23466717D01*
X39303900Y25959719D01*
X39313339Y26007172D01*
X39327657Y26041738D01*
X39354701Y26177691D01*
X39354701Y26316308D01*
X39354701Y26316311D01*
X39327658Y26452257D01*
X39327656Y26452265D01*
X39274614Y26580321D01*
X39274607Y26580334D01*
X39197600Y26695582D01*
X39149010Y26744172D01*
X39099583Y26793599D01*
X37855740Y28037442D01*
X37855720Y28037464D01*
X37753385Y28139799D01*
X37686532Y28184468D01*
X37638127Y28216811D01*
X37510062Y28269857D01*
X37510060Y28269858D01*
X37508673Y28270134D01*
X37508673Y28270135D01*
X37374110Y28296901D01*
X37374108Y28296901D01*
X37235492Y28296901D01*
X37229378Y28296901D01*
X37229358Y28296900D01*
X29328442Y28296900D01*
X29328422Y28296901D01*
X29322308Y28296901D01*
X29183691Y28296901D01*
X29183690Y28296901D01*
X29139230Y28288057D01*
X29049110Y28270130D01*
X29049106Y28270130D01*
X29047736Y28269857D01*
X28919674Y28216812D01*
X28804416Y28139800D01*
X28755408Y28090792D01*
X28706400Y28041783D01*
X28706397Y28041780D01*
X27686820Y27022203D01*
X27686817Y27022200D01*
X27653985Y26989368D01*
X27588799Y26924183D01*
X27588798Y26924182D01*
X27543855Y26856918D01*
X27543855Y26856917D01*
X27527822Y26832922D01*
X27511789Y26808928D01*
X27511785Y26808921D01*
X27458743Y26680865D01*
X27458741Y26680857D01*
X27431699Y26544911D01*
X27431699Y26400179D01*
X27431700Y26400158D01*
X27431700Y22956144D01*
X27431699Y22956118D01*
X27431699Y22812391D01*
X27450950Y22715616D01*
X27450950Y22715614D01*
X27458741Y22676446D01*
X27458744Y22676434D01*
X27511786Y22548377D01*
X27588801Y22433115D01*
X27691136Y22330780D01*
X27691158Y22330760D01*
X27951951Y22069967D01*
X27985436Y22008644D01*
X27980452Y21938952D01*
X27938580Y21883019D01*
X27873116Y21858602D01*
X27864270Y21858286D01*
X17715875Y21858286D01*
X17579929Y21831245D01*
X17579919Y21831242D01*
X17451862Y21778200D01*
X17336602Y21701186D01*
X17309162Y21673745D01*
X17238586Y21603169D01*
X17238583Y21603166D01*
X15376441Y19741025D01*
X15315118Y19707540D01*
X15300915Y19705303D01*
X15137670Y19689225D01*
X14949066Y19632012D01*
X14775267Y19539114D01*
X14775260Y19539110D01*
X14622916Y19414084D01*
X14497890Y19261740D01*
X14497886Y19261733D01*
X14404988Y19087934D01*
X14347775Y18899330D01*
X14328459Y18703200D01*
X14347775Y18507071D01*
X14347776Y18507068D01*
X14383483Y18389357D01*
X14404988Y18318467D01*
X14497886Y18144668D01*
X14497890Y18144661D01*
X14622916Y17992317D01*
X14775260Y17867291D01*
X14775267Y17867287D01*
X14949066Y17774389D01*
X14949069Y17774389D01*
X14949073Y17774386D01*
X15137668Y17717176D01*
X15333800Y17697859D01*
X15529932Y17717176D01*
X15718527Y17774386D01*
X15740372Y17786062D01*
X15847506Y17843327D01*
X15892338Y17867290D01*
X16044683Y17992317D01*
X16169710Y18144662D01*
X16243540Y18282788D01*
X16262611Y18318467D01*
X16262611Y18318468D01*
X16262614Y18318473D01*
X16319824Y18507068D01*
X16335902Y18670319D01*
X16362063Y18735104D01*
X16371615Y18745835D01*
X18040349Y20414567D01*
X18101672Y20448052D01*
X18128030Y20450886D01*
X28462803Y20450886D01*
X28529842Y20431201D01*
X28566612Y20394707D01*
X28674347Y20229804D01*
X28674350Y20229801D01*
X28842770Y20046848D01*
X28999580Y19924798D01*
X29039008Y19894110D01*
X29039010Y19894109D01*
X29133165Y19843155D01*
X29182756Y19793935D01*
X29197864Y19725719D01*
X29173694Y19660163D01*
X29117918Y19618082D01*
X29074148Y19610100D01*
X24858042Y19610100D01*
X24858022Y19610101D01*
X24851908Y19610101D01*
X24713291Y19610101D01*
X24713289Y19610101D01*
X24579987Y19583585D01*
X24579982Y19583583D01*
X24578680Y19583325D01*
X24577337Y19583057D01*
X24577333Y19583056D01*
X24449276Y19530014D01*
X24334016Y19453000D01*
X24295101Y19414084D01*
X24236000Y19354983D01*
X21010202Y16129186D01*
X21010201Y16129185D01*
X21010200Y16129183D01*
X20983273Y16088882D01*
X20981621Y16086410D01*
X20981620Y16086409D01*
X20933192Y16013933D01*
X20933185Y16013921D01*
X20880143Y15885865D01*
X20880141Y15885857D01*
X20853099Y15749911D01*
X20853099Y15605179D01*
X20853100Y15605158D01*
X20853100Y11860100D01*
X20833415Y11793061D01*
X20780611Y11747306D01*
X20729100Y11736100D01*
X15849229Y11736100D01*
X15782190Y11755785D01*
X15770384Y11765298D01*
X15769992Y11764819D01*
X15612939Y11893710D01*
X15612932Y11893714D01*
X15439133Y11986612D01*
X15439127Y11986614D01*
X15250532Y12043824D01*
X15250529Y12043825D01*
X15054400Y12063141D01*
X14858270Y12043825D01*
X14669666Y11986612D01*
X14495867Y11893714D01*
X14495860Y11893710D01*
X14343516Y11768684D01*
X14218490Y11616340D01*
X14218485Y11616333D01*
X14162658Y11511886D01*
X14113696Y11462041D01*
X14045558Y11446581D01*
X13979878Y11470413D01*
X13937510Y11525971D01*
X13929300Y11570339D01*
X13929300Y23374677D01*
X13948985Y23441716D01*
X13965619Y23462358D01*
X18867864Y28364603D01*
X18867870Y28364609D01*
X18878555Y28380600D01*
X18942102Y28475704D01*
X18957078Y28511860D01*
X18993234Y28599147D01*
X19019300Y28730193D01*
X19019300Y28863807D01*
X19019300Y31587913D01*
X19038985Y31654952D01*
X19091789Y31700707D01*
X19160947Y31710651D01*
X19190751Y31702475D01*
X19313749Y31651527D01*
X19443868Y31625645D01*
X19497379Y31615001D01*
X19497383Y31615000D01*
X19497384Y31615000D01*
X19684617Y31615000D01*
X19684618Y31615001D01*
X19868251Y31651527D01*
X20041231Y31723178D01*
X20052599Y31730774D01*
X20126809Y31780359D01*
X20193486Y31801237D01*
X20260867Y31782753D01*
X20307557Y31730774D01*
X20319700Y31677257D01*
X20319700Y30470829D01*
X20300015Y30403790D01*
X20290502Y30391985D01*
X20290981Y30391592D01*
X20162090Y30234540D01*
X20162086Y30234533D01*
X20069188Y30060734D01*
X20011975Y29872130D01*
X19992659Y29676000D01*
X20011975Y29479871D01*
X20011976Y29479868D01*
X20040638Y29385381D01*
X20069188Y29291267D01*
X20162086Y29117468D01*
X20162090Y29117461D01*
X20287116Y28965117D01*
X20439460Y28840091D01*
X20439467Y28840087D01*
X20613266Y28747189D01*
X20613269Y28747189D01*
X20613273Y28747186D01*
X20801868Y28689976D01*
X20998000Y28670659D01*
X21194132Y28689976D01*
X21382727Y28747186D01*
X21416667Y28765327D01*
X21555481Y28839525D01*
X21556538Y28840090D01*
X21708883Y28965117D01*
X21833910Y29117462D01*
X21926814Y29291273D01*
X21984024Y29479868D01*
X22003341Y29676000D01*
X21984024Y29872132D01*
X21926814Y30060727D01*
X21926811Y30060731D01*
X21926811Y30060734D01*
X21833913Y30234533D01*
X21833909Y30234540D01*
X21705019Y30391592D01*
X21707083Y30393287D01*
X21679134Y30444471D01*
X21676300Y30470829D01*
X21676300Y32073651D01*
X21685739Y32121104D01*
X21685816Y32121289D01*
X42149500Y32121289D01*
X42149500Y31878712D01*
X42180925Y31640005D01*
X42181162Y31638211D01*
X42191267Y31600500D01*
X42243947Y31403896D01*
X42325198Y31207739D01*
X42336776Y31179788D01*
X42458064Y30969711D01*
X42458066Y30969708D01*
X42458067Y30969707D01*
X42605733Y30777264D01*
X42605739Y30777257D01*
X42777256Y30605740D01*
X42777263Y30605734D01*
X42851744Y30548583D01*
X42969711Y30458064D01*
X43179788Y30336776D01*
X43403900Y30243946D01*
X43638211Y30181162D01*
X43818586Y30157416D01*
X43878711Y30149500D01*
X43878712Y30149500D01*
X44121289Y30149500D01*
X44169388Y30155833D01*
X44361789Y30181162D01*
X44596100Y30243946D01*
X44820212Y30336776D01*
X45030289Y30458064D01*
X45222738Y30605735D01*
X45394265Y30777262D01*
X45541936Y30969711D01*
X45663224Y31179788D01*
X45756054Y31403900D01*
X45818838Y31638211D01*
X45850500Y31878712D01*
X45850500Y32121288D01*
X45818838Y32361789D01*
X45756054Y32596100D01*
X45663224Y32820212D01*
X45541936Y33030289D01*
X45476551Y33115500D01*
X45394266Y33222737D01*
X45394260Y33222744D01*
X45222743Y33394261D01*
X45222736Y33394267D01*
X45030293Y33541933D01*
X45030292Y33541934D01*
X45030289Y33541936D01*
X44820212Y33663224D01*
X44800454Y33671408D01*
X44596104Y33756053D01*
X44417911Y33803800D01*
X44361789Y33818838D01*
X44361788Y33818839D01*
X44361785Y33818839D01*
X44121289Y33850500D01*
X44121288Y33850500D01*
X43878712Y33850500D01*
X43878711Y33850500D01*
X43638214Y33818839D01*
X43403895Y33756053D01*
X43179794Y33663227D01*
X43179785Y33663223D01*
X42969706Y33541933D01*
X42777263Y33394267D01*
X42777256Y33394261D01*
X42605739Y33222744D01*
X42605733Y33222737D01*
X42458067Y33030294D01*
X42336777Y32820215D01*
X42336773Y32820206D01*
X42243947Y32596105D01*
X42181161Y32361786D01*
X42149500Y32121289D01*
X21685816Y32121289D01*
X21697850Y32150343D01*
X21754973Y32288249D01*
X21791500Y32471884D01*
X21791500Y33159116D01*
X21754973Y33342751D01*
X21683322Y33515731D01*
X21683321Y33515732D01*
X21683318Y33515738D01*
X21579302Y33671408D01*
X21579299Y33671412D01*
X21446911Y33803800D01*
X21446907Y33803803D01*
X21291237Y33907819D01*
X21291228Y33907824D01*
X21118251Y33979473D01*
X21118243Y33979475D01*
X20934620Y34016000D01*
X20934616Y34016000D01*
X20747384Y34016000D01*
X20747379Y34016000D01*
X20563756Y33979475D01*
X20563744Y33979472D01*
X20440752Y33928527D01*
X20371283Y33921058D01*
X20308804Y33952334D01*
X20273152Y34012423D01*
X20269300Y34043088D01*
X20269300Y34451808D01*
X20269299Y34451812D01*
X20243234Y34582853D01*
X20197739Y34692686D01*
X20192102Y34706296D01*
X20117870Y34817391D01*
X20023391Y34911870D01*
X19626601Y35308660D01*
X19144394Y35790868D01*
X19144390Y35790871D01*
X19053537Y35851577D01*
X19043273Y35858436D01*
X19033292Y35865105D01*
X18997141Y35880079D01*
X18997140Y35880079D01*
X18909853Y35916234D01*
X18909845Y35916236D01*
X18909844Y35916236D01*
X18778811Y35942300D01*
X18778807Y35942300D01*
X-9161194Y35942300D01*
X-9294807Y35942300D01*
X-9294812Y35942300D01*
X-9425845Y35916236D01*
X-9425857Y35916233D01*
X-9487576Y35890669D01*
X-9487575Y35890668D01*
X-9549295Y35865103D01*
X-9549299Y35865101D01*
X-9590372Y35837656D01*
X-9660391Y35790871D01*
X-9660395Y35790868D01*
X-10807234Y34644027D01*
X-11184391Y34266870D01*
X-11225606Y34225655D01*
X-11278872Y34172390D01*
X-11353787Y34060272D01*
X-11355434Y34055666D01*
X-11404233Y33937856D01*
X-11404236Y33937846D01*
X-11420092Y33858129D01*
X-11430300Y33806812D01*
X-11430300Y28845618D01*
X-11449985Y28778579D01*
X-11502789Y28732824D01*
X-11571947Y28722880D01*
X-11635503Y28751905D01*
X-11663658Y28787165D01*
X-11744887Y28939133D01*
X-11744891Y28939140D01*
X-11869917Y29091484D01*
X-12022261Y29216510D01*
X-12022268Y29216514D01*
X-12196067Y29309412D01*
X-12196073Y29309414D01*
X-12362769Y29359981D01*
X-12384671Y29366625D01*
X-12580800Y29385941D01*
X-12776930Y29366625D01*
X-12965534Y29309412D01*
X-13139333Y29216514D01*
X-13139340Y29216510D01*
X-13296392Y29087619D01*
X-13298087Y29089684D01*
X-13349271Y29061734D01*
X-13375629Y29058900D01*
X-14066756Y29058900D01*
X-14133795Y29078585D01*
X-14154437Y29095219D01*
X-14583981Y29524763D01*
X-14617466Y29586086D01*
X-14620300Y29612444D01*
X-14620300Y31814613D01*
X-14600615Y31881652D01*
X-14547811Y31927407D01*
X-14535313Y31932316D01*
X-14529666Y31934186D01*
X-14380344Y32026288D01*
X-14256288Y32150344D01*
X-14164186Y32299666D01*
X-14109001Y32466203D01*
X-14098500Y32568991D01*
X-14098501Y33344008D01*
X-14109001Y33446797D01*
X-14164186Y33613334D01*
X-14256288Y33762656D01*
X-14380344Y33886712D01*
X-14383658Y33888757D01*
X-14385454Y33890752D01*
X-14386011Y33891193D01*
X-14385936Y33891289D01*
X-14430382Y33940703D01*
X-14441603Y34009666D01*
X-14413760Y34073748D01*
X-14383652Y34099835D01*
X-14380658Y34101682D01*
X-14256685Y34225655D01*
X-14164644Y34374876D01*
X-14164642Y34374881D01*
X-14109495Y34541303D01*
X-14109494Y34541310D01*
X-14099001Y34644014D01*
X-14099000Y34644027D01*
X-14099000Y34781500D01*
X-16548999Y34781500D01*
X-16548999Y34644014D01*
X-16538506Y34541303D01*
X-16483359Y34374881D01*
X-16483357Y34374876D01*
X-16391316Y34225655D01*
X-16267345Y34101684D01*
X-16267341Y34101681D01*
X-16264344Y34099832D01*
X-16262721Y34098028D01*
X-16261677Y34097202D01*
X-16261819Y34097024D01*
X-16217619Y34047884D01*
X-16206398Y33978921D01*
X-16234241Y33914839D01*
X-16264339Y33888759D01*
X-16267651Y33886717D01*
X-16267657Y33886712D01*
X-16391713Y33762656D01*
X-16418575Y33719104D01*
X-16470523Y33672379D01*
X-16524114Y33660200D01*
X-19035351Y33660200D01*
X-19102390Y33679885D01*
X-19138453Y33715310D01*
X-19217695Y33833904D01*
X-19221563Y33838618D01*
X-19220132Y33839793D01*
X-19249466Y33893515D01*
X-19252300Y33919873D01*
X-19252300Y34631311D01*
X-19252301Y34631313D01*
X-19267216Y34706297D01*
X-19279343Y34767262D01*
X-19279345Y34767267D01*
X-19332387Y34895324D01*
X-19409402Y35010586D01*
X-19510513Y35111697D01*
X-19510544Y35111726D01*
X-19817805Y35418987D01*
X-16549000Y35418987D01*
X-16549000Y35281500D01*
X-15574000Y35281500D01*
X-15074000Y35281500D01*
X-14099001Y35281500D01*
X-14099001Y35418972D01*
X-14099002Y35418987D01*
X-14109495Y35521698D01*
X-14164642Y35688120D01*
X-14164644Y35688125D01*
X-14256685Y35837346D01*
X-14380655Y35961316D01*
X-14529876Y36053357D01*
X-14529881Y36053359D01*
X-14696303Y36108506D01*
X-14696310Y36108507D01*
X-14799014Y36119000D01*
X-15074000Y36119000D01*
X-15074000Y35281500D01*
X-15574000Y35281500D01*
X-15574000Y36119000D01*
X-15848971Y36119000D01*
X-15848988Y36118999D01*
X-15951698Y36108506D01*
X-16118120Y36053359D01*
X-16118125Y36053357D01*
X-16267346Y35961316D01*
X-16391316Y35837346D01*
X-16483357Y35688125D01*
X-16483359Y35688120D01*
X-16538506Y35521698D01*
X-16538507Y35521691D01*
X-16549000Y35418987D01*
X-19817805Y35418987D01*
X-19874560Y35475742D01*
X-19874580Y35475764D01*
X-19976915Y35578099D01*
X-20092177Y35655114D01*
X-20220236Y35708157D01*
X-20220244Y35708159D01*
X-20356190Y35735201D01*
X-20356192Y35735201D01*
X-20494808Y35735201D01*
X-20500922Y35735201D01*
X-20500942Y35735200D01*
X-26315886Y35735200D01*
X-26382925Y35754885D01*
X-26421425Y35794104D01*
X-26448288Y35837656D01*
X-26572343Y35961711D01*
X-26572344Y35961712D01*
X-26721666Y36053814D01*
X-26888203Y36108999D01*
X-26888205Y36109000D01*
X-26990990Y36119500D01*
X-28041002Y36119500D01*
X-28041020Y36119499D01*
X-28143797Y36109000D01*
X-28143800Y36108999D01*
X-28310332Y36053815D01*
X-28310337Y36053813D01*
X-28459658Y35961711D01*
X-28583713Y35837656D01*
X-28613722Y35789003D01*
X-28665670Y35742279D01*
X-28695068Y35732484D01*
X-28817357Y35708159D01*
X-28817367Y35708156D01*
X-28945424Y35655114D01*
X-29060684Y35578100D01*
X-29109692Y35529092D01*
X-29158700Y35480083D01*
X-29158703Y35480080D01*
X-29808580Y34830203D01*
X-29808583Y34830200D01*
X-29857283Y34781500D01*
X-29906600Y34732184D01*
X-29974002Y34631308D01*
X-29974002Y34631307D01*
X-29983613Y34616925D01*
X-29983614Y34616923D01*
X-30036657Y34488865D01*
X-30036659Y34488857D01*
X-30063701Y34352911D01*
X-30063701Y34208179D01*
X-30063700Y34208158D01*
X-30063700Y27049201D01*
X-30083385Y26982162D01*
X-30128681Y26940147D01*
X-30183504Y26910478D01*
X-30183506Y26910477D01*
X-30379743Y26757739D01*
X-30548167Y26574783D01*
X-30655902Y26409879D01*
X-30709048Y26364522D01*
X-30759711Y26353700D01*
X-34460289Y26353700D01*
X-34527328Y26373385D01*
X-34564098Y26409879D01*
X-34671834Y26574783D01*
X-34730940Y26638989D01*
X-34840256Y26757738D01*
X-35036491Y26910474D01*
X-35036493Y26910475D01*
X-35036494Y26910476D01*
X-35255189Y27028828D01*
X-35255198Y27028831D01*
X-35490384Y27109571D01*
X-35735665Y27150500D01*
X-35984335Y27150500D01*
X-36229617Y27109571D01*
X-36464803Y27028831D01*
X-36464812Y27028828D01*
X-36683507Y26910476D01*
X-36879743Y26757739D01*
X-37048167Y26574783D01*
X-37184174Y26366607D01*
X-37284064Y26138882D01*
X-37345108Y25897825D01*
X-37345110Y25897813D01*
X-37365643Y25650006D01*
X-37365643Y25649995D01*
X-37345110Y25402188D01*
X-37345108Y25402176D01*
X-37284064Y25161119D01*
X-37184174Y24933394D01*
X-37048167Y24725218D01*
X-37048164Y24725215D01*
X-36879744Y24542262D01*
X-36683509Y24389526D01*
X-36683507Y24389525D01*
X-36473281Y24275756D01*
X-36464810Y24271172D01*
X-36229614Y24190429D01*
X-35984335Y24149500D01*
X-35735665Y24149500D01*
X-35490386Y24190429D01*
X-35255190Y24271172D01*
X-35036491Y24389526D01*
X-34840256Y24542262D01*
X-34671836Y24725215D01*
X-34564098Y24890122D01*
X-34510952Y24935478D01*
X-34460289Y24946300D01*
X-30759711Y24946300D01*
X-30692672Y24926615D01*
X-30655902Y24890121D01*
X-30548167Y24725218D01*
X-30548164Y24725215D01*
X-30379744Y24542262D01*
X-30183509Y24389526D01*
X-30183507Y24389525D01*
X-29973281Y24275756D01*
X-29964810Y24271172D01*
X-29729614Y24190429D01*
X-29484335Y24149500D01*
X-29235665Y24149500D01*
X-28990386Y24190429D01*
X-28755190Y24271172D01*
X-28536491Y24389526D01*
X-28340256Y24542262D01*
X-28171836Y24725215D01*
X-28035827Y24933393D01*
X-27935937Y25161119D01*
X-27874892Y25402179D01*
X-27854357Y25650000D01*
X-27874892Y25897821D01*
X-27902367Y26006318D01*
X-27935937Y26138882D01*
X-28035827Y26366607D01*
X-28171834Y26574783D01*
X-28230940Y26638989D01*
X-28340256Y26757738D01*
X-28536491Y26910474D01*
X-28536492Y26910475D01*
X-28536495Y26910477D01*
X-28536497Y26910478D01*
X-28591319Y26940147D01*
X-28640909Y26989368D01*
X-28656300Y27049201D01*
X-28656300Y31926290D01*
X-28636615Y31993329D01*
X-28583811Y32039084D01*
X-28514653Y32049028D01*
X-28466749Y32028437D01*
X-28465491Y32030475D01*
X-28310125Y31934644D01*
X-28310120Y31934642D01*
X-28143698Y31879495D01*
X-28143691Y31879494D01*
X-28040981Y31869001D01*
X-27766001Y31869001D01*
X-27266000Y31869001D01*
X-26991028Y31869001D01*
X-26991014Y31869002D01*
X-26888303Y31879495D01*
X-26721881Y31934642D01*
X-26721876Y31934644D01*
X-26572655Y32026685D01*
X-26448685Y32150655D01*
X-26356644Y32299876D01*
X-26356642Y32299881D01*
X-26305347Y32454678D01*
X-24655999Y32454678D01*
X-24645856Y32355393D01*
X-24592548Y32194519D01*
X-24592543Y32194508D01*
X-24503576Y32050272D01*
X-24503573Y32050268D01*
X-24383733Y31930428D01*
X-24383729Y31930425D01*
X-24239493Y31841458D01*
X-24239482Y31841453D01*
X-24078607Y31788145D01*
X-23979317Y31778001D01*
X-23956000Y31778002D01*
X-23956000Y32728000D01*
X-24655999Y32728000D01*
X-24655999Y32454678D01*
X-26305347Y32454678D01*
X-26301495Y32466303D01*
X-26301494Y32466310D01*
X-26291001Y32569014D01*
X-26291000Y32569027D01*
X-26291000Y32706500D01*
X-27266000Y32706500D01*
X-27266000Y31869001D01*
X-27766001Y31869001D01*
X-27766000Y31869002D01*
X-27766000Y32832500D01*
X-27746315Y32899539D01*
X-27693511Y32945294D01*
X-27642000Y32956500D01*
X-27516000Y32956500D01*
X-27516000Y33082500D01*
X-27496315Y33149539D01*
X-27443511Y33195294D01*
X-27392000Y33206500D01*
X-26291001Y33206500D01*
X-26291001Y33343972D01*
X-26291002Y33343987D01*
X-26301495Y33446698D01*
X-26356642Y33613120D01*
X-26356644Y33613125D01*
X-26448685Y33762346D01*
X-26572656Y33886317D01*
X-26572659Y33886319D01*
X-26575661Y33888171D01*
X-26577287Y33889979D01*
X-26578323Y33890798D01*
X-26578183Y33890976D01*
X-26622383Y33940120D01*
X-26633603Y34009083D01*
X-26605757Y34073164D01*
X-26575656Y34099246D01*
X-26572344Y34101288D01*
X-26448288Y34225344D01*
X-26421425Y34268896D01*
X-26369477Y34315621D01*
X-26315886Y34327800D01*
X-24330984Y34327800D01*
X-24263945Y34308115D01*
X-24218190Y34255311D01*
X-24208246Y34186153D01*
X-24237271Y34122597D01*
X-24265887Y34098262D01*
X-24383729Y34025576D01*
X-24383733Y34025573D01*
X-24503573Y33905733D01*
X-24503576Y33905729D01*
X-24592543Y33761493D01*
X-24592548Y33761482D01*
X-24645856Y33600607D01*
X-24656000Y33501323D01*
X-24656000Y33228000D01*
X-23872988Y33228000D01*
X-23890205Y33218060D01*
X-23946060Y33162205D01*
X-23985556Y33093796D01*
X-24006000Y33017496D01*
X-24006000Y32938504D01*
X-23985556Y32862204D01*
X-23946060Y32793795D01*
X-23890205Y32737940D01*
X-23821796Y32698444D01*
X-23745496Y32678000D01*
X-23666504Y32678000D01*
X-23590204Y32698444D01*
X-23521795Y32737940D01*
X-23465940Y32793795D01*
X-23456000Y32811012D01*
X-23456000Y31778001D01*
X-23432692Y31778001D01*
X-23432678Y31778002D01*
X-23333393Y31788145D01*
X-23172519Y31841453D01*
X-23165968Y31844507D01*
X-23164895Y31842205D01*
X-23109017Y31857500D01*
X-23042351Y31836585D01*
X-22997576Y31782947D01*
X-22987300Y31733521D01*
X-22987300Y22443015D01*
X-22989683Y22418824D01*
X-23012700Y22303112D01*
X-23012700Y21662245D01*
X-23032385Y21595206D01*
X-23049019Y21574564D01*
X-24145959Y20477625D01*
X-24207282Y20444140D01*
X-24221485Y20441903D01*
X-24384730Y20425825D01*
X-24573334Y20368612D01*
X-24747133Y20275714D01*
X-24747140Y20275710D01*
X-24899484Y20150684D01*
X-25024510Y19998340D01*
X-25024514Y19998333D01*
X-25117412Y19824534D01*
X-25174625Y19635930D01*
X-25193941Y19439800D01*
X-25174625Y19243671D01*
X-25174624Y19243668D01*
X-25147240Y19153394D01*
X-25117412Y19055067D01*
X-25024514Y18881268D01*
X-25024510Y18881261D01*
X-24899484Y18728917D01*
X-24747140Y18603891D01*
X-24747133Y18603887D01*
X-24573334Y18510989D01*
X-24573331Y18510989D01*
X-24573327Y18510986D01*
X-24384732Y18453776D01*
X-24188600Y18434459D01*
X-23992468Y18453776D01*
X-23803873Y18510986D01*
X-23630062Y18603890D01*
X-23477717Y18728917D01*
X-23352690Y18881262D01*
X-23259786Y19055073D01*
X-23229961Y19153396D01*
X-23191663Y19211833D01*
X-23127851Y19240289D01*
X-23058784Y19229729D01*
X-23006390Y19183505D01*
X-22987300Y19117399D01*
X-22987300Y9772509D01*
X-23004567Y9709389D01*
X-23060746Y9614395D01*
X-23060746Y9614394D01*
X-23106598Y9456574D01*
X-23106599Y9456568D01*
X-23109500Y9419702D01*
X-23109500Y7638299D01*
X-23106599Y7601433D01*
X-23106598Y7601427D01*
X-23060746Y7443607D01*
X-23060745Y7443604D01*
X-23060744Y7443602D01*
X-23050703Y7426624D01*
X-22977083Y7302138D01*
X-22977077Y7302130D01*
X-22872928Y7197981D01*
X-22839443Y7136658D01*
X-22844427Y7066966D01*
X-22886299Y7011033D01*
X-22951763Y6986616D01*
X-22960609Y6986300D01*
X-23772812Y6986300D01*
X-23903845Y6960236D01*
X-23903857Y6960233D01*
X-23965576Y6934669D01*
X-23965575Y6934668D01*
X-24027294Y6909104D01*
X-24138391Y6834871D01*
X-24138395Y6834868D01*
X-24540384Y6432877D01*
X-24646391Y6326870D01*
X-24693632Y6279630D01*
X-24740872Y6232390D01*
X-24815787Y6120272D01*
X-24817434Y6115666D01*
X-24866233Y5997856D01*
X-24866236Y5997846D01*
X-24878985Y5933750D01*
X-24892300Y5866812D01*
X-24892300Y-217676D01*
X-24911985Y-284715D01*
X-24928619Y-305357D01*
X-28470019Y-3846757D01*
X-28531342Y-3880242D01*
X-28601034Y-3875258D01*
X-28656967Y-3833386D01*
X-28681384Y-3767922D01*
X-28681700Y-3759076D01*
X-28681700Y19737055D01*
X-28662015Y19804094D01*
X-28616717Y19846110D01*
X-28600216Y19855040D01*
X-28536491Y19889526D01*
X-28340256Y20042262D01*
X-28171836Y20225215D01*
X-28035827Y20433393D01*
X-27935937Y20661119D01*
X-27874892Y20902179D01*
X-27874511Y20906774D01*
X-27854357Y21149995D01*
X-27854357Y21150006D01*
X-27874891Y21397813D01*
X-27874893Y21397825D01*
X-27935937Y21638882D01*
X-28035827Y21866607D01*
X-28171834Y22074783D01*
X-28193443Y22098256D01*
X-28340256Y22257738D01*
X-28536491Y22410474D01*
X-28536493Y22410475D01*
X-28536494Y22410476D01*
X-28755189Y22528828D01*
X-28755198Y22528831D01*
X-28990384Y22609571D01*
X-29235665Y22650500D01*
X-29484335Y22650500D01*
X-29729617Y22609571D01*
X-29964803Y22528831D01*
X-29964812Y22528828D01*
X-30183507Y22410476D01*
X-30379743Y22257739D01*
X-30548167Y22074783D01*
X-30672497Y21884479D01*
X-30725644Y21839122D01*
X-30776306Y21828300D01*
X-34443694Y21828300D01*
X-34510733Y21847985D01*
X-34547503Y21884479D01*
X-34671834Y22074783D01*
X-34693443Y22098256D01*
X-34840256Y22257738D01*
X-35036491Y22410474D01*
X-35036493Y22410475D01*
X-35036494Y22410476D01*
X-35255189Y22528828D01*
X-35255198Y22528831D01*
X-35490384Y22609571D01*
X-35735665Y22650500D01*
X-35984335Y22650500D01*
X-36229617Y22609571D01*
X-36464803Y22528831D01*
X-36464812Y22528828D01*
X-36683507Y22410476D01*
X-36879743Y22257739D01*
X-37048167Y22074783D01*
X-37184174Y21866607D01*
X-37284064Y21638882D01*
X-37345108Y21397825D01*
X-37345110Y21397813D01*
X-37365643Y21150006D01*
X-37365643Y21149995D01*
X-37345110Y20902188D01*
X-37345108Y20902176D01*
X-37284064Y20661119D01*
X-37184174Y20433394D01*
X-37048167Y20225218D01*
X-37048164Y20225215D01*
X-36879744Y20042262D01*
X-36775358Y19961015D01*
X-36683512Y19889528D01*
X-36683503Y19889522D01*
X-36619784Y19855040D01*
X-36570193Y19805822D01*
X-36554800Y19745985D01*
X-36554800Y18445782D01*
X-36574485Y18378743D01*
X-36613702Y18340244D01*
X-36682657Y18297712D01*
X-36806712Y18173657D01*
X-36806717Y18173651D01*
X-36808759Y18170339D01*
X-36810753Y18168547D01*
X-36811193Y18167989D01*
X-36811289Y18168065D01*
X-36860709Y18123617D01*
X-36929672Y18112398D01*
X-36993753Y18140245D01*
X-37019832Y18170344D01*
X-37021681Y18173341D01*
X-37021684Y18173345D01*
X-37145655Y18297316D01*
X-37294876Y18389357D01*
X-37294881Y18389359D01*
X-37461303Y18444506D01*
X-37461310Y18444507D01*
X-37564014Y18455000D01*
X-37701500Y18455000D01*
X-37701500Y16005001D01*
X-37564028Y16005001D01*
X-37564014Y16005002D01*
X-37461303Y16015495D01*
X-37294881Y16070642D01*
X-37294876Y16070644D01*
X-37145655Y16162685D01*
X-37021682Y16286658D01*
X-37019835Y16289652D01*
X-37018031Y16291276D01*
X-37017202Y16292323D01*
X-37017024Y16292182D01*
X-36967890Y16336379D01*
X-36898927Y16347604D01*
X-36834844Y16319764D01*
X-36808757Y16289659D01*
X-36806712Y16286344D01*
X-36682656Y16162288D01*
X-36533334Y16070186D01*
X-36366797Y16015001D01*
X-36264009Y16004500D01*
X-35488992Y16004501D01*
X-35488984Y16004502D01*
X-35488981Y16004502D01*
X-35396776Y16013921D01*
X-35386203Y16015001D01*
X-35219666Y16070186D01*
X-35070344Y16162288D01*
X-34946288Y16286344D01*
X-34854186Y16435666D01*
X-34799001Y16602203D01*
X-34788500Y16704991D01*
X-34788501Y17755008D01*
X-34793377Y17802737D01*
X-34799001Y17857797D01*
X-34799002Y17857800D01*
X-34808969Y17887879D01*
X-34854186Y18024334D01*
X-34946288Y18173656D01*
X-35070344Y18297712D01*
X-35103993Y18318467D01*
X-35139298Y18340244D01*
X-35186022Y18392192D01*
X-35198200Y18445782D01*
X-35198200Y19728126D01*
X-35178515Y19795165D01*
X-35133217Y19837181D01*
X-35116717Y19846110D01*
X-35036491Y19889526D01*
X-34840256Y20042262D01*
X-34671836Y20225215D01*
X-34578149Y20368614D01*
X-34547503Y20415521D01*
X-34494356Y20460878D01*
X-34443694Y20471700D01*
X-30776306Y20471700D01*
X-30709267Y20452015D01*
X-30672497Y20415521D01*
X-30548167Y20225218D01*
X-30548164Y20225215D01*
X-30379744Y20042262D01*
X-30275358Y19961015D01*
X-30189398Y19894109D01*
X-30183509Y19889526D01*
X-30119784Y19855040D01*
X-30103283Y19846110D01*
X-30053692Y19796891D01*
X-30038300Y19737055D01*
X-30038300Y-3534877D01*
X-30057985Y-3601916D01*
X-30074619Y-3622558D01*
X-38032191Y-11580130D01*
X-38072297Y-11620236D01*
X-38126672Y-11674610D01*
X-38201587Y-11786728D01*
X-38203234Y-11791334D01*
X-38252033Y-11909144D01*
X-38252036Y-11909154D01*
X-38272672Y-12012901D01*
X-38278100Y-12040188D01*
X-49499501Y-12040188D01*
X-49499501Y16705014D01*
X-39038999Y16705014D01*
X-39028506Y16602303D01*
X-38973359Y16435881D01*
X-38973357Y16435876D01*
X-38881316Y16286655D01*
X-38757346Y16162685D01*
X-38608125Y16070644D01*
X-38608120Y16070642D01*
X-38441698Y16015495D01*
X-38441691Y16015494D01*
X-38338981Y16005001D01*
X-38201501Y16005001D01*
X-38201500Y16005002D01*
X-38201500Y16980000D01*
X-39038999Y16980000D01*
X-39038999Y16705014D01*
X-49499501Y16705014D01*
X-49499501Y17754987D01*
X-39039000Y17754987D01*
X-39039000Y17480000D01*
X-38201500Y17480000D01*
X-38201500Y18455000D01*
X-38338973Y18455000D01*
X-38338988Y18454999D01*
X-38441698Y18444506D01*
X-38608120Y18389359D01*
X-38608125Y18389357D01*
X-38757346Y18297316D01*
X-38881316Y18173346D01*
X-38973357Y18024125D01*
X-38973359Y18024120D01*
X-39028506Y17857698D01*
X-39028507Y17857691D01*
X-39039000Y17754987D01*
X-49499501Y17754987D01*
X-49499501Y32121289D01*
X-45850500Y32121289D01*
X-45850500Y31878712D01*
X-45819075Y31640005D01*
X-45818838Y31638211D01*
X-45808733Y31600500D01*
X-45756053Y31403896D01*
X-45674802Y31207739D01*
X-45663224Y31179788D01*
X-45541936Y30969711D01*
X-45541934Y30969708D01*
X-45541933Y30969707D01*
X-45394267Y30777264D01*
X-45394261Y30777257D01*
X-45222744Y30605740D01*
X-45222737Y30605734D01*
X-45148256Y30548583D01*
X-45030289Y30458064D01*
X-44820212Y30336776D01*
X-44596100Y30243946D01*
X-44361789Y30181162D01*
X-44181414Y30157416D01*
X-44121289Y30149500D01*
X-44121288Y30149500D01*
X-43878711Y30149500D01*
X-43830612Y30155833D01*
X-43638211Y30181162D01*
X-43403900Y30243946D01*
X-43179788Y30336776D01*
X-42969711Y30458064D01*
X-42777262Y30605735D01*
X-42605735Y30777262D01*
X-42458064Y30969711D01*
X-42336776Y31179788D01*
X-42243946Y31403900D01*
X-42181162Y31638211D01*
X-42149500Y31878712D01*
X-42149500Y32121288D01*
X-42181162Y32361789D01*
X-42243946Y32596100D01*
X-42336776Y32820212D01*
X-42458064Y33030289D01*
X-42523449Y33115500D01*
X-42605734Y33222737D01*
X-42605740Y33222744D01*
X-42777257Y33394261D01*
X-42777264Y33394267D01*
X-42969707Y33541933D01*
X-42969708Y33541934D01*
X-42969711Y33541936D01*
X-43179788Y33663224D01*
X-43199546Y33671408D01*
X-43403896Y33756053D01*
X-43582089Y33803800D01*
X-43638211Y33818838D01*
X-43638212Y33818839D01*
X-43638215Y33818839D01*
X-43878711Y33850500D01*
X-43878712Y33850500D01*
X-44121288Y33850500D01*
X-44121289Y33850500D01*
X-44361786Y33818839D01*
X-44596105Y33756053D01*
X-44820206Y33663227D01*
X-44820215Y33663223D01*
X-45030294Y33541933D01*
X-45222737Y33394267D01*
X-45222744Y33394261D01*
X-45394261Y33222744D01*
X-45394267Y33222737D01*
X-45541933Y33030294D01*
X-45663223Y32820215D01*
X-45663227Y32820206D01*
X-45756053Y32596105D01*
X-45818839Y32361786D01*
X-45850500Y32121289D01*
X-49499501Y32121289D01*
X-49499501Y34996250D01*
X-49499275Y35003737D01*
X-49481730Y35293795D01*
X-49479925Y35308660D01*
X-49459706Y35418987D01*
X-49428221Y35590802D01*
X-49424637Y35605336D01*
X-49339305Y35879179D01*
X-49334003Y35893159D01*
X-49216270Y36154751D01*
X-49209325Y36167984D01*
X-49060921Y36413474D01*
X-49052434Y36425770D01*
X-48875521Y36651583D01*
X-48865606Y36662774D01*
X-48662775Y36865605D01*
X-48651584Y36875520D01*
X-48425771Y37052434D01*
X-48413475Y37060921D01*
X-48167990Y37209322D01*
X-48154745Y37216273D01*
X-47893159Y37334003D01*
X-47879178Y37339305D01*
X-47605332Y37424639D01*
X-47590803Y37428221D01*
X-47308657Y37479926D01*
X-47293800Y37481730D01*
X-47003753Y37499274D01*
X-46996266Y37499500D01*
X-46934108Y37499500D01*
X46934107Y37499500D01*
X46996248Y37499500D01*
X47003735Y37499274D01*
G37*
%TD.AperFunction*%
%TD*%
%TA.AperFunction,NonConductor*%
G36*
X1942503Y-13631088D02*
G01*
X1979960Y-13688804D01*
X1990880Y-13724801D01*
X2009787Y-13787131D01*
X2102686Y-13960932D01*
X2102690Y-13960939D01*
X2227716Y-14113283D01*
X2380060Y-14238309D01*
X2380067Y-14238313D01*
X2553866Y-14331211D01*
X2553869Y-14331211D01*
X2553873Y-14331214D01*
X2742468Y-14388424D01*
X2938600Y-14407741D01*
X3107456Y-14391110D01*
X3176101Y-14404129D01*
X3226811Y-14452194D01*
X3243486Y-14520045D01*
X3243012Y-14526667D01*
X3228659Y-14672399D01*
X3247975Y-14868529D01*
X3247976Y-14868532D01*
X3291197Y-15011013D01*
X3305188Y-15057133D01*
X3398086Y-15230932D01*
X3398090Y-15230939D01*
X3523116Y-15383283D01*
X3675460Y-15508309D01*
X3675467Y-15508313D01*
X3799485Y-15574602D01*
X3849273Y-15601214D01*
X3909091Y-15619359D01*
X3990373Y-15644017D01*
X4048811Y-15682314D01*
X4077268Y-15746127D01*
X4066707Y-15815193D01*
X4042058Y-15850358D01*
X3505860Y-16386557D01*
X2971420Y-16920997D01*
X2971417Y-16921000D01*
X2943375Y-16949042D01*
X2873400Y-17019016D01*
X2825471Y-17090746D01*
X2825472Y-17090747D01*
X2796387Y-17134276D01*
X2743343Y-17262335D01*
X2743341Y-17262343D01*
X2716299Y-17398289D01*
X2716299Y-17543021D01*
X2716300Y-17543042D01*
X2716300Y-18998799D01*
X2696615Y-19065838D01*
X2651319Y-19107853D01*
X2596496Y-19137522D01*
X2596494Y-19137523D01*
X2400260Y-19290259D01*
X2400259Y-19290259D01*
X2231833Y-19473217D01*
X2124098Y-19638121D01*
X2070952Y-19683478D01*
X2020289Y-19694300D01*
X-1680289Y-19694300D01*
X-1747328Y-19674615D01*
X-1784098Y-19638121D01*
X-1891834Y-19473217D01*
X-1910986Y-19452413D01*
X-2060256Y-19290262D01*
X-2256491Y-19137526D01*
X-2256493Y-19137525D01*
X-2256494Y-19137524D01*
X-2475189Y-19019172D01*
X-2475198Y-19019169D01*
X-2543907Y-18995581D01*
X-2600922Y-18955196D01*
X-2627053Y-18890396D01*
X-2614002Y-18821756D01*
X-2565913Y-18771068D01*
X-2503644Y-18754300D01*
X338408Y-18754300D01*
X338409Y-18754299D01*
X469453Y-18728234D01*
X556740Y-18692078D01*
X592896Y-18677102D01*
X703991Y-18602870D01*
X798470Y-18508391D01*
X1585870Y-17720991D01*
X1637575Y-17643609D01*
X1660102Y-17609896D01*
X1663789Y-17600993D01*
X1685272Y-17549131D01*
X1685272Y-17549130D01*
X1687802Y-17543021D01*
X1711234Y-17486453D01*
X1737300Y-17355407D01*
X1737300Y-17221793D01*
X1737300Y-13724801D01*
X1756985Y-13657762D01*
X1809789Y-13612007D01*
X1878947Y-13602063D01*
X1942503Y-13631088D01*
G37*
%TD.AperFunction*%
%TA.AperFunction,NonConductor*%
G36*
X-10113966Y-10879741D02*
G01*
X-10058033Y-10921613D01*
X-10033616Y-10987077D01*
X-10033300Y-10995923D01*
X-10033300Y-13632756D01*
X-10033301Y-13632782D01*
X-10033301Y-13776508D01*
X-10021369Y-13836489D01*
X-10021369Y-13836492D01*
X-10006259Y-13912454D01*
X-10006256Y-13912466D01*
X-9953214Y-14040523D01*
X-9876199Y-14155785D01*
X-9773864Y-14258120D01*
X-9773842Y-14258140D01*
X-9656225Y-14375757D01*
X-9622740Y-14437080D01*
X-9620503Y-14451283D01*
X-9608894Y-14569145D01*
X-9621913Y-14637791D01*
X-9669977Y-14688502D01*
X-9732297Y-14705300D01*
X-18438812Y-14705300D01*
X-18569847Y-14731364D01*
X-18569858Y-14731367D01*
X-18609926Y-14747965D01*
X-18619007Y-14751727D01*
X-18693291Y-14782495D01*
X-18693298Y-14782499D01*
X-18793764Y-14849629D01*
X-18793765Y-14849628D01*
X-18804388Y-14856727D01*
X-18804397Y-14856734D01*
X-19798019Y-15850358D01*
X-20125191Y-16177530D01*
X-20151208Y-16203547D01*
X-20219672Y-16272010D01*
X-20294587Y-16384128D01*
X-20296234Y-16388734D01*
X-20345033Y-16506544D01*
X-20345036Y-16506554D01*
X-20365672Y-16610301D01*
X-20371100Y-16637588D01*
X-20371100Y-27827477D01*
X-20390785Y-27894516D01*
X-20407419Y-27915158D01*
X-20826442Y-28334181D01*
X-20887765Y-28367666D01*
X-20914123Y-28370500D01*
X-25565607Y-28370500D01*
X-25591673Y-28375684D01*
X-25591678Y-28375684D01*
X-25696646Y-28396564D01*
X-25696649Y-28396565D01*
X-25696651Y-28396565D01*
X-25696652Y-28396566D01*
X-25768964Y-28426518D01*
X-25768966Y-28426519D01*
X-25768967Y-28426518D01*
X-25820094Y-28447696D01*
X-25870079Y-28481096D01*
X-25931188Y-28521927D01*
X-25978360Y-28569098D01*
X-26039684Y-28602582D01*
X-26106303Y-28598696D01*
X-26130384Y-28590429D01*
X-26375665Y-28549500D01*
X-26624335Y-28549500D01*
X-26869617Y-28590429D01*
X-27104803Y-28671169D01*
X-27104812Y-28671172D01*
X-27323507Y-28789524D01*
X-27519743Y-28942261D01*
X-27688167Y-29125217D01*
X-27824174Y-29333393D01*
X-27924064Y-29561118D01*
X-27985108Y-29802175D01*
X-27985110Y-29802187D01*
X-28005643Y-30049994D01*
X-28005643Y-30050005D01*
X-27985110Y-30297812D01*
X-27985108Y-30297824D01*
X-27924064Y-30538881D01*
X-27824174Y-30766606D01*
X-27688167Y-30974782D01*
X-27688164Y-30974785D01*
X-27519744Y-31157738D01*
X-27491414Y-31179788D01*
X-27323512Y-31310472D01*
X-27323507Y-31310475D01*
X-27243283Y-31353890D01*
X-27193692Y-31403109D01*
X-27178300Y-31462945D01*
X-27178300Y-32086957D01*
X-27197985Y-32153996D01*
X-27237203Y-32192495D01*
X-27327653Y-32248285D01*
X-27327657Y-32248288D01*
X-27451711Y-32372342D01*
X-27543813Y-32521663D01*
X-27543815Y-32521668D01*
X-27543885Y-32521880D01*
X-27598999Y-32688203D01*
X-27598999Y-32688204D01*
X-27599000Y-32688204D01*
X-27609500Y-32790983D01*
X-27609500Y-33841001D01*
X-27609499Y-33841019D01*
X-27599000Y-33943796D01*
X-27598999Y-33943799D01*
X-27563974Y-34049496D01*
X-27561572Y-34119324D01*
X-27597304Y-34179366D01*
X-27659824Y-34210559D01*
X-27681680Y-34212500D01*
X-27705169Y-34212500D01*
X-27772208Y-34192815D01*
X-27792850Y-34176181D01*
X-30567118Y-31401913D01*
X-30600603Y-31340590D01*
X-30595619Y-31270898D01*
X-30555599Y-31216379D01*
X-30480256Y-31157738D01*
X-30311836Y-30974785D01*
X-30175827Y-30766607D01*
X-30075937Y-30538881D01*
X-30014892Y-30297821D01*
X-30005225Y-30181161D01*
X-29994357Y-30050005D01*
X-29994357Y-30049994D01*
X-30014891Y-29802187D01*
X-30014894Y-29802170D01*
X-30027556Y-29752170D01*
X-30046518Y-29677294D01*
X-30043894Y-29607477D01*
X-30013996Y-29559176D01*
X-28551421Y-28096602D01*
X-28551417Y-28096600D01*
X-28453400Y-27998583D01*
X-28376389Y-27883327D01*
X-28323343Y-27755262D01*
X-28323154Y-27754312D01*
X-28323088Y-27753982D01*
X-28296299Y-27619310D01*
X-28296299Y-27475581D01*
X-28296300Y-27475555D01*
X-28296300Y-23050000D01*
X-25505408Y-23050000D01*
X-25485799Y-23336680D01*
X-25427334Y-23618034D01*
X-25427333Y-23618037D01*
X-25331106Y-23888793D01*
X-25331107Y-23888793D01*
X-25198902Y-24143935D01*
X-25033188Y-24378700D01*
X-25004877Y-24409013D01*
X-24837053Y-24588708D01*
X-24761485Y-24650187D01*
X-24614147Y-24770055D01*
X-24368618Y-24919365D01*
X-24220177Y-24983841D01*
X-24105058Y-25033844D01*
X-23828358Y-25111371D01*
X-23578080Y-25145771D01*
X-23543679Y-25150500D01*
X-23543678Y-25150500D01*
X-23256321Y-25150500D01*
X-23222215Y-25145812D01*
X-22971642Y-25111371D01*
X-22694942Y-25033844D01*
X-22579823Y-24983841D01*
X-22431383Y-24919365D01*
X-22431380Y-24919363D01*
X-22431375Y-24919361D01*
X-22185853Y-24770055D01*
X-21962947Y-24588708D01*
X-21766811Y-24378698D01*
X-21601099Y-24143936D01*
X-21468896Y-23888797D01*
X-21372666Y-23618032D01*
X-21314202Y-23336686D01*
X-21294592Y-23050000D01*
X-21314202Y-22763314D01*
X-21372666Y-22481968D01*
X-21468895Y-22211206D01*
X-21468894Y-22211206D01*
X-21601099Y-21956064D01*
X-21766813Y-21721299D01*
X-21845446Y-21637105D01*
X-21962947Y-21511292D01*
X-22185853Y-21329945D01*
X-22185854Y-21329944D01*
X-22431383Y-21180634D01*
X-22694937Y-21066158D01*
X-22694939Y-21066157D01*
X-22694942Y-21066156D01*
X-22824422Y-21029877D01*
X-22971636Y-20988630D01*
X-22971641Y-20988629D01*
X-22971642Y-20988629D01*
X-23113982Y-20969064D01*
X-23256321Y-20949500D01*
X-23256322Y-20949500D01*
X-23543678Y-20949500D01*
X-23543679Y-20949500D01*
X-23828358Y-20988629D01*
X-23828365Y-20988630D01*
X-24036139Y-21046845D01*
X-24105058Y-21066156D01*
X-24105061Y-21066156D01*
X-24105064Y-21066158D01*
X-24105065Y-21066158D01*
X-24368618Y-21180634D01*
X-24614147Y-21329944D01*
X-24837050Y-21511289D01*
X-25033188Y-21721299D01*
X-25198902Y-21956064D01*
X-25331106Y-22211206D01*
X-25427333Y-22481962D01*
X-25427334Y-22481965D01*
X-25485799Y-22763319D01*
X-25505408Y-23050000D01*
X-28296300Y-23050000D01*
X-28296300Y-16949199D01*
X-28276615Y-16882160D01*
X-28231317Y-16840144D01*
X-28229874Y-16839363D01*
X-28176491Y-16810474D01*
X-28120589Y-16766963D01*
X-28055599Y-16741321D01*
X-27987059Y-16754887D01*
X-27945163Y-16790506D01*
X-27857548Y-16907544D01*
X-27857545Y-16907547D01*
X-27742336Y-16993793D01*
X-27742329Y-16993797D01*
X-27607483Y-17044091D01*
X-27607484Y-17044091D01*
X-27600556Y-17044835D01*
X-27547873Y-17050500D01*
X-25452128Y-17050499D01*
X-25392517Y-17044091D01*
X-25257669Y-16993796D01*
X-25142454Y-16907546D01*
X-25056204Y-16792331D01*
X-25005909Y-16657483D01*
X-24999500Y-16597873D01*
X-24999501Y-14502128D01*
X-25005909Y-14442517D01*
X-25007937Y-14437080D01*
X-25056203Y-14307671D01*
X-25056207Y-14307664D01*
X-25142453Y-14192455D01*
X-25142456Y-14192452D01*
X-25257665Y-14106206D01*
X-25257672Y-14106202D01*
X-25392518Y-14055908D01*
X-25392517Y-14055908D01*
X-25452117Y-14049501D01*
X-25452119Y-14049500D01*
X-25452127Y-14049500D01*
X-25452135Y-14049500D01*
X-25697700Y-14049500D01*
X-25764739Y-14029815D01*
X-25810494Y-13977011D01*
X-25821700Y-13925500D01*
X-25821700Y-13659804D01*
X-25802015Y-13592765D01*
X-25749211Y-13547010D01*
X-25736707Y-13542099D01*
X-25705666Y-13531814D01*
X-25556344Y-13439712D01*
X-25432288Y-13315656D01*
X-25389758Y-13246702D01*
X-25337810Y-13199979D01*
X-25284219Y-13187800D01*
X-12738692Y-13187800D01*
X-12738691Y-13187799D01*
X-12607647Y-13161734D01*
X-12520360Y-13125578D01*
X-12484204Y-13110602D01*
X-12373109Y-13036370D01*
X-12278630Y-12941891D01*
X-10244981Y-10908242D01*
X-10183658Y-10874757D01*
X-10113966Y-10879741D01*
G37*
%TD.AperFunction*%
M02*
