%TF.GenerationSoftware,KiCad,Pcbnew,8.0.8-8.0.8-0~ubuntu24.04.1*%
%TF.CreationDate,2025-02-14T01:20:06+01:00*%
%TF.ProjectId,Encoders-LCD,456e636f-6465-4727-932d-4c43442e6b69,rev?*%
%TF.SameCoordinates,PX55d4a80PY4e33880*%
%TF.FileFunction,Copper,L2,Bot*%
%TF.FilePolarity,Positive*%
%FSLAX46Y46*%
G04 Gerber Fmt 4.6, Leading zero omitted, Abs format (unit mm)*
G04 Created by KiCad (PCBNEW 8.0.8-8.0.8-0~ubuntu24.04.1) date 2025-02-14 01:20:06*
%MOMM*%
%LPD*%
G01*
G04 APERTURE LIST*
G04 Aperture macros list*
%AMRoundRect*
0 Rectangle with rounded corners*
0 $1 Rounding radius*
0 $2 $3 $4 $5 $6 $7 $8 $9 X,Y pos of 4 corners*
0 Add a 4 corners polygon primitive as box body*
4,1,4,$2,$3,$4,$5,$6,$7,$8,$9,$2,$3,0*
0 Add four circle primitives for the rounded corners*
1,1,$1+$1,$2,$3*
1,1,$1+$1,$4,$5*
1,1,$1+$1,$6,$7*
1,1,$1+$1,$8,$9*
0 Add four rect primitives between the rounded corners*
20,1,$1+$1,$2,$3,$4,$5,0*
20,1,$1+$1,$4,$5,$6,$7,0*
20,1,$1+$1,$6,$7,$8,$9,0*
20,1,$1+$1,$8,$9,$2,$3,0*%
G04 Aperture macros list end*
%TA.AperFunction,ComponentPad*%
%ADD10R,1.700000X1.700000*%
%TD*%
%TA.AperFunction,ComponentPad*%
%ADD11O,1.700000X1.700000*%
%TD*%
%TA.AperFunction,ComponentPad*%
%ADD12C,2.000000*%
%TD*%
%TA.AperFunction,ComponentPad*%
%ADD13R,2.000000X2.000000*%
%TD*%
%TA.AperFunction,ComponentPad*%
%ADD14C,3.200000*%
%TD*%
%TA.AperFunction,SMDPad,CuDef*%
%ADD15RoundRect,0.150000X-0.825000X-0.150000X0.825000X-0.150000X0.825000X0.150000X-0.825000X0.150000X0*%
%TD*%
%TA.AperFunction,SMDPad,CuDef*%
%ADD16RoundRect,0.250000X0.337500X0.475000X-0.337500X0.475000X-0.337500X-0.475000X0.337500X-0.475000X0*%
%TD*%
%TA.AperFunction,SMDPad,CuDef*%
%ADD17RoundRect,0.250000X-0.337500X-0.475000X0.337500X-0.475000X0.337500X0.475000X-0.337500X0.475000X0*%
%TD*%
%TA.AperFunction,SMDPad,CuDef*%
%ADD18RoundRect,0.250000X0.475000X-0.337500X0.475000X0.337500X-0.475000X0.337500X-0.475000X-0.337500X0*%
%TD*%
%TA.AperFunction,SMDPad,CuDef*%
%ADD19RoundRect,0.250000X-0.475000X0.337500X-0.475000X-0.337500X0.475000X-0.337500X0.475000X0.337500X0*%
%TD*%
%TA.AperFunction,SMDPad,CuDef*%
%ADD20RoundRect,0.150000X-0.150000X0.825000X-0.150000X-0.825000X0.150000X-0.825000X0.150000X0.825000X0*%
%TD*%
%TA.AperFunction,SMDPad,CuDef*%
%ADD21RoundRect,0.150000X0.150000X-0.825000X0.150000X0.825000X-0.150000X0.825000X-0.150000X-0.825000X0*%
%TD*%
%TA.AperFunction,ViaPad*%
%ADD22C,1.000000*%
%TD*%
%TA.AperFunction,Conductor*%
%ADD23C,0.355600*%
%TD*%
G04 APERTURE END LIST*
D10*
%TO.P,J2,1,Pin_1*%
%TO.N,GND*%
X-5418000Y-32046000D03*
D11*
%TO.P,J2,2,Pin_2*%
%TO.N,/SER_A*%
X-2878000Y-32046000D03*
%TO.P,J2,3,Pin_3*%
%TO.N,/SER_S*%
X-338000Y-32046000D03*
%TO.P,J2,4,Pin_4*%
%TO.N,/SER_B*%
X2202000Y-32046000D03*
%TO.P,J2,5,Pin_5*%
%TO.N,VCC*%
X4742000Y-32046000D03*
%TD*%
D10*
%TO.P,J1,1,Pin_1*%
%TO.N,GND*%
X3716000Y-550000D03*
D11*
%TO.P,J1,2,Pin_2*%
%TO.N,/PL*%
X1176000Y-550000D03*
%TO.P,J1,3,Pin_3*%
%TO.N,/CLK*%
X-1364000Y-550000D03*
%TO.P,J1,4,Pin_4*%
%TO.N,VCC*%
X-3904000Y-550000D03*
%TD*%
D12*
%TO.P,SW3,1,1*%
%TO.N,VCC*%
X29862514Y25654586D03*
X36362514Y25654586D03*
%TO.P,SW3,2,2*%
%TO.N,/RSW*%
X29862514Y21154586D03*
X36362514Y21154586D03*
%TD*%
D13*
%TO.P,ENC3,A,A*%
%TO.N,/A3*%
X32500000Y-15500000D03*
D12*
%TO.P,ENC3,B,B*%
%TO.N,/B3*%
X27500000Y-15500000D03*
%TO.P,ENC3,C,C*%
%TO.N,VCC*%
X30000000Y-15500000D03*
D14*
%TO.P,ENC3,MP*%
%TO.N,N/C*%
X35600000Y-23000000D03*
X24400000Y-23000000D03*
D12*
%TO.P,ENC3,S1,S1*%
%TO.N,VCC*%
X27500000Y-30000000D03*
%TO.P,ENC3,S2,S2*%
%TO.N,/SW3*%
X32500000Y-30000000D03*
%TD*%
%TO.P,SW2,1,1*%
%TO.N,VCC*%
X-35860000Y25650000D03*
X-29360000Y25650000D03*
%TO.P,SW2,2,2*%
%TO.N,/LSW*%
X-35860000Y21150000D03*
X-29360000Y21150000D03*
%TD*%
D13*
%TO.P,ENC2,A,A*%
%TO.N,/A2*%
X-26500000Y-15550000D03*
D12*
%TO.P,ENC2,B,B*%
%TO.N,/B2*%
X-31500000Y-15550000D03*
%TO.P,ENC2,C,C*%
%TO.N,VCC*%
X-29000000Y-15550000D03*
D14*
%TO.P,ENC2,MP*%
%TO.N,N/C*%
X-23400000Y-23050000D03*
X-34600000Y-23050000D03*
D12*
%TO.P,ENC2,S1,S1*%
%TO.N,VCC*%
X-31500000Y-30050000D03*
%TO.P,ENC2,S2,S2*%
%TO.N,/SW2*%
X-26500000Y-30050000D03*
%TD*%
D13*
%TO.P,ENC1,A,A*%
%TO.N,/A1*%
X-2550000Y15600000D03*
D12*
%TO.P,ENC1,B,B*%
%TO.N,/B1*%
X2450000Y15600000D03*
%TO.P,ENC1,C,C*%
%TO.N,VCC*%
X-50000Y15600000D03*
D14*
%TO.P,ENC1,MP*%
%TO.N,N/C*%
X-5650000Y23100000D03*
X5550000Y23100000D03*
D12*
%TO.P,ENC1,S1,S1*%
%TO.N,VCC*%
X2450000Y30100000D03*
%TO.P,ENC1,S2,S2*%
%TO.N,/SW1*%
X-2550000Y30100000D03*
%TD*%
%TO.P,SW1,1,1*%
%TO.N,VCC*%
X-3080000Y-20398000D03*
X3420000Y-20398000D03*
%TO.P,SW1,2,2*%
%TO.N,/SFTSW*%
X-3080000Y-24898000D03*
X3420000Y-24898000D03*
%TD*%
D15*
%TO.P,U5,1,~{PL}*%
%TO.N,/PL*%
X11792000Y-4080600D03*
%TO.P,U5,2,CP*%
%TO.N,/CLK*%
X11792000Y-2810600D03*
%TO.P,U5,3,D4*%
%TO.N,unconnected-(U5-D4-Pad3)*%
X11792000Y-1540600D03*
%TO.P,U5,4,D5*%
%TO.N,/B3*%
X11792000Y-270600D03*
%TO.P,U5,5,D6*%
%TO.N,/B2*%
X11792000Y999400D03*
%TO.P,U5,6,D7*%
%TO.N,/B1*%
X11792000Y2269400D03*
%TO.P,U5,7,~{Q7}*%
%TO.N,unconnected-(U5-~{Q7}-Pad7)*%
X11792000Y3539400D03*
%TO.P,U5,8,GND*%
%TO.N,GND*%
X11792000Y4809400D03*
%TO.P,U5,9,Q7*%
%TO.N,/SER_B*%
X16742000Y4809400D03*
%TO.P,U5,10,DS*%
%TO.N,unconnected-(U5-DS-Pad10)*%
X16742000Y3539400D03*
%TO.P,U5,11,D0*%
%TO.N,unconnected-(U5-D0-Pad11)*%
X16742000Y2269400D03*
%TO.P,U5,12,D1*%
%TO.N,unconnected-(U5-D1-Pad12)*%
X16742000Y999400D03*
%TO.P,U5,13,D2*%
%TO.N,unconnected-(U5-D2-Pad13)*%
X16742000Y-270600D03*
%TO.P,U5,14,D3*%
%TO.N,unconnected-(U5-D3-Pad14)*%
X16742000Y-1540600D03*
%TO.P,U5,15,~{CE}*%
%TO.N,GND*%
X16742000Y-2810600D03*
%TO.P,U5,16,VCC*%
%TO.N,VCC*%
X16742000Y-4080600D03*
%TD*%
D16*
%TO.P,R13,1*%
%TO.N,/SW1*%
X-2602500Y33486000D03*
%TO.P,R13,2*%
%TO.N,GND*%
X-4677500Y33486000D03*
%TD*%
D17*
%TO.P,R12,1*%
%TO.N,/SW2*%
X-26521500Y-33316000D03*
%TO.P,R12,2*%
%TO.N,GND*%
X-24446500Y-33316000D03*
%TD*%
D16*
%TO.P,R10,1*%
%TO.N,/B3*%
X27623500Y-10710000D03*
%TO.P,R10,2*%
%TO.N,GND*%
X25548500Y-10710000D03*
%TD*%
D18*
%TO.P,C2,1*%
%TO.N,VCC*%
X-3894000Y2222500D03*
%TO.P,C2,2*%
%TO.N,GND*%
X-3894000Y4297500D03*
%TD*%
D17*
%TO.P,R11,1*%
%TO.N,/SW3*%
X32660500Y-33316000D03*
%TO.P,R11,2*%
%TO.N,GND*%
X34735500Y-33316000D03*
%TD*%
%TO.P,C3,1*%
%TO.N,VCC*%
X8022500Y-32046000D03*
%TO.P,C3,2*%
%TO.N,GND*%
X10097500Y-32046000D03*
%TD*%
D19*
%TO.P,R7,1*%
%TO.N,GND*%
X-26500000Y-10434500D03*
%TO.P,R7,2*%
%TO.N,/A2*%
X-26500000Y-12509500D03*
%TD*%
D16*
%TO.P,R2,1*%
%TO.N,/RSW*%
X36513500Y16468000D03*
%TO.P,R2,2*%
%TO.N,GND*%
X34438500Y16468000D03*
%TD*%
D18*
%TO.P,R5,1*%
%TO.N,GND*%
X-2624000Y10096500D03*
%TO.P,R5,2*%
%TO.N,/A1*%
X-2624000Y12171500D03*
%TD*%
D20*
%TO.P,U6,1,~{PL}*%
%TO.N,/PL*%
X-4275000Y-10267000D03*
%TO.P,U6,2,CP*%
%TO.N,/CLK*%
X-3005000Y-10267000D03*
%TO.P,U6,3,D4*%
%TO.N,/RSW*%
X-1735000Y-10267000D03*
%TO.P,U6,4,D5*%
%TO.N,/SW3*%
X-465000Y-10267000D03*
%TO.P,U6,5,D6*%
%TO.N,/SW2*%
X805000Y-10267000D03*
%TO.P,U6,6,D7*%
%TO.N,/SW1*%
X2075000Y-10267000D03*
%TO.P,U6,7,~{Q7}*%
%TO.N,unconnected-(U6-~{Q7}-Pad7)*%
X3345000Y-10267000D03*
%TO.P,U6,8,GND*%
%TO.N,GND*%
X4615000Y-10267000D03*
%TO.P,U6,9,Q7*%
%TO.N,/SER_S*%
X4615000Y-15217000D03*
%TO.P,U6,10,DS*%
%TO.N,unconnected-(U6-DS-Pad10)*%
X3345000Y-15217000D03*
%TO.P,U6,11,D0*%
%TO.N,unconnected-(U6-D0-Pad11)*%
X2075000Y-15217000D03*
%TO.P,U6,12,D1*%
%TO.N,unconnected-(U6-D1-Pad12)*%
X805000Y-15217000D03*
%TO.P,U6,13,D2*%
%TO.N,/LSW*%
X-465000Y-15217000D03*
%TO.P,U6,14,D3*%
%TO.N,/SFTSW*%
X-1735000Y-15217000D03*
%TO.P,U6,15,~{CE}*%
%TO.N,GND*%
X-3005000Y-15217000D03*
%TO.P,U6,16,VCC*%
%TO.N,VCC*%
X-4275000Y-15217000D03*
%TD*%
D16*
%TO.P,R8,1*%
%TO.N,/B2*%
X-31558500Y-11218000D03*
%TO.P,R8,2*%
%TO.N,GND*%
X-33633500Y-11218000D03*
%TD*%
%TO.P,R1,1*%
%TO.N,/LSW*%
X-35876500Y17230000D03*
%TO.P,R1,2*%
%TO.N,GND*%
X-37951500Y17230000D03*
%TD*%
D21*
%TO.P,U4,1,~{PL}*%
%TO.N,/PL*%
X-9990000Y-1958200D03*
%TO.P,U4,2,CP*%
%TO.N,/CLK*%
X-11260000Y-1958200D03*
%TO.P,U4,3,D4*%
%TO.N,unconnected-(U4-D4-Pad3)*%
X-12530000Y-1958200D03*
%TO.P,U4,4,D5*%
%TO.N,/A3*%
X-13800000Y-1958200D03*
%TO.P,U4,5,D6*%
%TO.N,/A2*%
X-15070000Y-1958200D03*
%TO.P,U4,6,D7*%
%TO.N,/A1*%
X-16340000Y-1958200D03*
%TO.P,U4,7,~{Q7}*%
%TO.N,unconnected-(U4-~{Q7}-Pad7)*%
X-17610000Y-1958200D03*
%TO.P,U4,8,GND*%
%TO.N,GND*%
X-18880000Y-1958200D03*
%TO.P,U4,9,Q7*%
%TO.N,/SER_A*%
X-18880000Y2991800D03*
%TO.P,U4,10,DS*%
%TO.N,unconnected-(U4-DS-Pad10)*%
X-17610000Y2991800D03*
%TO.P,U4,11,D0*%
%TO.N,unconnected-(U4-D0-Pad11)*%
X-16340000Y2991800D03*
%TO.P,U4,12,D1*%
%TO.N,unconnected-(U4-D1-Pad12)*%
X-15070000Y2991800D03*
%TO.P,U4,13,D2*%
%TO.N,unconnected-(U4-D2-Pad13)*%
X-13800000Y2991800D03*
%TO.P,U4,14,D3*%
%TO.N,unconnected-(U4-D3-Pad14)*%
X-12530000Y2991800D03*
%TO.P,U4,15,~{CE}*%
%TO.N,GND*%
X-11260000Y2991800D03*
%TO.P,U4,16,VCC*%
%TO.N,VCC*%
X-9990000Y2991800D03*
%TD*%
D19*
%TO.P,R6,1*%
%TO.N,/B1*%
X2202000Y12171500D03*
%TO.P,R6,2*%
%TO.N,GND*%
X2202000Y10096500D03*
%TD*%
D16*
%TO.P,R14,1*%
%TO.N,/SFTSW*%
X-6158500Y-24934000D03*
%TO.P,R14,2*%
%TO.N,GND*%
X-8233500Y-24934000D03*
%TD*%
D19*
%TO.P,R9,1*%
%TO.N,GND*%
X32428000Y-10434500D03*
%TO.P,R9,2*%
%TO.N,/A3*%
X32428000Y-12509500D03*
%TD*%
D22*
%TO.N,GND*%
X37254000Y-30776000D03*
X26586000Y-32808000D03*
X-13292000Y-31538000D03*
X37254000Y-36693000D03*
X37254000Y-32808000D03*
X25062000Y-13250000D03*
X25062000Y-2328000D03*
%TO.N,VCC*%
X27094000Y6562000D03*
X-50000Y6562000D03*
%TO.N,GND*%
X-30564000Y10118000D03*
X-11260000Y10118000D03*
X-33612000Y-6646000D03*
X-18880000Y-6646000D03*
%TO.N,VCC*%
X-9990000Y8086000D03*
X-41232000Y8086000D03*
%TO.N,GND*%
X-6180000Y-21378000D03*
X-6180000Y-29506000D03*
X-8212000Y-15536000D03*
X6012000Y-15536000D03*
X-2878000Y-18076000D03*
X-8212000Y-18076000D03*
X2202000Y7832000D03*
X-2624000Y7832000D03*
X7790000Y4784000D03*
X2202000Y4784000D03*
X6520000Y-550000D03*
X6520000Y-8424000D03*
%TO.N,VCC*%
X-31580000Y-33570000D03*
X-9736000Y-34332000D03*
%TO.N,GND*%
X-24468000Y-31538000D03*
X-8974000Y-31538000D03*
%TO.N,/SER_A*%
X-18880000Y6816000D03*
X-38692000Y6816000D03*
%TO.N,/PL*%
X-6942000Y-5884000D03*
X1186000Y-3344000D03*
%TO.N,/SER_B*%
X19982000Y-11472000D03*
X19982000Y4784000D03*
%TO.N,/A3*%
X41572000Y-12742000D03*
X34714000Y-12742000D03*
X-11768000Y-16044000D03*
X-11768000Y-9694000D03*
%TD*%
D23*
%TO.N,GND*%
X10097500Y-32046000D02*
X25824000Y-32046000D01*
X25824000Y-32046000D02*
X26586000Y-32808000D01*
X37254000Y-30776000D02*
X37254000Y-32808000D01*
X34735500Y-33316000D02*
X36746000Y-33316000D01*
X36746000Y-33316000D02*
X37254000Y-32808000D01*
X-13292000Y-33824000D02*
X-13292000Y-31538000D01*
X37254000Y-36693000D02*
X-10423000Y-36693000D01*
X-10423000Y-36693000D02*
X-13292000Y-33824000D01*
X16742000Y-2810600D02*
X19753400Y-2810600D01*
X19753400Y-2810600D02*
X20236000Y-2328000D01*
X20236000Y-2328000D02*
X25062000Y-2328000D01*
X25548500Y-12763500D02*
X25062000Y-13250000D01*
X25548500Y-10710000D02*
X25548500Y-12763500D01*
%TO.N,VCC*%
X-50000Y6562000D02*
X-50000Y4056000D01*
X27094000Y-2836000D02*
X27094000Y6562000D01*
X28338600Y-4080600D02*
X27094000Y-2836000D01*
X-50000Y15600000D02*
X-50000Y6562000D01*
%TO.N,GND*%
X-11260000Y2991800D02*
X-11260000Y10118000D01*
X-30564000Y10118000D02*
X-30564000Y-3598000D01*
X-30564000Y-3598000D02*
X-33612000Y-6646000D01*
X-18880000Y-1958200D02*
X-18880000Y-6646000D01*
X-33612000Y-6646000D02*
X-33633500Y-6667500D01*
X-33633500Y-6667500D02*
X-33633500Y-11218000D01*
%TO.N,VCC*%
X-9990000Y2991800D02*
X-9990000Y8086000D01*
X-41232000Y8086000D02*
X-41232000Y23834000D01*
X-39416000Y25650000D02*
X-35860000Y25650000D01*
X-41232000Y23834000D02*
X-39416000Y25650000D01*
%TO.N,GND*%
X-5418000Y-32046000D02*
X-5418000Y-30268000D01*
X-5418000Y-30268000D02*
X-6180000Y-29506000D01*
X-6180000Y-21378000D02*
X-6180000Y-20108000D01*
X-6180000Y-20108000D02*
X-8212000Y-18076000D01*
X-8212000Y-18076000D02*
X-8212000Y-15536000D01*
X6012000Y-13504000D02*
X4615000Y-12107000D01*
X4615000Y-12107000D02*
X4615000Y-10267000D01*
X6012000Y-15536000D02*
X6012000Y-13504000D01*
X-2878000Y-15344000D02*
X-3005000Y-15217000D01*
X-8233500Y-24934000D02*
X-8233500Y-18097500D01*
X-8233500Y-18097500D02*
X-8212000Y-18076000D01*
X-2878000Y-18076000D02*
X-2878000Y-15344000D01*
X-2624000Y10096500D02*
X-2624000Y7832000D01*
X2202000Y7832000D02*
X2202000Y10096500D01*
X7815400Y4809400D02*
X7790000Y4784000D01*
X11792000Y4809400D02*
X7815400Y4809400D01*
X2202000Y4784000D02*
X2202000Y3514000D01*
X2202000Y3514000D02*
X3716000Y2000000D01*
X3716000Y2000000D02*
X3716000Y-550000D01*
X4615000Y-9059000D02*
X4996000Y-8678000D01*
X4615000Y-10267000D02*
X4615000Y-9059000D01*
X4996000Y-8678000D02*
X5250000Y-8424000D01*
X5250000Y-8424000D02*
X6520000Y-8424000D01*
X6520000Y-550000D02*
X3716000Y-550000D01*
%TO.N,VCC*%
X4742000Y-33824000D02*
X4234000Y-34332000D01*
X-31580000Y-33570000D02*
X-31580000Y-30130000D01*
X4742000Y-32046000D02*
X4742000Y-33824000D01*
X4234000Y-34332000D02*
X-9736000Y-34332000D01*
X-31580000Y-30130000D02*
X-31500000Y-30050000D01*
%TO.N,GND*%
X-8974000Y-31538000D02*
X-7704000Y-31538000D01*
X-7704000Y-31538000D02*
X-7196000Y-32046000D01*
X-24446500Y-31559500D02*
X-24468000Y-31538000D01*
X-24446500Y-33316000D02*
X-24446500Y-31559500D01*
X-7196000Y-32046000D02*
X-5418000Y-32046000D01*
%TO.N,/SER_A*%
X-19546700Y-14424700D02*
X-20912000Y-15790000D01*
X-11355300Y-14424700D02*
X-18372000Y-14424700D01*
X-2878000Y-28236000D02*
X-3640000Y-27474000D01*
X-20912000Y-15790000D02*
X-20912000Y-33316000D01*
X-22182000Y-34586000D02*
X-23582400Y-35986400D01*
X-18372000Y-14424700D02*
X-19546700Y-14424700D01*
X-3640000Y-27474000D02*
X-9482000Y-27474000D01*
X-23582400Y-35986400D02*
X-35146434Y-35986400D01*
X-10402700Y-15377300D02*
X-11006000Y-14774000D01*
X-10402700Y-21282700D02*
X-10402700Y-15377300D01*
X-10498000Y-26458000D02*
X-10498000Y-21378000D01*
X-35146434Y-35986400D02*
X-36984417Y-34148417D01*
X-37422000Y-25696000D02*
X-37422000Y5546000D01*
X-2878000Y-32046000D02*
X-2878000Y-28236000D01*
X-10498000Y-21378000D02*
X-10402700Y-21282700D01*
X-36984417Y-34148417D02*
X-37422000Y-33710834D01*
X-9482000Y-27474000D02*
X-10498000Y-26458000D01*
X-37422000Y-33710834D02*
X-37422000Y-25696000D01*
X-20912000Y-33316000D02*
X-22182000Y-34586000D01*
X-37422000Y5546000D02*
X-38692000Y6816000D01*
X-11006000Y-14774000D02*
X-11355300Y-14424700D01*
X-18880000Y6816000D02*
X-18880000Y2991800D01*
%TO.N,/PL*%
X-6942000Y-9948000D02*
X-6942000Y-5884000D01*
X-4275000Y-10267000D02*
X-6623000Y-10267000D01*
X-6688000Y-10202000D02*
X-6942000Y-9948000D01*
X-6623000Y-10267000D02*
X-6688000Y-10202000D01*
%TO.N,VCC*%
X-29360000Y25650000D02*
X-2000000Y25650000D01*
X-2000000Y25650000D02*
X2450000Y30100000D01*
X-35860000Y25650000D02*
X-29360000Y25650000D01*
X8022500Y-32046000D02*
X8022500Y-30797500D01*
X8022500Y-30797500D02*
X8820000Y-30000000D01*
X8820000Y-30000000D02*
X27500000Y-30000000D01*
X30000000Y-15500000D02*
X30000000Y-5742000D01*
X30000000Y-5742000D02*
X28338600Y-4080600D01*
X28338600Y-4080600D02*
X16742000Y-4080600D01*
%TO.N,/SER_B*%
X7028000Y-12488000D02*
X8044000Y-11472000D01*
X7028000Y-22394000D02*
X7028000Y-12488000D01*
X16767400Y4784000D02*
X16742000Y4809400D01*
X2202000Y-32046000D02*
X7028000Y-27220000D01*
X7028000Y-27220000D02*
X7028000Y-22394000D01*
X8044000Y-11472000D02*
X19982000Y-11472000D01*
X19982000Y4784000D02*
X16767400Y4784000D01*
%TO.N,VCC*%
X4742000Y-32046000D02*
X8022500Y-32046000D01*
%TO.N,/A3*%
X41572000Y-17060000D02*
X41572000Y-12742000D01*
X40048000Y-18584000D02*
X41572000Y-17060000D01*
X-11768000Y-34078000D02*
X-10498000Y-35348000D01*
X-13800000Y-1958200D02*
X-13800000Y-7662000D01*
X-11768000Y-16044000D02*
X-11768000Y-34078000D01*
X40048000Y-24934000D02*
X40048000Y-18584000D01*
X40048000Y-33316000D02*
X40048000Y-24934000D01*
X-10113600Y-35732400D02*
X37631600Y-35732400D01*
X-13800000Y-7662000D02*
X-11768000Y-9694000D01*
X37631600Y-35732400D02*
X40048000Y-33316000D01*
X-10498000Y-35348000D02*
X-10113600Y-35732400D01*
X34714000Y-12742000D02*
X32660500Y-12742000D01*
X32660500Y-12742000D02*
X32428000Y-12509500D01*
%TO.N,VCC*%
X29862514Y25654586D02*
X6895414Y25654586D01*
X6895414Y25654586D02*
X2450000Y30100000D01*
X36362514Y25654586D02*
X29862514Y25654586D01*
%TO.N,/RSW*%
X36362514Y21154586D02*
X36362514Y16618986D01*
X36362514Y16618986D02*
X36513500Y16468000D01*
X29862514Y21154586D02*
X36362514Y21154586D01*
%TO.N,/SW1*%
X-2550000Y30100000D02*
X-2550000Y33433500D01*
X-2550000Y33433500D02*
X-2602500Y33486000D01*
X2075000Y-10267000D02*
X2075000Y-8043000D01*
X21559183Y-10001183D02*
X21559183Y-17902851D01*
X2075000Y-8043000D02*
X2710000Y-7408000D01*
X2710000Y-7408000D02*
X12108000Y-7408000D01*
X12108000Y-7408000D02*
X12150749Y-7365251D01*
X30515966Y-19606800D02*
X31861600Y-20952434D01*
X12150749Y-7365251D02*
X14232298Y-9446800D01*
X14232298Y-9446800D02*
X21004800Y-9446800D01*
X23263132Y-19606800D02*
X30515966Y-19606800D01*
X21004800Y-9446800D02*
X21559183Y-10001183D01*
X21559183Y-17902851D02*
X23263132Y-19606800D01*
X31861600Y-20952434D02*
X31861600Y-27532400D01*
X29888000Y-34078000D02*
X30904000Y-35094000D01*
X31861600Y-27532400D02*
X29888000Y-29506000D01*
X29888000Y-29506000D02*
X29888000Y-34078000D01*
X30904000Y-35094000D02*
X37254000Y-35094000D01*
X37254000Y-35094000D02*
X39286000Y-33062000D01*
X39286000Y-33062000D02*
X39286000Y26628000D01*
X39286000Y26628000D02*
X32428000Y33486000D01*
X32428000Y33486000D02*
X-2602500Y33486000D01*
%TO.N,/SW3*%
X32660500Y-33316000D02*
X32660500Y-30160500D01*
X32660500Y-30160500D02*
X32500000Y-30000000D01*
X32500000Y-30000000D02*
X32500000Y-20688000D01*
X12341132Y-6652800D02*
X50034Y-6652800D01*
X32500000Y-20688000D02*
X30780400Y-18968400D01*
X30780400Y-18968400D02*
X23527566Y-18968400D01*
X14496732Y-8808400D02*
X12341132Y-6652800D01*
X23527566Y-18968400D02*
X22197583Y-17638417D01*
X50034Y-6652800D02*
X-465000Y-7167834D01*
X22197583Y-17638417D02*
X22197583Y-9510417D01*
X-465000Y-7167834D02*
X-465000Y-10267000D01*
X22197583Y-9510417D02*
X21495566Y-8808400D01*
X21495566Y-8808400D02*
X14496732Y-8808400D01*
%TO.N,/RSW*%
X36513500Y16468000D02*
X36513500Y-16530500D01*
X-214400Y-6014400D02*
X-1735000Y-7535000D01*
X36513500Y-16530500D02*
X34714000Y-18330000D01*
X34714000Y-18330000D02*
X23792000Y-18330000D01*
X23792000Y-18330000D02*
X23030000Y-17568000D01*
X23030000Y-9440000D02*
X21760000Y-8170000D01*
X23030000Y-17568000D02*
X23030000Y-9440000D01*
X21760000Y-8170000D02*
X14761166Y-8170000D01*
X14761166Y-8170000D02*
X12605566Y-6014400D01*
X12605566Y-6014400D02*
X-214400Y-6014400D01*
X-1735000Y-7535000D02*
X-1735000Y-10267000D01*
%TO.N,/LSW*%
X-465000Y-15217000D02*
X-465000Y-13885000D01*
X-465000Y-13885000D02*
X-846000Y-13504000D01*
X-846000Y-13504000D02*
X-9341166Y-13504000D01*
X-9341166Y-13504000D02*
X-9623466Y-13786300D01*
X-21561466Y-13786300D02*
X-22559600Y-14784434D01*
X-36660600Y13419400D02*
X-35876500Y14203500D01*
X-9623466Y-13786300D02*
X-21561466Y-13786300D01*
X-22559600Y-14784434D02*
X-22559600Y-16562434D01*
X-22559600Y-16562434D02*
X-25861600Y-19864434D01*
X-25861600Y-19864434D02*
X-25861600Y-27474000D01*
X-22436000Y-30899600D02*
X-22436000Y-33824000D01*
X-25861600Y-27474000D02*
X-22436000Y-30899600D01*
X-23960000Y-35348000D02*
X-34882000Y-35348000D01*
X-22436000Y-33824000D02*
X-23960000Y-35348000D01*
X-34882000Y-35348000D02*
X-36660600Y-33569400D01*
X-36660600Y-33569400D02*
X-36660600Y13419400D01*
X-35876500Y14203500D02*
X-35876500Y17230000D01*
X-35860000Y21150000D02*
X-29360000Y21150000D01*
X-35876500Y17230000D02*
X-35876500Y21133500D01*
X-35876500Y21133500D02*
X-35860000Y21150000D01*
%TO.N,/SW2*%
X-26500000Y-30050000D02*
X-26500000Y-19600000D01*
X-26500000Y-19600000D02*
X-23198000Y-16298000D01*
X-23198000Y-16298000D02*
X-23198000Y-14520000D01*
X-23198000Y-14520000D02*
X-21825900Y-13147900D01*
X-21825900Y-13147900D02*
X-9887900Y-13147900D01*
X-9887900Y-13147900D02*
X-9228000Y-12488000D01*
X-9228000Y-12488000D02*
X-441001Y-12488000D01*
X-441001Y-12488000D02*
X805000Y-11241999D01*
X805000Y-11241999D02*
X805000Y-10267000D01*
%TO.N,VCC*%
X-50000Y4056000D02*
X-1883500Y2222500D01*
X-1883500Y2222500D02*
X-3894000Y2222500D01*
%TO.N,/CLK*%
X11792000Y-2810600D02*
X12766999Y-2810600D01*
X12766999Y-2810600D02*
X13247600Y-3291201D01*
X13247600Y-3291201D02*
X13247600Y-4614000D01*
X13247600Y-4614000D02*
X12485600Y-5376000D01*
X12485600Y-5376000D02*
X424000Y-5376000D01*
X424000Y-5376000D02*
X-1364000Y-3588000D01*
X-1364000Y-3588000D02*
X-1364000Y-550000D01*
%TO.N,/PL*%
X11792000Y-4080600D02*
X1922600Y-4080600D01*
X1922600Y-4080600D02*
X1186000Y-3344000D01*
X1186000Y-3344000D02*
X1186000Y-560000D01*
X1186000Y-560000D02*
X1176000Y-550000D01*
%TO.N,/B2*%
X-31558500Y-11218000D02*
X-21674000Y-1333500D01*
X13352600Y999400D02*
X11792000Y999400D01*
X-21674000Y-1333500D02*
X-21674000Y16214000D01*
X-21674000Y16214000D02*
X-19642000Y18246000D01*
X-19642000Y18246000D02*
X3472000Y18246000D01*
X3472000Y18246000D02*
X6012000Y15706000D01*
X6012000Y15706000D02*
X6012000Y7578000D01*
X6012000Y7578000D02*
X6774000Y6816000D01*
X6774000Y6816000D02*
X13124000Y6816000D01*
X13124000Y6816000D02*
X13886000Y6054000D01*
X13886000Y6054000D02*
X13886000Y1482000D01*
X13886000Y1482000D02*
X13378000Y974000D01*
X13378000Y974000D02*
X13352600Y999400D01*
%TO.N,/A3*%
X32500000Y-15500000D02*
X32500000Y-12581500D01*
X32500000Y-12581500D02*
X32428000Y-12509500D01*
%TO.N,/B3*%
X27500000Y-15500000D02*
X27500000Y-10833500D01*
X27500000Y-10833500D02*
X27623500Y-10710000D01*
X11792000Y-270600D02*
X13352600Y-270600D01*
X13352600Y-270600D02*
X13886000Y-804000D01*
X13886000Y-6392000D02*
X14902000Y-7408000D01*
X13886000Y-804000D02*
X13886000Y-6392000D01*
X14902000Y-7408000D02*
X26586000Y-7408000D01*
X26586000Y-7408000D02*
X27623500Y-8445500D01*
X27623500Y-8445500D02*
X27623500Y-10710000D01*
%TO.N,/B1*%
X11792000Y2269400D02*
X7002600Y2269400D01*
X7002600Y2269400D02*
X4234000Y5038000D01*
X4234000Y5038000D02*
X4234000Y11642000D01*
X4234000Y11642000D02*
X3704500Y12171500D01*
X3704500Y12171500D02*
X2202000Y12171500D01*
%TO.N,/PL*%
X-9990000Y-1958200D02*
X-9990000Y-3344000D01*
X-9990000Y-3344000D02*
X-9482000Y-3852000D01*
X-5672000Y-3852000D02*
X-4275000Y-5249000D01*
X-9482000Y-3852000D02*
X-5672000Y-3852000D01*
X-4275000Y-5249000D02*
X-4275000Y-10267000D01*
%TO.N,/B1*%
X2450000Y15600000D02*
X2450000Y12419500D01*
X2450000Y12419500D02*
X2202000Y12171500D01*
%TO.N,/A1*%
X-2624000Y12171500D02*
X-2550000Y12245500D01*
X-2550000Y12245500D02*
X-2550000Y15600000D01*
X-16340000Y-1958200D02*
X-16340000Y-296000D01*
X-16340000Y-296000D02*
X-16848000Y212000D01*
X-16848000Y212000D02*
X-19896000Y212000D01*
X-19896000Y212000D02*
X-20912000Y1228000D01*
X-20912000Y1228000D02*
X-20912000Y10118000D01*
X-20912000Y10118000D02*
X-18858500Y12171500D01*
X-18858500Y12171500D02*
X-2624000Y12171500D01*
%TO.N,/A2*%
X-16869500Y-12509500D02*
X-15070000Y-10710000D01*
X-15070000Y-10710000D02*
X-15070000Y-1958200D01*
X-26500000Y-12509500D02*
X-16869500Y-12509500D01*
X-26500000Y-15550000D02*
X-26500000Y-12509500D01*
%TO.N,/B2*%
X-31500000Y-15550000D02*
X-31500000Y-11276500D01*
X-31500000Y-11276500D02*
X-31558500Y-11218000D01*
%TO.N,VCC*%
X-29000000Y-15550000D02*
X-31500000Y-18050000D01*
X-31500000Y-18050000D02*
X-31500000Y-30050000D01*
%TO.N,/SW2*%
X-26521500Y-33316000D02*
X-26521500Y-30071500D01*
X-26521500Y-30071500D02*
X-26500000Y-30050000D01*
%TO.N,/SER_S*%
X-338000Y-32046000D02*
X-338000Y-28744000D01*
X3980000Y-27474000D02*
X6142400Y-25311600D01*
X-338000Y-28744000D02*
X932000Y-27474000D01*
X932000Y-27474000D02*
X3980000Y-27474000D01*
X6142400Y-25311600D02*
X6142400Y-19081566D01*
X6142400Y-19081566D02*
X6082417Y-19021583D01*
X6082417Y-19021583D02*
X6082417Y-18908417D01*
X6082417Y-18908417D02*
X4615000Y-17441000D01*
X4615000Y-17441000D02*
X4615000Y-15217000D01*
%TO.N,/SFTSW*%
X3420000Y-24898000D02*
X5504000Y-22814000D01*
X5504000Y-22814000D02*
X5504000Y-19346000D01*
X5504000Y-19346000D02*
X4488000Y-18330000D01*
X-1735000Y-17187000D02*
X-1735000Y-15217000D01*
X4488000Y-18330000D02*
X-592000Y-18330000D01*
X-592000Y-18330000D02*
X-1735000Y-17187000D01*
X-3080000Y-24898000D02*
X3420000Y-24898000D01*
X-6158500Y-24934000D02*
X-3116000Y-24934000D01*
X-3116000Y-24934000D02*
X-3080000Y-24898000D01*
%TO.N,VCC*%
X-3080000Y-20398000D02*
X3420000Y-20398000D01*
X-4275000Y-15217000D02*
X-4275000Y-19203000D01*
X-4275000Y-19203000D02*
X-3080000Y-20398000D01*
%TO.N,/CLK*%
X-3005000Y-10267000D02*
X-3005000Y-2455000D01*
X-3005000Y-2455000D02*
X-3132000Y-2328000D01*
X-5418000Y-2328000D02*
X-3132000Y-2328000D01*
X-1364000Y-550000D02*
X-3132000Y-2318000D01*
X-3132000Y-2318000D02*
X-3132000Y-2328000D01*
X-11260000Y-1958200D02*
X-11260000Y-804000D01*
X-11260000Y-804000D02*
X-10498000Y-42000D01*
X-10498000Y-42000D02*
X-6942000Y-42000D01*
X-6942000Y-42000D02*
X-6434000Y-550000D01*
X-6434000Y-550000D02*
X-6434000Y-1312000D01*
X-6434000Y-1312000D02*
X-5418000Y-2328000D01*
%TO.N,VCC*%
X-9990000Y2991800D02*
X-9990000Y1482000D01*
X-9990000Y1482000D02*
X-9736000Y1228000D01*
X-9736000Y1228000D02*
X-9228000Y1228000D01*
X-9228000Y1228000D02*
X-8233500Y2222500D01*
X-8233500Y2222500D02*
X-3894000Y2222500D01*
X-3904000Y-550000D02*
X-3904000Y2212500D01*
X-3904000Y2212500D02*
X-3894000Y2222500D01*
%TD*%
%TA.AperFunction,Conductor*%
%TO.N,GND*%
G36*
X29132938Y-30241065D02*
G01*
X29187423Y-30284804D01*
X29209612Y-30351056D01*
X29209700Y-30355715D01*
X29209700Y-34144811D01*
X29235408Y-34274053D01*
X29235766Y-34275853D01*
X29271892Y-34363067D01*
X29286898Y-34399296D01*
X29286899Y-34399298D01*
X29286901Y-34399301D01*
X29291317Y-34405910D01*
X29353394Y-34498814D01*
X29358562Y-34506549D01*
X29361129Y-34510390D01*
X29693158Y-34842419D01*
X29726643Y-34903742D01*
X29721659Y-34973434D01*
X29679787Y-35029367D01*
X29614323Y-35053784D01*
X29605477Y-35054100D01*
X4770524Y-35054100D01*
X4703485Y-35034415D01*
X4657730Y-34981611D01*
X4647786Y-34912453D01*
X4676811Y-34848897D01*
X4682842Y-34842419D01*
X4760870Y-34764391D01*
X5268870Y-34256391D01*
X5291694Y-34222233D01*
X5343102Y-34145296D01*
X5386348Y-34040890D01*
X5394234Y-34021853D01*
X5420300Y-33890807D01*
X5420300Y-33757194D01*
X5420300Y-33284255D01*
X5439985Y-33217216D01*
X5473177Y-33182680D01*
X5613401Y-33084495D01*
X5780495Y-32917401D01*
X5878682Y-32777174D01*
X5933258Y-32733551D01*
X5980256Y-32724300D01*
X6872195Y-32724300D01*
X6939234Y-32743985D01*
X6984989Y-32796789D01*
X6989898Y-32809289D01*
X7000186Y-32840334D01*
X7092288Y-32989656D01*
X7216344Y-33113712D01*
X7365666Y-33205814D01*
X7532203Y-33260999D01*
X7634991Y-33271500D01*
X8410008Y-33271499D01*
X8410016Y-33271498D01*
X8410019Y-33271498D01*
X8466302Y-33265748D01*
X8512797Y-33260999D01*
X8679334Y-33205814D01*
X8828656Y-33113712D01*
X8952712Y-32989656D01*
X8954752Y-32986347D01*
X8956745Y-32984555D01*
X8957193Y-32983989D01*
X8957289Y-32984065D01*
X9006694Y-32939623D01*
X9075656Y-32928395D01*
X9139740Y-32956234D01*
X9165829Y-32986339D01*
X9167681Y-32989341D01*
X9167683Y-32989344D01*
X9291654Y-33113315D01*
X9440875Y-33205356D01*
X9440880Y-33205358D01*
X9607302Y-33260505D01*
X9607309Y-33260506D01*
X9710019Y-33270999D01*
X9847499Y-33270999D01*
X10347500Y-33270999D01*
X10484972Y-33270999D01*
X10484986Y-33270998D01*
X10587697Y-33260505D01*
X10754119Y-33205358D01*
X10754124Y-33205356D01*
X10903345Y-33113315D01*
X11027315Y-32989345D01*
X11119356Y-32840124D01*
X11119358Y-32840119D01*
X11174505Y-32673697D01*
X11174506Y-32673690D01*
X11184999Y-32570986D01*
X11185000Y-32570973D01*
X11185000Y-32296000D01*
X10347500Y-32296000D01*
X10347500Y-33270999D01*
X9847499Y-33270999D01*
X9847500Y-33270998D01*
X9847500Y-32170000D01*
X9867185Y-32102961D01*
X9919989Y-32057206D01*
X9971500Y-32046000D01*
X10097500Y-32046000D01*
X10097500Y-31920000D01*
X10117185Y-31852961D01*
X10169989Y-31807206D01*
X10221500Y-31796000D01*
X11184999Y-31796000D01*
X11184999Y-31521028D01*
X11184998Y-31521013D01*
X11174505Y-31418302D01*
X11119358Y-31251880D01*
X11119356Y-31251875D01*
X11027315Y-31102654D01*
X10903345Y-30978684D01*
X10788487Y-30907839D01*
X10741763Y-30855891D01*
X10730540Y-30786928D01*
X10758384Y-30722846D01*
X10816453Y-30683990D01*
X10853584Y-30678300D01*
X26083694Y-30678300D01*
X26150733Y-30697985D01*
X26187503Y-30734479D01*
X26311833Y-30924782D01*
X26338644Y-30953906D01*
X26480256Y-31107738D01*
X26676491Y-31260474D01*
X26676493Y-31260475D01*
X26875497Y-31368171D01*
X26895190Y-31378828D01*
X27130386Y-31459571D01*
X27375665Y-31500500D01*
X27624335Y-31500500D01*
X27869614Y-31459571D01*
X28104810Y-31378828D01*
X28323509Y-31260474D01*
X28519744Y-31107738D01*
X28688164Y-30924785D01*
X28824173Y-30716607D01*
X28924063Y-30488881D01*
X28955406Y-30365110D01*
X28965494Y-30325275D01*
X29001034Y-30265119D01*
X29063454Y-30233727D01*
X29132938Y-30241065D01*
G37*
%TD.AperFunction*%
%TA.AperFunction,Conductor*%
G36*
X-10884497Y-27031210D02*
G01*
X-10878019Y-27037242D01*
X-10008870Y-27906391D01*
X-9914391Y-28000870D01*
X-9803296Y-28075102D01*
X-9767141Y-28090078D01*
X-9679853Y-28126234D01*
X-9548812Y-28152299D01*
X-9548808Y-28152300D01*
X-9548807Y-28152300D01*
X-9415193Y-28152300D01*
X-3972323Y-28152300D01*
X-3905284Y-28171985D01*
X-3884642Y-28188619D01*
X-3592619Y-28480642D01*
X-3559134Y-28541965D01*
X-3556300Y-28568323D01*
X-3556300Y-30807743D01*
X-3575985Y-30874782D01*
X-3609176Y-30909317D01*
X-3749399Y-31007503D01*
X-3871716Y-31129819D01*
X-3933040Y-31163303D01*
X-4002731Y-31158318D01*
X-4058665Y-31116447D01*
X-4075579Y-31085470D01*
X-4124646Y-30953913D01*
X-4124650Y-30953906D01*
X-4210810Y-30838812D01*
X-4210813Y-30838809D01*
X-4325907Y-30752649D01*
X-4325914Y-30752645D01*
X-4460621Y-30702403D01*
X-4460628Y-30702401D01*
X-4520156Y-30696000D01*
X-5168000Y-30696000D01*
X-5168000Y-31612988D01*
X-5225007Y-31580075D01*
X-5352174Y-31546000D01*
X-5483826Y-31546000D01*
X-5610993Y-31580075D01*
X-5668000Y-31612988D01*
X-5668000Y-30696000D01*
X-6315845Y-30696000D01*
X-6375373Y-30702401D01*
X-6375380Y-30702403D01*
X-6510087Y-30752645D01*
X-6510094Y-30752649D01*
X-6625188Y-30838809D01*
X-6625191Y-30838812D01*
X-6711351Y-30953906D01*
X-6711355Y-30953913D01*
X-6761597Y-31088620D01*
X-6761599Y-31088627D01*
X-6768000Y-31148155D01*
X-6768000Y-31796000D01*
X-5851012Y-31796000D01*
X-5883925Y-31853007D01*
X-5918000Y-31980174D01*
X-5918000Y-32111826D01*
X-5883925Y-32238993D01*
X-5851012Y-32296000D01*
X-6768000Y-32296000D01*
X-6768000Y-32943844D01*
X-6761599Y-33003372D01*
X-6761597Y-33003379D01*
X-6711355Y-33138086D01*
X-6711351Y-33138093D01*
X-6625191Y-33253187D01*
X-6625188Y-33253190D01*
X-6510094Y-33339350D01*
X-6510087Y-33339354D01*
X-6375380Y-33389596D01*
X-6375373Y-33389598D01*
X-6315845Y-33395999D01*
X-6315828Y-33396000D01*
X-5668000Y-33396000D01*
X-5668000Y-32479012D01*
X-5610993Y-32511925D01*
X-5483826Y-32546000D01*
X-5352174Y-32546000D01*
X-5225007Y-32511925D01*
X-5168000Y-32479012D01*
X-5168000Y-33396000D01*
X-4520172Y-33396000D01*
X-4520156Y-33395999D01*
X-4460628Y-33389598D01*
X-4460621Y-33389596D01*
X-4325914Y-33339354D01*
X-4325907Y-33339350D01*
X-4210813Y-33253190D01*
X-4210810Y-33253187D01*
X-4124650Y-33138093D01*
X-4124646Y-33138086D01*
X-4075578Y-33006529D01*
X-4033707Y-32950595D01*
X-3968243Y-32926178D01*
X-3899970Y-32941030D01*
X-3871715Y-32962181D01*
X-3749401Y-33084495D01*
X-3672865Y-33138086D01*
X-3555835Y-33220032D01*
X-3555833Y-33220033D01*
X-3555830Y-33220035D01*
X-3341663Y-33319903D01*
X-3113408Y-33381063D01*
X-2942681Y-33396000D01*
X-2878001Y-33401659D01*
X-2878000Y-33401659D01*
X-2877999Y-33401659D01*
X-2813319Y-33396000D01*
X-2642592Y-33381063D01*
X-2414337Y-33319903D01*
X-2200170Y-33220035D01*
X-2006599Y-33084495D01*
X-1839505Y-32917401D01*
X-1709575Y-32731842D01*
X-1654998Y-32688217D01*
X-1585500Y-32681023D01*
X-1523145Y-32712546D01*
X-1506425Y-32731842D01*
X-1413045Y-32865203D01*
X-1376495Y-32917401D01*
X-1209401Y-33084495D01*
X-1132865Y-33138086D01*
X-1015835Y-33220032D01*
X-1015833Y-33220033D01*
X-1015830Y-33220035D01*
X-801663Y-33319903D01*
X-573408Y-33381063D01*
X-402681Y-33396000D01*
X-338001Y-33401659D01*
X-338000Y-33401659D01*
X-337999Y-33401659D01*
X-273319Y-33396000D01*
X-102592Y-33381063D01*
X125663Y-33319903D01*
X339830Y-33220035D01*
X533401Y-33084495D01*
X700495Y-32917401D01*
X830425Y-32731842D01*
X885002Y-32688217D01*
X954500Y-32681023D01*
X1016855Y-32712546D01*
X1033575Y-32731842D01*
X1126955Y-32865203D01*
X1163505Y-32917401D01*
X1330599Y-33084495D01*
X1407135Y-33138086D01*
X1524165Y-33220032D01*
X1524167Y-33220033D01*
X1524170Y-33220035D01*
X1738337Y-33319903D01*
X1966592Y-33381063D01*
X2137319Y-33396000D01*
X2201999Y-33401659D01*
X2202000Y-33401659D01*
X2202001Y-33401659D01*
X2266681Y-33396000D01*
X2437408Y-33381063D01*
X2665663Y-33319903D01*
X2879830Y-33220035D01*
X3073401Y-33084495D01*
X3240495Y-32917401D01*
X3370425Y-32731842D01*
X3425002Y-32688217D01*
X3494500Y-32681023D01*
X3556855Y-32712546D01*
X3573575Y-32731842D01*
X3666955Y-32865203D01*
X3703505Y-32917401D01*
X3870599Y-33084495D01*
X4010823Y-33182680D01*
X4054448Y-33237256D01*
X4063700Y-33284255D01*
X4063700Y-33491677D01*
X4044015Y-33558716D01*
X4027381Y-33579358D01*
X3989358Y-33617381D01*
X3928035Y-33650866D01*
X3901677Y-33653700D01*
X-8941171Y-33653700D01*
X-9008210Y-33634015D01*
X-9020016Y-33624502D01*
X-9020408Y-33624981D01*
X-9177461Y-33496090D01*
X-9177468Y-33496086D01*
X-9351267Y-33403188D01*
X-9351273Y-33403186D01*
X-9539868Y-33345976D01*
X-9539871Y-33345975D01*
X-9736000Y-33326659D01*
X-9932130Y-33345975D01*
X-10120734Y-33403188D01*
X-10294533Y-33496086D01*
X-10294540Y-33496090D01*
X-10446884Y-33621116D01*
X-10571910Y-33773460D01*
X-10571914Y-33773467D01*
X-10664814Y-33947270D01*
X-10668684Y-33960030D01*
X-10706982Y-34018468D01*
X-10770795Y-34046924D01*
X-10839862Y-34036362D01*
X-10875025Y-34011714D01*
X-11053381Y-33833358D01*
X-11086866Y-33772035D01*
X-11089700Y-33745677D01*
X-11089700Y-27124923D01*
X-11070015Y-27057884D01*
X-11017211Y-27012129D01*
X-10948053Y-27002185D01*
X-10884497Y-27031210D01*
G37*
%TD.AperFunction*%
%TA.AperFunction,Conductor*%
G36*
X-24928372Y-29386694D02*
G01*
X-24877409Y-29417452D01*
X-23150619Y-31144242D01*
X-23117134Y-31205565D01*
X-23114300Y-31231923D01*
X-23114300Y-32752409D01*
X-23133985Y-32819448D01*
X-23186789Y-32865203D01*
X-23255947Y-32875147D01*
X-23319503Y-32846122D01*
X-23357277Y-32787344D01*
X-23361658Y-32765011D01*
X-23369495Y-32688302D01*
X-23424642Y-32521880D01*
X-23424644Y-32521875D01*
X-23516685Y-32372654D01*
X-23640655Y-32248684D01*
X-23789876Y-32156643D01*
X-23789881Y-32156641D01*
X-23956303Y-32101494D01*
X-23956310Y-32101493D01*
X-24059014Y-32091000D01*
X-24196500Y-32091000D01*
X-24196500Y-33192000D01*
X-24216185Y-33259039D01*
X-24268989Y-33304794D01*
X-24320500Y-33316000D01*
X-24572500Y-33316000D01*
X-24639539Y-33296315D01*
X-24685294Y-33243511D01*
X-24696500Y-33192000D01*
X-24696500Y-32091000D01*
X-24833973Y-32091000D01*
X-24833988Y-32091001D01*
X-24936698Y-32101494D01*
X-25103120Y-32156641D01*
X-25103125Y-32156643D01*
X-25252346Y-32248684D01*
X-25376317Y-32372655D01*
X-25376321Y-32372660D01*
X-25378174Y-32375665D01*
X-25379982Y-32377290D01*
X-25380798Y-32378323D01*
X-25380975Y-32378183D01*
X-25430126Y-32422385D01*
X-25499089Y-32433601D01*
X-25563169Y-32405752D01*
X-25589247Y-32375653D01*
X-25589263Y-32375628D01*
X-25591288Y-32372344D01*
X-25715344Y-32248288D01*
X-25715345Y-32248287D01*
X-25784298Y-32205756D01*
X-25831022Y-32153808D01*
X-25843200Y-32100218D01*
X-25843200Y-31474580D01*
X-25823515Y-31407541D01*
X-25778217Y-31365525D01*
X-25676491Y-31310474D01*
X-25480256Y-31157738D01*
X-25311836Y-30974785D01*
X-25175827Y-30766607D01*
X-25075937Y-30538881D01*
X-25014892Y-30297821D01*
X-25005225Y-30181161D01*
X-24994357Y-30050005D01*
X-24994357Y-30049994D01*
X-25014891Y-29802187D01*
X-25014893Y-29802175D01*
X-25054877Y-29644284D01*
X-25075937Y-29561119D01*
X-25078647Y-29554942D01*
X-25087549Y-29485644D01*
X-25057572Y-29422532D01*
X-24998233Y-29385644D01*
X-24928372Y-29386694D01*
G37*
%TD.AperFunction*%
%TA.AperFunction,Conductor*%
G36*
X-5131270Y-14201985D02*
G01*
X-5085515Y-14254789D01*
X-5074691Y-14316030D01*
X-5075500Y-14326302D01*
X-5075500Y-16107701D01*
X-5072599Y-16144567D01*
X-5072598Y-16144573D01*
X-5026746Y-16302393D01*
X-5026745Y-16302396D01*
X-4970568Y-16397386D01*
X-4953300Y-16460507D01*
X-4953300Y-19269811D01*
X-4927236Y-19400845D01*
X-4927234Y-19400853D01*
X-4905230Y-19453975D01*
X-4876105Y-19524291D01*
X-4876104Y-19524292D01*
X-4876102Y-19524296D01*
X-4870157Y-19533193D01*
X-4834393Y-19586717D01*
X-4834393Y-19586718D01*
X-4801874Y-19635386D01*
X-4801868Y-19635394D01*
X-4558750Y-19878511D01*
X-4525265Y-19939834D01*
X-4526225Y-19996632D01*
X-4565109Y-20150182D01*
X-4585643Y-20397994D01*
X-4585643Y-20398000D01*
X-4565110Y-20645812D01*
X-4565108Y-20645824D01*
X-4504064Y-20886881D01*
X-4404174Y-21114606D01*
X-4268167Y-21322782D01*
X-4261574Y-21329944D01*
X-4099744Y-21505738D01*
X-3903509Y-21658474D01*
X-3684810Y-21776828D01*
X-3449614Y-21857571D01*
X-3204335Y-21898500D01*
X-2955665Y-21898500D01*
X-2710386Y-21857571D01*
X-2475190Y-21776828D01*
X-2256491Y-21658474D01*
X-2060256Y-21505738D01*
X-1891836Y-21322785D01*
X-1809706Y-21197076D01*
X-1767503Y-21132479D01*
X-1714356Y-21087122D01*
X-1663694Y-21076300D01*
X2003694Y-21076300D01*
X2070733Y-21095985D01*
X2107503Y-21132479D01*
X2231833Y-21322782D01*
X2238426Y-21329944D01*
X2400256Y-21505738D01*
X2596491Y-21658474D01*
X2815190Y-21776828D01*
X3050386Y-21857571D01*
X3295665Y-21898500D01*
X3544335Y-21898500D01*
X3789614Y-21857571D01*
X4024810Y-21776828D01*
X4243509Y-21658474D01*
X4439744Y-21505738D01*
X4608164Y-21322785D01*
X4608166Y-21322781D01*
X4610470Y-21320279D01*
X4670357Y-21284289D01*
X4740195Y-21286389D01*
X4797811Y-21325913D01*
X4824913Y-21390312D01*
X4825700Y-21404262D01*
X4825700Y-22481676D01*
X4806015Y-22548715D01*
X4789381Y-22569357D01*
X3941641Y-23417096D01*
X3880318Y-23450581D01*
X3813697Y-23446696D01*
X3789616Y-23438429D01*
X3544335Y-23397500D01*
X3295665Y-23397500D01*
X3050383Y-23438429D01*
X2815197Y-23519169D01*
X2815188Y-23519172D01*
X2596493Y-23637524D01*
X2400257Y-23790261D01*
X2231833Y-23973217D01*
X2107503Y-24163521D01*
X2054356Y-24208878D01*
X2003694Y-24219700D01*
X-1663694Y-24219700D01*
X-1730733Y-24200015D01*
X-1767503Y-24163521D01*
X-1891834Y-23973217D01*
X-1913443Y-23949744D01*
X-2060256Y-23790262D01*
X-2256491Y-23637526D01*
X-2256493Y-23637525D01*
X-2256494Y-23637524D01*
X-2475189Y-23519172D01*
X-2475198Y-23519169D01*
X-2710384Y-23438429D01*
X-2955665Y-23397500D01*
X-3204335Y-23397500D01*
X-3449617Y-23438429D01*
X-3684803Y-23519169D01*
X-3684812Y-23519172D01*
X-3903507Y-23637524D01*
X-4099743Y-23790261D01*
X-4268167Y-23973217D01*
X-4404173Y-24181392D01*
X-4404228Y-24181518D01*
X-4404266Y-24181562D01*
X-4406615Y-24185904D01*
X-4407509Y-24185420D01*
X-4449188Y-24235001D01*
X-4515925Y-24255686D01*
X-4517781Y-24255700D01*
X-5008195Y-24255700D01*
X-5075234Y-24236015D01*
X-5120989Y-24183211D01*
X-5125901Y-24170705D01*
X-5136186Y-24139666D01*
X-5228288Y-23990344D01*
X-5352344Y-23866288D01*
X-5445112Y-23809069D01*
X-5501664Y-23774187D01*
X-5501669Y-23774185D01*
X-5503138Y-23773698D01*
X-5668203Y-23719001D01*
X-5668205Y-23719000D01*
X-5770990Y-23708500D01*
X-6546002Y-23708500D01*
X-6546020Y-23708501D01*
X-6648797Y-23719000D01*
X-6648800Y-23719001D01*
X-6815332Y-23774185D01*
X-6815337Y-23774187D01*
X-6964658Y-23866289D01*
X-7088712Y-23990343D01*
X-7088717Y-23990349D01*
X-7090759Y-23993661D01*
X-7092753Y-23995453D01*
X-7093193Y-23996011D01*
X-7093289Y-23995935D01*
X-7142709Y-24040383D01*
X-7211672Y-24051602D01*
X-7275753Y-24023755D01*
X-7301832Y-23993656D01*
X-7303681Y-23990659D01*
X-7303684Y-23990655D01*
X-7427655Y-23866684D01*
X-7576876Y-23774643D01*
X-7576881Y-23774641D01*
X-7743303Y-23719494D01*
X-7743310Y-23719493D01*
X-7846014Y-23709000D01*
X-7983500Y-23709000D01*
X-7983500Y-26158999D01*
X-7846028Y-26158999D01*
X-7846014Y-26158998D01*
X-7743303Y-26148505D01*
X-7576881Y-26093358D01*
X-7576876Y-26093356D01*
X-7427655Y-26001315D01*
X-7303682Y-25877342D01*
X-7301835Y-25874348D01*
X-7300031Y-25872724D01*
X-7299202Y-25871677D01*
X-7299024Y-25871818D01*
X-7249890Y-25827621D01*
X-7180927Y-25816396D01*
X-7116844Y-25844236D01*
X-7090757Y-25874341D01*
X-7088712Y-25877656D01*
X-6964656Y-26001712D01*
X-6815334Y-26093814D01*
X-6648797Y-26148999D01*
X-6546009Y-26159500D01*
X-5770992Y-26159499D01*
X-5770984Y-26159498D01*
X-5770981Y-26159498D01*
X-5697924Y-26152035D01*
X-5668203Y-26148999D01*
X-5501666Y-26093814D01*
X-5352344Y-26001712D01*
X-5228288Y-25877656D01*
X-5136186Y-25728334D01*
X-5125901Y-25697294D01*
X-5086127Y-25639850D01*
X-5021611Y-25613028D01*
X-5008195Y-25612300D01*
X-4472785Y-25612300D01*
X-4405746Y-25631985D01*
X-4368979Y-25668476D01*
X-4268164Y-25822785D01*
X-4099744Y-26005738D01*
X-3903509Y-26158474D01*
X-3684810Y-26276828D01*
X-3449614Y-26357571D01*
X-3204335Y-26398500D01*
X-2955665Y-26398500D01*
X-2710386Y-26357571D01*
X-2475190Y-26276828D01*
X-2256491Y-26158474D01*
X-2060256Y-26005738D01*
X-1891836Y-25822785D01*
X-1887662Y-25816396D01*
X-1767503Y-25632479D01*
X-1714356Y-25587122D01*
X-1663694Y-25576300D01*
X2003694Y-25576300D01*
X2070733Y-25595985D01*
X2107503Y-25632479D01*
X2231833Y-25822782D01*
X2231836Y-25822785D01*
X2400256Y-26005738D01*
X2596491Y-26158474D01*
X2815190Y-26276828D01*
X3050386Y-26357571D01*
X3295665Y-26398500D01*
X3544335Y-26398500D01*
X3789614Y-26357571D01*
X3799792Y-26354077D01*
X3811916Y-26349915D01*
X3881714Y-26346763D01*
X3942136Y-26381848D01*
X3973998Y-26444030D01*
X3967184Y-26513567D01*
X3939862Y-26554876D01*
X3735358Y-26759381D01*
X3674035Y-26792866D01*
X3647677Y-26795700D01*
X865188Y-26795700D01*
X734154Y-26821764D01*
X734142Y-26821767D01*
X683013Y-26842945D01*
X683014Y-26842946D01*
X610706Y-26872896D01*
X499609Y-26947129D01*
X499605Y-26947132D01*
X-459652Y-27906391D01*
X-770391Y-28217130D01*
X-817632Y-28264370D01*
X-864872Y-28311610D01*
X-939787Y-28423728D01*
X-941434Y-28428334D01*
X-987865Y-28540429D01*
X-990234Y-28546147D01*
X-1005157Y-28621172D01*
X-1005157Y-28621173D01*
X-1016300Y-28677191D01*
X-1016300Y-30807743D01*
X-1035985Y-30874782D01*
X-1069176Y-30909317D01*
X-1209402Y-31007505D01*
X-1376495Y-31174597D01*
X-1506425Y-31360158D01*
X-1561002Y-31403783D01*
X-1630500Y-31410977D01*
X-1692855Y-31379454D01*
X-1709575Y-31360158D01*
X-1839506Y-31174597D01*
X-2006599Y-31007505D01*
X-2146824Y-30909317D01*
X-2190449Y-30854740D01*
X-2199700Y-30807743D01*
X-2199700Y-28169190D01*
X-2215101Y-28091769D01*
X-2215101Y-28091764D01*
X-2225765Y-28038154D01*
X-2225766Y-28038147D01*
X-2274574Y-27920316D01*
X-2276217Y-27915724D01*
X-2276898Y-27914704D01*
X-2351130Y-27803609D01*
X-2445609Y-27709130D01*
X-2736895Y-27417844D01*
X-3207606Y-26947132D01*
X-3207614Y-26947126D01*
X-3231302Y-26931298D01*
X-3231303Y-26931298D01*
X-3296587Y-26887676D01*
X-3318705Y-26872897D01*
X-3364087Y-26854100D01*
X-3442147Y-26821766D01*
X-3442155Y-26821764D01*
X-3573189Y-26795700D01*
X-3573193Y-26795700D01*
X-9149677Y-26795700D01*
X-9216716Y-26776015D01*
X-9237358Y-26759381D01*
X-9783381Y-26213358D01*
X-9816866Y-26152035D01*
X-9819700Y-26125677D01*
X-9819700Y-25458986D01*
X-9320999Y-25458986D01*
X-9310506Y-25561697D01*
X-9255359Y-25728119D01*
X-9255357Y-25728124D01*
X-9163316Y-25877345D01*
X-9039346Y-26001315D01*
X-8890125Y-26093356D01*
X-8890120Y-26093358D01*
X-8723698Y-26148505D01*
X-8723691Y-26148506D01*
X-8620981Y-26158999D01*
X-8483501Y-26158999D01*
X-8483500Y-26158998D01*
X-8483500Y-25184000D01*
X-9320999Y-25184000D01*
X-9320999Y-25458986D01*
X-9819700Y-25458986D01*
X-9819700Y-24409013D01*
X-9321000Y-24409013D01*
X-9321000Y-24684000D01*
X-8483500Y-24684000D01*
X-8483500Y-23709000D01*
X-8620973Y-23709000D01*
X-8620988Y-23709001D01*
X-8723698Y-23719494D01*
X-8890120Y-23774641D01*
X-8890125Y-23774643D01*
X-9039346Y-23866684D01*
X-9163316Y-23990654D01*
X-9255357Y-24139875D01*
X-9255359Y-24139880D01*
X-9310506Y-24306302D01*
X-9310507Y-24306309D01*
X-9321000Y-24409013D01*
X-9819700Y-24409013D01*
X-9819700Y-21668702D01*
X-9802574Y-21610375D01*
X-9804467Y-21609363D01*
X-9801602Y-21604001D01*
X-9801598Y-21603996D01*
X-9763199Y-21511292D01*
X-9763197Y-21511289D01*
X-9757523Y-21497587D01*
X-9750466Y-21480552D01*
X-9724400Y-21349506D01*
X-9724400Y-21215893D01*
X-9724400Y-15310493D01*
X-9724856Y-15308203D01*
X-9731667Y-15273961D01*
X-9733821Y-15263130D01*
X-9735998Y-15252187D01*
X-9750465Y-15179454D01*
X-9750466Y-15179447D01*
X-9793280Y-15076086D01*
X-9801598Y-15056004D01*
X-9875830Y-14944909D01*
X-9970309Y-14850430D01*
X-10144458Y-14676281D01*
X-10177943Y-14614958D01*
X-10172959Y-14545266D01*
X-10131087Y-14489333D01*
X-10065623Y-14464916D01*
X-10056777Y-14464600D01*
X-9556658Y-14464600D01*
X-9556657Y-14464599D01*
X-9425613Y-14438534D01*
X-9338326Y-14402378D01*
X-9302170Y-14387402D01*
X-9191075Y-14313170D01*
X-9096596Y-14218691D01*
X-9096524Y-14218619D01*
X-9035201Y-14185134D01*
X-9008843Y-14182300D01*
X-5198309Y-14182300D01*
X-5131270Y-14201985D01*
G37*
%TD.AperFunction*%
%TA.AperFunction,Conductor*%
G36*
X6269034Y-26246741D02*
G01*
X6324967Y-26288613D01*
X6349384Y-26354077D01*
X6349700Y-26362923D01*
X6349700Y-26887676D01*
X6330015Y-26954715D01*
X6313381Y-26975357D01*
X2598755Y-30689982D01*
X2537432Y-30723467D01*
X2478982Y-30722076D01*
X2437416Y-30710939D01*
X2437412Y-30710938D01*
X2437408Y-30710937D01*
X2437406Y-30710936D01*
X2437403Y-30710936D01*
X2202001Y-30690341D01*
X2201999Y-30690341D01*
X1966596Y-30710936D01*
X1966586Y-30710938D01*
X1738344Y-30772094D01*
X1738335Y-30772098D01*
X1524171Y-30871964D01*
X1524169Y-30871965D01*
X1330597Y-31007505D01*
X1163505Y-31174597D01*
X1033575Y-31360158D01*
X978998Y-31403783D01*
X909500Y-31410977D01*
X847145Y-31379454D01*
X830425Y-31360158D01*
X700494Y-31174597D01*
X533401Y-31007505D01*
X393176Y-30909317D01*
X349551Y-30854740D01*
X340300Y-30807743D01*
X340300Y-29076323D01*
X359985Y-29009284D01*
X376619Y-28988642D01*
X1176642Y-28188619D01*
X1237965Y-28155134D01*
X1264323Y-28152300D01*
X4046808Y-28152300D01*
X4046809Y-28152299D01*
X4177853Y-28126234D01*
X4265140Y-28090078D01*
X4301296Y-28075102D01*
X4412391Y-28000870D01*
X4506870Y-27906391D01*
X6138019Y-26275242D01*
X6199342Y-26241757D01*
X6269034Y-26246741D01*
G37*
%TD.AperFunction*%
%TA.AperFunction,Conductor*%
G36*
X19254210Y-12169985D02*
G01*
X19266015Y-12179497D01*
X19266408Y-12179019D01*
X19423460Y-12307909D01*
X19423467Y-12307913D01*
X19597266Y-12400811D01*
X19597269Y-12400811D01*
X19597273Y-12400814D01*
X19785868Y-12458024D01*
X19982000Y-12477341D01*
X20178132Y-12458024D01*
X20366727Y-12400814D01*
X20372559Y-12397697D01*
X20489933Y-12334959D01*
X20540538Y-12307910D01*
X20678218Y-12194917D01*
X20742527Y-12167605D01*
X20811395Y-12179396D01*
X20862955Y-12226548D01*
X20880883Y-12290771D01*
X20880883Y-17969662D01*
X20906947Y-18100696D01*
X20906949Y-18100704D01*
X20935281Y-18169103D01*
X20958078Y-18224141D01*
X20958079Y-18224144D01*
X20958081Y-18224147D01*
X21013653Y-18307315D01*
X21032313Y-18335242D01*
X21032314Y-18335243D01*
X21032317Y-18335247D01*
X22736262Y-20039191D01*
X22806147Y-20109076D01*
X22830742Y-20133671D01*
X22871837Y-20161130D01*
X22941836Y-20207902D01*
X22977991Y-20222878D01*
X23065279Y-20259034D01*
X23196320Y-20285099D01*
X23196324Y-20285100D01*
X23196325Y-20285100D01*
X23329939Y-20285100D01*
X30183643Y-20285100D01*
X30250682Y-20304785D01*
X30271324Y-20321419D01*
X31146981Y-21197076D01*
X31180466Y-21258399D01*
X31183300Y-21284757D01*
X31183300Y-27200077D01*
X31163615Y-27267116D01*
X31146981Y-27287758D01*
X29455609Y-28979130D01*
X29425455Y-29009284D01*
X29361128Y-29073610D01*
X29286213Y-29185728D01*
X29284566Y-29190334D01*
X29235766Y-29308146D01*
X29235764Y-29308154D01*
X29213059Y-29422296D01*
X29213060Y-29422297D01*
X29209700Y-29439190D01*
X29209700Y-29644284D01*
X29190015Y-29711323D01*
X29137211Y-29757078D01*
X29068053Y-29767022D01*
X29004497Y-29737997D01*
X28966723Y-29679219D01*
X28965494Y-29674725D01*
X28936725Y-29561121D01*
X28924063Y-29511119D01*
X28824173Y-29283393D01*
X28763375Y-29190334D01*
X28688166Y-29075217D01*
X28599712Y-28979131D01*
X28519744Y-28892262D01*
X28323509Y-28739526D01*
X28323507Y-28739525D01*
X28323506Y-28739524D01*
X28104811Y-28621172D01*
X28104802Y-28621169D01*
X27869616Y-28540429D01*
X27624335Y-28499500D01*
X27375665Y-28499500D01*
X27130383Y-28540429D01*
X26895197Y-28621169D01*
X26895188Y-28621172D01*
X26676493Y-28739524D01*
X26480257Y-28892261D01*
X26311833Y-29075217D01*
X26187503Y-29265521D01*
X26134356Y-29310878D01*
X26083694Y-29321700D01*
X8753188Y-29321700D01*
X8622154Y-29347764D01*
X8622142Y-29347767D01*
X8571013Y-29368945D01*
X8571014Y-29368946D01*
X8498706Y-29398896D01*
X8391701Y-29470396D01*
X8391692Y-29470402D01*
X8387610Y-29473128D01*
X7860745Y-29999994D01*
X7590109Y-30270630D01*
X7562927Y-30297812D01*
X7495628Y-30365110D01*
X7421396Y-30476206D01*
X7421395Y-30476208D01*
X7416147Y-30488880D01*
X7416147Y-30488881D01*
X7370267Y-30599644D01*
X7370264Y-30599654D01*
X7349957Y-30701748D01*
X7349957Y-30701749D01*
X7344200Y-30730690D01*
X7344200Y-30830218D01*
X7324515Y-30897257D01*
X7285298Y-30935756D01*
X7216344Y-30978287D01*
X7092289Y-31102342D01*
X7000187Y-31251663D01*
X7000186Y-31251666D01*
X6989901Y-31282705D01*
X6950127Y-31340150D01*
X6885611Y-31366972D01*
X6872195Y-31367700D01*
X5980255Y-31367700D01*
X5913216Y-31348015D01*
X5878680Y-31314823D01*
X5780495Y-31174599D01*
X5613401Y-31007505D01*
X5559426Y-30969711D01*
X5419834Y-30871967D01*
X5419830Y-30871965D01*
X5348727Y-30838809D01*
X5205663Y-30772097D01*
X5205659Y-30772096D01*
X5205655Y-30772094D01*
X4977413Y-30710938D01*
X4977403Y-30710936D01*
X4799932Y-30695409D01*
X4734863Y-30669956D01*
X4693885Y-30613365D01*
X4690007Y-30543603D01*
X4723057Y-30484202D01*
X7554870Y-27652391D01*
X7629102Y-27541296D01*
X7660459Y-27465593D01*
X7680234Y-27417852D01*
X7706300Y-27286806D01*
X7706300Y-27153193D01*
X7706300Y-23000000D01*
X22294592Y-23000000D01*
X22314201Y-23286680D01*
X22372666Y-23568034D01*
X22372667Y-23568037D01*
X22468894Y-23838793D01*
X22468893Y-23838793D01*
X22601098Y-24093935D01*
X22766812Y-24328700D01*
X22851620Y-24419506D01*
X22962947Y-24538708D01*
X23185853Y-24720055D01*
X23277090Y-24775538D01*
X23431382Y-24869365D01*
X23618237Y-24950526D01*
X23694942Y-24983844D01*
X23971642Y-25061371D01*
X24221920Y-25095771D01*
X24256321Y-25100500D01*
X24256322Y-25100500D01*
X24543679Y-25100500D01*
X24574370Y-25096281D01*
X24828358Y-25061371D01*
X25105058Y-24983844D01*
X25302680Y-24898005D01*
X25368617Y-24869365D01*
X25368620Y-24869363D01*
X25368625Y-24869361D01*
X25614147Y-24720055D01*
X25837053Y-24538708D01*
X26033189Y-24328698D01*
X26198901Y-24093936D01*
X26331104Y-23838797D01*
X26427334Y-23568032D01*
X26485798Y-23286686D01*
X26505408Y-23000000D01*
X26485798Y-22713314D01*
X26427334Y-22431968D01*
X26331105Y-22161206D01*
X26331106Y-22161206D01*
X26198901Y-21906064D01*
X26033187Y-21671299D01*
X25948528Y-21580652D01*
X25837053Y-21461292D01*
X25675604Y-21329944D01*
X25614146Y-21279944D01*
X25368617Y-21130634D01*
X25105063Y-21016158D01*
X25105061Y-21016157D01*
X25105058Y-21016156D01*
X24975578Y-20979877D01*
X24828364Y-20938630D01*
X24828359Y-20938629D01*
X24828358Y-20938629D01*
X24686018Y-20919064D01*
X24543679Y-20899500D01*
X24543678Y-20899500D01*
X24256322Y-20899500D01*
X24256321Y-20899500D01*
X23971642Y-20938629D01*
X23971635Y-20938630D01*
X23793188Y-20988629D01*
X23694942Y-21016156D01*
X23694939Y-21016156D01*
X23694936Y-21016158D01*
X23694935Y-21016158D01*
X23431382Y-21130634D01*
X23185853Y-21279944D01*
X22962950Y-21461289D01*
X22962947Y-21461291D01*
X22962947Y-21461292D01*
X22944967Y-21480544D01*
X22766812Y-21671299D01*
X22601098Y-21906064D01*
X22468894Y-22161206D01*
X22372667Y-22431962D01*
X22372666Y-22431965D01*
X22314201Y-22713319D01*
X22294592Y-23000000D01*
X7706300Y-23000000D01*
X7706300Y-22327193D01*
X7706300Y-12820323D01*
X7725985Y-12753284D01*
X7742619Y-12732642D01*
X8288642Y-12186619D01*
X8349965Y-12153134D01*
X8376323Y-12150300D01*
X19187171Y-12150300D01*
X19254210Y-12169985D01*
G37*
%TD.AperFunction*%
%TA.AperFunction,Conductor*%
G36*
X-2811961Y-15236685D02*
G01*
X-2766206Y-15289489D01*
X-2755000Y-15341000D01*
X-2755000Y-16689295D01*
X-2754999Y-16689295D01*
X-2752514Y-16689100D01*
X-2594800Y-16643280D01*
X-2587646Y-16640185D01*
X-2586403Y-16643058D01*
X-2532766Y-16629419D01*
X-2466492Y-16651541D01*
X-2422698Y-16705983D01*
X-2413300Y-16753336D01*
X-2413300Y-17253811D01*
X-2387236Y-17384846D01*
X-2387235Y-17384850D01*
X-2387234Y-17384853D01*
X-2364157Y-17440564D01*
X-2364158Y-17440564D01*
X-2364157Y-17440565D01*
X-2336103Y-17508295D01*
X-2311794Y-17544675D01*
X-2287151Y-17581556D01*
X-2263060Y-17617610D01*
X-2261867Y-17619395D01*
X-2261865Y-17619397D01*
X-1118870Y-18762391D01*
X-1024391Y-18856870D01*
X-913296Y-18931102D01*
X-913295Y-18931102D01*
X-913294Y-18931103D01*
X-877148Y-18946075D01*
X-877141Y-18946078D01*
X-789853Y-18982234D01*
X-658812Y-19008299D01*
X-658808Y-19008300D01*
X-658807Y-19008300D01*
X-525193Y-19008300D01*
X2401321Y-19008300D01*
X2468360Y-19027985D01*
X2514115Y-19080789D01*
X2524059Y-19149947D01*
X2495034Y-19213503D01*
X2477483Y-19230153D01*
X2400262Y-19290256D01*
X2400259Y-19290259D01*
X2231833Y-19473217D01*
X2107503Y-19663521D01*
X2054356Y-19708878D01*
X2003694Y-19719700D01*
X-1663694Y-19719700D01*
X-1730733Y-19700015D01*
X-1767503Y-19663521D01*
X-1891834Y-19473217D01*
X-1913443Y-19449744D01*
X-2060256Y-19290262D01*
X-2256491Y-19137526D01*
X-2256493Y-19137525D01*
X-2256494Y-19137524D01*
X-2475189Y-19019172D01*
X-2475198Y-19019169D01*
X-2710384Y-18938429D01*
X-2955665Y-18897500D01*
X-3204335Y-18897500D01*
X-3452291Y-18938875D01*
X-3521656Y-18930493D01*
X-3575478Y-18885940D01*
X-3596668Y-18819361D01*
X-3596700Y-18816566D01*
X-3596700Y-16753336D01*
X-3577015Y-16686297D01*
X-3524211Y-16640542D01*
X-3455053Y-16630598D01*
X-3423080Y-16641861D01*
X-3422354Y-16640185D01*
X-3415201Y-16643280D01*
X-3257486Y-16689100D01*
X-3257489Y-16689100D01*
X-3255002Y-16689295D01*
X-3255000Y-16689295D01*
X-3255000Y-15341000D01*
X-3235315Y-15273961D01*
X-3182511Y-15228206D01*
X-3131000Y-15217000D01*
X-2879000Y-15217000D01*
X-2811961Y-15236685D01*
G37*
%TD.AperFunction*%
%TA.AperFunction,Conductor*%
G36*
X26320716Y-8105985D02*
G01*
X26341358Y-8122619D01*
X26908881Y-8690142D01*
X26942366Y-8751465D01*
X26945200Y-8777823D01*
X26945200Y-9494218D01*
X26925515Y-9561257D01*
X26886298Y-9599756D01*
X26817344Y-9642287D01*
X26693288Y-9766343D01*
X26693283Y-9766349D01*
X26691241Y-9769661D01*
X26689247Y-9771453D01*
X26688807Y-9772011D01*
X26688711Y-9771935D01*
X26639291Y-9816383D01*
X26570328Y-9827602D01*
X26506247Y-9799755D01*
X26480168Y-9769656D01*
X26478319Y-9766659D01*
X26478316Y-9766655D01*
X26354345Y-9642684D01*
X26205124Y-9550643D01*
X26205119Y-9550641D01*
X26038697Y-9495494D01*
X26038690Y-9495493D01*
X25935986Y-9485000D01*
X25798500Y-9485000D01*
X25798500Y-11934999D01*
X25935972Y-11934999D01*
X25935986Y-11934998D01*
X26038697Y-11924505D01*
X26205119Y-11869358D01*
X26205124Y-11869356D01*
X26354345Y-11777315D01*
X26478318Y-11653342D01*
X26480165Y-11650348D01*
X26481969Y-11648724D01*
X26482798Y-11647677D01*
X26482976Y-11647818D01*
X26532110Y-11603621D01*
X26601073Y-11592396D01*
X26665156Y-11620236D01*
X26691243Y-11650341D01*
X26693288Y-11653656D01*
X26693289Y-11653657D01*
X26785381Y-11745749D01*
X26818866Y-11807072D01*
X26821700Y-11833430D01*
X26821700Y-14087054D01*
X26802015Y-14154093D01*
X26756718Y-14196108D01*
X26676501Y-14239519D01*
X26676494Y-14239523D01*
X26480257Y-14392261D01*
X26311833Y-14575217D01*
X26175826Y-14783393D01*
X26075936Y-15011118D01*
X26014892Y-15252175D01*
X26014890Y-15252187D01*
X25994357Y-15499994D01*
X25994357Y-15500005D01*
X26014890Y-15747812D01*
X26014892Y-15747824D01*
X26075936Y-15988881D01*
X26175826Y-16216606D01*
X26311833Y-16424782D01*
X26311836Y-16424785D01*
X26480256Y-16607738D01*
X26676491Y-16760474D01*
X26895190Y-16878828D01*
X27130386Y-16959571D01*
X27375665Y-17000500D01*
X27624335Y-17000500D01*
X27869614Y-16959571D01*
X28104810Y-16878828D01*
X28323509Y-16760474D01*
X28519744Y-16607738D01*
X28658772Y-16456712D01*
X28718657Y-16420724D01*
X28788495Y-16422824D01*
X28841226Y-16456711D01*
X28980256Y-16607738D01*
X29176491Y-16760474D01*
X29395190Y-16878828D01*
X29630386Y-16959571D01*
X29875665Y-17000500D01*
X30124335Y-17000500D01*
X30369614Y-16959571D01*
X30604810Y-16878828D01*
X30823509Y-16760474D01*
X30879411Y-16716963D01*
X30944401Y-16691321D01*
X31012941Y-16704887D01*
X31054837Y-16740506D01*
X31142452Y-16857544D01*
X31142455Y-16857547D01*
X31257664Y-16943793D01*
X31257671Y-16943797D01*
X31392517Y-16994091D01*
X31392516Y-16994091D01*
X31399344Y-16994825D01*
X31452127Y-17000500D01*
X33547872Y-17000499D01*
X33607483Y-16994091D01*
X33742331Y-16943796D01*
X33857546Y-16857546D01*
X33943796Y-16742331D01*
X33994091Y-16607483D01*
X34000500Y-16547873D01*
X34000499Y-14452128D01*
X33994091Y-14392517D01*
X33992183Y-14387402D01*
X33943797Y-14257671D01*
X33943793Y-14257664D01*
X33857547Y-14142455D01*
X33857544Y-14142452D01*
X33742335Y-14056206D01*
X33742328Y-14056202D01*
X33607482Y-14005908D01*
X33607483Y-14005908D01*
X33547883Y-13999501D01*
X33547881Y-13999500D01*
X33547873Y-13999500D01*
X33547865Y-13999500D01*
X33302300Y-13999500D01*
X33235261Y-13979815D01*
X33189506Y-13927011D01*
X33178300Y-13875500D01*
X33178300Y-13628181D01*
X33197985Y-13561142D01*
X33237204Y-13522642D01*
X33373198Y-13438761D01*
X33438294Y-13420300D01*
X33919171Y-13420300D01*
X33986210Y-13439985D01*
X33998015Y-13449497D01*
X33998408Y-13449019D01*
X34155460Y-13577909D01*
X34155467Y-13577913D01*
X34329266Y-13670811D01*
X34329269Y-13670811D01*
X34329273Y-13670814D01*
X34517868Y-13728024D01*
X34714000Y-13747341D01*
X34910132Y-13728024D01*
X35098727Y-13670814D01*
X35119326Y-13659804D01*
X35251425Y-13589195D01*
X35272538Y-13577910D01*
X35424883Y-13452883D01*
X35549910Y-13300538D01*
X35571424Y-13260289D01*
X35601842Y-13203381D01*
X35650804Y-13153537D01*
X35718941Y-13138076D01*
X35784621Y-13161907D01*
X35826990Y-13217465D01*
X35835200Y-13261834D01*
X35835200Y-16198177D01*
X35815515Y-16265216D01*
X35798881Y-16285858D01*
X34469358Y-17615381D01*
X34408035Y-17648866D01*
X34381677Y-17651700D01*
X24124323Y-17651700D01*
X24057284Y-17632015D01*
X24036642Y-17615381D01*
X23744619Y-17323358D01*
X23711134Y-17262035D01*
X23708300Y-17235677D01*
X23708300Y-11234986D01*
X24461001Y-11234986D01*
X24471494Y-11337697D01*
X24526641Y-11504119D01*
X24526643Y-11504124D01*
X24618684Y-11653345D01*
X24742654Y-11777315D01*
X24891875Y-11869356D01*
X24891880Y-11869358D01*
X25058302Y-11924505D01*
X25058309Y-11924506D01*
X25161019Y-11934999D01*
X25298499Y-11934999D01*
X25298500Y-11934998D01*
X25298500Y-10960000D01*
X24461001Y-10960000D01*
X24461001Y-11234986D01*
X23708300Y-11234986D01*
X23708300Y-10185013D01*
X24461000Y-10185013D01*
X24461000Y-10460000D01*
X25298500Y-10460000D01*
X25298500Y-9485000D01*
X25161027Y-9485000D01*
X25161012Y-9485001D01*
X25058302Y-9495494D01*
X24891880Y-9550641D01*
X24891875Y-9550643D01*
X24742654Y-9642684D01*
X24618684Y-9766654D01*
X24526643Y-9915875D01*
X24526641Y-9915880D01*
X24471494Y-10082302D01*
X24471493Y-10082309D01*
X24461000Y-10185013D01*
X23708300Y-10185013D01*
X23708300Y-9373191D01*
X23701583Y-9339426D01*
X23696240Y-9312564D01*
X23695585Y-9309273D01*
X23682235Y-9242154D01*
X23682234Y-9242147D01*
X23657155Y-9181602D01*
X23638045Y-9135467D01*
X23631104Y-9118708D01*
X23631103Y-9118706D01*
X23556871Y-9007610D01*
X23513015Y-8963754D01*
X23462391Y-8913130D01*
X22847242Y-8297981D01*
X22813757Y-8236658D01*
X22818741Y-8166966D01*
X22860613Y-8111033D01*
X22926077Y-8086616D01*
X22934923Y-8086300D01*
X26253677Y-8086300D01*
X26320716Y-8105985D01*
G37*
%TD.AperFunction*%
%TA.AperFunction,Conductor*%
G36*
X-11851726Y-3277304D02*
G01*
X-11819305Y-3298140D01*
X-11818031Y-3296498D01*
X-11811868Y-3301278D01*
X-11811865Y-3301281D01*
X-11670398Y-3384944D01*
X-11666942Y-3385948D01*
X-11512574Y-3430797D01*
X-11512571Y-3430797D01*
X-11512569Y-3430798D01*
X-11475694Y-3433700D01*
X-11475686Y-3433700D01*
X-11044314Y-3433700D01*
X-11044306Y-3433700D01*
X-11007431Y-3430798D01*
X-11007429Y-3430797D01*
X-11007427Y-3430797D01*
X-10944515Y-3412519D01*
X-10849602Y-3384944D01*
X-10842592Y-3380798D01*
X-10774872Y-3363613D01*
X-10708608Y-3385770D01*
X-10664843Y-3440233D01*
X-10657852Y-3463337D01*
X-10642236Y-3541845D01*
X-10642234Y-3541853D01*
X-10612972Y-3612497D01*
X-10591105Y-3665290D01*
X-10591101Y-3665297D01*
X-10552153Y-3723588D01*
X-10552148Y-3723593D01*
X-10516869Y-3776393D01*
X-10516868Y-3776394D01*
X-10008870Y-4284391D01*
X-9960094Y-4333167D01*
X-9914390Y-4378871D01*
X-9803299Y-4453100D01*
X-9803300Y-4453100D01*
X-9803298Y-4453101D01*
X-9803296Y-4453102D01*
X-9767141Y-4468077D01*
X-9741578Y-4478666D01*
X-9741575Y-4478667D01*
X-9679853Y-4504234D01*
X-9635827Y-4512991D01*
X-9548812Y-4530299D01*
X-9548808Y-4530300D01*
X-9548807Y-4530300D01*
X-6004323Y-4530300D01*
X-5937284Y-4549985D01*
X-5916642Y-4566619D01*
X-4989619Y-5493642D01*
X-4956134Y-5554965D01*
X-4953300Y-5581323D01*
X-4953300Y-9023491D01*
X-4970567Y-9086611D01*
X-5026746Y-9181605D01*
X-5026746Y-9181606D01*
X-5072598Y-9339426D01*
X-5072599Y-9339432D01*
X-5075500Y-9376298D01*
X-5075500Y-9464700D01*
X-5095185Y-9531739D01*
X-5147989Y-9577494D01*
X-5199500Y-9588700D01*
X-6139700Y-9588700D01*
X-6206739Y-9569015D01*
X-6252494Y-9516211D01*
X-6263700Y-9464700D01*
X-6263700Y-6678828D01*
X-6244015Y-6611789D01*
X-6234498Y-6599988D01*
X-6234981Y-6599592D01*
X-6106091Y-6442539D01*
X-6106087Y-6442532D01*
X-6013189Y-6268733D01*
X-6013189Y-6268732D01*
X-6013186Y-6268727D01*
X-5955976Y-6080132D01*
X-5936659Y-5884000D01*
X-5955976Y-5687868D01*
X-6013186Y-5499273D01*
X-6013189Y-5499269D01*
X-6013189Y-5499266D01*
X-6106087Y-5325467D01*
X-6106091Y-5325460D01*
X-6231117Y-5173116D01*
X-6383461Y-5048090D01*
X-6383468Y-5048086D01*
X-6557267Y-4955188D01*
X-6557273Y-4955186D01*
X-6745868Y-4897976D01*
X-6745871Y-4897975D01*
X-6942000Y-4878659D01*
X-7138130Y-4897975D01*
X-7326734Y-4955188D01*
X-7500533Y-5048086D01*
X-7500540Y-5048090D01*
X-7652884Y-5173116D01*
X-7777910Y-5325460D01*
X-7777914Y-5325467D01*
X-7870812Y-5499266D01*
X-7928025Y-5687870D01*
X-7947341Y-5884000D01*
X-7928025Y-6080129D01*
X-7870812Y-6268733D01*
X-7777914Y-6442532D01*
X-7777910Y-6442539D01*
X-7649019Y-6599592D01*
X-7651099Y-6601298D01*
X-7623157Y-6652364D01*
X-7620300Y-6678828D01*
X-7620300Y-10014811D01*
X-7594236Y-10145845D01*
X-7594234Y-10145853D01*
X-7558385Y-10232399D01*
X-7543101Y-10269299D01*
X-7543100Y-10269301D01*
X-7491694Y-10346233D01*
X-7491692Y-10346235D01*
X-7468869Y-10380393D01*
X-7468868Y-10380394D01*
X-7332261Y-10517000D01*
X-7214870Y-10634391D01*
X-7149870Y-10699391D01*
X-7100180Y-10749081D01*
X-7055390Y-10793871D01*
X-6944299Y-10868100D01*
X-6944300Y-10868100D01*
X-6944298Y-10868101D01*
X-6944296Y-10868102D01*
X-6914849Y-10880299D01*
X-6914848Y-10880300D01*
X-6914847Y-10880300D01*
X-6820853Y-10919234D01*
X-6690667Y-10945129D01*
X-6689812Y-10945299D01*
X-6689808Y-10945300D01*
X-6689807Y-10945300D01*
X-6556193Y-10945300D01*
X-5199500Y-10945300D01*
X-5132461Y-10964985D01*
X-5086706Y-11017789D01*
X-5075500Y-11069300D01*
X-5075500Y-11157701D01*
X-5072599Y-11194567D01*
X-5072598Y-11194573D01*
X-5026746Y-11352393D01*
X-5026745Y-11352396D01*
X-5026744Y-11352398D01*
X-4989319Y-11415681D01*
X-4943083Y-11493862D01*
X-4943077Y-11493870D01*
X-4838928Y-11598019D01*
X-4805443Y-11659342D01*
X-4810427Y-11729034D01*
X-4852299Y-11784967D01*
X-4917763Y-11809384D01*
X-4926609Y-11809700D01*
X-9294807Y-11809700D01*
X-9312332Y-11813186D01*
X-9312333Y-11813186D01*
X-9425847Y-11835764D01*
X-9425863Y-11835769D01*
X-9498165Y-11865717D01*
X-9498164Y-11865718D01*
X-9549295Y-11886897D01*
X-9549298Y-11886898D01*
X-9593794Y-11916627D01*
X-9593793Y-11916628D01*
X-9660386Y-11961125D01*
X-9660391Y-11961129D01*
X-10132542Y-12433281D01*
X-10193865Y-12466766D01*
X-10220223Y-12469600D01*
X-15570977Y-12469600D01*
X-15638016Y-12449915D01*
X-15683771Y-12397111D01*
X-15693715Y-12327953D01*
X-15664690Y-12264397D01*
X-15658658Y-12257919D01*
X-14543133Y-11142394D01*
X-14543130Y-11142391D01*
X-14468898Y-11031296D01*
X-14433207Y-10945130D01*
X-14433206Y-10945129D01*
X-14422480Y-10919233D01*
X-14417766Y-10907853D01*
X-14391700Y-10776807D01*
X-14391700Y-10643193D01*
X-14391700Y-8328923D01*
X-14372015Y-8261884D01*
X-14319211Y-8216129D01*
X-14250053Y-8206185D01*
X-14186497Y-8235210D01*
X-14180019Y-8241242D01*
X-12809660Y-9611601D01*
X-12776175Y-9672924D01*
X-12774555Y-9687998D01*
X-12773938Y-9687938D01*
X-12754025Y-9890129D01*
X-12734954Y-9952997D01*
X-12722971Y-9992501D01*
X-12696812Y-10078733D01*
X-12603914Y-10252532D01*
X-12603910Y-10252539D01*
X-12478884Y-10404883D01*
X-12326540Y-10529909D01*
X-12326533Y-10529913D01*
X-12152734Y-10622811D01*
X-12152731Y-10622811D01*
X-12152727Y-10622814D01*
X-11964132Y-10680024D01*
X-11768000Y-10699341D01*
X-11571868Y-10680024D01*
X-11383273Y-10622814D01*
X-11209462Y-10529910D01*
X-11057117Y-10404883D01*
X-10932090Y-10252538D01*
X-10850040Y-10099033D01*
X-10839189Y-10078733D01*
X-10839189Y-10078732D01*
X-10839186Y-10078727D01*
X-10781976Y-9890132D01*
X-10762659Y-9694000D01*
X-10781976Y-9497868D01*
X-10839186Y-9309273D01*
X-10839189Y-9309269D01*
X-10839189Y-9309266D01*
X-10932087Y-9135467D01*
X-10932091Y-9135460D01*
X-11057117Y-8983116D01*
X-11209461Y-8858090D01*
X-11209468Y-8858086D01*
X-11383267Y-8765188D01*
X-11383273Y-8765186D01*
X-11571868Y-8707976D01*
X-11571871Y-8707975D01*
X-11774062Y-8688062D01*
X-11773801Y-8685404D01*
X-11829757Y-8668974D01*
X-11850399Y-8652340D01*
X-13085381Y-7417358D01*
X-13118866Y-7356035D01*
X-13121700Y-7329677D01*
X-13121700Y-3495117D01*
X-13102015Y-3428078D01*
X-13049211Y-3382323D01*
X-12980053Y-3372379D01*
X-12948295Y-3383558D01*
X-12947554Y-3381847D01*
X-12940403Y-3384941D01*
X-12940398Y-3384944D01*
X-12936942Y-3385948D01*
X-12782574Y-3430797D01*
X-12782571Y-3430797D01*
X-12782569Y-3430798D01*
X-12745694Y-3433700D01*
X-12745686Y-3433700D01*
X-12314314Y-3433700D01*
X-12314306Y-3433700D01*
X-12277431Y-3430798D01*
X-12277429Y-3430797D01*
X-12277427Y-3430797D01*
X-12214515Y-3412519D01*
X-12119602Y-3384944D01*
X-11978135Y-3301281D01*
X-11978130Y-3301275D01*
X-11971969Y-3296498D01*
X-11970067Y-3298950D01*
X-11921421Y-3272355D01*
X-11851726Y-3277304D01*
G37*
%TD.AperFunction*%
%TA.AperFunction,Conductor*%
G36*
X1238495Y14677176D02*
G01*
X1291226Y14643289D01*
X1430256Y14492262D01*
X1540638Y14406348D01*
X1626488Y14339528D01*
X1626493Y14339525D01*
X1706717Y14296110D01*
X1756308Y14246891D01*
X1771700Y14187055D01*
X1771700Y13381153D01*
X1752015Y13314114D01*
X1699211Y13268359D01*
X1660302Y13257795D01*
X1574202Y13248999D01*
X1574200Y13248999D01*
X1407668Y13193815D01*
X1407663Y13193813D01*
X1258342Y13101711D01*
X1134289Y12977658D01*
X1042187Y12828337D01*
X1042185Y12828332D01*
X1021917Y12767167D01*
X987001Y12661797D01*
X987001Y12661796D01*
X987000Y12661796D01*
X976500Y12559017D01*
X976500Y11783999D01*
X976501Y11783981D01*
X987000Y11681204D01*
X987001Y11681201D01*
X1042185Y11514669D01*
X1042186Y11514666D01*
X1134288Y11365344D01*
X1258344Y11241288D01*
X1261628Y11239263D01*
X1261653Y11239247D01*
X1263445Y11237254D01*
X1264011Y11236807D01*
X1263934Y11236711D01*
X1308379Y11187301D01*
X1319603Y11118339D01*
X1291761Y11054256D01*
X1261665Y11028174D01*
X1258660Y11026321D01*
X1258655Y11026317D01*
X1134684Y10902346D01*
X1042643Y10753125D01*
X1042641Y10753120D01*
X987494Y10586698D01*
X987493Y10586691D01*
X977000Y10483987D01*
X977000Y10346500D01*
X2078000Y10346500D01*
X2145039Y10326815D01*
X2190794Y10274011D01*
X2202000Y10222500D01*
X2202000Y10096500D01*
X2328000Y10096500D01*
X2395039Y10076815D01*
X2440794Y10024011D01*
X2452000Y9972500D01*
X2452000Y9009001D01*
X2726972Y9009001D01*
X2726986Y9009002D01*
X2829697Y9019495D01*
X2996119Y9074642D01*
X2996124Y9074644D01*
X3145345Y9166685D01*
X3269315Y9290655D01*
X3326161Y9382816D01*
X3378109Y9429540D01*
X3447072Y9440763D01*
X3511154Y9412919D01*
X3550010Y9354851D01*
X3555700Y9317719D01*
X3555700Y4971189D01*
X3563217Y4933400D01*
X3581766Y4840147D01*
X3617921Y4752860D01*
X3617921Y4752859D01*
X3632893Y4716713D01*
X3632896Y4716708D01*
X3632898Y4716704D01*
X3638553Y4708241D01*
X3638556Y4708233D01*
X3638558Y4708234D01*
X3707129Y4605609D01*
X3707132Y4605606D01*
X6475730Y1837009D01*
X6530524Y1782215D01*
X6570210Y1742529D01*
X6640399Y1695630D01*
X6681304Y1668298D01*
X6728571Y1648720D01*
X6728572Y1648719D01*
X6728573Y1648719D01*
X6804748Y1617166D01*
X6935788Y1591101D01*
X6935792Y1591100D01*
X6935793Y1591100D01*
X7069407Y1591100D01*
X10255083Y1591100D01*
X10322122Y1571415D01*
X10367877Y1518611D01*
X10377821Y1449453D01*
X10366641Y1417695D01*
X10368353Y1416954D01*
X10365254Y1409794D01*
X10319402Y1251974D01*
X10319401Y1251968D01*
X10316500Y1215102D01*
X10316500Y783699D01*
X10319402Y746834D01*
X10319402Y746831D01*
X10365254Y589007D01*
X10365255Y589004D01*
X10365256Y589002D01*
X10373083Y575767D01*
X10448917Y447538D01*
X10453702Y441369D01*
X10451256Y439473D01*
X10477857Y390758D01*
X10472873Y321066D01*
X10452069Y288697D01*
X10453702Y287431D01*
X10448917Y281263D01*
X10365255Y139797D01*
X10365254Y139794D01*
X10319402Y-18026D01*
X10319402Y-18030D01*
X10316500Y-54898D01*
X10316500Y-486301D01*
X10319401Y-523167D01*
X10319402Y-523169D01*
X10365254Y-680993D01*
X10365255Y-680996D01*
X10365256Y-680998D01*
X10400141Y-739985D01*
X10448917Y-822462D01*
X10453702Y-828631D01*
X10451256Y-830527D01*
X10477857Y-879242D01*
X10472873Y-948934D01*
X10452069Y-981303D01*
X10453702Y-982569D01*
X10448917Y-988737D01*
X10365255Y-1130203D01*
X10365254Y-1130206D01*
X10319402Y-1288026D01*
X10319401Y-1288032D01*
X10316500Y-1324898D01*
X10316500Y-1756301D01*
X10319401Y-1793167D01*
X10319402Y-1793173D01*
X10365254Y-1950993D01*
X10365255Y-1950996D01*
X10448917Y-2092462D01*
X10453702Y-2098631D01*
X10451256Y-2100527D01*
X10477857Y-2149242D01*
X10472873Y-2218934D01*
X10452069Y-2251303D01*
X10453702Y-2252569D01*
X10448917Y-2258737D01*
X10365255Y-2400203D01*
X10365254Y-2400206D01*
X10319402Y-2558026D01*
X10319401Y-2558032D01*
X10316500Y-2594898D01*
X10316500Y-3026301D01*
X10319401Y-3063167D01*
X10319402Y-3063173D01*
X10365254Y-3220993D01*
X10368353Y-3228154D01*
X10365426Y-3229420D01*
X10378998Y-3282892D01*
X10356844Y-3349156D01*
X10302382Y-3392925D01*
X10255083Y-3402300D01*
X2309470Y-3402300D01*
X2242431Y-3382615D01*
X2196676Y-3329811D01*
X2186067Y-3290454D01*
X2185047Y-3280100D01*
X2172024Y-3147868D01*
X2114814Y-2959273D01*
X2114811Y-2959269D01*
X2114811Y-2959266D01*
X2021913Y-2785467D01*
X2021909Y-2785460D01*
X1893019Y-2628408D01*
X1895083Y-2626713D01*
X1867134Y-2575529D01*
X1864300Y-2549171D01*
X1864300Y-1781253D01*
X1883985Y-1714214D01*
X1917177Y-1679678D01*
X2047401Y-1588495D01*
X2169717Y-1466178D01*
X2231036Y-1432696D01*
X2300728Y-1437680D01*
X2356662Y-1479551D01*
X2373577Y-1510528D01*
X2422646Y-1642088D01*
X2422649Y-1642093D01*
X2508809Y-1757187D01*
X2508812Y-1757190D01*
X2623906Y-1843350D01*
X2623913Y-1843354D01*
X2758620Y-1893596D01*
X2758627Y-1893598D01*
X2818155Y-1899999D01*
X2818172Y-1900000D01*
X3466000Y-1900000D01*
X3466000Y-983012D01*
X3523007Y-1015925D01*
X3650174Y-1050000D01*
X3781826Y-1050000D01*
X3908993Y-1015925D01*
X3966000Y-983012D01*
X3966000Y-1900000D01*
X4613828Y-1900000D01*
X4613844Y-1899999D01*
X4673372Y-1893598D01*
X4673379Y-1893596D01*
X4808086Y-1843354D01*
X4808093Y-1843350D01*
X4923187Y-1757190D01*
X4923190Y-1757187D01*
X5009350Y-1642093D01*
X5009354Y-1642086D01*
X5059596Y-1507379D01*
X5059598Y-1507372D01*
X5065999Y-1447844D01*
X5066000Y-1447827D01*
X5066000Y-800000D01*
X4149012Y-800000D01*
X4181925Y-742993D01*
X4216000Y-615826D01*
X4216000Y-484174D01*
X4181925Y-357007D01*
X4149012Y-300000D01*
X5066000Y-300000D01*
X5066000Y347828D01*
X5065999Y347845D01*
X5059598Y407373D01*
X5059596Y407380D01*
X5009354Y542087D01*
X5009350Y542094D01*
X4923190Y657188D01*
X4923187Y657191D01*
X4808093Y743351D01*
X4808086Y743355D01*
X4673379Y793597D01*
X4673372Y793599D01*
X4613844Y800000D01*
X3966000Y800000D01*
X3966000Y-116988D01*
X3908993Y-84075D01*
X3781826Y-50000D01*
X3650174Y-50000D01*
X3523007Y-84075D01*
X3466000Y-116988D01*
X3466000Y800000D01*
X2818155Y800000D01*
X2758627Y793599D01*
X2758620Y793597D01*
X2623913Y743355D01*
X2623906Y743351D01*
X2508812Y657191D01*
X2508809Y657188D01*
X2422649Y542094D01*
X2422645Y542087D01*
X2373578Y410530D01*
X2331707Y354596D01*
X2266242Y330179D01*
X2197969Y345031D01*
X2169715Y366181D01*
X2125366Y410530D01*
X2047401Y488495D01*
X2047397Y488498D01*
X2047396Y488499D01*
X1853834Y624033D01*
X1853830Y624035D01*
X1782727Y657191D01*
X1639663Y723903D01*
X1639659Y723904D01*
X1639655Y723906D01*
X1411413Y785062D01*
X1411403Y785064D01*
X1176001Y805659D01*
X1175999Y805659D01*
X940596Y785064D01*
X940586Y785062D01*
X712344Y723906D01*
X712335Y723902D01*
X498171Y624036D01*
X498169Y624035D01*
X304597Y488495D01*
X137505Y321403D01*
X7575Y135842D01*
X-47002Y92217D01*
X-116500Y85023D01*
X-178855Y116546D01*
X-195575Y135842D01*
X-325506Y321403D01*
X-492599Y488495D01*
X-492605Y488499D01*
X-686166Y624033D01*
X-686170Y624035D01*
X-757273Y657191D01*
X-900337Y723903D01*
X-900341Y723904D01*
X-900345Y723906D01*
X-1128587Y785062D01*
X-1128597Y785064D01*
X-1363999Y805659D01*
X-1364001Y805659D01*
X-1599404Y785064D01*
X-1599414Y785062D01*
X-1827656Y723906D01*
X-1827665Y723902D01*
X-2041829Y624036D01*
X-2041831Y624035D01*
X-2235403Y488495D01*
X-2402495Y321403D01*
X-2532425Y135842D01*
X-2587002Y92217D01*
X-2656500Y85023D01*
X-2718855Y116546D01*
X-2735575Y135842D01*
X-2865506Y321403D01*
X-3032599Y488495D01*
X-3172824Y586683D01*
X-3216449Y641260D01*
X-3225700Y688257D01*
X-3225700Y1068882D01*
X-3206015Y1135921D01*
X-3153211Y1181676D01*
X-3140712Y1186585D01*
X-3099666Y1200186D01*
X-2950344Y1292288D01*
X-2826288Y1416344D01*
X-2783758Y1485298D01*
X-2731810Y1532021D01*
X-2678219Y1544200D01*
X-1816692Y1544200D01*
X-1816691Y1544201D01*
X-1685647Y1570266D01*
X-1598360Y1606422D01*
X-1562204Y1621398D01*
X-1451109Y1695630D01*
X-1356630Y1790109D01*
X-1298071Y1848668D01*
X-1298059Y1848682D01*
X476871Y3623609D01*
X521369Y3690206D01*
X551102Y3734704D01*
X601007Y3855186D01*
X602234Y3858148D01*
X628300Y3989194D01*
X628300Y4122807D01*
X628300Y5767172D01*
X647985Y5834211D01*
X657502Y5846012D01*
X657019Y5846408D01*
X756165Y5967219D01*
X785910Y6003462D01*
X871594Y6163765D01*
X878811Y6177267D01*
X878811Y6177268D01*
X878814Y6177273D01*
X936024Y6365868D01*
X955341Y6562000D01*
X936024Y6758132D01*
X878814Y6946727D01*
X878811Y6946731D01*
X878811Y6946734D01*
X785913Y7120533D01*
X785909Y7120540D01*
X657019Y7277592D01*
X659083Y7279287D01*
X631134Y7330471D01*
X628300Y7356829D01*
X628300Y9709014D01*
X977001Y9709014D01*
X987494Y9606303D01*
X1042641Y9439881D01*
X1042643Y9439876D01*
X1134684Y9290655D01*
X1258654Y9166685D01*
X1407875Y9074644D01*
X1407880Y9074642D01*
X1574302Y9019495D01*
X1574309Y9019494D01*
X1677019Y9009001D01*
X1951999Y9009001D01*
X1952000Y9009002D01*
X1952000Y9846500D01*
X977001Y9846500D01*
X977001Y9709014D01*
X628300Y9709014D01*
X628300Y14187055D01*
X647985Y14254094D01*
X693283Y14296110D01*
X773509Y14339526D01*
X969744Y14492262D01*
X1108772Y14643288D01*
X1168657Y14679276D01*
X1238495Y14677176D01*
G37*
%TD.AperFunction*%
%TA.AperFunction,Conductor*%
G36*
X-929409Y14383035D02*
G01*
X-873512Y14339528D01*
X-873507Y14339525D01*
X-793283Y14296110D01*
X-743692Y14246891D01*
X-728300Y14187055D01*
X-728300Y7356829D01*
X-747985Y7289790D01*
X-757498Y7277985D01*
X-757019Y7277592D01*
X-885910Y7120540D01*
X-885914Y7120533D01*
X-978812Y6946734D01*
X-1036025Y6758130D01*
X-1055341Y6562000D01*
X-1036025Y6365871D01*
X-1036024Y6365868D01*
X-985685Y6199922D01*
X-978812Y6177267D01*
X-885914Y6003468D01*
X-885910Y6003461D01*
X-757019Y5846408D01*
X-759099Y5844702D01*
X-731157Y5793636D01*
X-728300Y5767172D01*
X-728300Y4388324D01*
X-747985Y4321285D01*
X-764619Y4300643D01*
X-2128142Y2937119D01*
X-2189465Y2903634D01*
X-2215823Y2900800D01*
X-2678219Y2900800D01*
X-2745258Y2920485D01*
X-2783758Y2959703D01*
X-2795952Y2979473D01*
X-2826288Y3028656D01*
X-2950344Y3152712D01*
X-2953658Y3154757D01*
X-2955454Y3156752D01*
X-2956011Y3157193D01*
X-2955936Y3157289D01*
X-3000382Y3206703D01*
X-3011603Y3275666D01*
X-2983760Y3339748D01*
X-2953652Y3365835D01*
X-2950658Y3367682D01*
X-2826685Y3491655D01*
X-2734644Y3640876D01*
X-2734642Y3640881D01*
X-2679495Y3807303D01*
X-2679494Y3807310D01*
X-2669001Y3910014D01*
X-2669000Y3910027D01*
X-2669000Y4047500D01*
X-5118999Y4047500D01*
X-5118999Y3910014D01*
X-5108506Y3807303D01*
X-5053359Y3640881D01*
X-5053357Y3640876D01*
X-4961316Y3491655D01*
X-4837345Y3367684D01*
X-4837341Y3367681D01*
X-4834344Y3365832D01*
X-4832721Y3364028D01*
X-4831677Y3363202D01*
X-4831819Y3363024D01*
X-4787619Y3313884D01*
X-4776398Y3244921D01*
X-4804241Y3180839D01*
X-4834339Y3154759D01*
X-4837651Y3152717D01*
X-4837657Y3152712D01*
X-4961711Y3028658D01*
X-4961712Y3028656D01*
X-4987075Y2987535D01*
X-5004242Y2959703D01*
X-5056190Y2912979D01*
X-5109781Y2900800D01*
X-8300312Y2900800D01*
X-8431346Y2874736D01*
X-8431358Y2874733D01*
X-8482487Y2853555D01*
X-8482486Y2853554D01*
X-8554794Y2823604D01*
X-8665891Y2749371D01*
X-8665895Y2749368D01*
X-8977819Y2437443D01*
X-9039142Y2403958D01*
X-9108834Y2408942D01*
X-9164767Y2450814D01*
X-9189184Y2516278D01*
X-9189500Y2525124D01*
X-9189500Y3882487D01*
X-9189501Y3882502D01*
X-9192402Y3919368D01*
X-9192403Y3919374D01*
X-9238255Y4077194D01*
X-9238255Y4077195D01*
X-9238256Y4077196D01*
X-9238256Y4077198D01*
X-9294433Y4172189D01*
X-9311700Y4235309D01*
X-9311700Y4684987D01*
X-5119000Y4684987D01*
X-5119000Y4547500D01*
X-4144000Y4547500D01*
X-3644000Y4547500D01*
X-2669001Y4547500D01*
X-2669001Y4684972D01*
X-2669002Y4684987D01*
X-2679495Y4787698D01*
X-2734642Y4954120D01*
X-2734644Y4954125D01*
X-2826685Y5103346D01*
X-2950655Y5227316D01*
X-3099876Y5319357D01*
X-3099881Y5319359D01*
X-3266303Y5374506D01*
X-3266310Y5374507D01*
X-3369014Y5385000D01*
X-3644000Y5385000D01*
X-3644000Y4547500D01*
X-4144000Y4547500D01*
X-4144000Y5385000D01*
X-4418971Y5385000D01*
X-4418988Y5384999D01*
X-4521698Y5374506D01*
X-4688120Y5319359D01*
X-4688125Y5319357D01*
X-4837346Y5227316D01*
X-4961316Y5103346D01*
X-5053357Y4954125D01*
X-5053359Y4954120D01*
X-5108506Y4787698D01*
X-5108507Y4787691D01*
X-5119000Y4684987D01*
X-9311700Y4684987D01*
X-9311700Y7291172D01*
X-9292015Y7358211D01*
X-9282498Y7370012D01*
X-9282981Y7370408D01*
X-9154565Y7526883D01*
X-9154090Y7527462D01*
X-9061186Y7701273D01*
X-9003976Y7889868D01*
X-8984659Y8086000D01*
X-9003976Y8282132D01*
X-9061186Y8470727D01*
X-9061189Y8470731D01*
X-9061189Y8470734D01*
X-9154087Y8644533D01*
X-9154091Y8644540D01*
X-9279117Y8796884D01*
X-9431461Y8921910D01*
X-9431468Y8921914D01*
X-9605267Y9014812D01*
X-9605273Y9014814D01*
X-9793868Y9072024D01*
X-9793871Y9072025D01*
X-9990000Y9091341D01*
X-10186130Y9072025D01*
X-10374734Y9014812D01*
X-10548533Y8921914D01*
X-10548540Y8921910D01*
X-10700884Y8796884D01*
X-10825910Y8644540D01*
X-10825914Y8644533D01*
X-10918812Y8470734D01*
X-10976025Y8282130D01*
X-10995341Y8086000D01*
X-10976025Y7889871D01*
X-10918812Y7701267D01*
X-10825914Y7527468D01*
X-10825910Y7527461D01*
X-10697019Y7370408D01*
X-10699099Y7368702D01*
X-10671157Y7317636D01*
X-10668300Y7291172D01*
X-10668300Y4528137D01*
X-10687985Y4461098D01*
X-10740789Y4415343D01*
X-10809947Y4405399D01*
X-10841925Y4416653D01*
X-10842646Y4414985D01*
X-10849807Y4418084D01*
X-11007506Y4463900D01*
X-11007503Y4463900D01*
X-11010000Y4464097D01*
X-11010000Y1519505D01*
X-11009999Y1519505D01*
X-11007514Y1519700D01*
X-10849800Y1565520D01*
X-10842646Y1568615D01*
X-10841403Y1565742D01*
X-10787766Y1579381D01*
X-10721492Y1557259D01*
X-10677698Y1502817D01*
X-10668300Y1455464D01*
X-10668300Y1415189D01*
X-10642236Y1284154D01*
X-10642233Y1284144D01*
X-10628905Y1251968D01*
X-10591104Y1160707D01*
X-10516871Y1049610D01*
X-10516868Y1049606D01*
X-10315242Y847981D01*
X-10281757Y786658D01*
X-10286741Y716967D01*
X-10328612Y661033D01*
X-10394077Y636616D01*
X-10402923Y636300D01*
X-10564812Y636300D01*
X-10695846Y610236D01*
X-10695854Y610234D01*
X-10779063Y575767D01*
X-10779064Y575767D01*
X-10819292Y559105D01*
X-10819299Y559101D01*
X-10924963Y488499D01*
X-10924962Y488498D01*
X-10930389Y484872D01*
X-10930394Y484868D01*
X-11323044Y92217D01*
X-11692391Y-277130D01*
X-11729847Y-314586D01*
X-11786872Y-371610D01*
X-11861100Y-482700D01*
X-11861102Y-482701D01*
X-11873505Y-512643D01*
X-11917349Y-567044D01*
X-11983644Y-589106D01*
X-12051184Y-571918D01*
X-12088246Y-550000D01*
X-12119602Y-531456D01*
X-12119604Y-531455D01*
X-12119606Y-531454D01*
X-12277427Y-485602D01*
X-12277433Y-485601D01*
X-12314299Y-482700D01*
X-12314306Y-482700D01*
X-12745694Y-482700D01*
X-12745702Y-482700D01*
X-12782568Y-485601D01*
X-12782574Y-485602D01*
X-12940394Y-531454D01*
X-12940397Y-531455D01*
X-13081863Y-615117D01*
X-13088031Y-619902D01*
X-13089928Y-617456D01*
X-13138642Y-644057D01*
X-13208334Y-639073D01*
X-13240704Y-618269D01*
X-13241969Y-619902D01*
X-13248138Y-615117D01*
X-13358246Y-550000D01*
X-13389602Y-531456D01*
X-13389603Y-531455D01*
X-13389604Y-531455D01*
X-13389607Y-531454D01*
X-13547427Y-485602D01*
X-13547433Y-485601D01*
X-13584299Y-482700D01*
X-13584306Y-482700D01*
X-14015694Y-482700D01*
X-14015702Y-482700D01*
X-14052568Y-485601D01*
X-14052574Y-485602D01*
X-14210394Y-531454D01*
X-14210397Y-531455D01*
X-14351863Y-615117D01*
X-14358031Y-619902D01*
X-14359928Y-617456D01*
X-14408642Y-644057D01*
X-14478334Y-639073D01*
X-14510704Y-618269D01*
X-14511969Y-619902D01*
X-14518138Y-615117D01*
X-14628246Y-550000D01*
X-14659602Y-531456D01*
X-14659603Y-531455D01*
X-14659604Y-531455D01*
X-14659607Y-531454D01*
X-14817427Y-485602D01*
X-14817433Y-485601D01*
X-14854299Y-482700D01*
X-14854306Y-482700D01*
X-15285694Y-482700D01*
X-15285702Y-482700D01*
X-15322568Y-485601D01*
X-15322574Y-485602D01*
X-15480394Y-531454D01*
X-15487554Y-534553D01*
X-15488815Y-531641D01*
X-15542394Y-545193D01*
X-15608641Y-522985D01*
X-15652364Y-468486D01*
X-15661700Y-421282D01*
X-15661700Y-229190D01*
X-15677101Y-151769D01*
X-15677101Y-151764D01*
X-15687765Y-98154D01*
X-15687766Y-98147D01*
X-15720952Y-18031D01*
X-15738898Y25296D01*
X-15738899Y25298D01*
X-15738900Y25300D01*
X-15813129Y136390D01*
X-15852554Y175815D01*
X-15907609Y230870D01*
X-16415609Y738870D01*
X-16415616Y738875D01*
X-16427522Y746831D01*
X-16526698Y813099D01*
X-16526711Y813106D01*
X-16566936Y829767D01*
X-16566937Y829767D01*
X-16650147Y864234D01*
X-16650155Y864236D01*
X-16781189Y890300D01*
X-16781193Y890300D01*
X-19563677Y890300D01*
X-19630716Y909985D01*
X-19651358Y926619D01*
X-20197381Y1472642D01*
X-20230866Y1533965D01*
X-20233700Y1560323D01*
X-20233700Y6816000D01*
X-19885341Y6816000D01*
X-19866025Y6619871D01*
X-19808812Y6431267D01*
X-19715914Y6257468D01*
X-19715910Y6257461D01*
X-19587019Y6100408D01*
X-19589099Y6098702D01*
X-19561157Y6047636D01*
X-19558300Y6021172D01*
X-19558300Y4235309D01*
X-19575567Y4172189D01*
X-19631746Y4077195D01*
X-19631746Y4077194D01*
X-19677598Y3919374D01*
X-19677599Y3919368D01*
X-19680500Y3882502D01*
X-19680500Y2101099D01*
X-19677599Y2064233D01*
X-19677598Y2064227D01*
X-19631746Y1906407D01*
X-19631745Y1906404D01*
X-19631744Y1906402D01*
X-19597600Y1848668D01*
X-19548083Y1764938D01*
X-19548077Y1764930D01*
X-19431871Y1648724D01*
X-19431867Y1648721D01*
X-19431865Y1648719D01*
X-19290398Y1565056D01*
X-19274107Y1560323D01*
X-19132574Y1519203D01*
X-19132571Y1519203D01*
X-19132569Y1519202D01*
X-19095694Y1516300D01*
X-19095686Y1516300D01*
X-18664314Y1516300D01*
X-18664306Y1516300D01*
X-18627431Y1519202D01*
X-18627429Y1519203D01*
X-18627427Y1519203D01*
X-18551143Y1541366D01*
X-18469602Y1565056D01*
X-18328135Y1648719D01*
X-18321969Y1653502D01*
X-18320067Y1651050D01*
X-18271421Y1677645D01*
X-18201726Y1672696D01*
X-18169305Y1651860D01*
X-18168031Y1653502D01*
X-18161865Y1648719D01*
X-18020398Y1565056D01*
X-18004107Y1560323D01*
X-17862574Y1519203D01*
X-17862571Y1519203D01*
X-17862569Y1519202D01*
X-17825694Y1516300D01*
X-17825686Y1516300D01*
X-17394314Y1516300D01*
X-17394306Y1516300D01*
X-17357431Y1519202D01*
X-17357429Y1519203D01*
X-17357427Y1519203D01*
X-17281143Y1541366D01*
X-17199602Y1565056D01*
X-17058135Y1648719D01*
X-17051969Y1653502D01*
X-17050067Y1651050D01*
X-17001421Y1677645D01*
X-16931726Y1672696D01*
X-16899305Y1651860D01*
X-16898031Y1653502D01*
X-16891865Y1648719D01*
X-16750398Y1565056D01*
X-16734107Y1560323D01*
X-16592574Y1519203D01*
X-16592571Y1519203D01*
X-16592569Y1519202D01*
X-16555694Y1516300D01*
X-16555686Y1516300D01*
X-16124314Y1516300D01*
X-16124306Y1516300D01*
X-16087431Y1519202D01*
X-16087429Y1519203D01*
X-16087427Y1519203D01*
X-16011143Y1541366D01*
X-15929602Y1565056D01*
X-15788135Y1648719D01*
X-15781969Y1653502D01*
X-15780067Y1651050D01*
X-15731421Y1677645D01*
X-15661726Y1672696D01*
X-15629305Y1651860D01*
X-15628031Y1653502D01*
X-15621865Y1648719D01*
X-15480398Y1565056D01*
X-15464107Y1560323D01*
X-15322574Y1519203D01*
X-15322571Y1519203D01*
X-15322569Y1519202D01*
X-15285694Y1516300D01*
X-15285686Y1516300D01*
X-14854314Y1516300D01*
X-14854306Y1516300D01*
X-14817431Y1519202D01*
X-14817429Y1519203D01*
X-14817427Y1519203D01*
X-14741143Y1541366D01*
X-14659602Y1565056D01*
X-14518135Y1648719D01*
X-14511969Y1653502D01*
X-14510067Y1651050D01*
X-14461421Y1677645D01*
X-14391726Y1672696D01*
X-14359305Y1651860D01*
X-14358031Y1653502D01*
X-14351865Y1648719D01*
X-14210398Y1565056D01*
X-14194107Y1560323D01*
X-14052574Y1519203D01*
X-14052571Y1519203D01*
X-14052569Y1519202D01*
X-14015694Y1516300D01*
X-14015686Y1516300D01*
X-13584314Y1516300D01*
X-13584306Y1516300D01*
X-13547431Y1519202D01*
X-13547429Y1519203D01*
X-13547427Y1519203D01*
X-13471143Y1541366D01*
X-13389602Y1565056D01*
X-13248135Y1648719D01*
X-13241969Y1653502D01*
X-13240067Y1651050D01*
X-13191421Y1677645D01*
X-13121726Y1672696D01*
X-13089305Y1651860D01*
X-13088031Y1653502D01*
X-13081865Y1648719D01*
X-12940398Y1565056D01*
X-12924107Y1560323D01*
X-12782574Y1519203D01*
X-12782571Y1519203D01*
X-12782569Y1519202D01*
X-12745694Y1516300D01*
X-12745686Y1516300D01*
X-12314314Y1516300D01*
X-12314306Y1516300D01*
X-12277431Y1519202D01*
X-12277429Y1519203D01*
X-12277427Y1519203D01*
X-12201143Y1541366D01*
X-12119602Y1565056D01*
X-11978135Y1648719D01*
X-11978130Y1648724D01*
X-11971974Y1653499D01*
X-11970161Y1651162D01*
X-11921051Y1678002D01*
X-11851357Y1673044D01*
X-11819004Y1652249D01*
X-11817722Y1653900D01*
X-11811553Y1649115D01*
X-11670199Y1565519D01*
X-11512486Y1519700D01*
X-11512489Y1519700D01*
X-11510002Y1519505D01*
X-11510000Y1519505D01*
X-11510000Y4464097D01*
X-11512497Y4463900D01*
X-11670194Y4418084D01*
X-11670197Y4418083D01*
X-11811551Y4334487D01*
X-11817717Y4329703D01*
X-11819611Y4332145D01*
X-11868420Y4305561D01*
X-11938106Y4310621D01*
X-11970773Y4331641D01*
X-11971969Y4330098D01*
X-11978138Y4334883D01*
X-12087006Y4399267D01*
X-12119602Y4418544D01*
X-12119603Y4418545D01*
X-12119604Y4418545D01*
X-12119607Y4418546D01*
X-12277427Y4464398D01*
X-12277433Y4464399D01*
X-12314299Y4467300D01*
X-12314306Y4467300D01*
X-12745694Y4467300D01*
X-12745702Y4467300D01*
X-12782568Y4464399D01*
X-12782574Y4464398D01*
X-12940394Y4418546D01*
X-12940397Y4418545D01*
X-13081863Y4334883D01*
X-13088031Y4330098D01*
X-13089928Y4332544D01*
X-13138642Y4305943D01*
X-13208334Y4310927D01*
X-13240704Y4331731D01*
X-13241969Y4330098D01*
X-13248138Y4334883D01*
X-13357006Y4399267D01*
X-13389602Y4418544D01*
X-13389603Y4418545D01*
X-13389604Y4418545D01*
X-13389607Y4418546D01*
X-13547427Y4464398D01*
X-13547433Y4464399D01*
X-13584299Y4467300D01*
X-13584306Y4467300D01*
X-14015694Y4467300D01*
X-14015702Y4467300D01*
X-14052568Y4464399D01*
X-14052574Y4464398D01*
X-14210394Y4418546D01*
X-14210397Y4418545D01*
X-14351863Y4334883D01*
X-14358031Y4330098D01*
X-14359928Y4332544D01*
X-14408642Y4305943D01*
X-14478334Y4310927D01*
X-14510704Y4331731D01*
X-14511969Y4330098D01*
X-14518138Y4334883D01*
X-14627006Y4399267D01*
X-14659602Y4418544D01*
X-14659603Y4418545D01*
X-14659604Y4418545D01*
X-14659607Y4418546D01*
X-14817427Y4464398D01*
X-14817433Y4464399D01*
X-14854299Y4467300D01*
X-14854306Y4467300D01*
X-15285694Y4467300D01*
X-15285702Y4467300D01*
X-15322568Y4464399D01*
X-15322574Y4464398D01*
X-15480394Y4418546D01*
X-15480397Y4418545D01*
X-15621863Y4334883D01*
X-15628031Y4330098D01*
X-15629928Y4332544D01*
X-15678642Y4305943D01*
X-15748334Y4310927D01*
X-15780704Y4331731D01*
X-15781969Y4330098D01*
X-15788138Y4334883D01*
X-15897006Y4399267D01*
X-15929602Y4418544D01*
X-15929603Y4418545D01*
X-15929604Y4418545D01*
X-15929607Y4418546D01*
X-16087427Y4464398D01*
X-16087433Y4464399D01*
X-16124299Y4467300D01*
X-16124306Y4467300D01*
X-16555694Y4467300D01*
X-16555702Y4467300D01*
X-16592568Y4464399D01*
X-16592574Y4464398D01*
X-16750394Y4418546D01*
X-16750397Y4418545D01*
X-16891863Y4334883D01*
X-16898031Y4330098D01*
X-16899928Y4332544D01*
X-16948642Y4305943D01*
X-17018334Y4310927D01*
X-17050704Y4331731D01*
X-17051969Y4330098D01*
X-17058138Y4334883D01*
X-17167006Y4399267D01*
X-17199602Y4418544D01*
X-17199603Y4418545D01*
X-17199604Y4418545D01*
X-17199607Y4418546D01*
X-17357427Y4464398D01*
X-17357433Y4464399D01*
X-17394299Y4467300D01*
X-17394306Y4467300D01*
X-17825694Y4467300D01*
X-17825702Y4467300D01*
X-17862568Y4464399D01*
X-17862574Y4464398D01*
X-18020394Y4418546D01*
X-18027554Y4415447D01*
X-18028815Y4418359D01*
X-18082394Y4404807D01*
X-18148641Y4427015D01*
X-18192364Y4481514D01*
X-18201700Y4528718D01*
X-18201700Y6021172D01*
X-18182015Y6088211D01*
X-18172498Y6100012D01*
X-18172981Y6100408D01*
X-18044091Y6257461D01*
X-18044087Y6257468D01*
X-17951189Y6431267D01*
X-17951189Y6431268D01*
X-17951186Y6431273D01*
X-17893976Y6619868D01*
X-17874659Y6816000D01*
X-17893976Y7012132D01*
X-17951186Y7200727D01*
X-17951189Y7200731D01*
X-17951189Y7200734D01*
X-18044087Y7374533D01*
X-18044091Y7374540D01*
X-18169117Y7526884D01*
X-18321461Y7651910D01*
X-18321468Y7651914D01*
X-18495267Y7744812D01*
X-18495273Y7744814D01*
X-18683868Y7802024D01*
X-18683871Y7802025D01*
X-18880000Y7821341D01*
X-19076130Y7802025D01*
X-19264734Y7744812D01*
X-19438533Y7651914D01*
X-19438540Y7651910D01*
X-19590884Y7526884D01*
X-19715910Y7374540D01*
X-19715914Y7374533D01*
X-19808812Y7200734D01*
X-19866025Y7012130D01*
X-19885341Y6816000D01*
X-20233700Y6816000D01*
X-20233700Y9709014D01*
X-3848999Y9709014D01*
X-3838506Y9606303D01*
X-3783359Y9439881D01*
X-3783357Y9439876D01*
X-3691316Y9290655D01*
X-3567346Y9166685D01*
X-3418125Y9074644D01*
X-3418120Y9074642D01*
X-3251698Y9019495D01*
X-3251691Y9019494D01*
X-3148981Y9009001D01*
X-2874001Y9009001D01*
X-2374000Y9009001D01*
X-2099028Y9009001D01*
X-2099014Y9009002D01*
X-1996303Y9019495D01*
X-1829881Y9074642D01*
X-1829876Y9074644D01*
X-1680655Y9166685D01*
X-1556685Y9290655D01*
X-1464644Y9439876D01*
X-1464642Y9439881D01*
X-1409495Y9606303D01*
X-1409494Y9606310D01*
X-1399001Y9709014D01*
X-1399000Y9709027D01*
X-1399000Y9846500D01*
X-2374000Y9846500D01*
X-2374000Y9009001D01*
X-2874001Y9009001D01*
X-2874000Y9009002D01*
X-2874000Y9846500D01*
X-3848999Y9846500D01*
X-3848999Y9709014D01*
X-20233700Y9709014D01*
X-20233700Y9785677D01*
X-20214015Y9852716D01*
X-20197381Y9873358D01*
X-18613857Y11456881D01*
X-18552534Y11490366D01*
X-18526176Y11493200D01*
X-3839781Y11493200D01*
X-3772742Y11473515D01*
X-3734244Y11434299D01*
X-3691712Y11365344D01*
X-3567656Y11241288D01*
X-3564372Y11239263D01*
X-3564347Y11239247D01*
X-3562555Y11237254D01*
X-3561989Y11236807D01*
X-3562066Y11236711D01*
X-3517621Y11187301D01*
X-3506397Y11118339D01*
X-3534239Y11054256D01*
X-3564335Y11028174D01*
X-3567340Y11026321D01*
X-3567345Y11026317D01*
X-3691316Y10902346D01*
X-3783357Y10753125D01*
X-3783359Y10753120D01*
X-3838506Y10586698D01*
X-3838507Y10586691D01*
X-3849000Y10483987D01*
X-3849000Y10346500D01*
X-1399001Y10346500D01*
X-1399001Y10483972D01*
X-1399002Y10483987D01*
X-1409495Y10586698D01*
X-1464642Y10753120D01*
X-1464644Y10753125D01*
X-1556685Y10902346D01*
X-1680656Y11026317D01*
X-1680659Y11026319D01*
X-1683661Y11028171D01*
X-1685287Y11029979D01*
X-1686323Y11030798D01*
X-1686183Y11030976D01*
X-1730383Y11080120D01*
X-1741603Y11149083D01*
X-1713757Y11213164D01*
X-1683656Y11239246D01*
X-1680344Y11241288D01*
X-1556288Y11365344D01*
X-1464186Y11514666D01*
X-1409001Y11681203D01*
X-1398500Y11783991D01*
X-1398501Y12559008D01*
X-1409001Y12661797D01*
X-1464186Y12828334D01*
X-1556288Y12977656D01*
X-1680344Y13101712D01*
X-1812798Y13183410D01*
X-1859521Y13235357D01*
X-1871700Y13288948D01*
X-1871700Y13975501D01*
X-1852015Y14042540D01*
X-1799211Y14088295D01*
X-1747700Y14099501D01*
X-1502129Y14099501D01*
X-1502128Y14099501D01*
X-1442517Y14105909D01*
X-1307669Y14156204D01*
X-1192454Y14242454D01*
X-1106204Y14357669D01*
X-1106204Y14357671D01*
X-1104839Y14359493D01*
X-1048905Y14401364D01*
X-979213Y14406348D01*
X-929409Y14383035D01*
G37*
%TD.AperFunction*%
%TA.AperFunction,Conductor*%
G36*
X3206716Y17548015D02*
G01*
X3227358Y17531381D01*
X5297381Y15461358D01*
X5330866Y15400035D01*
X5333700Y15373677D01*
X5333700Y7511189D01*
X5359764Y7380155D01*
X5359767Y7380143D01*
X5375207Y7342869D01*
X5402083Y7277985D01*
X5410898Y7256704D01*
X5477394Y7157186D01*
X5485130Y7145609D01*
X6247130Y6383609D01*
X6341609Y6289130D01*
X6341610Y6289129D01*
X6396779Y6252266D01*
X6452704Y6214898D01*
X6488859Y6199922D01*
X6576147Y6163766D01*
X6707188Y6137701D01*
X6707192Y6137700D01*
X6707193Y6137700D01*
X12791677Y6137700D01*
X12858716Y6118015D01*
X12879358Y6101381D01*
X13171381Y5809358D01*
X13204866Y5748035D01*
X13207700Y5721677D01*
X13207700Y5582619D01*
X13188015Y5515580D01*
X13135211Y5469825D01*
X13066053Y5459881D01*
X13020579Y5475887D01*
X12877196Y5560683D01*
X12877193Y5560684D01*
X12719495Y5606500D01*
X12719489Y5606501D01*
X12682649Y5609400D01*
X12042000Y5609400D01*
X12042000Y4933400D01*
X12022315Y4866361D01*
X11969511Y4820606D01*
X11918000Y4809400D01*
X11792000Y4809400D01*
X11792000Y4683400D01*
X11772315Y4616361D01*
X11719511Y4570606D01*
X11668000Y4559400D01*
X10319705Y4559400D01*
X10319704Y4559399D01*
X10319899Y4556914D01*
X10365718Y4399202D01*
X10449314Y4257848D01*
X10454100Y4251678D01*
X10451640Y4249771D01*
X10478210Y4201112D01*
X10473226Y4131420D01*
X10452162Y4098619D01*
X10453699Y4097426D01*
X10448915Y4091260D01*
X10365255Y3949797D01*
X10365254Y3949794D01*
X10319402Y3791974D01*
X10319401Y3791968D01*
X10316500Y3755102D01*
X10316500Y3323699D01*
X10319401Y3286833D01*
X10319402Y3286827D01*
X10365254Y3129007D01*
X10368353Y3121846D01*
X10365426Y3120580D01*
X10378998Y3067108D01*
X10356844Y3000844D01*
X10302382Y2957075D01*
X10255083Y2947700D01*
X7334923Y2947700D01*
X7267884Y2967385D01*
X7247242Y2984019D01*
X5171859Y5059402D01*
X10319704Y5059402D01*
X10319705Y5059400D01*
X11542000Y5059400D01*
X11542000Y5609400D01*
X10901350Y5609400D01*
X10864510Y5606501D01*
X10864504Y5606500D01*
X10706806Y5560684D01*
X10706803Y5560683D01*
X10565447Y5477086D01*
X10565438Y5477079D01*
X10449321Y5360962D01*
X10449314Y5360953D01*
X10365718Y5219599D01*
X10319899Y5061887D01*
X10319704Y5059402D01*
X5171859Y5059402D01*
X4948619Y5282642D01*
X4915134Y5343965D01*
X4912300Y5370323D01*
X4912300Y11708807D01*
X4910347Y11718625D01*
X4910347Y11718629D01*
X4886235Y11839846D01*
X4886234Y11839853D01*
X4837426Y11957684D01*
X4835783Y11962276D01*
X4835102Y11963296D01*
X4760870Y12074391D01*
X4666391Y12168870D01*
X4136894Y12698368D01*
X4136890Y12698371D01*
X4073398Y12740795D01*
X4033930Y12767167D01*
X4025796Y12772602D01*
X4025789Y12772605D01*
X3989641Y12787579D01*
X3989640Y12787579D01*
X3902353Y12823734D01*
X3902345Y12823736D01*
X3902344Y12823736D01*
X3771311Y12849800D01*
X3771307Y12849800D01*
X3417781Y12849800D01*
X3350742Y12869485D01*
X3312242Y12908703D01*
X3269712Y12977656D01*
X3164619Y13082749D01*
X3131134Y13144072D01*
X3128300Y13170430D01*
X3128300Y14187055D01*
X3147985Y14254094D01*
X3193283Y14296110D01*
X3273509Y14339526D01*
X3469744Y14492262D01*
X3638164Y14675215D01*
X3774173Y14883393D01*
X3874063Y15111119D01*
X3935108Y15352179D01*
X3935109Y15352188D01*
X3955643Y15599995D01*
X3955643Y15600006D01*
X3935109Y15847813D01*
X3935107Y15847825D01*
X3874063Y16088882D01*
X3774173Y16316607D01*
X3638166Y16524783D01*
X3608769Y16556716D01*
X3469744Y16707738D01*
X3273509Y16860474D01*
X3273507Y16860475D01*
X3273506Y16860476D01*
X3054811Y16978828D01*
X3054802Y16978831D01*
X2819616Y17059571D01*
X2574335Y17100500D01*
X2325665Y17100500D01*
X2080383Y17059571D01*
X1845197Y16978831D01*
X1845188Y16978828D01*
X1626493Y16860476D01*
X1430255Y16707738D01*
X1430252Y16707735D01*
X1291229Y16556716D01*
X1231342Y16520725D01*
X1161504Y16522826D01*
X1108771Y16556716D01*
X969747Y16707735D01*
X969744Y16707738D01*
X799161Y16840508D01*
X773509Y16860474D01*
X773507Y16860475D01*
X773506Y16860476D01*
X554811Y16978828D01*
X554802Y16978831D01*
X319616Y17059571D01*
X74335Y17100500D01*
X-174335Y17100500D01*
X-419617Y17059571D01*
X-654803Y16978831D01*
X-654812Y16978828D01*
X-873512Y16860473D01*
X-873517Y16860469D01*
X-929412Y16816965D01*
X-994406Y16791323D01*
X-1062946Y16804890D01*
X-1104840Y16840508D01*
X-1106204Y16842330D01*
X-1106204Y16842331D01*
X-1192454Y16957546D01*
X-1239841Y16993020D01*
X-1307665Y17043794D01*
X-1307672Y17043798D01*
X-1442518Y17094092D01*
X-1442517Y17094092D01*
X-1502117Y17100499D01*
X-1502119Y17100500D01*
X-1502127Y17100500D01*
X-1502136Y17100500D01*
X-3597871Y17100500D01*
X-3597877Y17100499D01*
X-3657484Y17094092D01*
X-3792329Y17043798D01*
X-3792336Y17043794D01*
X-3907545Y16957548D01*
X-3907548Y16957545D01*
X-3993794Y16842336D01*
X-3993798Y16842329D01*
X-4044092Y16707483D01*
X-4050499Y16647884D01*
X-4050500Y16647865D01*
X-4050500Y14552130D01*
X-4050499Y14552124D01*
X-4044092Y14492517D01*
X-3993798Y14357672D01*
X-3993794Y14357665D01*
X-3907548Y14242456D01*
X-3907545Y14242453D01*
X-3792336Y14156207D01*
X-3792329Y14156203D01*
X-3747382Y14139439D01*
X-3657483Y14105909D01*
X-3597873Y14099500D01*
X-3352299Y14099501D01*
X-3285261Y14079817D01*
X-3239506Y14027013D01*
X-3228300Y13975501D01*
X-3228300Y13346326D01*
X-3247985Y13279287D01*
X-3300789Y13233532D01*
X-3313293Y13228622D01*
X-3353768Y13215210D01*
X-3418332Y13193815D01*
X-3418337Y13193813D01*
X-3567658Y13101711D01*
X-3691711Y12977658D01*
X-3734242Y12908703D01*
X-3786190Y12861979D01*
X-3839781Y12849800D01*
X-18925307Y12849800D01*
X-18941384Y12846602D01*
X-19056352Y12823734D01*
X-19056353Y12823734D01*
X-19056356Y12823733D01*
X-19056363Y12823731D01*
X-19128665Y12793782D01*
X-19179790Y12772605D01*
X-19179800Y12772600D01*
X-19187930Y12767167D01*
X-19290894Y12698370D01*
X-19290897Y12698367D01*
X-20784019Y11205244D01*
X-20845342Y11171759D01*
X-20915034Y11176743D01*
X-20970967Y11218615D01*
X-20995384Y11284079D01*
X-20995700Y11292925D01*
X-20995700Y15881677D01*
X-20976015Y15948716D01*
X-20959381Y15969358D01*
X-19397358Y17531381D01*
X-19336035Y17564866D01*
X-19309677Y17567700D01*
X3139677Y17567700D01*
X3206716Y17548015D01*
G37*
%TD.AperFunction*%
%TA.AperFunction,Conductor*%
G36*
X47003735Y37499274D02*
G01*
X47293796Y37481729D01*
X47308657Y37479925D01*
X47590797Y37428220D01*
X47605334Y37424637D01*
X47879171Y37339305D01*
X47893163Y37334000D01*
X47994682Y37288310D01*
X48154735Y37216276D01*
X48167994Y37209317D01*
X48290726Y37135123D01*
X48413464Y37060925D01*
X48425776Y37052427D01*
X48651573Y36875527D01*
X48662781Y36865597D01*
X48865595Y36662782D01*
X48875525Y36651574D01*
X49052422Y36425783D01*
X49060928Y36413460D01*
X49209316Y36167996D01*
X49216275Y36154737D01*
X49333997Y35893169D01*
X49339306Y35879168D01*
X49424635Y35605337D01*
X49428219Y35590799D01*
X49479923Y35308660D01*
X49481728Y35293795D01*
X49499273Y35003754D01*
X49499499Y34996267D01*
X49499499Y-34996249D01*
X49499273Y-35003736D01*
X49481727Y-35293794D01*
X49479922Y-35308659D01*
X49428218Y-35590797D01*
X49424634Y-35605335D01*
X49339303Y-35879174D01*
X49333993Y-35893176D01*
X49216276Y-36154730D01*
X49209318Y-36167987D01*
X49060927Y-36413458D01*
X49052421Y-36425782D01*
X48875525Y-36651573D01*
X48865595Y-36662781D01*
X48662780Y-36865595D01*
X48651572Y-36875525D01*
X48425781Y-37052422D01*
X48413458Y-37060928D01*
X48167995Y-37209315D01*
X48154736Y-37216274D01*
X47893167Y-37333996D01*
X47879166Y-37339305D01*
X47605335Y-37424634D01*
X47590797Y-37428218D01*
X47308659Y-37479922D01*
X47293794Y-37481727D01*
X47100701Y-37493407D01*
X47003711Y-37499274D01*
X46996239Y-37499500D01*
X-46996249Y-37499500D01*
X-47003736Y-37499274D01*
X-47293795Y-37481728D01*
X-47308660Y-37479923D01*
X-47590799Y-37428219D01*
X-47605337Y-37424635D01*
X-47879168Y-37339306D01*
X-47893169Y-37333997D01*
X-48154737Y-37216275D01*
X-48167996Y-37209316D01*
X-48413460Y-37060928D01*
X-48425783Y-37052422D01*
X-48651574Y-36875525D01*
X-48662782Y-36865595D01*
X-48865597Y-36662781D01*
X-48875527Y-36651573D01*
X-48885665Y-36638633D01*
X-49052427Y-36425776D01*
X-49060925Y-36413464D01*
X-49201634Y-36180704D01*
X-49209317Y-36167994D01*
X-49216276Y-36154735D01*
X-49333998Y-35893167D01*
X-49339307Y-35879166D01*
X-49347904Y-35851578D01*
X-49424637Y-35605334D01*
X-49428220Y-35590797D01*
X-49479924Y-35308659D01*
X-49481729Y-35293794D01*
X-49495514Y-35065894D01*
X-49499276Y-35003712D01*
X-49499501Y-34996238D01*
X-49499501Y-31878711D01*
X-45850500Y-31878711D01*
X-45850500Y-32121288D01*
X-45819995Y-32353007D01*
X-45818838Y-32361789D01*
X-45815927Y-32372654D01*
X-45756053Y-32596104D01*
X-45663227Y-32820205D01*
X-45663223Y-32820214D01*
X-45648265Y-32846122D01*
X-45541936Y-33030289D01*
X-45541934Y-33030292D01*
X-45541933Y-33030293D01*
X-45394267Y-33222736D01*
X-45394264Y-33222740D01*
X-45222744Y-33394260D01*
X-45222737Y-33394266D01*
X-45109679Y-33481018D01*
X-45030289Y-33541936D01*
X-44820212Y-33663224D01*
X-44596100Y-33756054D01*
X-44361789Y-33818838D01*
X-44181414Y-33842584D01*
X-44121289Y-33850500D01*
X-44121288Y-33850500D01*
X-43878711Y-33850500D01*
X-43830612Y-33844167D01*
X-43638211Y-33818838D01*
X-43403900Y-33756054D01*
X-43179788Y-33663224D01*
X-42969711Y-33541936D01*
X-42777262Y-33394265D01*
X-42698997Y-33316000D01*
X-42605736Y-33222740D01*
X-42605735Y-33222738D01*
X-42458064Y-33030289D01*
X-42336776Y-32820212D01*
X-42243946Y-32596100D01*
X-42181162Y-32361789D01*
X-42149500Y-32121288D01*
X-42149500Y-31878712D01*
X-42181162Y-31638211D01*
X-42243946Y-31403900D01*
X-42336776Y-31179788D01*
X-42458064Y-30969711D01*
X-42530905Y-30874782D01*
X-42605734Y-30777263D01*
X-42605740Y-30777256D01*
X-42777257Y-30605739D01*
X-42777264Y-30605733D01*
X-42969707Y-30458067D01*
X-42969708Y-30458066D01*
X-42969711Y-30458064D01*
X-43179788Y-30336776D01*
X-43207554Y-30325275D01*
X-43403896Y-30243947D01*
X-43638215Y-30181161D01*
X-43878711Y-30149500D01*
X-43878712Y-30149500D01*
X-44121288Y-30149500D01*
X-44121289Y-30149500D01*
X-44361786Y-30181161D01*
X-44596105Y-30243947D01*
X-44820206Y-30336773D01*
X-44820215Y-30336777D01*
X-45030294Y-30458067D01*
X-45222737Y-30605733D01*
X-45222744Y-30605739D01*
X-45394261Y-30777256D01*
X-45394267Y-30777263D01*
X-45541933Y-30969706D01*
X-45541936Y-30969710D01*
X-45541936Y-30969711D01*
X-45554113Y-30990802D01*
X-45663223Y-31179785D01*
X-45663227Y-31179794D01*
X-45756053Y-31403895D01*
X-45818839Y-31638214D01*
X-45850500Y-31878711D01*
X-49499501Y-31878711D01*
X-49499501Y6816000D01*
X-39697341Y6816000D01*
X-39678025Y6619871D01*
X-39620812Y6431267D01*
X-39527914Y6257468D01*
X-39527910Y6257461D01*
X-39402884Y6105117D01*
X-39250540Y5980091D01*
X-39250533Y5980087D01*
X-39076734Y5887189D01*
X-39076731Y5887189D01*
X-39076727Y5887186D01*
X-38888132Y5829976D01*
X-38692000Y5810659D01*
X-38692000Y5810660D01*
X-38685937Y5810062D01*
X-38686199Y5807405D01*
X-38630243Y5790974D01*
X-38609601Y5774340D01*
X-38136619Y5301358D01*
X-38103134Y5240035D01*
X-38100300Y5213677D01*
X-38100300Y-33777645D01*
X-38074236Y-33908680D01*
X-38074234Y-33908686D01*
X-38055163Y-33954727D01*
X-38055164Y-33954727D01*
X-38055163Y-33954728D01*
X-38023105Y-34032125D01*
X-38023104Y-34032126D01*
X-38023102Y-34032130D01*
X-37970991Y-34110119D01*
X-37970847Y-34110334D01*
X-37970846Y-34110335D01*
X-37948869Y-34143227D01*
X-37948868Y-34143228D01*
X-37729028Y-34363067D01*
X-37511287Y-34580808D01*
X-35673304Y-36418791D01*
X-35593634Y-36498461D01*
X-35578824Y-36513271D01*
X-35467733Y-36587500D01*
X-35467734Y-36587500D01*
X-35467732Y-36587501D01*
X-35467730Y-36587502D01*
X-35431581Y-36602475D01*
X-35406012Y-36613066D01*
X-35406009Y-36613067D01*
X-35344287Y-36638634D01*
X-35249564Y-36657475D01*
X-35213246Y-36664699D01*
X-35213242Y-36664700D01*
X-35213241Y-36664700D01*
X-23515592Y-36664700D01*
X-23515591Y-36664699D01*
X-23384547Y-36638634D01*
X-23297260Y-36602478D01*
X-23261104Y-36587502D01*
X-23150009Y-36513270D01*
X-23055530Y-36418791D01*
X-21655130Y-35018391D01*
X-20385130Y-33748391D01*
X-20378226Y-33738059D01*
X-20310898Y-33637296D01*
X-20305797Y-33624981D01*
X-20271400Y-33541939D01*
X-20271399Y-33541935D01*
X-20259766Y-33513853D01*
X-20233700Y-33382807D01*
X-20233700Y-33249193D01*
X-20233700Y-16122323D01*
X-20214015Y-16055284D01*
X-20197381Y-16034642D01*
X-19302058Y-15139319D01*
X-19240735Y-15105834D01*
X-19214377Y-15103000D01*
X-18438807Y-15103000D01*
X-12545042Y-15103000D01*
X-12478003Y-15122685D01*
X-12432248Y-15175489D01*
X-12422304Y-15244647D01*
X-12451329Y-15308203D01*
X-12466377Y-15322853D01*
X-12478884Y-15333116D01*
X-12603910Y-15485460D01*
X-12603914Y-15485467D01*
X-12696812Y-15659266D01*
X-12754025Y-15847870D01*
X-12773341Y-16044000D01*
X-12754025Y-16240129D01*
X-12754024Y-16240132D01*
X-12698605Y-16422824D01*
X-12696812Y-16428733D01*
X-12603914Y-16602532D01*
X-12603910Y-16602539D01*
X-12475019Y-16759592D01*
X-12477099Y-16761298D01*
X-12449157Y-16812364D01*
X-12446300Y-16838828D01*
X-12446300Y-34144811D01*
X-12420592Y-34274053D01*
X-12420234Y-34275853D01*
X-12384108Y-34363067D01*
X-12369102Y-34399296D01*
X-12369101Y-34399298D01*
X-12369099Y-34399301D01*
X-12364683Y-34405910D01*
X-12302606Y-34498814D01*
X-12294870Y-34510391D01*
X-11024870Y-35780391D01*
X-10640470Y-36164791D01*
X-10545991Y-36259270D01*
X-10434896Y-36333502D01*
X-10398741Y-36348478D01*
X-10311453Y-36384634D01*
X-10180412Y-36410699D01*
X-10180408Y-36410700D01*
X-10180407Y-36410700D01*
X37698408Y-36410700D01*
X37698409Y-36410699D01*
X37829453Y-36384634D01*
X37916740Y-36348478D01*
X37952896Y-36333502D01*
X38063991Y-36259270D01*
X38158470Y-36164791D01*
X40574870Y-33748391D01*
X40581774Y-33738059D01*
X40649102Y-33637296D01*
X40661641Y-33607023D01*
X40674180Y-33576752D01*
X40674180Y-33576751D01*
X40688144Y-33543039D01*
X40700234Y-33513852D01*
X40726300Y-33382806D01*
X40726300Y-33249193D01*
X40726300Y-31878711D01*
X42149500Y-31878711D01*
X42149500Y-32121288D01*
X42180005Y-32353007D01*
X42181162Y-32361789D01*
X42184073Y-32372654D01*
X42243947Y-32596104D01*
X42336773Y-32820205D01*
X42336777Y-32820214D01*
X42351735Y-32846122D01*
X42458064Y-33030289D01*
X42458066Y-33030292D01*
X42458067Y-33030293D01*
X42605733Y-33222736D01*
X42605736Y-33222740D01*
X42777256Y-33394260D01*
X42777263Y-33394266D01*
X42890321Y-33481018D01*
X42969711Y-33541936D01*
X43179788Y-33663224D01*
X43403900Y-33756054D01*
X43638211Y-33818838D01*
X43818586Y-33842584D01*
X43878711Y-33850500D01*
X43878712Y-33850500D01*
X44121289Y-33850500D01*
X44169388Y-33844167D01*
X44361789Y-33818838D01*
X44596100Y-33756054D01*
X44820212Y-33663224D01*
X45030289Y-33541936D01*
X45222738Y-33394265D01*
X45301003Y-33316000D01*
X45394264Y-33222740D01*
X45394265Y-33222738D01*
X45541936Y-33030289D01*
X45663224Y-32820212D01*
X45756054Y-32596100D01*
X45818838Y-32361789D01*
X45850500Y-32121288D01*
X45850500Y-31878712D01*
X45818838Y-31638211D01*
X45756054Y-31403900D01*
X45663224Y-31179788D01*
X45541936Y-30969711D01*
X45469095Y-30874782D01*
X45394266Y-30777263D01*
X45394260Y-30777256D01*
X45222743Y-30605739D01*
X45222736Y-30605733D01*
X45030293Y-30458067D01*
X45030292Y-30458066D01*
X45030289Y-30458064D01*
X44820212Y-30336776D01*
X44792446Y-30325275D01*
X44596104Y-30243947D01*
X44361785Y-30181161D01*
X44121289Y-30149500D01*
X44121288Y-30149500D01*
X43878712Y-30149500D01*
X43878711Y-30149500D01*
X43638214Y-30181161D01*
X43403895Y-30243947D01*
X43179794Y-30336773D01*
X43179785Y-30336777D01*
X42969706Y-30458067D01*
X42777263Y-30605733D01*
X42777256Y-30605739D01*
X42605739Y-30777256D01*
X42605733Y-30777263D01*
X42458067Y-30969706D01*
X42458064Y-30969710D01*
X42458064Y-30969711D01*
X42445887Y-30990802D01*
X42336777Y-31179785D01*
X42336773Y-31179794D01*
X42243947Y-31403895D01*
X42181161Y-31638214D01*
X42149500Y-31878711D01*
X40726300Y-31878711D01*
X40726300Y-24867193D01*
X40726300Y-18916323D01*
X40745985Y-18849284D01*
X40762619Y-18828642D01*
X42098867Y-17492394D01*
X42098870Y-17492391D01*
X42133500Y-17440564D01*
X42173102Y-17381296D01*
X42206051Y-17301749D01*
X42224234Y-17257853D01*
X42250300Y-17126807D01*
X42250300Y-16993194D01*
X42250300Y-13536828D01*
X42269985Y-13469789D01*
X42279502Y-13457988D01*
X42279019Y-13457592D01*
X42407909Y-13300539D01*
X42407913Y-13300532D01*
X42429424Y-13260289D01*
X42492942Y-13141454D01*
X42500811Y-13126733D01*
X42500811Y-13126732D01*
X42500814Y-13126727D01*
X42558024Y-12938132D01*
X42577341Y-12742000D01*
X42558024Y-12545868D01*
X42500814Y-12357273D01*
X42500811Y-12357269D01*
X42500811Y-12357266D01*
X42407913Y-12183467D01*
X42407909Y-12183460D01*
X42282883Y-12031116D01*
X42130539Y-11906090D01*
X42130532Y-11906086D01*
X41956733Y-11813188D01*
X41956727Y-11813186D01*
X41768132Y-11755976D01*
X41768129Y-11755975D01*
X41572000Y-11736659D01*
X41375870Y-11755975D01*
X41187266Y-11813188D01*
X41013467Y-11906086D01*
X41013460Y-11906090D01*
X40861116Y-12031116D01*
X40736090Y-12183460D01*
X40736086Y-12183467D01*
X40643188Y-12357266D01*
X40585975Y-12545870D01*
X40566659Y-12742000D01*
X40585975Y-12938129D01*
X40585976Y-12938132D01*
X40636315Y-13104078D01*
X40643188Y-13126733D01*
X40736086Y-13300532D01*
X40736090Y-13300539D01*
X40864981Y-13457592D01*
X40862901Y-13459298D01*
X40890843Y-13510364D01*
X40893700Y-13536828D01*
X40893700Y-16727677D01*
X40874015Y-16794716D01*
X40857381Y-16815358D01*
X40175981Y-17496758D01*
X40114658Y-17530243D01*
X40044966Y-17525259D01*
X39989033Y-17483387D01*
X39964616Y-17417923D01*
X39964300Y-17409077D01*
X39964300Y26694809D01*
X39951782Y26757738D01*
X39950870Y26762324D01*
X39938234Y26825852D01*
X39889429Y26943677D01*
X39887784Y26948275D01*
X39812871Y27060390D01*
X39812870Y27060391D01*
X39718391Y27154870D01*
X36415193Y30458068D01*
X34751972Y32121289D01*
X42149500Y32121289D01*
X42149500Y31878712D01*
X42181161Y31638215D01*
X42243947Y31403896D01*
X42325198Y31207739D01*
X42336776Y31179788D01*
X42458064Y30969711D01*
X42458066Y30969708D01*
X42458067Y30969707D01*
X42605733Y30777264D01*
X42605739Y30777257D01*
X42777256Y30605740D01*
X42777263Y30605734D01*
X42890321Y30518982D01*
X42969711Y30458064D01*
X43179788Y30336776D01*
X43403900Y30243946D01*
X43638211Y30181162D01*
X43818586Y30157416D01*
X43878711Y30149500D01*
X43878712Y30149500D01*
X44121289Y30149500D01*
X44169388Y30155833D01*
X44361789Y30181162D01*
X44596100Y30243946D01*
X44820212Y30336776D01*
X45030289Y30458064D01*
X45222738Y30605735D01*
X45394265Y30777262D01*
X45541936Y30969711D01*
X45663224Y31179788D01*
X45756054Y31403900D01*
X45818838Y31638211D01*
X45850500Y31878712D01*
X45850500Y32121288D01*
X45818838Y32361789D01*
X45756054Y32596100D01*
X45663224Y32820212D01*
X45541936Y33030289D01*
X45394265Y33222738D01*
X45394260Y33222744D01*
X45222743Y33394261D01*
X45222736Y33394267D01*
X45030293Y33541933D01*
X45030292Y33541934D01*
X45030289Y33541936D01*
X44820212Y33663224D01*
X44820205Y33663227D01*
X44596104Y33756053D01*
X44361785Y33818839D01*
X44121289Y33850500D01*
X44121288Y33850500D01*
X43878712Y33850500D01*
X43878711Y33850500D01*
X43638214Y33818839D01*
X43403895Y33756053D01*
X43179794Y33663227D01*
X43179785Y33663223D01*
X42969706Y33541933D01*
X42777263Y33394267D01*
X42777256Y33394261D01*
X42605739Y33222744D01*
X42605733Y33222737D01*
X42458067Y33030294D01*
X42336777Y32820215D01*
X42336773Y32820206D01*
X42243947Y32596105D01*
X42181161Y32361786D01*
X42149500Y32121289D01*
X34751972Y32121289D01*
X32860394Y34012868D01*
X32860386Y34012874D01*
X32827868Y34034602D01*
X32827867Y34034602D01*
X32749296Y34087102D01*
X32749294Y34087103D01*
X32713141Y34102079D01*
X32713140Y34102079D01*
X32625853Y34138234D01*
X32625845Y34138236D01*
X32625844Y34138236D01*
X32494811Y34164300D01*
X32494807Y34164300D01*
X-1452195Y34164300D01*
X-1519234Y34183985D01*
X-1564989Y34236789D01*
X-1569901Y34249295D01*
X-1580186Y34280334D01*
X-1672288Y34429656D01*
X-1796344Y34553712D01*
X-1945666Y34645814D01*
X-2112203Y34700999D01*
X-2112205Y34701000D01*
X-2214990Y34711500D01*
X-2990002Y34711500D01*
X-2990020Y34711499D01*
X-3092797Y34701000D01*
X-3092800Y34700999D01*
X-3259332Y34645815D01*
X-3259337Y34645813D01*
X-3408658Y34553711D01*
X-3532712Y34429657D01*
X-3532717Y34429651D01*
X-3534759Y34426339D01*
X-3536753Y34424547D01*
X-3537193Y34423989D01*
X-3537289Y34424065D01*
X-3586709Y34379617D01*
X-3655672Y34368398D01*
X-3719753Y34396245D01*
X-3745832Y34426344D01*
X-3747681Y34429341D01*
X-3747684Y34429345D01*
X-3871655Y34553316D01*
X-4020876Y34645357D01*
X-4020881Y34645359D01*
X-4187303Y34700506D01*
X-4187310Y34700507D01*
X-4290014Y34711000D01*
X-4427500Y34711000D01*
X-4427500Y32261001D01*
X-4290028Y32261001D01*
X-4290014Y32261002D01*
X-4187303Y32271495D01*
X-4020881Y32326642D01*
X-4020876Y32326644D01*
X-3871655Y32418685D01*
X-3747682Y32542658D01*
X-3745835Y32545652D01*
X-3744031Y32547276D01*
X-3743202Y32548323D01*
X-3743024Y32548182D01*
X-3693890Y32592379D01*
X-3624927Y32603604D01*
X-3560844Y32575764D01*
X-3534757Y32545659D01*
X-3532712Y32542344D01*
X-3408656Y32418288D01*
X-3287203Y32343376D01*
X-3240479Y32291430D01*
X-3228300Y32237838D01*
X-3228300Y31512946D01*
X-3247985Y31445907D01*
X-3293282Y31403892D01*
X-3373499Y31360481D01*
X-3373506Y31360477D01*
X-3569743Y31207739D01*
X-3738167Y31024783D01*
X-3874174Y30816607D01*
X-3974064Y30588882D01*
X-4035108Y30347825D01*
X-4035110Y30347813D01*
X-4055643Y30100006D01*
X-4055643Y30099995D01*
X-4035110Y29852188D01*
X-4035108Y29852176D01*
X-3974064Y29611119D01*
X-3874174Y29383394D01*
X-3738167Y29175218D01*
X-3738164Y29175215D01*
X-3569744Y28992262D01*
X-3373509Y28839526D01*
X-3154810Y28721172D01*
X-2919614Y28640429D01*
X-2674335Y28599500D01*
X-2425665Y28599500D01*
X-2180386Y28640429D01*
X-1945190Y28721172D01*
X-1726491Y28839526D01*
X-1530256Y28992262D01*
X-1361836Y29175215D01*
X-1225827Y29383393D01*
X-1125937Y29611119D01*
X-1064892Y29852179D01*
X-1044357Y30100000D01*
X-1048459Y30149500D01*
X-1064891Y30347813D01*
X-1064893Y30347825D01*
X-1125937Y30588882D01*
X-1225827Y30816607D01*
X-1361834Y31024783D01*
X-1383443Y31048256D01*
X-1530256Y31207738D01*
X-1726491Y31360474D01*
X-1726492Y31360475D01*
X-1726495Y31360477D01*
X-1726502Y31360481D01*
X-1806718Y31403892D01*
X-1856308Y31453111D01*
X-1871700Y31512946D01*
X-1871700Y32302602D01*
X-1852015Y32369641D01*
X-1812795Y32408142D01*
X-1796344Y32418288D01*
X-1672288Y32542344D01*
X-1580186Y32691666D01*
X-1569901Y32722706D01*
X-1530127Y32780150D01*
X-1465611Y32806972D01*
X-1452195Y32807700D01*
X32095677Y32807700D01*
X32162716Y32788015D01*
X32183358Y32771381D01*
X38571381Y26383358D01*
X38604866Y26322035D01*
X38607700Y26295677D01*
X38607700Y-32729677D01*
X38588015Y-32796716D01*
X38571381Y-32817358D01*
X37009358Y-34379381D01*
X36948035Y-34412866D01*
X36921677Y-34415700D01*
X35791050Y-34415700D01*
X35724011Y-34396015D01*
X35678256Y-34343211D01*
X35668312Y-34274053D01*
X35685512Y-34226603D01*
X35757353Y-34110130D01*
X35757358Y-34110119D01*
X35812505Y-33943697D01*
X35812506Y-33943690D01*
X35822999Y-33840986D01*
X35823000Y-33840973D01*
X35823000Y-33566000D01*
X34859500Y-33566000D01*
X34792461Y-33546315D01*
X34746706Y-33493511D01*
X34735500Y-33442000D01*
X34735500Y-33316000D01*
X34609500Y-33316000D01*
X34542461Y-33296315D01*
X34496706Y-33243511D01*
X34485500Y-33192000D01*
X34485500Y-33066000D01*
X34985500Y-33066000D01*
X35822999Y-33066000D01*
X35822999Y-32791028D01*
X35822998Y-32791013D01*
X35812505Y-32688302D01*
X35757358Y-32521880D01*
X35757356Y-32521875D01*
X35665315Y-32372654D01*
X35541345Y-32248684D01*
X35392124Y-32156643D01*
X35392119Y-32156641D01*
X35225697Y-32101494D01*
X35225690Y-32101493D01*
X35122986Y-32091000D01*
X34985500Y-32091000D01*
X34985500Y-33066000D01*
X34485500Y-33066000D01*
X34485500Y-32091000D01*
X34348027Y-32091000D01*
X34348012Y-32091001D01*
X34245302Y-32101494D01*
X34078880Y-32156641D01*
X34078875Y-32156643D01*
X33929654Y-32248684D01*
X33805683Y-32372655D01*
X33805679Y-32372660D01*
X33803826Y-32375665D01*
X33802018Y-32377290D01*
X33801202Y-32378323D01*
X33801025Y-32378183D01*
X33751874Y-32422385D01*
X33682911Y-32433601D01*
X33618831Y-32405752D01*
X33592753Y-32375653D01*
X33592737Y-32375628D01*
X33590712Y-32372344D01*
X33466656Y-32248288D01*
X33466655Y-32248287D01*
X33397702Y-32205756D01*
X33350978Y-32153808D01*
X33338800Y-32100218D01*
X33338800Y-31309192D01*
X33358485Y-31242153D01*
X33386638Y-31211338D01*
X33519744Y-31107738D01*
X33688164Y-30924785D01*
X33824173Y-30716607D01*
X33924063Y-30488881D01*
X33985108Y-30247821D01*
X33993255Y-30149500D01*
X34005643Y-30000005D01*
X34005643Y-29999994D01*
X33985109Y-29752187D01*
X33985107Y-29752175D01*
X33924063Y-29511118D01*
X33824173Y-29283393D01*
X33688166Y-29075217D01*
X33599712Y-28979131D01*
X33519744Y-28892262D01*
X33323509Y-28739526D01*
X33323508Y-28739525D01*
X33323505Y-28739523D01*
X33323498Y-28739519D01*
X33243282Y-28696108D01*
X33193692Y-28646889D01*
X33178300Y-28587054D01*
X33178300Y-23000000D01*
X33494592Y-23000000D01*
X33514201Y-23286680D01*
X33572666Y-23568034D01*
X33572667Y-23568037D01*
X33668894Y-23838793D01*
X33668893Y-23838793D01*
X33801098Y-24093935D01*
X33966812Y-24328700D01*
X34051620Y-24419506D01*
X34162947Y-24538708D01*
X34385853Y-24720055D01*
X34477090Y-24775538D01*
X34631382Y-24869365D01*
X34818237Y-24950526D01*
X34894942Y-24983844D01*
X35171642Y-25061371D01*
X35421920Y-25095771D01*
X35456321Y-25100500D01*
X35456322Y-25100500D01*
X35743679Y-25100500D01*
X35774370Y-25096281D01*
X36028358Y-25061371D01*
X36305058Y-24983844D01*
X36502680Y-24898005D01*
X36568617Y-24869365D01*
X36568620Y-24869363D01*
X36568625Y-24869361D01*
X36814147Y-24720055D01*
X37037053Y-24538708D01*
X37233189Y-24328698D01*
X37398901Y-24093936D01*
X37531104Y-23838797D01*
X37627334Y-23568032D01*
X37685798Y-23286686D01*
X37705408Y-23000000D01*
X37685798Y-22713314D01*
X37627334Y-22431968D01*
X37531105Y-22161206D01*
X37531106Y-22161206D01*
X37398901Y-21906064D01*
X37233187Y-21671299D01*
X37148528Y-21580652D01*
X37037053Y-21461292D01*
X36875604Y-21329944D01*
X36814146Y-21279944D01*
X36568617Y-21130634D01*
X36305063Y-21016158D01*
X36305061Y-21016157D01*
X36305058Y-21016156D01*
X36175578Y-20979877D01*
X36028364Y-20938630D01*
X36028359Y-20938629D01*
X36028358Y-20938629D01*
X35886018Y-20919064D01*
X35743679Y-20899500D01*
X35743678Y-20899500D01*
X35456322Y-20899500D01*
X35456321Y-20899500D01*
X35171642Y-20938629D01*
X35171635Y-20938630D01*
X34993188Y-20988629D01*
X34894942Y-21016156D01*
X34894939Y-21016156D01*
X34894936Y-21016158D01*
X34894935Y-21016158D01*
X34631382Y-21130634D01*
X34385853Y-21279944D01*
X34162950Y-21461289D01*
X34162947Y-21461291D01*
X34162947Y-21461292D01*
X34144967Y-21480544D01*
X33966812Y-21671299D01*
X33801098Y-21906064D01*
X33668894Y-22161206D01*
X33572667Y-22431962D01*
X33572666Y-22431965D01*
X33514201Y-22713319D01*
X33494592Y-23000000D01*
X33178300Y-23000000D01*
X33178300Y-20621193D01*
X33173115Y-20595127D01*
X33173115Y-20595124D01*
X33152235Y-20490155D01*
X33152234Y-20490148D01*
X33114065Y-20398000D01*
X33101102Y-20366704D01*
X33101101Y-20366702D01*
X33101100Y-20366700D01*
X33026871Y-20255610D01*
X32994139Y-20222878D01*
X32932391Y-20161130D01*
X31991242Y-19219981D01*
X31957757Y-19158658D01*
X31962741Y-19088966D01*
X32004613Y-19033033D01*
X32070077Y-19008616D01*
X32078923Y-19008300D01*
X34780808Y-19008300D01*
X34780809Y-19008299D01*
X34911853Y-18982234D01*
X34999140Y-18946078D01*
X35035296Y-18931102D01*
X35146391Y-18856870D01*
X35240870Y-18762391D01*
X37040370Y-16962891D01*
X37072951Y-16914130D01*
X37114602Y-16851796D01*
X37144553Y-16779484D01*
X37144738Y-16779039D01*
X37159942Y-16742335D01*
X37165734Y-16728353D01*
X37191800Y-16597307D01*
X37191800Y-16463693D01*
X37191800Y15252220D01*
X37211485Y15319259D01*
X37250703Y15357759D01*
X37319656Y15400288D01*
X37443712Y15524344D01*
X37535814Y15673666D01*
X37590999Y15840203D01*
X37601500Y15942991D01*
X37601499Y16993008D01*
X37590999Y17095797D01*
X37535814Y17262334D01*
X37443712Y17411656D01*
X37319656Y17535712D01*
X37170334Y17627814D01*
X37125808Y17642569D01*
X37068364Y17682342D01*
X37041542Y17746858D01*
X37040814Y17760274D01*
X37040814Y19741641D01*
X37060499Y19808680D01*
X37105797Y19850696D01*
X37113824Y19855040D01*
X37186023Y19894112D01*
X37382258Y20046848D01*
X37550678Y20229801D01*
X37686687Y20437979D01*
X37786577Y20665705D01*
X37847622Y20906765D01*
X37847623Y20906774D01*
X37868157Y21154581D01*
X37868157Y21154592D01*
X37847623Y21402399D01*
X37847621Y21402411D01*
X37786577Y21643468D01*
X37686687Y21871193D01*
X37550680Y22079369D01*
X37529071Y22102842D01*
X37382258Y22262324D01*
X37186023Y22415060D01*
X37186021Y22415061D01*
X37186020Y22415062D01*
X36967325Y22533414D01*
X36967316Y22533417D01*
X36732130Y22614157D01*
X36486849Y22655086D01*
X36238179Y22655086D01*
X35992897Y22614157D01*
X35757711Y22533417D01*
X35757702Y22533414D01*
X35539007Y22415062D01*
X35342771Y22262325D01*
X35174347Y22079369D01*
X35050017Y21889065D01*
X34996870Y21843708D01*
X34946208Y21832886D01*
X31278820Y21832886D01*
X31211781Y21852571D01*
X31175011Y21889065D01*
X31050680Y22079369D01*
X31029071Y22102842D01*
X30882258Y22262324D01*
X30686023Y22415060D01*
X30686021Y22415061D01*
X30686020Y22415062D01*
X30467325Y22533414D01*
X30467316Y22533417D01*
X30232130Y22614157D01*
X29986849Y22655086D01*
X29738179Y22655086D01*
X29492897Y22614157D01*
X29257711Y22533417D01*
X29257702Y22533414D01*
X29039007Y22415062D01*
X28842771Y22262325D01*
X28674347Y22079369D01*
X28538340Y21871193D01*
X28438450Y21643468D01*
X28377406Y21402411D01*
X28377404Y21402399D01*
X28356871Y21154592D01*
X28356871Y21154581D01*
X28377404Y20906774D01*
X28377406Y20906762D01*
X28438450Y20665705D01*
X28538340Y20437980D01*
X28674347Y20229804D01*
X28674350Y20229801D01*
X28842770Y20046848D01*
X29039005Y19894112D01*
X29257704Y19775758D01*
X29492900Y19695015D01*
X29738179Y19654086D01*
X29986849Y19654086D01*
X30232128Y19695015D01*
X30467324Y19775758D01*
X30686023Y19894112D01*
X30882258Y20046848D01*
X31050678Y20229801D01*
X31175011Y20420107D01*
X31228158Y20465464D01*
X31278820Y20476286D01*
X34946208Y20476286D01*
X35013247Y20456601D01*
X35050017Y20420107D01*
X35174347Y20229804D01*
X35174350Y20229801D01*
X35342770Y20046848D01*
X35465278Y19951496D01*
X35539002Y19894114D01*
X35539007Y19894111D01*
X35619231Y19850696D01*
X35668822Y19801477D01*
X35684214Y19741641D01*
X35684214Y17563944D01*
X35664529Y17496905D01*
X35647895Y17476263D01*
X35583288Y17411657D01*
X35583283Y17411651D01*
X35581241Y17408339D01*
X35579247Y17406547D01*
X35578807Y17405989D01*
X35578711Y17406065D01*
X35529291Y17361617D01*
X35460328Y17350398D01*
X35396247Y17378245D01*
X35370168Y17408344D01*
X35368319Y17411341D01*
X35368316Y17411345D01*
X35244345Y17535316D01*
X35095124Y17627357D01*
X35095119Y17627359D01*
X34928697Y17682506D01*
X34928690Y17682507D01*
X34825986Y17693000D01*
X34688500Y17693000D01*
X34688500Y15243001D01*
X34825972Y15243001D01*
X34825986Y15243002D01*
X34928697Y15253495D01*
X35095119Y15308642D01*
X35095124Y15308644D01*
X35244345Y15400685D01*
X35368318Y15524658D01*
X35370165Y15527652D01*
X35371969Y15529276D01*
X35372798Y15530323D01*
X35372976Y15530182D01*
X35422110Y15574379D01*
X35491073Y15585604D01*
X35555156Y15557764D01*
X35581243Y15527659D01*
X35583288Y15524344D01*
X35707344Y15400288D01*
X35776296Y15357759D01*
X35823021Y15305812D01*
X35835200Y15252220D01*
X35835200Y-12222165D01*
X35815515Y-12289204D01*
X35762711Y-12334959D01*
X35693553Y-12344903D01*
X35629997Y-12315878D01*
X35601842Y-12280618D01*
X35549914Y-12183467D01*
X35549909Y-12183460D01*
X35424883Y-12031116D01*
X35272539Y-11906090D01*
X35272532Y-11906086D01*
X35098733Y-11813188D01*
X35098727Y-11813186D01*
X34910132Y-11755976D01*
X34910129Y-11755975D01*
X34714000Y-11736659D01*
X34517870Y-11755975D01*
X34329266Y-11813188D01*
X34155467Y-11906086D01*
X34155460Y-11906090D01*
X33998408Y-12034981D01*
X33996713Y-12032916D01*
X33945529Y-12060866D01*
X33919171Y-12063700D01*
X33747285Y-12063700D01*
X33680246Y-12044015D01*
X33634491Y-11991211D01*
X33629579Y-11978704D01*
X33623754Y-11961125D01*
X33587814Y-11852666D01*
X33495712Y-11703344D01*
X33371656Y-11579288D01*
X33368342Y-11577243D01*
X33366546Y-11575248D01*
X33365989Y-11574807D01*
X33366064Y-11574711D01*
X33321618Y-11525297D01*
X33310397Y-11456334D01*
X33338240Y-11392252D01*
X33368348Y-11366165D01*
X33371342Y-11364318D01*
X33495315Y-11240345D01*
X33587356Y-11091124D01*
X33587358Y-11091119D01*
X33642505Y-10924697D01*
X33642506Y-10924690D01*
X33652999Y-10821986D01*
X33653000Y-10821973D01*
X33653000Y-10684500D01*
X31203001Y-10684500D01*
X31203001Y-10821986D01*
X31213494Y-10924697D01*
X31268641Y-11091119D01*
X31268643Y-11091124D01*
X31360684Y-11240345D01*
X31484655Y-11364316D01*
X31484659Y-11364319D01*
X31487656Y-11366168D01*
X31489279Y-11367972D01*
X31490323Y-11368798D01*
X31490181Y-11368976D01*
X31534381Y-11418116D01*
X31545602Y-11487079D01*
X31517759Y-11551161D01*
X31487661Y-11577241D01*
X31484349Y-11579283D01*
X31484343Y-11579288D01*
X31360289Y-11703342D01*
X31268187Y-11852663D01*
X31268185Y-11852668D01*
X31243843Y-11926127D01*
X31213001Y-12019203D01*
X31213001Y-12019204D01*
X31213000Y-12019204D01*
X31202500Y-12121983D01*
X31202500Y-12897001D01*
X31202501Y-12897019D01*
X31213000Y-12999796D01*
X31213001Y-12999799D01*
X31263945Y-13153537D01*
X31268186Y-13166334D01*
X31360288Y-13315656D01*
X31484344Y-13439712D01*
X31633666Y-13531814D01*
X31736705Y-13565957D01*
X31794149Y-13605730D01*
X31820972Y-13670245D01*
X31821700Y-13683663D01*
X31821700Y-13875500D01*
X31802015Y-13942539D01*
X31749211Y-13988294D01*
X31697700Y-13999500D01*
X31452130Y-13999500D01*
X31452123Y-13999501D01*
X31392516Y-14005908D01*
X31257671Y-14056202D01*
X31257664Y-14056206D01*
X31142455Y-14142452D01*
X31054838Y-14259493D01*
X30998904Y-14301363D01*
X30929213Y-14306347D01*
X30879410Y-14283035D01*
X30823510Y-14239526D01*
X30823502Y-14239521D01*
X30743282Y-14196108D01*
X30693692Y-14146889D01*
X30678300Y-14087054D01*
X30678300Y-10047013D01*
X31203000Y-10047013D01*
X31203000Y-10184500D01*
X32178000Y-10184500D01*
X32678000Y-10184500D01*
X33652999Y-10184500D01*
X33652999Y-10047028D01*
X33652998Y-10047013D01*
X33642505Y-9944302D01*
X33587358Y-9777880D01*
X33587356Y-9777875D01*
X33495315Y-9628654D01*
X33371345Y-9504684D01*
X33222124Y-9412643D01*
X33222119Y-9412641D01*
X33055697Y-9357494D01*
X33055690Y-9357493D01*
X32952986Y-9347000D01*
X32678000Y-9347000D01*
X32678000Y-10184500D01*
X32178000Y-10184500D01*
X32178000Y-9347000D01*
X31903029Y-9347000D01*
X31903012Y-9347001D01*
X31800302Y-9357494D01*
X31633880Y-9412641D01*
X31633875Y-9412643D01*
X31484654Y-9504684D01*
X31360684Y-9628654D01*
X31268643Y-9777875D01*
X31268641Y-9777880D01*
X31213494Y-9944302D01*
X31213493Y-9944309D01*
X31203000Y-10047013D01*
X30678300Y-10047013D01*
X30678300Y-5675192D01*
X30678299Y-5675188D01*
X30665961Y-5613161D01*
X30652234Y-5544147D01*
X30633646Y-5499273D01*
X30628804Y-5487582D01*
X30628794Y-5487561D01*
X30628782Y-5487530D01*
X30601102Y-5420704D01*
X30537463Y-5325462D01*
X30526871Y-5309610D01*
X30508605Y-5291344D01*
X30432391Y-5215130D01*
X28770991Y-3553730D01*
X27808619Y-2591358D01*
X27775134Y-2530035D01*
X27772300Y-2503677D01*
X27772300Y5767172D01*
X27791985Y5834211D01*
X27801502Y5846012D01*
X27801019Y5846408D01*
X27900165Y5967219D01*
X27929910Y6003462D01*
X28015594Y6163765D01*
X28022811Y6177267D01*
X28022811Y6177268D01*
X28022814Y6177273D01*
X28080024Y6365868D01*
X28099341Y6562000D01*
X28080024Y6758132D01*
X28022814Y6946727D01*
X28022811Y6946731D01*
X28022811Y6946734D01*
X27929913Y7120533D01*
X27929909Y7120540D01*
X27804883Y7272884D01*
X27652539Y7397910D01*
X27652532Y7397914D01*
X27478733Y7490812D01*
X27478727Y7490814D01*
X27290132Y7548024D01*
X27290129Y7548025D01*
X27094000Y7567341D01*
X26897870Y7548025D01*
X26709266Y7490812D01*
X26535467Y7397914D01*
X26535460Y7397910D01*
X26383116Y7272884D01*
X26258090Y7120540D01*
X26258086Y7120533D01*
X26165188Y6946734D01*
X26107975Y6758130D01*
X26088659Y6562000D01*
X26107975Y6365871D01*
X26107976Y6365868D01*
X26158315Y6199922D01*
X26165188Y6177267D01*
X26258086Y6003468D01*
X26258090Y6003461D01*
X26386981Y5846408D01*
X26384901Y5844702D01*
X26412843Y5793636D01*
X26415700Y5767172D01*
X26415700Y-2902811D01*
X26441764Y-3033845D01*
X26441766Y-3033853D01*
X26466410Y-3093348D01*
X26466410Y-3093349D01*
X26492894Y-3157289D01*
X26492902Y-3157304D01*
X26527718Y-3209408D01*
X26548597Y-3276085D01*
X26530113Y-3343466D01*
X26478135Y-3390156D01*
X26424617Y-3402300D01*
X18278337Y-3402300D01*
X18211298Y-3382615D01*
X18165543Y-3329811D01*
X18155599Y-3260653D01*
X18166852Y-3228675D01*
X18165185Y-3227954D01*
X18168280Y-3220800D01*
X18214100Y-3063086D01*
X18214295Y-3060601D01*
X18214295Y-3060600D01*
X15269705Y-3060600D01*
X15269704Y-3060601D01*
X15269899Y-3063086D01*
X15315718Y-3220798D01*
X15399314Y-3362152D01*
X15404100Y-3368322D01*
X15401640Y-3370229D01*
X15428210Y-3418888D01*
X15423226Y-3488580D01*
X15402162Y-3521381D01*
X15403699Y-3522574D01*
X15398915Y-3528740D01*
X15315255Y-3670203D01*
X15315254Y-3670206D01*
X15269402Y-3828026D01*
X15269402Y-3828031D01*
X15266500Y-3864898D01*
X15266500Y-4296301D01*
X15269401Y-4333167D01*
X15269402Y-4333173D01*
X15315254Y-4490993D01*
X15315255Y-4490996D01*
X15315256Y-4490998D01*
X15338499Y-4530300D01*
X15398917Y-4632462D01*
X15398923Y-4632470D01*
X15515129Y-4748676D01*
X15515133Y-4748679D01*
X15515135Y-4748681D01*
X15656602Y-4832344D01*
X15698224Y-4844436D01*
X15814426Y-4878197D01*
X15814429Y-4878197D01*
X15814431Y-4878198D01*
X15851306Y-4881100D01*
X15851314Y-4881100D01*
X17632686Y-4881100D01*
X17632694Y-4881100D01*
X17669569Y-4878198D01*
X17669571Y-4878197D01*
X17669573Y-4878197D01*
X17711191Y-4866105D01*
X17827398Y-4832344D01*
X17922387Y-4776167D01*
X17985508Y-4758900D01*
X28006277Y-4758900D01*
X28073316Y-4778585D01*
X28093958Y-4795219D01*
X29285381Y-5986642D01*
X29318866Y-6047965D01*
X29321700Y-6074323D01*
X29321700Y-14087054D01*
X29302015Y-14154093D01*
X29256718Y-14196108D01*
X29176501Y-14239519D01*
X29176494Y-14239523D01*
X28980255Y-14392262D01*
X28980252Y-14392265D01*
X28841229Y-14543284D01*
X28781342Y-14579275D01*
X28711504Y-14577174D01*
X28658771Y-14543284D01*
X28519747Y-14392265D01*
X28519744Y-14392262D01*
X28434999Y-14326302D01*
X28323509Y-14239526D01*
X28323508Y-14239525D01*
X28323505Y-14239523D01*
X28323498Y-14239519D01*
X28243282Y-14196108D01*
X28193692Y-14146889D01*
X28178300Y-14087054D01*
X28178300Y-11993166D01*
X28197985Y-11926127D01*
X28250789Y-11880372D01*
X28263298Y-11875460D01*
X28280328Y-11869816D01*
X28280328Y-11869815D01*
X28280334Y-11869814D01*
X28429656Y-11777712D01*
X28553712Y-11653656D01*
X28645814Y-11504334D01*
X28700999Y-11337797D01*
X28711500Y-11235009D01*
X28711499Y-10184992D01*
X28707994Y-10150684D01*
X28700999Y-10082203D01*
X28700998Y-10082200D01*
X28693041Y-10058187D01*
X28645814Y-9915666D01*
X28553712Y-9766344D01*
X28429656Y-9642288D01*
X28429655Y-9642287D01*
X28360702Y-9599756D01*
X28313978Y-9547808D01*
X28301800Y-9494218D01*
X28301800Y-8378691D01*
X28290913Y-8323961D01*
X28282473Y-8281530D01*
X28275734Y-8247648D01*
X28226929Y-8129823D01*
X28225284Y-8125225D01*
X28223543Y-8122619D01*
X28194869Y-8079705D01*
X28150371Y-8013109D01*
X28150369Y-8013106D01*
X28150368Y-8013105D01*
X27018394Y-6881132D01*
X27018386Y-6881126D01*
X26966623Y-6846539D01*
X26966622Y-6846539D01*
X26907296Y-6806898D01*
X26901991Y-6804700D01*
X26871141Y-6791921D01*
X26871140Y-6791921D01*
X26783853Y-6755766D01*
X26783845Y-6755764D01*
X26783844Y-6755764D01*
X26652811Y-6729700D01*
X26652807Y-6729700D01*
X15234323Y-6729700D01*
X15167284Y-6710015D01*
X15146642Y-6693381D01*
X14600619Y-6147358D01*
X14567134Y-6086035D01*
X14564300Y-6059677D01*
X14564300Y-737192D01*
X14564299Y-737191D01*
X14555755Y-694233D01*
X14538234Y-606148D01*
X14503863Y-523169D01*
X14503863Y-523168D01*
X14487105Y-482710D01*
X14487103Y-482706D01*
X14487102Y-482704D01*
X14424559Y-389102D01*
X14412871Y-371609D01*
X14119229Y-77967D01*
X13787593Y253669D01*
X13754108Y314992D01*
X13759092Y384684D01*
X13800964Y440617D01*
X13806386Y444454D01*
X13810391Y447130D01*
X13904870Y541609D01*
X14412870Y1049609D01*
X14487102Y1160704D01*
X14524905Y1251969D01*
X14538234Y1284147D01*
X14564300Y1415193D01*
X14564300Y1548806D01*
X14564300Y1548807D01*
X14564300Y5025102D01*
X15266500Y5025102D01*
X15266500Y4593699D01*
X15269401Y4556833D01*
X15269402Y4556827D01*
X15315254Y4399007D01*
X15315255Y4399004D01*
X15398917Y4257538D01*
X15403702Y4251369D01*
X15401256Y4249473D01*
X15427857Y4200758D01*
X15422873Y4131066D01*
X15402069Y4098697D01*
X15403702Y4097431D01*
X15398917Y4091263D01*
X15315255Y3949797D01*
X15315254Y3949794D01*
X15269402Y3791974D01*
X15269401Y3791968D01*
X15266500Y3755102D01*
X15266500Y3323699D01*
X15269401Y3286833D01*
X15269402Y3286827D01*
X15315254Y3129007D01*
X15315255Y3129004D01*
X15398917Y2987538D01*
X15403702Y2981369D01*
X15401256Y2979473D01*
X15427857Y2930758D01*
X15422873Y2861066D01*
X15402069Y2828697D01*
X15403702Y2827431D01*
X15398917Y2821263D01*
X15315255Y2679797D01*
X15315254Y2679794D01*
X15269402Y2521974D01*
X15269401Y2521968D01*
X15266500Y2485102D01*
X15266500Y2053699D01*
X15269401Y2016833D01*
X15269402Y2016827D01*
X15315254Y1859007D01*
X15315255Y1859004D01*
X15315256Y1859002D01*
X15326300Y1840328D01*
X15398917Y1717538D01*
X15403702Y1711369D01*
X15401256Y1709473D01*
X15427857Y1660758D01*
X15422873Y1591066D01*
X15402069Y1558697D01*
X15403702Y1557431D01*
X15398917Y1551263D01*
X15315255Y1409797D01*
X15315254Y1409794D01*
X15269402Y1251974D01*
X15269401Y1251968D01*
X15266500Y1215102D01*
X15266500Y783699D01*
X15269402Y746834D01*
X15269402Y746831D01*
X15315254Y589007D01*
X15315255Y589004D01*
X15315256Y589002D01*
X15323083Y575767D01*
X15398917Y447538D01*
X15403702Y441369D01*
X15401256Y439473D01*
X15427857Y390758D01*
X15422873Y321066D01*
X15402069Y288697D01*
X15403702Y287431D01*
X15398917Y281263D01*
X15315255Y139797D01*
X15315254Y139794D01*
X15269402Y-18026D01*
X15269402Y-18030D01*
X15266500Y-54898D01*
X15266500Y-486301D01*
X15269401Y-523167D01*
X15269402Y-523169D01*
X15315254Y-680993D01*
X15315255Y-680996D01*
X15315256Y-680998D01*
X15350141Y-739985D01*
X15398917Y-822462D01*
X15403702Y-828631D01*
X15401256Y-830527D01*
X15427857Y-879242D01*
X15422873Y-948934D01*
X15402069Y-981303D01*
X15403702Y-982569D01*
X15398917Y-988737D01*
X15315255Y-1130203D01*
X15315254Y-1130206D01*
X15269402Y-1288026D01*
X15269401Y-1288032D01*
X15266500Y-1324898D01*
X15266500Y-1756301D01*
X15269401Y-1793167D01*
X15269402Y-1793173D01*
X15315254Y-1950993D01*
X15315255Y-1950996D01*
X15398917Y-2092462D01*
X15403702Y-2098631D01*
X15401369Y-2100440D01*
X15428210Y-2149595D01*
X15423226Y-2219287D01*
X15402470Y-2251621D01*
X15404097Y-2252883D01*
X15399313Y-2259049D01*
X15315718Y-2400401D01*
X15269899Y-2558113D01*
X15269704Y-2560598D01*
X15269705Y-2560600D01*
X18214295Y-2560600D01*
X18214295Y-2560598D01*
X18214100Y-2558113D01*
X18168281Y-2400401D01*
X18084685Y-2259047D01*
X18079900Y-2252878D01*
X18082366Y-2250964D01*
X18055802Y-2202376D01*
X18060749Y-2132682D01*
X18081856Y-2099832D01*
X18080301Y-2098626D01*
X18085077Y-2092468D01*
X18085081Y-2092465D01*
X18168744Y-1950998D01*
X18214598Y-1793169D01*
X18217500Y-1756294D01*
X18217500Y-1324906D01*
X18214598Y-1288031D01*
X18202152Y-1245193D01*
X18168745Y-1130206D01*
X18168744Y-1130203D01*
X18168744Y-1130202D01*
X18085081Y-988735D01*
X18085078Y-988732D01*
X18080298Y-982569D01*
X18082750Y-980666D01*
X18056155Y-932021D01*
X18061104Y-862326D01*
X18081940Y-829904D01*
X18080298Y-828631D01*
X18085075Y-822470D01*
X18085081Y-822465D01*
X18168744Y-680998D01*
X18214598Y-523169D01*
X18217500Y-486294D01*
X18217500Y-54906D01*
X18214598Y-18031D01*
X18202010Y25296D01*
X18168745Y139794D01*
X18168744Y139797D01*
X18168744Y139798D01*
X18085081Y281265D01*
X18085078Y281268D01*
X18080298Y287431D01*
X18082750Y289334D01*
X18056155Y337979D01*
X18061104Y407674D01*
X18081940Y440096D01*
X18080298Y441369D01*
X18085075Y447530D01*
X18085081Y447535D01*
X18168744Y589002D01*
X18214598Y746831D01*
X18217500Y783706D01*
X18217500Y1215094D01*
X18214598Y1251969D01*
X18205250Y1284144D01*
X18168745Y1409794D01*
X18168744Y1409797D01*
X18168744Y1409798D01*
X18085081Y1551265D01*
X18085078Y1551268D01*
X18080298Y1557431D01*
X18082750Y1559334D01*
X18056155Y1607979D01*
X18061104Y1677674D01*
X18081940Y1710096D01*
X18080298Y1711369D01*
X18085075Y1717530D01*
X18085081Y1717535D01*
X18168744Y1859002D01*
X18214598Y2016831D01*
X18217500Y2053706D01*
X18217500Y2485094D01*
X18214598Y2521969D01*
X18213681Y2525124D01*
X18168745Y2679794D01*
X18168744Y2679797D01*
X18168744Y2679798D01*
X18085081Y2821265D01*
X18085078Y2821268D01*
X18080298Y2827431D01*
X18082750Y2829334D01*
X18056155Y2877979D01*
X18061104Y2947674D01*
X18081940Y2980096D01*
X18080298Y2981369D01*
X18085075Y2987530D01*
X18085081Y2987535D01*
X18168744Y3129002D01*
X18214598Y3286831D01*
X18217500Y3323706D01*
X18217500Y3755094D01*
X18214598Y3791969D01*
X18210141Y3807310D01*
X18169527Y3947105D01*
X18169726Y4016974D01*
X18207668Y4075644D01*
X18271306Y4104488D01*
X18288603Y4105700D01*
X19187171Y4105700D01*
X19254210Y4086015D01*
X19266015Y4076503D01*
X19266408Y4076981D01*
X19423460Y3948091D01*
X19423467Y3948087D01*
X19597266Y3855189D01*
X19597269Y3855189D01*
X19597273Y3855186D01*
X19785868Y3797976D01*
X19982000Y3778659D01*
X20178132Y3797976D01*
X20366727Y3855186D01*
X20540538Y3948090D01*
X20692883Y4073117D01*
X20817910Y4225462D01*
X20877527Y4336998D01*
X20910811Y4399267D01*
X20910811Y4399268D01*
X20910814Y4399273D01*
X20968024Y4587868D01*
X20987341Y4784000D01*
X20968024Y4980132D01*
X20910814Y5168727D01*
X20910811Y5168731D01*
X20910811Y5168734D01*
X20817913Y5342533D01*
X20817909Y5342540D01*
X20692883Y5494884D01*
X20540539Y5619910D01*
X20540532Y5619914D01*
X20366733Y5712812D01*
X20366727Y5712814D01*
X20178132Y5770024D01*
X20178129Y5770025D01*
X19982000Y5789341D01*
X19785870Y5770025D01*
X19597266Y5712812D01*
X19423467Y5619914D01*
X19423460Y5619910D01*
X19266408Y5491019D01*
X19264713Y5493084D01*
X19213529Y5465134D01*
X19187171Y5462300D01*
X18028457Y5462300D01*
X17965336Y5479568D01*
X17904443Y5515580D01*
X17827398Y5561144D01*
X17827397Y5561145D01*
X17827396Y5561145D01*
X17827393Y5561146D01*
X17669573Y5606998D01*
X17669567Y5606999D01*
X17632701Y5609900D01*
X17632694Y5609900D01*
X15851306Y5609900D01*
X15851298Y5609900D01*
X15814432Y5606999D01*
X15814426Y5606998D01*
X15656606Y5561146D01*
X15656603Y5561145D01*
X15515137Y5477483D01*
X15515129Y5477477D01*
X15398923Y5361271D01*
X15398917Y5361263D01*
X15315255Y5219797D01*
X15315254Y5219794D01*
X15269402Y5061974D01*
X15269401Y5061968D01*
X15266500Y5025102D01*
X14564300Y5025102D01*
X14564300Y6120807D01*
X14560940Y6137701D01*
X14555755Y6163769D01*
X14555755Y6163770D01*
X14538235Y6251846D01*
X14538234Y6251853D01*
X14489426Y6369684D01*
X14487783Y6374276D01*
X14487102Y6375296D01*
X14412870Y6486391D01*
X14318391Y6580870D01*
X13952527Y6946734D01*
X13556393Y7342869D01*
X13556386Y7342874D01*
X13508131Y7375117D01*
X13508130Y7375117D01*
X13445296Y7417102D01*
X13445293Y7417104D01*
X13445292Y7417104D01*
X13445291Y7417105D01*
X13405064Y7433767D01*
X13405063Y7433767D01*
X13321853Y7468234D01*
X13321845Y7468236D01*
X13190811Y7494300D01*
X13190807Y7494300D01*
X7106323Y7494300D01*
X7039284Y7513985D01*
X7018642Y7530619D01*
X6726619Y7822642D01*
X6693134Y7883965D01*
X6690300Y7910323D01*
X6690300Y15772808D01*
X6690299Y15772811D01*
X6675380Y15847813D01*
X6666451Y15892705D01*
X6664234Y15903853D01*
X6652144Y15933039D01*
X6648012Y15943014D01*
X33351001Y15943014D01*
X33361494Y15840303D01*
X33416641Y15673881D01*
X33416643Y15673876D01*
X33508684Y15524655D01*
X33632654Y15400685D01*
X33781875Y15308644D01*
X33781880Y15308642D01*
X33948302Y15253495D01*
X33948309Y15253494D01*
X34051019Y15243001D01*
X34188499Y15243001D01*
X34188500Y15243002D01*
X34188500Y16218000D01*
X33351001Y16218000D01*
X33351001Y15943014D01*
X6648012Y15943014D01*
X6638180Y15966751D01*
X6638180Y15966752D01*
X6613100Y16027300D01*
X6538871Y16138390D01*
X6514576Y16162685D01*
X6444391Y16232870D01*
X5684274Y16992987D01*
X33351000Y16992987D01*
X33351000Y16718000D01*
X34188500Y16718000D01*
X34188500Y17693000D01*
X34051027Y17693000D01*
X34051012Y17692999D01*
X33948302Y17682506D01*
X33781880Y17627359D01*
X33781875Y17627357D01*
X33632654Y17535316D01*
X33508684Y17411346D01*
X33416643Y17262125D01*
X33416641Y17262120D01*
X33361494Y17095698D01*
X33361493Y17095691D01*
X33351000Y16992987D01*
X5684274Y16992987D01*
X5180356Y17496905D01*
X3904394Y18772868D01*
X3904390Y18772871D01*
X3793295Y18847103D01*
X3757141Y18862079D01*
X3757140Y18862079D01*
X3669853Y18898234D01*
X3669845Y18898236D01*
X3669844Y18898236D01*
X3538811Y18924300D01*
X3538807Y18924300D01*
X-19575193Y18924300D01*
X-19708807Y18924300D01*
X-19708812Y18924300D01*
X-19839848Y18898236D01*
X-19839864Y18898231D01*
X-19927140Y18862081D01*
X-19927139Y18862080D01*
X-19963298Y18847102D01*
X-20074391Y18772871D01*
X-20074395Y18772868D01*
X-21746761Y17100500D01*
X-22106391Y16740870D01*
X-22131234Y16716027D01*
X-22200872Y16646390D01*
X-22275102Y16535298D01*
X-22290080Y16499139D01*
X-22290081Y16499140D01*
X-22326231Y16411864D01*
X-22326236Y16411848D01*
X-22336900Y16358232D01*
X-22352300Y16280812D01*
X-22352300Y-1001176D01*
X-22371985Y-1068215D01*
X-22388619Y-1088857D01*
X-31255944Y-9956181D01*
X-31317267Y-9989666D01*
X-31343625Y-9992500D01*
X-31946002Y-9992500D01*
X-31946020Y-9992501D01*
X-32048797Y-10003000D01*
X-32048800Y-10003001D01*
X-32215332Y-10058185D01*
X-32215337Y-10058187D01*
X-32364658Y-10150289D01*
X-32488712Y-10274343D01*
X-32488717Y-10274349D01*
X-32490759Y-10277661D01*
X-32492753Y-10279453D01*
X-32493193Y-10280011D01*
X-32493289Y-10279935D01*
X-32542709Y-10324383D01*
X-32611672Y-10335602D01*
X-32675753Y-10307755D01*
X-32701832Y-10277656D01*
X-32703681Y-10274659D01*
X-32703684Y-10274655D01*
X-32827655Y-10150684D01*
X-32976876Y-10058643D01*
X-32976881Y-10058641D01*
X-33143303Y-10003494D01*
X-33143310Y-10003493D01*
X-33246014Y-9993000D01*
X-33383500Y-9993000D01*
X-33383500Y-12442999D01*
X-33246028Y-12442999D01*
X-33246014Y-12442998D01*
X-33143303Y-12432505D01*
X-32976881Y-12377358D01*
X-32976876Y-12377356D01*
X-32827655Y-12285315D01*
X-32703682Y-12161342D01*
X-32701835Y-12158348D01*
X-32700031Y-12156724D01*
X-32699202Y-12155677D01*
X-32699024Y-12155818D01*
X-32649890Y-12111621D01*
X-32580927Y-12100396D01*
X-32516844Y-12128236D01*
X-32490757Y-12158341D01*
X-32488712Y-12161656D01*
X-32364656Y-12285712D01*
X-32237203Y-12364325D01*
X-32190479Y-12416272D01*
X-32178300Y-12469863D01*
X-32178300Y-14137054D01*
X-32197985Y-14204093D01*
X-32243282Y-14246108D01*
X-32323499Y-14289519D01*
X-32323506Y-14289523D01*
X-32519743Y-14442261D01*
X-32688167Y-14625217D01*
X-32824174Y-14833393D01*
X-32924064Y-15061118D01*
X-32985108Y-15302175D01*
X-32985110Y-15302187D01*
X-33005643Y-15549994D01*
X-33005643Y-15550005D01*
X-32985110Y-15797812D01*
X-32985108Y-15797824D01*
X-32924064Y-16038881D01*
X-32824174Y-16266606D01*
X-32688167Y-16474782D01*
X-32688164Y-16474785D01*
X-32519744Y-16657738D01*
X-32323509Y-16810474D01*
X-32314484Y-16815358D01*
X-32188148Y-16883728D01*
X-32104810Y-16928828D01*
X-31869614Y-17009571D01*
X-31728031Y-17033196D01*
X-31720909Y-17034385D01*
X-31658024Y-17064835D01*
X-31621584Y-17124450D01*
X-31623159Y-17194302D01*
X-31653637Y-17244375D01*
X-31794107Y-17384846D01*
X-31932391Y-17523130D01*
X-31979632Y-17570370D01*
X-32026872Y-17617610D01*
X-32101104Y-17728706D01*
X-32115016Y-17762295D01*
X-32152233Y-17852144D01*
X-32152236Y-17852154D01*
X-32175253Y-17967871D01*
X-32178300Y-17983188D01*
X-32178300Y-28637054D01*
X-32197985Y-28704093D01*
X-32243282Y-28746108D01*
X-32323499Y-28789519D01*
X-32323506Y-28789523D01*
X-32519743Y-28942261D01*
X-32688167Y-29125217D01*
X-32824174Y-29333393D01*
X-32924064Y-29561118D01*
X-32985108Y-29802175D01*
X-32985110Y-29802187D01*
X-33005643Y-30049994D01*
X-33005643Y-30050005D01*
X-32985110Y-30297812D01*
X-32985108Y-30297824D01*
X-32924064Y-30538881D01*
X-32824174Y-30766606D01*
X-32688167Y-30974782D01*
X-32688164Y-30974785D01*
X-32519744Y-31157738D01*
X-32323509Y-31310474D01*
X-32323292Y-31310591D01*
X-32323219Y-31310663D01*
X-32319217Y-31313278D01*
X-32319755Y-31314101D01*
X-32273697Y-31359806D01*
X-32258300Y-31419651D01*
X-32258300Y-32775171D01*
X-32277985Y-32842210D01*
X-32287498Y-32854015D01*
X-32287019Y-32854408D01*
X-32415910Y-33011460D01*
X-32415914Y-33011467D01*
X-32508812Y-33185266D01*
X-32566025Y-33373870D01*
X-32585341Y-33570000D01*
X-32566025Y-33766129D01*
X-32563799Y-33773467D01*
X-32512130Y-33943797D01*
X-32508812Y-33954733D01*
X-32415914Y-34128532D01*
X-32415910Y-34128539D01*
X-32290884Y-34280883D01*
X-32138540Y-34405909D01*
X-32138533Y-34405913D01*
X-32081605Y-34436342D01*
X-32031761Y-34485304D01*
X-32016300Y-34553441D01*
X-32040131Y-34619121D01*
X-32095689Y-34661490D01*
X-32140058Y-34669700D01*
X-34549677Y-34669700D01*
X-34616716Y-34650015D01*
X-34637358Y-34633381D01*
X-35945981Y-33324758D01*
X-35979466Y-33263435D01*
X-35982300Y-33237077D01*
X-35982300Y-24888332D01*
X-35962615Y-24821293D01*
X-35909811Y-24775538D01*
X-35840653Y-24765594D01*
X-35793876Y-24782382D01*
X-35603761Y-24897994D01*
X-35568618Y-24919365D01*
X-35420177Y-24983841D01*
X-35305058Y-25033844D01*
X-35028358Y-25111371D01*
X-34778080Y-25145771D01*
X-34743679Y-25150500D01*
X-34743678Y-25150500D01*
X-34456321Y-25150500D01*
X-34422215Y-25145812D01*
X-34171642Y-25111371D01*
X-33894942Y-25033844D01*
X-33769316Y-24979277D01*
X-33631383Y-24919365D01*
X-33631380Y-24919363D01*
X-33631375Y-24919361D01*
X-33385853Y-24770055D01*
X-33162947Y-24588708D01*
X-32966811Y-24378698D01*
X-32801099Y-24143936D01*
X-32668896Y-23888797D01*
X-32572666Y-23618032D01*
X-32514202Y-23336686D01*
X-32494592Y-23050000D01*
X-32514202Y-22763314D01*
X-32572666Y-22481968D01*
X-32668895Y-22211206D01*
X-32668894Y-22211206D01*
X-32801099Y-21956064D01*
X-32966813Y-21721299D01*
X-33071355Y-21609363D01*
X-33162947Y-21511292D01*
X-33385853Y-21329945D01*
X-33385854Y-21329944D01*
X-33631383Y-21180634D01*
X-33894937Y-21066158D01*
X-33894939Y-21066157D01*
X-33894942Y-21066156D01*
X-34025370Y-21029612D01*
X-34171636Y-20988630D01*
X-34171641Y-20988629D01*
X-34171642Y-20988629D01*
X-34313982Y-20969064D01*
X-34456321Y-20949500D01*
X-34456322Y-20949500D01*
X-34743678Y-20949500D01*
X-34743679Y-20949500D01*
X-35028358Y-20988629D01*
X-35028365Y-20988630D01*
X-35221103Y-21042633D01*
X-35305058Y-21066156D01*
X-35305061Y-21066156D01*
X-35305064Y-21066158D01*
X-35305065Y-21066158D01*
X-35568618Y-21180634D01*
X-35793871Y-21317615D01*
X-35861379Y-21335629D01*
X-35927909Y-21314286D01*
X-35972339Y-21260362D01*
X-35982300Y-21211667D01*
X-35982300Y-11742986D01*
X-34720999Y-11742986D01*
X-34710506Y-11845697D01*
X-34655359Y-12012119D01*
X-34655357Y-12012124D01*
X-34563316Y-12161345D01*
X-34439346Y-12285315D01*
X-34290125Y-12377356D01*
X-34290120Y-12377358D01*
X-34123698Y-12432505D01*
X-34123691Y-12432506D01*
X-34020981Y-12442999D01*
X-33883501Y-12442999D01*
X-33883500Y-12442998D01*
X-33883500Y-11468000D01*
X-34720999Y-11468000D01*
X-34720999Y-11742986D01*
X-35982300Y-11742986D01*
X-35982300Y-10693013D01*
X-34721000Y-10693013D01*
X-34721000Y-10968000D01*
X-33883500Y-10968000D01*
X-33883500Y-9993000D01*
X-34020973Y-9993000D01*
X-34020988Y-9993001D01*
X-34123698Y-10003494D01*
X-34290120Y-10058641D01*
X-34290125Y-10058643D01*
X-34439346Y-10150684D01*
X-34563316Y-10274654D01*
X-34655357Y-10423875D01*
X-34655359Y-10423880D01*
X-34710506Y-10590302D01*
X-34710507Y-10590309D01*
X-34721000Y-10693013D01*
X-35982300Y-10693013D01*
X-35982300Y13087077D01*
X-35962615Y13154116D01*
X-35945981Y13174758D01*
X-35349633Y13771106D01*
X-35349630Y13771109D01*
X-35295720Y13851791D01*
X-35275398Y13882204D01*
X-35248861Y13946270D01*
X-35224266Y14005647D01*
X-35198200Y14136693D01*
X-35198200Y14270307D01*
X-35198200Y16014220D01*
X-35178515Y16081259D01*
X-35139297Y16119759D01*
X-35070344Y16162288D01*
X-34946288Y16286344D01*
X-34854186Y16435666D01*
X-34799001Y16602203D01*
X-34788500Y16704991D01*
X-34788501Y17755008D01*
X-34799001Y17857797D01*
X-34854186Y18024334D01*
X-34946288Y18173656D01*
X-35070344Y18297712D01*
X-35070345Y18297713D01*
X-35139298Y18340244D01*
X-35186022Y18392192D01*
X-35198200Y18445782D01*
X-35198200Y19728126D01*
X-35178515Y19795165D01*
X-35133217Y19837181D01*
X-35036498Y19889522D01*
X-35036491Y19889526D01*
X-34840256Y20042262D01*
X-34671836Y20225215D01*
X-34547503Y20415521D01*
X-34494356Y20460878D01*
X-34443694Y20471700D01*
X-30776306Y20471700D01*
X-30709267Y20452015D01*
X-30672497Y20415521D01*
X-30548167Y20225218D01*
X-30548164Y20225215D01*
X-30379744Y20042262D01*
X-30183509Y19889526D01*
X-30119784Y19855040D01*
X-29973281Y19775756D01*
X-29964810Y19771172D01*
X-29729614Y19690429D01*
X-29484335Y19649500D01*
X-29235665Y19649500D01*
X-28990386Y19690429D01*
X-28755190Y19771172D01*
X-28536491Y19889526D01*
X-28340256Y20042262D01*
X-28171836Y20225215D01*
X-28035827Y20433393D01*
X-27935937Y20661119D01*
X-27874892Y20902179D01*
X-27874511Y20906774D01*
X-27854357Y21149995D01*
X-27854357Y21150006D01*
X-27874891Y21397813D01*
X-27874893Y21397825D01*
X-27935937Y21638882D01*
X-28035827Y21866607D01*
X-28171834Y22074783D01*
X-28193443Y22098256D01*
X-28340256Y22257738D01*
X-28536491Y22410474D01*
X-28536493Y22410475D01*
X-28536494Y22410476D01*
X-28755189Y22528828D01*
X-28755198Y22528831D01*
X-28990384Y22609571D01*
X-29235665Y22650500D01*
X-29484335Y22650500D01*
X-29729617Y22609571D01*
X-29964803Y22528831D01*
X-29964812Y22528828D01*
X-30183507Y22410476D01*
X-30379743Y22257739D01*
X-30548167Y22074783D01*
X-30672497Y21884479D01*
X-30725644Y21839122D01*
X-30776306Y21828300D01*
X-34443694Y21828300D01*
X-34510733Y21847985D01*
X-34547503Y21884479D01*
X-34671834Y22074783D01*
X-34693443Y22098256D01*
X-34840256Y22257738D01*
X-35036491Y22410474D01*
X-35036493Y22410475D01*
X-35036494Y22410476D01*
X-35255189Y22528828D01*
X-35255198Y22528831D01*
X-35490384Y22609571D01*
X-35735665Y22650500D01*
X-35984335Y22650500D01*
X-36229617Y22609571D01*
X-36464803Y22528831D01*
X-36464812Y22528828D01*
X-36683507Y22410476D01*
X-36879743Y22257739D01*
X-37048167Y22074783D01*
X-37184174Y21866607D01*
X-37284064Y21638882D01*
X-37345108Y21397825D01*
X-37345110Y21397813D01*
X-37365643Y21150006D01*
X-37365643Y21149995D01*
X-37345110Y20902188D01*
X-37345108Y20902176D01*
X-37284064Y20661119D01*
X-37184174Y20433394D01*
X-37048167Y20225218D01*
X-37048164Y20225215D01*
X-36879744Y20042262D01*
X-36757236Y19946910D01*
X-36683512Y19889528D01*
X-36683503Y19889522D01*
X-36619784Y19855040D01*
X-36570193Y19805822D01*
X-36554800Y19745985D01*
X-36554800Y18445782D01*
X-36574485Y18378743D01*
X-36613702Y18340244D01*
X-36682656Y18297713D01*
X-36806712Y18173657D01*
X-36806717Y18173651D01*
X-36808759Y18170339D01*
X-36810753Y18168547D01*
X-36811193Y18167989D01*
X-36811289Y18168065D01*
X-36860709Y18123617D01*
X-36929672Y18112398D01*
X-36993753Y18140245D01*
X-37019832Y18170344D01*
X-37021681Y18173341D01*
X-37021684Y18173345D01*
X-37145655Y18297316D01*
X-37294876Y18389357D01*
X-37294881Y18389359D01*
X-37461303Y18444506D01*
X-37461310Y18444507D01*
X-37564014Y18455000D01*
X-37701500Y18455000D01*
X-37701500Y16005001D01*
X-37564028Y16005001D01*
X-37564014Y16005002D01*
X-37461303Y16015495D01*
X-37294881Y16070642D01*
X-37294876Y16070644D01*
X-37145655Y16162685D01*
X-37021682Y16286658D01*
X-37019835Y16289652D01*
X-37018031Y16291276D01*
X-37017202Y16292323D01*
X-37017024Y16292182D01*
X-36967890Y16336379D01*
X-36898927Y16347604D01*
X-36834844Y16319764D01*
X-36808757Y16289659D01*
X-36806712Y16286344D01*
X-36682656Y16162288D01*
X-36613704Y16119759D01*
X-36566979Y16067812D01*
X-36554800Y16014220D01*
X-36554800Y14535823D01*
X-36574485Y14468784D01*
X-36591119Y14448142D01*
X-37092991Y13946270D01*
X-37140232Y13899030D01*
X-37187472Y13851790D01*
X-37262387Y13739672D01*
X-37264034Y13735066D01*
X-37312833Y13617256D01*
X-37312836Y13617246D01*
X-37325960Y13551268D01*
X-37325959Y13551267D01*
X-37338900Y13486206D01*
X-37338900Y6721523D01*
X-37358585Y6654484D01*
X-37411389Y6608729D01*
X-37480547Y6598785D01*
X-37544103Y6627810D01*
X-37550581Y6633842D01*
X-37650340Y6733601D01*
X-37683825Y6794924D01*
X-37685446Y6809998D01*
X-37686062Y6809937D01*
X-37705976Y7012130D01*
X-37705976Y7012132D01*
X-37763186Y7200727D01*
X-37763189Y7200731D01*
X-37763189Y7200734D01*
X-37856087Y7374533D01*
X-37856091Y7374540D01*
X-37981117Y7526884D01*
X-38133461Y7651910D01*
X-38133468Y7651914D01*
X-38307267Y7744812D01*
X-38307273Y7744814D01*
X-38495868Y7802024D01*
X-38495871Y7802025D01*
X-38692000Y7821341D01*
X-38888130Y7802025D01*
X-39076734Y7744812D01*
X-39250533Y7651914D01*
X-39250540Y7651910D01*
X-39402884Y7526884D01*
X-39527910Y7374540D01*
X-39527914Y7374533D01*
X-39620812Y7200734D01*
X-39678025Y7012130D01*
X-39697341Y6816000D01*
X-49499501Y6816000D01*
X-49499501Y8086000D01*
X-42237341Y8086000D01*
X-42218025Y7889871D01*
X-42160812Y7701267D01*
X-42067914Y7527468D01*
X-42067910Y7527461D01*
X-41942884Y7375117D01*
X-41790540Y7250091D01*
X-41790533Y7250087D01*
X-41616734Y7157189D01*
X-41616731Y7157189D01*
X-41616727Y7157186D01*
X-41428132Y7099976D01*
X-41232000Y7080659D01*
X-41035868Y7099976D01*
X-40847273Y7157186D01*
X-40673462Y7250090D01*
X-40521117Y7375117D01*
X-40396090Y7527462D01*
X-40303186Y7701273D01*
X-40245976Y7889868D01*
X-40226659Y8086000D01*
X-40245976Y8282132D01*
X-40303186Y8470727D01*
X-40303189Y8470731D01*
X-40303189Y8470734D01*
X-40396087Y8644533D01*
X-40396091Y8644540D01*
X-40524981Y8801592D01*
X-40522917Y8803287D01*
X-40550866Y8854471D01*
X-40553700Y8880829D01*
X-40553700Y16705014D01*
X-39038999Y16705014D01*
X-39028506Y16602303D01*
X-38973359Y16435881D01*
X-38973357Y16435876D01*
X-38881316Y16286655D01*
X-38757346Y16162685D01*
X-38608125Y16070644D01*
X-38608120Y16070642D01*
X-38441698Y16015495D01*
X-38441691Y16015494D01*
X-38338981Y16005001D01*
X-38201501Y16005001D01*
X-38201500Y16005002D01*
X-38201500Y16980000D01*
X-39038999Y16980000D01*
X-39038999Y16705014D01*
X-40553700Y16705014D01*
X-40553700Y17754987D01*
X-39039000Y17754987D01*
X-39039000Y17480000D01*
X-38201500Y17480000D01*
X-38201500Y18455000D01*
X-38338973Y18455000D01*
X-38338988Y18454999D01*
X-38441698Y18444506D01*
X-38608120Y18389359D01*
X-38608125Y18389357D01*
X-38757346Y18297316D01*
X-38881316Y18173346D01*
X-38973357Y18024125D01*
X-38973359Y18024120D01*
X-39028506Y17857698D01*
X-39028507Y17857691D01*
X-39039000Y17754987D01*
X-40553700Y17754987D01*
X-40553700Y23501677D01*
X-40534015Y23568716D01*
X-40517381Y23589358D01*
X-39171358Y24935381D01*
X-39110035Y24968866D01*
X-39083677Y24971700D01*
X-37276306Y24971700D01*
X-37209267Y24952015D01*
X-37172497Y24915521D01*
X-37048167Y24725218D01*
X-37048164Y24725215D01*
X-36879744Y24542262D01*
X-36683509Y24389526D01*
X-36574160Y24330349D01*
X-36473281Y24275756D01*
X-36464810Y24271172D01*
X-36229614Y24190429D01*
X-35984335Y24149500D01*
X-35735665Y24149500D01*
X-35490386Y24190429D01*
X-35255190Y24271172D01*
X-35036491Y24389526D01*
X-34840256Y24542262D01*
X-34671836Y24725215D01*
X-34644865Y24766497D01*
X-34547503Y24915521D01*
X-34494356Y24960878D01*
X-34443694Y24971700D01*
X-30776306Y24971700D01*
X-30709267Y24952015D01*
X-30672497Y24915521D01*
X-30548167Y24725218D01*
X-30548164Y24725215D01*
X-30379744Y24542262D01*
X-30183509Y24389526D01*
X-30074160Y24330349D01*
X-29973281Y24275756D01*
X-29964810Y24271172D01*
X-29729614Y24190429D01*
X-29484335Y24149500D01*
X-29235665Y24149500D01*
X-28990386Y24190429D01*
X-28755190Y24271172D01*
X-28536491Y24389526D01*
X-28340256Y24542262D01*
X-28171836Y24725215D01*
X-28144865Y24766497D01*
X-28047503Y24915521D01*
X-27994356Y24960878D01*
X-27943694Y24971700D01*
X-7026653Y24971700D01*
X-6959614Y24952015D01*
X-6913859Y24899211D01*
X-6903915Y24830053D01*
X-6932940Y24766497D01*
X-6948398Y24751512D01*
X-7087050Y24638711D01*
X-7283188Y24428701D01*
X-7448902Y24193936D01*
X-7581106Y23938794D01*
X-7677333Y23668038D01*
X-7677334Y23668035D01*
X-7735799Y23386681D01*
X-7755408Y23100000D01*
X-7735799Y22813320D01*
X-7677334Y22531966D01*
X-7677333Y22531963D01*
X-7581109Y22261214D01*
X-7581107Y22261207D01*
X-7448902Y22006065D01*
X-7283188Y21771300D01*
X-7198077Y21680169D01*
X-7087053Y21561292D01*
X-6886120Y21397821D01*
X-6864147Y21379945D01*
X-6618618Y21230635D01*
X-6432989Y21150006D01*
X-6355058Y21116156D01*
X-6078358Y21038629D01*
X-5828080Y21004229D01*
X-5793679Y20999500D01*
X-5793678Y20999500D01*
X-5506321Y20999500D01*
X-5475630Y21003719D01*
X-5221642Y21038629D01*
X-4944942Y21116156D01*
X-4831985Y21165221D01*
X-4681383Y21230635D01*
X-4681380Y21230637D01*
X-4681375Y21230639D01*
X-4435853Y21379945D01*
X-4212947Y21561292D01*
X-4016811Y21771302D01*
X-3851099Y22006064D01*
X-3718896Y22261203D01*
X-3718896Y22261204D01*
X-3718894Y22261207D01*
X-3718891Y22261214D01*
X-3622668Y22531963D01*
X-3622667Y22531966D01*
X-3622666Y22531968D01*
X-3564202Y22813314D01*
X-3544592Y23100000D01*
X-3564202Y23386686D01*
X-3622666Y23668032D01*
X-3718895Y23938794D01*
X-3718894Y23938794D01*
X-3851099Y24193936D01*
X-4016813Y24428701D01*
X-4127156Y24546848D01*
X-4212947Y24638708D01*
X-4351602Y24751512D01*
X-4391182Y24809089D01*
X-4393351Y24878925D01*
X-4357420Y24938847D01*
X-4294795Y24969831D01*
X-4273347Y24971700D01*
X-1933192Y24971700D01*
X-1933191Y24971701D01*
X-1802147Y24997766D01*
X-1714860Y25033922D01*
X-1678704Y25048898D01*
X-1567609Y25123130D01*
X-1473130Y25217609D01*
X1928359Y28619100D01*
X1989680Y28652583D01*
X2056302Y28648698D01*
X2080386Y28640429D01*
X2325665Y28599500D01*
X2574335Y28599500D01*
X2819614Y28640429D01*
X2843697Y28648698D01*
X2913491Y28651849D01*
X2971641Y28619098D01*
X6270081Y25320658D01*
X6303566Y25259335D01*
X6298582Y25189643D01*
X6256710Y25133710D01*
X6191246Y25109293D01*
X6148946Y25113575D01*
X6110490Y25124350D01*
X5978364Y25161370D01*
X5978359Y25161371D01*
X5978358Y25161371D01*
X5836018Y25180936D01*
X5693679Y25200500D01*
X5693678Y25200500D01*
X5406322Y25200500D01*
X5406321Y25200500D01*
X5121642Y25161371D01*
X5121635Y25161370D01*
X4951054Y25113575D01*
X4844942Y25083844D01*
X4844939Y25083844D01*
X4844936Y25083842D01*
X4844935Y25083842D01*
X4581382Y24969366D01*
X4335853Y24820056D01*
X4112950Y24638711D01*
X3916812Y24428701D01*
X3751098Y24193936D01*
X3618894Y23938794D01*
X3522667Y23668038D01*
X3522666Y23668035D01*
X3464201Y23386681D01*
X3444592Y23100000D01*
X3464201Y22813320D01*
X3522666Y22531966D01*
X3522667Y22531963D01*
X3618891Y22261214D01*
X3618893Y22261207D01*
X3751098Y22006065D01*
X3916812Y21771300D01*
X4001923Y21680169D01*
X4112947Y21561292D01*
X4313880Y21397821D01*
X4335853Y21379945D01*
X4581382Y21230635D01*
X4767011Y21150006D01*
X4844942Y21116156D01*
X5121642Y21038629D01*
X5371920Y21004229D01*
X5406321Y20999500D01*
X5406322Y20999500D01*
X5693679Y20999500D01*
X5724370Y21003719D01*
X5978358Y21038629D01*
X6255058Y21116156D01*
X6368015Y21165221D01*
X6518617Y21230635D01*
X6518620Y21230637D01*
X6518625Y21230639D01*
X6764147Y21379945D01*
X6987053Y21561292D01*
X7183189Y21771302D01*
X7348901Y22006064D01*
X7481104Y22261203D01*
X7481104Y22261204D01*
X7481106Y22261207D01*
X7481109Y22261214D01*
X7577332Y22531963D01*
X7577333Y22531966D01*
X7577334Y22531968D01*
X7635798Y22813314D01*
X7655408Y23100000D01*
X7635798Y23386686D01*
X7577334Y23668032D01*
X7481105Y23938794D01*
X7481106Y23938794D01*
X7348901Y24193936D01*
X7183187Y24428701D01*
X7072844Y24546848D01*
X6987053Y24638708D01*
X6842761Y24756098D01*
X6803181Y24813675D01*
X6801012Y24883511D01*
X6836943Y24943433D01*
X6899568Y24974417D01*
X6921016Y24976286D01*
X6962221Y24976286D01*
X28446208Y24976286D01*
X28513247Y24956601D01*
X28550017Y24920107D01*
X28674347Y24729804D01*
X28674350Y24729801D01*
X28842770Y24546848D01*
X29039005Y24394112D01*
X29257704Y24275758D01*
X29492900Y24195015D01*
X29738179Y24154086D01*
X29986849Y24154086D01*
X30232128Y24195015D01*
X30467324Y24275758D01*
X30686023Y24394112D01*
X30882258Y24546848D01*
X31050678Y24729801D01*
X31050680Y24729804D01*
X31175011Y24920107D01*
X31228158Y24965464D01*
X31278820Y24976286D01*
X34946208Y24976286D01*
X35013247Y24956601D01*
X35050017Y24920107D01*
X35174347Y24729804D01*
X35174350Y24729801D01*
X35342770Y24546848D01*
X35539005Y24394112D01*
X35757704Y24275758D01*
X35992900Y24195015D01*
X36238179Y24154086D01*
X36486849Y24154086D01*
X36732128Y24195015D01*
X36967324Y24275758D01*
X37186023Y24394112D01*
X37382258Y24546848D01*
X37550678Y24729801D01*
X37686687Y24937979D01*
X37786577Y25165705D01*
X37847622Y25406765D01*
X37868157Y25654586D01*
X37847622Y25902407D01*
X37786577Y26143467D01*
X37763705Y26195609D01*
X37686687Y26371193D01*
X37550680Y26579369D01*
X37529071Y26602842D01*
X37382258Y26762324D01*
X37186023Y26915060D01*
X37186021Y26915061D01*
X37186020Y26915062D01*
X36967325Y27033414D01*
X36967316Y27033417D01*
X36732130Y27114157D01*
X36486849Y27155086D01*
X36238179Y27155086D01*
X35992897Y27114157D01*
X35757711Y27033417D01*
X35757702Y27033414D01*
X35539007Y26915062D01*
X35342771Y26762325D01*
X35174347Y26579369D01*
X35050017Y26389065D01*
X34996870Y26343708D01*
X34946208Y26332886D01*
X31278820Y26332886D01*
X31211781Y26352571D01*
X31175011Y26389065D01*
X31050680Y26579369D01*
X31029071Y26602842D01*
X30882258Y26762324D01*
X30686023Y26915060D01*
X30686021Y26915061D01*
X30686020Y26915062D01*
X30467325Y27033414D01*
X30467316Y27033417D01*
X30232130Y27114157D01*
X29986849Y27155086D01*
X29738179Y27155086D01*
X29492897Y27114157D01*
X29257711Y27033417D01*
X29257702Y27033414D01*
X29039007Y26915062D01*
X28842771Y26762325D01*
X28674347Y26579369D01*
X28550017Y26389065D01*
X28496870Y26343708D01*
X28446208Y26332886D01*
X7227737Y26332886D01*
X7160698Y26352571D01*
X7140056Y26369205D01*
X3928749Y29580512D01*
X3895264Y29641835D01*
X3896225Y29698634D01*
X3935105Y29852167D01*
X3935107Y29852176D01*
X3935108Y29852179D01*
X3955643Y30100000D01*
X3951541Y30149500D01*
X3935109Y30347813D01*
X3935107Y30347825D01*
X3874063Y30588882D01*
X3774173Y30816607D01*
X3638166Y31024783D01*
X3616557Y31048256D01*
X3469744Y31207738D01*
X3273509Y31360474D01*
X3273507Y31360475D01*
X3273506Y31360476D01*
X3054811Y31478828D01*
X3054802Y31478831D01*
X2819616Y31559571D01*
X2574335Y31600500D01*
X2325665Y31600500D01*
X2080383Y31559571D01*
X1845197Y31478831D01*
X1845188Y31478828D01*
X1626493Y31360476D01*
X1430257Y31207739D01*
X1261833Y31024783D01*
X1125826Y30816607D01*
X1025936Y30588882D01*
X964892Y30347825D01*
X964890Y30347813D01*
X944357Y30100006D01*
X944357Y30099995D01*
X964891Y29852183D01*
X1003775Y29698634D01*
X1001150Y29628814D01*
X971250Y29580513D01*
X-2244642Y26364619D01*
X-2305965Y26331134D01*
X-2332323Y26328300D01*
X-27943694Y26328300D01*
X-28010733Y26347985D01*
X-28047503Y26384479D01*
X-28171834Y26574783D01*
X-28193443Y26598256D01*
X-28340256Y26757738D01*
X-28536491Y26910474D01*
X-28536493Y26910475D01*
X-28536494Y26910476D01*
X-28755189Y27028828D01*
X-28755198Y27028831D01*
X-28990384Y27109571D01*
X-29235665Y27150500D01*
X-29484335Y27150500D01*
X-29729617Y27109571D01*
X-29964803Y27028831D01*
X-29964812Y27028828D01*
X-30183507Y26910476D01*
X-30379743Y26757739D01*
X-30548167Y26574783D01*
X-30672497Y26384479D01*
X-30725644Y26339122D01*
X-30776306Y26328300D01*
X-34443694Y26328300D01*
X-34510733Y26347985D01*
X-34547503Y26384479D01*
X-34671834Y26574783D01*
X-34693443Y26598256D01*
X-34840256Y26757738D01*
X-35036491Y26910474D01*
X-35036493Y26910475D01*
X-35036494Y26910476D01*
X-35255189Y27028828D01*
X-35255198Y27028831D01*
X-35490384Y27109571D01*
X-35735665Y27150500D01*
X-35984335Y27150500D01*
X-36229617Y27109571D01*
X-36464803Y27028831D01*
X-36464812Y27028828D01*
X-36683507Y26910476D01*
X-36879743Y26757739D01*
X-37048167Y26574783D01*
X-37172497Y26384479D01*
X-37225644Y26339122D01*
X-37276306Y26328300D01*
X-39482812Y26328300D01*
X-39613848Y26302236D01*
X-39613864Y26302231D01*
X-39701140Y26266081D01*
X-39701139Y26266080D01*
X-39737295Y26251103D01*
X-39737296Y26251102D01*
X-39820346Y26195609D01*
X-39820347Y26195608D01*
X-39848394Y26176869D01*
X-39848395Y26176868D01*
X-41211586Y24813675D01*
X-41664391Y24360870D01*
X-41711632Y24313630D01*
X-41758872Y24266390D01*
X-41833102Y24155298D01*
X-41848080Y24119139D01*
X-41848081Y24119140D01*
X-41884231Y24031864D01*
X-41884236Y24031848D01*
X-41910300Y23900812D01*
X-41910300Y8880829D01*
X-41929985Y8813790D01*
X-41939498Y8801985D01*
X-41939019Y8801592D01*
X-42067910Y8644540D01*
X-42067914Y8644533D01*
X-42160812Y8470734D01*
X-42218025Y8282130D01*
X-42237341Y8086000D01*
X-49499501Y8086000D01*
X-49499501Y32121289D01*
X-45850500Y32121289D01*
X-45850500Y31878712D01*
X-45818839Y31638215D01*
X-45756053Y31403896D01*
X-45674802Y31207739D01*
X-45663224Y31179788D01*
X-45541936Y30969711D01*
X-45541934Y30969708D01*
X-45541933Y30969707D01*
X-45394267Y30777264D01*
X-45394261Y30777257D01*
X-45222744Y30605740D01*
X-45222737Y30605734D01*
X-45109679Y30518982D01*
X-45030289Y30458064D01*
X-44820212Y30336776D01*
X-44596100Y30243946D01*
X-44361789Y30181162D01*
X-44181414Y30157416D01*
X-44121289Y30149500D01*
X-44121288Y30149500D01*
X-43878711Y30149500D01*
X-43830612Y30155833D01*
X-43638211Y30181162D01*
X-43403900Y30243946D01*
X-43179788Y30336776D01*
X-42969711Y30458064D01*
X-42777262Y30605735D01*
X-42605735Y30777262D01*
X-42458064Y30969711D01*
X-42336776Y31179788D01*
X-42243946Y31403900D01*
X-42181162Y31638211D01*
X-42149500Y31878712D01*
X-42149500Y32121288D01*
X-42181162Y32361789D01*
X-42243946Y32596100D01*
X-42336776Y32820212D01*
X-42418068Y32961014D01*
X-5764999Y32961014D01*
X-5754506Y32858303D01*
X-5699359Y32691881D01*
X-5699357Y32691876D01*
X-5607316Y32542655D01*
X-5483346Y32418685D01*
X-5334125Y32326644D01*
X-5334120Y32326642D01*
X-5167698Y32271495D01*
X-5167691Y32271494D01*
X-5064981Y32261001D01*
X-4927501Y32261001D01*
X-4927500Y32261002D01*
X-4927500Y33236000D01*
X-5764999Y33236000D01*
X-5764999Y32961014D01*
X-42418068Y32961014D01*
X-42458064Y33030289D01*
X-42605735Y33222738D01*
X-42605740Y33222744D01*
X-42777257Y33394261D01*
X-42777264Y33394267D01*
X-42969707Y33541933D01*
X-42969708Y33541934D01*
X-42969711Y33541936D01*
X-43179788Y33663224D01*
X-43179795Y33663227D01*
X-43403896Y33756053D01*
X-43638215Y33818839D01*
X-43878711Y33850500D01*
X-43878712Y33850500D01*
X-44121288Y33850500D01*
X-44121289Y33850500D01*
X-44361786Y33818839D01*
X-44596105Y33756053D01*
X-44820206Y33663227D01*
X-44820215Y33663223D01*
X-45030294Y33541933D01*
X-45222737Y33394267D01*
X-45222744Y33394261D01*
X-45394261Y33222744D01*
X-45394267Y33222737D01*
X-45541933Y33030294D01*
X-45663223Y32820215D01*
X-45663227Y32820206D01*
X-45756053Y32596105D01*
X-45818839Y32361786D01*
X-45850500Y32121289D01*
X-49499501Y32121289D01*
X-49499501Y34010987D01*
X-5765000Y34010987D01*
X-5765000Y33736000D01*
X-4927500Y33736000D01*
X-4927500Y34711000D01*
X-5064973Y34711000D01*
X-5064988Y34710999D01*
X-5167698Y34700506D01*
X-5334120Y34645359D01*
X-5334125Y34645357D01*
X-5483346Y34553316D01*
X-5607316Y34429346D01*
X-5699357Y34280125D01*
X-5699359Y34280120D01*
X-5754506Y34113698D01*
X-5754507Y34113691D01*
X-5765000Y34010987D01*
X-49499501Y34010987D01*
X-49499501Y34996250D01*
X-49499275Y35003737D01*
X-49481730Y35293795D01*
X-49479925Y35308660D01*
X-49428221Y35590798D01*
X-49424637Y35605336D01*
X-49339305Y35879179D01*
X-49334003Y35893159D01*
X-49216270Y36154751D01*
X-49209325Y36167984D01*
X-49060921Y36413474D01*
X-49052434Y36425770D01*
X-48875521Y36651583D01*
X-48865606Y36662774D01*
X-48662775Y36865605D01*
X-48651584Y36875520D01*
X-48425771Y37052434D01*
X-48413475Y37060921D01*
X-48167990Y37209322D01*
X-48154745Y37216273D01*
X-47893159Y37334003D01*
X-47879178Y37339305D01*
X-47605332Y37424639D01*
X-47590803Y37428221D01*
X-47308657Y37479926D01*
X-47293800Y37481730D01*
X-47003753Y37499274D01*
X-46996266Y37499500D01*
X-46934108Y37499500D01*
X46934107Y37499500D01*
X46996248Y37499500D01*
X47003735Y37499274D01*
G37*
%TD.AperFunction*%
%TD*%
%TA.AperFunction,NonConductor*%
G36*
X-20790497Y146790D02*
G01*
X-20784019Y140758D01*
X-20422870Y-220391D01*
X-20366132Y-277129D01*
X-20328390Y-314871D01*
X-20217302Y-389098D01*
X-20217296Y-389102D01*
X-20181141Y-404078D01*
X-20093853Y-440234D01*
X-19962812Y-466299D01*
X-19962808Y-466300D01*
X-19962807Y-466300D01*
X-19829193Y-466300D01*
X-19581702Y-466300D01*
X-19514663Y-485985D01*
X-19468908Y-538789D01*
X-19458964Y-607947D01*
X-19487989Y-671503D01*
X-19494021Y-677981D01*
X-19547679Y-731638D01*
X-19547686Y-731647D01*
X-19631283Y-873003D01*
X-19631284Y-873006D01*
X-19677100Y-1030704D01*
X-19677101Y-1030710D01*
X-19680000Y-1067550D01*
X-19680000Y-1708200D01*
X-19004000Y-1708200D01*
X-18936961Y-1727885D01*
X-18891206Y-1780689D01*
X-18880000Y-1832200D01*
X-18880000Y-1958200D01*
X-18754000Y-1958200D01*
X-18686961Y-1977885D01*
X-18641206Y-2030689D01*
X-18630000Y-2082200D01*
X-18630000Y-3430495D01*
X-18629999Y-3430495D01*
X-18627514Y-3430300D01*
X-18469802Y-3384481D01*
X-18328450Y-3300886D01*
X-18322283Y-3296103D01*
X-18320370Y-3298569D01*
X-18271778Y-3272002D01*
X-18202083Y-3276949D01*
X-18169238Y-3298053D01*
X-18168031Y-3296498D01*
X-18161868Y-3301278D01*
X-18161865Y-3301281D01*
X-18020398Y-3384944D01*
X-18016942Y-3385948D01*
X-17862574Y-3430797D01*
X-17862571Y-3430797D01*
X-17862569Y-3430798D01*
X-17825694Y-3433700D01*
X-17825686Y-3433700D01*
X-17394314Y-3433700D01*
X-17394306Y-3433700D01*
X-17357431Y-3430798D01*
X-17357429Y-3430797D01*
X-17357427Y-3430797D01*
X-17294515Y-3412519D01*
X-17199602Y-3384944D01*
X-17058135Y-3301281D01*
X-17058130Y-3301275D01*
X-17051969Y-3296498D01*
X-17050067Y-3298950D01*
X-17001421Y-3272355D01*
X-16931726Y-3277304D01*
X-16899305Y-3298140D01*
X-16898031Y-3296498D01*
X-16891868Y-3301278D01*
X-16891865Y-3301281D01*
X-16750398Y-3384944D01*
X-16746942Y-3385948D01*
X-16592574Y-3430797D01*
X-16592571Y-3430797D01*
X-16592569Y-3430798D01*
X-16555694Y-3433700D01*
X-16555686Y-3433700D01*
X-16124314Y-3433700D01*
X-16124306Y-3433700D01*
X-16087431Y-3430798D01*
X-16087429Y-3430797D01*
X-16087427Y-3430797D01*
X-16024515Y-3412519D01*
X-15929602Y-3384944D01*
X-15929595Y-3384939D01*
X-15922446Y-3381847D01*
X-15921180Y-3384773D01*
X-15867708Y-3371202D01*
X-15801444Y-3393356D01*
X-15757675Y-3447818D01*
X-15748300Y-3495117D01*
X-15748300Y-10377677D01*
X-15767985Y-10444716D01*
X-15784619Y-10465358D01*
X-17114142Y-11794881D01*
X-17175465Y-11828366D01*
X-17201823Y-11831200D01*
X-25284219Y-11831200D01*
X-25351258Y-11811515D01*
X-25389758Y-11772297D01*
X-25432288Y-11703344D01*
X-25556344Y-11579288D01*
X-25559658Y-11577243D01*
X-25561454Y-11575248D01*
X-25562011Y-11574807D01*
X-25561936Y-11574711D01*
X-25606382Y-11525297D01*
X-25617603Y-11456334D01*
X-25589760Y-11392252D01*
X-25559652Y-11366165D01*
X-25556658Y-11364318D01*
X-25432685Y-11240345D01*
X-25340644Y-11091124D01*
X-25340642Y-11091119D01*
X-25285495Y-10924697D01*
X-25285494Y-10924690D01*
X-25275001Y-10821986D01*
X-25275000Y-10821973D01*
X-25275000Y-10684500D01*
X-27724999Y-10684500D01*
X-27724999Y-10821986D01*
X-27714506Y-10924697D01*
X-27659359Y-11091119D01*
X-27659357Y-11091124D01*
X-27567316Y-11240345D01*
X-27443345Y-11364316D01*
X-27443341Y-11364319D01*
X-27440344Y-11366168D01*
X-27438721Y-11367972D01*
X-27437677Y-11368798D01*
X-27437819Y-11368976D01*
X-27393619Y-11418116D01*
X-27382398Y-11487079D01*
X-27410241Y-11551161D01*
X-27440339Y-11577241D01*
X-27443651Y-11579283D01*
X-27443657Y-11579288D01*
X-27567711Y-11703342D01*
X-27659813Y-11852663D01*
X-27659815Y-11852668D01*
X-27684157Y-11926127D01*
X-27714999Y-12019203D01*
X-27714999Y-12019204D01*
X-27715000Y-12019204D01*
X-27725500Y-12121983D01*
X-27725500Y-12897001D01*
X-27725499Y-12897019D01*
X-27715000Y-12999796D01*
X-27714999Y-12999799D01*
X-27664055Y-13153537D01*
X-27659814Y-13166334D01*
X-27567712Y-13315656D01*
X-27443656Y-13439712D01*
X-27294334Y-13531814D01*
X-27263299Y-13542097D01*
X-27205854Y-13581867D01*
X-27179029Y-13646382D01*
X-27178300Y-13659804D01*
X-27178300Y-13925500D01*
X-27197985Y-13992539D01*
X-27250789Y-14038294D01*
X-27302300Y-14049500D01*
X-27547870Y-14049500D01*
X-27547877Y-14049501D01*
X-27607484Y-14055908D01*
X-27742329Y-14106202D01*
X-27742336Y-14106206D01*
X-27857545Y-14192452D01*
X-27945162Y-14309493D01*
X-28001096Y-14351363D01*
X-28070787Y-14356347D01*
X-28120590Y-14333035D01*
X-28176490Y-14289527D01*
X-28176491Y-14289526D01*
X-28276835Y-14235222D01*
X-28395189Y-14171172D01*
X-28395198Y-14171169D01*
X-28630384Y-14090429D01*
X-28875665Y-14049500D01*
X-29124335Y-14049500D01*
X-29369617Y-14090429D01*
X-29604803Y-14171169D01*
X-29604812Y-14171172D01*
X-29823507Y-14289524D01*
X-30019745Y-14442262D01*
X-30019748Y-14442265D01*
X-30158771Y-14593284D01*
X-30218658Y-14629275D01*
X-30288496Y-14627174D01*
X-30341229Y-14593284D01*
X-30480253Y-14442265D01*
X-30480256Y-14442262D01*
X-30555146Y-14383973D01*
X-30676491Y-14289526D01*
X-30676492Y-14289525D01*
X-30676495Y-14289523D01*
X-30676502Y-14289519D01*
X-30756718Y-14246108D01*
X-30806308Y-14196889D01*
X-30821700Y-14137054D01*
X-30821700Y-12397697D01*
X-30802015Y-12330658D01*
X-30762793Y-12292156D01*
X-30752344Y-12285712D01*
X-30628288Y-12161656D01*
X-30536186Y-12012334D01*
X-30481001Y-11845797D01*
X-30470500Y-11743009D01*
X-30470501Y-11140621D01*
X-30450817Y-11073583D01*
X-30434187Y-11052946D01*
X-29428254Y-10047013D01*
X-27725000Y-10047013D01*
X-27725000Y-10184500D01*
X-26750000Y-10184500D01*
X-26250000Y-10184500D01*
X-25275001Y-10184500D01*
X-25275001Y-10047028D01*
X-25275002Y-10047013D01*
X-25285495Y-9944302D01*
X-25340642Y-9777880D01*
X-25340644Y-9777875D01*
X-25432685Y-9628654D01*
X-25556655Y-9504684D01*
X-25705876Y-9412643D01*
X-25705881Y-9412641D01*
X-25872303Y-9357494D01*
X-25872310Y-9357493D01*
X-25975014Y-9347000D01*
X-26250000Y-9347000D01*
X-26250000Y-10184500D01*
X-26750000Y-10184500D01*
X-26750000Y-9347000D01*
X-27024971Y-9347000D01*
X-27024988Y-9347001D01*
X-27127698Y-9357494D01*
X-27294120Y-9412641D01*
X-27294125Y-9412643D01*
X-27443346Y-9504684D01*
X-27567316Y-9628654D01*
X-27659357Y-9777875D01*
X-27659359Y-9777880D01*
X-27714506Y-9944302D01*
X-27714507Y-9944309D01*
X-27725000Y-10047013D01*
X-29428254Y-10047013D01*
X-22230088Y-2848849D01*
X-19680000Y-2848849D01*
X-19677101Y-2885689D01*
X-19677100Y-2885695D01*
X-19631284Y-3043393D01*
X-19631283Y-3043396D01*
X-19547686Y-3184752D01*
X-19547679Y-3184761D01*
X-19431562Y-3300878D01*
X-19431553Y-3300885D01*
X-19290199Y-3384481D01*
X-19132486Y-3430300D01*
X-19132489Y-3430300D01*
X-19130002Y-3430495D01*
X-19130000Y-3430495D01*
X-19130000Y-2208200D01*
X-19680000Y-2208200D01*
X-19680000Y-2848849D01*
X-22230088Y-2848849D01*
X-21147130Y-1765891D01*
X-21132764Y-1744391D01*
X-21072898Y-1654796D01*
X-21057922Y-1618640D01*
X-21021766Y-1531353D01*
X-20995700Y-1400307D01*
X-20995700Y-1266693D01*
X-20995700Y53077D01*
X-20976015Y120116D01*
X-20923211Y165871D01*
X-20854053Y175815D01*
X-20790497Y146790D01*
G37*
%TD.AperFunction*%
%TA.AperFunction,NonConductor*%
G36*
X11928214Y-8105985D02*
G01*
X11948856Y-8122619D01*
X13705428Y-9879191D01*
X13770539Y-9944302D01*
X13799908Y-9973671D01*
X13844540Y-10003493D01*
X13911002Y-10047902D01*
X13935830Y-10058186D01*
X14034445Y-10099034D01*
X14165486Y-10125099D01*
X14165490Y-10125100D01*
X14165491Y-10125100D01*
X20672477Y-10125100D01*
X20739516Y-10144785D01*
X20760158Y-10161419D01*
X20844564Y-10245825D01*
X20878049Y-10307148D01*
X20880883Y-10333506D01*
X20880883Y-10653228D01*
X20861198Y-10720267D01*
X20808394Y-10766022D01*
X20739236Y-10775966D01*
X20678218Y-10749081D01*
X20540539Y-10636090D01*
X20540532Y-10636086D01*
X20366733Y-10543188D01*
X20366727Y-10543186D01*
X20178132Y-10485976D01*
X20178129Y-10485975D01*
X19982000Y-10466659D01*
X19785870Y-10485975D01*
X19597266Y-10543188D01*
X19423467Y-10636086D01*
X19423460Y-10636090D01*
X19266408Y-10764981D01*
X19264713Y-10762916D01*
X19213529Y-10790866D01*
X19187171Y-10793700D01*
X7977188Y-10793700D01*
X7846154Y-10819764D01*
X7846146Y-10819766D01*
X7787378Y-10844109D01*
X7722706Y-10870896D01*
X7611609Y-10945129D01*
X7611607Y-10945131D01*
X7100405Y-11456334D01*
X6595610Y-11961129D01*
X6595609Y-11961130D01*
X6565528Y-11991211D01*
X6501128Y-12055610D01*
X6426213Y-12167728D01*
X6424566Y-12172334D01*
X6375766Y-12290146D01*
X6375764Y-12290154D01*
X6357167Y-12383645D01*
X6357168Y-12383646D01*
X6349700Y-12421193D01*
X6349700Y-17917077D01*
X6330015Y-17984116D01*
X6277211Y-18029871D01*
X6208053Y-18039815D01*
X6144497Y-18010790D01*
X6138019Y-18004758D01*
X5329619Y-17196358D01*
X5296134Y-17135035D01*
X5293300Y-17108677D01*
X5293300Y-16460507D01*
X5310568Y-16397386D01*
X5366744Y-16302398D01*
X5412598Y-16144569D01*
X5415500Y-16107694D01*
X5415500Y-14326306D01*
X5412598Y-14289431D01*
X5403370Y-14257669D01*
X5366745Y-14131606D01*
X5366744Y-14131603D01*
X5366744Y-14131602D01*
X5283081Y-13990135D01*
X5283079Y-13990133D01*
X5283076Y-13990129D01*
X5166870Y-13873923D01*
X5166862Y-13873917D01*
X5025396Y-13790255D01*
X5025393Y-13790254D01*
X4867573Y-13744402D01*
X4867567Y-13744401D01*
X4830701Y-13741500D01*
X4830694Y-13741500D01*
X4399306Y-13741500D01*
X4399298Y-13741500D01*
X4362432Y-13744401D01*
X4362426Y-13744402D01*
X4204606Y-13790254D01*
X4204603Y-13790255D01*
X4063137Y-13873917D01*
X4056969Y-13878702D01*
X4055072Y-13876256D01*
X4006358Y-13902857D01*
X3936666Y-13897873D01*
X3904296Y-13877069D01*
X3903031Y-13878702D01*
X3896862Y-13873917D01*
X3755396Y-13790255D01*
X3755393Y-13790254D01*
X3597573Y-13744402D01*
X3597567Y-13744401D01*
X3560701Y-13741500D01*
X3560694Y-13741500D01*
X3129306Y-13741500D01*
X3129298Y-13741500D01*
X3092432Y-13744401D01*
X3092426Y-13744402D01*
X2934606Y-13790254D01*
X2934603Y-13790255D01*
X2793137Y-13873917D01*
X2786969Y-13878702D01*
X2785072Y-13876256D01*
X2736358Y-13902857D01*
X2666666Y-13897873D01*
X2634296Y-13877069D01*
X2633031Y-13878702D01*
X2626862Y-13873917D01*
X2485396Y-13790255D01*
X2485393Y-13790254D01*
X2327573Y-13744402D01*
X2327567Y-13744401D01*
X2290701Y-13741500D01*
X2290694Y-13741500D01*
X1859306Y-13741500D01*
X1859298Y-13741500D01*
X1822432Y-13744401D01*
X1822426Y-13744402D01*
X1664606Y-13790254D01*
X1664603Y-13790255D01*
X1523137Y-13873917D01*
X1516969Y-13878702D01*
X1515072Y-13876256D01*
X1466358Y-13902857D01*
X1396666Y-13897873D01*
X1364296Y-13877069D01*
X1363031Y-13878702D01*
X1356862Y-13873917D01*
X1215396Y-13790255D01*
X1215393Y-13790254D01*
X1057573Y-13744402D01*
X1057567Y-13744401D01*
X1020701Y-13741500D01*
X1020694Y-13741500D01*
X589306Y-13741500D01*
X589298Y-13741500D01*
X552432Y-13744401D01*
X552426Y-13744402D01*
X394606Y-13790254D01*
X394604Y-13790254D01*
X378010Y-13800068D01*
X310285Y-13817247D01*
X244023Y-13795085D01*
X200262Y-13740617D01*
X193276Y-13717526D01*
X187234Y-13687147D01*
X187231Y-13687138D01*
X166054Y-13636017D01*
X166051Y-13636011D01*
X162808Y-13628181D01*
X136102Y-13563704D01*
X124947Y-13547010D01*
X61871Y-13452610D01*
X29561Y-13420300D01*
X-32609Y-13358130D01*
X-121926Y-13268813D01*
X-155411Y-13207490D01*
X-150427Y-13137798D01*
X-108555Y-13081865D01*
X-103165Y-13078050D01*
X-8610Y-13014870D01*
X85869Y-12920391D01*
X144428Y-12861832D01*
X144440Y-12861818D01*
X1331871Y-11674390D01*
X1351639Y-11644803D01*
X1405250Y-11600000D01*
X1474575Y-11591292D01*
X1517862Y-11606963D01*
X1540306Y-11620236D01*
X1664602Y-11693744D01*
X1697638Y-11703342D01*
X1822426Y-11739597D01*
X1822429Y-11739597D01*
X1822431Y-11739598D01*
X1859306Y-11742500D01*
X1859314Y-11742500D01*
X2290686Y-11742500D01*
X2290694Y-11742500D01*
X2327569Y-11739598D01*
X2327571Y-11739597D01*
X2327573Y-11739597D01*
X2369191Y-11727505D01*
X2485398Y-11693744D01*
X2626865Y-11610081D01*
X2626870Y-11610075D01*
X2633031Y-11605298D01*
X2634933Y-11607750D01*
X2683579Y-11581155D01*
X2753274Y-11586104D01*
X2785695Y-11606940D01*
X2786969Y-11605298D01*
X2793132Y-11610078D01*
X2793135Y-11610081D01*
X2934602Y-11693744D01*
X2967638Y-11703342D01*
X3092426Y-11739597D01*
X3092429Y-11739597D01*
X3092431Y-11739598D01*
X3129306Y-11742500D01*
X3129314Y-11742500D01*
X3560686Y-11742500D01*
X3560694Y-11742500D01*
X3597569Y-11739598D01*
X3597571Y-11739597D01*
X3597573Y-11739597D01*
X3639191Y-11727505D01*
X3755398Y-11693744D01*
X3896865Y-11610081D01*
X3896868Y-11610077D01*
X3903026Y-11605301D01*
X3904839Y-11607638D01*
X3953949Y-11580798D01*
X4023643Y-11585756D01*
X4055996Y-11606551D01*
X4057278Y-11604900D01*
X4063447Y-11609685D01*
X4204801Y-11693281D01*
X4362514Y-11739100D01*
X4362511Y-11739100D01*
X4364998Y-11739295D01*
X4365000Y-11739295D01*
X4865000Y-11739295D01*
X4865001Y-11739295D01*
X4867486Y-11739100D01*
X5025198Y-11693281D01*
X5166552Y-11609685D01*
X5166561Y-11609678D01*
X5282678Y-11493561D01*
X5282685Y-11493552D01*
X5366282Y-11352196D01*
X5366283Y-11352193D01*
X5412099Y-11194495D01*
X5412100Y-11194489D01*
X5414999Y-11157649D01*
X5415000Y-11157634D01*
X5415000Y-10517000D01*
X4865000Y-10517000D01*
X4865000Y-11739295D01*
X4365000Y-11739295D01*
X4365000Y-10017000D01*
X4865000Y-10017000D01*
X5415000Y-10017000D01*
X5415000Y-9376365D01*
X5414999Y-9376350D01*
X5412100Y-9339510D01*
X5412099Y-9339504D01*
X5366283Y-9181806D01*
X5366282Y-9181803D01*
X5282685Y-9040447D01*
X5282678Y-9040438D01*
X5166561Y-8924321D01*
X5166552Y-8924314D01*
X5025196Y-8840717D01*
X5025193Y-8840716D01*
X4867494Y-8794900D01*
X4867497Y-8794900D01*
X4865000Y-8794703D01*
X4865000Y-10017000D01*
X4365000Y-10017000D01*
X4365000Y-8794703D01*
X4362503Y-8794900D01*
X4204806Y-8840716D01*
X4204803Y-8840717D01*
X4063449Y-8924313D01*
X4057283Y-8929097D01*
X4055389Y-8926655D01*
X4006580Y-8953239D01*
X3936894Y-8948179D01*
X3904227Y-8927159D01*
X3903031Y-8928702D01*
X3896862Y-8923917D01*
X3778626Y-8853993D01*
X3755398Y-8840256D01*
X3755397Y-8840255D01*
X3755396Y-8840255D01*
X3755393Y-8840254D01*
X3597573Y-8794402D01*
X3597567Y-8794401D01*
X3560701Y-8791500D01*
X3560694Y-8791500D01*
X3129306Y-8791500D01*
X3129298Y-8791500D01*
X3092432Y-8794401D01*
X3092426Y-8794402D01*
X2934606Y-8840254D01*
X2927446Y-8843353D01*
X2926185Y-8840441D01*
X2872606Y-8853993D01*
X2806359Y-8831785D01*
X2762636Y-8777286D01*
X2753300Y-8730082D01*
X2753300Y-8375323D01*
X2772985Y-8308284D01*
X2789619Y-8287642D01*
X2954642Y-8122619D01*
X3015965Y-8089134D01*
X3042323Y-8086300D01*
X11861175Y-8086300D01*
X11928214Y-8105985D01*
G37*
%TD.AperFunction*%
%TA.AperFunction,NonConductor*%
G36*
X-20778184Y-14484285D02*
G01*
X-20732429Y-14537089D01*
X-20722485Y-14606247D01*
X-20751510Y-14669803D01*
X-20757542Y-14676281D01*
X-21344391Y-15263130D01*
X-21370750Y-15289489D01*
X-21438872Y-15357610D01*
X-21513787Y-15469728D01*
X-21515434Y-15474334D01*
X-21564233Y-15592144D01*
X-21564236Y-15592154D01*
X-21585408Y-15698596D01*
X-21590300Y-15723188D01*
X-21590300Y-21595856D01*
X-21609985Y-21662895D01*
X-21662789Y-21708650D01*
X-21731947Y-21718594D01*
X-21795503Y-21689569D01*
X-21804923Y-21680493D01*
X-21898169Y-21580652D01*
X-21962947Y-21511292D01*
X-22185853Y-21329945D01*
X-22185854Y-21329944D01*
X-22431383Y-21180634D01*
X-22694937Y-21066158D01*
X-22694939Y-21066157D01*
X-22694942Y-21066156D01*
X-22825370Y-21029612D01*
X-22971636Y-20988630D01*
X-22971641Y-20988629D01*
X-22971642Y-20988629D01*
X-23113982Y-20969064D01*
X-23256321Y-20949500D01*
X-23256322Y-20949500D01*
X-23543678Y-20949500D01*
X-23543679Y-20949500D01*
X-23828358Y-20988629D01*
X-23828365Y-20988630D01*
X-24021103Y-21042633D01*
X-24105058Y-21066156D01*
X-24105061Y-21066156D01*
X-24105064Y-21066158D01*
X-24105065Y-21066158D01*
X-24368618Y-21180634D01*
X-24614147Y-21329944D01*
X-24837050Y-21511289D01*
X-24968677Y-21652226D01*
X-25028821Y-21687785D01*
X-25098642Y-21685182D01*
X-25155973Y-21645245D01*
X-25182610Y-21580652D01*
X-25183300Y-21567589D01*
X-25183300Y-20196757D01*
X-25163615Y-20129718D01*
X-25146981Y-20109076D01*
X-22032735Y-16994830D01*
X-22032730Y-16994825D01*
X-22014070Y-16966898D01*
X-21958498Y-16883730D01*
X-21935170Y-16827409D01*
X-21923505Y-16799250D01*
X-21907444Y-16760475D01*
X-21907366Y-16760287D01*
X-21881300Y-16629241D01*
X-21881300Y-16495627D01*
X-21881300Y-15116757D01*
X-21861615Y-15049718D01*
X-21844981Y-15029076D01*
X-21316824Y-14500919D01*
X-21255501Y-14467434D01*
X-21229143Y-14464600D01*
X-20845223Y-14464600D01*
X-20778184Y-14484285D01*
G37*
%TD.AperFunction*%
%TA.AperFunction,NonConductor*%
G36*
X-21674958Y-24386550D02*
G01*
X-21617628Y-24426487D01*
X-21590990Y-24491080D01*
X-21590300Y-24504143D01*
X-21590300Y-30545426D01*
X-21609985Y-30612465D01*
X-21662789Y-30658220D01*
X-21731947Y-30668164D01*
X-21795503Y-30639139D01*
X-21828857Y-30592888D01*
X-21832563Y-30583943D01*
X-21834215Y-30579326D01*
X-21909129Y-30467210D01*
X-21918275Y-30458064D01*
X-22003609Y-30372730D01*
X-25146981Y-27229358D01*
X-25180466Y-27168035D01*
X-25183300Y-27141677D01*
X-25183300Y-24532410D01*
X-25163615Y-24465371D01*
X-25110811Y-24419616D01*
X-25041653Y-24409672D01*
X-24978097Y-24438697D01*
X-24968690Y-24447760D01*
X-24837053Y-24588708D01*
X-24837048Y-24588712D01*
X-24837046Y-24588714D01*
X-24619630Y-24765594D01*
X-24614147Y-24770055D01*
X-24419650Y-24888332D01*
X-24368618Y-24919365D01*
X-24220177Y-24983841D01*
X-24105058Y-25033844D01*
X-23828358Y-25111371D01*
X-23578080Y-25145771D01*
X-23543679Y-25150500D01*
X-23543678Y-25150500D01*
X-23256321Y-25150500D01*
X-23222215Y-25145812D01*
X-22971642Y-25111371D01*
X-22694942Y-25033844D01*
X-22569316Y-24979277D01*
X-22431383Y-24919365D01*
X-22431380Y-24919363D01*
X-22431375Y-24919361D01*
X-22185853Y-24770055D01*
X-21962947Y-24588708D01*
X-21804923Y-24419506D01*
X-21744779Y-24383947D01*
X-21674958Y-24386550D01*
G37*
%TD.AperFunction*%
%TA.AperFunction,NonConductor*%
G36*
X-23057384Y-13207485D02*
G01*
X-23011629Y-13260289D01*
X-23001685Y-13329447D01*
X-23030710Y-13393003D01*
X-23036742Y-13399481D01*
X-23630391Y-13993130D01*
X-23667076Y-14029815D01*
X-23724872Y-14087610D01*
X-23799787Y-14199728D01*
X-23801434Y-14204334D01*
X-23850234Y-14322146D01*
X-23851061Y-14326306D01*
X-23873384Y-14438533D01*
X-23874126Y-14442265D01*
X-23876300Y-14453194D01*
X-23876300Y-15965677D01*
X-23895985Y-16032716D01*
X-23912619Y-16053358D01*
X-26932391Y-19073130D01*
X-26979632Y-19120370D01*
X-27026872Y-19167610D01*
X-27101103Y-19278705D01*
X-27105654Y-19289694D01*
X-27105655Y-19289696D01*
X-27152234Y-19402146D01*
X-27152236Y-19402154D01*
X-27170758Y-19495268D01*
X-27170757Y-19495269D01*
X-27178300Y-19533193D01*
X-27178300Y-28637054D01*
X-27197985Y-28704093D01*
X-27243282Y-28746108D01*
X-27323499Y-28789519D01*
X-27323506Y-28789523D01*
X-27519743Y-28942261D01*
X-27688167Y-29125217D01*
X-27824174Y-29333393D01*
X-27924064Y-29561118D01*
X-27985108Y-29802175D01*
X-27985110Y-29802187D01*
X-28005643Y-30049994D01*
X-28005643Y-30050005D01*
X-27985110Y-30297812D01*
X-27985108Y-30297824D01*
X-27924064Y-30538881D01*
X-27824174Y-30766606D01*
X-27688167Y-30974782D01*
X-27688164Y-30974785D01*
X-27519744Y-31157738D01*
X-27424431Y-31231923D01*
X-27325157Y-31309192D01*
X-27323509Y-31310474D01*
X-27264782Y-31342255D01*
X-27215193Y-31391472D01*
X-27199800Y-31451309D01*
X-27199800Y-32100218D01*
X-27219485Y-32167257D01*
X-27258702Y-32205756D01*
X-27327656Y-32248287D01*
X-27451711Y-32372342D01*
X-27543813Y-32521663D01*
X-27543815Y-32521668D01*
X-27543885Y-32521880D01*
X-27598999Y-32688203D01*
X-27598999Y-32688204D01*
X-27599000Y-32688204D01*
X-27609500Y-32790983D01*
X-27609500Y-33841001D01*
X-27609499Y-33841019D01*
X-27599000Y-33943796D01*
X-27598999Y-33943799D01*
X-27568326Y-34036362D01*
X-27543814Y-34110334D01*
X-27453725Y-34256391D01*
X-27451711Y-34259657D01*
X-27327656Y-34383712D01*
X-27236137Y-34440161D01*
X-27189412Y-34492109D01*
X-27178189Y-34561071D01*
X-27206033Y-34625154D01*
X-27264101Y-34664010D01*
X-27301233Y-34669700D01*
X-31019942Y-34669700D01*
X-31086981Y-34650015D01*
X-31132736Y-34597211D01*
X-31142680Y-34528053D01*
X-31113655Y-34464497D01*
X-31078395Y-34436342D01*
X-31021468Y-34405913D01*
X-31021462Y-34405910D01*
X-30869117Y-34280883D01*
X-30744090Y-34128538D01*
X-30681368Y-34011193D01*
X-30651189Y-33954733D01*
X-30651187Y-33954728D01*
X-30651186Y-33954727D01*
X-30593976Y-33766132D01*
X-30574659Y-33570000D01*
X-30593976Y-33373868D01*
X-30651186Y-33185273D01*
X-30651189Y-33185269D01*
X-30651189Y-33185266D01*
X-30744087Y-33011467D01*
X-30744091Y-33011460D01*
X-30872981Y-32854408D01*
X-30870917Y-32852713D01*
X-30898866Y-32801529D01*
X-30901700Y-32775171D01*
X-30901700Y-31506239D01*
X-30882015Y-31439200D01*
X-30836717Y-31397184D01*
X-30783106Y-31368171D01*
X-30676491Y-31310474D01*
X-30480256Y-31157738D01*
X-30311836Y-30974785D01*
X-30175827Y-30766607D01*
X-30075937Y-30538881D01*
X-30014892Y-30297821D01*
X-30005225Y-30181161D01*
X-29994357Y-30050005D01*
X-29994357Y-30049994D01*
X-30014891Y-29802187D01*
X-30014893Y-29802175D01*
X-30075937Y-29561118D01*
X-30175827Y-29333393D01*
X-30311834Y-29125217D01*
X-30356844Y-29076323D01*
X-30480256Y-28942262D01*
X-30676491Y-28789526D01*
X-30676492Y-28789525D01*
X-30676495Y-28789523D01*
X-30676502Y-28789519D01*
X-30756718Y-28746108D01*
X-30806308Y-28696889D01*
X-30821700Y-28637054D01*
X-30821700Y-18382322D01*
X-30802015Y-18315283D01*
X-30785386Y-18294646D01*
X-29521641Y-17030900D01*
X-29460320Y-16997417D01*
X-29393698Y-17001302D01*
X-29369614Y-17009571D01*
X-29124335Y-17050500D01*
X-28875665Y-17050500D01*
X-28630386Y-17009571D01*
X-28395190Y-16928828D01*
X-28176491Y-16810474D01*
X-28120589Y-16766963D01*
X-28055599Y-16741321D01*
X-27987059Y-16754887D01*
X-27945163Y-16790506D01*
X-27857548Y-16907544D01*
X-27857545Y-16907547D01*
X-27742336Y-16993793D01*
X-27742329Y-16993797D01*
X-27607483Y-17044091D01*
X-27607484Y-17044091D01*
X-27600556Y-17044835D01*
X-27547873Y-17050500D01*
X-25452128Y-17050499D01*
X-25392517Y-17044091D01*
X-25257669Y-16993796D01*
X-25142454Y-16907546D01*
X-25056204Y-16792331D01*
X-25005909Y-16657483D01*
X-24999500Y-16597873D01*
X-24999501Y-14502128D01*
X-25005909Y-14442517D01*
X-25007394Y-14438536D01*
X-25056203Y-14307671D01*
X-25056207Y-14307664D01*
X-25142453Y-14192455D01*
X-25142456Y-14192452D01*
X-25257665Y-14106206D01*
X-25257672Y-14106202D01*
X-25392518Y-14055908D01*
X-25392517Y-14055908D01*
X-25452117Y-14049501D01*
X-25452119Y-14049500D01*
X-25452127Y-14049500D01*
X-25452135Y-14049500D01*
X-25697700Y-14049500D01*
X-25764739Y-14029815D01*
X-25810494Y-13977011D01*
X-25821700Y-13925500D01*
X-25821700Y-13659804D01*
X-25802015Y-13592765D01*
X-25749211Y-13547010D01*
X-25736707Y-13542099D01*
X-25705666Y-13531814D01*
X-25556344Y-13439712D01*
X-25432288Y-13315656D01*
X-25389758Y-13246702D01*
X-25337810Y-13199979D01*
X-25284219Y-13187800D01*
X-23124423Y-13187800D01*
X-23057384Y-13207485D01*
G37*
%TD.AperFunction*%
M02*
