M48
; DRILL file {KiCad 8.0.4} date 2024-09-08T19:25:10+0200
; FORMAT={-:-/ absolute / metric / decimal}
; #@! TF.CreationDate,2024-09-08T19:25:10+02:00
; #@! TF.GenerationSoftware,Kicad,Pcbnew,8.0.4
; #@! TF.FileFunction,Plated,1,2,PTH
FMAT,2
METRIC
; #@! TA.AperFunction,Plated,PTH,ViaDrill
T1C0.300
; #@! TA.AperFunction,Plated,PTH,ComponentDrill
T2C0.800
; #@! TA.AperFunction,Plated,PTH,ComponentDrill
T3C1.000
; #@! TA.AperFunction,Plated,PTH,ComponentDrill
T4C1.190
; #@! TA.AperFunction,Plated,PTH,ComponentDrill
T5C2.600
%
G90
G05
T1
X-43.5Y11.75
X-42.75Y27.0
X-39.25Y11.75
X-33.9Y6.7
X-30.25Y18.75
X-30.0Y4.5
X-29.5Y26.75
X-25.3Y-12.5
X-22.7Y-17.3
X-22.25Y4.5
X-20.25Y18.75
X-19.9Y6.9
X20.0Y6.25
X20.0Y-8.75
X20.0Y-16.75
X23.25Y18.25
X24.5Y-8.25
X24.5Y-14.75
X26.25Y6.25
X31.75Y18.25
X41.0Y16.75
X41.0Y10.5
T2
X-2.8Y-24.0
X2.8Y-24.0
T3
X-37.5Y-16.75
X-37.5Y-31.25
X-35.0Y-31.25
X-32.5Y-16.75
X-32.5Y-31.25
X-2.6Y26.75
X-2.6Y12.25
X-2.25Y-20.75
X-2.25Y-27.25
X-0.1Y12.25
X2.25Y-20.75
X2.25Y-27.25
X2.4Y26.75
X2.4Y12.25
X32.0Y-16.25
X32.0Y-30.75
X34.5Y-30.75
X37.0Y-16.25
X37.0Y-30.75
T4
X-37.2Y23.5
X-34.66Y23.5
X-32.12Y23.5
X-29.58Y23.5
X-27.04Y23.5
X-24.5Y23.5
X9.94Y-32.04
X12.48Y-32.04
X15.02Y-32.04
X25.3Y23.5
X27.84Y23.5
X30.38Y23.5
X32.92Y23.5
X35.46Y23.5
X38.0Y23.5
T5
X-40.6Y-23.75
X-29.4Y-23.75
X-5.7Y19.75
X5.5Y19.75
X28.9Y-23.25
X40.1Y-23.25
M30
