%TF.GenerationSoftware,KiCad,Pcbnew,8.0.8-8.0.8-0~ubuntu24.04.1*%
%TF.CreationDate,2025-02-17T20:44:06+01:00*%
%TF.ProjectId,Encoders-LCD,456e636f-6465-4727-932d-4c43442e6b69,rev?*%
%TF.SameCoordinates,PX55d4a80PY4e33880*%
%TF.FileFunction,Copper,L2,Bot*%
%TF.FilePolarity,Positive*%
%FSLAX46Y46*%
G04 Gerber Fmt 4.6, Leading zero omitted, Abs format (unit mm)*
G04 Created by KiCad (PCBNEW 8.0.8-8.0.8-0~ubuntu24.04.1) date 2025-02-17 20:44:06*
%MOMM*%
%LPD*%
G01*
G04 APERTURE LIST*
G04 Aperture macros list*
%AMRoundRect*
0 Rectangle with rounded corners*
0 $1 Rounding radius*
0 $2 $3 $4 $5 $6 $7 $8 $9 X,Y pos of 4 corners*
0 Add a 4 corners polygon primitive as box body*
4,1,4,$2,$3,$4,$5,$6,$7,$8,$9,$2,$3,0*
0 Add four circle primitives for the rounded corners*
1,1,$1+$1,$2,$3*
1,1,$1+$1,$4,$5*
1,1,$1+$1,$6,$7*
1,1,$1+$1,$8,$9*
0 Add four rect primitives between the rounded corners*
20,1,$1+$1,$2,$3,$4,$5,0*
20,1,$1+$1,$4,$5,$6,$7,0*
20,1,$1+$1,$6,$7,$8,$9,0*
20,1,$1+$1,$8,$9,$2,$3,0*%
G04 Aperture macros list end*
%TA.AperFunction,ComponentPad*%
%ADD10C,2.000000*%
%TD*%
%TA.AperFunction,ComponentPad*%
%ADD11R,2.000000X2.000000*%
%TD*%
%TA.AperFunction,ComponentPad*%
%ADD12C,3.200000*%
%TD*%
%TA.AperFunction,ComponentPad*%
%ADD13R,1.700000X1.700000*%
%TD*%
%TA.AperFunction,ComponentPad*%
%ADD14O,1.700000X1.700000*%
%TD*%
%TA.AperFunction,SMDPad,CuDef*%
%ADD15RoundRect,0.150000X-0.825000X-0.150000X0.825000X-0.150000X0.825000X0.150000X-0.825000X0.150000X0*%
%TD*%
%TA.AperFunction,SMDPad,CuDef*%
%ADD16RoundRect,0.250000X0.337500X0.475000X-0.337500X0.475000X-0.337500X-0.475000X0.337500X-0.475000X0*%
%TD*%
%TA.AperFunction,SMDPad,CuDef*%
%ADD17RoundRect,0.250000X-0.337500X-0.475000X0.337500X-0.475000X0.337500X0.475000X-0.337500X0.475000X0*%
%TD*%
%TA.AperFunction,SMDPad,CuDef*%
%ADD18RoundRect,0.250000X0.475000X-0.337500X0.475000X0.337500X-0.475000X0.337500X-0.475000X-0.337500X0*%
%TD*%
%TA.AperFunction,SMDPad,CuDef*%
%ADD19RoundRect,0.250000X-0.475000X0.337500X-0.475000X-0.337500X0.475000X-0.337500X0.475000X0.337500X0*%
%TD*%
%TA.AperFunction,SMDPad,CuDef*%
%ADD20RoundRect,0.150000X-0.150000X0.825000X-0.150000X-0.825000X0.150000X-0.825000X0.150000X0.825000X0*%
%TD*%
%TA.AperFunction,SMDPad,CuDef*%
%ADD21RoundRect,0.150000X0.150000X-0.825000X0.150000X0.825000X-0.150000X0.825000X-0.150000X-0.825000X0*%
%TD*%
%TA.AperFunction,ViaPad*%
%ADD22C,1.000000*%
%TD*%
%TA.AperFunction,Conductor*%
%ADD23C,0.304800*%
%TD*%
G04 APERTURE END LIST*
D10*
%TO.P,SW3,1,1*%
%TO.N,VCC*%
X29862514Y25654586D03*
X36362514Y25654586D03*
%TO.P,SW3,2,2*%
%TO.N,/RSW*%
X29862514Y21154586D03*
X36362514Y21154586D03*
%TD*%
D11*
%TO.P,ENC3,A,A*%
%TO.N,/A3*%
X32500000Y-15500000D03*
D10*
%TO.P,ENC3,B,B*%
%TO.N,/B3*%
X27500000Y-15500000D03*
%TO.P,ENC3,C,C*%
%TO.N,VCC*%
X30000000Y-15500000D03*
D12*
%TO.P,ENC3,MP*%
%TO.N,N/C*%
X35600000Y-23000000D03*
X24400000Y-23000000D03*
D10*
%TO.P,ENC3,S1,S1*%
%TO.N,VCC*%
X27500000Y-30000000D03*
%TO.P,ENC3,S2,S2*%
%TO.N,/SW3*%
X32500000Y-30000000D03*
%TD*%
D13*
%TO.P,J1,1,Pin_1*%
%TO.N,GND*%
X-3894000Y-3344000D03*
D14*
%TO.P,J1,2,Pin_2*%
%TO.N,/PL*%
X-1354000Y-3344000D03*
%TO.P,J1,3,Pin_3*%
%TO.N,/CLK*%
X1186000Y-3344000D03*
%TO.P,J1,4,Pin_4*%
%TO.N,VCC*%
X3726000Y-3344000D03*
%TD*%
D10*
%TO.P,SW2,1,1*%
%TO.N,VCC*%
X-35860000Y25650000D03*
X-29360000Y25650000D03*
%TO.P,SW2,2,2*%
%TO.N,/LSW*%
X-35860000Y21150000D03*
X-29360000Y21150000D03*
%TD*%
D11*
%TO.P,ENC2,A,A*%
%TO.N,/A2*%
X-26500000Y-15550000D03*
D10*
%TO.P,ENC2,B,B*%
%TO.N,/B2*%
X-31500000Y-15550000D03*
%TO.P,ENC2,C,C*%
%TO.N,VCC*%
X-29000000Y-15550000D03*
D12*
%TO.P,ENC2,MP*%
%TO.N,N/C*%
X-23400000Y-23050000D03*
X-34600000Y-23050000D03*
D10*
%TO.P,ENC2,S1,S1*%
%TO.N,VCC*%
X-31500000Y-30050000D03*
%TO.P,ENC2,S2,S2*%
%TO.N,/SW2*%
X-26500000Y-30050000D03*
%TD*%
D11*
%TO.P,ENC1,A,A*%
%TO.N,/A1*%
X-2550000Y15600000D03*
D10*
%TO.P,ENC1,B,B*%
%TO.N,/B1*%
X2450000Y15600000D03*
%TO.P,ENC1,C,C*%
%TO.N,VCC*%
X-50000Y15600000D03*
D12*
%TO.P,ENC1,MP*%
%TO.N,N/C*%
X-5650000Y23100000D03*
X5550000Y23100000D03*
D10*
%TO.P,ENC1,S1,S1*%
%TO.N,VCC*%
X2450000Y30100000D03*
%TO.P,ENC1,S2,S2*%
%TO.N,/SW1*%
X-2550000Y30100000D03*
%TD*%
%TO.P,SW1,1,1*%
%TO.N,VCC*%
X-3080000Y-20398000D03*
X3420000Y-20398000D03*
%TO.P,SW1,2,2*%
%TO.N,/SFTSW*%
X-3080000Y-24898000D03*
X3420000Y-24898000D03*
%TD*%
D13*
%TO.P,J2,1,Pin_1*%
%TO.N,GND*%
X-5418000Y-32046000D03*
D14*
%TO.P,J2,2,Pin_2*%
%TO.N,/SER_A*%
X-2878000Y-32046000D03*
%TO.P,J2,3,Pin_3*%
%TO.N,/SER_S*%
X-338000Y-32046000D03*
%TO.P,J2,4,Pin_4*%
%TO.N,/SER_B*%
X2202000Y-32046000D03*
%TO.P,J2,5,Pin_5*%
%TO.N,VCC*%
X4742000Y-32046000D03*
%TD*%
D15*
%TO.P,U5,1,~{PL}*%
%TO.N,/PL*%
X11792000Y-4080600D03*
%TO.P,U5,2,CP*%
%TO.N,/CLK*%
X11792000Y-2810600D03*
%TO.P,U5,3,D4*%
%TO.N,unconnected-(U5-D4-Pad3)*%
X11792000Y-1540600D03*
%TO.P,U5,4,D5*%
%TO.N,/B3*%
X11792000Y-270600D03*
%TO.P,U5,5,D6*%
%TO.N,/B2*%
X11792000Y999400D03*
%TO.P,U5,6,D7*%
%TO.N,/B1*%
X11792000Y2269400D03*
%TO.P,U5,7,~{Q7}*%
%TO.N,unconnected-(U5-~{Q7}-Pad7)*%
X11792000Y3539400D03*
%TO.P,U5,8,GND*%
%TO.N,GND*%
X11792000Y4809400D03*
%TO.P,U5,9,Q7*%
%TO.N,/SER_B*%
X16742000Y4809400D03*
%TO.P,U5,10,DS*%
%TO.N,unconnected-(U5-DS-Pad10)*%
X16742000Y3539400D03*
%TO.P,U5,11,D0*%
%TO.N,unconnected-(U5-D0-Pad11)*%
X16742000Y2269400D03*
%TO.P,U5,12,D1*%
%TO.N,unconnected-(U5-D1-Pad12)*%
X16742000Y999400D03*
%TO.P,U5,13,D2*%
%TO.N,unconnected-(U5-D2-Pad13)*%
X16742000Y-270600D03*
%TO.P,U5,14,D3*%
%TO.N,unconnected-(U5-D3-Pad14)*%
X16742000Y-1540600D03*
%TO.P,U5,15,~{CE}*%
%TO.N,GND*%
X16742000Y-2810600D03*
%TO.P,U5,16,VCC*%
%TO.N,VCC*%
X16742000Y-4080600D03*
%TD*%
D16*
%TO.P,R13,1*%
%TO.N,/SW1*%
X-2602500Y33486000D03*
%TO.P,R13,2*%
%TO.N,GND*%
X-4677500Y33486000D03*
%TD*%
D17*
%TO.P,R12,1*%
%TO.N,/SW2*%
X-26521500Y-33316000D03*
%TO.P,R12,2*%
%TO.N,GND*%
X-24446500Y-33316000D03*
%TD*%
D16*
%TO.P,R10,1*%
%TO.N,/B3*%
X27623500Y-10710000D03*
%TO.P,R10,2*%
%TO.N,GND*%
X25548500Y-10710000D03*
%TD*%
D18*
%TO.P,C2,1*%
%TO.N,VCC*%
X3726000Y-317500D03*
%TO.P,C2,2*%
%TO.N,GND*%
X3726000Y1757500D03*
%TD*%
D17*
%TO.P,R11,1*%
%TO.N,/SW3*%
X32660500Y-33316000D03*
%TO.P,R11,2*%
%TO.N,GND*%
X34735500Y-33316000D03*
%TD*%
%TO.P,C3,1*%
%TO.N,VCC*%
X8022500Y-32046000D03*
%TO.P,C3,2*%
%TO.N,GND*%
X10097500Y-32046000D03*
%TD*%
D19*
%TO.P,R7,1*%
%TO.N,GND*%
X-26500000Y-10434500D03*
%TO.P,R7,2*%
%TO.N,/A2*%
X-26500000Y-12509500D03*
%TD*%
D16*
%TO.P,R2,1*%
%TO.N,/RSW*%
X36513500Y16468000D03*
%TO.P,R2,2*%
%TO.N,GND*%
X34438500Y16468000D03*
%TD*%
D18*
%TO.P,R5,1*%
%TO.N,GND*%
X-2624000Y10096500D03*
%TO.P,R5,2*%
%TO.N,/A1*%
X-2624000Y12171500D03*
%TD*%
D20*
%TO.P,U6,1,~{PL}*%
%TO.N,/PL*%
X-4275000Y-10267000D03*
%TO.P,U6,2,CP*%
%TO.N,/CLK*%
X-3005000Y-10267000D03*
%TO.P,U6,3,D4*%
%TO.N,/RSW*%
X-1735000Y-10267000D03*
%TO.P,U6,4,D5*%
%TO.N,/SW3*%
X-465000Y-10267000D03*
%TO.P,U6,5,D6*%
%TO.N,/SW2*%
X805000Y-10267000D03*
%TO.P,U6,6,D7*%
%TO.N,/SW1*%
X2075000Y-10267000D03*
%TO.P,U6,7,~{Q7}*%
%TO.N,unconnected-(U6-~{Q7}-Pad7)*%
X3345000Y-10267000D03*
%TO.P,U6,8,GND*%
%TO.N,GND*%
X4615000Y-10267000D03*
%TO.P,U6,9,Q7*%
%TO.N,/SER_S*%
X4615000Y-15217000D03*
%TO.P,U6,10,DS*%
%TO.N,unconnected-(U6-DS-Pad10)*%
X3345000Y-15217000D03*
%TO.P,U6,11,D0*%
%TO.N,unconnected-(U6-D0-Pad11)*%
X2075000Y-15217000D03*
%TO.P,U6,12,D1*%
%TO.N,unconnected-(U6-D1-Pad12)*%
X805000Y-15217000D03*
%TO.P,U6,13,D2*%
%TO.N,/LSW*%
X-465000Y-15217000D03*
%TO.P,U6,14,D3*%
%TO.N,/SFTSW*%
X-1735000Y-15217000D03*
%TO.P,U6,15,~{CE}*%
%TO.N,GND*%
X-3005000Y-15217000D03*
%TO.P,U6,16,VCC*%
%TO.N,VCC*%
X-4275000Y-15217000D03*
%TD*%
D16*
%TO.P,R8,1*%
%TO.N,/B2*%
X-31558500Y-11218000D03*
%TO.P,R8,2*%
%TO.N,GND*%
X-33633500Y-11218000D03*
%TD*%
%TO.P,R1,1*%
%TO.N,/LSW*%
X-35876500Y17230000D03*
%TO.P,R1,2*%
%TO.N,GND*%
X-37951500Y17230000D03*
%TD*%
D21*
%TO.P,U4,1,~{PL}*%
%TO.N,/PL*%
X-9990000Y-1958200D03*
%TO.P,U4,2,CP*%
%TO.N,/CLK*%
X-11260000Y-1958200D03*
%TO.P,U4,3,D4*%
%TO.N,unconnected-(U4-D4-Pad3)*%
X-12530000Y-1958200D03*
%TO.P,U4,4,D5*%
%TO.N,/A3*%
X-13800000Y-1958200D03*
%TO.P,U4,5,D6*%
%TO.N,/A2*%
X-15070000Y-1958200D03*
%TO.P,U4,6,D7*%
%TO.N,/A1*%
X-16340000Y-1958200D03*
%TO.P,U4,7,~{Q7}*%
%TO.N,unconnected-(U4-~{Q7}-Pad7)*%
X-17610000Y-1958200D03*
%TO.P,U4,8,GND*%
%TO.N,GND*%
X-18880000Y-1958200D03*
%TO.P,U4,9,Q7*%
%TO.N,/SER_A*%
X-18880000Y2991800D03*
%TO.P,U4,10,DS*%
%TO.N,unconnected-(U4-DS-Pad10)*%
X-17610000Y2991800D03*
%TO.P,U4,11,D0*%
%TO.N,unconnected-(U4-D0-Pad11)*%
X-16340000Y2991800D03*
%TO.P,U4,12,D1*%
%TO.N,unconnected-(U4-D1-Pad12)*%
X-15070000Y2991800D03*
%TO.P,U4,13,D2*%
%TO.N,unconnected-(U4-D2-Pad13)*%
X-13800000Y2991800D03*
%TO.P,U4,14,D3*%
%TO.N,unconnected-(U4-D3-Pad14)*%
X-12530000Y2991800D03*
%TO.P,U4,15,~{CE}*%
%TO.N,GND*%
X-11260000Y2991800D03*
%TO.P,U4,16,VCC*%
%TO.N,VCC*%
X-9990000Y2991800D03*
%TD*%
D19*
%TO.P,R6,1*%
%TO.N,/B1*%
X2202000Y12171500D03*
%TO.P,R6,2*%
%TO.N,GND*%
X2202000Y10096500D03*
%TD*%
D16*
%TO.P,R14,1*%
%TO.N,/SFTSW*%
X-6158500Y-24934000D03*
%TO.P,R14,2*%
%TO.N,GND*%
X-8233500Y-24934000D03*
%TD*%
D19*
%TO.P,R9,1*%
%TO.N,GND*%
X32428000Y-10434500D03*
%TO.P,R9,2*%
%TO.N,/A3*%
X32428000Y-12509500D03*
%TD*%
D22*
%TO.N,GND*%
X-7577000Y-13885000D03*
X6012000Y-11726000D03*
%TO.N,VCC*%
X-10117000Y8340000D03*
X-20531000Y8340000D03*
X-9990000Y5419000D03*
X-20404000Y-3344000D03*
%TO.N,GND*%
X-13546000Y-13885000D03*
X-16340000Y-30903000D03*
X-26881000Y-6392000D03*
X-33739000Y-6519000D03*
X16807000Y9737000D03*
X12743000Y9610000D03*
X-21547000Y-4360000D03*
X-7450000Y-4487000D03*
X21887000Y-5376000D03*
X20998000Y-10202000D03*
X9314000Y8721000D03*
X9314000Y4784000D03*
X5504000Y1736000D03*
X5504000Y8594000D03*
X25570000Y-2836000D03*
X25570000Y-8424000D03*
X21887000Y-2836000D03*
X18712000Y-2836000D03*
%TO.N,VCC*%
X16807000Y-5503000D03*
X5758000Y-4487000D03*
X-12657000Y-20489000D03*
X-12657000Y-34332000D03*
X-10371000Y-20362000D03*
X-10371000Y-15409000D03*
%TO.N,GND*%
X-10625000Y-24807000D03*
X-10244000Y-32046000D03*
%TO.N,VCC*%
X-19261000Y-15409000D03*
X-19388000Y-8297000D03*
%TO.N,GND*%
X-22055000Y10245000D03*
X-34120000Y10245000D03*
X-13038000Y9991000D03*
X-12911000Y5419000D03*
%TO.N,VCC*%
X-2751000Y5165000D03*
X-2751000Y8662200D03*
%TO.N,/B1*%
X7663000Y12023000D03*
X7790000Y5038000D03*
%TO.N,VCC*%
X1440000Y2117000D03*
X1440000Y5165000D03*
%TO.N,/SER_B*%
X19728000Y-9313000D03*
X19728000Y-4995000D03*
%TO.N,VCC*%
X18966000Y-32935000D03*
X27475000Y-32935000D03*
%TO.N,/A3*%
X-7704000Y-10456000D03*
X35476000Y-10456000D03*
%TO.N,/A1*%
X-6688000Y12150000D03*
X-6688000Y5038000D03*
%TO.N,/SER_A*%
X-34120000Y5038000D03*
X-28278000Y5038000D03*
%TO.N,/CLK*%
X-3894000Y-42000D03*
X1186000Y-42000D03*
%TD*%
D23*
%TO.N,GND*%
X-13546000Y-13885000D02*
X-7577000Y-13885000D01*
X6012000Y-11664000D02*
X4615000Y-10267000D01*
X6012000Y-11726000D02*
X6012000Y-11664000D01*
%TO.N,VCC*%
X-20531000Y8340000D02*
X-10117000Y8340000D01*
X-19388000Y-8297000D02*
X-19388000Y-4360000D01*
X-19388000Y-4360000D02*
X-20404000Y-3344000D01*
%TO.N,GND*%
X-10244000Y-32046000D02*
X-11387000Y-30903000D01*
X-11387000Y-30903000D02*
X-16340000Y-30903000D01*
X-13546000Y-13885000D02*
X-12784000Y-13123000D01*
X-12784000Y-13123000D02*
X-3259000Y-13123000D01*
X-3259000Y-13123000D02*
X-3005000Y-13377000D01*
X-3005000Y-13377000D02*
X-3005000Y-15217000D01*
X-33633500Y-11218000D02*
X-33633500Y-6624500D01*
X-33633500Y-6624500D02*
X-33739000Y-6519000D01*
X-23579000Y-6392000D02*
X-21547000Y-4360000D01*
X-26881000Y-6392000D02*
X-23579000Y-6392000D01*
%TO.N,/A2*%
X-26500000Y-15550000D02*
X-26500000Y-12509500D01*
%TO.N,GND*%
X-13038000Y9991000D02*
X-9101000Y9991000D01*
%TO.N,VCC*%
X-50000Y9263000D02*
X-650800Y8662200D01*
%TO.N,/B2*%
X-29649600Y6714400D02*
X13225600Y6714400D01*
X13149400Y999400D02*
X11792000Y999400D01*
%TO.N,VCC*%
X-50000Y15600000D02*
X-50000Y9263000D01*
%TO.N,GND*%
X16807000Y9737000D02*
X23538000Y16468000D01*
X10838000Y7705000D02*
X12743000Y9610000D01*
X-6815000Y7705000D02*
X10838000Y7705000D01*
X-9101000Y9991000D02*
X-6815000Y7705000D01*
%TO.N,VCC*%
X-650800Y8662200D02*
X-2751000Y8662200D01*
%TO.N,/B2*%
X-31558500Y4805500D02*
X-29649600Y6714400D01*
X13886000Y6054000D02*
X13886000Y1736000D01*
X-31558500Y-11218000D02*
X-31558500Y4805500D01*
%TO.N,GND*%
X-9101000Y9991000D02*
X-2729500Y9991000D01*
%TO.N,/B2*%
X13225600Y6714400D02*
X13886000Y6054000D01*
X13886000Y1736000D02*
X13149400Y999400D01*
%TO.N,GND*%
X23538000Y16468000D02*
X34438500Y16468000D01*
%TO.N,/RSW*%
X29862514Y21154586D02*
X36362514Y21154586D01*
%TO.N,VCC*%
X29862514Y25654586D02*
X36362514Y25654586D01*
%TO.N,GND*%
X-11260000Y2991800D02*
X-11260000Y1736000D01*
X-11260000Y1736000D02*
X-11641000Y1355000D01*
X-11641000Y1355000D02*
X-17356000Y1355000D01*
X-17356000Y1355000D02*
X-17610000Y1101000D01*
%TO.N,/A1*%
X-6688000Y1736000D02*
X-6688000Y5038000D01*
X-14611399Y745400D02*
X-7678600Y745400D01*
X-16340000Y-1958200D02*
X-16340000Y-983201D01*
X-7678600Y745400D02*
X-6688000Y1736000D01*
X-16340000Y-983201D02*
X-14611399Y745400D01*
%TO.N,GND*%
X-18880000Y-1958200D02*
X-18880000Y-169000D01*
X-18880000Y-169000D02*
X-17610000Y1101000D01*
X-21547000Y-4360000D02*
X-21547000Y-2709000D01*
X-3894000Y-3344000D02*
X-6307000Y-3344000D01*
X-6307000Y-3344000D02*
X-7450000Y-4487000D01*
X-21547000Y-2709000D02*
X-20785000Y-1947000D01*
X-20785000Y-1947000D02*
X-18891200Y-1947000D01*
X-18891200Y-1947000D02*
X-18880000Y-1958200D01*
X20998000Y-33824000D02*
X20998000Y-10202000D01*
X21887000Y-5376000D02*
X21887000Y-2836000D01*
X18712000Y-36110000D02*
X20998000Y-33824000D01*
X-13927000Y-36110000D02*
X18712000Y-36110000D01*
X-15070000Y-32427000D02*
X-15070000Y-32681000D01*
X-14689000Y-32046000D02*
X-15070000Y-32427000D01*
X-10244000Y-32046000D02*
X-14689000Y-32046000D01*
X-15070000Y-32681000D02*
X-15070000Y-34967000D01*
X-15070000Y-34967000D02*
X-13927000Y-36110000D01*
X11792000Y4809400D02*
X9339400Y4809400D01*
X9314000Y8721000D02*
X5631000Y8721000D01*
X9339400Y4809400D02*
X9314000Y4784000D01*
X5631000Y8721000D02*
X5504000Y8594000D01*
X5504000Y9229000D02*
X4742000Y9991000D01*
X5504000Y8594000D02*
X5504000Y9229000D01*
X5482500Y1757500D02*
X5504000Y1736000D01*
X3726000Y1757500D02*
X5482500Y1757500D01*
X2307500Y9991000D02*
X2202000Y10096500D01*
X4742000Y9991000D02*
X2307500Y9991000D01*
X25548500Y-10710000D02*
X25548500Y-8445500D01*
X25548500Y-8445500D02*
X25570000Y-8424000D01*
X25570000Y-2836000D02*
X21887000Y-2836000D01*
X34438500Y9715500D02*
X34438500Y16468000D01*
X16742000Y-2810600D02*
X18686600Y-2810600D01*
X18686600Y-2810600D02*
X18712000Y-2836000D01*
X21887000Y-2836000D02*
X34438500Y9715500D01*
%TO.N,VCC*%
X16807000Y-5503000D02*
X16807000Y-4145600D01*
X3726000Y-3344000D02*
X4869000Y-4487000D01*
X4869000Y-4487000D02*
X5758000Y-4487000D01*
X16807000Y-4145600D02*
X16742000Y-4080600D01*
X2837000Y-34967000D02*
X-10879000Y-34967000D01*
X3345000Y-34459000D02*
X2837000Y-34967000D01*
X4742000Y-32046000D02*
X4742000Y-33062000D01*
X-12022000Y-34967000D02*
X-12657000Y-34332000D01*
X4742000Y-33062000D02*
X3345000Y-34459000D01*
X-10879000Y-34967000D02*
X-12022000Y-34967000D01*
X-10498000Y-20489000D02*
X-10371000Y-20362000D01*
X-12657000Y-20489000D02*
X-10498000Y-20489000D01*
X-10371000Y-20362000D02*
X-3116000Y-20362000D01*
X-3116000Y-20362000D02*
X-3080000Y-20398000D01*
X-19261000Y-15409000D02*
X-4467000Y-15409000D01*
X-4467000Y-15409000D02*
X-4275000Y-15217000D01*
%TO.N,GND*%
X-5418000Y-32046000D02*
X-10244000Y-32046000D01*
X-8360500Y-24807000D02*
X-8233500Y-24934000D01*
X-10625000Y-24807000D02*
X-8360500Y-24807000D01*
%TO.N,VCC*%
X-29000000Y-9527000D02*
X-27643000Y-8170000D01*
X-29000000Y-15550000D02*
X-29000000Y-9527000D01*
X-27643000Y-8170000D02*
X-19515000Y-8170000D01*
X-19515000Y-8170000D02*
X-19388000Y-8297000D01*
%TO.N,GND*%
X-37951500Y17230000D02*
X-37951500Y14076500D01*
X-37951500Y14076500D02*
X-34120000Y10245000D01*
X-22055000Y10245000D02*
X-13292000Y10245000D01*
X-13292000Y10245000D02*
X-13038000Y9991000D01*
X-11260000Y4657000D02*
X-12022000Y5419000D01*
X-11260000Y2991800D02*
X-11260000Y4657000D01*
X-12022000Y5419000D02*
X-12911000Y5419000D01*
X-2729500Y9991000D02*
X-2624000Y10096500D01*
%TO.N,VCC*%
X-1392000Y25650000D02*
X43000Y24215000D01*
X-29360000Y25650000D02*
X-1392000Y25650000D01*
X43000Y24215000D02*
X-50000Y24122000D01*
X-50000Y24122000D02*
X-50000Y15600000D01*
%TO.N,/LSW*%
X-35876500Y17230000D02*
X-35876500Y21133500D01*
X-35876500Y21133500D02*
X-35860000Y21150000D01*
%TO.N,VCC*%
X-27262000Y35391000D02*
X-29548000Y33105000D01*
X-29548000Y33105000D02*
X-29548000Y25838000D01*
X-29548000Y25838000D02*
X-29360000Y25650000D01*
X424000Y35391000D02*
X-27262000Y35391000D01*
X2450000Y30100000D02*
X2450000Y33365000D01*
X2450000Y33365000D02*
X424000Y35391000D01*
X-2751000Y5165000D02*
X-1862000Y5165000D01*
X-973000Y6054000D02*
X551000Y6054000D01*
X-1862000Y5165000D02*
X-973000Y6054000D01*
X-3767000Y5165000D02*
X-2751000Y5165000D01*
X-9482000Y6054000D02*
X-4656000Y6054000D01*
X-4656000Y6054000D02*
X-3767000Y5165000D01*
%TO.N,/B1*%
X8399600Y2269400D02*
X7790000Y2879000D01*
X11792000Y2269400D02*
X8399600Y2269400D01*
X7790000Y2879000D02*
X7790000Y5038000D01*
X7663000Y12023000D02*
X2350500Y12023000D01*
X2350500Y12023000D02*
X2202000Y12171500D01*
%TO.N,VCC*%
X3726000Y-3344000D02*
X3726000Y-317500D01*
X-9990000Y5546000D02*
X-9482000Y6054000D01*
X-9990000Y2991800D02*
X-9990000Y5546000D01*
X1440000Y2117000D02*
X1440000Y1968500D01*
X551000Y6054000D02*
X1440000Y5165000D01*
X1440000Y1968500D02*
X3726000Y-317500D01*
%TO.N,/RSW*%
X1236052Y-7204052D02*
X1692505Y-6747600D01*
X828904Y-7611200D02*
X1236052Y-7204052D01*
X-1100000Y-7611200D02*
X828904Y-7611200D01*
X-1735000Y-10267000D02*
X-1735000Y-8246200D01*
X-1735000Y-8246200D02*
X-1100000Y-7611200D01*
X1692505Y-6747600D02*
X34358400Y-6747600D01*
X34358400Y-6747600D02*
X36513500Y-4592500D01*
X36513500Y-4592500D02*
X36513500Y16468000D01*
%TO.N,/CLK*%
X-3005000Y-10267000D02*
X-3005000Y-7382600D01*
X322400Y-7001600D02*
X1186000Y-6138000D01*
X-3005000Y-7382600D02*
X-2624000Y-7001600D01*
X-2624000Y-7001600D02*
X322400Y-7001600D01*
X1186000Y-6138000D02*
X1186000Y-5630000D01*
X1186000Y-3344000D02*
X1186000Y-5630000D01*
X13886000Y-3344000D02*
X13886000Y-5122000D01*
X13886000Y-5122000D02*
X13886000Y-5376000D01*
X1186000Y-5630000D02*
X13378000Y-5630000D01*
X13378000Y-5630000D02*
X13886000Y-5122000D01*
%TO.N,/SER_B*%
X19728000Y-9313000D02*
X8044000Y-9313000D01*
X3853000Y-26966000D02*
X2202000Y-28617000D01*
X8044000Y-9313000D02*
X7282000Y-10075000D01*
X7282000Y-10075000D02*
X7282000Y-23791000D01*
X7282000Y-23791000D02*
X4107000Y-26966000D01*
X2202000Y-28617000D02*
X2202000Y-32046000D01*
X4107000Y-26966000D02*
X3853000Y-26966000D01*
X16742000Y4809400D02*
X18940600Y4809400D01*
X18940600Y4809400D02*
X19728000Y4022000D01*
X19728000Y4022000D02*
X19728000Y-4995000D01*
%TO.N,VCC*%
X27500000Y-30000000D02*
X27500000Y-32910000D01*
X27500000Y-32910000D02*
X27475000Y-32935000D01*
X11854000Y-34713000D02*
X8933000Y-34713000D01*
X8022500Y-33802500D02*
X8022500Y-32046000D01*
X18966000Y-32935000D02*
X13632000Y-32935000D01*
X13632000Y-32935000D02*
X11854000Y-34713000D01*
X8933000Y-34713000D02*
X8022500Y-33802500D01*
%TO.N,/A3*%
X-12784000Y-10456000D02*
X-7704000Y-10456000D01*
X35476000Y-11980000D02*
X34946500Y-12509500D01*
X-13800000Y-1958200D02*
X-13800000Y-9440000D01*
X-13800000Y-9440000D02*
X-12784000Y-10456000D01*
X35476000Y-10456000D02*
X35476000Y-11980000D01*
X34946500Y-12509500D02*
X32428000Y-12509500D01*
%TO.N,/A1*%
X-6688000Y12150000D02*
X-6666500Y12171500D01*
X-6666500Y12171500D02*
X-2624000Y12171500D01*
%TO.N,/SER_A*%
X-37523600Y-31536505D02*
X-37523600Y1634400D01*
X-18372000Y-27474000D02*
X-19794400Y-28896400D01*
X-18880000Y4530000D02*
X-18880000Y2991800D01*
X-19388000Y5038000D02*
X-18880000Y4530000D01*
X-2878000Y-32046000D02*
X-2878000Y-29506000D01*
X-4910000Y-27474000D02*
X-18372000Y-27474000D01*
X-21827896Y-35602000D02*
X-22436000Y-35602000D01*
X-37523600Y1634400D02*
X-34120000Y5038000D01*
X-19794400Y-33568504D02*
X-21827896Y-35602000D01*
X-28278000Y5038000D02*
X-19388000Y5038000D01*
X-33458105Y-35602000D02*
X-37523600Y-31536505D01*
X-22436000Y-35602000D02*
X-33458105Y-35602000D01*
X-19794400Y-29760000D02*
X-19794400Y-33568504D01*
X-19794400Y-28896400D02*
X-19794400Y-29760000D01*
X-2878000Y-29506000D02*
X-4910000Y-27474000D01*
%TO.N,/SFTSW*%
X-6158500Y-24934000D02*
X-3116000Y-24934000D01*
X-3116000Y-24934000D02*
X-3080000Y-24898000D01*
%TO.N,VCC*%
X4742000Y-32046000D02*
X8022500Y-32046000D01*
%TO.N,/SW1*%
X36579800Y-34498200D02*
X24974200Y-34498200D01*
X39286000Y22410105D02*
X39286000Y13826400D01*
X37863600Y12404000D02*
X37863600Y5444400D01*
X39286000Y4022000D02*
X39286000Y-31792000D01*
X2075000Y-9292001D02*
X2075000Y-10267000D01*
X37863600Y5444400D02*
X39286000Y4022000D01*
X38014505Y23681600D02*
X39286000Y22410105D01*
X10228400Y23681600D02*
X38014505Y23681600D01*
X22268000Y-10608400D02*
X22420400Y-10456000D01*
X22420400Y-10100400D02*
X20591600Y-8271600D01*
X6520000Y27390000D02*
X10228400Y23681600D01*
X22268000Y-31792000D02*
X22268000Y-10608400D01*
X22420400Y-10456000D02*
X22420400Y-10100400D01*
X39286000Y-31792000D02*
X36579800Y-34498200D01*
X39286000Y13826400D02*
X37863600Y12404000D01*
X-1608000Y27390000D02*
X6520000Y27390000D01*
X24974200Y-34498200D02*
X22268000Y-31792000D01*
X-2550000Y28332000D02*
X-1608000Y27390000D01*
X-2550000Y30100000D02*
X-2550000Y28332000D01*
X20591600Y-8271600D02*
X3095401Y-8271600D01*
X3095401Y-8271600D02*
X2075000Y-9292001D01*
%TO.N,/SFTSW*%
X-1735000Y-15217000D02*
X-1735000Y-14139000D01*
X-1735000Y-14139000D02*
X-592000Y-12996000D01*
X5032000Y-24898000D02*
X3420000Y-24898000D01*
X-592000Y-12996000D02*
X5250000Y-12996000D01*
X5250000Y-12996000D02*
X6266000Y-14012000D01*
X6266000Y-14012000D02*
X6266000Y-23664000D01*
X6266000Y-23664000D02*
X5032000Y-24898000D01*
%TO.N,/SER_S*%
X-338000Y-32046000D02*
X-338000Y-20108000D01*
X-338000Y-20108000D02*
X1948000Y-17822000D01*
X1948000Y-17822000D02*
X3980000Y-17822000D01*
X3980000Y-17822000D02*
X4615000Y-17187000D01*
X4615000Y-17187000D02*
X4615000Y-15217000D01*
%TO.N,/LSW*%
X-29360000Y21150000D02*
X-29360000Y7866104D01*
X-29360000Y7866104D02*
X-31376052Y5850052D01*
X-31811005Y5415100D02*
X-36914000Y312105D01*
X-31376052Y5850052D02*
X-31811005Y5415100D01*
X-20404000Y-19092000D02*
X-19134000Y-17822000D01*
X-36914000Y312105D02*
X-36914000Y-31284000D01*
X-36914000Y-31284000D02*
X-33358000Y-34840000D01*
X-465000Y-17187000D02*
X-465000Y-15217000D01*
X-33358000Y-34840000D02*
X-21928000Y-34840000D01*
X-21928000Y-34840000D02*
X-20404000Y-33316000D01*
X-20404000Y-33316000D02*
X-20404000Y-19092000D01*
X-19134000Y-17822000D02*
X-1100000Y-17822000D01*
X-1100000Y-17822000D02*
X-465000Y-17187000D01*
%TO.N,/SW1*%
X-2550000Y30100000D02*
X-2550000Y33433500D01*
X-2550000Y33433500D02*
X-2602500Y33486000D01*
%TO.N,VCC*%
X28702000Y30100000D02*
X29888000Y28914000D01*
X2450000Y30100000D02*
X28702000Y30100000D01*
X29888000Y28914000D02*
X29862514Y28888514D01*
X29862514Y28888514D02*
X29862514Y25654586D01*
%TO.N,/B3*%
X29126000Y-7408000D02*
X27623500Y-8910500D01*
X37762000Y23072000D02*
X38524000Y22310000D01*
X34968000Y-7408000D02*
X29126000Y-7408000D01*
X16426000Y23072000D02*
X37762000Y23072000D01*
X37254000Y13166000D02*
X37254000Y-5122000D01*
X38524000Y14436000D02*
X37254000Y13166000D01*
X14495600Y21141600D02*
X16426000Y23072000D01*
X37254000Y-5122000D02*
X34968000Y-7408000D01*
X14495600Y567600D02*
X14495600Y21141600D01*
X11792000Y-270600D02*
X13606600Y-270600D01*
X13632000Y-296000D02*
X14495600Y567600D01*
X13606600Y-270600D02*
X13632000Y-296000D01*
X38524000Y22310000D02*
X38524000Y14436000D01*
X27623500Y-8910500D02*
X27623500Y-10710000D01*
%TO.N,/SW3*%
X32500000Y-30000000D02*
X32500000Y-21196000D01*
X21506000Y-7662000D02*
X1948000Y-7662000D01*
X32500000Y-21196000D02*
X30396000Y-19092000D01*
X1948000Y-7662000D02*
X1389200Y-8220800D01*
X30396000Y-19092000D02*
X24808000Y-19092000D01*
X24808000Y-19092000D02*
X23030000Y-17314000D01*
X23030000Y-17314000D02*
X23030000Y-9186000D01*
X23030000Y-9186000D02*
X21506000Y-7662000D01*
X1389200Y-8220800D02*
X-84000Y-8220800D01*
X-84000Y-8220800D02*
X-465000Y-8601800D01*
X-465000Y-8601800D02*
X-465000Y-10267000D01*
%TO.N,/B3*%
X27500000Y-15500000D02*
X27500000Y-10833500D01*
X27500000Y-10833500D02*
X27623500Y-10710000D01*
%TO.N,/A3*%
X32500000Y-15500000D02*
X32500000Y-12581500D01*
X32500000Y-12581500D02*
X32428000Y-12509500D01*
%TO.N,/SW3*%
X32660500Y-33316000D02*
X32660500Y-30160500D01*
X32660500Y-30160500D02*
X32500000Y-30000000D01*
%TO.N,/RSW*%
X36513500Y16468000D02*
X36513500Y21003600D01*
X36513500Y21003600D02*
X36362514Y21154586D01*
%TO.N,/SW2*%
X-26500000Y-30050000D02*
X-26500000Y-19854000D01*
X-15578000Y-13250000D02*
X-14562000Y-12234000D01*
X-26500000Y-19854000D02*
X-19896000Y-13250000D01*
X-19896000Y-13250000D02*
X-15578000Y-13250000D01*
X-14562000Y-12234000D02*
X170000Y-12234000D01*
X170000Y-12234000D02*
X805000Y-11599000D01*
X805000Y-11599000D02*
X805000Y-10267000D01*
X-26521500Y-33316000D02*
X-26521500Y-30071500D01*
X-26521500Y-30071500D02*
X-26500000Y-30050000D01*
%TO.N,/B2*%
X-31500000Y-15550000D02*
X-31500000Y-11276500D01*
X-31500000Y-11276500D02*
X-31558500Y-11218000D01*
%TO.N,/A2*%
X-26500000Y-12509500D02*
X-16361500Y-12509500D01*
X-16361500Y-12509500D02*
X-15070000Y-11218000D01*
X-15070000Y-11218000D02*
X-15070000Y-1958200D01*
%TO.N,/B1*%
X2202000Y12171500D02*
X2202000Y15352000D01*
X2202000Y15352000D02*
X2450000Y15600000D01*
%TO.N,/A1*%
X-2624000Y12171500D02*
X-2624000Y15526000D01*
X-2624000Y15526000D02*
X-2550000Y15600000D01*
%TO.N,/CLK*%
X-11260000Y-550000D02*
X-10752000Y-42000D01*
X-11260000Y-1958200D02*
X-11260000Y-550000D01*
X-10752000Y-42000D02*
X-3894000Y-42000D01*
X1186000Y-42000D02*
X1186000Y-3344000D01*
%TO.N,/PL*%
X-9990000Y-1958200D02*
X-9990000Y-5122000D01*
X-9990000Y-5122000D02*
X-8720000Y-6392000D01*
X-8720000Y-6392000D02*
X-3386000Y-6392000D01*
%TO.N,/CLK*%
X13352600Y-2810600D02*
X13886000Y-3344000D01*
X11792000Y-2810600D02*
X13352600Y-2810600D01*
%TO.N,/PL*%
X11792000Y-4080600D02*
X7256600Y-4080600D01*
X-1354000Y3006000D02*
X-1354000Y-3344000D01*
X7256600Y-4080600D02*
X6520000Y-3344000D01*
X6520000Y-3344000D02*
X6520000Y3260000D01*
X6520000Y3260000D02*
X6012000Y3768000D01*
X6012000Y3768000D02*
X-592000Y3768000D01*
X-592000Y3768000D02*
X-1354000Y3006000D01*
X-1354000Y-3344000D02*
X-1354000Y-6138000D01*
X-1354000Y-6138000D02*
X-1608000Y-6392000D01*
X-4275000Y-7281000D02*
X-4275000Y-10267000D01*
X-1608000Y-6392000D02*
X-3386000Y-6392000D01*
X-3386000Y-6392000D02*
X-4275000Y-7281000D01*
%TD*%
%TA.AperFunction,Conductor*%
%TO.N,GND*%
G36*
X-32292066Y3908185D02*
G01*
X-32236133Y3866313D01*
X-32211716Y3800849D01*
X-32211400Y3792003D01*
X-32211400Y-9986552D01*
X-32231085Y-10053591D01*
X-32270303Y-10092091D01*
X-32364658Y-10150289D01*
X-32488712Y-10274343D01*
X-32488717Y-10274349D01*
X-32490759Y-10277661D01*
X-32492753Y-10279453D01*
X-32493193Y-10280011D01*
X-32493289Y-10279935D01*
X-32542709Y-10324383D01*
X-32611672Y-10335602D01*
X-32675753Y-10307755D01*
X-32701832Y-10277656D01*
X-32703681Y-10274659D01*
X-32703684Y-10274655D01*
X-32827655Y-10150684D01*
X-32976876Y-10058643D01*
X-32976881Y-10058641D01*
X-33143303Y-10003494D01*
X-33143310Y-10003493D01*
X-33246014Y-9993000D01*
X-33383500Y-9993000D01*
X-33383500Y-12442999D01*
X-33246028Y-12442999D01*
X-33246014Y-12442998D01*
X-33143303Y-12432505D01*
X-32976881Y-12377358D01*
X-32976876Y-12377356D01*
X-32827655Y-12285315D01*
X-32703682Y-12161342D01*
X-32701835Y-12158348D01*
X-32700031Y-12156724D01*
X-32699202Y-12155677D01*
X-32699024Y-12155818D01*
X-32649890Y-12111621D01*
X-32580927Y-12100396D01*
X-32516844Y-12128236D01*
X-32490757Y-12158341D01*
X-32488712Y-12161656D01*
X-32364656Y-12285712D01*
X-32216077Y-12377356D01*
X-32211804Y-12379991D01*
X-32165079Y-12431939D01*
X-32152900Y-12485530D01*
X-32152900Y-14123308D01*
X-32172585Y-14190347D01*
X-32217882Y-14232362D01*
X-32323499Y-14289519D01*
X-32323506Y-14289523D01*
X-32519743Y-14442261D01*
X-32688167Y-14625217D01*
X-32824174Y-14833393D01*
X-32924064Y-15061118D01*
X-32985108Y-15302175D01*
X-32985110Y-15302187D01*
X-33005643Y-15549994D01*
X-33005643Y-15550005D01*
X-32985110Y-15797812D01*
X-32985108Y-15797824D01*
X-32924064Y-16038881D01*
X-32824174Y-16266606D01*
X-32688167Y-16474782D01*
X-32688164Y-16474785D01*
X-32519744Y-16657738D01*
X-32323509Y-16810474D01*
X-32104810Y-16928828D01*
X-31869614Y-17009571D01*
X-31624335Y-17050500D01*
X-31375665Y-17050500D01*
X-31130386Y-17009571D01*
X-30895190Y-16928828D01*
X-30676491Y-16810474D01*
X-30480256Y-16657738D01*
X-30341228Y-16506712D01*
X-30281343Y-16470724D01*
X-30211505Y-16472824D01*
X-30158774Y-16506711D01*
X-30019744Y-16657738D01*
X-29823509Y-16810474D01*
X-29604810Y-16928828D01*
X-29369614Y-17009571D01*
X-29124335Y-17050500D01*
X-28875665Y-17050500D01*
X-28630386Y-17009571D01*
X-28395190Y-16928828D01*
X-28176491Y-16810474D01*
X-28120589Y-16766963D01*
X-28055599Y-16741321D01*
X-27987059Y-16754887D01*
X-27945163Y-16790506D01*
X-27857548Y-16907544D01*
X-27857545Y-16907547D01*
X-27742336Y-16993793D01*
X-27742329Y-16993797D01*
X-27607483Y-17044091D01*
X-27607484Y-17044091D01*
X-27600556Y-17044835D01*
X-27547873Y-17050500D01*
X-25452128Y-17050499D01*
X-25392517Y-17044091D01*
X-25257669Y-16993796D01*
X-25142454Y-16907546D01*
X-25056204Y-16792331D01*
X-25005909Y-16657483D01*
X-24999500Y-16597873D01*
X-24999501Y-14502128D01*
X-25005909Y-14442517D01*
X-25009096Y-14433973D01*
X-25056203Y-14307671D01*
X-25056207Y-14307664D01*
X-25142453Y-14192455D01*
X-25142456Y-14192452D01*
X-25257665Y-14106206D01*
X-25257672Y-14106202D01*
X-25392518Y-14055908D01*
X-25392517Y-14055908D01*
X-25452117Y-14049501D01*
X-25452119Y-14049500D01*
X-25452127Y-14049500D01*
X-25452135Y-14049500D01*
X-25723100Y-14049500D01*
X-25790139Y-14029815D01*
X-25835894Y-13977011D01*
X-25847100Y-13925500D01*
X-25847100Y-13668221D01*
X-25827415Y-13601182D01*
X-25774611Y-13555427D01*
X-25762112Y-13550517D01*
X-25705666Y-13531814D01*
X-25556344Y-13439712D01*
X-25432288Y-13315656D01*
X-25374091Y-13221302D01*
X-25322143Y-13174579D01*
X-25268552Y-13162400D01*
X-21031102Y-13162400D01*
X-20964063Y-13182085D01*
X-20918308Y-13234889D01*
X-20908364Y-13304047D01*
X-20937389Y-13367603D01*
X-20943421Y-13374081D01*
X-27007142Y-19437800D01*
X-27007146Y-19437805D01*
X-27066132Y-19526088D01*
X-27066132Y-19526089D01*
X-27078594Y-19544739D01*
X-27127809Y-19663555D01*
X-27127811Y-19663561D01*
X-27152900Y-19789692D01*
X-27152900Y-28623308D01*
X-27172585Y-28690347D01*
X-27217882Y-28732362D01*
X-27323499Y-28789519D01*
X-27323506Y-28789523D01*
X-27519743Y-28942261D01*
X-27688167Y-29125217D01*
X-27824174Y-29333393D01*
X-27924064Y-29561118D01*
X-27985108Y-29802175D01*
X-27985110Y-29802187D01*
X-28005643Y-30049994D01*
X-28005643Y-30050005D01*
X-27985110Y-30297812D01*
X-27985108Y-30297824D01*
X-27924064Y-30538881D01*
X-27824174Y-30766606D01*
X-27688167Y-30974782D01*
X-27684575Y-30978684D01*
X-27519744Y-31157738D01*
X-27491414Y-31179788D01*
X-27323512Y-31310472D01*
X-27323508Y-31310475D01*
X-27310277Y-31317635D01*
X-27239383Y-31356000D01*
X-27189792Y-31405219D01*
X-27174400Y-31465055D01*
X-27174400Y-32084552D01*
X-27194085Y-32151591D01*
X-27233303Y-32190091D01*
X-27327658Y-32248289D01*
X-27451711Y-32372342D01*
X-27543813Y-32521663D01*
X-27543815Y-32521668D01*
X-27560153Y-32570973D01*
X-27598999Y-32688203D01*
X-27598999Y-32688204D01*
X-27599000Y-32688204D01*
X-27609500Y-32790983D01*
X-27609500Y-33841001D01*
X-27609499Y-33841019D01*
X-27599000Y-33943796D01*
X-27596327Y-33951862D01*
X-27572390Y-34024096D01*
X-27569988Y-34093923D01*
X-27605719Y-34153966D01*
X-27668239Y-34185159D01*
X-27690096Y-34187100D01*
X-33036198Y-34187100D01*
X-33103237Y-34167415D01*
X-33123879Y-34150781D01*
X-36224781Y-31049878D01*
X-36258266Y-30988555D01*
X-36261100Y-30962197D01*
X-36261100Y-30049994D01*
X-33005643Y-30049994D01*
X-33005643Y-30050005D01*
X-32985110Y-30297812D01*
X-32985108Y-30297824D01*
X-32924064Y-30538881D01*
X-32824174Y-30766606D01*
X-32688167Y-30974782D01*
X-32684575Y-30978684D01*
X-32519744Y-31157738D01*
X-32323509Y-31310474D01*
X-32289346Y-31328962D01*
X-32131401Y-31414438D01*
X-32104810Y-31428828D01*
X-31869614Y-31509571D01*
X-31624335Y-31550500D01*
X-31375665Y-31550500D01*
X-31130386Y-31509571D01*
X-30895190Y-31428828D01*
X-30676491Y-31310474D01*
X-30480256Y-31157738D01*
X-30311836Y-30974785D01*
X-30175827Y-30766607D01*
X-30075937Y-30538881D01*
X-30014892Y-30297821D01*
X-30005225Y-30181161D01*
X-29994357Y-30050005D01*
X-29994357Y-30049994D01*
X-30014891Y-29802187D01*
X-30014893Y-29802175D01*
X-30075937Y-29561118D01*
X-30175827Y-29333393D01*
X-30311834Y-29125217D01*
X-30344437Y-29089801D01*
X-30480256Y-28942262D01*
X-30676491Y-28789526D01*
X-30676493Y-28789525D01*
X-30676494Y-28789524D01*
X-30895189Y-28671172D01*
X-30895198Y-28671169D01*
X-31130384Y-28590429D01*
X-31375665Y-28549500D01*
X-31624335Y-28549500D01*
X-31869617Y-28590429D01*
X-32104803Y-28671169D01*
X-32104812Y-28671172D01*
X-32323507Y-28789524D01*
X-32519743Y-28942261D01*
X-32688167Y-29125217D01*
X-32824174Y-29333393D01*
X-32924064Y-29561118D01*
X-32985108Y-29802175D01*
X-32985110Y-29802187D01*
X-33005643Y-30049994D01*
X-36261100Y-30049994D01*
X-36261100Y-24663253D01*
X-36241415Y-24596214D01*
X-36188611Y-24550459D01*
X-36119453Y-24540515D01*
X-36055897Y-24569540D01*
X-36046489Y-24578604D01*
X-36037053Y-24588708D01*
X-36037049Y-24588712D01*
X-35814147Y-24770055D01*
X-35568618Y-24919365D01*
X-35420177Y-24983841D01*
X-35305058Y-25033844D01*
X-35028358Y-25111371D01*
X-34778080Y-25145771D01*
X-34743679Y-25150500D01*
X-34743678Y-25150500D01*
X-34456321Y-25150500D01*
X-34422215Y-25145812D01*
X-34171642Y-25111371D01*
X-33894942Y-25033844D01*
X-33779823Y-24983841D01*
X-33631383Y-24919365D01*
X-33631380Y-24919363D01*
X-33631375Y-24919361D01*
X-33385853Y-24770055D01*
X-33162947Y-24588708D01*
X-32966811Y-24378698D01*
X-32801099Y-24143936D01*
X-32668896Y-23888797D01*
X-32572666Y-23618032D01*
X-32514202Y-23336686D01*
X-32494592Y-23050000D01*
X-32514202Y-22763314D01*
X-32572666Y-22481968D01*
X-32668895Y-22211206D01*
X-32668894Y-22211206D01*
X-32801099Y-21956064D01*
X-32966813Y-21721299D01*
X-33045446Y-21637105D01*
X-33162947Y-21511292D01*
X-33339888Y-21367340D01*
X-33385854Y-21329944D01*
X-33631383Y-21180634D01*
X-33894937Y-21066158D01*
X-33894939Y-21066157D01*
X-33894942Y-21066156D01*
X-34056464Y-21020900D01*
X-34171636Y-20988630D01*
X-34171641Y-20988629D01*
X-34171642Y-20988629D01*
X-34313982Y-20969064D01*
X-34456321Y-20949500D01*
X-34456322Y-20949500D01*
X-34743678Y-20949500D01*
X-34743679Y-20949500D01*
X-35028358Y-20988629D01*
X-35028365Y-20988630D01*
X-35192379Y-21034585D01*
X-35305058Y-21066156D01*
X-35305061Y-21066156D01*
X-35305064Y-21066158D01*
X-35305065Y-21066158D01*
X-35568618Y-21180634D01*
X-35814147Y-21329944D01*
X-36037050Y-21511289D01*
X-36037053Y-21511291D01*
X-36037053Y-21511292D01*
X-36039957Y-21514402D01*
X-36046477Y-21521383D01*
X-36106621Y-21556942D01*
X-36176442Y-21554339D01*
X-36233773Y-21514402D01*
X-36260410Y-21449809D01*
X-36261100Y-21436746D01*
X-36261100Y-11742986D01*
X-34720999Y-11742986D01*
X-34710506Y-11845697D01*
X-34655359Y-12012119D01*
X-34655357Y-12012124D01*
X-34563316Y-12161345D01*
X-34439346Y-12285315D01*
X-34290125Y-12377356D01*
X-34290120Y-12377358D01*
X-34123698Y-12432505D01*
X-34123691Y-12432506D01*
X-34020981Y-12442999D01*
X-33883501Y-12442999D01*
X-33883500Y-12442998D01*
X-33883500Y-11468000D01*
X-34720999Y-11468000D01*
X-34720999Y-11742986D01*
X-36261100Y-11742986D01*
X-36261100Y-10693013D01*
X-34721000Y-10693013D01*
X-34721000Y-10968000D01*
X-33883500Y-10968000D01*
X-33883500Y-9993000D01*
X-34020973Y-9993000D01*
X-34020988Y-9993001D01*
X-34123698Y-10003494D01*
X-34290120Y-10058641D01*
X-34290125Y-10058643D01*
X-34439346Y-10150684D01*
X-34563316Y-10274654D01*
X-34655357Y-10423875D01*
X-34655359Y-10423880D01*
X-34710506Y-10590302D01*
X-34710507Y-10590309D01*
X-34721000Y-10693013D01*
X-36261100Y-10693013D01*
X-36261100Y-9697D01*
X-36241415Y57342D01*
X-36224781Y77984D01*
X-32423081Y3879684D01*
X-32361758Y3913169D01*
X-32292066Y3908185D01*
G37*
%TD.AperFunction*%
%TA.AperFunction,Conductor*%
G36*
X-1638564Y-12906585D02*
G01*
X-1592809Y-12959389D01*
X-1582865Y-13028547D01*
X-1611890Y-13092103D01*
X-1617922Y-13098581D01*
X-2242137Y-13722794D01*
X-2242138Y-13722795D01*
X-2308126Y-13821556D01*
X-2308141Y-13821579D01*
X-2309365Y-13823410D01*
X-2362987Y-13868203D01*
X-2432314Y-13876896D01*
X-2475574Y-13861229D01*
X-2594804Y-13790717D01*
X-2594807Y-13790716D01*
X-2752506Y-13744900D01*
X-2752503Y-13744900D01*
X-2755000Y-13744703D01*
X-2755000Y-16689295D01*
X-2754999Y-16689295D01*
X-2752514Y-16689100D01*
X-2594802Y-16643281D01*
X-2453450Y-16559686D01*
X-2447283Y-16554903D01*
X-2445370Y-16557369D01*
X-2396778Y-16530802D01*
X-2327083Y-16535749D01*
X-2294238Y-16556853D01*
X-2293031Y-16555298D01*
X-2286868Y-16560078D01*
X-2286865Y-16560081D01*
X-2145398Y-16643744D01*
X-2103776Y-16655836D01*
X-1987574Y-16689597D01*
X-1987571Y-16689597D01*
X-1987569Y-16689598D01*
X-1950694Y-16692500D01*
X-1950686Y-16692500D01*
X-1519314Y-16692500D01*
X-1519306Y-16692500D01*
X-1482431Y-16689598D01*
X-1482429Y-16689597D01*
X-1482427Y-16689597D01*
X-1421363Y-16671856D01*
X-1324602Y-16643744D01*
X-1305020Y-16632163D01*
X-1237299Y-16614980D01*
X-1171036Y-16637139D01*
X-1127272Y-16691604D01*
X-1117900Y-16738895D01*
X-1117900Y-16865197D01*
X-1137585Y-16932236D01*
X-1154219Y-16952878D01*
X-1334122Y-17132781D01*
X-1395445Y-17166266D01*
X-1421803Y-17169100D01*
X-19198307Y-17169100D01*
X-19324439Y-17194189D01*
X-19324445Y-17194191D01*
X-19443263Y-17243407D01*
X-19550203Y-17314861D01*
X-19550204Y-17314862D01*
X-20911137Y-18675794D01*
X-20911138Y-18675795D01*
X-20982593Y-18782737D01*
X-21031809Y-18901555D01*
X-21031811Y-18901561D01*
X-21056900Y-19027692D01*
X-21056900Y-22895066D01*
X-21076585Y-22962105D01*
X-21129389Y-23007860D01*
X-21198547Y-23017804D01*
X-21262103Y-22988779D01*
X-21299877Y-22930001D01*
X-21304611Y-22903528D01*
X-21314202Y-22763319D01*
X-21314202Y-22763314D01*
X-21372666Y-22481968D01*
X-21468895Y-22211206D01*
X-21468894Y-22211206D01*
X-21601099Y-21956064D01*
X-21766813Y-21721299D01*
X-21845446Y-21637105D01*
X-21962947Y-21511292D01*
X-22139888Y-21367340D01*
X-22185854Y-21329944D01*
X-22431383Y-21180634D01*
X-22694937Y-21066158D01*
X-22694939Y-21066157D01*
X-22694942Y-21066156D01*
X-22856464Y-21020900D01*
X-22971636Y-20988630D01*
X-22971641Y-20988629D01*
X-22971642Y-20988629D01*
X-23113982Y-20969064D01*
X-23256321Y-20949500D01*
X-23256322Y-20949500D01*
X-23543678Y-20949500D01*
X-23543679Y-20949500D01*
X-23828358Y-20988629D01*
X-23828365Y-20988630D01*
X-23992379Y-21034585D01*
X-24105058Y-21066156D01*
X-24105061Y-21066156D01*
X-24105064Y-21066158D01*
X-24105065Y-21066158D01*
X-24368618Y-21180634D01*
X-24614147Y-21329944D01*
X-24837050Y-21511289D01*
X-24837053Y-21511291D01*
X-24837053Y-21511292D01*
X-24843133Y-21517802D01*
X-25033188Y-21721299D01*
X-25198902Y-21956064D01*
X-25331106Y-22211206D01*
X-25427333Y-22481962D01*
X-25427334Y-22481965D01*
X-25485799Y-22763319D01*
X-25505408Y-23050000D01*
X-25485799Y-23336680D01*
X-25427334Y-23618034D01*
X-25427333Y-23618037D01*
X-25331106Y-23888793D01*
X-25331107Y-23888793D01*
X-25198902Y-24143935D01*
X-25033188Y-24378700D01*
X-25004877Y-24409013D01*
X-24837053Y-24588708D01*
X-24738304Y-24669046D01*
X-24614147Y-24770055D01*
X-24368618Y-24919365D01*
X-24220177Y-24983841D01*
X-24105058Y-25033844D01*
X-23828358Y-25111371D01*
X-23578080Y-25145771D01*
X-23543679Y-25150500D01*
X-23543678Y-25150500D01*
X-23256321Y-25150500D01*
X-23222215Y-25145812D01*
X-22971642Y-25111371D01*
X-22694942Y-25033844D01*
X-22579823Y-24983841D01*
X-22431383Y-24919365D01*
X-22431380Y-24919363D01*
X-22431375Y-24919361D01*
X-22185853Y-24770055D01*
X-21962947Y-24588708D01*
X-21766811Y-24378698D01*
X-21601099Y-24143936D01*
X-21468896Y-23888797D01*
X-21372666Y-23618032D01*
X-21314202Y-23336686D01*
X-21304611Y-23196470D01*
X-21280397Y-23130931D01*
X-21224594Y-23088886D01*
X-21154918Y-23083686D01*
X-21093491Y-23116980D01*
X-21059816Y-23178199D01*
X-21056900Y-23204933D01*
X-21056900Y-32994197D01*
X-21076585Y-33061236D01*
X-21093219Y-33081878D01*
X-22162122Y-34150781D01*
X-22223445Y-34184266D01*
X-22249803Y-34187100D01*
X-23278430Y-34187100D01*
X-23345469Y-34167415D01*
X-23391224Y-34114611D01*
X-23401168Y-34045453D01*
X-23396136Y-34024096D01*
X-23369495Y-33943697D01*
X-23369494Y-33943690D01*
X-23359001Y-33840986D01*
X-23359000Y-33840973D01*
X-23359000Y-33566000D01*
X-24322500Y-33566000D01*
X-24389539Y-33546315D01*
X-24435294Y-33493511D01*
X-24446500Y-33442000D01*
X-24446500Y-33316000D01*
X-24572500Y-33316000D01*
X-24639539Y-33296315D01*
X-24685294Y-33243511D01*
X-24696500Y-33192000D01*
X-24696500Y-33066000D01*
X-24196500Y-33066000D01*
X-23359001Y-33066000D01*
X-23359001Y-32791028D01*
X-23359002Y-32791013D01*
X-23369495Y-32688302D01*
X-23424642Y-32521880D01*
X-23424644Y-32521875D01*
X-23516685Y-32372654D01*
X-23640655Y-32248684D01*
X-23789876Y-32156643D01*
X-23789881Y-32156641D01*
X-23956303Y-32101494D01*
X-23956310Y-32101493D01*
X-24059014Y-32091000D01*
X-24196500Y-32091000D01*
X-24196500Y-33066000D01*
X-24696500Y-33066000D01*
X-24696500Y-32091000D01*
X-24833973Y-32091000D01*
X-24833988Y-32091001D01*
X-24936698Y-32101494D01*
X-25103120Y-32156641D01*
X-25103125Y-32156643D01*
X-25252346Y-32248684D01*
X-25376317Y-32372655D01*
X-25376321Y-32372660D01*
X-25378174Y-32375665D01*
X-25379982Y-32377290D01*
X-25380798Y-32378323D01*
X-25380975Y-32378183D01*
X-25430126Y-32422385D01*
X-25499089Y-32433601D01*
X-25563169Y-32405752D01*
X-25589247Y-32375653D01*
X-25589263Y-32375628D01*
X-25591288Y-32372344D01*
X-25715344Y-32248288D01*
X-25809698Y-32190090D01*
X-25856421Y-32138143D01*
X-25868600Y-32084552D01*
X-25868600Y-31488326D01*
X-25848915Y-31421287D01*
X-25803617Y-31379271D01*
X-25783106Y-31368171D01*
X-25676491Y-31310474D01*
X-25480256Y-31157738D01*
X-25311836Y-30974785D01*
X-25175827Y-30766607D01*
X-25075937Y-30538881D01*
X-25014892Y-30297821D01*
X-25005225Y-30181161D01*
X-24994357Y-30050005D01*
X-24994357Y-30049994D01*
X-25014891Y-29802187D01*
X-25014893Y-29802175D01*
X-25075937Y-29561118D01*
X-25175827Y-29333393D01*
X-25311834Y-29125217D01*
X-25344437Y-29089801D01*
X-25480256Y-28942262D01*
X-25676491Y-28789526D01*
X-25676492Y-28789525D01*
X-25676495Y-28789523D01*
X-25676502Y-28789519D01*
X-25782118Y-28732362D01*
X-25831708Y-28683143D01*
X-25847100Y-28623308D01*
X-25847100Y-20175802D01*
X-25827415Y-20108763D01*
X-25810781Y-20088121D01*
X-21131660Y-15409000D01*
X-20266341Y-15409000D01*
X-20247025Y-15605129D01*
X-20247024Y-15605132D01*
X-20203739Y-15747824D01*
X-20189812Y-15793733D01*
X-20096914Y-15967532D01*
X-20096910Y-15967539D01*
X-19971884Y-16119883D01*
X-19819540Y-16244909D01*
X-19819533Y-16244913D01*
X-19645734Y-16337811D01*
X-19645731Y-16337811D01*
X-19645727Y-16337814D01*
X-19457132Y-16395024D01*
X-19261000Y-16414341D01*
X-19064868Y-16395024D01*
X-18876273Y-16337814D01*
X-18853618Y-16325705D01*
X-18743054Y-16266607D01*
X-18702462Y-16244910D01*
X-18651417Y-16203018D01*
X-18550119Y-16119885D01*
X-18539736Y-16107234D01*
X-18481990Y-16067900D01*
X-18443884Y-16061900D01*
X-11188116Y-16061900D01*
X-11121077Y-16081585D01*
X-11092264Y-16107234D01*
X-11081882Y-16119885D01*
X-10929540Y-16244909D01*
X-10929533Y-16244913D01*
X-10755734Y-16337811D01*
X-10755731Y-16337811D01*
X-10755727Y-16337814D01*
X-10567132Y-16395024D01*
X-10371000Y-16414341D01*
X-10174868Y-16395024D01*
X-9986273Y-16337814D01*
X-9963618Y-16325705D01*
X-9853054Y-16266607D01*
X-9812462Y-16244910D01*
X-9761417Y-16203018D01*
X-9660119Y-16119885D01*
X-9649736Y-16107234D01*
X-9591990Y-16067900D01*
X-9553884Y-16061900D01*
X-5189717Y-16061900D01*
X-5122678Y-16081585D01*
X-5076923Y-16134389D01*
X-5070641Y-16151305D01*
X-5026746Y-16302393D01*
X-5026745Y-16302396D01*
X-4943083Y-16443862D01*
X-4943077Y-16443870D01*
X-4826871Y-16560076D01*
X-4826867Y-16560079D01*
X-4826865Y-16560081D01*
X-4685398Y-16643744D01*
X-4643776Y-16655836D01*
X-4527574Y-16689597D01*
X-4527571Y-16689597D01*
X-4527569Y-16689598D01*
X-4490694Y-16692500D01*
X-4490686Y-16692500D01*
X-4059314Y-16692500D01*
X-4059306Y-16692500D01*
X-4022431Y-16689598D01*
X-4022429Y-16689597D01*
X-4022427Y-16689597D01*
X-3961363Y-16671856D01*
X-3864602Y-16643744D01*
X-3723135Y-16560081D01*
X-3723130Y-16560076D01*
X-3716974Y-16555301D01*
X-3715161Y-16557638D01*
X-3666051Y-16530798D01*
X-3596357Y-16535756D01*
X-3564004Y-16556551D01*
X-3562722Y-16554900D01*
X-3556553Y-16559685D01*
X-3415199Y-16643281D01*
X-3257486Y-16689100D01*
X-3257489Y-16689100D01*
X-3255002Y-16689295D01*
X-3255000Y-16689295D01*
X-3255000Y-13744703D01*
X-3257497Y-13744900D01*
X-3415194Y-13790716D01*
X-3415197Y-13790717D01*
X-3556551Y-13874313D01*
X-3562717Y-13879097D01*
X-3564611Y-13876655D01*
X-3613420Y-13903239D01*
X-3683106Y-13898179D01*
X-3715773Y-13877159D01*
X-3716969Y-13878702D01*
X-3723138Y-13873917D01*
X-3808541Y-13823410D01*
X-3864602Y-13790256D01*
X-3864603Y-13790255D01*
X-3864604Y-13790255D01*
X-3864607Y-13790254D01*
X-4022427Y-13744402D01*
X-4022433Y-13744401D01*
X-4059299Y-13741500D01*
X-4059306Y-13741500D01*
X-4490694Y-13741500D01*
X-4490702Y-13741500D01*
X-4527568Y-13744401D01*
X-4527574Y-13744402D01*
X-4685394Y-13790254D01*
X-4685397Y-13790255D01*
X-4826863Y-13873917D01*
X-4826871Y-13873923D01*
X-4943077Y-13990129D01*
X-4943083Y-13990137D01*
X-5026745Y-14131603D01*
X-5026746Y-14131606D01*
X-5072598Y-14289426D01*
X-5072599Y-14289432D01*
X-5075500Y-14326298D01*
X-5075500Y-14632100D01*
X-5095185Y-14699139D01*
X-5147989Y-14744894D01*
X-5199500Y-14756100D01*
X-9553884Y-14756100D01*
X-9620923Y-14736415D01*
X-9649736Y-14710766D01*
X-9660119Y-14698114D01*
X-9812461Y-14573090D01*
X-9812468Y-14573086D01*
X-9986267Y-14480188D01*
X-9986273Y-14480186D01*
X-10174868Y-14422976D01*
X-10174871Y-14422975D01*
X-10371000Y-14403659D01*
X-10567130Y-14422975D01*
X-10755734Y-14480188D01*
X-10929533Y-14573086D01*
X-10929540Y-14573090D01*
X-11081882Y-14698114D01*
X-11092264Y-14710766D01*
X-11150010Y-14750100D01*
X-11188116Y-14756100D01*
X-18443884Y-14756100D01*
X-18510923Y-14736415D01*
X-18539736Y-14710766D01*
X-18550119Y-14698114D01*
X-18702461Y-14573090D01*
X-18702468Y-14573086D01*
X-18876267Y-14480188D01*
X-18876273Y-14480186D01*
X-19064868Y-14422976D01*
X-19064871Y-14422975D01*
X-19261000Y-14403659D01*
X-19457130Y-14422975D01*
X-19645734Y-14480188D01*
X-19819533Y-14573086D01*
X-19819540Y-14573090D01*
X-19971884Y-14698116D01*
X-20096910Y-14850460D01*
X-20096914Y-14850467D01*
X-20189812Y-15024266D01*
X-20247025Y-15212870D01*
X-20266341Y-15409000D01*
X-21131660Y-15409000D01*
X-19661879Y-13939219D01*
X-19600556Y-13905734D01*
X-19574198Y-13902900D01*
X-15513693Y-13902900D01*
X-15428835Y-13886019D01*
X-15387556Y-13877809D01*
X-15268736Y-13828592D01*
X-15258206Y-13821556D01*
X-15161800Y-13757141D01*
X-14327878Y-12923219D01*
X-14266555Y-12889734D01*
X-14240197Y-12886900D01*
X-1705603Y-12886900D01*
X-1638564Y-12906585D01*
G37*
%TD.AperFunction*%
%TA.AperFunction,Conductor*%
G36*
X38112103Y4272111D02*
G01*
X38118581Y4266079D01*
X38596781Y3787879D01*
X38630266Y3726556D01*
X38633100Y3700198D01*
X38633100Y-31470197D01*
X38613415Y-31537236D01*
X38596781Y-31557878D01*
X36345678Y-33808981D01*
X36284355Y-33842466D01*
X36257997Y-33845300D01*
X35947000Y-33845300D01*
X35879961Y-33825615D01*
X35834206Y-33772811D01*
X35823000Y-33721300D01*
X35823000Y-33566000D01*
X34859500Y-33566000D01*
X34792461Y-33546315D01*
X34746706Y-33493511D01*
X34735500Y-33442000D01*
X34735500Y-33316000D01*
X34609500Y-33316000D01*
X34542461Y-33296315D01*
X34496706Y-33243511D01*
X34485500Y-33192000D01*
X34485500Y-33066000D01*
X34985500Y-33066000D01*
X35822999Y-33066000D01*
X35822999Y-32791028D01*
X35822998Y-32791013D01*
X35812505Y-32688302D01*
X35757358Y-32521880D01*
X35757356Y-32521875D01*
X35665315Y-32372654D01*
X35541345Y-32248684D01*
X35392124Y-32156643D01*
X35392119Y-32156641D01*
X35225697Y-32101494D01*
X35225690Y-32101493D01*
X35122986Y-32091000D01*
X34985500Y-32091000D01*
X34985500Y-33066000D01*
X34485500Y-33066000D01*
X34485500Y-32091000D01*
X34348027Y-32091000D01*
X34348012Y-32091001D01*
X34245302Y-32101494D01*
X34078880Y-32156641D01*
X34078875Y-32156643D01*
X33929654Y-32248684D01*
X33805683Y-32372655D01*
X33805679Y-32372660D01*
X33803826Y-32375665D01*
X33802018Y-32377290D01*
X33801202Y-32378323D01*
X33801025Y-32378183D01*
X33751874Y-32422385D01*
X33682911Y-32433601D01*
X33618831Y-32405752D01*
X33592753Y-32375653D01*
X33592737Y-32375628D01*
X33590712Y-32372344D01*
X33466656Y-32248288D01*
X33372302Y-32190090D01*
X33325579Y-32138143D01*
X33313400Y-32084552D01*
X33313400Y-31328962D01*
X33333085Y-31261923D01*
X33361238Y-31231109D01*
X33467816Y-31148155D01*
X33519744Y-31107738D01*
X33688164Y-30924785D01*
X33824173Y-30716607D01*
X33924063Y-30488881D01*
X33985108Y-30247821D01*
X33993255Y-30149500D01*
X34005643Y-30000005D01*
X34005643Y-29999994D01*
X33985109Y-29752187D01*
X33985107Y-29752175D01*
X33924063Y-29511118D01*
X33824173Y-29283393D01*
X33688166Y-29075217D01*
X33666557Y-29051744D01*
X33519744Y-28892262D01*
X33323509Y-28739526D01*
X33323508Y-28739525D01*
X33323505Y-28739523D01*
X33323498Y-28739519D01*
X33217882Y-28682362D01*
X33168292Y-28633143D01*
X33152900Y-28573308D01*
X33152900Y-23000000D01*
X33494592Y-23000000D01*
X33514201Y-23286680D01*
X33572666Y-23568034D01*
X33572667Y-23568037D01*
X33668894Y-23838793D01*
X33668893Y-23838793D01*
X33801098Y-24093935D01*
X33966812Y-24328700D01*
X34041820Y-24409013D01*
X34162947Y-24538708D01*
X34341535Y-24684000D01*
X34385853Y-24720055D01*
X34631382Y-24869365D01*
X34818237Y-24950526D01*
X34894942Y-24983844D01*
X35171642Y-25061371D01*
X35421920Y-25095771D01*
X35456321Y-25100500D01*
X35456322Y-25100500D01*
X35743679Y-25100500D01*
X35774370Y-25096281D01*
X36028358Y-25061371D01*
X36305058Y-24983844D01*
X36502680Y-24898005D01*
X36568617Y-24869365D01*
X36568620Y-24869363D01*
X36568625Y-24869361D01*
X36814147Y-24720055D01*
X37037053Y-24538708D01*
X37233189Y-24328698D01*
X37398901Y-24093936D01*
X37531104Y-23838797D01*
X37627334Y-23568032D01*
X37685798Y-23286686D01*
X37705408Y-23000000D01*
X37685798Y-22713314D01*
X37627334Y-22431968D01*
X37531105Y-22161206D01*
X37531106Y-22161206D01*
X37398901Y-21906064D01*
X37233187Y-21671299D01*
X37093174Y-21521383D01*
X37037053Y-21461292D01*
X36814147Y-21279945D01*
X36814146Y-21279944D01*
X36568617Y-21130634D01*
X36305063Y-21016158D01*
X36305061Y-21016157D01*
X36305058Y-21016156D01*
X36175578Y-20979877D01*
X36028364Y-20938630D01*
X36028359Y-20938629D01*
X36028358Y-20938629D01*
X35886018Y-20919064D01*
X35743679Y-20899500D01*
X35743678Y-20899500D01*
X35456322Y-20899500D01*
X35456321Y-20899500D01*
X35171642Y-20938629D01*
X35171635Y-20938630D01*
X34993188Y-20988629D01*
X34894942Y-21016156D01*
X34894939Y-21016156D01*
X34894936Y-21016158D01*
X34894935Y-21016158D01*
X34631382Y-21130634D01*
X34385853Y-21279944D01*
X34162950Y-21461289D01*
X33966812Y-21671299D01*
X33801098Y-21906064D01*
X33668894Y-22161206D01*
X33572667Y-22431962D01*
X33572666Y-22431965D01*
X33514201Y-22713319D01*
X33494592Y-23000000D01*
X33152900Y-23000000D01*
X33152900Y-21131692D01*
X33127810Y-21005561D01*
X33127809Y-21005560D01*
X33127809Y-21005556D01*
X33078592Y-20886736D01*
X33063575Y-20864262D01*
X33007140Y-20779800D01*
X33007138Y-20779797D01*
X33007135Y-20779794D01*
X30812205Y-18584863D01*
X30812204Y-18584862D01*
X30812200Y-18584859D01*
X30705264Y-18513408D01*
X30699979Y-18511219D01*
X30586444Y-18464191D01*
X30586438Y-18464189D01*
X30460307Y-18439100D01*
X30460305Y-18439100D01*
X25129802Y-18439100D01*
X25062763Y-18419415D01*
X25042121Y-18402781D01*
X23719219Y-17079878D01*
X23685734Y-17018555D01*
X23682900Y-16992197D01*
X23682900Y-11234986D01*
X24461001Y-11234986D01*
X24471494Y-11337697D01*
X24526641Y-11504119D01*
X24526643Y-11504124D01*
X24618684Y-11653345D01*
X24742654Y-11777315D01*
X24891875Y-11869356D01*
X24891880Y-11869358D01*
X25058302Y-11924505D01*
X25058309Y-11924506D01*
X25161019Y-11934999D01*
X25298499Y-11934999D01*
X25298500Y-11934998D01*
X25298500Y-10960000D01*
X24461001Y-10960000D01*
X24461001Y-11234986D01*
X23682900Y-11234986D01*
X23682900Y-10185013D01*
X24461000Y-10185013D01*
X24461000Y-10460000D01*
X25298500Y-10460000D01*
X25298500Y-9485000D01*
X25161027Y-9485000D01*
X25161012Y-9485001D01*
X25058302Y-9495494D01*
X24891880Y-9550641D01*
X24891875Y-9550643D01*
X24742654Y-9642684D01*
X24618684Y-9766654D01*
X24526643Y-9915875D01*
X24526641Y-9915880D01*
X24471494Y-10082302D01*
X24471493Y-10082309D01*
X24461000Y-10185013D01*
X23682900Y-10185013D01*
X23682900Y-9121692D01*
X23657810Y-8995561D01*
X23657809Y-8995560D01*
X23657809Y-8995556D01*
X23608592Y-8876736D01*
X23572620Y-8822900D01*
X23537140Y-8769800D01*
X23537138Y-8769798D01*
X23537136Y-8769795D01*
X22379522Y-7612181D01*
X22346037Y-7550858D01*
X22351021Y-7481166D01*
X22392893Y-7425233D01*
X22458357Y-7400816D01*
X22467203Y-7400500D01*
X27910798Y-7400500D01*
X27977837Y-7420185D01*
X28023592Y-7472989D01*
X28033536Y-7542147D01*
X28004511Y-7605703D01*
X27998479Y-7612181D01*
X27116363Y-8494294D01*
X27116362Y-8494295D01*
X27058520Y-8580864D01*
X27058519Y-8580863D01*
X27044908Y-8601235D01*
X26995691Y-8720055D01*
X26995689Y-8720061D01*
X26970600Y-8846192D01*
X26970600Y-9478552D01*
X26950915Y-9545591D01*
X26911697Y-9584091D01*
X26817342Y-9642289D01*
X26693288Y-9766343D01*
X26693283Y-9766349D01*
X26691241Y-9769661D01*
X26689247Y-9771453D01*
X26688807Y-9772011D01*
X26688711Y-9771935D01*
X26639291Y-9816383D01*
X26570328Y-9827602D01*
X26506247Y-9799755D01*
X26480168Y-9769656D01*
X26478319Y-9766659D01*
X26478316Y-9766655D01*
X26354345Y-9642684D01*
X26205124Y-9550643D01*
X26205119Y-9550641D01*
X26038697Y-9495494D01*
X26038690Y-9495493D01*
X25935986Y-9485000D01*
X25798500Y-9485000D01*
X25798500Y-11934999D01*
X25935972Y-11934999D01*
X25935986Y-11934998D01*
X26038697Y-11924505D01*
X26205119Y-11869358D01*
X26205124Y-11869356D01*
X26354345Y-11777315D01*
X26478318Y-11653342D01*
X26480165Y-11650348D01*
X26481969Y-11648724D01*
X26482798Y-11647677D01*
X26482976Y-11647818D01*
X26532110Y-11603621D01*
X26601073Y-11592396D01*
X26665156Y-11620236D01*
X26691243Y-11650341D01*
X26693288Y-11653656D01*
X26693289Y-11653657D01*
X26810781Y-11771149D01*
X26844266Y-11832472D01*
X26847100Y-11858830D01*
X26847100Y-14073308D01*
X26827415Y-14140347D01*
X26782118Y-14182362D01*
X26676501Y-14239519D01*
X26676494Y-14239523D01*
X26480257Y-14392261D01*
X26311833Y-14575217D01*
X26175826Y-14783393D01*
X26075936Y-15011118D01*
X26014892Y-15252175D01*
X26014890Y-15252187D01*
X25994357Y-15499994D01*
X25994357Y-15500005D01*
X26014890Y-15747812D01*
X26014892Y-15747824D01*
X26075936Y-15988881D01*
X26175826Y-16216606D01*
X26311833Y-16424782D01*
X26329400Y-16443865D01*
X26480256Y-16607738D01*
X26676491Y-16760474D01*
X26895190Y-16878828D01*
X27130386Y-16959571D01*
X27375665Y-17000500D01*
X27624335Y-17000500D01*
X27869614Y-16959571D01*
X28104810Y-16878828D01*
X28323509Y-16760474D01*
X28519744Y-16607738D01*
X28658772Y-16456712D01*
X28718657Y-16420724D01*
X28788495Y-16422824D01*
X28841226Y-16456711D01*
X28980256Y-16607738D01*
X29176491Y-16760474D01*
X29395190Y-16878828D01*
X29630386Y-16959571D01*
X29875665Y-17000500D01*
X30124335Y-17000500D01*
X30369614Y-16959571D01*
X30604810Y-16878828D01*
X30823509Y-16760474D01*
X30879411Y-16716963D01*
X30944401Y-16691321D01*
X31012941Y-16704887D01*
X31054837Y-16740506D01*
X31142452Y-16857544D01*
X31142455Y-16857547D01*
X31257664Y-16943793D01*
X31257671Y-16943797D01*
X31392517Y-16994091D01*
X31392516Y-16994091D01*
X31399444Y-16994835D01*
X31452127Y-17000500D01*
X33547872Y-17000499D01*
X33607483Y-16994091D01*
X33742331Y-16943796D01*
X33857546Y-16857546D01*
X33943796Y-16742331D01*
X33994091Y-16607483D01*
X34000500Y-16547873D01*
X34000499Y-14452128D01*
X33994091Y-14392517D01*
X33990904Y-14383973D01*
X33943797Y-14257671D01*
X33943793Y-14257664D01*
X33857547Y-14142455D01*
X33857544Y-14142452D01*
X33742335Y-14056206D01*
X33742328Y-14056202D01*
X33607482Y-14005908D01*
X33607483Y-14005908D01*
X33547883Y-13999501D01*
X33547881Y-13999500D01*
X33547873Y-13999500D01*
X33547865Y-13999500D01*
X33276900Y-13999500D01*
X33209861Y-13979815D01*
X33164106Y-13927011D01*
X33152900Y-13875500D01*
X33152900Y-13643188D01*
X33172585Y-13576149D01*
X33217173Y-13537204D01*
X33216187Y-13535605D01*
X33222332Y-13531814D01*
X33222334Y-13531814D01*
X33371656Y-13439712D01*
X33495712Y-13315656D01*
X33553909Y-13221302D01*
X33605857Y-13174579D01*
X33659448Y-13162400D01*
X35010807Y-13162400D01*
X35095665Y-13145519D01*
X35136944Y-13137309D01*
X35255764Y-13088092D01*
X35362700Y-13016641D01*
X35983140Y-12396200D01*
X36054592Y-12289264D01*
X36103809Y-12170444D01*
X36105557Y-12161656D01*
X36128900Y-12044305D01*
X36128900Y-11273115D01*
X36148585Y-11206076D01*
X36174238Y-11177260D01*
X36186883Y-11166883D01*
X36311910Y-11014538D01*
X36404814Y-10840727D01*
X36462024Y-10652132D01*
X36481341Y-10456000D01*
X36462024Y-10259868D01*
X36404814Y-10071273D01*
X36404811Y-10071269D01*
X36404811Y-10071266D01*
X36311913Y-9897467D01*
X36311909Y-9897460D01*
X36186883Y-9745116D01*
X36034539Y-9620090D01*
X36034532Y-9620086D01*
X35860733Y-9527188D01*
X35860727Y-9527186D01*
X35734997Y-9489046D01*
X35672129Y-9469975D01*
X35476000Y-9450659D01*
X35279870Y-9469975D01*
X35091266Y-9527188D01*
X34917467Y-9620086D01*
X34917460Y-9620090D01*
X34765116Y-9745116D01*
X34640090Y-9897460D01*
X34640086Y-9897467D01*
X34547188Y-10071266D01*
X34489975Y-10259870D01*
X34470659Y-10456000D01*
X34489975Y-10652129D01*
X34547188Y-10840733D01*
X34640086Y-11014532D01*
X34640090Y-11014539D01*
X34702943Y-11091124D01*
X34757581Y-11157701D01*
X34765118Y-11166884D01*
X34777762Y-11177260D01*
X34817098Y-11235005D01*
X34823100Y-11273115D01*
X34823100Y-11658197D01*
X34803415Y-11725236D01*
X34786781Y-11745878D01*
X34712378Y-11820281D01*
X34651055Y-11853766D01*
X34624697Y-11856600D01*
X33659448Y-11856600D01*
X33592409Y-11836915D01*
X33553909Y-11797697D01*
X33552902Y-11796065D01*
X33495712Y-11703344D01*
X33371656Y-11579288D01*
X33368342Y-11577243D01*
X33366546Y-11575248D01*
X33365989Y-11574807D01*
X33366064Y-11574711D01*
X33321618Y-11525297D01*
X33310397Y-11456334D01*
X33338240Y-11392252D01*
X33368348Y-11366165D01*
X33371342Y-11364318D01*
X33495315Y-11240345D01*
X33587356Y-11091124D01*
X33587358Y-11091119D01*
X33642505Y-10924697D01*
X33642506Y-10924690D01*
X33652999Y-10821986D01*
X33653000Y-10821973D01*
X33653000Y-10684500D01*
X31203001Y-10684500D01*
X31203001Y-10821986D01*
X31213494Y-10924697D01*
X31268641Y-11091119D01*
X31268643Y-11091124D01*
X31360684Y-11240345D01*
X31484655Y-11364316D01*
X31484659Y-11364319D01*
X31487656Y-11366168D01*
X31489279Y-11367972D01*
X31490323Y-11368798D01*
X31490181Y-11368976D01*
X31534381Y-11418116D01*
X31545602Y-11487079D01*
X31517759Y-11551161D01*
X31487661Y-11577241D01*
X31484349Y-11579283D01*
X31484343Y-11579288D01*
X31360289Y-11703342D01*
X31268187Y-11852663D01*
X31268185Y-11852668D01*
X31241055Y-11934543D01*
X31213001Y-12019203D01*
X31213001Y-12019204D01*
X31213000Y-12019204D01*
X31202500Y-12121983D01*
X31202500Y-12897001D01*
X31202501Y-12897019D01*
X31213000Y-12999796D01*
X31213001Y-12999799D01*
X31268185Y-13166331D01*
X31268187Y-13166336D01*
X31277901Y-13182085D01*
X31360288Y-13315656D01*
X31484344Y-13439712D01*
X31633666Y-13531814D01*
X31762105Y-13574374D01*
X31819548Y-13614145D01*
X31846372Y-13678661D01*
X31847100Y-13692079D01*
X31847100Y-13875500D01*
X31827415Y-13942539D01*
X31774611Y-13988294D01*
X31723100Y-13999500D01*
X31452130Y-13999500D01*
X31452123Y-13999501D01*
X31392516Y-14005908D01*
X31257671Y-14056202D01*
X31257664Y-14056206D01*
X31142455Y-14142452D01*
X31054838Y-14259493D01*
X30998904Y-14301363D01*
X30929213Y-14306347D01*
X30879410Y-14283035D01*
X30823510Y-14239527D01*
X30823509Y-14239526D01*
X30717879Y-14182362D01*
X30604811Y-14121172D01*
X30604802Y-14121169D01*
X30369616Y-14040429D01*
X30124335Y-13999500D01*
X29875665Y-13999500D01*
X29630383Y-14040429D01*
X29395197Y-14121169D01*
X29395188Y-14121172D01*
X29176493Y-14239524D01*
X28980255Y-14392262D01*
X28980252Y-14392265D01*
X28841229Y-14543284D01*
X28781342Y-14579275D01*
X28711504Y-14577174D01*
X28658771Y-14543284D01*
X28519747Y-14392265D01*
X28519744Y-14392262D01*
X28435004Y-14326306D01*
X28323509Y-14239526D01*
X28323508Y-14239525D01*
X28323505Y-14239523D01*
X28323498Y-14239519D01*
X28217882Y-14182362D01*
X28168292Y-14133143D01*
X28152900Y-14073308D01*
X28152900Y-12001582D01*
X28172585Y-11934543D01*
X28225389Y-11888788D01*
X28237889Y-11883878D01*
X28280334Y-11869814D01*
X28429656Y-11777712D01*
X28553712Y-11653656D01*
X28645814Y-11504334D01*
X28700999Y-11337797D01*
X28711500Y-11235009D01*
X28711499Y-10184992D01*
X28707994Y-10150684D01*
X28700999Y-10082203D01*
X28700998Y-10082200D01*
X28693191Y-10058641D01*
X28689338Y-10047013D01*
X31203000Y-10047013D01*
X31203000Y-10184500D01*
X32178000Y-10184500D01*
X32678000Y-10184500D01*
X33652999Y-10184500D01*
X33652999Y-10047028D01*
X33652998Y-10047013D01*
X33642505Y-9944302D01*
X33587358Y-9777880D01*
X33587356Y-9777875D01*
X33495315Y-9628654D01*
X33371345Y-9504684D01*
X33222124Y-9412643D01*
X33222119Y-9412641D01*
X33055697Y-9357494D01*
X33055690Y-9357493D01*
X32952986Y-9347000D01*
X32678000Y-9347000D01*
X32678000Y-10184500D01*
X32178000Y-10184500D01*
X32178000Y-9347000D01*
X31903029Y-9347000D01*
X31903012Y-9347001D01*
X31800302Y-9357494D01*
X31633880Y-9412641D01*
X31633875Y-9412643D01*
X31484654Y-9504684D01*
X31360684Y-9628654D01*
X31268643Y-9777875D01*
X31268641Y-9777880D01*
X31213494Y-9944302D01*
X31213493Y-9944309D01*
X31203000Y-10047013D01*
X28689338Y-10047013D01*
X28645814Y-9915666D01*
X28553712Y-9766344D01*
X28429656Y-9642288D01*
X28335302Y-9584090D01*
X28288579Y-9532143D01*
X28276400Y-9478552D01*
X28276400Y-9232302D01*
X28296085Y-9165263D01*
X28312719Y-9144621D01*
X29360121Y-8097219D01*
X29421444Y-8063734D01*
X29447802Y-8060900D01*
X35032307Y-8060900D01*
X35117165Y-8044019D01*
X35158444Y-8035809D01*
X35277264Y-7986592D01*
X35300204Y-7971264D01*
X35384200Y-7915141D01*
X37761140Y-5538200D01*
X37832592Y-5431264D01*
X37881809Y-5312444D01*
X37885763Y-5292565D01*
X37905940Y-5191132D01*
X37906900Y-5186306D01*
X37906900Y4178398D01*
X37926585Y4245437D01*
X37979389Y4291192D01*
X38048547Y4301136D01*
X38112103Y4272111D01*
G37*
%TD.AperFunction*%
%TA.AperFunction,Conductor*%
G36*
X2753274Y-16536104D02*
G01*
X2785695Y-16556940D01*
X2786969Y-16555298D01*
X2793132Y-16560078D01*
X2793135Y-16560081D01*
X2934602Y-16643744D01*
X2976224Y-16655836D01*
X3092426Y-16689597D01*
X3092429Y-16689597D01*
X3092431Y-16689598D01*
X3129306Y-16692500D01*
X3129314Y-16692500D01*
X3560686Y-16692500D01*
X3560694Y-16692500D01*
X3597569Y-16689598D01*
X3597571Y-16689597D01*
X3597573Y-16689597D01*
X3658637Y-16671856D01*
X3755398Y-16643744D01*
X3774980Y-16632163D01*
X3842701Y-16614980D01*
X3908964Y-16637139D01*
X3952728Y-16691604D01*
X3962100Y-16738895D01*
X3962100Y-16865197D01*
X3942415Y-16932236D01*
X3925781Y-16952878D01*
X3745878Y-17132781D01*
X3684555Y-17166266D01*
X3658197Y-17169100D01*
X1883693Y-17169100D01*
X1757561Y-17194189D01*
X1757555Y-17194191D01*
X1638737Y-17243407D01*
X1531797Y-17314861D01*
X-845142Y-19691800D01*
X-845146Y-19691805D01*
X-892854Y-19763209D01*
X-892856Y-19763212D01*
X-916588Y-19798727D01*
X-916594Y-19798738D01*
X-965809Y-19917555D01*
X-965811Y-19917561D01*
X-990900Y-20043692D01*
X-990900Y-30789959D01*
X-1010585Y-30856998D01*
X-1043777Y-30891534D01*
X-1209403Y-31007505D01*
X-1376495Y-31174597D01*
X-1506425Y-31360158D01*
X-1561002Y-31403783D01*
X-1630500Y-31410977D01*
X-1692855Y-31379454D01*
X-1709575Y-31360158D01*
X-1839506Y-31174597D01*
X-2006598Y-31007506D01*
X-2006599Y-31007505D01*
X-2172224Y-30891533D01*
X-2215848Y-30836956D01*
X-2225100Y-30789958D01*
X-2225100Y-29441692D01*
X-2250190Y-29315561D01*
X-2250191Y-29315560D01*
X-2250191Y-29315556D01*
X-2299408Y-29196736D01*
X-2321704Y-29163368D01*
X-2370859Y-29089801D01*
X-2370861Y-29089799D01*
X-2370863Y-29089796D01*
X-2370864Y-29089795D01*
X-4493795Y-26966863D01*
X-4493796Y-26966862D01*
X-4493800Y-26966859D01*
X-4600736Y-26895408D01*
X-4719556Y-26846191D01*
X-4719562Y-26846189D01*
X-4845693Y-26821100D01*
X-4845695Y-26821100D01*
X-18436305Y-26821100D01*
X-18436307Y-26821100D01*
X-18562439Y-26846189D01*
X-18562445Y-26846191D01*
X-18681263Y-26895407D01*
X-18788203Y-26966861D01*
X-18788204Y-26966862D01*
X-19539419Y-27718078D01*
X-19600742Y-27751563D01*
X-19670434Y-27746579D01*
X-19726367Y-27704707D01*
X-19750784Y-27639243D01*
X-19751100Y-27630397D01*
X-19751100Y-25458986D01*
X-9320999Y-25458986D01*
X-9310506Y-25561697D01*
X-9255359Y-25728119D01*
X-9255357Y-25728124D01*
X-9163316Y-25877345D01*
X-9039346Y-26001315D01*
X-8890125Y-26093356D01*
X-8890120Y-26093358D01*
X-8723698Y-26148505D01*
X-8723691Y-26148506D01*
X-8620981Y-26158999D01*
X-8483501Y-26158999D01*
X-8483500Y-26158998D01*
X-8483500Y-25184000D01*
X-9320999Y-25184000D01*
X-9320999Y-25458986D01*
X-19751100Y-25458986D01*
X-19751100Y-24409013D01*
X-9321000Y-24409013D01*
X-9321000Y-24684000D01*
X-8483500Y-24684000D01*
X-8483500Y-23709000D01*
X-7983500Y-23709000D01*
X-7983500Y-26158999D01*
X-7846028Y-26158999D01*
X-7846014Y-26158998D01*
X-7743303Y-26148505D01*
X-7576881Y-26093358D01*
X-7576876Y-26093356D01*
X-7427655Y-26001315D01*
X-7303682Y-25877342D01*
X-7301835Y-25874348D01*
X-7300031Y-25872724D01*
X-7299202Y-25871677D01*
X-7299024Y-25871818D01*
X-7249890Y-25827621D01*
X-7180927Y-25816396D01*
X-7116844Y-25844236D01*
X-7090757Y-25874341D01*
X-7088712Y-25877656D01*
X-6964656Y-26001712D01*
X-6815334Y-26093814D01*
X-6648797Y-26148999D01*
X-6546009Y-26159500D01*
X-5770992Y-26159499D01*
X-5770984Y-26159498D01*
X-5770981Y-26159498D01*
X-5714698Y-26153748D01*
X-5668203Y-26148999D01*
X-5501666Y-26093814D01*
X-5352344Y-26001712D01*
X-5228288Y-25877656D01*
X-5136186Y-25728334D01*
X-5117484Y-25671894D01*
X-5077710Y-25614450D01*
X-5013194Y-25587628D01*
X-4999778Y-25586900D01*
X-4489381Y-25586900D01*
X-4422342Y-25606585D01*
X-4385572Y-25643079D01*
X-4268167Y-25822782D01*
X-4268164Y-25822785D01*
X-4099744Y-26005738D01*
X-3903509Y-26158474D01*
X-3684810Y-26276828D01*
X-3449614Y-26357571D01*
X-3204335Y-26398500D01*
X-2955665Y-26398500D01*
X-2710386Y-26357571D01*
X-2475190Y-26276828D01*
X-2256491Y-26158474D01*
X-2060256Y-26005738D01*
X-1891836Y-25822785D01*
X-1755827Y-25614607D01*
X-1655937Y-25386881D01*
X-1594892Y-25145821D01*
X-1592037Y-25111369D01*
X-1574357Y-24898005D01*
X-1574357Y-24897994D01*
X-1594891Y-24650187D01*
X-1594893Y-24650175D01*
X-1655937Y-24409118D01*
X-1755827Y-24181393D01*
X-1891834Y-23973217D01*
X-1913443Y-23949744D01*
X-2060256Y-23790262D01*
X-2256491Y-23637526D01*
X-2256493Y-23637525D01*
X-2256494Y-23637524D01*
X-2475189Y-23519172D01*
X-2475198Y-23519169D01*
X-2710384Y-23438429D01*
X-2955665Y-23397500D01*
X-3204335Y-23397500D01*
X-3449617Y-23438429D01*
X-3684803Y-23519169D01*
X-3684812Y-23519172D01*
X-3903507Y-23637524D01*
X-4099743Y-23790261D01*
X-4268167Y-23973217D01*
X-4404174Y-24181393D01*
X-4415366Y-24206910D01*
X-4460322Y-24260396D01*
X-4527058Y-24281086D01*
X-4528922Y-24281100D01*
X-4999778Y-24281100D01*
X-5066817Y-24261415D01*
X-5112572Y-24208611D01*
X-5117484Y-24196105D01*
X-5122359Y-24181393D01*
X-5136186Y-24139666D01*
X-5228288Y-23990344D01*
X-5352344Y-23866288D01*
X-5445112Y-23809069D01*
X-5501664Y-23774187D01*
X-5501669Y-23774185D01*
X-5503138Y-23773698D01*
X-5668203Y-23719001D01*
X-5668205Y-23719000D01*
X-5770990Y-23708500D01*
X-6546002Y-23708500D01*
X-6546020Y-23708501D01*
X-6648797Y-23719000D01*
X-6648800Y-23719001D01*
X-6815332Y-23774185D01*
X-6815337Y-23774187D01*
X-6964658Y-23866289D01*
X-7088712Y-23990343D01*
X-7088717Y-23990349D01*
X-7090759Y-23993661D01*
X-7092753Y-23995453D01*
X-7093193Y-23996011D01*
X-7093289Y-23995935D01*
X-7142709Y-24040383D01*
X-7211672Y-24051602D01*
X-7275753Y-24023755D01*
X-7301832Y-23993656D01*
X-7303681Y-23990659D01*
X-7303684Y-23990655D01*
X-7427655Y-23866684D01*
X-7576876Y-23774643D01*
X-7576881Y-23774641D01*
X-7743303Y-23719494D01*
X-7743310Y-23719493D01*
X-7846014Y-23709000D01*
X-7983500Y-23709000D01*
X-8483500Y-23709000D01*
X-8620973Y-23709000D01*
X-8620988Y-23709001D01*
X-8723698Y-23719494D01*
X-8890120Y-23774641D01*
X-8890125Y-23774643D01*
X-9039346Y-23866684D01*
X-9163316Y-23990654D01*
X-9255357Y-24139875D01*
X-9255359Y-24139880D01*
X-9310506Y-24306302D01*
X-9310507Y-24306309D01*
X-9321000Y-24409013D01*
X-19751100Y-24409013D01*
X-19751100Y-20489000D01*
X-13662341Y-20489000D01*
X-13643025Y-20685129D01*
X-13643024Y-20685132D01*
X-13614308Y-20779797D01*
X-13585812Y-20873733D01*
X-13492914Y-21047532D01*
X-13492910Y-21047539D01*
X-13367884Y-21199883D01*
X-13215540Y-21324909D01*
X-13215533Y-21324913D01*
X-13041734Y-21417811D01*
X-13041731Y-21417811D01*
X-13041727Y-21417814D01*
X-12853132Y-21475024D01*
X-12657000Y-21494341D01*
X-12460868Y-21475024D01*
X-12272273Y-21417814D01*
X-12098462Y-21324910D01*
X-12043671Y-21279944D01*
X-11946119Y-21199885D01*
X-11944500Y-21197913D01*
X-11935736Y-21187234D01*
X-11877990Y-21147900D01*
X-11839884Y-21141900D01*
X-11042154Y-21141900D01*
X-10975115Y-21161585D01*
X-10963497Y-21170040D01*
X-10929538Y-21197910D01*
X-10929534Y-21197912D01*
X-10929533Y-21197913D01*
X-10755734Y-21290811D01*
X-10755731Y-21290811D01*
X-10755727Y-21290814D01*
X-10567132Y-21348024D01*
X-10371000Y-21367341D01*
X-10174868Y-21348024D01*
X-9986273Y-21290814D01*
X-9965938Y-21279945D01*
X-9816157Y-21199885D01*
X-9812462Y-21197910D01*
X-9731779Y-21131695D01*
X-9660119Y-21072885D01*
X-9649736Y-21060234D01*
X-9591990Y-21020900D01*
X-9553884Y-21014900D01*
X-4528922Y-21014900D01*
X-4461883Y-21034585D01*
X-4416128Y-21087389D01*
X-4415366Y-21089090D01*
X-4404174Y-21114606D01*
X-4268167Y-21322782D01*
X-4268164Y-21322785D01*
X-4099744Y-21505738D01*
X-3903509Y-21658474D01*
X-3684810Y-21776828D01*
X-3449614Y-21857571D01*
X-3204335Y-21898500D01*
X-2955665Y-21898500D01*
X-2710386Y-21857571D01*
X-2475190Y-21776828D01*
X-2256491Y-21658474D01*
X-2060256Y-21505738D01*
X-1891836Y-21322785D01*
X-1755827Y-21114607D01*
X-1655937Y-20886881D01*
X-1594892Y-20645821D01*
X-1574357Y-20398000D01*
X-1575978Y-20378440D01*
X-1594891Y-20150187D01*
X-1594893Y-20150175D01*
X-1655937Y-19909118D01*
X-1755827Y-19681393D01*
X-1891834Y-19473217D01*
X-1924438Y-19437800D01*
X-2060256Y-19290262D01*
X-2256491Y-19137526D01*
X-2256493Y-19137525D01*
X-2256494Y-19137524D01*
X-2475189Y-19019172D01*
X-2475198Y-19019169D01*
X-2710384Y-18938429D01*
X-2955665Y-18897500D01*
X-3204335Y-18897500D01*
X-3449617Y-18938429D01*
X-3684803Y-19019169D01*
X-3684812Y-19019172D01*
X-3903507Y-19137524D01*
X-4099743Y-19290261D01*
X-4268167Y-19473217D01*
X-4385572Y-19652921D01*
X-4438719Y-19698278D01*
X-4489381Y-19709100D01*
X-9553884Y-19709100D01*
X-9620923Y-19689415D01*
X-9649736Y-19663766D01*
X-9660119Y-19651114D01*
X-9812463Y-19526089D01*
X-9812468Y-19526086D01*
X-9986267Y-19433188D01*
X-9986273Y-19433186D01*
X-10174868Y-19375976D01*
X-10174871Y-19375975D01*
X-10371000Y-19356659D01*
X-10567130Y-19375975D01*
X-10755734Y-19433188D01*
X-10929533Y-19526086D01*
X-10929537Y-19526089D01*
X-11081884Y-19651116D01*
X-11196490Y-19790765D01*
X-11254236Y-19830099D01*
X-11292343Y-19836100D01*
X-11839884Y-19836100D01*
X-11906923Y-19816415D01*
X-11935736Y-19790766D01*
X-11946119Y-19778114D01*
X-12098461Y-19653090D01*
X-12098468Y-19653086D01*
X-12272267Y-19560188D01*
X-12272273Y-19560186D01*
X-12460868Y-19502976D01*
X-12460871Y-19502975D01*
X-12657000Y-19483659D01*
X-12853130Y-19502975D01*
X-13041734Y-19560188D01*
X-13215533Y-19653086D01*
X-13215540Y-19653090D01*
X-13367884Y-19778116D01*
X-13492910Y-19930460D01*
X-13492914Y-19930467D01*
X-13585812Y-20104266D01*
X-13643025Y-20292870D01*
X-13662341Y-20489000D01*
X-19751100Y-20489000D01*
X-19751100Y-19413802D01*
X-19731415Y-19346763D01*
X-19714781Y-19326121D01*
X-18899879Y-18511219D01*
X-18838556Y-18477734D01*
X-18812198Y-18474900D01*
X-1035693Y-18474900D01*
X-950835Y-18458019D01*
X-909556Y-18449809D01*
X-790736Y-18400592D01*
X-683800Y-18329141D01*
X42141Y-17603199D01*
X113593Y-17496263D01*
X151063Y-17405801D01*
X162809Y-17377444D01*
X187900Y-17251305D01*
X187900Y-16738895D01*
X207585Y-16671856D01*
X260389Y-16626101D01*
X329547Y-16616157D01*
X375018Y-16632162D01*
X394602Y-16643744D01*
X436224Y-16655836D01*
X552426Y-16689597D01*
X552429Y-16689597D01*
X552431Y-16689598D01*
X589306Y-16692500D01*
X589314Y-16692500D01*
X1020686Y-16692500D01*
X1020694Y-16692500D01*
X1057569Y-16689598D01*
X1057571Y-16689597D01*
X1057573Y-16689597D01*
X1118637Y-16671856D01*
X1215398Y-16643744D01*
X1356865Y-16560081D01*
X1356870Y-16560075D01*
X1363031Y-16555298D01*
X1364933Y-16557750D01*
X1413579Y-16531155D01*
X1483274Y-16536104D01*
X1515695Y-16556940D01*
X1516969Y-16555298D01*
X1523132Y-16560078D01*
X1523135Y-16560081D01*
X1664602Y-16643744D01*
X1706224Y-16655836D01*
X1822426Y-16689597D01*
X1822429Y-16689597D01*
X1822431Y-16689598D01*
X1859306Y-16692500D01*
X1859314Y-16692500D01*
X2290686Y-16692500D01*
X2290694Y-16692500D01*
X2327569Y-16689598D01*
X2327571Y-16689597D01*
X2327573Y-16689597D01*
X2388637Y-16671856D01*
X2485398Y-16643744D01*
X2626865Y-16560081D01*
X2626870Y-16560075D01*
X2633031Y-16555298D01*
X2634933Y-16557750D01*
X2683579Y-16531155D01*
X2753274Y-16536104D01*
G37*
%TD.AperFunction*%
%TA.AperFunction,Conductor*%
G36*
X-28887477Y6041815D02*
G01*
X-28841722Y5989011D01*
X-28831778Y5919853D01*
X-28860803Y5856297D01*
X-28875851Y5841647D01*
X-28988884Y5748884D01*
X-29113910Y5596540D01*
X-29113914Y5596533D01*
X-29206812Y5422734D01*
X-29264025Y5234130D01*
X-29283341Y5038000D01*
X-29264025Y4841871D01*
X-29264024Y4841868D01*
X-29223451Y4708116D01*
X-29206812Y4653267D01*
X-29113914Y4479468D01*
X-29113910Y4479461D01*
X-28988884Y4327117D01*
X-28836540Y4202091D01*
X-28836533Y4202087D01*
X-28662734Y4109189D01*
X-28662731Y4109189D01*
X-28662727Y4109186D01*
X-28474132Y4051976D01*
X-28278000Y4032659D01*
X-28081868Y4051976D01*
X-27893273Y4109186D01*
X-27719462Y4202090D01*
X-27648179Y4260591D01*
X-27567119Y4327115D01*
X-27565500Y4329087D01*
X-27556736Y4339766D01*
X-27498990Y4379100D01*
X-27460884Y4385100D01*
X-19709804Y4385100D01*
X-19642765Y4365415D01*
X-19622123Y4348781D01*
X-19595256Y4321914D01*
X-19561771Y4260591D01*
X-19566755Y4190899D01*
X-19576204Y4171113D01*
X-19631746Y4077195D01*
X-19631746Y4077194D01*
X-19677598Y3919374D01*
X-19677599Y3919368D01*
X-19680500Y3882502D01*
X-19680500Y2101099D01*
X-19677599Y2064233D01*
X-19677598Y2064227D01*
X-19631746Y1906407D01*
X-19631745Y1906404D01*
X-19548083Y1764938D01*
X-19548077Y1764930D01*
X-19431871Y1648724D01*
X-19431867Y1648721D01*
X-19431865Y1648719D01*
X-19290398Y1565056D01*
X-19267698Y1558461D01*
X-19132574Y1519203D01*
X-19132571Y1519203D01*
X-19132569Y1519202D01*
X-19095694Y1516300D01*
X-19095686Y1516300D01*
X-18664314Y1516300D01*
X-18664306Y1516300D01*
X-18627431Y1519202D01*
X-18627429Y1519203D01*
X-18627427Y1519203D01*
X-18536721Y1545556D01*
X-18469602Y1565056D01*
X-18328135Y1648719D01*
X-18328130Y1648725D01*
X-18321969Y1653502D01*
X-18320067Y1651050D01*
X-18271421Y1677645D01*
X-18201726Y1672696D01*
X-18169305Y1651860D01*
X-18168031Y1653502D01*
X-18161868Y1648722D01*
X-18161865Y1648719D01*
X-18020398Y1565056D01*
X-17997698Y1558461D01*
X-17862574Y1519203D01*
X-17862571Y1519203D01*
X-17862569Y1519202D01*
X-17825694Y1516300D01*
X-17825686Y1516300D01*
X-17394314Y1516300D01*
X-17394306Y1516300D01*
X-17357431Y1519202D01*
X-17357429Y1519203D01*
X-17357427Y1519203D01*
X-17266721Y1545556D01*
X-17199602Y1565056D01*
X-17058135Y1648719D01*
X-17058130Y1648725D01*
X-17051969Y1653502D01*
X-17050067Y1651050D01*
X-17001421Y1677645D01*
X-16931726Y1672696D01*
X-16899305Y1651860D01*
X-16898031Y1653502D01*
X-16891868Y1648722D01*
X-16891865Y1648719D01*
X-16750398Y1565056D01*
X-16727698Y1558461D01*
X-16592574Y1519203D01*
X-16592571Y1519203D01*
X-16592569Y1519202D01*
X-16555694Y1516300D01*
X-16555686Y1516300D01*
X-16124314Y1516300D01*
X-16124306Y1516300D01*
X-16087431Y1519202D01*
X-16087429Y1519203D01*
X-16087427Y1519203D01*
X-15996721Y1545556D01*
X-15929602Y1565056D01*
X-15788135Y1648719D01*
X-15788130Y1648725D01*
X-15781969Y1653502D01*
X-15780067Y1651050D01*
X-15731421Y1677645D01*
X-15661726Y1672696D01*
X-15629305Y1651860D01*
X-15628031Y1653502D01*
X-15621868Y1648722D01*
X-15621865Y1648719D01*
X-15480398Y1565056D01*
X-15457698Y1558461D01*
X-15322574Y1519203D01*
X-15322571Y1519203D01*
X-15322569Y1519202D01*
X-15285694Y1516300D01*
X-15285686Y1516300D01*
X-15041628Y1516300D01*
X-14974589Y1496615D01*
X-14928834Y1443811D01*
X-14918890Y1374653D01*
X-14947915Y1311097D01*
X-14972738Y1289198D01*
X-15027598Y1252543D01*
X-15027605Y1252537D01*
X-16847139Y-566997D01*
X-16847146Y-567006D01*
X-16855398Y-579356D01*
X-16886725Y-609009D01*
X-16885697Y-610334D01*
X-16898024Y-619897D01*
X-16899914Y-617461D01*
X-16948704Y-644071D01*
X-17018393Y-639050D01*
X-17050706Y-618272D01*
X-17051969Y-619902D01*
X-17058138Y-615117D01*
X-17173405Y-546949D01*
X-17199602Y-531456D01*
X-17199603Y-531455D01*
X-17199604Y-531455D01*
X-17199607Y-531454D01*
X-17357427Y-485602D01*
X-17357433Y-485601D01*
X-17394299Y-482700D01*
X-17394306Y-482700D01*
X-17825694Y-482700D01*
X-17825702Y-482700D01*
X-17862568Y-485601D01*
X-17862574Y-485602D01*
X-18020394Y-531454D01*
X-18020397Y-531455D01*
X-18161860Y-615115D01*
X-18168026Y-619899D01*
X-18169826Y-617579D01*
X-18219087Y-644430D01*
X-18288775Y-639393D01*
X-18321008Y-618661D01*
X-18322278Y-620300D01*
X-18328448Y-615514D01*
X-18469804Y-531917D01*
X-18469807Y-531916D01*
X-18627506Y-486100D01*
X-18627503Y-486100D01*
X-18630000Y-485903D01*
X-18630000Y-3430495D01*
X-18629999Y-3430495D01*
X-18627514Y-3430300D01*
X-18469802Y-3384481D01*
X-18328450Y-3300886D01*
X-18322283Y-3296103D01*
X-18320370Y-3298569D01*
X-18271778Y-3272002D01*
X-18202083Y-3276949D01*
X-18169238Y-3298053D01*
X-18168031Y-3296498D01*
X-18161868Y-3301278D01*
X-18161865Y-3301281D01*
X-18020398Y-3384944D01*
X-17998242Y-3391381D01*
X-17862574Y-3430797D01*
X-17862571Y-3430797D01*
X-17862569Y-3430798D01*
X-17825694Y-3433700D01*
X-17825686Y-3433700D01*
X-17394314Y-3433700D01*
X-17394306Y-3433700D01*
X-17357431Y-3430798D01*
X-17357429Y-3430797D01*
X-17357427Y-3430797D01*
X-17285246Y-3409826D01*
X-17199602Y-3384944D01*
X-17058135Y-3301281D01*
X-17058130Y-3301275D01*
X-17051969Y-3296498D01*
X-17050067Y-3298950D01*
X-17001421Y-3272355D01*
X-16931726Y-3277304D01*
X-16899305Y-3298140D01*
X-16898031Y-3296498D01*
X-16891868Y-3301278D01*
X-16891865Y-3301281D01*
X-16750398Y-3384944D01*
X-16728242Y-3391381D01*
X-16592574Y-3430797D01*
X-16592571Y-3430797D01*
X-16592569Y-3430798D01*
X-16555694Y-3433700D01*
X-16555686Y-3433700D01*
X-16124314Y-3433700D01*
X-16124306Y-3433700D01*
X-16087431Y-3430798D01*
X-16087429Y-3430797D01*
X-16087427Y-3430797D01*
X-16015246Y-3409826D01*
X-15929602Y-3384944D01*
X-15910020Y-3373363D01*
X-15842299Y-3356180D01*
X-15776036Y-3378339D01*
X-15732272Y-3432804D01*
X-15722900Y-3480095D01*
X-15722900Y-10896197D01*
X-15742585Y-10963236D01*
X-15759219Y-10983878D01*
X-16595622Y-11820281D01*
X-16656945Y-11853766D01*
X-16683303Y-11856600D01*
X-25268552Y-11856600D01*
X-25335591Y-11836915D01*
X-25374091Y-11797697D01*
X-25375098Y-11796065D01*
X-25432288Y-11703344D01*
X-25556344Y-11579288D01*
X-25559658Y-11577243D01*
X-25561454Y-11575248D01*
X-25562011Y-11574807D01*
X-25561936Y-11574711D01*
X-25606382Y-11525297D01*
X-25617603Y-11456334D01*
X-25589760Y-11392252D01*
X-25559652Y-11366165D01*
X-25556658Y-11364318D01*
X-25432685Y-11240345D01*
X-25340644Y-11091124D01*
X-25340642Y-11091119D01*
X-25285495Y-10924697D01*
X-25285494Y-10924690D01*
X-25275001Y-10821986D01*
X-25275000Y-10821973D01*
X-25275000Y-10684500D01*
X-27724999Y-10684500D01*
X-27724999Y-10821986D01*
X-27714506Y-10924697D01*
X-27659359Y-11091119D01*
X-27659357Y-11091124D01*
X-27567316Y-11240345D01*
X-27443345Y-11364316D01*
X-27443341Y-11364319D01*
X-27440344Y-11366168D01*
X-27438721Y-11367972D01*
X-27437677Y-11368798D01*
X-27437819Y-11368976D01*
X-27393619Y-11418116D01*
X-27382398Y-11487079D01*
X-27410241Y-11551161D01*
X-27440339Y-11577241D01*
X-27443651Y-11579283D01*
X-27443657Y-11579288D01*
X-27567711Y-11703342D01*
X-27659813Y-11852663D01*
X-27659815Y-11852668D01*
X-27686945Y-11934543D01*
X-27714999Y-12019203D01*
X-27714999Y-12019204D01*
X-27715000Y-12019204D01*
X-27725500Y-12121983D01*
X-27725500Y-12897001D01*
X-27725499Y-12897019D01*
X-27715000Y-12999796D01*
X-27714999Y-12999799D01*
X-27659815Y-13166331D01*
X-27659813Y-13166336D01*
X-27650099Y-13182085D01*
X-27567712Y-13315656D01*
X-27443656Y-13439712D01*
X-27294334Y-13531814D01*
X-27237895Y-13550515D01*
X-27180451Y-13590287D01*
X-27153628Y-13654803D01*
X-27152900Y-13668221D01*
X-27152900Y-13925500D01*
X-27172585Y-13992539D01*
X-27225389Y-14038294D01*
X-27276900Y-14049500D01*
X-27547870Y-14049500D01*
X-27547877Y-14049501D01*
X-27607484Y-14055908D01*
X-27742329Y-14106202D01*
X-27742336Y-14106206D01*
X-27857545Y-14192452D01*
X-27945162Y-14309493D01*
X-28001096Y-14351363D01*
X-28070787Y-14356347D01*
X-28120590Y-14333035D01*
X-28176490Y-14289526D01*
X-28176498Y-14289521D01*
X-28282118Y-14232362D01*
X-28331708Y-14183143D01*
X-28347100Y-14123308D01*
X-28347100Y-10047013D01*
X-27725000Y-10047013D01*
X-27725000Y-10184500D01*
X-26750000Y-10184500D01*
X-26250000Y-10184500D01*
X-25275001Y-10184500D01*
X-25275001Y-10047028D01*
X-25275002Y-10047013D01*
X-25285495Y-9944302D01*
X-25340642Y-9777880D01*
X-25340644Y-9777875D01*
X-25432685Y-9628654D01*
X-25556655Y-9504684D01*
X-25705876Y-9412643D01*
X-25705881Y-9412641D01*
X-25872303Y-9357494D01*
X-25872310Y-9357493D01*
X-25975014Y-9347000D01*
X-26250000Y-9347000D01*
X-26250000Y-10184500D01*
X-26750000Y-10184500D01*
X-26750000Y-9347000D01*
X-27024971Y-9347000D01*
X-27024988Y-9347001D01*
X-27127698Y-9357494D01*
X-27294120Y-9412641D01*
X-27294125Y-9412643D01*
X-27443346Y-9504684D01*
X-27567316Y-9628654D01*
X-27659357Y-9777875D01*
X-27659359Y-9777880D01*
X-27714506Y-9944302D01*
X-27714507Y-9944309D01*
X-27725000Y-10047013D01*
X-28347100Y-10047013D01*
X-28347100Y-9848802D01*
X-28327415Y-9781763D01*
X-28310781Y-9761121D01*
X-27408879Y-8859219D01*
X-27347556Y-8825734D01*
X-27321198Y-8822900D01*
X-20309343Y-8822900D01*
X-20242304Y-8842585D01*
X-20213490Y-8868235D01*
X-20098884Y-9007883D01*
X-19946540Y-9132909D01*
X-19946533Y-9132913D01*
X-19772734Y-9225811D01*
X-19772731Y-9225811D01*
X-19772727Y-9225814D01*
X-19584132Y-9283024D01*
X-19388000Y-9302341D01*
X-19191868Y-9283024D01*
X-19003273Y-9225814D01*
X-18829462Y-9132910D01*
X-18677117Y-9007883D01*
X-18552090Y-8855538D01*
X-18459186Y-8681727D01*
X-18401976Y-8493132D01*
X-18382659Y-8297000D01*
X-18401976Y-8100868D01*
X-18459186Y-7912273D01*
X-18459189Y-7912269D01*
X-18459189Y-7912266D01*
X-18552087Y-7738467D01*
X-18552091Y-7738460D01*
X-18677115Y-7586118D01*
X-18689766Y-7575736D01*
X-18729100Y-7517990D01*
X-18735100Y-7479884D01*
X-18735100Y-4295692D01*
X-18760190Y-4169561D01*
X-18760191Y-4169560D01*
X-18760191Y-4169556D01*
X-18809408Y-4050736D01*
X-18809409Y-4050734D01*
X-18828722Y-4021829D01*
X-18828722Y-4021828D01*
X-18880858Y-3943801D01*
X-18880864Y-3943794D01*
X-19179060Y-3645598D01*
X-19212545Y-3584275D01*
X-19207561Y-3514583D01*
X-19165689Y-3458650D01*
X-19156920Y-3455378D01*
X-19130000Y-3430495D01*
X-19130000Y-2208200D01*
X-19680000Y-2208200D01*
X-19680000Y-2389649D01*
X-19699685Y-2456688D01*
X-19752489Y-2502443D01*
X-19821647Y-2512387D01*
X-19862453Y-2499007D01*
X-20019267Y-2415188D01*
X-20019273Y-2415186D01*
X-20207868Y-2357976D01*
X-20207871Y-2357975D01*
X-20404000Y-2338659D01*
X-20600130Y-2357975D01*
X-20788734Y-2415188D01*
X-20962533Y-2508086D01*
X-20962540Y-2508090D01*
X-21114884Y-2633116D01*
X-21239910Y-2785460D01*
X-21239914Y-2785467D01*
X-21332812Y-2959266D01*
X-21390025Y-3147870D01*
X-21409341Y-3344000D01*
X-21390025Y-3540129D01*
X-21390024Y-3540132D01*
X-21335928Y-3718463D01*
X-21332812Y-3728733D01*
X-21239914Y-3902532D01*
X-21239910Y-3902539D01*
X-21114884Y-4054883D01*
X-20962540Y-4179909D01*
X-20962533Y-4179913D01*
X-20788734Y-4272811D01*
X-20788731Y-4272811D01*
X-20788727Y-4272814D01*
X-20600132Y-4330024D01*
X-20404000Y-4349341D01*
X-20387719Y-4347737D01*
X-20319073Y-4360755D01*
X-20287882Y-4383459D01*
X-20077219Y-4594122D01*
X-20043734Y-4655445D01*
X-20040900Y-4681803D01*
X-20040900Y-7393100D01*
X-20060585Y-7460139D01*
X-20113389Y-7505894D01*
X-20164900Y-7517100D01*
X-27707307Y-7517100D01*
X-27833439Y-7542189D01*
X-27833445Y-7542191D01*
X-27952264Y-7591407D01*
X-28059202Y-7662860D01*
X-29507141Y-9110799D01*
X-29521914Y-9132910D01*
X-29554448Y-9181602D01*
X-29554449Y-9181603D01*
X-29578588Y-9217727D01*
X-29578594Y-9217738D01*
X-29627809Y-9336555D01*
X-29627811Y-9336561D01*
X-29652900Y-9462692D01*
X-29652900Y-14123308D01*
X-29672585Y-14190347D01*
X-29717882Y-14232362D01*
X-29823499Y-14289519D01*
X-29823506Y-14289523D01*
X-30019745Y-14442262D01*
X-30019748Y-14442265D01*
X-30158771Y-14593284D01*
X-30218658Y-14629275D01*
X-30288496Y-14627174D01*
X-30341229Y-14593284D01*
X-30480253Y-14442265D01*
X-30480256Y-14442262D01*
X-30555146Y-14383973D01*
X-30676491Y-14289526D01*
X-30676492Y-14289525D01*
X-30676495Y-14289523D01*
X-30676502Y-14289519D01*
X-30782118Y-14232362D01*
X-30831708Y-14183143D01*
X-30847100Y-14123308D01*
X-30847100Y-12413364D01*
X-30827415Y-12346325D01*
X-30788197Y-12307825D01*
X-30752344Y-12285712D01*
X-30628288Y-12161656D01*
X-30536186Y-12012334D01*
X-30481001Y-11845797D01*
X-30470500Y-11743009D01*
X-30470501Y-10692992D01*
X-30481001Y-10590203D01*
X-30536186Y-10423666D01*
X-30628288Y-10274344D01*
X-30752344Y-10150288D01*
X-30846698Y-10092090D01*
X-30893421Y-10040143D01*
X-30905600Y-9986552D01*
X-30905600Y-1067550D01*
X-19680000Y-1067550D01*
X-19680000Y-1708200D01*
X-19130000Y-1708200D01*
X-19130000Y-485903D01*
X-19132497Y-486100D01*
X-19290194Y-531916D01*
X-19290197Y-531917D01*
X-19431553Y-615514D01*
X-19431562Y-615521D01*
X-19547679Y-731638D01*
X-19547686Y-731647D01*
X-19631283Y-873003D01*
X-19631284Y-873006D01*
X-19677100Y-1030704D01*
X-19677101Y-1030710D01*
X-19680000Y-1067550D01*
X-30905600Y-1067550D01*
X-30905600Y4483698D01*
X-30885915Y4550737D01*
X-30869281Y4571379D01*
X-29415479Y6025181D01*
X-29354156Y6058666D01*
X-29327798Y6061500D01*
X-28954516Y6061500D01*
X-28887477Y6041815D01*
G37*
%TD.AperFunction*%
%TA.AperFunction,Conductor*%
G36*
X7276836Y-8944185D02*
G01*
X7322591Y-8996989D01*
X7332535Y-9066147D01*
X7303510Y-9129703D01*
X7297478Y-9136181D01*
X6774863Y-9658794D01*
X6774862Y-9658795D01*
X6727821Y-9729199D01*
X6703407Y-9765737D01*
X6654191Y-9884555D01*
X6654189Y-9884561D01*
X6629100Y-10010692D01*
X6629100Y-13152396D01*
X6609415Y-13219435D01*
X6556611Y-13265190D01*
X6487453Y-13275134D01*
X6423897Y-13246109D01*
X6417419Y-13240077D01*
X5666204Y-12488862D01*
X5666200Y-12488859D01*
X5559264Y-12417408D01*
X5508068Y-12396202D01*
X5440444Y-12368191D01*
X5440438Y-12368189D01*
X5314307Y-12343100D01*
X5314305Y-12343100D01*
X1283603Y-12343100D01*
X1216564Y-12323415D01*
X1170809Y-12270611D01*
X1160865Y-12201453D01*
X1189890Y-12137897D01*
X1195922Y-12131419D01*
X1312138Y-12015202D01*
X1312139Y-12015201D01*
X1312141Y-12015199D01*
X1383593Y-11908263D01*
X1399741Y-11869276D01*
X1421063Y-11817802D01*
X1421063Y-11817801D01*
X1430066Y-11796065D01*
X1432809Y-11789444D01*
X1440104Y-11752771D01*
X1472488Y-11690860D01*
X1533204Y-11656286D01*
X1602973Y-11660025D01*
X1624841Y-11670229D01*
X1664602Y-11693744D01*
X1697638Y-11703342D01*
X1822426Y-11739597D01*
X1822429Y-11739597D01*
X1822431Y-11739598D01*
X1859306Y-11742500D01*
X1859314Y-11742500D01*
X2290686Y-11742500D01*
X2290694Y-11742500D01*
X2327569Y-11739598D01*
X2327571Y-11739597D01*
X2327573Y-11739597D01*
X2377003Y-11725236D01*
X2485398Y-11693744D01*
X2626865Y-11610081D01*
X2626870Y-11610075D01*
X2633031Y-11605298D01*
X2634933Y-11607750D01*
X2683579Y-11581155D01*
X2753274Y-11586104D01*
X2785695Y-11606940D01*
X2786969Y-11605298D01*
X2793132Y-11610078D01*
X2793135Y-11610081D01*
X2934602Y-11693744D01*
X2967638Y-11703342D01*
X3092426Y-11739597D01*
X3092429Y-11739597D01*
X3092431Y-11739598D01*
X3129306Y-11742500D01*
X3129314Y-11742500D01*
X3560686Y-11742500D01*
X3560694Y-11742500D01*
X3597569Y-11739598D01*
X3597571Y-11739597D01*
X3597573Y-11739597D01*
X3647003Y-11725236D01*
X3755398Y-11693744D01*
X3896865Y-11610081D01*
X3896868Y-11610077D01*
X3903026Y-11605301D01*
X3904839Y-11607638D01*
X3953949Y-11580798D01*
X4023643Y-11585756D01*
X4055996Y-11606551D01*
X4057278Y-11604900D01*
X4063447Y-11609685D01*
X4204801Y-11693281D01*
X4362514Y-11739100D01*
X4362511Y-11739100D01*
X4364998Y-11739295D01*
X4365000Y-11739295D01*
X4865000Y-11739295D01*
X4865001Y-11739295D01*
X4867486Y-11739100D01*
X5025198Y-11693281D01*
X5166552Y-11609685D01*
X5166561Y-11609678D01*
X5282678Y-11493561D01*
X5282685Y-11493552D01*
X5366282Y-11352196D01*
X5366283Y-11352193D01*
X5412099Y-11194495D01*
X5412100Y-11194489D01*
X5414999Y-11157649D01*
X5415000Y-11157634D01*
X5415000Y-10517000D01*
X4865000Y-10517000D01*
X4865000Y-11739295D01*
X4365000Y-11739295D01*
X4365000Y-10391000D01*
X4384685Y-10323961D01*
X4437489Y-10278206D01*
X4489000Y-10267000D01*
X4615000Y-10267000D01*
X4615000Y-10141000D01*
X4634685Y-10073961D01*
X4687489Y-10028206D01*
X4739000Y-10017000D01*
X5415000Y-10017000D01*
X5415000Y-9376365D01*
X5414999Y-9376350D01*
X5412100Y-9339510D01*
X5412099Y-9339504D01*
X5366283Y-9181806D01*
X5366282Y-9181803D01*
X5324777Y-9111621D01*
X5307594Y-9043897D01*
X5329754Y-8977634D01*
X5384220Y-8933871D01*
X5431509Y-8924500D01*
X7209797Y-8924500D01*
X7276836Y-8944185D01*
G37*
%TD.AperFunction*%
%TA.AperFunction,Conductor*%
G36*
X-11851726Y-3277304D02*
G01*
X-11819305Y-3298140D01*
X-11818031Y-3296498D01*
X-11811868Y-3301278D01*
X-11811865Y-3301281D01*
X-11670398Y-3384944D01*
X-11648242Y-3391381D01*
X-11512574Y-3430797D01*
X-11512571Y-3430797D01*
X-11512569Y-3430798D01*
X-11475694Y-3433700D01*
X-11475686Y-3433700D01*
X-11044314Y-3433700D01*
X-11044306Y-3433700D01*
X-11007431Y-3430798D01*
X-11007429Y-3430797D01*
X-11007427Y-3430797D01*
X-10935246Y-3409826D01*
X-10849602Y-3384944D01*
X-10830020Y-3373363D01*
X-10762299Y-3356180D01*
X-10696036Y-3378339D01*
X-10652272Y-3432804D01*
X-10642900Y-3480095D01*
X-10642900Y-5186305D01*
X-10642900Y-5186307D01*
X-10642901Y-5186307D01*
X-10621764Y-5292561D01*
X-10621763Y-5292565D01*
X-10617809Y-5312444D01*
X-10568592Y-5431264D01*
X-10520660Y-5503000D01*
X-10497138Y-5538204D01*
X-10497137Y-5538205D01*
X-9136206Y-6899135D01*
X-9136203Y-6899138D01*
X-9077973Y-6938046D01*
X-9029271Y-6970588D01*
X-9029265Y-6970591D01*
X-9029264Y-6970592D01*
X-8910444Y-7019809D01*
X-8910440Y-7019809D01*
X-8910439Y-7019810D01*
X-8784308Y-7044900D01*
X-8784305Y-7044900D01*
X-5044822Y-7044900D01*
X-4977783Y-7064585D01*
X-4932028Y-7117389D01*
X-4922084Y-7186547D01*
X-4923205Y-7193093D01*
X-4927900Y-7216694D01*
X-4927900Y-8980542D01*
X-4945168Y-9043663D01*
X-5026743Y-9181600D01*
X-5026746Y-9181606D01*
X-5072598Y-9339426D01*
X-5072599Y-9339432D01*
X-5075500Y-9376298D01*
X-5075500Y-11157701D01*
X-5072599Y-11194567D01*
X-5072598Y-11194573D01*
X-5026746Y-11352393D01*
X-5026745Y-11352396D01*
X-5026744Y-11352398D01*
X-5002153Y-11393979D01*
X-4984970Y-11461703D01*
X-5007130Y-11527966D01*
X-5061596Y-11571729D01*
X-5108885Y-11581100D01*
X-7191462Y-11581100D01*
X-7258501Y-11561415D01*
X-7304256Y-11508611D01*
X-7314200Y-11439453D01*
X-7285175Y-11375897D01*
X-7249915Y-11347742D01*
X-7145468Y-11291913D01*
X-7145462Y-11291910D01*
X-6993117Y-11166883D01*
X-6868090Y-11014538D01*
X-6775186Y-10840727D01*
X-6717976Y-10652132D01*
X-6698659Y-10456000D01*
X-6717976Y-10259868D01*
X-6775186Y-10071273D01*
X-6775189Y-10071269D01*
X-6775189Y-10071266D01*
X-6868087Y-9897467D01*
X-6868091Y-9897460D01*
X-6993117Y-9745116D01*
X-7145461Y-9620090D01*
X-7145468Y-9620086D01*
X-7319267Y-9527188D01*
X-7319273Y-9527186D01*
X-7445003Y-9489046D01*
X-7507871Y-9469975D01*
X-7704000Y-9450659D01*
X-7900130Y-9469975D01*
X-8088734Y-9527188D01*
X-8262533Y-9620086D01*
X-8262540Y-9620090D01*
X-8414882Y-9745114D01*
X-8425264Y-9757766D01*
X-8483010Y-9797100D01*
X-8521116Y-9803100D01*
X-12462197Y-9803100D01*
X-12529236Y-9783415D01*
X-12549878Y-9766781D01*
X-13110781Y-9205878D01*
X-13144266Y-9144555D01*
X-13147100Y-9118197D01*
X-13147100Y-3480095D01*
X-13127415Y-3413056D01*
X-13074611Y-3367301D01*
X-13005453Y-3357357D01*
X-12959982Y-3373362D01*
X-12940398Y-3384944D01*
X-12918242Y-3391381D01*
X-12782574Y-3430797D01*
X-12782571Y-3430797D01*
X-12782569Y-3430798D01*
X-12745694Y-3433700D01*
X-12745686Y-3433700D01*
X-12314314Y-3433700D01*
X-12314306Y-3433700D01*
X-12277431Y-3430798D01*
X-12277429Y-3430797D01*
X-12277427Y-3430797D01*
X-12205246Y-3409826D01*
X-12119602Y-3384944D01*
X-11978135Y-3301281D01*
X-11978130Y-3301275D01*
X-11971969Y-3296498D01*
X-11970067Y-3298950D01*
X-11921421Y-3272355D01*
X-11851726Y-3277304D01*
G37*
%TD.AperFunction*%
%TA.AperFunction,Conductor*%
G36*
X28771440Y22399415D02*
G01*
X28817195Y22346611D01*
X28827139Y22277453D01*
X28798114Y22213897D01*
X28795631Y22211117D01*
X28674347Y22079369D01*
X28538340Y21871193D01*
X28438450Y21643468D01*
X28377406Y21402411D01*
X28377404Y21402399D01*
X28356871Y21154592D01*
X28356871Y21154581D01*
X28377404Y20906774D01*
X28377406Y20906762D01*
X28438450Y20665705D01*
X28538340Y20437980D01*
X28674347Y20229804D01*
X28674350Y20229801D01*
X28842770Y20046848D01*
X29039005Y19894112D01*
X29047479Y19889526D01*
X29234587Y19788268D01*
X29257704Y19775758D01*
X29492900Y19695015D01*
X29738179Y19654086D01*
X29986849Y19654086D01*
X30232128Y19695015D01*
X30467324Y19775758D01*
X30686023Y19894112D01*
X30882258Y20046848D01*
X31050678Y20229801D01*
X31143291Y20371556D01*
X31189492Y20442272D01*
X31190728Y20441465D01*
X31235198Y20486284D01*
X31295051Y20501686D01*
X34929977Y20501686D01*
X34997016Y20482001D01*
X35034492Y20441591D01*
X35035536Y20442272D01*
X35174347Y20229804D01*
X35174350Y20229801D01*
X35342770Y20046848D01*
X35539005Y19894112D01*
X35757704Y19775758D01*
X35776862Y19769181D01*
X35833877Y19728797D01*
X35860008Y19663998D01*
X35860600Y19651900D01*
X35860600Y17699448D01*
X35840915Y17632409D01*
X35801697Y17593909D01*
X35707342Y17535711D01*
X35583288Y17411657D01*
X35583283Y17411651D01*
X35581241Y17408339D01*
X35579247Y17406547D01*
X35578807Y17405989D01*
X35578711Y17406065D01*
X35529291Y17361617D01*
X35460328Y17350398D01*
X35396247Y17378245D01*
X35370168Y17408344D01*
X35368319Y17411341D01*
X35368316Y17411345D01*
X35244345Y17535316D01*
X35095124Y17627357D01*
X35095119Y17627359D01*
X34928697Y17682506D01*
X34928690Y17682507D01*
X34825986Y17693000D01*
X34688500Y17693000D01*
X34688500Y15243001D01*
X34825972Y15243001D01*
X34825986Y15243002D01*
X34928697Y15253495D01*
X35095119Y15308642D01*
X35095124Y15308644D01*
X35244345Y15400685D01*
X35368318Y15524658D01*
X35370165Y15527652D01*
X35371969Y15529276D01*
X35372798Y15530323D01*
X35372976Y15530182D01*
X35422110Y15574379D01*
X35491073Y15585604D01*
X35555156Y15557764D01*
X35581243Y15527659D01*
X35583288Y15524344D01*
X35707344Y15400288D01*
X35801696Y15342092D01*
X35848421Y15290145D01*
X35860600Y15236553D01*
X35860600Y-4270697D01*
X35840915Y-4337736D01*
X35824281Y-4358378D01*
X34124278Y-6058381D01*
X34062955Y-6091866D01*
X34036597Y-6094700D01*
X20288058Y-6094700D01*
X20221019Y-6075015D01*
X20175264Y-6022211D01*
X20165320Y-5953053D01*
X20194345Y-5889497D01*
X20229605Y-5861342D01*
X20286532Y-5830913D01*
X20286538Y-5830910D01*
X20438883Y-5705883D01*
X20563910Y-5553538D01*
X20656814Y-5379727D01*
X20714024Y-5191132D01*
X20733341Y-4995000D01*
X20714024Y-4798868D01*
X20656814Y-4610273D01*
X20656811Y-4610269D01*
X20656811Y-4610266D01*
X20563913Y-4436467D01*
X20563909Y-4436460D01*
X20438885Y-4284118D01*
X20426234Y-4273736D01*
X20386900Y-4215990D01*
X20380900Y-4177884D01*
X20380900Y4086308D01*
X20355810Y4212439D01*
X20355809Y4212440D01*
X20355809Y4212444D01*
X20306592Y4331264D01*
X20300345Y4340613D01*
X20287769Y4359436D01*
X20287769Y4359437D01*
X20235144Y4438195D01*
X20235138Y4438203D01*
X19356805Y5316537D01*
X19356804Y5316538D01*
X19356800Y5316541D01*
X19249864Y5387992D01*
X19242365Y5391098D01*
X19131044Y5437209D01*
X19131038Y5437211D01*
X19004907Y5462300D01*
X19004905Y5462300D01*
X18028457Y5462300D01*
X17965336Y5479568D01*
X17827398Y5561144D01*
X17827397Y5561145D01*
X17827396Y5561145D01*
X17827393Y5561146D01*
X17669573Y5606998D01*
X17669567Y5606999D01*
X17632701Y5609900D01*
X17632694Y5609900D01*
X15851306Y5609900D01*
X15851298Y5609900D01*
X15814432Y5606999D01*
X15814426Y5606998D01*
X15656606Y5561146D01*
X15656603Y5561145D01*
X15515137Y5477483D01*
X15515129Y5477477D01*
X15398923Y5361271D01*
X15398919Y5361265D01*
X15379232Y5327976D01*
X15328162Y5280293D01*
X15259420Y5267790D01*
X15194831Y5294436D01*
X15154901Y5351772D01*
X15148500Y5391098D01*
X15148500Y15943014D01*
X33351001Y15943014D01*
X33361494Y15840303D01*
X33416641Y15673881D01*
X33416643Y15673876D01*
X33508684Y15524655D01*
X33632654Y15400685D01*
X33781875Y15308644D01*
X33781880Y15308642D01*
X33948302Y15253495D01*
X33948309Y15253494D01*
X34051019Y15243001D01*
X34188499Y15243001D01*
X34188500Y15243002D01*
X34188500Y16218000D01*
X33351001Y16218000D01*
X33351001Y15943014D01*
X15148500Y15943014D01*
X15148500Y16992987D01*
X33351000Y16992987D01*
X33351000Y16718000D01*
X34188500Y16718000D01*
X34188500Y17693000D01*
X34051027Y17693000D01*
X34051012Y17692999D01*
X33948302Y17682506D01*
X33781880Y17627359D01*
X33781875Y17627357D01*
X33632654Y17535316D01*
X33508684Y17411346D01*
X33416643Y17262125D01*
X33416641Y17262120D01*
X33361494Y17095698D01*
X33361493Y17095691D01*
X33351000Y16992987D01*
X15148500Y16992987D01*
X15148500Y20819798D01*
X15168185Y20886837D01*
X15184819Y20907479D01*
X16660121Y22382781D01*
X16721444Y22416266D01*
X16747802Y22419100D01*
X28704401Y22419100D01*
X28771440Y22399415D01*
G37*
%TD.AperFunction*%
%TA.AperFunction,Conductor*%
G36*
X-4910764Y5381415D02*
G01*
X-4890122Y5364781D01*
X-4183202Y4657861D01*
X-4183199Y4657859D01*
X-4119139Y4615056D01*
X-4076264Y4586408D01*
X-3957444Y4537191D01*
X-3957440Y4537191D01*
X-3957439Y4537190D01*
X-3831308Y4512100D01*
X-3831305Y4512100D01*
X-3568116Y4512100D01*
X-3501077Y4492415D01*
X-3472264Y4466766D01*
X-3461882Y4454115D01*
X-3309540Y4329091D01*
X-3309533Y4329087D01*
X-3135734Y4236189D01*
X-3135731Y4236189D01*
X-3135727Y4236186D01*
X-2947132Y4178976D01*
X-2751000Y4159659D01*
X-2554868Y4178976D01*
X-2366273Y4236186D01*
X-2348965Y4245437D01*
X-2215567Y4316740D01*
X-2192462Y4329090D01*
X-2091507Y4411942D01*
X-2040119Y4454115D01*
X-2029736Y4466766D01*
X-1971990Y4506100D01*
X-1933884Y4512100D01*
X-1797693Y4512100D01*
X-1712835Y4528981D01*
X-1671556Y4537191D01*
X-1552736Y4586408D01*
X-1552731Y4586412D01*
X-1552728Y4586413D01*
X-1540913Y4594308D01*
X-1522723Y4606462D01*
X-1445800Y4657859D01*
X-738879Y5364782D01*
X-677556Y5398266D01*
X-651198Y5401100D01*
X229196Y5401100D01*
X296235Y5381415D01*
X316877Y5364781D01*
X400540Y5281118D01*
X434025Y5219795D01*
X436262Y5181288D01*
X434659Y5165006D01*
X434659Y5165001D01*
X453975Y4968871D01*
X453976Y4968868D01*
X502350Y4809400D01*
X511188Y4780268D01*
X605751Y4603353D01*
X619993Y4534950D01*
X594993Y4469707D01*
X538688Y4428336D01*
X496393Y4420900D01*
X-656307Y4420900D01*
X-782439Y4395811D01*
X-782445Y4395809D01*
X-870258Y4359435D01*
X-901260Y4346594D01*
X-901270Y4346589D01*
X-1008202Y4275140D01*
X-1008205Y4275137D01*
X-1861137Y3422206D01*
X-1861138Y3422205D01*
X-1926550Y3324306D01*
X-1926553Y3324302D01*
X-1932590Y3315269D01*
X-1932594Y3315262D01*
X-1981809Y3196445D01*
X-1981811Y3196439D01*
X-2006900Y3070308D01*
X-2006900Y-2087959D01*
X-2026585Y-2154998D01*
X-2059777Y-2189534D01*
X-2225400Y-2305503D01*
X-2347716Y-2427819D01*
X-2409039Y-2461303D01*
X-2478731Y-2456319D01*
X-2534664Y-2414447D01*
X-2551579Y-2383470D01*
X-2600646Y-2251913D01*
X-2600650Y-2251906D01*
X-2686810Y-2136812D01*
X-2686813Y-2136809D01*
X-2801907Y-2050649D01*
X-2801914Y-2050645D01*
X-2936621Y-2000403D01*
X-2936628Y-2000401D01*
X-2996156Y-1994000D01*
X-3644000Y-1994000D01*
X-3644000Y-2910988D01*
X-3701007Y-2878075D01*
X-3828174Y-2844000D01*
X-3959826Y-2844000D01*
X-4086993Y-2878075D01*
X-4144000Y-2910988D01*
X-4144000Y-1994000D01*
X-4791845Y-1994000D01*
X-4851373Y-2000401D01*
X-4851380Y-2000403D01*
X-4986087Y-2050645D01*
X-4986094Y-2050649D01*
X-5101188Y-2136809D01*
X-5101191Y-2136812D01*
X-5187351Y-2251906D01*
X-5187355Y-2251913D01*
X-5237597Y-2386620D01*
X-5237599Y-2386627D01*
X-5244000Y-2446155D01*
X-5244000Y-3094000D01*
X-4327012Y-3094000D01*
X-4359925Y-3151007D01*
X-4394000Y-3278174D01*
X-4394000Y-3409826D01*
X-4359925Y-3536993D01*
X-4327012Y-3594000D01*
X-5244000Y-3594000D01*
X-5244000Y-4241844D01*
X-5237599Y-4301372D01*
X-5237597Y-4301379D01*
X-5187355Y-4436086D01*
X-5187351Y-4436093D01*
X-5101191Y-4551187D01*
X-5101188Y-4551190D01*
X-4986094Y-4637350D01*
X-4986087Y-4637354D01*
X-4851380Y-4687596D01*
X-4851373Y-4687598D01*
X-4791845Y-4693999D01*
X-4791828Y-4694000D01*
X-4144000Y-4694000D01*
X-4144000Y-3777012D01*
X-4086993Y-3809925D01*
X-3959826Y-3844000D01*
X-3828174Y-3844000D01*
X-3701007Y-3809925D01*
X-3644000Y-3777012D01*
X-3644000Y-4694000D01*
X-2996172Y-4694000D01*
X-2996156Y-4693999D01*
X-2936628Y-4687598D01*
X-2936621Y-4687596D01*
X-2801914Y-4637354D01*
X-2801907Y-4637350D01*
X-2686813Y-4551190D01*
X-2686810Y-4551187D01*
X-2600650Y-4436093D01*
X-2600646Y-4436086D01*
X-2551578Y-4304529D01*
X-2509707Y-4248595D01*
X-2444243Y-4224178D01*
X-2375970Y-4239030D01*
X-2347715Y-4260181D01*
X-2225403Y-4382493D01*
X-2225397Y-4382498D01*
X-2156793Y-4430535D01*
X-2070443Y-4490998D01*
X-2059777Y-4498466D01*
X-2016152Y-4553043D01*
X-2006900Y-4600041D01*
X-2006900Y-5615100D01*
X-2026585Y-5682139D01*
X-2079389Y-5727894D01*
X-2130900Y-5739100D01*
X-8398198Y-5739100D01*
X-8465237Y-5719415D01*
X-8485879Y-5702781D01*
X-9300781Y-4887878D01*
X-9334266Y-4826555D01*
X-9337100Y-4800197D01*
X-9337100Y-3244657D01*
X-9319832Y-3181536D01*
X-9303284Y-3153555D01*
X-9238256Y-3043598D01*
X-9192402Y-2885769D01*
X-9189500Y-2848894D01*
X-9189500Y-1067506D01*
X-9192402Y-1030631D01*
X-9209781Y-970814D01*
X-9238255Y-872806D01*
X-9238256Y-872802D01*
X-9238259Y-872797D01*
X-9240270Y-868148D01*
X-9248830Y-798805D01*
X-9218541Y-735841D01*
X-9159020Y-699249D01*
X-9126469Y-694900D01*
X-4711116Y-694900D01*
X-4644077Y-714585D01*
X-4615264Y-740234D01*
X-4604882Y-752885D01*
X-4452540Y-877909D01*
X-4452533Y-877913D01*
X-4278734Y-970811D01*
X-4278731Y-970811D01*
X-4278727Y-970814D01*
X-4090132Y-1028024D01*
X-3894000Y-1047341D01*
X-3697868Y-1028024D01*
X-3509273Y-970814D01*
X-3335462Y-877910D01*
X-3183117Y-752883D01*
X-3058090Y-600538D01*
X-2997021Y-486286D01*
X-2965189Y-426733D01*
X-2965189Y-426732D01*
X-2965186Y-426727D01*
X-2907976Y-238132D01*
X-2888659Y-42000D01*
X-2907976Y154132D01*
X-2965186Y342727D01*
X-2965189Y342731D01*
X-2965189Y342734D01*
X-3058087Y516533D01*
X-3058091Y516540D01*
X-3183117Y668884D01*
X-3335461Y793910D01*
X-3335468Y793914D01*
X-3509267Y886812D01*
X-3509273Y886814D01*
X-3697868Y944024D01*
X-3697871Y944025D01*
X-3894000Y963341D01*
X-4090130Y944025D01*
X-4278734Y886812D01*
X-4452533Y793914D01*
X-4452540Y793910D01*
X-4604882Y668886D01*
X-4615264Y656234D01*
X-4673010Y616900D01*
X-4711116Y610900D01*
X-6590397Y610900D01*
X-6657436Y630585D01*
X-6703191Y683389D01*
X-6713135Y752547D01*
X-6684110Y816103D01*
X-6678078Y822581D01*
X-6180864Y1319796D01*
X-6180861Y1319799D01*
X-6180862Y1319799D01*
X-6180859Y1319801D01*
X-6109408Y1426736D01*
X-6060191Y1545556D01*
X-6046430Y1614738D01*
X-6035100Y1671695D01*
X-6035100Y4220885D01*
X-6015415Y4287924D01*
X-5989762Y4316740D01*
X-5977117Y4327117D01*
X-5852090Y4479462D01*
X-5759186Y4653273D01*
X-5701976Y4841868D01*
X-5682659Y5038000D01*
X-5701976Y5234132D01*
X-5704092Y5241108D01*
X-5704713Y5310975D01*
X-5667463Y5370087D01*
X-5604168Y5399676D01*
X-5585430Y5401100D01*
X-4977803Y5401100D01*
X-4910764Y5381415D01*
G37*
%TD.AperFunction*%
%TA.AperFunction,Conductor*%
G36*
X5757235Y3095415D02*
G01*
X5777876Y3078782D01*
X5830780Y3025879D01*
X5864266Y2964556D01*
X5867100Y2938197D01*
X5867100Y-3358526D01*
X5847415Y-3425565D01*
X5794611Y-3471320D01*
X5755254Y-3481929D01*
X5561870Y-3500975D01*
X5494602Y-3521381D01*
X5373273Y-3558186D01*
X5373271Y-3558186D01*
X5373271Y-3558187D01*
X5249632Y-3624273D01*
X5181229Y-3638514D01*
X5115985Y-3613514D01*
X5074615Y-3557208D01*
X5067651Y-3504106D01*
X5069010Y-3488580D01*
X5081659Y-3344000D01*
X5061063Y-3108592D01*
X5001360Y-2885773D01*
X4999905Y-2880344D01*
X4999904Y-2880343D01*
X4999903Y-2880337D01*
X4900035Y-2666171D01*
X4894425Y-2658158D01*
X4764494Y-2472597D01*
X4597402Y-2305506D01*
X4597401Y-2305505D01*
X4431776Y-2189533D01*
X4388152Y-2134956D01*
X4378900Y-2087958D01*
X4378900Y-1476221D01*
X4398585Y-1409182D01*
X4451389Y-1363427D01*
X4463888Y-1358517D01*
X4520334Y-1339814D01*
X4669656Y-1247712D01*
X4793712Y-1123656D01*
X4885814Y-974334D01*
X4940999Y-807797D01*
X4951500Y-705009D01*
X4951499Y70008D01*
X4949201Y92500D01*
X4940999Y172797D01*
X4940998Y172800D01*
X4912654Y258336D01*
X4885814Y339334D01*
X4793712Y488656D01*
X4669656Y612712D01*
X4666342Y614757D01*
X4664546Y616752D01*
X4663989Y617193D01*
X4664064Y617289D01*
X4619618Y666703D01*
X4608397Y735666D01*
X4636240Y799748D01*
X4666348Y825835D01*
X4669342Y827682D01*
X4793315Y951655D01*
X4885356Y1100876D01*
X4885358Y1100881D01*
X4940505Y1267303D01*
X4940506Y1267310D01*
X4950999Y1370014D01*
X4951000Y1370027D01*
X4951000Y1507500D01*
X3850000Y1507500D01*
X3782961Y1527185D01*
X3737206Y1579989D01*
X3726000Y1631500D01*
X3726000Y1757500D01*
X3600000Y1757500D01*
X3532961Y1777185D01*
X3487206Y1829989D01*
X3476000Y1881500D01*
X3476000Y2007500D01*
X3976000Y2007500D01*
X4950999Y2007500D01*
X4950999Y2144972D01*
X4950998Y2144987D01*
X4940505Y2247698D01*
X4885358Y2414120D01*
X4885356Y2414125D01*
X4793315Y2563346D01*
X4669345Y2687316D01*
X4520124Y2779357D01*
X4520119Y2779359D01*
X4353697Y2834506D01*
X4353690Y2834507D01*
X4250986Y2845000D01*
X3976000Y2845000D01*
X3976000Y2007500D01*
X3476000Y2007500D01*
X3476000Y2845000D01*
X3201029Y2845000D01*
X3201012Y2844999D01*
X3098302Y2834506D01*
X2931880Y2779359D01*
X2931875Y2779357D01*
X2782654Y2687316D01*
X2658682Y2563344D01*
X2596214Y2462068D01*
X2544266Y2415344D01*
X2475303Y2404123D01*
X2411221Y2431967D01*
X2372366Y2490036D01*
X2372064Y2491012D01*
X2368814Y2501727D01*
X2368812Y2501730D01*
X2368812Y2501732D01*
X2275913Y2675533D01*
X2275909Y2675540D01*
X2150883Y2827884D01*
X2068801Y2895247D01*
X2029467Y2952993D01*
X2027596Y3022837D01*
X2063784Y3082606D01*
X2126540Y3113321D01*
X2147466Y3115100D01*
X5690196Y3115100D01*
X5757235Y3095415D01*
G37*
%TD.AperFunction*%
%TA.AperFunction,Conductor*%
G36*
X7378103Y2367110D02*
G01*
X7384581Y2361078D01*
X7983398Y1762261D01*
X7983401Y1762259D01*
X8090337Y1690807D01*
X8146652Y1667481D01*
X8209156Y1641591D01*
X8209160Y1641591D01*
X8209161Y1641590D01*
X8335292Y1616500D01*
X8335295Y1616500D01*
X10270104Y1616500D01*
X10337143Y1596815D01*
X10382898Y1544011D01*
X10392842Y1474853D01*
X10376837Y1429380D01*
X10365254Y1409795D01*
X10365254Y1409794D01*
X10319402Y1251974D01*
X10319401Y1251968D01*
X10316500Y1215102D01*
X10316500Y783699D01*
X10319401Y746833D01*
X10319402Y746827D01*
X10365254Y589007D01*
X10365255Y589004D01*
X10448917Y447538D01*
X10453702Y441369D01*
X10451256Y439473D01*
X10477857Y390758D01*
X10472873Y321066D01*
X10452069Y288697D01*
X10453702Y287431D01*
X10448917Y281263D01*
X10365255Y139797D01*
X10365254Y139794D01*
X10319402Y-18026D01*
X10319401Y-18032D01*
X10316500Y-54898D01*
X10316500Y-486301D01*
X10319401Y-523167D01*
X10319402Y-523173D01*
X10365254Y-680993D01*
X10365255Y-680996D01*
X10365256Y-680998D01*
X10379456Y-705009D01*
X10448917Y-822462D01*
X10453702Y-828631D01*
X10451256Y-830527D01*
X10477857Y-879242D01*
X10472873Y-948934D01*
X10452069Y-981303D01*
X10453702Y-982569D01*
X10448917Y-988737D01*
X10365255Y-1130203D01*
X10365254Y-1130206D01*
X10319402Y-1288026D01*
X10319401Y-1288032D01*
X10316500Y-1324898D01*
X10316500Y-1756301D01*
X10319401Y-1793167D01*
X10319402Y-1793173D01*
X10365254Y-1950993D01*
X10365255Y-1950996D01*
X10448917Y-2092462D01*
X10453702Y-2098631D01*
X10451256Y-2100527D01*
X10477857Y-2149242D01*
X10472873Y-2218934D01*
X10452069Y-2251303D01*
X10453702Y-2252569D01*
X10448917Y-2258737D01*
X10365255Y-2400203D01*
X10365254Y-2400206D01*
X10319402Y-2558026D01*
X10319401Y-2558032D01*
X10316500Y-2594898D01*
X10316500Y-3026301D01*
X10319401Y-3063167D01*
X10319402Y-3063173D01*
X10365254Y-3220993D01*
X10365254Y-3220994D01*
X10365255Y-3220996D01*
X10365256Y-3220998D01*
X10376837Y-3240580D01*
X10394018Y-3308304D01*
X10371858Y-3374567D01*
X10317392Y-3418329D01*
X10270104Y-3427700D01*
X7578402Y-3427700D01*
X7511363Y-3408015D01*
X7490721Y-3391381D01*
X7209219Y-3109878D01*
X7175734Y-3048555D01*
X7172900Y-3022197D01*
X7172900Y2273397D01*
X7192585Y2340436D01*
X7245389Y2386191D01*
X7314547Y2396135D01*
X7378103Y2367110D01*
G37*
%TD.AperFunction*%
%TA.AperFunction,Conductor*%
G36*
X12970836Y6041815D02*
G01*
X12991478Y6025181D01*
X13196781Y5819879D01*
X13230266Y5758556D01*
X13233100Y5732198D01*
X13233100Y5561902D01*
X13213415Y5494863D01*
X13160611Y5449108D01*
X13091453Y5439164D01*
X13027897Y5468189D01*
X13021419Y5474221D01*
X13018561Y5477079D01*
X13018552Y5477086D01*
X12877196Y5560683D01*
X12877193Y5560684D01*
X12719495Y5606500D01*
X12719489Y5606501D01*
X12682649Y5609400D01*
X12042000Y5609400D01*
X12042000Y4933400D01*
X12022315Y4866361D01*
X11969511Y4820606D01*
X11918000Y4809400D01*
X11792000Y4809400D01*
X11792000Y4683400D01*
X11772315Y4616361D01*
X11719511Y4570606D01*
X11668000Y4559400D01*
X10319705Y4559400D01*
X10319704Y4559399D01*
X10319899Y4556914D01*
X10365718Y4399202D01*
X10449314Y4257848D01*
X10454100Y4251678D01*
X10451640Y4249771D01*
X10478210Y4201112D01*
X10473226Y4131420D01*
X10452162Y4098619D01*
X10453699Y4097426D01*
X10448915Y4091260D01*
X10365255Y3949797D01*
X10365254Y3949794D01*
X10319402Y3791974D01*
X10319401Y3791968D01*
X10316500Y3755102D01*
X10316500Y3323699D01*
X10319401Y3286833D01*
X10319402Y3286827D01*
X10365254Y3129007D01*
X10365254Y3129006D01*
X10365255Y3129004D01*
X10365256Y3129002D01*
X10375154Y3112266D01*
X10376837Y3109420D01*
X10394018Y3041696D01*
X10371858Y2975433D01*
X10317392Y2931671D01*
X10270104Y2922300D01*
X8721402Y2922300D01*
X8654363Y2941985D01*
X8633725Y2958615D01*
X8479216Y3113124D01*
X8445734Y3174445D01*
X8442900Y3200803D01*
X8442900Y4220885D01*
X8462585Y4287924D01*
X8488238Y4316740D01*
X8500883Y4327117D01*
X8625910Y4479462D01*
X8718814Y4653273D01*
X8776024Y4841868D01*
X8795341Y5038000D01*
X8793233Y5059402D01*
X10319704Y5059402D01*
X10319705Y5059400D01*
X11542000Y5059400D01*
X11542000Y5609400D01*
X10901350Y5609400D01*
X10864510Y5606501D01*
X10864504Y5606500D01*
X10706806Y5560684D01*
X10706803Y5560683D01*
X10565447Y5477086D01*
X10565438Y5477079D01*
X10449321Y5360962D01*
X10449314Y5360953D01*
X10365718Y5219599D01*
X10319899Y5061887D01*
X10319704Y5059402D01*
X8793233Y5059402D01*
X8776024Y5234132D01*
X8718814Y5422727D01*
X8718811Y5422731D01*
X8718811Y5422734D01*
X8625913Y5596533D01*
X8625909Y5596540D01*
X8500883Y5748884D01*
X8387851Y5841647D01*
X8348517Y5899393D01*
X8346646Y5969237D01*
X8382834Y6029006D01*
X8445590Y6059721D01*
X8466516Y6061500D01*
X12903797Y6061500D01*
X12970836Y6041815D01*
G37*
%TD.AperFunction*%
%TA.AperFunction,Conductor*%
G36*
X-10920874Y6041815D02*
G01*
X-10875119Y5989011D01*
X-10865175Y5919853D01*
X-10878555Y5879047D01*
X-10918812Y5803733D01*
X-10976025Y5615130D01*
X-10995341Y5419000D01*
X-10976025Y5222871D01*
X-10976024Y5222868D01*
X-10919945Y5038000D01*
X-10918812Y5034267D01*
X-10825914Y4860468D01*
X-10825910Y4860461D01*
X-10760096Y4780268D01*
X-10711000Y4720444D01*
X-10700882Y4708116D01*
X-10688238Y4697740D01*
X-10648902Y4639995D01*
X-10642900Y4601885D01*
X-10642900Y4513116D01*
X-10662585Y4446077D01*
X-10715389Y4400322D01*
X-10784547Y4390378D01*
X-10830019Y4406383D01*
X-10849802Y4418082D01*
X-10849807Y4418084D01*
X-11007506Y4463900D01*
X-11007503Y4463900D01*
X-11010000Y4464097D01*
X-11010000Y3115800D01*
X-11029685Y3048761D01*
X-11082489Y3003006D01*
X-11134000Y2991800D01*
X-11386000Y2991800D01*
X-11453039Y3011485D01*
X-11498794Y3064289D01*
X-11510000Y3115800D01*
X-11510000Y4464097D01*
X-11512497Y4463900D01*
X-11670194Y4418084D01*
X-11670197Y4418083D01*
X-11811551Y4334487D01*
X-11817717Y4329703D01*
X-11819611Y4332145D01*
X-11868420Y4305561D01*
X-11938106Y4310621D01*
X-11970773Y4331641D01*
X-11971969Y4330098D01*
X-11978138Y4334883D01*
X-12081159Y4395809D01*
X-12119602Y4418544D01*
X-12119603Y4418545D01*
X-12119604Y4418545D01*
X-12119607Y4418546D01*
X-12277427Y4464398D01*
X-12277433Y4464399D01*
X-12314299Y4467300D01*
X-12314306Y4467300D01*
X-12745694Y4467300D01*
X-12745702Y4467300D01*
X-12782568Y4464399D01*
X-12782574Y4464398D01*
X-12940394Y4418546D01*
X-12940397Y4418545D01*
X-13081863Y4334883D01*
X-13088031Y4330098D01*
X-13089928Y4332544D01*
X-13138642Y4305943D01*
X-13208334Y4310927D01*
X-13240704Y4331731D01*
X-13241969Y4330098D01*
X-13248138Y4334883D01*
X-13351159Y4395809D01*
X-13389602Y4418544D01*
X-13389603Y4418545D01*
X-13389604Y4418545D01*
X-13389607Y4418546D01*
X-13547427Y4464398D01*
X-13547433Y4464399D01*
X-13584299Y4467300D01*
X-13584306Y4467300D01*
X-14015694Y4467300D01*
X-14015702Y4467300D01*
X-14052568Y4464399D01*
X-14052574Y4464398D01*
X-14210394Y4418546D01*
X-14210397Y4418545D01*
X-14351863Y4334883D01*
X-14358031Y4330098D01*
X-14359928Y4332544D01*
X-14408642Y4305943D01*
X-14478334Y4310927D01*
X-14510704Y4331731D01*
X-14511969Y4330098D01*
X-14518138Y4334883D01*
X-14621159Y4395809D01*
X-14659602Y4418544D01*
X-14659603Y4418545D01*
X-14659604Y4418545D01*
X-14659607Y4418546D01*
X-14817427Y4464398D01*
X-14817433Y4464399D01*
X-14854299Y4467300D01*
X-14854306Y4467300D01*
X-15285694Y4467300D01*
X-15285702Y4467300D01*
X-15322568Y4464399D01*
X-15322574Y4464398D01*
X-15480394Y4418546D01*
X-15480397Y4418545D01*
X-15621863Y4334883D01*
X-15628031Y4330098D01*
X-15629928Y4332544D01*
X-15678642Y4305943D01*
X-15748334Y4310927D01*
X-15780704Y4331731D01*
X-15781969Y4330098D01*
X-15788138Y4334883D01*
X-15891159Y4395809D01*
X-15929602Y4418544D01*
X-15929603Y4418545D01*
X-15929604Y4418545D01*
X-15929607Y4418546D01*
X-16087427Y4464398D01*
X-16087433Y4464399D01*
X-16124299Y4467300D01*
X-16124306Y4467300D01*
X-16555694Y4467300D01*
X-16555702Y4467300D01*
X-16592568Y4464399D01*
X-16592574Y4464398D01*
X-16750394Y4418546D01*
X-16750397Y4418545D01*
X-16891863Y4334883D01*
X-16898031Y4330098D01*
X-16899928Y4332544D01*
X-16948642Y4305943D01*
X-17018334Y4310927D01*
X-17050704Y4331731D01*
X-17051969Y4330098D01*
X-17058138Y4334883D01*
X-17161159Y4395809D01*
X-17199602Y4418544D01*
X-17199603Y4418545D01*
X-17199604Y4418545D01*
X-17199607Y4418546D01*
X-17357427Y4464398D01*
X-17357433Y4464399D01*
X-17394299Y4467300D01*
X-17394306Y4467300D01*
X-17825694Y4467300D01*
X-17825702Y4467300D01*
X-17862568Y4464399D01*
X-17862574Y4464398D01*
X-18020394Y4418546D01*
X-18020395Y4418546D01*
X-18039980Y4406963D01*
X-18107704Y4389782D01*
X-18173967Y4411942D01*
X-18217729Y4466408D01*
X-18227100Y4513696D01*
X-18227100Y4594308D01*
X-18252190Y4720439D01*
X-18252191Y4720440D01*
X-18252191Y4720444D01*
X-18289038Y4809400D01*
X-18301407Y4839263D01*
X-18337381Y4893101D01*
X-18337381Y4893102D01*
X-18372859Y4946199D01*
X-18372865Y4946206D01*
X-18971795Y5545137D01*
X-18971796Y5545138D01*
X-18978664Y5549727D01*
X-19078736Y5616592D01*
X-19197556Y5665809D01*
X-19197560Y5665810D01*
X-19202601Y5666813D01*
X-19207643Y5667816D01*
X-19207646Y5667817D01*
X-19207646Y5667816D01*
X-19323693Y5690900D01*
X-19323695Y5690900D01*
X-27460884Y5690900D01*
X-27527923Y5710585D01*
X-27556736Y5736234D01*
X-27567119Y5748886D01*
X-27680149Y5841647D01*
X-27719483Y5899393D01*
X-27721354Y5969237D01*
X-27685166Y6029006D01*
X-27622410Y6059721D01*
X-27601484Y6061500D01*
X-10987913Y6061500D01*
X-10920874Y6041815D01*
G37*
%TD.AperFunction*%
%TA.AperFunction,Conductor*%
G36*
X169236Y34718415D02*
G01*
X189878Y34701781D01*
X1760781Y33130879D01*
X1794266Y33069556D01*
X1797100Y33043198D01*
X1797100Y31526692D01*
X1777415Y31459653D01*
X1732118Y31417638D01*
X1626501Y31360481D01*
X1626494Y31360477D01*
X1430257Y31207739D01*
X1261833Y31024783D01*
X1125826Y30816607D01*
X1025936Y30588882D01*
X964892Y30347825D01*
X964890Y30347813D01*
X944357Y30100006D01*
X944357Y30099995D01*
X964890Y29852188D01*
X964892Y29852176D01*
X1025936Y29611119D01*
X1125826Y29383394D01*
X1261833Y29175218D01*
X1261836Y29175215D01*
X1430256Y28992262D01*
X1626491Y28839526D01*
X1845190Y28721172D01*
X2080386Y28640429D01*
X2325665Y28599500D01*
X2574335Y28599500D01*
X2819614Y28640429D01*
X3054810Y28721172D01*
X3273509Y28839526D01*
X3469744Y28992262D01*
X3638164Y29175215D01*
X3669556Y29223264D01*
X3776978Y29387686D01*
X3778214Y29386879D01*
X3822684Y29431698D01*
X3882537Y29447100D01*
X28380197Y29447100D01*
X28447236Y29427415D01*
X28467878Y29410781D01*
X29173295Y28705365D01*
X29206780Y28644042D01*
X29209614Y28617684D01*
X29209614Y27081278D01*
X29189929Y27014239D01*
X29144632Y26972224D01*
X29039015Y26915067D01*
X29039008Y26915063D01*
X28997634Y26882860D01*
X28842770Y26762324D01*
X28842648Y26762191D01*
X28674347Y26579369D01*
X28538340Y26371193D01*
X28438450Y26143468D01*
X28377406Y25902411D01*
X28377404Y25902399D01*
X28356871Y25654592D01*
X28356871Y25654581D01*
X28377404Y25406774D01*
X28377406Y25406762D01*
X28438450Y25165705D01*
X28538340Y24937980D01*
X28674347Y24729804D01*
X28717503Y24682925D01*
X28842770Y24546848D01*
X28842772Y24546847D01*
X28846244Y24543075D01*
X28844568Y24541533D01*
X28875632Y24489835D01*
X28873528Y24419997D01*
X28834000Y24362383D01*
X28769599Y24335286D01*
X28755657Y24334500D01*
X10550202Y24334500D01*
X10483163Y24354185D01*
X10462521Y24370819D01*
X6936205Y27897137D01*
X6936204Y27897138D01*
X6936200Y27897141D01*
X6829264Y27968592D01*
X6710444Y28017809D01*
X6710438Y28017811D01*
X6584307Y28042900D01*
X6584305Y28042900D01*
X-1286198Y28042900D01*
X-1353237Y28062585D01*
X-1373879Y28079219D01*
X-1860781Y28566122D01*
X-1894266Y28627445D01*
X-1897100Y28653803D01*
X-1897100Y28673310D01*
X-1877415Y28740349D01*
X-1832118Y28782365D01*
X-1726491Y28839526D01*
X-1530256Y28992262D01*
X-1361836Y29175215D01*
X-1225827Y29383393D01*
X-1125937Y29611119D01*
X-1064892Y29852179D01*
X-1044357Y30100000D01*
X-1048459Y30149500D01*
X-1064891Y30347813D01*
X-1064893Y30347825D01*
X-1125937Y30588882D01*
X-1225827Y30816607D01*
X-1361834Y31024783D01*
X-1383443Y31048256D01*
X-1530256Y31207738D01*
X-1726491Y31360474D01*
X-1726492Y31360475D01*
X-1726495Y31360477D01*
X-1726502Y31360481D01*
X-1832118Y31417638D01*
X-1881708Y31466857D01*
X-1897100Y31526692D01*
X-1897100Y32286936D01*
X-1877415Y32353975D01*
X-1838200Y32392472D01*
X-1796344Y32418288D01*
X-1672288Y32542344D01*
X-1580186Y32691666D01*
X-1525001Y32858203D01*
X-1514500Y32960991D01*
X-1514501Y34011008D01*
X-1525001Y34113797D01*
X-1580186Y34280334D01*
X-1672288Y34429656D01*
X-1769051Y34526419D01*
X-1802536Y34587742D01*
X-1797552Y34657434D01*
X-1755680Y34713367D01*
X-1690216Y34737784D01*
X-1681370Y34738100D01*
X102197Y34738100D01*
X169236Y34718415D01*
G37*
%TD.AperFunction*%
%TD*%
%TA.AperFunction,NonConductor*%
G36*
X47003735Y37499274D02*
G01*
X47293796Y37481729D01*
X47308657Y37479925D01*
X47590797Y37428220D01*
X47605334Y37424637D01*
X47879171Y37339305D01*
X47893163Y37334000D01*
X47994682Y37288310D01*
X48154735Y37216276D01*
X48167994Y37209317D01*
X48290726Y37135123D01*
X48413464Y37060925D01*
X48425776Y37052427D01*
X48651573Y36875527D01*
X48662781Y36865597D01*
X48865595Y36662782D01*
X48875525Y36651574D01*
X49052422Y36425783D01*
X49060928Y36413460D01*
X49209316Y36167996D01*
X49216275Y36154737D01*
X49333997Y35893169D01*
X49339306Y35879168D01*
X49424635Y35605337D01*
X49428219Y35590799D01*
X49479923Y35308660D01*
X49481728Y35293795D01*
X49499273Y35003754D01*
X49499499Y34996267D01*
X49499499Y-34996249D01*
X49499273Y-35003736D01*
X49481727Y-35293794D01*
X49479922Y-35308659D01*
X49428218Y-35590797D01*
X49424634Y-35605335D01*
X49339303Y-35879174D01*
X49333993Y-35893176D01*
X49216276Y-36154730D01*
X49209318Y-36167987D01*
X49060927Y-36413458D01*
X49052421Y-36425782D01*
X48875525Y-36651573D01*
X48865595Y-36662781D01*
X48662780Y-36865595D01*
X48651572Y-36875525D01*
X48425781Y-37052422D01*
X48413458Y-37060928D01*
X48167995Y-37209315D01*
X48154736Y-37216274D01*
X47893167Y-37333996D01*
X47879166Y-37339305D01*
X47605335Y-37424634D01*
X47590797Y-37428218D01*
X47308659Y-37479922D01*
X47293794Y-37481727D01*
X47100701Y-37493407D01*
X47003711Y-37499274D01*
X46996239Y-37499500D01*
X-46996249Y-37499500D01*
X-47003736Y-37499274D01*
X-47293795Y-37481728D01*
X-47308660Y-37479923D01*
X-47590799Y-37428219D01*
X-47605337Y-37424635D01*
X-47879168Y-37339306D01*
X-47893169Y-37333997D01*
X-48154737Y-37216275D01*
X-48167996Y-37209316D01*
X-48413460Y-37060928D01*
X-48425783Y-37052422D01*
X-48651574Y-36875525D01*
X-48662782Y-36865595D01*
X-48865597Y-36662781D01*
X-48875527Y-36651573D01*
X-49052423Y-36425781D01*
X-49060925Y-36413464D01*
X-49201701Y-36180593D01*
X-49209317Y-36167994D01*
X-49216276Y-36154735D01*
X-49333998Y-35893167D01*
X-49339307Y-35879166D01*
X-49347904Y-35851578D01*
X-49424637Y-35605334D01*
X-49428220Y-35590797D01*
X-49479924Y-35308659D01*
X-49481729Y-35293794D01*
X-49486184Y-35220137D01*
X-49499276Y-35003712D01*
X-49499501Y-34996238D01*
X-49499501Y-31878711D01*
X-45850500Y-31878711D01*
X-45850500Y-32121288D01*
X-45819547Y-32356408D01*
X-45818838Y-32361789D01*
X-45815927Y-32372654D01*
X-45756053Y-32596104D01*
X-45663227Y-32820205D01*
X-45663224Y-32820212D01*
X-45541936Y-33030289D01*
X-45541934Y-33030292D01*
X-45541933Y-33030293D01*
X-45394267Y-33222736D01*
X-45394264Y-33222740D01*
X-45222744Y-33394260D01*
X-45222737Y-33394266D01*
X-45113352Y-33478200D01*
X-45030289Y-33541936D01*
X-44820212Y-33663224D01*
X-44596100Y-33756054D01*
X-44361789Y-33818838D01*
X-44182313Y-33842466D01*
X-44121289Y-33850500D01*
X-44121288Y-33850500D01*
X-43878711Y-33850500D01*
X-43817687Y-33842466D01*
X-43638211Y-33818838D01*
X-43403900Y-33756054D01*
X-43179788Y-33663224D01*
X-42969711Y-33541936D01*
X-42777262Y-33394265D01*
X-42698997Y-33316000D01*
X-42605736Y-33222740D01*
X-42605735Y-33222738D01*
X-42458064Y-33030289D01*
X-42336776Y-32820212D01*
X-42243946Y-32596100D01*
X-42181162Y-32361789D01*
X-42149500Y-32121288D01*
X-42149500Y-31878712D01*
X-42181162Y-31638211D01*
X-42243946Y-31403900D01*
X-42336776Y-31179788D01*
X-42458064Y-30969711D01*
X-42541988Y-30860339D01*
X-42605734Y-30777263D01*
X-42605740Y-30777256D01*
X-42777257Y-30605739D01*
X-42777264Y-30605733D01*
X-42969707Y-30458067D01*
X-42969708Y-30458066D01*
X-42969711Y-30458064D01*
X-43179788Y-30336776D01*
X-43179795Y-30336773D01*
X-43403896Y-30243947D01*
X-43638215Y-30181161D01*
X-43878711Y-30149500D01*
X-43878712Y-30149500D01*
X-44121288Y-30149500D01*
X-44121289Y-30149500D01*
X-44361786Y-30181161D01*
X-44596105Y-30243947D01*
X-44820206Y-30336773D01*
X-44820215Y-30336777D01*
X-45030294Y-30458067D01*
X-45222737Y-30605733D01*
X-45222744Y-30605739D01*
X-45394261Y-30777256D01*
X-45394267Y-30777263D01*
X-45541933Y-30969706D01*
X-45541936Y-30969710D01*
X-45541936Y-30969711D01*
X-45552816Y-30988555D01*
X-45663223Y-31179785D01*
X-45663227Y-31179794D01*
X-45756053Y-31403895D01*
X-45772441Y-31465055D01*
X-45818838Y-31638211D01*
X-45818838Y-31638213D01*
X-45850500Y-31878711D01*
X-49499501Y-31878711D01*
X-49499501Y1698708D01*
X-38176500Y1698708D01*
X-38176500Y-31600810D01*
X-38169060Y-31638210D01*
X-38169060Y-31638213D01*
X-38167531Y-31645901D01*
X-38151409Y-31726949D01*
X-38102192Y-31845769D01*
X-38030741Y-31952705D01*
X-38030738Y-31952709D01*
X-38030737Y-31952710D01*
X-33874309Y-36109137D01*
X-33874305Y-36109140D01*
X-33795830Y-36161575D01*
X-33795829Y-36161576D01*
X-33767378Y-36180587D01*
X-33767367Y-36180593D01*
X-33740451Y-36191742D01*
X-33648549Y-36229809D01*
X-33648545Y-36229809D01*
X-33648544Y-36229810D01*
X-33522413Y-36254900D01*
X-33522410Y-36254900D01*
X-21763589Y-36254900D01*
X-21678731Y-36238019D01*
X-21637452Y-36229809D01*
X-21518632Y-36180592D01*
X-21490172Y-36161576D01*
X-21490170Y-36161575D01*
X-21411702Y-36109145D01*
X-21411703Y-36109145D01*
X-21411696Y-36109141D01*
X-19287259Y-33984703D01*
X-19215807Y-33877767D01*
X-19166591Y-33758947D01*
X-19166015Y-33756054D01*
X-19147550Y-33663224D01*
X-19141500Y-33632811D01*
X-19141500Y-29218202D01*
X-19121815Y-29151163D01*
X-19105181Y-29130521D01*
X-18137879Y-28163219D01*
X-18076556Y-28129734D01*
X-18050198Y-28126900D01*
X-5231803Y-28126900D01*
X-5164764Y-28146585D01*
X-5144122Y-28163219D01*
X-3567219Y-29740121D01*
X-3533734Y-29801444D01*
X-3530900Y-29827802D01*
X-3530900Y-30789959D01*
X-3550585Y-30856998D01*
X-3583777Y-30891534D01*
X-3749400Y-31007503D01*
X-3871716Y-31129819D01*
X-3933039Y-31163303D01*
X-4002731Y-31158319D01*
X-4058664Y-31116447D01*
X-4075579Y-31085470D01*
X-4124646Y-30953913D01*
X-4124650Y-30953906D01*
X-4210810Y-30838812D01*
X-4210813Y-30838809D01*
X-4325907Y-30752649D01*
X-4325914Y-30752645D01*
X-4460621Y-30702403D01*
X-4460628Y-30702401D01*
X-4520156Y-30696000D01*
X-5168000Y-30696000D01*
X-5168000Y-31612988D01*
X-5225007Y-31580075D01*
X-5352174Y-31546000D01*
X-5483826Y-31546000D01*
X-5610993Y-31580075D01*
X-5668000Y-31612988D01*
X-5668000Y-30696000D01*
X-6315845Y-30696000D01*
X-6375373Y-30702401D01*
X-6375380Y-30702403D01*
X-6510087Y-30752645D01*
X-6510094Y-30752649D01*
X-6625188Y-30838809D01*
X-6625191Y-30838812D01*
X-6711351Y-30953906D01*
X-6711355Y-30953913D01*
X-6761597Y-31088620D01*
X-6761599Y-31088627D01*
X-6768000Y-31148155D01*
X-6768000Y-31796000D01*
X-5851012Y-31796000D01*
X-5883925Y-31853007D01*
X-5918000Y-31980174D01*
X-5918000Y-32111826D01*
X-5883925Y-32238993D01*
X-5851012Y-32296000D01*
X-6768000Y-32296000D01*
X-6768000Y-32943844D01*
X-6761599Y-33003372D01*
X-6761597Y-33003379D01*
X-6711355Y-33138086D01*
X-6711351Y-33138093D01*
X-6625191Y-33253187D01*
X-6625188Y-33253190D01*
X-6510094Y-33339350D01*
X-6510087Y-33339354D01*
X-6375380Y-33389596D01*
X-6375373Y-33389598D01*
X-6315845Y-33395999D01*
X-6315828Y-33396000D01*
X-5668000Y-33396000D01*
X-5668000Y-32479012D01*
X-5610993Y-32511925D01*
X-5483826Y-32546000D01*
X-5352174Y-32546000D01*
X-5225007Y-32511925D01*
X-5168000Y-32479012D01*
X-5168000Y-33396000D01*
X-4520172Y-33396000D01*
X-4520156Y-33395999D01*
X-4460628Y-33389598D01*
X-4460621Y-33389596D01*
X-4325914Y-33339354D01*
X-4325907Y-33339350D01*
X-4210813Y-33253190D01*
X-4210810Y-33253187D01*
X-4124650Y-33138093D01*
X-4124646Y-33138086D01*
X-4075578Y-33006529D01*
X-4033707Y-32950595D01*
X-3968243Y-32926178D01*
X-3899970Y-32941030D01*
X-3871715Y-32962181D01*
X-3749401Y-33084495D01*
X-3677332Y-33134958D01*
X-3555835Y-33220032D01*
X-3555833Y-33220033D01*
X-3555830Y-33220035D01*
X-3341663Y-33319903D01*
X-3113408Y-33381063D01*
X-2942681Y-33396000D01*
X-2878001Y-33401659D01*
X-2878000Y-33401659D01*
X-2877999Y-33401659D01*
X-2813319Y-33396000D01*
X-2642592Y-33381063D01*
X-2414337Y-33319903D01*
X-2200170Y-33220035D01*
X-2006599Y-33084495D01*
X-1839505Y-32917401D01*
X-1709575Y-32731842D01*
X-1654998Y-32688217D01*
X-1585500Y-32681023D01*
X-1523145Y-32712546D01*
X-1506425Y-32731842D01*
X-1430609Y-32840119D01*
X-1376495Y-32917401D01*
X-1209401Y-33084495D01*
X-1137332Y-33134958D01*
X-1015835Y-33220032D01*
X-1015833Y-33220033D01*
X-1015830Y-33220035D01*
X-801663Y-33319903D01*
X-573408Y-33381063D01*
X-402681Y-33396000D01*
X-338001Y-33401659D01*
X-338000Y-33401659D01*
X-337999Y-33401659D01*
X-273319Y-33396000D01*
X-102592Y-33381063D01*
X125663Y-33319903D01*
X339830Y-33220035D01*
X533401Y-33084495D01*
X700495Y-32917401D01*
X830425Y-32731842D01*
X885002Y-32688217D01*
X954500Y-32681023D01*
X1016855Y-32712546D01*
X1033575Y-32731842D01*
X1109391Y-32840119D01*
X1163505Y-32917401D01*
X1330599Y-33084495D01*
X1402668Y-33134958D01*
X1524165Y-33220032D01*
X1524167Y-33220033D01*
X1524170Y-33220035D01*
X1738337Y-33319903D01*
X1966592Y-33381063D01*
X2137319Y-33396000D01*
X2201999Y-33401659D01*
X2202000Y-33401659D01*
X2202001Y-33401659D01*
X2266681Y-33396000D01*
X2437408Y-33381063D01*
X2665663Y-33319903D01*
X2879830Y-33220035D01*
X3073401Y-33084495D01*
X3240495Y-32917401D01*
X3370425Y-32731842D01*
X3425002Y-32688217D01*
X3494500Y-32681023D01*
X3556855Y-32712546D01*
X3573575Y-32731842D01*
X3703501Y-32917396D01*
X3703506Y-32917402D01*
X3745700Y-32959596D01*
X3779185Y-33020919D01*
X3774201Y-33090611D01*
X3745700Y-33134958D01*
X2837859Y-34042800D01*
X2602878Y-34277781D01*
X2541555Y-34311266D01*
X2515197Y-34314100D01*
X-11541035Y-34314100D01*
X-11608074Y-34294415D01*
X-11653829Y-34241611D01*
X-11664438Y-34202253D01*
X-11665930Y-34187100D01*
X-11670976Y-34135868D01*
X-11728186Y-33947273D01*
X-11728189Y-33947269D01*
X-11728189Y-33947266D01*
X-11821087Y-33773467D01*
X-11821091Y-33773460D01*
X-11946117Y-33621116D01*
X-12098461Y-33496090D01*
X-12098468Y-33496086D01*
X-12272267Y-33403188D01*
X-12272273Y-33403186D01*
X-12460868Y-33345976D01*
X-12460871Y-33345975D01*
X-12657000Y-33326659D01*
X-12853130Y-33345975D01*
X-13041734Y-33403188D01*
X-13215533Y-33496086D01*
X-13215540Y-33496090D01*
X-13367884Y-33621116D01*
X-13492910Y-33773460D01*
X-13492914Y-33773467D01*
X-13585812Y-33947266D01*
X-13643025Y-34135870D01*
X-13662341Y-34332000D01*
X-13643025Y-34528129D01*
X-13585812Y-34716733D01*
X-13492914Y-34890532D01*
X-13492910Y-34890539D01*
X-13367884Y-35042883D01*
X-13215540Y-35167909D01*
X-13215533Y-35167913D01*
X-13041734Y-35260811D01*
X-13041731Y-35260811D01*
X-13041727Y-35260814D01*
X-12853132Y-35318024D01*
X-12657000Y-35337341D01*
X-12640719Y-35335737D01*
X-12572073Y-35348755D01*
X-12540882Y-35371459D01*
X-12438202Y-35474139D01*
X-12438199Y-35474141D01*
X-12331263Y-35545593D01*
X-12261660Y-35574423D01*
X-12212444Y-35594809D01*
X-12212440Y-35594809D01*
X-12212439Y-35594810D01*
X-12086308Y-35619900D01*
X-12086305Y-35619900D01*
X2901307Y-35619900D01*
X3010552Y-35598169D01*
X3027444Y-35594809D01*
X3146264Y-35545592D01*
X3154126Y-35540338D01*
X3158085Y-35537694D01*
X3205641Y-35505918D01*
X3253200Y-35474141D01*
X3750993Y-34976345D01*
X3750998Y-34976342D01*
X3761198Y-34966141D01*
X3761200Y-34966141D01*
X5249140Y-33478200D01*
X5320592Y-33371264D01*
X5341867Y-33319903D01*
X5356019Y-33285736D01*
X5399860Y-33231332D01*
X5418178Y-33220805D01*
X5419830Y-33220035D01*
X5613401Y-33084495D01*
X5780495Y-32917401D01*
X5896467Y-32751776D01*
X5951044Y-32708152D01*
X5998042Y-32698900D01*
X6863778Y-32698900D01*
X6930817Y-32718585D01*
X6976572Y-32771389D01*
X6981482Y-32783891D01*
X7000186Y-32840334D01*
X7092288Y-32989656D01*
X7216344Y-33113712D01*
X7310696Y-33171908D01*
X7357421Y-33223855D01*
X7369600Y-33277447D01*
X7369600Y-33866807D01*
X7371781Y-33877770D01*
X7386519Y-33951860D01*
X7394691Y-33992944D01*
X7443908Y-34111764D01*
X7492948Y-34185159D01*
X7515362Y-34218704D01*
X7515363Y-34218705D01*
X8516796Y-35220137D01*
X8516800Y-35220140D01*
X8600796Y-35276264D01*
X8600797Y-35276265D01*
X8623728Y-35291587D01*
X8623733Y-35291590D01*
X8623736Y-35291592D01*
X8742556Y-35340809D01*
X8742560Y-35340809D01*
X8742561Y-35340810D01*
X8868692Y-35365900D01*
X8868695Y-35365900D01*
X11918307Y-35365900D01*
X12004497Y-35348755D01*
X12044444Y-35340809D01*
X12163264Y-35291592D01*
X12186204Y-35276264D01*
X12270200Y-35220141D01*
X13866121Y-33624218D01*
X13927444Y-33590734D01*
X13953802Y-33587900D01*
X18148884Y-33587900D01*
X18215923Y-33607585D01*
X18244736Y-33633234D01*
X18255118Y-33645885D01*
X18407460Y-33770909D01*
X18407467Y-33770913D01*
X18581266Y-33863811D01*
X18581269Y-33863811D01*
X18581273Y-33863814D01*
X18769868Y-33921024D01*
X18966000Y-33940341D01*
X19162132Y-33921024D01*
X19350727Y-33863814D01*
X19393374Y-33841019D01*
X19453312Y-33808981D01*
X19524538Y-33770910D01*
X19676883Y-33645883D01*
X19801910Y-33493538D01*
X19894814Y-33319727D01*
X19952024Y-33131132D01*
X19971341Y-32935000D01*
X19952024Y-32738868D01*
X19894814Y-32550273D01*
X19894811Y-32550269D01*
X19894811Y-32550266D01*
X19801913Y-32376467D01*
X19801909Y-32376460D01*
X19676883Y-32224116D01*
X19524539Y-32099090D01*
X19524532Y-32099086D01*
X19350733Y-32006188D01*
X19350727Y-32006186D01*
X19224997Y-31968046D01*
X19162129Y-31948975D01*
X18966000Y-31929659D01*
X18769870Y-31948975D01*
X18581266Y-32006188D01*
X18407467Y-32099086D01*
X18407460Y-32099090D01*
X18255118Y-32224114D01*
X18244736Y-32236766D01*
X18186990Y-32276100D01*
X18148884Y-32282100D01*
X13567693Y-32282100D01*
X13441561Y-32307189D01*
X13441555Y-32307191D01*
X13367575Y-32337835D01*
X13322736Y-32356407D01*
X13215798Y-32427860D01*
X13215795Y-32427863D01*
X11619878Y-34023781D01*
X11558555Y-34057266D01*
X11532197Y-34060100D01*
X9254802Y-34060100D01*
X9187763Y-34040415D01*
X9167121Y-34023781D01*
X8711719Y-33568378D01*
X8678234Y-33507055D01*
X8675400Y-33480697D01*
X8675400Y-33277447D01*
X8695085Y-33210408D01*
X8734302Y-33171909D01*
X8828656Y-33113712D01*
X8952712Y-32989656D01*
X8954752Y-32986347D01*
X8956745Y-32984555D01*
X8957193Y-32983989D01*
X8957289Y-32984065D01*
X9006694Y-32939623D01*
X9075656Y-32928395D01*
X9139740Y-32956234D01*
X9165829Y-32986339D01*
X9167681Y-32989341D01*
X9167683Y-32989344D01*
X9291654Y-33113315D01*
X9440875Y-33205356D01*
X9440880Y-33205358D01*
X9607302Y-33260505D01*
X9607309Y-33260506D01*
X9710019Y-33270999D01*
X9847499Y-33270999D01*
X10347500Y-33270999D01*
X10484972Y-33270999D01*
X10484986Y-33270998D01*
X10587697Y-33260505D01*
X10754119Y-33205358D01*
X10754124Y-33205356D01*
X10903345Y-33113315D01*
X11027315Y-32989345D01*
X11119356Y-32840124D01*
X11119358Y-32840119D01*
X11174505Y-32673697D01*
X11174506Y-32673690D01*
X11184999Y-32570986D01*
X11185000Y-32570973D01*
X11185000Y-32296000D01*
X10347500Y-32296000D01*
X10347500Y-33270999D01*
X9847499Y-33270999D01*
X9847500Y-33270998D01*
X9847500Y-31796000D01*
X10347500Y-31796000D01*
X11184999Y-31796000D01*
X11184999Y-31521028D01*
X11184998Y-31521013D01*
X11174505Y-31418302D01*
X11119358Y-31251880D01*
X11119356Y-31251875D01*
X11027315Y-31102654D01*
X10903345Y-30978684D01*
X10754124Y-30886643D01*
X10754119Y-30886641D01*
X10587697Y-30831494D01*
X10587690Y-30831493D01*
X10484986Y-30821000D01*
X10347500Y-30821000D01*
X10347500Y-31796000D01*
X9847500Y-31796000D01*
X9847500Y-30821000D01*
X9710027Y-30821000D01*
X9710012Y-30821001D01*
X9607302Y-30831494D01*
X9440880Y-30886641D01*
X9440875Y-30886643D01*
X9291654Y-30978684D01*
X9167683Y-31102655D01*
X9167679Y-31102660D01*
X9165826Y-31105665D01*
X9164018Y-31107290D01*
X9163202Y-31108323D01*
X9163025Y-31108183D01*
X9113874Y-31152385D01*
X9044911Y-31163601D01*
X8980831Y-31135752D01*
X8954753Y-31105653D01*
X8954737Y-31105628D01*
X8952712Y-31102344D01*
X8828656Y-30978288D01*
X8679334Y-30886186D01*
X8512797Y-30831001D01*
X8512795Y-30831000D01*
X8410010Y-30820500D01*
X7634998Y-30820500D01*
X7634980Y-30820501D01*
X7532203Y-30831000D01*
X7532200Y-30831001D01*
X7365668Y-30886185D01*
X7365663Y-30886187D01*
X7216342Y-30978289D01*
X7092289Y-31102342D01*
X7000187Y-31251663D01*
X7000186Y-31251666D01*
X6981484Y-31308105D01*
X6941710Y-31365550D01*
X6877194Y-31392372D01*
X6863778Y-31393100D01*
X5998041Y-31393100D01*
X5931002Y-31373415D01*
X5896466Y-31340223D01*
X5780494Y-31174597D01*
X5613402Y-31007506D01*
X5613395Y-31007501D01*
X5419834Y-30871967D01*
X5419830Y-30871965D01*
X5344753Y-30836956D01*
X5205663Y-30772097D01*
X5205659Y-30772096D01*
X5205655Y-30772094D01*
X4977413Y-30710938D01*
X4977403Y-30710936D01*
X4742001Y-30690341D01*
X4741999Y-30690341D01*
X4506596Y-30710936D01*
X4506586Y-30710938D01*
X4278344Y-30772094D01*
X4278335Y-30772098D01*
X4064171Y-30871964D01*
X4064169Y-30871965D01*
X3870597Y-31007505D01*
X3703505Y-31174597D01*
X3573575Y-31360158D01*
X3518998Y-31403783D01*
X3449500Y-31410977D01*
X3387145Y-31379454D01*
X3370425Y-31360158D01*
X3240494Y-31174597D01*
X3073402Y-31007506D01*
X3073401Y-31007505D01*
X2907776Y-30891533D01*
X2864152Y-30836956D01*
X2854900Y-30789958D01*
X2854900Y-28938802D01*
X2874585Y-28871763D01*
X2891219Y-28851121D01*
X4087121Y-27655219D01*
X4148444Y-27621734D01*
X4165286Y-27619923D01*
X4165245Y-27619497D01*
X4171307Y-27618900D01*
X4256165Y-27602019D01*
X4297444Y-27593809D01*
X4416264Y-27544592D01*
X4425673Y-27538305D01*
X4523200Y-27473141D01*
X7789140Y-24207200D01*
X7860592Y-24100264D01*
X7909809Y-23981444D01*
X7912669Y-23967062D01*
X7912670Y-23967062D01*
X7912670Y-23967059D01*
X7934900Y-23855305D01*
X7934900Y-10396802D01*
X7954585Y-10329763D01*
X7971219Y-10309121D01*
X8278121Y-10002219D01*
X8339444Y-9968734D01*
X8365802Y-9965900D01*
X18910884Y-9965900D01*
X18977923Y-9985585D01*
X19006736Y-10011234D01*
X19017118Y-10023885D01*
X19169460Y-10148909D01*
X19169467Y-10148913D01*
X19343266Y-10241811D01*
X19343269Y-10241811D01*
X19343273Y-10241814D01*
X19531868Y-10299024D01*
X19728000Y-10318341D01*
X19924132Y-10299024D01*
X20112727Y-10241814D01*
X20123545Y-10236032D01*
X20286532Y-10148913D01*
X20286538Y-10148910D01*
X20438883Y-10023883D01*
X20563910Y-9871538D01*
X20629267Y-9749264D01*
X20656812Y-9697731D01*
X20656812Y-9697730D01*
X20656814Y-9697727D01*
X20698603Y-9559966D01*
X20736898Y-9501531D01*
X20800711Y-9473075D01*
X20869778Y-9483635D01*
X20904943Y-9508284D01*
X21632692Y-10236032D01*
X21666177Y-10297355D01*
X21661193Y-10367046D01*
X21659572Y-10371165D01*
X21640192Y-10417951D01*
X21640189Y-10417961D01*
X21615100Y-10544092D01*
X21615100Y-10544095D01*
X21615100Y-31856305D01*
X21615100Y-31856307D01*
X21615099Y-31856307D01*
X21640040Y-31981688D01*
X21640041Y-31981688D01*
X21640191Y-31982445D01*
X21685156Y-32091000D01*
X21689408Y-32101264D01*
X21760859Y-32208200D01*
X21760862Y-32208204D01*
X21760863Y-32208205D01*
X24557995Y-35005336D01*
X24557998Y-35005339D01*
X24648624Y-35065893D01*
X24648625Y-35065894D01*
X24664927Y-35076787D01*
X24664935Y-35076791D01*
X24664936Y-35076792D01*
X24783756Y-35126009D01*
X24783760Y-35126009D01*
X24783761Y-35126010D01*
X24909892Y-35151100D01*
X24909895Y-35151100D01*
X36644107Y-35151100D01*
X36728965Y-35134219D01*
X36770244Y-35126009D01*
X36889064Y-35076792D01*
X36889069Y-35076788D01*
X36889072Y-35076787D01*
X36905375Y-35065894D01*
X36905377Y-35065892D01*
X36905378Y-35065891D01*
X36996000Y-35005341D01*
X39793141Y-32208199D01*
X39864592Y-32101264D01*
X39864701Y-32101001D01*
X39913809Y-31982444D01*
X39934443Y-31878711D01*
X42149500Y-31878711D01*
X42149500Y-32121288D01*
X42180453Y-32356408D01*
X42181162Y-32361789D01*
X42184073Y-32372654D01*
X42243947Y-32596104D01*
X42336773Y-32820205D01*
X42336776Y-32820212D01*
X42458064Y-33030289D01*
X42458066Y-33030292D01*
X42458067Y-33030293D01*
X42605733Y-33222736D01*
X42605736Y-33222740D01*
X42777256Y-33394260D01*
X42777263Y-33394266D01*
X42886648Y-33478200D01*
X42969711Y-33541936D01*
X43179788Y-33663224D01*
X43403900Y-33756054D01*
X43638211Y-33818838D01*
X43817687Y-33842466D01*
X43878711Y-33850500D01*
X43878712Y-33850500D01*
X44121289Y-33850500D01*
X44182313Y-33842466D01*
X44361789Y-33818838D01*
X44596100Y-33756054D01*
X44820212Y-33663224D01*
X45030289Y-33541936D01*
X45222738Y-33394265D01*
X45301003Y-33316000D01*
X45394264Y-33222740D01*
X45394265Y-33222738D01*
X45541936Y-33030289D01*
X45663224Y-32820212D01*
X45756054Y-32596100D01*
X45818838Y-32361789D01*
X45850500Y-32121288D01*
X45850500Y-31878712D01*
X45818838Y-31638211D01*
X45756054Y-31403900D01*
X45663224Y-31179788D01*
X45541936Y-30969711D01*
X45458012Y-30860339D01*
X45394266Y-30777263D01*
X45394260Y-30777256D01*
X45222743Y-30605739D01*
X45222736Y-30605733D01*
X45030293Y-30458067D01*
X45030292Y-30458066D01*
X45030289Y-30458064D01*
X44820212Y-30336776D01*
X44820205Y-30336773D01*
X44596104Y-30243947D01*
X44361785Y-30181161D01*
X44121289Y-30149500D01*
X44121288Y-30149500D01*
X43878712Y-30149500D01*
X43878711Y-30149500D01*
X43638214Y-30181161D01*
X43403895Y-30243947D01*
X43179794Y-30336773D01*
X43179785Y-30336777D01*
X42969706Y-30458067D01*
X42777263Y-30605733D01*
X42777256Y-30605739D01*
X42605739Y-30777256D01*
X42605733Y-30777263D01*
X42458067Y-30969706D01*
X42458064Y-30969710D01*
X42458064Y-30969711D01*
X42447184Y-30988555D01*
X42336777Y-31179785D01*
X42336773Y-31179794D01*
X42243947Y-31403895D01*
X42227559Y-31465055D01*
X42181162Y-31638211D01*
X42181162Y-31638213D01*
X42149500Y-31878711D01*
X39934443Y-31878711D01*
X39938900Y-31856305D01*
X39938900Y4086305D01*
X39938900Y4086308D01*
X39913810Y4212439D01*
X39913809Y4212440D01*
X39913809Y4212444D01*
X39864592Y4331264D01*
X39845769Y4359435D01*
X39793140Y4438200D01*
X39793138Y4438203D01*
X38552819Y5678522D01*
X38519334Y5739845D01*
X38516500Y5766203D01*
X38516500Y12082198D01*
X38536185Y12149237D01*
X38552819Y12169879D01*
X39793138Y13410198D01*
X39793140Y13410200D01*
X39864592Y13517136D01*
X39913809Y13635956D01*
X39935418Y13744592D01*
X39935419Y13744596D01*
X39938900Y13762091D01*
X39938900Y22474413D01*
X39913810Y22600544D01*
X39913809Y22600545D01*
X39913809Y22600549D01*
X39864592Y22719369D01*
X39864591Y22719370D01*
X39864588Y22719376D01*
X39801820Y22813314D01*
X39801817Y22813318D01*
X39793140Y22826305D01*
X38430710Y24188737D01*
X38430709Y24188738D01*
X38430705Y24188741D01*
X38323769Y24260192D01*
X38277626Y24279305D01*
X38204949Y24309409D01*
X38204946Y24309410D01*
X38197320Y24310927D01*
X38189693Y24312444D01*
X38189691Y24312445D01*
X38189691Y24312444D01*
X38078812Y24334500D01*
X38078810Y24334500D01*
X37469371Y24334500D01*
X37402332Y24354185D01*
X37356577Y24406989D01*
X37346633Y24476147D01*
X37375658Y24539703D01*
X37378861Y24543004D01*
X37378784Y24543075D01*
X37382255Y24546847D01*
X37382258Y24546848D01*
X37550678Y24729801D01*
X37686687Y24937979D01*
X37786577Y25165705D01*
X37847622Y25406765D01*
X37867777Y25650000D01*
X37868157Y25654581D01*
X37868157Y25654592D01*
X37847623Y25902399D01*
X37847621Y25902411D01*
X37786577Y26143468D01*
X37686687Y26371193D01*
X37550680Y26579369D01*
X37438912Y26700781D01*
X37382258Y26762324D01*
X37186023Y26915060D01*
X37186021Y26915061D01*
X37186020Y26915062D01*
X36967325Y27033414D01*
X36967316Y27033417D01*
X36732130Y27114157D01*
X36486849Y27155086D01*
X36238179Y27155086D01*
X35992897Y27114157D01*
X35757711Y27033417D01*
X35757702Y27033414D01*
X35539007Y26915062D01*
X35515723Y26896939D01*
X35342770Y26762324D01*
X35342648Y26762191D01*
X35174347Y26579369D01*
X35035536Y26366900D01*
X35034299Y26367708D01*
X34989830Y26322888D01*
X34929977Y26307486D01*
X31295051Y26307486D01*
X31228012Y26327171D01*
X31190535Y26367582D01*
X31189492Y26366900D01*
X31050680Y26579369D01*
X30938912Y26700781D01*
X30882258Y26762324D01*
X30686023Y26915060D01*
X30686022Y26915061D01*
X30686019Y26915063D01*
X30686012Y26915067D01*
X30580396Y26972224D01*
X30530806Y27021443D01*
X30515414Y27081278D01*
X30515414Y28709361D01*
X30517796Y28733549D01*
X30540900Y28849695D01*
X30540900Y28978305D01*
X30540900Y28978308D01*
X30515810Y29104439D01*
X30515809Y29104440D01*
X30515809Y29104444D01*
X30466592Y29223264D01*
X30395141Y29330200D01*
X30395139Y29330202D01*
X30395137Y29330205D01*
X30299881Y29425461D01*
X30299858Y29425482D01*
X29118205Y30607137D01*
X29118204Y30607138D01*
X29118200Y30607141D01*
X29011264Y30678592D01*
X28892444Y30727809D01*
X28892438Y30727811D01*
X28766307Y30752900D01*
X28766305Y30752900D01*
X3882537Y30752900D01*
X3815498Y30772585D01*
X3778021Y30812996D01*
X3776978Y30812314D01*
X3638166Y31024783D01*
X3616557Y31048256D01*
X3469744Y31207738D01*
X3273509Y31360474D01*
X3273508Y31360475D01*
X3273505Y31360477D01*
X3273498Y31360481D01*
X3167882Y31417638D01*
X3118292Y31466857D01*
X3102900Y31526692D01*
X3102900Y32121289D01*
X42149500Y32121289D01*
X42149500Y31878712D01*
X42181161Y31638215D01*
X42243947Y31403896D01*
X42325198Y31207739D01*
X42336776Y31179788D01*
X42458064Y30969711D01*
X42458066Y30969708D01*
X42458067Y30969707D01*
X42605733Y30777264D01*
X42605739Y30777257D01*
X42777256Y30605740D01*
X42777263Y30605734D01*
X42890321Y30518982D01*
X42969711Y30458064D01*
X43179788Y30336776D01*
X43403900Y30243946D01*
X43638211Y30181162D01*
X43818586Y30157416D01*
X43878711Y30149500D01*
X43878712Y30149500D01*
X44121289Y30149500D01*
X44169388Y30155833D01*
X44361789Y30181162D01*
X44596100Y30243946D01*
X44820212Y30336776D01*
X45030289Y30458064D01*
X45222738Y30605735D01*
X45394265Y30777262D01*
X45541936Y30969711D01*
X45663224Y31179788D01*
X45756054Y31403900D01*
X45818838Y31638211D01*
X45850500Y31878712D01*
X45850500Y32121288D01*
X45818838Y32361789D01*
X45756054Y32596100D01*
X45663224Y32820212D01*
X45541936Y33030289D01*
X45464751Y33130879D01*
X45394266Y33222737D01*
X45394260Y33222744D01*
X45222743Y33394261D01*
X45222736Y33394267D01*
X45030293Y33541933D01*
X45030292Y33541934D01*
X45030289Y33541936D01*
X44820212Y33663224D01*
X44819519Y33663511D01*
X44596104Y33756053D01*
X44361785Y33818839D01*
X44121289Y33850500D01*
X44121288Y33850500D01*
X43878712Y33850500D01*
X43878711Y33850500D01*
X43638214Y33818839D01*
X43403895Y33756053D01*
X43179794Y33663227D01*
X43179785Y33663223D01*
X42969706Y33541933D01*
X42777263Y33394267D01*
X42777256Y33394261D01*
X42605739Y33222744D01*
X42605733Y33222737D01*
X42458067Y33030294D01*
X42336777Y32820215D01*
X42336773Y32820206D01*
X42243947Y32596105D01*
X42181161Y32361786D01*
X42149500Y32121289D01*
X3102900Y32121289D01*
X3102900Y33429308D01*
X3077810Y33555439D01*
X3077809Y33555440D01*
X3077809Y33555444D01*
X3028592Y33674264D01*
X3022360Y33683591D01*
X3022359Y33683592D01*
X3000494Y33716315D01*
X2957139Y33781202D01*
X2957136Y33781205D01*
X840205Y35898137D01*
X840204Y35898138D01*
X840200Y35898141D01*
X733264Y35969592D01*
X614444Y36018809D01*
X614438Y36018811D01*
X488307Y36043900D01*
X488305Y36043900D01*
X-27326305Y36043900D01*
X-27326307Y36043900D01*
X-27452439Y36018811D01*
X-27452445Y36018809D01*
X-27571263Y35969593D01*
X-27678203Y35898139D01*
X-27678204Y35898138D01*
X-30055137Y33521206D01*
X-30055138Y33521205D01*
X-30116542Y33429305D01*
X-30116543Y33429306D01*
X-30126592Y33414266D01*
X-30175809Y33295445D01*
X-30175811Y33295439D01*
X-30200900Y33169308D01*
X-30200900Y26957559D01*
X-30220585Y26890520D01*
X-30248737Y26859706D01*
X-30379742Y26757740D01*
X-30548167Y26574783D01*
X-30684174Y26366607D01*
X-30784064Y26138882D01*
X-30845108Y25897825D01*
X-30845110Y25897813D01*
X-30865643Y25650006D01*
X-30865643Y25649995D01*
X-30845110Y25402188D01*
X-30845108Y25402176D01*
X-30784064Y25161119D01*
X-30684174Y24933394D01*
X-30548167Y24725218D01*
X-30548164Y24725215D01*
X-30379744Y24542262D01*
X-30183509Y24389526D01*
X-30183507Y24389525D01*
X-29979839Y24279305D01*
X-29964810Y24271172D01*
X-29729614Y24190429D01*
X-29484335Y24149500D01*
X-29235665Y24149500D01*
X-28990386Y24190429D01*
X-28755190Y24271172D01*
X-28536491Y24389526D01*
X-28340256Y24542262D01*
X-28171836Y24725215D01*
X-28100444Y24834489D01*
X-28033022Y24937686D01*
X-28031786Y24936879D01*
X-27987316Y24981698D01*
X-27927463Y24997100D01*
X-6995432Y24997100D01*
X-6928393Y24977415D01*
X-6882638Y24924611D01*
X-6872694Y24855453D01*
X-6901719Y24791897D01*
X-6917177Y24776912D01*
X-7087050Y24638711D01*
X-7283188Y24428701D01*
X-7448902Y24193936D01*
X-7581106Y23938794D01*
X-7677333Y23668038D01*
X-7677334Y23668035D01*
X-7735799Y23386681D01*
X-7755408Y23100000D01*
X-7735799Y22813320D01*
X-7677334Y22531966D01*
X-7677333Y22531963D01*
X-7581109Y22261214D01*
X-7581107Y22261207D01*
X-7448902Y22006065D01*
X-7283188Y21771300D01*
X-7198077Y21680169D01*
X-7087053Y21561292D01*
X-6864147Y21379945D01*
X-6785378Y21332044D01*
X-6618618Y21230635D01*
X-6432989Y21150006D01*
X-6355058Y21116156D01*
X-6078358Y21038629D01*
X-5828080Y21004229D01*
X-5793679Y20999500D01*
X-5793678Y20999500D01*
X-5506321Y20999500D01*
X-5475630Y21003719D01*
X-5221642Y21038629D01*
X-4944942Y21116156D01*
X-4831985Y21165221D01*
X-4681383Y21230635D01*
X-4681380Y21230637D01*
X-4681375Y21230639D01*
X-4435853Y21379945D01*
X-4212947Y21561292D01*
X-4016811Y21771302D01*
X-3851099Y22006064D01*
X-3718896Y22261203D01*
X-3718896Y22261204D01*
X-3718894Y22261207D01*
X-3718891Y22261214D01*
X-3622668Y22531963D01*
X-3622667Y22531966D01*
X-3622666Y22531968D01*
X-3564202Y22813314D01*
X-3544592Y23100000D01*
X-3564202Y23386686D01*
X-3622666Y23668032D01*
X-3718895Y23938794D01*
X-3718894Y23938794D01*
X-3851099Y24193936D01*
X-4016813Y24428701D01*
X-4127156Y24546848D01*
X-4212947Y24638708D01*
X-4382824Y24776913D01*
X-4422403Y24834489D01*
X-4424572Y24904325D01*
X-4388641Y24964247D01*
X-4326016Y24995231D01*
X-4304568Y24997100D01*
X-1713803Y24997100D01*
X-1646764Y24977415D01*
X-1626122Y24960781D01*
X-739219Y24073879D01*
X-705734Y24012556D01*
X-702900Y23986198D01*
X-702900Y17026692D01*
X-722585Y16959653D01*
X-767882Y16917638D01*
X-873503Y16860479D01*
X-873517Y16860469D01*
X-929412Y16816965D01*
X-994406Y16791323D01*
X-1062946Y16804890D01*
X-1104840Y16840508D01*
X-1106204Y16842330D01*
X-1106204Y16842331D01*
X-1192454Y16957546D01*
X-1239841Y16993020D01*
X-1307665Y17043794D01*
X-1307672Y17043798D01*
X-1442518Y17094092D01*
X-1442517Y17094092D01*
X-1502117Y17100499D01*
X-1502119Y17100500D01*
X-1502127Y17100500D01*
X-1502136Y17100500D01*
X-3597871Y17100500D01*
X-3597877Y17100499D01*
X-3657484Y17094092D01*
X-3792329Y17043798D01*
X-3792336Y17043794D01*
X-3907545Y16957548D01*
X-3907548Y16957545D01*
X-3993794Y16842336D01*
X-3993798Y16842329D01*
X-4044092Y16707483D01*
X-4050499Y16647884D01*
X-4050500Y16647865D01*
X-4050500Y14552130D01*
X-4050499Y14552124D01*
X-4044092Y14492517D01*
X-3993798Y14357672D01*
X-3993794Y14357665D01*
X-3907548Y14242456D01*
X-3907545Y14242453D01*
X-3792336Y14156207D01*
X-3792329Y14156203D01*
X-3747382Y14139439D01*
X-3657483Y14105909D01*
X-3597873Y14099500D01*
X-3400900Y14099501D01*
X-3333861Y14079817D01*
X-3288106Y14027013D01*
X-3276900Y13975501D01*
X-3276900Y13330222D01*
X-3296585Y13263183D01*
X-3349389Y13217428D01*
X-3361892Y13212518D01*
X-3418334Y13193814D01*
X-3418337Y13193813D01*
X-3567658Y13101711D01*
X-3691711Y12977658D01*
X-3749909Y12883303D01*
X-3801857Y12836579D01*
X-3855448Y12824400D01*
X-5889271Y12824400D01*
X-5956310Y12844085D01*
X-5972390Y12857043D01*
X-5972408Y12857019D01*
X-5974987Y12859136D01*
X-5976952Y12860719D01*
X-5977115Y12860882D01*
X-6129461Y12985910D01*
X-6129468Y12985914D01*
X-6303267Y13078812D01*
X-6303273Y13078814D01*
X-6491868Y13136024D01*
X-6491871Y13136025D01*
X-6688000Y13155341D01*
X-6884130Y13136025D01*
X-7072734Y13078812D01*
X-7246533Y12985914D01*
X-7246540Y12985910D01*
X-7398884Y12860884D01*
X-7523910Y12708540D01*
X-7523914Y12708533D01*
X-7616812Y12534734D01*
X-7674025Y12346130D01*
X-7693341Y12150000D01*
X-7674025Y11953871D01*
X-7674024Y11953868D01*
X-7622495Y11783999D01*
X-7616812Y11765267D01*
X-7523914Y11591468D01*
X-7523910Y11591461D01*
X-7398884Y11439117D01*
X-7246540Y11314091D01*
X-7246533Y11314087D01*
X-7072734Y11221189D01*
X-7072731Y11221189D01*
X-7072727Y11221186D01*
X-6884132Y11163976D01*
X-6688000Y11144659D01*
X-6491868Y11163976D01*
X-6303273Y11221186D01*
X-6129462Y11314090D01*
X-5977117Y11439117D01*
X-5960227Y11459697D01*
X-5949092Y11473265D01*
X-5891347Y11512599D01*
X-5853239Y11518600D01*
X-3855448Y11518600D01*
X-3788409Y11498915D01*
X-3749910Y11459698D01*
X-3691712Y11365344D01*
X-3567656Y11241288D01*
X-3564372Y11239263D01*
X-3564347Y11239247D01*
X-3562555Y11237254D01*
X-3561989Y11236807D01*
X-3562066Y11236711D01*
X-3517621Y11187301D01*
X-3506397Y11118339D01*
X-3534239Y11054256D01*
X-3564335Y11028174D01*
X-3567340Y11026321D01*
X-3567345Y11026317D01*
X-3691316Y10902346D01*
X-3783357Y10753125D01*
X-3783359Y10753120D01*
X-3838506Y10586698D01*
X-3838507Y10586691D01*
X-3849000Y10483987D01*
X-3849000Y10346500D01*
X-1399001Y10346500D01*
X-1399001Y10483972D01*
X-1399002Y10483987D01*
X-1409495Y10586698D01*
X-1464642Y10753120D01*
X-1464644Y10753125D01*
X-1556685Y10902346D01*
X-1680656Y11026317D01*
X-1680659Y11026319D01*
X-1683661Y11028171D01*
X-1685287Y11029979D01*
X-1686323Y11030798D01*
X-1686183Y11030976D01*
X-1730383Y11080120D01*
X-1741603Y11149083D01*
X-1713757Y11213164D01*
X-1683656Y11239246D01*
X-1680344Y11241288D01*
X-1556288Y11365344D01*
X-1464186Y11514666D01*
X-1409001Y11681203D01*
X-1398500Y11783991D01*
X-1398501Y12559008D01*
X-1400803Y12581540D01*
X-1409001Y12661797D01*
X-1409002Y12661800D01*
X-1413674Y12675900D01*
X-1464186Y12828334D01*
X-1556288Y12977656D01*
X-1680344Y13101712D01*
X-1829666Y13193814D01*
X-1886106Y13212517D01*
X-1943550Y13252290D01*
X-1970372Y13316806D01*
X-1971100Y13330222D01*
X-1971100Y13975501D01*
X-1951415Y14042540D01*
X-1898611Y14088295D01*
X-1847100Y14099501D01*
X-1502129Y14099501D01*
X-1502128Y14099501D01*
X-1442517Y14105909D01*
X-1307669Y14156204D01*
X-1192454Y14242454D01*
X-1106204Y14357669D01*
X-1106204Y14357671D01*
X-1104839Y14359493D01*
X-1048905Y14401364D01*
X-979213Y14406348D01*
X-929411Y14383036D01*
X-901594Y14361385D01*
X-873512Y14339528D01*
X-873508Y14339525D01*
X-812061Y14306272D01*
X-767883Y14282365D01*
X-718292Y14233146D01*
X-702900Y14173310D01*
X-702900Y9584803D01*
X-722585Y9517764D01*
X-739219Y9497122D01*
X-884922Y9351419D01*
X-946245Y9317934D01*
X-972603Y9315100D01*
X-1334270Y9315100D01*
X-1401309Y9334785D01*
X-1447064Y9387589D01*
X-1457008Y9456747D01*
X-1451976Y9478104D01*
X-1409495Y9606303D01*
X-1409494Y9606310D01*
X-1399001Y9709014D01*
X-1399000Y9709027D01*
X-1399000Y9846500D01*
X-3848999Y9846500D01*
X-3848999Y9709014D01*
X-3838506Y9606303D01*
X-3783359Y9439881D01*
X-3783357Y9439876D01*
X-3691316Y9290655D01*
X-3663953Y9263292D01*
X-3630468Y9201969D01*
X-3635452Y9132277D01*
X-3642275Y9117159D01*
X-3679813Y9046930D01*
X-3737025Y8858330D01*
X-3756341Y8662200D01*
X-3737025Y8466071D01*
X-3679812Y8277467D01*
X-3586914Y8103668D01*
X-3586910Y8103661D01*
X-3461884Y7951317D01*
X-3309540Y7826291D01*
X-3309533Y7826287D01*
X-3135734Y7733389D01*
X-3135731Y7733389D01*
X-3135727Y7733386D01*
X-2947132Y7676176D01*
X-2751000Y7656859D01*
X-2554868Y7676176D01*
X-2366273Y7733386D01*
X-2192462Y7826290D01*
X-2040117Y7951317D01*
X-2029736Y7963966D01*
X-1971990Y8003300D01*
X-1933884Y8009300D01*
X-586493Y8009300D01*
X-501635Y8026181D01*
X-460356Y8034391D01*
X-341536Y8083608D01*
X-341531Y8083612D01*
X-341528Y8083613D01*
X-332001Y8089980D01*
X-311523Y8103662D01*
X-234600Y8155059D01*
X457141Y8846801D01*
X528593Y8953737D01*
X555830Y9019494D01*
X567193Y9046926D01*
X567193Y9046927D01*
X567194Y9046930D01*
X577809Y9072556D01*
X586681Y9117159D01*
X602900Y9198693D01*
X602900Y9709014D01*
X977001Y9709014D01*
X987494Y9606303D01*
X1042641Y9439881D01*
X1042643Y9439876D01*
X1134684Y9290655D01*
X1258654Y9166685D01*
X1407875Y9074644D01*
X1407880Y9074642D01*
X1574302Y9019495D01*
X1574309Y9019494D01*
X1677019Y9009001D01*
X1951999Y9009001D01*
X2452000Y9009001D01*
X2726972Y9009001D01*
X2726986Y9009002D01*
X2829697Y9019495D01*
X2996119Y9074642D01*
X2996124Y9074644D01*
X3145345Y9166685D01*
X3269315Y9290655D01*
X3361356Y9439876D01*
X3361358Y9439881D01*
X3416505Y9606303D01*
X3416506Y9606310D01*
X3426999Y9709014D01*
X3427000Y9709027D01*
X3427000Y9846500D01*
X2452000Y9846500D01*
X2452000Y9009001D01*
X1951999Y9009001D01*
X1952000Y9009002D01*
X1952000Y9846500D01*
X977001Y9846500D01*
X977001Y9709014D01*
X602900Y9709014D01*
X602900Y14173310D01*
X622585Y14240349D01*
X667882Y14282365D01*
X773509Y14339526D01*
X969744Y14492262D01*
X1108772Y14643288D01*
X1168657Y14679276D01*
X1238495Y14677176D01*
X1291226Y14643289D01*
X1430256Y14492262D01*
X1501263Y14436995D01*
X1542075Y14380287D01*
X1549100Y14339143D01*
X1549100Y13330222D01*
X1529415Y13263183D01*
X1476611Y13217428D01*
X1464108Y13212518D01*
X1407666Y13193814D01*
X1407663Y13193813D01*
X1258342Y13101711D01*
X1134289Y12977658D01*
X1042187Y12828337D01*
X1042186Y12828334D01*
X987001Y12661797D01*
X987001Y12661796D01*
X987000Y12661796D01*
X976500Y12559017D01*
X976500Y11783999D01*
X976501Y11783981D01*
X987000Y11681204D01*
X987001Y11681201D01*
X1042185Y11514669D01*
X1042187Y11514664D01*
X1076091Y11459697D01*
X1134288Y11365344D01*
X1258344Y11241288D01*
X1261628Y11239263D01*
X1261653Y11239247D01*
X1263445Y11237254D01*
X1264011Y11236807D01*
X1263934Y11236711D01*
X1308379Y11187301D01*
X1319603Y11118339D01*
X1291761Y11054256D01*
X1261665Y11028174D01*
X1258660Y11026321D01*
X1258655Y11026317D01*
X1134684Y10902346D01*
X1042643Y10753125D01*
X1042641Y10753120D01*
X987494Y10586698D01*
X987493Y10586691D01*
X977000Y10483987D01*
X977000Y10346500D01*
X3426999Y10346500D01*
X3426999Y10483972D01*
X3426998Y10483987D01*
X3416505Y10586698D01*
X3361358Y10753120D01*
X3361356Y10753125D01*
X3269315Y10902346D01*
X3145344Y11026317D01*
X3145341Y11026319D01*
X3142339Y11028171D01*
X3140713Y11029979D01*
X3139677Y11030798D01*
X3139817Y11030976D01*
X3095617Y11080120D01*
X3084397Y11149083D01*
X3112243Y11213164D01*
X3142344Y11239246D01*
X3145656Y11241288D01*
X3238150Y11333782D01*
X3299474Y11367266D01*
X3325831Y11370100D01*
X6845884Y11370100D01*
X6912923Y11350415D01*
X6941736Y11324766D01*
X6952118Y11312115D01*
X7104460Y11187091D01*
X7104467Y11187087D01*
X7278266Y11094189D01*
X7278269Y11094189D01*
X7278273Y11094186D01*
X7466868Y11036976D01*
X7663000Y11017659D01*
X7859132Y11036976D01*
X8047727Y11094186D01*
X8221538Y11187090D01*
X8373883Y11312117D01*
X8498910Y11464462D01*
X8545362Y11551368D01*
X8591811Y11638267D01*
X8591811Y11638268D01*
X8591814Y11638273D01*
X8649024Y11826868D01*
X8668341Y12023000D01*
X8649024Y12219132D01*
X8591814Y12407727D01*
X8591811Y12407731D01*
X8591811Y12407734D01*
X8498913Y12581533D01*
X8498909Y12581540D01*
X8373883Y12733884D01*
X8221539Y12858910D01*
X8221532Y12858914D01*
X8047733Y12951812D01*
X8047727Y12951814D01*
X7859132Y13009024D01*
X7859129Y13009025D01*
X7663000Y13028341D01*
X7466870Y13009025D01*
X7278266Y12951812D01*
X7104467Y12858914D01*
X7104460Y12858910D01*
X6952118Y12733886D01*
X6941736Y12721234D01*
X6883990Y12681900D01*
X6845884Y12675900D01*
X3501867Y12675900D01*
X3434828Y12695585D01*
X3389073Y12748389D01*
X3384161Y12760895D01*
X3361814Y12828334D01*
X3269712Y12977656D01*
X3145656Y13101712D01*
X2996334Y13193814D01*
X2939894Y13212517D01*
X2882450Y13252290D01*
X2855628Y13316806D01*
X2854900Y13330222D01*
X2854900Y14064009D01*
X2874585Y14131048D01*
X2927389Y14176803D01*
X2938637Y14181290D01*
X2949214Y14184921D01*
X3054810Y14221172D01*
X3273509Y14339526D01*
X3469744Y14492262D01*
X3638164Y14675215D01*
X3774173Y14883393D01*
X3874063Y15111119D01*
X3935108Y15352179D01*
X3935109Y15352188D01*
X3955643Y15599995D01*
X3955643Y15600006D01*
X3935109Y15847813D01*
X3935107Y15847825D01*
X3874063Y16088882D01*
X3774173Y16316607D01*
X3638166Y16524783D01*
X3608769Y16556716D01*
X3469744Y16707738D01*
X3273509Y16860474D01*
X3273507Y16860475D01*
X3273506Y16860476D01*
X3054811Y16978828D01*
X3054802Y16978831D01*
X2819616Y17059571D01*
X2574335Y17100500D01*
X2325665Y17100500D01*
X2080383Y17059571D01*
X1845197Y16978831D01*
X1845188Y16978828D01*
X1626493Y16860476D01*
X1430255Y16707738D01*
X1430252Y16707735D01*
X1291229Y16556716D01*
X1231342Y16520725D01*
X1161504Y16522826D01*
X1108771Y16556716D01*
X969747Y16707735D01*
X969744Y16707738D01*
X773505Y16860477D01*
X773498Y16860481D01*
X667882Y16917638D01*
X618292Y16966857D01*
X602900Y17026692D01*
X602900Y23100000D01*
X3444592Y23100000D01*
X3464201Y22813320D01*
X3522666Y22531966D01*
X3522667Y22531963D01*
X3618891Y22261214D01*
X3618893Y22261207D01*
X3751098Y22006065D01*
X3916812Y21771300D01*
X4001923Y21680169D01*
X4112947Y21561292D01*
X4335853Y21379945D01*
X4414622Y21332044D01*
X4581382Y21230635D01*
X4767011Y21150006D01*
X4844942Y21116156D01*
X5121642Y21038629D01*
X5371920Y21004229D01*
X5406321Y20999500D01*
X5406322Y20999500D01*
X5693679Y20999500D01*
X5724370Y21003719D01*
X5978358Y21038629D01*
X6255058Y21116156D01*
X6368015Y21165221D01*
X6518617Y21230635D01*
X6518620Y21230637D01*
X6518625Y21230639D01*
X6764147Y21379945D01*
X6987053Y21561292D01*
X7183189Y21771302D01*
X7348901Y22006064D01*
X7481104Y22261203D01*
X7481104Y22261204D01*
X7481106Y22261207D01*
X7481109Y22261214D01*
X7577332Y22531963D01*
X7577333Y22531966D01*
X7577334Y22531968D01*
X7635798Y22813314D01*
X7655408Y23100000D01*
X7635798Y23386686D01*
X7577334Y23668032D01*
X7481105Y23938794D01*
X7481106Y23938794D01*
X7348901Y24193936D01*
X7183187Y24428701D01*
X7072844Y24546848D01*
X6987053Y24638708D01*
X6764147Y24820055D01*
X6764146Y24820056D01*
X6518617Y24969366D01*
X6255063Y25083842D01*
X6255061Y25083843D01*
X6255058Y25083844D01*
X6125578Y25120123D01*
X5978364Y25161370D01*
X5978359Y25161371D01*
X5978358Y25161371D01*
X5836018Y25180936D01*
X5693679Y25200500D01*
X5693678Y25200500D01*
X5406322Y25200500D01*
X5406321Y25200500D01*
X5121642Y25161371D01*
X5121635Y25161370D01*
X4913861Y25103155D01*
X4844942Y25083844D01*
X4844939Y25083844D01*
X4844936Y25083842D01*
X4844935Y25083842D01*
X4581382Y24969366D01*
X4335853Y24820056D01*
X4112950Y24638711D01*
X3916812Y24428701D01*
X3751098Y24193936D01*
X3618894Y23938794D01*
X3522667Y23668038D01*
X3522666Y23668035D01*
X3464201Y23386681D01*
X3444592Y23100000D01*
X602900Y23100000D01*
X602900Y23840147D01*
X620330Y23899510D01*
X618723Y23900369D01*
X621586Y23905729D01*
X621592Y23905736D01*
X670809Y24024556D01*
X695899Y24150695D01*
X695899Y24279305D01*
X670809Y24405444D01*
X621592Y24524264D01*
X550141Y24631200D01*
X550139Y24631202D01*
X550137Y24631205D01*
X454881Y24726461D01*
X454858Y24726482D01*
X-975795Y26157137D01*
X-975796Y26157138D01*
X-975800Y26157141D01*
X-1082736Y26228592D01*
X-1201556Y26277809D01*
X-1201562Y26277811D01*
X-1327693Y26302900D01*
X-1327695Y26302900D01*
X-27927463Y26302900D01*
X-27994502Y26322585D01*
X-28031979Y26362996D01*
X-28033022Y26362314D01*
X-28171834Y26574783D01*
X-28193443Y26598256D01*
X-28340256Y26757738D01*
X-28536491Y26910474D01*
X-28536493Y26910475D01*
X-28536494Y26910476D01*
X-28755189Y27028828D01*
X-28755198Y27028832D01*
X-28811363Y27048113D01*
X-28868379Y27088499D01*
X-28894509Y27153299D01*
X-28895100Y27165394D01*
X-28895100Y32783198D01*
X-28875415Y32850237D01*
X-28858781Y32870879D01*
X-28768646Y32961014D01*
X-5764999Y32961014D01*
X-5754506Y32858303D01*
X-5699359Y32691881D01*
X-5699357Y32691876D01*
X-5607316Y32542655D01*
X-5483346Y32418685D01*
X-5334125Y32326644D01*
X-5334120Y32326642D01*
X-5167698Y32271495D01*
X-5167691Y32271494D01*
X-5064981Y32261001D01*
X-4927501Y32261001D01*
X-4927500Y32261002D01*
X-4927500Y33236000D01*
X-5764999Y33236000D01*
X-5764999Y32961014D01*
X-28768646Y32961014D01*
X-27027879Y34701781D01*
X-26966556Y34735266D01*
X-26940198Y34738100D01*
X-5597923Y34738100D01*
X-5530884Y34718415D01*
X-5485129Y34665611D01*
X-5475185Y34596453D01*
X-5504210Y34532897D01*
X-5510242Y34526419D01*
X-5607316Y34429346D01*
X-5699357Y34280125D01*
X-5699359Y34280120D01*
X-5754506Y34113698D01*
X-5754507Y34113691D01*
X-5765000Y34010987D01*
X-5765000Y33736000D01*
X-4801500Y33736000D01*
X-4734461Y33716315D01*
X-4688706Y33663511D01*
X-4677500Y33612000D01*
X-4677500Y33486000D01*
X-4551500Y33486000D01*
X-4484461Y33466315D01*
X-4438706Y33413511D01*
X-4427500Y33362000D01*
X-4427500Y32261001D01*
X-4290028Y32261001D01*
X-4290014Y32261002D01*
X-4187303Y32271495D01*
X-4020881Y32326642D01*
X-4020876Y32326644D01*
X-3871655Y32418685D01*
X-3747682Y32542658D01*
X-3745835Y32545652D01*
X-3744031Y32547276D01*
X-3743202Y32548323D01*
X-3743024Y32548182D01*
X-3693890Y32592379D01*
X-3624927Y32603604D01*
X-3560844Y32575764D01*
X-3534757Y32545659D01*
X-3532712Y32542344D01*
X-3408656Y32418288D01*
X-3261803Y32327709D01*
X-3215079Y32275762D01*
X-3202900Y32222171D01*
X-3202900Y31526692D01*
X-3222585Y31459653D01*
X-3267882Y31417638D01*
X-3373499Y31360481D01*
X-3373506Y31360477D01*
X-3569743Y31207739D01*
X-3738167Y31024783D01*
X-3874174Y30816607D01*
X-3974064Y30588882D01*
X-4035108Y30347825D01*
X-4035110Y30347813D01*
X-4055643Y30100006D01*
X-4055643Y30099995D01*
X-4035110Y29852188D01*
X-4035108Y29852176D01*
X-3974064Y29611119D01*
X-3874174Y29383394D01*
X-3738167Y29175218D01*
X-3738164Y29175215D01*
X-3569744Y28992262D01*
X-3447236Y28896910D01*
X-3373512Y28839528D01*
X-3373508Y28839525D01*
X-3312061Y28806272D01*
X-3267883Y28782365D01*
X-3218292Y28733146D01*
X-3202900Y28673310D01*
X-3202900Y28267695D01*
X-3202900Y28267693D01*
X-3202901Y28267693D01*
X-3177811Y28141562D01*
X-3177809Y28141556D01*
X-3128592Y28022736D01*
X-3057141Y27915800D01*
X-3057138Y27915796D01*
X-3057137Y27915795D01*
X-2024204Y26882863D01*
X-2024203Y26882862D01*
X-2024200Y26882860D01*
X-1917264Y26811408D01*
X-1798444Y26762191D01*
X-1798440Y26762191D01*
X-1798439Y26762190D01*
X-1672308Y26737100D01*
X-1672305Y26737100D01*
X6198197Y26737100D01*
X6265236Y26717415D01*
X6285878Y26700781D01*
X9812198Y23174461D01*
X9812201Y23174459D01*
X9919137Y23103007D01*
X9988740Y23074177D01*
X10037956Y23053791D01*
X10037960Y23053791D01*
X10037961Y23053790D01*
X10164092Y23028700D01*
X10164095Y23028700D01*
X10292705Y23028700D01*
X15159998Y23028700D01*
X15227037Y23009015D01*
X15272792Y22956211D01*
X15282736Y22887053D01*
X15253711Y22823497D01*
X15247679Y22817019D01*
X13988463Y21557806D01*
X13988462Y21557805D01*
X13925686Y21463851D01*
X13925683Y21463847D01*
X13917010Y21450869D01*
X13917006Y21450862D01*
X13867791Y21332045D01*
X13867789Y21332039D01*
X13842700Y21205908D01*
X13842700Y7318843D01*
X13823015Y7251804D01*
X13770211Y7206049D01*
X13701053Y7196105D01*
X13647803Y7219561D01*
X13646865Y7218156D01*
X13641802Y7221539D01*
X13641800Y7221541D01*
X13534864Y7292992D01*
X13472454Y7318843D01*
X13416044Y7342209D01*
X13416038Y7342211D01*
X13289907Y7367300D01*
X13289905Y7367300D01*
X-9378584Y7367300D01*
X-9445623Y7386985D01*
X-9491378Y7439789D01*
X-9501322Y7508947D01*
X-9472297Y7572503D01*
X-9457249Y7587153D01*
X-9406117Y7629117D01*
X-9383349Y7656860D01*
X-9281090Y7781462D01*
X-9234638Y7868368D01*
X-9188189Y7955267D01*
X-9188189Y7955268D01*
X-9188186Y7955273D01*
X-9130976Y8143868D01*
X-9111659Y8340000D01*
X-9130976Y8536132D01*
X-9188186Y8724727D01*
X-9188189Y8724731D01*
X-9188189Y8724734D01*
X-9281087Y8898533D01*
X-9281091Y8898540D01*
X-9406117Y9050884D01*
X-9558461Y9175910D01*
X-9558468Y9175914D01*
X-9732267Y9268812D01*
X-9732273Y9268814D01*
X-9858003Y9306954D01*
X-9920871Y9326025D01*
X-10117000Y9345341D01*
X-10313130Y9326025D01*
X-10501734Y9268812D01*
X-10675533Y9175914D01*
X-10675540Y9175910D01*
X-10827882Y9050886D01*
X-10838264Y9038234D01*
X-10896010Y8998900D01*
X-10934116Y8992900D01*
X-19713884Y8992900D01*
X-19780923Y9012585D01*
X-19809736Y9038234D01*
X-19820119Y9050886D01*
X-19972461Y9175910D01*
X-19972468Y9175914D01*
X-20146267Y9268812D01*
X-20146273Y9268814D01*
X-20272003Y9306954D01*
X-20334871Y9326025D01*
X-20531000Y9345341D01*
X-20727130Y9326025D01*
X-20915734Y9268812D01*
X-21089533Y9175914D01*
X-21089540Y9175910D01*
X-21241884Y9050884D01*
X-21366910Y8898540D01*
X-21366914Y8898533D01*
X-21459812Y8724734D01*
X-21517025Y8536130D01*
X-21536341Y8340000D01*
X-21517025Y8143871D01*
X-21459812Y7955267D01*
X-21366914Y7781468D01*
X-21366910Y7781461D01*
X-21241884Y7629117D01*
X-21190751Y7587153D01*
X-21151417Y7529407D01*
X-21149546Y7459562D01*
X-21185734Y7399794D01*
X-21248490Y7369078D01*
X-21269416Y7367300D01*
X-28676067Y7367300D01*
X-28743106Y7386985D01*
X-28788861Y7439789D01*
X-28798805Y7508947D01*
X-28782811Y7550686D01*
X-28784278Y7551470D01*
X-28781409Y7556838D01*
X-28751471Y7629115D01*
X-28732191Y7675660D01*
X-28725324Y7710184D01*
X-28707100Y7801799D01*
X-28707100Y19723310D01*
X-28687415Y19790349D01*
X-28642118Y19832365D01*
X-28536491Y19889526D01*
X-28340256Y20042262D01*
X-28171836Y20225215D01*
X-28035827Y20433393D01*
X-27935937Y20661119D01*
X-27874892Y20902179D01*
X-27874453Y20907479D01*
X-27854357Y21149995D01*
X-27854357Y21150006D01*
X-27874891Y21397813D01*
X-27874893Y21397825D01*
X-27935937Y21638882D01*
X-28035827Y21866607D01*
X-28171834Y22074783D01*
X-28193443Y22098256D01*
X-28340256Y22257738D01*
X-28536491Y22410474D01*
X-28536493Y22410475D01*
X-28536494Y22410476D01*
X-28755189Y22528828D01*
X-28755198Y22528831D01*
X-28990384Y22609571D01*
X-29235665Y22650500D01*
X-29484335Y22650500D01*
X-29729617Y22609571D01*
X-29964803Y22528831D01*
X-29964812Y22528828D01*
X-30183507Y22410476D01*
X-30379743Y22257739D01*
X-30548167Y22074783D01*
X-30684174Y21866607D01*
X-30784064Y21638882D01*
X-30845108Y21397825D01*
X-30845110Y21397813D01*
X-30865643Y21150006D01*
X-30865643Y21149995D01*
X-30845110Y20902188D01*
X-30845108Y20902176D01*
X-30784064Y20661119D01*
X-30684174Y20433394D01*
X-30548167Y20225218D01*
X-30548164Y20225215D01*
X-30379744Y20042262D01*
X-30257236Y19946910D01*
X-30183512Y19889528D01*
X-30183508Y19889525D01*
X-30122061Y19856272D01*
X-30077883Y19832365D01*
X-30028292Y19783146D01*
X-30012900Y19723310D01*
X-30012900Y8187907D01*
X-30032585Y8120868D01*
X-30049219Y8100226D01*
X-31883195Y6266250D01*
X-32244645Y5904801D01*
X-32244646Y5904800D01*
X-32936797Y5212650D01*
X-32998120Y5179165D01*
X-33067812Y5184149D01*
X-33123745Y5226021D01*
X-33143138Y5264333D01*
X-33191186Y5422727D01*
X-33191188Y5422730D01*
X-33191188Y5422732D01*
X-33284087Y5596533D01*
X-33284091Y5596540D01*
X-33409117Y5748884D01*
X-33561461Y5873910D01*
X-33561468Y5873914D01*
X-33735267Y5966812D01*
X-33735273Y5966814D01*
X-33923868Y6024024D01*
X-33923871Y6024025D01*
X-34120000Y6043341D01*
X-34316130Y6024025D01*
X-34504734Y5966812D01*
X-34678533Y5873914D01*
X-34678540Y5873910D01*
X-34830884Y5748884D01*
X-34955910Y5596540D01*
X-34955914Y5596533D01*
X-35048812Y5422734D01*
X-35106025Y5234130D01*
X-35125341Y5038000D01*
X-35125341Y5037995D01*
X-35123738Y5021713D01*
X-35136759Y4953067D01*
X-35159460Y4921882D01*
X-38030737Y2050606D01*
X-38030743Y2050599D01*
X-38091187Y1960138D01*
X-38091186Y1960137D01*
X-38102192Y1943666D01*
X-38151409Y1824845D01*
X-38151411Y1824839D01*
X-38176500Y1698708D01*
X-49499501Y1698708D01*
X-49499501Y16705014D01*
X-39038999Y16705014D01*
X-39028506Y16602303D01*
X-38973359Y16435881D01*
X-38973357Y16435876D01*
X-38881316Y16286655D01*
X-38757346Y16162685D01*
X-38608125Y16070644D01*
X-38608120Y16070642D01*
X-38441698Y16015495D01*
X-38441691Y16015494D01*
X-38338981Y16005001D01*
X-38201501Y16005001D01*
X-38201500Y16005002D01*
X-38201500Y16980000D01*
X-39038999Y16980000D01*
X-39038999Y16705014D01*
X-49499501Y16705014D01*
X-49499501Y17754987D01*
X-39039000Y17754987D01*
X-39039000Y17480000D01*
X-38201500Y17480000D01*
X-38201500Y18455000D01*
X-37701500Y18455000D01*
X-37701500Y16005001D01*
X-37564028Y16005001D01*
X-37564014Y16005002D01*
X-37461303Y16015495D01*
X-37294881Y16070642D01*
X-37294876Y16070644D01*
X-37145655Y16162685D01*
X-37021682Y16286658D01*
X-37019835Y16289652D01*
X-37018031Y16291276D01*
X-37017202Y16292323D01*
X-37017024Y16292182D01*
X-36967890Y16336379D01*
X-36898927Y16347604D01*
X-36834844Y16319764D01*
X-36808757Y16289659D01*
X-36806712Y16286344D01*
X-36682656Y16162288D01*
X-36533334Y16070186D01*
X-36366797Y16015001D01*
X-36264009Y16004500D01*
X-35488992Y16004501D01*
X-35488984Y16004502D01*
X-35488981Y16004502D01*
X-35432698Y16010252D01*
X-35386203Y16015001D01*
X-35219666Y16070186D01*
X-35070344Y16162288D01*
X-34946288Y16286344D01*
X-34854186Y16435666D01*
X-34799001Y16602203D01*
X-34788500Y16704991D01*
X-34788501Y17755008D01*
X-34799001Y17857797D01*
X-34854186Y18024334D01*
X-34946288Y18173656D01*
X-35070344Y18297712D01*
X-35164698Y18355910D01*
X-35211421Y18407857D01*
X-35223600Y18461448D01*
X-35223600Y19714380D01*
X-35203915Y19781419D01*
X-35158617Y19823435D01*
X-35142116Y19832365D01*
X-35036491Y19889526D01*
X-34840256Y20042262D01*
X-34671836Y20225215D01*
X-34535827Y20433393D01*
X-34435937Y20661119D01*
X-34374892Y20902179D01*
X-34374453Y20907479D01*
X-34354357Y21149995D01*
X-34354357Y21150006D01*
X-34374891Y21397813D01*
X-34374893Y21397825D01*
X-34435937Y21638882D01*
X-34535827Y21866607D01*
X-34671834Y22074783D01*
X-34693443Y22098256D01*
X-34840256Y22257738D01*
X-35036491Y22410474D01*
X-35036493Y22410475D01*
X-35036494Y22410476D01*
X-35255189Y22528828D01*
X-35255198Y22528831D01*
X-35490384Y22609571D01*
X-35735665Y22650500D01*
X-35984335Y22650500D01*
X-36229617Y22609571D01*
X-36464803Y22528831D01*
X-36464812Y22528828D01*
X-36683507Y22410476D01*
X-36879743Y22257739D01*
X-37048167Y22074783D01*
X-37184174Y21866607D01*
X-37284064Y21638882D01*
X-37345108Y21397825D01*
X-37345110Y21397813D01*
X-37365643Y21150006D01*
X-37365643Y21149995D01*
X-37345110Y20902188D01*
X-37345108Y20902176D01*
X-37284064Y20661119D01*
X-37184174Y20433394D01*
X-37048167Y20225218D01*
X-37048164Y20225215D01*
X-36879744Y20042262D01*
X-36757236Y19946910D01*
X-36683512Y19889528D01*
X-36683508Y19889525D01*
X-36594383Y19841294D01*
X-36544792Y19792075D01*
X-36529400Y19732239D01*
X-36529400Y18461448D01*
X-36549085Y18394409D01*
X-36588303Y18355909D01*
X-36682658Y18297711D01*
X-36806712Y18173657D01*
X-36806717Y18173651D01*
X-36808759Y18170339D01*
X-36810753Y18168547D01*
X-36811193Y18167989D01*
X-36811289Y18168065D01*
X-36860709Y18123617D01*
X-36929672Y18112398D01*
X-36993753Y18140245D01*
X-37019832Y18170344D01*
X-37021681Y18173341D01*
X-37021684Y18173345D01*
X-37145655Y18297316D01*
X-37294876Y18389357D01*
X-37294881Y18389359D01*
X-37461303Y18444506D01*
X-37461310Y18444507D01*
X-37564014Y18455000D01*
X-37701500Y18455000D01*
X-38201500Y18455000D01*
X-38338973Y18455000D01*
X-38338988Y18454999D01*
X-38441698Y18444506D01*
X-38608120Y18389359D01*
X-38608125Y18389357D01*
X-38757346Y18297316D01*
X-38881316Y18173346D01*
X-38973357Y18024125D01*
X-38973359Y18024120D01*
X-39028506Y17857698D01*
X-39028507Y17857691D01*
X-39039000Y17754987D01*
X-49499501Y17754987D01*
X-49499501Y25650006D01*
X-37365643Y25650006D01*
X-37365643Y25649995D01*
X-37345110Y25402188D01*
X-37345108Y25402176D01*
X-37284064Y25161119D01*
X-37184174Y24933394D01*
X-37048167Y24725218D01*
X-37048164Y24725215D01*
X-36879744Y24542262D01*
X-36683509Y24389526D01*
X-36683507Y24389525D01*
X-36479839Y24279305D01*
X-36464810Y24271172D01*
X-36229614Y24190429D01*
X-35984335Y24149500D01*
X-35735665Y24149500D01*
X-35490386Y24190429D01*
X-35255190Y24271172D01*
X-35036491Y24389526D01*
X-34840256Y24542262D01*
X-34671836Y24725215D01*
X-34535827Y24933393D01*
X-34435937Y25161119D01*
X-34374892Y25402179D01*
X-34354357Y25650000D01*
X-34354737Y25654581D01*
X-34374891Y25897813D01*
X-34374893Y25897825D01*
X-34435937Y26138882D01*
X-34535827Y26366607D01*
X-34671834Y26574783D01*
X-34693443Y26598256D01*
X-34840256Y26757738D01*
X-35036491Y26910474D01*
X-35036493Y26910475D01*
X-35036494Y26910476D01*
X-35255189Y27028828D01*
X-35255198Y27028831D01*
X-35490384Y27109571D01*
X-35735665Y27150500D01*
X-35984335Y27150500D01*
X-36229617Y27109571D01*
X-36464803Y27028831D01*
X-36464812Y27028828D01*
X-36683507Y26910476D01*
X-36879743Y26757739D01*
X-37048167Y26574783D01*
X-37184174Y26366607D01*
X-37284064Y26138882D01*
X-37345108Y25897825D01*
X-37345110Y25897813D01*
X-37365643Y25650006D01*
X-49499501Y25650006D01*
X-49499501Y32121289D01*
X-45850500Y32121289D01*
X-45850500Y31878712D01*
X-45818839Y31638215D01*
X-45756053Y31403896D01*
X-45674802Y31207739D01*
X-45663224Y31179788D01*
X-45541936Y30969711D01*
X-45541934Y30969708D01*
X-45541933Y30969707D01*
X-45394267Y30777264D01*
X-45394261Y30777257D01*
X-45222744Y30605740D01*
X-45222737Y30605734D01*
X-45109679Y30518982D01*
X-45030289Y30458064D01*
X-44820212Y30336776D01*
X-44596100Y30243946D01*
X-44361789Y30181162D01*
X-44181414Y30157416D01*
X-44121289Y30149500D01*
X-44121288Y30149500D01*
X-43878711Y30149500D01*
X-43830612Y30155833D01*
X-43638211Y30181162D01*
X-43403900Y30243946D01*
X-43179788Y30336776D01*
X-42969711Y30458064D01*
X-42777262Y30605735D01*
X-42605735Y30777262D01*
X-42458064Y30969711D01*
X-42336776Y31179788D01*
X-42243946Y31403900D01*
X-42181162Y31638211D01*
X-42149500Y31878712D01*
X-42149500Y32121288D01*
X-42181162Y32361789D01*
X-42243946Y32596100D01*
X-42336776Y32820212D01*
X-42458064Y33030289D01*
X-42535249Y33130879D01*
X-42605734Y33222737D01*
X-42605740Y33222744D01*
X-42777257Y33394261D01*
X-42777264Y33394267D01*
X-42969707Y33541933D01*
X-42969708Y33541934D01*
X-42969711Y33541936D01*
X-43179788Y33663224D01*
X-43180481Y33663511D01*
X-43403896Y33756053D01*
X-43638215Y33818839D01*
X-43878711Y33850500D01*
X-43878712Y33850500D01*
X-44121288Y33850500D01*
X-44121289Y33850500D01*
X-44361786Y33818839D01*
X-44596105Y33756053D01*
X-44820206Y33663227D01*
X-44820215Y33663223D01*
X-45030294Y33541933D01*
X-45222737Y33394267D01*
X-45222744Y33394261D01*
X-45394261Y33222744D01*
X-45394267Y33222737D01*
X-45541933Y33030294D01*
X-45663223Y32820215D01*
X-45663227Y32820206D01*
X-45756053Y32596105D01*
X-45818839Y32361786D01*
X-45850500Y32121289D01*
X-49499501Y32121289D01*
X-49499501Y34996250D01*
X-49499275Y35003737D01*
X-49481730Y35293795D01*
X-49479925Y35308660D01*
X-49428221Y35590798D01*
X-49424637Y35605336D01*
X-49339305Y35879179D01*
X-49334003Y35893159D01*
X-49216270Y36154751D01*
X-49209325Y36167984D01*
X-49060921Y36413474D01*
X-49052434Y36425770D01*
X-48875521Y36651583D01*
X-48865606Y36662774D01*
X-48662775Y36865605D01*
X-48651584Y36875520D01*
X-48425771Y37052434D01*
X-48413475Y37060921D01*
X-48167990Y37209322D01*
X-48154745Y37216273D01*
X-47893159Y37334003D01*
X-47879178Y37339305D01*
X-47605332Y37424639D01*
X-47590803Y37428221D01*
X-47308657Y37479926D01*
X-47293800Y37481730D01*
X-47003753Y37499274D01*
X-46996266Y37499500D01*
X-46934108Y37499500D01*
X46934107Y37499500D01*
X46996248Y37499500D01*
X47003735Y37499274D01*
G37*
%TD.AperFunction*%
%TA.AperFunction,NonConductor*%
G36*
X18685836Y4136815D02*
G01*
X18706478Y4120181D01*
X19038781Y3787879D01*
X19072266Y3726556D01*
X19075100Y3700198D01*
X19075100Y-4177884D01*
X19055415Y-4244923D01*
X19029766Y-4273736D01*
X19017114Y-4284118D01*
X18892090Y-4436460D01*
X18892086Y-4436467D01*
X18799188Y-4610266D01*
X18741975Y-4798870D01*
X18722659Y-4995000D01*
X18741975Y-5191129D01*
X18799188Y-5379733D01*
X18892086Y-5553532D01*
X18892090Y-5553539D01*
X19017116Y-5705883D01*
X19169460Y-5830909D01*
X19169467Y-5830913D01*
X19226395Y-5861342D01*
X19276239Y-5910304D01*
X19291700Y-5978441D01*
X19267869Y-6044121D01*
X19212311Y-6086490D01*
X19167942Y-6094700D01*
X17832066Y-6094700D01*
X17765027Y-6075015D01*
X17719272Y-6022211D01*
X17709328Y-5953053D01*
X17722708Y-5912246D01*
X17735812Y-5887730D01*
X17735814Y-5887727D01*
X17793024Y-5699132D01*
X17812341Y-5503000D01*
X17793024Y-5306868D01*
X17735814Y-5118273D01*
X17704613Y-5059900D01*
X17687923Y-5028674D01*
X17673681Y-4960271D01*
X17698681Y-4895028D01*
X17754986Y-4853657D01*
X17762664Y-4851150D01*
X17827398Y-4832344D01*
X17968865Y-4748681D01*
X18085081Y-4632465D01*
X18168744Y-4490998D01*
X18202505Y-4374791D01*
X18214597Y-4333173D01*
X18214598Y-4333167D01*
X18217500Y-4296294D01*
X18217500Y-3864906D01*
X18214598Y-3828031D01*
X18208680Y-3807663D01*
X18168745Y-3670206D01*
X18168744Y-3670203D01*
X18168744Y-3670202D01*
X18085081Y-3528735D01*
X18085078Y-3528732D01*
X18080298Y-3522569D01*
X18082635Y-3520755D01*
X18055798Y-3471650D01*
X18060756Y-3401956D01*
X18081554Y-3369598D01*
X18079903Y-3368317D01*
X18084686Y-3362150D01*
X18168281Y-3220798D01*
X18214100Y-3063086D01*
X18214295Y-3060601D01*
X18214295Y-3060600D01*
X15269705Y-3060600D01*
X15269704Y-3060601D01*
X15269899Y-3063086D01*
X15315718Y-3220798D01*
X15399314Y-3362152D01*
X15404100Y-3368322D01*
X15401640Y-3370229D01*
X15428210Y-3418888D01*
X15423226Y-3488580D01*
X15402162Y-3521381D01*
X15403699Y-3522574D01*
X15398915Y-3528740D01*
X15315255Y-3670203D01*
X15315254Y-3670206D01*
X15269402Y-3828026D01*
X15269401Y-3828032D01*
X15266500Y-3864898D01*
X15266500Y-4296301D01*
X15269401Y-4333167D01*
X15269402Y-4333173D01*
X15315254Y-4490993D01*
X15315255Y-4490996D01*
X15398917Y-4632462D01*
X15398923Y-4632470D01*
X15515129Y-4748676D01*
X15515133Y-4748679D01*
X15515135Y-4748681D01*
X15656602Y-4832344D01*
X15698224Y-4844436D01*
X15814426Y-4878197D01*
X15820667Y-4879337D01*
X15820213Y-4881818D01*
X15875035Y-4902707D01*
X15916511Y-4958935D01*
X15921004Y-5028660D01*
X15909386Y-5059900D01*
X15878188Y-5118268D01*
X15820975Y-5306870D01*
X15801659Y-5503000D01*
X15820975Y-5699129D01*
X15820976Y-5699132D01*
X15856487Y-5816197D01*
X15878187Y-5887730D01*
X15891292Y-5912246D01*
X15905534Y-5980648D01*
X15880535Y-6045892D01*
X15824230Y-6087263D01*
X15781934Y-6094700D01*
X14390002Y-6094700D01*
X14322963Y-6075015D01*
X14277208Y-6022211D01*
X14267264Y-5953053D01*
X14296289Y-5889497D01*
X14302321Y-5883019D01*
X14393137Y-5792202D01*
X14393140Y-5792199D01*
X14464592Y-5685264D01*
X14513809Y-5566444D01*
X14538900Y-5440305D01*
X14538900Y-5057695D01*
X14538900Y-3279695D01*
X14538900Y-3279692D01*
X14513810Y-3153561D01*
X14513809Y-3153560D01*
X14513809Y-3153556D01*
X14493423Y-3104340D01*
X14480673Y-3073559D01*
X14464596Y-3034744D01*
X14464595Y-3034743D01*
X14464593Y-3034737D01*
X14393141Y-2927801D01*
X14393139Y-2927798D01*
X14393138Y-2927797D01*
X13768805Y-2303463D01*
X13768804Y-2303462D01*
X13768800Y-2303459D01*
X13661864Y-2232008D01*
X13543044Y-2182791D01*
X13543038Y-2182789D01*
X13416907Y-2157700D01*
X13416905Y-2157700D01*
X13313896Y-2157700D01*
X13246857Y-2138015D01*
X13201102Y-2085211D01*
X13191158Y-2016053D01*
X13207163Y-1970580D01*
X13218744Y-1950998D01*
X13264598Y-1793169D01*
X13267500Y-1756294D01*
X13267500Y-1324906D01*
X13264598Y-1288031D01*
X13218744Y-1130202D01*
X13207162Y-1110619D01*
X13189982Y-1042896D01*
X13212142Y-976633D01*
X13266608Y-932871D01*
X13313896Y-923500D01*
X13427790Y-923500D01*
X13451981Y-925883D01*
X13567690Y-948898D01*
X13567694Y-948899D01*
X13567695Y-948899D01*
X13696306Y-948899D01*
X13696307Y-948898D01*
X13822444Y-923809D01*
X13941264Y-874592D01*
X13943943Y-872802D01*
X14048200Y-803141D01*
X15002741Y151401D01*
X15074192Y258336D01*
X15123409Y377156D01*
X15137408Y447535D01*
X15139959Y460364D01*
X15172343Y522274D01*
X15233058Y556849D01*
X15302828Y553110D01*
X15359501Y512245D01*
X15368309Y499294D01*
X15398917Y447538D01*
X15403702Y441369D01*
X15401256Y439473D01*
X15427857Y390758D01*
X15422873Y321066D01*
X15402069Y288697D01*
X15403702Y287431D01*
X15398917Y281263D01*
X15315255Y139797D01*
X15315254Y139794D01*
X15269402Y-18026D01*
X15269401Y-18032D01*
X15266500Y-54898D01*
X15266500Y-486301D01*
X15269401Y-523167D01*
X15269402Y-523173D01*
X15315254Y-680993D01*
X15315255Y-680996D01*
X15315256Y-680998D01*
X15329456Y-705009D01*
X15398917Y-822462D01*
X15403702Y-828631D01*
X15401256Y-830527D01*
X15427857Y-879242D01*
X15422873Y-948934D01*
X15402069Y-981303D01*
X15403702Y-982569D01*
X15398917Y-988737D01*
X15315255Y-1130203D01*
X15315254Y-1130206D01*
X15269402Y-1288026D01*
X15269401Y-1288032D01*
X15266500Y-1324898D01*
X15266500Y-1756301D01*
X15269401Y-1793167D01*
X15269402Y-1793173D01*
X15315254Y-1950993D01*
X15315255Y-1950996D01*
X15398917Y-2092462D01*
X15403702Y-2098631D01*
X15401369Y-2100440D01*
X15428210Y-2149595D01*
X15423226Y-2219287D01*
X15402470Y-2251621D01*
X15404097Y-2252883D01*
X15399313Y-2259049D01*
X15315718Y-2400401D01*
X15269899Y-2558113D01*
X15269704Y-2560598D01*
X15269705Y-2560600D01*
X18214295Y-2560600D01*
X18214295Y-2560598D01*
X18214100Y-2558113D01*
X18168281Y-2400401D01*
X18084685Y-2259047D01*
X18079900Y-2252878D01*
X18082366Y-2250964D01*
X18055802Y-2202376D01*
X18060749Y-2132682D01*
X18081856Y-2099832D01*
X18080301Y-2098626D01*
X18085077Y-2092468D01*
X18085081Y-2092465D01*
X18168744Y-1950998D01*
X18214598Y-1793169D01*
X18217500Y-1756294D01*
X18217500Y-1324906D01*
X18214598Y-1288031D01*
X18168744Y-1130202D01*
X18085081Y-988735D01*
X18085078Y-988732D01*
X18080298Y-982569D01*
X18082750Y-980666D01*
X18056155Y-932021D01*
X18061104Y-862326D01*
X18081940Y-829904D01*
X18080298Y-828631D01*
X18085075Y-822470D01*
X18085081Y-822465D01*
X18168744Y-680998D01*
X18207689Y-546949D01*
X18214597Y-523173D01*
X18214598Y-523167D01*
X18217499Y-486301D01*
X18217500Y-486294D01*
X18217500Y-54906D01*
X18214598Y-18031D01*
X18213816Y-15340D01*
X18168745Y139794D01*
X18168744Y139797D01*
X18168744Y139798D01*
X18085081Y281265D01*
X18085078Y281268D01*
X18080298Y287431D01*
X18082750Y289334D01*
X18056155Y337979D01*
X18061104Y407674D01*
X18081940Y440096D01*
X18080298Y441369D01*
X18085077Y447531D01*
X18085081Y447535D01*
X18168744Y589002D01*
X18214598Y746831D01*
X18217500Y783706D01*
X18217500Y1215094D01*
X18214598Y1251969D01*
X18214431Y1252543D01*
X18178955Y1374653D01*
X18168744Y1409798D01*
X18085081Y1551265D01*
X18085078Y1551268D01*
X18080298Y1557431D01*
X18082750Y1559334D01*
X18056155Y1607979D01*
X18061104Y1677674D01*
X18081940Y1710096D01*
X18080298Y1711369D01*
X18085075Y1717530D01*
X18085081Y1717535D01*
X18168744Y1859002D01*
X18207025Y1990764D01*
X18214597Y2016827D01*
X18214598Y2016833D01*
X18217255Y2050599D01*
X18217500Y2053706D01*
X18217500Y2485094D01*
X18214598Y2521969D01*
X18202577Y2563344D01*
X18168745Y2679794D01*
X18168744Y2679797D01*
X18168744Y2679798D01*
X18085081Y2821265D01*
X18085078Y2821268D01*
X18080298Y2827431D01*
X18082750Y2829334D01*
X18056155Y2877979D01*
X18061104Y2947674D01*
X18081940Y2980096D01*
X18080298Y2981369D01*
X18085075Y2987530D01*
X18085081Y2987535D01*
X18168744Y3129002D01*
X18214598Y3286831D01*
X18217500Y3323706D01*
X18217500Y3755094D01*
X18214598Y3791969D01*
X18214588Y3792003D01*
X18177585Y3919368D01*
X18168744Y3949798D01*
X18157162Y3969381D01*
X18139982Y4037104D01*
X18162142Y4103367D01*
X18216608Y4147129D01*
X18263896Y4156500D01*
X18618797Y4156500D01*
X18685836Y4136815D01*
G37*
%TD.AperFunction*%
%TA.AperFunction,NonConductor*%
G36*
X5540289Y-16212764D02*
G01*
X5593223Y-16258367D01*
X5613099Y-16325350D01*
X5613100Y-16325705D01*
X5613100Y-23342196D01*
X5593415Y-23409235D01*
X5576781Y-23429877D01*
X4884190Y-24122467D01*
X4822867Y-24155952D01*
X4753175Y-24150968D01*
X4697242Y-24109096D01*
X4692700Y-24102607D01*
X4608166Y-23973217D01*
X4586557Y-23949744D01*
X4439744Y-23790262D01*
X4243509Y-23637526D01*
X4243507Y-23637525D01*
X4243506Y-23637524D01*
X4024811Y-23519172D01*
X4024802Y-23519169D01*
X3789616Y-23438429D01*
X3544335Y-23397500D01*
X3295665Y-23397500D01*
X3050383Y-23438429D01*
X2815197Y-23519169D01*
X2815188Y-23519172D01*
X2596493Y-23637524D01*
X2400257Y-23790261D01*
X2231833Y-23973217D01*
X2095826Y-24181393D01*
X1995936Y-24409118D01*
X1934892Y-24650175D01*
X1934890Y-24650187D01*
X1914357Y-24897994D01*
X1914357Y-24898005D01*
X1934890Y-25145812D01*
X1934892Y-25145824D01*
X1995936Y-25386881D01*
X2095826Y-25614606D01*
X2231833Y-25822782D01*
X2231836Y-25822785D01*
X2400256Y-26005738D01*
X2596491Y-26158474D01*
X2815190Y-26276828D01*
X3050386Y-26357571D01*
X3230734Y-26387665D01*
X3293617Y-26418114D01*
X3330057Y-26477728D01*
X3328483Y-26547580D01*
X3298004Y-26597654D01*
X1694863Y-28200794D01*
X1694862Y-28200795D01*
X1623407Y-28307737D01*
X1574191Y-28426555D01*
X1574189Y-28426561D01*
X1549100Y-28552692D01*
X1549100Y-30789959D01*
X1529415Y-30856998D01*
X1496223Y-30891534D01*
X1330597Y-31007505D01*
X1163505Y-31174597D01*
X1033575Y-31360158D01*
X978998Y-31403783D01*
X909500Y-31410977D01*
X847145Y-31379454D01*
X830425Y-31360158D01*
X700494Y-31174597D01*
X533402Y-31007506D01*
X533401Y-31007505D01*
X367776Y-30891533D01*
X324152Y-30836956D01*
X314900Y-30789958D01*
X314900Y-20429802D01*
X324240Y-20397994D01*
X1914357Y-20397994D01*
X1914357Y-20398005D01*
X1934890Y-20645812D01*
X1934892Y-20645824D01*
X1995936Y-20886881D01*
X2095826Y-21114606D01*
X2231833Y-21322782D01*
X2231836Y-21322785D01*
X2400256Y-21505738D01*
X2596491Y-21658474D01*
X2815190Y-21776828D01*
X3050386Y-21857571D01*
X3295665Y-21898500D01*
X3544335Y-21898500D01*
X3789614Y-21857571D01*
X4024810Y-21776828D01*
X4243509Y-21658474D01*
X4439744Y-21505738D01*
X4608164Y-21322785D01*
X4744173Y-21114607D01*
X4844063Y-20886881D01*
X4905108Y-20645821D01*
X4925643Y-20398000D01*
X4924022Y-20378440D01*
X4905109Y-20150187D01*
X4905107Y-20150175D01*
X4844063Y-19909118D01*
X4744173Y-19681393D01*
X4608166Y-19473217D01*
X4575562Y-19437800D01*
X4439744Y-19290262D01*
X4243509Y-19137526D01*
X4243507Y-19137525D01*
X4243506Y-19137524D01*
X4024811Y-19019172D01*
X4024802Y-19019169D01*
X3789616Y-18938429D01*
X3544335Y-18897500D01*
X3295665Y-18897500D01*
X3050383Y-18938429D01*
X2815197Y-19019169D01*
X2815188Y-19019172D01*
X2596493Y-19137524D01*
X2400257Y-19290261D01*
X2231833Y-19473217D01*
X2095826Y-19681393D01*
X1995936Y-19909118D01*
X1934892Y-20150175D01*
X1934890Y-20150187D01*
X1914357Y-20397994D01*
X324240Y-20397994D01*
X334585Y-20362763D01*
X351219Y-20342121D01*
X2182121Y-18511219D01*
X2243444Y-18477734D01*
X2269802Y-18474900D01*
X4044307Y-18474900D01*
X4129165Y-18458019D01*
X4170444Y-18449809D01*
X4289264Y-18400592D01*
X4396200Y-18329141D01*
X5122141Y-17603199D01*
X5193593Y-17496263D01*
X5231063Y-17405801D01*
X5242809Y-17377444D01*
X5267900Y-17251305D01*
X5267900Y-16503457D01*
X5285168Y-16440336D01*
X5294365Y-16424785D01*
X5366744Y-16302398D01*
X5370023Y-16291110D01*
X5407630Y-16232225D01*
X5471102Y-16203018D01*
X5540289Y-16212764D01*
G37*
%TD.AperFunction*%
%TA.AperFunction,NonConductor*%
G36*
X23126103Y-18333889D02*
G01*
X23132581Y-18339921D01*
X24391795Y-19599136D01*
X24391798Y-19599139D01*
X24488204Y-19663555D01*
X24488213Y-19663561D01*
X24498736Y-19670592D01*
X24617556Y-19719809D01*
X24617560Y-19719809D01*
X24617561Y-19719810D01*
X24743692Y-19744900D01*
X24743695Y-19744900D01*
X30074197Y-19744900D01*
X30141236Y-19764585D01*
X30161878Y-19781219D01*
X31810781Y-21430121D01*
X31844266Y-21491444D01*
X31847100Y-21517802D01*
X31847100Y-28573308D01*
X31827415Y-28640347D01*
X31782118Y-28682362D01*
X31676501Y-28739519D01*
X31676494Y-28739523D01*
X31480257Y-28892261D01*
X31311833Y-29075217D01*
X31175826Y-29283393D01*
X31075936Y-29511118D01*
X31014892Y-29752175D01*
X31014890Y-29752187D01*
X30994357Y-29999994D01*
X30994357Y-30000005D01*
X31014890Y-30247812D01*
X31014892Y-30247824D01*
X31075936Y-30488881D01*
X31175826Y-30716606D01*
X31311833Y-30924782D01*
X31311836Y-30924785D01*
X31480256Y-31107738D01*
X31676491Y-31260474D01*
X31895190Y-31378828D01*
X31923862Y-31388671D01*
X31980877Y-31429055D01*
X32007008Y-31493854D01*
X32007600Y-31505952D01*
X32007600Y-32084552D01*
X31987915Y-32151591D01*
X31948697Y-32190091D01*
X31854342Y-32248289D01*
X31730289Y-32372342D01*
X31638187Y-32521663D01*
X31638185Y-32521668D01*
X31621847Y-32570973D01*
X31583001Y-32688203D01*
X31583001Y-32688204D01*
X31583000Y-32688204D01*
X31572500Y-32790983D01*
X31572500Y-32790991D01*
X31572500Y-33296315D01*
X31572501Y-33721300D01*
X31552817Y-33788339D01*
X31500013Y-33834094D01*
X31448501Y-33845300D01*
X28284402Y-33845300D01*
X28217363Y-33825615D01*
X28171608Y-33772811D01*
X28161664Y-33703653D01*
X28188549Y-33642635D01*
X28299817Y-33507055D01*
X28310910Y-33493538D01*
X28403814Y-33319727D01*
X28461024Y-33131132D01*
X28480341Y-32935000D01*
X28461024Y-32738868D01*
X28403814Y-32550273D01*
X28403811Y-32550269D01*
X28403811Y-32550266D01*
X28310913Y-32376467D01*
X28310909Y-32376460D01*
X28182019Y-32219408D01*
X28183957Y-32217816D01*
X28155734Y-32166129D01*
X28152900Y-32139771D01*
X28152900Y-31426690D01*
X28172585Y-31359651D01*
X28217882Y-31317635D01*
X28323509Y-31260474D01*
X28519744Y-31107738D01*
X28688164Y-30924785D01*
X28824173Y-30716607D01*
X28924063Y-30488881D01*
X28985108Y-30247821D01*
X28993255Y-30149500D01*
X29005643Y-30000005D01*
X29005643Y-29999994D01*
X28985109Y-29752187D01*
X28985107Y-29752175D01*
X28924063Y-29511118D01*
X28824173Y-29283393D01*
X28688166Y-29075217D01*
X28666557Y-29051744D01*
X28519744Y-28892262D01*
X28323509Y-28739526D01*
X28323507Y-28739525D01*
X28323506Y-28739524D01*
X28104811Y-28621172D01*
X28104802Y-28621169D01*
X27869616Y-28540429D01*
X27624335Y-28499500D01*
X27375665Y-28499500D01*
X27130383Y-28540429D01*
X26895197Y-28621169D01*
X26895188Y-28621172D01*
X26676493Y-28739524D01*
X26480257Y-28892261D01*
X26311833Y-29075217D01*
X26175826Y-29283393D01*
X26075936Y-29511118D01*
X26014892Y-29752175D01*
X26014890Y-29752187D01*
X25994357Y-29999994D01*
X25994357Y-30000005D01*
X26014890Y-30247812D01*
X26014892Y-30247824D01*
X26075936Y-30488881D01*
X26175826Y-30716606D01*
X26311833Y-30924782D01*
X26311836Y-30924785D01*
X26480256Y-31107738D01*
X26602764Y-31203090D01*
X26676488Y-31260472D01*
X26676492Y-31260475D01*
X26737939Y-31293728D01*
X26782117Y-31317635D01*
X26831708Y-31366854D01*
X26847100Y-31426690D01*
X26847100Y-32097366D01*
X26827415Y-32164405D01*
X26801765Y-32193219D01*
X26764116Y-32224116D01*
X26639090Y-32376460D01*
X26639086Y-32376467D01*
X26546188Y-32550266D01*
X26488975Y-32738870D01*
X26469659Y-32935000D01*
X26488975Y-33131129D01*
X26488976Y-33131132D01*
X26545055Y-33316000D01*
X26546188Y-33319733D01*
X26639086Y-33493532D01*
X26639090Y-33493539D01*
X26761451Y-33642635D01*
X26788764Y-33706945D01*
X26776973Y-33775812D01*
X26729821Y-33827373D01*
X26665598Y-33845300D01*
X25296002Y-33845300D01*
X25228963Y-33825615D01*
X25208321Y-33808981D01*
X22957219Y-31557878D01*
X22923734Y-31496555D01*
X22920900Y-31470197D01*
X22920900Y-24765234D01*
X22940585Y-24698195D01*
X22993389Y-24652440D01*
X23062547Y-24642496D01*
X23123153Y-24669045D01*
X23185853Y-24720055D01*
X23431382Y-24869365D01*
X23618237Y-24950526D01*
X23694942Y-24983844D01*
X23971642Y-25061371D01*
X24221920Y-25095771D01*
X24256321Y-25100500D01*
X24256322Y-25100500D01*
X24543679Y-25100500D01*
X24574370Y-25096281D01*
X24828358Y-25061371D01*
X25105058Y-24983844D01*
X25302680Y-24898005D01*
X25368617Y-24869365D01*
X25368620Y-24869363D01*
X25368625Y-24869361D01*
X25614147Y-24720055D01*
X25837053Y-24538708D01*
X26033189Y-24328698D01*
X26198901Y-24093936D01*
X26331104Y-23838797D01*
X26427334Y-23568032D01*
X26485798Y-23286686D01*
X26505408Y-23000000D01*
X26485798Y-22713314D01*
X26427334Y-22431968D01*
X26331105Y-22161206D01*
X26331106Y-22161206D01*
X26198901Y-21906064D01*
X26033187Y-21671299D01*
X25893174Y-21521383D01*
X25837053Y-21461292D01*
X25614147Y-21279945D01*
X25614146Y-21279944D01*
X25368617Y-21130634D01*
X25105063Y-21016158D01*
X25105061Y-21016157D01*
X25105058Y-21016156D01*
X24975578Y-20979877D01*
X24828364Y-20938630D01*
X24828359Y-20938629D01*
X24828358Y-20938629D01*
X24686018Y-20919064D01*
X24543679Y-20899500D01*
X24543678Y-20899500D01*
X24256322Y-20899500D01*
X24256321Y-20899500D01*
X23971642Y-20938629D01*
X23971635Y-20938630D01*
X23793188Y-20988629D01*
X23694942Y-21016156D01*
X23694939Y-21016156D01*
X23694936Y-21016158D01*
X23694935Y-21016158D01*
X23431382Y-21130634D01*
X23185854Y-21279944D01*
X23123154Y-21330954D01*
X23058728Y-21357992D01*
X22989911Y-21345906D01*
X22938553Y-21298533D01*
X22920900Y-21234765D01*
X22920900Y-18427602D01*
X22940585Y-18360563D01*
X22993389Y-18314808D01*
X23062547Y-18304864D01*
X23126103Y-18333889D01*
G37*
%TD.AperFunction*%
M02*
