M48
; DRILL file {KiCad 9.0.7} date 2026-02-13T16:26:31+0100
; FORMAT={-:-/ absolute / metric / decimal}
; #@! TF.CreationDate,2026-02-13T16:26:31+01:00
; #@! TF.GenerationSoftware,Kicad,Pcbnew,9.0.7
; #@! TF.FileFunction,Plated,1,2,PTH
FMAT,2
METRIC
; #@! TA.AperFunction,Plated,PTH,ViaDrill
T1C0.400
; #@! TA.AperFunction,Plated,PTH,ComponentDrill
T2C0.750
; #@! TA.AperFunction,Plated,PTH,ComponentDrill
T3C0.800
; #@! TA.AperFunction,Plated,PTH,ComponentDrill
T4C1.000
; #@! TA.AperFunction,Plated,PTH,ComponentDrill
T5C1.100
; #@! TA.AperFunction,Plated,PTH,ComponentDrill
T6C2.600
%
G90
G05
T1
X17.145Y20.447
X18.415Y38.481
X20.066Y26.543
X25.146Y26.289
X27.559Y38.735
X34.671Y11.43
X37.084Y19.177
X37.211Y16.002
X38.989Y11.176
X39.116Y38.862
X39.116Y23.876
X39.37Y48.641
X40.149Y24.264
X41.021Y37.338
X41.529Y51.562
X41.91Y36.195
X42.418Y45.593
X42.799Y34.925
X43.307Y48.641
X43.307Y38.608
X43.688Y45.085
X45.72Y51.816
X49.784Y37.338
X50.038Y34.925
X50.673Y36.195
X50.927Y27.813
X51.308Y41.148
X51.943Y30.226
X51.943Y26.035
X52.451Y27.813
X52.705Y31.242
X52.959Y29.21
X53.441Y40.031
X53.848Y59.055
X55.753Y42.799
X57.717Y41.148
X58.166Y42.799
X58.293Y40.005
X59.563Y57.023
X62.865Y41.656
X63.119Y46.99
X69.596Y42.418
X69.723Y36.449
X72.136Y42.418
X72.898Y36.322
X73.406Y29.21
X76.2Y30.353
X76.454Y20.32
X78.613Y26.797
X81.407Y38.1
T2
X66.452Y56.982
X68.452Y56.982
X70.452Y56.982
X72.452Y56.982
T3
X14.934Y43.92
X14.934Y33.76
X17.474Y43.92
X17.474Y33.76
X20.014Y43.92
X20.014Y33.76
X22.554Y43.92
X22.554Y33.76
X25.094Y43.92
X25.094Y33.76
X27.634Y43.92
X73.76Y43.971
X73.76Y33.811
X76.3Y43.971
X76.3Y33.811
X78.84Y43.971
X78.84Y33.811
X81.38Y43.971
X81.38Y33.811
X83.92Y43.971
X83.92Y33.811
X86.46Y43.971
T4
X18.622Y22.592
X18.622Y8.092
X21.122Y22.592
X23.622Y22.592
X23.622Y8.092
X47.572Y68.242
X47.572Y53.742
X50.072Y53.742
X52.572Y68.242
X52.572Y53.742
X77.622Y22.642
X77.622Y8.142
X80.122Y22.642
X82.622Y22.642
X82.622Y8.142
T5
X14.262Y63.792
X14.262Y59.292
X20.762Y63.792
X20.762Y59.292
X47.042Y17.744
X47.042Y13.244
X53.542Y17.744
X53.542Y13.244
X79.984Y63.797
X79.984Y59.297
X86.484Y63.797
X86.484Y59.297
T6
X15.522Y15.092
X26.722Y15.092
X44.472Y61.242
X55.672Y61.242
X74.522Y15.142
X85.722Y15.142
M30
