%TF.GenerationSoftware,KiCad,Pcbnew,9.0.4*%
%TF.CreationDate,2025-09-06T12:35:55+02:00*%
%TF.ProjectId,Encoders-LCD,456e636f-6465-4727-932d-4c43442e6b69,rev?*%
%TF.SameCoordinates,PX2607d70PY72938b0*%
%TF.FileFunction,Copper,L2,Bot*%
%TF.FilePolarity,Positive*%
%FSLAX46Y46*%
G04 Gerber Fmt 4.6, Leading zero omitted, Abs format (unit mm)*
G04 Created by KiCad (PCBNEW 9.0.4) date 2025-09-06 12:35:55*
%MOMM*%
%LPD*%
G01*
G04 APERTURE LIST*
G04 Aperture macros list*
%AMRoundRect*
0 Rectangle with rounded corners*
0 $1 Rounding radius*
0 $2 $3 $4 $5 $6 $7 $8 $9 X,Y pos of 4 corners*
0 Add a 4 corners polygon primitive as box body*
4,1,4,$2,$3,$4,$5,$6,$7,$8,$9,$2,$3,0*
0 Add four circle primitives for the rounded corners*
1,1,$1+$1,$2,$3*
1,1,$1+$1,$4,$5*
1,1,$1+$1,$6,$7*
1,1,$1+$1,$8,$9*
0 Add four rect primitives between the rounded corners*
20,1,$1+$1,$2,$3,$4,$5,0*
20,1,$1+$1,$4,$5,$6,$7,0*
20,1,$1+$1,$6,$7,$8,$9,0*
20,1,$1+$1,$8,$9,$2,$3,0*%
%AMFreePoly0*
4,1,23,0.500000,-0.750000,0.000000,-0.750000,0.000000,-0.745722,-0.065263,-0.745722,-0.191342,-0.711940,-0.304381,-0.646677,-0.396677,-0.554381,-0.461940,-0.441342,-0.495722,-0.315263,-0.495722,-0.250000,-0.500000,-0.250000,-0.500000,0.250000,-0.495722,0.250000,-0.495722,0.315263,-0.461940,0.441342,-0.396677,0.554381,-0.304381,0.646677,-0.191342,0.711940,-0.065263,0.745722,0.000000,0.745722,
0.000000,0.750000,0.500000,0.750000,0.500000,-0.750000,0.500000,-0.750000,$1*%
%AMFreePoly1*
4,1,23,0.000000,0.745722,0.065263,0.745722,0.191342,0.711940,0.304381,0.646677,0.396677,0.554381,0.461940,0.441342,0.495722,0.315263,0.495722,0.250000,0.500000,0.250000,0.500000,-0.250000,0.495722,-0.250000,0.495722,-0.315263,0.461940,-0.441342,0.396677,-0.554381,0.304381,-0.646677,0.191342,-0.711940,0.065263,-0.745722,0.000000,-0.745722,0.000000,-0.750000,-0.500000,-0.750000,
-0.500000,0.750000,0.000000,0.750000,0.000000,0.745722,0.000000,0.745722,$1*%
G04 Aperture macros list end*
%TA.AperFunction,ComponentPad*%
%ADD10C,2.000000*%
%TD*%
%TA.AperFunction,ComponentPad*%
%ADD11C,1.600000*%
%TD*%
%TA.AperFunction,ComponentPad*%
%ADD12R,2.000000X2.000000*%
%TD*%
%TA.AperFunction,ComponentPad*%
%ADD13C,3.200000*%
%TD*%
%TA.AperFunction,SMDPad,CuDef*%
%ADD14R,1.750000X0.450000*%
%TD*%
%TA.AperFunction,SMDPad,CuDef*%
%ADD15RoundRect,0.150000X-0.150000X0.825000X-0.150000X-0.825000X0.150000X-0.825000X0.150000X0.825000X0*%
%TD*%
%TA.AperFunction,SMDPad,CuDef*%
%ADD16RoundRect,0.250000X0.450000X-0.350000X0.450000X0.350000X-0.450000X0.350000X-0.450000X-0.350000X0*%
%TD*%
%TA.AperFunction,ComponentPad*%
%ADD17RoundRect,0.250000X-0.350000X-0.625000X0.350000X-0.625000X0.350000X0.625000X-0.350000X0.625000X0*%
%TD*%
%TA.AperFunction,ComponentPad*%
%ADD18O,1.200000X1.750000*%
%TD*%
%TA.AperFunction,SMDPad,CuDef*%
%ADD19FreePoly0,90.000000*%
%TD*%
%TA.AperFunction,SMDPad,CuDef*%
%ADD20FreePoly1,90.000000*%
%TD*%
%TA.AperFunction,SMDPad,CuDef*%
%ADD21RoundRect,0.250000X0.475000X-0.337500X0.475000X0.337500X-0.475000X0.337500X-0.475000X-0.337500X0*%
%TD*%
%TA.AperFunction,SMDPad,CuDef*%
%ADD22RoundRect,0.225000X-0.375000X0.225000X-0.375000X-0.225000X0.375000X-0.225000X0.375000X0.225000X0*%
%TD*%
%TA.AperFunction,SMDPad,CuDef*%
%ADD23RoundRect,0.250000X-0.337500X-0.475000X0.337500X-0.475000X0.337500X0.475000X-0.337500X0.475000X0*%
%TD*%
%TA.AperFunction,ComponentPad*%
%ADD24RoundRect,0.250000X0.350000X0.625000X-0.350000X0.625000X-0.350000X-0.625000X0.350000X-0.625000X0*%
%TD*%
%TA.AperFunction,SMDPad,CuDef*%
%ADD25RoundRect,0.225000X0.225000X0.375000X-0.225000X0.375000X-0.225000X-0.375000X0.225000X-0.375000X0*%
%TD*%
%TA.AperFunction,SMDPad,CuDef*%
%ADD26RoundRect,0.150000X0.150000X-0.825000X0.150000X0.825000X-0.150000X0.825000X-0.150000X-0.825000X0*%
%TD*%
%TA.AperFunction,SMDPad,CuDef*%
%ADD27RoundRect,0.250000X0.337500X0.475000X-0.337500X0.475000X-0.337500X-0.475000X0.337500X-0.475000X0*%
%TD*%
%TA.AperFunction,ViaPad*%
%ADD28C,0.900000*%
%TD*%
%TA.AperFunction,Conductor*%
%ADD29C,0.609600*%
%TD*%
%TA.AperFunction,Conductor*%
%ADD30C,0.406400*%
%TD*%
%TA.AperFunction,Conductor*%
%ADD31C,0.304800*%
%TD*%
G04 APERTURE END LIST*
D10*
%TO.P,SW3,1,1*%
%TO.N,Net-(D1-K)*%
X79984500Y63796600D03*
X86484500Y63796600D03*
%TO.P,SW3,2,2*%
%TO.N,/SEG3*%
X79984500Y59296600D03*
X86484500Y59296600D03*
%TD*%
D11*
%TO.P,U3,1,E*%
%TO.N,/SEG5*%
X73760000Y33811200D03*
%TO.P,U3,2,D*%
%TO.N,/SEG4*%
X76300000Y33811200D03*
%TO.P,U3,3,DP*%
%TO.N,/SEG8*%
X78840000Y33811200D03*
%TO.P,U3,4,C*%
%TO.N,/SEG3*%
X81380000Y33811200D03*
%TO.P,U3,5,G*%
%TO.N,/SEG7*%
X83920000Y33811200D03*
%TO.P,U3,7,B*%
%TO.N,/SEG2*%
X86460000Y43971200D03*
%TO.P,U3,8,DIG3*%
%TO.N,/COM6*%
X83920000Y43971200D03*
%TO.P,U3,9,DIG2*%
%TO.N,/COM5*%
X81380000Y43971200D03*
%TO.P,U3,10,F*%
%TO.N,/SEG6*%
X78840000Y43971200D03*
%TO.P,U3,11,A*%
%TO.N,/SEG1*%
X76300000Y43971200D03*
%TO.P,U3,12,DIG1*%
%TO.N,/COM4*%
X73760000Y43971200D03*
%TD*%
D12*
%TO.P,ENC3,A,A*%
%TO.N,/A3*%
X82622000Y22642000D03*
D10*
%TO.P,ENC3,B,B*%
%TO.N,/B3*%
X77622000Y22642000D03*
%TO.P,ENC3,C,C*%
%TO.N,GND*%
X80122000Y22642000D03*
D13*
%TO.P,ENC3,MP*%
%TO.N,N/C*%
X85722000Y15142000D03*
X74522000Y15142000D03*
D10*
%TO.P,ENC3,S1,S1*%
%TO.N,GND*%
X77622000Y8142000D03*
%TO.P,ENC3,S2,S2*%
%TO.N,/SW3*%
X82622000Y8142000D03*
%TD*%
%TO.P,SW1,1,1*%
%TO.N,Net-(D1-K)*%
X14262000Y63792000D03*
X20762000Y63792000D03*
%TO.P,SW1,2,2*%
%TO.N,/SEG1*%
X14262000Y59292000D03*
X20762000Y59292000D03*
%TD*%
D12*
%TO.P,ENC2,A,A*%
%TO.N,/A2*%
X23622000Y22592000D03*
D10*
%TO.P,ENC2,B,B*%
%TO.N,/B2*%
X18622000Y22592000D03*
%TO.P,ENC2,C,C*%
%TO.N,GND*%
X21122000Y22592000D03*
D13*
%TO.P,ENC2,MP*%
%TO.N,N/C*%
X26722000Y15092000D03*
X15522000Y15092000D03*
D10*
%TO.P,ENC2,S1,S1*%
%TO.N,GND*%
X18622000Y8092000D03*
%TO.P,ENC2,S2,S2*%
%TO.N,/SW2*%
X23622000Y8092000D03*
%TD*%
D11*
%TO.P,U2,1,E*%
%TO.N,/SEG5*%
X14933600Y33760400D03*
%TO.P,U2,2,D*%
%TO.N,/SEG4*%
X17473600Y33760400D03*
%TO.P,U2,3,DP*%
%TO.N,/SEG8*%
X20013600Y33760400D03*
%TO.P,U2,4,C*%
%TO.N,/SEG3*%
X22553600Y33760400D03*
%TO.P,U2,5,G*%
%TO.N,/SEG7*%
X25093600Y33760400D03*
%TO.P,U2,7,B*%
%TO.N,/SEG2*%
X27633600Y43920400D03*
%TO.P,U2,8,DIG3*%
%TO.N,/COM3*%
X25093600Y43920400D03*
%TO.P,U2,9,DIG2*%
%TO.N,/COM2*%
X22553600Y43920400D03*
%TO.P,U2,10,F*%
%TO.N,/SEG6*%
X20013600Y43920400D03*
%TO.P,U2,11,A*%
%TO.N,/SEG1*%
X17473600Y43920400D03*
%TO.P,U2,12,DIG1*%
%TO.N,/COM1*%
X14933600Y43920400D03*
%TD*%
D12*
%TO.P,ENC1,A,A*%
%TO.N,/A1*%
X47572000Y53742000D03*
D10*
%TO.P,ENC1,B,B*%
%TO.N,/B1*%
X52572000Y53742000D03*
%TO.P,ENC1,C,C*%
%TO.N,GND*%
X50072000Y53742000D03*
D13*
%TO.P,ENC1,MP*%
%TO.N,N/C*%
X44472000Y61242000D03*
X55672000Y61242000D03*
D10*
%TO.P,ENC1,S1,S1*%
%TO.N,GND*%
X52572000Y68242000D03*
%TO.P,ENC1,S2,S2*%
%TO.N,/SW1*%
X47572000Y68242000D03*
%TD*%
%TO.P,SW2,1,1*%
%TO.N,Net-(D1-K)*%
X47042000Y17744000D03*
X53542000Y17744000D03*
%TO.P,SW2,2,2*%
%TO.N,/SEG2*%
X47042000Y13244000D03*
X53542000Y13244000D03*
%TD*%
D14*
%TO.P,U5,1,VSS*%
%TO.N,GND*%
X54052000Y36357000D03*
%TO.P,U5,2,COM0/AD*%
%TO.N,/COM0*%
X54052000Y35707000D03*
%TO.P,U5,3,COM1/KS0*%
%TO.N,/COM1*%
X54052000Y35057000D03*
%TO.P,U5,4,COM2/KS1*%
%TO.N,/COM2*%
X54052000Y34407000D03*
%TO.P,U5,5,COM3/KS2*%
%TO.N,/COM3*%
X54052000Y33757000D03*
%TO.P,U5,6,COM4*%
%TO.N,/COM4*%
X54052000Y33107000D03*
%TO.P,U5,7,COM5*%
%TO.N,/COM5*%
X54052000Y32457000D03*
%TO.P,U5,8,COM6*%
%TO.N,/COM6*%
X54052000Y31807000D03*
%TO.P,U5,9,COM7*%
%TO.N,unconnected-(U5-COM7-Pad9)*%
X54052000Y31157000D03*
%TO.P,U5,10,ROW11/K10/INT*%
%TO.N,unconnected-(U5-ROW11{slash}K10{slash}INT-Pad10)*%
X54052000Y30507000D03*
%TO.P,U5,11,ROW10/K9*%
%TO.N,unconnected-(U5-ROW10{slash}K9-Pad11)*%
X54052000Y29857000D03*
%TO.P,U5,12,ROW9/K8*%
%TO.N,unconnected-(U5-ROW9{slash}K8-Pad12)*%
X54052000Y29207000D03*
%TO.P,U5,13,ROW8/K7*%
%TO.N,unconnected-(U5-ROW8{slash}K7-Pad13)*%
X46852000Y29207000D03*
%TO.P,U5,14,ROW7/K6*%
%TO.N,/SEG8*%
X46852000Y29857000D03*
%TO.P,U5,15,ROW6/K5*%
%TO.N,/SEG7*%
X46852000Y30507000D03*
%TO.P,U5,16,ROW5/K4*%
%TO.N,/SEG6*%
X46852000Y31157000D03*
%TO.P,U5,17,ROW4/K3*%
%TO.N,/SEG5*%
X46852000Y31807000D03*
%TO.P,U5,18,ROW3/K2*%
%TO.N,/SEG4*%
X46852000Y32457000D03*
%TO.P,U5,19,ROW2/K1*%
%TO.N,/SEG3*%
X46852000Y33107000D03*
%TO.P,U5,20,ROW1/A0*%
%TO.N,/SEG2*%
X46852000Y33757000D03*
%TO.P,U5,21,ROW0/A1*%
%TO.N,/SEG1*%
X46852000Y34407000D03*
%TO.P,U5,22,SCL*%
%TO.N,/SCL*%
X46852000Y35057000D03*
%TO.P,U5,23,SDA*%
%TO.N,/SDA*%
X46852000Y35707000D03*
%TO.P,U5,24,VDD*%
%TO.N,VCC*%
X46852000Y36357000D03*
%TD*%
D15*
%TO.P,U4,1,VCC*%
%TO.N,VCC*%
X19217000Y17817000D03*
%TO.P,U4,2,PA6*%
%TO.N,/B2*%
X20487000Y17817000D03*
%TO.P,U4,3,PA7*%
%TO.N,/A2*%
X21757000Y17817000D03*
%TO.P,U4,4,PA1*%
%TO.N,/SDA*%
X23027000Y17817000D03*
%TO.P,U4,5,PA2*%
%TO.N,/SCL*%
X23027000Y12867000D03*
%TO.P,U4,6,~{RESET}/PA0*%
%TO.N,unconnected-(U4-~{RESET}{slash}PA0-Pad6)*%
X21757000Y12867000D03*
%TO.P,U4,7,PA3*%
%TO.N,/SW2*%
X20487000Y12867000D03*
%TO.P,U4,8,GND*%
%TO.N,GND*%
X19217000Y12867000D03*
%TD*%
%TO.P,U6,1,VCC*%
%TO.N,VCC*%
X78217000Y17867000D03*
%TO.P,U6,2,PA6*%
%TO.N,/B3*%
X79487000Y17867000D03*
%TO.P,U6,3,PA7*%
%TO.N,/A3*%
X80757000Y17867000D03*
%TO.P,U6,4,PA1*%
%TO.N,/SDA*%
X82027000Y17867000D03*
%TO.P,U6,5,PA2*%
%TO.N,/SCL*%
X82027000Y12917000D03*
%TO.P,U6,6,~{RESET}/PA0*%
%TO.N,unconnected-(U6-~{RESET}{slash}PA0-Pad6)*%
X80757000Y12917000D03*
%TO.P,U6,7,PA3*%
%TO.N,/SW3*%
X79487000Y12917000D03*
%TO.P,U6,8,GND*%
%TO.N,GND*%
X78217000Y12917000D03*
%TD*%
D16*
%TO.P,R1,1*%
%TO.N,Net-(JP1-B)*%
X52322000Y46242000D03*
%TO.P,R1,2*%
%TO.N,Net-(D2-K)*%
X52322000Y48242000D03*
%TD*%
D17*
%TO.P,J1,1,Pin_1*%
%TO.N,GND*%
X66452000Y56982000D03*
D18*
%TO.P,J1,2,Pin_2*%
%TO.N,VCC*%
X68452000Y56982000D03*
%TO.P,J1,3,Pin_3*%
%TO.N,/SDA*%
X70452000Y56982000D03*
%TO.P,J1,4,Pin_4*%
%TO.N,/SCL*%
X72452000Y56982000D03*
%TD*%
D19*
%TO.P,JP2,1,A*%
%TO.N,/SEG1*%
X48792000Y42782000D03*
D20*
%TO.P,JP2,2,B*%
%TO.N,Net-(JP2-B)*%
X48792000Y44082000D03*
%TD*%
D21*
%TO.P,C1,1*%
%TO.N,VCC*%
X44399200Y38637300D03*
%TO.P,C1,2*%
%TO.N,GND*%
X44399200Y40712300D03*
%TD*%
D22*
%TO.P,D2,1,K*%
%TO.N,Net-(D2-K)*%
X56962000Y48233600D03*
%TO.P,D2,2,A*%
%TO.N,/COM0*%
X56962000Y44933600D03*
%TD*%
D23*
%TO.P,C2,1*%
%TO.N,VCC*%
X54174500Y57802000D03*
%TO.P,C2,2*%
%TO.N,GND*%
X56249500Y57802000D03*
%TD*%
D16*
%TO.P,R2,1*%
%TO.N,Net-(JP2-B)*%
X48812000Y46332000D03*
%TO.P,R2,2*%
%TO.N,Net-(D2-K)*%
X48812000Y48332000D03*
%TD*%
D24*
%TO.P,J2,1,Pin_1*%
%TO.N,/SCL*%
X40222000Y9662000D03*
D18*
%TO.P,J2,2,Pin_2*%
%TO.N,/SDA*%
X38222000Y9662000D03*
%TO.P,J2,3,Pin_3*%
%TO.N,VCC*%
X36222000Y9662000D03*
%TO.P,J2,4,Pin_4*%
%TO.N,GND*%
X34222000Y9662000D03*
%TD*%
D25*
%TO.P,D1,1,K*%
%TO.N,Net-(D1-K)*%
X60612000Y35112000D03*
%TO.P,D1,2,A*%
%TO.N,/COM1*%
X57312000Y35112000D03*
%TD*%
D26*
%TO.P,U1,1,VCC*%
%TO.N,VCC*%
X51977000Y58517000D03*
%TO.P,U1,2,PA6*%
%TO.N,/B1*%
X50707000Y58517000D03*
%TO.P,U1,3,PA7*%
%TO.N,/A1*%
X49437000Y58517000D03*
%TO.P,U1,4,PA1*%
%TO.N,/SDA*%
X48167000Y58517000D03*
%TO.P,U1,5,PA2*%
%TO.N,/SCL*%
X48167000Y63467000D03*
%TO.P,U1,6,~{RESET}/PA0*%
%TO.N,unconnected-(U1-~{RESET}{slash}PA0-Pad6)*%
X49437000Y63467000D03*
%TO.P,U1,7,PA3*%
%TO.N,/SW1*%
X50707000Y63467000D03*
%TO.P,U1,8,GND*%
%TO.N,GND*%
X51977000Y63467000D03*
%TD*%
D27*
%TO.P,C4,1*%
%TO.N,VCC*%
X76059500Y18602000D03*
%TO.P,C4,2*%
%TO.N,GND*%
X73984500Y18602000D03*
%TD*%
%TO.P,C3,1*%
%TO.N,VCC*%
X16469500Y19312000D03*
%TO.P,C3,2*%
%TO.N,GND*%
X14394500Y19312000D03*
%TD*%
D19*
%TO.P,JP1,1,A*%
%TO.N,/SEG2*%
X52342000Y42782000D03*
D20*
%TO.P,JP1,2,B*%
%TO.N,Net-(JP1-B)*%
X52342000Y44082000D03*
%TD*%
D28*
%TO.N,GND*%
X53441600Y63601600D03*
X44399200Y43535600D03*
X71831200Y20624800D03*
X53492400Y41605200D03*
X58470800Y59385200D03*
%TO.N,Net-(D1-K)*%
X62331600Y23368000D03*
X62433200Y35204400D03*
X60553600Y44551600D03*
X43230800Y65836800D03*
X60604400Y49276000D03*
X60612000Y62694800D03*
X60756800Y59232800D03*
%TO.N,VCC*%
X52324000Y56083200D03*
X59080400Y57505600D03*
X42672000Y41554400D03*
X36068000Y14884400D03*
X62382400Y57556400D03*
X43586400Y36982400D03*
X41859200Y14833600D03*
X43586400Y28549600D03*
%TO.N,/SEG2*%
X54254400Y50596800D03*
X54254400Y47040800D03*
%TO.N,/SEG3*%
X89306400Y39471600D03*
X26822400Y33731200D03*
X86258400Y39674800D03*
X30734000Y33731200D03*
%TO.N,/COM1*%
X50106600Y39776400D03*
%TO.N,/SDA*%
X38252400Y28854400D03*
X70510400Y60807600D03*
X38252400Y35212600D03*
%TO.N,/SCL*%
X40233600Y28905200D03*
X40233600Y35212600D03*
X72288400Y67411600D03*
X40233600Y37084000D03*
%TO.N,/SEG6*%
X78841600Y39731800D03*
X72390000Y26116400D03*
X72390000Y28752800D03*
%TO.N,/SEG5*%
X73761600Y28752800D03*
X28702000Y37033200D03*
X73761600Y26314400D03*
X26466800Y37033200D03*
%TO.N,/SEG4*%
X76250800Y26873200D03*
X76250800Y28905200D03*
X26517600Y35814000D03*
X29718000Y35864800D03*
%TO.N,/SEG8*%
X78486000Y24504200D03*
%TO.N,/COM2*%
X51122257Y34302497D03*
%TO.N,/COM3*%
X50106599Y35215710D03*
%TD*%
D29*
%TO.N,GND*%
X44399200Y43535600D02*
X44399200Y49123600D01*
D30*
X78217000Y8737000D02*
X77622000Y8142000D01*
X73984500Y18602000D02*
X72177600Y18602000D01*
D29*
X46583600Y51308000D02*
X48971200Y51308000D01*
X15494000Y25044400D02*
X20574000Y25044400D01*
D30*
X78217000Y12917000D02*
X78217000Y8737000D01*
D29*
X44399200Y49123600D02*
X46583600Y51308000D01*
D30*
X72177600Y18602000D02*
X71831200Y18948400D01*
X19217000Y8687000D02*
X18622000Y8092000D01*
D29*
X44399200Y40712300D02*
X44399200Y43535600D01*
X14394500Y23944900D02*
X15494000Y25044400D01*
D30*
X74310370Y18602000D02*
X73984500Y18602000D01*
X78217000Y14695370D02*
X74310370Y18602000D01*
X58470800Y59385200D02*
X57832700Y59385200D01*
X51977000Y67647000D02*
X52572000Y68242000D01*
X51977000Y63467000D02*
X51977000Y67647000D01*
D29*
X14394500Y19312000D02*
X14394500Y23944900D01*
D30*
X53307000Y63467000D02*
X53441600Y63601600D01*
X54052000Y41045600D02*
X53492400Y41605200D01*
X57832700Y59385200D02*
X56249500Y57802000D01*
X19217000Y12867000D02*
X19217000Y8687000D01*
D29*
X48971200Y51308000D02*
X50072000Y52408800D01*
X50072000Y52408800D02*
X50072000Y53742000D01*
D30*
X78217000Y12917000D02*
X78217000Y14695370D01*
X54052000Y36357000D02*
X54052000Y41045600D01*
D29*
X21122000Y24496400D02*
X21122000Y22592000D01*
X20574000Y25044400D02*
X21122000Y24496400D01*
D30*
X71831200Y20624800D02*
X71831200Y18948400D01*
X51977000Y63467000D02*
X53307000Y63467000D01*
D31*
%TO.N,Net-(D1-K)*%
X60604400Y49276000D02*
X60756800Y49428400D01*
X79984500Y63796600D02*
X86484500Y63796600D01*
X14262000Y63792000D02*
X20762000Y63792000D01*
X20762000Y63792000D02*
X22806800Y65836800D01*
X61713800Y63796600D02*
X79984500Y63796600D01*
X60612000Y44493200D02*
X60553600Y44551600D01*
X60612000Y62694800D02*
X61713800Y63796600D01*
X62433200Y35204400D02*
X60704400Y35204400D01*
X60612000Y35112000D02*
X60612000Y44493200D01*
X60756800Y49428400D02*
X60756800Y59232800D01*
X54000400Y22961600D02*
X61925200Y22961600D01*
X53542000Y17744000D02*
X53542000Y22503200D01*
D30*
X47042000Y17744000D02*
X53542000Y17744000D01*
D31*
X61925200Y22961600D02*
X62331600Y23368000D01*
X22806800Y65836800D02*
X43230800Y65836800D01*
X60704400Y35204400D02*
X60612000Y35112000D01*
X53542000Y22503200D02*
X54000400Y22961600D01*
%TO.N,/SEG1*%
X48529400Y34407000D02*
X48792000Y34669600D01*
X46685200Y48971200D02*
X46685200Y43434000D01*
X20762000Y59292000D02*
X20762000Y47330400D01*
X32699800Y34407000D02*
X31648400Y35458400D01*
X31648400Y45364400D02*
X29768800Y47244000D01*
X58572400Y49733200D02*
X47447200Y49733200D01*
X75143400Y45127800D02*
X61603000Y45127800D01*
X17473600Y46429600D02*
X17473600Y43920400D01*
X47337200Y42782000D02*
X48792000Y42782000D01*
X76300000Y43971200D02*
X75143400Y45127800D01*
X46685200Y43434000D02*
X47337200Y42782000D01*
X48792000Y34669600D02*
X48792000Y42782000D01*
X29768800Y47244000D02*
X20675600Y47244000D01*
X20762000Y47330400D02*
X20675600Y47244000D01*
X46852000Y34407000D02*
X48529400Y34407000D01*
X59080400Y49225200D02*
X58572400Y49733200D01*
X20675600Y47244000D02*
X18288000Y47244000D01*
X59080400Y47650400D02*
X59080400Y49225200D01*
X31648400Y35458400D02*
X31648400Y45364400D01*
X47447200Y49733200D02*
X46685200Y48971200D01*
X46852000Y34407000D02*
X32699800Y34407000D01*
X61603000Y45127800D02*
X59080400Y47650400D01*
X14262000Y59292000D02*
X20762000Y59292000D01*
X18288000Y47244000D02*
X17473600Y46429600D01*
%TO.N,VCC*%
X57454800Y55880000D02*
X54762400Y55880000D01*
X59080400Y57505600D02*
X57454800Y55880000D01*
X51977000Y56430200D02*
X52324000Y56083200D01*
X53653200Y57802000D02*
X52938200Y58517000D01*
X54174500Y56467900D02*
X54174500Y57802000D01*
X46852000Y37882400D02*
X46097100Y38637300D01*
X68452000Y56982000D02*
X68452000Y58649600D01*
X46097100Y38637300D02*
X44399200Y38637300D01*
X43586400Y28549600D02*
X42214800Y28549600D01*
X36068000Y14884400D02*
X36222000Y14730400D01*
X67818000Y59283600D02*
X64109600Y59283600D01*
X19042000Y19312000D02*
X19217000Y19137000D01*
X42214800Y28549600D02*
X41859200Y28194000D01*
X44399200Y37795200D02*
X43586400Y36982400D01*
X54174500Y57802000D02*
X53653200Y57802000D01*
X51977000Y58517000D02*
X51977000Y56430200D01*
X52938200Y58517000D02*
X51977000Y58517000D01*
X43078400Y36931600D02*
X43129200Y36982400D01*
X43129200Y36982400D02*
X43586400Y36982400D01*
X42672000Y41554400D02*
X42672000Y37338000D01*
X19217000Y19137000D02*
X19217000Y17817000D01*
X68452000Y58649600D02*
X67818000Y59283600D01*
X77482000Y18602000D02*
X78217000Y17867000D01*
X41859200Y28194000D02*
X41859200Y14833600D01*
X54762400Y55880000D02*
X54174500Y56467900D01*
X44399200Y38637300D02*
X44399200Y37795200D01*
X16469500Y19312000D02*
X19042000Y19312000D01*
X42672000Y37338000D02*
X43078400Y36931600D01*
X46852000Y36357000D02*
X46852000Y37882400D01*
X64109600Y59283600D02*
X62382400Y57556400D01*
X36222000Y14730400D02*
X36222000Y9662000D01*
X76059500Y18602000D02*
X77482000Y18602000D01*
%TO.N,/B1*%
X50707000Y55607000D02*
X52572000Y53742000D01*
X50707000Y58517000D02*
X50707000Y55607000D01*
%TO.N,/SW1*%
X47572000Y66474000D02*
X47572000Y68242000D01*
X48158400Y65887600D02*
X47572000Y66474000D01*
X49987200Y65887600D02*
X48158400Y65887600D01*
X50707000Y65167800D02*
X49987200Y65887600D01*
X50707000Y63467000D02*
X50707000Y65167800D01*
%TO.N,/A1*%
X47572000Y55700000D02*
X47572000Y53742000D01*
X48412400Y55880000D02*
X47752000Y55880000D01*
X47752000Y55880000D02*
X47572000Y55700000D01*
X49437000Y56904600D02*
X48412400Y55880000D01*
X49437000Y58517000D02*
X49437000Y56904600D01*
%TO.N,/SW2*%
X20487000Y12867000D02*
X20487000Y11227000D01*
X20487000Y11227000D02*
X23622000Y8092000D01*
%TO.N,/B2*%
X20487000Y17817000D02*
X20487000Y20727000D01*
X20487000Y20727000D02*
X18622000Y22592000D01*
%TO.N,/A2*%
X23622000Y22592000D02*
X23622000Y20777200D01*
X23317200Y20472400D02*
X22199600Y20472400D01*
X21757000Y20029800D02*
X21757000Y17817000D01*
X23622000Y20777200D02*
X23317200Y20472400D01*
X22199600Y20472400D02*
X21757000Y20029800D01*
%TO.N,/SW3*%
X79487000Y11277000D02*
X82622000Y8142000D01*
X79487000Y12917000D02*
X79487000Y11277000D01*
%TO.N,/B3*%
X79487000Y17867000D02*
X79487000Y20777000D01*
X79487000Y20777000D02*
X77622000Y22642000D01*
%TO.N,/A3*%
X82622000Y21255600D02*
X81991200Y20624800D01*
X80757000Y20203400D02*
X80757000Y17867000D01*
X81991200Y20624800D02*
X81178400Y20624800D01*
X81178400Y20624800D02*
X80757000Y20203400D01*
X82622000Y22642000D02*
X82622000Y21255600D01*
%TO.N,/SEG2*%
X46852000Y33757000D02*
X32283000Y33757000D01*
X59639200Y49386234D02*
X58428634Y50596800D01*
X28752800Y38252400D02*
X28295600Y38709600D01*
X30022800Y38252400D02*
X28752800Y38252400D01*
X51917600Y40944800D02*
X52342000Y41369200D01*
D30*
X53542000Y13244000D02*
X47042000Y13244000D01*
D31*
X28295600Y38709600D02*
X28295600Y41046400D01*
X52342000Y42782000D02*
X53551600Y42782000D01*
X81483200Y45770800D02*
X61679834Y45770800D01*
X49301000Y40665000D02*
X49580800Y40944800D01*
X53551600Y42782000D02*
X54254400Y43484800D01*
X86460000Y43971200D02*
X84660400Y45770800D01*
X30835600Y35204400D02*
X30835600Y37439600D01*
X49580800Y40944800D02*
X51917600Y40944800D01*
X60837317Y46613317D02*
X59639200Y47811434D01*
X27633600Y41708400D02*
X27633600Y43920400D01*
X32283000Y33757000D02*
X30835600Y35204400D01*
X61679834Y45770800D02*
X60837317Y46613317D01*
X46852000Y33757000D02*
X48599234Y33757000D01*
X28295600Y41046400D02*
X27633600Y41708400D01*
X52342000Y41369200D02*
X52342000Y42782000D01*
X58428634Y50596800D02*
X54254400Y50596800D01*
X30835600Y37439600D02*
X30022800Y38252400D01*
X59639200Y48717200D02*
X59639200Y49386234D01*
X84660400Y45770800D02*
X81483200Y45770800D01*
X49301000Y34458765D02*
X49301000Y40665000D01*
X59639200Y47811434D02*
X59639200Y48717200D01*
X54254400Y47040800D02*
X54254400Y43484800D01*
X48599234Y33757000D02*
X49301000Y34458765D01*
%TO.N,Net-(D2-K)*%
X56962000Y48233600D02*
X52330400Y48233600D01*
X52330400Y48233600D02*
X52322000Y48242000D01*
X48902000Y48242000D02*
X48812000Y48332000D01*
X52322000Y48242000D02*
X48902000Y48242000D01*
%TO.N,/SEG3*%
X86004400Y39420800D02*
X86258400Y39674800D01*
X88531400Y59296600D02*
X86484500Y59296600D01*
X82194400Y39420800D02*
X86004400Y39420800D01*
X52933600Y27940000D02*
X80264000Y27940000D01*
X52324000Y31240214D02*
X52324000Y28549600D01*
X81380000Y33811200D02*
X81380000Y38606400D01*
X26822400Y34391600D02*
X26111200Y35102800D01*
X26822400Y33731200D02*
X26822400Y34391600D01*
X81380000Y29056000D02*
X81380000Y33811200D01*
X52324000Y28549600D02*
X52933600Y27940000D01*
X50457214Y33107000D02*
X52324000Y31240214D01*
X46852000Y33107000D02*
X31358200Y33107000D01*
X89306400Y58521600D02*
X88531400Y59296600D01*
X31358200Y33107000D02*
X30734000Y33731200D01*
X89306400Y39471600D02*
X89306400Y58521600D01*
X23896000Y35102800D02*
X22553600Y33760400D01*
X80264000Y27940000D02*
X81380000Y29056000D01*
X81380000Y38606400D02*
X82194400Y39420800D01*
D30*
X79984500Y59296600D02*
X86484500Y59296600D01*
D31*
X26111200Y35102800D02*
X23896000Y35102800D01*
X46852000Y33107000D02*
X50457214Y33107000D01*
%TO.N,/COM1*%
X50088800Y36372800D02*
X50088800Y39758600D01*
X54052000Y35057000D02*
X51404600Y35057000D01*
X54052000Y35057000D02*
X57257000Y35057000D01*
X50088800Y39758600D02*
X50106600Y39776400D01*
X51404600Y35057000D02*
X50088800Y36372800D01*
X57257000Y35057000D02*
X57312000Y35112000D01*
%TO.N,/SDA*%
X87616600Y23456600D02*
X87616600Y55588600D01*
X38252400Y35212600D02*
X39059000Y36019200D01*
X38222000Y18034000D02*
X38222000Y28824000D01*
X23027000Y17817000D02*
X37541200Y17817000D01*
X37541200Y17817000D02*
X37981800Y17817000D01*
X87616600Y55588600D02*
X86817200Y56388000D01*
X59893200Y60807600D02*
X70510400Y60807600D01*
X73761600Y57251600D02*
X73761600Y57962800D01*
X38222000Y9662000D02*
X38222000Y17576800D01*
X41714200Y35707000D02*
X41402000Y36019200D01*
X56845200Y63855600D02*
X59893200Y60807600D01*
X38005000Y17817000D02*
X38222000Y18034000D01*
X37541200Y17817000D02*
X38005000Y17817000D01*
X49580800Y61010800D02*
X52120800Y61010800D01*
X71018400Y58978800D02*
X70452000Y58412400D01*
X74625200Y56388000D02*
X73761600Y57251600D01*
X39059000Y36019200D02*
X41402000Y36019200D01*
X48167000Y59597000D02*
X49377600Y60807600D01*
X37981800Y17817000D02*
X38222000Y17576800D01*
X46852000Y35707000D02*
X41714200Y35707000D01*
X86817200Y56388000D02*
X74625200Y56388000D01*
X41402000Y57150000D02*
X41402000Y36019200D01*
X72694800Y59029600D02*
X71018400Y59029600D01*
X42769000Y58517000D02*
X41402000Y57150000D01*
X52120800Y61010800D02*
X54965600Y63855600D01*
X70452000Y58412400D02*
X70452000Y56982000D01*
X49377600Y60807600D02*
X49580800Y61010800D01*
X38222000Y17576800D02*
X38222000Y18034000D01*
X73761600Y57962800D02*
X72694800Y59029600D01*
X38222000Y28824000D02*
X38252400Y28854400D01*
X71018400Y59029600D02*
X71018400Y58978800D01*
X48167000Y58517000D02*
X42769000Y58517000D01*
X82027000Y17867000D02*
X87616600Y23456600D01*
X54965600Y63855600D02*
X56845200Y63855600D01*
X48167000Y58517000D02*
X48167000Y59597000D01*
%TO.N,/SCL*%
X75547234Y56897000D02*
X87028034Y56897000D01*
X88138000Y55787034D02*
X88138000Y22352000D01*
X72034400Y70561200D02*
X72288400Y70307200D01*
X72452000Y56982000D02*
X71220400Y55750400D01*
X39776400Y7823200D02*
X40222000Y8268800D01*
X70807565Y59538600D02*
X72905634Y59538600D01*
X40233600Y58115200D02*
X40233600Y37084000D01*
X44907200Y65024000D02*
X44907200Y67818000D01*
X40389200Y35057000D02*
X46852000Y35057000D01*
X40233600Y35212600D02*
X40389200Y35057000D01*
X72905634Y59538600D02*
X75547234Y56897000D01*
X83515200Y14405200D02*
X82027000Y12917000D01*
X59131200Y71323200D02*
X71272400Y71323200D01*
X46329600Y59486800D02*
X45974000Y59131200D01*
X87028034Y56897000D02*
X88138000Y55787034D01*
X46278800Y71323200D02*
X59131200Y71323200D01*
X88138000Y22352000D02*
X83515200Y17729200D01*
X45974000Y59131200D02*
X41249600Y59131200D01*
X71272400Y71323200D02*
X72034400Y70561200D01*
X28070800Y7823200D02*
X39776400Y7823200D01*
X41249600Y59131200D02*
X40233600Y58115200D01*
X70055763Y55750400D02*
X69495400Y56310763D01*
X44907200Y67818000D02*
X44907200Y69951600D01*
X72288400Y70307200D02*
X72288400Y67411600D01*
X69495400Y56310763D02*
X69495400Y58226435D01*
X23027000Y12867000D02*
X28070800Y7823200D01*
X71220400Y55750400D02*
X70055763Y55750400D01*
X46464200Y63467000D02*
X46177200Y63754000D01*
X40222000Y28893600D02*
X40233600Y28905200D01*
X46177200Y71221600D02*
X46278800Y71323200D01*
X69495400Y58226435D02*
X70807565Y59538600D01*
X48167000Y61324200D02*
X46329600Y59486800D01*
X48167000Y63467000D02*
X48167000Y61324200D01*
X83515200Y17729200D02*
X83515200Y14405200D01*
X40222000Y9662000D02*
X40222000Y28893600D01*
X46177200Y63754000D02*
X44907200Y65024000D01*
X44907200Y69951600D02*
X46177200Y71221600D01*
X48167000Y63467000D02*
X46464200Y63467000D01*
X40222000Y8268800D02*
X40222000Y9662000D01*
%TO.N,/COM0*%
X56962000Y44933600D02*
X56962000Y37251600D01*
X56962000Y37251600D02*
X55417400Y35707000D01*
X55417400Y35707000D02*
X54052000Y35707000D01*
%TO.N,/SEG7*%
X50086800Y27840400D02*
X52617400Y25309800D01*
X50086800Y30073600D02*
X50086800Y27840400D01*
X25093600Y31243600D02*
X25093600Y33760400D01*
X46852000Y30507000D02*
X25830200Y30507000D01*
X46852000Y30507000D02*
X49653400Y30507000D01*
X83920000Y26617600D02*
X83920000Y33811200D01*
X82612200Y25309800D02*
X83920000Y26617600D01*
X25830200Y30507000D02*
X25093600Y31243600D01*
X49653400Y30507000D02*
X50086800Y30073600D01*
X52617400Y25309800D02*
X82612200Y25309800D01*
%TO.N,/SEG6*%
X72390000Y38455600D02*
X73304400Y39370000D01*
X46852000Y31157000D02*
X28533000Y31157000D01*
X28533000Y31157000D02*
X27686000Y32004000D01*
X72390000Y28752800D02*
X72390000Y38455600D01*
X50122000Y31157000D02*
X50595800Y30683200D01*
X50595800Y28084765D02*
X52564165Y26116400D01*
X20472400Y41148000D02*
X20013600Y41606800D01*
X73304400Y39370000D02*
X73666200Y39731800D01*
X52564165Y26116400D02*
X72390000Y26116400D01*
X20013600Y41606800D02*
X20013600Y43920400D01*
X73666200Y39731800D02*
X78841600Y39731800D01*
X26263600Y41148000D02*
X20472400Y41148000D01*
X46852000Y31157000D02*
X50122000Y31157000D01*
X27686000Y32004000D02*
X27686000Y39725600D01*
X27686000Y39725600D02*
X26263600Y41148000D01*
X50595800Y30683200D02*
X50595800Y28084765D01*
%TO.N,Net-(JP1-B)*%
X52342000Y46222000D02*
X52322000Y46242000D01*
X52342000Y44082000D02*
X52342000Y46222000D01*
%TO.N,/SEG5*%
X73760000Y29110000D02*
X73760000Y33811200D01*
X73154000Y26922000D02*
X73761600Y26314400D01*
X51104800Y28295600D02*
X51104800Y30988000D01*
X50285800Y31807000D02*
X46852000Y31807000D01*
X28702000Y37033200D02*
X28702000Y32619800D01*
X52478400Y26922000D02*
X51104800Y28295600D01*
X14933600Y33760400D02*
X18206400Y37033200D01*
X73761600Y29108400D02*
X73760000Y29110000D01*
X52832000Y26922000D02*
X73154000Y26922000D01*
X28702000Y32619800D02*
X29514800Y31807000D01*
X51104800Y30988000D02*
X50285800Y31807000D01*
X73761600Y28752800D02*
X73761600Y29108400D01*
X18206400Y37033200D02*
X26466800Y37033200D01*
X52832000Y26922000D02*
X52478400Y26922000D01*
X46852000Y31807000D02*
X29514800Y31807000D01*
%TO.N,Net-(JP2-B)*%
X48792000Y44082000D02*
X48792000Y46312000D01*
X48792000Y46312000D02*
X48812000Y46332000D01*
%TO.N,/SEG4*%
X30077800Y32457000D02*
X46852000Y32457000D01*
X51815000Y28338766D02*
X52722765Y27431000D01*
X17473600Y33760400D02*
X19527200Y35814000D01*
X50387380Y32457000D02*
X51815000Y31029380D01*
X76250800Y29210000D02*
X76300000Y29259200D01*
X51815000Y31029380D02*
X51815000Y28338766D01*
X46852000Y32457000D02*
X50387380Y32457000D01*
X29718000Y35864800D02*
X29718000Y32816800D01*
X52722765Y27431000D02*
X52723765Y27432000D01*
X19527200Y35814000D02*
X26517600Y35814000D01*
X76300000Y29259200D02*
X76300000Y33811200D01*
X75692000Y27432000D02*
X76250800Y26873200D01*
X76250800Y28905200D02*
X76250800Y29210000D01*
X52723765Y27432000D02*
X56083200Y27432000D01*
X56083200Y27432000D02*
X75692000Y27432000D01*
X29718000Y32816800D02*
X30077800Y32457000D01*
%TO.N,/SEG8*%
X20013600Y33760400D02*
X20013600Y30583200D01*
X20739800Y29857000D02*
X46852000Y29857000D01*
X46852000Y29857000D02*
X49286400Y29857000D01*
X78301400Y24688800D02*
X78486000Y24504200D01*
X54813200Y24688800D02*
X78301400Y24688800D01*
X49577800Y29565600D02*
X49577800Y27629565D01*
X52518565Y24688800D02*
X54813200Y24688800D01*
X20013600Y30583200D02*
X20739800Y29857000D01*
X49577800Y27629565D02*
X52518565Y24688800D01*
X49286400Y29857000D02*
X49577800Y29565600D01*
%TO.N,/COM2*%
X51226760Y34407000D02*
X54052000Y34407000D01*
X51122257Y34302497D02*
X51226760Y34407000D01*
%TO.N,/COM3*%
X51456362Y33495897D02*
X50788152Y33495897D01*
X50788152Y33495897D02*
X50106599Y34177450D01*
X54052000Y33757000D02*
X51717465Y33757000D01*
X51717465Y33757000D02*
X51456362Y33495897D01*
X50106599Y34177450D02*
X50106599Y35215710D01*
%TO.N,/COM4*%
X66635000Y33107000D02*
X67614800Y34086800D01*
X67614800Y34086800D02*
X67614800Y43129200D01*
X54052000Y33107000D02*
X66635000Y33107000D01*
X68456800Y43971200D02*
X73760000Y43971200D01*
X67614800Y43129200D02*
X68456800Y43971200D01*
%TO.N,/COM5*%
X68275200Y34027366D02*
X68275200Y40386000D01*
X80670400Y41046400D02*
X81380000Y41756000D01*
X68275200Y40386000D02*
X68935600Y41046400D01*
X66704834Y32457000D02*
X68275200Y34027366D01*
X81380000Y41756000D02*
X81380000Y43971200D01*
X68935600Y41046400D02*
X80670400Y41046400D01*
X54052000Y32457000D02*
X66704834Y32457000D01*
%TO.N,/COM6*%
X83920000Y40946400D02*
X83920000Y43971200D01*
X68784200Y40175166D02*
X69146434Y40537400D01*
X68784200Y33816532D02*
X68784200Y40175166D01*
X69146434Y40537400D02*
X83514200Y40537400D01*
X54052000Y31807000D02*
X66774668Y31807000D01*
X83514200Y40537400D02*
X83921600Y40944800D01*
X68664834Y33697165D02*
X68784200Y33816532D01*
X66774668Y31807000D02*
X68664834Y33697165D01*
X83921600Y40944800D02*
X83920000Y40946400D01*
%TD*%
%TA.AperFunction,Conductor*%
%TO.N,VCC*%
G36*
X47309539Y57844415D02*
G01*
X47355294Y57791611D01*
X47366500Y57740100D01*
X47366500Y57626299D01*
X47369401Y57589433D01*
X47369402Y57589427D01*
X47415254Y57431607D01*
X47415255Y57431604D01*
X47498917Y57290138D01*
X47498923Y57290130D01*
X47615129Y57173924D01*
X47615133Y57173921D01*
X47615135Y57173919D01*
X47756602Y57090256D01*
X47798224Y57078164D01*
X47914426Y57044403D01*
X47914429Y57044403D01*
X47914431Y57044402D01*
X47951306Y57041500D01*
X47951314Y57041500D01*
X48351197Y57041500D01*
X48418236Y57021815D01*
X48463991Y56969011D01*
X48473935Y56899853D01*
X48444910Y56836297D01*
X48438878Y56829819D01*
X48178278Y56569219D01*
X48116955Y56535734D01*
X48090597Y56532900D01*
X47687693Y56532900D01*
X47561561Y56507811D01*
X47561555Y56507809D01*
X47442737Y56458593D01*
X47335797Y56387139D01*
X47335796Y56387138D01*
X47064863Y56116206D01*
X47064859Y56116200D01*
X47002720Y56023200D01*
X47002719Y56023198D01*
X46993408Y56009265D01*
X46993407Y56009263D01*
X46944191Y55890445D01*
X46944189Y55890439D01*
X46919100Y55764308D01*
X46919100Y55366500D01*
X46899415Y55299461D01*
X46846611Y55253706D01*
X46795100Y55242500D01*
X46524130Y55242500D01*
X46524123Y55242499D01*
X46464516Y55236092D01*
X46329671Y55185798D01*
X46329664Y55185794D01*
X46214455Y55099548D01*
X46214452Y55099545D01*
X46128206Y54984336D01*
X46128202Y54984329D01*
X46077908Y54849483D01*
X46071501Y54789884D01*
X46071500Y54789865D01*
X46071500Y52694130D01*
X46071501Y52694124D01*
X46077908Y52634517D01*
X46128202Y52499672D01*
X46128206Y52499665D01*
X46214452Y52384456D01*
X46214455Y52384453D01*
X46329664Y52298207D01*
X46335192Y52295188D01*
X46384596Y52245781D01*
X46399446Y52177508D01*
X46375027Y52112044D01*
X46323215Y52071796D01*
X46202149Y52021650D01*
X46202140Y52021645D01*
X46070252Y51933520D01*
X46032186Y51895453D01*
X45958082Y51821349D01*
X45958079Y51821346D01*
X43885854Y49749121D01*
X43885851Y49749118D01*
X43773682Y49636949D01*
X43717753Y49553244D01*
X43705205Y49534465D01*
X43705204Y49534465D01*
X43685553Y49505056D01*
X43685549Y49505049D01*
X43624848Y49358502D01*
X43624845Y49358492D01*
X43593899Y49202918D01*
X43593899Y49038172D01*
X43593900Y49038151D01*
X43593900Y44078854D01*
X43574215Y44011815D01*
X43573003Y44009964D01*
X43556877Y43985830D01*
X43485227Y43812852D01*
X43485225Y43812844D01*
X43448700Y43629221D01*
X43448700Y43441980D01*
X43485225Y43258357D01*
X43485227Y43258349D01*
X43556877Y43085371D01*
X43573001Y43061240D01*
X43593880Y42994563D01*
X43593900Y42992348D01*
X43593900Y41797058D01*
X43574215Y41730019D01*
X43534997Y41691520D01*
X43455547Y41642515D01*
X43455543Y41642512D01*
X43331489Y41518458D01*
X43239387Y41369137D01*
X43239385Y41369132D01*
X43234924Y41355669D01*
X43184201Y41202597D01*
X43184201Y41202596D01*
X43184200Y41202596D01*
X43173700Y41099817D01*
X43173700Y40324799D01*
X43173701Y40324781D01*
X43184200Y40222004D01*
X43184201Y40222001D01*
X43217853Y40120447D01*
X43239386Y40055466D01*
X43331488Y39906144D01*
X43455544Y39782088D01*
X43458828Y39780063D01*
X43458853Y39780047D01*
X43460645Y39778054D01*
X43461211Y39777607D01*
X43461134Y39777511D01*
X43505579Y39728101D01*
X43516803Y39659139D01*
X43488961Y39595056D01*
X43458865Y39568974D01*
X43455860Y39567121D01*
X43455855Y39567117D01*
X43331884Y39443146D01*
X43239843Y39293925D01*
X43239841Y39293920D01*
X43184694Y39127498D01*
X43184693Y39127491D01*
X43174200Y39024787D01*
X43174200Y38887300D01*
X45624199Y38887300D01*
X45624199Y39024772D01*
X45624198Y39024787D01*
X45613705Y39127498D01*
X45558558Y39293920D01*
X45558556Y39293925D01*
X45466515Y39443146D01*
X45342544Y39567117D01*
X45342541Y39567119D01*
X45339539Y39568971D01*
X45337913Y39570779D01*
X45336877Y39571598D01*
X45337017Y39571776D01*
X45292817Y39620920D01*
X45281597Y39689883D01*
X45309443Y39753964D01*
X45339544Y39780046D01*
X45342856Y39782088D01*
X45466912Y39906144D01*
X45559014Y40055466D01*
X45614199Y40222003D01*
X45624700Y40324791D01*
X45624699Y41099808D01*
X45614199Y41202597D01*
X45559014Y41369134D01*
X45466912Y41518456D01*
X45342856Y41642512D01*
X45342852Y41642515D01*
X45263403Y41691520D01*
X45216678Y41743468D01*
X45204500Y41797058D01*
X45204500Y42992348D01*
X45224185Y43059387D01*
X45225399Y43061240D01*
X45230315Y43068597D01*
X45241522Y43085369D01*
X45313173Y43258349D01*
X45349700Y43441984D01*
X45349700Y43629216D01*
X45313173Y43812851D01*
X45241522Y43985831D01*
X45225396Y44009965D01*
X45204520Y44076642D01*
X45204500Y44078854D01*
X45204500Y48738672D01*
X45224185Y48805711D01*
X45240819Y48826353D01*
X46880847Y50466381D01*
X46942170Y50499866D01*
X46968528Y50502700D01*
X47014877Y50502700D01*
X47081916Y50483015D01*
X47127671Y50430211D01*
X47137615Y50361053D01*
X47108590Y50297497D01*
X47083770Y50275601D01*
X47047084Y50251088D01*
X47030996Y50240338D01*
X47030995Y50240337D01*
X46178063Y49387406D01*
X46178063Y49387405D01*
X46178060Y49387402D01*
X46178059Y49387400D01*
X46158744Y49358492D01*
X46116851Y49295793D01*
X46106606Y49280461D01*
X46057391Y49161645D01*
X46057389Y49161639D01*
X46032300Y49035508D01*
X46032300Y43369693D01*
X46055917Y43250968D01*
X46055919Y43250960D01*
X46057391Y43243553D01*
X46106606Y43124738D01*
X46178062Y43017796D01*
X46178063Y43017795D01*
X46920994Y42274865D01*
X46920995Y42274864D01*
X46920998Y42274862D01*
X46921000Y42274860D01*
X47009776Y42215542D01*
X47009778Y42215540D01*
X47016406Y42211112D01*
X47027936Y42203408D01*
X47146756Y42154191D01*
X47146760Y42154191D01*
X47146761Y42154190D01*
X47272892Y42129100D01*
X47272895Y42129100D01*
X47721548Y42129100D01*
X47788587Y42109415D01*
X47809229Y42092781D01*
X47877551Y42024459D01*
X47877555Y42024456D01*
X47982232Y41944133D01*
X47982255Y41944117D01*
X48077099Y41889360D01*
X48125315Y41838794D01*
X48139100Y41781973D01*
X48139100Y37140537D01*
X48119415Y37073498D01*
X48066611Y37027743D01*
X47997453Y37017799D01*
X47971767Y37024355D01*
X47834379Y37075597D01*
X47834372Y37075599D01*
X47774844Y37082000D01*
X47077000Y37082000D01*
X47077000Y36556500D01*
X47074449Y36547815D01*
X47075738Y36538853D01*
X47064759Y36514813D01*
X47057315Y36489461D01*
X47050474Y36483534D01*
X47046713Y36475297D01*
X47024478Y36461008D01*
X47004511Y36443706D01*
X46993996Y36441419D01*
X46987935Y36437523D01*
X46953000Y36432500D01*
X46751000Y36432500D01*
X46683961Y36452185D01*
X46638206Y36504989D01*
X46627000Y36556500D01*
X46627000Y37082000D01*
X45929155Y37082000D01*
X45869627Y37075599D01*
X45869620Y37075597D01*
X45734913Y37025355D01*
X45734906Y37025351D01*
X45619812Y36939191D01*
X45619809Y36939188D01*
X45533649Y36824094D01*
X45533645Y36824087D01*
X45483403Y36689380D01*
X45483401Y36689373D01*
X45477000Y36629845D01*
X45477000Y36483900D01*
X45457315Y36416861D01*
X45404511Y36371106D01*
X45353000Y36359900D01*
X42178900Y36359900D01*
X42111861Y36379585D01*
X42066106Y36432389D01*
X42054900Y36483900D01*
X42054900Y38249814D01*
X43174201Y38249814D01*
X43184694Y38147103D01*
X43239841Y37980681D01*
X43239843Y37980676D01*
X43331884Y37831455D01*
X43455854Y37707485D01*
X43605075Y37615444D01*
X43605080Y37615442D01*
X43771502Y37560295D01*
X43771509Y37560294D01*
X43874219Y37549801D01*
X44149199Y37549801D01*
X44649200Y37549801D01*
X44924172Y37549801D01*
X44924186Y37549802D01*
X45026897Y37560295D01*
X45193319Y37615442D01*
X45193324Y37615444D01*
X45342545Y37707485D01*
X45466515Y37831455D01*
X45558556Y37980676D01*
X45558558Y37980681D01*
X45613705Y38147103D01*
X45613706Y38147110D01*
X45624199Y38249814D01*
X45624200Y38249827D01*
X45624200Y38387300D01*
X44649200Y38387300D01*
X44649200Y37549801D01*
X44149199Y37549801D01*
X44149200Y37549802D01*
X44149200Y38387300D01*
X43174201Y38387300D01*
X43174201Y38249814D01*
X42054900Y38249814D01*
X42054900Y56828198D01*
X42074585Y56895237D01*
X42091219Y56915879D01*
X43003121Y57827781D01*
X43064444Y57861266D01*
X43090802Y57864100D01*
X47242500Y57864100D01*
X47309539Y57844415D01*
G37*
%TD.AperFunction*%
%TA.AperFunction,Conductor*%
G36*
X69797165Y60146056D02*
G01*
X69827156Y60139532D01*
X69832171Y60135778D01*
X69834767Y60135015D01*
X69855410Y60118380D01*
X69904488Y60069301D01*
X69904492Y60069298D01*
X70060162Y59965282D01*
X70060175Y59965275D01*
X70066010Y59962858D01*
X70120414Y59919017D01*
X70142479Y59852723D01*
X70125200Y59785024D01*
X70106239Y59760616D01*
X68988258Y58642635D01*
X68988254Y58642630D01*
X68943519Y58575676D01*
X68943517Y58575674D01*
X68938201Y58567716D01*
X68916808Y58535699D01*
X68867591Y58416879D01*
X68865993Y58408850D01*
X68859900Y58395736D01*
X68842368Y58375772D01*
X68827805Y58353553D01*
X68819672Y58349928D01*
X68813797Y58343236D01*
X68788256Y58335921D01*
X68763991Y58325101D01*
X68753725Y58326029D01*
X68746629Y58323996D01*
X68733921Y58327819D01*
X68714516Y58329573D01*
X68714325Y58328776D01*
X68709585Y58329914D01*
X68702000Y58331116D01*
X68702000Y57262330D01*
X68682255Y57282075D01*
X68596745Y57331444D01*
X68501370Y57357000D01*
X68402630Y57357000D01*
X68307255Y57331444D01*
X68221745Y57282075D01*
X68202000Y57262330D01*
X68202000Y58331116D01*
X68201999Y58331116D01*
X68194418Y58329915D01*
X68194410Y58329913D01*
X68029742Y58276409D01*
X67875475Y58197805D01*
X67735401Y58096036D01*
X67627799Y57988434D01*
X67566476Y57954950D01*
X67496784Y57959934D01*
X67440851Y58001806D01*
X67434585Y58011012D01*
X67394712Y58075656D01*
X67270656Y58199712D01*
X67146310Y58276409D01*
X67121336Y58291813D01*
X67121331Y58291815D01*
X67079613Y58305639D01*
X66954797Y58346999D01*
X66954795Y58347000D01*
X66852010Y58357500D01*
X66051998Y58357500D01*
X66051980Y58357499D01*
X65949203Y58347000D01*
X65949200Y58346999D01*
X65782668Y58291815D01*
X65782663Y58291813D01*
X65633342Y58199711D01*
X65509289Y58075658D01*
X65417187Y57926337D01*
X65417185Y57926332D01*
X65395044Y57859513D01*
X65362001Y57759797D01*
X65362001Y57759796D01*
X65362000Y57759796D01*
X65351500Y57657017D01*
X65351500Y56306999D01*
X65351501Y56306982D01*
X65362000Y56204204D01*
X65362001Y56204201D01*
X65417185Y56037669D01*
X65417187Y56037664D01*
X65426110Y56023198D01*
X65509288Y55888344D01*
X65633344Y55764288D01*
X65782666Y55672186D01*
X65949203Y55617001D01*
X66051991Y55606500D01*
X66852008Y55606501D01*
X66852016Y55606502D01*
X66852019Y55606502D01*
X66908302Y55612252D01*
X66954797Y55617001D01*
X67121334Y55672186D01*
X67270656Y55764288D01*
X67394712Y55888344D01*
X67434581Y55952984D01*
X67486525Y55999706D01*
X67555488Y56010929D01*
X67619570Y55983086D01*
X67627799Y55975566D01*
X67735397Y55867968D01*
X67875475Y55766196D01*
X68029744Y55687592D01*
X68194415Y55634086D01*
X68194414Y55634086D01*
X68201999Y55632885D01*
X68202000Y55632886D01*
X68202000Y56701670D01*
X68221745Y56681925D01*
X68307255Y56632556D01*
X68402630Y56607000D01*
X68501370Y56607000D01*
X68596745Y56632556D01*
X68682255Y56681925D01*
X68702000Y56701670D01*
X68702000Y55632885D01*
X68709584Y55634086D01*
X68874257Y55687592D01*
X69006615Y55755033D01*
X69075284Y55767930D01*
X69140025Y55741654D01*
X69150592Y55732230D01*
X69639558Y55243264D01*
X69639561Y55243262D01*
X69639564Y55243259D01*
X69745586Y55172418D01*
X69745605Y55172396D01*
X69745610Y55172402D01*
X69745619Y55172396D01*
X69746499Y55171808D01*
X69865319Y55122591D01*
X69865323Y55122591D01*
X69865324Y55122590D01*
X69991455Y55097500D01*
X69991458Y55097500D01*
X71284707Y55097500D01*
X71369565Y55114381D01*
X71410844Y55122591D01*
X71529664Y55171808D01*
X71636600Y55243259D01*
X72014252Y55620914D01*
X72075571Y55654396D01*
X72140246Y55651162D01*
X72194299Y55633598D01*
X72365389Y55606500D01*
X72365390Y55606500D01*
X72538610Y55606500D01*
X72538611Y55606500D01*
X72709701Y55633598D01*
X72874445Y55687127D01*
X73028788Y55765768D01*
X73168928Y55867586D01*
X73291414Y55990072D01*
X73393232Y56130212D01*
X73471873Y56284555D01*
X73491114Y56343773D01*
X73530550Y56401446D01*
X73594909Y56428645D01*
X73663755Y56416731D01*
X73696725Y56393134D01*
X74208998Y55880861D01*
X74209001Y55880859D01*
X74315936Y55809408D01*
X74434756Y55760191D01*
X74434760Y55760191D01*
X74434761Y55760190D01*
X74560892Y55735100D01*
X74560895Y55735100D01*
X86495397Y55735100D01*
X86562436Y55715415D01*
X86583078Y55698781D01*
X86927381Y55354479D01*
X86960866Y55293156D01*
X86963700Y55266798D01*
X86963700Y45345636D01*
X86944015Y45278597D01*
X86891211Y45232842D01*
X86822053Y45222898D01*
X86801382Y45227705D01*
X86764536Y45239677D01*
X86603195Y45265231D01*
X86562352Y45271700D01*
X86357648Y45271700D01*
X86182816Y45244010D01*
X86113523Y45252965D01*
X86075738Y45278802D01*
X85076605Y46277937D01*
X85076604Y46277938D01*
X85046387Y46298128D01*
X84969664Y46349392D01*
X84969427Y46349490D01*
X84850844Y46398609D01*
X84850838Y46398611D01*
X84724707Y46423700D01*
X84724705Y46423700D01*
X81547505Y46423700D01*
X62001636Y46423700D01*
X61934597Y46443385D01*
X61913955Y46460019D01*
X61249198Y47124778D01*
X61249175Y47124799D01*
X60328419Y48045556D01*
X60313715Y48072484D01*
X60297123Y48098302D01*
X60296231Y48104503D01*
X60294934Y48106879D01*
X60292100Y48133237D01*
X60292100Y48217905D01*
X60311785Y48284944D01*
X60364589Y48330699D01*
X60433747Y48340643D01*
X60440278Y48339525D01*
X60510782Y48325501D01*
X60510783Y48325500D01*
X60510784Y48325500D01*
X60698017Y48325500D01*
X60698018Y48325501D01*
X60881651Y48362027D01*
X61054631Y48433678D01*
X61210308Y48537698D01*
X61342702Y48670092D01*
X61446722Y48825769D01*
X61518373Y48998749D01*
X61554900Y49182384D01*
X61554900Y49369616D01*
X61518373Y49553251D01*
X61446722Y49726231D01*
X61430596Y49750365D01*
X61409720Y49817042D01*
X61409700Y49819254D01*
X61409700Y58490128D01*
X61429385Y58557167D01*
X61446020Y58577810D01*
X61495099Y58626889D01*
X61495102Y58626892D01*
X61599122Y58782569D01*
X61670773Y58955549D01*
X61707300Y59139184D01*
X61707300Y59326416D01*
X61670773Y59510051D01*
X61608920Y59659377D01*
X61599123Y59683029D01*
X61599118Y59683038D01*
X61495102Y59838708D01*
X61495099Y59838712D01*
X61390792Y59943019D01*
X61357307Y60004342D01*
X61362291Y60074034D01*
X61404163Y60129967D01*
X61469627Y60154384D01*
X61478473Y60154700D01*
X69767728Y60154700D01*
X69797165Y60146056D01*
G37*
%TD.AperFunction*%
%TA.AperFunction,Conductor*%
G36*
X57888186Y61879629D02*
G01*
X57921686Y61855773D01*
X59476998Y60300461D01*
X59552670Y60249899D01*
X59583930Y60229012D01*
X59583938Y60229007D01*
X59608450Y60218854D01*
X59702756Y60179791D01*
X59702760Y60179791D01*
X59702761Y60179790D01*
X59828892Y60154700D01*
X59828895Y60154700D01*
X60035127Y60154700D01*
X60102166Y60135015D01*
X60147921Y60082211D01*
X60157865Y60013053D01*
X60128840Y59949497D01*
X60122808Y59943019D01*
X60018500Y59838712D01*
X60018497Y59838708D01*
X59914481Y59683038D01*
X59914476Y59683029D01*
X59842827Y59510052D01*
X59842825Y59510044D01*
X59806300Y59326421D01*
X59806300Y59139180D01*
X59842825Y58955557D01*
X59842827Y58955549D01*
X59914476Y58782572D01*
X59914481Y58782563D01*
X60018497Y58626893D01*
X60018500Y58626889D01*
X60067580Y58577810D01*
X60101066Y58516487D01*
X60103900Y58490128D01*
X60103900Y50151014D01*
X60101663Y50143396D01*
X60102933Y50135558D01*
X60091960Y50110352D01*
X60084215Y50083975D01*
X60077503Y50077143D01*
X60075045Y50071495D01*
X60048788Y50047910D01*
X60044726Y50045196D01*
X59978048Y50024320D01*
X59910669Y50042806D01*
X59888157Y50060619D01*
X58844838Y51103938D01*
X58844834Y51103941D01*
X58737898Y51175392D01*
X58619078Y51224609D01*
X58619072Y51224611D01*
X58492941Y51249700D01*
X58492939Y51249700D01*
X54997072Y51249700D01*
X54930033Y51269385D01*
X54909390Y51286020D01*
X54860311Y51335100D01*
X54860307Y51335103D01*
X54704637Y51439119D01*
X54704628Y51439124D01*
X54531651Y51510773D01*
X54531643Y51510775D01*
X54348020Y51547300D01*
X54348016Y51547300D01*
X54160784Y51547300D01*
X54160779Y51547300D01*
X53977156Y51510775D01*
X53977148Y51510773D01*
X53804171Y51439124D01*
X53804162Y51439119D01*
X53648492Y51335103D01*
X53648488Y51335100D01*
X53516100Y51202712D01*
X53516097Y51202708D01*
X53412081Y51047038D01*
X53412076Y51047029D01*
X53340427Y50874052D01*
X53340425Y50874044D01*
X53303900Y50690421D01*
X53303900Y50510100D01*
X53284215Y50443061D01*
X53231411Y50397306D01*
X53179900Y50386100D01*
X49449756Y50386100D01*
X49382717Y50405785D01*
X49336962Y50458589D01*
X49327018Y50527747D01*
X49356043Y50591303D01*
X49380865Y50613202D01*
X49448702Y50658530D01*
X49484549Y50682482D01*
X49596718Y50794651D01*
X49596719Y50794653D01*
X49603785Y50801719D01*
X49603788Y50801723D01*
X50585345Y51783280D01*
X50585349Y51783282D01*
X50697518Y51895451D01*
X50785648Y52027347D01*
X50846353Y52173903D01*
X50877300Y52329485D01*
X50877300Y52409185D01*
X50896985Y52476224D01*
X50928412Y52509501D01*
X51049510Y52597483D01*
X51216517Y52764490D01*
X51221682Y52771599D01*
X51277012Y52814265D01*
X51346625Y52820244D01*
X51408420Y52787638D01*
X51422318Y52771599D01*
X51427483Y52764490D01*
X51594490Y52597483D01*
X51785567Y52458657D01*
X51882661Y52409185D01*
X51996003Y52351434D01*
X51996005Y52351434D01*
X51996008Y52351432D01*
X52084611Y52322643D01*
X52220631Y52278447D01*
X52453903Y52241500D01*
X52453908Y52241500D01*
X52690097Y52241500D01*
X52923368Y52278447D01*
X52974891Y52295188D01*
X53147992Y52351432D01*
X53358433Y52458657D01*
X53549510Y52597483D01*
X53716517Y52764490D01*
X53855343Y52955567D01*
X53962568Y53166008D01*
X54035553Y53390632D01*
X54072500Y53623903D01*
X54072500Y53860098D01*
X54035553Y54093369D01*
X53962566Y54317997D01*
X53855342Y54528434D01*
X53716517Y54719510D01*
X53549510Y54886517D01*
X53358433Y55025343D01*
X53147996Y55132567D01*
X52923368Y55205554D01*
X52690097Y55242500D01*
X52690092Y55242500D01*
X52453908Y55242500D01*
X52453903Y55242500D01*
X52220632Y55205554D01*
X52150364Y55182723D01*
X52080523Y55180729D01*
X52024367Y55212974D01*
X51396219Y55841122D01*
X51362734Y55902445D01*
X51359900Y55928803D01*
X51359900Y56995685D01*
X51379585Y57062724D01*
X51432389Y57108479D01*
X51501547Y57118423D01*
X51547022Y57102416D01*
X51566800Y57090719D01*
X51724514Y57044900D01*
X51724511Y57044900D01*
X51726998Y57044705D01*
X51727000Y57044705D01*
X52227000Y57044705D01*
X52227001Y57044705D01*
X52229486Y57044900D01*
X52387198Y57090719D01*
X52528552Y57174315D01*
X52528561Y57174322D01*
X52631253Y57277014D01*
X53087001Y57277014D01*
X53097494Y57174303D01*
X53152641Y57007881D01*
X53152643Y57007876D01*
X53244684Y56858655D01*
X53368654Y56734685D01*
X53517875Y56642644D01*
X53517880Y56642642D01*
X53684302Y56587495D01*
X53684309Y56587494D01*
X53787019Y56577001D01*
X53924499Y56577001D01*
X53924500Y56577002D01*
X53924500Y57552000D01*
X53087001Y57552000D01*
X53087001Y57277014D01*
X52631253Y57277014D01*
X52644678Y57290439D01*
X52644685Y57290448D01*
X52728282Y57431804D01*
X52728283Y57431807D01*
X52774099Y57589505D01*
X52774100Y57589511D01*
X52775956Y57613091D01*
X52775956Y57613092D01*
X52776999Y57626348D01*
X52777000Y57626366D01*
X52777000Y58267000D01*
X52227000Y58267000D01*
X52227000Y57044705D01*
X51727000Y57044705D01*
X51727000Y58326987D01*
X53087000Y58326987D01*
X53087000Y58052000D01*
X53924500Y58052000D01*
X53924500Y59027000D01*
X53787027Y59027000D01*
X53787012Y59026999D01*
X53684302Y59016506D01*
X53517880Y58961359D01*
X53517875Y58961357D01*
X53368654Y58869316D01*
X53244684Y58745346D01*
X53152643Y58596125D01*
X53152641Y58596120D01*
X53097494Y58429698D01*
X53097493Y58429691D01*
X53087000Y58326987D01*
X51727000Y58326987D01*
X51727000Y58767000D01*
X52227000Y58767000D01*
X52777000Y58767000D01*
X52777000Y59407635D01*
X52776999Y59407650D01*
X52774100Y59444490D01*
X52774099Y59444496D01*
X52728283Y59602194D01*
X52728282Y59602197D01*
X52644685Y59743553D01*
X52644678Y59743562D01*
X52528561Y59859679D01*
X52528552Y59859686D01*
X52387196Y59943283D01*
X52387193Y59943284D01*
X52229494Y59989100D01*
X52229497Y59989100D01*
X52227000Y59989297D01*
X52227000Y58767000D01*
X51727000Y58767000D01*
X51727000Y59989297D01*
X51724503Y59989100D01*
X51566806Y59943284D01*
X51566803Y59943283D01*
X51425449Y59859687D01*
X51419283Y59854903D01*
X51417389Y59857345D01*
X51368580Y59830761D01*
X51298894Y59835821D01*
X51266227Y59856841D01*
X51265031Y59855298D01*
X51258862Y59860083D01*
X51118624Y59943019D01*
X51117398Y59943744D01*
X51117397Y59943745D01*
X51117396Y59943745D01*
X51117393Y59943746D01*
X50959573Y59989598D01*
X50959567Y59989599D01*
X50922701Y59992500D01*
X50922694Y59992500D01*
X50491306Y59992500D01*
X50491298Y59992500D01*
X50454432Y59989599D01*
X50454426Y59989598D01*
X50296606Y59943746D01*
X50296603Y59943745D01*
X50155137Y59860083D01*
X50148969Y59855298D01*
X50147072Y59857744D01*
X50098358Y59831143D01*
X50028666Y59836127D01*
X49996296Y59856931D01*
X49995031Y59855298D01*
X49988862Y59860083D01*
X49848624Y59943019D01*
X49847398Y59943744D01*
X49847397Y59943745D01*
X49847396Y59943745D01*
X49847395Y59943746D01*
X49730800Y59977620D01*
X49726799Y59980176D01*
X49722062Y59980514D01*
X49697629Y59998805D01*
X49671915Y60015227D01*
X49669930Y60019541D01*
X49666129Y60022386D01*
X49655465Y60050977D01*
X49642709Y60078699D01*
X49643371Y60083402D01*
X49641712Y60087850D01*
X49648197Y60117666D01*
X49652455Y60147886D01*
X49655834Y60152768D01*
X49656564Y60156123D01*
X49677710Y60184372D01*
X49783590Y60290252D01*
X49783595Y60290255D01*
X49793798Y60300459D01*
X49793800Y60300459D01*
X49814922Y60321581D01*
X49876245Y60355066D01*
X49902603Y60357900D01*
X52185107Y60357900D01*
X52269965Y60374781D01*
X52311244Y60382991D01*
X52430064Y60432208D01*
X52436515Y60436518D01*
X52486756Y60470088D01*
X52537000Y60503659D01*
X53359819Y61326480D01*
X53421142Y61359964D01*
X53490833Y61354980D01*
X53546767Y61313109D01*
X53571184Y61247644D01*
X53571500Y61238798D01*
X53571500Y61104333D01*
X53571501Y61104316D01*
X53607438Y60831345D01*
X53607439Y60831340D01*
X53607440Y60831334D01*
X53638884Y60713984D01*
X53678704Y60565370D01*
X53784075Y60310983D01*
X53784080Y60310972D01*
X53859819Y60179790D01*
X53921751Y60072521D01*
X53921753Y60072518D01*
X53921754Y60072517D01*
X54089370Y59854074D01*
X54089376Y59854067D01*
X54284066Y59659377D01*
X54284073Y59659371D01*
X54304929Y59643368D01*
X54502521Y59491751D01*
X54635981Y59414698D01*
X54740971Y59354081D01*
X54740976Y59354079D01*
X54740979Y59354077D01*
X54995368Y59248705D01*
X55261334Y59177440D01*
X55476906Y59149060D01*
X55540802Y59120794D01*
X55579273Y59062469D01*
X55580104Y58992605D01*
X55543032Y58933381D01*
X55525817Y58920583D01*
X55443347Y58869715D01*
X55443343Y58869712D01*
X55319288Y58745657D01*
X55319283Y58745651D01*
X55317241Y58742339D01*
X55315247Y58740547D01*
X55314807Y58739989D01*
X55314711Y58740065D01*
X55265291Y58695617D01*
X55196328Y58684398D01*
X55132247Y58712245D01*
X55106168Y58742344D01*
X55104319Y58745341D01*
X55104316Y58745345D01*
X54980345Y58869316D01*
X54831124Y58961357D01*
X54831119Y58961359D01*
X54664697Y59016506D01*
X54664690Y59016507D01*
X54561986Y59027000D01*
X54424500Y59027000D01*
X54424500Y56577001D01*
X54561972Y56577001D01*
X54561986Y56577002D01*
X54664697Y56587495D01*
X54831119Y56642642D01*
X54831124Y56642644D01*
X54980345Y56734685D01*
X55104318Y56858658D01*
X55106165Y56861652D01*
X55107969Y56863276D01*
X55108798Y56864323D01*
X55108976Y56864182D01*
X55158110Y56908379D01*
X55227073Y56919604D01*
X55291156Y56891764D01*
X55317243Y56861659D01*
X55319288Y56858344D01*
X55443344Y56734288D01*
X55592666Y56642186D01*
X55759203Y56587001D01*
X55861991Y56576500D01*
X56637008Y56576501D01*
X56637016Y56576502D01*
X56637019Y56576502D01*
X56693302Y56582252D01*
X56739797Y56587001D01*
X56906334Y56642186D01*
X57055656Y56734288D01*
X57179712Y56858344D01*
X57271814Y57007666D01*
X57326999Y57174203D01*
X57337500Y57276991D01*
X57337499Y57843458D01*
X57357183Y57910496D01*
X57373813Y57931133D01*
X57937228Y58494548D01*
X57998549Y58528031D01*
X58068241Y58523047D01*
X58072329Y58521439D01*
X58193549Y58471227D01*
X58377179Y58434701D01*
X58377183Y58434700D01*
X58377184Y58434700D01*
X58564417Y58434700D01*
X58564418Y58434701D01*
X58748051Y58471227D01*
X58921031Y58542878D01*
X59076708Y58646898D01*
X59209102Y58779292D01*
X59313122Y58934969D01*
X59384773Y59107949D01*
X59421300Y59291584D01*
X59421300Y59478816D01*
X59384773Y59662451D01*
X59326250Y59803738D01*
X59313123Y59835429D01*
X59313118Y59835438D01*
X59209102Y59991108D01*
X59209099Y59991112D01*
X59076711Y60123500D01*
X59076707Y60123503D01*
X58921037Y60227519D01*
X58921028Y60227524D01*
X58748051Y60299173D01*
X58748043Y60299175D01*
X58564420Y60335700D01*
X58564416Y60335700D01*
X58377184Y60335700D01*
X58377179Y60335700D01*
X58193556Y60299175D01*
X58193548Y60299173D01*
X58020571Y60227524D01*
X58020562Y60227519D01*
X57864892Y60123503D01*
X57860182Y60119637D01*
X57859006Y60121069D01*
X57805286Y60091735D01*
X57798652Y60090480D01*
X57788852Y60088901D01*
X57763392Y60088901D01*
X57654889Y60067318D01*
X57652620Y60066952D01*
X57620121Y60071064D01*
X57587496Y60073983D01*
X57585637Y60075427D01*
X57583303Y60075722D01*
X57558182Y60096755D01*
X57532319Y60116846D01*
X57531536Y60119065D01*
X57529731Y60120576D01*
X57519967Y60151857D01*
X57509074Y60182736D01*
X57509615Y60185026D01*
X57508914Y60187272D01*
X57517608Y60218854D01*
X57525142Y60250733D01*
X57525510Y60251374D01*
X57559917Y60310968D01*
X57559918Y60310972D01*
X57559923Y60310979D01*
X57665295Y60565368D01*
X57736560Y60831334D01*
X57772500Y61104326D01*
X57772500Y61379674D01*
X57736560Y61652666D01*
X57714230Y61736003D01*
X57715893Y61805848D01*
X57755055Y61863711D01*
X57819283Y61891215D01*
X57888186Y61879629D01*
G37*
%TD.AperFunction*%
%TA.AperFunction,Conductor*%
G36*
X97125735Y75641274D02*
G01*
X97415796Y75623729D01*
X97430657Y75621925D01*
X97712797Y75570220D01*
X97727334Y75566637D01*
X98001171Y75481305D01*
X98015163Y75476000D01*
X98116682Y75430310D01*
X98276735Y75358276D01*
X98289994Y75351317D01*
X98412726Y75277123D01*
X98535464Y75202925D01*
X98547776Y75194427D01*
X98773573Y75017527D01*
X98784781Y75007597D01*
X98987595Y74804782D01*
X98997525Y74793574D01*
X99174422Y74567783D01*
X99182928Y74555460D01*
X99331316Y74309996D01*
X99338275Y74296737D01*
X99455997Y74035169D01*
X99461306Y74021168D01*
X99546635Y73747337D01*
X99550219Y73732799D01*
X99601923Y73450660D01*
X99603728Y73435795D01*
X99621273Y73145754D01*
X99621499Y73138267D01*
X99621499Y3145751D01*
X99621273Y3138264D01*
X99603727Y2848206D01*
X99601922Y2833341D01*
X99550218Y2551203D01*
X99546634Y2536665D01*
X99461303Y2262826D01*
X99455993Y2248824D01*
X99338276Y1987270D01*
X99331318Y1974013D01*
X99182927Y1728542D01*
X99174421Y1716218D01*
X98997525Y1490427D01*
X98987595Y1479219D01*
X98784780Y1276405D01*
X98773572Y1266475D01*
X98547781Y1089578D01*
X98535458Y1081072D01*
X98289995Y932685D01*
X98276736Y925726D01*
X98015167Y808004D01*
X98001166Y802695D01*
X97727335Y717366D01*
X97712797Y713782D01*
X97430659Y662078D01*
X97415794Y660273D01*
X97222701Y648593D01*
X97125711Y642726D01*
X97118239Y642500D01*
X3125751Y642500D01*
X3118264Y642726D01*
X2828205Y660272D01*
X2813340Y662077D01*
X2531201Y713781D01*
X2516663Y717365D01*
X2242832Y802694D01*
X2228831Y808003D01*
X1967263Y925725D01*
X1954004Y932684D01*
X1708540Y1081072D01*
X1696217Y1089578D01*
X1470426Y1266475D01*
X1459218Y1276405D01*
X1256403Y1479219D01*
X1246473Y1490427D01*
X1069577Y1716219D01*
X1061075Y1728536D01*
X920366Y1961296D01*
X912683Y1974006D01*
X905724Y1987265D01*
X788002Y2248833D01*
X782693Y2262834D01*
X774096Y2290422D01*
X697363Y2536666D01*
X693780Y2551203D01*
X642076Y2833341D01*
X640271Y2848206D01*
X626486Y3076106D01*
X622724Y3138288D01*
X622499Y3145762D01*
X622499Y6263289D01*
X4271500Y6263289D01*
X4271500Y6020712D01*
X4303161Y5780215D01*
X4365947Y5545896D01*
X4458773Y5321795D01*
X4458776Y5321788D01*
X4580064Y5111711D01*
X4580066Y5111708D01*
X4580067Y5111707D01*
X4727733Y4919264D01*
X4727739Y4919257D01*
X4899256Y4747740D01*
X4899262Y4747735D01*
X5091711Y4600064D01*
X5301788Y4478776D01*
X5525900Y4385946D01*
X5760211Y4323162D01*
X5940586Y4299416D01*
X6000711Y4291500D01*
X6000712Y4291500D01*
X6243289Y4291500D01*
X6291388Y4297833D01*
X6483789Y4323162D01*
X6718100Y4385946D01*
X6942212Y4478776D01*
X7152289Y4600064D01*
X7344738Y4747735D01*
X7516265Y4919262D01*
X7663936Y5111711D01*
X7785224Y5321788D01*
X7878054Y5545900D01*
X7940838Y5780211D01*
X7972500Y6020712D01*
X7972500Y6263288D01*
X7972500Y6263289D01*
X92271500Y6263289D01*
X92271500Y6020712D01*
X92303161Y5780215D01*
X92365947Y5545896D01*
X92458773Y5321795D01*
X92458776Y5321788D01*
X92580064Y5111711D01*
X92580066Y5111708D01*
X92580067Y5111707D01*
X92727733Y4919264D01*
X92727739Y4919257D01*
X92899256Y4747740D01*
X92899262Y4747735D01*
X93091711Y4600064D01*
X93301788Y4478776D01*
X93525900Y4385946D01*
X93760211Y4323162D01*
X93940586Y4299416D01*
X94000711Y4291500D01*
X94000712Y4291500D01*
X94243289Y4291500D01*
X94291388Y4297833D01*
X94483789Y4323162D01*
X94718100Y4385946D01*
X94942212Y4478776D01*
X95152289Y4600064D01*
X95344738Y4747735D01*
X95516265Y4919262D01*
X95663936Y5111711D01*
X95785224Y5321788D01*
X95878054Y5545900D01*
X95940838Y5780211D01*
X95972500Y6020712D01*
X95972500Y6263288D01*
X95940838Y6503789D01*
X95878054Y6738100D01*
X95785224Y6962212D01*
X95663936Y7172289D01*
X95603018Y7251679D01*
X95516266Y7364737D01*
X95516260Y7364744D01*
X95344743Y7536261D01*
X95344736Y7536267D01*
X95152293Y7683933D01*
X95152292Y7683934D01*
X95152289Y7683936D01*
X94942212Y7805224D01*
X94942205Y7805227D01*
X94718104Y7898053D01*
X94600944Y7929446D01*
X94483789Y7960838D01*
X94483788Y7960839D01*
X94483785Y7960839D01*
X94243289Y7992500D01*
X94243288Y7992500D01*
X94000712Y7992500D01*
X94000711Y7992500D01*
X93760214Y7960839D01*
X93525895Y7898053D01*
X93301794Y7805227D01*
X93301785Y7805223D01*
X93091706Y7683933D01*
X92899263Y7536267D01*
X92899256Y7536261D01*
X92727739Y7364744D01*
X92727733Y7364737D01*
X92580067Y7172294D01*
X92458777Y6962215D01*
X92458773Y6962206D01*
X92365947Y6738105D01*
X92303161Y6503786D01*
X92271500Y6263289D01*
X7972500Y6263289D01*
X7940838Y6503789D01*
X7878054Y6738100D01*
X7785224Y6962212D01*
X7663936Y7172289D01*
X7603018Y7251679D01*
X7516266Y7364737D01*
X7516260Y7364744D01*
X7344743Y7536261D01*
X7344736Y7536267D01*
X7152293Y7683933D01*
X7152292Y7683934D01*
X7152289Y7683936D01*
X6942212Y7805224D01*
X6942205Y7805227D01*
X6718104Y7898053D01*
X6600944Y7929446D01*
X6483789Y7960838D01*
X6483788Y7960839D01*
X6483785Y7960839D01*
X6243289Y7992500D01*
X6243288Y7992500D01*
X6000712Y7992500D01*
X6000711Y7992500D01*
X5760214Y7960839D01*
X5525895Y7898053D01*
X5301794Y7805227D01*
X5301785Y7805223D01*
X5091706Y7683933D01*
X4899263Y7536267D01*
X4899256Y7536261D01*
X4727739Y7364744D01*
X4727733Y7364737D01*
X4580067Y7172294D01*
X4458777Y6962215D01*
X4458773Y6962206D01*
X4365947Y6738105D01*
X4303161Y6503786D01*
X4271500Y6263289D01*
X622499Y6263289D01*
X622499Y15229668D01*
X13421500Y15229668D01*
X13421500Y14954333D01*
X13421501Y14954316D01*
X13457438Y14681345D01*
X13457439Y14681340D01*
X13457440Y14681334D01*
X13473888Y14619949D01*
X13528704Y14415370D01*
X13634075Y14160983D01*
X13634080Y14160972D01*
X13672825Y14093865D01*
X13771751Y13922521D01*
X13771753Y13922518D01*
X13771754Y13922517D01*
X13939370Y13704074D01*
X13939376Y13704067D01*
X14134066Y13509377D01*
X14134072Y13509372D01*
X14352521Y13341751D01*
X14504370Y13254081D01*
X14590971Y13204081D01*
X14590976Y13204079D01*
X14590979Y13204077D01*
X14845368Y13098705D01*
X15111334Y13027440D01*
X15384326Y12991500D01*
X15384333Y12991500D01*
X15659667Y12991500D01*
X15659674Y12991500D01*
X15932666Y13027440D01*
X16198632Y13098705D01*
X16453021Y13204077D01*
X16691479Y13341751D01*
X16909928Y13509372D01*
X17104628Y13704072D01*
X17272249Y13922521D01*
X17409923Y14160979D01*
X17515295Y14415368D01*
X17586560Y14681334D01*
X17622500Y14954326D01*
X17622500Y15229674D01*
X17586560Y15502666D01*
X17515295Y15768632D01*
X17409923Y16023021D01*
X17409921Y16023024D01*
X17409919Y16023029D01*
X17360732Y16108222D01*
X17272249Y16261479D01*
X17119415Y16460657D01*
X17104629Y16479927D01*
X17104623Y16479934D01*
X16909933Y16674624D01*
X16909926Y16674630D01*
X16691483Y16842246D01*
X16691482Y16842247D01*
X16691479Y16842249D01*
X16596407Y16897139D01*
X16545811Y16926351D01*
X18417000Y16926351D01*
X18419899Y16889511D01*
X18419900Y16889505D01*
X18465716Y16731807D01*
X18465717Y16731804D01*
X18549314Y16590448D01*
X18549321Y16590439D01*
X18665438Y16474322D01*
X18665447Y16474315D01*
X18806801Y16390719D01*
X18964514Y16344900D01*
X18964511Y16344900D01*
X18966998Y16344705D01*
X18967000Y16344705D01*
X18967000Y17567000D01*
X18417000Y17567000D01*
X18417000Y16926351D01*
X16545811Y16926351D01*
X16453028Y16979920D01*
X16453017Y16979925D01*
X16198630Y17085296D01*
X16012028Y17135295D01*
X15932666Y17156560D01*
X15932660Y17156561D01*
X15932655Y17156562D01*
X15659684Y17192499D01*
X15659679Y17192500D01*
X15659674Y17192500D01*
X15384326Y17192500D01*
X15384320Y17192500D01*
X15384315Y17192499D01*
X15111344Y17156562D01*
X15111337Y17156561D01*
X15111334Y17156560D01*
X15066008Y17144415D01*
X14845369Y17085296D01*
X14590982Y16979925D01*
X14590971Y16979920D01*
X14352516Y16842246D01*
X14134073Y16674630D01*
X14134066Y16674624D01*
X13939376Y16479934D01*
X13939370Y16479927D01*
X13771754Y16261484D01*
X13634080Y16023029D01*
X13634075Y16023018D01*
X13528704Y15768631D01*
X13457441Y15502669D01*
X13457438Y15502656D01*
X13421501Y15229685D01*
X13421500Y15229668D01*
X622499Y15229668D01*
X622499Y63910098D01*
X12761500Y63910098D01*
X12761500Y63673903D01*
X12798446Y63440632D01*
X12871433Y63216004D01*
X12976313Y63010167D01*
X12978657Y63005567D01*
X13117483Y62814490D01*
X13284490Y62647483D01*
X13475567Y62508657D01*
X13574991Y62457998D01*
X13686003Y62401434D01*
X13686005Y62401434D01*
X13686008Y62401432D01*
X13806412Y62362311D01*
X13910631Y62328447D01*
X14143903Y62291500D01*
X14143908Y62291500D01*
X14380097Y62291500D01*
X14613368Y62328447D01*
X14627525Y62333047D01*
X14837992Y62401432D01*
X15048433Y62508657D01*
X15239510Y62647483D01*
X15406517Y62814490D01*
X15545343Y63005567D01*
X15578884Y63071395D01*
X15626859Y63122191D01*
X15689369Y63139100D01*
X19334631Y63139100D01*
X19401670Y63119415D01*
X19445116Y63071395D01*
X19478657Y63005567D01*
X19617483Y62814490D01*
X19784490Y62647483D01*
X19975567Y62508657D01*
X20074991Y62457998D01*
X20186003Y62401434D01*
X20186005Y62401434D01*
X20186008Y62401432D01*
X20306412Y62362311D01*
X20410631Y62328447D01*
X20643903Y62291500D01*
X20643908Y62291500D01*
X20880097Y62291500D01*
X21113368Y62328447D01*
X21127525Y62333047D01*
X21337992Y62401432D01*
X21548433Y62508657D01*
X21739510Y62647483D01*
X21906517Y62814490D01*
X22045343Y63005567D01*
X22152568Y63216008D01*
X22225553Y63440632D01*
X22240835Y63537119D01*
X22262500Y63673903D01*
X22262500Y63910098D01*
X22225553Y64143369D01*
X22214670Y64176861D01*
X22202721Y64213635D01*
X22200726Y64283474D01*
X22232970Y64339631D01*
X23040921Y65147581D01*
X23102244Y65181066D01*
X23128602Y65183900D01*
X42488128Y65183900D01*
X42555167Y65164215D01*
X42575810Y65147580D01*
X42624888Y65098501D01*
X42624892Y65098498D01*
X42780562Y64994482D01*
X42780568Y64994479D01*
X42780569Y64994478D01*
X42953549Y64922827D01*
X43137179Y64886301D01*
X43137183Y64886300D01*
X43137184Y64886300D01*
X43324417Y64886300D01*
X43324418Y64886301D01*
X43508051Y64922827D01*
X43681031Y64994478D01*
X43836708Y65098498D01*
X43969102Y65230892D01*
X44013341Y65297100D01*
X44027198Y65317838D01*
X44080810Y65362644D01*
X44150135Y65371351D01*
X44213162Y65341197D01*
X44249882Y65281754D01*
X44254300Y65248948D01*
X44254300Y64959695D01*
X44254300Y64959693D01*
X44254299Y64959693D01*
X44274422Y64858536D01*
X44274422Y64858535D01*
X44279389Y64833564D01*
X44279391Y64833556D01*
X44305918Y64769513D01*
X44328608Y64714736D01*
X44342555Y64693863D01*
X44400062Y64607796D01*
X44400063Y64607795D01*
X45665718Y63342142D01*
X45665739Y63342119D01*
X45911688Y63096171D01*
X45945173Y63034848D01*
X45940189Y62965157D01*
X45898318Y62909223D01*
X45832853Y62884806D01*
X45764580Y62899658D01*
X45748521Y62910114D01*
X45641483Y62992246D01*
X45641482Y62992247D01*
X45641479Y62992249D01*
X45546407Y63047139D01*
X45403028Y63129920D01*
X45403017Y63129925D01*
X45148630Y63235296D01*
X45015649Y63270928D01*
X44882666Y63306560D01*
X44882660Y63306561D01*
X44882655Y63306562D01*
X44609684Y63342499D01*
X44609679Y63342500D01*
X44609674Y63342500D01*
X44334326Y63342500D01*
X44334320Y63342500D01*
X44334315Y63342499D01*
X44061344Y63306562D01*
X44061337Y63306561D01*
X44061334Y63306560D01*
X44039509Y63300712D01*
X43795369Y63235296D01*
X43540982Y63129925D01*
X43540971Y63129920D01*
X43302516Y62992246D01*
X43084073Y62824630D01*
X43084066Y62824624D01*
X42889376Y62629934D01*
X42889370Y62629927D01*
X42721754Y62411484D01*
X42584080Y62173029D01*
X42584075Y62173018D01*
X42478704Y61918631D01*
X42407441Y61652669D01*
X42407438Y61652656D01*
X42371501Y61379685D01*
X42371500Y61379668D01*
X42371500Y61104333D01*
X42371501Y61104316D01*
X42407438Y60831345D01*
X42407439Y60831340D01*
X42407440Y60831334D01*
X42438884Y60713984D01*
X42478704Y60565370D01*
X42584075Y60310983D01*
X42584080Y60310972D01*
X42659819Y60179790D01*
X42721751Y60072521D01*
X42721753Y60072518D01*
X42721754Y60072517D01*
X42789993Y59983586D01*
X42815187Y59918417D01*
X42801149Y59849972D01*
X42752335Y59799983D01*
X42691617Y59784100D01*
X41185293Y59784100D01*
X41059161Y59759011D01*
X41059155Y59759009D01*
X40940337Y59709793D01*
X40833395Y59638338D01*
X39726462Y58531405D01*
X39658570Y58429795D01*
X39655011Y58424470D01*
X39655009Y58424467D01*
X39655008Y58424464D01*
X39634839Y58375772D01*
X39605791Y58305645D01*
X39605789Y58305639D01*
X39580700Y58179508D01*
X39580700Y37826673D01*
X39561015Y37759634D01*
X39544381Y37738992D01*
X39495300Y37689912D01*
X39495297Y37689908D01*
X39391281Y37534238D01*
X39391276Y37534229D01*
X39319627Y37361252D01*
X39319625Y37361244D01*
X39283100Y37177621D01*
X39283100Y36990380D01*
X39316933Y36820291D01*
X39310706Y36750700D01*
X39267843Y36695522D01*
X39201953Y36672278D01*
X39195316Y36672100D01*
X38994693Y36672100D01*
X38868561Y36647011D01*
X38868551Y36647008D01*
X38751936Y36598705D01*
X38751937Y36598704D01*
X38749738Y36597794D01*
X38749729Y36597789D01*
X38642798Y36526340D01*
X38642795Y36526337D01*
X38315879Y36199419D01*
X38254556Y36165934D01*
X38228198Y36163100D01*
X38158779Y36163100D01*
X37975156Y36126575D01*
X37975148Y36126573D01*
X37802171Y36054924D01*
X37802162Y36054919D01*
X37646492Y35950903D01*
X37646488Y35950900D01*
X37514100Y35818512D01*
X37514097Y35818508D01*
X37410081Y35662838D01*
X37410076Y35662829D01*
X37338427Y35489852D01*
X37338425Y35489844D01*
X37301900Y35306221D01*
X37301900Y35183900D01*
X37282215Y35116861D01*
X37229411Y35071106D01*
X37177900Y35059900D01*
X33021602Y35059900D01*
X32954563Y35079585D01*
X32933921Y35096219D01*
X32337619Y35692522D01*
X32304134Y35753845D01*
X32301300Y35780203D01*
X32301300Y45428708D01*
X32276210Y45554839D01*
X32276209Y45554840D01*
X32276209Y45554844D01*
X32226992Y45673664D01*
X32188302Y45731568D01*
X32155541Y45780599D01*
X32155539Y45780602D01*
X32155536Y45780605D01*
X30185005Y47751137D01*
X30185004Y47751138D01*
X30185000Y47751141D01*
X30078064Y47822592D01*
X30062101Y47829204D01*
X29959244Y47871809D01*
X29959238Y47871811D01*
X29833107Y47896900D01*
X29833105Y47896900D01*
X21538900Y47896900D01*
X21471861Y47916585D01*
X21426106Y47969389D01*
X21414900Y48020900D01*
X21414900Y57864632D01*
X21434585Y57931671D01*
X21482605Y57975117D01*
X21548433Y58008657D01*
X21739510Y58147483D01*
X21906517Y58314490D01*
X22045343Y58505567D01*
X22152568Y58716008D01*
X22225553Y58940632D01*
X22227917Y58955557D01*
X22262500Y59173903D01*
X22262500Y59410098D01*
X22225553Y59643369D01*
X22179526Y59785024D01*
X22152568Y59867992D01*
X22152566Y59867995D01*
X22152566Y59867997D01*
X22062000Y60045741D01*
X22045343Y60078433D01*
X21906517Y60269510D01*
X21739510Y60436517D01*
X21548433Y60575343D01*
X21539405Y60579943D01*
X21337996Y60682567D01*
X21113368Y60755554D01*
X20880097Y60792500D01*
X20880092Y60792500D01*
X20643908Y60792500D01*
X20643903Y60792500D01*
X20410631Y60755554D01*
X20186003Y60682567D01*
X19975566Y60575343D01*
X19784487Y60436515D01*
X19617485Y60269513D01*
X19617485Y60269512D01*
X19617483Y60269510D01*
X19586977Y60227522D01*
X19478657Y60078434D01*
X19445116Y60012605D01*
X19397141Y59961809D01*
X19334631Y59944900D01*
X15689369Y59944900D01*
X15622330Y59964585D01*
X15578884Y60012605D01*
X15553789Y60061857D01*
X15545343Y60078433D01*
X15406517Y60269510D01*
X15239510Y60436517D01*
X15048433Y60575343D01*
X15039405Y60579943D01*
X14837996Y60682567D01*
X14613368Y60755554D01*
X14380097Y60792500D01*
X14380092Y60792500D01*
X14143908Y60792500D01*
X14143903Y60792500D01*
X13910631Y60755554D01*
X13686003Y60682567D01*
X13475566Y60575343D01*
X13284487Y60436515D01*
X13117485Y60269513D01*
X13117485Y60269512D01*
X13117483Y60269510D01*
X13086977Y60227522D01*
X12978657Y60078434D01*
X12871433Y59867997D01*
X12798446Y59643369D01*
X12761500Y59410098D01*
X12761500Y59173903D01*
X12798446Y58940632D01*
X12871433Y58716004D01*
X12960353Y58541490D01*
X12978657Y58505567D01*
X13117483Y58314490D01*
X13284490Y58147483D01*
X13475567Y58008657D01*
X13571191Y57959934D01*
X13686003Y57901434D01*
X13686005Y57901434D01*
X13686008Y57901432D01*
X13799266Y57864632D01*
X13910631Y57828447D01*
X14143903Y57791500D01*
X14143908Y57791500D01*
X14380097Y57791500D01*
X14613368Y57828447D01*
X14629806Y57833788D01*
X14837992Y57901432D01*
X15048433Y58008657D01*
X15239510Y58147483D01*
X15406517Y58314490D01*
X15545343Y58505567D01*
X15578884Y58571395D01*
X15626859Y58622191D01*
X15689369Y58639100D01*
X19334631Y58639100D01*
X19401670Y58619415D01*
X19445116Y58571395D01*
X19467211Y58528031D01*
X19478657Y58505567D01*
X19617483Y58314490D01*
X19784490Y58147483D01*
X19883351Y58075656D01*
X19975568Y58008656D01*
X20015257Y57988434D01*
X20041394Y57975117D01*
X20092190Y57927144D01*
X20109100Y57864632D01*
X20109100Y48020900D01*
X20089415Y47953861D01*
X20036611Y47908106D01*
X19985100Y47896900D01*
X18223693Y47896900D01*
X18097557Y47871810D01*
X18097553Y47871809D01*
X18048340Y47851425D01*
X18048340Y47851424D01*
X18030160Y47843894D01*
X17978739Y47822595D01*
X17978730Y47822590D01*
X17871801Y47751142D01*
X17871797Y47751139D01*
X16966463Y46845806D01*
X16966463Y46845805D01*
X16966460Y46845802D01*
X16966459Y46845800D01*
X16911503Y46763550D01*
X16911501Y46763548D01*
X16895012Y46738872D01*
X16895006Y46738862D01*
X16845791Y46620045D01*
X16845789Y46620039D01*
X16820700Y46493908D01*
X16820700Y45116728D01*
X16801015Y45049689D01*
X16769585Y45016410D01*
X16626387Y44912372D01*
X16626382Y44912368D01*
X16481628Y44767614D01*
X16361315Y44602014D01*
X16314085Y44509320D01*
X16266110Y44458524D01*
X16198289Y44441729D01*
X16132154Y44464266D01*
X16093115Y44509320D01*
X16067231Y44560120D01*
X16045887Y44602010D01*
X16038156Y44612651D01*
X15925571Y44767614D01*
X15780813Y44912372D01*
X15615213Y45032685D01*
X15615212Y45032686D01*
X15615210Y45032687D01*
X15558253Y45061709D01*
X15432823Y45125619D01*
X15238134Y45188878D01*
X15063595Y45216522D01*
X15035952Y45220900D01*
X14831248Y45220900D01*
X14806929Y45217049D01*
X14629065Y45188878D01*
X14434376Y45125619D01*
X14251986Y45032685D01*
X14086386Y44912372D01*
X13941628Y44767614D01*
X13821315Y44602014D01*
X13728381Y44419624D01*
X13665122Y44224935D01*
X13633100Y44022752D01*
X13633100Y43818049D01*
X13665122Y43615866D01*
X13728381Y43421177D01*
X13790831Y43298615D01*
X13818886Y43243553D01*
X13821315Y43238787D01*
X13941628Y43073187D01*
X14086386Y42928429D01*
X14202203Y42844285D01*
X14251990Y42808113D01*
X14334677Y42765982D01*
X14434376Y42715182D01*
X14434378Y42715182D01*
X14434381Y42715180D01*
X14472717Y42702724D01*
X14629065Y42651923D01*
X14730157Y42635912D01*
X14831248Y42619900D01*
X14831249Y42619900D01*
X15035951Y42619900D01*
X15035952Y42619900D01*
X15238134Y42651923D01*
X15432819Y42715180D01*
X15615210Y42808113D01*
X15708190Y42875668D01*
X15780813Y42928429D01*
X15780815Y42928432D01*
X15780819Y42928434D01*
X15925566Y43073181D01*
X15925568Y43073185D01*
X15925571Y43073187D01*
X16045884Y43238786D01*
X16045885Y43238787D01*
X16045887Y43238790D01*
X16093116Y43331483D01*
X16141089Y43382277D01*
X16208910Y43399072D01*
X16275045Y43376535D01*
X16314083Y43331483D01*
X16339306Y43281981D01*
X16361315Y43238786D01*
X16481628Y43073187D01*
X16626386Y42928429D01*
X16742203Y42844285D01*
X16791990Y42808113D01*
X16874677Y42765982D01*
X16974376Y42715182D01*
X16974378Y42715182D01*
X16974381Y42715180D01*
X17012717Y42702724D01*
X17169065Y42651923D01*
X17270157Y42635912D01*
X17371248Y42619900D01*
X17371249Y42619900D01*
X17575951Y42619900D01*
X17575952Y42619900D01*
X17778134Y42651923D01*
X17972819Y42715180D01*
X18155210Y42808113D01*
X18248190Y42875668D01*
X18320813Y42928429D01*
X18320815Y42928432D01*
X18320819Y42928434D01*
X18465566Y43073181D01*
X18465568Y43073185D01*
X18465571Y43073187D01*
X18585884Y43238786D01*
X18585885Y43238787D01*
X18585887Y43238790D01*
X18633116Y43331483D01*
X18681089Y43382277D01*
X18748910Y43399072D01*
X18815045Y43376535D01*
X18854083Y43331483D01*
X18879306Y43281981D01*
X18901315Y43238786D01*
X19021628Y43073187D01*
X19021634Y43073181D01*
X19166381Y42928434D01*
X19309586Y42824390D01*
X19352251Y42769062D01*
X19360700Y42724073D01*
X19360700Y41542495D01*
X19360700Y41542493D01*
X19360699Y41542493D01*
X19378712Y41451944D01*
X19378712Y41451943D01*
X19385789Y41416363D01*
X19385790Y41416359D01*
X19385791Y41416356D01*
X19435008Y41297536D01*
X19475564Y41236839D01*
X19506462Y41190596D01*
X19506463Y41190595D01*
X20056196Y40640863D01*
X20056200Y40640860D01*
X20130275Y40591365D01*
X20130276Y40591364D01*
X20163127Y40569413D01*
X20163135Y40569409D01*
X20163136Y40569408D01*
X20281956Y40520191D01*
X20281960Y40520191D01*
X20281961Y40520190D01*
X20408092Y40495100D01*
X20408095Y40495100D01*
X25941797Y40495100D01*
X26008836Y40475415D01*
X26029478Y40458781D01*
X26996781Y39491479D01*
X27030266Y39430156D01*
X27033100Y39403798D01*
X27033100Y38013024D01*
X27013415Y37945985D01*
X26960611Y37900230D01*
X26891453Y37890286D01*
X26861647Y37898463D01*
X26744051Y37947173D01*
X26744043Y37947175D01*
X26560420Y37983700D01*
X26560416Y37983700D01*
X26373184Y37983700D01*
X26373179Y37983700D01*
X26189556Y37947175D01*
X26189548Y37947173D01*
X26016571Y37875524D01*
X26016562Y37875519D01*
X25860892Y37771503D01*
X25860888Y37771500D01*
X25811810Y37722420D01*
X25750487Y37688934D01*
X25724128Y37686100D01*
X18142093Y37686100D01*
X18015961Y37661011D01*
X18015955Y37661009D01*
X17897137Y37611793D01*
X17790197Y37540339D01*
X15317860Y35068002D01*
X15256537Y35034517D01*
X15210781Y35033210D01*
X15070614Y35055410D01*
X15035952Y35060900D01*
X14831248Y35060900D01*
X14806929Y35057049D01*
X14629065Y35028878D01*
X14434376Y34965619D01*
X14251986Y34872685D01*
X14086386Y34752372D01*
X13941628Y34607614D01*
X13821315Y34442014D01*
X13728381Y34259624D01*
X13665122Y34064935D01*
X13633100Y33862752D01*
X13633100Y33658049D01*
X13665122Y33455866D01*
X13728381Y33261177D01*
X13821315Y33078787D01*
X13941628Y32913187D01*
X14086386Y32768429D01*
X14182069Y32698913D01*
X14251990Y32648113D01*
X14328632Y32609062D01*
X14434376Y32555182D01*
X14434378Y32555182D01*
X14434381Y32555180D01*
X14472720Y32542723D01*
X14629065Y32491923D01*
X14730157Y32475912D01*
X14831248Y32459900D01*
X14831249Y32459900D01*
X15035951Y32459900D01*
X15035952Y32459900D01*
X15238134Y32491923D01*
X15432819Y32555180D01*
X15615210Y32648113D01*
X15770608Y32761015D01*
X15780813Y32768429D01*
X15780815Y32768432D01*
X15780819Y32768434D01*
X15925566Y32913181D01*
X15925568Y32913185D01*
X15925571Y32913187D01*
X16045884Y33078786D01*
X16045885Y33078787D01*
X16045887Y33078790D01*
X16093116Y33171483D01*
X16141089Y33222277D01*
X16208910Y33239072D01*
X16275045Y33216535D01*
X16314085Y33171481D01*
X16361315Y33078786D01*
X16481628Y32913187D01*
X16626386Y32768429D01*
X16722069Y32698913D01*
X16791990Y32648113D01*
X16868632Y32609062D01*
X16974376Y32555182D01*
X16974378Y32555182D01*
X16974381Y32555180D01*
X17012720Y32542723D01*
X17169065Y32491923D01*
X17270157Y32475912D01*
X17371248Y32459900D01*
X17371249Y32459900D01*
X17575951Y32459900D01*
X17575952Y32459900D01*
X17778134Y32491923D01*
X17972819Y32555180D01*
X18155210Y32648113D01*
X18310608Y32761015D01*
X18320813Y32768429D01*
X18320815Y32768432D01*
X18320819Y32768434D01*
X18465566Y32913181D01*
X18465568Y32913185D01*
X18465571Y32913187D01*
X18585884Y33078786D01*
X18585885Y33078787D01*
X18585887Y33078790D01*
X18633116Y33171483D01*
X18681089Y33222277D01*
X18748910Y33239072D01*
X18815045Y33216535D01*
X18854085Y33171481D01*
X18901315Y33078786D01*
X19021628Y32913187D01*
X19021634Y32913181D01*
X19166381Y32768434D01*
X19309586Y32664390D01*
X19352251Y32609062D01*
X19360700Y32564073D01*
X19360700Y30518895D01*
X19360700Y30518893D01*
X19360699Y30518893D01*
X19382478Y30409412D01*
X19382479Y30409408D01*
X19385791Y30392756D01*
X19435008Y30273936D01*
X19496437Y30182000D01*
X19506462Y30166996D01*
X19506463Y30166995D01*
X20323595Y29349864D01*
X20323598Y29349861D01*
X20323601Y29349859D01*
X20399953Y29298843D01*
X20430536Y29278408D01*
X20549356Y29229191D01*
X20549360Y29229191D01*
X20549361Y29229190D01*
X20675492Y29204100D01*
X20675495Y29204100D01*
X37201744Y29204100D01*
X37268783Y29184415D01*
X37314538Y29131611D01*
X37324482Y29062453D01*
X37323361Y29055909D01*
X37301900Y28948020D01*
X37301900Y28760780D01*
X37338425Y28577157D01*
X37338427Y28577149D01*
X37410076Y28404172D01*
X37410081Y28404163D01*
X37514097Y28248493D01*
X37514099Y28248490D01*
X37532779Y28229811D01*
X37566266Y28168489D01*
X37569100Y28142128D01*
X37569100Y18593900D01*
X37549415Y18526861D01*
X37496611Y18481106D01*
X37445100Y18469900D01*
X23951500Y18469900D01*
X23884461Y18489585D01*
X23838706Y18542389D01*
X23827500Y18593900D01*
X23827500Y18707687D01*
X23827499Y18707702D01*
X23826412Y18721510D01*
X23824598Y18744569D01*
X23810094Y18794490D01*
X23778745Y18902394D01*
X23778744Y18902397D01*
X23778744Y18902398D01*
X23695081Y19043865D01*
X23695079Y19043867D01*
X23695076Y19043871D01*
X23578870Y19160077D01*
X23578862Y19160083D01*
X23468210Y19225522D01*
X23437398Y19243744D01*
X23437397Y19243745D01*
X23437396Y19243745D01*
X23437393Y19243746D01*
X23279573Y19289598D01*
X23279567Y19289599D01*
X23242701Y19292500D01*
X23242694Y19292500D01*
X22811306Y19292500D01*
X22811298Y19292500D01*
X22774432Y19289599D01*
X22774426Y19289598D01*
X22616606Y19243746D01*
X22616605Y19243746D01*
X22597020Y19232163D01*
X22529296Y19214982D01*
X22463033Y19237142D01*
X22419271Y19291608D01*
X22409900Y19338896D01*
X22409900Y19695500D01*
X22429585Y19762539D01*
X22482389Y19808294D01*
X22533900Y19819500D01*
X23381507Y19819500D01*
X23469527Y19837009D01*
X23507644Y19844591D01*
X23626464Y19893808D01*
X23626955Y19894136D01*
X23733400Y19965259D01*
X24129140Y20361000D01*
X24200592Y20467936D01*
X24249809Y20586756D01*
X24272178Y20699209D01*
X24274900Y20712893D01*
X24274900Y20967501D01*
X24294585Y21034540D01*
X24347389Y21080295D01*
X24398900Y21091501D01*
X24669871Y21091501D01*
X24669872Y21091501D01*
X24729483Y21097909D01*
X24864331Y21148204D01*
X24979546Y21234454D01*
X25065796Y21349669D01*
X25116091Y21484517D01*
X25122500Y21544127D01*
X25122499Y23639872D01*
X25116091Y23699483D01*
X25111659Y23711365D01*
X25065797Y23834329D01*
X25065793Y23834336D01*
X24979547Y23949545D01*
X24979544Y23949548D01*
X24864335Y24035794D01*
X24864328Y24035798D01*
X24729482Y24086092D01*
X24729483Y24086092D01*
X24669883Y24092499D01*
X24669881Y24092500D01*
X24669873Y24092500D01*
X24669864Y24092500D01*
X22574129Y24092500D01*
X22574123Y24092499D01*
X22514516Y24086092D01*
X22379671Y24035798D01*
X22379664Y24035794D01*
X22264455Y23949548D01*
X22176309Y23831801D01*
X22169775Y23826911D01*
X22165966Y23819691D01*
X22142210Y23806277D01*
X22120375Y23789931D01*
X22112234Y23789349D01*
X22105127Y23785335D01*
X22077891Y23786893D01*
X22050683Y23784947D01*
X22041723Y23788962D01*
X22035371Y23789325D01*
X22004156Y23805796D01*
X21978413Y23824500D01*
X21935748Y23879831D01*
X21927300Y23924817D01*
X21927300Y24410951D01*
X21927301Y24410972D01*
X21927301Y24575718D01*
X21896354Y24731293D01*
X21896353Y24731294D01*
X21896353Y24731297D01*
X21887320Y24753105D01*
X21866792Y24802664D01*
X21835651Y24877847D01*
X21835644Y24877860D01*
X21747518Y25009749D01*
X21747515Y25009753D01*
X21632253Y25125015D01*
X21632222Y25125044D01*
X21203858Y25553408D01*
X21203838Y25553430D01*
X21087352Y25669916D01*
X21087348Y25669919D01*
X20955459Y25758045D01*
X20955446Y25758052D01*
X20808901Y25818752D01*
X20808891Y25818755D01*
X20653317Y25849701D01*
X20653315Y25849701D01*
X20494685Y25849701D01*
X20488571Y25849701D01*
X20488551Y25849700D01*
X15579450Y25849700D01*
X15579430Y25849701D01*
X15573316Y25849701D01*
X15414685Y25849701D01*
X15414683Y25849701D01*
X15259108Y25818755D01*
X15259098Y25818752D01*
X15112553Y25758052D01*
X15112540Y25758045D01*
X14980652Y25669920D01*
X14924567Y25613835D01*
X14868482Y25557749D01*
X14868479Y25557746D01*
X13881154Y24570421D01*
X13881151Y24570418D01*
X13843633Y24532900D01*
X13768982Y24458250D01*
X13716389Y24379537D01*
X13716387Y24379535D01*
X13680856Y24326362D01*
X13680848Y24326347D01*
X13620148Y24179802D01*
X13620145Y24179792D01*
X13589199Y24024218D01*
X13589199Y23859472D01*
X13589200Y23859451D01*
X13589200Y20431931D01*
X13569515Y20364892D01*
X13552882Y20344250D01*
X13464287Y20255655D01*
X13372187Y20106337D01*
X13372185Y20106332D01*
X13352263Y20046210D01*
X13317001Y19939797D01*
X13317001Y19939796D01*
X13317000Y19939796D01*
X13306500Y19837017D01*
X13306500Y18786999D01*
X13306501Y18786981D01*
X13317000Y18684204D01*
X13317001Y18684201D01*
X13372185Y18517669D01*
X13372187Y18517664D01*
X13389506Y18489585D01*
X13464288Y18368344D01*
X13588344Y18244288D01*
X13737666Y18152186D01*
X13904203Y18097001D01*
X14006991Y18086500D01*
X14782008Y18086501D01*
X14782016Y18086502D01*
X14782019Y18086502D01*
X14838302Y18092252D01*
X14884797Y18097001D01*
X15051334Y18152186D01*
X15200656Y18244288D01*
X15324712Y18368344D01*
X15326752Y18371653D01*
X15328745Y18373445D01*
X15329193Y18374011D01*
X15329289Y18373935D01*
X15378694Y18418377D01*
X15447656Y18429605D01*
X15511740Y18401766D01*
X15537829Y18371661D01*
X15539681Y18368659D01*
X15539683Y18368656D01*
X15663654Y18244685D01*
X15812875Y18152644D01*
X15812880Y18152642D01*
X15979302Y18097495D01*
X15979309Y18097494D01*
X16082019Y18087001D01*
X16219499Y18087001D01*
X16719500Y18087001D01*
X16856972Y18087001D01*
X16856986Y18087002D01*
X16959697Y18097495D01*
X17126119Y18152642D01*
X17126124Y18152644D01*
X17275345Y18244685D01*
X17399315Y18368655D01*
X17491356Y18517876D01*
X17491358Y18517881D01*
X17546505Y18684303D01*
X17546506Y18684311D01*
X17548891Y18707650D01*
X18417000Y18707650D01*
X18417000Y18067000D01*
X18967000Y18067000D01*
X18967000Y19289297D01*
X18964503Y19289100D01*
X18806806Y19243284D01*
X18806803Y19243283D01*
X18665447Y19159686D01*
X18665438Y19159679D01*
X18549321Y19043562D01*
X18549314Y19043553D01*
X18465717Y18902197D01*
X18465716Y18902194D01*
X18419900Y18744496D01*
X18419899Y18744490D01*
X18417000Y18707650D01*
X17548891Y18707650D01*
X17550427Y18722680D01*
X17550427Y18722681D01*
X17556999Y18787012D01*
X17557000Y18787027D01*
X17557000Y19062000D01*
X16719500Y19062000D01*
X16719500Y18087001D01*
X16219499Y18087001D01*
X16219500Y18087002D01*
X16219500Y19562000D01*
X16719500Y19562000D01*
X17556999Y19562000D01*
X17556999Y19836972D01*
X17556998Y19836987D01*
X17546505Y19939698D01*
X17491358Y20106120D01*
X17491356Y20106125D01*
X17399315Y20255346D01*
X17275345Y20379316D01*
X17126124Y20471357D01*
X17126119Y20471359D01*
X16959697Y20526506D01*
X16959690Y20526507D01*
X16856986Y20537000D01*
X16719500Y20537000D01*
X16719500Y19562000D01*
X16219500Y19562000D01*
X16219500Y20537000D01*
X16082027Y20537000D01*
X16082012Y20536999D01*
X15979302Y20526506D01*
X15812880Y20471359D01*
X15812875Y20471357D01*
X15663654Y20379316D01*
X15539683Y20255345D01*
X15539679Y20255340D01*
X15537826Y20252335D01*
X15536018Y20250710D01*
X15535202Y20249677D01*
X15535025Y20249817D01*
X15485874Y20205615D01*
X15416911Y20194399D01*
X15352831Y20222248D01*
X15342286Y20232149D01*
X15333478Y20241444D01*
X15324712Y20255656D01*
X15234950Y20345418D01*
X15233793Y20346639D01*
X15218608Y20376319D01*
X15202634Y20405574D01*
X15202366Y20408064D01*
X15201969Y20408840D01*
X15202119Y20410363D01*
X15199800Y20431931D01*
X15199800Y23559972D01*
X15219485Y23627011D01*
X15236119Y23647653D01*
X15791247Y24202781D01*
X15852570Y24236266D01*
X15878928Y24239100D01*
X18052627Y24239100D01*
X18119666Y24219415D01*
X18165421Y24166611D01*
X18175365Y24097453D01*
X18146340Y24033897D01*
X18090946Y23997170D01*
X18076730Y23992551D01*
X18046003Y23982567D01*
X17835566Y23875343D01*
X17747808Y23811582D01*
X17644490Y23736517D01*
X17644488Y23736515D01*
X17644487Y23736515D01*
X17477485Y23569513D01*
X17477485Y23569512D01*
X17477483Y23569510D01*
X17441319Y23519734D01*
X17338657Y23378434D01*
X17231433Y23167997D01*
X17158446Y22943369D01*
X17121500Y22710098D01*
X17121500Y22473903D01*
X17158446Y22240632D01*
X17231433Y22016004D01*
X17338657Y21805567D01*
X17477483Y21614490D01*
X17644490Y21447483D01*
X17835567Y21308657D01*
X17896324Y21277700D01*
X18046003Y21201434D01*
X18046005Y21201434D01*
X18046008Y21201432D01*
X18128099Y21174759D01*
X18270631Y21128447D01*
X18503903Y21091500D01*
X18503908Y21091500D01*
X18740097Y21091500D01*
X18846126Y21108295D01*
X18973368Y21128447D01*
X19043634Y21151279D01*
X19113472Y21153273D01*
X19169631Y21121028D01*
X19797781Y20492879D01*
X19831266Y20431556D01*
X19834100Y20405198D01*
X19834100Y19338316D01*
X19814415Y19271277D01*
X19761611Y19225522D01*
X19692453Y19215578D01*
X19646981Y19231583D01*
X19627198Y19243282D01*
X19627193Y19243284D01*
X19469494Y19289100D01*
X19469497Y19289100D01*
X19467000Y19289297D01*
X19467000Y16344705D01*
X19467001Y16344705D01*
X19469486Y16344900D01*
X19627198Y16390719D01*
X19768550Y16474314D01*
X19774717Y16479097D01*
X19776630Y16476631D01*
X19825222Y16503198D01*
X19894917Y16498251D01*
X19927762Y16477147D01*
X19928969Y16478702D01*
X19935132Y16473922D01*
X19935135Y16473919D01*
X20076602Y16390256D01*
X20118224Y16378164D01*
X20234426Y16344403D01*
X20234429Y16344403D01*
X20234431Y16344402D01*
X20271306Y16341500D01*
X20271314Y16341500D01*
X20702686Y16341500D01*
X20702694Y16341500D01*
X20739569Y16344402D01*
X20739571Y16344403D01*
X20739573Y16344403D01*
X20781191Y16356495D01*
X20897398Y16390256D01*
X21038865Y16473919D01*
X21038870Y16473925D01*
X21045031Y16478702D01*
X21046933Y16476250D01*
X21095579Y16502845D01*
X21165274Y16497896D01*
X21197695Y16477060D01*
X21198969Y16478702D01*
X21205132Y16473922D01*
X21205135Y16473919D01*
X21346602Y16390256D01*
X21388224Y16378164D01*
X21504426Y16344403D01*
X21504429Y16344403D01*
X21504431Y16344402D01*
X21541306Y16341500D01*
X21541314Y16341500D01*
X21972686Y16341500D01*
X21972694Y16341500D01*
X22009569Y16344402D01*
X22009571Y16344403D01*
X22009573Y16344403D01*
X22051191Y16356495D01*
X22167398Y16390256D01*
X22308865Y16473919D01*
X22308870Y16473925D01*
X22315031Y16478702D01*
X22316933Y16476250D01*
X22365579Y16502845D01*
X22435274Y16497896D01*
X22467695Y16477060D01*
X22468969Y16478702D01*
X22475132Y16473922D01*
X22475135Y16473919D01*
X22616602Y16390256D01*
X22658224Y16378164D01*
X22774426Y16344403D01*
X22774429Y16344403D01*
X22774431Y16344402D01*
X22811306Y16341500D01*
X22811314Y16341500D01*
X23242686Y16341500D01*
X23242694Y16341500D01*
X23279569Y16344402D01*
X23279571Y16344403D01*
X23279573Y16344403D01*
X23321191Y16356495D01*
X23437398Y16390256D01*
X23578865Y16473919D01*
X23695081Y16590135D01*
X23778744Y16731602D01*
X23824598Y16889431D01*
X23827500Y16926306D01*
X23827500Y17040100D01*
X23847185Y17107139D01*
X23899989Y17152894D01*
X23951500Y17164100D01*
X25647209Y17164100D01*
X25714248Y17144415D01*
X25760003Y17091611D01*
X25769947Y17022453D01*
X25740922Y16958897D01*
X25709208Y16932713D01*
X25634243Y16889431D01*
X25552516Y16842246D01*
X25334073Y16674630D01*
X25334066Y16674624D01*
X25139376Y16479934D01*
X25139370Y16479927D01*
X24971754Y16261484D01*
X24834080Y16023029D01*
X24834075Y16023018D01*
X24728704Y15768631D01*
X24657441Y15502669D01*
X24657438Y15502656D01*
X24621501Y15229685D01*
X24621500Y15229668D01*
X24621500Y14954333D01*
X24621501Y14954316D01*
X24657438Y14681345D01*
X24657439Y14681340D01*
X24657440Y14681334D01*
X24673888Y14619949D01*
X24728704Y14415370D01*
X24834075Y14160983D01*
X24834080Y14160972D01*
X24872825Y14093865D01*
X24971751Y13922521D01*
X24971753Y13922518D01*
X24971754Y13922517D01*
X25139370Y13704074D01*
X25139376Y13704067D01*
X25334066Y13509377D01*
X25334072Y13509372D01*
X25552521Y13341751D01*
X25704370Y13254081D01*
X25790971Y13204081D01*
X25790976Y13204079D01*
X25790979Y13204077D01*
X26045368Y13098705D01*
X26311334Y13027440D01*
X26584326Y12991500D01*
X26584333Y12991500D01*
X26859667Y12991500D01*
X26859674Y12991500D01*
X27132666Y13027440D01*
X27398632Y13098705D01*
X27653021Y13204077D01*
X27891479Y13341751D01*
X28109928Y13509372D01*
X28304628Y13704072D01*
X28472249Y13922521D01*
X28609923Y14160979D01*
X28715295Y14415368D01*
X28786560Y14681334D01*
X28822500Y14954326D01*
X28822500Y15229674D01*
X28786560Y15502666D01*
X28715295Y15768632D01*
X28609923Y16023021D01*
X28609921Y16023024D01*
X28609919Y16023029D01*
X28560732Y16108222D01*
X28472249Y16261479D01*
X28319415Y16460657D01*
X28304629Y16479927D01*
X28304623Y16479934D01*
X28109933Y16674624D01*
X28109926Y16674630D01*
X27891483Y16842246D01*
X27891482Y16842247D01*
X27891479Y16842249D01*
X27734791Y16932713D01*
X27686575Y16983280D01*
X27673353Y17051887D01*
X27699321Y17116752D01*
X27756235Y17157280D01*
X27796791Y17164100D01*
X37445100Y17164100D01*
X37512139Y17144415D01*
X37557894Y17091611D01*
X37569100Y17040100D01*
X37569100Y10886115D01*
X37549415Y10819076D01*
X37517987Y10785798D01*
X37505074Y10776417D01*
X37382585Y10653928D01*
X37322007Y10570550D01*
X37266677Y10527885D01*
X37197063Y10521907D01*
X37135269Y10554514D01*
X37121371Y10570553D01*
X37061036Y10653599D01*
X36938602Y10776033D01*
X36798524Y10877805D01*
X36644257Y10956409D01*
X36479589Y11009913D01*
X36479581Y11009915D01*
X36472000Y11011116D01*
X36472000Y9942330D01*
X36452255Y9962075D01*
X36366745Y10011444D01*
X36271370Y10037000D01*
X36172630Y10037000D01*
X36077255Y10011444D01*
X35991745Y9962075D01*
X35972000Y9942330D01*
X35972000Y11011116D01*
X35971999Y11011116D01*
X35964418Y11009915D01*
X35964410Y11009913D01*
X35799742Y10956409D01*
X35645475Y10877805D01*
X35505397Y10776033D01*
X35382965Y10653601D01*
X35382961Y10653596D01*
X35322627Y10570552D01*
X35267297Y10527886D01*
X35197684Y10521907D01*
X35135889Y10554512D01*
X35121991Y10570551D01*
X35121958Y10570597D01*
X35061414Y10653928D01*
X34938928Y10776414D01*
X34798788Y10878232D01*
X34666532Y10945619D01*
X34644447Y10956872D01*
X34644446Y10956873D01*
X34644445Y10956873D01*
X34479701Y11010402D01*
X34479699Y11010403D01*
X34479698Y11010403D01*
X34348271Y11031219D01*
X34308611Y11037500D01*
X34135389Y11037500D01*
X34095728Y11031219D01*
X33964302Y11010403D01*
X33799552Y10956872D01*
X33645211Y10878232D01*
X33594144Y10841129D01*
X33505072Y10776414D01*
X33505070Y10776412D01*
X33505069Y10776412D01*
X33382588Y10653931D01*
X33382588Y10653930D01*
X33382586Y10653928D01*
X33367752Y10633511D01*
X33280768Y10513789D01*
X33202128Y10359448D01*
X33148597Y10194698D01*
X33123621Y10037000D01*
X33121500Y10023611D01*
X33121500Y9300389D01*
X33148598Y9129299D01*
X33202127Y8964555D01*
X33280768Y8810212D01*
X33380471Y8672983D01*
X33403950Y8607180D01*
X33388125Y8539126D01*
X33338019Y8490431D01*
X33280152Y8476100D01*
X28392602Y8476100D01*
X28325563Y8495785D01*
X28304921Y8512419D01*
X23863819Y12953522D01*
X23830334Y13014845D01*
X23827500Y13041203D01*
X23827500Y13757687D01*
X23827499Y13757702D01*
X23824598Y13794568D01*
X23824597Y13794574D01*
X23778745Y13952394D01*
X23778744Y13952397D01*
X23778744Y13952398D01*
X23695081Y14093865D01*
X23695079Y14093867D01*
X23695076Y14093871D01*
X23578870Y14210077D01*
X23578862Y14210083D01*
X23437396Y14293745D01*
X23437393Y14293746D01*
X23279573Y14339598D01*
X23279567Y14339599D01*
X23242701Y14342500D01*
X23242694Y14342500D01*
X22811306Y14342500D01*
X22811298Y14342500D01*
X22774432Y14339599D01*
X22774426Y14339598D01*
X22616606Y14293746D01*
X22616603Y14293745D01*
X22475137Y14210083D01*
X22468969Y14205298D01*
X22467072Y14207744D01*
X22418358Y14181143D01*
X22348666Y14186127D01*
X22316296Y14206931D01*
X22315031Y14205298D01*
X22308862Y14210083D01*
X22167396Y14293745D01*
X22167393Y14293746D01*
X22009573Y14339598D01*
X22009567Y14339599D01*
X21972701Y14342500D01*
X21972694Y14342500D01*
X21541306Y14342500D01*
X21541298Y14342500D01*
X21504432Y14339599D01*
X21504426Y14339598D01*
X21346606Y14293746D01*
X21346603Y14293745D01*
X21205137Y14210083D01*
X21198969Y14205298D01*
X21197072Y14207744D01*
X21148358Y14181143D01*
X21078666Y14186127D01*
X21046296Y14206931D01*
X21045031Y14205298D01*
X21038862Y14210083D01*
X20897396Y14293745D01*
X20897393Y14293746D01*
X20739573Y14339598D01*
X20739567Y14339599D01*
X20702701Y14342500D01*
X20702694Y14342500D01*
X20271306Y14342500D01*
X20271298Y14342500D01*
X20234432Y14339599D01*
X20234426Y14339598D01*
X20076606Y14293746D01*
X20076603Y14293745D01*
X19935137Y14210083D01*
X19928969Y14205298D01*
X19927072Y14207744D01*
X19878358Y14181143D01*
X19808666Y14186127D01*
X19776296Y14206931D01*
X19775031Y14205298D01*
X19768862Y14210083D01*
X19627396Y14293745D01*
X19627393Y14293746D01*
X19469573Y14339598D01*
X19469567Y14339599D01*
X19432701Y14342500D01*
X19432694Y14342500D01*
X19001306Y14342500D01*
X19001298Y14342500D01*
X18964432Y14339599D01*
X18964426Y14339598D01*
X18806606Y14293746D01*
X18806603Y14293745D01*
X18665137Y14210083D01*
X18665129Y14210077D01*
X18548923Y14093871D01*
X18548917Y14093863D01*
X18465255Y13952397D01*
X18465254Y13952394D01*
X18419402Y13794574D01*
X18419401Y13794568D01*
X18416500Y13757702D01*
X18416500Y11976299D01*
X18419401Y11939433D01*
X18419402Y11939427D01*
X18465254Y11781607D01*
X18465255Y11781604D01*
X18465256Y11781602D01*
X18487789Y11743500D01*
X18496032Y11729563D01*
X18513300Y11666442D01*
X18513300Y9699894D01*
X18493615Y9632855D01*
X18440811Y9587100D01*
X18408698Y9577421D01*
X18270631Y9555554D01*
X18046003Y9482567D01*
X17835566Y9375343D01*
X17749148Y9312556D01*
X17644490Y9236517D01*
X17644488Y9236515D01*
X17644487Y9236515D01*
X17477485Y9069513D01*
X17477485Y9069512D01*
X17477483Y9069510D01*
X17417862Y8987450D01*
X17338657Y8878434D01*
X17231433Y8667997D01*
X17158446Y8443369D01*
X17121500Y8210098D01*
X17121500Y7973903D01*
X17158446Y7740632D01*
X17231433Y7516004D01*
X17333311Y7316059D01*
X17338657Y7305567D01*
X17477483Y7114490D01*
X17644490Y6947483D01*
X17835567Y6808657D01*
X17934991Y6757998D01*
X18046003Y6701434D01*
X18046005Y6701434D01*
X18046008Y6701432D01*
X18166412Y6662311D01*
X18270631Y6628447D01*
X18503903Y6591500D01*
X18503908Y6591500D01*
X18740097Y6591500D01*
X18973368Y6628447D01*
X19197992Y6701432D01*
X19408433Y6808657D01*
X19599510Y6947483D01*
X19766517Y7114490D01*
X19905343Y7305567D01*
X20012568Y7516008D01*
X20085553Y7740632D01*
X20095783Y7805223D01*
X20122500Y7973903D01*
X20122500Y8210098D01*
X20085553Y8443369D01*
X20044946Y8568344D01*
X20012568Y8667992D01*
X20012566Y8667995D01*
X20012565Y8668000D01*
X19934215Y8821771D01*
X19920700Y8878065D01*
X19920700Y10570597D01*
X19940385Y10637636D01*
X19993189Y10683391D01*
X20062347Y10693335D01*
X20125903Y10664310D01*
X20132381Y10658278D01*
X22151026Y8639633D01*
X22184511Y8578310D01*
X22181277Y8513636D01*
X22158446Y8443368D01*
X22121500Y8210098D01*
X22121500Y7973903D01*
X22158446Y7740632D01*
X22231433Y7516004D01*
X22333311Y7316059D01*
X22338657Y7305567D01*
X22477483Y7114490D01*
X22644490Y6947483D01*
X22835567Y6808657D01*
X22934991Y6757998D01*
X23046003Y6701434D01*
X23046005Y6701434D01*
X23046008Y6701432D01*
X23166412Y6662311D01*
X23270631Y6628447D01*
X23503903Y6591500D01*
X23503908Y6591500D01*
X23740097Y6591500D01*
X23973368Y6628447D01*
X24197992Y6701432D01*
X24408433Y6808657D01*
X24599510Y6947483D01*
X24766517Y7114490D01*
X24905343Y7305567D01*
X25012568Y7516008D01*
X25085553Y7740632D01*
X25095783Y7805223D01*
X25122500Y7973903D01*
X25122500Y8210098D01*
X25085553Y8443369D01*
X25044946Y8568344D01*
X25012568Y8667992D01*
X25012566Y8667995D01*
X25012566Y8667997D01*
X24934214Y8821771D01*
X24905343Y8878433D01*
X24766517Y9069510D01*
X24599510Y9236517D01*
X24408433Y9375343D01*
X24197996Y9482567D01*
X23973368Y9555554D01*
X23740097Y9592500D01*
X23740092Y9592500D01*
X23503908Y9592500D01*
X23503903Y9592500D01*
X23270632Y9555554D01*
X23200364Y9532723D01*
X23130523Y9530729D01*
X23074367Y9562974D01*
X21457522Y11179819D01*
X21424037Y11241142D01*
X21429021Y11310834D01*
X21470893Y11366767D01*
X21536357Y11391184D01*
X21545203Y11391500D01*
X21972686Y11391500D01*
X21972694Y11391500D01*
X22009569Y11394402D01*
X22009571Y11394403D01*
X22009573Y11394403D01*
X22086549Y11416767D01*
X22167398Y11440256D01*
X22308865Y11523919D01*
X22308870Y11523925D01*
X22315031Y11528702D01*
X22316933Y11526250D01*
X22365579Y11552845D01*
X22435274Y11547896D01*
X22467695Y11527060D01*
X22468969Y11528702D01*
X22475132Y11523922D01*
X22475135Y11523919D01*
X22616602Y11440256D01*
X22658224Y11428164D01*
X22774426Y11394403D01*
X22774429Y11394403D01*
X22774431Y11394402D01*
X22811306Y11391500D01*
X22811314Y11391500D01*
X23242686Y11391500D01*
X23242694Y11391500D01*
X23279569Y11394402D01*
X23279571Y11394403D01*
X23279573Y11394403D01*
X23439044Y11440734D01*
X23508913Y11440535D01*
X23561320Y11409339D01*
X27654597Y7316062D01*
X27654600Y7316060D01*
X27761536Y7244608D01*
X27880356Y7195391D01*
X27880360Y7195391D01*
X27880361Y7195390D01*
X28006492Y7170300D01*
X28006495Y7170300D01*
X39840707Y7170300D01*
X39925565Y7187181D01*
X39966844Y7195391D01*
X40085664Y7244608D01*
X40192600Y7316059D01*
X40729141Y7852601D01*
X40800593Y7959537D01*
X40835354Y8043459D01*
X40849809Y8078356D01*
X40874900Y8204495D01*
X40874900Y8272843D01*
X40894585Y8339882D01*
X40933802Y8378381D01*
X41040656Y8444288D01*
X41164712Y8568344D01*
X41256814Y8717666D01*
X41311999Y8884203D01*
X41322500Y8986991D01*
X41322499Y10337008D01*
X41311999Y10439797D01*
X41256814Y10606334D01*
X41164712Y10755656D01*
X41040656Y10879712D01*
X40933802Y10945620D01*
X40887079Y10997567D01*
X40874900Y11051158D01*
X40874900Y13362098D01*
X45541500Y13362098D01*
X45541500Y13125903D01*
X45578446Y12892632D01*
X45651433Y12668004D01*
X45716502Y12540300D01*
X45758657Y12457567D01*
X45897483Y12266490D01*
X46064490Y12099483D01*
X46255567Y11960657D01*
X46354991Y11909998D01*
X46466003Y11853434D01*
X46466005Y11853434D01*
X46466008Y11853432D01*
X46533194Y11831602D01*
X46690631Y11780447D01*
X46923903Y11743500D01*
X46923908Y11743500D01*
X47160097Y11743500D01*
X47393368Y11780447D01*
X47396938Y11781607D01*
X47617992Y11853432D01*
X47828433Y11960657D01*
X48019510Y12099483D01*
X48186517Y12266490D01*
X48325343Y12457567D01*
X48333000Y12472596D01*
X48380975Y12523391D01*
X48443485Y12540300D01*
X52140515Y12540300D01*
X52207554Y12520615D01*
X52250999Y12472596D01*
X52258657Y12457567D01*
X52397483Y12266490D01*
X52564490Y12099483D01*
X52755567Y11960657D01*
X52854991Y11909998D01*
X52966003Y11853434D01*
X52966005Y11853434D01*
X52966008Y11853432D01*
X53033194Y11831602D01*
X53190631Y11780447D01*
X53423903Y11743500D01*
X53423908Y11743500D01*
X53660097Y11743500D01*
X53893368Y11780447D01*
X53896938Y11781607D01*
X54117992Y11853432D01*
X54328433Y11960657D01*
X54519510Y12099483D01*
X54686517Y12266490D01*
X54825343Y12457567D01*
X54932568Y12668008D01*
X55005553Y12892632D01*
X55015197Y12953522D01*
X55042500Y13125903D01*
X55042500Y13362098D01*
X55005553Y13595369D01*
X54952807Y13757702D01*
X54932568Y13819992D01*
X54932566Y13819995D01*
X54932566Y13819997D01*
X54876002Y13931009D01*
X54825343Y14030433D01*
X54686517Y14221510D01*
X54519510Y14388517D01*
X54328433Y14527343D01*
X54117996Y14634567D01*
X53893368Y14707554D01*
X53660097Y14744500D01*
X53660092Y14744500D01*
X53423908Y14744500D01*
X53423903Y14744500D01*
X53190631Y14707554D01*
X52966003Y14634567D01*
X52755566Y14527343D01*
X52670269Y14465370D01*
X52564490Y14388517D01*
X52564488Y14388515D01*
X52564487Y14388515D01*
X52397485Y14221513D01*
X52397485Y14221512D01*
X52397483Y14221510D01*
X52337862Y14139450D01*
X52258657Y14030434D01*
X52251000Y14015405D01*
X52203025Y13964609D01*
X52140515Y13947700D01*
X48443485Y13947700D01*
X48376446Y13967385D01*
X48333000Y14015405D01*
X48325342Y14030434D01*
X48186517Y14221510D01*
X48019510Y14388517D01*
X47828433Y14527343D01*
X47617996Y14634567D01*
X47393368Y14707554D01*
X47160097Y14744500D01*
X47160092Y14744500D01*
X46923908Y14744500D01*
X46923903Y14744500D01*
X46690631Y14707554D01*
X46466003Y14634567D01*
X46255566Y14527343D01*
X46170269Y14465370D01*
X46064490Y14388517D01*
X46064488Y14388515D01*
X46064487Y14388515D01*
X45897485Y14221513D01*
X45897485Y14221512D01*
X45897483Y14221510D01*
X45837862Y14139450D01*
X45758657Y14030434D01*
X45651433Y13819997D01*
X45578446Y13595369D01*
X45541500Y13362098D01*
X40874900Y13362098D01*
X40874900Y28150928D01*
X40894585Y28217967D01*
X40911214Y28238605D01*
X40971902Y28299292D01*
X41075922Y28454969D01*
X41147573Y28627949D01*
X41184100Y28811584D01*
X41184100Y28998816D01*
X41180376Y29017535D01*
X41172744Y29055909D01*
X41178971Y29125500D01*
X41221834Y29180678D01*
X41287724Y29203922D01*
X41294361Y29204100D01*
X45352501Y29204100D01*
X45419540Y29184415D01*
X45465295Y29131611D01*
X45476501Y29080100D01*
X45476501Y28934124D01*
X45482908Y28874517D01*
X45533202Y28739672D01*
X45533206Y28739665D01*
X45619452Y28624456D01*
X45619455Y28624453D01*
X45734664Y28538207D01*
X45734671Y28538203D01*
X45869517Y28487909D01*
X45869516Y28487909D01*
X45876444Y28487165D01*
X45929127Y28481500D01*
X47774872Y28481501D01*
X47834483Y28487909D01*
X47969331Y28538204D01*
X48084546Y28624454D01*
X48170796Y28739669D01*
X48221091Y28874517D01*
X48227500Y28934127D01*
X48227500Y29080100D01*
X48247185Y29147139D01*
X48299989Y29192894D01*
X48351500Y29204100D01*
X48800900Y29204100D01*
X48867939Y29184415D01*
X48913694Y29131611D01*
X48924900Y29080100D01*
X48924900Y27565260D01*
X48924900Y27565258D01*
X48924899Y27565258D01*
X48949989Y27439127D01*
X48949991Y27439121D01*
X48999208Y27320301D01*
X49021392Y27287100D01*
X49070662Y27213361D01*
X49070663Y27213360D01*
X52102360Y24181664D01*
X52102363Y24181661D01*
X52196892Y24118499D01*
X52196891Y24118499D01*
X52209299Y24110209D01*
X52209300Y24110209D01*
X52209301Y24110208D01*
X52328121Y24060991D01*
X52328125Y24060991D01*
X52328126Y24060990D01*
X52454257Y24035900D01*
X52454260Y24035900D01*
X54748895Y24035900D01*
X61402732Y24035900D01*
X61469771Y24016215D01*
X61515526Y23963411D01*
X61525470Y23894253D01*
X61515154Y23859581D01*
X61511130Y23850937D01*
X61489278Y23818231D01*
X61435575Y23688583D01*
X61434458Y23686181D01*
X61413072Y23661856D01*
X61392756Y23636644D01*
X61390143Y23635775D01*
X61388326Y23633707D01*
X61357189Y23624807D01*
X61326462Y23614579D01*
X61322036Y23614500D01*
X53936093Y23614500D01*
X53814068Y23590227D01*
X53814062Y23590226D01*
X53809960Y23589411D01*
X53809957Y23589410D01*
X53691137Y23540193D01*
X53584197Y23468739D01*
X53584196Y23468738D01*
X53034863Y22919406D01*
X53034857Y22919399D01*
X52976757Y22832446D01*
X52976758Y22832445D01*
X52963408Y22812466D01*
X52914191Y22693645D01*
X52914189Y22693639D01*
X52889100Y22567508D01*
X52889100Y19171370D01*
X52869415Y19104331D01*
X52821396Y19060886D01*
X52755569Y19027345D01*
X52660028Y18957930D01*
X52564490Y18888517D01*
X52564488Y18888515D01*
X52564487Y18888515D01*
X52397485Y18721513D01*
X52397485Y18721512D01*
X52397483Y18721510D01*
X52363320Y18674489D01*
X52258657Y18530434D01*
X52251000Y18515405D01*
X52203025Y18464609D01*
X52140515Y18447700D01*
X48443485Y18447700D01*
X48376446Y18467385D01*
X48333000Y18515405D01*
X48331848Y18517666D01*
X48325343Y18530433D01*
X48186517Y18721510D01*
X48019510Y18888517D01*
X47828433Y19027343D01*
X47796619Y19043553D01*
X47617996Y19134567D01*
X47393368Y19207554D01*
X47160097Y19244500D01*
X47160092Y19244500D01*
X46923908Y19244500D01*
X46923903Y19244500D01*
X46690631Y19207554D01*
X46466003Y19134567D01*
X46255566Y19027343D01*
X46152414Y18952398D01*
X46064490Y18888517D01*
X46064488Y18888515D01*
X46064487Y18888515D01*
X45897485Y18721513D01*
X45897485Y18721512D01*
X45897483Y18721510D01*
X45863320Y18674489D01*
X45758657Y18530434D01*
X45651433Y18319997D01*
X45578446Y18095369D01*
X45541500Y17862098D01*
X45541500Y17625903D01*
X45578446Y17392632D01*
X45651433Y17168004D01*
X45749086Y16976351D01*
X45758657Y16957567D01*
X45897483Y16766490D01*
X46064490Y16599483D01*
X46255567Y16460657D01*
X46320891Y16427373D01*
X46466003Y16353434D01*
X46466005Y16353434D01*
X46466008Y16353432D01*
X46586412Y16314311D01*
X46690631Y16280447D01*
X46923903Y16243500D01*
X46923908Y16243500D01*
X47160097Y16243500D01*
X47393368Y16280447D01*
X47617992Y16353432D01*
X47828433Y16460657D01*
X48019510Y16599483D01*
X48186517Y16766490D01*
X48325343Y16957567D01*
X48333000Y16972596D01*
X48380975Y17023391D01*
X48443485Y17040300D01*
X52140515Y17040300D01*
X52207554Y17020615D01*
X52250999Y16972596D01*
X52258657Y16957567D01*
X52397483Y16766490D01*
X52564490Y16599483D01*
X52755567Y16460657D01*
X52820891Y16427373D01*
X52966003Y16353434D01*
X52966005Y16353434D01*
X52966008Y16353432D01*
X53086412Y16314311D01*
X53190631Y16280447D01*
X53423903Y16243500D01*
X53423908Y16243500D01*
X53660097Y16243500D01*
X53893368Y16280447D01*
X54117992Y16353432D01*
X54328433Y16460657D01*
X54519510Y16599483D01*
X54686517Y16766490D01*
X54825343Y16957567D01*
X54932568Y17168008D01*
X55005553Y17392632D01*
X55027989Y17534288D01*
X55042500Y17625903D01*
X55042500Y17862098D01*
X55005553Y18095369D01*
X54932566Y18319997D01*
X54876002Y18431009D01*
X54825343Y18530433D01*
X54686517Y18721510D01*
X54519510Y18888517D01*
X54328433Y19027343D01*
X54328432Y19027344D01*
X54328430Y19027345D01*
X54262604Y19060886D01*
X54211808Y19108861D01*
X54194900Y19171370D01*
X54194900Y22181398D01*
X54203544Y22210839D01*
X54210068Y22240825D01*
X54213822Y22245841D01*
X54214585Y22248437D01*
X54231219Y22269079D01*
X54234521Y22272381D01*
X54295844Y22305866D01*
X54322202Y22308700D01*
X61989507Y22308700D01*
X62074365Y22325581D01*
X62115644Y22333791D01*
X62234464Y22383008D01*
X62254812Y22396605D01*
X62321490Y22417480D01*
X62323701Y22417500D01*
X62425217Y22417500D01*
X62425218Y22417501D01*
X62608851Y22454027D01*
X62781831Y22525678D01*
X62937508Y22629698D01*
X63069902Y22762092D01*
X63173922Y22917769D01*
X63245573Y23090749D01*
X63282100Y23274384D01*
X63282100Y23461616D01*
X63245573Y23645251D01*
X63173922Y23818231D01*
X63173921Y23818232D01*
X63173917Y23818240D01*
X63157367Y23843008D01*
X63136488Y23909685D01*
X63154972Y23977066D01*
X63206950Y24023756D01*
X63260468Y24035900D01*
X76606104Y24035900D01*
X76673143Y24016215D01*
X76718898Y23963411D01*
X76728842Y23894253D01*
X76699817Y23830697D01*
X76678989Y23811582D01*
X76644493Y23786520D01*
X76644487Y23786515D01*
X76477485Y23619513D01*
X76477485Y23619512D01*
X76477483Y23619510D01*
X76441158Y23569513D01*
X76338657Y23428434D01*
X76231433Y23217997D01*
X76158446Y22993369D01*
X76121500Y22760098D01*
X76121500Y22523903D01*
X76158446Y22290632D01*
X76231433Y22066004D01*
X76256910Y22016004D01*
X76338657Y21855567D01*
X76477483Y21664490D01*
X76644490Y21497483D01*
X76835567Y21358657D01*
X76933696Y21308658D01*
X77046003Y21251434D01*
X77046005Y21251434D01*
X77046008Y21251432D01*
X77109790Y21230708D01*
X77270631Y21178447D01*
X77503903Y21141500D01*
X77503908Y21141500D01*
X77740097Y21141500D01*
X77846126Y21158295D01*
X77973368Y21178447D01*
X78043634Y21201279D01*
X78113472Y21203273D01*
X78169631Y21171028D01*
X78797781Y20542879D01*
X78831266Y20481556D01*
X78834100Y20455198D01*
X78834100Y19388316D01*
X78814415Y19321277D01*
X78761611Y19275522D01*
X78692453Y19265578D01*
X78646981Y19281583D01*
X78627198Y19293282D01*
X78627193Y19293284D01*
X78469494Y19339100D01*
X78469497Y19339100D01*
X78467000Y19339297D01*
X78467000Y16394705D01*
X78467001Y16394705D01*
X78469486Y16394900D01*
X78627198Y16440719D01*
X78768550Y16524314D01*
X78774717Y16529097D01*
X78776630Y16526631D01*
X78825222Y16553198D01*
X78894917Y16548251D01*
X78927762Y16527147D01*
X78928969Y16528702D01*
X78935132Y16523922D01*
X78935135Y16523919D01*
X79076602Y16440256D01*
X79118224Y16428164D01*
X79234426Y16394403D01*
X79234429Y16394403D01*
X79234431Y16394402D01*
X79271306Y16391500D01*
X79271314Y16391500D01*
X79702686Y16391500D01*
X79702694Y16391500D01*
X79739569Y16394402D01*
X79739571Y16394403D01*
X79739573Y16394403D01*
X79781191Y16406495D01*
X79897398Y16440256D01*
X80038865Y16523919D01*
X80038870Y16523925D01*
X80045031Y16528702D01*
X80046933Y16526250D01*
X80095579Y16552845D01*
X80165274Y16547896D01*
X80197695Y16527060D01*
X80198969Y16528702D01*
X80205132Y16523922D01*
X80205135Y16523919D01*
X80346602Y16440256D01*
X80388224Y16428164D01*
X80504426Y16394403D01*
X80504429Y16394403D01*
X80504431Y16394402D01*
X80541306Y16391500D01*
X80541314Y16391500D01*
X80972686Y16391500D01*
X80972694Y16391500D01*
X81009569Y16394402D01*
X81009571Y16394403D01*
X81009573Y16394403D01*
X81051191Y16406495D01*
X81167398Y16440256D01*
X81308865Y16523919D01*
X81308870Y16523925D01*
X81315031Y16528702D01*
X81316933Y16526250D01*
X81365579Y16552845D01*
X81435274Y16547896D01*
X81467695Y16527060D01*
X81468969Y16528702D01*
X81475132Y16523922D01*
X81475135Y16523919D01*
X81616602Y16440256D01*
X81658224Y16428164D01*
X81774426Y16394403D01*
X81774429Y16394403D01*
X81774431Y16394402D01*
X81811306Y16391500D01*
X81811314Y16391500D01*
X82242686Y16391500D01*
X82242694Y16391500D01*
X82279569Y16394402D01*
X82279571Y16394403D01*
X82279573Y16394403D01*
X82321191Y16406495D01*
X82437398Y16440256D01*
X82578865Y16523919D01*
X82613602Y16558656D01*
X82650619Y16595672D01*
X82711942Y16629157D01*
X82781634Y16624173D01*
X82837567Y16582301D01*
X82861984Y16516837D01*
X82862300Y16507991D01*
X82862300Y14727004D01*
X82842615Y14659965D01*
X82825981Y14639323D01*
X82561319Y14374662D01*
X82499996Y14341177D01*
X82439043Y14343267D01*
X82279573Y14389598D01*
X82279567Y14389599D01*
X82242701Y14392500D01*
X82242694Y14392500D01*
X81811306Y14392500D01*
X81811298Y14392500D01*
X81774432Y14389599D01*
X81774426Y14389598D01*
X81616606Y14343746D01*
X81616603Y14343745D01*
X81475137Y14260083D01*
X81468969Y14255298D01*
X81467072Y14257744D01*
X81418358Y14231143D01*
X81348666Y14236127D01*
X81316296Y14256931D01*
X81315031Y14255298D01*
X81308862Y14260083D01*
X81225839Y14309182D01*
X81167398Y14343744D01*
X81167397Y14343745D01*
X81167396Y14343745D01*
X81167393Y14343746D01*
X81009573Y14389598D01*
X81009567Y14389599D01*
X80972701Y14392500D01*
X80972694Y14392500D01*
X80541306Y14392500D01*
X80541298Y14392500D01*
X80504432Y14389599D01*
X80504426Y14389598D01*
X80346606Y14343746D01*
X80346603Y14343745D01*
X80205137Y14260083D01*
X80198969Y14255298D01*
X80197072Y14257744D01*
X80148358Y14231143D01*
X80078666Y14236127D01*
X80046296Y14256931D01*
X80045031Y14255298D01*
X80038862Y14260083D01*
X79955839Y14309182D01*
X79897398Y14343744D01*
X79897397Y14343745D01*
X79897396Y14343745D01*
X79897393Y14343746D01*
X79739573Y14389598D01*
X79739567Y14389599D01*
X79702701Y14392500D01*
X79702694Y14392500D01*
X79271306Y14392500D01*
X79271298Y14392500D01*
X79234432Y14389599D01*
X79079294Y14344527D01*
X79053037Y14344603D01*
X79027053Y14340866D01*
X79018656Y14344701D01*
X79009425Y14344727D01*
X78987379Y14358985D01*
X78963497Y14369891D01*
X78958505Y14377658D01*
X78950755Y14382670D01*
X78939917Y14406583D01*
X78925723Y14428669D01*
X78923779Y14442189D01*
X78921912Y14446308D01*
X78920700Y14463604D01*
X78920700Y14619928D01*
X78920701Y14619949D01*
X78920701Y14764682D01*
X78893658Y14900627D01*
X78893657Y14900631D01*
X78840610Y15028699D01*
X78837730Y15033009D01*
X78763600Y15143953D01*
X78763598Y15143956D01*
X78662487Y15245067D01*
X78662456Y15245096D01*
X77667127Y16240425D01*
X77633642Y16301748D01*
X77638626Y16371440D01*
X77680498Y16427373D01*
X77745962Y16451790D01*
X77799259Y16442722D01*
X77799310Y16442895D01*
X77800824Y16442456D01*
X77804063Y16441904D01*
X77806802Y16440719D01*
X77964514Y16394900D01*
X77964511Y16394900D01*
X77966998Y16394705D01*
X77967000Y16394705D01*
X77967000Y17617000D01*
X77417000Y17617000D01*
X77417000Y16976351D01*
X77419899Y16939511D01*
X77419900Y16939505D01*
X77465717Y16781803D01*
X77466905Y16779058D01*
X77467193Y16776722D01*
X77467894Y16774310D01*
X77467505Y16774198D01*
X77475466Y16709715D01*
X77445178Y16646751D01*
X77385657Y16610158D01*
X77315802Y16611553D01*
X77265424Y16642128D01*
X76669586Y17237966D01*
X76636101Y17299289D01*
X76641085Y17368981D01*
X76682957Y17424914D01*
X76709870Y17438967D01*
X76709579Y17439592D01*
X76716124Y17442644D01*
X76865345Y17534685D01*
X76989315Y17658655D01*
X77081356Y17807876D01*
X77081358Y17807881D01*
X77136505Y17974303D01*
X77136506Y17974310D01*
X77146999Y18077014D01*
X77147000Y18077027D01*
X77147000Y18352000D01*
X76183500Y18352000D01*
X76116461Y18371685D01*
X76070706Y18424489D01*
X76059500Y18476000D01*
X76059500Y18602000D01*
X75933500Y18602000D01*
X75866461Y18621685D01*
X75820706Y18674489D01*
X75809500Y18726000D01*
X75809500Y18757650D01*
X77417000Y18757650D01*
X77417000Y18117000D01*
X77967000Y18117000D01*
X77967000Y19339297D01*
X77964503Y19339100D01*
X77806806Y19293284D01*
X77806803Y19293283D01*
X77665447Y19209686D01*
X77665438Y19209679D01*
X77549321Y19093562D01*
X77549314Y19093553D01*
X77465717Y18952197D01*
X77465716Y18952194D01*
X77419900Y18794496D01*
X77419899Y18794490D01*
X77417000Y18757650D01*
X75809500Y18757650D01*
X75809500Y18852000D01*
X76309500Y18852000D01*
X77146999Y18852000D01*
X77146999Y19126972D01*
X77146998Y19126987D01*
X77136505Y19229698D01*
X77081358Y19396120D01*
X77081356Y19396125D01*
X76989315Y19545346D01*
X76865345Y19669316D01*
X76716124Y19761357D01*
X76716119Y19761359D01*
X76549697Y19816506D01*
X76549690Y19816507D01*
X76446986Y19827000D01*
X76309500Y19827000D01*
X76309500Y18852000D01*
X75809500Y18852000D01*
X75809500Y19827000D01*
X75672027Y19827000D01*
X75672012Y19826999D01*
X75569302Y19816506D01*
X75402880Y19761359D01*
X75402875Y19761357D01*
X75253654Y19669316D01*
X75129683Y19545345D01*
X75129679Y19545340D01*
X75127826Y19542335D01*
X75126018Y19540710D01*
X75125202Y19539677D01*
X75125025Y19539817D01*
X75075874Y19495615D01*
X75006911Y19484399D01*
X74942831Y19512248D01*
X74916753Y19542347D01*
X74916737Y19542372D01*
X74914712Y19545656D01*
X74790656Y19669712D01*
X74641334Y19761814D01*
X74474797Y19816999D01*
X74474795Y19817000D01*
X74372010Y19827500D01*
X73596998Y19827500D01*
X73596980Y19827499D01*
X73494203Y19817000D01*
X73494200Y19816999D01*
X73327668Y19761815D01*
X73327663Y19761813D01*
X73178342Y19669711D01*
X73054289Y19545658D01*
X72962187Y19396337D01*
X72962184Y19396328D01*
X72960317Y19390694D01*
X72946447Y19370663D01*
X72936325Y19348497D01*
X72926912Y19342449D01*
X72920544Y19333250D01*
X72898045Y19323897D01*
X72877547Y19310723D01*
X72860443Y19308264D01*
X72856028Y19306428D01*
X72842612Y19305700D01*
X72658900Y19305700D01*
X72591861Y19325385D01*
X72546106Y19378189D01*
X72534900Y19429700D01*
X72534900Y19932928D01*
X72554585Y19999967D01*
X72565880Y20013982D01*
X72565637Y20014182D01*
X72569497Y20018888D01*
X72569502Y20018892D01*
X72673522Y20174569D01*
X72745173Y20347549D01*
X72781700Y20531184D01*
X72781700Y20718416D01*
X72745173Y20902051D01*
X72683062Y21052000D01*
X72673523Y21075029D01*
X72673518Y21075038D01*
X72569502Y21230708D01*
X72569499Y21230712D01*
X72437111Y21363100D01*
X72437107Y21363103D01*
X72281437Y21467119D01*
X72281428Y21467124D01*
X72108451Y21538773D01*
X72108443Y21538775D01*
X71924820Y21575300D01*
X71924816Y21575300D01*
X71737584Y21575300D01*
X71737579Y21575300D01*
X71553956Y21538775D01*
X71553948Y21538773D01*
X71380971Y21467124D01*
X71380962Y21467119D01*
X71225292Y21363103D01*
X71225288Y21363100D01*
X71092900Y21230712D01*
X71092897Y21230708D01*
X70988881Y21075038D01*
X70988876Y21075029D01*
X70917227Y20902052D01*
X70917225Y20902044D01*
X70880700Y20718421D01*
X70880700Y20531180D01*
X70917225Y20347557D01*
X70917227Y20347549D01*
X70988876Y20174572D01*
X70988881Y20174563D01*
X71092897Y20018893D01*
X71096763Y20014182D01*
X71095327Y20013005D01*
X71124661Y19959309D01*
X71127500Y19932928D01*
X71127500Y19022844D01*
X71127499Y19022818D01*
X71127499Y19017708D01*
X71127499Y18879092D01*
X71154258Y18744569D01*
X71154543Y18743138D01*
X71207589Y18615073D01*
X71256155Y18542389D01*
X71284601Y18499815D01*
X71386936Y18397480D01*
X71386958Y18397460D01*
X71627874Y18156544D01*
X71627903Y18156513D01*
X71729014Y18055402D01*
X71729017Y18055400D01*
X71844273Y17978389D01*
X71897320Y17956417D01*
X71972339Y17925342D01*
X71972341Y17925342D01*
X71972343Y17925341D01*
X72108289Y17898299D01*
X72108292Y17898299D01*
X72253023Y17898299D01*
X72253043Y17898300D01*
X72842612Y17898300D01*
X72909651Y17878615D01*
X72955406Y17825811D01*
X72960317Y17813306D01*
X72962186Y17807666D01*
X73054288Y17658344D01*
X73178344Y17534288D01*
X73327666Y17442186D01*
X73494203Y17387001D01*
X73596991Y17376500D01*
X73804880Y17376501D01*
X73871918Y17356817D01*
X73917673Y17304013D01*
X73927617Y17234855D01*
X73898592Y17171299D01*
X73848739Y17137763D01*
X73849118Y17136848D01*
X73845370Y17135296D01*
X73845368Y17135295D01*
X73800602Y17116752D01*
X73590982Y17029925D01*
X73590971Y17029920D01*
X73352516Y16892246D01*
X73134073Y16724630D01*
X73134066Y16724624D01*
X72939376Y16529934D01*
X72939370Y16529927D01*
X72771754Y16311484D01*
X72634080Y16073029D01*
X72634075Y16073018D01*
X72528704Y15818631D01*
X72457441Y15552669D01*
X72457438Y15552656D01*
X72421501Y15279685D01*
X72421500Y15279668D01*
X72421500Y15004333D01*
X72421501Y15004316D01*
X72457438Y14731345D01*
X72457439Y14731340D01*
X72457440Y14731334D01*
X72470838Y14681332D01*
X72528704Y14465370D01*
X72634075Y14210983D01*
X72634080Y14210972D01*
X72688013Y14117559D01*
X72771751Y13972521D01*
X72771753Y13972518D01*
X72771754Y13972517D01*
X72939370Y13754074D01*
X72939376Y13754067D01*
X73134066Y13559377D01*
X73134073Y13559371D01*
X73199235Y13509371D01*
X73352521Y13391751D01*
X73505778Y13303268D01*
X73590971Y13254081D01*
X73590976Y13254079D01*
X73590979Y13254077D01*
X73845368Y13148705D01*
X74111334Y13077440D01*
X74384326Y13041500D01*
X74384333Y13041500D01*
X74659667Y13041500D01*
X74659674Y13041500D01*
X74932666Y13077440D01*
X75198632Y13148705D01*
X75453021Y13254077D01*
X75691479Y13391751D01*
X75909928Y13559372D01*
X76104628Y13754072D01*
X76272249Y13972521D01*
X76409923Y14210979D01*
X76515295Y14465368D01*
X76586560Y14731334D01*
X76622500Y15004326D01*
X76623030Y15008350D01*
X76624099Y15008210D01*
X76646486Y15069345D01*
X76702168Y15111551D01*
X76771829Y15116952D01*
X76833351Y15083834D01*
X76833877Y15083311D01*
X77476981Y14440207D01*
X77491684Y14413280D01*
X77508277Y14387461D01*
X77509168Y14381261D01*
X77510466Y14378884D01*
X77513300Y14352526D01*
X77513300Y14117559D01*
X77496032Y14054439D01*
X77465257Y14002401D01*
X77465254Y14002394D01*
X77419402Y13844574D01*
X77419401Y13844568D01*
X77416500Y13807702D01*
X77416500Y12026299D01*
X77419401Y11989433D01*
X77419402Y11989427D01*
X77465254Y11831607D01*
X77465255Y11831604D01*
X77496032Y11779563D01*
X77513300Y11716442D01*
X77513300Y9749894D01*
X77493615Y9682855D01*
X77440811Y9637100D01*
X77408698Y9627421D01*
X77270631Y9605554D01*
X77046003Y9532567D01*
X76835566Y9425343D01*
X76766748Y9375343D01*
X76644490Y9286517D01*
X76644488Y9286515D01*
X76644487Y9286515D01*
X76477485Y9119513D01*
X76477485Y9119512D01*
X76477483Y9119510D01*
X76441158Y9069513D01*
X76338657Y8928434D01*
X76231433Y8717997D01*
X76158446Y8493369D01*
X76121500Y8260098D01*
X76121500Y8023903D01*
X76158446Y7790632D01*
X76231433Y7566004D01*
X76256910Y7516004D01*
X76338657Y7355567D01*
X76477483Y7164490D01*
X76644490Y6997483D01*
X76835567Y6858657D01*
X76933696Y6808658D01*
X77046003Y6751434D01*
X77046005Y6751434D01*
X77046008Y6751432D01*
X77087040Y6738100D01*
X77270631Y6678447D01*
X77503903Y6641500D01*
X77503908Y6641500D01*
X77740097Y6641500D01*
X77973368Y6678447D01*
X78044114Y6701434D01*
X78197992Y6751432D01*
X78408433Y6858657D01*
X78599510Y6997483D01*
X78766517Y7164490D01*
X78905343Y7355567D01*
X79012568Y7566008D01*
X79085553Y7790632D01*
X79087865Y7805227D01*
X79122500Y8023903D01*
X79122500Y8260098D01*
X79085553Y8493369D01*
X79048573Y8607180D01*
X79012568Y8717992D01*
X79012566Y8717995D01*
X79012565Y8718000D01*
X78934215Y8871771D01*
X78920700Y8928065D01*
X78920700Y10620597D01*
X78940385Y10687636D01*
X78993189Y10733391D01*
X79062347Y10743335D01*
X79125903Y10714310D01*
X79132381Y10708278D01*
X81151026Y8689633D01*
X81184511Y8628310D01*
X81181277Y8563636D01*
X81158446Y8493368D01*
X81121500Y8260098D01*
X81121500Y8023903D01*
X81158446Y7790632D01*
X81231433Y7566004D01*
X81256910Y7516004D01*
X81338657Y7355567D01*
X81477483Y7164490D01*
X81644490Y6997483D01*
X81835567Y6858657D01*
X81933696Y6808658D01*
X82046003Y6751434D01*
X82046005Y6751434D01*
X82046008Y6751432D01*
X82087040Y6738100D01*
X82270631Y6678447D01*
X82503903Y6641500D01*
X82503908Y6641500D01*
X82740097Y6641500D01*
X82973368Y6678447D01*
X83044114Y6701434D01*
X83197992Y6751432D01*
X83408433Y6858657D01*
X83599510Y6997483D01*
X83766517Y7164490D01*
X83905343Y7355567D01*
X84012568Y7566008D01*
X84085553Y7790632D01*
X84087865Y7805227D01*
X84122500Y8023903D01*
X84122500Y8260098D01*
X84085553Y8493369D01*
X84048573Y8607180D01*
X84012568Y8717992D01*
X84012566Y8717995D01*
X84012566Y8717997D01*
X83927878Y8884205D01*
X83905343Y8928433D01*
X83766517Y9119510D01*
X83599510Y9286517D01*
X83408433Y9425343D01*
X83395868Y9431745D01*
X83197996Y9532567D01*
X82973368Y9605554D01*
X82740097Y9642500D01*
X82740092Y9642500D01*
X82503908Y9642500D01*
X82503903Y9642500D01*
X82270632Y9605554D01*
X82200364Y9582723D01*
X82130523Y9580729D01*
X82074367Y9612974D01*
X80457522Y11229819D01*
X80424037Y11291142D01*
X80429021Y11360834D01*
X80470893Y11416767D01*
X80536357Y11441184D01*
X80545203Y11441500D01*
X80972686Y11441500D01*
X80972694Y11441500D01*
X81009569Y11444402D01*
X81009571Y11444403D01*
X81009573Y11444403D01*
X81051191Y11456495D01*
X81167398Y11490256D01*
X81308865Y11573919D01*
X81308870Y11573925D01*
X81315031Y11578702D01*
X81316933Y11576250D01*
X81365579Y11602845D01*
X81435274Y11597896D01*
X81467695Y11577060D01*
X81468969Y11578702D01*
X81475132Y11573922D01*
X81475135Y11573919D01*
X81616602Y11490256D01*
X81658224Y11478164D01*
X81774426Y11444403D01*
X81774429Y11444403D01*
X81774431Y11444402D01*
X81811306Y11441500D01*
X81811314Y11441500D01*
X82242686Y11441500D01*
X82242694Y11441500D01*
X82279569Y11444402D01*
X82279571Y11444403D01*
X82279573Y11444403D01*
X82321191Y11456495D01*
X82437398Y11490256D01*
X82578865Y11573919D01*
X82695081Y11690135D01*
X82778744Y11831602D01*
X82824598Y11989431D01*
X82827500Y12026306D01*
X82827500Y12742799D01*
X82847185Y12809838D01*
X82863814Y12830476D01*
X83886580Y13853242D01*
X83947901Y13886725D01*
X84017593Y13881741D01*
X84072635Y13841045D01*
X84139370Y13754074D01*
X84139376Y13754067D01*
X84334066Y13559377D01*
X84334073Y13559371D01*
X84399235Y13509371D01*
X84552521Y13391751D01*
X84705778Y13303268D01*
X84790971Y13254081D01*
X84790976Y13254079D01*
X84790979Y13254077D01*
X85045368Y13148705D01*
X85311334Y13077440D01*
X85584326Y13041500D01*
X85584333Y13041500D01*
X85859667Y13041500D01*
X85859674Y13041500D01*
X86132666Y13077440D01*
X86398632Y13148705D01*
X86653021Y13254077D01*
X86891479Y13391751D01*
X87109928Y13559372D01*
X87304628Y13754072D01*
X87472249Y13972521D01*
X87609923Y14210979D01*
X87715295Y14465368D01*
X87786560Y14731334D01*
X87822500Y15004326D01*
X87822500Y15279674D01*
X87786560Y15552666D01*
X87715295Y15818632D01*
X87609923Y16073021D01*
X87609921Y16073024D01*
X87609919Y16073029D01*
X87513272Y16240425D01*
X87472249Y16311479D01*
X87371543Y16442722D01*
X87304629Y16529927D01*
X87304623Y16529934D01*
X87109933Y16724624D01*
X87109926Y16724630D01*
X86891483Y16892246D01*
X86891482Y16892247D01*
X86891479Y16892249D01*
X86778345Y16957567D01*
X86653028Y17029920D01*
X86653017Y17029925D01*
X86398630Y17135296D01*
X86264263Y17171299D01*
X86132666Y17206560D01*
X86132660Y17206561D01*
X86132655Y17206562D01*
X85859684Y17242499D01*
X85859679Y17242500D01*
X85859674Y17242500D01*
X85584326Y17242500D01*
X85584320Y17242500D01*
X85584315Y17242499D01*
X85311344Y17206562D01*
X85311337Y17206561D01*
X85311334Y17206560D01*
X85258861Y17192500D01*
X85045369Y17135296D01*
X84790982Y17029925D01*
X84790971Y17029920D01*
X84552516Y16892246D01*
X84367586Y16750345D01*
X84302417Y16725151D01*
X84233972Y16739190D01*
X84183982Y16788004D01*
X84168100Y16848721D01*
X84168100Y17407398D01*
X84187785Y17474437D01*
X84204419Y17495079D01*
X88645138Y21935798D01*
X88645140Y21935800D01*
X88716592Y22042736D01*
X88765809Y22161556D01*
X88781538Y22240632D01*
X88790900Y22287695D01*
X88790900Y38470734D01*
X88810585Y38537773D01*
X88863389Y38583528D01*
X88932547Y38593472D01*
X88962352Y38585296D01*
X89029149Y38557627D01*
X89128963Y38537773D01*
X89212779Y38521101D01*
X89212783Y38521100D01*
X89212784Y38521100D01*
X89400017Y38521100D01*
X89400018Y38521101D01*
X89583651Y38557627D01*
X89756631Y38629278D01*
X89912308Y38733298D01*
X90044702Y38865692D01*
X90148722Y39021369D01*
X90220373Y39194349D01*
X90256900Y39377984D01*
X90256900Y39565216D01*
X90220373Y39748851D01*
X90148722Y39921831D01*
X90148721Y39921832D01*
X90148718Y39921838D01*
X90044702Y40077508D01*
X90044699Y40077512D01*
X89995619Y40126592D01*
X89962134Y40187915D01*
X89959300Y40214273D01*
X89959300Y58585908D01*
X89939708Y58684398D01*
X89934209Y58712044D01*
X89904048Y58784860D01*
X89884993Y58830863D01*
X89813541Y58937799D01*
X89813539Y58937802D01*
X89813538Y58937803D01*
X88947605Y59803737D01*
X88947604Y59803738D01*
X88947600Y59803741D01*
X88840664Y59875192D01*
X88798601Y59892615D01*
X88721844Y59924409D01*
X88721838Y59924411D01*
X88595707Y59949500D01*
X88595705Y59949500D01*
X87911869Y59949500D01*
X87844830Y59969185D01*
X87801384Y60017205D01*
X87784176Y60050977D01*
X87767843Y60083033D01*
X87629017Y60274110D01*
X87462010Y60441117D01*
X87270933Y60579943D01*
X87060496Y60687167D01*
X86835868Y60760154D01*
X86602597Y60797100D01*
X86602592Y60797100D01*
X86366408Y60797100D01*
X86366403Y60797100D01*
X86133131Y60760154D01*
X85908503Y60687167D01*
X85698066Y60579943D01*
X85629818Y60530357D01*
X85506990Y60441117D01*
X85506988Y60441115D01*
X85506987Y60441115D01*
X85339985Y60274113D01*
X85339985Y60274112D01*
X85339983Y60274110D01*
X85307214Y60229007D01*
X85201157Y60083034D01*
X85197126Y60075122D01*
X85195059Y60071064D01*
X85193500Y60068005D01*
X85145525Y60017209D01*
X85083015Y60000300D01*
X81385985Y60000300D01*
X81318946Y60019985D01*
X81275500Y60068005D01*
X81274840Y60069301D01*
X81267843Y60083033D01*
X81129017Y60274110D01*
X80962010Y60441117D01*
X80770933Y60579943D01*
X80560496Y60687167D01*
X80335868Y60760154D01*
X80102597Y60797100D01*
X80102592Y60797100D01*
X79866408Y60797100D01*
X79866403Y60797100D01*
X79633131Y60760154D01*
X79408503Y60687167D01*
X79198066Y60579943D01*
X79129818Y60530357D01*
X79006990Y60441117D01*
X79006988Y60441115D01*
X79006987Y60441115D01*
X78839985Y60274113D01*
X78839985Y60274112D01*
X78839983Y60274110D01*
X78807214Y60229007D01*
X78701157Y60083034D01*
X78593933Y59872597D01*
X78520946Y59647969D01*
X78484000Y59414698D01*
X78484000Y59178503D01*
X78520946Y58945232D01*
X78593933Y58720604D01*
X78671834Y58567716D01*
X78701157Y58510167D01*
X78839983Y58319090D01*
X79006990Y58152083D01*
X79198067Y58013257D01*
X79297491Y57962598D01*
X79408503Y57906034D01*
X79408505Y57906034D01*
X79408508Y57906032D01*
X79498007Y57876952D01*
X79633131Y57833047D01*
X79864679Y57796373D01*
X79927814Y57766444D01*
X79964745Y57707132D01*
X79963747Y57637270D01*
X79925137Y57579037D01*
X79861173Y57550923D01*
X79845281Y57549900D01*
X75869036Y57549900D01*
X75801997Y57569585D01*
X75781355Y57586219D01*
X73321839Y60045737D01*
X73321838Y60045738D01*
X73321834Y60045741D01*
X73214898Y60117192D01*
X73210376Y60119065D01*
X73096078Y60166409D01*
X73096072Y60166411D01*
X72969941Y60191500D01*
X72969939Y60191500D01*
X71469596Y60191500D01*
X71402557Y60211185D01*
X71356802Y60263989D01*
X71346858Y60333147D01*
X71355035Y60362953D01*
X71383721Y60432208D01*
X71424373Y60530349D01*
X71460900Y60713984D01*
X71460900Y60901216D01*
X71424373Y61084851D01*
X71352722Y61257831D01*
X71352721Y61257832D01*
X71352718Y61257838D01*
X71248702Y61413508D01*
X71248699Y61413512D01*
X71116311Y61545900D01*
X71116307Y61545903D01*
X70960637Y61649919D01*
X70960628Y61649924D01*
X70787651Y61721573D01*
X70787643Y61721575D01*
X70604020Y61758100D01*
X70604016Y61758100D01*
X70416784Y61758100D01*
X70416779Y61758100D01*
X70233156Y61721575D01*
X70233148Y61721573D01*
X70060171Y61649924D01*
X70060162Y61649919D01*
X69904492Y61545903D01*
X69904488Y61545900D01*
X69855410Y61496820D01*
X69794087Y61463334D01*
X69767728Y61460500D01*
X60215002Y61460500D01*
X60147963Y61480185D01*
X60127321Y61496819D01*
X59876358Y61747782D01*
X59842873Y61809105D01*
X59847857Y61878797D01*
X59889729Y61934730D01*
X59955193Y61959147D01*
X60023466Y61944295D01*
X60032930Y61938565D01*
X60161762Y61852482D01*
X60161768Y61852479D01*
X60161769Y61852478D01*
X60334749Y61780827D01*
X60500879Y61747782D01*
X60518379Y61744301D01*
X60518383Y61744300D01*
X60518384Y61744300D01*
X60705617Y61744300D01*
X60705618Y61744301D01*
X60889251Y61780827D01*
X61062231Y61852478D01*
X61217908Y61956498D01*
X61350302Y62088892D01*
X61454322Y62244569D01*
X61525973Y62417549D01*
X61562500Y62601184D01*
X61562500Y62670598D01*
X61582185Y62737637D01*
X61598819Y62758279D01*
X61947921Y63107381D01*
X62009244Y63140866D01*
X62035602Y63143700D01*
X78557131Y63143700D01*
X78624170Y63124015D01*
X78667616Y63075995D01*
X78701157Y63010167D01*
X78839983Y62819090D01*
X79006990Y62652083D01*
X79198067Y62513257D01*
X79297491Y62462598D01*
X79408503Y62406034D01*
X79408505Y62406034D01*
X79408508Y62406032D01*
X79483696Y62381602D01*
X79633131Y62333047D01*
X79866403Y62296100D01*
X79866408Y62296100D01*
X80102597Y62296100D01*
X80335868Y62333047D01*
X80560492Y62406032D01*
X80770933Y62513257D01*
X80962010Y62652083D01*
X81129017Y62819090D01*
X81267843Y63010167D01*
X81301384Y63075995D01*
X81349359Y63126791D01*
X81411869Y63143700D01*
X85057131Y63143700D01*
X85124170Y63124015D01*
X85167616Y63075995D01*
X85201157Y63010167D01*
X85339983Y62819090D01*
X85506990Y62652083D01*
X85698067Y62513257D01*
X85797491Y62462598D01*
X85908503Y62406034D01*
X85908505Y62406034D01*
X85908508Y62406032D01*
X85983696Y62381602D01*
X86133131Y62333047D01*
X86366403Y62296100D01*
X86366408Y62296100D01*
X86602597Y62296100D01*
X86835868Y62333047D01*
X87060492Y62406032D01*
X87270933Y62513257D01*
X87462010Y62652083D01*
X87629017Y62819090D01*
X87767843Y63010167D01*
X87875068Y63220608D01*
X87948053Y63445232D01*
X87985000Y63678503D01*
X87985000Y63914698D01*
X87948053Y64147969D01*
X87885690Y64339900D01*
X87875068Y64372592D01*
X87875066Y64372595D01*
X87875066Y64372597D01*
X87803728Y64512605D01*
X87767843Y64583033D01*
X87629017Y64774110D01*
X87462010Y64941117D01*
X87270933Y65079943D01*
X87234511Y65098501D01*
X87060496Y65187167D01*
X86835868Y65260154D01*
X86602597Y65297100D01*
X86602592Y65297100D01*
X86366408Y65297100D01*
X86366403Y65297100D01*
X86133131Y65260154D01*
X85908503Y65187167D01*
X85698066Y65079943D01*
X85612328Y65017650D01*
X85506990Y64941117D01*
X85506988Y64941115D01*
X85506987Y64941115D01*
X85339985Y64774113D01*
X85339985Y64774112D01*
X85339983Y64774110D01*
X85305716Y64726946D01*
X85201157Y64583034D01*
X85167616Y64517205D01*
X85119641Y64466409D01*
X85057131Y64449500D01*
X81411869Y64449500D01*
X81344830Y64469185D01*
X81301384Y64517205D01*
X81283452Y64552398D01*
X81267843Y64583033D01*
X81129017Y64774110D01*
X80962010Y64941117D01*
X80770933Y65079943D01*
X80734511Y65098501D01*
X80560496Y65187167D01*
X80335868Y65260154D01*
X80102597Y65297100D01*
X80102592Y65297100D01*
X79866408Y65297100D01*
X79866403Y65297100D01*
X79633131Y65260154D01*
X79408503Y65187167D01*
X79198066Y65079943D01*
X79112328Y65017650D01*
X79006990Y64941117D01*
X79006988Y64941115D01*
X79006987Y64941115D01*
X78839985Y64774113D01*
X78839985Y64774112D01*
X78839983Y64774110D01*
X78805716Y64726946D01*
X78701157Y64583034D01*
X78667616Y64517205D01*
X78619641Y64466409D01*
X78557131Y64449500D01*
X61649493Y64449500D01*
X61523360Y64424411D01*
X61523353Y64424409D01*
X61512256Y64419811D01*
X61512251Y64419809D01*
X61404544Y64375197D01*
X61404533Y64375191D01*
X61297598Y64303740D01*
X61297597Y64303739D01*
X60675478Y63681619D01*
X60614155Y63648134D01*
X60587797Y63645300D01*
X60518379Y63645300D01*
X60334756Y63608775D01*
X60334748Y63608773D01*
X60161771Y63537124D01*
X60161762Y63537119D01*
X60006092Y63433103D01*
X60006088Y63433100D01*
X59873700Y63300712D01*
X59873697Y63300708D01*
X59769681Y63145038D01*
X59769676Y63145029D01*
X59698027Y62972052D01*
X59698025Y62972044D01*
X59661500Y62788421D01*
X59661500Y62601180D01*
X59698025Y62417557D01*
X59698027Y62417549D01*
X59769676Y62244572D01*
X59769681Y62244563D01*
X59855764Y62115731D01*
X59876642Y62049053D01*
X59858157Y61981673D01*
X59806178Y61934983D01*
X59737208Y61923807D01*
X59673145Y61951693D01*
X59664981Y61959159D01*
X57261405Y64362737D01*
X57261404Y64362738D01*
X57253541Y64367992D01*
X57154464Y64434192D01*
X57117507Y64449500D01*
X57035644Y64483409D01*
X57035638Y64483411D01*
X56909507Y64508500D01*
X56909505Y64508500D01*
X54901295Y64508500D01*
X54901293Y64508500D01*
X54775161Y64483411D01*
X54775155Y64483409D01*
X54679826Y64443922D01*
X54656336Y64434193D01*
X54549398Y64362740D01*
X54372564Y64185906D01*
X54311241Y64152421D01*
X54241549Y64157405D01*
X54185616Y64199277D01*
X54181793Y64204678D01*
X54179902Y64207508D01*
X54179897Y64207513D01*
X54179897Y64207514D01*
X54047511Y64339900D01*
X54047507Y64339903D01*
X53891837Y64443919D01*
X53891828Y64443924D01*
X53718851Y64515573D01*
X53718843Y64515575D01*
X53535220Y64552100D01*
X53535216Y64552100D01*
X53347984Y64552100D01*
X53347979Y64552100D01*
X53164356Y64515575D01*
X53164348Y64515573D01*
X52991371Y64443924D01*
X52991359Y64443917D01*
X52938570Y64408645D01*
X52918606Y64402395D01*
X52900638Y64391674D01*
X52885931Y64392164D01*
X52871893Y64387768D01*
X52851718Y64393303D01*
X52830807Y64393999D01*
X52818702Y64402361D01*
X52804513Y64406253D01*
X52790530Y64421820D01*
X52773318Y64433709D01*
X52764219Y64451112D01*
X52757823Y64458233D01*
X52755235Y64464018D01*
X52752551Y64470452D01*
X52728744Y64552398D01*
X52693574Y64611868D01*
X52690254Y64619829D01*
X52687899Y64641244D01*
X52680700Y64667559D01*
X52680700Y66634107D01*
X52700385Y66701146D01*
X52753189Y66746901D01*
X52785301Y66756580D01*
X52923368Y66778447D01*
X53147992Y66851432D01*
X53358433Y66958657D01*
X53549510Y67097483D01*
X53716517Y67264490D01*
X53855343Y67455567D01*
X53962568Y67666008D01*
X54035553Y67890632D01*
X54055649Y68017512D01*
X54072500Y68123903D01*
X54072500Y68360098D01*
X54035553Y68593369D01*
X53962566Y68817997D01*
X53855342Y69028434D01*
X53716517Y69219510D01*
X53549510Y69386517D01*
X53358433Y69525343D01*
X53147996Y69632567D01*
X52923368Y69705554D01*
X52690097Y69742500D01*
X52690092Y69742500D01*
X52453908Y69742500D01*
X52453903Y69742500D01*
X52220631Y69705554D01*
X51996003Y69632567D01*
X51785566Y69525343D01*
X51676550Y69446138D01*
X51594490Y69386517D01*
X51594488Y69386515D01*
X51594487Y69386515D01*
X51427485Y69219513D01*
X51427485Y69219512D01*
X51427483Y69219510D01*
X51367862Y69137450D01*
X51288657Y69028434D01*
X51181433Y68817997D01*
X51108446Y68593369D01*
X51071500Y68360098D01*
X51071500Y68123903D01*
X51108446Y67890632D01*
X51181433Y67666004D01*
X51259785Y67512232D01*
X51273300Y67455937D01*
X51273300Y65824204D01*
X51253615Y65757165D01*
X51200811Y65711410D01*
X51131653Y65701466D01*
X51068097Y65730491D01*
X51061619Y65736523D01*
X50403404Y66394738D01*
X50372493Y66415392D01*
X50296464Y66466192D01*
X50220573Y66497627D01*
X50177644Y66515409D01*
X50177638Y66515411D01*
X50051507Y66540500D01*
X50051505Y66540500D01*
X48480202Y66540500D01*
X48450761Y66549145D01*
X48420775Y66555668D01*
X48415759Y66559423D01*
X48413163Y66560185D01*
X48392526Y66576815D01*
X48261217Y66708124D01*
X48227734Y66769445D01*
X48224900Y66795803D01*
X48224900Y66814632D01*
X48244585Y66881671D01*
X48292605Y66925117D01*
X48358433Y66958657D01*
X48549510Y67097483D01*
X48716517Y67264490D01*
X48855343Y67455567D01*
X48962568Y67666008D01*
X49035553Y67890632D01*
X49055649Y68017512D01*
X49072500Y68123903D01*
X49072500Y68360098D01*
X49035553Y68593369D01*
X48962566Y68817997D01*
X48855342Y69028434D01*
X48716517Y69219510D01*
X48549510Y69386517D01*
X48358433Y69525343D01*
X48147996Y69632567D01*
X47923368Y69705554D01*
X47690097Y69742500D01*
X47690092Y69742500D01*
X47453908Y69742500D01*
X47453903Y69742500D01*
X47220631Y69705554D01*
X46996003Y69632567D01*
X46785566Y69525343D01*
X46676550Y69446138D01*
X46594490Y69386517D01*
X46594488Y69386515D01*
X46594487Y69386515D01*
X46427485Y69219513D01*
X46427485Y69219512D01*
X46427483Y69219510D01*
X46367862Y69137450D01*
X46288657Y69028434D01*
X46181433Y68817997D01*
X46108446Y68593369D01*
X46071500Y68360098D01*
X46071500Y68123903D01*
X46108446Y67890632D01*
X46181433Y67666004D01*
X46273300Y67485707D01*
X46288657Y67455567D01*
X46427483Y67264490D01*
X46594490Y67097483D01*
X46737797Y66993364D01*
X46785568Y66958656D01*
X46826201Y66937953D01*
X46851394Y66925117D01*
X46902190Y66877144D01*
X46919100Y66814632D01*
X46919100Y66409695D01*
X46919100Y66409693D01*
X46919099Y66409693D01*
X46943498Y66287040D01*
X46943498Y66287039D01*
X46944190Y66283559D01*
X46944191Y66283555D01*
X46993407Y66164738D01*
X47064862Y66057796D01*
X47064863Y66057795D01*
X47742195Y65380464D01*
X47742198Y65380461D01*
X47742201Y65380459D01*
X47812834Y65333264D01*
X47849136Y65309008D01*
X47967956Y65259791D01*
X47967960Y65259791D01*
X47967961Y65259790D01*
X48094092Y65234700D01*
X48094095Y65234700D01*
X49665397Y65234700D01*
X49732436Y65215015D01*
X49753078Y65198381D01*
X49802794Y65148665D01*
X49836279Y65087342D01*
X49831295Y65017650D01*
X49789423Y64961717D01*
X49723959Y64937300D01*
X49692833Y64939002D01*
X49689569Y64939599D01*
X49652701Y64942500D01*
X49652694Y64942500D01*
X49221306Y64942500D01*
X49221298Y64942500D01*
X49184432Y64939599D01*
X49184426Y64939598D01*
X49026606Y64893746D01*
X49026603Y64893745D01*
X48885137Y64810083D01*
X48878969Y64805298D01*
X48877072Y64807744D01*
X48828358Y64781143D01*
X48758666Y64786127D01*
X48726296Y64806931D01*
X48725031Y64805298D01*
X48718862Y64810083D01*
X48577396Y64893745D01*
X48577393Y64893746D01*
X48419573Y64939598D01*
X48419567Y64939599D01*
X48382701Y64942500D01*
X48382694Y64942500D01*
X47951306Y64942500D01*
X47951298Y64942500D01*
X47914432Y64939599D01*
X47914426Y64939598D01*
X47756606Y64893746D01*
X47756603Y64893745D01*
X47615137Y64810083D01*
X47615129Y64810077D01*
X47498923Y64693871D01*
X47498917Y64693863D01*
X47415255Y64552397D01*
X47415254Y64552394D01*
X47369402Y64394574D01*
X47369401Y64394568D01*
X47366500Y64357702D01*
X47366500Y64243900D01*
X47346815Y64176861D01*
X47294011Y64131106D01*
X47242500Y64119900D01*
X46786003Y64119900D01*
X46756559Y64128546D01*
X46726577Y64135068D01*
X46721561Y64138823D01*
X46718964Y64139585D01*
X46698327Y64156214D01*
X46593400Y64261141D01*
X46593397Y64261143D01*
X46109694Y64744846D01*
X45596419Y65258122D01*
X45562934Y65319445D01*
X45560100Y65345803D01*
X45560100Y69629798D01*
X45579785Y69696837D01*
X45596419Y69717479D01*
X46512921Y70633981D01*
X46574244Y70667466D01*
X46600602Y70670300D01*
X59066895Y70670300D01*
X70950597Y70670300D01*
X71017636Y70650615D01*
X71038278Y70633981D01*
X71527257Y70145003D01*
X71527259Y70145000D01*
X71599182Y70073078D01*
X71605422Y70061649D01*
X71632666Y70011755D01*
X71635500Y69985397D01*
X71635500Y68154273D01*
X71615815Y68087234D01*
X71599181Y68066592D01*
X71550100Y68017512D01*
X71550097Y68017508D01*
X71446081Y67861838D01*
X71446076Y67861829D01*
X71374427Y67688852D01*
X71374425Y67688844D01*
X71337900Y67505221D01*
X71337900Y67317980D01*
X71374425Y67134357D01*
X71374427Y67134349D01*
X71446076Y66961372D01*
X71446081Y66961363D01*
X71550097Y66805693D01*
X71550100Y66805689D01*
X71682488Y66673301D01*
X71682492Y66673298D01*
X71838162Y66569282D01*
X71838168Y66569279D01*
X71838169Y66569278D01*
X72011149Y66497627D01*
X72169180Y66466193D01*
X72194779Y66461101D01*
X72194783Y66461100D01*
X72194784Y66461100D01*
X72382017Y66461100D01*
X72382018Y66461101D01*
X72565651Y66497627D01*
X72738631Y66569278D01*
X72894308Y66673298D01*
X73026702Y66805692D01*
X73130722Y66961369D01*
X73202373Y67134349D01*
X73238900Y67317984D01*
X73238900Y67505216D01*
X73202373Y67688851D01*
X73130722Y67861831D01*
X73130721Y67861832D01*
X73130718Y67861838D01*
X73026702Y68017508D01*
X73026699Y68017512D01*
X72977619Y68066592D01*
X72944134Y68127915D01*
X72941300Y68154273D01*
X72941300Y70263289D01*
X92271500Y70263289D01*
X92271500Y70020712D01*
X92303161Y69780215D01*
X92365947Y69545896D01*
X92431964Y69386517D01*
X92458776Y69321788D01*
X92580064Y69111711D01*
X92580066Y69111708D01*
X92580067Y69111707D01*
X92727733Y68919264D01*
X92727739Y68919257D01*
X92899256Y68747740D01*
X92899262Y68747735D01*
X93091711Y68600064D01*
X93301788Y68478776D01*
X93525900Y68385946D01*
X93760211Y68323162D01*
X93940586Y68299416D01*
X94000711Y68291500D01*
X94000712Y68291500D01*
X94243289Y68291500D01*
X94291388Y68297833D01*
X94483789Y68323162D01*
X94718100Y68385946D01*
X94942212Y68478776D01*
X95152289Y68600064D01*
X95344738Y68747735D01*
X95516265Y68919262D01*
X95663936Y69111711D01*
X95785224Y69321788D01*
X95878054Y69545900D01*
X95940838Y69780211D01*
X95972500Y70020712D01*
X95972500Y70263288D01*
X95940838Y70503789D01*
X95878054Y70738100D01*
X95785224Y70962212D01*
X95663936Y71172289D01*
X95516265Y71364738D01*
X95516260Y71364744D01*
X95344743Y71536261D01*
X95344736Y71536267D01*
X95152293Y71683933D01*
X95152292Y71683934D01*
X95152289Y71683936D01*
X94942212Y71805224D01*
X94881584Y71830337D01*
X94718104Y71898053D01*
X94520471Y71951009D01*
X94483789Y71960838D01*
X94483788Y71960839D01*
X94483785Y71960839D01*
X94243289Y71992500D01*
X94243288Y71992500D01*
X94000712Y71992500D01*
X94000711Y71992500D01*
X93760214Y71960839D01*
X93525895Y71898053D01*
X93301794Y71805227D01*
X93301785Y71805223D01*
X93091706Y71683933D01*
X92899263Y71536267D01*
X92899256Y71536261D01*
X92727739Y71364744D01*
X92727733Y71364737D01*
X92580067Y71172294D01*
X92458777Y70962215D01*
X92458773Y70962206D01*
X92365947Y70738105D01*
X92303161Y70503786D01*
X92271500Y70263289D01*
X72941300Y70263289D01*
X72941300Y70371508D01*
X72916210Y70497639D01*
X72916209Y70497640D01*
X72916209Y70497644D01*
X72866992Y70616464D01*
X72831020Y70670300D01*
X72795540Y70723400D01*
X72795537Y70723403D01*
X72795535Y70723406D01*
X72446281Y71072661D01*
X72446258Y71072682D01*
X71688605Y71830337D01*
X71688604Y71830338D01*
X71688600Y71830341D01*
X71581664Y71901792D01*
X71462844Y71951009D01*
X71462838Y71951011D01*
X71336707Y71976100D01*
X71336705Y71976100D01*
X59195505Y71976100D01*
X46214495Y71976100D01*
X46214493Y71976100D01*
X46088361Y71951011D01*
X46088355Y71951009D01*
X45969537Y71901793D01*
X45862597Y71830339D01*
X44400060Y70367802D01*
X44330235Y70263299D01*
X44330234Y70263298D01*
X44328609Y70260867D01*
X44328604Y70260858D01*
X44279392Y70142049D01*
X44279389Y70142039D01*
X44254300Y70015908D01*
X44254300Y66424653D01*
X44234615Y66357614D01*
X44181811Y66311859D01*
X44112653Y66301915D01*
X44049097Y66330940D01*
X44027198Y66355762D01*
X43969102Y66442708D01*
X43969099Y66442712D01*
X43836711Y66575100D01*
X43836707Y66575103D01*
X43681037Y66679119D01*
X43681028Y66679124D01*
X43508051Y66750773D01*
X43508043Y66750775D01*
X43324420Y66787300D01*
X43324416Y66787300D01*
X43137184Y66787300D01*
X43137179Y66787300D01*
X42953556Y66750775D01*
X42953548Y66750773D01*
X42780571Y66679124D01*
X42780562Y66679119D01*
X42624892Y66575103D01*
X42624888Y66575100D01*
X42575810Y66526020D01*
X42514487Y66492534D01*
X42488128Y66489700D01*
X22742493Y66489700D01*
X22624314Y66466192D01*
X22624309Y66466191D01*
X22616359Y66464610D01*
X22616357Y66464610D01*
X22497536Y66415393D01*
X22390598Y66343940D01*
X22390595Y66343937D01*
X21309631Y65262974D01*
X21248308Y65229489D01*
X21183633Y65232724D01*
X21113371Y65255553D01*
X20880097Y65292500D01*
X20880092Y65292500D01*
X20643908Y65292500D01*
X20643903Y65292500D01*
X20410631Y65255554D01*
X20186003Y65182567D01*
X19975566Y65075343D01*
X19866550Y64996138D01*
X19784490Y64936517D01*
X19784488Y64936515D01*
X19784487Y64936515D01*
X19617485Y64769513D01*
X19617485Y64769512D01*
X19617483Y64769510D01*
X19577689Y64714738D01*
X19478657Y64578434D01*
X19445116Y64512605D01*
X19397141Y64461809D01*
X19334631Y64444900D01*
X15689369Y64444900D01*
X15622330Y64464585D01*
X15578884Y64512605D01*
X15545342Y64578434D01*
X15524009Y64607796D01*
X15406517Y64769510D01*
X15239510Y64936517D01*
X15048433Y65075343D01*
X15002983Y65098501D01*
X14837996Y65182567D01*
X14613368Y65255554D01*
X14380097Y65292500D01*
X14380092Y65292500D01*
X14143908Y65292500D01*
X14143903Y65292500D01*
X13910631Y65255554D01*
X13686003Y65182567D01*
X13475566Y65075343D01*
X13366550Y64996138D01*
X13284490Y64936517D01*
X13284488Y64936515D01*
X13284487Y64936515D01*
X13117485Y64769513D01*
X13117485Y64769512D01*
X13117483Y64769510D01*
X13077689Y64714738D01*
X12978657Y64578434D01*
X12871433Y64367997D01*
X12798446Y64143369D01*
X12761500Y63910098D01*
X622499Y63910098D01*
X622499Y70263289D01*
X4271500Y70263289D01*
X4271500Y70020712D01*
X4303161Y69780215D01*
X4365947Y69545896D01*
X4431964Y69386517D01*
X4458776Y69321788D01*
X4580064Y69111711D01*
X4580066Y69111708D01*
X4580067Y69111707D01*
X4727733Y68919264D01*
X4727739Y68919257D01*
X4899256Y68747740D01*
X4899262Y68747735D01*
X5091711Y68600064D01*
X5301788Y68478776D01*
X5525900Y68385946D01*
X5760211Y68323162D01*
X5940586Y68299416D01*
X6000711Y68291500D01*
X6000712Y68291500D01*
X6243289Y68291500D01*
X6291388Y68297833D01*
X6483789Y68323162D01*
X6718100Y68385946D01*
X6942212Y68478776D01*
X7152289Y68600064D01*
X7344738Y68747735D01*
X7516265Y68919262D01*
X7663936Y69111711D01*
X7785224Y69321788D01*
X7878054Y69545900D01*
X7940838Y69780211D01*
X7972500Y70020712D01*
X7972500Y70263288D01*
X7940838Y70503789D01*
X7878054Y70738100D01*
X7785224Y70962212D01*
X7663936Y71172289D01*
X7516265Y71364738D01*
X7516260Y71364744D01*
X7344743Y71536261D01*
X7344736Y71536267D01*
X7152293Y71683933D01*
X7152292Y71683934D01*
X7152289Y71683936D01*
X6942212Y71805224D01*
X6881584Y71830337D01*
X6718104Y71898053D01*
X6520471Y71951009D01*
X6483789Y71960838D01*
X6483788Y71960839D01*
X6483785Y71960839D01*
X6243289Y71992500D01*
X6243288Y71992500D01*
X6000712Y71992500D01*
X6000711Y71992500D01*
X5760214Y71960839D01*
X5525895Y71898053D01*
X5301794Y71805227D01*
X5301785Y71805223D01*
X5091706Y71683933D01*
X4899263Y71536267D01*
X4899256Y71536261D01*
X4727739Y71364744D01*
X4727733Y71364737D01*
X4580067Y71172294D01*
X4458777Y70962215D01*
X4458773Y70962206D01*
X4365947Y70738105D01*
X4303161Y70503786D01*
X4271500Y70263289D01*
X622499Y70263289D01*
X622499Y73138250D01*
X622725Y73145737D01*
X640270Y73435795D01*
X642075Y73450660D01*
X693779Y73732798D01*
X697363Y73747336D01*
X782695Y74021179D01*
X787997Y74035159D01*
X905730Y74296751D01*
X912675Y74309984D01*
X1061079Y74555474D01*
X1069566Y74567770D01*
X1246479Y74793583D01*
X1256394Y74804774D01*
X1459225Y75007605D01*
X1470416Y75017520D01*
X1696229Y75194434D01*
X1708525Y75202921D01*
X1954010Y75351322D01*
X1967255Y75358273D01*
X2228841Y75476003D01*
X2242822Y75481305D01*
X2516668Y75566639D01*
X2531197Y75570221D01*
X2813343Y75621926D01*
X2828200Y75623730D01*
X3118247Y75641274D01*
X3125734Y75641500D01*
X3187892Y75641500D01*
X97056107Y75641500D01*
X97118248Y75641500D01*
X97125735Y75641274D01*
G37*
%TD.AperFunction*%
%TD*%
M02*
