M48
; DRILL file {KiCad 9.0.4} date 2025-09-26T15:30:39+0200
; FORMAT={-:-/ absolute / metric / decimal}
; #@! TF.CreationDate,2025-09-26T15:30:39+02:00
; #@! TF.GenerationSoftware,Kicad,Pcbnew,9.0.4
; #@! TF.FileFunction,Plated,1,2,PTH
FMAT,2
METRIC
; #@! TA.AperFunction,Plated,PTH,ViaDrill
T1C0.500
; #@! TA.AperFunction,Plated,PTH,ComponentDrill
T2C0.750
; #@! TA.AperFunction,Plated,PTH,ComponentDrill
T3C0.800
; #@! TA.AperFunction,Plated,PTH,ComponentDrill
T4C1.000
; #@! TA.AperFunction,Plated,PTH,ComponentDrill
T5C1.100
; #@! TA.AperFunction,Plated,PTH,ComponentDrill
T6C2.600
%
G90
G05
T1
X13.964Y21.246
X18.866Y10.492
X20.587Y31.642
X23.983Y38.043
X23.996Y32.276
X37.393Y12.951
X42.482Y43.924
X45.681Y57.116
X45.897Y54.431
X47.274Y29.526
X48.976Y41.196
X49.502Y33.486
X49.675Y27.581
X50.493Y43.68
X50.742Y35.007
X51.606Y65.107
X51.953Y32.63
X52.454Y41.038
X53.185Y28.429
X53.271Y35.378
X54.215Y41.138
X54.727Y43.641
X55.28Y39.154
X56.721Y30.713
X56.748Y55.453
X61.357Y35.539
X62.095Y43.354
X63.193Y58.704
X67.508Y51.022
X71.353Y32.974
X72.455Y31.923
X73.74Y20.891
X76.093Y42.0
X78.117Y15.086
X79.174Y47.63
T2
X34.222Y9.662
X36.222Y9.662
X38.222Y9.662
X40.222Y9.662
X66.452Y56.982
X68.452Y56.982
X70.452Y56.982
X72.452Y56.982
T3
X14.934Y43.92
X14.934Y33.76
X17.474Y43.92
X17.474Y33.76
X20.014Y43.92
X20.014Y33.76
X22.554Y43.92
X22.554Y33.76
X25.094Y43.92
X25.094Y33.76
X27.634Y43.92
X73.76Y43.971
X73.76Y33.811
X76.3Y43.971
X76.3Y33.811
X78.84Y43.971
X78.84Y33.811
X81.38Y43.971
X81.38Y33.811
X83.92Y43.971
X83.92Y33.811
X86.46Y43.971
T4
X18.622Y22.592
X18.622Y8.092
X21.122Y22.592
X23.622Y22.592
X23.622Y8.092
X47.572Y68.242
X47.572Y53.742
X50.072Y53.742
X52.572Y68.242
X52.572Y53.742
X77.622Y22.642
X77.622Y8.142
X80.122Y22.642
X82.622Y22.642
X82.622Y8.142
T5
X14.262Y63.792
X14.262Y59.292
X20.762Y63.792
X20.762Y59.292
X47.042Y17.744
X47.042Y13.244
X53.542Y17.744
X53.542Y13.244
X79.984Y63.797
X79.984Y59.297
X86.484Y63.797
X86.484Y59.297
T6
X15.522Y15.092
X26.722Y15.092
X44.472Y61.242
X55.672Y61.242
X74.522Y15.142
X85.722Y15.142
M30
