%TF.GenerationSoftware,KiCad,Pcbnew,9.0.0*%
%TF.CreationDate,2025-04-19T08:54:28+02:00*%
%TF.ProjectId,Encoders-LCD,456e636f-6465-4727-932d-4c43442e6b69,rev?*%
%TF.SameCoordinates,PX55d4a80PY4e33880*%
%TF.FileFunction,Soldermask,Top*%
%TF.FilePolarity,Negative*%
%FSLAX46Y46*%
G04 Gerber Fmt 4.6, Leading zero omitted, Abs format (unit mm)*
G04 Created by KiCad (PCBNEW 9.0.0) date 2025-04-19 08:54:28*
%MOMM*%
%LPD*%
G01*
G04 APERTURE LIST*
G04 Aperture macros list*
%AMRoundRect*
0 Rectangle with rounded corners*
0 $1 Rounding radius*
0 $2 $3 $4 $5 $6 $7 $8 $9 X,Y pos of 4 corners*
0 Add a 4 corners polygon primitive as box body*
4,1,4,$2,$3,$4,$5,$6,$7,$8,$9,$2,$3,0*
0 Add four circle primitives for the rounded corners*
1,1,$1+$1,$2,$3*
1,1,$1+$1,$4,$5*
1,1,$1+$1,$6,$7*
1,1,$1+$1,$8,$9*
0 Add four rect primitives between the rounded corners*
20,1,$1+$1,$2,$3,$4,$5,0*
20,1,$1+$1,$4,$5,$6,$7,0*
20,1,$1+$1,$6,$7,$8,$9,0*
20,1,$1+$1,$8,$9,$2,$3,0*%
G04 Aperture macros list end*
%ADD10R,2.000000X2.000000*%
%ADD11C,2.000000*%
%ADD12C,3.200000*%
%ADD13RoundRect,0.250000X-0.475000X0.337500X-0.475000X-0.337500X0.475000X-0.337500X0.475000X0.337500X0*%
%ADD14C,1.600000*%
%ADD15RoundRect,0.250000X0.337500X0.475000X-0.337500X0.475000X-0.337500X-0.475000X0.337500X-0.475000X0*%
%ADD16RoundRect,0.250000X-0.350000X-0.625000X0.350000X-0.625000X0.350000X0.625000X-0.350000X0.625000X0*%
%ADD17O,1.200000X1.750000*%
G04 APERTURE END LIST*
D10*
%TO.C,ENC3*%
X32500000Y-15500000D03*
D11*
X27500000Y-15500000D03*
X30000000Y-15500000D03*
D12*
X35600000Y-23000000D03*
X24400000Y-23000000D03*
D11*
X27500000Y-30000000D03*
X32500000Y-30000000D03*
%TD*%
D10*
%TO.C,ENC2*%
X-26500000Y-15550000D03*
D11*
X-31500000Y-15550000D03*
X-29000000Y-15550000D03*
D12*
X-23400000Y-23050000D03*
X-34600000Y-23050000D03*
D11*
X-31500000Y-30050000D03*
X-26500000Y-30050000D03*
%TD*%
D10*
%TO.C,ENC1*%
X-2550000Y15600000D03*
D11*
X2450000Y15600000D03*
X-50000Y15600000D03*
D12*
X-5650000Y23100000D03*
X5550000Y23100000D03*
D11*
X2450000Y30100000D03*
X-2550000Y30100000D03*
%TD*%
D13*
%TO.C,R1*%
X-19267600Y20107900D03*
X-19267600Y18032900D03*
%TD*%
D11*
%TO.C,SW3*%
X29862500Y25654600D03*
X36362500Y25654600D03*
X29862500Y21154600D03*
X36362500Y21154600D03*
%TD*%
D14*
%TO.C,U3*%
X23638000Y-4330800D03*
X26178000Y-4330800D03*
X28718000Y-4330800D03*
X31258000Y-4330800D03*
X33798000Y-4330800D03*
X36338000Y5829200D03*
X33798000Y5829200D03*
X31258000Y5829200D03*
X28718000Y5829200D03*
X26178000Y5829200D03*
X23638000Y5829200D03*
%TD*%
D12*
%TO.C,H4*%
X44000000Y-32000000D03*
%TD*%
D15*
%TO.C,C1*%
X-21379700Y19934000D03*
X-23454700Y19934000D03*
%TD*%
%TO.C,C2*%
X-21379700Y17648000D03*
X-23454700Y17648000D03*
%TD*%
D13*
%TO.C,R2*%
X-17184800Y20107900D03*
X-17184800Y18032900D03*
%TD*%
D12*
%TO.C,H1*%
X-44000000Y32000000D03*
%TD*%
%TO.C,H2*%
X44000000Y32000000D03*
%TD*%
D11*
%TO.C,SW1*%
X-35860000Y25650000D03*
X-29360000Y25650000D03*
X-35860000Y21150000D03*
X-29360000Y21150000D03*
%TD*%
D12*
%TO.C,H3*%
X-44000000Y-32000000D03*
%TD*%
D14*
%TO.C,U2*%
X-35188400Y-4381600D03*
X-32648400Y-4381600D03*
X-30108400Y-4381600D03*
X-27568400Y-4381600D03*
X-25028400Y-4381600D03*
X-22488400Y5778400D03*
X-25028400Y5778400D03*
X-27568400Y5778400D03*
X-30108400Y5778400D03*
X-32648400Y5778400D03*
X-35188400Y5778400D03*
%TD*%
D11*
%TO.C,SW2*%
X-3080000Y-20398000D03*
X3420000Y-20398000D03*
X-3080000Y-24898000D03*
X3420000Y-24898000D03*
%TD*%
D16*
%TO.C,J1*%
X-23388000Y14994800D03*
D17*
X-21388000Y14994800D03*
X-19388000Y14994800D03*
X-17388000Y14994800D03*
X-15388000Y14994800D03*
X-13388000Y14994800D03*
X-11388000Y14994800D03*
%TD*%
M02*
