M48
; DRILL file {KiCad 9.0.1} date 2025-05-16T18:10:27+0200
; FORMAT={-:-/ absolute / metric / decimal}
; #@! TF.CreationDate,2025-05-16T18:10:27+02:00
; #@! TF.GenerationSoftware,Kicad,Pcbnew,9.0.1
; #@! TF.FileFunction,MixedPlating,1,2
FMAT,2
METRIC
; #@! TA.AperFunction,Plated,PTH,ViaDrill
T1C0.600
; #@! TA.AperFunction,Plated,PTH,ComponentDrill
T2C0.800
; #@! TA.AperFunction,Plated,PTH,ComponentDrill
T3C1.190
%
G90
G05
T1
X20.807Y5.308
X20.807Y1.244
X25.506Y5.562
X25.506Y3.53
X25.633Y19.532
X26.776Y20.548
X27.411Y18.135
X31.983Y18.135
X33.253Y19.532
X33.507Y5.689
X34.269Y20.548
X45.064Y3.53
X53.319Y5.943
X56.494Y5.943
T2
X7.75Y16.16
X7.75Y6.0
X10.29Y16.16
X10.29Y6.0
X12.83Y16.16
X12.83Y6.0
X15.37Y16.16
X15.37Y6.0
X17.91Y16.16
X17.91Y6.0
X20.45Y16.16
X40.0Y16.16
X40.0Y6.0
X42.54Y16.16
X42.54Y6.0
X45.08Y16.16
X45.08Y6.0
X47.62Y16.16
X47.62Y6.0
X50.16Y16.16
X50.16Y6.0
X52.7Y16.16
T3
X26.19Y25.98
X28.73Y25.98
X31.27Y25.98
X33.81Y25.98
M30
