%TF.GenerationSoftware,KiCad,Pcbnew,9.0.2-9.0.2-0~ubuntu24.04.1*%
%TF.CreationDate,2025-05-27T16:37:07+02:00*%
%TF.ProjectId,lcd-ht16k33,6c63642d-6874-4313-966b-33332e6b6963,rev?*%
%TF.SameCoordinates,PX5204180PY4e33880*%
%TF.FileFunction,Copper,L2,Bot*%
%TF.FilePolarity,Positive*%
%FSLAX46Y46*%
G04 Gerber Fmt 4.6, Leading zero omitted, Abs format (unit mm)*
G04 Created by KiCad (PCBNEW 9.0.2-9.0.2-0~ubuntu24.04.1) date 2025-05-27 16:37:07*
%MOMM*%
%LPD*%
G01*
G04 APERTURE LIST*
G04 Aperture macros list*
%AMRoundRect*
0 Rectangle with rounded corners*
0 $1 Rounding radius*
0 $2 $3 $4 $5 $6 $7 $8 $9 X,Y pos of 4 corners*
0 Add a 4 corners polygon primitive as box body*
4,1,4,$2,$3,$4,$5,$6,$7,$8,$9,$2,$3,0*
0 Add four circle primitives for the rounded corners*
1,1,$1+$1,$2,$3*
1,1,$1+$1,$4,$5*
1,1,$1+$1,$6,$7*
1,1,$1+$1,$8,$9*
0 Add four rect primitives between the rounded corners*
20,1,$1+$1,$2,$3,$4,$5,0*
20,1,$1+$1,$4,$5,$6,$7,0*
20,1,$1+$1,$6,$7,$8,$9,0*
20,1,$1+$1,$8,$9,$2,$3,0*%
G04 Aperture macros list end*
%ADD10C,0.400000*%
%TA.AperFunction,NonConductor*%
%ADD11C,0.400000*%
%TD*%
%TA.AperFunction,ComponentPad*%
%ADD12C,1.600000*%
%TD*%
%TA.AperFunction,ComponentPad*%
%ADD13RoundRect,0.250000X-0.620000X-0.845000X0.620000X-0.845000X0.620000X0.845000X-0.620000X0.845000X0*%
%TD*%
%TA.AperFunction,ComponentPad*%
%ADD14O,1.740000X2.190000*%
%TD*%
%TA.AperFunction,SMDPad,CuDef*%
%ADD15RoundRect,0.250000X-0.475000X0.337500X-0.475000X-0.337500X0.475000X-0.337500X0.475000X0.337500X0*%
%TD*%
%TA.AperFunction,SMDPad,CuDef*%
%ADD16R,1.750000X0.450000*%
%TD*%
%TA.AperFunction,SMDPad,CuDef*%
%ADD17RoundRect,0.250000X0.412500X0.650000X-0.412500X0.650000X-0.412500X-0.650000X0.412500X-0.650000X0*%
%TD*%
%TA.AperFunction,SMDPad,CuDef*%
%ADD18RoundRect,0.250000X0.337500X0.475000X-0.337500X0.475000X-0.337500X-0.475000X0.337500X-0.475000X0*%
%TD*%
%TA.AperFunction,ViaPad*%
%ADD19C,1.000000*%
%TD*%
%TA.AperFunction,Conductor*%
%ADD20C,0.355600*%
%TD*%
G04 APERTURE END LIST*
D10*
D11*
X42210012Y29133034D02*
X42114774Y29323510D01*
X42114774Y29323510D02*
X42114774Y29609224D01*
X42114774Y29609224D02*
X42210012Y29894939D01*
X42210012Y29894939D02*
X42400488Y30085415D01*
X42400488Y30085415D02*
X42590964Y30180653D01*
X42590964Y30180653D02*
X42971916Y30275891D01*
X42971916Y30275891D02*
X43257631Y30275891D01*
X43257631Y30275891D02*
X43638583Y30180653D01*
X43638583Y30180653D02*
X43829059Y30085415D01*
X43829059Y30085415D02*
X44019536Y29894939D01*
X44019536Y29894939D02*
X44114774Y29609224D01*
X44114774Y29609224D02*
X44114774Y29418748D01*
X44114774Y29418748D02*
X44019536Y29133034D01*
X44019536Y29133034D02*
X43924297Y29037796D01*
X43924297Y29037796D02*
X43257631Y29037796D01*
X43257631Y29037796D02*
X43257631Y29418748D01*
X44114774Y28180653D02*
X42114774Y28180653D01*
X42114774Y28180653D02*
X44114774Y27037796D01*
X44114774Y27037796D02*
X42114774Y27037796D01*
X44114774Y26085415D02*
X42114774Y26085415D01*
X42114774Y26085415D02*
X42114774Y25609225D01*
X42114774Y25609225D02*
X42210012Y25323510D01*
X42210012Y25323510D02*
X42400488Y25133034D01*
X42400488Y25133034D02*
X42590964Y25037796D01*
X42590964Y25037796D02*
X42971916Y24942558D01*
X42971916Y24942558D02*
X43257631Y24942558D01*
X43257631Y24942558D02*
X43638583Y25037796D01*
X43638583Y25037796D02*
X43829059Y25133034D01*
X43829059Y25133034D02*
X44019536Y25323510D01*
X44019536Y25323510D02*
X44114774Y25609225D01*
X44114774Y25609225D02*
X44114774Y26085415D01*
X45334662Y30466367D02*
X47334662Y29799701D01*
X47334662Y29799701D02*
X45334662Y29133034D01*
X47144185Y27323510D02*
X47239424Y27418748D01*
X47239424Y27418748D02*
X47334662Y27704462D01*
X47334662Y27704462D02*
X47334662Y27894938D01*
X47334662Y27894938D02*
X47239424Y28180653D01*
X47239424Y28180653D02*
X47048947Y28371129D01*
X47048947Y28371129D02*
X46858471Y28466367D01*
X46858471Y28466367D02*
X46477519Y28561605D01*
X46477519Y28561605D02*
X46191804Y28561605D01*
X46191804Y28561605D02*
X45810852Y28466367D01*
X45810852Y28466367D02*
X45620376Y28371129D01*
X45620376Y28371129D02*
X45429900Y28180653D01*
X45429900Y28180653D02*
X45334662Y27894938D01*
X45334662Y27894938D02*
X45334662Y27704462D01*
X45334662Y27704462D02*
X45429900Y27418748D01*
X45429900Y27418748D02*
X45525138Y27323510D01*
X47144185Y25323510D02*
X47239424Y25418748D01*
X47239424Y25418748D02*
X47334662Y25704462D01*
X47334662Y25704462D02*
X47334662Y25894938D01*
X47334662Y25894938D02*
X47239424Y26180653D01*
X47239424Y26180653D02*
X47048947Y26371129D01*
X47048947Y26371129D02*
X46858471Y26466367D01*
X46858471Y26466367D02*
X46477519Y26561605D01*
X46477519Y26561605D02*
X46191804Y26561605D01*
X46191804Y26561605D02*
X45810852Y26466367D01*
X45810852Y26466367D02*
X45620376Y26371129D01*
X45620376Y26371129D02*
X45429900Y26180653D01*
X45429900Y26180653D02*
X45334662Y25894938D01*
X45334662Y25894938D02*
X45334662Y25704462D01*
X45334662Y25704462D02*
X45429900Y25418748D01*
X45429900Y25418748D02*
X45525138Y25323510D01*
X50459312Y30275891D02*
X50554550Y29990177D01*
X50554550Y29990177D02*
X50554550Y29513986D01*
X50554550Y29513986D02*
X50459312Y29323510D01*
X50459312Y29323510D02*
X50364073Y29228272D01*
X50364073Y29228272D02*
X50173597Y29133034D01*
X50173597Y29133034D02*
X49983121Y29133034D01*
X49983121Y29133034D02*
X49792645Y29228272D01*
X49792645Y29228272D02*
X49697407Y29323510D01*
X49697407Y29323510D02*
X49602169Y29513986D01*
X49602169Y29513986D02*
X49506931Y29894939D01*
X49506931Y29894939D02*
X49411692Y30085415D01*
X49411692Y30085415D02*
X49316454Y30180653D01*
X49316454Y30180653D02*
X49125978Y30275891D01*
X49125978Y30275891D02*
X48935502Y30275891D01*
X48935502Y30275891D02*
X48745026Y30180653D01*
X48745026Y30180653D02*
X48649788Y30085415D01*
X48649788Y30085415D02*
X48554550Y29894939D01*
X48554550Y29894939D02*
X48554550Y29418748D01*
X48554550Y29418748D02*
X48649788Y29133034D01*
X50554550Y28275891D02*
X48554550Y28275891D01*
X48554550Y28275891D02*
X48554550Y27799701D01*
X48554550Y27799701D02*
X48649788Y27513986D01*
X48649788Y27513986D02*
X48840264Y27323510D01*
X48840264Y27323510D02*
X49030740Y27228272D01*
X49030740Y27228272D02*
X49411692Y27133034D01*
X49411692Y27133034D02*
X49697407Y27133034D01*
X49697407Y27133034D02*
X50078359Y27228272D01*
X50078359Y27228272D02*
X50268835Y27323510D01*
X50268835Y27323510D02*
X50459312Y27513986D01*
X50459312Y27513986D02*
X50554550Y27799701D01*
X50554550Y27799701D02*
X50554550Y28275891D01*
X49983121Y26371129D02*
X49983121Y25418748D01*
X50554550Y26561605D02*
X48554550Y25894939D01*
X48554550Y25894939D02*
X50554550Y25228272D01*
X53679200Y30275891D02*
X53774438Y29990177D01*
X53774438Y29990177D02*
X53774438Y29513986D01*
X53774438Y29513986D02*
X53679200Y29323510D01*
X53679200Y29323510D02*
X53583961Y29228272D01*
X53583961Y29228272D02*
X53393485Y29133034D01*
X53393485Y29133034D02*
X53203009Y29133034D01*
X53203009Y29133034D02*
X53012533Y29228272D01*
X53012533Y29228272D02*
X52917295Y29323510D01*
X52917295Y29323510D02*
X52822057Y29513986D01*
X52822057Y29513986D02*
X52726819Y29894939D01*
X52726819Y29894939D02*
X52631580Y30085415D01*
X52631580Y30085415D02*
X52536342Y30180653D01*
X52536342Y30180653D02*
X52345866Y30275891D01*
X52345866Y30275891D02*
X52155390Y30275891D01*
X52155390Y30275891D02*
X51964914Y30180653D01*
X51964914Y30180653D02*
X51869676Y30085415D01*
X51869676Y30085415D02*
X51774438Y29894939D01*
X51774438Y29894939D02*
X51774438Y29418748D01*
X51774438Y29418748D02*
X51869676Y29133034D01*
X53583961Y27133034D02*
X53679200Y27228272D01*
X53679200Y27228272D02*
X53774438Y27513986D01*
X53774438Y27513986D02*
X53774438Y27704462D01*
X53774438Y27704462D02*
X53679200Y27990177D01*
X53679200Y27990177D02*
X53488723Y28180653D01*
X53488723Y28180653D02*
X53298247Y28275891D01*
X53298247Y28275891D02*
X52917295Y28371129D01*
X52917295Y28371129D02*
X52631580Y28371129D01*
X52631580Y28371129D02*
X52250628Y28275891D01*
X52250628Y28275891D02*
X52060152Y28180653D01*
X52060152Y28180653D02*
X51869676Y27990177D01*
X51869676Y27990177D02*
X51774438Y27704462D01*
X51774438Y27704462D02*
X51774438Y27513986D01*
X51774438Y27513986D02*
X51869676Y27228272D01*
X51869676Y27228272D02*
X51964914Y27133034D01*
X53774438Y25323510D02*
X53774438Y26275891D01*
X53774438Y26275891D02*
X51774438Y26275891D01*
D12*
%TO.P,U2,1,E*%
%TO.N,/SEG5*%
X40000000Y7000000D03*
%TO.P,U2,2,D*%
%TO.N,/SEG4*%
X42540000Y7000000D03*
%TO.P,U2,3,DP*%
%TO.N,/SEG8*%
X45080000Y7000000D03*
%TO.P,U2,4,C*%
%TO.N,/SEG3*%
X47620000Y7000000D03*
%TO.P,U2,5,G*%
%TO.N,/SEG7*%
X50160000Y7000000D03*
%TO.P,U2,7,B*%
%TO.N,/SEG2*%
X52700000Y17160000D03*
%TO.P,U2,8,DIG3*%
%TO.N,/GR3*%
X50160000Y17160000D03*
%TO.P,U2,9,DIG2*%
%TO.N,/GR2*%
X47620000Y17160000D03*
%TO.P,U2,10,F*%
%TO.N,/SEG6*%
X45080000Y17160000D03*
%TO.P,U2,11,A*%
%TO.N,/SEG1*%
X42540000Y17160000D03*
%TO.P,U2,12,DIG1*%
%TO.N,/COMMAND*%
X40000000Y17160000D03*
%TD*%
%TO.P,U3,1,E*%
%TO.N,/SEG5*%
X7750000Y7000000D03*
%TO.P,U3,2,D*%
%TO.N,/SEG4*%
X10290000Y7000000D03*
%TO.P,U3,3,DP*%
%TO.N,/SEG8*%
X12830000Y7000000D03*
%TO.P,U3,4,C*%
%TO.N,/SEG3*%
X15370000Y7000000D03*
%TO.P,U3,5,G*%
%TO.N,/SEG7*%
X17910000Y7000000D03*
%TO.P,U3,7,B*%
%TO.N,/SEG2*%
X20450000Y17160000D03*
%TO.P,U3,8,DIG3*%
%TO.N,/GR6*%
X17910000Y17160000D03*
%TO.P,U3,9,DIG2*%
%TO.N,/GR5*%
X15370000Y17160000D03*
%TO.P,U3,10,F*%
%TO.N,/SEG6*%
X12830000Y17160000D03*
%TO.P,U3,11,A*%
%TO.N,/SEG1*%
X10290000Y17160000D03*
%TO.P,U3,12,DIG1*%
%TO.N,/GR4*%
X7750000Y17160000D03*
%TD*%
D13*
%TO.P,J1,1,Pin_1*%
%TO.N,GND*%
X26190000Y26980000D03*
D14*
%TO.P,J1,2,Pin_2*%
%TO.N,VCC*%
X28730000Y26980000D03*
%TO.P,J1,3,Pin_3*%
%TO.N,/SDA*%
X31270000Y26980000D03*
%TO.P,J1,4,Pin_4*%
%TO.N,/SCL*%
X33810000Y26980000D03*
%TD*%
D15*
%TO.P,R1,1*%
%TO.N,VCC*%
X31221000Y33380500D03*
%TO.P,R1,2*%
%TO.N,/SDA*%
X31221000Y31305500D03*
%TD*%
%TO.P,R2,1*%
%TO.N,VCC*%
X33761000Y33380500D03*
%TO.P,R2,2*%
%TO.N,/SCL*%
X33761000Y31305500D03*
%TD*%
D16*
%TO.P,U1,1,VSS*%
%TO.N,GND*%
X33600000Y15575000D03*
%TO.P,U1,2,COM0/AD*%
%TO.N,/COMMAND*%
X33600000Y14925000D03*
%TO.P,U1,3,COM1/KS0*%
%TO.N,/GR2*%
X33600000Y14275000D03*
%TO.P,U1,4,COM2/KS1*%
%TO.N,/GR3*%
X33600000Y13625000D03*
%TO.P,U1,5,COM3/KS2*%
%TO.N,/GR4*%
X33600000Y12975000D03*
%TO.P,U1,6,COM4*%
%TO.N,/GR5*%
X33600000Y12325000D03*
%TO.P,U1,7,COM5*%
%TO.N,/GR6*%
X33600000Y11675000D03*
%TO.P,U1,8,COM6*%
%TO.N,unconnected-(U1-COM6-Pad8)*%
X33600000Y11025000D03*
%TO.P,U1,9,COM7*%
%TO.N,unconnected-(U1-COM7-Pad9)*%
X33600000Y10375000D03*
%TO.P,U1,10,ROW11/K10/INT*%
%TO.N,unconnected-(U1-ROW11{slash}K10{slash}INT-Pad10)*%
X33600000Y9725000D03*
%TO.P,U1,11,ROW10/K9*%
%TO.N,unconnected-(U1-ROW10{slash}K9-Pad11)*%
X33600000Y9075000D03*
%TO.P,U1,12,ROW9/K8*%
%TO.N,/SEG8*%
X33600000Y8425000D03*
%TO.P,U1,13,ROW8/K7*%
%TO.N,/SEG7*%
X26400000Y8425000D03*
%TO.P,U1,14,ROW7/K6*%
%TO.N,/SEG6*%
X26400000Y9075000D03*
%TO.P,U1,15,ROW6/K5*%
%TO.N,/SEG5*%
X26400000Y9725000D03*
%TO.P,U1,16,ROW5/K4*%
%TO.N,/SEG4*%
X26400000Y10375000D03*
%TO.P,U1,17,ROW4/K3*%
%TO.N,/SEG3*%
X26400000Y11025000D03*
%TO.P,U1,18,ROW3/K2*%
%TO.N,/SEG2*%
X26400000Y11675000D03*
%TO.P,U1,19,ROW2/K1*%
%TO.N,/SEG1*%
X26400000Y12325000D03*
%TO.P,U1,20,ROW1/A0*%
%TO.N,unconnected-(U1-ROW1{slash}A0-Pad20)*%
X26400000Y12975000D03*
%TO.P,U1,21,ROW0/A1*%
%TO.N,unconnected-(U1-ROW0{slash}A1-Pad21)*%
X26400000Y13625000D03*
%TO.P,U1,22,SCL*%
%TO.N,/SCL*%
X26400000Y14275000D03*
%TO.P,U1,23,SDA*%
%TO.N,/SDA*%
X26400000Y14925000D03*
%TO.P,U1,24,VDD*%
%TO.N,VCC*%
X26400000Y15575000D03*
%TD*%
D17*
%TO.P,C1,1*%
%TO.N,VCC*%
X28973500Y34210000D03*
%TO.P,C1,2*%
%TO.N,GND*%
X25848500Y34210000D03*
%TD*%
D18*
%TO.P,C2,1*%
%TO.N,VCC*%
X28448500Y31200000D03*
%TO.P,C2,2*%
%TO.N,GND*%
X26373500Y31200000D03*
%TD*%
D19*
%TO.N,GND*%
X16530000Y26980000D03*
X23150000Y26980000D03*
%TO.N,/SEG8*%
X25506000Y6562000D03*
X45064000Y4530000D03*
X33507000Y6689000D03*
X25506000Y4530000D03*
%TO.N,/SEG7*%
X53319000Y6943000D03*
X56494000Y6943000D03*
X20807000Y6308000D03*
X20807000Y2244000D03*
%TD*%
D20*
%TO.N,GND*%
X26190000Y26980000D02*
X23150000Y26980000D01*
%TO.N,/GR4*%
X33600000Y12975000D02*
X32369400Y12975000D01*
X32369400Y12975000D02*
X32110000Y13234400D01*
X32110000Y13234400D02*
X32110000Y16468000D01*
X32110000Y16468000D02*
X33888000Y18246000D01*
X38333000Y25104000D02*
X38333000Y35772000D01*
X33888000Y18246000D02*
X33888000Y20659000D01*
X33888000Y20659000D02*
X38333000Y25104000D01*
X38333000Y35772000D02*
X35539000Y38566000D01*
X35539000Y38566000D02*
X22077000Y38566000D01*
X22077000Y38566000D02*
X20299000Y36788000D01*
X20299000Y36788000D02*
X20299000Y24215000D01*
X20299000Y24215000D02*
X17632000Y21548000D01*
X17632000Y21548000D02*
X8869000Y21548000D01*
X8869000Y21548000D02*
X7750000Y20429000D01*
X7750000Y20429000D02*
X7750000Y17160000D01*
%TO.N,/GR5*%
X33600000Y12325000D02*
X32232249Y12325000D01*
X22331000Y37931000D02*
X20934000Y36534000D01*
X32232249Y12325000D02*
X31475000Y13082249D01*
X31475000Y13082249D02*
X31475000Y16620152D01*
X17505000Y20532000D02*
X15981000Y20532000D01*
X31475000Y16620152D02*
X33253000Y18398152D01*
X33253000Y18398152D02*
X33253000Y20913000D01*
X33253000Y20913000D02*
X37698000Y25358000D01*
X37698000Y25358000D02*
X37698000Y35518000D01*
X15370000Y19921000D02*
X15370000Y17160000D01*
X37698000Y35518000D02*
X35285000Y37931000D01*
X35285000Y37931000D02*
X22331000Y37931000D01*
X20934000Y36534000D02*
X20934000Y23961000D01*
X20934000Y23961000D02*
X17505000Y20532000D01*
X15981000Y20532000D02*
X15370000Y19921000D01*
%TO.N,/GR6*%
X17910000Y17160000D02*
X17910000Y18397000D01*
X36936000Y35137000D02*
X36936000Y25612000D01*
X17910000Y18397000D02*
X21569000Y22056000D01*
X21569000Y22056000D02*
X21569000Y36280000D01*
X22585000Y37296000D02*
X34777000Y37296000D01*
X34777000Y37296000D02*
X36936000Y35137000D01*
X30918400Y12851698D02*
X32095098Y11675000D01*
X21569000Y36280000D02*
X22585000Y37296000D01*
X36936000Y25612000D02*
X31983000Y20659000D01*
X31983000Y20659000D02*
X31983000Y18246000D01*
X30918400Y17181400D02*
X30918400Y12851698D01*
X31983000Y18246000D02*
X30918400Y17181400D01*
X32095098Y11675000D02*
X33600000Y11675000D01*
%TO.N,GND*%
X25848500Y34210000D02*
X25848500Y33270500D01*
X26373500Y32745500D02*
X26373500Y31200000D01*
X26190000Y26980000D02*
X26190000Y29217000D01*
X26190000Y29217000D02*
X26373500Y29400500D01*
X25848500Y33270500D02*
X26373500Y32745500D01*
X26373500Y29400500D02*
X26373500Y31200000D01*
%TO.N,VCC*%
X31221000Y33380500D02*
X30564500Y33380500D01*
X28730000Y16517000D02*
X28730000Y26980000D01*
X26400000Y15575000D02*
X27788000Y15575000D01*
X28448500Y32618500D02*
X28448500Y31200000D01*
X31221000Y33380500D02*
X33761000Y33380500D01*
X28973500Y33143500D02*
X28448500Y32618500D01*
X28448500Y31200000D02*
X28448500Y27261500D01*
X29735000Y34210000D02*
X28973500Y34210000D01*
X30564500Y33380500D02*
X29735000Y34210000D01*
X27788000Y15575000D02*
X28730000Y16517000D01*
X28448500Y27261500D02*
X28730000Y26980000D01*
X28973500Y34210000D02*
X28973500Y33143500D01*
%TO.N,/SDA*%
X31221000Y27029000D02*
X31270000Y26980000D01*
X31221000Y31305500D02*
X31221000Y27029000D01*
X29570000Y25358000D02*
X31192000Y26980000D01*
X27925151Y14925000D02*
X29570000Y16569849D01*
X29570000Y16569849D02*
X29570000Y25358000D01*
X26400000Y14925000D02*
X27925151Y14925000D01*
X31192000Y26980000D02*
X31270000Y26980000D01*
%TO.N,/SCL*%
X30332000Y16544698D02*
X30332000Y24088000D01*
X32872000Y24723000D02*
X33810000Y25661000D01*
X33810000Y25661000D02*
X33810000Y26980000D01*
X30967000Y24723000D02*
X32872000Y24723000D01*
X28062302Y14275000D02*
X30332000Y16544698D01*
X26400000Y14275000D02*
X28062302Y14275000D01*
X30332000Y24088000D02*
X30967000Y24723000D01*
X33761000Y31305500D02*
X33761000Y27029000D01*
X33761000Y27029000D02*
X33810000Y26980000D01*
%TO.N,/SEG5*%
X29629600Y9169400D02*
X29074000Y9725000D01*
X31374396Y3006000D02*
X29629600Y4750796D01*
X35512604Y3006000D02*
X31374396Y3006000D01*
X40000000Y7000000D02*
X39003697Y6003697D01*
X38510303Y6003697D02*
X35512604Y3006000D01*
X29074000Y9725000D02*
X26400000Y9725000D01*
X7750000Y8745000D02*
X7750000Y7000000D01*
X8730000Y9725000D02*
X7750000Y8745000D01*
X39003697Y6003697D02*
X38510303Y6003697D01*
X29629600Y4750796D02*
X29629600Y9169400D01*
X26400000Y9725000D02*
X8730000Y9725000D01*
%TO.N,/SEG8*%
X45064000Y6984000D02*
X45080000Y7000000D01*
X25506000Y6562000D02*
X25506000Y4530000D01*
X33507000Y8332000D02*
X33600000Y8425000D01*
X16616000Y5292000D02*
X17124000Y4784000D01*
X16362000Y8848000D02*
X16616000Y8594000D01*
X13441000Y8848000D02*
X16362000Y8848000D01*
X12830000Y7000000D02*
X12830000Y8237000D01*
X22077000Y4784000D02*
X23728000Y6435000D01*
X23728000Y6435000D02*
X23855000Y6562000D01*
X33507000Y6689000D02*
X33507000Y8332000D01*
X17124000Y4784000D02*
X22077000Y4784000D01*
X16616000Y8594000D02*
X16616000Y5292000D01*
X45064000Y4530000D02*
X45064000Y6984000D01*
X23855000Y6562000D02*
X25506000Y6562000D01*
X12830000Y8237000D02*
X13441000Y8848000D01*
%TO.N,/SEG7*%
X17910000Y7000000D02*
X20115000Y7000000D01*
X20115000Y7000000D02*
X20807000Y6308000D01*
X18352000Y8425000D02*
X17910000Y7983000D01*
X21158200Y1892800D02*
X54262952Y1892800D01*
X26400000Y8425000D02*
X18352000Y8425000D01*
X53319000Y6943000D02*
X50217000Y6943000D01*
X56494000Y4123848D02*
X56494000Y6943000D01*
X50217000Y6943000D02*
X50160000Y7000000D01*
X20807000Y2244000D02*
X21158200Y1892800D01*
X17910000Y7983000D02*
X17910000Y7000000D01*
X54262952Y1892800D02*
X56494000Y4123848D01*
%TO.N,/SEG6*%
X28173000Y8532600D02*
X27630600Y9075000D01*
X28173000Y3338400D02*
X29062000Y2449400D01*
X5137400Y9840552D02*
X6878449Y11581600D01*
X28173000Y4403000D02*
X28173000Y3338400D01*
X41762000Y15452000D02*
X44556000Y15452000D01*
X45080000Y15976000D02*
X45080000Y17160000D01*
X26649000Y3211400D02*
X6758600Y3211400D01*
X41254000Y15960000D02*
X41762000Y15452000D01*
X26981400Y3211400D02*
X26649000Y3211400D01*
X6878449Y11581600D02*
X11983600Y11581600D01*
X28173000Y4403000D02*
X28173000Y8532600D01*
X27630600Y9075000D02*
X26400000Y9075000D01*
X53192000Y19262000D02*
X41889000Y19262000D01*
X54970000Y3387000D02*
X54970000Y17484000D01*
X41889000Y19262000D02*
X41254000Y18627000D01*
X6758600Y3211400D02*
X5137400Y4832600D01*
X26981400Y3211400D02*
X28173000Y4403000D01*
X41254000Y18627000D02*
X41254000Y15960000D01*
X29062000Y2449400D02*
X54032400Y2449400D01*
X5137400Y4832600D02*
X5137400Y9840552D01*
X11983600Y11581600D02*
X12830000Y12428000D01*
X54032400Y2449400D02*
X54970000Y3387000D01*
X12830000Y12428000D02*
X12830000Y17160000D01*
X44556000Y15452000D02*
X45080000Y15976000D01*
X54970000Y17484000D02*
X53192000Y19262000D01*
%TO.N,/GR3*%
X50160000Y14833000D02*
X50160000Y17160000D01*
X48952000Y13625000D02*
X50160000Y14833000D01*
X33600000Y13625000D02*
X48952000Y13625000D01*
%TO.N,/SEG4*%
X30186200Y4981347D02*
X31545344Y3622202D01*
X29745544Y10375000D02*
X30186200Y9934344D01*
X10290000Y5062000D02*
X10290000Y7000000D01*
X42540000Y9164400D02*
X42540000Y7000000D01*
X35341653Y3622200D02*
X38381599Y6662144D01*
X9758000Y4530000D02*
X10290000Y5062000D01*
X42016000Y9688400D02*
X42540000Y9164400D01*
X26400000Y10375000D02*
X7475000Y10375000D01*
X30186200Y9934344D02*
X30186200Y4981347D01*
X31545344Y3622202D02*
X35341653Y3622200D01*
X6329000Y9229000D02*
X6329000Y5419000D01*
X26400000Y10375000D02*
X29745544Y10375000D01*
X7218000Y4530000D02*
X9758000Y4530000D01*
X38690552Y9688400D02*
X42016000Y9688400D01*
X38381599Y6662144D02*
X38381600Y9379448D01*
X38381600Y9379448D02*
X38690552Y9688400D01*
X7475000Y10375000D02*
X6329000Y9229000D01*
X6329000Y5419000D02*
X7218000Y4530000D01*
%TO.N,/GR2*%
X47620000Y14960000D02*
X47620000Y17160000D01*
X33600000Y14275000D02*
X46935000Y14275000D01*
X46935000Y14275000D02*
X47620000Y14960000D01*
%TO.N,/SEG1*%
X13470900Y18881000D02*
X14076000Y18275900D01*
X10290000Y17160000D02*
X10290000Y18270000D01*
X32237000Y5292000D02*
X34650000Y5292000D01*
X51414000Y17573075D02*
X50360075Y18627000D01*
X36428000Y11134000D02*
X38206000Y12912000D01*
X14076000Y15452000D02*
X14584000Y14944000D01*
X23045000Y12325000D02*
X26400000Y12325000D01*
X14076000Y18275900D02*
X14076000Y15452000D01*
X18902000Y14944000D02*
X19156000Y15198000D01*
X44007000Y18627000D02*
X42540000Y17160000D01*
X19156000Y18246000D02*
X19283000Y18373000D01*
X19283000Y18373000D02*
X21950000Y18373000D01*
X51541000Y15960000D02*
X51414000Y16087000D01*
X34650000Y5292000D02*
X36428000Y7070000D01*
X51541000Y15426849D02*
X51541000Y15960000D01*
X10901000Y18881000D02*
X13470900Y18881000D01*
X36428000Y7070000D02*
X36428000Y11134000D01*
X38206000Y12912000D02*
X49026151Y12912000D01*
X19156000Y15198000D02*
X19156000Y18246000D01*
X22331000Y17992000D02*
X22331000Y13039000D01*
X22331000Y13039000D02*
X23045000Y12325000D01*
X10290000Y18270000D02*
X10901000Y18881000D01*
X50360075Y18627000D02*
X44007000Y18627000D01*
X51414000Y16087000D02*
X51414000Y17573075D01*
X31856000Y5673000D02*
X32237000Y5292000D01*
X31856000Y10626000D02*
X31856000Y5673000D01*
X14584000Y14944000D02*
X18902000Y14944000D01*
X49026151Y12912000D02*
X51541000Y15426849D01*
X21950000Y18373000D02*
X22331000Y17992000D01*
X30157000Y12325000D02*
X31856000Y10626000D01*
X26400000Y12325000D02*
X30157000Y12325000D01*
%TO.N,/COMMAND*%
X39330000Y14925000D02*
X40000000Y15595000D01*
X40000000Y15595000D02*
X40000000Y17160000D01*
X33600000Y14925000D02*
X39330000Y14925000D01*
%TO.N,/SEG3*%
X26400000Y11025000D02*
X7109000Y11025000D01*
X7109000Y11025000D02*
X5694000Y9610000D01*
X15370000Y4681000D02*
X15370000Y7000000D01*
X46715000Y10245000D02*
X38460000Y10245000D01*
X30742800Y5211898D02*
X30742800Y10164896D01*
X35111102Y4178800D02*
X31775896Y4178801D01*
X37825000Y9610000D02*
X37825000Y6892696D01*
X7192849Y3768000D02*
X14457000Y3768000D01*
X5694000Y5266849D02*
X7192849Y3768000D01*
X47620000Y9340000D02*
X46715000Y10245000D01*
X37825000Y6892696D02*
X35111102Y4178800D01*
X29882696Y11025000D02*
X26400000Y11025000D01*
X30742800Y10164896D02*
X29882696Y11025000D01*
X14457000Y3768000D02*
X15370000Y4681000D01*
X31775896Y4178801D02*
X30742800Y5211898D01*
X38460000Y10245000D02*
X37825000Y9610000D01*
X47620000Y7000000D02*
X47620000Y9340000D01*
X5694000Y9610000D02*
X5694000Y5266849D01*
%TO.N,/SEG2*%
X32006448Y4735400D02*
X34880551Y4735400D01*
X20450000Y12380000D02*
X21155000Y11675000D01*
X49256702Y12355400D02*
X52700000Y15798698D01*
X34880551Y4735400D02*
X37012076Y6866924D01*
X26400000Y11675000D02*
X30019848Y11675000D01*
X37012076Y10930924D02*
X38436552Y12355400D01*
X20450000Y17160000D02*
X20450000Y12380000D01*
X52700000Y15798698D02*
X52700000Y17160000D01*
X21155000Y11675000D02*
X26400000Y11675000D01*
X30019848Y11675000D02*
X31299400Y10395448D01*
X37012076Y6866924D02*
X37012076Y10930924D01*
X31299400Y5442449D02*
X32006448Y4735400D01*
X31299400Y10395448D02*
X31299400Y5442449D01*
X38436552Y12355400D02*
X49256702Y12355400D01*
%TD*%
%TA.AperFunction,Conductor*%
%TO.N,GND*%
G36*
X48961445Y6456135D02*
G01*
X49000483Y6411083D01*
X49002798Y6406541D01*
X49047715Y6318386D01*
X49168028Y6152787D01*
X49312786Y6008029D01*
X49446584Y5910821D01*
X49478390Y5887713D01*
X49583625Y5834093D01*
X49660776Y5794782D01*
X49660778Y5794782D01*
X49660781Y5794780D01*
X49722427Y5774750D01*
X49855465Y5731523D01*
X49913823Y5722280D01*
X50057648Y5699500D01*
X50057649Y5699500D01*
X50262351Y5699500D01*
X50262352Y5699500D01*
X50464534Y5731523D01*
X50659219Y5794780D01*
X50841610Y5887713D01*
X50969938Y5980948D01*
X51007213Y6008029D01*
X51007215Y6008032D01*
X51007219Y6008034D01*
X51151966Y6152781D01*
X51196142Y6213585D01*
X51251471Y6256251D01*
X51296460Y6264700D01*
X52531017Y6264700D01*
X52598056Y6245015D01*
X52618693Y6228386D01*
X52681215Y6165864D01*
X52681219Y6165860D01*
X52845079Y6056372D01*
X52845092Y6056365D01*
X53027160Y5980951D01*
X53027165Y5980949D01*
X53027169Y5980949D01*
X53027170Y5980948D01*
X53220456Y5942500D01*
X53220459Y5942500D01*
X53417543Y5942500D01*
X53557299Y5970300D01*
X53610835Y5980949D01*
X53792914Y6056368D01*
X53956782Y6165861D01*
X54012977Y6222056D01*
X54080019Y6289097D01*
X54141342Y6322582D01*
X54211034Y6317598D01*
X54266967Y6275726D01*
X54291384Y6210262D01*
X54291700Y6201416D01*
X54291700Y3719323D01*
X54272015Y3652284D01*
X54255381Y3631642D01*
X53787758Y3164019D01*
X53726435Y3130534D01*
X53700077Y3127700D01*
X36892927Y3127700D01*
X36825888Y3147385D01*
X36780133Y3200189D01*
X36770189Y3269347D01*
X36799214Y3332903D01*
X36805246Y3339381D01*
X37157318Y3691452D01*
X38754945Y5289078D01*
X38816268Y5322563D01*
X38842626Y5325397D01*
X39070505Y5325397D01*
X39070506Y5325398D01*
X39201550Y5351463D01*
X39288871Y5387633D01*
X39324993Y5402595D01*
X39436088Y5476827D01*
X39530567Y5571306D01*
X39646749Y5687490D01*
X39708070Y5720973D01*
X39753823Y5722280D01*
X39897648Y5699500D01*
X39897650Y5699500D01*
X40102351Y5699500D01*
X40102352Y5699500D01*
X40304534Y5731523D01*
X40499219Y5794780D01*
X40681610Y5887713D01*
X40809938Y5980948D01*
X40847213Y6008029D01*
X40847215Y6008032D01*
X40847219Y6008034D01*
X40991966Y6152781D01*
X40991968Y6152785D01*
X40991971Y6152787D01*
X41102717Y6305218D01*
X41112287Y6318390D01*
X41159516Y6411083D01*
X41207489Y6461877D01*
X41275310Y6478672D01*
X41341445Y6456135D01*
X41380483Y6411083D01*
X41382798Y6406541D01*
X41427715Y6318386D01*
X41548028Y6152787D01*
X41692786Y6008029D01*
X41826584Y5910821D01*
X41858390Y5887713D01*
X41963625Y5834093D01*
X42040776Y5794782D01*
X42040778Y5794782D01*
X42040781Y5794780D01*
X42102427Y5774750D01*
X42235465Y5731523D01*
X42293823Y5722280D01*
X42437648Y5699500D01*
X42437649Y5699500D01*
X42642351Y5699500D01*
X42642352Y5699500D01*
X42844534Y5731523D01*
X43039219Y5794780D01*
X43221610Y5887713D01*
X43349938Y5980948D01*
X43387213Y6008029D01*
X43387215Y6008032D01*
X43387219Y6008034D01*
X43531966Y6152781D01*
X43531968Y6152785D01*
X43531971Y6152787D01*
X43642717Y6305218D01*
X43652287Y6318390D01*
X43699516Y6411083D01*
X43747489Y6461877D01*
X43815310Y6478672D01*
X43881445Y6456135D01*
X43920483Y6411083D01*
X43922798Y6406541D01*
X43967715Y6318386D01*
X44088028Y6152787D01*
X44232784Y6008031D01*
X44270062Y5980948D01*
X44334584Y5934071D01*
X44377251Y5878742D01*
X44385700Y5833752D01*
X44385700Y5317984D01*
X44366015Y5250945D01*
X44349381Y5230303D01*
X44286863Y5167786D01*
X44286860Y5167782D01*
X44177371Y5003921D01*
X44177364Y5003908D01*
X44101950Y4821840D01*
X44101947Y4821830D01*
X44063500Y4628544D01*
X44063500Y4628541D01*
X44063500Y4431459D01*
X44063500Y4431457D01*
X44063499Y4431457D01*
X44101947Y4238171D01*
X44101950Y4238161D01*
X44177364Y4056093D01*
X44177371Y4056080D01*
X44286860Y3892219D01*
X44286863Y3892215D01*
X44426214Y3752864D01*
X44426218Y3752861D01*
X44590079Y3643372D01*
X44590092Y3643365D01*
X44648044Y3619361D01*
X44772165Y3567949D01*
X44772169Y3567949D01*
X44772170Y3567948D01*
X44965456Y3529500D01*
X44965459Y3529500D01*
X45162543Y3529500D01*
X45292582Y3555368D01*
X45355835Y3567949D01*
X45537914Y3643368D01*
X45701782Y3752861D01*
X45841139Y3892218D01*
X45950632Y4056086D01*
X46026051Y4238165D01*
X46050227Y4359704D01*
X46064500Y4431457D01*
X46064500Y4628544D01*
X46026052Y4821830D01*
X46026051Y4821831D01*
X46026051Y4821835D01*
X45974503Y4946284D01*
X45950635Y5003908D01*
X45950628Y5003921D01*
X45841139Y5167782D01*
X45841136Y5167786D01*
X45778619Y5230303D01*
X45745134Y5291626D01*
X45742300Y5317984D01*
X45742300Y5810502D01*
X45761985Y5877541D01*
X45793413Y5910820D01*
X45927219Y6008034D01*
X46071966Y6152781D01*
X46071968Y6152785D01*
X46071971Y6152787D01*
X46182717Y6305218D01*
X46192287Y6318390D01*
X46239516Y6411083D01*
X46287489Y6461877D01*
X46355310Y6478672D01*
X46421445Y6456135D01*
X46460483Y6411083D01*
X46462798Y6406541D01*
X46507715Y6318386D01*
X46628028Y6152787D01*
X46772786Y6008029D01*
X46906584Y5910821D01*
X46938390Y5887713D01*
X47043625Y5834093D01*
X47120776Y5794782D01*
X47120778Y5794782D01*
X47120781Y5794780D01*
X47182427Y5774750D01*
X47315465Y5731523D01*
X47373823Y5722280D01*
X47517648Y5699500D01*
X47517649Y5699500D01*
X47722351Y5699500D01*
X47722352Y5699500D01*
X47924534Y5731523D01*
X48119219Y5794780D01*
X48301610Y5887713D01*
X48429938Y5980948D01*
X48467213Y6008029D01*
X48467215Y6008032D01*
X48467219Y6008034D01*
X48611966Y6152781D01*
X48611968Y6152785D01*
X48611971Y6152787D01*
X48722717Y6305218D01*
X48732287Y6318390D01*
X48779516Y6411083D01*
X48827489Y6461877D01*
X48895310Y6478672D01*
X48961445Y6456135D01*
G37*
%TD.AperFunction*%
%TA.AperFunction,Conductor*%
G36*
X13713503Y14854790D02*
G01*
X13719981Y14848758D01*
X14057130Y14511609D01*
X14108644Y14460095D01*
X14151610Y14417129D01*
X14262699Y14342901D01*
X14262700Y14342901D01*
X14262704Y14342898D01*
X14308573Y14323899D01*
X14308574Y14323898D01*
X14324402Y14317342D01*
X14386147Y14291766D01*
X14517188Y14265701D01*
X14517192Y14265700D01*
X14517193Y14265700D01*
X18968808Y14265700D01*
X18968809Y14265701D01*
X19099853Y14291766D01*
X19187140Y14327922D01*
X19223296Y14342898D01*
X19334391Y14417130D01*
X19428870Y14511609D01*
X19560019Y14642758D01*
X19621342Y14676243D01*
X19691034Y14671259D01*
X19746967Y14629387D01*
X19771384Y14563923D01*
X19771700Y14555077D01*
X19771700Y12313189D01*
X19797764Y12182155D01*
X19797766Y12182147D01*
X19826325Y12113199D01*
X19826327Y12113195D01*
X19829016Y12106704D01*
X19848898Y12058704D01*
X19890598Y11996296D01*
X19893466Y11992004D01*
X19893467Y11992002D01*
X19923129Y11947610D01*
X19923132Y11947606D01*
X19955757Y11914981D01*
X19989242Y11853658D01*
X19984258Y11783966D01*
X19942386Y11728033D01*
X19876922Y11703616D01*
X19868076Y11703300D01*
X13363924Y11703300D01*
X13296885Y11722985D01*
X13251130Y11775789D01*
X13241186Y11844947D01*
X13270211Y11908503D01*
X13276243Y11914981D01*
X13356864Y11995602D01*
X13356872Y11995612D01*
X13359804Y12000000D01*
X13369152Y12013990D01*
X13431102Y12106704D01*
X13462581Y12182702D01*
X13482234Y12230147D01*
X13508300Y12361193D01*
X13508300Y12494806D01*
X13508300Y14761077D01*
X13527985Y14828116D01*
X13580789Y14873871D01*
X13649947Y14883815D01*
X13713503Y14854790D01*
G37*
%TD.AperFunction*%
%TA.AperFunction,Conductor*%
G36*
X34511716Y36598015D02*
G01*
X34532358Y36581381D01*
X36221381Y34892358D01*
X36254866Y34831035D01*
X36257700Y34804677D01*
X36257700Y25944323D01*
X36238015Y25877284D01*
X36221381Y25856642D01*
X31550609Y21185870D01*
X31503368Y21138630D01*
X31456128Y21091390D01*
X31381898Y20980297D01*
X31381898Y20980296D01*
X31375310Y20964391D01*
X31330766Y20856854D01*
X31330764Y20856846D01*
X31309570Y20750299D01*
X31309571Y20750298D01*
X31304700Y20725808D01*
X31304700Y18578323D01*
X31296055Y18548883D01*
X31289532Y18518896D01*
X31285777Y18513881D01*
X31285015Y18511284D01*
X31268381Y18490642D01*
X31221981Y18444242D01*
X31160658Y18410757D01*
X31090966Y18415741D01*
X31035033Y18457613D01*
X31010616Y18523077D01*
X31010300Y18531923D01*
X31010300Y23755677D01*
X31029985Y23822716D01*
X31046619Y23843358D01*
X31211642Y24008381D01*
X31272965Y24041866D01*
X31299323Y24044700D01*
X32938808Y24044700D01*
X32938809Y24044701D01*
X33069853Y24070766D01*
X33157140Y24106922D01*
X33193296Y24121898D01*
X33304391Y24196130D01*
X33398870Y24290609D01*
X34336870Y25228609D01*
X34351076Y25249870D01*
X34411102Y25339704D01*
X34434211Y25395495D01*
X34443635Y25418245D01*
X34457055Y25450644D01*
X34462234Y25463147D01*
X34469594Y25500156D01*
X34501978Y25562066D01*
X34526425Y25581695D01*
X34528291Y25582840D01*
X34528299Y25582843D01*
X34702821Y25709641D01*
X34855359Y25862179D01*
X34982157Y26036701D01*
X35080092Y26228911D01*
X35146754Y26434074D01*
X35161752Y26528770D01*
X35180500Y26647134D01*
X35180500Y27312867D01*
X35146754Y27525923D01*
X35146754Y27525926D01*
X35080092Y27731089D01*
X34982157Y27923299D01*
X34855359Y28097821D01*
X34702821Y28250359D01*
X34528299Y28377157D01*
X34528298Y28377158D01*
X34528296Y28377159D01*
X34507004Y28388008D01*
X34456209Y28435983D01*
X34439300Y28498492D01*
X34439300Y30155196D01*
X34458985Y30222235D01*
X34511789Y30267990D01*
X34524293Y30272901D01*
X34555334Y30283186D01*
X34704656Y30375288D01*
X34828712Y30499344D01*
X34920814Y30648666D01*
X34975999Y30815203D01*
X34986500Y30917991D01*
X34986499Y31693008D01*
X34975999Y31795797D01*
X34920814Y31962334D01*
X34828712Y32111656D01*
X34704656Y32235712D01*
X34701819Y32237462D01*
X34700283Y32239170D01*
X34698989Y32240193D01*
X34699163Y32240415D01*
X34655096Y32289406D01*
X34643872Y32358368D01*
X34671713Y32422451D01*
X34701817Y32448538D01*
X34704656Y32450288D01*
X34828712Y32574344D01*
X34920814Y32723666D01*
X34975999Y32890203D01*
X34986500Y32992991D01*
X34986499Y33768008D01*
X34975999Y33870797D01*
X34920814Y34037334D01*
X34828712Y34186656D01*
X34704656Y34310712D01*
X34555334Y34402814D01*
X34388797Y34457999D01*
X34388795Y34458000D01*
X34286010Y34468500D01*
X33235998Y34468500D01*
X33235980Y34468499D01*
X33133203Y34458000D01*
X33133200Y34457999D01*
X32966668Y34402815D01*
X32966663Y34402813D01*
X32817342Y34310711D01*
X32693289Y34186658D01*
X32650758Y34117703D01*
X32643170Y34110879D01*
X32638932Y34101597D01*
X32617632Y34087909D01*
X32598810Y34070979D01*
X32587174Y34068335D01*
X32580154Y34063823D01*
X32545219Y34058800D01*
X32436781Y34058800D01*
X32369742Y34078485D01*
X32331242Y34117703D01*
X32288712Y34186656D01*
X32164656Y34310712D01*
X32015334Y34402814D01*
X31848797Y34457999D01*
X31848795Y34458000D01*
X31746010Y34468500D01*
X30695998Y34468500D01*
X30695980Y34468499D01*
X30593203Y34458000D01*
X30593196Y34457998D01*
X30555435Y34445485D01*
X30485606Y34443084D01*
X30428751Y34475510D01*
X30172818Y34731443D01*
X30139333Y34792766D01*
X30136499Y34819124D01*
X30136499Y34910002D01*
X30136498Y34910019D01*
X30125999Y35012797D01*
X30125998Y35012800D01*
X30070814Y35179334D01*
X29978712Y35328656D01*
X29854656Y35452712D01*
X29705334Y35544814D01*
X29538797Y35599999D01*
X29538795Y35600000D01*
X29436010Y35610500D01*
X28510998Y35610500D01*
X28510980Y35610499D01*
X28408203Y35600000D01*
X28408200Y35599999D01*
X28241668Y35544815D01*
X28241663Y35544813D01*
X28092342Y35452711D01*
X27968289Y35328658D01*
X27876187Y35179337D01*
X27876185Y35179332D01*
X27876115Y35179120D01*
X27821001Y35012797D01*
X27821001Y35012796D01*
X27821000Y35012796D01*
X27810500Y34910017D01*
X27810500Y33509999D01*
X27810501Y33509982D01*
X27821000Y33407204D01*
X27821001Y33407201D01*
X27876115Y33240881D01*
X27876186Y33240666D01*
X27876190Y33240660D01*
X27917061Y33174395D01*
X27921376Y33158623D01*
X27930295Y33144920D01*
X27930406Y33125621D01*
X27935501Y33107002D01*
X27930608Y33090724D01*
X27930699Y33075052D01*
X27917067Y33045674D01*
X27916223Y33042863D01*
X27915415Y33041591D01*
X27847398Y32939796D01*
X27847398Y32939795D01*
X27840960Y32924254D01*
X27840957Y32924248D01*
X27796266Y32816354D01*
X27796264Y32816346D01*
X27778744Y32728270D01*
X27778745Y32728269D01*
X27770200Y32685307D01*
X27770200Y32415782D01*
X27750515Y32348743D01*
X27711298Y32310244D01*
X27642344Y32267713D01*
X27518288Y32143657D01*
X27518283Y32143651D01*
X27516241Y32140339D01*
X27514247Y32138547D01*
X27513807Y32137989D01*
X27513711Y32138065D01*
X27464291Y32093617D01*
X27395328Y32082398D01*
X27331247Y32110245D01*
X27305168Y32140344D01*
X27303319Y32143341D01*
X27303316Y32143345D01*
X27179345Y32267316D01*
X27030124Y32359357D01*
X27030119Y32359359D01*
X26863697Y32414506D01*
X26863690Y32414507D01*
X26760986Y32425000D01*
X26623500Y32425000D01*
X26623500Y29975001D01*
X26760972Y29975001D01*
X26760986Y29975002D01*
X26863697Y29985495D01*
X27030119Y30040642D01*
X27030124Y30040644D01*
X27179345Y30132685D01*
X27303318Y30256658D01*
X27305165Y30259652D01*
X27306969Y30261276D01*
X27307798Y30262323D01*
X27307976Y30262182D01*
X27357110Y30306379D01*
X27426073Y30317604D01*
X27490156Y30289764D01*
X27516243Y30259659D01*
X27518288Y30256344D01*
X27642344Y30132288D01*
X27711296Y30089759D01*
X27758021Y30037812D01*
X27770200Y29984220D01*
X27770200Y28234742D01*
X27761554Y28205298D01*
X27755031Y28175314D01*
X27751277Y28170301D01*
X27750515Y28167703D01*
X27733880Y28147060D01*
X27694815Y28107996D01*
X27633492Y28074511D01*
X27563800Y28079497D01*
X27507867Y28121369D01*
X27494748Y28143284D01*
X27494356Y28144124D01*
X27402315Y28293346D01*
X27278345Y28417316D01*
X27129124Y28509357D01*
X27129119Y28509359D01*
X26962697Y28564506D01*
X26962690Y28564507D01*
X26859986Y28575000D01*
X26440000Y28575000D01*
X26440000Y27522710D01*
X26419661Y27534452D01*
X26268333Y27575000D01*
X26111667Y27575000D01*
X25960339Y27534452D01*
X25940000Y27522710D01*
X25940000Y28575000D01*
X25520028Y28575000D01*
X25520012Y28574999D01*
X25417302Y28564506D01*
X25250880Y28509359D01*
X25250875Y28509357D01*
X25101654Y28417316D01*
X24977684Y28293346D01*
X24885643Y28144125D01*
X24885641Y28144120D01*
X24830494Y27977698D01*
X24830493Y27977691D01*
X24820000Y27874987D01*
X24820000Y27230000D01*
X25647291Y27230000D01*
X25635548Y27209661D01*
X25595000Y27058333D01*
X25595000Y26901667D01*
X25635548Y26750339D01*
X25647291Y26730000D01*
X24820001Y26730000D01*
X24820001Y26085014D01*
X24830494Y25982303D01*
X24885641Y25815881D01*
X24885643Y25815876D01*
X24977684Y25666655D01*
X25101654Y25542685D01*
X25250875Y25450644D01*
X25250880Y25450642D01*
X25417302Y25395495D01*
X25417309Y25395494D01*
X25520019Y25385001D01*
X25939999Y25385001D01*
X25940000Y25385002D01*
X25940000Y26437291D01*
X25960339Y26425548D01*
X26111667Y26385000D01*
X26268333Y26385000D01*
X26419661Y26425548D01*
X26440000Y26437291D01*
X26440000Y25385001D01*
X26859972Y25385001D01*
X26859986Y25385002D01*
X26962697Y25395495D01*
X27129119Y25450642D01*
X27129124Y25450644D01*
X27278345Y25542685D01*
X27402315Y25666655D01*
X27494354Y25815873D01*
X27494745Y25816711D01*
X27495167Y25817191D01*
X27498149Y25822025D01*
X27498974Y25821516D01*
X27540910Y25869157D01*
X27608100Y25888319D01*
X27674984Y25868113D01*
X27694816Y25852004D01*
X27837179Y25709641D01*
X28000586Y25590918D01*
X28043251Y25535589D01*
X28051700Y25490601D01*
X28051700Y16849323D01*
X28032015Y16782284D01*
X28015381Y16761642D01*
X27559261Y16305523D01*
X27497938Y16272038D01*
X27428247Y16277022D01*
X27398886Y16287973D01*
X27382481Y16294092D01*
X27322883Y16300499D01*
X27322881Y16300500D01*
X27322873Y16300500D01*
X27322864Y16300500D01*
X25477129Y16300500D01*
X25477123Y16300499D01*
X25417516Y16294092D01*
X25282671Y16243798D01*
X25282664Y16243794D01*
X25167455Y16157548D01*
X25167452Y16157545D01*
X25081206Y16042336D01*
X25081202Y16042329D01*
X25031546Y15909192D01*
X25030909Y15907483D01*
X25024500Y15847873D01*
X25024500Y15847866D01*
X25024500Y15847865D01*
X25024500Y15302131D01*
X25024501Y15302122D01*
X25028679Y15263255D01*
X25028679Y15236750D01*
X25024500Y15197878D01*
X25024500Y14652131D01*
X25024501Y14652122D01*
X25028679Y14613255D01*
X25028679Y14586750D01*
X25024500Y14547878D01*
X25024500Y14002131D01*
X25024501Y14002122D01*
X25028679Y13963255D01*
X25028679Y13936750D01*
X25024500Y13897878D01*
X25024500Y13352131D01*
X25024501Y13352122D01*
X25028679Y13313255D01*
X25029339Y13296494D01*
X25029200Y13291595D01*
X25024500Y13247873D01*
X25024500Y13125558D01*
X25024450Y13123791D01*
X25014180Y13092157D01*
X25004815Y13060261D01*
X25003439Y13059070D01*
X25002877Y13057336D01*
X24977124Y13036268D01*
X24952011Y13014506D01*
X24949988Y13014066D01*
X24948799Y13013093D01*
X24941834Y13012293D01*
X24900500Y13003300D01*
X23377323Y13003300D01*
X23310284Y13022985D01*
X23289642Y13039619D01*
X23045619Y13283642D01*
X23012134Y13344965D01*
X23009300Y13371323D01*
X23009300Y18058804D01*
X23009300Y18058807D01*
X23008963Y18060500D01*
X22983234Y18189853D01*
X22961160Y18243143D01*
X22949088Y18272288D01*
X22933489Y18309947D01*
X22932102Y18313296D01*
X22932101Y18313298D01*
X22932100Y18313300D01*
X22857871Y18424390D01*
X22814408Y18467853D01*
X22763391Y18518870D01*
X22573970Y18708291D01*
X22382394Y18899868D01*
X22382390Y18899871D01*
X22271295Y18974103D01*
X22235141Y18989079D01*
X22235140Y18989079D01*
X22147853Y19025234D01*
X22147845Y19025236D01*
X22147844Y19025236D01*
X22016811Y19051300D01*
X22016807Y19051300D01*
X19822923Y19051300D01*
X19755884Y19070985D01*
X19710129Y19123789D01*
X19700185Y19192947D01*
X19729210Y19256503D01*
X19735242Y19262981D01*
X22095867Y21623606D01*
X22095870Y21623609D01*
X22170102Y21734704D01*
X22200053Y21807016D01*
X22221234Y21858147D01*
X22247300Y21989193D01*
X22247300Y22122806D01*
X22247300Y30675014D01*
X25286001Y30675014D01*
X25296494Y30572303D01*
X25351641Y30405881D01*
X25351643Y30405876D01*
X25443684Y30256655D01*
X25567654Y30132685D01*
X25716875Y30040644D01*
X25716880Y30040642D01*
X25883302Y29985495D01*
X25883309Y29985494D01*
X25986019Y29975001D01*
X26123499Y29975001D01*
X26123500Y29975002D01*
X26123500Y30950000D01*
X25286001Y30950000D01*
X25286001Y30675014D01*
X22247300Y30675014D01*
X22247300Y31724987D01*
X25286000Y31724987D01*
X25286000Y31450000D01*
X26123500Y31450000D01*
X26123500Y32425000D01*
X25986027Y32425000D01*
X25986012Y32424999D01*
X25883302Y32414506D01*
X25716880Y32359359D01*
X25716875Y32359357D01*
X25567654Y32267316D01*
X25443684Y32143346D01*
X25351643Y31994125D01*
X25351641Y31994120D01*
X25296494Y31827698D01*
X25296493Y31827691D01*
X25286000Y31724987D01*
X22247300Y31724987D01*
X22247300Y33510014D01*
X24686001Y33510014D01*
X24696494Y33407303D01*
X24751641Y33240881D01*
X24751643Y33240876D01*
X24843684Y33091655D01*
X24967654Y32967685D01*
X25116875Y32875644D01*
X25116880Y32875642D01*
X25283302Y32820495D01*
X25283309Y32820494D01*
X25386019Y32810001D01*
X25598499Y32810001D01*
X26098500Y32810001D01*
X26310972Y32810001D01*
X26310986Y32810002D01*
X26413697Y32820495D01*
X26580119Y32875642D01*
X26580124Y32875644D01*
X26729345Y32967685D01*
X26853315Y33091655D01*
X26945356Y33240876D01*
X26945358Y33240881D01*
X27000505Y33407303D01*
X27000506Y33407310D01*
X27010999Y33510014D01*
X27011000Y33510027D01*
X27011000Y33960000D01*
X26098500Y33960000D01*
X26098500Y32810001D01*
X25598499Y32810001D01*
X25598500Y32810002D01*
X25598500Y33960000D01*
X24686001Y33960000D01*
X24686001Y33510014D01*
X22247300Y33510014D01*
X22247300Y34909987D01*
X24686000Y34909987D01*
X24686000Y34460000D01*
X25598500Y34460000D01*
X26098500Y34460000D01*
X27010999Y34460000D01*
X27010999Y34909972D01*
X27010998Y34909987D01*
X27000505Y35012698D01*
X26945358Y35179120D01*
X26945356Y35179125D01*
X26853315Y35328346D01*
X26729345Y35452316D01*
X26580124Y35544357D01*
X26580119Y35544359D01*
X26413697Y35599506D01*
X26413690Y35599507D01*
X26310986Y35610000D01*
X26098500Y35610000D01*
X26098500Y34460000D01*
X25598500Y34460000D01*
X25598500Y35610000D01*
X25386029Y35610000D01*
X25386012Y35609999D01*
X25283302Y35599506D01*
X25116880Y35544359D01*
X25116875Y35544357D01*
X24967654Y35452316D01*
X24843684Y35328346D01*
X24751643Y35179125D01*
X24751641Y35179120D01*
X24696494Y35012698D01*
X24696493Y35012691D01*
X24686000Y34909987D01*
X22247300Y34909987D01*
X22247300Y35947677D01*
X22266985Y36014716D01*
X22283619Y36035358D01*
X22829642Y36581381D01*
X22890965Y36614866D01*
X22917323Y36617700D01*
X34444677Y36617700D01*
X34511716Y36598015D01*
G37*
%TD.AperFunction*%
%TA.AperFunction,Conductor*%
G36*
X15127116Y20850015D02*
G01*
X15172871Y20797211D01*
X15182815Y20728053D01*
X15153790Y20664497D01*
X15147758Y20658019D01*
X14937609Y20447870D01*
X14904097Y20414358D01*
X14843128Y20353390D01*
X14768899Y20242299D01*
X14768898Y20242297D01*
X14757675Y20215204D01*
X14757669Y20215188D01*
X14755813Y20210705D01*
X14717766Y20118853D01*
X14705642Y20057898D01*
X14704216Y20050730D01*
X14704212Y20050717D01*
X14691700Y19987812D01*
X14691700Y18918824D01*
X14672015Y18851785D01*
X14619211Y18806030D01*
X14550053Y18796086D01*
X14486497Y18825111D01*
X14480019Y18831143D01*
X13903294Y19407868D01*
X13903290Y19407871D01*
X13792195Y19482103D01*
X13756041Y19497079D01*
X13756040Y19497079D01*
X13668753Y19533234D01*
X13668745Y19533236D01*
X13668744Y19533236D01*
X13537711Y19559300D01*
X13537707Y19559300D01*
X10967806Y19559300D01*
X10834193Y19559300D01*
X10834188Y19559300D01*
X10703155Y19533236D01*
X10703143Y19533233D01*
X10641424Y19507669D01*
X10641425Y19507668D01*
X10579706Y19482104D01*
X10468609Y19407871D01*
X10468605Y19407868D01*
X10009038Y18948299D01*
X9857609Y18796870D01*
X9810368Y18749630D01*
X9763128Y18702390D01*
X9688896Y18591294D01*
X9688895Y18591292D01*
X9681261Y18572860D01*
X9681259Y18572855D01*
X9678957Y18567296D01*
X9637766Y18467853D01*
X9617352Y18365220D01*
X9616149Y18359177D01*
X9616146Y18359164D01*
X9611699Y18336810D01*
X9611103Y18330747D01*
X9609649Y18330891D01*
X9592015Y18270835D01*
X9560585Y18237556D01*
X9442787Y18151972D01*
X9442782Y18151968D01*
X9298028Y18007214D01*
X9177715Y17841614D01*
X9130485Y17748920D01*
X9082510Y17698124D01*
X9014689Y17681329D01*
X8948554Y17703866D01*
X8909515Y17748920D01*
X8892404Y17782502D01*
X8862287Y17841610D01*
X8807956Y17916391D01*
X8741971Y18007214D01*
X8597217Y18151968D01*
X8597212Y18151972D01*
X8479415Y18237556D01*
X8436749Y18292885D01*
X8428300Y18337874D01*
X8428300Y20096677D01*
X8447985Y20163716D01*
X8464619Y20184358D01*
X9113642Y20833381D01*
X9174965Y20866866D01*
X9201323Y20869700D01*
X15060077Y20869700D01*
X15127116Y20850015D01*
G37*
%TD.AperFunction*%
%TA.AperFunction,Conductor*%
G36*
X59442539Y39479815D02*
G01*
X59488294Y39427011D01*
X59499500Y39375500D01*
X59499500Y624500D01*
X59479815Y557461D01*
X59427011Y511706D01*
X59375500Y500500D01*
X624500Y500500D01*
X557461Y520185D01*
X511706Y572989D01*
X500500Y624500D01*
X500500Y9907359D01*
X4459100Y9907359D01*
X4459100Y9902658D01*
X4459100Y4765789D01*
X4485164Y4634755D01*
X4485166Y4634747D01*
X4519051Y4552942D01*
X4536298Y4511304D01*
X4536299Y4511302D01*
X4610529Y4400210D01*
X4610532Y4400206D01*
X6231730Y2779009D01*
X6326209Y2684530D01*
X6437304Y2610298D01*
X6473459Y2595322D01*
X6560747Y2559166D01*
X6691788Y2533101D01*
X6691792Y2533100D01*
X6691793Y2533100D01*
X6825407Y2533100D01*
X19693310Y2533100D01*
X19760349Y2513415D01*
X19806104Y2460611D01*
X19816048Y2391453D01*
X19814927Y2384908D01*
X19806500Y2342544D01*
X19806500Y2342541D01*
X19806500Y2145459D01*
X19806500Y2145457D01*
X19806499Y2145457D01*
X19844947Y1952171D01*
X19844950Y1952161D01*
X19920364Y1770093D01*
X19920371Y1770080D01*
X20029860Y1606219D01*
X20029863Y1606215D01*
X20169214Y1466864D01*
X20169218Y1466861D01*
X20333079Y1357372D01*
X20333092Y1357365D01*
X20515160Y1281951D01*
X20515165Y1281949D01*
X20515169Y1281949D01*
X20515170Y1281948D01*
X20708456Y1243500D01*
X20708459Y1243500D01*
X20905541Y1243500D01*
X20911599Y1244097D01*
X20911766Y1242394D01*
X20954085Y1240317D01*
X20954372Y1241754D01*
X21091388Y1214501D01*
X21091392Y1214500D01*
X21091393Y1214500D01*
X54329760Y1214500D01*
X54329761Y1214501D01*
X54460805Y1240566D01*
X54560711Y1281949D01*
X54584248Y1291698D01*
X54695343Y1365930D01*
X54789822Y1460409D01*
X57020870Y3691457D01*
X57029767Y3704773D01*
X57043083Y3724700D01*
X57069033Y3763539D01*
X57095102Y3802552D01*
X57126257Y3877767D01*
X57146234Y3925995D01*
X57172300Y4057041D01*
X57172300Y4190655D01*
X57172300Y6155017D01*
X57191985Y6222056D01*
X57208614Y6242694D01*
X57271139Y6305218D01*
X57380632Y6469086D01*
X57456051Y6651165D01*
X57494500Y6844459D01*
X57494500Y7041541D01*
X57494500Y7041544D01*
X57456052Y7234830D01*
X57456051Y7234831D01*
X57456051Y7234835D01*
X57453787Y7240300D01*
X57380635Y7416908D01*
X57380628Y7416921D01*
X57271139Y7580782D01*
X57271136Y7580786D01*
X57131785Y7720137D01*
X57131781Y7720140D01*
X56967920Y7829629D01*
X56967907Y7829636D01*
X56785839Y7905050D01*
X56785829Y7905053D01*
X56592543Y7943500D01*
X56592541Y7943500D01*
X56395459Y7943500D01*
X56395457Y7943500D01*
X56202170Y7905053D01*
X56202160Y7905050D01*
X56020092Y7829636D01*
X56020079Y7829629D01*
X55856218Y7720140D01*
X55851508Y7716274D01*
X55849806Y7718348D01*
X55798658Y7690418D01*
X55728966Y7695402D01*
X55673033Y7737274D01*
X55648616Y7802738D01*
X55648300Y7811584D01*
X55648300Y17550808D01*
X55647155Y17556563D01*
X55640166Y17591700D01*
X55622234Y17681853D01*
X55580543Y17782502D01*
X55571102Y17805296D01*
X55496870Y17916391D01*
X55402391Y18010870D01*
X54513393Y18899868D01*
X53624394Y19788868D01*
X53624390Y19788871D01*
X53513293Y19863104D01*
X53513291Y19863105D01*
X53473064Y19879767D01*
X53473063Y19879767D01*
X53389853Y19914234D01*
X53389845Y19914236D01*
X53258811Y19940300D01*
X53258807Y19940300D01*
X41822193Y19940300D01*
X41796127Y19935116D01*
X41796122Y19935116D01*
X41691154Y19914236D01*
X41691151Y19914235D01*
X41691149Y19914235D01*
X41691148Y19914234D01*
X41618836Y19884282D01*
X41618834Y19884281D01*
X41567706Y19863104D01*
X41456609Y19788871D01*
X41456605Y19788868D01*
X40930720Y19262981D01*
X40821609Y19153870D01*
X40791528Y19123789D01*
X40727128Y19059390D01*
X40652899Y18948299D01*
X40652898Y18948297D01*
X40645582Y18930635D01*
X40645579Y18930628D01*
X40643258Y18925022D01*
X40601766Y18824853D01*
X40580800Y18719447D01*
X40579607Y18713450D01*
X40579606Y18713446D01*
X40575700Y18693808D01*
X40575700Y18511042D01*
X40556015Y18444003D01*
X40503211Y18398248D01*
X40434053Y18388304D01*
X40413382Y18393111D01*
X40304537Y18428477D01*
X40152897Y18452495D01*
X40102352Y18460500D01*
X39897648Y18460500D01*
X39873329Y18456649D01*
X39695465Y18428478D01*
X39500776Y18365219D01*
X39318386Y18272285D01*
X39152786Y18151972D01*
X39008028Y18007214D01*
X38887715Y17841614D01*
X38794781Y17659224D01*
X38731522Y17464535D01*
X38699500Y17262352D01*
X38699500Y17057649D01*
X38731522Y16855466D01*
X38794781Y16660777D01*
X38858691Y16535347D01*
X38870750Y16511681D01*
X38887715Y16478387D01*
X39008028Y16312787D01*
X39152784Y16168031D01*
X39270584Y16082446D01*
X39273925Y16078114D01*
X39278903Y16075840D01*
X39295033Y16050741D01*
X39313251Y16027116D01*
X39314504Y16020443D01*
X39316677Y16017062D01*
X39321700Y15982127D01*
X39321700Y15927323D01*
X39302015Y15860284D01*
X39285381Y15839642D01*
X39085358Y15639619D01*
X39024035Y15606134D01*
X38997677Y15603300D01*
X35099000Y15603300D01*
X35031961Y15622985D01*
X34986206Y15675789D01*
X34975000Y15727300D01*
X34975000Y15847828D01*
X34974999Y15847845D01*
X34968598Y15907373D01*
X34968596Y15907380D01*
X34918354Y16042087D01*
X34918350Y16042094D01*
X34832190Y16157188D01*
X34832187Y16157191D01*
X34717093Y16243351D01*
X34717086Y16243355D01*
X34582379Y16293597D01*
X34582372Y16293599D01*
X34522844Y16300000D01*
X33825000Y16300000D01*
X33825000Y15774500D01*
X33822449Y15765815D01*
X33823738Y15756853D01*
X33812759Y15732813D01*
X33805315Y15707461D01*
X33798474Y15701534D01*
X33794713Y15693297D01*
X33772478Y15679008D01*
X33752511Y15661706D01*
X33741996Y15659419D01*
X33735935Y15655523D01*
X33701000Y15650500D01*
X33499000Y15650500D01*
X33431961Y15670185D01*
X33386206Y15722989D01*
X33375000Y15774500D01*
X33375000Y16300000D01*
X33200623Y16300000D01*
X33133584Y16319685D01*
X33087829Y16372489D01*
X33077885Y16441647D01*
X33106910Y16505203D01*
X33112942Y16511681D01*
X34414867Y17813606D01*
X34414870Y17813609D01*
X34433580Y17841610D01*
X34434005Y17842246D01*
X34434006Y17842249D01*
X34436600Y17846130D01*
X34489102Y17924704D01*
X34509838Y17974766D01*
X34540234Y18048147D01*
X34566300Y18179193D01*
X34566300Y18312807D01*
X34566300Y20326677D01*
X34585985Y20393716D01*
X34602619Y20414358D01*
X36576584Y22388323D01*
X38421696Y24233435D01*
X41405894Y24233435D01*
X54482242Y24233435D01*
X54482242Y31174171D01*
X41405894Y31174171D01*
X41405894Y24233435D01*
X38421696Y24233435D01*
X38859870Y24671609D01*
X38865276Y24679700D01*
X38934102Y24782704D01*
X38979912Y24893300D01*
X38985234Y24906147D01*
X39011300Y25037193D01*
X39011300Y25170807D01*
X39011300Y35838807D01*
X39002755Y35881766D01*
X38985234Y35969853D01*
X38934459Y36092433D01*
X38934258Y36093061D01*
X38934102Y36093295D01*
X38934102Y36093296D01*
X38859870Y36204391D01*
X38765391Y36298870D01*
X37749391Y37314870D01*
X35971394Y39092868D01*
X35971390Y39092871D01*
X35860295Y39167103D01*
X35824141Y39182079D01*
X35824140Y39182079D01*
X35736853Y39218234D01*
X35736845Y39218236D01*
X35736844Y39218236D01*
X35605811Y39244300D01*
X35605807Y39244300D01*
X22143807Y39244300D01*
X22010193Y39244300D01*
X22010188Y39244300D01*
X21879152Y39218236D01*
X21879136Y39218231D01*
X21791860Y39182081D01*
X21791861Y39182080D01*
X21755702Y39167102D01*
X21644609Y39092871D01*
X21644605Y39092868D01*
X19866609Y37314870D01*
X19819368Y37267630D01*
X19772128Y37220390D01*
X19697550Y37108776D01*
X19697536Y37108732D01*
X19696607Y37106181D01*
X19646766Y36985853D01*
X19641286Y36958300D01*
X19639437Y36949007D01*
X19639435Y36949000D01*
X19620700Y36854812D01*
X19620700Y24547324D01*
X19601015Y24480285D01*
X19584381Y24459643D01*
X17387358Y22262619D01*
X17326035Y22229134D01*
X17299677Y22226300D01*
X8802188Y22226300D01*
X8671152Y22200236D01*
X8671136Y22200231D01*
X8583860Y22164081D01*
X8583861Y22164080D01*
X8547702Y22149102D01*
X8508349Y22122806D01*
X8436609Y22074871D01*
X8436605Y22074868D01*
X7547609Y21185870D01*
X7317609Y20955870D01*
X7270368Y20908630D01*
X7223128Y20861390D01*
X7148898Y20750296D01*
X7148895Y20750292D01*
X7136123Y20719457D01*
X7136118Y20719443D01*
X7134339Y20715147D01*
X7097766Y20626853D01*
X7087101Y20573233D01*
X7085633Y20565856D01*
X7085631Y20565848D01*
X7071700Y20495812D01*
X7071700Y18337874D01*
X7052015Y18270835D01*
X7020585Y18237556D01*
X6902787Y18151972D01*
X6902782Y18151968D01*
X6758028Y18007214D01*
X6637715Y17841614D01*
X6544781Y17659224D01*
X6481522Y17464535D01*
X6449500Y17262352D01*
X6449500Y17057649D01*
X6481522Y16855466D01*
X6544781Y16660777D01*
X6608691Y16535347D01*
X6620750Y16511681D01*
X6637715Y16478387D01*
X6758028Y16312787D01*
X6902786Y16168029D01*
X7026546Y16078114D01*
X7068390Y16047713D01*
X7182300Y15989673D01*
X7250776Y15954782D01*
X7250778Y15954782D01*
X7250781Y15954780D01*
X7355137Y15920873D01*
X7445465Y15891523D01*
X7543719Y15875961D01*
X7647648Y15859500D01*
X7647649Y15859500D01*
X7852351Y15859500D01*
X7852352Y15859500D01*
X8054534Y15891523D01*
X8249219Y15954780D01*
X8431610Y16047713D01*
X8545282Y16130300D01*
X8597213Y16168029D01*
X8597215Y16168032D01*
X8597219Y16168034D01*
X8741966Y16312781D01*
X8741968Y16312785D01*
X8741971Y16312787D01*
X8862284Y16478386D01*
X8862285Y16478387D01*
X8862287Y16478390D01*
X8909516Y16571083D01*
X8957489Y16621877D01*
X9025310Y16638672D01*
X9091445Y16616135D01*
X9130483Y16571083D01*
X9164051Y16505203D01*
X9177715Y16478386D01*
X9298028Y16312787D01*
X9442786Y16168029D01*
X9566546Y16078114D01*
X9608390Y16047713D01*
X9722300Y15989673D01*
X9790776Y15954782D01*
X9790778Y15954782D01*
X9790781Y15954780D01*
X9895137Y15920873D01*
X9985465Y15891523D01*
X10083719Y15875961D01*
X10187648Y15859500D01*
X10187649Y15859500D01*
X10392351Y15859500D01*
X10392352Y15859500D01*
X10594534Y15891523D01*
X10789219Y15954780D01*
X10971610Y16047713D01*
X11085282Y16130300D01*
X11137213Y16168029D01*
X11137215Y16168032D01*
X11137219Y16168034D01*
X11281966Y16312781D01*
X11281968Y16312785D01*
X11281971Y16312787D01*
X11402284Y16478386D01*
X11402285Y16478387D01*
X11402287Y16478390D01*
X11449516Y16571083D01*
X11497489Y16621877D01*
X11565310Y16638672D01*
X11631445Y16616135D01*
X11670483Y16571083D01*
X11704051Y16505203D01*
X11717715Y16478386D01*
X11838028Y16312787D01*
X11982784Y16168031D01*
X12100584Y16082446D01*
X12143251Y16027116D01*
X12151700Y15982127D01*
X12151700Y12760323D01*
X12132015Y12693284D01*
X12115381Y12672642D01*
X11738958Y12296219D01*
X11677635Y12262734D01*
X11651277Y12259900D01*
X6811637Y12259900D01*
X6680603Y12233836D01*
X6680591Y12233833D01*
X6629462Y12212655D01*
X6629463Y12212654D01*
X6557155Y12182704D01*
X6474010Y12127147D01*
X6474009Y12127146D01*
X6446055Y12108469D01*
X4687568Y10349982D01*
X4610532Y10272947D01*
X4610529Y10272943D01*
X4536299Y10161851D01*
X4536298Y10161849D01*
X4519292Y10120792D01*
X4519292Y10120791D01*
X4485167Y10038408D01*
X4485164Y10038398D01*
X4466088Y9942497D01*
X4466077Y9942435D01*
X4465812Y9941102D01*
X4459100Y9907359D01*
X500500Y9907359D01*
X500500Y39375500D01*
X520185Y39442539D01*
X572989Y39488294D01*
X624500Y39499500D01*
X59375500Y39499500D01*
X59442539Y39479815D01*
G37*
%TD.AperFunction*%
%TD*%
%TA.AperFunction,NonConductor*%
G36*
X54205703Y17288590D02*
G01*
X54212181Y17282558D01*
X54255381Y17239358D01*
X54288866Y17178035D01*
X54291700Y17151677D01*
X54291700Y7684584D01*
X54272015Y7617545D01*
X54219211Y7571790D01*
X54150053Y7561846D01*
X54086497Y7590871D01*
X54080019Y7596903D01*
X53956785Y7720137D01*
X53956781Y7720140D01*
X53792920Y7829629D01*
X53792907Y7829636D01*
X53610839Y7905050D01*
X53610829Y7905053D01*
X53417543Y7943500D01*
X53417541Y7943500D01*
X53220459Y7943500D01*
X53220457Y7943500D01*
X53027170Y7905053D01*
X53027160Y7905050D01*
X52845092Y7829636D01*
X52845079Y7829629D01*
X52681219Y7720141D01*
X52664297Y7703218D01*
X52618696Y7657618D01*
X52557376Y7624134D01*
X52531017Y7621300D01*
X51378689Y7621300D01*
X51311650Y7640985D01*
X51275495Y7677920D01*
X51275151Y7677669D01*
X51273452Y7680008D01*
X51272965Y7680505D01*
X51272288Y7681610D01*
X51151971Y7847214D01*
X51007213Y7991972D01*
X50841613Y8112285D01*
X50841612Y8112286D01*
X50841610Y8112287D01*
X50784653Y8141309D01*
X50659223Y8205219D01*
X50464534Y8268478D01*
X50289995Y8296122D01*
X50262352Y8300500D01*
X50057648Y8300500D01*
X50033329Y8296649D01*
X49855465Y8268478D01*
X49660776Y8205219D01*
X49478386Y8112285D01*
X49312786Y7991972D01*
X49168028Y7847214D01*
X49047715Y7681614D01*
X49000485Y7588920D01*
X48952510Y7538124D01*
X48884689Y7521329D01*
X48818554Y7543866D01*
X48779515Y7588920D01*
X48764930Y7617545D01*
X48732287Y7681610D01*
X48714633Y7705909D01*
X48611971Y7847214D01*
X48467217Y7991968D01*
X48467212Y7991972D01*
X48349415Y8077556D01*
X48306749Y8132885D01*
X48298300Y8177874D01*
X48298300Y9406807D01*
X48298299Y9406811D01*
X48294313Y9426856D01*
X48294313Y9426857D01*
X48272235Y9537847D01*
X48272234Y9537853D01*
X48245750Y9601789D01*
X48245750Y9601790D01*
X48233425Y9631544D01*
X48221102Y9661296D01*
X48146870Y9772391D01*
X48052391Y9866870D01*
X47646314Y10272947D01*
X47147394Y10771868D01*
X47147390Y10771871D01*
X47036298Y10846101D01*
X47036296Y10846102D01*
X46992804Y10864117D01*
X46912853Y10897234D01*
X46912845Y10897236D01*
X46781811Y10923300D01*
X46781807Y10923300D01*
X38393193Y10923300D01*
X38367127Y10918116D01*
X38367122Y10918116D01*
X38257990Y10896408D01*
X38188399Y10902635D01*
X38133221Y10945498D01*
X38109977Y11011388D01*
X38126045Y11079385D01*
X38146114Y11105702D01*
X38681194Y11640781D01*
X38742517Y11674266D01*
X38768875Y11677100D01*
X49323510Y11677100D01*
X49323511Y11677101D01*
X49454555Y11703166D01*
X49547839Y11741806D01*
X49577998Y11754298D01*
X49689093Y11828530D01*
X49783572Y11923009D01*
X53226870Y15366307D01*
X53271520Y15433130D01*
X53301102Y15477402D01*
X53322140Y15528193D01*
X53352234Y15600845D01*
X53378300Y15731891D01*
X53378300Y15865505D01*
X53378300Y15982127D01*
X53397985Y16049166D01*
X53429416Y16082446D01*
X53547215Y16168031D01*
X53547215Y16168032D01*
X53547219Y16168034D01*
X53691966Y16312781D01*
X53691968Y16312785D01*
X53691971Y16312787D01*
X53744732Y16385410D01*
X53812287Y16478390D01*
X53905220Y16660781D01*
X53968477Y16855466D01*
X54000500Y17057648D01*
X54000500Y17194877D01*
X54020185Y17261916D01*
X54072989Y17307671D01*
X54142147Y17317615D01*
X54205703Y17288590D01*
G37*
%TD.AperFunction*%
M02*
