M48
; DRILL file {KiCad 9.0.2-9.0.2-0~ubuntu24.04.1} date 2025-05-27T16:37:16+0200
; FORMAT={-:-/ absolute / metric / decimal}
; #@! TF.CreationDate,2025-05-27T16:37:16+02:00
; #@! TF.GenerationSoftware,Kicad,Pcbnew,9.0.2-9.0.2-0~ubuntu24.04.1
; #@! TF.FileFunction,Plated,1,2,PTH
FMAT,2
METRIC
; #@! TA.AperFunction,Plated,PTH,ViaDrill
T1C0.600
; #@! TA.AperFunction,Plated,PTH,ComponentDrill
T2C0.800
; #@! TA.AperFunction,Plated,PTH,ComponentDrill
T3C1.190
%
G90
G05
T1
X16.53Y26.98
X20.807Y6.308
X20.807Y2.244
X23.15Y26.98
X25.506Y6.562
X25.506Y4.53
X33.507Y6.689
X45.064Y4.53
X53.319Y6.943
X56.494Y6.943
T2
X7.75Y17.16
X7.75Y7.0
X10.29Y17.16
X10.29Y7.0
X12.83Y17.16
X12.83Y7.0
X15.37Y17.16
X15.37Y7.0
X17.91Y17.16
X17.91Y7.0
X20.45Y17.16
X40.0Y17.16
X40.0Y7.0
X42.54Y17.16
X42.54Y7.0
X45.08Y17.16
X45.08Y7.0
X47.62Y17.16
X47.62Y7.0
X50.16Y17.16
X50.16Y7.0
X52.7Y17.16
T3
X26.19Y26.98
X28.73Y26.98
X31.27Y26.98
X33.81Y26.98
M30
