%TF.GenerationSoftware,KiCad,Pcbnew,9.0.1*%
%TF.CreationDate,2025-05-16T18:10:11+02:00*%
%TF.ProjectId,lcd-ht16k33,6c63642d-6874-4313-966b-33332e6b6963,rev?*%
%TF.SameCoordinates,PX5204180PY4d3f640*%
%TF.FileFunction,Copper,L2,Bot*%
%TF.FilePolarity,Positive*%
%FSLAX46Y46*%
G04 Gerber Fmt 4.6, Leading zero omitted, Abs format (unit mm)*
G04 Created by KiCad (PCBNEW 9.0.1) date 2025-05-16 18:10:11*
%MOMM*%
%LPD*%
G01*
G04 APERTURE LIST*
G04 Aperture macros list*
%AMRoundRect*
0 Rectangle with rounded corners*
0 $1 Rounding radius*
0 $2 $3 $4 $5 $6 $7 $8 $9 X,Y pos of 4 corners*
0 Add a 4 corners polygon primitive as box body*
4,1,4,$2,$3,$4,$5,$6,$7,$8,$9,$2,$3,0*
0 Add four circle primitives for the rounded corners*
1,1,$1+$1,$2,$3*
1,1,$1+$1,$4,$5*
1,1,$1+$1,$6,$7*
1,1,$1+$1,$8,$9*
0 Add four rect primitives between the rounded corners*
20,1,$1+$1,$2,$3,$4,$5,0*
20,1,$1+$1,$4,$5,$6,$7,0*
20,1,$1+$1,$6,$7,$8,$9,0*
20,1,$1+$1,$8,$9,$2,$3,0*%
G04 Aperture macros list end*
%ADD10C,0.200000*%
%TA.AperFunction,NonConductor*%
%ADD11C,0.200000*%
%TD*%
%TA.AperFunction,SMDPad,CuDef*%
%ADD12RoundRect,0.250000X0.412500X0.650000X-0.412500X0.650000X-0.412500X-0.650000X0.412500X-0.650000X0*%
%TD*%
%TA.AperFunction,ComponentPad*%
%ADD13C,1.600000*%
%TD*%
%TA.AperFunction,SMDPad,CuDef*%
%ADD14R,1.750000X0.450000*%
%TD*%
%TA.AperFunction,SMDPad,CuDef*%
%ADD15RoundRect,0.250000X-0.475000X0.337500X-0.475000X-0.337500X0.475000X-0.337500X0.475000X0.337500X0*%
%TD*%
%TA.AperFunction,ComponentPad*%
%ADD16RoundRect,0.250000X-0.620000X-0.845000X0.620000X-0.845000X0.620000X0.845000X-0.620000X0.845000X0*%
%TD*%
%TA.AperFunction,ComponentPad*%
%ADD17O,1.740000X2.190000*%
%TD*%
%TA.AperFunction,SMDPad,CuDef*%
%ADD18RoundRect,0.250000X0.337500X0.475000X-0.337500X0.475000X-0.337500X-0.475000X0.337500X-0.475000X0*%
%TD*%
%TA.AperFunction,ViaPad*%
%ADD19C,1.000000*%
%TD*%
%TA.AperFunction,Conductor*%
%ADD20C,0.355600*%
%TD*%
G04 APERTURE END LIST*
D10*
D11*
X15085006Y25893483D02*
X15037387Y25798245D01*
X15037387Y25798245D02*
X15037387Y25655388D01*
X15037387Y25655388D02*
X15085006Y25512531D01*
X15085006Y25512531D02*
X15180244Y25417293D01*
X15180244Y25417293D02*
X15275482Y25369674D01*
X15275482Y25369674D02*
X15465958Y25322055D01*
X15465958Y25322055D02*
X15608815Y25322055D01*
X15608815Y25322055D02*
X15799291Y25369674D01*
X15799291Y25369674D02*
X15894529Y25417293D01*
X15894529Y25417293D02*
X15989768Y25512531D01*
X15989768Y25512531D02*
X16037387Y25655388D01*
X16037387Y25655388D02*
X16037387Y25750626D01*
X16037387Y25750626D02*
X15989768Y25893483D01*
X15989768Y25893483D02*
X15942148Y25941102D01*
X15942148Y25941102D02*
X15608815Y25941102D01*
X15608815Y25941102D02*
X15608815Y25750626D01*
X16037387Y26369674D02*
X15037387Y26369674D01*
X15037387Y26369674D02*
X16037387Y26941102D01*
X16037387Y26941102D02*
X15037387Y26941102D01*
X16037387Y27417293D02*
X15037387Y27417293D01*
X15037387Y27417293D02*
X15037387Y27655388D01*
X15037387Y27655388D02*
X15085006Y27798245D01*
X15085006Y27798245D02*
X15180244Y27893483D01*
X15180244Y27893483D02*
X15275482Y27941102D01*
X15275482Y27941102D02*
X15465958Y27988721D01*
X15465958Y27988721D02*
X15608815Y27988721D01*
X15608815Y27988721D02*
X15799291Y27941102D01*
X15799291Y27941102D02*
X15894529Y27893483D01*
X15894529Y27893483D02*
X15989768Y27798245D01*
X15989768Y27798245D02*
X16037387Y27655388D01*
X16037387Y27655388D02*
X16037387Y27417293D01*
X16647331Y25226817D02*
X17647331Y25560150D01*
X17647331Y25560150D02*
X16647331Y25893483D01*
X17552092Y26798245D02*
X17599712Y26750626D01*
X17599712Y26750626D02*
X17647331Y26607769D01*
X17647331Y26607769D02*
X17647331Y26512531D01*
X17647331Y26512531D02*
X17599712Y26369674D01*
X17599712Y26369674D02*
X17504473Y26274436D01*
X17504473Y26274436D02*
X17409235Y26226817D01*
X17409235Y26226817D02*
X17218759Y26179198D01*
X17218759Y26179198D02*
X17075902Y26179198D01*
X17075902Y26179198D02*
X16885426Y26226817D01*
X16885426Y26226817D02*
X16790188Y26274436D01*
X16790188Y26274436D02*
X16694950Y26369674D01*
X16694950Y26369674D02*
X16647331Y26512531D01*
X16647331Y26512531D02*
X16647331Y26607769D01*
X16647331Y26607769D02*
X16694950Y26750626D01*
X16694950Y26750626D02*
X16742569Y26798245D01*
X17552092Y27798245D02*
X17599712Y27750626D01*
X17599712Y27750626D02*
X17647331Y27607769D01*
X17647331Y27607769D02*
X17647331Y27512531D01*
X17647331Y27512531D02*
X17599712Y27369674D01*
X17599712Y27369674D02*
X17504473Y27274436D01*
X17504473Y27274436D02*
X17409235Y27226817D01*
X17409235Y27226817D02*
X17218759Y27179198D01*
X17218759Y27179198D02*
X17075902Y27179198D01*
X17075902Y27179198D02*
X16885426Y27226817D01*
X16885426Y27226817D02*
X16790188Y27274436D01*
X16790188Y27274436D02*
X16694950Y27369674D01*
X16694950Y27369674D02*
X16647331Y27512531D01*
X16647331Y27512531D02*
X16647331Y27607769D01*
X16647331Y27607769D02*
X16694950Y27750626D01*
X16694950Y27750626D02*
X16742569Y27798245D01*
X19209656Y25322055D02*
X19257275Y25464912D01*
X19257275Y25464912D02*
X19257275Y25703007D01*
X19257275Y25703007D02*
X19209656Y25798245D01*
X19209656Y25798245D02*
X19162036Y25845864D01*
X19162036Y25845864D02*
X19066798Y25893483D01*
X19066798Y25893483D02*
X18971560Y25893483D01*
X18971560Y25893483D02*
X18876322Y25845864D01*
X18876322Y25845864D02*
X18828703Y25798245D01*
X18828703Y25798245D02*
X18781084Y25703007D01*
X18781084Y25703007D02*
X18733465Y25512531D01*
X18733465Y25512531D02*
X18685846Y25417293D01*
X18685846Y25417293D02*
X18638227Y25369674D01*
X18638227Y25369674D02*
X18542989Y25322055D01*
X18542989Y25322055D02*
X18447751Y25322055D01*
X18447751Y25322055D02*
X18352513Y25369674D01*
X18352513Y25369674D02*
X18304894Y25417293D01*
X18304894Y25417293D02*
X18257275Y25512531D01*
X18257275Y25512531D02*
X18257275Y25750626D01*
X18257275Y25750626D02*
X18304894Y25893483D01*
X19257275Y26322055D02*
X18257275Y26322055D01*
X18257275Y26322055D02*
X18257275Y26560150D01*
X18257275Y26560150D02*
X18304894Y26703007D01*
X18304894Y26703007D02*
X18400132Y26798245D01*
X18400132Y26798245D02*
X18495370Y26845864D01*
X18495370Y26845864D02*
X18685846Y26893483D01*
X18685846Y26893483D02*
X18828703Y26893483D01*
X18828703Y26893483D02*
X19019179Y26845864D01*
X19019179Y26845864D02*
X19114417Y26798245D01*
X19114417Y26798245D02*
X19209656Y26703007D01*
X19209656Y26703007D02*
X19257275Y26560150D01*
X19257275Y26560150D02*
X19257275Y26322055D01*
X18971560Y27274436D02*
X18971560Y27750626D01*
X19257275Y27179198D02*
X18257275Y27512531D01*
X18257275Y27512531D02*
X19257275Y27845864D01*
X20819600Y25322055D02*
X20867219Y25464912D01*
X20867219Y25464912D02*
X20867219Y25703007D01*
X20867219Y25703007D02*
X20819600Y25798245D01*
X20819600Y25798245D02*
X20771980Y25845864D01*
X20771980Y25845864D02*
X20676742Y25893483D01*
X20676742Y25893483D02*
X20581504Y25893483D01*
X20581504Y25893483D02*
X20486266Y25845864D01*
X20486266Y25845864D02*
X20438647Y25798245D01*
X20438647Y25798245D02*
X20391028Y25703007D01*
X20391028Y25703007D02*
X20343409Y25512531D01*
X20343409Y25512531D02*
X20295790Y25417293D01*
X20295790Y25417293D02*
X20248171Y25369674D01*
X20248171Y25369674D02*
X20152933Y25322055D01*
X20152933Y25322055D02*
X20057695Y25322055D01*
X20057695Y25322055D02*
X19962457Y25369674D01*
X19962457Y25369674D02*
X19914838Y25417293D01*
X19914838Y25417293D02*
X19867219Y25512531D01*
X19867219Y25512531D02*
X19867219Y25750626D01*
X19867219Y25750626D02*
X19914838Y25893483D01*
X20771980Y26893483D02*
X20819600Y26845864D01*
X20819600Y26845864D02*
X20867219Y26703007D01*
X20867219Y26703007D02*
X20867219Y26607769D01*
X20867219Y26607769D02*
X20819600Y26464912D01*
X20819600Y26464912D02*
X20724361Y26369674D01*
X20724361Y26369674D02*
X20629123Y26322055D01*
X20629123Y26322055D02*
X20438647Y26274436D01*
X20438647Y26274436D02*
X20295790Y26274436D01*
X20295790Y26274436D02*
X20105314Y26322055D01*
X20105314Y26322055D02*
X20010076Y26369674D01*
X20010076Y26369674D02*
X19914838Y26464912D01*
X19914838Y26464912D02*
X19867219Y26607769D01*
X19867219Y26607769D02*
X19867219Y26703007D01*
X19867219Y26703007D02*
X19914838Y26845864D01*
X19914838Y26845864D02*
X19962457Y26893483D01*
X20867219Y27798245D02*
X20867219Y27322055D01*
X20867219Y27322055D02*
X19867219Y27322055D01*
D12*
%TO.P,C1,1*%
%TO.N,VCC*%
X28973500Y33210000D03*
%TO.P,C1,2*%
%TO.N,GND*%
X25848500Y33210000D03*
%TD*%
D13*
%TO.P,U3,1,E*%
%TO.N,/SEG5*%
X7750000Y6000000D03*
%TO.P,U3,2,D*%
%TO.N,/SEG4*%
X10290000Y6000000D03*
%TO.P,U3,3,DP*%
%TO.N,/SEG8*%
X12830000Y6000000D03*
%TO.P,U3,4,C*%
%TO.N,/SEG3*%
X15370000Y6000000D03*
%TO.P,U3,5,G*%
%TO.N,/SEG7*%
X17910000Y6000000D03*
%TO.P,U3,7,B*%
%TO.N,/SEG2*%
X20450000Y16160000D03*
%TO.P,U3,8,DIG3*%
%TO.N,/GR6*%
X17910000Y16160000D03*
%TO.P,U3,9,DIG2*%
%TO.N,/GR5*%
X15370000Y16160000D03*
%TO.P,U3,10,F*%
%TO.N,/SEG6*%
X12830000Y16160000D03*
%TO.P,U3,11,A*%
%TO.N,/SEG1*%
X10290000Y16160000D03*
%TO.P,U3,12,DIG1*%
%TO.N,/GR4*%
X7750000Y16160000D03*
%TD*%
%TO.P,U2,1,E*%
%TO.N,/SEG5*%
X40000000Y6000000D03*
%TO.P,U2,2,D*%
%TO.N,/SEG4*%
X42540000Y6000000D03*
%TO.P,U2,3,DP*%
%TO.N,/SEG8*%
X45080000Y6000000D03*
%TO.P,U2,4,C*%
%TO.N,/SEG3*%
X47620000Y6000000D03*
%TO.P,U2,5,G*%
%TO.N,/SEG7*%
X50160000Y6000000D03*
%TO.P,U2,7,B*%
%TO.N,/SEG2*%
X52700000Y16160000D03*
%TO.P,U2,8,DIG3*%
%TO.N,/GR3*%
X50160000Y16160000D03*
%TO.P,U2,9,DIG2*%
%TO.N,/GR2*%
X47620000Y16160000D03*
%TO.P,U2,10,F*%
%TO.N,/SEG6*%
X45080000Y16160000D03*
%TO.P,U2,11,A*%
%TO.N,/SEG1*%
X42540000Y16160000D03*
%TO.P,U2,12,DIG1*%
%TO.N,/COMMAND*%
X40000000Y16160000D03*
%TD*%
D14*
%TO.P,U1,1,VSS*%
%TO.N,GND*%
X33600000Y14575000D03*
%TO.P,U1,2,COM0/AD*%
%TO.N,/COMMAND*%
X33600000Y13925000D03*
%TO.P,U1,3,COM1/KS0*%
%TO.N,/GR2*%
X33600000Y13275000D03*
%TO.P,U1,4,COM2/KS1*%
%TO.N,/GR3*%
X33600000Y12625000D03*
%TO.P,U1,5,COM3/KS2*%
%TO.N,/GR4*%
X33600000Y11975000D03*
%TO.P,U1,6,COM4*%
%TO.N,/GR5*%
X33600000Y11325000D03*
%TO.P,U1,7,COM5*%
%TO.N,/GR6*%
X33600000Y10675000D03*
%TO.P,U1,8,COM6*%
%TO.N,unconnected-(U1-COM6-Pad8)*%
X33600000Y10025000D03*
%TO.P,U1,9,COM7*%
%TO.N,unconnected-(U1-COM7-Pad9)*%
X33600000Y9375000D03*
%TO.P,U1,10,ROW11/K10/INT*%
%TO.N,unconnected-(U1-ROW11{slash}K10{slash}INT-Pad10)*%
X33600000Y8725000D03*
%TO.P,U1,11,ROW10/K9*%
%TO.N,unconnected-(U1-ROW10{slash}K9-Pad11)*%
X33600000Y8075000D03*
%TO.P,U1,12,ROW9/K8*%
%TO.N,/SEG8*%
X33600000Y7425000D03*
%TO.P,U1,13,ROW8/K7*%
%TO.N,/SEG7*%
X26400000Y7425000D03*
%TO.P,U1,14,ROW7/K6*%
%TO.N,/SEG6*%
X26400000Y8075000D03*
%TO.P,U1,15,ROW6/K5*%
%TO.N,/SEG5*%
X26400000Y8725000D03*
%TO.P,U1,16,ROW5/K4*%
%TO.N,/SEG4*%
X26400000Y9375000D03*
%TO.P,U1,17,ROW4/K3*%
%TO.N,/SEG3*%
X26400000Y10025000D03*
%TO.P,U1,18,ROW3/K2*%
%TO.N,/SEG2*%
X26400000Y10675000D03*
%TO.P,U1,19,ROW2/K1*%
%TO.N,/SEG1*%
X26400000Y11325000D03*
%TO.P,U1,20,ROW1/A0*%
%TO.N,unconnected-(U1-ROW1{slash}A0-Pad20)*%
X26400000Y11975000D03*
%TO.P,U1,21,ROW0/A1*%
%TO.N,unconnected-(U1-ROW0{slash}A1-Pad21)*%
X26400000Y12625000D03*
%TO.P,U1,22,SCL*%
%TO.N,/SCL*%
X26400000Y13275000D03*
%TO.P,U1,23,SDA*%
%TO.N,/SDA*%
X26400000Y13925000D03*
%TO.P,U1,24,VDD*%
%TO.N,VCC*%
X26400000Y14575000D03*
%TD*%
D15*
%TO.P,R2,2*%
%TO.N,/SCL*%
X33761000Y30305500D03*
%TO.P,R2,1*%
%TO.N,VCC*%
X33761000Y32380500D03*
%TD*%
%TO.P,R1,1*%
%TO.N,VCC*%
X31221000Y32380500D03*
%TO.P,R1,2*%
%TO.N,/SDA*%
X31221000Y30305500D03*
%TD*%
D16*
%TO.P,J1,1,Pin_1*%
%TO.N,GND*%
X26190000Y25980000D03*
D17*
%TO.P,J1,2,Pin_2*%
%TO.N,VCC*%
X28730000Y25980000D03*
%TO.P,J1,3,Pin_3*%
%TO.N,/SDA*%
X31270000Y25980000D03*
%TO.P,J1,4,Pin_4*%
%TO.N,/SCL*%
X33810000Y25980000D03*
%TD*%
D18*
%TO.P,C2,1*%
%TO.N,VCC*%
X28448500Y30200000D03*
%TO.P,C2,2*%
%TO.N,GND*%
X26373500Y30200000D03*
%TD*%
D19*
%TO.N,/SEG7*%
X20807000Y5308000D03*
X56494000Y5943000D03*
X20807000Y1244000D03*
X53319000Y5943000D03*
%TO.N,/SEG8*%
X45064000Y3530000D03*
X25506000Y3530000D03*
X25506000Y5562000D03*
X33507000Y5689000D03*
%TO.N,/GR6*%
X27411000Y18135000D03*
X31983000Y18135000D03*
%TO.N,/GR5*%
X33253000Y19532000D03*
X25633000Y19532000D03*
%TO.N,/GR4*%
X34269000Y20548000D03*
X26776000Y20548000D03*
%TD*%
D20*
%TO.N,/SEG7*%
X56494000Y3123848D02*
X56494000Y5943000D01*
X17910000Y6000000D02*
X20115000Y6000000D01*
X20807000Y1244000D02*
X21158200Y892800D01*
X20115000Y6000000D02*
X20807000Y5308000D01*
X21158200Y892800D02*
X54262952Y892800D01*
X50217000Y5943000D02*
X50160000Y6000000D01*
X54262952Y892800D02*
X56494000Y3123848D01*
X53319000Y5943000D02*
X50217000Y5943000D01*
%TO.N,/SEG6*%
X26981400Y2211400D02*
X28173000Y3403000D01*
X28173000Y3403000D02*
X28173000Y7532600D01*
X28173000Y7532600D02*
X27630600Y8075000D01*
X27630600Y8075000D02*
X26400000Y8075000D01*
X26649000Y2211400D02*
X6758600Y2211400D01*
X28173000Y3403000D02*
X28173000Y2338400D01*
X28173000Y2338400D02*
X29062000Y1449400D01*
X54970000Y2387000D02*
X54970000Y16484000D01*
X53192000Y18262000D02*
X41889000Y18262000D01*
X29062000Y1449400D02*
X54032400Y1449400D01*
X54032400Y1449400D02*
X54970000Y2387000D01*
X41254000Y17627000D02*
X41254000Y14960000D01*
X54970000Y16484000D02*
X53192000Y18262000D01*
X41889000Y18262000D02*
X41254000Y17627000D01*
X41254000Y14960000D02*
X41762000Y14452000D01*
X41762000Y14452000D02*
X44556000Y14452000D01*
X44556000Y14452000D02*
X45080000Y14976000D01*
X45080000Y14976000D02*
X45080000Y16160000D01*
%TO.N,/SEG8*%
X25506000Y5562000D02*
X25506000Y3530000D01*
X45064000Y3530000D02*
X45064000Y5984000D01*
X45064000Y5984000D02*
X45080000Y6000000D01*
%TO.N,/SEG5*%
X40000000Y6000000D02*
X39003697Y5003697D01*
X39003697Y5003697D02*
X38510303Y5003697D01*
X29629600Y8169400D02*
X29074000Y8725000D01*
X38510303Y5003697D02*
X35512604Y2006000D01*
X35512604Y2006000D02*
X31374396Y2006000D01*
X31374396Y2006000D02*
X29629600Y3750796D01*
X29629600Y3750796D02*
X29629600Y8169400D01*
X29074000Y8725000D02*
X26400000Y8725000D01*
%TO.N,/SEG4*%
X26400000Y9375000D02*
X29745544Y9375000D01*
X30186200Y3981347D02*
X31545344Y2622202D01*
X29745544Y9375000D02*
X30186200Y8934344D01*
X42016000Y8688400D02*
X42540000Y8164400D01*
X30186200Y8934344D02*
X30186200Y3981347D01*
X31545344Y2622202D02*
X35341653Y2622200D01*
X35341653Y2622200D02*
X38381599Y5662144D01*
X38381599Y5662144D02*
X38381600Y8379448D01*
X42540000Y8164400D02*
X42540000Y6000000D01*
X38381600Y8379448D02*
X38690552Y8688400D01*
X38690552Y8688400D02*
X42016000Y8688400D01*
%TO.N,/SEG3*%
X47620000Y6000000D02*
X47620000Y8340000D01*
X47620000Y8340000D02*
X46715000Y9245000D01*
X46715000Y9245000D02*
X38460000Y9245000D01*
X38460000Y9245000D02*
X37825000Y8610000D01*
X37825000Y8610000D02*
X37825000Y5892696D01*
X29882696Y10025000D02*
X26400000Y10025000D01*
X37825000Y5892696D02*
X35111102Y3178800D01*
X30742800Y9164896D02*
X29882696Y10025000D01*
X35111102Y3178800D02*
X31775896Y3178801D01*
X30742800Y4211898D02*
X30742800Y9164896D01*
X31775896Y3178801D02*
X30742800Y4211898D01*
%TO.N,/SEG2*%
X26400000Y10675000D02*
X30019848Y10675000D01*
X30019848Y10675000D02*
X31299400Y9395448D01*
X34880551Y3735400D02*
X37012076Y5866924D01*
X31299400Y9395448D02*
X31299400Y4442449D01*
X38436552Y11355400D02*
X49256702Y11355400D01*
X31299400Y4442449D02*
X32006448Y3735400D01*
X32006448Y3735400D02*
X34880551Y3735400D01*
X37012076Y9930924D02*
X38436552Y11355400D01*
X37012076Y5866924D02*
X37012076Y9930924D01*
X52700000Y14798698D02*
X52700000Y16160000D01*
X49256702Y11355400D02*
X52700000Y14798698D01*
%TO.N,/SEG1*%
X26400000Y11325000D02*
X30157000Y11325000D01*
X30157000Y11325000D02*
X31856000Y9626000D01*
X31856000Y9626000D02*
X31856000Y4673000D01*
X31856000Y4673000D02*
X32237000Y4292000D01*
X32237000Y4292000D02*
X34650000Y4292000D01*
X34650000Y4292000D02*
X36428000Y6070000D01*
X36428000Y6070000D02*
X36428000Y10134000D01*
X36428000Y10134000D02*
X38206000Y11912000D01*
X38206000Y11912000D02*
X49026151Y11912000D01*
X49026151Y11912000D02*
X51541000Y14426849D01*
X51541000Y14426849D02*
X51541000Y14960000D01*
X51541000Y14960000D02*
X51414000Y15087000D01*
X51414000Y15087000D02*
X51414000Y16573075D01*
X51414000Y16573075D02*
X50360075Y17627000D01*
X50360075Y17627000D02*
X44007000Y17627000D01*
X44007000Y17627000D02*
X42540000Y16160000D01*
%TO.N,/SEG8*%
X16616000Y7594000D02*
X16616000Y4292000D01*
X12830000Y7237000D02*
X13441000Y7848000D01*
X13441000Y7848000D02*
X16362000Y7848000D01*
X12830000Y6000000D02*
X12830000Y7237000D01*
X17124000Y3784000D02*
X22077000Y3784000D01*
X16616000Y4292000D02*
X17124000Y3784000D01*
X23728000Y5435000D02*
X23855000Y5562000D01*
X23855000Y5562000D02*
X25506000Y5562000D01*
X16362000Y7848000D02*
X16616000Y7594000D01*
X33507000Y7332000D02*
X33600000Y7425000D01*
X22077000Y3784000D02*
X23728000Y5435000D01*
X33507000Y5689000D02*
X33507000Y7332000D01*
%TO.N,/SEG1*%
X21950000Y17373000D02*
X22331000Y16992000D01*
X19283000Y17373000D02*
X21950000Y17373000D01*
X19156000Y17246000D02*
X19283000Y17373000D01*
X14584000Y13944000D02*
X18902000Y13944000D01*
X19156000Y14198000D02*
X19156000Y17246000D01*
X14076000Y14452000D02*
X14584000Y13944000D01*
X14076000Y17275900D02*
X14076000Y14452000D01*
X13470900Y17881000D02*
X14076000Y17275900D01*
X10901000Y17881000D02*
X13470900Y17881000D01*
X18902000Y13944000D02*
X19156000Y14198000D01*
X22331000Y16992000D02*
X22331000Y12039000D01*
X10290000Y17270000D02*
X10901000Y17881000D01*
X10290000Y16160000D02*
X10290000Y17270000D01*
X22331000Y12039000D02*
X23045000Y11325000D01*
X23045000Y11325000D02*
X26400000Y11325000D01*
%TO.N,/SEG6*%
X12830000Y11428000D02*
X12830000Y16160000D01*
X26981400Y2211400D02*
X26649000Y2211400D01*
X11983600Y10581600D02*
X12830000Y11428000D01*
X6758600Y2211400D02*
X5137400Y3832600D01*
X5137400Y3832600D02*
X5137400Y8840552D01*
X5137400Y8840552D02*
X6878449Y10581600D01*
X6878449Y10581600D02*
X11983600Y10581600D01*
%TO.N,/SEG7*%
X26400000Y7425000D02*
X18352000Y7425000D01*
X18352000Y7425000D02*
X17910000Y6983000D01*
X17910000Y6983000D02*
X17910000Y6000000D01*
%TO.N,/SEG3*%
X26400000Y10025000D02*
X7109000Y10025000D01*
X7109000Y10025000D02*
X5694000Y8610000D01*
X5694000Y8610000D02*
X5694000Y4266849D01*
X5694000Y4266849D02*
X7192849Y2768000D01*
X7192849Y2768000D02*
X14457000Y2768000D01*
X14457000Y2768000D02*
X15370000Y3681000D01*
X15370000Y3681000D02*
X15370000Y6000000D01*
%TO.N,/SEG4*%
X26400000Y9375000D02*
X7475000Y9375000D01*
X10290000Y4062000D02*
X10290000Y6000000D01*
X7475000Y9375000D02*
X6329000Y8229000D01*
X6329000Y8229000D02*
X6329000Y4419000D01*
X6329000Y4419000D02*
X7218000Y3530000D01*
X7218000Y3530000D02*
X9758000Y3530000D01*
X9758000Y3530000D02*
X10290000Y4062000D01*
%TO.N,/SEG5*%
X26400000Y8725000D02*
X8730000Y8725000D01*
X8730000Y8725000D02*
X7750000Y7745000D01*
X7750000Y7745000D02*
X7750000Y6000000D01*
%TO.N,/SEG2*%
X20450000Y16160000D02*
X20450000Y11380000D01*
X20450000Y11380000D02*
X21155000Y10675000D01*
X21155000Y10675000D02*
X26400000Y10675000D01*
%TO.N,/GR6*%
X18648000Y18135000D02*
X17910000Y17397000D01*
X30918400Y16181400D02*
X31729000Y16992000D01*
X30918400Y11851698D02*
X30918400Y16181400D01*
X27411000Y18135000D02*
X18648000Y18135000D01*
X31983000Y17246000D02*
X31983000Y18135000D01*
X32095098Y10675000D02*
X30918400Y11851698D01*
X33600000Y10675000D02*
X32095098Y10675000D01*
X31729000Y16992000D02*
X31983000Y17246000D01*
X17910000Y17397000D02*
X17910000Y16160000D01*
%TO.N,/GR5*%
X33253000Y17398152D02*
X33253000Y19532000D01*
X31970424Y16115576D02*
X33253000Y17398152D01*
X25633000Y19532000D02*
X15981000Y19532000D01*
X15981000Y19532000D02*
X15370000Y18921000D01*
X15370000Y18921000D02*
X15370000Y16160000D01*
%TO.N,/GR4*%
X33600000Y11975000D02*
X32369400Y11975000D01*
X32369400Y11975000D02*
X32110000Y12234400D01*
X32110000Y12234400D02*
X32110000Y15468000D01*
X32110000Y15468000D02*
X34269000Y17627000D01*
X34269000Y17627000D02*
X34269000Y20548000D01*
%TO.N,GND*%
X25848500Y33210000D02*
X25848500Y34352500D01*
X25848500Y34352500D02*
X26395000Y34899000D01*
X34269000Y34899000D02*
X35412000Y33756000D01*
X35412000Y33756000D02*
X35412000Y16738000D01*
X26395000Y34899000D02*
X34269000Y34899000D01*
X35412000Y16738000D02*
X33600000Y14575000D01*
%TO.N,/GR5*%
X31475000Y15620152D02*
X31970424Y16115576D01*
X31475000Y13817000D02*
X31475000Y15620152D01*
X33600000Y11325000D02*
X32232249Y11325000D01*
X32232249Y11325000D02*
X31475000Y12082249D01*
X31475000Y12082249D02*
X31475000Y13817000D01*
%TO.N,/GR4*%
X7750000Y19429000D02*
X7750000Y16160000D01*
X26776000Y20548000D02*
X8869000Y20548000D01*
X8869000Y20548000D02*
X7750000Y19429000D01*
%TO.N,/GR3*%
X33600000Y12625000D02*
X48952000Y12625000D01*
X48952000Y12625000D02*
X50160000Y13833000D01*
X50160000Y13833000D02*
X50160000Y16160000D01*
%TO.N,/GR2*%
X33600000Y13275000D02*
X46935000Y13275000D01*
X46935000Y13275000D02*
X47620000Y13960000D01*
X47620000Y13960000D02*
X47620000Y16160000D01*
%TO.N,/COMMAND*%
X33600000Y13925000D02*
X39330000Y13925000D01*
X39330000Y13925000D02*
X40000000Y14595000D01*
X40000000Y14595000D02*
X40000000Y16160000D01*
%TO.N,/SCL*%
X26400000Y13275000D02*
X28062302Y13275000D01*
X28062302Y13275000D02*
X30332000Y15544698D01*
X30332000Y15544698D02*
X30332000Y23088000D01*
X30332000Y23088000D02*
X30967000Y23723000D01*
X30967000Y23723000D02*
X32872000Y23723000D01*
X32872000Y23723000D02*
X33810000Y24661000D01*
X33810000Y24661000D02*
X33810000Y25980000D01*
%TO.N,VCC*%
X31221000Y32380500D02*
X33761000Y32380500D01*
%TO.N,/SCL*%
X33761000Y30305500D02*
X33761000Y26029000D01*
X33761000Y26029000D02*
X33810000Y25980000D01*
%TO.N,/SDA*%
X31221000Y30305500D02*
X31221000Y26029000D01*
X31221000Y26029000D02*
X31270000Y25980000D01*
%TO.N,VCC*%
X31221000Y32380500D02*
X30564500Y32380500D01*
X30564500Y32380500D02*
X29735000Y33210000D01*
X29735000Y33210000D02*
X28973500Y33210000D01*
X28973500Y33210000D02*
X28973500Y32143500D01*
X28973500Y32143500D02*
X28448500Y31618500D01*
X28448500Y31618500D02*
X28448500Y30200000D01*
%TO.N,GND*%
X25848500Y33210000D02*
X25848500Y32270500D01*
X25848500Y32270500D02*
X26373500Y31745500D01*
X26373500Y31745500D02*
X26373500Y30200000D01*
X26190000Y25980000D02*
X26190000Y28217000D01*
X26190000Y28217000D02*
X26373500Y28400500D01*
X26373500Y28400500D02*
X26373500Y30200000D01*
%TO.N,VCC*%
X28448500Y30200000D02*
X28448500Y26261500D01*
X28448500Y26261500D02*
X28730000Y25980000D01*
%TO.N,/SDA*%
X26400000Y13925000D02*
X27925151Y13925000D01*
X29570000Y24358000D02*
X31192000Y25980000D01*
X27925151Y13925000D02*
X29570000Y15569849D01*
X31192000Y25980000D02*
X31270000Y25980000D01*
X29570000Y15569849D02*
X29570000Y24358000D01*
%TO.N,VCC*%
X26400000Y14575000D02*
X27788000Y14575000D01*
X27788000Y14575000D02*
X28730000Y15517000D01*
X28730000Y15517000D02*
X28730000Y25980000D01*
%TD*%
%TA.AperFunction,Conductor*%
%TO.N,GND*%
G36*
X59442539Y36479815D02*
G01*
X59488294Y36427011D01*
X59499500Y36375500D01*
X59499500Y624500D01*
X59479815Y557461D01*
X59427011Y511706D01*
X59375500Y500500D01*
X55129275Y500500D01*
X55062236Y520185D01*
X55016481Y572989D01*
X55006537Y642147D01*
X55035562Y705703D01*
X55041594Y712181D01*
X57020865Y2691452D01*
X57020870Y2691457D01*
X57029767Y2704773D01*
X57043083Y2724700D01*
X57069033Y2763539D01*
X57095102Y2802552D01*
X57126257Y2877767D01*
X57146234Y2925995D01*
X57172300Y3057041D01*
X57172300Y3190655D01*
X57172300Y5155017D01*
X57191985Y5222056D01*
X57208614Y5242694D01*
X57271139Y5305218D01*
X57380632Y5469086D01*
X57456051Y5651165D01*
X57494500Y5844459D01*
X57494500Y6041541D01*
X57494500Y6041544D01*
X57456052Y6234830D01*
X57456051Y6234831D01*
X57456051Y6234835D01*
X57453787Y6240300D01*
X57380635Y6416908D01*
X57380628Y6416921D01*
X57271139Y6580782D01*
X57271136Y6580786D01*
X57131785Y6720137D01*
X57131781Y6720140D01*
X56967920Y6829629D01*
X56967907Y6829636D01*
X56785839Y6905050D01*
X56785829Y6905053D01*
X56592543Y6943500D01*
X56592541Y6943500D01*
X56395459Y6943500D01*
X56395457Y6943500D01*
X56202170Y6905053D01*
X56202160Y6905050D01*
X56020092Y6829636D01*
X56020079Y6829629D01*
X55856218Y6720140D01*
X55851508Y6716274D01*
X55849806Y6718348D01*
X55798658Y6690418D01*
X55728966Y6695402D01*
X55673033Y6737274D01*
X55648616Y6802738D01*
X55648300Y6811584D01*
X55648300Y16550808D01*
X55646266Y16561031D01*
X55640166Y16591700D01*
X55622234Y16681853D01*
X55575720Y16794147D01*
X55571102Y16805296D01*
X55496870Y16916391D01*
X55402391Y17010870D01*
X54516560Y17896701D01*
X53624394Y18788868D01*
X53624390Y18788871D01*
X53583588Y18816134D01*
X53573902Y18822606D01*
X53513296Y18863102D01*
X53473063Y18879767D01*
X53466259Y18882586D01*
X53466258Y18882586D01*
X53389853Y18914234D01*
X53389845Y18914236D01*
X53258811Y18940300D01*
X53258807Y18940300D01*
X41822193Y18940300D01*
X41798062Y18935500D01*
X41736787Y18923312D01*
X41691145Y18914234D01*
X41691137Y18914231D01*
X41618835Y18884283D01*
X41618836Y18884282D01*
X41567706Y18863104D01*
X41507098Y18822606D01*
X41456609Y18788871D01*
X41456605Y18788868D01*
X40821609Y18153870D01*
X40774368Y18106630D01*
X40727128Y18059390D01*
X40652899Y17948299D01*
X40652898Y17948297D01*
X40645582Y17930635D01*
X40645579Y17930628D01*
X40643258Y17925022D01*
X40601766Y17824853D01*
X40580800Y17719447D01*
X40579607Y17713450D01*
X40579606Y17713446D01*
X40575700Y17693808D01*
X40575700Y17511042D01*
X40556015Y17444003D01*
X40503211Y17398248D01*
X40434053Y17388304D01*
X40413382Y17393111D01*
X40304537Y17428477D01*
X40150664Y17452848D01*
X40102352Y17460500D01*
X39897648Y17460500D01*
X39873656Y17456700D01*
X39695465Y17428478D01*
X39500776Y17365219D01*
X39318386Y17272285D01*
X39152786Y17151972D01*
X39008028Y17007214D01*
X38887715Y16841614D01*
X38794781Y16659224D01*
X38731522Y16464535D01*
X38699500Y16262352D01*
X38699500Y16057649D01*
X38731522Y15855466D01*
X38794781Y15660777D01*
X38858691Y15535347D01*
X38870750Y15511681D01*
X38887715Y15478387D01*
X39008028Y15312787D01*
X39152784Y15168031D01*
X39270584Y15082446D01*
X39273925Y15078114D01*
X39278903Y15075840D01*
X39295033Y15050741D01*
X39313251Y15027116D01*
X39314504Y15020443D01*
X39316677Y15017062D01*
X39321700Y14982127D01*
X39321700Y14927323D01*
X39302015Y14860284D01*
X39285381Y14839642D01*
X39085358Y14639619D01*
X39024035Y14606134D01*
X38997677Y14603300D01*
X35099000Y14603300D01*
X35031961Y14622985D01*
X34986206Y14675789D01*
X34975000Y14727300D01*
X34975000Y14847828D01*
X34974999Y14847845D01*
X34968598Y14907373D01*
X34968596Y14907380D01*
X34918354Y15042087D01*
X34918350Y15042094D01*
X34832190Y15157188D01*
X34832187Y15157191D01*
X34717093Y15243351D01*
X34717086Y15243355D01*
X34582379Y15293597D01*
X34582372Y15293599D01*
X34522844Y15300000D01*
X33825000Y15300000D01*
X33825000Y14774500D01*
X33822449Y14765815D01*
X33823738Y14756853D01*
X33812759Y14732813D01*
X33805315Y14707461D01*
X33798474Y14701534D01*
X33794713Y14693297D01*
X33772478Y14679008D01*
X33752511Y14661706D01*
X33741996Y14659419D01*
X33735935Y14655523D01*
X33701000Y14650500D01*
X33499000Y14650500D01*
X33431961Y14670185D01*
X33386206Y14722989D01*
X33375000Y14774500D01*
X33375000Y15300000D01*
X33200623Y15300000D01*
X33133584Y15319685D01*
X33087829Y15372489D01*
X33077885Y15441647D01*
X33106910Y15505203D01*
X33112942Y15511681D01*
X34795868Y17194607D01*
X34795870Y17194609D01*
X34805548Y17209093D01*
X34870102Y17305704D01*
X34885429Y17342707D01*
X34921234Y17429147D01*
X34947300Y17560193D01*
X34947300Y17693807D01*
X34947300Y19760017D01*
X34966985Y19827056D01*
X34983614Y19847694D01*
X35046139Y19910218D01*
X35155632Y20074086D01*
X35231051Y20256165D01*
X35243632Y20319418D01*
X35269500Y20449457D01*
X35269500Y20646544D01*
X35231052Y20839830D01*
X35231051Y20839831D01*
X35231051Y20839835D01*
X35231049Y20839840D01*
X35155635Y21021908D01*
X35155628Y21021921D01*
X35046139Y21185782D01*
X35046136Y21185786D01*
X34906785Y21325137D01*
X34906781Y21325140D01*
X34742920Y21434629D01*
X34742907Y21434636D01*
X34560839Y21510050D01*
X34560829Y21510053D01*
X34367543Y21548500D01*
X34367541Y21548500D01*
X34170459Y21548500D01*
X34170457Y21548500D01*
X33977170Y21510053D01*
X33977160Y21510050D01*
X33795092Y21434636D01*
X33795079Y21434629D01*
X33631218Y21325140D01*
X33631214Y21325137D01*
X33491863Y21185786D01*
X33491860Y21185782D01*
X33382371Y21021921D01*
X33382364Y21021908D01*
X33306950Y20839840D01*
X33306947Y20839830D01*
X33268498Y20646539D01*
X33268248Y20643992D01*
X33267744Y20642746D01*
X33267311Y20640566D01*
X33266897Y20640649D01*
X33242083Y20579206D01*
X33185046Y20538851D01*
X33157008Y20532752D01*
X33154461Y20532502D01*
X32961170Y20494053D01*
X32961160Y20494050D01*
X32779092Y20418636D01*
X32779079Y20418629D01*
X32615218Y20309140D01*
X32615214Y20309137D01*
X32475863Y20169786D01*
X32475860Y20169782D01*
X32366371Y20005921D01*
X32366364Y20005908D01*
X32290950Y19823840D01*
X32290947Y19823830D01*
X32252500Y19630544D01*
X32252500Y19433455D01*
X32285047Y19269832D01*
X32278820Y19200241D01*
X32235957Y19145063D01*
X32170067Y19121819D01*
X32139239Y19124024D01*
X32081545Y19135500D01*
X32081541Y19135500D01*
X31884459Y19135500D01*
X31884457Y19135500D01*
X31691170Y19097053D01*
X31691160Y19097050D01*
X31509092Y19021636D01*
X31509079Y19021629D01*
X31345218Y18912140D01*
X31345214Y18912137D01*
X31221981Y18788903D01*
X31160658Y18755418D01*
X31090966Y18760402D01*
X31035033Y18802274D01*
X31010616Y18867738D01*
X31010300Y18876584D01*
X31010300Y22755677D01*
X31018944Y22785118D01*
X31025468Y22815104D01*
X31029222Y22820120D01*
X31029985Y22822716D01*
X31046619Y22843358D01*
X31211642Y23008381D01*
X31272965Y23041866D01*
X31299323Y23044700D01*
X32938808Y23044700D01*
X32938809Y23044701D01*
X33069853Y23070766D01*
X33157140Y23106922D01*
X33193296Y23121898D01*
X33304391Y23196130D01*
X33398870Y23290609D01*
X34336870Y24228609D01*
X34351076Y24249870D01*
X34411102Y24339704D01*
X34434211Y24395495D01*
X34443635Y24418245D01*
X34457055Y24450644D01*
X34462234Y24463147D01*
X34469594Y24500156D01*
X34501978Y24562066D01*
X34526425Y24581695D01*
X34528291Y24582840D01*
X34528299Y24582843D01*
X34702821Y24709641D01*
X34855359Y24862179D01*
X34982157Y25036701D01*
X35080092Y25228911D01*
X35146754Y25434074D01*
X35161752Y25528770D01*
X35180500Y25647134D01*
X35180500Y26312867D01*
X35146754Y26525923D01*
X35146754Y26525926D01*
X35080092Y26731089D01*
X34982157Y26923299D01*
X34855359Y27097821D01*
X34702821Y27250359D01*
X34528299Y27377157D01*
X34528298Y27377158D01*
X34528296Y27377159D01*
X34507004Y27388008D01*
X34456209Y27435983D01*
X34439300Y27498492D01*
X34439300Y29155196D01*
X34458985Y29222235D01*
X34511789Y29267990D01*
X34524293Y29272901D01*
X34555334Y29283186D01*
X34704656Y29375288D01*
X34828712Y29499344D01*
X34920814Y29648666D01*
X34975999Y29815203D01*
X34986500Y29917991D01*
X34986499Y30693008D01*
X34975999Y30795797D01*
X34920814Y30962334D01*
X34828712Y31111656D01*
X34704656Y31235712D01*
X34701819Y31237462D01*
X34700283Y31239170D01*
X34698989Y31240193D01*
X34699163Y31240415D01*
X34655096Y31289406D01*
X34643872Y31358368D01*
X34671713Y31422451D01*
X34701817Y31448538D01*
X34704656Y31450288D01*
X34828712Y31574344D01*
X34920814Y31723666D01*
X34975999Y31890203D01*
X34986500Y31992991D01*
X34986499Y32768008D01*
X34975999Y32870797D01*
X34920814Y33037334D01*
X34828712Y33186656D01*
X34704656Y33310712D01*
X34555334Y33402814D01*
X34388797Y33457999D01*
X34388795Y33458000D01*
X34286010Y33468500D01*
X33235998Y33468500D01*
X33235980Y33468499D01*
X33133203Y33458000D01*
X33133200Y33457999D01*
X32966668Y33402815D01*
X32966663Y33402813D01*
X32817342Y33310711D01*
X32693289Y33186658D01*
X32650758Y33117703D01*
X32643170Y33110879D01*
X32638932Y33101597D01*
X32617632Y33087909D01*
X32598810Y33070979D01*
X32587174Y33068335D01*
X32580154Y33063823D01*
X32545219Y33058800D01*
X32436781Y33058800D01*
X32369742Y33078485D01*
X32331242Y33117703D01*
X32288712Y33186656D01*
X32164656Y33310712D01*
X32015334Y33402814D01*
X31848797Y33457999D01*
X31848795Y33458000D01*
X31746010Y33468500D01*
X30695998Y33468500D01*
X30695980Y33468499D01*
X30593203Y33458000D01*
X30593196Y33457998D01*
X30555435Y33445485D01*
X30485606Y33443084D01*
X30428751Y33475510D01*
X30172818Y33731443D01*
X30139333Y33792766D01*
X30136499Y33819124D01*
X30136499Y33910002D01*
X30136498Y33910019D01*
X30125999Y34012797D01*
X30125998Y34012800D01*
X30070814Y34179334D01*
X29978712Y34328656D01*
X29854656Y34452712D01*
X29705334Y34544814D01*
X29538797Y34599999D01*
X29538795Y34600000D01*
X29436010Y34610500D01*
X28510998Y34610500D01*
X28510980Y34610499D01*
X28408203Y34600000D01*
X28408200Y34599999D01*
X28241668Y34544815D01*
X28241663Y34544813D01*
X28092342Y34452711D01*
X27968289Y34328658D01*
X27876187Y34179337D01*
X27876185Y34179332D01*
X27876115Y34179120D01*
X27821001Y34012797D01*
X27821001Y34012796D01*
X27821000Y34012796D01*
X27810500Y33910017D01*
X27810500Y32509999D01*
X27810501Y32509982D01*
X27821000Y32407204D01*
X27821001Y32407201D01*
X27876115Y32240881D01*
X27876186Y32240666D01*
X27876190Y32240660D01*
X27917061Y32174395D01*
X27921376Y32158623D01*
X27930295Y32144920D01*
X27930406Y32125621D01*
X27935501Y32107002D01*
X27930608Y32090724D01*
X27930699Y32075052D01*
X27917067Y32045674D01*
X27916223Y32042863D01*
X27915415Y32041591D01*
X27847398Y31939796D01*
X27847398Y31939795D01*
X27840960Y31924254D01*
X27840957Y31924248D01*
X27796266Y31816354D01*
X27796264Y31816346D01*
X27778744Y31728270D01*
X27778745Y31728269D01*
X27770200Y31685307D01*
X27770200Y31415782D01*
X27750515Y31348743D01*
X27711298Y31310244D01*
X27642344Y31267713D01*
X27518288Y31143657D01*
X27518283Y31143651D01*
X27516241Y31140339D01*
X27514247Y31138547D01*
X27513807Y31137989D01*
X27513711Y31138065D01*
X27464291Y31093617D01*
X27395328Y31082398D01*
X27331247Y31110245D01*
X27305168Y31140344D01*
X27303319Y31143341D01*
X27303316Y31143345D01*
X27179345Y31267316D01*
X27030124Y31359357D01*
X27030119Y31359359D01*
X26863697Y31414506D01*
X26863690Y31414507D01*
X26760986Y31425000D01*
X26623500Y31425000D01*
X26623500Y28975001D01*
X26760972Y28975001D01*
X26760986Y28975002D01*
X26863697Y28985495D01*
X27030119Y29040642D01*
X27030124Y29040644D01*
X27179345Y29132685D01*
X27303318Y29256658D01*
X27305165Y29259652D01*
X27306969Y29261276D01*
X27307798Y29262323D01*
X27307976Y29262182D01*
X27357110Y29306379D01*
X27426073Y29317604D01*
X27490156Y29289764D01*
X27516243Y29259659D01*
X27518288Y29256344D01*
X27642344Y29132288D01*
X27711296Y29089759D01*
X27758021Y29037812D01*
X27770200Y28984220D01*
X27770200Y27234742D01*
X27761554Y27205298D01*
X27755031Y27175314D01*
X27751277Y27170301D01*
X27750515Y27167703D01*
X27733880Y27147060D01*
X27694815Y27107996D01*
X27633492Y27074511D01*
X27563800Y27079497D01*
X27507867Y27121369D01*
X27494748Y27143284D01*
X27494356Y27144124D01*
X27402315Y27293346D01*
X27278345Y27417316D01*
X27129124Y27509357D01*
X27129119Y27509359D01*
X26962697Y27564506D01*
X26962690Y27564507D01*
X26859986Y27575000D01*
X26440000Y27575000D01*
X26440000Y26522710D01*
X26419661Y26534452D01*
X26268333Y26575000D01*
X26111667Y26575000D01*
X25960339Y26534452D01*
X25940000Y26522710D01*
X25940000Y27575000D01*
X25520028Y27575000D01*
X25520012Y27574999D01*
X25417302Y27564506D01*
X25250880Y27509359D01*
X25250875Y27509357D01*
X25101654Y27417316D01*
X24977684Y27293346D01*
X24885643Y27144125D01*
X24885641Y27144120D01*
X24830494Y26977698D01*
X24830493Y26977691D01*
X24820000Y26874987D01*
X24820000Y26230000D01*
X25647291Y26230000D01*
X25635548Y26209661D01*
X25595000Y26058333D01*
X25595000Y25901667D01*
X25635548Y25750339D01*
X25647291Y25730000D01*
X24820001Y25730000D01*
X24820001Y25085014D01*
X24830494Y24982303D01*
X24885641Y24815881D01*
X24885643Y24815876D01*
X24977684Y24666655D01*
X25101654Y24542685D01*
X25250875Y24450644D01*
X25250880Y24450642D01*
X25417302Y24395495D01*
X25417309Y24395494D01*
X25520019Y24385001D01*
X25939999Y24385001D01*
X25940000Y24385002D01*
X25940000Y25437291D01*
X25960339Y25425548D01*
X26111667Y25385000D01*
X26268333Y25385000D01*
X26419661Y25425548D01*
X26440000Y25437291D01*
X26440000Y24385001D01*
X26859972Y24385001D01*
X26859986Y24385002D01*
X26962697Y24395495D01*
X27129119Y24450642D01*
X27129124Y24450644D01*
X27278345Y24542685D01*
X27402315Y24666655D01*
X27494354Y24815873D01*
X27494745Y24816711D01*
X27495167Y24817191D01*
X27498149Y24822025D01*
X27498974Y24821516D01*
X27540910Y24869157D01*
X27608100Y24888319D01*
X27674984Y24868113D01*
X27694816Y24852004D01*
X27837179Y24709641D01*
X28000586Y24590918D01*
X28043251Y24535589D01*
X28051700Y24490601D01*
X28051700Y19138127D01*
X28032015Y19071088D01*
X27979211Y19025333D01*
X27910053Y19015389D01*
X27880248Y19023566D01*
X27702839Y19097050D01*
X27702829Y19097053D01*
X27509543Y19135500D01*
X27509541Y19135500D01*
X27312459Y19135500D01*
X27312457Y19135500D01*
X27119170Y19097053D01*
X27119160Y19097050D01*
X26937092Y19021636D01*
X26937079Y19021629D01*
X26773219Y18912141D01*
X26755297Y18894218D01*
X26710696Y18849618D01*
X26683765Y18834912D01*
X26657952Y18818323D01*
X26651752Y18817432D01*
X26649376Y18816134D01*
X26623017Y18813300D01*
X26588059Y18813300D01*
X26521020Y18832985D01*
X26475265Y18885789D01*
X26465321Y18954947D01*
X26484957Y19006191D01*
X26497747Y19025333D01*
X26519632Y19058086D01*
X26595051Y19240165D01*
X26633500Y19433459D01*
X26633716Y19435649D01*
X26634149Y19436724D01*
X26634689Y19439434D01*
X26635202Y19439332D01*
X26659874Y19500437D01*
X26716907Y19540799D01*
X26757119Y19547500D01*
X26874543Y19547500D01*
X27004582Y19573368D01*
X27067835Y19585949D01*
X27249914Y19661368D01*
X27413782Y19770861D01*
X27553139Y19910218D01*
X27662632Y20074086D01*
X27738051Y20256165D01*
X27750632Y20319418D01*
X27776500Y20449457D01*
X27776500Y20646544D01*
X27738052Y20839830D01*
X27738051Y20839831D01*
X27738051Y20839835D01*
X27738049Y20839840D01*
X27662635Y21021908D01*
X27662628Y21021921D01*
X27553139Y21185782D01*
X27553136Y21185786D01*
X27413785Y21325137D01*
X27413781Y21325140D01*
X27249920Y21434629D01*
X27249907Y21434636D01*
X27067839Y21510050D01*
X27067829Y21510053D01*
X26874543Y21548500D01*
X26874541Y21548500D01*
X26677459Y21548500D01*
X26677457Y21548500D01*
X26484170Y21510053D01*
X26484160Y21510050D01*
X26302092Y21434636D01*
X26302079Y21434629D01*
X26138219Y21325141D01*
X26106959Y21293880D01*
X26075696Y21262618D01*
X26014376Y21229134D01*
X25988017Y21226300D01*
X8802188Y21226300D01*
X8671152Y21200236D01*
X8671136Y21200231D01*
X8583860Y21164081D01*
X8583861Y21164080D01*
X8547702Y21149102D01*
X8436609Y21074871D01*
X8436605Y21074868D01*
X7531525Y20169786D01*
X7317609Y19955870D01*
X7271959Y19910220D01*
X7223128Y19861390D01*
X7148899Y19750300D01*
X7140430Y19729852D01*
X7097766Y19626854D01*
X7097764Y19626846D01*
X7076929Y19522105D01*
X7076930Y19522104D01*
X7071700Y19495808D01*
X7071700Y17337874D01*
X7052015Y17270835D01*
X7020585Y17237556D01*
X6902787Y17151972D01*
X6902782Y17151968D01*
X6758028Y17007214D01*
X6637715Y16841614D01*
X6544781Y16659224D01*
X6481522Y16464535D01*
X6449500Y16262352D01*
X6449500Y16057649D01*
X6481522Y15855466D01*
X6544781Y15660777D01*
X6608691Y15535347D01*
X6620750Y15511681D01*
X6637715Y15478387D01*
X6758028Y15312787D01*
X6902786Y15168029D01*
X7026546Y15078114D01*
X7068390Y15047713D01*
X7182300Y14989673D01*
X7250776Y14954782D01*
X7250778Y14954782D01*
X7250781Y14954780D01*
X7355137Y14920873D01*
X7445465Y14891523D01*
X7543719Y14875961D01*
X7647648Y14859500D01*
X7647649Y14859500D01*
X7852351Y14859500D01*
X7852352Y14859500D01*
X8054534Y14891523D01*
X8249219Y14954780D01*
X8431610Y15047713D01*
X8545282Y15130300D01*
X8597213Y15168029D01*
X8597215Y15168032D01*
X8597219Y15168034D01*
X8741966Y15312781D01*
X8741968Y15312785D01*
X8741971Y15312787D01*
X8862284Y15478386D01*
X8862285Y15478387D01*
X8862287Y15478390D01*
X8909516Y15571083D01*
X8957489Y15621877D01*
X9025310Y15638672D01*
X9091445Y15616135D01*
X9130483Y15571083D01*
X9164051Y15505203D01*
X9177715Y15478386D01*
X9298028Y15312787D01*
X9442786Y15168029D01*
X9566546Y15078114D01*
X9608390Y15047713D01*
X9722300Y14989673D01*
X9790776Y14954782D01*
X9790778Y14954782D01*
X9790781Y14954780D01*
X9895137Y14920873D01*
X9985465Y14891523D01*
X10083719Y14875961D01*
X10187648Y14859500D01*
X10187649Y14859500D01*
X10392351Y14859500D01*
X10392352Y14859500D01*
X10594534Y14891523D01*
X10789219Y14954780D01*
X10971610Y15047713D01*
X11085282Y15130300D01*
X11137213Y15168029D01*
X11137215Y15168032D01*
X11137219Y15168034D01*
X11281966Y15312781D01*
X11281968Y15312785D01*
X11281971Y15312787D01*
X11402284Y15478386D01*
X11402285Y15478387D01*
X11402287Y15478390D01*
X11449516Y15571083D01*
X11497489Y15621877D01*
X11565310Y15638672D01*
X11631445Y15616135D01*
X11670483Y15571083D01*
X11704051Y15505203D01*
X11717715Y15478386D01*
X11838028Y15312787D01*
X11982784Y15168031D01*
X12100584Y15082446D01*
X12143251Y15027116D01*
X12151700Y14982127D01*
X12151700Y11760323D01*
X12132015Y11693284D01*
X12115381Y11672642D01*
X11738958Y11296219D01*
X11677635Y11262734D01*
X11651277Y11259900D01*
X6811637Y11259900D01*
X6680603Y11233836D01*
X6680591Y11233833D01*
X6629462Y11212655D01*
X6629463Y11212654D01*
X6557155Y11182704D01*
X6474010Y11127147D01*
X6474009Y11127146D01*
X6446055Y11108469D01*
X4687568Y9349982D01*
X4610532Y9272947D01*
X4610529Y9272943D01*
X4536299Y9161851D01*
X4536298Y9161849D01*
X4521733Y9126686D01*
X4521731Y9126680D01*
X4519292Y9120791D01*
X4485166Y9038405D01*
X4465812Y8941102D01*
X4464683Y8935428D01*
X4464678Y8935410D01*
X4459100Y8907364D01*
X4459100Y3765789D01*
X4485164Y3634755D01*
X4485166Y3634747D01*
X4519051Y3552942D01*
X4536298Y3511304D01*
X4536299Y3511302D01*
X4610529Y3400210D01*
X4610532Y3400206D01*
X6231730Y1779009D01*
X6326209Y1684530D01*
X6437304Y1610298D01*
X6473459Y1595322D01*
X6560747Y1559166D01*
X6691788Y1533101D01*
X6691792Y1533100D01*
X6691793Y1533100D01*
X6825407Y1533100D01*
X19693310Y1533100D01*
X19760349Y1513415D01*
X19806104Y1460611D01*
X19816048Y1391453D01*
X19814927Y1384908D01*
X19806500Y1342544D01*
X19806500Y1342541D01*
X19806500Y1145459D01*
X19806500Y1145457D01*
X19806499Y1145457D01*
X19844947Y952171D01*
X19844950Y952161D01*
X19920364Y770093D01*
X19920374Y770075D01*
X19971613Y693390D01*
X19992491Y626713D01*
X19974006Y559333D01*
X19922027Y512643D01*
X19868511Y500500D01*
X624500Y500500D01*
X557461Y520185D01*
X511706Y572989D01*
X500500Y624500D01*
X500500Y24620172D01*
X14430217Y24620172D01*
X21473864Y24620172D01*
X21473864Y28596006D01*
X14430217Y28596006D01*
X14430217Y24620172D01*
X500500Y24620172D01*
X500500Y29675014D01*
X25286001Y29675014D01*
X25296494Y29572303D01*
X25351641Y29405881D01*
X25351643Y29405876D01*
X25443684Y29256655D01*
X25567654Y29132685D01*
X25716875Y29040644D01*
X25716880Y29040642D01*
X25883302Y28985495D01*
X25883309Y28985494D01*
X25986019Y28975001D01*
X26123499Y28975001D01*
X26123500Y28975002D01*
X26123500Y29950000D01*
X25286001Y29950000D01*
X25286001Y29675014D01*
X500500Y29675014D01*
X500500Y30724987D01*
X25286000Y30724987D01*
X25286000Y30450000D01*
X26123500Y30450000D01*
X26123500Y31425000D01*
X25986027Y31425000D01*
X25986012Y31424999D01*
X25883302Y31414506D01*
X25716880Y31359359D01*
X25716875Y31359357D01*
X25567654Y31267316D01*
X25443684Y31143346D01*
X25351643Y30994125D01*
X25351641Y30994120D01*
X25296494Y30827698D01*
X25296493Y30827691D01*
X25286000Y30724987D01*
X500500Y30724987D01*
X500500Y32510014D01*
X24686001Y32510014D01*
X24696494Y32407303D01*
X24751641Y32240881D01*
X24751643Y32240876D01*
X24843684Y32091655D01*
X24967654Y31967685D01*
X25116875Y31875644D01*
X25116880Y31875642D01*
X25283302Y31820495D01*
X25283309Y31820494D01*
X25386019Y31810001D01*
X25598499Y31810001D01*
X26098500Y31810001D01*
X26310972Y31810001D01*
X26310986Y31810002D01*
X26413697Y31820495D01*
X26580119Y31875642D01*
X26580124Y31875644D01*
X26729345Y31967685D01*
X26853315Y32091655D01*
X26945356Y32240876D01*
X26945358Y32240881D01*
X27000505Y32407303D01*
X27000506Y32407310D01*
X27010999Y32510014D01*
X27011000Y32510027D01*
X27011000Y32960000D01*
X26098500Y32960000D01*
X26098500Y31810001D01*
X25598499Y31810001D01*
X25598500Y31810002D01*
X25598500Y32960000D01*
X24686001Y32960000D01*
X24686001Y32510014D01*
X500500Y32510014D01*
X500500Y33909987D01*
X24686000Y33909987D01*
X24686000Y33460000D01*
X25598500Y33460000D01*
X26098500Y33460000D01*
X27010999Y33460000D01*
X27010999Y33909972D01*
X27010998Y33909987D01*
X27000505Y34012698D01*
X26945358Y34179120D01*
X26945356Y34179125D01*
X26853315Y34328346D01*
X26729345Y34452316D01*
X26580124Y34544357D01*
X26580119Y34544359D01*
X26413697Y34599506D01*
X26413690Y34599507D01*
X26310986Y34610000D01*
X26098500Y34610000D01*
X26098500Y33460000D01*
X25598500Y33460000D01*
X25598500Y34610000D01*
X25386029Y34610000D01*
X25386012Y34609999D01*
X25283302Y34599506D01*
X25116880Y34544359D01*
X25116875Y34544357D01*
X24967654Y34452316D01*
X24843684Y34328346D01*
X24751643Y34179125D01*
X24751641Y34179120D01*
X24696494Y34012698D01*
X24696493Y34012691D01*
X24686000Y33909987D01*
X500500Y33909987D01*
X500500Y36375500D01*
X520185Y36442539D01*
X572989Y36488294D01*
X624500Y36499500D01*
X59375500Y36499500D01*
X59442539Y36479815D01*
G37*
%TD.AperFunction*%
%TD*%
M02*
