M48
; DRILL file {KiCad 9.0.2-9.0.2-0~ubuntu24.04.1} date 2025-05-28T18:06:14+0200
; FORMAT={-:-/ absolute / metric / decimal}
; #@! TF.CreationDate,2025-05-28T18:06:14+02:00
; #@! TF.GenerationSoftware,Kicad,Pcbnew,9.0.2-9.0.2-0~ubuntu24.04.1
; #@! TF.FileFunction,MixedPlating,1,2
FMAT,2
METRIC
; #@! TA.AperFunction,Plated,PTH,ViaDrill
T1C0.600
; #@! TA.AperFunction,Plated,PTH,ComponentDrill
T2C0.800
; #@! TA.AperFunction,Plated,PTH,ComponentDrill
T3C1.190
%
G90
G05
T1
X3.431Y46.178
X5.207Y36.882
X5.26Y44.248
X5.26Y39.472
X10.797Y38.71
X10.825Y47.885
X12.677Y45.416
X17.842Y48.439
X23.192Y12.904
X23.853Y32.919
X23.853Y24.791
X24.107Y35.053
X26.952Y37.44
X27.409Y12.904
T2
X9.0Y52.25
X9.0Y49.71
X9.0Y47.17
X9.0Y44.63
X9.0Y42.09
X9.0Y20.0
X9.0Y17.46
X9.0Y14.92
X9.0Y12.38
X9.0Y9.84
X19.16Y52.25
X19.16Y49.71
X19.16Y47.17
X19.16Y44.63
X19.16Y42.09
X19.16Y39.55
X19.16Y20.0
X19.16Y17.46
X19.16Y14.92
X19.16Y12.38
X19.16Y9.84
X19.16Y7.3
T3
X28.98Y33.81
X28.98Y31.27
X28.98Y28.73
X28.98Y26.19
M30
