M48
; DRILL file {KiCad 9.0.4} date 2025-09-06T12:10:03+0200
; FORMAT={-:-/ absolute / metric / decimal}
; #@! TF.CreationDate,2025-09-06T12:10:03+02:00
; #@! TF.GenerationSoftware,Kicad,Pcbnew,9.0.4
; #@! TF.FileFunction,Plated,1,2,PTH
FMAT,2
METRIC
; #@! TA.AperFunction,Plated,PTH,ViaDrill
T1C0.500
; #@! TA.AperFunction,Plated,PTH,ComponentDrill
T2C0.750
; #@! TA.AperFunction,Plated,PTH,ComponentDrill
T3C1.000
; #@! TA.AperFunction,Plated,PTH,ComponentDrill
T4C1.100
; #@! TA.AperFunction,Plated,PTH,ComponentDrill
T5C2.200
%
G90
G05
T1
X10.114Y49.955
X18.287Y92.191
X20.828Y59.69
X20.828Y57.658
X22.738Y51.999
X22.738Y46.694
X23.33Y59.765
X25.139Y53.919
X26.416Y69.342
X27.808Y43.859
X28.702Y69.342
X28.718Y54.866
X30.302Y51.994
X31.242Y41.656
X32.564Y49.008
X35.706Y44.4
X36.921Y44.049
X39.878Y59.436
X41.278Y51.611
X41.278Y41.722
X43.916Y70.02
X45.634Y41.721
X46.665Y51.343
X49.991Y58.154
X53.166Y44.642
X55.768Y51.016
X59.875Y46.518
X63.061Y53.483
X63.061Y49.725
X69.088Y45.847
X70.35Y53.0
X70.351Y51.611
X70.592Y54.968
X72.106Y59.47
X73.247Y29.508
X77.626Y44.132
X78.634Y55.072
X84.346Y58.617
X84.844Y45.598
T2
X22.425Y76.976
X24.425Y76.976
X26.425Y76.976
X28.425Y76.976
X73.276Y24.446
X75.276Y24.446
X77.276Y24.446
X79.276Y24.446
T3
X13.056Y11.66
X13.056Y5.46
X13.111Y96.433
X13.111Y90.233
X13.111Y67.433
X13.111Y61.233
X13.111Y38.433
X13.111Y32.233
X35.611Y86.333
X35.611Y57.283
X35.611Y28.283
X35.676Y1.799
X38.111Y86.333
X38.111Y57.283
X38.111Y28.283
X38.176Y1.799
X40.611Y86.333
X40.611Y57.283
X40.611Y28.283
X40.676Y1.799
X59.49Y86.304
X59.59Y57.304
X59.59Y28.304
X59.755Y1.799
X61.99Y86.304
X62.09Y57.304
X62.09Y28.304
X62.255Y1.799
X64.49Y86.304
X64.59Y57.304
X64.59Y28.304
X64.755Y1.799
X86.99Y38.454
X86.99Y32.254
X87.19Y96.654
X87.19Y90.454
X87.249Y11.812
X87.249Y5.612
X87.49Y67.554
X87.49Y61.354
T4
X9.806Y10.81
X9.806Y6.31
X9.861Y95.583
X9.861Y91.083
X9.861Y66.583
X9.861Y62.083
X9.861Y37.583
X9.861Y33.083
X16.306Y10.81
X16.306Y6.31
X16.361Y95.583
X16.361Y91.083
X16.361Y66.583
X16.361Y62.083
X16.361Y37.583
X16.361Y33.083
X83.74Y37.604
X83.74Y33.104
X83.94Y95.804
X83.94Y91.304
X83.999Y10.962
X83.999Y6.462
X84.24Y66.704
X84.24Y62.204
X90.24Y37.604
X90.24Y33.104
X90.44Y95.804
X90.44Y91.304
X90.499Y10.962
X90.499Y6.462
X90.74Y66.704
X90.74Y62.204
T5
X33.711Y93.333
X33.711Y64.283
X33.711Y35.283
X33.776Y8.799
X42.511Y93.333
X42.511Y64.283
X42.511Y35.283
X42.576Y8.799
X57.59Y93.304
X57.69Y64.304
X57.69Y35.304
X57.855Y8.799
X66.39Y93.304
X66.49Y64.304
X66.49Y35.304
X66.655Y8.799
M30
