%TF.GenerationSoftware,KiCad,Pcbnew,9.0.4*%
%TF.CreationDate,2025-09-06T12:09:45+02:00*%
%TF.ProjectId,FX-Pots,46582d50-6f74-4732-9e6b-696361645f70,rev?*%
%TF.SameCoordinates,PX4c4db10PY8578750*%
%TF.FileFunction,Legend,Bot*%
%TF.FilePolarity,Positive*%
%FSLAX46Y46*%
G04 Gerber Fmt 4.6, Leading zero omitted, Abs format (unit mm)*
G04 Created by KiCad (PCBNEW 9.0.4) date 2025-09-06 12:09:45*
%MOMM*%
%LPD*%
G01*
G04 APERTURE LIST*
%ADD10C,0.125000*%
%ADD11C,0.150000*%
%ADD12C,0.120000*%
%TA.AperFunction,Profile*%
%ADD13C,0.050000*%
%TD*%
G04 APERTURE END LIST*
D10*
X63938906Y25063860D02*
X63891287Y25159098D01*
X63891287Y25159098D02*
X63891287Y25301955D01*
X63891287Y25301955D02*
X63938906Y25444812D01*
X63938906Y25444812D02*
X64034144Y25540050D01*
X64034144Y25540050D02*
X64129382Y25587669D01*
X64129382Y25587669D02*
X64319858Y25635288D01*
X64319858Y25635288D02*
X64462715Y25635288D01*
X64462715Y25635288D02*
X64653191Y25587669D01*
X64653191Y25587669D02*
X64748429Y25540050D01*
X64748429Y25540050D02*
X64843668Y25444812D01*
X64843668Y25444812D02*
X64891287Y25301955D01*
X64891287Y25301955D02*
X64891287Y25206717D01*
X64891287Y25206717D02*
X64843668Y25063860D01*
X64843668Y25063860D02*
X64796048Y25016241D01*
X64796048Y25016241D02*
X64462715Y25016241D01*
X64462715Y25016241D02*
X64462715Y25206717D01*
X64891287Y24587669D02*
X63891287Y24587669D01*
X63891287Y24587669D02*
X64891287Y24016241D01*
X64891287Y24016241D02*
X63891287Y24016241D01*
X64891287Y23540050D02*
X63891287Y23540050D01*
X63891287Y23540050D02*
X63891287Y23301955D01*
X63891287Y23301955D02*
X63938906Y23159098D01*
X63938906Y23159098D02*
X64034144Y23063860D01*
X64034144Y23063860D02*
X64129382Y23016241D01*
X64129382Y23016241D02*
X64319858Y22968622D01*
X64319858Y22968622D02*
X64462715Y22968622D01*
X64462715Y22968622D02*
X64653191Y23016241D01*
X64653191Y23016241D02*
X64748429Y23063860D01*
X64748429Y23063860D02*
X64843668Y23159098D01*
X64843668Y23159098D02*
X64891287Y23301955D01*
X64891287Y23301955D02*
X64891287Y23540050D01*
X65501231Y25111479D02*
X65501231Y25587669D01*
X65501231Y25587669D02*
X65977421Y25635288D01*
X65977421Y25635288D02*
X65929802Y25587669D01*
X65929802Y25587669D02*
X65882183Y25492431D01*
X65882183Y25492431D02*
X65882183Y25254336D01*
X65882183Y25254336D02*
X65929802Y25159098D01*
X65929802Y25159098D02*
X65977421Y25111479D01*
X65977421Y25111479D02*
X66072659Y25063860D01*
X66072659Y25063860D02*
X66310754Y25063860D01*
X66310754Y25063860D02*
X66405992Y25111479D01*
X66405992Y25111479D02*
X66453612Y25159098D01*
X66453612Y25159098D02*
X66501231Y25254336D01*
X66501231Y25254336D02*
X66501231Y25492431D01*
X66501231Y25492431D02*
X66453612Y25587669D01*
X66453612Y25587669D02*
X66405992Y25635288D01*
X65501231Y24778145D02*
X66501231Y24444812D01*
X66501231Y24444812D02*
X65501231Y24111479D01*
X68063556Y25635288D02*
X68111175Y25492431D01*
X68111175Y25492431D02*
X68111175Y25254336D01*
X68111175Y25254336D02*
X68063556Y25159098D01*
X68063556Y25159098D02*
X68015936Y25111479D01*
X68015936Y25111479D02*
X67920698Y25063860D01*
X67920698Y25063860D02*
X67825460Y25063860D01*
X67825460Y25063860D02*
X67730222Y25111479D01*
X67730222Y25111479D02*
X67682603Y25159098D01*
X67682603Y25159098D02*
X67634984Y25254336D01*
X67634984Y25254336D02*
X67587365Y25444812D01*
X67587365Y25444812D02*
X67539746Y25540050D01*
X67539746Y25540050D02*
X67492127Y25587669D01*
X67492127Y25587669D02*
X67396889Y25635288D01*
X67396889Y25635288D02*
X67301651Y25635288D01*
X67301651Y25635288D02*
X67206413Y25587669D01*
X67206413Y25587669D02*
X67158794Y25540050D01*
X67158794Y25540050D02*
X67111175Y25444812D01*
X67111175Y25444812D02*
X67111175Y25206717D01*
X67111175Y25206717D02*
X67158794Y25063860D01*
X68111175Y24635288D02*
X67111175Y24635288D01*
X67111175Y24635288D02*
X67111175Y24397193D01*
X67111175Y24397193D02*
X67158794Y24254336D01*
X67158794Y24254336D02*
X67254032Y24159098D01*
X67254032Y24159098D02*
X67349270Y24111479D01*
X67349270Y24111479D02*
X67539746Y24063860D01*
X67539746Y24063860D02*
X67682603Y24063860D01*
X67682603Y24063860D02*
X67873079Y24111479D01*
X67873079Y24111479D02*
X67968317Y24159098D01*
X67968317Y24159098D02*
X68063556Y24254336D01*
X68063556Y24254336D02*
X68111175Y24397193D01*
X68111175Y24397193D02*
X68111175Y24635288D01*
X67825460Y23682907D02*
X67825460Y23206717D01*
X68111175Y23778145D02*
X67111175Y23444812D01*
X67111175Y23444812D02*
X68111175Y23111479D01*
X69673500Y25635288D02*
X69721119Y25492431D01*
X69721119Y25492431D02*
X69721119Y25254336D01*
X69721119Y25254336D02*
X69673500Y25159098D01*
X69673500Y25159098D02*
X69625880Y25111479D01*
X69625880Y25111479D02*
X69530642Y25063860D01*
X69530642Y25063860D02*
X69435404Y25063860D01*
X69435404Y25063860D02*
X69340166Y25111479D01*
X69340166Y25111479D02*
X69292547Y25159098D01*
X69292547Y25159098D02*
X69244928Y25254336D01*
X69244928Y25254336D02*
X69197309Y25444812D01*
X69197309Y25444812D02*
X69149690Y25540050D01*
X69149690Y25540050D02*
X69102071Y25587669D01*
X69102071Y25587669D02*
X69006833Y25635288D01*
X69006833Y25635288D02*
X68911595Y25635288D01*
X68911595Y25635288D02*
X68816357Y25587669D01*
X68816357Y25587669D02*
X68768738Y25540050D01*
X68768738Y25540050D02*
X68721119Y25444812D01*
X68721119Y25444812D02*
X68721119Y25206717D01*
X68721119Y25206717D02*
X68768738Y25063860D01*
X69625880Y24063860D02*
X69673500Y24111479D01*
X69673500Y24111479D02*
X69721119Y24254336D01*
X69721119Y24254336D02*
X69721119Y24349574D01*
X69721119Y24349574D02*
X69673500Y24492431D01*
X69673500Y24492431D02*
X69578261Y24587669D01*
X69578261Y24587669D02*
X69483023Y24635288D01*
X69483023Y24635288D02*
X69292547Y24682907D01*
X69292547Y24682907D02*
X69149690Y24682907D01*
X69149690Y24682907D02*
X68959214Y24635288D01*
X68959214Y24635288D02*
X68863976Y24587669D01*
X68863976Y24587669D02*
X68768738Y24492431D01*
X68768738Y24492431D02*
X68721119Y24349574D01*
X68721119Y24349574D02*
X68721119Y24254336D01*
X68721119Y24254336D02*
X68768738Y24111479D01*
X68768738Y24111479D02*
X68816357Y24063860D01*
X69721119Y23159098D02*
X69721119Y23635288D01*
X69721119Y23635288D02*
X68721119Y23635288D01*
X16440906Y73330100D02*
X16393287Y73425338D01*
X16393287Y73425338D02*
X16393287Y73568195D01*
X16393287Y73568195D02*
X16440906Y73711052D01*
X16440906Y73711052D02*
X16536144Y73806290D01*
X16536144Y73806290D02*
X16631382Y73853909D01*
X16631382Y73853909D02*
X16821858Y73901528D01*
X16821858Y73901528D02*
X16964715Y73901528D01*
X16964715Y73901528D02*
X17155191Y73853909D01*
X17155191Y73853909D02*
X17250429Y73806290D01*
X17250429Y73806290D02*
X17345668Y73711052D01*
X17345668Y73711052D02*
X17393287Y73568195D01*
X17393287Y73568195D02*
X17393287Y73472957D01*
X17393287Y73472957D02*
X17345668Y73330100D01*
X17345668Y73330100D02*
X17298048Y73282481D01*
X17298048Y73282481D02*
X16964715Y73282481D01*
X16964715Y73282481D02*
X16964715Y73472957D01*
X17393287Y72853909D02*
X16393287Y72853909D01*
X16393287Y72853909D02*
X17393287Y72282481D01*
X17393287Y72282481D02*
X16393287Y72282481D01*
X17393287Y71806290D02*
X16393287Y71806290D01*
X16393287Y71806290D02*
X16393287Y71568195D01*
X16393287Y71568195D02*
X16440906Y71425338D01*
X16440906Y71425338D02*
X16536144Y71330100D01*
X16536144Y71330100D02*
X16631382Y71282481D01*
X16631382Y71282481D02*
X16821858Y71234862D01*
X16821858Y71234862D02*
X16964715Y71234862D01*
X16964715Y71234862D02*
X17155191Y71282481D01*
X17155191Y71282481D02*
X17250429Y71330100D01*
X17250429Y71330100D02*
X17345668Y71425338D01*
X17345668Y71425338D02*
X17393287Y71568195D01*
X17393287Y71568195D02*
X17393287Y71806290D01*
X18003231Y73377719D02*
X18003231Y73853909D01*
X18003231Y73853909D02*
X18479421Y73901528D01*
X18479421Y73901528D02*
X18431802Y73853909D01*
X18431802Y73853909D02*
X18384183Y73758671D01*
X18384183Y73758671D02*
X18384183Y73520576D01*
X18384183Y73520576D02*
X18431802Y73425338D01*
X18431802Y73425338D02*
X18479421Y73377719D01*
X18479421Y73377719D02*
X18574659Y73330100D01*
X18574659Y73330100D02*
X18812754Y73330100D01*
X18812754Y73330100D02*
X18907992Y73377719D01*
X18907992Y73377719D02*
X18955612Y73425338D01*
X18955612Y73425338D02*
X19003231Y73520576D01*
X19003231Y73520576D02*
X19003231Y73758671D01*
X19003231Y73758671D02*
X18955612Y73853909D01*
X18955612Y73853909D02*
X18907992Y73901528D01*
X18003231Y73044385D02*
X19003231Y72711052D01*
X19003231Y72711052D02*
X18003231Y72377719D01*
X20565556Y73901528D02*
X20613175Y73758671D01*
X20613175Y73758671D02*
X20613175Y73520576D01*
X20613175Y73520576D02*
X20565556Y73425338D01*
X20565556Y73425338D02*
X20517936Y73377719D01*
X20517936Y73377719D02*
X20422698Y73330100D01*
X20422698Y73330100D02*
X20327460Y73330100D01*
X20327460Y73330100D02*
X20232222Y73377719D01*
X20232222Y73377719D02*
X20184603Y73425338D01*
X20184603Y73425338D02*
X20136984Y73520576D01*
X20136984Y73520576D02*
X20089365Y73711052D01*
X20089365Y73711052D02*
X20041746Y73806290D01*
X20041746Y73806290D02*
X19994127Y73853909D01*
X19994127Y73853909D02*
X19898889Y73901528D01*
X19898889Y73901528D02*
X19803651Y73901528D01*
X19803651Y73901528D02*
X19708413Y73853909D01*
X19708413Y73853909D02*
X19660794Y73806290D01*
X19660794Y73806290D02*
X19613175Y73711052D01*
X19613175Y73711052D02*
X19613175Y73472957D01*
X19613175Y73472957D02*
X19660794Y73330100D01*
X20613175Y72901528D02*
X19613175Y72901528D01*
X19613175Y72901528D02*
X19613175Y72663433D01*
X19613175Y72663433D02*
X19660794Y72520576D01*
X19660794Y72520576D02*
X19756032Y72425338D01*
X19756032Y72425338D02*
X19851270Y72377719D01*
X19851270Y72377719D02*
X20041746Y72330100D01*
X20041746Y72330100D02*
X20184603Y72330100D01*
X20184603Y72330100D02*
X20375079Y72377719D01*
X20375079Y72377719D02*
X20470317Y72425338D01*
X20470317Y72425338D02*
X20565556Y72520576D01*
X20565556Y72520576D02*
X20613175Y72663433D01*
X20613175Y72663433D02*
X20613175Y72901528D01*
X20327460Y71949147D02*
X20327460Y71472957D01*
X20613175Y72044385D02*
X19613175Y71711052D01*
X19613175Y71711052D02*
X20613175Y71377719D01*
X22175500Y73901528D02*
X22223119Y73758671D01*
X22223119Y73758671D02*
X22223119Y73520576D01*
X22223119Y73520576D02*
X22175500Y73425338D01*
X22175500Y73425338D02*
X22127880Y73377719D01*
X22127880Y73377719D02*
X22032642Y73330100D01*
X22032642Y73330100D02*
X21937404Y73330100D01*
X21937404Y73330100D02*
X21842166Y73377719D01*
X21842166Y73377719D02*
X21794547Y73425338D01*
X21794547Y73425338D02*
X21746928Y73520576D01*
X21746928Y73520576D02*
X21699309Y73711052D01*
X21699309Y73711052D02*
X21651690Y73806290D01*
X21651690Y73806290D02*
X21604071Y73853909D01*
X21604071Y73853909D02*
X21508833Y73901528D01*
X21508833Y73901528D02*
X21413595Y73901528D01*
X21413595Y73901528D02*
X21318357Y73853909D01*
X21318357Y73853909D02*
X21270738Y73806290D01*
X21270738Y73806290D02*
X21223119Y73711052D01*
X21223119Y73711052D02*
X21223119Y73472957D01*
X21223119Y73472957D02*
X21270738Y73330100D01*
X22127880Y72330100D02*
X22175500Y72377719D01*
X22175500Y72377719D02*
X22223119Y72520576D01*
X22223119Y72520576D02*
X22223119Y72615814D01*
X22223119Y72615814D02*
X22175500Y72758671D01*
X22175500Y72758671D02*
X22080261Y72853909D01*
X22080261Y72853909D02*
X21985023Y72901528D01*
X21985023Y72901528D02*
X21794547Y72949147D01*
X21794547Y72949147D02*
X21651690Y72949147D01*
X21651690Y72949147D02*
X21461214Y72901528D01*
X21461214Y72901528D02*
X21365976Y72853909D01*
X21365976Y72853909D02*
X21270738Y72758671D01*
X21270738Y72758671D02*
X21223119Y72615814D01*
X21223119Y72615814D02*
X21223119Y72520576D01*
X21223119Y72520576D02*
X21270738Y72377719D01*
X21270738Y72377719D02*
X21318357Y72330100D01*
X22223119Y71425338D02*
X22223119Y71901528D01*
X22223119Y71901528D02*
X21223119Y71901528D01*
D11*
X74607380Y55970467D02*
X74655000Y56018086D01*
X74655000Y56018086D02*
X74702619Y56160943D01*
X74702619Y56160943D02*
X74702619Y56256181D01*
X74702619Y56256181D02*
X74655000Y56399038D01*
X74655000Y56399038D02*
X74559761Y56494276D01*
X74559761Y56494276D02*
X74464523Y56541895D01*
X74464523Y56541895D02*
X74274047Y56589514D01*
X74274047Y56589514D02*
X74131190Y56589514D01*
X74131190Y56589514D02*
X73940714Y56541895D01*
X73940714Y56541895D02*
X73845476Y56494276D01*
X73845476Y56494276D02*
X73750238Y56399038D01*
X73750238Y56399038D02*
X73702619Y56256181D01*
X73702619Y56256181D02*
X73702619Y56160943D01*
X73702619Y56160943D02*
X73750238Y56018086D01*
X73750238Y56018086D02*
X73797857Y55970467D01*
X73797857Y55589514D02*
X73750238Y55541895D01*
X73750238Y55541895D02*
X73702619Y55446657D01*
X73702619Y55446657D02*
X73702619Y55208562D01*
X73702619Y55208562D02*
X73750238Y55113324D01*
X73750238Y55113324D02*
X73797857Y55065705D01*
X73797857Y55065705D02*
X73893095Y55018086D01*
X73893095Y55018086D02*
X73988333Y55018086D01*
X73988333Y55018086D02*
X74131190Y55065705D01*
X74131190Y55065705D02*
X74702619Y55637133D01*
X74702619Y55637133D02*
X74702619Y55018086D01*
X59666094Y42018181D02*
X59666094Y43018181D01*
X59666094Y43018181D02*
X59427999Y43018181D01*
X59427999Y43018181D02*
X59285142Y42970562D01*
X59285142Y42970562D02*
X59189904Y42875324D01*
X59189904Y42875324D02*
X59142285Y42780086D01*
X59142285Y42780086D02*
X59094666Y42589610D01*
X59094666Y42589610D02*
X59094666Y42446753D01*
X59094666Y42446753D02*
X59142285Y42256277D01*
X59142285Y42256277D02*
X59189904Y42161039D01*
X59189904Y42161039D02*
X59285142Y42065800D01*
X59285142Y42065800D02*
X59427999Y42018181D01*
X59427999Y42018181D02*
X59666094Y42018181D01*
X58142285Y42018181D02*
X58713713Y42018181D01*
X58427999Y42018181D02*
X58427999Y43018181D01*
X58427999Y43018181D02*
X58523237Y42875324D01*
X58523237Y42875324D02*
X58618475Y42780086D01*
X58618475Y42780086D02*
X58713713Y42732467D01*
X75096666Y29358420D02*
X75144285Y29310800D01*
X75144285Y29310800D02*
X75287142Y29263181D01*
X75287142Y29263181D02*
X75382380Y29263181D01*
X75382380Y29263181D02*
X75525237Y29310800D01*
X75525237Y29310800D02*
X75620475Y29406039D01*
X75620475Y29406039D02*
X75668094Y29501277D01*
X75668094Y29501277D02*
X75715713Y29691753D01*
X75715713Y29691753D02*
X75715713Y29834610D01*
X75715713Y29834610D02*
X75668094Y30025086D01*
X75668094Y30025086D02*
X75620475Y30120324D01*
X75620475Y30120324D02*
X75525237Y30215562D01*
X75525237Y30215562D02*
X75382380Y30263181D01*
X75382380Y30263181D02*
X75287142Y30263181D01*
X75287142Y30263181D02*
X75144285Y30215562D01*
X75144285Y30215562D02*
X75096666Y30167943D01*
X74763332Y30263181D02*
X74144285Y30263181D01*
X74144285Y30263181D02*
X74477618Y29882229D01*
X74477618Y29882229D02*
X74334761Y29882229D01*
X74334761Y29882229D02*
X74239523Y29834610D01*
X74239523Y29834610D02*
X74191904Y29786991D01*
X74191904Y29786991D02*
X74144285Y29691753D01*
X74144285Y29691753D02*
X74144285Y29453658D01*
X74144285Y29453658D02*
X74191904Y29358420D01*
X74191904Y29358420D02*
X74239523Y29310800D01*
X74239523Y29310800D02*
X74334761Y29263181D01*
X74334761Y29263181D02*
X74620475Y29263181D01*
X74620475Y29263181D02*
X74715713Y29310800D01*
X74715713Y29310800D02*
X74763332Y29358420D01*
X43622819Y50236334D02*
X44337104Y50236334D01*
X44337104Y50236334D02*
X44479961Y50283953D01*
X44479961Y50283953D02*
X44575200Y50379191D01*
X44575200Y50379191D02*
X44622819Y50522048D01*
X44622819Y50522048D02*
X44622819Y50617286D01*
X44622819Y49760143D02*
X43622819Y49760143D01*
X43622819Y49760143D02*
X43622819Y49379191D01*
X43622819Y49379191D02*
X43670438Y49283953D01*
X43670438Y49283953D02*
X43718057Y49236334D01*
X43718057Y49236334D02*
X43813295Y49188715D01*
X43813295Y49188715D02*
X43956152Y49188715D01*
X43956152Y49188715D02*
X44051390Y49236334D01*
X44051390Y49236334D02*
X44099009Y49283953D01*
X44099009Y49283953D02*
X44146628Y49379191D01*
X44146628Y49379191D02*
X44146628Y49760143D01*
X43718057Y48807762D02*
X43670438Y48760143D01*
X43670438Y48760143D02*
X43622819Y48664905D01*
X43622819Y48664905D02*
X43622819Y48426810D01*
X43622819Y48426810D02*
X43670438Y48331572D01*
X43670438Y48331572D02*
X43718057Y48283953D01*
X43718057Y48283953D02*
X43813295Y48236334D01*
X43813295Y48236334D02*
X43908533Y48236334D01*
X43908533Y48236334D02*
X44051390Y48283953D01*
X44051390Y48283953D02*
X44622819Y48855381D01*
X44622819Y48855381D02*
X44622819Y48236334D01*
X25991780Y56120667D02*
X26039400Y56168286D01*
X26039400Y56168286D02*
X26087019Y56311143D01*
X26087019Y56311143D02*
X26087019Y56406381D01*
X26087019Y56406381D02*
X26039400Y56549238D01*
X26039400Y56549238D02*
X25944161Y56644476D01*
X25944161Y56644476D02*
X25848923Y56692095D01*
X25848923Y56692095D02*
X25658447Y56739714D01*
X25658447Y56739714D02*
X25515590Y56739714D01*
X25515590Y56739714D02*
X25325114Y56692095D01*
X25325114Y56692095D02*
X25229876Y56644476D01*
X25229876Y56644476D02*
X25134638Y56549238D01*
X25134638Y56549238D02*
X25087019Y56406381D01*
X25087019Y56406381D02*
X25087019Y56311143D01*
X25087019Y56311143D02*
X25134638Y56168286D01*
X25134638Y56168286D02*
X25182257Y56120667D01*
X26087019Y55168286D02*
X26087019Y55739714D01*
X26087019Y55454000D02*
X25087019Y55454000D01*
X25087019Y55454000D02*
X25229876Y55549238D01*
X25229876Y55549238D02*
X25325114Y55644476D01*
X25325114Y55644476D02*
X25372733Y55739714D01*
X48962819Y50236334D02*
X49677104Y50236334D01*
X49677104Y50236334D02*
X49819961Y50283953D01*
X49819961Y50283953D02*
X49915200Y50379191D01*
X49915200Y50379191D02*
X49962819Y50522048D01*
X49962819Y50522048D02*
X49962819Y50617286D01*
X49962819Y49760143D02*
X48962819Y49760143D01*
X48962819Y49760143D02*
X48962819Y49379191D01*
X48962819Y49379191D02*
X49010438Y49283953D01*
X49010438Y49283953D02*
X49058057Y49236334D01*
X49058057Y49236334D02*
X49153295Y49188715D01*
X49153295Y49188715D02*
X49296152Y49188715D01*
X49296152Y49188715D02*
X49391390Y49236334D01*
X49391390Y49236334D02*
X49439009Y49283953D01*
X49439009Y49283953D02*
X49486628Y49379191D01*
X49486628Y49379191D02*
X49486628Y49760143D01*
X48962819Y48855381D02*
X48962819Y48236334D01*
X48962819Y48236334D02*
X49343771Y48569667D01*
X49343771Y48569667D02*
X49343771Y48426810D01*
X49343771Y48426810D02*
X49391390Y48331572D01*
X49391390Y48331572D02*
X49439009Y48283953D01*
X49439009Y48283953D02*
X49534247Y48236334D01*
X49534247Y48236334D02*
X49772342Y48236334D01*
X49772342Y48236334D02*
X49867580Y48283953D01*
X49867580Y48283953D02*
X49915200Y48331572D01*
X49915200Y48331572D02*
X49962819Y48426810D01*
X49962819Y48426810D02*
X49962819Y48712524D01*
X49962819Y48712524D02*
X49915200Y48807762D01*
X49915200Y48807762D02*
X49867580Y48855381D01*
X50239819Y45505667D02*
X49763628Y45839000D01*
X50239819Y46077095D02*
X49239819Y46077095D01*
X49239819Y46077095D02*
X49239819Y45696143D01*
X49239819Y45696143D02*
X49287438Y45600905D01*
X49287438Y45600905D02*
X49335057Y45553286D01*
X49335057Y45553286D02*
X49430295Y45505667D01*
X49430295Y45505667D02*
X49573152Y45505667D01*
X49573152Y45505667D02*
X49668390Y45553286D01*
X49668390Y45553286D02*
X49716009Y45600905D01*
X49716009Y45600905D02*
X49763628Y45696143D01*
X49763628Y45696143D02*
X49763628Y46077095D01*
X49239819Y45172333D02*
X49239819Y44553286D01*
X49239819Y44553286D02*
X49620771Y44886619D01*
X49620771Y44886619D02*
X49620771Y44743762D01*
X49620771Y44743762D02*
X49668390Y44648524D01*
X49668390Y44648524D02*
X49716009Y44600905D01*
X49716009Y44600905D02*
X49811247Y44553286D01*
X49811247Y44553286D02*
X50049342Y44553286D01*
X50049342Y44553286D02*
X50144580Y44600905D01*
X50144580Y44600905D02*
X50192200Y44648524D01*
X50192200Y44648524D02*
X50239819Y44743762D01*
X50239819Y44743762D02*
X50239819Y45029476D01*
X50239819Y45029476D02*
X50192200Y45124714D01*
X50192200Y45124714D02*
X50144580Y45172333D01*
X40072819Y50236334D02*
X40787104Y50236334D01*
X40787104Y50236334D02*
X40929961Y50283953D01*
X40929961Y50283953D02*
X41025200Y50379191D01*
X41025200Y50379191D02*
X41072819Y50522048D01*
X41072819Y50522048D02*
X41072819Y50617286D01*
X41072819Y49760143D02*
X40072819Y49760143D01*
X40072819Y49760143D02*
X40072819Y49379191D01*
X40072819Y49379191D02*
X40120438Y49283953D01*
X40120438Y49283953D02*
X40168057Y49236334D01*
X40168057Y49236334D02*
X40263295Y49188715D01*
X40263295Y49188715D02*
X40406152Y49188715D01*
X40406152Y49188715D02*
X40501390Y49236334D01*
X40501390Y49236334D02*
X40549009Y49283953D01*
X40549009Y49283953D02*
X40596628Y49379191D01*
X40596628Y49379191D02*
X40596628Y49760143D01*
X41072819Y48236334D02*
X41072819Y48807762D01*
X41072819Y48522048D02*
X40072819Y48522048D01*
X40072819Y48522048D02*
X40215676Y48617286D01*
X40215676Y48617286D02*
X40310914Y48712524D01*
X40310914Y48712524D02*
X40358533Y48807762D01*
X44651819Y45505667D02*
X44175628Y45839000D01*
X44651819Y46077095D02*
X43651819Y46077095D01*
X43651819Y46077095D02*
X43651819Y45696143D01*
X43651819Y45696143D02*
X43699438Y45600905D01*
X43699438Y45600905D02*
X43747057Y45553286D01*
X43747057Y45553286D02*
X43842295Y45505667D01*
X43842295Y45505667D02*
X43985152Y45505667D01*
X43985152Y45505667D02*
X44080390Y45553286D01*
X44080390Y45553286D02*
X44128009Y45600905D01*
X44128009Y45600905D02*
X44175628Y45696143D01*
X44175628Y45696143D02*
X44175628Y46077095D01*
X43651819Y44648524D02*
X43651819Y44839000D01*
X43651819Y44839000D02*
X43699438Y44934238D01*
X43699438Y44934238D02*
X43747057Y44981857D01*
X43747057Y44981857D02*
X43889914Y45077095D01*
X43889914Y45077095D02*
X44080390Y45124714D01*
X44080390Y45124714D02*
X44461342Y45124714D01*
X44461342Y45124714D02*
X44556580Y45077095D01*
X44556580Y45077095D02*
X44604200Y45029476D01*
X44604200Y45029476D02*
X44651819Y44934238D01*
X44651819Y44934238D02*
X44651819Y44743762D01*
X44651819Y44743762D02*
X44604200Y44648524D01*
X44604200Y44648524D02*
X44556580Y44600905D01*
X44556580Y44600905D02*
X44461342Y44553286D01*
X44461342Y44553286D02*
X44223247Y44553286D01*
X44223247Y44553286D02*
X44128009Y44600905D01*
X44128009Y44600905D02*
X44080390Y44648524D01*
X44080390Y44648524D02*
X44032771Y44743762D01*
X44032771Y44743762D02*
X44032771Y44934238D01*
X44032771Y44934238D02*
X44080390Y45029476D01*
X44080390Y45029476D02*
X44128009Y45077095D01*
X44128009Y45077095D02*
X44223247Y45124714D01*
X18875333Y80301181D02*
X18875333Y79586896D01*
X18875333Y79586896D02*
X18922952Y79444039D01*
X18922952Y79444039D02*
X19018190Y79348800D01*
X19018190Y79348800D02*
X19161047Y79301181D01*
X19161047Y79301181D02*
X19256285Y79301181D01*
X17875333Y79301181D02*
X18446761Y79301181D01*
X18161047Y79301181D02*
X18161047Y80301181D01*
X18161047Y80301181D02*
X18256285Y80158324D01*
X18256285Y80158324D02*
X18351523Y80063086D01*
X18351523Y80063086D02*
X18446761Y80015467D01*
X25949208Y83970981D02*
X25949208Y84970981D01*
X25473018Y83970981D02*
X25473018Y84970981D01*
X25473018Y84970981D02*
X24901590Y83970981D01*
X24901590Y83970981D02*
X24901590Y84970981D01*
X41222819Y45505667D02*
X40746628Y45839000D01*
X41222819Y46077095D02*
X40222819Y46077095D01*
X40222819Y46077095D02*
X40222819Y45696143D01*
X40222819Y45696143D02*
X40270438Y45600905D01*
X40270438Y45600905D02*
X40318057Y45553286D01*
X40318057Y45553286D02*
X40413295Y45505667D01*
X40413295Y45505667D02*
X40556152Y45505667D01*
X40556152Y45505667D02*
X40651390Y45553286D01*
X40651390Y45553286D02*
X40699009Y45600905D01*
X40699009Y45600905D02*
X40746628Y45696143D01*
X40746628Y45696143D02*
X40746628Y46077095D01*
X40222819Y44600905D02*
X40222819Y45077095D01*
X40222819Y45077095D02*
X40699009Y45124714D01*
X40699009Y45124714D02*
X40651390Y45077095D01*
X40651390Y45077095D02*
X40603771Y44981857D01*
X40603771Y44981857D02*
X40603771Y44743762D01*
X40603771Y44743762D02*
X40651390Y44648524D01*
X40651390Y44648524D02*
X40699009Y44600905D01*
X40699009Y44600905D02*
X40794247Y44553286D01*
X40794247Y44553286D02*
X41032342Y44553286D01*
X41032342Y44553286D02*
X41127580Y44600905D01*
X41127580Y44600905D02*
X41175200Y44648524D01*
X41175200Y44648524D02*
X41222819Y44743762D01*
X41222819Y44743762D02*
X41222819Y44981857D01*
X41222819Y44981857D02*
X41175200Y45077095D01*
X41175200Y45077095D02*
X41127580Y45124714D01*
X31188819Y73064667D02*
X30712628Y73398000D01*
X31188819Y73636095D02*
X30188819Y73636095D01*
X30188819Y73636095D02*
X30188819Y73255143D01*
X30188819Y73255143D02*
X30236438Y73159905D01*
X30236438Y73159905D02*
X30284057Y73112286D01*
X30284057Y73112286D02*
X30379295Y73064667D01*
X30379295Y73064667D02*
X30522152Y73064667D01*
X30522152Y73064667D02*
X30617390Y73112286D01*
X30617390Y73112286D02*
X30665009Y73159905D01*
X30665009Y73159905D02*
X30712628Y73255143D01*
X30712628Y73255143D02*
X30712628Y73636095D01*
X30284057Y72683714D02*
X30236438Y72636095D01*
X30236438Y72636095D02*
X30188819Y72540857D01*
X30188819Y72540857D02*
X30188819Y72302762D01*
X30188819Y72302762D02*
X30236438Y72207524D01*
X30236438Y72207524D02*
X30284057Y72159905D01*
X30284057Y72159905D02*
X30379295Y72112286D01*
X30379295Y72112286D02*
X30474533Y72112286D01*
X30474533Y72112286D02*
X30617390Y72159905D01*
X30617390Y72159905D02*
X31188819Y72731333D01*
X31188819Y72731333D02*
X31188819Y72112286D01*
X77549333Y27723181D02*
X77549333Y27008896D01*
X77549333Y27008896D02*
X77596952Y26866039D01*
X77596952Y26866039D02*
X77692190Y26770800D01*
X77692190Y26770800D02*
X77835047Y26723181D01*
X77835047Y26723181D02*
X77930285Y26723181D01*
X77120761Y27627943D02*
X77073142Y27675562D01*
X77073142Y27675562D02*
X76977904Y27723181D01*
X76977904Y27723181D02*
X76739809Y27723181D01*
X76739809Y27723181D02*
X76644571Y27675562D01*
X76644571Y27675562D02*
X76596952Y27627943D01*
X76596952Y27627943D02*
X76549333Y27532705D01*
X76549333Y27532705D02*
X76549333Y27437467D01*
X76549333Y27437467D02*
X76596952Y27294610D01*
X76596952Y27294610D02*
X77168380Y26723181D01*
X77168380Y26723181D02*
X76549333Y26723181D01*
X77276199Y17541581D02*
X77085723Y17541581D01*
X77085723Y17541581D02*
X76990485Y17493962D01*
X76990485Y17493962D02*
X76895247Y17398724D01*
X76895247Y17398724D02*
X76847628Y17208248D01*
X76847628Y17208248D02*
X76847628Y16874915D01*
X76847628Y16874915D02*
X76895247Y16684439D01*
X76895247Y16684439D02*
X76990485Y16589200D01*
X76990485Y16589200D02*
X77085723Y16541581D01*
X77085723Y16541581D02*
X77276199Y16541581D01*
X77276199Y16541581D02*
X77371437Y16589200D01*
X77371437Y16589200D02*
X77466675Y16684439D01*
X77466675Y16684439D02*
X77514294Y16874915D01*
X77514294Y16874915D02*
X77514294Y17208248D01*
X77514294Y17208248D02*
X77466675Y17398724D01*
X77466675Y17398724D02*
X77371437Y17493962D01*
X77371437Y17493962D02*
X77276199Y17541581D01*
X76419056Y17541581D02*
X76419056Y16732058D01*
X76419056Y16732058D02*
X76371437Y16636820D01*
X76371437Y16636820D02*
X76323818Y16589200D01*
X76323818Y16589200D02*
X76228580Y16541581D01*
X76228580Y16541581D02*
X76038104Y16541581D01*
X76038104Y16541581D02*
X75942866Y16589200D01*
X75942866Y16589200D02*
X75895247Y16636820D01*
X75895247Y16636820D02*
X75847628Y16732058D01*
X75847628Y16732058D02*
X75847628Y17541581D01*
X75514294Y17541581D02*
X74942866Y17541581D01*
X75228580Y16541581D02*
X75228580Y17541581D01*
X52512819Y50236334D02*
X53227104Y50236334D01*
X53227104Y50236334D02*
X53369961Y50283953D01*
X53369961Y50283953D02*
X53465200Y50379191D01*
X53465200Y50379191D02*
X53512819Y50522048D01*
X53512819Y50522048D02*
X53512819Y50617286D01*
X53512819Y49760143D02*
X52512819Y49760143D01*
X52512819Y49760143D02*
X52512819Y49379191D01*
X52512819Y49379191D02*
X52560438Y49283953D01*
X52560438Y49283953D02*
X52608057Y49236334D01*
X52608057Y49236334D02*
X52703295Y49188715D01*
X52703295Y49188715D02*
X52846152Y49188715D01*
X52846152Y49188715D02*
X52941390Y49236334D01*
X52941390Y49236334D02*
X52989009Y49283953D01*
X52989009Y49283953D02*
X53036628Y49379191D01*
X53036628Y49379191D02*
X53036628Y49760143D01*
X52846152Y48331572D02*
X53512819Y48331572D01*
X52465200Y48569667D02*
X53179485Y48807762D01*
X53179485Y48807762D02*
X53179485Y48188715D01*
X24330819Y73064667D02*
X23854628Y73398000D01*
X24330819Y73636095D02*
X23330819Y73636095D01*
X23330819Y73636095D02*
X23330819Y73255143D01*
X23330819Y73255143D02*
X23378438Y73159905D01*
X23378438Y73159905D02*
X23426057Y73112286D01*
X23426057Y73112286D02*
X23521295Y73064667D01*
X23521295Y73064667D02*
X23664152Y73064667D01*
X23664152Y73064667D02*
X23759390Y73112286D01*
X23759390Y73112286D02*
X23807009Y73159905D01*
X23807009Y73159905D02*
X23854628Y73255143D01*
X23854628Y73255143D02*
X23854628Y73636095D01*
X24330819Y72112286D02*
X24330819Y72683714D01*
X24330819Y72398000D02*
X23330819Y72398000D01*
X23330819Y72398000D02*
X23473676Y72493238D01*
X23473676Y72493238D02*
X23568914Y72588476D01*
X23568914Y72588476D02*
X23616533Y72683714D01*
X53668819Y45505667D02*
X53192628Y45839000D01*
X53668819Y46077095D02*
X52668819Y46077095D01*
X52668819Y46077095D02*
X52668819Y45696143D01*
X52668819Y45696143D02*
X52716438Y45600905D01*
X52716438Y45600905D02*
X52764057Y45553286D01*
X52764057Y45553286D02*
X52859295Y45505667D01*
X52859295Y45505667D02*
X53002152Y45505667D01*
X53002152Y45505667D02*
X53097390Y45553286D01*
X53097390Y45553286D02*
X53145009Y45600905D01*
X53145009Y45600905D02*
X53192628Y45696143D01*
X53192628Y45696143D02*
X53192628Y46077095D01*
X53002152Y44648524D02*
X53668819Y44648524D01*
X52621200Y44886619D02*
X53335485Y45124714D01*
X53335485Y45124714D02*
X53335485Y44505667D01*
D12*
%TO.C,C2*%
X71832800Y55542548D02*
X71832800Y56065052D01*
X73302800Y55542548D02*
X73302800Y56065052D01*
%TO.C,D1*%
X56918000Y45173000D02*
X60178000Y45173000D01*
X56918000Y43473000D02*
X56918000Y45173000D01*
X56918000Y43473000D02*
X60178000Y43473000D01*
%TO.C,C3*%
X74429252Y28675000D02*
X73906748Y28675000D01*
X74429252Y27205000D02*
X73906748Y27205000D01*
%TO.C,JP2*%
X44968000Y50103000D02*
X44968000Y48703000D01*
X45668000Y48003000D02*
X46268000Y48003000D01*
X46268000Y50803000D02*
X45668000Y50803000D01*
X46968000Y48703000D02*
X46968000Y50103000D01*
X44968000Y50103000D02*
G75*
G02*
X45668000Y50803000I699999J1D01*
G01*
X45668000Y48003000D02*
G75*
G02*
X44968000Y48703000I0J700000D01*
G01*
X46268000Y50803000D02*
G75*
G02*
X46968000Y50103000I1J-699999D01*
G01*
X46968000Y48703000D02*
G75*
G02*
X46268000Y48003000I-700000J0D01*
G01*
%TO.C,C1*%
X23217200Y55692748D02*
X23217200Y56215252D01*
X24687200Y55692748D02*
X24687200Y56215252D01*
%TO.C,JP3*%
X50308000Y50103000D02*
X50308000Y48703000D01*
X51008000Y48003000D02*
X51608000Y48003000D01*
X51608000Y50803000D02*
X51008000Y50803000D01*
X52308000Y48703000D02*
X52308000Y50103000D01*
X50308000Y50103000D02*
G75*
G02*
X51008000Y50803000I699999J1D01*
G01*
X51008000Y48003000D02*
G75*
G02*
X50308000Y48703000I0J700000D01*
G01*
X51608000Y50803000D02*
G75*
G02*
X52308000Y50103000I1J-699999D01*
G01*
X52308000Y48703000D02*
G75*
G02*
X51608000Y48003000I-700000J0D01*
G01*
%TO.C,R3*%
X50700000Y45566064D02*
X50700000Y45111936D01*
X52170000Y45566064D02*
X52170000Y45111936D01*
%TO.C,JP1*%
X41418000Y50103000D02*
X41418000Y48703000D01*
X42118000Y48003000D02*
X42718000Y48003000D01*
X42718000Y50803000D02*
X42118000Y50803000D01*
X43418000Y48703000D02*
X43418000Y50103000D01*
X41418000Y50103000D02*
G75*
G02*
X42118000Y50803000I699999J1D01*
G01*
X42118000Y48003000D02*
G75*
G02*
X41418000Y48703000I0J700000D01*
G01*
X42718000Y50803000D02*
G75*
G02*
X43418000Y50103000I1J-699999D01*
G01*
X43418000Y48703000D02*
G75*
G02*
X42718000Y48003000I-700000J0D01*
G01*
%TO.C,R6*%
X45112000Y45566064D02*
X45112000Y45111936D01*
X46582000Y45566064D02*
X46582000Y45111936D01*
%TO.C,J1*%
X20365400Y83335800D02*
X30485400Y83335800D01*
X20365400Y77115800D02*
X21285400Y77115800D01*
X20365400Y75515800D02*
X20365400Y83335800D01*
X21125400Y81075800D02*
X22125400Y81075800D01*
X21125400Y79475800D02*
X21125400Y81075800D01*
X21285400Y77115800D02*
X21285400Y75515800D01*
X21285400Y75515800D02*
X20365400Y75515800D01*
X21565400Y77115800D02*
X21285400Y77115800D01*
X21565400Y77115800D02*
X21565400Y75900800D01*
X21625400Y81075800D02*
X21625400Y83335800D01*
X22125400Y81075800D02*
X22125400Y83335800D01*
X22125400Y81075800D02*
X22125400Y79475800D01*
X22125400Y79475800D02*
X21125400Y79475800D01*
X22925400Y83335800D02*
X22925400Y78975800D01*
X22925400Y78975800D02*
X27925400Y78975800D01*
X27925400Y78975800D02*
X27925400Y83335800D01*
X28725400Y81075800D02*
X28725400Y79475800D01*
X28725400Y79475800D02*
X29725400Y79475800D01*
X29565400Y77115800D02*
X29285400Y77115800D01*
X29565400Y75515800D02*
X29565400Y77115800D01*
X29725400Y81075800D02*
X28725400Y81075800D01*
X29725400Y79475800D02*
X29725400Y81075800D01*
X30485400Y83335800D02*
X30485400Y75515800D01*
X30485400Y77115800D02*
X29565400Y77115800D01*
X30485400Y75515800D02*
X29565400Y75515800D01*
%TO.C,R5*%
X41683000Y45566064D02*
X41683000Y45111936D01*
X43153000Y45566064D02*
X43153000Y45111936D01*
%TO.C,R2*%
X27865400Y72442336D02*
X27865400Y72896464D01*
X29335400Y72442336D02*
X29335400Y72896464D01*
%TO.C,J2*%
X71216200Y25906400D02*
X72136200Y25906400D01*
X71216200Y24306400D02*
X72136200Y24306400D01*
X71216200Y18086400D02*
X71216200Y25906400D01*
X71976200Y21946400D02*
X71976200Y20346400D01*
X71976200Y20346400D02*
X72976200Y20346400D01*
X72136200Y25906400D02*
X72136200Y24306400D01*
X72136200Y24306400D02*
X72416200Y24306400D01*
X72976200Y21946400D02*
X71976200Y21946400D01*
X72976200Y20346400D02*
X72976200Y21946400D01*
X73776200Y22446400D02*
X73776200Y18086400D01*
X78776200Y22446400D02*
X73776200Y22446400D01*
X78776200Y18086400D02*
X78776200Y22446400D01*
X79576200Y21946400D02*
X80576200Y21946400D01*
X79576200Y20346400D02*
X79576200Y21946400D01*
X79576200Y20346400D02*
X79576200Y18086400D01*
X80076200Y20346400D02*
X80076200Y18086400D01*
X80136200Y24306400D02*
X80136200Y25521400D01*
X80136200Y24306400D02*
X80416200Y24306400D01*
X80416200Y25906400D02*
X81336200Y25906400D01*
X80416200Y24306400D02*
X80416200Y25906400D01*
X80576200Y21946400D02*
X80576200Y20346400D01*
X80576200Y20346400D02*
X79576200Y20346400D01*
X81336200Y25906400D02*
X81336200Y18086400D01*
X81336200Y24306400D02*
X80416200Y24306400D01*
X81336200Y18086400D02*
X71216200Y18086400D01*
%TO.C,JP4*%
X53858000Y50103000D02*
X53858000Y48703000D01*
X54558000Y48003000D02*
X55158000Y48003000D01*
X55158000Y50803000D02*
X54558000Y50803000D01*
X55858000Y48703000D02*
X55858000Y50103000D01*
X53858000Y50103000D02*
G75*
G02*
X54558000Y50803000I699999J1D01*
G01*
X54558000Y48003000D02*
G75*
G02*
X53858000Y48703000I0J700000D01*
G01*
X55158000Y50803000D02*
G75*
G02*
X55858000Y50103000I1J-699999D01*
G01*
X55858000Y48703000D02*
G75*
G02*
X55158000Y48003000I-700000J0D01*
G01*
%TO.C,R1*%
X25681000Y72416936D02*
X25681000Y72871064D01*
X27151000Y72416936D02*
X27151000Y72871064D01*
%TO.C,R4*%
X54129000Y45566064D02*
X54129000Y45111936D01*
X55599000Y45566064D02*
X55599000Y45111936D01*
%TD*%
D13*
X-10000Y99954000D02*
X99990000Y99954000D01*
X99990000Y-46000D01*
X-10000Y-46000D01*
X-10000Y99954000D01*
M02*
