%TF.GenerationSoftware,KiCad,Pcbnew,9.0.4*%
%TF.CreationDate,2025-09-06T12:09:45+02:00*%
%TF.ProjectId,FX-Pots,46582d50-6f74-4732-9e6b-696361645f70,rev?*%
%TF.SameCoordinates,PX4c4db10PY8578750*%
%TF.FileFunction,Soldermask,Bot*%
%TF.FilePolarity,Negative*%
%FSLAX46Y46*%
G04 Gerber Fmt 4.6, Leading zero omitted, Abs format (unit mm)*
G04 Created by KiCad (PCBNEW 9.0.4) date 2025-09-06 12:09:45*
%MOMM*%
%LPD*%
G01*
G04 APERTURE LIST*
G04 Aperture macros list*
%AMRoundRect*
0 Rectangle with rounded corners*
0 $1 Rounding radius*
0 $2 $3 $4 $5 $6 $7 $8 $9 X,Y pos of 4 corners*
0 Add a 4 corners polygon primitive as box body*
4,1,4,$2,$3,$4,$5,$6,$7,$8,$9,$2,$3,0*
0 Add four circle primitives for the rounded corners*
1,1,$1+$1,$2,$3*
1,1,$1+$1,$4,$5*
1,1,$1+$1,$6,$7*
1,1,$1+$1,$8,$9*
0 Add four rect primitives between the rounded corners*
20,1,$1+$1,$2,$3,$4,$5,0*
20,1,$1+$1,$4,$5,$6,$7,0*
20,1,$1+$1,$6,$7,$8,$9,0*
20,1,$1+$1,$8,$9,$2,$3,0*%
%AMFreePoly0*
4,1,23,0.500000,-0.750000,0.000000,-0.750000,0.000000,-0.745722,-0.065263,-0.745722,-0.191342,-0.711940,-0.304381,-0.646677,-0.396677,-0.554381,-0.461940,-0.441342,-0.495722,-0.315263,-0.495722,-0.250000,-0.500000,-0.250000,-0.500000,0.250000,-0.495722,0.250000,-0.495722,0.315263,-0.461940,0.441342,-0.396677,0.554381,-0.304381,0.646677,-0.191342,0.711940,-0.065263,0.745722,0.000000,0.745722,
0.000000,0.750000,0.500000,0.750000,0.500000,-0.750000,0.500000,-0.750000,$1*%
%AMFreePoly1*
4,1,23,0.000000,0.745722,0.065263,0.745722,0.191342,0.711940,0.304381,0.646677,0.396677,0.554381,0.461940,0.441342,0.495722,0.315263,0.495722,0.250000,0.500000,0.250000,0.500000,-0.250000,0.495722,-0.250000,0.495722,-0.315263,0.461940,-0.441342,0.396677,-0.554381,0.304381,-0.646677,0.191342,-0.711940,0.065263,-0.745722,0.000000,-0.745722,0.000000,-0.750000,-0.500000,-0.750000,
-0.500000,0.750000,0.000000,0.750000,0.000000,0.745722,0.000000,0.745722,$1*%
G04 Aperture macros list end*
%ADD10C,1.800000*%
%ADD11C,4.400000*%
%ADD12C,2.000000*%
%ADD13C,3.200000*%
%ADD14RoundRect,0.250000X0.475000X-0.337500X0.475000X0.337500X-0.475000X0.337500X-0.475000X-0.337500X0*%
%ADD15RoundRect,0.250000X-0.250000X-0.250000X0.250000X-0.250000X0.250000X0.250000X-0.250000X0.250000X0*%
%ADD16RoundRect,0.250000X0.337500X0.475000X-0.337500X0.475000X-0.337500X-0.475000X0.337500X-0.475000X0*%
%ADD17FreePoly0,270.000000*%
%ADD18FreePoly1,270.000000*%
%ADD19RoundRect,0.250000X-0.450000X0.350000X-0.450000X-0.350000X0.450000X-0.350000X0.450000X0.350000X0*%
%ADD20RoundRect,0.250000X-0.350000X-0.625000X0.350000X-0.625000X0.350000X0.625000X-0.350000X0.625000X0*%
%ADD21O,1.200000X1.750000*%
%ADD22RoundRect,0.250000X0.450000X-0.350000X0.450000X0.350000X-0.450000X0.350000X-0.450000X-0.350000X0*%
%ADD23RoundRect,0.250000X0.350000X0.625000X-0.350000X0.625000X-0.350000X-0.625000X0.350000X-0.625000X0*%
%TA.AperFunction,Profile*%
%ADD24C,0.050000*%
%TD*%
G04 APERTURE END LIST*
%TO.C,JP2*%
G36*
X45218000Y49553000D02*
G01*
X46718000Y49553000D01*
X46718000Y49253000D01*
X45218000Y49253000D01*
X45218000Y49553000D01*
G37*
%TO.C,JP3*%
G36*
X50558000Y49553000D02*
G01*
X52058000Y49553000D01*
X52058000Y49253000D01*
X50558000Y49253000D01*
X50558000Y49553000D01*
G37*
%TO.C,JP1*%
G36*
X41668000Y49553000D02*
G01*
X43168000Y49553000D01*
X43168000Y49253000D01*
X41668000Y49253000D01*
X41668000Y49553000D01*
G37*
%TO.C,JP4*%
G36*
X54108000Y49553000D02*
G01*
X55608000Y49553000D01*
X55608000Y49253000D01*
X54108000Y49253000D01*
X54108000Y49553000D01*
G37*
%TD*%
D10*
%TO.C,RV6*%
X64590000Y57304000D03*
X62090000Y57304000D03*
X59590000Y57304000D03*
D11*
X57690000Y64304000D03*
X66490000Y64304000D03*
%TD*%
D12*
%TO.C,SW6*%
X84240000Y66704000D03*
X90740000Y66704000D03*
X84240000Y62204000D03*
X90740000Y62204000D03*
X87490000Y67554000D03*
X87490000Y61354000D03*
%TD*%
D13*
%TO.C,H2*%
X89990000Y79232700D03*
%TD*%
D10*
%TO.C,RV7*%
X64590000Y28304000D03*
X62090000Y28304000D03*
X59590000Y28304000D03*
D11*
X57690000Y35304000D03*
X66490000Y35304000D03*
%TD*%
D12*
%TO.C,SW1*%
X9861300Y95582700D03*
X16361300Y95582700D03*
X9861300Y91082700D03*
X16361300Y91082700D03*
X13111300Y96432700D03*
X13111300Y90232700D03*
%TD*%
D13*
%TO.C,H1*%
X10111300Y79232700D03*
%TD*%
D10*
%TO.C,RV3*%
X40611300Y28282700D03*
X38111300Y28282700D03*
X35611300Y28282700D03*
D11*
X33711300Y35282700D03*
X42511300Y35282700D03*
%TD*%
D10*
%TO.C,RV5*%
X64490000Y86304000D03*
X61990000Y86304000D03*
X59490000Y86304000D03*
D11*
X57590000Y93304000D03*
X66390000Y93304000D03*
%TD*%
D10*
%TO.C,RV4*%
X40676200Y1798600D03*
X38176200Y1798600D03*
X35676200Y1798600D03*
D11*
X33776200Y8798600D03*
X42576200Y8798600D03*
%TD*%
D13*
%TO.C,H4*%
X10111300Y20332700D03*
%TD*%
D10*
%TO.C,RV1*%
X40611300Y86332700D03*
X38111300Y86332700D03*
X35611300Y86332700D03*
D11*
X33711300Y93332700D03*
X42511300Y93332700D03*
%TD*%
D12*
%TO.C,SW2*%
X9861300Y66582700D03*
X16361300Y66582700D03*
X9861300Y62082700D03*
X16361300Y62082700D03*
X13111300Y67432700D03*
X13111300Y61232700D03*
%TD*%
%TO.C,SW5*%
X83940000Y95804000D03*
X90440000Y95804000D03*
X83940000Y91304000D03*
X90440000Y91304000D03*
X87190000Y96654000D03*
X87190000Y90454000D03*
%TD*%
%TO.C,SW7*%
X83740000Y37604000D03*
X90240000Y37604000D03*
X83740000Y33104000D03*
X90240000Y33104000D03*
X86990000Y38454000D03*
X86990000Y32254000D03*
%TD*%
D10*
%TO.C,RV8*%
X64755400Y1798600D03*
X62255400Y1798600D03*
X59755400Y1798600D03*
D11*
X57855400Y8798600D03*
X66655400Y8798600D03*
%TD*%
D12*
%TO.C,SW3*%
X9861300Y37582700D03*
X16361300Y37582700D03*
X9861300Y33082700D03*
X16361300Y33082700D03*
X13111300Y38432700D03*
X13111300Y32232700D03*
%TD*%
%TO.C,SW8*%
X83999000Y10962200D03*
X90499000Y10962200D03*
X83999000Y6462200D03*
X90499000Y6462200D03*
X87249000Y11812200D03*
X87249000Y5612200D03*
%TD*%
D13*
%TO.C,H3*%
X89990000Y20332700D03*
%TD*%
D10*
%TO.C,RV2*%
X40611300Y57282700D03*
X38111300Y57282700D03*
X35611300Y57282700D03*
D11*
X33711300Y64282700D03*
X42511300Y64282700D03*
%TD*%
D12*
%TO.C,SW4*%
X9805600Y10809800D03*
X16305600Y10809800D03*
X9805600Y6309800D03*
X16305600Y6309800D03*
X13055600Y11659800D03*
X13055600Y5459800D03*
%TD*%
D14*
%TO.C,C2*%
X72567800Y54766300D03*
X72567800Y56841300D03*
%TD*%
D15*
%TO.C,D1*%
X57678000Y44323000D03*
X60178000Y44323000D03*
%TD*%
D16*
%TO.C,C3*%
X75205500Y27940000D03*
X73130500Y27940000D03*
%TD*%
D17*
%TO.C,JP2*%
X45968000Y50053000D03*
D18*
X45968000Y48753000D03*
%TD*%
D14*
%TO.C,C1*%
X23952200Y54916500D03*
X23952200Y56991500D03*
%TD*%
D17*
%TO.C,JP3*%
X51308000Y50053000D03*
D18*
X51308000Y48753000D03*
%TD*%
D19*
%TO.C,R3*%
X51435000Y46339000D03*
X51435000Y44339000D03*
%TD*%
D17*
%TO.C,JP1*%
X42418000Y50053000D03*
D18*
X42418000Y48753000D03*
%TD*%
D19*
%TO.C,R6*%
X45847000Y46339000D03*
X45847000Y44339000D03*
%TD*%
D20*
%TO.C,J1*%
X22425400Y76975800D03*
D21*
X24425400Y76975800D03*
X26425400Y76975800D03*
X28425400Y76975800D03*
%TD*%
D19*
%TO.C,R5*%
X42418000Y46339000D03*
X42418000Y44339000D03*
%TD*%
D22*
%TO.C,R2*%
X28600400Y71669400D03*
X28600400Y73669400D03*
%TD*%
D23*
%TO.C,J2*%
X79276200Y24446400D03*
D21*
X77276200Y24446400D03*
X75276200Y24446400D03*
X73276200Y24446400D03*
%TD*%
D17*
%TO.C,JP4*%
X54858000Y50053000D03*
D18*
X54858000Y48753000D03*
%TD*%
D22*
%TO.C,R1*%
X26416000Y71644000D03*
X26416000Y73644000D03*
%TD*%
D19*
%TO.C,R4*%
X54864000Y46339000D03*
X54864000Y44339000D03*
%TD*%
D24*
X-10000Y99954000D02*
X99990000Y99954000D01*
X99990000Y-46000D01*
X-10000Y-46000D01*
X-10000Y99954000D01*
M02*
