%TF.GenerationSoftware,KiCad,Pcbnew,9.0.4*%
%TF.CreationDate,2025-09-06T12:09:45+02:00*%
%TF.ProjectId,FX-Pots,46582d50-6f74-4732-9e6b-696361645f70,rev?*%
%TF.SameCoordinates,PX4c4db10PY8578750*%
%TF.FileFunction,Copper,L1,Top*%
%TF.FilePolarity,Positive*%
%FSLAX46Y46*%
G04 Gerber Fmt 4.6, Leading zero omitted, Abs format (unit mm)*
G04 Created by KiCad (PCBNEW 9.0.4) date 2025-09-06 12:09:45*
%MOMM*%
%LPD*%
G01*
G04 APERTURE LIST*
G04 Aperture macros list*
%AMRoundRect*
0 Rectangle with rounded corners*
0 $1 Rounding radius*
0 $2 $3 $4 $5 $6 $7 $8 $9 X,Y pos of 4 corners*
0 Add a 4 corners polygon primitive as box body*
4,1,4,$2,$3,$4,$5,$6,$7,$8,$9,$2,$3,0*
0 Add four circle primitives for the rounded corners*
1,1,$1+$1,$2,$3*
1,1,$1+$1,$4,$5*
1,1,$1+$1,$6,$7*
1,1,$1+$1,$8,$9*
0 Add four rect primitives between the rounded corners*
20,1,$1+$1,$2,$3,$4,$5,0*
20,1,$1+$1,$4,$5,$6,$7,0*
20,1,$1+$1,$6,$7,$8,$9,0*
20,1,$1+$1,$8,$9,$2,$3,0*%
G04 Aperture macros list end*
%TA.AperFunction,ComponentPad*%
%ADD10C,1.800000*%
%TD*%
%TA.AperFunction,ComponentPad*%
%ADD11C,4.400000*%
%TD*%
%TA.AperFunction,ComponentPad*%
%ADD12C,2.000000*%
%TD*%
%TA.AperFunction,SMDPad,CuDef*%
%ADD13RoundRect,0.100000X0.100000X-0.850000X0.100000X0.850000X-0.100000X0.850000X-0.100000X-0.850000X0*%
%TD*%
%TA.AperFunction,SMDPad,CuDef*%
%ADD14RoundRect,0.250000X0.250000X-0.250000X0.250000X0.250000X-0.250000X0.250000X-0.250000X-0.250000X0*%
%TD*%
%TA.AperFunction,SMDPad,CuDef*%
%ADD15RoundRect,0.100000X0.100000X-0.637500X0.100000X0.637500X-0.100000X0.637500X-0.100000X-0.637500X0*%
%TD*%
%TA.AperFunction,SMDPad,CuDef*%
%ADD16RoundRect,0.250000X0.475000X-0.337500X0.475000X0.337500X-0.475000X0.337500X-0.475000X-0.337500X0*%
%TD*%
%TA.AperFunction,ComponentPad*%
%ADD17RoundRect,0.250000X-0.350000X-0.625000X0.350000X-0.625000X0.350000X0.625000X-0.350000X0.625000X0*%
%TD*%
%TA.AperFunction,ComponentPad*%
%ADD18O,1.200000X1.750000*%
%TD*%
%TA.AperFunction,ComponentPad*%
%ADD19RoundRect,0.250000X0.350000X0.625000X-0.350000X0.625000X-0.350000X-0.625000X0.350000X-0.625000X0*%
%TD*%
%TA.AperFunction,ViaPad*%
%ADD20C,0.900000*%
%TD*%
%TA.AperFunction,Conductor*%
%ADD21C,0.406400*%
%TD*%
%TA.AperFunction,Conductor*%
%ADD22C,0.304800*%
%TD*%
%TA.AperFunction,Profile*%
%ADD23C,0.050000*%
%TD*%
G04 APERTURE END LIST*
D10*
%TO.P,RV6,1,1*%
%TO.N,+5V*%
X64590000Y57304000D03*
%TO.P,RV6,2,2*%
%TO.N,/POT6*%
X62090000Y57304000D03*
%TO.P,RV6,3,3*%
%TO.N,GND*%
X59590000Y57304000D03*
D11*
%TO.P,RV6,MP*%
%TO.N,N/C*%
X57690000Y64304000D03*
X66490000Y64304000D03*
%TD*%
D12*
%TO.P,SW6,1,1*%
%TO.N,/R8*%
X84240000Y66704000D03*
X90740000Y66704000D03*
%TO.P,SW6,2,2*%
%TO.N,Net-(D3-K)*%
X84240000Y62204000D03*
X90740000Y62204000D03*
%TO.P,SW6,3,K*%
%TO.N,/COM1*%
X87490000Y67554000D03*
%TO.P,SW6,4,A*%
%TO.N,/R3*%
X87490000Y61354000D03*
%TD*%
D13*
%TO.P,U2,1,VSS*%
%TO.N,GND*%
X71304200Y45750600D03*
%TO.P,U2,2,COM0/AD*%
%TO.N,/COM0*%
X71954200Y45750600D03*
%TO.P,U2,3,COM1/KS0*%
%TO.N,/COM1*%
X72604200Y45750600D03*
%TO.P,U2,4,COM2/KS1*%
%TO.N,/COM2*%
X73254200Y45750600D03*
%TO.P,U2,5,COM3/KS2*%
%TO.N,unconnected-(U2-COM3{slash}KS2-Pad5)*%
X73904200Y45750600D03*
%TO.P,U2,6,COM4*%
%TO.N,unconnected-(U2-COM4-Pad6)*%
X74554200Y45750600D03*
%TO.P,U2,7,COM5*%
%TO.N,unconnected-(U2-COM5-Pad7)*%
X75204200Y45750600D03*
%TO.P,U2,8,COM6*%
%TO.N,unconnected-(U2-COM6-Pad8)*%
X75854200Y45750600D03*
%TO.P,U2,9,COM7*%
%TO.N,unconnected-(U2-COM7-Pad9)*%
X76504200Y45750600D03*
%TO.P,U2,10,ROW11/K10/INT*%
%TO.N,unconnected-(U2-ROW11{slash}K10{slash}INT-Pad10)*%
X77154200Y45750600D03*
%TO.P,U2,11,ROW10/K9*%
%TO.N,/R10*%
X77804200Y45750600D03*
%TO.P,U2,12,ROW9/K8*%
%TO.N,/R9*%
X78454200Y45750600D03*
%TO.P,U2,13,ROW8/K7*%
%TO.N,/R8*%
X78454200Y52750600D03*
%TO.P,U2,14,ROW7/K6*%
%TO.N,/R7*%
X77804200Y52750600D03*
%TO.P,U2,15,ROW6/K5*%
%TO.N,/R6*%
X77154200Y52750600D03*
%TO.P,U2,16,ROW5/K4*%
%TO.N,/R5*%
X76504200Y52750600D03*
%TO.P,U2,17,ROW4/K3*%
%TO.N,/R4*%
X75854200Y52750600D03*
%TO.P,U2,18,ROW3/K2*%
%TO.N,/R3*%
X75204200Y52750600D03*
%TO.P,U2,19,ROW2/K1*%
%TO.N,/R2*%
X74554200Y52750600D03*
%TO.P,U2,20,ROW1/A0*%
%TO.N,/A0_H*%
X73904200Y52750600D03*
%TO.P,U2,21,ROW0/A1*%
%TO.N,/A1_H*%
X73254200Y52750600D03*
%TO.P,U2,22,SCL*%
%TO.N,/SCL*%
X72604200Y52750600D03*
%TO.P,U2,23,SDA*%
%TO.N,/SDA*%
X71954200Y52750600D03*
%TO.P,U2,24,VDD*%
%TO.N,+5V*%
X71304200Y52750600D03*
%TD*%
D14*
%TO.P,D2,1,K*%
%TO.N,Net-(D2-K)*%
X72212200Y39872600D03*
%TO.P,D2,2,A*%
%TO.N,/COM1*%
X72212200Y42372600D03*
%TD*%
D10*
%TO.P,RV7,1,1*%
%TO.N,+5V*%
X64590000Y28304000D03*
%TO.P,RV7,2,2*%
%TO.N,/POT7*%
X62090000Y28304000D03*
%TO.P,RV7,3,3*%
%TO.N,GND*%
X59590000Y28304000D03*
D11*
%TO.P,RV7,MP*%
%TO.N,N/C*%
X57690000Y35304000D03*
X66490000Y35304000D03*
%TD*%
D12*
%TO.P,SW1,1,1*%
%TO.N,/R3*%
X9861300Y95582700D03*
X16361300Y95582700D03*
%TO.P,SW1,2,2*%
%TO.N,Net-(D2-K)*%
X9861300Y91082700D03*
X16361300Y91082700D03*
%TO.P,SW1,3,K*%
%TO.N,/COM0*%
X13111300Y96432700D03*
%TO.P,SW1,4,A*%
%TO.N,/A1_H*%
X13111300Y90232700D03*
%TD*%
D10*
%TO.P,RV3,1,1*%
%TO.N,+5V*%
X40611300Y28282700D03*
%TO.P,RV3,2,2*%
%TO.N,/POT3*%
X38111300Y28282700D03*
%TO.P,RV3,3,3*%
%TO.N,GND*%
X35611300Y28282700D03*
D11*
%TO.P,RV3,MP*%
%TO.N,N/C*%
X33711300Y35282700D03*
X42511300Y35282700D03*
%TD*%
D10*
%TO.P,RV5,1,1*%
%TO.N,+5V*%
X64490000Y86304000D03*
%TO.P,RV5,2,2*%
%TO.N,/POT5*%
X61990000Y86304000D03*
%TO.P,RV5,3,3*%
%TO.N,GND*%
X59490000Y86304000D03*
D11*
%TO.P,RV5,MP*%
%TO.N,N/C*%
X57590000Y93304000D03*
X66390000Y93304000D03*
%TD*%
D10*
%TO.P,RV4,1,1*%
%TO.N,+5V*%
X40676200Y1798600D03*
%TO.P,RV4,2,2*%
%TO.N,/POT4*%
X38176200Y1798600D03*
%TO.P,RV4,3,3*%
%TO.N,GND*%
X35676200Y1798600D03*
D11*
%TO.P,RV4,MP*%
%TO.N,N/C*%
X33776200Y8798600D03*
X42576200Y8798600D03*
%TD*%
D10*
%TO.P,RV1,1,1*%
%TO.N,+5V*%
X40611300Y86332700D03*
%TO.P,RV1,2,2*%
%TO.N,/POT1*%
X38111300Y86332700D03*
%TO.P,RV1,3,3*%
%TO.N,GND*%
X35611300Y86332700D03*
D11*
%TO.P,RV1,MP*%
%TO.N,N/C*%
X33711300Y93332700D03*
X42511300Y93332700D03*
%TD*%
D12*
%TO.P,SW2,1,1*%
%TO.N,/R4*%
X9861300Y66582700D03*
X16361300Y66582700D03*
%TO.P,SW2,2,2*%
%TO.N,Net-(D2-K)*%
X9861300Y62082700D03*
X16361300Y62082700D03*
%TO.P,SW2,3,K*%
%TO.N,/COM0*%
X13111300Y67432700D03*
%TO.P,SW2,4,A*%
%TO.N,/A0_H*%
X13111300Y61232700D03*
%TD*%
%TO.P,SW5,1,1*%
%TO.N,/R7*%
X83940000Y95804000D03*
X90440000Y95804000D03*
%TO.P,SW5,2,2*%
%TO.N,Net-(D3-K)*%
X83940000Y91304000D03*
X90440000Y91304000D03*
%TO.P,SW5,3,K*%
%TO.N,/COM1*%
X87190000Y96654000D03*
%TO.P,SW5,4,A*%
%TO.N,/R2*%
X87190000Y90454000D03*
%TD*%
D15*
%TO.P,U1,1,CH0*%
%TO.N,/POT1*%
X24002500Y46291500D03*
%TO.P,U1,2,CH1*%
%TO.N,/POT5*%
X24652500Y46291500D03*
%TO.P,U1,3,CH2*%
%TO.N,/POT2*%
X25302500Y46291500D03*
%TO.P,U1,4,CH3*%
%TO.N,/POT6*%
X25952500Y46291500D03*
%TO.P,U1,5,CH4*%
%TO.N,/POT3*%
X26602500Y46291500D03*
%TO.P,U1,6,CH5*%
%TO.N,/POT7*%
X27252500Y46291500D03*
%TO.P,U1,7,CH6*%
%TO.N,/POT4*%
X27902500Y46291500D03*
%TO.P,U1,8,CH7*%
%TO.N,/POT8*%
X28552500Y46291500D03*
%TO.P,U1,9,GND*%
%TO.N,GND*%
X28552500Y52016500D03*
%TO.P,U1,10,REFin/REFout*%
%TO.N,unconnected-(U1-REFin{slash}REFout-Pad10)*%
X27902500Y52016500D03*
%TO.P,U1,11,COM*%
%TO.N,unconnected-(U1-COM-Pad11)*%
X27252500Y52016500D03*
%TO.P,U1,12,A0*%
%TO.N,/A0*%
X26602500Y52016500D03*
%TO.P,U1,13,A1*%
%TO.N,/A1*%
X25952500Y52016500D03*
%TO.P,U1,14,SCL*%
%TO.N,/SCL*%
X25302500Y52016500D03*
%TO.P,U1,15,SDA*%
%TO.N,/SDA*%
X24652500Y52016500D03*
%TO.P,U1,16,VDD*%
%TO.N,+5V*%
X24002500Y52016500D03*
%TD*%
D12*
%TO.P,SW7,1,1*%
%TO.N,/R9*%
X83740000Y37604000D03*
X90240000Y37604000D03*
%TO.P,SW7,2,2*%
%TO.N,Net-(D3-K)*%
X83740000Y33104000D03*
X90240000Y33104000D03*
%TO.P,SW7,3,K*%
%TO.N,/COM1*%
X86990000Y38454000D03*
%TO.P,SW7,4,A*%
%TO.N,/R6*%
X86990000Y32254000D03*
%TD*%
D10*
%TO.P,RV8,1,1*%
%TO.N,+5V*%
X64755400Y1798600D03*
%TO.P,RV8,2,2*%
%TO.N,/POT8*%
X62255400Y1798600D03*
%TO.P,RV8,3,3*%
%TO.N,GND*%
X59755400Y1798600D03*
D11*
%TO.P,RV8,MP*%
%TO.N,N/C*%
X57855400Y8798600D03*
X66655400Y8798600D03*
%TD*%
D14*
%TO.P,D3,1,K*%
%TO.N,Net-(D3-K)*%
X74269600Y39872600D03*
%TO.P,D3,2,A*%
%TO.N,/COM2*%
X74269600Y42372600D03*
%TD*%
D12*
%TO.P,SW3,1,1*%
%TO.N,/R5*%
X9861300Y37582700D03*
X16361300Y37582700D03*
%TO.P,SW3,2,2*%
%TO.N,Net-(D2-K)*%
X9861300Y33082700D03*
X16361300Y33082700D03*
%TO.P,SW3,3,K*%
%TO.N,/COM0*%
X13111300Y38432700D03*
%TO.P,SW3,4,A*%
%TO.N,/R4*%
X13111300Y32232700D03*
%TD*%
%TO.P,SW8,1,1*%
%TO.N,/R10*%
X83999000Y10962200D03*
X90499000Y10962200D03*
%TO.P,SW8,2,2*%
%TO.N,Net-(D3-K)*%
X83999000Y6462200D03*
X90499000Y6462200D03*
%TO.P,SW8,3,K*%
%TO.N,/COM1*%
X87249000Y11812200D03*
%TO.P,SW8,4,A*%
%TO.N,/R7*%
X87249000Y5612200D03*
%TD*%
D16*
%TO.P,C4,1*%
%TO.N,+5V*%
X19939000Y92155100D03*
%TO.P,C4,2*%
%TO.N,GND*%
X19939000Y94230100D03*
%TD*%
D10*
%TO.P,RV2,1,1*%
%TO.N,+5V*%
X40611300Y57282700D03*
%TO.P,RV2,2,2*%
%TO.N,/POT2*%
X38111300Y57282700D03*
%TO.P,RV2,3,3*%
%TO.N,GND*%
X35611300Y57282700D03*
D11*
%TO.P,RV2,MP*%
%TO.N,N/C*%
X33711300Y64282700D03*
X42511300Y64282700D03*
%TD*%
D12*
%TO.P,SW4,1,1*%
%TO.N,/R6*%
X9805600Y10809800D03*
X16305600Y10809800D03*
%TO.P,SW4,2,2*%
%TO.N,Net-(D2-K)*%
X9805600Y6309800D03*
X16305600Y6309800D03*
%TO.P,SW4,3,K*%
%TO.N,/COM0*%
X13055600Y11659800D03*
%TO.P,SW4,4,A*%
%TO.N,/R5*%
X13055600Y5459800D03*
%TD*%
D17*
%TO.P,J1,1,Pin_1*%
%TO.N,GND*%
X22425400Y76975800D03*
D18*
%TO.P,J1,2,Pin_2*%
%TO.N,+5V*%
X24425400Y76975800D03*
%TO.P,J1,3,Pin_3*%
%TO.N,/SDA*%
X26425400Y76975800D03*
%TO.P,J1,4,Pin_4*%
%TO.N,/SCL*%
X28425400Y76975800D03*
%TD*%
D19*
%TO.P,J2,1,Pin_1*%
%TO.N,/SCL*%
X79276200Y24446400D03*
D18*
%TO.P,J2,2,Pin_2*%
%TO.N,/SDA*%
X77276200Y24446400D03*
%TO.P,J2,3,Pin_3*%
%TO.N,+5V*%
X75276200Y24446400D03*
%TO.P,J2,4,Pin_4*%
%TO.N,GND*%
X73276200Y24446400D03*
%TD*%
D20*
%TO.N,GND*%
X30302200Y51993800D03*
X73247100Y29508100D03*
X69088000Y45847000D03*
X23329900Y59765200D03*
X45634300Y41720900D03*
X31242000Y41656000D03*
X72106100Y59470300D03*
X41277700Y41722500D03*
%TO.N,+5V*%
X28702000Y69342000D03*
X20828000Y59690000D03*
X22737600Y51998700D03*
X39878000Y59436000D03*
X20828000Y57658000D03*
X26416000Y69342000D03*
X18287200Y92191400D03*
X70349700Y52999900D03*
%TO.N,/COM0*%
X59875200Y46518100D03*
%TO.N,/SCL*%
X70351300Y51611500D03*
X28717900Y54866100D03*
%TO.N,/SDA*%
X25139200Y53918900D03*
X70591700Y54968400D03*
%TO.N,/A0*%
X41277700Y51611300D03*
%TO.N,/A1*%
X46664800Y51343100D03*
%TO.N,/A0_H*%
X49990900Y58154200D03*
%TO.N,/POT1*%
X22737600Y46694500D03*
%TO.N,/POT2*%
X32564500Y49008500D03*
%TO.N,/POT3*%
X36921100Y44048900D03*
%TO.N,/POT4*%
X35705800Y44400000D03*
%TO.N,/POT5*%
X27808000Y43858700D03*
%TO.N,/POT6*%
X55768100Y51015800D03*
%TO.N,/POT7*%
X63060700Y49725300D03*
%TO.N,/POT8*%
X53166100Y44642100D03*
%TO.N,/A1_H*%
X43916100Y70019700D03*
X63060700Y53482600D03*
%TO.N,/R4*%
X10114200Y49954900D03*
%TO.N,/R6*%
X84843700Y45598300D03*
%TO.N,/R2*%
X84345500Y58617500D03*
%TO.N,/R7*%
X78633800Y55072200D03*
%TO.N,/R10*%
X77625900Y44132200D03*
%TD*%
D21*
%TO.N,GND*%
X69184400Y45750600D02*
X69088000Y45847000D01*
D22*
X28552500Y52016500D02*
X30279500Y52016500D01*
D21*
X71304200Y45750600D02*
X69184400Y45750600D01*
D22*
X30279500Y52016500D02*
X30302200Y51993800D01*
D21*
X41277700Y41722500D02*
X31308500Y41722500D01*
X31308500Y41722500D02*
X31242000Y41656000D01*
%TO.N,+5V*%
X21709800Y60571800D02*
X20828000Y59690000D01*
D22*
X20828000Y53086000D02*
X20828000Y57658000D01*
X22737600Y51998700D02*
X21915300Y51998700D01*
X21915300Y51998700D02*
X20828000Y53086000D01*
X70349700Y52999900D02*
X71054900Y52999900D01*
X23984700Y51998700D02*
X24002500Y52016500D01*
D21*
X38742200Y60571800D02*
X21709800Y60571800D01*
X39878000Y59436000D02*
X38742200Y60571800D01*
D22*
X19902700Y92191400D02*
X19939000Y92155100D01*
X24425400Y63287400D02*
X24425400Y76975800D01*
X20828000Y59690000D02*
X24425400Y63287400D01*
X71054900Y52999900D02*
X71304200Y52750600D01*
X18287200Y92191400D02*
X19902700Y92191400D01*
X22737600Y51998700D02*
X23984700Y51998700D01*
D21*
X26416000Y69342000D02*
X28702000Y69342000D01*
D22*
%TO.N,/COM0*%
X15121500Y40442900D02*
X13111300Y38432700D01*
X53800000Y40442900D02*
X15121500Y40442900D01*
X71954200Y45750600D02*
X71954200Y44825100D01*
X71954200Y44825100D02*
X71604300Y44475200D01*
X59875200Y46518100D02*
X53800000Y40442900D01*
X71604300Y44475200D02*
X61918100Y44475200D01*
X61918100Y44475200D02*
X59875200Y46518100D01*
%TO.N,Net-(D2-K)*%
X22668800Y39872600D02*
X16361300Y33565100D01*
X10343700Y33565100D02*
X9861300Y33082700D01*
X16361300Y62082700D02*
X15895200Y62548800D01*
X10327400Y62548800D02*
X9861300Y62082700D01*
X15895200Y62548800D02*
X10327400Y62548800D01*
X10271700Y6775900D02*
X9805600Y6309800D01*
X72212200Y39872600D02*
X22668800Y39872600D01*
X15880900Y91563100D02*
X10341700Y91563100D01*
X16361300Y33565100D02*
X10343700Y33565100D01*
X16305600Y6309800D02*
X15839500Y6775900D01*
X10341700Y91563100D02*
X9861300Y91082700D01*
X15839500Y6775900D02*
X10271700Y6775900D01*
X16361300Y33565100D02*
X16361300Y33082700D01*
X16361300Y91082700D02*
X15880900Y91563100D01*
%TO.N,/SCL*%
X67096700Y54866100D02*
X70351300Y51611500D01*
X72231000Y51478000D02*
X70484800Y51478000D01*
X72604200Y51851200D02*
X72231000Y51478000D01*
X28717900Y54866100D02*
X67096700Y54866100D01*
X72604200Y52750600D02*
X72604200Y51851200D01*
X25302500Y52700900D02*
X27467700Y54866100D01*
X27467700Y54866100D02*
X28717900Y54866100D01*
X25302500Y52016500D02*
X25302500Y52700900D01*
X70484800Y51478000D02*
X70351300Y51611500D01*
%TO.N,/SDA*%
X69920800Y55639300D02*
X26859600Y55639300D01*
X71954200Y53637900D02*
X70623700Y54968400D01*
X70591700Y54968400D02*
X69920800Y55639300D01*
X25139200Y53918900D02*
X24652500Y53432200D01*
X70623700Y54968400D02*
X70591700Y54968400D01*
X24652500Y53432200D02*
X24652500Y52016500D01*
X71954200Y52750600D02*
X71954200Y53637900D01*
X26859600Y55639300D02*
X25139200Y53918900D01*
%TO.N,/A0*%
X26602500Y52706000D02*
X26986500Y53090000D01*
X26602500Y52016500D02*
X26602500Y52706000D01*
X26986500Y53090000D02*
X39799000Y53090000D01*
X39799000Y53090000D02*
X41277700Y51611300D01*
%TO.N,/A1*%
X26424700Y50854800D02*
X46176500Y50854800D01*
X25952500Y52016500D02*
X25952500Y51327000D01*
X46176500Y50854800D02*
X46664800Y51343100D01*
X25952500Y51327000D02*
X26424700Y50854800D01*
%TO.N,/COM1*%
X83917600Y41526400D02*
X86990000Y38454000D01*
X72212200Y42372600D02*
X72555200Y42715600D01*
X72555200Y42715600D02*
X73744400Y41526400D01*
X72555200Y42715600D02*
X72604200Y42764600D01*
X72604200Y42764600D02*
X72604200Y45750600D01*
X73744400Y41526400D02*
X83917600Y41526400D01*
%TO.N,Net-(D3-K)*%
X80572000Y33570200D02*
X74269600Y39872600D01*
X90032900Y6928300D02*
X84465100Y6928300D01*
X89773800Y33570200D02*
X90240000Y33104000D01*
X90259600Y62684400D02*
X90740000Y62204000D01*
X84465100Y6928300D02*
X83999000Y6462200D01*
X84420400Y91784400D02*
X89959600Y91784400D01*
X89959600Y91784400D02*
X90440000Y91304000D01*
X84240000Y62204000D02*
X84720400Y62684400D01*
X90499000Y6462200D02*
X90032900Y6928300D01*
X85060000Y33570200D02*
X80572000Y33570200D01*
X84206200Y33570200D02*
X85060000Y33570200D01*
X84720400Y62684400D02*
X90259600Y62684400D01*
X85060000Y33570200D02*
X89773800Y33570200D01*
X83940000Y91304000D02*
X84420400Y91784400D01*
X83740000Y33104000D02*
X84206200Y33570200D01*
%TO.N,/COM2*%
X73254200Y43388000D02*
X74269600Y42372600D01*
X73254200Y45750600D02*
X73254200Y43388000D01*
%TO.N,/A0_H*%
X73904200Y53626600D02*
X73904200Y52750600D01*
X13111300Y61232700D02*
X15812400Y58531600D01*
X49990900Y58154200D02*
X49990900Y58531600D01*
X68999200Y58531600D02*
X73904200Y53626600D01*
X15812400Y58531600D02*
X49990900Y58531600D01*
X49990900Y58531600D02*
X68999200Y58531600D01*
%TO.N,/POT1*%
X22737600Y46694500D02*
X23599500Y46694500D01*
X23599500Y46694500D02*
X24002500Y46291500D01*
%TO.N,/POT2*%
X32564500Y49008500D02*
X27346000Y49008500D01*
X27346000Y49008500D02*
X25302500Y46965000D01*
X25302500Y46965000D02*
X25302500Y46291500D01*
%TO.N,/POT3*%
X26602500Y45584000D02*
X26602500Y46291500D01*
X36515700Y43643500D02*
X29093000Y43643500D01*
X28121300Y44615200D02*
X27571300Y44615200D01*
X36921100Y44048900D02*
X36515700Y43643500D01*
X27571300Y44615200D02*
X26602500Y45584000D01*
X29093000Y43643500D02*
X28121300Y44615200D01*
%TO.N,/POT4*%
X29097400Y44400000D02*
X35705800Y44400000D01*
X27902500Y45594900D02*
X29097400Y44400000D01*
X27902500Y46291500D02*
X27902500Y45594900D01*
%TO.N,/POT5*%
X26421900Y43858700D02*
X27808000Y43858700D01*
X24652500Y45628100D02*
X26421900Y43858700D01*
X24652500Y46291500D02*
X24652500Y45628100D01*
%TO.N,/POT6*%
X27178800Y48187600D02*
X25952500Y46961300D01*
X55768100Y51015800D02*
X52939900Y48187600D01*
X52939900Y48187600D02*
X27178800Y48187600D01*
X25952500Y46961300D02*
X25952500Y46291500D01*
%TO.N,/POT7*%
X27252500Y47016200D02*
X27637600Y47401300D01*
X56908000Y49725300D02*
X63060700Y49725300D01*
X27637600Y47401300D02*
X54584000Y47401300D01*
X27252500Y46291500D02*
X27252500Y47016200D01*
X54584000Y47401300D02*
X56908000Y49725300D01*
%TO.N,/POT8*%
X28552500Y46291500D02*
X51516700Y46291500D01*
X51516700Y46291500D02*
X53166100Y44642100D01*
%TO.N,/A1_H*%
X73254200Y52750600D02*
X73254200Y51825600D01*
X73254200Y51825600D02*
X72282000Y50853400D01*
X72282000Y50853400D02*
X65689900Y50853400D01*
X19096400Y84247600D02*
X29688200Y84247600D01*
X13111300Y90232700D02*
X19096400Y84247600D01*
X65689900Y50853400D02*
X63060700Y53482600D01*
X29688200Y84247600D02*
X43916100Y70019700D01*
%TO.N,/R3*%
X15895200Y95116600D02*
X16361300Y95582700D01*
X85133700Y60897500D02*
X85133700Y58324200D01*
X54108100Y60897500D02*
X21813000Y93192600D01*
X21813000Y93192600D02*
X18751400Y93192600D01*
X9861300Y95582700D02*
X10327400Y95116600D01*
X85133700Y60897500D02*
X54108100Y60897500D01*
X83965600Y57156100D02*
X78717400Y57156100D01*
X85133700Y58324200D02*
X83965600Y57156100D01*
X75204200Y53642900D02*
X75204200Y52750600D01*
X18751400Y93192600D02*
X16361300Y95582700D01*
X87490000Y61354000D02*
X87033500Y60897500D01*
X10327400Y95116600D02*
X15895200Y95116600D01*
X87033500Y60897500D02*
X85133700Y60897500D01*
X78717400Y57156100D02*
X75204200Y53642900D01*
%TO.N,/R4*%
X10341700Y66102300D02*
X15880900Y66102300D01*
X9861300Y66582700D02*
X10341700Y66102300D01*
X62427600Y51784100D02*
X63819200Y50392500D01*
X74405600Y50392500D02*
X75854200Y51841100D01*
X10114200Y49954900D02*
X53599600Y49954900D01*
X75854200Y51841100D02*
X75854200Y52750600D01*
X53599600Y49954900D02*
X55428800Y51784100D01*
X63819200Y50392500D02*
X74405600Y50392500D01*
X55428800Y51784100D02*
X62427600Y51784100D01*
X15880900Y66102300D02*
X16361300Y66582700D01*
%TO.N,/R5*%
X9861300Y37582700D02*
X10327400Y37116600D01*
X59067000Y47687200D02*
X72385400Y47687200D01*
X76504200Y51806000D02*
X76504200Y52750600D01*
X9861300Y37582700D02*
X15380800Y43102200D01*
X54482000Y43102200D02*
X59067000Y47687200D01*
X15380800Y43102200D02*
X54482000Y43102200D01*
X15895200Y37116600D02*
X16361300Y37582700D01*
X10327400Y37116600D02*
X15895200Y37116600D01*
X72385400Y47687200D02*
X76504200Y51806000D01*
%TO.N,/R6*%
X16305600Y10809800D02*
X35766900Y30271100D01*
X15825200Y10329400D02*
X16305600Y10809800D01*
X83394600Y45598300D02*
X77154200Y51838700D01*
X35766900Y30271100D02*
X85007100Y30271100D01*
X77154200Y51838700D02*
X77154200Y52750600D01*
X84843700Y45598300D02*
X83394600Y45598300D01*
X10286000Y10329400D02*
X15825200Y10329400D01*
X85007100Y30271100D02*
X86990000Y32254000D01*
X9805600Y10809800D02*
X10286000Y10329400D01*
%TO.N,/R2*%
X74554200Y53660700D02*
X74554200Y52750600D01*
X84345500Y58617500D02*
X79511000Y58617500D01*
X79511000Y58617500D02*
X74554200Y53660700D01*
%TO.N,/R7*%
X77804200Y54242600D02*
X78633800Y55072200D01*
X89973900Y95337900D02*
X84406100Y95337900D01*
X77804200Y52750600D02*
X77804200Y54242600D01*
X84406100Y95337900D02*
X83940000Y95804000D01*
X90440000Y95804000D02*
X89973900Y95337900D01*
%TO.N,/R8*%
X90273900Y66237900D02*
X92079100Y64432700D01*
X92079100Y64432700D02*
X92079100Y61674000D01*
X84706100Y66237900D02*
X90273900Y66237900D01*
X90273900Y66237900D02*
X90740000Y66704000D01*
X92079100Y61674000D02*
X83155700Y52750600D01*
X84240000Y66704000D02*
X84706100Y66237900D01*
X83155700Y52750600D02*
X78454200Y52750600D01*
%TO.N,/R9*%
X78454200Y45750600D02*
X82093400Y45750600D01*
X84220400Y37123600D02*
X83740000Y37604000D01*
X89759600Y37123600D02*
X84220400Y37123600D01*
X90240000Y37604000D02*
X89759600Y37123600D01*
X82093400Y45750600D02*
X90240000Y37604000D01*
%TO.N,/R10*%
X84479400Y10481800D02*
X90018600Y10481800D01*
X83999000Y10962200D02*
X84479400Y10481800D01*
X77804200Y45750600D02*
X77804200Y44310500D01*
X90018600Y10481800D02*
X90499000Y10962200D01*
X77804200Y44310500D02*
X77625900Y44132200D01*
%TD*%
%TA.AperFunction,Conductor*%
%TO.N,GND*%
G36*
X37252190Y29598515D02*
G01*
X37297945Y29545711D01*
X37307889Y29476553D01*
X37278864Y29412997D01*
X37258036Y29393882D01*
X37198940Y29350948D01*
X37043056Y29195064D01*
X36961308Y29082547D01*
X36905978Y29039882D01*
X36836364Y29033903D01*
X36774569Y29066509D01*
X36762716Y29080187D01*
X36762365Y29080215D01*
X36094262Y28412111D01*
X36077225Y28475693D01*
X36011399Y28589707D01*
X35918307Y28682799D01*
X35804293Y28748625D01*
X35740707Y28765663D01*
X36408813Y29433768D01*
X36404823Y29484470D01*
X36419187Y29552848D01*
X36468238Y29602605D01*
X36528441Y29618200D01*
X37185151Y29618200D01*
X37252190Y29598515D01*
G37*
%TD.AperFunction*%
%TA.AperFunction,Conductor*%
G36*
X61201573Y29598515D02*
G01*
X61247328Y29545711D01*
X61257272Y29476553D01*
X61228247Y29412997D01*
X61207419Y29393881D01*
X61177634Y29372242D01*
X61021756Y29216364D01*
X60940008Y29103847D01*
X60884678Y29061182D01*
X60815064Y29055203D01*
X60753269Y29087809D01*
X60741416Y29101487D01*
X60741065Y29101515D01*
X60072962Y28433411D01*
X60055925Y28496993D01*
X59990099Y28611007D01*
X59897007Y28704099D01*
X59782993Y28769925D01*
X59719407Y28786963D01*
X60387513Y29455068D01*
X60385199Y29484470D01*
X60399563Y29552847D01*
X60448613Y29602605D01*
X60508817Y29618200D01*
X61134534Y29618200D01*
X61201573Y29598515D01*
G37*
%TD.AperFunction*%
%TA.AperFunction,Conductor*%
G36*
X54635346Y42446943D02*
G01*
X54690524Y42404081D01*
X54713770Y42338191D01*
X54697703Y42270194D01*
X54677629Y42243871D01*
X53565878Y41132119D01*
X53504555Y41098634D01*
X53478197Y41095800D01*
X15057193Y41095800D01*
X14931061Y41070711D01*
X14931055Y41070709D01*
X14812237Y41021493D01*
X14705296Y40950038D01*
X13658931Y39903674D01*
X13649851Y39898717D01*
X13643480Y39890564D01*
X13619708Y39882257D01*
X13597608Y39870189D01*
X13585534Y39870315D01*
X13577521Y39867514D01*
X13553913Y39870644D01*
X13542377Y39870763D01*
X13537595Y39871908D01*
X13462668Y39896253D01*
X13383627Y39908772D01*
X13378919Y39909899D01*
X13352635Y39924970D01*
X13325258Y39937948D01*
X13322625Y39942177D01*
X13318306Y39944653D01*
X13304344Y39971538D01*
X13288328Y39997260D01*
X13288399Y40002240D01*
X13286104Y40006659D01*
X13288893Y40036824D01*
X13289326Y40067123D01*
X13292123Y40071763D01*
X13292537Y40076232D01*
X13302528Y40089017D01*
X13320109Y40118170D01*
X15614921Y42412981D01*
X15676244Y42446466D01*
X15702602Y42449300D01*
X54546306Y42449300D01*
X54565755Y42453169D01*
X54635346Y42446943D01*
G37*
%TD.AperFunction*%
%TA.AperFunction,Conductor*%
G36*
X70615869Y47014615D02*
G01*
X70661624Y46961811D01*
X70671568Y46892653D01*
X70663391Y46862848D01*
X70619645Y46757235D01*
X70619644Y46757231D01*
X70604200Y46639931D01*
X70604200Y45950600D01*
X71129700Y45950600D01*
X71138385Y45948050D01*
X71147346Y45949338D01*
X71171384Y45938360D01*
X71196739Y45930915D01*
X71202666Y45924074D01*
X71210902Y45920313D01*
X71225190Y45898080D01*
X71242494Y45878111D01*
X71244781Y45867598D01*
X71248677Y45861536D01*
X71253700Y45826601D01*
X71253701Y45674601D01*
X71234017Y45607561D01*
X71181213Y45561806D01*
X71129701Y45550600D01*
X70604201Y45550600D01*
X70604201Y45252100D01*
X70584516Y45185061D01*
X70531712Y45139306D01*
X70480201Y45128100D01*
X62239902Y45128100D01*
X62172863Y45147785D01*
X62152221Y45164419D01*
X60862019Y46454622D01*
X60828534Y46515945D01*
X60825700Y46542303D01*
X60825700Y46611717D01*
X60825699Y46611721D01*
X60814557Y46667734D01*
X60789173Y46795351D01*
X60761214Y46862848D01*
X60753746Y46932317D01*
X60785021Y46994796D01*
X60845110Y47030448D01*
X60875776Y47034300D01*
X70548830Y47034300D01*
X70615869Y47014615D01*
G37*
%TD.AperFunction*%
%TA.AperFunction,Conductor*%
G36*
X39544236Y52417415D02*
G01*
X39564878Y52400781D01*
X39924920Y52040739D01*
X40246279Y51719381D01*
X40279764Y51658058D01*
X40274780Y51588367D01*
X40232909Y51532433D01*
X40167444Y51508016D01*
X40158598Y51507700D01*
X29376500Y51507700D01*
X29309461Y51527385D01*
X29263706Y51580189D01*
X29252500Y51631700D01*
X29252500Y51816500D01*
X28727000Y51816500D01*
X28718314Y51819051D01*
X28709354Y51817762D01*
X28685315Y51828741D01*
X28659961Y51836185D01*
X28654033Y51843027D01*
X28645798Y51846787D01*
X28631509Y51869021D01*
X28614206Y51888989D01*
X28611918Y51899503D01*
X28608023Y51905564D01*
X28603000Y51940499D01*
X28602999Y52092499D01*
X28622683Y52159539D01*
X28675487Y52205294D01*
X28726999Y52216500D01*
X29252499Y52216500D01*
X29252499Y52313100D01*
X29272184Y52380139D01*
X29324988Y52425894D01*
X29376499Y52437100D01*
X39477197Y52437100D01*
X39544236Y52417415D01*
G37*
%TD.AperFunction*%
%TA.AperFunction,Conductor*%
G36*
X38466395Y59848415D02*
G01*
X38487037Y59831781D01*
X38891181Y59427637D01*
X38901982Y59407856D01*
X38916632Y59390722D01*
X38922474Y59370327D01*
X38924666Y59366314D01*
X38925291Y59360494D01*
X38926352Y59356793D01*
X38927500Y59348417D01*
X38927500Y59342384D01*
X38930158Y59329021D01*
X38930663Y59325337D01*
X38925995Y59294331D01*
X38923202Y59263103D01*
X38920837Y59260059D01*
X38920263Y59256245D01*
X38899568Y59232679D01*
X38880340Y59207924D01*
X38876705Y59206642D01*
X38874161Y59203744D01*
X38842297Y59194503D01*
X38814451Y59184678D01*
X38811130Y59185463D01*
X38807811Y59184500D01*
X21833008Y59184500D01*
X21765969Y59204185D01*
X21720214Y59256989D01*
X21710270Y59326147D01*
X21718447Y59355953D01*
X21724401Y59370327D01*
X21741973Y59412749D01*
X21778500Y59596384D01*
X21778500Y59596391D01*
X21779097Y59602445D01*
X21780939Y59602264D01*
X21787144Y59623397D01*
X21793668Y59653383D01*
X21797422Y59658399D01*
X21798185Y59660995D01*
X21814814Y59681633D01*
X21964965Y59831784D01*
X22026287Y59865266D01*
X22052645Y59868100D01*
X38399356Y59868100D01*
X38466395Y59848415D01*
G37*
%TD.AperFunction*%
%TA.AperFunction,Conductor*%
G36*
X99432539Y99433815D02*
G01*
X99478294Y99381011D01*
X99489500Y99329500D01*
X99489500Y578500D01*
X99469815Y511461D01*
X99417011Y465706D01*
X99365500Y454500D01*
X65669712Y454500D01*
X65602673Y474185D01*
X65556918Y526989D01*
X65546974Y596147D01*
X65575999Y659703D01*
X65596827Y678818D01*
X65667759Y730353D01*
X65667761Y730356D01*
X65667765Y730358D01*
X65823642Y886235D01*
X65953215Y1064578D01*
X66053295Y1260994D01*
X66121415Y1470649D01*
X66155900Y1688378D01*
X66155900Y1908822D01*
X66121415Y2126551D01*
X66065514Y2298600D01*
X66053296Y2336204D01*
X66053295Y2336207D01*
X66018637Y2404225D01*
X65953215Y2532622D01*
X65905081Y2598873D01*
X65823647Y2710959D01*
X65823643Y2710964D01*
X65667763Y2866844D01*
X65667758Y2866848D01*
X65489425Y2996413D01*
X65489424Y2996414D01*
X65489422Y2996415D01*
X65426496Y3028478D01*
X65293006Y3096496D01*
X65293003Y3096497D01*
X65083352Y3164615D01*
X64974486Y3181858D01*
X64865622Y3199100D01*
X64645178Y3199100D01*
X64572601Y3187605D01*
X64427447Y3164615D01*
X64217796Y3096497D01*
X64217793Y3096496D01*
X64021374Y2996413D01*
X63843041Y2866848D01*
X63843036Y2866844D01*
X63687156Y2710964D01*
X63687152Y2710959D01*
X63605718Y2598873D01*
X63550389Y2556207D01*
X63480775Y2550228D01*
X63418980Y2582833D01*
X63405082Y2598873D01*
X63323647Y2710959D01*
X63323643Y2710964D01*
X63167763Y2866844D01*
X63167758Y2866848D01*
X62989425Y2996413D01*
X62989424Y2996414D01*
X62989422Y2996415D01*
X62926496Y3028478D01*
X62793006Y3096496D01*
X62793003Y3096497D01*
X62583352Y3164615D01*
X62474486Y3181858D01*
X62365622Y3199100D01*
X62145178Y3199100D01*
X62072601Y3187605D01*
X61927447Y3164615D01*
X61717796Y3096497D01*
X61717793Y3096496D01*
X61521374Y2996413D01*
X61343041Y2866848D01*
X61343036Y2866844D01*
X61187156Y2710964D01*
X61105408Y2598447D01*
X61050078Y2555782D01*
X60980464Y2549803D01*
X60918669Y2582409D01*
X60906816Y2596087D01*
X60906465Y2596115D01*
X60238362Y1928011D01*
X60221325Y1991593D01*
X60155499Y2105607D01*
X60062407Y2198699D01*
X59948393Y2264525D01*
X59884807Y2281563D01*
X60552913Y2949668D01*
X60489156Y2995989D01*
X60292810Y3096033D01*
X60083235Y3164127D01*
X59865581Y3198600D01*
X59645219Y3198600D01*
X59427564Y3164127D01*
X59217989Y3096033D01*
X59021633Y2995984D01*
X58957885Y2949669D01*
X58957885Y2949668D01*
X59625990Y2281563D01*
X59562407Y2264525D01*
X59448393Y2198699D01*
X59355301Y2105607D01*
X59289475Y1991593D01*
X59272437Y1928010D01*
X58604332Y2596115D01*
X58604331Y2596115D01*
X58558016Y2532367D01*
X58457967Y2336011D01*
X58389873Y2126436D01*
X58355400Y1908782D01*
X58355400Y1688419D01*
X58389873Y1470765D01*
X58457967Y1261190D01*
X58558011Y1064844D01*
X58604332Y1001087D01*
X59272437Y1669192D01*
X59289475Y1605607D01*
X59355301Y1491593D01*
X59448393Y1398501D01*
X59562407Y1332675D01*
X59625990Y1315638D01*
X58957885Y647535D01*
X58962371Y590545D01*
X58960333Y590385D01*
X58963468Y553869D01*
X58930859Y492075D01*
X58870019Y457721D01*
X58841939Y454500D01*
X41590512Y454500D01*
X41523473Y474185D01*
X41477718Y526989D01*
X41467774Y596147D01*
X41496799Y659703D01*
X41517627Y678818D01*
X41588559Y730353D01*
X41588561Y730356D01*
X41588565Y730358D01*
X41744442Y886235D01*
X41874015Y1064578D01*
X41974095Y1260994D01*
X42042215Y1470649D01*
X42076700Y1688378D01*
X42076700Y1908822D01*
X42042215Y2126551D01*
X41986314Y2298600D01*
X41974096Y2336204D01*
X41974095Y2336207D01*
X41939437Y2404225D01*
X41874015Y2532622D01*
X41825881Y2598873D01*
X41744447Y2710959D01*
X41744443Y2710964D01*
X41588563Y2866844D01*
X41588558Y2866848D01*
X41410225Y2996413D01*
X41410224Y2996414D01*
X41410222Y2996415D01*
X41347296Y3028478D01*
X41213806Y3096496D01*
X41213803Y3096497D01*
X41004152Y3164615D01*
X40895286Y3181858D01*
X40786422Y3199100D01*
X40565978Y3199100D01*
X40493401Y3187605D01*
X40348247Y3164615D01*
X40138596Y3096497D01*
X40138593Y3096496D01*
X39942174Y2996413D01*
X39763841Y2866848D01*
X39763836Y2866844D01*
X39607956Y2710964D01*
X39607952Y2710959D01*
X39526518Y2598873D01*
X39471189Y2556207D01*
X39401575Y2550228D01*
X39339780Y2582833D01*
X39325882Y2598873D01*
X39244447Y2710959D01*
X39244443Y2710964D01*
X39088563Y2866844D01*
X39088558Y2866848D01*
X38910225Y2996413D01*
X38910224Y2996414D01*
X38910222Y2996415D01*
X38847296Y3028478D01*
X38713806Y3096496D01*
X38713803Y3096497D01*
X38504152Y3164615D01*
X38395286Y3181858D01*
X38286422Y3199100D01*
X38065978Y3199100D01*
X37993401Y3187605D01*
X37848247Y3164615D01*
X37638596Y3096497D01*
X37638593Y3096496D01*
X37442174Y2996413D01*
X37263841Y2866848D01*
X37263836Y2866844D01*
X37107956Y2710964D01*
X37026208Y2598447D01*
X36970878Y2555782D01*
X36901264Y2549803D01*
X36839469Y2582409D01*
X36827616Y2596087D01*
X36827265Y2596115D01*
X36159162Y1928011D01*
X36142125Y1991593D01*
X36076299Y2105607D01*
X35983207Y2198699D01*
X35869193Y2264525D01*
X35805607Y2281563D01*
X36473713Y2949668D01*
X36409956Y2995989D01*
X36213610Y3096033D01*
X36004035Y3164127D01*
X35786381Y3198600D01*
X35566019Y3198600D01*
X35348364Y3164127D01*
X35138789Y3096033D01*
X34942433Y2995984D01*
X34878685Y2949669D01*
X34878685Y2949668D01*
X35546790Y2281563D01*
X35483207Y2264525D01*
X35369193Y2198699D01*
X35276101Y2105607D01*
X35210275Y1991593D01*
X35193237Y1928010D01*
X34525132Y2596115D01*
X34525131Y2596115D01*
X34478816Y2532367D01*
X34378767Y2336011D01*
X34310673Y2126436D01*
X34276200Y1908782D01*
X34276200Y1688419D01*
X34310673Y1470765D01*
X34378767Y1261190D01*
X34478811Y1064844D01*
X34525132Y1001087D01*
X35193237Y1669192D01*
X35210275Y1605607D01*
X35276101Y1491593D01*
X35369193Y1398501D01*
X35483207Y1332675D01*
X35546790Y1315638D01*
X34878685Y647535D01*
X34883171Y590545D01*
X34881133Y590385D01*
X34884268Y553869D01*
X34851659Y492075D01*
X34790819Y457721D01*
X34762739Y454500D01*
X614500Y454500D01*
X547461Y474185D01*
X501706Y526989D01*
X490500Y578500D01*
X490500Y6427898D01*
X8305100Y6427898D01*
X8305100Y6191703D01*
X8342046Y5958432D01*
X8415033Y5733804D01*
X8444605Y5675767D01*
X8522257Y5523367D01*
X8661083Y5332290D01*
X8828090Y5165283D01*
X9019167Y5026457D01*
X9118591Y4975798D01*
X9229603Y4919234D01*
X9229605Y4919234D01*
X9229608Y4919232D01*
X9338632Y4883808D01*
X9454231Y4846247D01*
X9687503Y4809300D01*
X9687508Y4809300D01*
X9923697Y4809300D01*
X10156968Y4846247D01*
X10381592Y4919232D01*
X10592033Y5026457D01*
X10783110Y5165283D01*
X10950117Y5332290D01*
X11088943Y5523367D01*
X11196168Y5733808D01*
X11269153Y5958432D01*
X11273963Y5988803D01*
X11278651Y6018398D01*
X11293247Y6049190D01*
X11307411Y6080203D01*
X11308185Y6080701D01*
X11308580Y6081533D01*
X11337518Y6099552D01*
X11366189Y6117977D01*
X11367386Y6118150D01*
X11367892Y6118464D01*
X11401124Y6123000D01*
X11522696Y6123000D01*
X11589735Y6103315D01*
X11635490Y6050511D01*
X11645434Y5981353D01*
X11640627Y5960681D01*
X11592046Y5811169D01*
X11555100Y5577898D01*
X11555100Y5341703D01*
X11592046Y5108432D01*
X11665033Y4883804D01*
X11772257Y4673367D01*
X11911083Y4482290D01*
X12078090Y4315283D01*
X12269167Y4176457D01*
X12368591Y4125798D01*
X12479603Y4069234D01*
X12479605Y4069234D01*
X12479608Y4069232D01*
X12600012Y4030111D01*
X12704231Y3996247D01*
X12937503Y3959300D01*
X12937508Y3959300D01*
X13173697Y3959300D01*
X13406968Y3996247D01*
X13631592Y4069232D01*
X13842033Y4176457D01*
X14033110Y4315283D01*
X14200117Y4482290D01*
X14338943Y4673367D01*
X14446168Y4883808D01*
X14519153Y5108432D01*
X14530307Y5178857D01*
X14556100Y5341703D01*
X14556100Y5577898D01*
X14519153Y5811169D01*
X14470573Y5960681D01*
X14469769Y5988803D01*
X14465766Y6016647D01*
X14468785Y6023259D01*
X14468578Y6030523D01*
X14483104Y6054613D01*
X14494791Y6080203D01*
X14500904Y6084133D01*
X14504658Y6090356D01*
X14529904Y6102769D01*
X14553569Y6117977D01*
X14563839Y6119454D01*
X14567359Y6121184D01*
X14588504Y6123000D01*
X14710076Y6123000D01*
X14777115Y6103315D01*
X14822870Y6050511D01*
X14832549Y6018398D01*
X14842046Y5958432D01*
X14915033Y5733804D01*
X14944605Y5675767D01*
X15022257Y5523367D01*
X15161083Y5332290D01*
X15328090Y5165283D01*
X15519167Y5026457D01*
X15618591Y4975798D01*
X15729603Y4919234D01*
X15729605Y4919234D01*
X15729608Y4919232D01*
X15838632Y4883808D01*
X15954231Y4846247D01*
X16187503Y4809300D01*
X16187508Y4809300D01*
X16423697Y4809300D01*
X16656968Y4846247D01*
X16881592Y4919232D01*
X17092033Y5026457D01*
X17283110Y5165283D01*
X17450117Y5332290D01*
X17588943Y5523367D01*
X17696168Y5733808D01*
X17769153Y5958432D01*
X17783737Y6050511D01*
X17806100Y6191703D01*
X17806100Y6427898D01*
X17769153Y6661169D01*
X17696166Y6885797D01*
X17588942Y7096234D01*
X17450117Y7287310D01*
X17283110Y7454317D01*
X17092033Y7593143D01*
X16881596Y7700367D01*
X16656968Y7773354D01*
X16423697Y7810300D01*
X16423692Y7810300D01*
X16187508Y7810300D01*
X16187503Y7810300D01*
X15954231Y7773354D01*
X15729603Y7700367D01*
X15519166Y7593143D01*
X15402040Y7508046D01*
X15328090Y7454317D01*
X15328088Y7454316D01*
X15325565Y7452482D01*
X15259758Y7429002D01*
X15252679Y7428800D01*
X10858521Y7428800D01*
X10791482Y7448485D01*
X10785635Y7452482D01*
X10783111Y7454316D01*
X10783110Y7454317D01*
X10592033Y7593143D01*
X10381596Y7700367D01*
X10156968Y7773354D01*
X9923697Y7810300D01*
X9923692Y7810300D01*
X9687508Y7810300D01*
X9687503Y7810300D01*
X9454231Y7773354D01*
X9229603Y7700367D01*
X9019166Y7593143D01*
X8910150Y7513938D01*
X8828090Y7454317D01*
X8828088Y7454315D01*
X8828087Y7454315D01*
X8661085Y7287313D01*
X8661085Y7287312D01*
X8661083Y7287310D01*
X8621943Y7233438D01*
X8522257Y7096234D01*
X8415033Y6885797D01*
X8342046Y6661169D01*
X8305100Y6427898D01*
X490500Y6427898D01*
X490500Y8950264D01*
X31075700Y8950264D01*
X31075700Y8646937D01*
X31109657Y8345552D01*
X31109660Y8345538D01*
X31177153Y8049829D01*
X31177157Y8049817D01*
X31277333Y7763532D01*
X31408933Y7490262D01*
X31408935Y7490259D01*
X31570308Y7233436D01*
X31759421Y6996296D01*
X31973896Y6781821D01*
X32211036Y6592708D01*
X32467859Y6431335D01*
X32741135Y6299732D01*
X32921748Y6236533D01*
X33027416Y6199558D01*
X33027428Y6199554D01*
X33323137Y6132060D01*
X33323146Y6132059D01*
X33323151Y6132058D01*
X33511542Y6110832D01*
X33624537Y6098101D01*
X33624540Y6098100D01*
X33624543Y6098100D01*
X33927860Y6098100D01*
X33927861Y6098101D01*
X34104272Y6117977D01*
X34229248Y6132058D01*
X34229251Y6132059D01*
X34229263Y6132060D01*
X34524972Y6199554D01*
X34811265Y6299732D01*
X35084541Y6431335D01*
X35341364Y6592708D01*
X35578504Y6781821D01*
X35792979Y6996296D01*
X35982092Y7233436D01*
X36143465Y7490259D01*
X36275068Y7763535D01*
X36375246Y8049828D01*
X36442740Y8345537D01*
X36476700Y8646943D01*
X36476700Y8950257D01*
X36476699Y8950264D01*
X39875700Y8950264D01*
X39875700Y8646937D01*
X39909657Y8345552D01*
X39909660Y8345538D01*
X39977153Y8049829D01*
X39977157Y8049817D01*
X40077333Y7763532D01*
X40208933Y7490262D01*
X40208935Y7490259D01*
X40370308Y7233436D01*
X40559421Y6996296D01*
X40773896Y6781821D01*
X41011036Y6592708D01*
X41267859Y6431335D01*
X41541135Y6299732D01*
X41721748Y6236533D01*
X41827416Y6199558D01*
X41827428Y6199554D01*
X42123137Y6132060D01*
X42123146Y6132059D01*
X42123151Y6132058D01*
X42311542Y6110832D01*
X42424537Y6098101D01*
X42424540Y6098100D01*
X42424543Y6098100D01*
X42727860Y6098100D01*
X42727861Y6098101D01*
X42904272Y6117977D01*
X43029248Y6132058D01*
X43029251Y6132059D01*
X43029263Y6132060D01*
X43324972Y6199554D01*
X43611265Y6299732D01*
X43884541Y6431335D01*
X44141364Y6592708D01*
X44378504Y6781821D01*
X44592979Y6996296D01*
X44782092Y7233436D01*
X44943465Y7490259D01*
X45075068Y7763535D01*
X45175246Y8049828D01*
X45242740Y8345537D01*
X45276700Y8646943D01*
X45276700Y8950257D01*
X45276699Y8950264D01*
X55154900Y8950264D01*
X55154900Y8646937D01*
X55188857Y8345552D01*
X55188860Y8345538D01*
X55256353Y8049829D01*
X55256357Y8049817D01*
X55356533Y7763532D01*
X55488133Y7490262D01*
X55488135Y7490259D01*
X55649508Y7233436D01*
X55838621Y6996296D01*
X56053096Y6781821D01*
X56290236Y6592708D01*
X56547059Y6431335D01*
X56820335Y6299732D01*
X57000948Y6236533D01*
X57106616Y6199558D01*
X57106628Y6199554D01*
X57402337Y6132060D01*
X57402346Y6132059D01*
X57402351Y6132058D01*
X57590742Y6110832D01*
X57703737Y6098101D01*
X57703740Y6098100D01*
X57703743Y6098100D01*
X58007060Y6098100D01*
X58007061Y6098101D01*
X58183472Y6117977D01*
X58308448Y6132058D01*
X58308451Y6132059D01*
X58308463Y6132060D01*
X58604172Y6199554D01*
X58890465Y6299732D01*
X59163741Y6431335D01*
X59420564Y6592708D01*
X59657704Y6781821D01*
X59872179Y6996296D01*
X60061292Y7233436D01*
X60222665Y7490259D01*
X60354268Y7763535D01*
X60454446Y8049828D01*
X60521940Y8345537D01*
X60555900Y8646943D01*
X60555900Y8950257D01*
X60555899Y8950264D01*
X63954900Y8950264D01*
X63954900Y8646937D01*
X63988857Y8345552D01*
X63988860Y8345538D01*
X64056353Y8049829D01*
X64056357Y8049817D01*
X64156533Y7763532D01*
X64288133Y7490262D01*
X64288135Y7490259D01*
X64449508Y7233436D01*
X64638621Y6996296D01*
X64853096Y6781821D01*
X65090236Y6592708D01*
X65347059Y6431335D01*
X65620335Y6299732D01*
X65800948Y6236533D01*
X65906616Y6199558D01*
X65906628Y6199554D01*
X66202337Y6132060D01*
X66202346Y6132059D01*
X66202351Y6132058D01*
X66390742Y6110832D01*
X66503737Y6098101D01*
X66503740Y6098100D01*
X66503743Y6098100D01*
X66807060Y6098100D01*
X66807061Y6098101D01*
X66983472Y6117977D01*
X67108448Y6132058D01*
X67108451Y6132059D01*
X67108463Y6132060D01*
X67404172Y6199554D01*
X67690465Y6299732D01*
X67963741Y6431335D01*
X68200814Y6580298D01*
X82498500Y6580298D01*
X82498500Y6344103D01*
X82535446Y6110832D01*
X82608433Y5886204D01*
X82687872Y5730298D01*
X82715657Y5675767D01*
X82854483Y5484690D01*
X83021490Y5317683D01*
X83212567Y5178857D01*
X83311991Y5128198D01*
X83423003Y5071634D01*
X83423005Y5071634D01*
X83423008Y5071632D01*
X83532032Y5036208D01*
X83647631Y4998647D01*
X83880903Y4961700D01*
X83880908Y4961700D01*
X84117097Y4961700D01*
X84350368Y4998647D01*
X84574992Y5071632D01*
X84785433Y5178857D01*
X84976510Y5317683D01*
X85143517Y5484690D01*
X85282343Y5675767D01*
X85389568Y5886208D01*
X85462553Y6110832D01*
X85467363Y6141203D01*
X85472051Y6170798D01*
X85486647Y6201590D01*
X85500811Y6232603D01*
X85501585Y6233101D01*
X85501980Y6233933D01*
X85530918Y6251952D01*
X85559589Y6270377D01*
X85560786Y6270550D01*
X85561292Y6270864D01*
X85594524Y6275400D01*
X85716096Y6275400D01*
X85783135Y6255715D01*
X85828890Y6202911D01*
X85838834Y6133753D01*
X85834027Y6113081D01*
X85785446Y5963569D01*
X85748500Y5730298D01*
X85748500Y5494103D01*
X85785446Y5260832D01*
X85858433Y5036204D01*
X85955222Y4846247D01*
X85965657Y4825767D01*
X86104483Y4634690D01*
X86271490Y4467683D01*
X86462567Y4328857D01*
X86561991Y4278198D01*
X86673003Y4221634D01*
X86673005Y4221634D01*
X86673008Y4221632D01*
X86793412Y4182511D01*
X86897631Y4148647D01*
X87130903Y4111700D01*
X87130908Y4111700D01*
X87367097Y4111700D01*
X87600368Y4148647D01*
X87824992Y4221632D01*
X88035433Y4328857D01*
X88226510Y4467683D01*
X88393517Y4634690D01*
X88532343Y4825767D01*
X88639568Y5036208D01*
X88712553Y5260832D01*
X88721558Y5317686D01*
X88749500Y5494103D01*
X88749500Y5730298D01*
X88712553Y5963569D01*
X88663973Y6113081D01*
X88663169Y6141203D01*
X88659166Y6169047D01*
X88662185Y6175659D01*
X88661978Y6182923D01*
X88676504Y6207013D01*
X88688191Y6232603D01*
X88694304Y6236533D01*
X88698058Y6242756D01*
X88723304Y6255169D01*
X88746969Y6270377D01*
X88757239Y6271854D01*
X88760759Y6273584D01*
X88781904Y6275400D01*
X88903476Y6275400D01*
X88970515Y6255715D01*
X89016270Y6202911D01*
X89025949Y6170798D01*
X89035446Y6110832D01*
X89108433Y5886204D01*
X89187872Y5730298D01*
X89215657Y5675767D01*
X89354483Y5484690D01*
X89521490Y5317683D01*
X89712567Y5178857D01*
X89811991Y5128198D01*
X89923003Y5071634D01*
X89923005Y5071634D01*
X89923008Y5071632D01*
X90032032Y5036208D01*
X90147631Y4998647D01*
X90380903Y4961700D01*
X90380908Y4961700D01*
X90617097Y4961700D01*
X90850368Y4998647D01*
X91074992Y5071632D01*
X91285433Y5178857D01*
X91476510Y5317683D01*
X91643517Y5484690D01*
X91782343Y5675767D01*
X91889568Y5886208D01*
X91962553Y6110832D01*
X91975362Y6191703D01*
X91999500Y6344103D01*
X91999500Y6580298D01*
X91962553Y6813569D01*
X91903181Y6996296D01*
X91889568Y7038192D01*
X91889566Y7038195D01*
X91889566Y7038197D01*
X91782342Y7248634D01*
X91754242Y7287310D01*
X91643517Y7439710D01*
X91476510Y7606717D01*
X91285433Y7745543D01*
X91230851Y7773354D01*
X91074996Y7852767D01*
X90850368Y7925754D01*
X90617097Y7962700D01*
X90617092Y7962700D01*
X90380908Y7962700D01*
X90380903Y7962700D01*
X90147631Y7925754D01*
X89923003Y7852767D01*
X89712566Y7745543D01*
X89595440Y7660446D01*
X89521490Y7606717D01*
X89521488Y7606716D01*
X89518965Y7604882D01*
X89453158Y7581402D01*
X89446079Y7581200D01*
X85051921Y7581200D01*
X84984882Y7600885D01*
X84979035Y7604882D01*
X84976511Y7606716D01*
X84976510Y7606717D01*
X84785433Y7745543D01*
X84730851Y7773354D01*
X84574996Y7852767D01*
X84350368Y7925754D01*
X84117097Y7962700D01*
X84117092Y7962700D01*
X83880908Y7962700D01*
X83880903Y7962700D01*
X83647631Y7925754D01*
X83423003Y7852767D01*
X83212566Y7745543D01*
X83103550Y7666338D01*
X83021490Y7606717D01*
X83021488Y7606715D01*
X83021487Y7606715D01*
X82854485Y7439713D01*
X82854485Y7439712D01*
X82854483Y7439710D01*
X82794862Y7357650D01*
X82715657Y7248634D01*
X82608433Y7038197D01*
X82535446Y6813569D01*
X82498500Y6580298D01*
X68200814Y6580298D01*
X68220564Y6592708D01*
X68457704Y6781821D01*
X68672179Y6996296D01*
X68861292Y7233436D01*
X69022665Y7490259D01*
X69154268Y7763535D01*
X69254446Y8049828D01*
X69321940Y8345537D01*
X69355900Y8646943D01*
X69355900Y8950257D01*
X69321940Y9251663D01*
X69254446Y9547372D01*
X69245956Y9571634D01*
X69209262Y9676500D01*
X69154268Y9833665D01*
X69022665Y10106941D01*
X68861292Y10363764D01*
X68672179Y10600904D01*
X68457704Y10815379D01*
X68220564Y11004492D01*
X68099920Y11080298D01*
X82498500Y11080298D01*
X82498500Y10844103D01*
X82535446Y10610832D01*
X82608433Y10386204D01*
X82715657Y10175767D01*
X82854483Y9984690D01*
X83021490Y9817683D01*
X83212567Y9678857D01*
X83311991Y9628198D01*
X83423003Y9571634D01*
X83423005Y9571634D01*
X83423008Y9571632D01*
X83543412Y9532511D01*
X83647631Y9498647D01*
X83880903Y9461700D01*
X83880908Y9461700D01*
X84117097Y9461700D01*
X84350368Y9498647D01*
X84574992Y9571632D01*
X84785433Y9678857D01*
X84959353Y9805219D01*
X85025160Y9828698D01*
X85032239Y9828900D01*
X89465761Y9828900D01*
X89532800Y9809215D01*
X89538639Y9805224D01*
X89712567Y9678857D01*
X89811991Y9628198D01*
X89923003Y9571634D01*
X89923005Y9571634D01*
X89923008Y9571632D01*
X90043412Y9532511D01*
X90147631Y9498647D01*
X90380903Y9461700D01*
X90380908Y9461700D01*
X90617097Y9461700D01*
X90850368Y9498647D01*
X91074992Y9571632D01*
X91285433Y9678857D01*
X91476510Y9817683D01*
X91643517Y9984690D01*
X91782343Y10175767D01*
X91889568Y10386208D01*
X91962553Y10610832D01*
X91975362Y10691703D01*
X91999500Y10844103D01*
X91999500Y11080298D01*
X91962553Y11313569D01*
X91889566Y11538197D01*
X91782342Y11748634D01*
X91761085Y11777892D01*
X91643517Y11939710D01*
X91476510Y12106717D01*
X91285433Y12245543D01*
X91230851Y12273354D01*
X91074996Y12352767D01*
X90850368Y12425754D01*
X90617097Y12462700D01*
X90617092Y12462700D01*
X90380908Y12462700D01*
X90380903Y12462700D01*
X90147631Y12425754D01*
X89923003Y12352767D01*
X89712566Y12245543D01*
X89603550Y12166338D01*
X89521490Y12106717D01*
X89521488Y12106715D01*
X89521487Y12106715D01*
X89354485Y11939713D01*
X89354485Y11939712D01*
X89354483Y11939710D01*
X89294862Y11857650D01*
X89215657Y11748634D01*
X89108433Y11538197D01*
X89035446Y11313569D01*
X89023684Y11239302D01*
X89009087Y11208511D01*
X88994924Y11177497D01*
X88994149Y11177000D01*
X88993755Y11176167D01*
X88964816Y11158149D01*
X88936146Y11139723D01*
X88934948Y11139551D01*
X88934443Y11139236D01*
X88901211Y11134700D01*
X88777257Y11134700D01*
X88710218Y11154385D01*
X88664463Y11207189D01*
X88654519Y11276347D01*
X88659324Y11297011D01*
X88712553Y11460832D01*
X88724806Y11538192D01*
X88749500Y11694103D01*
X88749500Y11930298D01*
X88712553Y12163569D01*
X88639566Y12388197D01*
X88532342Y12598634D01*
X88504242Y12637310D01*
X88393517Y12789710D01*
X88226510Y12956717D01*
X88035433Y13095543D01*
X87980851Y13123354D01*
X87824996Y13202767D01*
X87600368Y13275754D01*
X87367097Y13312700D01*
X87367092Y13312700D01*
X87130908Y13312700D01*
X87130903Y13312700D01*
X86897631Y13275754D01*
X86673003Y13202767D01*
X86462566Y13095543D01*
X86353550Y13016338D01*
X86271490Y12956717D01*
X86271488Y12956715D01*
X86271487Y12956715D01*
X86104485Y12789713D01*
X86104485Y12789712D01*
X86104483Y12789710D01*
X86044862Y12707650D01*
X85965657Y12598634D01*
X85858433Y12388197D01*
X85785446Y12163569D01*
X85748500Y11930298D01*
X85748500Y11694103D01*
X85785446Y11460832D01*
X85805977Y11397647D01*
X85838674Y11297017D01*
X85839477Y11268898D01*
X85843481Y11241053D01*
X85840461Y11234442D01*
X85840669Y11227178D01*
X85826144Y11203092D01*
X85814456Y11177497D01*
X85808341Y11173568D01*
X85804589Y11167345D01*
X85779345Y11154933D01*
X85755678Y11139723D01*
X85745408Y11138247D01*
X85741889Y11136516D01*
X85720743Y11134700D01*
X85596789Y11134700D01*
X85529750Y11154385D01*
X85483995Y11207189D01*
X85474316Y11239302D01*
X85462553Y11313569D01*
X85389566Y11538197D01*
X85282342Y11748634D01*
X85261085Y11777892D01*
X85143517Y11939710D01*
X84976510Y12106717D01*
X84785433Y12245543D01*
X84730851Y12273354D01*
X84574996Y12352767D01*
X84350368Y12425754D01*
X84117097Y12462700D01*
X84117092Y12462700D01*
X83880908Y12462700D01*
X83880903Y12462700D01*
X83647631Y12425754D01*
X83423003Y12352767D01*
X83212566Y12245543D01*
X83103550Y12166338D01*
X83021490Y12106717D01*
X83021488Y12106715D01*
X83021487Y12106715D01*
X82854485Y11939713D01*
X82854485Y11939712D01*
X82854483Y11939710D01*
X82794862Y11857650D01*
X82715657Y11748634D01*
X82608433Y11538197D01*
X82535446Y11313569D01*
X82498500Y11080298D01*
X68099920Y11080298D01*
X67963741Y11165865D01*
X67963738Y11165867D01*
X67690468Y11297467D01*
X67404183Y11397643D01*
X67404171Y11397647D01*
X67127337Y11460832D01*
X67108463Y11465140D01*
X67108460Y11465141D01*
X67108448Y11465143D01*
X66807063Y11499100D01*
X66807057Y11499100D01*
X66503743Y11499100D01*
X66503736Y11499100D01*
X66202351Y11465143D01*
X66202337Y11465140D01*
X65906628Y11397647D01*
X65906616Y11397643D01*
X65620331Y11297467D01*
X65347061Y11165867D01*
X65090237Y11004493D01*
X64853096Y10815380D01*
X64638620Y10600904D01*
X64449507Y10363763D01*
X64288133Y10106939D01*
X64156533Y9833669D01*
X64056357Y9547384D01*
X64056353Y9547372D01*
X63988860Y9251663D01*
X63988857Y9251649D01*
X63954900Y8950264D01*
X60555899Y8950264D01*
X60521940Y9251663D01*
X60454446Y9547372D01*
X60445956Y9571634D01*
X60409262Y9676500D01*
X60354268Y9833665D01*
X60222665Y10106941D01*
X60061292Y10363764D01*
X59872179Y10600904D01*
X59657704Y10815379D01*
X59420564Y11004492D01*
X59163741Y11165865D01*
X59163738Y11165867D01*
X58890468Y11297467D01*
X58604183Y11397643D01*
X58604171Y11397647D01*
X58327337Y11460832D01*
X58308463Y11465140D01*
X58308460Y11465141D01*
X58308448Y11465143D01*
X58007063Y11499100D01*
X58007057Y11499100D01*
X57703743Y11499100D01*
X57703736Y11499100D01*
X57402351Y11465143D01*
X57402337Y11465140D01*
X57106628Y11397647D01*
X57106616Y11397643D01*
X56820331Y11297467D01*
X56547061Y11165867D01*
X56290237Y11004493D01*
X56053096Y10815380D01*
X55838620Y10600904D01*
X55649507Y10363763D01*
X55488133Y10106939D01*
X55356533Y9833669D01*
X55256357Y9547384D01*
X55256353Y9547372D01*
X55188860Y9251663D01*
X55188857Y9251649D01*
X55154900Y8950264D01*
X45276699Y8950264D01*
X45242740Y9251663D01*
X45175246Y9547372D01*
X45166756Y9571634D01*
X45130062Y9676500D01*
X45075068Y9833665D01*
X44943465Y10106941D01*
X44782092Y10363764D01*
X44592979Y10600904D01*
X44378504Y10815379D01*
X44141364Y11004492D01*
X43884541Y11165865D01*
X43884538Y11165867D01*
X43611268Y11297467D01*
X43324983Y11397643D01*
X43324971Y11397647D01*
X43048137Y11460832D01*
X43029263Y11465140D01*
X43029260Y11465141D01*
X43029248Y11465143D01*
X42727863Y11499100D01*
X42727857Y11499100D01*
X42424543Y11499100D01*
X42424536Y11499100D01*
X42123151Y11465143D01*
X42123137Y11465140D01*
X41827428Y11397647D01*
X41827416Y11397643D01*
X41541131Y11297467D01*
X41267861Y11165867D01*
X41011037Y11004493D01*
X40773896Y10815380D01*
X40559420Y10600904D01*
X40370307Y10363763D01*
X40208933Y10106939D01*
X40077333Y9833669D01*
X39977157Y9547384D01*
X39977153Y9547372D01*
X39909660Y9251663D01*
X39909657Y9251649D01*
X39875700Y8950264D01*
X36476699Y8950264D01*
X36442740Y9251663D01*
X36375246Y9547372D01*
X36366756Y9571634D01*
X36330062Y9676500D01*
X36275068Y9833665D01*
X36143465Y10106941D01*
X35982092Y10363764D01*
X35792979Y10600904D01*
X35578504Y10815379D01*
X35341364Y11004492D01*
X35084541Y11165865D01*
X35084538Y11165867D01*
X34811268Y11297467D01*
X34524983Y11397643D01*
X34524971Y11397647D01*
X34248137Y11460832D01*
X34229263Y11465140D01*
X34229260Y11465141D01*
X34229248Y11465143D01*
X33927863Y11499100D01*
X33927857Y11499100D01*
X33624543Y11499100D01*
X33624536Y11499100D01*
X33323151Y11465143D01*
X33323137Y11465140D01*
X33027428Y11397647D01*
X33027416Y11397643D01*
X32741131Y11297467D01*
X32467861Y11165867D01*
X32211037Y11004493D01*
X31973896Y10815380D01*
X31759420Y10600904D01*
X31570307Y10363763D01*
X31408933Y10106939D01*
X31277333Y9833669D01*
X31177157Y9547384D01*
X31177153Y9547372D01*
X31109660Y9251663D01*
X31109657Y9251649D01*
X31075700Y8950264D01*
X490500Y8950264D01*
X490500Y10927898D01*
X8305100Y10927898D01*
X8305100Y10691703D01*
X8342046Y10458432D01*
X8415033Y10233804D01*
X8444605Y10175767D01*
X8522257Y10023367D01*
X8661083Y9832290D01*
X8828090Y9665283D01*
X9019167Y9526457D01*
X9118591Y9475798D01*
X9229603Y9419234D01*
X9229605Y9419234D01*
X9229608Y9419232D01*
X9350012Y9380111D01*
X9454231Y9346247D01*
X9687503Y9309300D01*
X9687508Y9309300D01*
X9923697Y9309300D01*
X10156968Y9346247D01*
X10381592Y9419232D01*
X10592033Y9526457D01*
X10765953Y9652819D01*
X10831760Y9676298D01*
X10838839Y9676500D01*
X15272361Y9676500D01*
X15339400Y9656815D01*
X15345239Y9652824D01*
X15519167Y9526457D01*
X15618591Y9475798D01*
X15729603Y9419234D01*
X15729605Y9419234D01*
X15729608Y9419232D01*
X15850012Y9380111D01*
X15954231Y9346247D01*
X16187503Y9309300D01*
X16187508Y9309300D01*
X16423697Y9309300D01*
X16656968Y9346247D01*
X16881592Y9419232D01*
X17092033Y9526457D01*
X17283110Y9665283D01*
X17450117Y9832290D01*
X17588943Y10023367D01*
X17696168Y10233808D01*
X17769153Y10458432D01*
X17806100Y10691703D01*
X17806100Y10927898D01*
X17769153Y11161169D01*
X17746322Y11231433D01*
X17744326Y11301274D01*
X17776570Y11357431D01*
X26873128Y20453989D01*
X88139500Y20453989D01*
X88139500Y20211412D01*
X88171161Y19970915D01*
X88233947Y19736596D01*
X88326773Y19512495D01*
X88326776Y19512488D01*
X88448064Y19302411D01*
X88448066Y19302408D01*
X88448067Y19302407D01*
X88595733Y19109964D01*
X88595739Y19109957D01*
X88767256Y18938440D01*
X88767262Y18938435D01*
X88959711Y18790764D01*
X89169788Y18669476D01*
X89393900Y18576646D01*
X89628211Y18513862D01*
X89808586Y18490116D01*
X89868711Y18482200D01*
X89868712Y18482200D01*
X90111289Y18482200D01*
X90159388Y18488533D01*
X90351789Y18513862D01*
X90586100Y18576646D01*
X90810212Y18669476D01*
X91020289Y18790764D01*
X91212738Y18938435D01*
X91384265Y19109962D01*
X91531936Y19302411D01*
X91653224Y19512488D01*
X91746054Y19736600D01*
X91808838Y19970911D01*
X91840500Y20211412D01*
X91840500Y20453988D01*
X91808838Y20694489D01*
X91746054Y20928800D01*
X91653224Y21152912D01*
X91531936Y21362989D01*
X91384265Y21555438D01*
X91384260Y21555444D01*
X91212743Y21726961D01*
X91212736Y21726967D01*
X91020293Y21874633D01*
X91020292Y21874634D01*
X91020289Y21874636D01*
X90810212Y21995924D01*
X90810205Y21995927D01*
X90586104Y22088753D01*
X90351785Y22151539D01*
X90111289Y22183200D01*
X90111288Y22183200D01*
X89868712Y22183200D01*
X89868711Y22183200D01*
X89628214Y22151539D01*
X89393895Y22088753D01*
X89169794Y21995927D01*
X89169785Y21995923D01*
X88959706Y21874633D01*
X88767263Y21726967D01*
X88767256Y21726961D01*
X88595739Y21555444D01*
X88595733Y21555437D01*
X88448067Y21362994D01*
X88326777Y21152915D01*
X88326773Y21152906D01*
X88233947Y20928805D01*
X88171161Y20694486D01*
X88139500Y20453989D01*
X26873128Y20453989D01*
X31227111Y24807972D01*
X72176200Y24807972D01*
X72176200Y24696400D01*
X72995870Y24696400D01*
X72976125Y24676655D01*
X72926756Y24591145D01*
X72901200Y24495770D01*
X72901200Y24397030D01*
X72926756Y24301655D01*
X72976125Y24216145D01*
X72995870Y24196400D01*
X72176200Y24196400D01*
X72176200Y24084829D01*
X72203285Y23913816D01*
X72256791Y23749143D01*
X72335395Y23594876D01*
X72437167Y23454798D01*
X72559597Y23332368D01*
X72699675Y23230596D01*
X72853944Y23151992D01*
X73018615Y23098486D01*
X73018614Y23098486D01*
X73026199Y23097285D01*
X73026200Y23097286D01*
X73026200Y24166070D01*
X73045945Y24146325D01*
X73131455Y24096956D01*
X73226830Y24071400D01*
X73325570Y24071400D01*
X73420945Y24096956D01*
X73506455Y24146325D01*
X73526200Y24166070D01*
X73526200Y23097285D01*
X73533784Y23098486D01*
X73698455Y23151992D01*
X73852724Y23230596D01*
X73992802Y23332368D01*
X74115236Y23454802D01*
X74175571Y23537848D01*
X74230900Y23580514D01*
X74300513Y23586495D01*
X74362309Y23553890D01*
X74376208Y23537850D01*
X74376518Y23537424D01*
X74436786Y23454472D01*
X74559272Y23331986D01*
X74699412Y23230168D01*
X74853755Y23151527D01*
X75018499Y23097998D01*
X75189589Y23070900D01*
X75189590Y23070900D01*
X75362810Y23070900D01*
X75362811Y23070900D01*
X75533901Y23097998D01*
X75698645Y23151527D01*
X75852988Y23230168D01*
X75993128Y23331986D01*
X76115614Y23454472D01*
X76175882Y23537425D01*
X76231212Y23580089D01*
X76300826Y23586068D01*
X76362621Y23553462D01*
X76376515Y23537427D01*
X76436786Y23454472D01*
X76559272Y23331986D01*
X76699412Y23230168D01*
X76853755Y23151527D01*
X77018499Y23097998D01*
X77189589Y23070900D01*
X77189590Y23070900D01*
X77362810Y23070900D01*
X77362811Y23070900D01*
X77533901Y23097998D01*
X77698645Y23151527D01*
X77852988Y23230168D01*
X77993128Y23331986D01*
X78100672Y23439531D01*
X78161991Y23473013D01*
X78231683Y23468029D01*
X78287617Y23426158D01*
X78293888Y23416944D01*
X78333485Y23352748D01*
X78333488Y23352744D01*
X78457544Y23228688D01*
X78606866Y23136586D01*
X78773403Y23081401D01*
X78876191Y23070900D01*
X79676208Y23070901D01*
X79676216Y23070902D01*
X79676219Y23070902D01*
X79732502Y23076652D01*
X79778997Y23081401D01*
X79945534Y23136586D01*
X80094856Y23228688D01*
X80218912Y23352744D01*
X80311014Y23502066D01*
X80366199Y23668603D01*
X80376700Y23771391D01*
X80376699Y25121408D01*
X80366199Y25224197D01*
X80311014Y25390734D01*
X80218912Y25540056D01*
X80094856Y25664112D01*
X79969759Y25741272D01*
X79945536Y25756213D01*
X79945531Y25756215D01*
X79944062Y25756702D01*
X79778997Y25811399D01*
X79778995Y25811400D01*
X79676210Y25821900D01*
X78876198Y25821900D01*
X78876180Y25821899D01*
X78773403Y25811400D01*
X78773400Y25811399D01*
X78606868Y25756215D01*
X78606863Y25756213D01*
X78457542Y25664111D01*
X78333487Y25540056D01*
X78293888Y25475856D01*
X78241939Y25429132D01*
X78172977Y25417911D01*
X78108895Y25445755D01*
X78100669Y25453273D01*
X77993130Y25560812D01*
X77993128Y25560814D01*
X77852988Y25662632D01*
X77698645Y25741273D01*
X77533901Y25794802D01*
X77533899Y25794803D01*
X77533898Y25794803D01*
X77402471Y25815619D01*
X77362811Y25821900D01*
X77189589Y25821900D01*
X77149928Y25815619D01*
X77018502Y25794803D01*
X76853752Y25741272D01*
X76699411Y25662632D01*
X76619456Y25604541D01*
X76559272Y25560814D01*
X76559270Y25560812D01*
X76559269Y25560812D01*
X76436788Y25438331D01*
X76436781Y25438322D01*
X76376517Y25355377D01*
X76321187Y25312711D01*
X76251574Y25306733D01*
X76189779Y25339339D01*
X76175883Y25355377D01*
X76115618Y25438322D01*
X76115614Y25438328D01*
X75993128Y25560814D01*
X75852988Y25662632D01*
X75698645Y25741273D01*
X75533901Y25794802D01*
X75533899Y25794803D01*
X75533898Y25794803D01*
X75402471Y25815619D01*
X75362811Y25821900D01*
X75189589Y25821900D01*
X75149928Y25815619D01*
X75018502Y25794803D01*
X74853752Y25741272D01*
X74699411Y25662632D01*
X74619456Y25604541D01*
X74559272Y25560814D01*
X74559270Y25560812D01*
X74559269Y25560812D01*
X74436785Y25438328D01*
X74376207Y25354950D01*
X74320877Y25312285D01*
X74251263Y25306307D01*
X74189469Y25338914D01*
X74175571Y25354953D01*
X74115236Y25437999D01*
X73992802Y25560433D01*
X73852724Y25662205D01*
X73698457Y25740809D01*
X73533789Y25794313D01*
X73533781Y25794315D01*
X73526200Y25795516D01*
X73526200Y24726730D01*
X73506455Y24746475D01*
X73420945Y24795844D01*
X73325570Y24821400D01*
X73226830Y24821400D01*
X73131455Y24795844D01*
X73045945Y24746475D01*
X73026200Y24726730D01*
X73026200Y25795516D01*
X73026199Y25795516D01*
X73018618Y25794315D01*
X73018610Y25794313D01*
X72853942Y25740809D01*
X72699675Y25662205D01*
X72559597Y25560433D01*
X72437167Y25438003D01*
X72335395Y25297925D01*
X72256791Y25143658D01*
X72203285Y24978985D01*
X72176200Y24807972D01*
X31227111Y24807972D01*
X34142745Y27723606D01*
X34204066Y27757089D01*
X34273758Y27752105D01*
X34329691Y27710233D01*
X34340909Y27692218D01*
X34413911Y27548944D01*
X34460232Y27485187D01*
X35128337Y28153293D01*
X35145375Y28089707D01*
X35211201Y27975693D01*
X35304293Y27882601D01*
X35418307Y27816775D01*
X35481890Y27799738D01*
X34813785Y27131635D01*
X34813785Y27131634D01*
X34877543Y27085312D01*
X35073889Y26985268D01*
X35283464Y26917174D01*
X35501119Y26882700D01*
X35721481Y26882700D01*
X35939135Y26917174D01*
X36148710Y26985268D01*
X36345060Y27085314D01*
X36408813Y27131634D01*
X36408814Y27131634D01*
X35740709Y27799738D01*
X35804293Y27816775D01*
X35918307Y27882601D01*
X36011399Y27975693D01*
X36077225Y28089707D01*
X36094262Y28153290D01*
X36762366Y27485186D01*
X36763847Y27485303D01*
X36816000Y27525520D01*
X36885614Y27531500D01*
X36947409Y27498894D01*
X36961308Y27482854D01*
X37043052Y27370341D01*
X37198936Y27214457D01*
X37198941Y27214453D01*
X37283616Y27152934D01*
X37377278Y27084885D01*
X37505675Y27019463D01*
X37573693Y26984805D01*
X37573696Y26984804D01*
X37678521Y26950745D01*
X37783349Y26916685D01*
X38001078Y26882200D01*
X38001079Y26882200D01*
X38221521Y26882200D01*
X38221522Y26882200D01*
X38439251Y26916685D01*
X38648906Y26984805D01*
X38845322Y27084885D01*
X39023665Y27214458D01*
X39179542Y27370335D01*
X39260982Y27482430D01*
X39316311Y27525094D01*
X39385924Y27531073D01*
X39447720Y27498468D01*
X39461613Y27482435D01*
X39527581Y27391637D01*
X39543058Y27370335D01*
X39698936Y27214457D01*
X39698941Y27214453D01*
X39783616Y27152934D01*
X39877278Y27084885D01*
X40005675Y27019463D01*
X40073693Y26984805D01*
X40073696Y26984804D01*
X40178521Y26950745D01*
X40283349Y26916685D01*
X40501078Y26882200D01*
X40501079Y26882200D01*
X40721521Y26882200D01*
X40721522Y26882200D01*
X40939251Y26916685D01*
X41148906Y26984805D01*
X41345322Y27084885D01*
X41523665Y27214458D01*
X41679542Y27370335D01*
X41809115Y27548678D01*
X41909195Y27745094D01*
X41977315Y27954749D01*
X42011800Y28172478D01*
X42011800Y28392922D01*
X41977315Y28610651D01*
X41909195Y28820306D01*
X41909195Y28820307D01*
X41874537Y28888325D01*
X41809115Y29016722D01*
X41747510Y29101515D01*
X41679547Y29195059D01*
X41679543Y29195064D01*
X41523659Y29350948D01*
X41464564Y29393882D01*
X41421898Y29449211D01*
X41415919Y29518825D01*
X41448524Y29580620D01*
X41509363Y29614977D01*
X41537449Y29618200D01*
X58671182Y29618200D01*
X58738221Y29598515D01*
X58783976Y29545711D01*
X58794800Y29484470D01*
X58792485Y29455068D01*
X59460590Y28786963D01*
X59397007Y28769925D01*
X59282993Y28704099D01*
X59189901Y28611007D01*
X59124075Y28496993D01*
X59107037Y28433410D01*
X58438932Y29101515D01*
X58438931Y29101515D01*
X58392616Y29037767D01*
X58292567Y28841411D01*
X58224473Y28631836D01*
X58190000Y28414182D01*
X58190000Y28193819D01*
X58224473Y27976165D01*
X58292567Y27766590D01*
X58392611Y27570244D01*
X58438932Y27506487D01*
X59107037Y28174592D01*
X59124075Y28111007D01*
X59189901Y27996993D01*
X59282993Y27903901D01*
X59397007Y27838075D01*
X59460590Y27821038D01*
X58792485Y27152935D01*
X58792485Y27152934D01*
X58856243Y27106612D01*
X59052589Y27006568D01*
X59262164Y26938474D01*
X59479819Y26904000D01*
X59700181Y26904000D01*
X59917835Y26938474D01*
X60127410Y27006568D01*
X60323760Y27106614D01*
X60387513Y27152934D01*
X60387514Y27152934D01*
X59719409Y27821038D01*
X59782993Y27838075D01*
X59897007Y27903901D01*
X59990099Y27996993D01*
X60055925Y28111007D01*
X60072962Y28174590D01*
X60741066Y27506486D01*
X60742547Y27506603D01*
X60794700Y27546820D01*
X60864314Y27552800D01*
X60926109Y27520194D01*
X60940008Y27504154D01*
X61021752Y27391641D01*
X61177636Y27235757D01*
X61177641Y27235753D01*
X61291632Y27152935D01*
X61355978Y27106185D01*
X61484375Y27040763D01*
X61552393Y27006105D01*
X61552396Y27006104D01*
X61657221Y26972045D01*
X61762049Y26937985D01*
X61979778Y26903500D01*
X61979779Y26903500D01*
X62200221Y26903500D01*
X62200222Y26903500D01*
X62417951Y26937985D01*
X62627606Y27006105D01*
X62824022Y27106185D01*
X63002365Y27235758D01*
X63158242Y27391635D01*
X63239682Y27503730D01*
X63295011Y27546394D01*
X63364624Y27552373D01*
X63426420Y27519768D01*
X63440313Y27503735D01*
X63521753Y27391642D01*
X63521758Y27391635D01*
X63677636Y27235757D01*
X63677641Y27235753D01*
X63791632Y27152935D01*
X63855978Y27106185D01*
X63984375Y27040763D01*
X64052393Y27006105D01*
X64052396Y27006104D01*
X64157221Y26972045D01*
X64262049Y26937985D01*
X64479778Y26903500D01*
X64479779Y26903500D01*
X64700221Y26903500D01*
X64700222Y26903500D01*
X64917951Y26937985D01*
X65127606Y27006105D01*
X65324022Y27106185D01*
X65502365Y27235758D01*
X65658242Y27391635D01*
X65787815Y27569978D01*
X65887895Y27766394D01*
X65956015Y27976049D01*
X65990500Y28193778D01*
X65990500Y28414222D01*
X65956015Y28631951D01*
X65911185Y28769925D01*
X65887896Y28841604D01*
X65887895Y28841607D01*
X65850853Y28914305D01*
X65787815Y29038022D01*
X65673722Y29195059D01*
X65658247Y29216359D01*
X65658243Y29216364D01*
X65502365Y29372242D01*
X65472581Y29393881D01*
X65429915Y29449211D01*
X65423936Y29518824D01*
X65456541Y29580620D01*
X65517380Y29614977D01*
X65545466Y29618200D01*
X85071407Y29618200D01*
X85156265Y29635081D01*
X85197544Y29643291D01*
X85316364Y29692508D01*
X85423300Y29763959D01*
X86442369Y30783030D01*
X86503690Y30816513D01*
X86568365Y30813279D01*
X86607507Y30800560D01*
X86638631Y30790447D01*
X86871903Y30753500D01*
X86871908Y30753500D01*
X87108097Y30753500D01*
X87341368Y30790447D01*
X87411634Y30813278D01*
X87565992Y30863432D01*
X87776433Y30970657D01*
X87967510Y31109483D01*
X88134517Y31276490D01*
X88273343Y31467567D01*
X88380568Y31678008D01*
X88453553Y31902632D01*
X88462558Y31959486D01*
X88490500Y32135903D01*
X88490500Y32372098D01*
X88453553Y32605369D01*
X88421194Y32704958D01*
X88404939Y32754984D01*
X88404136Y32783103D01*
X88400133Y32810947D01*
X88403152Y32817559D01*
X88402945Y32824822D01*
X88417469Y32848909D01*
X88429158Y32874503D01*
X88435272Y32878433D01*
X88439025Y32884655D01*
X88464268Y32897068D01*
X88487936Y32912277D01*
X88498205Y32913754D01*
X88501725Y32915484D01*
X88522871Y32917300D01*
X88644460Y32917300D01*
X88711499Y32897615D01*
X88757254Y32844811D01*
X88766933Y32812698D01*
X88776075Y32754981D01*
X88776447Y32752632D01*
X88849432Y32528008D01*
X88956657Y32317567D01*
X89095483Y32126490D01*
X89262490Y31959483D01*
X89453567Y31820657D01*
X89495369Y31799358D01*
X89664003Y31713434D01*
X89664005Y31713434D01*
X89664008Y31713432D01*
X89773032Y31678008D01*
X89888631Y31640447D01*
X90121903Y31603500D01*
X90121908Y31603500D01*
X90358097Y31603500D01*
X90591368Y31640447D01*
X90815992Y31713432D01*
X91026433Y31820657D01*
X91217510Y31959483D01*
X91384517Y32126490D01*
X91523343Y32317567D01*
X91630568Y32528008D01*
X91703553Y32752632D01*
X91711868Y32805132D01*
X91740500Y32985903D01*
X91740500Y33222098D01*
X91703553Y33455369D01*
X91630566Y33679997D01*
X91523342Y33890434D01*
X91515266Y33901550D01*
X91384517Y34081510D01*
X91217510Y34248517D01*
X91026433Y34387343D01*
X90815996Y34494567D01*
X90591368Y34567554D01*
X90358097Y34604500D01*
X90358092Y34604500D01*
X90121908Y34604500D01*
X90121903Y34604500D01*
X89888631Y34567554D01*
X89664003Y34494567D01*
X89453566Y34387343D01*
X89357563Y34317592D01*
X89262490Y34248517D01*
X89262487Y34248515D01*
X89260103Y34246782D01*
X89194296Y34223302D01*
X89187217Y34223100D01*
X84792783Y34223100D01*
X84725744Y34242785D01*
X84719897Y34246782D01*
X84717512Y34248515D01*
X84717510Y34248517D01*
X84526433Y34387343D01*
X84315996Y34494567D01*
X84091368Y34567554D01*
X83858097Y34604500D01*
X83858092Y34604500D01*
X83621908Y34604500D01*
X83621903Y34604500D01*
X83388631Y34567554D01*
X83164003Y34494567D01*
X82953566Y34387343D01*
X82857563Y34317592D01*
X82762490Y34248517D01*
X82762487Y34248515D01*
X82760103Y34246782D01*
X82694296Y34223302D01*
X82687217Y34223100D01*
X80893802Y34223100D01*
X80826763Y34242785D01*
X80806121Y34259419D01*
X75306418Y39759123D01*
X75272933Y39820446D01*
X75270099Y39846804D01*
X75270099Y40172602D01*
X75270098Y40172619D01*
X75259599Y40275397D01*
X75259598Y40275400D01*
X75204414Y40441934D01*
X75112312Y40591256D01*
X75041749Y40661819D01*
X75008264Y40723142D01*
X75013248Y40792834D01*
X75055120Y40848767D01*
X75120584Y40873184D01*
X75129430Y40873500D01*
X83595797Y40873500D01*
X83662836Y40853815D01*
X83683478Y40837181D01*
X85519026Y39001633D01*
X85552511Y38940310D01*
X85549277Y38875636D01*
X85526446Y38805368D01*
X85489500Y38572098D01*
X85489500Y38335903D01*
X85526446Y38102632D01*
X85556755Y38009351D01*
X85579674Y37938817D01*
X85580477Y37910698D01*
X85584481Y37882853D01*
X85581461Y37876242D01*
X85581669Y37868978D01*
X85567144Y37844892D01*
X85555456Y37819297D01*
X85549341Y37815368D01*
X85545589Y37809145D01*
X85520345Y37796733D01*
X85496678Y37781523D01*
X85486408Y37780047D01*
X85482889Y37778316D01*
X85461743Y37776500D01*
X85337789Y37776500D01*
X85270750Y37796185D01*
X85224995Y37848989D01*
X85215316Y37881102D01*
X85203553Y37955369D01*
X85137487Y38158697D01*
X85130568Y38179992D01*
X85130566Y38179995D01*
X85130566Y38179997D01*
X85023342Y38390434D01*
X85009955Y38408860D01*
X84884517Y38581510D01*
X84717510Y38748517D01*
X84526433Y38887343D01*
X84315996Y38994567D01*
X84091368Y39067554D01*
X83858097Y39104500D01*
X83858092Y39104500D01*
X83621908Y39104500D01*
X83621903Y39104500D01*
X83388631Y39067554D01*
X83164003Y38994567D01*
X82953566Y38887343D01*
X82844550Y38808138D01*
X82762490Y38748517D01*
X82762488Y38748515D01*
X82762487Y38748515D01*
X82595485Y38581513D01*
X82595485Y38581512D01*
X82595483Y38581510D01*
X82573165Y38550792D01*
X82456657Y38390434D01*
X82349433Y38179997D01*
X82276446Y37955369D01*
X82239500Y37722098D01*
X82239500Y37485903D01*
X82276446Y37252632D01*
X82349433Y37028004D01*
X82441220Y36847864D01*
X82456657Y36817567D01*
X82595483Y36626490D01*
X82762490Y36459483D01*
X82953567Y36320657D01*
X82995369Y36299358D01*
X83164003Y36213434D01*
X83164005Y36213434D01*
X83164008Y36213432D01*
X83284412Y36174311D01*
X83388631Y36140447D01*
X83621903Y36103500D01*
X83621908Y36103500D01*
X83858097Y36103500D01*
X84091368Y36140447D01*
X84315992Y36213432D01*
X84526433Y36320657D01*
X84700353Y36447019D01*
X84766160Y36470498D01*
X84773239Y36470700D01*
X89206761Y36470700D01*
X89273800Y36451015D01*
X89279639Y36447024D01*
X89453567Y36320657D01*
X89495369Y36299358D01*
X89664003Y36213434D01*
X89664005Y36213434D01*
X89664008Y36213432D01*
X89784412Y36174311D01*
X89888631Y36140447D01*
X90121903Y36103500D01*
X90121908Y36103500D01*
X90358097Y36103500D01*
X90591368Y36140447D01*
X90815992Y36213432D01*
X91026433Y36320657D01*
X91217510Y36459483D01*
X91384517Y36626490D01*
X91523343Y36817567D01*
X91630568Y37028008D01*
X91703553Y37252632D01*
X91710973Y37299480D01*
X91740500Y37485903D01*
X91740500Y37722098D01*
X91703553Y37955369D01*
X91637487Y38158697D01*
X91630568Y38179992D01*
X91630566Y38179995D01*
X91630566Y38179997D01*
X91523342Y38390434D01*
X91509955Y38408860D01*
X91384517Y38581510D01*
X91217510Y38748517D01*
X91026433Y38887343D01*
X90815996Y38994567D01*
X90591368Y39067554D01*
X90358097Y39104500D01*
X90358092Y39104500D01*
X90121908Y39104500D01*
X90121903Y39104500D01*
X89888632Y39067554D01*
X89818364Y39044723D01*
X89748523Y39042729D01*
X89692367Y39074974D01*
X84132170Y44635171D01*
X84098685Y44696494D01*
X84103669Y44766186D01*
X84145541Y44822119D01*
X84211005Y44846536D01*
X84279278Y44831684D01*
X84288742Y44825954D01*
X84393462Y44755982D01*
X84393471Y44755977D01*
X84422777Y44743838D01*
X84566449Y44684327D01*
X84750079Y44647801D01*
X84750083Y44647800D01*
X84750084Y44647800D01*
X84937317Y44647800D01*
X84937318Y44647801D01*
X85120951Y44684327D01*
X85293931Y44755978D01*
X85449608Y44859998D01*
X85582002Y44992392D01*
X85686022Y45148069D01*
X85757673Y45321049D01*
X85794200Y45504684D01*
X85794200Y45691916D01*
X85757673Y45875551D01*
X85686022Y46048531D01*
X85686021Y46048532D01*
X85686018Y46048538D01*
X85582002Y46204208D01*
X85581999Y46204212D01*
X85449611Y46336600D01*
X85449607Y46336603D01*
X85293937Y46440619D01*
X85293928Y46440624D01*
X85120951Y46512273D01*
X85120943Y46512275D01*
X84937320Y46548800D01*
X84937316Y46548800D01*
X84750084Y46548800D01*
X84750079Y46548800D01*
X84566456Y46512275D01*
X84566448Y46512273D01*
X84393471Y46440624D01*
X84393462Y46440619D01*
X84237792Y46336603D01*
X84237788Y46336600D01*
X84188710Y46287520D01*
X84127387Y46254034D01*
X84101028Y46251200D01*
X83716402Y46251200D01*
X83649363Y46270885D01*
X83628721Y46287519D01*
X78764208Y51152033D01*
X78730723Y51213356D01*
X78735707Y51283048D01*
X78777579Y51338981D01*
X78804434Y51354274D01*
X78857041Y51376064D01*
X78982482Y51472318D01*
X79078736Y51597759D01*
X79139244Y51743838D01*
X79154700Y51861239D01*
X79154700Y51973700D01*
X79174385Y52040739D01*
X79227189Y52086494D01*
X79278700Y52097700D01*
X83220007Y52097700D01*
X83304865Y52114581D01*
X83346144Y52122791D01*
X83464964Y52172008D01*
X83571900Y52243459D01*
X92586240Y61257800D01*
X92657692Y61364736D01*
X92706909Y61483556D01*
X92715214Y61525309D01*
X92726902Y61584068D01*
X92732000Y61609694D01*
X92732000Y64497008D01*
X92706910Y64623139D01*
X92706909Y64623140D01*
X92706909Y64623144D01*
X92657692Y64741964D01*
X92652647Y64749514D01*
X92647603Y64757064D01*
X92586240Y64848901D01*
X91884265Y65550876D01*
X91850780Y65612199D01*
X91855764Y65681891D01*
X91881798Y65722395D01*
X91881348Y65722779D01*
X91884169Y65726084D01*
X91884277Y65726250D01*
X91884277Y65726251D01*
X91884517Y65726490D01*
X92023343Y65917567D01*
X92130568Y66128008D01*
X92203553Y66352632D01*
X92240500Y66585903D01*
X92240500Y66822098D01*
X92203553Y67055369D01*
X92130566Y67279997D01*
X92023342Y67490434D01*
X91979489Y67550792D01*
X91884517Y67681510D01*
X91717510Y67848517D01*
X91526433Y67987343D01*
X91315996Y68094567D01*
X91091368Y68167554D01*
X90858097Y68204500D01*
X90858092Y68204500D01*
X90621908Y68204500D01*
X90621903Y68204500D01*
X90388631Y68167554D01*
X90164003Y68094567D01*
X89953566Y67987343D01*
X89844550Y67908138D01*
X89762490Y67848517D01*
X89762488Y67848515D01*
X89762487Y67848515D01*
X89595485Y67681513D01*
X89595485Y67681512D01*
X89595483Y67681510D01*
X89535862Y67599450D01*
X89456657Y67490434D01*
X89349433Y67279997D01*
X89276446Y67055369D01*
X89266949Y66995402D01*
X89252352Y66964611D01*
X89238189Y66933597D01*
X89237414Y66933100D01*
X89237020Y66932267D01*
X89208081Y66914249D01*
X89179411Y66895823D01*
X89178213Y66895651D01*
X89177708Y66895336D01*
X89144476Y66890800D01*
X89022904Y66890800D01*
X88955865Y66910485D01*
X88910110Y66963289D01*
X88900166Y67032447D01*
X88904973Y67053119D01*
X88953553Y67202632D01*
X88990500Y67435903D01*
X88990500Y67672098D01*
X88953553Y67905369D01*
X88919689Y68009588D01*
X88880568Y68129992D01*
X88880566Y68129995D01*
X88880566Y68129997D01*
X88773342Y68340434D01*
X88634517Y68531510D01*
X88467510Y68698517D01*
X88276433Y68837343D01*
X88065996Y68944567D01*
X87841368Y69017554D01*
X87608097Y69054500D01*
X87608092Y69054500D01*
X87371908Y69054500D01*
X87371903Y69054500D01*
X87138631Y69017554D01*
X86914003Y68944567D01*
X86703566Y68837343D01*
X86594550Y68758138D01*
X86512490Y68698517D01*
X86512488Y68698515D01*
X86512487Y68698515D01*
X86345485Y68531513D01*
X86345485Y68531512D01*
X86345483Y68531510D01*
X86322359Y68499682D01*
X86206657Y68340434D01*
X86099433Y68129997D01*
X86026446Y67905369D01*
X85989500Y67672098D01*
X85989500Y67435903D01*
X86026446Y67202632D01*
X86075027Y67053119D01*
X86075830Y67024998D01*
X86079834Y66997153D01*
X86076814Y66990542D01*
X86077022Y66983277D01*
X86062495Y66959188D01*
X86050809Y66933597D01*
X86044695Y66929668D01*
X86040942Y66923444D01*
X86015695Y66911032D01*
X85992031Y66895823D01*
X85981760Y66894347D01*
X85978241Y66892616D01*
X85957096Y66890800D01*
X85835524Y66890800D01*
X85768485Y66910485D01*
X85722730Y66963289D01*
X85713051Y66995402D01*
X85703553Y67055369D01*
X85630566Y67279997D01*
X85523342Y67490434D01*
X85479489Y67550792D01*
X85384517Y67681510D01*
X85217510Y67848517D01*
X85026433Y67987343D01*
X84815996Y68094567D01*
X84591368Y68167554D01*
X84358097Y68204500D01*
X84358092Y68204500D01*
X84121908Y68204500D01*
X84121903Y68204500D01*
X83888631Y68167554D01*
X83664003Y68094567D01*
X83453566Y67987343D01*
X83344550Y67908138D01*
X83262490Y67848517D01*
X83262488Y67848515D01*
X83262487Y67848515D01*
X83095485Y67681513D01*
X83095485Y67681512D01*
X83095483Y67681510D01*
X83035862Y67599450D01*
X82956657Y67490434D01*
X82849433Y67279997D01*
X82776446Y67055369D01*
X82739500Y66822098D01*
X82739500Y66585903D01*
X82776446Y66352632D01*
X82849433Y66128004D01*
X82911237Y66006708D01*
X82956657Y65917567D01*
X83095483Y65726490D01*
X83262490Y65559483D01*
X83453567Y65420657D01*
X83552991Y65369998D01*
X83664003Y65313434D01*
X83664005Y65313434D01*
X83664008Y65313432D01*
X83784412Y65274311D01*
X83888631Y65240447D01*
X84121903Y65203500D01*
X84121908Y65203500D01*
X84358097Y65203500D01*
X84591368Y65240447D01*
X84815992Y65313432D01*
X85026433Y65420657D01*
X85217510Y65559483D01*
X85217513Y65559486D01*
X85220035Y65561318D01*
X85285842Y65584798D01*
X85292921Y65585000D01*
X89687079Y65585000D01*
X89754118Y65565315D01*
X89759965Y65561318D01*
X89762487Y65559486D01*
X89762490Y65559483D01*
X89953567Y65420657D01*
X90164008Y65313432D01*
X90300149Y65269197D01*
X90349511Y65238948D01*
X91389881Y64198579D01*
X91423366Y64137256D01*
X91426200Y64110898D01*
X91426200Y63729432D01*
X91406515Y63662393D01*
X91353711Y63616638D01*
X91284553Y63606694D01*
X91263882Y63611501D01*
X91091371Y63667553D01*
X90858097Y63704500D01*
X90858092Y63704500D01*
X90621908Y63704500D01*
X90621903Y63704500D01*
X90388631Y63667554D01*
X90164003Y63594567D01*
X89953566Y63487343D01*
X89833862Y63400373D01*
X89786613Y63366043D01*
X89779647Y63360982D01*
X89713840Y63337502D01*
X89706761Y63337300D01*
X85273239Y63337300D01*
X85206200Y63356985D01*
X85200353Y63360982D01*
X85193387Y63366043D01*
X85026433Y63487343D01*
X84815996Y63594567D01*
X84591368Y63667554D01*
X84358097Y63704500D01*
X84358092Y63704500D01*
X84121908Y63704500D01*
X84121903Y63704500D01*
X83888631Y63667554D01*
X83664003Y63594567D01*
X83453566Y63487343D01*
X83344550Y63408138D01*
X83262490Y63348517D01*
X83262488Y63348515D01*
X83262487Y63348515D01*
X83095485Y63181513D01*
X83095485Y63181512D01*
X83095483Y63181510D01*
X83035862Y63099450D01*
X82956657Y62990434D01*
X82849433Y62779997D01*
X82776446Y62555369D01*
X82739500Y62322098D01*
X82739500Y62085903D01*
X82776446Y61852632D01*
X82821908Y61712719D01*
X82823903Y61642878D01*
X82787823Y61583045D01*
X82725122Y61552216D01*
X82703977Y61550400D01*
X67526893Y61550400D01*
X67459854Y61570085D01*
X67414099Y61622889D01*
X67404155Y61692047D01*
X67433180Y61755603D01*
X67485938Y61791441D01*
X67525065Y61805132D01*
X67798341Y61936735D01*
X68055164Y62098108D01*
X68292304Y62287221D01*
X68506779Y62501696D01*
X68695892Y62738836D01*
X68857265Y62995659D01*
X68988868Y63268935D01*
X69089046Y63555228D01*
X69156540Y63850937D01*
X69190500Y64152343D01*
X69190500Y64455657D01*
X69179180Y64556126D01*
X69156542Y64757049D01*
X69156539Y64757067D01*
X69089046Y65052772D01*
X69089042Y65052784D01*
X69023376Y65240447D01*
X68988868Y65339065D01*
X68857265Y65612341D01*
X68695892Y65869164D01*
X68506779Y66106304D01*
X68292304Y66320779D01*
X68055164Y66509892D01*
X67832240Y66649965D01*
X67798338Y66671267D01*
X67525068Y66802867D01*
X67238783Y66903043D01*
X67238771Y66903047D01*
X66992799Y66959188D01*
X66943063Y66970540D01*
X66943060Y66970541D01*
X66943048Y66970543D01*
X66641663Y67004500D01*
X66641657Y67004500D01*
X66338343Y67004500D01*
X66338336Y67004500D01*
X66036951Y66970543D01*
X66036937Y66970540D01*
X65741228Y66903047D01*
X65741216Y66903043D01*
X65454931Y66802867D01*
X65181661Y66671267D01*
X64924837Y66509893D01*
X64687696Y66320780D01*
X64473220Y66106304D01*
X64284107Y65869163D01*
X64122733Y65612339D01*
X63991133Y65339069D01*
X63890957Y65052784D01*
X63890953Y65052772D01*
X63823461Y64757067D01*
X63823457Y64757049D01*
X63789500Y64455664D01*
X63789500Y64152337D01*
X63823457Y63850952D01*
X63823459Y63850940D01*
X63823460Y63850937D01*
X63828322Y63829637D01*
X63890953Y63555229D01*
X63890957Y63555217D01*
X63991133Y63268932D01*
X64122733Y62995662D01*
X64122735Y62995659D01*
X64284108Y62738836D01*
X64473221Y62501696D01*
X64687696Y62287221D01*
X64924836Y62098108D01*
X65181659Y61936735D01*
X65454935Y61805132D01*
X65494062Y61791441D01*
X65550838Y61750720D01*
X65576585Y61685767D01*
X65563129Y61617205D01*
X65514741Y61566803D01*
X65453107Y61550400D01*
X58726893Y61550400D01*
X58659854Y61570085D01*
X58614099Y61622889D01*
X58604155Y61692047D01*
X58633180Y61755603D01*
X58685938Y61791441D01*
X58725065Y61805132D01*
X58998341Y61936735D01*
X59255164Y62098108D01*
X59492304Y62287221D01*
X59706779Y62501696D01*
X59895892Y62738836D01*
X60057265Y62995659D01*
X60188868Y63268935D01*
X60289046Y63555228D01*
X60356540Y63850937D01*
X60390500Y64152343D01*
X60390500Y64455657D01*
X60379180Y64556126D01*
X60356542Y64757049D01*
X60356539Y64757067D01*
X60289046Y65052772D01*
X60289042Y65052784D01*
X60223376Y65240447D01*
X60188868Y65339065D01*
X60057265Y65612341D01*
X59895892Y65869164D01*
X59706779Y66106304D01*
X59492304Y66320779D01*
X59255164Y66509892D01*
X59032240Y66649965D01*
X58998338Y66671267D01*
X58725068Y66802867D01*
X58438783Y66903043D01*
X58438771Y66903047D01*
X58192799Y66959188D01*
X58143063Y66970540D01*
X58143060Y66970541D01*
X58143048Y66970543D01*
X57841663Y67004500D01*
X57841657Y67004500D01*
X57538343Y67004500D01*
X57538336Y67004500D01*
X57236951Y66970543D01*
X57236937Y66970540D01*
X56941228Y66903047D01*
X56941216Y66903043D01*
X56654931Y66802867D01*
X56381661Y66671267D01*
X56124837Y66509893D01*
X55887696Y66320780D01*
X55673220Y66106304D01*
X55484107Y65869163D01*
X55322733Y65612339D01*
X55191133Y65339069D01*
X55090957Y65052784D01*
X55090953Y65052772D01*
X55023461Y64757067D01*
X55023457Y64757049D01*
X54989500Y64455664D01*
X54989500Y64152337D01*
X55023457Y63850952D01*
X55023459Y63850940D01*
X55023460Y63850937D01*
X55028322Y63829637D01*
X55090953Y63555229D01*
X55090957Y63555217D01*
X55191133Y63268932D01*
X55322733Y62995662D01*
X55322735Y62995659D01*
X55484108Y62738836D01*
X55673221Y62501696D01*
X55887696Y62287221D01*
X56124836Y62098108D01*
X56381659Y61936735D01*
X56654935Y61805132D01*
X56694062Y61791441D01*
X56750838Y61750720D01*
X56776585Y61685767D01*
X56763129Y61617205D01*
X56714741Y61566803D01*
X56653107Y61550400D01*
X54429902Y61550400D01*
X54362863Y61570085D01*
X54342221Y61586719D01*
X36658576Y79270366D01*
X36574953Y79353989D01*
X88139500Y79353989D01*
X88139500Y79111412D01*
X88171161Y78870915D01*
X88233947Y78636596D01*
X88326773Y78412495D01*
X88326776Y78412488D01*
X88448064Y78202411D01*
X88448066Y78202408D01*
X88448067Y78202407D01*
X88595733Y78009964D01*
X88595739Y78009957D01*
X88767256Y77838440D01*
X88767262Y77838435D01*
X88959711Y77690764D01*
X89169788Y77569476D01*
X89393900Y77476646D01*
X89628211Y77413862D01*
X89808586Y77390116D01*
X89868711Y77382200D01*
X89868712Y77382200D01*
X90111289Y77382200D01*
X90159388Y77388533D01*
X90351789Y77413862D01*
X90586100Y77476646D01*
X90810212Y77569476D01*
X91020289Y77690764D01*
X91212738Y77838435D01*
X91384265Y78009962D01*
X91531936Y78202411D01*
X91653224Y78412488D01*
X91746054Y78636600D01*
X91808838Y78870911D01*
X91840500Y79111412D01*
X91840500Y79353988D01*
X91808838Y79594489D01*
X91746054Y79828800D01*
X91653224Y80052912D01*
X91531936Y80262989D01*
X91384265Y80455438D01*
X91384260Y80455444D01*
X91212743Y80626961D01*
X91212736Y80626967D01*
X91020293Y80774633D01*
X91020292Y80774634D01*
X91020289Y80774636D01*
X90810212Y80895924D01*
X90810205Y80895927D01*
X90586104Y80988753D01*
X90351785Y81051539D01*
X90111289Y81083200D01*
X90111288Y81083200D01*
X89868712Y81083200D01*
X89868711Y81083200D01*
X89628214Y81051539D01*
X89393895Y80988753D01*
X89169794Y80895927D01*
X89169785Y80895923D01*
X88959706Y80774633D01*
X88767263Y80626967D01*
X88767256Y80626961D01*
X88595739Y80455444D01*
X88595733Y80455437D01*
X88448067Y80262994D01*
X88326777Y80052915D01*
X88326773Y80052906D01*
X88233947Y79828805D01*
X88171161Y79594486D01*
X88139500Y79353989D01*
X36574953Y79353989D01*
X29486060Y86442882D01*
X34211300Y86442882D01*
X34211300Y86222519D01*
X34245773Y86004865D01*
X34313867Y85795290D01*
X34413911Y85598944D01*
X34460232Y85535187D01*
X35128337Y86203292D01*
X35145375Y86139707D01*
X35211201Y86025693D01*
X35304293Y85932601D01*
X35418307Y85866775D01*
X35481890Y85849738D01*
X34813785Y85181635D01*
X34813785Y85181634D01*
X34877543Y85135312D01*
X35073889Y85035268D01*
X35283464Y84967174D01*
X35501119Y84932700D01*
X35721481Y84932700D01*
X35939135Y84967174D01*
X36148710Y85035268D01*
X36345060Y85135314D01*
X36408813Y85181634D01*
X36408814Y85181634D01*
X35740709Y85849738D01*
X35804293Y85866775D01*
X35918307Y85932601D01*
X36011399Y86025693D01*
X36077225Y86139707D01*
X36094262Y86203290D01*
X36762366Y85535186D01*
X36763847Y85535303D01*
X36816000Y85575520D01*
X36885614Y85581500D01*
X36947409Y85548894D01*
X36961308Y85532854D01*
X37043052Y85420341D01*
X37198936Y85264457D01*
X37198941Y85264453D01*
X37238444Y85235753D01*
X37377278Y85134885D01*
X37505675Y85069463D01*
X37573693Y85034805D01*
X37573696Y85034804D01*
X37660600Y85006568D01*
X37783349Y84966685D01*
X38001078Y84932200D01*
X38001079Y84932200D01*
X38221521Y84932200D01*
X38221522Y84932200D01*
X38439251Y84966685D01*
X38648906Y85034805D01*
X38845322Y85134885D01*
X39023665Y85264458D01*
X39179542Y85420335D01*
X39260982Y85532430D01*
X39316311Y85575094D01*
X39385924Y85581073D01*
X39447720Y85548468D01*
X39461613Y85532435D01*
X39482470Y85503728D01*
X39543058Y85420335D01*
X39698936Y85264457D01*
X39698941Y85264453D01*
X39738444Y85235753D01*
X39877278Y85134885D01*
X40005675Y85069463D01*
X40073693Y85034805D01*
X40073696Y85034804D01*
X40160600Y85006568D01*
X40283349Y84966685D01*
X40501078Y84932200D01*
X40501079Y84932200D01*
X40721521Y84932200D01*
X40721522Y84932200D01*
X40939251Y84966685D01*
X41148906Y85034805D01*
X41345322Y85134885D01*
X41523665Y85264458D01*
X41679542Y85420335D01*
X41809115Y85598678D01*
X41909195Y85795094D01*
X41977315Y86004749D01*
X42011800Y86222478D01*
X42011800Y86414182D01*
X58090000Y86414182D01*
X58090000Y86193819D01*
X58124473Y85976165D01*
X58192567Y85766590D01*
X58292611Y85570244D01*
X58338932Y85506487D01*
X59007037Y86174592D01*
X59024075Y86111007D01*
X59089901Y85996993D01*
X59182993Y85903901D01*
X59297007Y85838075D01*
X59360590Y85821038D01*
X58692485Y85152935D01*
X58692485Y85152934D01*
X58756243Y85106612D01*
X58952589Y85006568D01*
X59162164Y84938474D01*
X59379819Y84904000D01*
X59600181Y84904000D01*
X59817835Y84938474D01*
X60027410Y85006568D01*
X60223760Y85106614D01*
X60287513Y85152934D01*
X60287514Y85152934D01*
X59619409Y85821038D01*
X59682993Y85838075D01*
X59797007Y85903901D01*
X59890099Y85996993D01*
X59955925Y86111007D01*
X59972962Y86174590D01*
X60641066Y85506486D01*
X60642547Y85506603D01*
X60694700Y85546820D01*
X60764314Y85552800D01*
X60826109Y85520194D01*
X60840008Y85504154D01*
X60921752Y85391641D01*
X61077636Y85235757D01*
X61077641Y85235753D01*
X61191632Y85152935D01*
X61255978Y85106185D01*
X61384375Y85040763D01*
X61452393Y85006105D01*
X61452396Y85006104D01*
X61557221Y84972045D01*
X61662049Y84937985D01*
X61879778Y84903500D01*
X61879779Y84903500D01*
X62100221Y84903500D01*
X62100222Y84903500D01*
X62317951Y84937985D01*
X62527606Y85006105D01*
X62724022Y85106185D01*
X62902365Y85235758D01*
X63058242Y85391635D01*
X63139682Y85503730D01*
X63195011Y85546394D01*
X63264624Y85552373D01*
X63326420Y85519768D01*
X63340313Y85503735D01*
X63421753Y85391642D01*
X63421758Y85391635D01*
X63577636Y85235757D01*
X63577641Y85235753D01*
X63691632Y85152935D01*
X63755978Y85106185D01*
X63884375Y85040763D01*
X63952393Y85006105D01*
X63952396Y85006104D01*
X64057221Y84972045D01*
X64162049Y84937985D01*
X64379778Y84903500D01*
X64379779Y84903500D01*
X64600221Y84903500D01*
X64600222Y84903500D01*
X64817951Y84937985D01*
X65027606Y85006105D01*
X65224022Y85106185D01*
X65402365Y85235758D01*
X65558242Y85391635D01*
X65687815Y85569978D01*
X65787895Y85766394D01*
X65856015Y85976049D01*
X65890500Y86193778D01*
X65890500Y86414222D01*
X65856015Y86631951D01*
X65790789Y86832700D01*
X65787896Y86841604D01*
X65787895Y86841607D01*
X65753237Y86909625D01*
X65687815Y87038022D01*
X65620854Y87130187D01*
X65558247Y87216359D01*
X65558243Y87216364D01*
X65402363Y87372244D01*
X65402358Y87372248D01*
X65224025Y87501813D01*
X65224024Y87501814D01*
X65224022Y87501815D01*
X65161096Y87533878D01*
X65027606Y87601896D01*
X65027603Y87601897D01*
X64817952Y87670015D01*
X64709086Y87687258D01*
X64600222Y87704500D01*
X64379778Y87704500D01*
X64340172Y87698227D01*
X64162047Y87670015D01*
X63952396Y87601897D01*
X63952393Y87601896D01*
X63755974Y87501813D01*
X63577641Y87372248D01*
X63577636Y87372244D01*
X63421756Y87216364D01*
X63421752Y87216359D01*
X63340318Y87104273D01*
X63284989Y87061607D01*
X63215375Y87055628D01*
X63153580Y87088233D01*
X63139682Y87104273D01*
X63058247Y87216359D01*
X63058243Y87216364D01*
X62902363Y87372244D01*
X62902358Y87372248D01*
X62724025Y87501813D01*
X62724024Y87501814D01*
X62724022Y87501815D01*
X62661096Y87533878D01*
X62527606Y87601896D01*
X62527603Y87601897D01*
X62317952Y87670015D01*
X62209086Y87687258D01*
X62100222Y87704500D01*
X61879778Y87704500D01*
X61840172Y87698227D01*
X61662047Y87670015D01*
X61452396Y87601897D01*
X61452393Y87601896D01*
X61255974Y87501813D01*
X61077641Y87372248D01*
X61077636Y87372244D01*
X60921756Y87216364D01*
X60840008Y87103847D01*
X60784678Y87061182D01*
X60715064Y87055203D01*
X60653269Y87087809D01*
X60641416Y87101487D01*
X60641065Y87101515D01*
X59972962Y86433411D01*
X59955925Y86496993D01*
X59890099Y86611007D01*
X59797007Y86704099D01*
X59682993Y86769925D01*
X59619407Y86786963D01*
X60287513Y87455068D01*
X60223756Y87501389D01*
X60027410Y87601433D01*
X59817835Y87669527D01*
X59600181Y87704000D01*
X59379819Y87704000D01*
X59162164Y87669527D01*
X58952589Y87601433D01*
X58756233Y87501384D01*
X58692485Y87455069D01*
X58692485Y87455068D01*
X59360590Y86786963D01*
X59297007Y86769925D01*
X59182993Y86704099D01*
X59089901Y86611007D01*
X59024075Y86496993D01*
X59007037Y86433410D01*
X58338932Y87101515D01*
X58338931Y87101515D01*
X58292616Y87037767D01*
X58192567Y86841411D01*
X58124473Y86631836D01*
X58090000Y86414182D01*
X42011800Y86414182D01*
X42011800Y86442922D01*
X41977315Y86660651D01*
X41921414Y86832700D01*
X41909196Y86870304D01*
X41909195Y86870307D01*
X41874537Y86938325D01*
X41809115Y87066722D01*
X41760981Y87132973D01*
X41679547Y87245059D01*
X41679543Y87245064D01*
X41523663Y87400944D01*
X41523658Y87400948D01*
X41345325Y87530513D01*
X41345324Y87530514D01*
X41345322Y87530515D01*
X41282396Y87562578D01*
X41148906Y87630596D01*
X41148903Y87630597D01*
X40939252Y87698715D01*
X40830386Y87715958D01*
X40721522Y87733200D01*
X40501078Y87733200D01*
X40428501Y87721705D01*
X40283347Y87698715D01*
X40073696Y87630597D01*
X40073693Y87630596D01*
X39877274Y87530513D01*
X39698941Y87400948D01*
X39698936Y87400944D01*
X39543056Y87245064D01*
X39543052Y87245059D01*
X39461618Y87132973D01*
X39406289Y87090307D01*
X39336675Y87084328D01*
X39274880Y87116933D01*
X39260982Y87132973D01*
X39179547Y87245059D01*
X39179543Y87245064D01*
X39023663Y87400944D01*
X39023658Y87400948D01*
X38845325Y87530513D01*
X38845324Y87530514D01*
X38845322Y87530515D01*
X38782396Y87562578D01*
X38648906Y87630596D01*
X38648903Y87630597D01*
X38439252Y87698715D01*
X38330386Y87715958D01*
X38221522Y87733200D01*
X38001078Y87733200D01*
X37928501Y87721705D01*
X37783347Y87698715D01*
X37573696Y87630597D01*
X37573693Y87630596D01*
X37377274Y87530513D01*
X37198941Y87400948D01*
X37198936Y87400944D01*
X37043056Y87245064D01*
X36961308Y87132547D01*
X36905978Y87089882D01*
X36836364Y87083903D01*
X36774569Y87116509D01*
X36762716Y87130187D01*
X36762365Y87130215D01*
X36094262Y86462111D01*
X36077225Y86525693D01*
X36011399Y86639707D01*
X35918307Y86732799D01*
X35804293Y86798625D01*
X35740707Y86815663D01*
X36408813Y87483768D01*
X36345056Y87530089D01*
X36148710Y87630133D01*
X35939135Y87698227D01*
X35721481Y87732700D01*
X35501119Y87732700D01*
X35283464Y87698227D01*
X35073889Y87630133D01*
X34877533Y87530084D01*
X34813785Y87483769D01*
X34813785Y87483768D01*
X35481890Y86815663D01*
X35418307Y86798625D01*
X35304293Y86732799D01*
X35211201Y86639707D01*
X35145375Y86525693D01*
X35128337Y86462110D01*
X34460232Y87130215D01*
X34460231Y87130215D01*
X34413916Y87066467D01*
X34313867Y86870111D01*
X34245773Y86660536D01*
X34211300Y86442882D01*
X29486060Y86442882D01*
X22444578Y93484364D01*
X31010800Y93484364D01*
X31010800Y93181037D01*
X31044757Y92879652D01*
X31044759Y92879640D01*
X31044760Y92879637D01*
X31051311Y92850937D01*
X31112253Y92583929D01*
X31112257Y92583917D01*
X31212433Y92297632D01*
X31344033Y92024362D01*
X31362068Y91995659D01*
X31505408Y91767536D01*
X31694521Y91530396D01*
X31908996Y91315921D01*
X32146136Y91126808D01*
X32402959Y90965435D01*
X32676235Y90833832D01*
X32862792Y90768553D01*
X32962516Y90733658D01*
X32962528Y90733654D01*
X33258237Y90666160D01*
X33258246Y90666159D01*
X33258251Y90666158D01*
X33459174Y90643520D01*
X33559637Y90632201D01*
X33559640Y90632200D01*
X33559643Y90632200D01*
X33862960Y90632200D01*
X33862961Y90632201D01*
X34016994Y90649556D01*
X34164348Y90666158D01*
X34164351Y90666159D01*
X34164363Y90666160D01*
X34460072Y90733654D01*
X34746365Y90833832D01*
X35019641Y90965435D01*
X35276464Y91126808D01*
X35513604Y91315921D01*
X35728079Y91530396D01*
X35917192Y91767536D01*
X36078565Y92024359D01*
X36210168Y92297635D01*
X36310346Y92583928D01*
X36377840Y92879637D01*
X36411800Y93181043D01*
X36411800Y93484357D01*
X36411799Y93484364D01*
X39810800Y93484364D01*
X39810800Y93181037D01*
X39844757Y92879652D01*
X39844759Y92879640D01*
X39844760Y92879637D01*
X39851311Y92850937D01*
X39912253Y92583929D01*
X39912257Y92583917D01*
X40012433Y92297632D01*
X40144033Y92024362D01*
X40162068Y91995659D01*
X40305408Y91767536D01*
X40494521Y91530396D01*
X40708996Y91315921D01*
X40946136Y91126808D01*
X41202959Y90965435D01*
X41476235Y90833832D01*
X41662792Y90768553D01*
X41762516Y90733658D01*
X41762528Y90733654D01*
X42058237Y90666160D01*
X42058246Y90666159D01*
X42058251Y90666158D01*
X42259174Y90643520D01*
X42359637Y90632201D01*
X42359640Y90632200D01*
X42359643Y90632200D01*
X42662960Y90632200D01*
X42662961Y90632201D01*
X42816994Y90649556D01*
X42964348Y90666158D01*
X42964351Y90666159D01*
X42964363Y90666160D01*
X43260072Y90733654D01*
X43546365Y90833832D01*
X43819641Y90965435D01*
X44076464Y91126808D01*
X44313604Y91315921D01*
X44528079Y91530396D01*
X44717192Y91767536D01*
X44878565Y92024359D01*
X45010168Y92297635D01*
X45110346Y92583928D01*
X45177840Y92879637D01*
X45211800Y93181043D01*
X45211800Y93455664D01*
X54889500Y93455664D01*
X54889500Y93152337D01*
X54923457Y92850952D01*
X54923460Y92850938D01*
X54990953Y92555229D01*
X54990957Y92555217D01*
X55091133Y92268932D01*
X55222733Y91995662D01*
X55222735Y91995659D01*
X55384108Y91738836D01*
X55573221Y91501696D01*
X55787696Y91287221D01*
X56024836Y91098108D01*
X56281659Y90936735D01*
X56281661Y90936734D01*
X56347190Y90905177D01*
X56554935Y90805132D01*
X56759208Y90733654D01*
X56841216Y90704958D01*
X56841228Y90704954D01*
X57136937Y90637460D01*
X57136946Y90637459D01*
X57136951Y90637458D01*
X57337874Y90614820D01*
X57438337Y90603501D01*
X57438340Y90603500D01*
X57438343Y90603500D01*
X57741660Y90603500D01*
X57741661Y90603501D01*
X57895694Y90620856D01*
X58043048Y90637458D01*
X58043051Y90637459D01*
X58043063Y90637460D01*
X58338772Y90704954D01*
X58625065Y90805132D01*
X58898341Y90936735D01*
X59155164Y91098108D01*
X59392304Y91287221D01*
X59606779Y91501696D01*
X59795892Y91738836D01*
X59957265Y91995659D01*
X60088868Y92268935D01*
X60189046Y92555228D01*
X60256540Y92850937D01*
X60259776Y92879652D01*
X60290499Y93152337D01*
X60290500Y93152341D01*
X60290500Y93455660D01*
X60290499Y93455664D01*
X63689500Y93455664D01*
X63689500Y93152337D01*
X63723457Y92850952D01*
X63723460Y92850938D01*
X63790953Y92555229D01*
X63790957Y92555217D01*
X63891133Y92268932D01*
X64022733Y91995662D01*
X64022735Y91995659D01*
X64184108Y91738836D01*
X64373221Y91501696D01*
X64587696Y91287221D01*
X64824836Y91098108D01*
X65081659Y90936735D01*
X65081661Y90936734D01*
X65147190Y90905177D01*
X65354935Y90805132D01*
X65559208Y90733654D01*
X65641216Y90704958D01*
X65641228Y90704954D01*
X65936937Y90637460D01*
X65936946Y90637459D01*
X65936951Y90637458D01*
X66137874Y90614820D01*
X66238337Y90603501D01*
X66238340Y90603500D01*
X66238343Y90603500D01*
X66541660Y90603500D01*
X66541661Y90603501D01*
X66695694Y90620856D01*
X66843048Y90637458D01*
X66843051Y90637459D01*
X66843063Y90637460D01*
X67138772Y90704954D01*
X67425065Y90805132D01*
X67698341Y90936735D01*
X67955164Y91098108D01*
X68192304Y91287221D01*
X68327181Y91422098D01*
X82439500Y91422098D01*
X82439500Y91185903D01*
X82476446Y90952632D01*
X82549433Y90728004D01*
X82622773Y90584068D01*
X82656657Y90517567D01*
X82795483Y90326490D01*
X82962490Y90159483D01*
X83153567Y90020657D01*
X83252991Y89969998D01*
X83364003Y89913434D01*
X83364005Y89913434D01*
X83364008Y89913432D01*
X83473032Y89878008D01*
X83588631Y89840447D01*
X83821903Y89803500D01*
X83821908Y89803500D01*
X84058097Y89803500D01*
X84291368Y89840447D01*
X84515992Y89913432D01*
X84726433Y90020657D01*
X84917510Y90159483D01*
X85084517Y90326490D01*
X85223343Y90517567D01*
X85330568Y90728008D01*
X85403553Y90952632D01*
X85410628Y90997303D01*
X85415316Y91026898D01*
X85429912Y91057690D01*
X85444076Y91088703D01*
X85444850Y91089201D01*
X85445245Y91090033D01*
X85474183Y91108052D01*
X85502854Y91126477D01*
X85504051Y91126650D01*
X85504557Y91126964D01*
X85537789Y91131500D01*
X85661743Y91131500D01*
X85728782Y91111815D01*
X85774537Y91059011D01*
X85784481Y90989853D01*
X85779675Y90969190D01*
X85769131Y90936735D01*
X85726446Y90805369D01*
X85689500Y90572098D01*
X85689500Y90335903D01*
X85726446Y90102632D01*
X85799433Y89878004D01*
X85897739Y89685069D01*
X85906657Y89667567D01*
X86045483Y89476490D01*
X86212490Y89309483D01*
X86403567Y89170657D01*
X86502991Y89119998D01*
X86614003Y89063434D01*
X86614005Y89063434D01*
X86614008Y89063432D01*
X86734412Y89024311D01*
X86838631Y88990447D01*
X87071903Y88953500D01*
X87071908Y88953500D01*
X87308097Y88953500D01*
X87541368Y88990447D01*
X87765992Y89063432D01*
X87976433Y89170657D01*
X88167510Y89309483D01*
X88334517Y89476490D01*
X88473343Y89667567D01*
X88580568Y89878008D01*
X88653553Y90102632D01*
X88684222Y90296267D01*
X88690500Y90335903D01*
X88690500Y90572098D01*
X88653553Y90805369D01*
X88637554Y90854605D01*
X88600325Y90969184D01*
X88599522Y90997303D01*
X88595519Y91025147D01*
X88598538Y91031759D01*
X88598331Y91039022D01*
X88612855Y91063109D01*
X88624544Y91088703D01*
X88630658Y91092633D01*
X88634411Y91098855D01*
X88659654Y91111268D01*
X88683322Y91126477D01*
X88693591Y91127954D01*
X88697111Y91129684D01*
X88718257Y91131500D01*
X88842211Y91131500D01*
X88909250Y91111815D01*
X88955005Y91059011D01*
X88964684Y91026898D01*
X88976446Y90952632D01*
X89049433Y90728004D01*
X89122773Y90584068D01*
X89156657Y90517567D01*
X89295483Y90326490D01*
X89462490Y90159483D01*
X89653567Y90020657D01*
X89752991Y89969998D01*
X89864003Y89913434D01*
X89864005Y89913434D01*
X89864008Y89913432D01*
X89973032Y89878008D01*
X90088631Y89840447D01*
X90321903Y89803500D01*
X90321908Y89803500D01*
X90558097Y89803500D01*
X90791368Y89840447D01*
X91015992Y89913432D01*
X91226433Y90020657D01*
X91417510Y90159483D01*
X91584517Y90326490D01*
X91723343Y90517567D01*
X91830568Y90728008D01*
X91903553Y90952632D01*
X91915038Y91025147D01*
X91940500Y91185903D01*
X91940500Y91422098D01*
X91903553Y91655369D01*
X91830566Y91879997D01*
X91723342Y92090434D01*
X91584517Y92281510D01*
X91417510Y92448517D01*
X91226433Y92587343D01*
X91015996Y92694567D01*
X90791368Y92767554D01*
X90558097Y92804500D01*
X90558092Y92804500D01*
X90321908Y92804500D01*
X90321903Y92804500D01*
X90088631Y92767554D01*
X89864003Y92694567D01*
X89653566Y92587343D01*
X89560898Y92520015D01*
X89490193Y92468644D01*
X89479647Y92460982D01*
X89413840Y92437502D01*
X89406761Y92437300D01*
X84973239Y92437300D01*
X84906200Y92456985D01*
X84900353Y92460982D01*
X84889807Y92468644D01*
X84726433Y92587343D01*
X84515996Y92694567D01*
X84291368Y92767554D01*
X84058097Y92804500D01*
X84058092Y92804500D01*
X83821908Y92804500D01*
X83821903Y92804500D01*
X83588631Y92767554D01*
X83364003Y92694567D01*
X83153566Y92587343D01*
X83060898Y92520015D01*
X82962490Y92448517D01*
X82962488Y92448515D01*
X82962487Y92448515D01*
X82795485Y92281513D01*
X82795485Y92281512D01*
X82795483Y92281510D01*
X82786347Y92268935D01*
X82656657Y92090434D01*
X82549433Y91879997D01*
X82476446Y91655369D01*
X82439500Y91422098D01*
X68327181Y91422098D01*
X68406779Y91501696D01*
X68595892Y91738836D01*
X68757265Y91995659D01*
X68888868Y92268935D01*
X68989046Y92555228D01*
X69056540Y92850937D01*
X69059776Y92879652D01*
X69090499Y93152337D01*
X69090500Y93152341D01*
X69090500Y93455660D01*
X69090499Y93455664D01*
X69087265Y93484364D01*
X69056540Y93757063D01*
X68989046Y94052772D01*
X68979003Y94081472D01*
X68964105Y94124049D01*
X68888868Y94339065D01*
X68757265Y94612341D01*
X68595892Y94869164D01*
X68406779Y95106304D01*
X68192304Y95320779D01*
X67955164Y95509892D01*
X67698341Y95671265D01*
X67698338Y95671267D01*
X67425071Y95802866D01*
X67420299Y95804536D01*
X67404901Y95809924D01*
X67138783Y95903043D01*
X67138771Y95903047D01*
X67055304Y95922098D01*
X82439500Y95922098D01*
X82439500Y95685903D01*
X82476446Y95452632D01*
X82549433Y95228004D01*
X82620362Y95088800D01*
X82656657Y95017567D01*
X82795483Y94826490D01*
X82962490Y94659483D01*
X83153567Y94520657D01*
X83233165Y94480100D01*
X83364003Y94413434D01*
X83364005Y94413434D01*
X83364008Y94413432D01*
X83449469Y94385664D01*
X83588631Y94340447D01*
X83821903Y94303500D01*
X83821908Y94303500D01*
X84058097Y94303500D01*
X84291368Y94340447D01*
X84348437Y94358990D01*
X84515992Y94413432D01*
X84726433Y94520657D01*
X84917510Y94659483D01*
X84917513Y94659486D01*
X84920035Y94661318D01*
X84985842Y94684798D01*
X84992921Y94685000D01*
X89387079Y94685000D01*
X89454118Y94665315D01*
X89459965Y94661318D01*
X89462487Y94659486D01*
X89462490Y94659483D01*
X89653567Y94520657D01*
X89733165Y94480100D01*
X89864003Y94413434D01*
X89864005Y94413434D01*
X89864008Y94413432D01*
X89949469Y94385664D01*
X90088631Y94340447D01*
X90321903Y94303500D01*
X90321908Y94303500D01*
X90558097Y94303500D01*
X90791368Y94340447D01*
X90848437Y94358990D01*
X91015992Y94413432D01*
X91226433Y94520657D01*
X91417510Y94659483D01*
X91584517Y94826490D01*
X91723343Y95017567D01*
X91830568Y95228008D01*
X91903553Y95452632D01*
X91917168Y95538593D01*
X91940500Y95685903D01*
X91940500Y95922098D01*
X91903553Y96155369D01*
X91851814Y96314603D01*
X91830568Y96379992D01*
X91830566Y96379995D01*
X91830566Y96379997D01*
X91723342Y96590434D01*
X91584517Y96781510D01*
X91417510Y96948517D01*
X91226433Y97087343D01*
X91015996Y97194567D01*
X90791368Y97267554D01*
X90558097Y97304500D01*
X90558092Y97304500D01*
X90321908Y97304500D01*
X90321903Y97304500D01*
X90088631Y97267554D01*
X89864003Y97194567D01*
X89653566Y97087343D01*
X89545320Y97008697D01*
X89462490Y96948517D01*
X89462488Y96948515D01*
X89462487Y96948515D01*
X89295485Y96781513D01*
X89295485Y96781512D01*
X89295483Y96781510D01*
X89256037Y96727217D01*
X89156657Y96590434D01*
X89049433Y96379997D01*
X88976446Y96155369D01*
X88966949Y96095402D01*
X88952352Y96064611D01*
X88938189Y96033597D01*
X88937414Y96033100D01*
X88937020Y96032267D01*
X88908081Y96014249D01*
X88879411Y95995823D01*
X88878213Y95995651D01*
X88877708Y95995336D01*
X88844476Y95990800D01*
X88722904Y95990800D01*
X88655865Y96010485D01*
X88610110Y96063289D01*
X88600166Y96132447D01*
X88604973Y96153119D01*
X88606786Y96158697D01*
X88653553Y96302632D01*
X88665806Y96379992D01*
X88690500Y96535903D01*
X88690500Y96772098D01*
X88653553Y97005369D01*
X88580566Y97229997D01*
X88473342Y97440434D01*
X88334517Y97631510D01*
X88167510Y97798517D01*
X87976433Y97937343D01*
X87765996Y98044567D01*
X87541368Y98117554D01*
X87308097Y98154500D01*
X87308092Y98154500D01*
X87071908Y98154500D01*
X87071903Y98154500D01*
X86838631Y98117554D01*
X86614003Y98044567D01*
X86403566Y97937343D01*
X86294550Y97858138D01*
X86212490Y97798517D01*
X86212488Y97798515D01*
X86212487Y97798515D01*
X86045485Y97631513D01*
X86045485Y97631512D01*
X86045483Y97631510D01*
X86006037Y97577217D01*
X85906657Y97440434D01*
X85799433Y97229997D01*
X85726446Y97005369D01*
X85689500Y96772098D01*
X85689500Y96535903D01*
X85726446Y96302632D01*
X85769708Y96169488D01*
X85773214Y96158697D01*
X85775027Y96153119D01*
X85775830Y96124998D01*
X85779834Y96097153D01*
X85776814Y96090542D01*
X85777022Y96083277D01*
X85762495Y96059188D01*
X85750809Y96033597D01*
X85744695Y96029668D01*
X85740942Y96023444D01*
X85715695Y96011032D01*
X85692031Y95995823D01*
X85681760Y95994347D01*
X85678241Y95992616D01*
X85657096Y95990800D01*
X85535524Y95990800D01*
X85468485Y96010485D01*
X85422730Y96063289D01*
X85413051Y96095402D01*
X85403553Y96155369D01*
X85351814Y96314603D01*
X85330568Y96379992D01*
X85330566Y96379995D01*
X85330566Y96379997D01*
X85223342Y96590434D01*
X85084517Y96781510D01*
X84917510Y96948517D01*
X84726433Y97087343D01*
X84515996Y97194567D01*
X84291368Y97267554D01*
X84058097Y97304500D01*
X84058092Y97304500D01*
X83821908Y97304500D01*
X83821903Y97304500D01*
X83588631Y97267554D01*
X83364003Y97194567D01*
X83153566Y97087343D01*
X83045320Y97008697D01*
X82962490Y96948517D01*
X82962488Y96948515D01*
X82962487Y96948515D01*
X82795485Y96781513D01*
X82795485Y96781512D01*
X82795483Y96781510D01*
X82756037Y96727217D01*
X82656657Y96590434D01*
X82549433Y96379997D01*
X82476446Y96155369D01*
X82439500Y95922098D01*
X67055304Y95922098D01*
X66910556Y95955136D01*
X66843063Y95970540D01*
X66843060Y95970541D01*
X66843048Y95970543D01*
X66541663Y96004500D01*
X66541657Y96004500D01*
X66238343Y96004500D01*
X66238336Y96004500D01*
X65936951Y95970543D01*
X65936937Y95970540D01*
X65641228Y95903047D01*
X65641216Y95903043D01*
X65354931Y95802867D01*
X65081661Y95671267D01*
X64824837Y95509893D01*
X64587696Y95320780D01*
X64373220Y95106304D01*
X64184107Y94869163D01*
X64022733Y94612339D01*
X63891133Y94339069D01*
X63790957Y94052784D01*
X63790953Y94052772D01*
X63723460Y93757063D01*
X63723457Y93757049D01*
X63689500Y93455664D01*
X60290499Y93455664D01*
X60287265Y93484364D01*
X60256540Y93757063D01*
X60189046Y94052772D01*
X60179003Y94081472D01*
X60164105Y94124049D01*
X60088868Y94339065D01*
X59957265Y94612341D01*
X59795892Y94869164D01*
X59606779Y95106304D01*
X59392304Y95320779D01*
X59155164Y95509892D01*
X58898341Y95671265D01*
X58898338Y95671267D01*
X58625068Y95802867D01*
X58338783Y95903043D01*
X58338771Y95903047D01*
X58110556Y95955136D01*
X58043063Y95970540D01*
X58043060Y95970541D01*
X58043048Y95970543D01*
X57741663Y96004500D01*
X57741657Y96004500D01*
X57438343Y96004500D01*
X57438336Y96004500D01*
X57136951Y95970543D01*
X57136937Y95970540D01*
X56841228Y95903047D01*
X56841216Y95903043D01*
X56554931Y95802867D01*
X56281661Y95671267D01*
X56024837Y95509893D01*
X55787696Y95320780D01*
X55573220Y95106304D01*
X55384107Y94869163D01*
X55222733Y94612339D01*
X55091133Y94339069D01*
X54990957Y94052784D01*
X54990953Y94052772D01*
X54923460Y93757063D01*
X54923457Y93757049D01*
X54889500Y93455664D01*
X45211800Y93455664D01*
X45211800Y93484357D01*
X45187533Y93699738D01*
X45177842Y93785749D01*
X45177841Y93785754D01*
X45177840Y93785763D01*
X45110346Y94081472D01*
X45010168Y94367765D01*
X44878565Y94641041D01*
X44717192Y94897864D01*
X44528079Y95135004D01*
X44313604Y95349479D01*
X44076464Y95538592D01*
X43865317Y95671265D01*
X43819638Y95699967D01*
X43546368Y95831567D01*
X43260083Y95931743D01*
X43260071Y95931747D01*
X43031856Y95983836D01*
X42964363Y95999240D01*
X42964360Y95999241D01*
X42964348Y95999243D01*
X42662963Y96033200D01*
X42662957Y96033200D01*
X42359643Y96033200D01*
X42359636Y96033200D01*
X42058251Y95999243D01*
X42058237Y95999240D01*
X41762528Y95931747D01*
X41762516Y95931743D01*
X41476231Y95831567D01*
X41202961Y95699967D01*
X40946137Y95538593D01*
X40708996Y95349480D01*
X40494520Y95135004D01*
X40305407Y94897863D01*
X40144033Y94641039D01*
X40012433Y94367769D01*
X39912257Y94081484D01*
X39912253Y94081472D01*
X39844760Y93785763D01*
X39844757Y93785749D01*
X39810800Y93484364D01*
X36411799Y93484364D01*
X36387533Y93699738D01*
X36377842Y93785749D01*
X36377841Y93785754D01*
X36377840Y93785763D01*
X36310346Y94081472D01*
X36210168Y94367765D01*
X36078565Y94641041D01*
X35917192Y94897864D01*
X35728079Y95135004D01*
X35513604Y95349479D01*
X35276464Y95538592D01*
X35065317Y95671265D01*
X35019638Y95699967D01*
X34746368Y95831567D01*
X34460083Y95931743D01*
X34460071Y95931747D01*
X34231856Y95983836D01*
X34164363Y95999240D01*
X34164360Y95999241D01*
X34164348Y95999243D01*
X33862963Y96033200D01*
X33862957Y96033200D01*
X33559643Y96033200D01*
X33559636Y96033200D01*
X33258251Y95999243D01*
X33258237Y95999240D01*
X32962528Y95931747D01*
X32962516Y95931743D01*
X32676231Y95831567D01*
X32402961Y95699967D01*
X32146137Y95538593D01*
X31908996Y95349480D01*
X31694520Y95135004D01*
X31505407Y94897863D01*
X31344033Y94641039D01*
X31212433Y94367769D01*
X31112257Y94081484D01*
X31112253Y94081472D01*
X31044760Y93785763D01*
X31044757Y93785749D01*
X31010800Y93484364D01*
X22444578Y93484364D01*
X22229204Y93699738D01*
X22229200Y93699741D01*
X22122264Y93771192D01*
X22087120Y93785749D01*
X22003444Y93820409D01*
X22003438Y93820411D01*
X21877307Y93845500D01*
X21877305Y93845500D01*
X21288000Y93845500D01*
X21220961Y93865185D01*
X21175206Y93917989D01*
X21164000Y93969500D01*
X21164000Y93980100D01*
X20063000Y93980100D01*
X19995961Y93999785D01*
X19950206Y94052589D01*
X19939000Y94104100D01*
X19939000Y94230100D01*
X19813000Y94230100D01*
X19745961Y94249785D01*
X19700206Y94302589D01*
X19689000Y94354100D01*
X19689000Y94480100D01*
X20189000Y94480100D01*
X21163999Y94480100D01*
X21163999Y94617572D01*
X21163998Y94617587D01*
X21153505Y94720298D01*
X21098358Y94886720D01*
X21098356Y94886725D01*
X21006315Y95035946D01*
X20882345Y95159916D01*
X20733124Y95251957D01*
X20733119Y95251959D01*
X20566697Y95307106D01*
X20566690Y95307107D01*
X20463986Y95317600D01*
X20189000Y95317600D01*
X20189000Y94480100D01*
X19689000Y94480100D01*
X19689000Y95317600D01*
X19414029Y95317600D01*
X19414012Y95317599D01*
X19311302Y95307106D01*
X19144880Y95251959D01*
X19144875Y95251957D01*
X18995654Y95159916D01*
X18871684Y95035946D01*
X18779643Y94886725D01*
X18779641Y94886720D01*
X18724494Y94720298D01*
X18724493Y94720291D01*
X18714000Y94617587D01*
X18714000Y94452703D01*
X18694315Y94385664D01*
X18641511Y94339909D01*
X18572353Y94329965D01*
X18508797Y94358990D01*
X18502319Y94365022D01*
X17832272Y95035069D01*
X17798787Y95096392D01*
X17802021Y95161066D01*
X17824853Y95231332D01*
X17845005Y95358574D01*
X17861800Y95464603D01*
X17861800Y95700798D01*
X17824853Y95934069D01*
X17762816Y96124998D01*
X17751868Y96158692D01*
X17751866Y96158695D01*
X17751866Y96158697D01*
X17644642Y96369134D01*
X17636753Y96379992D01*
X17505817Y96560210D01*
X17338810Y96727217D01*
X17147733Y96866043D01*
X16937296Y96973267D01*
X16712668Y97046254D01*
X16479397Y97083200D01*
X16479392Y97083200D01*
X16243208Y97083200D01*
X16243203Y97083200D01*
X16009931Y97046254D01*
X15785303Y96973267D01*
X15574866Y96866043D01*
X15465850Y96786838D01*
X15383790Y96727217D01*
X15383788Y96727215D01*
X15383787Y96727215D01*
X15216785Y96560213D01*
X15216785Y96560212D01*
X15216783Y96560210D01*
X15199127Y96535908D01*
X15077957Y96369134D01*
X14970733Y96158697D01*
X14897746Y95934069D01*
X14888249Y95874102D01*
X14873652Y95843311D01*
X14859489Y95812297D01*
X14858714Y95811800D01*
X14858320Y95810967D01*
X14829381Y95792949D01*
X14800711Y95774523D01*
X14799513Y95774351D01*
X14799008Y95774036D01*
X14765776Y95769500D01*
X14644204Y95769500D01*
X14577165Y95789185D01*
X14531410Y95841989D01*
X14521466Y95911147D01*
X14526273Y95931819D01*
X14574853Y96081332D01*
X14611800Y96314603D01*
X14611800Y96550798D01*
X14574853Y96784069D01*
X14502948Y97005368D01*
X14501868Y97008692D01*
X14501866Y97008695D01*
X14501866Y97008697D01*
X14394642Y97219134D01*
X14386753Y97229992D01*
X14255817Y97410210D01*
X14088810Y97577217D01*
X13897733Y97716043D01*
X13687296Y97823267D01*
X13462668Y97896254D01*
X13229397Y97933200D01*
X13229392Y97933200D01*
X12993208Y97933200D01*
X12993203Y97933200D01*
X12759931Y97896254D01*
X12535303Y97823267D01*
X12324866Y97716043D01*
X12215850Y97636838D01*
X12133790Y97577217D01*
X12133788Y97577215D01*
X12133787Y97577215D01*
X11966785Y97410213D01*
X11966785Y97410212D01*
X11966783Y97410210D01*
X11907162Y97328150D01*
X11827957Y97219134D01*
X11720733Y97008697D01*
X11647746Y96784069D01*
X11610800Y96550798D01*
X11610800Y96314603D01*
X11647746Y96081332D01*
X11696327Y95931819D01*
X11697130Y95903698D01*
X11701134Y95875853D01*
X11698114Y95869242D01*
X11698322Y95861977D01*
X11683795Y95837888D01*
X11672109Y95812297D01*
X11665995Y95808368D01*
X11662242Y95802144D01*
X11636995Y95789732D01*
X11613331Y95774523D01*
X11603060Y95773047D01*
X11599541Y95771316D01*
X11578396Y95769500D01*
X11456824Y95769500D01*
X11389785Y95789185D01*
X11344030Y95841989D01*
X11334351Y95874102D01*
X11324853Y95934069D01*
X11262816Y96124998D01*
X11251868Y96158692D01*
X11251866Y96158695D01*
X11251866Y96158697D01*
X11144642Y96369134D01*
X11136753Y96379992D01*
X11005817Y96560210D01*
X10838810Y96727217D01*
X10647733Y96866043D01*
X10437296Y96973267D01*
X10212668Y97046254D01*
X9979397Y97083200D01*
X9979392Y97083200D01*
X9743208Y97083200D01*
X9743203Y97083200D01*
X9509931Y97046254D01*
X9285303Y96973267D01*
X9074866Y96866043D01*
X8965850Y96786838D01*
X8883790Y96727217D01*
X8883788Y96727215D01*
X8883787Y96727215D01*
X8716785Y96560213D01*
X8716785Y96560212D01*
X8716783Y96560210D01*
X8699127Y96535908D01*
X8577957Y96369134D01*
X8470733Y96158697D01*
X8397746Y95934069D01*
X8360800Y95700798D01*
X8360800Y95464603D01*
X8397746Y95231332D01*
X8470733Y95006704D01*
X8577957Y94796267D01*
X8716783Y94605190D01*
X8883790Y94438183D01*
X9074867Y94299357D01*
X9172158Y94249785D01*
X9285303Y94192134D01*
X9285305Y94192134D01*
X9285308Y94192132D01*
X9367399Y94165459D01*
X9509931Y94119147D01*
X9743203Y94082200D01*
X9743208Y94082200D01*
X9979397Y94082200D01*
X10212668Y94119147D01*
X10289074Y94143973D01*
X10437292Y94192132D01*
X10647733Y94299357D01*
X10838810Y94438183D01*
X10838813Y94438186D01*
X10841335Y94440018D01*
X10907142Y94463498D01*
X10914221Y94463700D01*
X15308379Y94463700D01*
X15375418Y94444015D01*
X15381265Y94440018D01*
X15383787Y94438186D01*
X15383790Y94438183D01*
X15574867Y94299357D01*
X15672158Y94249785D01*
X15785303Y94192134D01*
X15785305Y94192134D01*
X15785308Y94192132D01*
X15867399Y94165459D01*
X16009931Y94119147D01*
X16243203Y94082200D01*
X16243208Y94082200D01*
X16479397Y94082200D01*
X16585426Y94098995D01*
X16712668Y94119147D01*
X16782934Y94141979D01*
X16852772Y94143973D01*
X16908931Y94111728D01*
X17820029Y93200631D01*
X17853514Y93139308D01*
X17848530Y93069617D01*
X17806658Y93013683D01*
X17801239Y93009848D01*
X17681291Y92929703D01*
X17548900Y92797312D01*
X17548897Y92797308D01*
X17444881Y92641638D01*
X17444876Y92641629D01*
X17373227Y92468652D01*
X17373225Y92468644D01*
X17364711Y92425841D01*
X17332326Y92363930D01*
X17271610Y92329356D01*
X17201841Y92333095D01*
X17170209Y92349714D01*
X17147736Y92366041D01*
X17147735Y92366042D01*
X17147733Y92366043D01*
X17050276Y92415700D01*
X16937296Y92473267D01*
X16712668Y92546254D01*
X16479397Y92583200D01*
X16479392Y92583200D01*
X16243208Y92583200D01*
X16243203Y92583200D01*
X16009931Y92546254D01*
X15785303Y92473267D01*
X15574866Y92366043D01*
X15400947Y92239682D01*
X15335140Y92216202D01*
X15328061Y92216000D01*
X10894539Y92216000D01*
X10827500Y92235685D01*
X10821653Y92239682D01*
X10764079Y92281512D01*
X10647733Y92366043D01*
X10437296Y92473267D01*
X10212668Y92546254D01*
X9979397Y92583200D01*
X9979392Y92583200D01*
X9743208Y92583200D01*
X9743203Y92583200D01*
X9509931Y92546254D01*
X9285303Y92473267D01*
X9074866Y92366043D01*
X8965850Y92286838D01*
X8883790Y92227217D01*
X8883788Y92227215D01*
X8883787Y92227215D01*
X8716785Y92060213D01*
X8716785Y92060212D01*
X8716783Y92060210D01*
X8690738Y92024362D01*
X8577957Y91869134D01*
X8470733Y91658697D01*
X8397746Y91434069D01*
X8360800Y91200798D01*
X8360800Y90964603D01*
X8397746Y90731332D01*
X8470733Y90506704D01*
X8577957Y90296267D01*
X8716783Y90105190D01*
X8883790Y89938183D01*
X9074867Y89799357D01*
X9174291Y89748698D01*
X9285303Y89692134D01*
X9285305Y89692134D01*
X9285308Y89692132D01*
X9360911Y89667567D01*
X9509931Y89619147D01*
X9743203Y89582200D01*
X9743208Y89582200D01*
X9979397Y89582200D01*
X10212668Y89619147D01*
X10437292Y89692132D01*
X10647733Y89799357D01*
X10838810Y89938183D01*
X11005817Y90105190D01*
X11144643Y90296267D01*
X11251868Y90506708D01*
X11324853Y90731332D01*
X11331928Y90776003D01*
X11336616Y90805598D01*
X11351212Y90836390D01*
X11365376Y90867403D01*
X11366150Y90867901D01*
X11366545Y90868733D01*
X11395483Y90886752D01*
X11424154Y90905177D01*
X11425351Y90905350D01*
X11425857Y90905664D01*
X11459089Y90910200D01*
X11583043Y90910200D01*
X11650082Y90890515D01*
X11695837Y90837711D01*
X11705781Y90768553D01*
X11700975Y90747890D01*
X11681634Y90688362D01*
X11647746Y90584069D01*
X11610800Y90350798D01*
X11610800Y90114603D01*
X11647746Y89881332D01*
X11720733Y89656704D01*
X11827957Y89446267D01*
X11966783Y89255190D01*
X12133790Y89088183D01*
X12324867Y88949357D01*
X12424291Y88898698D01*
X12535303Y88842134D01*
X12535305Y88842134D01*
X12535308Y88842132D01*
X12617399Y88815459D01*
X12759931Y88769147D01*
X12993203Y88732200D01*
X12993208Y88732200D01*
X13229397Y88732200D01*
X13335426Y88748995D01*
X13462668Y88769147D01*
X13532934Y88791979D01*
X13602772Y88793973D01*
X13658931Y88761728D01*
X18680198Y83740461D01*
X18680201Y83740459D01*
X18787137Y83669007D01*
X18856740Y83640177D01*
X18905956Y83619791D01*
X18905960Y83619791D01*
X18905961Y83619790D01*
X19032092Y83594700D01*
X19032095Y83594700D01*
X19160705Y83594700D01*
X29366397Y83594700D01*
X29433436Y83575015D01*
X29454078Y83558381D01*
X42929281Y70083179D01*
X42962766Y70021856D01*
X42965600Y69995498D01*
X42965600Y69926080D01*
X43002125Y69742457D01*
X43002127Y69742449D01*
X43073776Y69569472D01*
X43073781Y69569463D01*
X43177797Y69413793D01*
X43177800Y69413789D01*
X43310188Y69281401D01*
X43310192Y69281398D01*
X43465862Y69177382D01*
X43465868Y69177379D01*
X43465869Y69177378D01*
X43638849Y69105727D01*
X43822479Y69069201D01*
X43822483Y69069200D01*
X43822484Y69069200D01*
X44009717Y69069200D01*
X44009718Y69069201D01*
X44193351Y69105727D01*
X44366331Y69177378D01*
X44522008Y69281398D01*
X44522011Y69281401D01*
X44573754Y69333143D01*
X44635077Y69366628D01*
X44704769Y69361644D01*
X44749116Y69333143D01*
X53691897Y60390362D01*
X53712659Y60376489D01*
X53752344Y60349973D01*
X53798836Y60318908D01*
X53917656Y60269691D01*
X53917660Y60269691D01*
X53917661Y60269690D01*
X54043792Y60244600D01*
X54043795Y60244600D01*
X84356800Y60244600D01*
X84423839Y60224915D01*
X84469594Y60172111D01*
X84480800Y60120600D01*
X84480800Y59692000D01*
X84461115Y59624961D01*
X84408311Y59579206D01*
X84356800Y59568000D01*
X84251879Y59568000D01*
X84068256Y59531475D01*
X84068248Y59531473D01*
X83895271Y59459824D01*
X83895262Y59459819D01*
X83739592Y59355803D01*
X83739588Y59355800D01*
X83690510Y59306720D01*
X83629187Y59273234D01*
X83602828Y59270400D01*
X79446693Y59270400D01*
X79320561Y59245311D01*
X79320555Y59245309D01*
X79201736Y59196093D01*
X79094798Y59124640D01*
X79094795Y59124637D01*
X74299830Y54329673D01*
X74238507Y54296188D01*
X74168815Y54301172D01*
X74124468Y54329673D01*
X69415405Y59038737D01*
X69415404Y59038738D01*
X69415400Y59038741D01*
X69308464Y59110192D01*
X69189644Y59159409D01*
X69189638Y59159411D01*
X69063507Y59184500D01*
X69063505Y59184500D01*
X50055205Y59184500D01*
X40948189Y59184500D01*
X40881150Y59204185D01*
X40835395Y59256989D01*
X40825451Y59326147D01*
X40826568Y59332675D01*
X40828500Y59342384D01*
X40828500Y59529616D01*
X40791973Y59713251D01*
X40720322Y59886231D01*
X40720321Y59886232D01*
X40720318Y59886238D01*
X40616302Y60041908D01*
X40616299Y60041912D01*
X40483911Y60174300D01*
X40483907Y60174303D01*
X40328237Y60278319D01*
X40328228Y60278324D01*
X40155251Y60349973D01*
X40155243Y60349975D01*
X39971620Y60386500D01*
X39965555Y60387097D01*
X39965736Y60388940D01*
X39907005Y60406185D01*
X39886363Y60422819D01*
X39293140Y61016042D01*
X39293120Y61016064D01*
X39190785Y61118399D01*
X39075531Y61195408D01*
X39075527Y61195411D01*
X39075515Y61195416D01*
X38947465Y61248456D01*
X38947456Y61248459D01*
X38947394Y61248471D01*
X38947394Y61248472D01*
X38811510Y61275501D01*
X38811508Y61275501D01*
X38672892Y61275501D01*
X38666778Y61275501D01*
X38666758Y61275500D01*
X23636202Y61275500D01*
X23569163Y61295185D01*
X23523408Y61347989D01*
X23513464Y61417147D01*
X23542489Y61480703D01*
X23548521Y61487181D01*
X24932539Y62871199D01*
X24932541Y62871201D01*
X25003992Y62978136D01*
X25053209Y63096956D01*
X25069053Y63176609D01*
X25078300Y63223095D01*
X25078300Y64434364D01*
X31010800Y64434364D01*
X31010800Y64131037D01*
X31044757Y63829652D01*
X31044760Y63829638D01*
X31112253Y63533929D01*
X31112257Y63533917D01*
X31212433Y63247632D01*
X31344033Y62974362D01*
X31344035Y62974359D01*
X31505408Y62717536D01*
X31694521Y62480396D01*
X31908996Y62265921D01*
X32146136Y62076808D01*
X32402959Y61915435D01*
X32676235Y61783832D01*
X32826272Y61731332D01*
X32962516Y61683658D01*
X32962528Y61683654D01*
X33258237Y61616160D01*
X33258246Y61616159D01*
X33258251Y61616158D01*
X33459174Y61593520D01*
X33559637Y61582201D01*
X33559640Y61582200D01*
X33559643Y61582200D01*
X33862960Y61582200D01*
X33862961Y61582201D01*
X34016994Y61599556D01*
X34164348Y61616158D01*
X34164351Y61616159D01*
X34164363Y61616160D01*
X34460072Y61683654D01*
X34746365Y61783832D01*
X35019641Y61915435D01*
X35276464Y62076808D01*
X35513604Y62265921D01*
X35728079Y62480396D01*
X35917192Y62717536D01*
X36078565Y62974359D01*
X36210168Y63247635D01*
X36310346Y63533928D01*
X36377840Y63829637D01*
X36411800Y64131043D01*
X36411800Y64434357D01*
X36411799Y64434364D01*
X39810800Y64434364D01*
X39810800Y64131037D01*
X39844757Y63829652D01*
X39844760Y63829638D01*
X39912253Y63533929D01*
X39912257Y63533917D01*
X40012433Y63247632D01*
X40144033Y62974362D01*
X40144035Y62974359D01*
X40305408Y62717536D01*
X40494521Y62480396D01*
X40708996Y62265921D01*
X40946136Y62076808D01*
X41202959Y61915435D01*
X41476235Y61783832D01*
X41626272Y61731332D01*
X41762516Y61683658D01*
X41762528Y61683654D01*
X42058237Y61616160D01*
X42058246Y61616159D01*
X42058251Y61616158D01*
X42259174Y61593520D01*
X42359637Y61582201D01*
X42359640Y61582200D01*
X42359643Y61582200D01*
X42662960Y61582200D01*
X42662961Y61582201D01*
X42816994Y61599556D01*
X42964348Y61616158D01*
X42964351Y61616159D01*
X42964363Y61616160D01*
X43260072Y61683654D01*
X43546365Y61783832D01*
X43819641Y61915435D01*
X44076464Y62076808D01*
X44313604Y62265921D01*
X44528079Y62480396D01*
X44717192Y62717536D01*
X44878565Y62974359D01*
X45010168Y63247635D01*
X45110346Y63533928D01*
X45177840Y63829637D01*
X45211800Y64131043D01*
X45211800Y64434357D01*
X45177840Y64735763D01*
X45110346Y65031472D01*
X45010168Y65317765D01*
X44890954Y65565315D01*
X44878566Y65591039D01*
X44869675Y65605189D01*
X44717192Y65847864D01*
X44528079Y66085004D01*
X44313604Y66299479D01*
X44286893Y66320780D01*
X44106545Y66464603D01*
X44076464Y66488592D01*
X43819641Y66649965D01*
X43819638Y66649967D01*
X43546368Y66781567D01*
X43260083Y66881743D01*
X43260071Y66881747D01*
X43030831Y66934069D01*
X42964363Y66949240D01*
X42964360Y66949241D01*
X42964348Y66949243D01*
X42662963Y66983200D01*
X42662957Y66983200D01*
X42359643Y66983200D01*
X42359636Y66983200D01*
X42058251Y66949243D01*
X42058237Y66949240D01*
X41762528Y66881747D01*
X41762516Y66881743D01*
X41476231Y66781567D01*
X41202961Y66649967D01*
X40946137Y66488593D01*
X40708996Y66299480D01*
X40494520Y66085004D01*
X40305407Y65847863D01*
X40144033Y65591039D01*
X40012433Y65317769D01*
X39912257Y65031484D01*
X39912253Y65031472D01*
X39844760Y64735763D01*
X39844757Y64735749D01*
X39810800Y64434364D01*
X36411799Y64434364D01*
X36377840Y64735763D01*
X36310346Y65031472D01*
X36210168Y65317765D01*
X36090954Y65565315D01*
X36078566Y65591039D01*
X36069675Y65605189D01*
X35917192Y65847864D01*
X35728079Y66085004D01*
X35513604Y66299479D01*
X35486893Y66320780D01*
X35306545Y66464603D01*
X35276464Y66488592D01*
X35019641Y66649965D01*
X35019638Y66649967D01*
X34746368Y66781567D01*
X34460083Y66881743D01*
X34460071Y66881747D01*
X34230831Y66934069D01*
X34164363Y66949240D01*
X34164360Y66949241D01*
X34164348Y66949243D01*
X33862963Y66983200D01*
X33862957Y66983200D01*
X33559643Y66983200D01*
X33559636Y66983200D01*
X33258251Y66949243D01*
X33258237Y66949240D01*
X32962528Y66881747D01*
X32962516Y66881743D01*
X32676231Y66781567D01*
X32402961Y66649967D01*
X32146137Y66488593D01*
X31908996Y66299480D01*
X31694520Y66085004D01*
X31505407Y65847863D01*
X31344033Y65591039D01*
X31212433Y65317769D01*
X31112257Y65031484D01*
X31112253Y65031472D01*
X31044760Y64735763D01*
X31044757Y64735749D01*
X31010800Y64434364D01*
X25078300Y64434364D01*
X25078300Y69435621D01*
X25465500Y69435621D01*
X25465500Y69248380D01*
X25502025Y69064757D01*
X25502027Y69064749D01*
X25573676Y68891772D01*
X25573681Y68891763D01*
X25677697Y68736093D01*
X25677700Y68736089D01*
X25810088Y68603701D01*
X25810092Y68603698D01*
X25965762Y68499682D01*
X25965768Y68499679D01*
X25965769Y68499678D01*
X26138749Y68428027D01*
X26322379Y68391501D01*
X26322383Y68391500D01*
X26322384Y68391500D01*
X26509617Y68391500D01*
X26509618Y68391501D01*
X26693251Y68428027D01*
X26866231Y68499678D01*
X27021908Y68603698D01*
X27021912Y68603703D01*
X27026618Y68607563D01*
X27027792Y68606132D01*
X27081515Y68635466D01*
X27107873Y68638300D01*
X28010127Y68638300D01*
X28077166Y68618615D01*
X28091182Y68607320D01*
X28091382Y68607563D01*
X28096092Y68603698D01*
X28251762Y68499682D01*
X28251768Y68499679D01*
X28251769Y68499678D01*
X28424749Y68428027D01*
X28608379Y68391501D01*
X28608383Y68391500D01*
X28608384Y68391500D01*
X28795617Y68391500D01*
X28795618Y68391501D01*
X28979251Y68428027D01*
X29152231Y68499678D01*
X29307908Y68603698D01*
X29440302Y68736092D01*
X29544322Y68891769D01*
X29615973Y69064749D01*
X29652500Y69248384D01*
X29652500Y69435616D01*
X29615973Y69619251D01*
X29544322Y69792231D01*
X29544321Y69792232D01*
X29544318Y69792238D01*
X29440302Y69947908D01*
X29440299Y69947912D01*
X29307911Y70080300D01*
X29307907Y70080303D01*
X29152237Y70184319D01*
X29152228Y70184324D01*
X28979251Y70255973D01*
X28979243Y70255975D01*
X28795620Y70292500D01*
X28795616Y70292500D01*
X28608384Y70292500D01*
X28608379Y70292500D01*
X28424756Y70255975D01*
X28424748Y70255973D01*
X28251771Y70184324D01*
X28251762Y70184319D01*
X28096092Y70080303D01*
X28091382Y70076437D01*
X28090207Y70077869D01*
X28036485Y70048534D01*
X28010127Y70045700D01*
X27107873Y70045700D01*
X27040834Y70065385D01*
X27026817Y70076681D01*
X27026618Y70076437D01*
X27021907Y70080303D01*
X26866237Y70184319D01*
X26866228Y70184324D01*
X26693251Y70255973D01*
X26693243Y70255975D01*
X26509620Y70292500D01*
X26509616Y70292500D01*
X26322384Y70292500D01*
X26322379Y70292500D01*
X26138756Y70255975D01*
X26138748Y70255973D01*
X25965771Y70184324D01*
X25965762Y70184319D01*
X25810092Y70080303D01*
X25810088Y70080300D01*
X25677700Y69947912D01*
X25677697Y69947908D01*
X25573681Y69792238D01*
X25573676Y69792229D01*
X25502027Y69619252D01*
X25502025Y69619244D01*
X25465500Y69435621D01*
X25078300Y69435621D01*
X25078300Y75751687D01*
X25097985Y75818726D01*
X25129413Y75852003D01*
X25142328Y75861386D01*
X25264814Y75983872D01*
X25325082Y76066825D01*
X25380412Y76109489D01*
X25450026Y76115468D01*
X25511821Y76082862D01*
X25525715Y76066827D01*
X25585986Y75983872D01*
X25708472Y75861386D01*
X25848612Y75759568D01*
X26002955Y75680927D01*
X26167699Y75627398D01*
X26338789Y75600300D01*
X26338790Y75600300D01*
X26512010Y75600300D01*
X26512011Y75600300D01*
X26683101Y75627398D01*
X26847845Y75680927D01*
X27002188Y75759568D01*
X27142328Y75861386D01*
X27264814Y75983872D01*
X27325082Y76066825D01*
X27380412Y76109489D01*
X27450026Y76115468D01*
X27511821Y76082862D01*
X27525715Y76066827D01*
X27585986Y75983872D01*
X27708472Y75861386D01*
X27848612Y75759568D01*
X28002955Y75680927D01*
X28167699Y75627398D01*
X28338789Y75600300D01*
X28338790Y75600300D01*
X28512010Y75600300D01*
X28512011Y75600300D01*
X28683101Y75627398D01*
X28847845Y75680927D01*
X29002188Y75759568D01*
X29142328Y75861386D01*
X29264814Y75983872D01*
X29366632Y76124012D01*
X29445273Y76278355D01*
X29498802Y76443099D01*
X29525900Y76614189D01*
X29525900Y77337411D01*
X29498802Y77508501D01*
X29445273Y77673245D01*
X29366632Y77827588D01*
X29264814Y77967728D01*
X29142328Y78090214D01*
X29002188Y78192032D01*
X28847845Y78270673D01*
X28683101Y78324202D01*
X28683099Y78324203D01*
X28683098Y78324203D01*
X28551671Y78345019D01*
X28512011Y78351300D01*
X28338789Y78351300D01*
X28299128Y78345019D01*
X28167702Y78324203D01*
X28002952Y78270672D01*
X27848611Y78192032D01*
X27768656Y78133941D01*
X27708472Y78090214D01*
X27708470Y78090212D01*
X27708469Y78090212D01*
X27585988Y77967731D01*
X27585981Y77967722D01*
X27525717Y77884777D01*
X27470387Y77842111D01*
X27400774Y77836133D01*
X27338979Y77868739D01*
X27325083Y77884777D01*
X27277299Y77950543D01*
X27264814Y77967728D01*
X27142328Y78090214D01*
X27002188Y78192032D01*
X26847845Y78270673D01*
X26683101Y78324202D01*
X26683099Y78324203D01*
X26683098Y78324203D01*
X26551671Y78345019D01*
X26512011Y78351300D01*
X26338789Y78351300D01*
X26299128Y78345019D01*
X26167702Y78324203D01*
X26002952Y78270672D01*
X25848611Y78192032D01*
X25768656Y78133941D01*
X25708472Y78090214D01*
X25708470Y78090212D01*
X25708469Y78090212D01*
X25585988Y77967731D01*
X25585981Y77967722D01*
X25525717Y77884777D01*
X25470387Y77842111D01*
X25400774Y77836133D01*
X25338979Y77868739D01*
X25325083Y77884777D01*
X25277299Y77950543D01*
X25264814Y77967728D01*
X25142328Y78090214D01*
X25002188Y78192032D01*
X24847845Y78270673D01*
X24683101Y78324202D01*
X24683099Y78324203D01*
X24683098Y78324203D01*
X24551671Y78345019D01*
X24512011Y78351300D01*
X24338789Y78351300D01*
X24299128Y78345019D01*
X24167702Y78324203D01*
X24002952Y78270672D01*
X23848611Y78192032D01*
X23708473Y78090215D01*
X23600566Y77982308D01*
X23539243Y77948824D01*
X23469551Y77953808D01*
X23413618Y77995680D01*
X23407346Y78004894D01*
X23367717Y78069144D01*
X23243745Y78193116D01*
X23094524Y78285157D01*
X23094519Y78285159D01*
X22928097Y78340306D01*
X22928090Y78340307D01*
X22825386Y78350800D01*
X22675400Y78350800D01*
X22675400Y77256130D01*
X22655655Y77275875D01*
X22570145Y77325244D01*
X22474770Y77350800D01*
X22376030Y77350800D01*
X22280655Y77325244D01*
X22195145Y77275875D01*
X22175400Y77256130D01*
X22175400Y78350800D01*
X22025427Y78350800D01*
X22025412Y78350799D01*
X21922702Y78340306D01*
X21756280Y78285159D01*
X21756275Y78285157D01*
X21607054Y78193116D01*
X21483084Y78069146D01*
X21391043Y77919925D01*
X21391041Y77919920D01*
X21335894Y77753498D01*
X21335893Y77753491D01*
X21325400Y77650787D01*
X21325400Y77225800D01*
X22145070Y77225800D01*
X22125325Y77206055D01*
X22075956Y77120545D01*
X22050400Y77025170D01*
X22050400Y76926430D01*
X22075956Y76831055D01*
X22125325Y76745545D01*
X22145070Y76725800D01*
X21325401Y76725800D01*
X21325401Y76300814D01*
X21335894Y76198103D01*
X21391041Y76031681D01*
X21391043Y76031676D01*
X21483084Y75882455D01*
X21607054Y75758485D01*
X21756275Y75666444D01*
X21756280Y75666442D01*
X21922702Y75611295D01*
X21922709Y75611294D01*
X22025419Y75600801D01*
X22175399Y75600801D01*
X22175400Y75600802D01*
X22175400Y76695470D01*
X22195145Y76675725D01*
X22280655Y76626356D01*
X22376030Y76600800D01*
X22474770Y76600800D01*
X22570145Y76626356D01*
X22655655Y76675725D01*
X22675400Y76695470D01*
X22675400Y75600801D01*
X22825372Y75600801D01*
X22825386Y75600802D01*
X22928097Y75611295D01*
X23094519Y75666442D01*
X23094524Y75666444D01*
X23243745Y75758485D01*
X23367715Y75882455D01*
X23407345Y75946706D01*
X23423679Y75961399D01*
X23436465Y75979263D01*
X23449145Y75984305D01*
X23459293Y75993432D01*
X23480978Y75996962D01*
X23501391Y76005077D01*
X23514784Y76002463D01*
X23528255Y76004655D01*
X23548403Y75995901D01*
X23569966Y75991692D01*
X23587308Y75978997D01*
X23592337Y75976812D01*
X23598667Y75971151D01*
X23599620Y75970238D01*
X23708472Y75861386D01*
X23728204Y75847050D01*
X23734282Y75841227D01*
X23747651Y75817944D01*
X23764050Y75796679D01*
X23766085Y75785839D01*
X23769074Y75780635D01*
X23768651Y75772181D01*
X23772500Y75751687D01*
X23772500Y63609203D01*
X23752815Y63542164D01*
X23736181Y63521522D01*
X21451268Y61236610D01*
X21411041Y61209731D01*
X21376481Y61195416D01*
X21376466Y61195408D01*
X21311144Y61151760D01*
X21261214Y61118399D01*
X21261211Y61118396D01*
X20819636Y60676819D01*
X20758313Y60643334D01*
X20740414Y60641410D01*
X20740445Y60641097D01*
X20734379Y60640500D01*
X20550756Y60603975D01*
X20550748Y60603973D01*
X20377771Y60532324D01*
X20377762Y60532319D01*
X20222092Y60428303D01*
X20222088Y60428300D01*
X20089700Y60295912D01*
X20089697Y60295908D01*
X19985681Y60140238D01*
X19985676Y60140229D01*
X19914027Y59967252D01*
X19914025Y59967244D01*
X19877500Y59783621D01*
X19877500Y59596380D01*
X19914025Y59412757D01*
X19914027Y59412749D01*
X19937553Y59355953D01*
X19945022Y59286484D01*
X19913747Y59224004D01*
X19853658Y59188352D01*
X19822992Y59184500D01*
X16134202Y59184500D01*
X16067163Y59204185D01*
X16046521Y59220819D01*
X14582272Y60685069D01*
X14548787Y60746392D01*
X14552021Y60811066D01*
X14574853Y60881332D01*
X14596876Y61020383D01*
X14611800Y61114603D01*
X14611800Y61350798D01*
X14574853Y61584069D01*
X14526273Y61733581D01*
X14525469Y61761703D01*
X14521466Y61789547D01*
X14524485Y61796159D01*
X14524278Y61803423D01*
X14538804Y61827513D01*
X14550491Y61853103D01*
X14556604Y61857033D01*
X14560358Y61863256D01*
X14585604Y61875669D01*
X14609269Y61890877D01*
X14619539Y61892354D01*
X14623059Y61894084D01*
X14644204Y61895900D01*
X14765776Y61895900D01*
X14832815Y61876215D01*
X14878570Y61823411D01*
X14888249Y61791298D01*
X14897746Y61731332D01*
X14970733Y61506704D01*
X15043069Y61364738D01*
X15077957Y61296267D01*
X15216783Y61105190D01*
X15383790Y60938183D01*
X15574867Y60799357D01*
X15616767Y60778008D01*
X15785303Y60692134D01*
X15785305Y60692134D01*
X15785308Y60692132D01*
X15894332Y60656708D01*
X16009931Y60619147D01*
X16243203Y60582200D01*
X16243208Y60582200D01*
X16479397Y60582200D01*
X16712668Y60619147D01*
X16937292Y60692132D01*
X17147733Y60799357D01*
X17338810Y60938183D01*
X17505817Y61105190D01*
X17644643Y61296267D01*
X17751868Y61506708D01*
X17824853Y61731332D01*
X17833168Y61783832D01*
X17861800Y61964603D01*
X17861800Y62200798D01*
X17824853Y62434069D01*
X17751866Y62658697D01*
X17644642Y62869134D01*
X17643142Y62871199D01*
X17505817Y63060210D01*
X17338810Y63227217D01*
X17147733Y63366043D01*
X16937296Y63473267D01*
X16712668Y63546254D01*
X16479397Y63583200D01*
X16479392Y63583200D01*
X16243208Y63583200D01*
X16243203Y63583200D01*
X16009931Y63546254D01*
X15785303Y63473267D01*
X15574866Y63366043D01*
X15457740Y63280946D01*
X15383790Y63227217D01*
X15383788Y63227216D01*
X15381265Y63225382D01*
X15315458Y63201902D01*
X15308379Y63201700D01*
X10914221Y63201700D01*
X10847182Y63221385D01*
X10841335Y63225382D01*
X10838811Y63227216D01*
X10838810Y63227217D01*
X10647733Y63366043D01*
X10437296Y63473267D01*
X10212668Y63546254D01*
X9979397Y63583200D01*
X9979392Y63583200D01*
X9743208Y63583200D01*
X9743203Y63583200D01*
X9509931Y63546254D01*
X9285303Y63473267D01*
X9074866Y63366043D01*
X8965850Y63286838D01*
X8883790Y63227217D01*
X8883788Y63227215D01*
X8883787Y63227215D01*
X8716785Y63060213D01*
X8716785Y63060212D01*
X8716783Y63060210D01*
X8669886Y62995662D01*
X8577957Y62869134D01*
X8470733Y62658697D01*
X8397746Y62434069D01*
X8360800Y62200798D01*
X8360800Y61964603D01*
X8397746Y61731332D01*
X8470733Y61506704D01*
X8543069Y61364738D01*
X8577957Y61296267D01*
X8716783Y61105190D01*
X8883790Y60938183D01*
X9074867Y60799357D01*
X9116767Y60778008D01*
X9285303Y60692134D01*
X9285305Y60692134D01*
X9285308Y60692132D01*
X9394332Y60656708D01*
X9509931Y60619147D01*
X9743203Y60582200D01*
X9743208Y60582200D01*
X9979397Y60582200D01*
X10212668Y60619147D01*
X10437292Y60692132D01*
X10647733Y60799357D01*
X10838810Y60938183D01*
X11005817Y61105190D01*
X11144643Y61296267D01*
X11251868Y61506708D01*
X11324853Y61731332D01*
X11333168Y61783832D01*
X11334351Y61791298D01*
X11348947Y61822090D01*
X11363111Y61853103D01*
X11363885Y61853601D01*
X11364280Y61854433D01*
X11393218Y61872452D01*
X11421889Y61890877D01*
X11423086Y61891050D01*
X11423592Y61891364D01*
X11456824Y61895900D01*
X11578396Y61895900D01*
X11645435Y61876215D01*
X11691190Y61823411D01*
X11701134Y61754253D01*
X11696327Y61733581D01*
X11647746Y61584069D01*
X11610800Y61350798D01*
X11610800Y61114603D01*
X11647746Y60881332D01*
X11720733Y60656704D01*
X11784111Y60532319D01*
X11827957Y60446267D01*
X11966783Y60255190D01*
X12133790Y60088183D01*
X12324867Y59949357D01*
X12424291Y59898698D01*
X12535303Y59842134D01*
X12535305Y59842134D01*
X12535308Y59842132D01*
X12617399Y59815459D01*
X12759931Y59769147D01*
X12993203Y59732200D01*
X12993208Y59732200D01*
X13229397Y59732200D01*
X13335426Y59748995D01*
X13462668Y59769147D01*
X13532934Y59791979D01*
X13602772Y59793973D01*
X13658931Y59761728D01*
X15396197Y58024462D01*
X15396200Y58024460D01*
X15503136Y57953008D01*
X15621956Y57903791D01*
X15621960Y57903791D01*
X15621961Y57903790D01*
X15748092Y57878700D01*
X15748095Y57878700D01*
X19753500Y57878700D01*
X19820539Y57859015D01*
X19866294Y57806211D01*
X19877500Y57754700D01*
X19877500Y57564380D01*
X19914025Y57380757D01*
X19914027Y57380749D01*
X19985676Y57207772D01*
X19985681Y57207763D01*
X20089697Y57052093D01*
X20089700Y57052089D01*
X20138780Y57003010D01*
X20172266Y56941687D01*
X20175100Y56915328D01*
X20175100Y53021695D01*
X20175100Y53021693D01*
X20175099Y53021693D01*
X20189520Y52949200D01*
X20196786Y52912673D01*
X20200191Y52895556D01*
X20249408Y52776736D01*
X20271080Y52744301D01*
X20320862Y52669796D01*
X20320863Y52669795D01*
X21499096Y51491563D01*
X21499097Y51491562D01*
X21499100Y51491560D01*
X21581180Y51436716D01*
X21606036Y51420108D01*
X21724856Y51370891D01*
X21724860Y51370891D01*
X21724861Y51370890D01*
X21850992Y51345800D01*
X21850995Y51345800D01*
X21994928Y51345800D01*
X22061967Y51326115D01*
X22082610Y51309480D01*
X22131688Y51260401D01*
X22131692Y51260398D01*
X22287362Y51156382D01*
X22287371Y51156377D01*
X22326556Y51140146D01*
X22460349Y51084727D01*
X22643808Y51048235D01*
X22643979Y51048201D01*
X22643983Y51048200D01*
X22643984Y51048200D01*
X22831217Y51048200D01*
X22831218Y51048201D01*
X23014851Y51084727D01*
X23187831Y51156378D01*
X23187838Y51156384D01*
X23193198Y51159247D01*
X23194189Y51157392D01*
X23251740Y51175427D01*
X23319124Y51156958D01*
X23365827Y51104991D01*
X23368543Y51098901D01*
X23377962Y51076163D01*
X23377964Y51076159D01*
X23474218Y50950718D01*
X23599659Y50854464D01*
X23599660Y50854464D01*
X23599661Y50854463D01*
X23619221Y50846361D01*
X23673625Y50802521D01*
X23695690Y50736227D01*
X23678411Y50668527D01*
X23627274Y50620916D01*
X23571769Y50607800D01*
X10856872Y50607800D01*
X10789833Y50627485D01*
X10769190Y50644120D01*
X10720111Y50693200D01*
X10720107Y50693203D01*
X10564437Y50797219D01*
X10564428Y50797224D01*
X10391451Y50868873D01*
X10391443Y50868875D01*
X10207820Y50905400D01*
X10207816Y50905400D01*
X10020584Y50905400D01*
X10020579Y50905400D01*
X9836956Y50868875D01*
X9836948Y50868873D01*
X9663971Y50797224D01*
X9663962Y50797219D01*
X9508292Y50693203D01*
X9508288Y50693200D01*
X9375900Y50560812D01*
X9375897Y50560808D01*
X9271881Y50405138D01*
X9271876Y50405129D01*
X9200227Y50232152D01*
X9200225Y50232144D01*
X9163700Y50048521D01*
X9163700Y49861280D01*
X9200225Y49677657D01*
X9200227Y49677649D01*
X9271876Y49504672D01*
X9271881Y49504663D01*
X9375897Y49348993D01*
X9375900Y49348989D01*
X9508288Y49216601D01*
X9508292Y49216598D01*
X9663962Y49112582D01*
X9663968Y49112579D01*
X9663969Y49112578D01*
X9836949Y49040927D01*
X10020579Y49004401D01*
X10020583Y49004400D01*
X10020584Y49004400D01*
X10207817Y49004400D01*
X10207818Y49004401D01*
X10391451Y49040927D01*
X10564431Y49112578D01*
X10720108Y49216598D01*
X10769190Y49265680D01*
X10830513Y49299166D01*
X10856872Y49302000D01*
X26416798Y49302000D01*
X26483837Y49282315D01*
X26529592Y49229511D01*
X26539536Y49160353D01*
X26510511Y49096797D01*
X26504482Y49090323D01*
X26225487Y48811328D01*
X24969238Y47555081D01*
X24907915Y47521596D01*
X24865373Y47519823D01*
X24791863Y47529500D01*
X24513136Y47529500D01*
X24395746Y47514047D01*
X24395734Y47514043D01*
X24374950Y47505434D01*
X24305481Y47497967D01*
X24280050Y47505434D01*
X24259265Y47514043D01*
X24259260Y47514045D01*
X24141861Y47529500D01*
X23863136Y47529500D01*
X23745746Y47514047D01*
X23745737Y47514044D01*
X23599658Y47453536D01*
X23529261Y47399519D01*
X23464092Y47374326D01*
X23395647Y47388365D01*
X23366096Y47410214D01*
X23343508Y47432802D01*
X23343507Y47432803D01*
X23343506Y47432804D01*
X23187837Y47536819D01*
X23187828Y47536824D01*
X23014851Y47608473D01*
X23014843Y47608475D01*
X22831220Y47645000D01*
X22831216Y47645000D01*
X22643984Y47645000D01*
X22643979Y47645000D01*
X22460356Y47608475D01*
X22460348Y47608473D01*
X22287371Y47536824D01*
X22287362Y47536819D01*
X22131692Y47432803D01*
X22131688Y47432800D01*
X21999300Y47300412D01*
X21999297Y47300408D01*
X21895281Y47144738D01*
X21895276Y47144729D01*
X21823627Y46971752D01*
X21823625Y46971744D01*
X21787100Y46788121D01*
X21787100Y46600880D01*
X21823625Y46417257D01*
X21823627Y46417249D01*
X21895276Y46244272D01*
X21895281Y46244263D01*
X21999297Y46088593D01*
X21999300Y46088589D01*
X22131688Y45956201D01*
X22131692Y45956198D01*
X22287362Y45852182D01*
X22287368Y45852179D01*
X22287369Y45852178D01*
X22460349Y45780527D01*
X22641184Y45744557D01*
X22643979Y45744001D01*
X22643983Y45744000D01*
X22643984Y45744000D01*
X22831217Y45744000D01*
X22831218Y45744001D01*
X23014851Y45780527D01*
X23130550Y45828452D01*
X23200016Y45835920D01*
X23262495Y45804645D01*
X23298148Y45744557D01*
X23302000Y45713891D01*
X23302000Y45614638D01*
X23317453Y45497247D01*
X23317456Y45497238D01*
X23377729Y45351725D01*
X23377964Y45351159D01*
X23474218Y45225718D01*
X23599659Y45129464D01*
X23745738Y45068956D01*
X23863139Y45053500D01*
X24141860Y45053501D01*
X24141862Y45053501D01*
X24224299Y45064353D01*
X24293334Y45053587D01*
X24328164Y45029095D01*
X24884941Y44472318D01*
X25390479Y43966781D01*
X25423964Y43905458D01*
X25418980Y43835766D01*
X25377108Y43779833D01*
X25311644Y43755416D01*
X25302798Y43755100D01*
X15316493Y43755100D01*
X15190361Y43730011D01*
X15190355Y43730009D01*
X15097629Y43691600D01*
X15071540Y43680794D01*
X15071530Y43680789D01*
X14964598Y43609340D01*
X14964595Y43609337D01*
X10408931Y39053674D01*
X10347608Y39020189D01*
X10282933Y39023424D01*
X10212671Y39046253D01*
X9979397Y39083200D01*
X9979392Y39083200D01*
X9743208Y39083200D01*
X9743203Y39083200D01*
X9509931Y39046254D01*
X9285303Y38973267D01*
X9074866Y38866043D01*
X9056112Y38852417D01*
X8883790Y38727217D01*
X8883788Y38727215D01*
X8883787Y38727215D01*
X8716785Y38560213D01*
X8716785Y38560212D01*
X8716783Y38560210D01*
X8657162Y38478150D01*
X8577957Y38369134D01*
X8470733Y38158697D01*
X8397746Y37934069D01*
X8360800Y37700798D01*
X8360800Y37464603D01*
X8397746Y37231332D01*
X8470733Y37006704D01*
X8567104Y36817567D01*
X8577957Y36796267D01*
X8716783Y36605190D01*
X8883790Y36438183D01*
X9074867Y36299357D01*
X9174291Y36248698D01*
X9285303Y36192134D01*
X9285305Y36192134D01*
X9285308Y36192132D01*
X9405712Y36153011D01*
X9509931Y36119147D01*
X9743203Y36082200D01*
X9743208Y36082200D01*
X9979397Y36082200D01*
X10212668Y36119147D01*
X10278222Y36140447D01*
X10437292Y36192132D01*
X10647733Y36299357D01*
X10838810Y36438183D01*
X10838813Y36438186D01*
X10841335Y36440018D01*
X10907142Y36463498D01*
X10914221Y36463700D01*
X15308379Y36463700D01*
X15375418Y36444015D01*
X15381265Y36440018D01*
X15383787Y36438186D01*
X15383790Y36438183D01*
X15574867Y36299357D01*
X15674291Y36248698D01*
X15785303Y36192134D01*
X15785305Y36192134D01*
X15785308Y36192132D01*
X15905712Y36153011D01*
X16009931Y36119147D01*
X16243203Y36082200D01*
X16243208Y36082200D01*
X16479397Y36082200D01*
X16712668Y36119147D01*
X16778222Y36140447D01*
X16937292Y36192132D01*
X17147733Y36299357D01*
X17338810Y36438183D01*
X17505817Y36605190D01*
X17644643Y36796267D01*
X17751868Y37006708D01*
X17824853Y37231332D01*
X17828227Y37252632D01*
X17861800Y37464603D01*
X17861800Y37700798D01*
X17824853Y37934069D01*
X17770083Y38102632D01*
X17751868Y38158692D01*
X17751866Y38158695D01*
X17751866Y38158697D01*
X17672425Y38314608D01*
X17644643Y38369133D01*
X17505817Y38560210D01*
X17338810Y38727217D01*
X17147733Y38866043D01*
X16937296Y38973267D01*
X16712668Y39046254D01*
X16479397Y39083200D01*
X16479392Y39083200D01*
X16243208Y39083200D01*
X16243203Y39083200D01*
X16009931Y39046254D01*
X15785303Y38973267D01*
X15574866Y38866043D01*
X15556112Y38852417D01*
X15383790Y38727217D01*
X15383788Y38727215D01*
X15383787Y38727215D01*
X15216785Y38560213D01*
X15216785Y38560212D01*
X15216783Y38560210D01*
X15157162Y38478150D01*
X15077957Y38369134D01*
X14970733Y38158697D01*
X14897746Y37934069D01*
X14888249Y37874102D01*
X14873652Y37843311D01*
X14859489Y37812297D01*
X14858714Y37811800D01*
X14858320Y37810967D01*
X14829381Y37792949D01*
X14800711Y37774523D01*
X14799513Y37774351D01*
X14799008Y37774036D01*
X14765776Y37769500D01*
X14644204Y37769500D01*
X14577165Y37789185D01*
X14531410Y37841989D01*
X14521466Y37911147D01*
X14526273Y37931819D01*
X14528548Y37938819D01*
X14574853Y38081332D01*
X14578227Y38102632D01*
X14611800Y38314603D01*
X14611800Y38550798D01*
X14574853Y38784069D01*
X14552022Y38854333D01*
X14550026Y38924174D01*
X14582270Y38980331D01*
X15355621Y39753681D01*
X15416944Y39787166D01*
X15443302Y39790000D01*
X21363498Y39790000D01*
X21430537Y39770315D01*
X21476292Y39717511D01*
X21486236Y39648353D01*
X21457211Y39584797D01*
X21451179Y39578320D01*
X18957863Y37085004D01*
X16492378Y34619519D01*
X16431055Y34586034D01*
X16404697Y34583200D01*
X16243203Y34583200D01*
X16009931Y34546254D01*
X15785303Y34473267D01*
X15574866Y34366043D01*
X15474042Y34292790D01*
X15403698Y34241682D01*
X15337893Y34218202D01*
X15330814Y34218000D01*
X10891786Y34218000D01*
X10824747Y34237685D01*
X10818911Y34241674D01*
X10647733Y34366043D01*
X10437296Y34473267D01*
X10212668Y34546254D01*
X9979397Y34583200D01*
X9979392Y34583200D01*
X9743208Y34583200D01*
X9743203Y34583200D01*
X9509931Y34546254D01*
X9285303Y34473267D01*
X9074866Y34366043D01*
X8965850Y34286838D01*
X8883790Y34227217D01*
X8883788Y34227215D01*
X8883787Y34227215D01*
X8716785Y34060213D01*
X8716785Y34060212D01*
X8716783Y34060210D01*
X8669886Y33995662D01*
X8577957Y33869134D01*
X8470733Y33658697D01*
X8397746Y33434069D01*
X8360800Y33200798D01*
X8360800Y32964603D01*
X8397746Y32731332D01*
X8470733Y32506704D01*
X8539319Y32372098D01*
X8577957Y32296267D01*
X8716783Y32105190D01*
X8883790Y31938183D01*
X9074867Y31799357D01*
X9147152Y31762526D01*
X9285303Y31692134D01*
X9285305Y31692134D01*
X9285308Y31692132D01*
X9394332Y31656708D01*
X9509931Y31619147D01*
X9743203Y31582200D01*
X9743208Y31582200D01*
X9979397Y31582200D01*
X10212668Y31619147D01*
X10278222Y31640447D01*
X10437292Y31692132D01*
X10647733Y31799357D01*
X10838810Y31938183D01*
X11005817Y32105190D01*
X11144643Y32296267D01*
X11251868Y32506708D01*
X11324853Y32731332D01*
X11333168Y32783834D01*
X11336932Y32807597D01*
X11351516Y32838362D01*
X11365692Y32869403D01*
X11366467Y32869902D01*
X11366861Y32870732D01*
X11395788Y32888745D01*
X11424470Y32907177D01*
X11425666Y32907349D01*
X11426172Y32907664D01*
X11459405Y32912200D01*
X11583692Y32912200D01*
X11650731Y32892515D01*
X11696486Y32839711D01*
X11706430Y32770553D01*
X11701623Y32749882D01*
X11647747Y32584073D01*
X11647747Y32584070D01*
X11610800Y32350798D01*
X11610800Y32114603D01*
X11647746Y31881332D01*
X11720733Y31656704D01*
X11817104Y31467567D01*
X11827957Y31446267D01*
X11966783Y31255190D01*
X12133790Y31088183D01*
X12324867Y30949357D01*
X12369071Y30926834D01*
X12535303Y30842134D01*
X12535305Y30842134D01*
X12535308Y30842132D01*
X12614155Y30816513D01*
X12759931Y30769147D01*
X12993203Y30732200D01*
X12993208Y30732200D01*
X13229397Y30732200D01*
X13462668Y30769147D01*
X13528222Y30790447D01*
X13687292Y30842132D01*
X13897733Y30949357D01*
X14088810Y31088183D01*
X14255817Y31255190D01*
X14394643Y31446267D01*
X14501868Y31656708D01*
X14574853Y31881332D01*
X14587231Y31959483D01*
X14611800Y32114603D01*
X14611800Y32350798D01*
X14587106Y32506704D01*
X14574853Y32584068D01*
X14574852Y32584072D01*
X14574852Y32584073D01*
X14520977Y32749882D01*
X14520173Y32778002D01*
X14516170Y32805847D01*
X14519189Y32812459D01*
X14518982Y32819723D01*
X14533508Y32843813D01*
X14545195Y32869403D01*
X14551308Y32873333D01*
X14555062Y32879556D01*
X14580308Y32891969D01*
X14603973Y32907177D01*
X14614243Y32908654D01*
X14617763Y32910384D01*
X14638908Y32912200D01*
X14763195Y32912200D01*
X14830234Y32892515D01*
X14875989Y32839711D01*
X14885668Y32807597D01*
X14897746Y32731332D01*
X14970733Y32506704D01*
X15039319Y32372098D01*
X15077957Y32296267D01*
X15216783Y32105190D01*
X15383790Y31938183D01*
X15574867Y31799357D01*
X15647152Y31762526D01*
X15785303Y31692134D01*
X15785305Y31692134D01*
X15785308Y31692132D01*
X15894332Y31656708D01*
X16009931Y31619147D01*
X16243203Y31582200D01*
X16243208Y31582200D01*
X16479397Y31582200D01*
X16712668Y31619147D01*
X16778222Y31640447D01*
X16937292Y31692132D01*
X17147733Y31799357D01*
X17338810Y31938183D01*
X17505817Y32105190D01*
X17644643Y32296267D01*
X17751868Y32506708D01*
X17824853Y32731332D01*
X17833168Y32783832D01*
X17861800Y32964603D01*
X17861800Y33200798D01*
X17824853Y33434069D01*
X17751866Y33658697D01*
X17666651Y33825940D01*
X17653755Y33894609D01*
X17680031Y33959350D01*
X17689446Y33969907D01*
X19153903Y35434364D01*
X31010800Y35434364D01*
X31010800Y35131037D01*
X31044757Y34829652D01*
X31044760Y34829638D01*
X31112253Y34533929D01*
X31112257Y34533917D01*
X31212433Y34247632D01*
X31344033Y33974362D01*
X31344035Y33974359D01*
X31505408Y33717536D01*
X31694521Y33480396D01*
X31908996Y33265921D01*
X32146136Y33076808D01*
X32369062Y32936734D01*
X32402961Y32915434D01*
X32413447Y32910384D01*
X32676235Y32783832D01*
X32826272Y32731332D01*
X32962516Y32683658D01*
X32962528Y32683654D01*
X33258237Y32616160D01*
X33258246Y32616159D01*
X33258251Y32616158D01*
X33459174Y32593520D01*
X33559637Y32582201D01*
X33559640Y32582200D01*
X33559643Y32582200D01*
X33862960Y32582200D01*
X33862961Y32582201D01*
X34016994Y32599556D01*
X34164348Y32616158D01*
X34164351Y32616159D01*
X34164363Y32616160D01*
X34460072Y32683654D01*
X34746365Y32783832D01*
X35019641Y32915435D01*
X35276464Y33076808D01*
X35513604Y33265921D01*
X35728079Y33480396D01*
X35917192Y33717536D01*
X36078565Y33974359D01*
X36210168Y34247635D01*
X36310346Y34533928D01*
X36377840Y34829637D01*
X36411800Y35131043D01*
X36411800Y35434357D01*
X36411799Y35434364D01*
X39810800Y35434364D01*
X39810800Y35131037D01*
X39844757Y34829652D01*
X39844760Y34829638D01*
X39912253Y34533929D01*
X39912257Y34533917D01*
X40012433Y34247632D01*
X40144033Y33974362D01*
X40144035Y33974359D01*
X40305408Y33717536D01*
X40494521Y33480396D01*
X40708996Y33265921D01*
X40946136Y33076808D01*
X41169062Y32936734D01*
X41202961Y32915434D01*
X41213447Y32910384D01*
X41476235Y32783832D01*
X41626272Y32731332D01*
X41762516Y32683658D01*
X41762528Y32683654D01*
X42058237Y32616160D01*
X42058246Y32616159D01*
X42058251Y32616158D01*
X42259174Y32593520D01*
X42359637Y32582201D01*
X42359640Y32582200D01*
X42359643Y32582200D01*
X42662960Y32582200D01*
X42662961Y32582201D01*
X42816994Y32599556D01*
X42964348Y32616158D01*
X42964351Y32616159D01*
X42964363Y32616160D01*
X43260072Y32683654D01*
X43546365Y32783832D01*
X43819641Y32915435D01*
X44076464Y33076808D01*
X44313604Y33265921D01*
X44528079Y33480396D01*
X44717192Y33717536D01*
X44878565Y33974359D01*
X45010168Y34247635D01*
X45110346Y34533928D01*
X45177840Y34829637D01*
X45211800Y35131043D01*
X45211800Y35434357D01*
X45211799Y35434367D01*
X45210573Y35445254D01*
X45209400Y35455664D01*
X54989500Y35455664D01*
X54989500Y35152337D01*
X55023457Y34850952D01*
X55023459Y34850940D01*
X55023460Y34850937D01*
X55028322Y34829637D01*
X55090953Y34555229D01*
X55090957Y34555217D01*
X55191133Y34268932D01*
X55322733Y33995662D01*
X55372653Y33916215D01*
X55484108Y33738836D01*
X55673221Y33501696D01*
X55887696Y33287221D01*
X56124836Y33098108D01*
X56381659Y32936735D01*
X56654935Y32805132D01*
X56804972Y32752632D01*
X56941216Y32704958D01*
X56941228Y32704954D01*
X57236937Y32637460D01*
X57236946Y32637459D01*
X57236951Y32637458D01*
X57425981Y32616160D01*
X57538337Y32603501D01*
X57538340Y32603500D01*
X57538343Y32603500D01*
X57841660Y32603500D01*
X57841661Y32603501D01*
X57995694Y32620856D01*
X58143048Y32637458D01*
X58143051Y32637459D01*
X58143063Y32637460D01*
X58438772Y32704954D01*
X58725065Y32805132D01*
X58998341Y32936735D01*
X59255164Y33098108D01*
X59492304Y33287221D01*
X59706779Y33501696D01*
X59895892Y33738836D01*
X60057265Y33995659D01*
X60188868Y34268935D01*
X60289046Y34555228D01*
X60356540Y34850937D01*
X60390500Y35152343D01*
X60390500Y35455657D01*
X60390499Y35455664D01*
X63789500Y35455664D01*
X63789500Y35152337D01*
X63823457Y34850952D01*
X63823459Y34850940D01*
X63823460Y34850937D01*
X63828322Y34829637D01*
X63890953Y34555229D01*
X63890957Y34555217D01*
X63991133Y34268932D01*
X64122733Y33995662D01*
X64172653Y33916215D01*
X64284108Y33738836D01*
X64473221Y33501696D01*
X64687696Y33287221D01*
X64924836Y33098108D01*
X65181659Y32936735D01*
X65454935Y32805132D01*
X65604972Y32752632D01*
X65741216Y32704958D01*
X65741228Y32704954D01*
X66036937Y32637460D01*
X66036946Y32637459D01*
X66036951Y32637458D01*
X66225981Y32616160D01*
X66338337Y32603501D01*
X66338340Y32603500D01*
X66338343Y32603500D01*
X66641660Y32603500D01*
X66641661Y32603501D01*
X66795694Y32620856D01*
X66943048Y32637458D01*
X66943051Y32637459D01*
X66943063Y32637460D01*
X67238772Y32704954D01*
X67525065Y32805132D01*
X67798341Y32936735D01*
X68055164Y33098108D01*
X68292304Y33287221D01*
X68506779Y33501696D01*
X68695892Y33738836D01*
X68857265Y33995659D01*
X68988868Y34268935D01*
X69089046Y34555228D01*
X69156540Y34850937D01*
X69190500Y35152343D01*
X69190500Y35455657D01*
X69179180Y35556126D01*
X69156542Y35757049D01*
X69156541Y35757054D01*
X69156540Y35757063D01*
X69089046Y36052772D01*
X68988868Y36339065D01*
X68857265Y36612341D01*
X68695892Y36869164D01*
X68506779Y37106304D01*
X68292304Y37320779D01*
X68055164Y37509892D01*
X67832240Y37649965D01*
X67798338Y37671267D01*
X67525068Y37802867D01*
X67238783Y37903043D01*
X67238771Y37903047D01*
X67009531Y37955369D01*
X66943063Y37970540D01*
X66943060Y37970541D01*
X66943048Y37970543D01*
X66641663Y38004500D01*
X66641657Y38004500D01*
X66338343Y38004500D01*
X66338336Y38004500D01*
X66036951Y37970543D01*
X66036937Y37970540D01*
X65741228Y37903047D01*
X65741216Y37903043D01*
X65454931Y37802867D01*
X65181661Y37671267D01*
X64924837Y37509893D01*
X64687696Y37320780D01*
X64473220Y37106304D01*
X64284107Y36869163D01*
X64122733Y36612339D01*
X63991133Y36339069D01*
X63890957Y36052784D01*
X63890953Y36052772D01*
X63823460Y35757063D01*
X63823457Y35757049D01*
X63789500Y35455664D01*
X60390499Y35455664D01*
X60379180Y35556126D01*
X60356542Y35757049D01*
X60356541Y35757054D01*
X60356540Y35757063D01*
X60289046Y36052772D01*
X60188868Y36339065D01*
X60057265Y36612341D01*
X59895892Y36869164D01*
X59706779Y37106304D01*
X59492304Y37320779D01*
X59255164Y37509892D01*
X59032240Y37649965D01*
X58998338Y37671267D01*
X58725068Y37802867D01*
X58438783Y37903043D01*
X58438771Y37903047D01*
X58209531Y37955369D01*
X58143063Y37970540D01*
X58143060Y37970541D01*
X58143048Y37970543D01*
X57841663Y38004500D01*
X57841657Y38004500D01*
X57538343Y38004500D01*
X57538336Y38004500D01*
X57236951Y37970543D01*
X57236937Y37970540D01*
X56941228Y37903047D01*
X56941216Y37903043D01*
X56654931Y37802867D01*
X56381661Y37671267D01*
X56124837Y37509893D01*
X55887696Y37320780D01*
X55673220Y37106304D01*
X55484107Y36869163D01*
X55322733Y36612339D01*
X55191133Y36339069D01*
X55090957Y36052784D01*
X55090953Y36052772D01*
X55023460Y35757063D01*
X55023457Y35757049D01*
X54989500Y35455664D01*
X45209400Y35455664D01*
X45177842Y35735749D01*
X45177841Y35735754D01*
X45177840Y35735763D01*
X45110346Y36031472D01*
X45010168Y36317765D01*
X44878565Y36591041D01*
X44717192Y36847864D01*
X44528079Y37085004D01*
X44313604Y37299479D01*
X44286893Y37320780D01*
X44106545Y37464603D01*
X44076464Y37488592D01*
X43819641Y37649965D01*
X43819638Y37649967D01*
X43546368Y37781567D01*
X43260083Y37881743D01*
X43260071Y37881747D01*
X43010020Y37938819D01*
X42964363Y37949240D01*
X42964360Y37949241D01*
X42964348Y37949243D01*
X42662963Y37983200D01*
X42662957Y37983200D01*
X42359643Y37983200D01*
X42359636Y37983200D01*
X42058251Y37949243D01*
X42058237Y37949240D01*
X41762528Y37881747D01*
X41762516Y37881743D01*
X41476231Y37781567D01*
X41202961Y37649967D01*
X40946137Y37488593D01*
X40708996Y37299480D01*
X40494520Y37085004D01*
X40305407Y36847863D01*
X40144033Y36591039D01*
X40012433Y36317769D01*
X39912257Y36031484D01*
X39912253Y36031472D01*
X39844760Y35735763D01*
X39844757Y35735749D01*
X39810800Y35434364D01*
X36411799Y35434364D01*
X36377840Y35735763D01*
X36310346Y36031472D01*
X36210168Y36317765D01*
X36078565Y36591041D01*
X35917192Y36847864D01*
X35728079Y37085004D01*
X35513604Y37299479D01*
X35486893Y37320780D01*
X35306545Y37464603D01*
X35276464Y37488592D01*
X35019641Y37649965D01*
X35019638Y37649967D01*
X34746368Y37781567D01*
X34460083Y37881743D01*
X34460071Y37881747D01*
X34210020Y37938819D01*
X34164363Y37949240D01*
X34164360Y37949241D01*
X34164348Y37949243D01*
X33862963Y37983200D01*
X33862957Y37983200D01*
X33559643Y37983200D01*
X33559636Y37983200D01*
X33258251Y37949243D01*
X33258237Y37949240D01*
X32962528Y37881747D01*
X32962516Y37881743D01*
X32676231Y37781567D01*
X32402961Y37649967D01*
X32146137Y37488593D01*
X31908996Y37299480D01*
X31694520Y37085004D01*
X31505407Y36847863D01*
X31344033Y36591039D01*
X31212433Y36317769D01*
X31112257Y36031484D01*
X31112253Y36031472D01*
X31044760Y35735763D01*
X31044757Y35735749D01*
X31010800Y35434364D01*
X19153903Y35434364D01*
X22902921Y39183381D01*
X22964244Y39216866D01*
X22990602Y39219700D01*
X71259722Y39219700D01*
X71326761Y39200015D01*
X71365260Y39160798D01*
X71369488Y39153944D01*
X71493544Y39029888D01*
X71642866Y38937786D01*
X71809403Y38882601D01*
X71912191Y38872100D01*
X72512208Y38872101D01*
X72512216Y38872102D01*
X72512219Y38872102D01*
X72568502Y38877852D01*
X72614997Y38882601D01*
X72781534Y38937786D01*
X72930856Y39029888D01*
X73054912Y39153944D01*
X73135361Y39284375D01*
X73187309Y39331099D01*
X73256271Y39342322D01*
X73320353Y39314479D01*
X73346437Y39284376D01*
X73426888Y39153944D01*
X73550944Y39029888D01*
X73700266Y38937786D01*
X73866803Y38882601D01*
X73969591Y38872100D01*
X74295396Y38872101D01*
X74362435Y38852417D01*
X74383077Y38835782D01*
X80155798Y33063061D01*
X80155801Y33063059D01*
X80262737Y32991607D01*
X80332340Y32962777D01*
X80381556Y32942391D01*
X80381560Y32942391D01*
X80381561Y32942390D01*
X80507692Y32917300D01*
X80507695Y32917300D01*
X82144460Y32917300D01*
X82211499Y32897615D01*
X82257254Y32844811D01*
X82266933Y32812698D01*
X82276075Y32754981D01*
X82276447Y32752632D01*
X82349432Y32528008D01*
X82456657Y32317567D01*
X82595483Y32126490D01*
X82762490Y31959483D01*
X82953567Y31820657D01*
X82995369Y31799358D01*
X83164003Y31713434D01*
X83164005Y31713434D01*
X83164008Y31713432D01*
X83273032Y31678008D01*
X83388631Y31640447D01*
X83621903Y31603500D01*
X83621908Y31603500D01*
X83858097Y31603500D01*
X84091368Y31640447D01*
X84315992Y31713432D01*
X84526433Y31820657D01*
X84717510Y31959483D01*
X84884517Y32126490D01*
X85023343Y32317567D01*
X85130568Y32528008D01*
X85203553Y32752632D01*
X85209246Y32788579D01*
X85213067Y32812698D01*
X85227650Y32843462D01*
X85241827Y32874503D01*
X85242602Y32875002D01*
X85242997Y32875833D01*
X85271918Y32893842D01*
X85300605Y32912277D01*
X85301802Y32912450D01*
X85302308Y32912764D01*
X85335540Y32917300D01*
X85457129Y32917300D01*
X85524168Y32897615D01*
X85569923Y32844811D01*
X85579867Y32775653D01*
X85575061Y32754988D01*
X85559378Y32706722D01*
X85526446Y32605369D01*
X85489500Y32372098D01*
X85489500Y32135903D01*
X85526447Y31902629D01*
X85549276Y31832367D01*
X85551271Y31762526D01*
X85519026Y31706369D01*
X84772978Y30960319D01*
X84711655Y30926834D01*
X84685297Y30924000D01*
X35702593Y30924000D01*
X35576461Y30898911D01*
X35576455Y30898909D01*
X35457637Y30849693D01*
X35350697Y30778239D01*
X35350696Y30778238D01*
X16853231Y12280774D01*
X16791908Y12247289D01*
X16727233Y12250524D01*
X16656971Y12273353D01*
X16423697Y12310300D01*
X16423692Y12310300D01*
X16187508Y12310300D01*
X16187503Y12310300D01*
X15954231Y12273354D01*
X15729603Y12200367D01*
X15519166Y12093143D01*
X15410150Y12013938D01*
X15328090Y11954317D01*
X15328088Y11954315D01*
X15328087Y11954315D01*
X15161085Y11787313D01*
X15161085Y11787312D01*
X15161083Y11787310D01*
X15101462Y11705250D01*
X15022257Y11596234D01*
X14915033Y11385797D01*
X14842046Y11161169D01*
X14830284Y11086902D01*
X14815687Y11056111D01*
X14801524Y11025097D01*
X14800749Y11024600D01*
X14800355Y11023767D01*
X14771416Y11005749D01*
X14742746Y10987323D01*
X14741548Y10987151D01*
X14741043Y10986836D01*
X14707811Y10982300D01*
X14583857Y10982300D01*
X14516818Y11001985D01*
X14471063Y11054789D01*
X14461119Y11123947D01*
X14465924Y11144611D01*
X14519153Y11308432D01*
X14531406Y11385792D01*
X14556100Y11541703D01*
X14556100Y11777898D01*
X14519153Y12011169D01*
X14446166Y12235797D01*
X14349378Y12425753D01*
X14338943Y12446233D01*
X14200117Y12637310D01*
X14033110Y12804317D01*
X13842033Y12943143D01*
X13631596Y13050367D01*
X13406968Y13123354D01*
X13173697Y13160300D01*
X13173692Y13160300D01*
X12937508Y13160300D01*
X12937503Y13160300D01*
X12704231Y13123354D01*
X12479603Y13050367D01*
X12269166Y12943143D01*
X12160150Y12863938D01*
X12078090Y12804317D01*
X12078088Y12804315D01*
X12078087Y12804315D01*
X11911085Y12637313D01*
X11911085Y12637312D01*
X11911083Y12637310D01*
X11851462Y12555250D01*
X11772257Y12446234D01*
X11665033Y12235797D01*
X11592046Y12011169D01*
X11555100Y11777898D01*
X11555100Y11541703D01*
X11592046Y11308432D01*
X11618448Y11227178D01*
X11645274Y11144617D01*
X11646077Y11116498D01*
X11650081Y11088653D01*
X11647061Y11082042D01*
X11647269Y11074778D01*
X11632744Y11050692D01*
X11621056Y11025097D01*
X11614941Y11021168D01*
X11611189Y11014945D01*
X11585945Y11002533D01*
X11562278Y10987323D01*
X11552008Y10985847D01*
X11548489Y10984116D01*
X11527343Y10982300D01*
X11403389Y10982300D01*
X11336350Y11001985D01*
X11290595Y11054789D01*
X11280916Y11086902D01*
X11269153Y11161169D01*
X11196166Y11385797D01*
X11088942Y11596234D01*
X10950117Y11787310D01*
X10783110Y11954317D01*
X10592033Y12093143D01*
X10381596Y12200367D01*
X10156968Y12273354D01*
X9923697Y12310300D01*
X9923692Y12310300D01*
X9687508Y12310300D01*
X9687503Y12310300D01*
X9454231Y12273354D01*
X9229603Y12200367D01*
X9019166Y12093143D01*
X8910150Y12013938D01*
X8828090Y11954317D01*
X8828088Y11954315D01*
X8828087Y11954315D01*
X8661085Y11787313D01*
X8661085Y11787312D01*
X8661083Y11787310D01*
X8601462Y11705250D01*
X8522257Y11596234D01*
X8415033Y11385797D01*
X8342046Y11161169D01*
X8305100Y10927898D01*
X490500Y10927898D01*
X490500Y20453989D01*
X8260800Y20453989D01*
X8260800Y20211412D01*
X8292461Y19970915D01*
X8355247Y19736596D01*
X8448073Y19512495D01*
X8448076Y19512488D01*
X8569364Y19302411D01*
X8569366Y19302408D01*
X8569367Y19302407D01*
X8717033Y19109964D01*
X8717039Y19109957D01*
X8888556Y18938440D01*
X8888562Y18938435D01*
X9081011Y18790764D01*
X9291088Y18669476D01*
X9515200Y18576646D01*
X9749511Y18513862D01*
X9929886Y18490116D01*
X9990011Y18482200D01*
X9990012Y18482200D01*
X10232589Y18482200D01*
X10280688Y18488533D01*
X10473089Y18513862D01*
X10707400Y18576646D01*
X10931512Y18669476D01*
X11141589Y18790764D01*
X11334038Y18938435D01*
X11505565Y19109962D01*
X11653236Y19302411D01*
X11774524Y19512488D01*
X11867354Y19736600D01*
X11930138Y19970911D01*
X11961800Y20211412D01*
X11961800Y20453988D01*
X11930138Y20694489D01*
X11867354Y20928800D01*
X11774524Y21152912D01*
X11653236Y21362989D01*
X11505565Y21555438D01*
X11505560Y21555444D01*
X11334043Y21726961D01*
X11334036Y21726967D01*
X11141593Y21874633D01*
X11141592Y21874634D01*
X11141589Y21874636D01*
X10931512Y21995924D01*
X10931505Y21995927D01*
X10707404Y22088753D01*
X10473085Y22151539D01*
X10232589Y22183200D01*
X10232588Y22183200D01*
X9990012Y22183200D01*
X9990011Y22183200D01*
X9749514Y22151539D01*
X9515195Y22088753D01*
X9291094Y21995927D01*
X9291085Y21995923D01*
X9081006Y21874633D01*
X8888563Y21726967D01*
X8888556Y21726961D01*
X8717039Y21555444D01*
X8717033Y21555437D01*
X8569367Y21362994D01*
X8448077Y21152915D01*
X8448073Y21152906D01*
X8355247Y20928805D01*
X8292461Y20694486D01*
X8260800Y20453989D01*
X490500Y20453989D01*
X490500Y66700798D01*
X8360800Y66700798D01*
X8360800Y66464603D01*
X8397746Y66231332D01*
X8470733Y66006704D01*
X8577957Y65796267D01*
X8716783Y65605190D01*
X8883790Y65438183D01*
X9074867Y65299357D01*
X9174291Y65248698D01*
X9285303Y65192134D01*
X9285305Y65192134D01*
X9285308Y65192132D01*
X9405712Y65153011D01*
X9509931Y65119147D01*
X9743203Y65082200D01*
X9743208Y65082200D01*
X9979397Y65082200D01*
X10212668Y65119147D01*
X10437292Y65192132D01*
X10647733Y65299357D01*
X10821653Y65425719D01*
X10887460Y65449198D01*
X10894539Y65449400D01*
X15328061Y65449400D01*
X15395100Y65429715D01*
X15400939Y65425724D01*
X15574867Y65299357D01*
X15674291Y65248698D01*
X15785303Y65192134D01*
X15785305Y65192134D01*
X15785308Y65192132D01*
X15905712Y65153011D01*
X16009931Y65119147D01*
X16243203Y65082200D01*
X16243208Y65082200D01*
X16479397Y65082200D01*
X16712668Y65119147D01*
X16937292Y65192132D01*
X17147733Y65299357D01*
X17338810Y65438183D01*
X17505817Y65605190D01*
X17644643Y65796267D01*
X17751868Y66006708D01*
X17824853Y66231332D01*
X17861800Y66464603D01*
X17861800Y66700798D01*
X17824853Y66934069D01*
X17751866Y67158697D01*
X17644642Y67369134D01*
X17505817Y67560210D01*
X17338810Y67727217D01*
X17147733Y67866043D01*
X16937296Y67973267D01*
X16712668Y68046254D01*
X16479397Y68083200D01*
X16479392Y68083200D01*
X16243208Y68083200D01*
X16243203Y68083200D01*
X16009931Y68046254D01*
X15785303Y67973267D01*
X15574866Y67866043D01*
X15465850Y67786838D01*
X15383790Y67727217D01*
X15383788Y67727215D01*
X15383787Y67727215D01*
X15216785Y67560213D01*
X15216785Y67560212D01*
X15216783Y67560210D01*
X15166088Y67490434D01*
X15077957Y67369134D01*
X14970733Y67158697D01*
X14897746Y66934069D01*
X14885984Y66859802D01*
X14871387Y66829011D01*
X14857224Y66797997D01*
X14856449Y66797500D01*
X14856055Y66796667D01*
X14827116Y66778649D01*
X14798446Y66760223D01*
X14797248Y66760051D01*
X14796743Y66759736D01*
X14763511Y66755200D01*
X14639557Y66755200D01*
X14572518Y66774885D01*
X14526763Y66827689D01*
X14516819Y66896847D01*
X14521624Y66917511D01*
X14574853Y67081332D01*
X14587106Y67158692D01*
X14611800Y67314603D01*
X14611800Y67550798D01*
X14574853Y67784069D01*
X14513378Y67973268D01*
X14501868Y68008692D01*
X14501866Y68008695D01*
X14501866Y68008697D01*
X14420924Y68167554D01*
X14394643Y68219133D01*
X14255817Y68410210D01*
X14088810Y68577217D01*
X13897733Y68716043D01*
X13687296Y68823267D01*
X13462668Y68896254D01*
X13229397Y68933200D01*
X13229392Y68933200D01*
X12993208Y68933200D01*
X12993203Y68933200D01*
X12759931Y68896254D01*
X12535303Y68823267D01*
X12324866Y68716043D01*
X12217863Y68638300D01*
X12133790Y68577217D01*
X12133788Y68577215D01*
X12133787Y68577215D01*
X11966785Y68410213D01*
X11966785Y68410212D01*
X11966783Y68410210D01*
X11916088Y68340434D01*
X11827957Y68219134D01*
X11720733Y68008697D01*
X11647746Y67784069D01*
X11610800Y67550798D01*
X11610800Y67314603D01*
X11647746Y67081332D01*
X11675667Y66995402D01*
X11700974Y66917517D01*
X11701777Y66889398D01*
X11705781Y66861553D01*
X11702761Y66854942D01*
X11702969Y66847678D01*
X11688444Y66823592D01*
X11676756Y66797997D01*
X11670641Y66794068D01*
X11666889Y66787845D01*
X11641645Y66775433D01*
X11617978Y66760223D01*
X11607708Y66758747D01*
X11604189Y66757016D01*
X11583043Y66755200D01*
X11459089Y66755200D01*
X11392050Y66774885D01*
X11346295Y66827689D01*
X11336616Y66859802D01*
X11324853Y66934069D01*
X11251866Y67158697D01*
X11144642Y67369134D01*
X11005817Y67560210D01*
X10838810Y67727217D01*
X10647733Y67866043D01*
X10437296Y67973267D01*
X10212668Y68046254D01*
X9979397Y68083200D01*
X9979392Y68083200D01*
X9743208Y68083200D01*
X9743203Y68083200D01*
X9509931Y68046254D01*
X9285303Y67973267D01*
X9074866Y67866043D01*
X8965850Y67786838D01*
X8883790Y67727217D01*
X8883788Y67727215D01*
X8883787Y67727215D01*
X8716785Y67560213D01*
X8716785Y67560212D01*
X8716783Y67560210D01*
X8666088Y67490434D01*
X8577957Y67369134D01*
X8470733Y67158697D01*
X8397746Y66934069D01*
X8360800Y66700798D01*
X490500Y66700798D01*
X490500Y79353989D01*
X8260800Y79353989D01*
X8260800Y79111412D01*
X8292461Y78870915D01*
X8355247Y78636596D01*
X8448073Y78412495D01*
X8448076Y78412488D01*
X8569364Y78202411D01*
X8569366Y78202408D01*
X8569367Y78202407D01*
X8717033Y78009964D01*
X8717039Y78009957D01*
X8888556Y77838440D01*
X8888562Y77838435D01*
X9081011Y77690764D01*
X9291088Y77569476D01*
X9515200Y77476646D01*
X9749511Y77413862D01*
X9929886Y77390116D01*
X9990011Y77382200D01*
X9990012Y77382200D01*
X10232589Y77382200D01*
X10280688Y77388533D01*
X10473089Y77413862D01*
X10707400Y77476646D01*
X10931512Y77569476D01*
X11141589Y77690764D01*
X11187299Y77725840D01*
X11221801Y77752312D01*
X11285533Y77801216D01*
X11334038Y77838435D01*
X11505565Y78009962D01*
X11653236Y78202411D01*
X11774524Y78412488D01*
X11867354Y78636600D01*
X11930138Y78870911D01*
X11961800Y79111412D01*
X11961800Y79353988D01*
X11930138Y79594489D01*
X11867354Y79828800D01*
X11774524Y80052912D01*
X11653236Y80262989D01*
X11505565Y80455438D01*
X11505560Y80455444D01*
X11334043Y80626961D01*
X11334036Y80626967D01*
X11141593Y80774633D01*
X11141592Y80774634D01*
X11141589Y80774636D01*
X10931512Y80895924D01*
X10931505Y80895927D01*
X10707404Y80988753D01*
X10473085Y81051539D01*
X10232589Y81083200D01*
X10232588Y81083200D01*
X9990012Y81083200D01*
X9990011Y81083200D01*
X9749514Y81051539D01*
X9515195Y80988753D01*
X9291094Y80895927D01*
X9291085Y80895923D01*
X9081006Y80774633D01*
X8888563Y80626967D01*
X8888556Y80626961D01*
X8717039Y80455444D01*
X8717033Y80455437D01*
X8569367Y80262994D01*
X8448077Y80052915D01*
X8448073Y80052906D01*
X8355247Y79828805D01*
X8292461Y79594486D01*
X8260800Y79353989D01*
X490500Y79353989D01*
X490500Y99329500D01*
X510185Y99396539D01*
X562989Y99442294D01*
X614500Y99453500D01*
X99365500Y99453500D01*
X99432539Y99433815D01*
G37*
%TD.AperFunction*%
%TA.AperFunction,Conductor*%
G36*
X36827266Y1001086D02*
G01*
X36828747Y1001203D01*
X36880900Y1041420D01*
X36950514Y1047400D01*
X37012309Y1014794D01*
X37026208Y998754D01*
X37107952Y886241D01*
X37263840Y730353D01*
X37334773Y678818D01*
X37377439Y623489D01*
X37383418Y553875D01*
X37350813Y492080D01*
X37289974Y457723D01*
X37261888Y454500D01*
X36589659Y454500D01*
X36522620Y474185D01*
X36476865Y526989D01*
X36466921Y596147D01*
X36470242Y603420D01*
X36473714Y647534D01*
X35805609Y1315638D01*
X35869193Y1332675D01*
X35983207Y1398501D01*
X36076299Y1491593D01*
X36142125Y1605607D01*
X36159162Y1669190D01*
X36827266Y1001086D01*
G37*
%TD.AperFunction*%
%TA.AperFunction,Conductor*%
G36*
X60906466Y1001086D02*
G01*
X60907947Y1001203D01*
X60960100Y1041420D01*
X61029714Y1047400D01*
X61091509Y1014794D01*
X61105408Y998754D01*
X61187152Y886241D01*
X61343040Y730353D01*
X61413973Y678818D01*
X61456639Y623489D01*
X61462618Y553875D01*
X61430013Y492080D01*
X61369174Y457723D01*
X61341088Y454500D01*
X60668859Y454500D01*
X60601820Y474185D01*
X60556065Y526989D01*
X60546121Y596147D01*
X60549442Y603420D01*
X60552914Y647534D01*
X59884809Y1315638D01*
X59948393Y1332675D01*
X60062407Y1398501D01*
X60155499Y1491593D01*
X60221325Y1605607D01*
X60238362Y1669190D01*
X60906466Y1001086D01*
G37*
%TD.AperFunction*%
%TD*%
D23*
X-10000Y99954000D02*
X99990000Y99954000D01*
X99990000Y-46000D01*
X-10000Y-46000D01*
X-10000Y99954000D01*
M02*
