M48
; DRILL file {KiCad 9.0.4} date 2025-09-27T19:36:53+0200
; FORMAT={-:-/ absolute / metric / decimal}
; #@! TF.CreationDate,2025-09-27T19:36:53+02:00
; #@! TF.GenerationSoftware,Kicad,Pcbnew,9.0.4
; #@! TF.FileFunction,NonPlated,1,2,NPTH
FMAT,2
METRIC
; #@! TA.AperFunction,NonPlated,NPTH,ComponentDrill
T1C2.200
; #@! TA.AperFunction,NonPlated,NPTH,ComponentDrill
T2C3.200
%
G90
G05
T1
X33.711Y93.333
X33.711Y64.283
X33.711Y35.283
X33.776Y8.799
X42.511Y93.333
X42.511Y64.283
X42.511Y35.283
X42.576Y8.799
X57.59Y93.304
X57.69Y64.304
X57.69Y35.304
X57.855Y8.799
X66.39Y93.304
X66.49Y64.304
X66.49Y35.304
X66.655Y8.799
T2
X10.111Y79.233
X10.111Y20.333
X89.99Y79.233
X89.99Y20.333
M30
