M48
; DRILL file {KiCad 8.0.2} date 2024-08-18T23:54:31+0200
; FORMAT={-:-/ absolute / metric / decimal}
; #@! TF.CreationDate,2024-08-18T23:54:31+02:00
; #@! TF.GenerationSoftware,Kicad,Pcbnew,8.0.2
; #@! TF.FileFunction,Plated,1,2,PTH
FMAT,2
METRIC
; #@! TA.AperFunction,Plated,PTH,ViaDrill
T1C0.300
; #@! TA.AperFunction,Plated,PTH,ComponentDrill
T2C1.000
; #@! TA.AperFunction,Plated,PTH,ComponentDrill
T3C1.100
%
G90
G05
T1
X-9.5Y-2.5
X-9.0Y-6.0
X-8.0Y-3.5
X-7.5Y-21.5
X-6.0Y-50.0
X13.5Y1.5
X14.0Y-9.5
T2
X-21.525Y2.335
X-21.525Y-0.205
X-21.525Y-2.745
X-21.525Y-5.285
X-21.525Y-7.825
X-12.0Y45.6
X-12.0Y39.4
X-12.0Y16.6
X-12.0Y10.4
X-12.0Y-12.4
X-12.0Y-18.6
X-12.0Y-41.4
X-12.0Y-47.6
X10.5Y35.5
X10.5Y6.45
X10.5Y-22.55
X10.5Y-51.55
X13.0Y35.5
X13.0Y6.45
X13.0Y-22.55
X13.0Y-51.55
X15.5Y35.5
X15.5Y6.45
X15.5Y-22.55
X15.5Y-51.55
X19.525Y3.05
X19.525Y0.51
X19.525Y-2.03
X19.525Y-4.57
X19.525Y-7.11
T3
X-15.25Y44.75
X-15.25Y40.25
X-15.25Y15.75
X-15.25Y11.25
X-15.25Y-13.25
X-15.25Y-17.75
X-15.25Y-42.25
X-15.25Y-46.75
X-8.75Y44.75
X-8.75Y40.25
X-8.75Y15.75
X-8.75Y11.25
X-8.75Y-13.25
X-8.75Y-17.75
X-8.75Y-42.25
X-8.75Y-46.75
M30
