%TF.GenerationSoftware,KiCad,Pcbnew,9.0.4*%
%TF.CreationDate,2025-09-27T19:36:48+02:00*%
%TF.ProjectId,FX-Pots,46582d50-6f74-4732-9e6b-696361645f70,rev?*%
%TF.SameCoordinates,PX4c4db10PY8578750*%
%TF.FileFunction,Legend,Bot*%
%TF.FilePolarity,Positive*%
%FSLAX46Y46*%
G04 Gerber Fmt 4.6, Leading zero omitted, Abs format (unit mm)*
G04 Created by KiCad (PCBNEW 9.0.4) date 2025-09-27 19:36:48*
%MOMM*%
%LPD*%
G01*
G04 APERTURE LIST*
%ADD10C,0.125000*%
%ADD11C,0.150000*%
%ADD12C,0.120000*%
%TA.AperFunction,Profile*%
%ADD13C,0.050000*%
%TD*%
G04 APERTURE END LIST*
D10*
X73178906Y31409860D02*
X73131287Y31505098D01*
X73131287Y31505098D02*
X73131287Y31647955D01*
X73131287Y31647955D02*
X73178906Y31790812D01*
X73178906Y31790812D02*
X73274144Y31886050D01*
X73274144Y31886050D02*
X73369382Y31933669D01*
X73369382Y31933669D02*
X73559858Y31981288D01*
X73559858Y31981288D02*
X73702715Y31981288D01*
X73702715Y31981288D02*
X73893191Y31933669D01*
X73893191Y31933669D02*
X73988429Y31886050D01*
X73988429Y31886050D02*
X74083668Y31790812D01*
X74083668Y31790812D02*
X74131287Y31647955D01*
X74131287Y31647955D02*
X74131287Y31552717D01*
X74131287Y31552717D02*
X74083668Y31409860D01*
X74083668Y31409860D02*
X74036048Y31362241D01*
X74036048Y31362241D02*
X73702715Y31362241D01*
X73702715Y31362241D02*
X73702715Y31552717D01*
X74131287Y30933669D02*
X73131287Y30933669D01*
X73131287Y30933669D02*
X74131287Y30362241D01*
X74131287Y30362241D02*
X73131287Y30362241D01*
X74131287Y29886050D02*
X73131287Y29886050D01*
X73131287Y29886050D02*
X73131287Y29647955D01*
X73131287Y29647955D02*
X73178906Y29505098D01*
X73178906Y29505098D02*
X73274144Y29409860D01*
X73274144Y29409860D02*
X73369382Y29362241D01*
X73369382Y29362241D02*
X73559858Y29314622D01*
X73559858Y29314622D02*
X73702715Y29314622D01*
X73702715Y29314622D02*
X73893191Y29362241D01*
X73893191Y29362241D02*
X73988429Y29409860D01*
X73988429Y29409860D02*
X74083668Y29505098D01*
X74083668Y29505098D02*
X74131287Y29647955D01*
X74131287Y29647955D02*
X74131287Y29886050D01*
X74741231Y31457479D02*
X74741231Y31933669D01*
X74741231Y31933669D02*
X75217421Y31981288D01*
X75217421Y31981288D02*
X75169802Y31933669D01*
X75169802Y31933669D02*
X75122183Y31838431D01*
X75122183Y31838431D02*
X75122183Y31600336D01*
X75122183Y31600336D02*
X75169802Y31505098D01*
X75169802Y31505098D02*
X75217421Y31457479D01*
X75217421Y31457479D02*
X75312659Y31409860D01*
X75312659Y31409860D02*
X75550754Y31409860D01*
X75550754Y31409860D02*
X75645992Y31457479D01*
X75645992Y31457479D02*
X75693612Y31505098D01*
X75693612Y31505098D02*
X75741231Y31600336D01*
X75741231Y31600336D02*
X75741231Y31838431D01*
X75741231Y31838431D02*
X75693612Y31933669D01*
X75693612Y31933669D02*
X75645992Y31981288D01*
X74741231Y31124145D02*
X75741231Y30790812D01*
X75741231Y30790812D02*
X74741231Y30457479D01*
X77303556Y31981288D02*
X77351175Y31838431D01*
X77351175Y31838431D02*
X77351175Y31600336D01*
X77351175Y31600336D02*
X77303556Y31505098D01*
X77303556Y31505098D02*
X77255936Y31457479D01*
X77255936Y31457479D02*
X77160698Y31409860D01*
X77160698Y31409860D02*
X77065460Y31409860D01*
X77065460Y31409860D02*
X76970222Y31457479D01*
X76970222Y31457479D02*
X76922603Y31505098D01*
X76922603Y31505098D02*
X76874984Y31600336D01*
X76874984Y31600336D02*
X76827365Y31790812D01*
X76827365Y31790812D02*
X76779746Y31886050D01*
X76779746Y31886050D02*
X76732127Y31933669D01*
X76732127Y31933669D02*
X76636889Y31981288D01*
X76636889Y31981288D02*
X76541651Y31981288D01*
X76541651Y31981288D02*
X76446413Y31933669D01*
X76446413Y31933669D02*
X76398794Y31886050D01*
X76398794Y31886050D02*
X76351175Y31790812D01*
X76351175Y31790812D02*
X76351175Y31552717D01*
X76351175Y31552717D02*
X76398794Y31409860D01*
X77351175Y30981288D02*
X76351175Y30981288D01*
X76351175Y30981288D02*
X76351175Y30743193D01*
X76351175Y30743193D02*
X76398794Y30600336D01*
X76398794Y30600336D02*
X76494032Y30505098D01*
X76494032Y30505098D02*
X76589270Y30457479D01*
X76589270Y30457479D02*
X76779746Y30409860D01*
X76779746Y30409860D02*
X76922603Y30409860D01*
X76922603Y30409860D02*
X77113079Y30457479D01*
X77113079Y30457479D02*
X77208317Y30505098D01*
X77208317Y30505098D02*
X77303556Y30600336D01*
X77303556Y30600336D02*
X77351175Y30743193D01*
X77351175Y30743193D02*
X77351175Y30981288D01*
X77065460Y30028907D02*
X77065460Y29552717D01*
X77351175Y30124145D02*
X76351175Y29790812D01*
X76351175Y29790812D02*
X77351175Y29457479D01*
X78913500Y31981288D02*
X78961119Y31838431D01*
X78961119Y31838431D02*
X78961119Y31600336D01*
X78961119Y31600336D02*
X78913500Y31505098D01*
X78913500Y31505098D02*
X78865880Y31457479D01*
X78865880Y31457479D02*
X78770642Y31409860D01*
X78770642Y31409860D02*
X78675404Y31409860D01*
X78675404Y31409860D02*
X78580166Y31457479D01*
X78580166Y31457479D02*
X78532547Y31505098D01*
X78532547Y31505098D02*
X78484928Y31600336D01*
X78484928Y31600336D02*
X78437309Y31790812D01*
X78437309Y31790812D02*
X78389690Y31886050D01*
X78389690Y31886050D02*
X78342071Y31933669D01*
X78342071Y31933669D02*
X78246833Y31981288D01*
X78246833Y31981288D02*
X78151595Y31981288D01*
X78151595Y31981288D02*
X78056357Y31933669D01*
X78056357Y31933669D02*
X78008738Y31886050D01*
X78008738Y31886050D02*
X77961119Y31790812D01*
X77961119Y31790812D02*
X77961119Y31552717D01*
X77961119Y31552717D02*
X78008738Y31409860D01*
X78865880Y30409860D02*
X78913500Y30457479D01*
X78913500Y30457479D02*
X78961119Y30600336D01*
X78961119Y30600336D02*
X78961119Y30695574D01*
X78961119Y30695574D02*
X78913500Y30838431D01*
X78913500Y30838431D02*
X78818261Y30933669D01*
X78818261Y30933669D02*
X78723023Y30981288D01*
X78723023Y30981288D02*
X78532547Y31028907D01*
X78532547Y31028907D02*
X78389690Y31028907D01*
X78389690Y31028907D02*
X78199214Y30981288D01*
X78199214Y30981288D02*
X78103976Y30933669D01*
X78103976Y30933669D02*
X78008738Y30838431D01*
X78008738Y30838431D02*
X77961119Y30695574D01*
X77961119Y30695574D02*
X77961119Y30600336D01*
X77961119Y30600336D02*
X78008738Y30457479D01*
X78008738Y30457479D02*
X78056357Y30409860D01*
X78961119Y29505098D02*
X78961119Y29981288D01*
X78961119Y29981288D02*
X77961119Y29981288D01*
X22478906Y69609860D02*
X22431287Y69705098D01*
X22431287Y69705098D02*
X22431287Y69847955D01*
X22431287Y69847955D02*
X22478906Y69990812D01*
X22478906Y69990812D02*
X22574144Y70086050D01*
X22574144Y70086050D02*
X22669382Y70133669D01*
X22669382Y70133669D02*
X22859858Y70181288D01*
X22859858Y70181288D02*
X23002715Y70181288D01*
X23002715Y70181288D02*
X23193191Y70133669D01*
X23193191Y70133669D02*
X23288429Y70086050D01*
X23288429Y70086050D02*
X23383668Y69990812D01*
X23383668Y69990812D02*
X23431287Y69847955D01*
X23431287Y69847955D02*
X23431287Y69752717D01*
X23431287Y69752717D02*
X23383668Y69609860D01*
X23383668Y69609860D02*
X23336048Y69562241D01*
X23336048Y69562241D02*
X23002715Y69562241D01*
X23002715Y69562241D02*
X23002715Y69752717D01*
X23431287Y69133669D02*
X22431287Y69133669D01*
X22431287Y69133669D02*
X23431287Y68562241D01*
X23431287Y68562241D02*
X22431287Y68562241D01*
X23431287Y68086050D02*
X22431287Y68086050D01*
X22431287Y68086050D02*
X22431287Y67847955D01*
X22431287Y67847955D02*
X22478906Y67705098D01*
X22478906Y67705098D02*
X22574144Y67609860D01*
X22574144Y67609860D02*
X22669382Y67562241D01*
X22669382Y67562241D02*
X22859858Y67514622D01*
X22859858Y67514622D02*
X23002715Y67514622D01*
X23002715Y67514622D02*
X23193191Y67562241D01*
X23193191Y67562241D02*
X23288429Y67609860D01*
X23288429Y67609860D02*
X23383668Y67705098D01*
X23383668Y67705098D02*
X23431287Y67847955D01*
X23431287Y67847955D02*
X23431287Y68086050D01*
X24041231Y69657479D02*
X24041231Y70133669D01*
X24041231Y70133669D02*
X24517421Y70181288D01*
X24517421Y70181288D02*
X24469802Y70133669D01*
X24469802Y70133669D02*
X24422183Y70038431D01*
X24422183Y70038431D02*
X24422183Y69800336D01*
X24422183Y69800336D02*
X24469802Y69705098D01*
X24469802Y69705098D02*
X24517421Y69657479D01*
X24517421Y69657479D02*
X24612659Y69609860D01*
X24612659Y69609860D02*
X24850754Y69609860D01*
X24850754Y69609860D02*
X24945992Y69657479D01*
X24945992Y69657479D02*
X24993612Y69705098D01*
X24993612Y69705098D02*
X25041231Y69800336D01*
X25041231Y69800336D02*
X25041231Y70038431D01*
X25041231Y70038431D02*
X24993612Y70133669D01*
X24993612Y70133669D02*
X24945992Y70181288D01*
X24041231Y69324145D02*
X25041231Y68990812D01*
X25041231Y68990812D02*
X24041231Y68657479D01*
X26603556Y70181288D02*
X26651175Y70038431D01*
X26651175Y70038431D02*
X26651175Y69800336D01*
X26651175Y69800336D02*
X26603556Y69705098D01*
X26603556Y69705098D02*
X26555936Y69657479D01*
X26555936Y69657479D02*
X26460698Y69609860D01*
X26460698Y69609860D02*
X26365460Y69609860D01*
X26365460Y69609860D02*
X26270222Y69657479D01*
X26270222Y69657479D02*
X26222603Y69705098D01*
X26222603Y69705098D02*
X26174984Y69800336D01*
X26174984Y69800336D02*
X26127365Y69990812D01*
X26127365Y69990812D02*
X26079746Y70086050D01*
X26079746Y70086050D02*
X26032127Y70133669D01*
X26032127Y70133669D02*
X25936889Y70181288D01*
X25936889Y70181288D02*
X25841651Y70181288D01*
X25841651Y70181288D02*
X25746413Y70133669D01*
X25746413Y70133669D02*
X25698794Y70086050D01*
X25698794Y70086050D02*
X25651175Y69990812D01*
X25651175Y69990812D02*
X25651175Y69752717D01*
X25651175Y69752717D02*
X25698794Y69609860D01*
X26651175Y69181288D02*
X25651175Y69181288D01*
X25651175Y69181288D02*
X25651175Y68943193D01*
X25651175Y68943193D02*
X25698794Y68800336D01*
X25698794Y68800336D02*
X25794032Y68705098D01*
X25794032Y68705098D02*
X25889270Y68657479D01*
X25889270Y68657479D02*
X26079746Y68609860D01*
X26079746Y68609860D02*
X26222603Y68609860D01*
X26222603Y68609860D02*
X26413079Y68657479D01*
X26413079Y68657479D02*
X26508317Y68705098D01*
X26508317Y68705098D02*
X26603556Y68800336D01*
X26603556Y68800336D02*
X26651175Y68943193D01*
X26651175Y68943193D02*
X26651175Y69181288D01*
X26365460Y68228907D02*
X26365460Y67752717D01*
X26651175Y68324145D02*
X25651175Y67990812D01*
X25651175Y67990812D02*
X26651175Y67657479D01*
X28213500Y70181288D02*
X28261119Y70038431D01*
X28261119Y70038431D02*
X28261119Y69800336D01*
X28261119Y69800336D02*
X28213500Y69705098D01*
X28213500Y69705098D02*
X28165880Y69657479D01*
X28165880Y69657479D02*
X28070642Y69609860D01*
X28070642Y69609860D02*
X27975404Y69609860D01*
X27975404Y69609860D02*
X27880166Y69657479D01*
X27880166Y69657479D02*
X27832547Y69705098D01*
X27832547Y69705098D02*
X27784928Y69800336D01*
X27784928Y69800336D02*
X27737309Y69990812D01*
X27737309Y69990812D02*
X27689690Y70086050D01*
X27689690Y70086050D02*
X27642071Y70133669D01*
X27642071Y70133669D02*
X27546833Y70181288D01*
X27546833Y70181288D02*
X27451595Y70181288D01*
X27451595Y70181288D02*
X27356357Y70133669D01*
X27356357Y70133669D02*
X27308738Y70086050D01*
X27308738Y70086050D02*
X27261119Y69990812D01*
X27261119Y69990812D02*
X27261119Y69752717D01*
X27261119Y69752717D02*
X27308738Y69609860D01*
X28165880Y68609860D02*
X28213500Y68657479D01*
X28213500Y68657479D02*
X28261119Y68800336D01*
X28261119Y68800336D02*
X28261119Y68895574D01*
X28261119Y68895574D02*
X28213500Y69038431D01*
X28213500Y69038431D02*
X28118261Y69133669D01*
X28118261Y69133669D02*
X28023023Y69181288D01*
X28023023Y69181288D02*
X27832547Y69228907D01*
X27832547Y69228907D02*
X27689690Y69228907D01*
X27689690Y69228907D02*
X27499214Y69181288D01*
X27499214Y69181288D02*
X27403976Y69133669D01*
X27403976Y69133669D02*
X27308738Y69038431D01*
X27308738Y69038431D02*
X27261119Y68895574D01*
X27261119Y68895574D02*
X27261119Y68800336D01*
X27261119Y68800336D02*
X27308738Y68657479D01*
X27308738Y68657479D02*
X27356357Y68609860D01*
X28261119Y67705098D02*
X28261119Y68181288D01*
X28261119Y68181288D02*
X27261119Y68181288D01*
D11*
X75029580Y58620667D02*
X75077200Y58668286D01*
X75077200Y58668286D02*
X75124819Y58811143D01*
X75124819Y58811143D02*
X75124819Y58906381D01*
X75124819Y58906381D02*
X75077200Y59049238D01*
X75077200Y59049238D02*
X74981961Y59144476D01*
X74981961Y59144476D02*
X74886723Y59192095D01*
X74886723Y59192095D02*
X74696247Y59239714D01*
X74696247Y59239714D02*
X74553390Y59239714D01*
X74553390Y59239714D02*
X74362914Y59192095D01*
X74362914Y59192095D02*
X74267676Y59144476D01*
X74267676Y59144476D02*
X74172438Y59049238D01*
X74172438Y59049238D02*
X74124819Y58906381D01*
X74124819Y58906381D02*
X74124819Y58811143D01*
X74124819Y58811143D02*
X74172438Y58668286D01*
X74172438Y58668286D02*
X74220057Y58620667D01*
X74220057Y58239714D02*
X74172438Y58192095D01*
X74172438Y58192095D02*
X74124819Y58096857D01*
X74124819Y58096857D02*
X74124819Y57858762D01*
X74124819Y57858762D02*
X74172438Y57763524D01*
X74172438Y57763524D02*
X74220057Y57715905D01*
X74220057Y57715905D02*
X74315295Y57668286D01*
X74315295Y57668286D02*
X74410533Y57668286D01*
X74410533Y57668286D02*
X74553390Y57715905D01*
X74553390Y57715905D02*
X75124819Y58287333D01*
X75124819Y58287333D02*
X75124819Y57668286D01*
X59666094Y42018181D02*
X59666094Y43018181D01*
X59666094Y43018181D02*
X59427999Y43018181D01*
X59427999Y43018181D02*
X59285142Y42970562D01*
X59285142Y42970562D02*
X59189904Y42875324D01*
X59189904Y42875324D02*
X59142285Y42780086D01*
X59142285Y42780086D02*
X59094666Y42589610D01*
X59094666Y42589610D02*
X59094666Y42446753D01*
X59094666Y42446753D02*
X59142285Y42256277D01*
X59142285Y42256277D02*
X59189904Y42161039D01*
X59189904Y42161039D02*
X59285142Y42065800D01*
X59285142Y42065800D02*
X59427999Y42018181D01*
X59427999Y42018181D02*
X59666094Y42018181D01*
X58142285Y42018181D02*
X58713713Y42018181D01*
X58427999Y42018181D02*
X58427999Y43018181D01*
X58427999Y43018181D02*
X58523237Y42875324D01*
X58523237Y42875324D02*
X58618475Y42780086D01*
X58618475Y42780086D02*
X58713713Y42732467D01*
X71156666Y27108420D02*
X71204285Y27060800D01*
X71204285Y27060800D02*
X71347142Y27013181D01*
X71347142Y27013181D02*
X71442380Y27013181D01*
X71442380Y27013181D02*
X71585237Y27060800D01*
X71585237Y27060800D02*
X71680475Y27156039D01*
X71680475Y27156039D02*
X71728094Y27251277D01*
X71728094Y27251277D02*
X71775713Y27441753D01*
X71775713Y27441753D02*
X71775713Y27584610D01*
X71775713Y27584610D02*
X71728094Y27775086D01*
X71728094Y27775086D02*
X71680475Y27870324D01*
X71680475Y27870324D02*
X71585237Y27965562D01*
X71585237Y27965562D02*
X71442380Y28013181D01*
X71442380Y28013181D02*
X71347142Y28013181D01*
X71347142Y28013181D02*
X71204285Y27965562D01*
X71204285Y27965562D02*
X71156666Y27917943D01*
X70823332Y28013181D02*
X70204285Y28013181D01*
X70204285Y28013181D02*
X70537618Y27632229D01*
X70537618Y27632229D02*
X70394761Y27632229D01*
X70394761Y27632229D02*
X70299523Y27584610D01*
X70299523Y27584610D02*
X70251904Y27536991D01*
X70251904Y27536991D02*
X70204285Y27441753D01*
X70204285Y27441753D02*
X70204285Y27203658D01*
X70204285Y27203658D02*
X70251904Y27108420D01*
X70251904Y27108420D02*
X70299523Y27060800D01*
X70299523Y27060800D02*
X70394761Y27013181D01*
X70394761Y27013181D02*
X70680475Y27013181D01*
X70680475Y27013181D02*
X70775713Y27060800D01*
X70775713Y27060800D02*
X70823332Y27108420D01*
X43622819Y50236334D02*
X44337104Y50236334D01*
X44337104Y50236334D02*
X44479961Y50283953D01*
X44479961Y50283953D02*
X44575200Y50379191D01*
X44575200Y50379191D02*
X44622819Y50522048D01*
X44622819Y50522048D02*
X44622819Y50617286D01*
X44622819Y49760143D02*
X43622819Y49760143D01*
X43622819Y49760143D02*
X43622819Y49379191D01*
X43622819Y49379191D02*
X43670438Y49283953D01*
X43670438Y49283953D02*
X43718057Y49236334D01*
X43718057Y49236334D02*
X43813295Y49188715D01*
X43813295Y49188715D02*
X43956152Y49188715D01*
X43956152Y49188715D02*
X44051390Y49236334D01*
X44051390Y49236334D02*
X44099009Y49283953D01*
X44099009Y49283953D02*
X44146628Y49379191D01*
X44146628Y49379191D02*
X44146628Y49760143D01*
X43718057Y48807762D02*
X43670438Y48760143D01*
X43670438Y48760143D02*
X43622819Y48664905D01*
X43622819Y48664905D02*
X43622819Y48426810D01*
X43622819Y48426810D02*
X43670438Y48331572D01*
X43670438Y48331572D02*
X43718057Y48283953D01*
X43718057Y48283953D02*
X43813295Y48236334D01*
X43813295Y48236334D02*
X43908533Y48236334D01*
X43908533Y48236334D02*
X44051390Y48283953D01*
X44051390Y48283953D02*
X44622819Y48855381D01*
X44622819Y48855381D02*
X44622819Y48236334D01*
X25991780Y56120667D02*
X26039400Y56168286D01*
X26039400Y56168286D02*
X26087019Y56311143D01*
X26087019Y56311143D02*
X26087019Y56406381D01*
X26087019Y56406381D02*
X26039400Y56549238D01*
X26039400Y56549238D02*
X25944161Y56644476D01*
X25944161Y56644476D02*
X25848923Y56692095D01*
X25848923Y56692095D02*
X25658447Y56739714D01*
X25658447Y56739714D02*
X25515590Y56739714D01*
X25515590Y56739714D02*
X25325114Y56692095D01*
X25325114Y56692095D02*
X25229876Y56644476D01*
X25229876Y56644476D02*
X25134638Y56549238D01*
X25134638Y56549238D02*
X25087019Y56406381D01*
X25087019Y56406381D02*
X25087019Y56311143D01*
X25087019Y56311143D02*
X25134638Y56168286D01*
X25134638Y56168286D02*
X25182257Y56120667D01*
X26087019Y55168286D02*
X26087019Y55739714D01*
X26087019Y55454000D02*
X25087019Y55454000D01*
X25087019Y55454000D02*
X25229876Y55549238D01*
X25229876Y55549238D02*
X25325114Y55644476D01*
X25325114Y55644476D02*
X25372733Y55739714D01*
X48962819Y50236334D02*
X49677104Y50236334D01*
X49677104Y50236334D02*
X49819961Y50283953D01*
X49819961Y50283953D02*
X49915200Y50379191D01*
X49915200Y50379191D02*
X49962819Y50522048D01*
X49962819Y50522048D02*
X49962819Y50617286D01*
X49962819Y49760143D02*
X48962819Y49760143D01*
X48962819Y49760143D02*
X48962819Y49379191D01*
X48962819Y49379191D02*
X49010438Y49283953D01*
X49010438Y49283953D02*
X49058057Y49236334D01*
X49058057Y49236334D02*
X49153295Y49188715D01*
X49153295Y49188715D02*
X49296152Y49188715D01*
X49296152Y49188715D02*
X49391390Y49236334D01*
X49391390Y49236334D02*
X49439009Y49283953D01*
X49439009Y49283953D02*
X49486628Y49379191D01*
X49486628Y49379191D02*
X49486628Y49760143D01*
X48962819Y48855381D02*
X48962819Y48236334D01*
X48962819Y48236334D02*
X49343771Y48569667D01*
X49343771Y48569667D02*
X49343771Y48426810D01*
X49343771Y48426810D02*
X49391390Y48331572D01*
X49391390Y48331572D02*
X49439009Y48283953D01*
X49439009Y48283953D02*
X49534247Y48236334D01*
X49534247Y48236334D02*
X49772342Y48236334D01*
X49772342Y48236334D02*
X49867580Y48283953D01*
X49867580Y48283953D02*
X49915200Y48331572D01*
X49915200Y48331572D02*
X49962819Y48426810D01*
X49962819Y48426810D02*
X49962819Y48712524D01*
X49962819Y48712524D02*
X49915200Y48807762D01*
X49915200Y48807762D02*
X49867580Y48855381D01*
X50239819Y45505667D02*
X49763628Y45839000D01*
X50239819Y46077095D02*
X49239819Y46077095D01*
X49239819Y46077095D02*
X49239819Y45696143D01*
X49239819Y45696143D02*
X49287438Y45600905D01*
X49287438Y45600905D02*
X49335057Y45553286D01*
X49335057Y45553286D02*
X49430295Y45505667D01*
X49430295Y45505667D02*
X49573152Y45505667D01*
X49573152Y45505667D02*
X49668390Y45553286D01*
X49668390Y45553286D02*
X49716009Y45600905D01*
X49716009Y45600905D02*
X49763628Y45696143D01*
X49763628Y45696143D02*
X49763628Y46077095D01*
X49239819Y45172333D02*
X49239819Y44553286D01*
X49239819Y44553286D02*
X49620771Y44886619D01*
X49620771Y44886619D02*
X49620771Y44743762D01*
X49620771Y44743762D02*
X49668390Y44648524D01*
X49668390Y44648524D02*
X49716009Y44600905D01*
X49716009Y44600905D02*
X49811247Y44553286D01*
X49811247Y44553286D02*
X50049342Y44553286D01*
X50049342Y44553286D02*
X50144580Y44600905D01*
X50144580Y44600905D02*
X50192200Y44648524D01*
X50192200Y44648524D02*
X50239819Y44743762D01*
X50239819Y44743762D02*
X50239819Y45029476D01*
X50239819Y45029476D02*
X50192200Y45124714D01*
X50192200Y45124714D02*
X50144580Y45172333D01*
X40072819Y50236334D02*
X40787104Y50236334D01*
X40787104Y50236334D02*
X40929961Y50283953D01*
X40929961Y50283953D02*
X41025200Y50379191D01*
X41025200Y50379191D02*
X41072819Y50522048D01*
X41072819Y50522048D02*
X41072819Y50617286D01*
X41072819Y49760143D02*
X40072819Y49760143D01*
X40072819Y49760143D02*
X40072819Y49379191D01*
X40072819Y49379191D02*
X40120438Y49283953D01*
X40120438Y49283953D02*
X40168057Y49236334D01*
X40168057Y49236334D02*
X40263295Y49188715D01*
X40263295Y49188715D02*
X40406152Y49188715D01*
X40406152Y49188715D02*
X40501390Y49236334D01*
X40501390Y49236334D02*
X40549009Y49283953D01*
X40549009Y49283953D02*
X40596628Y49379191D01*
X40596628Y49379191D02*
X40596628Y49760143D01*
X41072819Y48236334D02*
X41072819Y48807762D01*
X41072819Y48522048D02*
X40072819Y48522048D01*
X40072819Y48522048D02*
X40215676Y48617286D01*
X40215676Y48617286D02*
X40310914Y48712524D01*
X40310914Y48712524D02*
X40358533Y48807762D01*
X44651819Y45505667D02*
X44175628Y45839000D01*
X44651819Y46077095D02*
X43651819Y46077095D01*
X43651819Y46077095D02*
X43651819Y45696143D01*
X43651819Y45696143D02*
X43699438Y45600905D01*
X43699438Y45600905D02*
X43747057Y45553286D01*
X43747057Y45553286D02*
X43842295Y45505667D01*
X43842295Y45505667D02*
X43985152Y45505667D01*
X43985152Y45505667D02*
X44080390Y45553286D01*
X44080390Y45553286D02*
X44128009Y45600905D01*
X44128009Y45600905D02*
X44175628Y45696143D01*
X44175628Y45696143D02*
X44175628Y46077095D01*
X43651819Y44648524D02*
X43651819Y44839000D01*
X43651819Y44839000D02*
X43699438Y44934238D01*
X43699438Y44934238D02*
X43747057Y44981857D01*
X43747057Y44981857D02*
X43889914Y45077095D01*
X43889914Y45077095D02*
X44080390Y45124714D01*
X44080390Y45124714D02*
X44461342Y45124714D01*
X44461342Y45124714D02*
X44556580Y45077095D01*
X44556580Y45077095D02*
X44604200Y45029476D01*
X44604200Y45029476D02*
X44651819Y44934238D01*
X44651819Y44934238D02*
X44651819Y44743762D01*
X44651819Y44743762D02*
X44604200Y44648524D01*
X44604200Y44648524D02*
X44556580Y44600905D01*
X44556580Y44600905D02*
X44461342Y44553286D01*
X44461342Y44553286D02*
X44223247Y44553286D01*
X44223247Y44553286D02*
X44128009Y44600905D01*
X44128009Y44600905D02*
X44080390Y44648524D01*
X44080390Y44648524D02*
X44032771Y44743762D01*
X44032771Y44743762D02*
X44032771Y44934238D01*
X44032771Y44934238D02*
X44080390Y45029476D01*
X44080390Y45029476D02*
X44128009Y45077095D01*
X44128009Y45077095D02*
X44223247Y45124714D01*
X18875333Y80301181D02*
X18875333Y79586896D01*
X18875333Y79586896D02*
X18922952Y79444039D01*
X18922952Y79444039D02*
X19018190Y79348800D01*
X19018190Y79348800D02*
X19161047Y79301181D01*
X19161047Y79301181D02*
X19256285Y79301181D01*
X17875333Y79301181D02*
X18446761Y79301181D01*
X18161047Y79301181D02*
X18161047Y80301181D01*
X18161047Y80301181D02*
X18256285Y80158324D01*
X18256285Y80158324D02*
X18351523Y80063086D01*
X18351523Y80063086D02*
X18446761Y80015467D01*
X25949208Y83970981D02*
X25949208Y84970981D01*
X25473018Y83970981D02*
X25473018Y84970981D01*
X25473018Y84970981D02*
X24901590Y83970981D01*
X24901590Y83970981D02*
X24901590Y84970981D01*
X41222819Y45505667D02*
X40746628Y45839000D01*
X41222819Y46077095D02*
X40222819Y46077095D01*
X40222819Y46077095D02*
X40222819Y45696143D01*
X40222819Y45696143D02*
X40270438Y45600905D01*
X40270438Y45600905D02*
X40318057Y45553286D01*
X40318057Y45553286D02*
X40413295Y45505667D01*
X40413295Y45505667D02*
X40556152Y45505667D01*
X40556152Y45505667D02*
X40651390Y45553286D01*
X40651390Y45553286D02*
X40699009Y45600905D01*
X40699009Y45600905D02*
X40746628Y45696143D01*
X40746628Y45696143D02*
X40746628Y46077095D01*
X40222819Y44600905D02*
X40222819Y45077095D01*
X40222819Y45077095D02*
X40699009Y45124714D01*
X40699009Y45124714D02*
X40651390Y45077095D01*
X40651390Y45077095D02*
X40603771Y44981857D01*
X40603771Y44981857D02*
X40603771Y44743762D01*
X40603771Y44743762D02*
X40651390Y44648524D01*
X40651390Y44648524D02*
X40699009Y44600905D01*
X40699009Y44600905D02*
X40794247Y44553286D01*
X40794247Y44553286D02*
X41032342Y44553286D01*
X41032342Y44553286D02*
X41127580Y44600905D01*
X41127580Y44600905D02*
X41175200Y44648524D01*
X41175200Y44648524D02*
X41222819Y44743762D01*
X41222819Y44743762D02*
X41222819Y44981857D01*
X41222819Y44981857D02*
X41175200Y45077095D01*
X41175200Y45077095D02*
X41127580Y45124714D01*
X31188819Y73064667D02*
X30712628Y73398000D01*
X31188819Y73636095D02*
X30188819Y73636095D01*
X30188819Y73636095D02*
X30188819Y73255143D01*
X30188819Y73255143D02*
X30236438Y73159905D01*
X30236438Y73159905D02*
X30284057Y73112286D01*
X30284057Y73112286D02*
X30379295Y73064667D01*
X30379295Y73064667D02*
X30522152Y73064667D01*
X30522152Y73064667D02*
X30617390Y73112286D01*
X30617390Y73112286D02*
X30665009Y73159905D01*
X30665009Y73159905D02*
X30712628Y73255143D01*
X30712628Y73255143D02*
X30712628Y73636095D01*
X30284057Y72683714D02*
X30236438Y72636095D01*
X30236438Y72636095D02*
X30188819Y72540857D01*
X30188819Y72540857D02*
X30188819Y72302762D01*
X30188819Y72302762D02*
X30236438Y72207524D01*
X30236438Y72207524D02*
X30284057Y72159905D01*
X30284057Y72159905D02*
X30379295Y72112286D01*
X30379295Y72112286D02*
X30474533Y72112286D01*
X30474533Y72112286D02*
X30617390Y72159905D01*
X30617390Y72159905D02*
X31188819Y72731333D01*
X31188819Y72731333D02*
X31188819Y72112286D01*
X83323333Y21999181D02*
X83323333Y21284896D01*
X83323333Y21284896D02*
X83370952Y21142039D01*
X83370952Y21142039D02*
X83466190Y21046800D01*
X83466190Y21046800D02*
X83609047Y20999181D01*
X83609047Y20999181D02*
X83704285Y20999181D01*
X82894761Y21903943D02*
X82847142Y21951562D01*
X82847142Y21951562D02*
X82751904Y21999181D01*
X82751904Y21999181D02*
X82513809Y21999181D01*
X82513809Y21999181D02*
X82418571Y21951562D01*
X82418571Y21951562D02*
X82370952Y21903943D01*
X82370952Y21903943D02*
X82323333Y21808705D01*
X82323333Y21808705D02*
X82323333Y21713467D01*
X82323333Y21713467D02*
X82370952Y21570610D01*
X82370952Y21570610D02*
X82942380Y20999181D01*
X82942380Y20999181D02*
X82323333Y20999181D01*
X77276199Y17541581D02*
X77085723Y17541581D01*
X77085723Y17541581D02*
X76990485Y17493962D01*
X76990485Y17493962D02*
X76895247Y17398724D01*
X76895247Y17398724D02*
X76847628Y17208248D01*
X76847628Y17208248D02*
X76847628Y16874915D01*
X76847628Y16874915D02*
X76895247Y16684439D01*
X76895247Y16684439D02*
X76990485Y16589200D01*
X76990485Y16589200D02*
X77085723Y16541581D01*
X77085723Y16541581D02*
X77276199Y16541581D01*
X77276199Y16541581D02*
X77371437Y16589200D01*
X77371437Y16589200D02*
X77466675Y16684439D01*
X77466675Y16684439D02*
X77514294Y16874915D01*
X77514294Y16874915D02*
X77514294Y17208248D01*
X77514294Y17208248D02*
X77466675Y17398724D01*
X77466675Y17398724D02*
X77371437Y17493962D01*
X77371437Y17493962D02*
X77276199Y17541581D01*
X76419056Y17541581D02*
X76419056Y16732058D01*
X76419056Y16732058D02*
X76371437Y16636820D01*
X76371437Y16636820D02*
X76323818Y16589200D01*
X76323818Y16589200D02*
X76228580Y16541581D01*
X76228580Y16541581D02*
X76038104Y16541581D01*
X76038104Y16541581D02*
X75942866Y16589200D01*
X75942866Y16589200D02*
X75895247Y16636820D01*
X75895247Y16636820D02*
X75847628Y16732058D01*
X75847628Y16732058D02*
X75847628Y17541581D01*
X75514294Y17541581D02*
X74942866Y17541581D01*
X75228580Y16541581D02*
X75228580Y17541581D01*
X52512819Y50236334D02*
X53227104Y50236334D01*
X53227104Y50236334D02*
X53369961Y50283953D01*
X53369961Y50283953D02*
X53465200Y50379191D01*
X53465200Y50379191D02*
X53512819Y50522048D01*
X53512819Y50522048D02*
X53512819Y50617286D01*
X53512819Y49760143D02*
X52512819Y49760143D01*
X52512819Y49760143D02*
X52512819Y49379191D01*
X52512819Y49379191D02*
X52560438Y49283953D01*
X52560438Y49283953D02*
X52608057Y49236334D01*
X52608057Y49236334D02*
X52703295Y49188715D01*
X52703295Y49188715D02*
X52846152Y49188715D01*
X52846152Y49188715D02*
X52941390Y49236334D01*
X52941390Y49236334D02*
X52989009Y49283953D01*
X52989009Y49283953D02*
X53036628Y49379191D01*
X53036628Y49379191D02*
X53036628Y49760143D01*
X52846152Y48331572D02*
X53512819Y48331572D01*
X52465200Y48569667D02*
X53179485Y48807762D01*
X53179485Y48807762D02*
X53179485Y48188715D01*
X24330819Y73064667D02*
X23854628Y73398000D01*
X24330819Y73636095D02*
X23330819Y73636095D01*
X23330819Y73636095D02*
X23330819Y73255143D01*
X23330819Y73255143D02*
X23378438Y73159905D01*
X23378438Y73159905D02*
X23426057Y73112286D01*
X23426057Y73112286D02*
X23521295Y73064667D01*
X23521295Y73064667D02*
X23664152Y73064667D01*
X23664152Y73064667D02*
X23759390Y73112286D01*
X23759390Y73112286D02*
X23807009Y73159905D01*
X23807009Y73159905D02*
X23854628Y73255143D01*
X23854628Y73255143D02*
X23854628Y73636095D01*
X24330819Y72112286D02*
X24330819Y72683714D01*
X24330819Y72398000D02*
X23330819Y72398000D01*
X23330819Y72398000D02*
X23473676Y72493238D01*
X23473676Y72493238D02*
X23568914Y72588476D01*
X23568914Y72588476D02*
X23616533Y72683714D01*
X53668819Y45505667D02*
X53192628Y45839000D01*
X53668819Y46077095D02*
X52668819Y46077095D01*
X52668819Y46077095D02*
X52668819Y45696143D01*
X52668819Y45696143D02*
X52716438Y45600905D01*
X52716438Y45600905D02*
X52764057Y45553286D01*
X52764057Y45553286D02*
X52859295Y45505667D01*
X52859295Y45505667D02*
X53002152Y45505667D01*
X53002152Y45505667D02*
X53097390Y45553286D01*
X53097390Y45553286D02*
X53145009Y45600905D01*
X53145009Y45600905D02*
X53192628Y45696143D01*
X53192628Y45696143D02*
X53192628Y46077095D01*
X53002152Y44648524D02*
X53668819Y44648524D01*
X52621200Y44886619D02*
X53335485Y45124714D01*
X53335485Y45124714D02*
X53335485Y44505667D01*
D12*
%TO.C,C2*%
X72255000Y58192748D02*
X72255000Y58715252D01*
X73725000Y58192748D02*
X73725000Y58715252D01*
%TO.C,D1*%
X56918000Y45173000D02*
X60178000Y45173000D01*
X56918000Y43473000D02*
X56918000Y45173000D01*
X56918000Y43473000D02*
X60178000Y43473000D01*
%TO.C,C3*%
X74429252Y28189000D02*
X73906748Y28189000D01*
X74429252Y26719000D02*
X73906748Y26719000D01*
%TO.C,JP2*%
X44968000Y50103000D02*
X44968000Y48703000D01*
X45668000Y48003000D02*
X46268000Y48003000D01*
X46268000Y50803000D02*
X45668000Y50803000D01*
X46968000Y48703000D02*
X46968000Y50103000D01*
X44968000Y50103000D02*
G75*
G02*
X45668000Y50803000I699999J1D01*
G01*
X45668000Y48003000D02*
G75*
G02*
X44968000Y48703000I0J700000D01*
G01*
X46268000Y50803000D02*
G75*
G02*
X46968000Y50103000I1J-699999D01*
G01*
X46968000Y48703000D02*
G75*
G02*
X46268000Y48003000I-700000J0D01*
G01*
%TO.C,C1*%
X23217200Y55692748D02*
X23217200Y56215252D01*
X24687200Y55692748D02*
X24687200Y56215252D01*
%TO.C,JP3*%
X50308000Y50103000D02*
X50308000Y48703000D01*
X51008000Y48003000D02*
X51608000Y48003000D01*
X51608000Y50803000D02*
X51008000Y50803000D01*
X52308000Y48703000D02*
X52308000Y50103000D01*
X50308000Y50103000D02*
G75*
G02*
X51008000Y50803000I699999J1D01*
G01*
X51008000Y48003000D02*
G75*
G02*
X50308000Y48703000I0J700000D01*
G01*
X51608000Y50803000D02*
G75*
G02*
X52308000Y50103000I1J-699999D01*
G01*
X52308000Y48703000D02*
G75*
G02*
X51608000Y48003000I-700000J0D01*
G01*
%TO.C,R3*%
X50700000Y45566064D02*
X50700000Y45111936D01*
X52170000Y45566064D02*
X52170000Y45111936D01*
%TO.C,JP1*%
X41418000Y50103000D02*
X41418000Y48703000D01*
X42118000Y48003000D02*
X42718000Y48003000D01*
X42718000Y50803000D02*
X42118000Y50803000D01*
X43418000Y48703000D02*
X43418000Y50103000D01*
X41418000Y50103000D02*
G75*
G02*
X42118000Y50803000I699999J1D01*
G01*
X42118000Y48003000D02*
G75*
G02*
X41418000Y48703000I0J700000D01*
G01*
X42718000Y50803000D02*
G75*
G02*
X43418000Y50103000I1J-699999D01*
G01*
X43418000Y48703000D02*
G75*
G02*
X42718000Y48003000I-700000J0D01*
G01*
%TO.C,R6*%
X45112000Y45566064D02*
X45112000Y45111936D01*
X46582000Y45566064D02*
X46582000Y45111936D01*
%TO.C,J1*%
X20365400Y83335800D02*
X30485400Y83335800D01*
X20365400Y77115800D02*
X21285400Y77115800D01*
X20365400Y75515800D02*
X20365400Y83335800D01*
X21125400Y81075800D02*
X22125400Y81075800D01*
X21125400Y79475800D02*
X21125400Y81075800D01*
X21285400Y77115800D02*
X21285400Y75515800D01*
X21285400Y75515800D02*
X20365400Y75515800D01*
X21565400Y77115800D02*
X21285400Y77115800D01*
X21565400Y77115800D02*
X21565400Y75900800D01*
X21625400Y81075800D02*
X21625400Y83335800D01*
X22125400Y81075800D02*
X22125400Y83335800D01*
X22125400Y81075800D02*
X22125400Y79475800D01*
X22125400Y79475800D02*
X21125400Y79475800D01*
X22925400Y83335800D02*
X22925400Y78975800D01*
X22925400Y78975800D02*
X27925400Y78975800D01*
X27925400Y78975800D02*
X27925400Y83335800D01*
X28725400Y81075800D02*
X28725400Y79475800D01*
X28725400Y79475800D02*
X29725400Y79475800D01*
X29565400Y77115800D02*
X29285400Y77115800D01*
X29565400Y75515800D02*
X29565400Y77115800D01*
X29725400Y81075800D02*
X28725400Y81075800D01*
X29725400Y79475800D02*
X29725400Y81075800D01*
X30485400Y83335800D02*
X30485400Y75515800D01*
X30485400Y77115800D02*
X29565400Y77115800D01*
X30485400Y75515800D02*
X29565400Y75515800D01*
%TO.C,R5*%
X41683000Y45566064D02*
X41683000Y45111936D01*
X43153000Y45566064D02*
X43153000Y45111936D01*
%TO.C,R2*%
X27865400Y72442336D02*
X27865400Y72896464D01*
X29335400Y72442336D02*
X29335400Y72896464D01*
%TO.C,J2*%
X71216200Y25906400D02*
X72136200Y25906400D01*
X71216200Y24306400D02*
X72136200Y24306400D01*
X71216200Y18086400D02*
X71216200Y25906400D01*
X71976200Y21946400D02*
X71976200Y20346400D01*
X71976200Y20346400D02*
X72976200Y20346400D01*
X72136200Y25906400D02*
X72136200Y24306400D01*
X72136200Y24306400D02*
X72416200Y24306400D01*
X72976200Y21946400D02*
X71976200Y21946400D01*
X72976200Y20346400D02*
X72976200Y21946400D01*
X73776200Y22446400D02*
X73776200Y18086400D01*
X78776200Y22446400D02*
X73776200Y22446400D01*
X78776200Y18086400D02*
X78776200Y22446400D01*
X79576200Y21946400D02*
X80576200Y21946400D01*
X79576200Y20346400D02*
X79576200Y21946400D01*
X79576200Y20346400D02*
X79576200Y18086400D01*
X80076200Y20346400D02*
X80076200Y18086400D01*
X80136200Y24306400D02*
X80136200Y25521400D01*
X80136200Y24306400D02*
X80416200Y24306400D01*
X80416200Y25906400D02*
X81336200Y25906400D01*
X80416200Y24306400D02*
X80416200Y25906400D01*
X80576200Y21946400D02*
X80576200Y20346400D01*
X80576200Y20346400D02*
X79576200Y20346400D01*
X81336200Y25906400D02*
X81336200Y18086400D01*
X81336200Y24306400D02*
X80416200Y24306400D01*
X81336200Y18086400D02*
X71216200Y18086400D01*
%TO.C,JP4*%
X53858000Y50103000D02*
X53858000Y48703000D01*
X54558000Y48003000D02*
X55158000Y48003000D01*
X55158000Y50803000D02*
X54558000Y50803000D01*
X55858000Y48703000D02*
X55858000Y50103000D01*
X53858000Y50103000D02*
G75*
G02*
X54558000Y50803000I699999J1D01*
G01*
X54558000Y48003000D02*
G75*
G02*
X53858000Y48703000I0J700000D01*
G01*
X55158000Y50803000D02*
G75*
G02*
X55858000Y50103000I1J-699999D01*
G01*
X55858000Y48703000D02*
G75*
G02*
X55158000Y48003000I-700000J0D01*
G01*
%TO.C,R1*%
X25681000Y72416936D02*
X25681000Y72871064D01*
X27151000Y72416936D02*
X27151000Y72871064D01*
%TO.C,R4*%
X54129000Y45566064D02*
X54129000Y45111936D01*
X55599000Y45566064D02*
X55599000Y45111936D01*
%TD*%
D13*
X-10000Y99954000D02*
X99990000Y99954000D01*
X99990000Y-46000D01*
X-10000Y-46000D01*
X-10000Y99954000D01*
M02*
