M48
; DRILL file {KiCad 9.0.4} date 2025-09-27T19:36:53+0200
; FORMAT={-:-/ absolute / metric / decimal}
; #@! TF.CreationDate,2025-09-27T19:36:53+02:00
; #@! TF.GenerationSoftware,Kicad,Pcbnew,9.0.4
; #@! TF.FileFunction,Plated,1,2,PTH
FMAT,2
METRIC
; #@! TA.AperFunction,Plated,PTH,ViaDrill
T1C0.500
; #@! TA.AperFunction,Plated,PTH,ComponentDrill
T2C0.750
; #@! TA.AperFunction,Plated,PTH,ComponentDrill
T3C1.000
; #@! TA.AperFunction,Plated,PTH,ComponentDrill
T4C1.100
%
G90
G05
T1
X18.265Y92.592
X19.598Y58.771
X20.279Y63.025
X22.738Y51.973
X23.952Y58.319
X24.474Y44.509
X24.987Y75.113
X25.173Y53.823
X25.548Y48.048
X27.956Y62.863
X29.57Y53.094
X31.374Y48.703
X36.921Y54.258
X36.921Y41.242
X40.385Y50.693
X41.278Y41.242
X45.634Y41.242
X49.991Y89.164
X51.364Y51.343
X57.522Y61.577
X58.862Y44.542
X59.432Y49.137
X59.747Y46.492
X66.416Y53.637
X68.603Y62.014
X71.806Y63.025
X71.922Y49.808
X72.435Y51.336
X74.425Y46.4
X74.511Y55.674
X80.528Y41.242
X81.78Y55.708
X82.788Y63.205
X83.339Y53.7
X84.844Y54.311
T2
X22.425Y76.976
X24.425Y76.976
X26.425Y76.976
X28.425Y76.976
X73.276Y24.446
X75.276Y24.446
X77.276Y24.446
X79.276Y24.446
T3
X13.056Y11.66
X13.056Y5.46
X13.111Y96.433
X13.111Y90.233
X13.111Y67.433
X13.111Y61.233
X13.111Y38.433
X13.111Y32.233
X35.611Y86.333
X35.611Y57.283
X35.611Y28.283
X35.676Y1.799
X38.111Y86.333
X38.111Y57.283
X38.111Y28.283
X38.176Y1.799
X40.611Y86.333
X40.611Y57.283
X40.611Y28.283
X40.676Y1.799
X59.49Y86.304
X59.59Y57.304
X59.59Y28.304
X59.755Y1.799
X61.99Y86.304
X62.09Y57.304
X62.09Y28.304
X62.255Y1.799
X64.49Y86.304
X64.59Y57.304
X64.59Y28.304
X64.755Y1.799
X86.99Y38.454
X86.99Y32.254
X87.19Y96.654
X87.19Y90.454
X87.249Y11.812
X87.249Y5.612
X87.49Y67.554
X87.49Y61.354
T4
X9.806Y10.81
X9.806Y6.31
X9.861Y95.583
X9.861Y91.083
X9.861Y66.583
X9.861Y62.083
X9.861Y37.583
X9.861Y33.083
X16.306Y10.81
X16.306Y6.31
X16.361Y95.583
X16.361Y91.083
X16.361Y66.583
X16.361Y62.083
X16.361Y37.583
X16.361Y33.083
X83.74Y37.604
X83.74Y33.104
X83.94Y95.804
X83.94Y91.304
X83.999Y10.962
X83.999Y6.462
X84.24Y66.704
X84.24Y62.204
X90.24Y37.604
X90.24Y33.104
X90.44Y95.804
X90.44Y91.304
X90.499Y10.962
X90.499Y6.462
X90.74Y66.704
X90.74Y62.204
M30
