%TF.GenerationSoftware,KiCad,Pcbnew,8.0.4*%
%TF.CreationDate,2024-08-11T22:46:47+02:00*%
%TF.ProjectId,global_vu,676c6f62-616c-45f7-9675-2e6b69636164,rev?*%
%TF.SameCoordinates,PX7b80360PY5a1f4a0*%
%TF.FileFunction,Drillmap*%
%TF.FilePolarity,Positive*%
%FSLAX45Y45*%
G04 Gerber Fmt 4.5, Leading zero omitted, Abs format (unit mm)*
G04 Created by KiCad (PCBNEW 8.0.4) date 2024-08-11 22:46:47*
%MOMM*%
%LPD*%
G01*
G04 APERTURE LIST*
%ADD10C,0.250000*%
%ADD11C,0.200000*%
%ADD12C,0.100000*%
G04 APERTURE END LIST*
D10*
X-10000000Y4600000D02*
G75*
G02*
X-9700000Y4900000I300000J0D01*
G01*
X0Y4600000D02*
X0Y300000D01*
X-9700000Y4900000D02*
X-300000Y4900000D01*
X-10000000Y300000D02*
X-10000000Y4600000D01*
X0Y300000D02*
G75*
G02*
X-300000Y0I-300000J0D01*
G01*
X-300000Y4900000D02*
G75*
G02*
X0Y4600000I0J-300000D01*
G01*
X-300000Y0D02*
X-9700000Y0D01*
X-9700000Y0D02*
G75*
G02*
X-10000000Y300000I0J300000D01*
G01*
D11*
D12*
X-9315000Y3515000D02*
X-9285000Y3485000D01*
X-9285000Y3515000D02*
X-9315000Y3485000D01*
X-9315000Y3115000D02*
X-9285000Y3085000D01*
X-9285000Y3115000D02*
X-9315000Y3085000D01*
X-2165000Y765000D02*
X-2135000Y735000D01*
X-2135000Y765000D02*
X-2165000Y735000D01*
X-1315000Y765000D02*
X-1285000Y735000D01*
X-1285000Y765000D02*
X-1315000Y735000D01*
X-8855000Y3426500D02*
G75*
G02*
X-8945000Y3426500I-45000J0D01*
G01*
X-8945000Y3426500D02*
G75*
G02*
X-8855000Y3426500I45000J0D01*
G01*
X-8855000Y3172500D02*
G75*
G02*
X-8945000Y3172500I-45000J0D01*
G01*
X-8945000Y3172500D02*
G75*
G02*
X-8855000Y3172500I45000J0D01*
G01*
X-8855000Y1801500D02*
G75*
G02*
X-8945000Y1801500I-45000J0D01*
G01*
X-8945000Y1801500D02*
G75*
G02*
X-8855000Y1801500I45000J0D01*
G01*
X-8855000Y1547500D02*
G75*
G02*
X-8945000Y1547500I-45000J0D01*
G01*
X-8945000Y1547500D02*
G75*
G02*
X-8855000Y1547500I45000J0D01*
G01*
X-8300000Y3426500D02*
G75*
G02*
X-8390000Y3426500I-45000J0D01*
G01*
X-8390000Y3426500D02*
G75*
G02*
X-8300000Y3426500I45000J0D01*
G01*
X-8300000Y3172500D02*
G75*
G02*
X-8390000Y3172500I-45000J0D01*
G01*
X-8390000Y3172500D02*
G75*
G02*
X-8300000Y3172500I45000J0D01*
G01*
X-8300000Y1801500D02*
G75*
G02*
X-8390000Y1801500I-45000J0D01*
G01*
X-8390000Y1801500D02*
G75*
G02*
X-8300000Y1801500I45000J0D01*
G01*
X-8300000Y1547500D02*
G75*
G02*
X-8390000Y1547500I-45000J0D01*
G01*
X-8390000Y1547500D02*
G75*
G02*
X-8300000Y1547500I45000J0D01*
G01*
X-7745000Y3426500D02*
G75*
G02*
X-7835000Y3426500I-45000J0D01*
G01*
X-7835000Y3426500D02*
G75*
G02*
X-7745000Y3426500I45000J0D01*
G01*
X-7745000Y3172500D02*
G75*
G02*
X-7835000Y3172500I-45000J0D01*
G01*
X-7835000Y3172500D02*
G75*
G02*
X-7745000Y3172500I45000J0D01*
G01*
X-7745000Y1801500D02*
G75*
G02*
X-7835000Y1801500I-45000J0D01*
G01*
X-7835000Y1801500D02*
G75*
G02*
X-7745000Y1801500I45000J0D01*
G01*
X-7745000Y1547500D02*
G75*
G02*
X-7835000Y1547500I-45000J0D01*
G01*
X-7835000Y1547500D02*
G75*
G02*
X-7745000Y1547500I45000J0D01*
G01*
X-7190000Y3426500D02*
G75*
G02*
X-7280000Y3426500I-45000J0D01*
G01*
X-7280000Y3426500D02*
G75*
G02*
X-7190000Y3426500I45000J0D01*
G01*
X-7190000Y3172500D02*
G75*
G02*
X-7280000Y3172500I-45000J0D01*
G01*
X-7280000Y3172500D02*
G75*
G02*
X-7190000Y3172500I45000J0D01*
G01*
X-7190000Y1801500D02*
G75*
G02*
X-7280000Y1801500I-45000J0D01*
G01*
X-7280000Y1801500D02*
G75*
G02*
X-7190000Y1801500I45000J0D01*
G01*
X-7190000Y1547500D02*
G75*
G02*
X-7280000Y1547500I-45000J0D01*
G01*
X-7280000Y1547500D02*
G75*
G02*
X-7190000Y1547500I45000J0D01*
G01*
X-6635000Y3426500D02*
G75*
G02*
X-6725000Y3426500I-45000J0D01*
G01*
X-6725000Y3426500D02*
G75*
G02*
X-6635000Y3426500I45000J0D01*
G01*
X-6635000Y3172500D02*
G75*
G02*
X-6725000Y3172500I-45000J0D01*
G01*
X-6725000Y3172500D02*
G75*
G02*
X-6635000Y3172500I45000J0D01*
G01*
X-6635000Y1801500D02*
G75*
G02*
X-6725000Y1801500I-45000J0D01*
G01*
X-6725000Y1801500D02*
G75*
G02*
X-6635000Y1801500I45000J0D01*
G01*
X-6635000Y1547500D02*
G75*
G02*
X-6725000Y1547500I-45000J0D01*
G01*
X-6725000Y1547500D02*
G75*
G02*
X-6635000Y1547500I45000J0D01*
G01*
X-6105000Y3426500D02*
G75*
G02*
X-6195000Y3426500I-45000J0D01*
G01*
X-6195000Y3426500D02*
G75*
G02*
X-6105000Y3426500I45000J0D01*
G01*
X-6105000Y3172500D02*
G75*
G02*
X-6195000Y3172500I-45000J0D01*
G01*
X-6195000Y3172500D02*
G75*
G02*
X-6105000Y3172500I45000J0D01*
G01*
X-6055000Y1801500D02*
G75*
G02*
X-6145000Y1801500I-45000J0D01*
G01*
X-6145000Y1801500D02*
G75*
G02*
X-6055000Y1801500I45000J0D01*
G01*
X-6055000Y1547500D02*
G75*
G02*
X-6145000Y1547500I-45000J0D01*
G01*
X-6145000Y1547500D02*
G75*
G02*
X-6055000Y1547500I45000J0D01*
G01*
X-5550000Y3426500D02*
G75*
G02*
X-5640000Y3426500I-45000J0D01*
G01*
X-5640000Y3426500D02*
G75*
G02*
X-5550000Y3426500I45000J0D01*
G01*
X-5550000Y3172500D02*
G75*
G02*
X-5640000Y3172500I-45000J0D01*
G01*
X-5640000Y3172500D02*
G75*
G02*
X-5550000Y3172500I45000J0D01*
G01*
X-5500000Y1801500D02*
G75*
G02*
X-5590000Y1801500I-45000J0D01*
G01*
X-5590000Y1801500D02*
G75*
G02*
X-5500000Y1801500I45000J0D01*
G01*
X-5500000Y1547500D02*
G75*
G02*
X-5590000Y1547500I-45000J0D01*
G01*
X-5590000Y1547500D02*
G75*
G02*
X-5500000Y1547500I45000J0D01*
G01*
X-4995000Y3426500D02*
G75*
G02*
X-5085000Y3426500I-45000J0D01*
G01*
X-5085000Y3426500D02*
G75*
G02*
X-4995000Y3426500I45000J0D01*
G01*
X-4995000Y3172500D02*
G75*
G02*
X-5085000Y3172500I-45000J0D01*
G01*
X-5085000Y3172500D02*
G75*
G02*
X-4995000Y3172500I45000J0D01*
G01*
X-4945000Y1801500D02*
G75*
G02*
X-5035000Y1801500I-45000J0D01*
G01*
X-5035000Y1801500D02*
G75*
G02*
X-4945000Y1801500I45000J0D01*
G01*
X-4945000Y1547500D02*
G75*
G02*
X-5035000Y1547500I-45000J0D01*
G01*
X-5035000Y1547500D02*
G75*
G02*
X-4945000Y1547500I45000J0D01*
G01*
X-4440000Y3426500D02*
G75*
G02*
X-4530000Y3426500I-45000J0D01*
G01*
X-4530000Y3426500D02*
G75*
G02*
X-4440000Y3426500I45000J0D01*
G01*
X-4440000Y3172500D02*
G75*
G02*
X-4530000Y3172500I-45000J0D01*
G01*
X-4530000Y3172500D02*
G75*
G02*
X-4440000Y3172500I45000J0D01*
G01*
X-4390000Y1801500D02*
G75*
G02*
X-4480000Y1801500I-45000J0D01*
G01*
X-4480000Y1801500D02*
G75*
G02*
X-4390000Y1801500I45000J0D01*
G01*
X-4390000Y1547500D02*
G75*
G02*
X-4480000Y1547500I-45000J0D01*
G01*
X-4480000Y1547500D02*
G75*
G02*
X-4390000Y1547500I45000J0D01*
G01*
X-3885000Y3426500D02*
G75*
G02*
X-3975000Y3426500I-45000J0D01*
G01*
X-3975000Y3426500D02*
G75*
G02*
X-3885000Y3426500I45000J0D01*
G01*
X-3885000Y3172500D02*
G75*
G02*
X-3975000Y3172500I-45000J0D01*
G01*
X-3975000Y3172500D02*
G75*
G02*
X-3885000Y3172500I45000J0D01*
G01*
X-3835000Y1801500D02*
G75*
G02*
X-3925000Y1801500I-45000J0D01*
G01*
X-3925000Y1801500D02*
G75*
G02*
X-3835000Y1801500I45000J0D01*
G01*
X-3835000Y1547500D02*
G75*
G02*
X-3925000Y1547500I-45000J0D01*
G01*
X-3925000Y1547500D02*
G75*
G02*
X-3835000Y1547500I45000J0D01*
G01*
X-3285000Y3426500D02*
G75*
G02*
X-3375000Y3426500I-45000J0D01*
G01*
X-3375000Y3426500D02*
G75*
G02*
X-3285000Y3426500I45000J0D01*
G01*
X-3285000Y3172500D02*
G75*
G02*
X-3375000Y3172500I-45000J0D01*
G01*
X-3375000Y3172500D02*
G75*
G02*
X-3285000Y3172500I45000J0D01*
G01*
X-3285000Y1804000D02*
G75*
G02*
X-3375000Y1804000I-45000J0D01*
G01*
X-3375000Y1804000D02*
G75*
G02*
X-3285000Y1804000I45000J0D01*
G01*
X-3285000Y1550000D02*
G75*
G02*
X-3375000Y1550000I-45000J0D01*
G01*
X-3375000Y1550000D02*
G75*
G02*
X-3285000Y1550000I45000J0D01*
G01*
X-2730000Y3426500D02*
G75*
G02*
X-2820000Y3426500I-45000J0D01*
G01*
X-2820000Y3426500D02*
G75*
G02*
X-2730000Y3426500I45000J0D01*
G01*
X-2730000Y3172500D02*
G75*
G02*
X-2820000Y3172500I-45000J0D01*
G01*
X-2820000Y3172500D02*
G75*
G02*
X-2730000Y3172500I45000J0D01*
G01*
X-2730000Y1804000D02*
G75*
G02*
X-2820000Y1804000I-45000J0D01*
G01*
X-2820000Y1804000D02*
G75*
G02*
X-2730000Y1804000I45000J0D01*
G01*
X-2730000Y1550000D02*
G75*
G02*
X-2820000Y1550000I-45000J0D01*
G01*
X-2820000Y1550000D02*
G75*
G02*
X-2730000Y1550000I45000J0D01*
G01*
X-2175000Y3426500D02*
G75*
G02*
X-2265000Y3426500I-45000J0D01*
G01*
X-2265000Y3426500D02*
G75*
G02*
X-2175000Y3426500I45000J0D01*
G01*
X-2175000Y3172500D02*
G75*
G02*
X-2265000Y3172500I-45000J0D01*
G01*
X-2265000Y3172500D02*
G75*
G02*
X-2175000Y3172500I45000J0D01*
G01*
X-2175000Y1804000D02*
G75*
G02*
X-2265000Y1804000I-45000J0D01*
G01*
X-2265000Y1804000D02*
G75*
G02*
X-2175000Y1804000I45000J0D01*
G01*
X-2175000Y1550000D02*
G75*
G02*
X-2265000Y1550000I-45000J0D01*
G01*
X-2265000Y1550000D02*
G75*
G02*
X-2175000Y1550000I45000J0D01*
G01*
X-1620000Y3426500D02*
G75*
G02*
X-1710000Y3426500I-45000J0D01*
G01*
X-1710000Y3426500D02*
G75*
G02*
X-1620000Y3426500I45000J0D01*
G01*
X-1620000Y3172500D02*
G75*
G02*
X-1710000Y3172500I-45000J0D01*
G01*
X-1710000Y3172500D02*
G75*
G02*
X-1620000Y3172500I45000J0D01*
G01*
X-1620000Y1804000D02*
G75*
G02*
X-1710000Y1804000I-45000J0D01*
G01*
X-1710000Y1804000D02*
G75*
G02*
X-1620000Y1804000I45000J0D01*
G01*
X-1620000Y1550000D02*
G75*
G02*
X-1710000Y1550000I-45000J0D01*
G01*
X-1710000Y1550000D02*
G75*
G02*
X-1620000Y1550000I45000J0D01*
G01*
X-1065000Y3426500D02*
G75*
G02*
X-1155000Y3426500I-45000J0D01*
G01*
X-1155000Y3426500D02*
G75*
G02*
X-1065000Y3426500I45000J0D01*
G01*
X-1065000Y3172500D02*
G75*
G02*
X-1155000Y3172500I-45000J0D01*
G01*
X-1155000Y3172500D02*
G75*
G02*
X-1065000Y3172500I45000J0D01*
G01*
X-1065000Y1804000D02*
G75*
G02*
X-1155000Y1804000I-45000J0D01*
G01*
X-1155000Y1804000D02*
G75*
G02*
X-1065000Y1804000I45000J0D01*
G01*
X-1065000Y1550000D02*
G75*
G02*
X-1155000Y1550000I-45000J0D01*
G01*
X-1155000Y1550000D02*
G75*
G02*
X-1065000Y1550000I45000J0D01*
G01*
X-9597500Y3055000D02*
X-9597500Y2955000D01*
X-9647500Y3005000D02*
X-9547500Y3005000D01*
X-9597500Y2801000D02*
X-9597500Y2701000D01*
X-9647500Y2751000D02*
X-9547500Y2751000D01*
X-9597500Y2547000D02*
X-9597500Y2447000D01*
X-9647500Y2497000D02*
X-9547500Y2497000D01*
X-9597500Y2293000D02*
X-9597500Y2193000D01*
X-9647500Y2243000D02*
X-9547500Y2243000D01*
X-9597500Y2039000D02*
X-9597500Y1939000D01*
X-9647500Y1989000D02*
X-9547500Y1989000D01*
X-347500Y3055000D02*
X-347500Y2955000D01*
X-397500Y3005000D02*
X-297500Y3005000D01*
X-347500Y2801000D02*
X-347500Y2701000D01*
X-397500Y2751000D02*
X-297500Y2751000D01*
X-347500Y2547000D02*
X-347500Y2447000D01*
X-397500Y2497000D02*
X-297500Y2497000D01*
X-347500Y2293000D02*
X-347500Y2193000D01*
X-397500Y2243000D02*
X-297500Y2243000D01*
X-347500Y2039000D02*
X-347500Y1939000D01*
X-397500Y1989000D02*
X-297500Y1989000D01*
D11*
X-9751723Y-323984D02*
X-9751723Y-123984D01*
X-9751723Y-123984D02*
X-9704104Y-123984D01*
X-9704104Y-123984D02*
X-9675533Y-133508D01*
X-9675533Y-133508D02*
X-9656485Y-152555D01*
X-9656485Y-152555D02*
X-9646961Y-171603D01*
X-9646961Y-171603D02*
X-9637438Y-209698D01*
X-9637438Y-209698D02*
X-9637438Y-238270D01*
X-9637438Y-238270D02*
X-9646961Y-276365D01*
X-9646961Y-276365D02*
X-9656485Y-295412D01*
X-9656485Y-295412D02*
X-9675533Y-314460D01*
X-9675533Y-314460D02*
X-9704104Y-323984D01*
X-9704104Y-323984D02*
X-9751723Y-323984D01*
X-9551723Y-323984D02*
X-9551723Y-190650D01*
X-9551723Y-228746D02*
X-9542199Y-209698D01*
X-9542199Y-209698D02*
X-9532676Y-200174D01*
X-9532676Y-200174D02*
X-9513628Y-190650D01*
X-9513628Y-190650D02*
X-9494580Y-190650D01*
X-9427914Y-323984D02*
X-9427914Y-190650D01*
X-9427914Y-123984D02*
X-9437438Y-133508D01*
X-9437438Y-133508D02*
X-9427914Y-143032D01*
X-9427914Y-143032D02*
X-9418390Y-133508D01*
X-9418390Y-133508D02*
X-9427914Y-123984D01*
X-9427914Y-123984D02*
X-9427914Y-143032D01*
X-9304104Y-323984D02*
X-9323152Y-314460D01*
X-9323152Y-314460D02*
X-9332676Y-295412D01*
X-9332676Y-295412D02*
X-9332676Y-123984D01*
X-9199342Y-323984D02*
X-9218390Y-314460D01*
X-9218390Y-314460D02*
X-9227914Y-295412D01*
X-9227914Y-295412D02*
X-9227914Y-123984D01*
X-8970771Y-323984D02*
X-8970771Y-123984D01*
X-8970771Y-123984D02*
X-8904104Y-266841D01*
X-8904104Y-266841D02*
X-8837438Y-123984D01*
X-8837438Y-123984D02*
X-8837438Y-323984D01*
X-8656485Y-323984D02*
X-8656485Y-219222D01*
X-8656485Y-219222D02*
X-8666009Y-200174D01*
X-8666009Y-200174D02*
X-8685057Y-190650D01*
X-8685057Y-190650D02*
X-8723152Y-190650D01*
X-8723152Y-190650D02*
X-8742199Y-200174D01*
X-8656485Y-314460D02*
X-8675533Y-323984D01*
X-8675533Y-323984D02*
X-8723152Y-323984D01*
X-8723152Y-323984D02*
X-8742199Y-314460D01*
X-8742199Y-314460D02*
X-8751723Y-295412D01*
X-8751723Y-295412D02*
X-8751723Y-276365D01*
X-8751723Y-276365D02*
X-8742199Y-257317D01*
X-8742199Y-257317D02*
X-8723152Y-247793D01*
X-8723152Y-247793D02*
X-8675533Y-247793D01*
X-8675533Y-247793D02*
X-8656485Y-238270D01*
X-8561247Y-190650D02*
X-8561247Y-390650D01*
X-8561247Y-200174D02*
X-8542199Y-190650D01*
X-8542199Y-190650D02*
X-8504104Y-190650D01*
X-8504104Y-190650D02*
X-8485057Y-200174D01*
X-8485057Y-200174D02*
X-8475533Y-209698D01*
X-8475533Y-209698D02*
X-8466009Y-228746D01*
X-8466009Y-228746D02*
X-8466009Y-285889D01*
X-8466009Y-285889D02*
X-8475533Y-304936D01*
X-8475533Y-304936D02*
X-8485057Y-314460D01*
X-8485057Y-314460D02*
X-8504104Y-323984D01*
X-8504104Y-323984D02*
X-8542199Y-323984D01*
X-8542199Y-323984D02*
X-8561247Y-314460D01*
X-8380295Y-304936D02*
X-8370771Y-314460D01*
X-8370771Y-314460D02*
X-8380295Y-323984D01*
X-8380295Y-323984D02*
X-8389818Y-314460D01*
X-8389818Y-314460D02*
X-8380295Y-304936D01*
X-8380295Y-304936D02*
X-8380295Y-323984D01*
X-8380295Y-200174D02*
X-8370771Y-209698D01*
X-8370771Y-209698D02*
X-8380295Y-219222D01*
X-8380295Y-219222D02*
X-8389818Y-209698D01*
X-8389818Y-209698D02*
X-8380295Y-200174D01*
X-8380295Y-200174D02*
X-8380295Y-219222D01*
D12*
X-10042500Y-637500D02*
X-10012500Y-667500D01*
X-10012500Y-637500D02*
X-10042500Y-667500D01*
D11*
X-9713628Y-543984D02*
X-9694580Y-543984D01*
X-9694580Y-543984D02*
X-9675533Y-553508D01*
X-9675533Y-553508D02*
X-9666009Y-563032D01*
X-9666009Y-563032D02*
X-9656485Y-582079D01*
X-9656485Y-582079D02*
X-9646961Y-620174D01*
X-9646961Y-620174D02*
X-9646961Y-667793D01*
X-9646961Y-667793D02*
X-9656485Y-705889D01*
X-9656485Y-705889D02*
X-9666009Y-724936D01*
X-9666009Y-724936D02*
X-9675533Y-734460D01*
X-9675533Y-734460D02*
X-9694580Y-743984D01*
X-9694580Y-743984D02*
X-9713628Y-743984D01*
X-9713628Y-743984D02*
X-9732676Y-734460D01*
X-9732676Y-734460D02*
X-9742199Y-724936D01*
X-9742199Y-724936D02*
X-9751723Y-705889D01*
X-9751723Y-705889D02*
X-9761247Y-667793D01*
X-9761247Y-667793D02*
X-9761247Y-620174D01*
X-9761247Y-620174D02*
X-9751723Y-582079D01*
X-9751723Y-582079D02*
X-9742199Y-563032D01*
X-9742199Y-563032D02*
X-9732676Y-553508D01*
X-9732676Y-553508D02*
X-9713628Y-543984D01*
X-9561247Y-724936D02*
X-9551723Y-734460D01*
X-9551723Y-734460D02*
X-9561247Y-743984D01*
X-9561247Y-743984D02*
X-9570771Y-734460D01*
X-9570771Y-734460D02*
X-9561247Y-724936D01*
X-9561247Y-724936D02*
X-9561247Y-743984D01*
X-9485057Y-543984D02*
X-9361247Y-543984D01*
X-9361247Y-543984D02*
X-9427914Y-620174D01*
X-9427914Y-620174D02*
X-9399342Y-620174D01*
X-9399342Y-620174D02*
X-9380295Y-629698D01*
X-9380295Y-629698D02*
X-9370771Y-639222D01*
X-9370771Y-639222D02*
X-9361247Y-658270D01*
X-9361247Y-658270D02*
X-9361247Y-705889D01*
X-9361247Y-705889D02*
X-9370771Y-724936D01*
X-9370771Y-724936D02*
X-9380295Y-734460D01*
X-9380295Y-734460D02*
X-9399342Y-743984D01*
X-9399342Y-743984D02*
X-9456485Y-743984D01*
X-9456485Y-743984D02*
X-9475533Y-734460D01*
X-9475533Y-734460D02*
X-9485057Y-724936D01*
X-9237438Y-543984D02*
X-9218390Y-543984D01*
X-9218390Y-543984D02*
X-9199342Y-553508D01*
X-9199342Y-553508D02*
X-9189818Y-563032D01*
X-9189818Y-563032D02*
X-9180295Y-582079D01*
X-9180295Y-582079D02*
X-9170771Y-620174D01*
X-9170771Y-620174D02*
X-9170771Y-667793D01*
X-9170771Y-667793D02*
X-9180295Y-705889D01*
X-9180295Y-705889D02*
X-9189818Y-724936D01*
X-9189818Y-724936D02*
X-9199342Y-734460D01*
X-9199342Y-734460D02*
X-9218390Y-743984D01*
X-9218390Y-743984D02*
X-9237438Y-743984D01*
X-9237438Y-743984D02*
X-9256485Y-734460D01*
X-9256485Y-734460D02*
X-9266009Y-724936D01*
X-9266009Y-724936D02*
X-9275533Y-705889D01*
X-9275533Y-705889D02*
X-9285057Y-667793D01*
X-9285057Y-667793D02*
X-9285057Y-620174D01*
X-9285057Y-620174D02*
X-9275533Y-582079D01*
X-9275533Y-582079D02*
X-9266009Y-563032D01*
X-9266009Y-563032D02*
X-9256485Y-553508D01*
X-9256485Y-553508D02*
X-9237438Y-543984D01*
X-9046961Y-543984D02*
X-9027914Y-543984D01*
X-9027914Y-543984D02*
X-9008866Y-553508D01*
X-9008866Y-553508D02*
X-8999342Y-563032D01*
X-8999342Y-563032D02*
X-8989818Y-582079D01*
X-8989818Y-582079D02*
X-8980295Y-620174D01*
X-8980295Y-620174D02*
X-8980295Y-667793D01*
X-8980295Y-667793D02*
X-8989818Y-705889D01*
X-8989818Y-705889D02*
X-8999342Y-724936D01*
X-8999342Y-724936D02*
X-9008866Y-734460D01*
X-9008866Y-734460D02*
X-9027914Y-743984D01*
X-9027914Y-743984D02*
X-9046961Y-743984D01*
X-9046961Y-743984D02*
X-9066009Y-734460D01*
X-9066009Y-734460D02*
X-9075533Y-724936D01*
X-9075533Y-724936D02*
X-9085057Y-705889D01*
X-9085057Y-705889D02*
X-9094580Y-667793D01*
X-9094580Y-667793D02*
X-9094580Y-620174D01*
X-9094580Y-620174D02*
X-9085057Y-582079D01*
X-9085057Y-582079D02*
X-9075533Y-563032D01*
X-9075533Y-563032D02*
X-9066009Y-553508D01*
X-9066009Y-553508D02*
X-9046961Y-543984D01*
X-8894580Y-743984D02*
X-8894580Y-610651D01*
X-8894580Y-629698D02*
X-8885057Y-620174D01*
X-8885057Y-620174D02*
X-8866009Y-610651D01*
X-8866009Y-610651D02*
X-8837437Y-610651D01*
X-8837437Y-610651D02*
X-8818390Y-620174D01*
X-8818390Y-620174D02*
X-8808866Y-639222D01*
X-8808866Y-639222D02*
X-8808866Y-743984D01*
X-8808866Y-639222D02*
X-8799342Y-620174D01*
X-8799342Y-620174D02*
X-8780295Y-610651D01*
X-8780295Y-610651D02*
X-8751723Y-610651D01*
X-8751723Y-610651D02*
X-8732676Y-620174D01*
X-8732676Y-620174D02*
X-8723152Y-639222D01*
X-8723152Y-639222D02*
X-8723152Y-743984D01*
X-8627914Y-743984D02*
X-8627914Y-610651D01*
X-8627914Y-629698D02*
X-8618390Y-620174D01*
X-8618390Y-620174D02*
X-8599342Y-610651D01*
X-8599342Y-610651D02*
X-8570771Y-610651D01*
X-8570771Y-610651D02*
X-8551723Y-620174D01*
X-8551723Y-620174D02*
X-8542199Y-639222D01*
X-8542199Y-639222D02*
X-8542199Y-743984D01*
X-8542199Y-639222D02*
X-8532676Y-620174D01*
X-8532676Y-620174D02*
X-8513628Y-610651D01*
X-8513628Y-610651D02*
X-8485057Y-610651D01*
X-8485057Y-610651D02*
X-8466009Y-620174D01*
X-8466009Y-620174D02*
X-8456485Y-639222D01*
X-8456485Y-639222D02*
X-8456485Y-743984D01*
X-8066009Y-534460D02*
X-8237437Y-791603D01*
X-7808866Y-543984D02*
X-7789818Y-543984D01*
X-7789818Y-543984D02*
X-7770771Y-553508D01*
X-7770771Y-553508D02*
X-7761247Y-563032D01*
X-7761247Y-563032D02*
X-7751723Y-582079D01*
X-7751723Y-582079D02*
X-7742199Y-620174D01*
X-7742199Y-620174D02*
X-7742199Y-667793D01*
X-7742199Y-667793D02*
X-7751723Y-705889D01*
X-7751723Y-705889D02*
X-7761247Y-724936D01*
X-7761247Y-724936D02*
X-7770771Y-734460D01*
X-7770771Y-734460D02*
X-7789818Y-743984D01*
X-7789818Y-743984D02*
X-7808866Y-743984D01*
X-7808866Y-743984D02*
X-7827913Y-734460D01*
X-7827913Y-734460D02*
X-7837437Y-724936D01*
X-7837437Y-724936D02*
X-7846961Y-705889D01*
X-7846961Y-705889D02*
X-7856485Y-667793D01*
X-7856485Y-667793D02*
X-7856485Y-620174D01*
X-7856485Y-620174D02*
X-7846961Y-582079D01*
X-7846961Y-582079D02*
X-7837437Y-563032D01*
X-7837437Y-563032D02*
X-7827913Y-553508D01*
X-7827913Y-553508D02*
X-7808866Y-543984D01*
X-7656485Y-724936D02*
X-7646961Y-734460D01*
X-7646961Y-734460D02*
X-7656485Y-743984D01*
X-7656485Y-743984D02*
X-7666009Y-734460D01*
X-7666009Y-734460D02*
X-7656485Y-724936D01*
X-7656485Y-724936D02*
X-7656485Y-743984D01*
X-7523152Y-543984D02*
X-7504104Y-543984D01*
X-7504104Y-543984D02*
X-7485056Y-553508D01*
X-7485056Y-553508D02*
X-7475532Y-563032D01*
X-7475532Y-563032D02*
X-7466009Y-582079D01*
X-7466009Y-582079D02*
X-7456485Y-620174D01*
X-7456485Y-620174D02*
X-7456485Y-667793D01*
X-7456485Y-667793D02*
X-7466009Y-705889D01*
X-7466009Y-705889D02*
X-7475532Y-724936D01*
X-7475532Y-724936D02*
X-7485056Y-734460D01*
X-7485056Y-734460D02*
X-7504104Y-743984D01*
X-7504104Y-743984D02*
X-7523152Y-743984D01*
X-7523152Y-743984D02*
X-7542199Y-734460D01*
X-7542199Y-734460D02*
X-7551723Y-724936D01*
X-7551723Y-724936D02*
X-7561247Y-705889D01*
X-7561247Y-705889D02*
X-7570771Y-667793D01*
X-7570771Y-667793D02*
X-7570771Y-620174D01*
X-7570771Y-620174D02*
X-7561247Y-582079D01*
X-7561247Y-582079D02*
X-7551723Y-563032D01*
X-7551723Y-563032D02*
X-7542199Y-553508D01*
X-7542199Y-553508D02*
X-7523152Y-543984D01*
X-7266009Y-743984D02*
X-7380294Y-743984D01*
X-7323152Y-743984D02*
X-7323152Y-543984D01*
X-7323152Y-543984D02*
X-7342199Y-572555D01*
X-7342199Y-572555D02*
X-7361247Y-591603D01*
X-7361247Y-591603D02*
X-7380294Y-601127D01*
X-7075532Y-743984D02*
X-7189818Y-743984D01*
X-7132675Y-743984D02*
X-7132675Y-543984D01*
X-7132675Y-543984D02*
X-7151723Y-572555D01*
X-7151723Y-572555D02*
X-7170771Y-591603D01*
X-7170771Y-591603D02*
X-7189818Y-601127D01*
X-6961247Y-629698D02*
X-6980294Y-620174D01*
X-6980294Y-620174D02*
X-6989818Y-610651D01*
X-6989818Y-610651D02*
X-6999342Y-591603D01*
X-6999342Y-591603D02*
X-6999342Y-582079D01*
X-6999342Y-582079D02*
X-6989818Y-563032D01*
X-6989818Y-563032D02*
X-6980294Y-553508D01*
X-6980294Y-553508D02*
X-6961247Y-543984D01*
X-6961247Y-543984D02*
X-6923151Y-543984D01*
X-6923151Y-543984D02*
X-6904104Y-553508D01*
X-6904104Y-553508D02*
X-6894580Y-563032D01*
X-6894580Y-563032D02*
X-6885056Y-582079D01*
X-6885056Y-582079D02*
X-6885056Y-591603D01*
X-6885056Y-591603D02*
X-6894580Y-610651D01*
X-6894580Y-610651D02*
X-6904104Y-620174D01*
X-6904104Y-620174D02*
X-6923151Y-629698D01*
X-6923151Y-629698D02*
X-6961247Y-629698D01*
X-6961247Y-629698D02*
X-6980294Y-639222D01*
X-6980294Y-639222D02*
X-6989818Y-648746D01*
X-6989818Y-648746D02*
X-6999342Y-667793D01*
X-6999342Y-667793D02*
X-6999342Y-705889D01*
X-6999342Y-705889D02*
X-6989818Y-724936D01*
X-6989818Y-724936D02*
X-6980294Y-734460D01*
X-6980294Y-734460D02*
X-6961247Y-743984D01*
X-6961247Y-743984D02*
X-6923151Y-743984D01*
X-6923151Y-743984D02*
X-6904104Y-734460D01*
X-6904104Y-734460D02*
X-6894580Y-724936D01*
X-6894580Y-724936D02*
X-6885056Y-705889D01*
X-6885056Y-705889D02*
X-6885056Y-667793D01*
X-6885056Y-667793D02*
X-6894580Y-648746D01*
X-6894580Y-648746D02*
X-6904104Y-639222D01*
X-6904104Y-639222D02*
X-6923151Y-629698D01*
X-6808866Y-543984D02*
X-6808866Y-582079D01*
X-6732675Y-543984D02*
X-6732675Y-582079D01*
X-6437437Y-820174D02*
X-6446961Y-810650D01*
X-6446961Y-810650D02*
X-6466009Y-782079D01*
X-6466009Y-782079D02*
X-6475532Y-763031D01*
X-6475532Y-763031D02*
X-6485056Y-734460D01*
X-6485056Y-734460D02*
X-6494580Y-686841D01*
X-6494580Y-686841D02*
X-6494580Y-648746D01*
X-6494580Y-648746D02*
X-6485056Y-601127D01*
X-6485056Y-601127D02*
X-6475532Y-572555D01*
X-6475532Y-572555D02*
X-6466009Y-553508D01*
X-6466009Y-553508D02*
X-6446961Y-524936D01*
X-6446961Y-524936D02*
X-6437437Y-515412D01*
X-6275532Y-610651D02*
X-6275532Y-743984D01*
X-6323151Y-534460D02*
X-6370770Y-677317D01*
X-6370770Y-677317D02*
X-6246961Y-677317D01*
X-6018389Y-743984D02*
X-6018389Y-543984D01*
X-5932675Y-743984D02*
X-5932675Y-639222D01*
X-5932675Y-639222D02*
X-5942199Y-620174D01*
X-5942199Y-620174D02*
X-5961247Y-610651D01*
X-5961247Y-610651D02*
X-5989818Y-610651D01*
X-5989818Y-610651D02*
X-6008866Y-620174D01*
X-6008866Y-620174D02*
X-6018389Y-629698D01*
X-5808866Y-743984D02*
X-5827913Y-734460D01*
X-5827913Y-734460D02*
X-5837437Y-724936D01*
X-5837437Y-724936D02*
X-5846961Y-705889D01*
X-5846961Y-705889D02*
X-5846961Y-648746D01*
X-5846961Y-648746D02*
X-5837437Y-629698D01*
X-5837437Y-629698D02*
X-5827913Y-620174D01*
X-5827913Y-620174D02*
X-5808866Y-610651D01*
X-5808866Y-610651D02*
X-5780294Y-610651D01*
X-5780294Y-610651D02*
X-5761247Y-620174D01*
X-5761247Y-620174D02*
X-5751723Y-629698D01*
X-5751723Y-629698D02*
X-5742199Y-648746D01*
X-5742199Y-648746D02*
X-5742199Y-705889D01*
X-5742199Y-705889D02*
X-5751723Y-724936D01*
X-5751723Y-724936D02*
X-5761247Y-734460D01*
X-5761247Y-734460D02*
X-5780294Y-743984D01*
X-5780294Y-743984D02*
X-5808866Y-743984D01*
X-5627913Y-743984D02*
X-5646961Y-734460D01*
X-5646961Y-734460D02*
X-5656485Y-715412D01*
X-5656485Y-715412D02*
X-5656485Y-543984D01*
X-5475532Y-734460D02*
X-5494580Y-743984D01*
X-5494580Y-743984D02*
X-5532675Y-743984D01*
X-5532675Y-743984D02*
X-5551723Y-734460D01*
X-5551723Y-734460D02*
X-5561247Y-715412D01*
X-5561247Y-715412D02*
X-5561247Y-639222D01*
X-5561247Y-639222D02*
X-5551723Y-620174D01*
X-5551723Y-620174D02*
X-5532675Y-610651D01*
X-5532675Y-610651D02*
X-5494580Y-610651D01*
X-5494580Y-610651D02*
X-5475532Y-620174D01*
X-5475532Y-620174D02*
X-5466009Y-639222D01*
X-5466009Y-639222D02*
X-5466009Y-658270D01*
X-5466009Y-658270D02*
X-5561247Y-677317D01*
X-5389818Y-734460D02*
X-5370770Y-743984D01*
X-5370770Y-743984D02*
X-5332675Y-743984D01*
X-5332675Y-743984D02*
X-5313628Y-734460D01*
X-5313628Y-734460D02*
X-5304104Y-715412D01*
X-5304104Y-715412D02*
X-5304104Y-705889D01*
X-5304104Y-705889D02*
X-5313628Y-686841D01*
X-5313628Y-686841D02*
X-5332675Y-677317D01*
X-5332675Y-677317D02*
X-5361247Y-677317D01*
X-5361247Y-677317D02*
X-5380294Y-667793D01*
X-5380294Y-667793D02*
X-5389818Y-648746D01*
X-5389818Y-648746D02*
X-5389818Y-639222D01*
X-5389818Y-639222D02*
X-5380294Y-620174D01*
X-5380294Y-620174D02*
X-5361247Y-610651D01*
X-5361247Y-610651D02*
X-5332675Y-610651D01*
X-5332675Y-610651D02*
X-5313628Y-620174D01*
X-5237437Y-820174D02*
X-5227913Y-810650D01*
X-5227913Y-810650D02*
X-5208866Y-782079D01*
X-5208866Y-782079D02*
X-5199342Y-763031D01*
X-5199342Y-763031D02*
X-5189818Y-734460D01*
X-5189818Y-734460D02*
X-5180294Y-686841D01*
X-5180294Y-686841D02*
X-5180294Y-648746D01*
X-5180294Y-648746D02*
X-5189818Y-601127D01*
X-5189818Y-601127D02*
X-5199342Y-572555D01*
X-5199342Y-572555D02*
X-5208866Y-553508D01*
X-5208866Y-553508D02*
X-5227913Y-524936D01*
X-5227913Y-524936D02*
X-5237437Y-515412D01*
D12*
X-10012500Y-916500D02*
G75*
G02*
X-10102500Y-916500I-45000J0D01*
G01*
X-10102500Y-916500D02*
G75*
G02*
X-10012500Y-916500I45000J0D01*
G01*
D11*
X-9713628Y-807984D02*
X-9694580Y-807984D01*
X-9694580Y-807984D02*
X-9675533Y-817508D01*
X-9675533Y-817508D02*
X-9666009Y-827031D01*
X-9666009Y-827031D02*
X-9656485Y-846079D01*
X-9656485Y-846079D02*
X-9646961Y-884174D01*
X-9646961Y-884174D02*
X-9646961Y-931793D01*
X-9646961Y-931793D02*
X-9656485Y-969889D01*
X-9656485Y-969889D02*
X-9666009Y-988936D01*
X-9666009Y-988936D02*
X-9675533Y-998460D01*
X-9675533Y-998460D02*
X-9694580Y-1007984D01*
X-9694580Y-1007984D02*
X-9713628Y-1007984D01*
X-9713628Y-1007984D02*
X-9732676Y-998460D01*
X-9732676Y-998460D02*
X-9742199Y-988936D01*
X-9742199Y-988936D02*
X-9751723Y-969889D01*
X-9751723Y-969889D02*
X-9761247Y-931793D01*
X-9761247Y-931793D02*
X-9761247Y-884174D01*
X-9761247Y-884174D02*
X-9751723Y-846079D01*
X-9751723Y-846079D02*
X-9742199Y-827031D01*
X-9742199Y-827031D02*
X-9732676Y-817508D01*
X-9732676Y-817508D02*
X-9713628Y-807984D01*
X-9561247Y-988936D02*
X-9551723Y-998460D01*
X-9551723Y-998460D02*
X-9561247Y-1007984D01*
X-9561247Y-1007984D02*
X-9570771Y-998460D01*
X-9570771Y-998460D02*
X-9561247Y-988936D01*
X-9561247Y-988936D02*
X-9561247Y-1007984D01*
X-9456485Y-1007984D02*
X-9418390Y-1007984D01*
X-9418390Y-1007984D02*
X-9399342Y-998460D01*
X-9399342Y-998460D02*
X-9389818Y-988936D01*
X-9389818Y-988936D02*
X-9370771Y-960365D01*
X-9370771Y-960365D02*
X-9361247Y-922270D01*
X-9361247Y-922270D02*
X-9361247Y-846079D01*
X-9361247Y-846079D02*
X-9370771Y-827031D01*
X-9370771Y-827031D02*
X-9380295Y-817508D01*
X-9380295Y-817508D02*
X-9399342Y-807984D01*
X-9399342Y-807984D02*
X-9437438Y-807984D01*
X-9437438Y-807984D02*
X-9456485Y-817508D01*
X-9456485Y-817508D02*
X-9466009Y-827031D01*
X-9466009Y-827031D02*
X-9475533Y-846079D01*
X-9475533Y-846079D02*
X-9475533Y-893698D01*
X-9475533Y-893698D02*
X-9466009Y-912746D01*
X-9466009Y-912746D02*
X-9456485Y-922270D01*
X-9456485Y-922270D02*
X-9437438Y-931793D01*
X-9437438Y-931793D02*
X-9399342Y-931793D01*
X-9399342Y-931793D02*
X-9380295Y-922270D01*
X-9380295Y-922270D02*
X-9370771Y-912746D01*
X-9370771Y-912746D02*
X-9361247Y-893698D01*
X-9237438Y-807984D02*
X-9218390Y-807984D01*
X-9218390Y-807984D02*
X-9199342Y-817508D01*
X-9199342Y-817508D02*
X-9189818Y-827031D01*
X-9189818Y-827031D02*
X-9180295Y-846079D01*
X-9180295Y-846079D02*
X-9170771Y-884174D01*
X-9170771Y-884174D02*
X-9170771Y-931793D01*
X-9170771Y-931793D02*
X-9180295Y-969889D01*
X-9180295Y-969889D02*
X-9189818Y-988936D01*
X-9189818Y-988936D02*
X-9199342Y-998460D01*
X-9199342Y-998460D02*
X-9218390Y-1007984D01*
X-9218390Y-1007984D02*
X-9237438Y-1007984D01*
X-9237438Y-1007984D02*
X-9256485Y-998460D01*
X-9256485Y-998460D02*
X-9266009Y-988936D01*
X-9266009Y-988936D02*
X-9275533Y-969889D01*
X-9275533Y-969889D02*
X-9285057Y-931793D01*
X-9285057Y-931793D02*
X-9285057Y-884174D01*
X-9285057Y-884174D02*
X-9275533Y-846079D01*
X-9275533Y-846079D02*
X-9266009Y-827031D01*
X-9266009Y-827031D02*
X-9256485Y-817508D01*
X-9256485Y-817508D02*
X-9237438Y-807984D01*
X-9046961Y-807984D02*
X-9027914Y-807984D01*
X-9027914Y-807984D02*
X-9008866Y-817508D01*
X-9008866Y-817508D02*
X-8999342Y-827031D01*
X-8999342Y-827031D02*
X-8989818Y-846079D01*
X-8989818Y-846079D02*
X-8980295Y-884174D01*
X-8980295Y-884174D02*
X-8980295Y-931793D01*
X-8980295Y-931793D02*
X-8989818Y-969889D01*
X-8989818Y-969889D02*
X-8999342Y-988936D01*
X-8999342Y-988936D02*
X-9008866Y-998460D01*
X-9008866Y-998460D02*
X-9027914Y-1007984D01*
X-9027914Y-1007984D02*
X-9046961Y-1007984D01*
X-9046961Y-1007984D02*
X-9066009Y-998460D01*
X-9066009Y-998460D02*
X-9075533Y-988936D01*
X-9075533Y-988936D02*
X-9085057Y-969889D01*
X-9085057Y-969889D02*
X-9094580Y-931793D01*
X-9094580Y-931793D02*
X-9094580Y-884174D01*
X-9094580Y-884174D02*
X-9085057Y-846079D01*
X-9085057Y-846079D02*
X-9075533Y-827031D01*
X-9075533Y-827031D02*
X-9066009Y-817508D01*
X-9066009Y-817508D02*
X-9046961Y-807984D01*
X-8894580Y-1007984D02*
X-8894580Y-874650D01*
X-8894580Y-893698D02*
X-8885057Y-884174D01*
X-8885057Y-884174D02*
X-8866009Y-874650D01*
X-8866009Y-874650D02*
X-8837437Y-874650D01*
X-8837437Y-874650D02*
X-8818390Y-884174D01*
X-8818390Y-884174D02*
X-8808866Y-903222D01*
X-8808866Y-903222D02*
X-8808866Y-1007984D01*
X-8808866Y-903222D02*
X-8799342Y-884174D01*
X-8799342Y-884174D02*
X-8780295Y-874650D01*
X-8780295Y-874650D02*
X-8751723Y-874650D01*
X-8751723Y-874650D02*
X-8732676Y-884174D01*
X-8732676Y-884174D02*
X-8723152Y-903222D01*
X-8723152Y-903222D02*
X-8723152Y-1007984D01*
X-8627914Y-1007984D02*
X-8627914Y-874650D01*
X-8627914Y-893698D02*
X-8618390Y-884174D01*
X-8618390Y-884174D02*
X-8599342Y-874650D01*
X-8599342Y-874650D02*
X-8570771Y-874650D01*
X-8570771Y-874650D02*
X-8551723Y-884174D01*
X-8551723Y-884174D02*
X-8542199Y-903222D01*
X-8542199Y-903222D02*
X-8542199Y-1007984D01*
X-8542199Y-903222D02*
X-8532676Y-884174D01*
X-8532676Y-884174D02*
X-8513628Y-874650D01*
X-8513628Y-874650D02*
X-8485057Y-874650D01*
X-8485057Y-874650D02*
X-8466009Y-884174D01*
X-8466009Y-884174D02*
X-8456485Y-903222D01*
X-8456485Y-903222D02*
X-8456485Y-1007984D01*
X-8066009Y-798460D02*
X-8237437Y-1055603D01*
X-7808866Y-807984D02*
X-7789818Y-807984D01*
X-7789818Y-807984D02*
X-7770771Y-817508D01*
X-7770771Y-817508D02*
X-7761247Y-827031D01*
X-7761247Y-827031D02*
X-7751723Y-846079D01*
X-7751723Y-846079D02*
X-7742199Y-884174D01*
X-7742199Y-884174D02*
X-7742199Y-931793D01*
X-7742199Y-931793D02*
X-7751723Y-969889D01*
X-7751723Y-969889D02*
X-7761247Y-988936D01*
X-7761247Y-988936D02*
X-7770771Y-998460D01*
X-7770771Y-998460D02*
X-7789818Y-1007984D01*
X-7789818Y-1007984D02*
X-7808866Y-1007984D01*
X-7808866Y-1007984D02*
X-7827913Y-998460D01*
X-7827913Y-998460D02*
X-7837437Y-988936D01*
X-7837437Y-988936D02*
X-7846961Y-969889D01*
X-7846961Y-969889D02*
X-7856485Y-931793D01*
X-7856485Y-931793D02*
X-7856485Y-884174D01*
X-7856485Y-884174D02*
X-7846961Y-846079D01*
X-7846961Y-846079D02*
X-7837437Y-827031D01*
X-7837437Y-827031D02*
X-7827913Y-817508D01*
X-7827913Y-817508D02*
X-7808866Y-807984D01*
X-7656485Y-988936D02*
X-7646961Y-998460D01*
X-7646961Y-998460D02*
X-7656485Y-1007984D01*
X-7656485Y-1007984D02*
X-7666009Y-998460D01*
X-7666009Y-998460D02*
X-7656485Y-988936D01*
X-7656485Y-988936D02*
X-7656485Y-1007984D01*
X-7523152Y-807984D02*
X-7504104Y-807984D01*
X-7504104Y-807984D02*
X-7485056Y-817508D01*
X-7485056Y-817508D02*
X-7475532Y-827031D01*
X-7475532Y-827031D02*
X-7466009Y-846079D01*
X-7466009Y-846079D02*
X-7456485Y-884174D01*
X-7456485Y-884174D02*
X-7456485Y-931793D01*
X-7456485Y-931793D02*
X-7466009Y-969889D01*
X-7466009Y-969889D02*
X-7475532Y-988936D01*
X-7475532Y-988936D02*
X-7485056Y-998460D01*
X-7485056Y-998460D02*
X-7504104Y-1007984D01*
X-7504104Y-1007984D02*
X-7523152Y-1007984D01*
X-7523152Y-1007984D02*
X-7542199Y-998460D01*
X-7542199Y-998460D02*
X-7551723Y-988936D01*
X-7551723Y-988936D02*
X-7561247Y-969889D01*
X-7561247Y-969889D02*
X-7570771Y-931793D01*
X-7570771Y-931793D02*
X-7570771Y-884174D01*
X-7570771Y-884174D02*
X-7561247Y-846079D01*
X-7561247Y-846079D02*
X-7551723Y-827031D01*
X-7551723Y-827031D02*
X-7542199Y-817508D01*
X-7542199Y-817508D02*
X-7523152Y-807984D01*
X-7389818Y-807984D02*
X-7266009Y-807984D01*
X-7266009Y-807984D02*
X-7332675Y-884174D01*
X-7332675Y-884174D02*
X-7304104Y-884174D01*
X-7304104Y-884174D02*
X-7285056Y-893698D01*
X-7285056Y-893698D02*
X-7275532Y-903222D01*
X-7275532Y-903222D02*
X-7266009Y-922270D01*
X-7266009Y-922270D02*
X-7266009Y-969889D01*
X-7266009Y-969889D02*
X-7275532Y-988936D01*
X-7275532Y-988936D02*
X-7285056Y-998460D01*
X-7285056Y-998460D02*
X-7304104Y-1007984D01*
X-7304104Y-1007984D02*
X-7361247Y-1007984D01*
X-7361247Y-1007984D02*
X-7380294Y-998460D01*
X-7380294Y-998460D02*
X-7389818Y-988936D01*
X-7085056Y-807984D02*
X-7180294Y-807984D01*
X-7180294Y-807984D02*
X-7189818Y-903222D01*
X-7189818Y-903222D02*
X-7180294Y-893698D01*
X-7180294Y-893698D02*
X-7161247Y-884174D01*
X-7161247Y-884174D02*
X-7113628Y-884174D01*
X-7113628Y-884174D02*
X-7094580Y-893698D01*
X-7094580Y-893698D02*
X-7085056Y-903222D01*
X-7085056Y-903222D02*
X-7075532Y-922270D01*
X-7075532Y-922270D02*
X-7075532Y-969889D01*
X-7075532Y-969889D02*
X-7085056Y-988936D01*
X-7085056Y-988936D02*
X-7094580Y-998460D01*
X-7094580Y-998460D02*
X-7113628Y-1007984D01*
X-7113628Y-1007984D02*
X-7161247Y-1007984D01*
X-7161247Y-1007984D02*
X-7180294Y-998460D01*
X-7180294Y-998460D02*
X-7189818Y-988936D01*
X-6904104Y-874650D02*
X-6904104Y-1007984D01*
X-6951723Y-798460D02*
X-6999342Y-941317D01*
X-6999342Y-941317D02*
X-6875532Y-941317D01*
X-6808866Y-807984D02*
X-6808866Y-846079D01*
X-6732675Y-807984D02*
X-6732675Y-846079D01*
X-6437437Y-1084174D02*
X-6446961Y-1074651D01*
X-6446961Y-1074651D02*
X-6466009Y-1046079D01*
X-6466009Y-1046079D02*
X-6475532Y-1027031D01*
X-6475532Y-1027031D02*
X-6485056Y-998460D01*
X-6485056Y-998460D02*
X-6494580Y-950841D01*
X-6494580Y-950841D02*
X-6494580Y-912746D01*
X-6494580Y-912746D02*
X-6485056Y-865127D01*
X-6485056Y-865127D02*
X-6475532Y-836555D01*
X-6475532Y-836555D02*
X-6466009Y-817508D01*
X-6466009Y-817508D02*
X-6446961Y-788936D01*
X-6446961Y-788936D02*
X-6437437Y-779412D01*
X-6275532Y-807984D02*
X-6313628Y-807984D01*
X-6313628Y-807984D02*
X-6332675Y-817508D01*
X-6332675Y-817508D02*
X-6342199Y-827031D01*
X-6342199Y-827031D02*
X-6361247Y-855603D01*
X-6361247Y-855603D02*
X-6370770Y-893698D01*
X-6370770Y-893698D02*
X-6370770Y-969889D01*
X-6370770Y-969889D02*
X-6361247Y-988936D01*
X-6361247Y-988936D02*
X-6351723Y-998460D01*
X-6351723Y-998460D02*
X-6332675Y-1007984D01*
X-6332675Y-1007984D02*
X-6294580Y-1007984D01*
X-6294580Y-1007984D02*
X-6275532Y-998460D01*
X-6275532Y-998460D02*
X-6266009Y-988936D01*
X-6266009Y-988936D02*
X-6256485Y-969889D01*
X-6256485Y-969889D02*
X-6256485Y-922270D01*
X-6256485Y-922270D02*
X-6266009Y-903222D01*
X-6266009Y-903222D02*
X-6275532Y-893698D01*
X-6275532Y-893698D02*
X-6294580Y-884174D01*
X-6294580Y-884174D02*
X-6332675Y-884174D01*
X-6332675Y-884174D02*
X-6351723Y-893698D01*
X-6351723Y-893698D02*
X-6361247Y-903222D01*
X-6361247Y-903222D02*
X-6370770Y-922270D01*
X-6132675Y-807984D02*
X-6113628Y-807984D01*
X-6113628Y-807984D02*
X-6094580Y-817508D01*
X-6094580Y-817508D02*
X-6085056Y-827031D01*
X-6085056Y-827031D02*
X-6075532Y-846079D01*
X-6075532Y-846079D02*
X-6066009Y-884174D01*
X-6066009Y-884174D02*
X-6066009Y-931793D01*
X-6066009Y-931793D02*
X-6075532Y-969889D01*
X-6075532Y-969889D02*
X-6085056Y-988936D01*
X-6085056Y-988936D02*
X-6094580Y-998460D01*
X-6094580Y-998460D02*
X-6113628Y-1007984D01*
X-6113628Y-1007984D02*
X-6132675Y-1007984D01*
X-6132675Y-1007984D02*
X-6151723Y-998460D01*
X-6151723Y-998460D02*
X-6161247Y-988936D01*
X-6161247Y-988936D02*
X-6170770Y-969889D01*
X-6170770Y-969889D02*
X-6180294Y-931793D01*
X-6180294Y-931793D02*
X-6180294Y-884174D01*
X-6180294Y-884174D02*
X-6170770Y-846079D01*
X-6170770Y-846079D02*
X-6161247Y-827031D01*
X-6161247Y-827031D02*
X-6151723Y-817508D01*
X-6151723Y-817508D02*
X-6132675Y-807984D01*
X-5827913Y-1007984D02*
X-5827913Y-807984D01*
X-5742199Y-1007984D02*
X-5742199Y-903222D01*
X-5742199Y-903222D02*
X-5751723Y-884174D01*
X-5751723Y-884174D02*
X-5770770Y-874650D01*
X-5770770Y-874650D02*
X-5799342Y-874650D01*
X-5799342Y-874650D02*
X-5818389Y-884174D01*
X-5818389Y-884174D02*
X-5827913Y-893698D01*
X-5618389Y-1007984D02*
X-5637437Y-998460D01*
X-5637437Y-998460D02*
X-5646961Y-988936D01*
X-5646961Y-988936D02*
X-5656485Y-969889D01*
X-5656485Y-969889D02*
X-5656485Y-912746D01*
X-5656485Y-912746D02*
X-5646961Y-893698D01*
X-5646961Y-893698D02*
X-5637437Y-884174D01*
X-5637437Y-884174D02*
X-5618389Y-874650D01*
X-5618389Y-874650D02*
X-5589818Y-874650D01*
X-5589818Y-874650D02*
X-5570770Y-884174D01*
X-5570770Y-884174D02*
X-5561247Y-893698D01*
X-5561247Y-893698D02*
X-5551723Y-912746D01*
X-5551723Y-912746D02*
X-5551723Y-969889D01*
X-5551723Y-969889D02*
X-5561247Y-988936D01*
X-5561247Y-988936D02*
X-5570770Y-998460D01*
X-5570770Y-998460D02*
X-5589818Y-1007984D01*
X-5589818Y-1007984D02*
X-5618389Y-1007984D01*
X-5437437Y-1007984D02*
X-5456485Y-998460D01*
X-5456485Y-998460D02*
X-5466009Y-979412D01*
X-5466009Y-979412D02*
X-5466009Y-807984D01*
X-5285056Y-998460D02*
X-5304104Y-1007984D01*
X-5304104Y-1007984D02*
X-5342199Y-1007984D01*
X-5342199Y-1007984D02*
X-5361247Y-998460D01*
X-5361247Y-998460D02*
X-5370770Y-979412D01*
X-5370770Y-979412D02*
X-5370770Y-903222D01*
X-5370770Y-903222D02*
X-5361247Y-884174D01*
X-5361247Y-884174D02*
X-5342199Y-874650D01*
X-5342199Y-874650D02*
X-5304104Y-874650D01*
X-5304104Y-874650D02*
X-5285056Y-884174D01*
X-5285056Y-884174D02*
X-5275532Y-903222D01*
X-5275532Y-903222D02*
X-5275532Y-922270D01*
X-5275532Y-922270D02*
X-5370770Y-941317D01*
X-5199342Y-998460D02*
X-5180294Y-1007984D01*
X-5180294Y-1007984D02*
X-5142199Y-1007984D01*
X-5142199Y-1007984D02*
X-5123151Y-998460D01*
X-5123151Y-998460D02*
X-5113628Y-979412D01*
X-5113628Y-979412D02*
X-5113628Y-969889D01*
X-5113628Y-969889D02*
X-5123151Y-950841D01*
X-5123151Y-950841D02*
X-5142199Y-941317D01*
X-5142199Y-941317D02*
X-5170770Y-941317D01*
X-5170770Y-941317D02*
X-5189818Y-931793D01*
X-5189818Y-931793D02*
X-5199342Y-912746D01*
X-5199342Y-912746D02*
X-5199342Y-903222D01*
X-5199342Y-903222D02*
X-5189818Y-884174D01*
X-5189818Y-884174D02*
X-5170770Y-874650D01*
X-5170770Y-874650D02*
X-5142199Y-874650D01*
X-5142199Y-874650D02*
X-5123151Y-884174D01*
X-5046961Y-1084174D02*
X-5037437Y-1074651D01*
X-5037437Y-1074651D02*
X-5018389Y-1046079D01*
X-5018389Y-1046079D02*
X-5008866Y-1027031D01*
X-5008866Y-1027031D02*
X-4999342Y-998460D01*
X-4999342Y-998460D02*
X-4989818Y-950841D01*
X-4989818Y-950841D02*
X-4989818Y-912746D01*
X-4989818Y-912746D02*
X-4999342Y-865127D01*
X-4999342Y-865127D02*
X-5008866Y-836555D01*
X-5008866Y-836555D02*
X-5018389Y-817508D01*
X-5018389Y-817508D02*
X-5037437Y-788936D01*
X-5037437Y-788936D02*
X-5046961Y-779412D01*
D12*
X-10062500Y-1130500D02*
X-10062500Y-1230500D01*
X-10112500Y-1180500D02*
X-10012500Y-1180500D01*
D11*
X-9646961Y-1271984D02*
X-9761247Y-1271984D01*
X-9704104Y-1271984D02*
X-9704104Y-1071984D01*
X-9704104Y-1071984D02*
X-9723152Y-1100555D01*
X-9723152Y-1100555D02*
X-9742199Y-1119603D01*
X-9742199Y-1119603D02*
X-9761247Y-1129127D01*
X-9561247Y-1252936D02*
X-9551723Y-1262460D01*
X-9551723Y-1262460D02*
X-9561247Y-1271984D01*
X-9561247Y-1271984D02*
X-9570771Y-1262460D01*
X-9570771Y-1262460D02*
X-9561247Y-1252936D01*
X-9561247Y-1252936D02*
X-9561247Y-1271984D01*
X-9427914Y-1071984D02*
X-9408866Y-1071984D01*
X-9408866Y-1071984D02*
X-9389818Y-1081508D01*
X-9389818Y-1081508D02*
X-9380295Y-1091032D01*
X-9380295Y-1091032D02*
X-9370771Y-1110079D01*
X-9370771Y-1110079D02*
X-9361247Y-1148174D01*
X-9361247Y-1148174D02*
X-9361247Y-1195793D01*
X-9361247Y-1195793D02*
X-9370771Y-1233889D01*
X-9370771Y-1233889D02*
X-9380295Y-1252936D01*
X-9380295Y-1252936D02*
X-9389818Y-1262460D01*
X-9389818Y-1262460D02*
X-9408866Y-1271984D01*
X-9408866Y-1271984D02*
X-9427914Y-1271984D01*
X-9427914Y-1271984D02*
X-9446961Y-1262460D01*
X-9446961Y-1262460D02*
X-9456485Y-1252936D01*
X-9456485Y-1252936D02*
X-9466009Y-1233889D01*
X-9466009Y-1233889D02*
X-9475533Y-1195793D01*
X-9475533Y-1195793D02*
X-9475533Y-1148174D01*
X-9475533Y-1148174D02*
X-9466009Y-1110079D01*
X-9466009Y-1110079D02*
X-9456485Y-1091032D01*
X-9456485Y-1091032D02*
X-9446961Y-1081508D01*
X-9446961Y-1081508D02*
X-9427914Y-1071984D01*
X-9237438Y-1071984D02*
X-9218390Y-1071984D01*
X-9218390Y-1071984D02*
X-9199342Y-1081508D01*
X-9199342Y-1081508D02*
X-9189818Y-1091032D01*
X-9189818Y-1091032D02*
X-9180295Y-1110079D01*
X-9180295Y-1110079D02*
X-9170771Y-1148174D01*
X-9170771Y-1148174D02*
X-9170771Y-1195793D01*
X-9170771Y-1195793D02*
X-9180295Y-1233889D01*
X-9180295Y-1233889D02*
X-9189818Y-1252936D01*
X-9189818Y-1252936D02*
X-9199342Y-1262460D01*
X-9199342Y-1262460D02*
X-9218390Y-1271984D01*
X-9218390Y-1271984D02*
X-9237438Y-1271984D01*
X-9237438Y-1271984D02*
X-9256485Y-1262460D01*
X-9256485Y-1262460D02*
X-9266009Y-1252936D01*
X-9266009Y-1252936D02*
X-9275533Y-1233889D01*
X-9275533Y-1233889D02*
X-9285057Y-1195793D01*
X-9285057Y-1195793D02*
X-9285057Y-1148174D01*
X-9285057Y-1148174D02*
X-9275533Y-1110079D01*
X-9275533Y-1110079D02*
X-9266009Y-1091032D01*
X-9266009Y-1091032D02*
X-9256485Y-1081508D01*
X-9256485Y-1081508D02*
X-9237438Y-1071984D01*
X-9046961Y-1071984D02*
X-9027914Y-1071984D01*
X-9027914Y-1071984D02*
X-9008866Y-1081508D01*
X-9008866Y-1081508D02*
X-8999342Y-1091032D01*
X-8999342Y-1091032D02*
X-8989818Y-1110079D01*
X-8989818Y-1110079D02*
X-8980295Y-1148174D01*
X-8980295Y-1148174D02*
X-8980295Y-1195793D01*
X-8980295Y-1195793D02*
X-8989818Y-1233889D01*
X-8989818Y-1233889D02*
X-8999342Y-1252936D01*
X-8999342Y-1252936D02*
X-9008866Y-1262460D01*
X-9008866Y-1262460D02*
X-9027914Y-1271984D01*
X-9027914Y-1271984D02*
X-9046961Y-1271984D01*
X-9046961Y-1271984D02*
X-9066009Y-1262460D01*
X-9066009Y-1262460D02*
X-9075533Y-1252936D01*
X-9075533Y-1252936D02*
X-9085057Y-1233889D01*
X-9085057Y-1233889D02*
X-9094580Y-1195793D01*
X-9094580Y-1195793D02*
X-9094580Y-1148174D01*
X-9094580Y-1148174D02*
X-9085057Y-1110079D01*
X-9085057Y-1110079D02*
X-9075533Y-1091032D01*
X-9075533Y-1091032D02*
X-9066009Y-1081508D01*
X-9066009Y-1081508D02*
X-9046961Y-1071984D01*
X-8894580Y-1271984D02*
X-8894580Y-1138651D01*
X-8894580Y-1157698D02*
X-8885057Y-1148174D01*
X-8885057Y-1148174D02*
X-8866009Y-1138651D01*
X-8866009Y-1138651D02*
X-8837437Y-1138651D01*
X-8837437Y-1138651D02*
X-8818390Y-1148174D01*
X-8818390Y-1148174D02*
X-8808866Y-1167222D01*
X-8808866Y-1167222D02*
X-8808866Y-1271984D01*
X-8808866Y-1167222D02*
X-8799342Y-1148174D01*
X-8799342Y-1148174D02*
X-8780295Y-1138651D01*
X-8780295Y-1138651D02*
X-8751723Y-1138651D01*
X-8751723Y-1138651D02*
X-8732676Y-1148174D01*
X-8732676Y-1148174D02*
X-8723152Y-1167222D01*
X-8723152Y-1167222D02*
X-8723152Y-1271984D01*
X-8627914Y-1271984D02*
X-8627914Y-1138651D01*
X-8627914Y-1157698D02*
X-8618390Y-1148174D01*
X-8618390Y-1148174D02*
X-8599342Y-1138651D01*
X-8599342Y-1138651D02*
X-8570771Y-1138651D01*
X-8570771Y-1138651D02*
X-8551723Y-1148174D01*
X-8551723Y-1148174D02*
X-8542199Y-1167222D01*
X-8542199Y-1167222D02*
X-8542199Y-1271984D01*
X-8542199Y-1167222D02*
X-8532676Y-1148174D01*
X-8532676Y-1148174D02*
X-8513628Y-1138651D01*
X-8513628Y-1138651D02*
X-8485057Y-1138651D01*
X-8485057Y-1138651D02*
X-8466009Y-1148174D01*
X-8466009Y-1148174D02*
X-8456485Y-1167222D01*
X-8456485Y-1167222D02*
X-8456485Y-1271984D01*
X-8066009Y-1062460D02*
X-8237437Y-1319603D01*
X-7808866Y-1071984D02*
X-7789818Y-1071984D01*
X-7789818Y-1071984D02*
X-7770771Y-1081508D01*
X-7770771Y-1081508D02*
X-7761247Y-1091032D01*
X-7761247Y-1091032D02*
X-7751723Y-1110079D01*
X-7751723Y-1110079D02*
X-7742199Y-1148174D01*
X-7742199Y-1148174D02*
X-7742199Y-1195793D01*
X-7742199Y-1195793D02*
X-7751723Y-1233889D01*
X-7751723Y-1233889D02*
X-7761247Y-1252936D01*
X-7761247Y-1252936D02*
X-7770771Y-1262460D01*
X-7770771Y-1262460D02*
X-7789818Y-1271984D01*
X-7789818Y-1271984D02*
X-7808866Y-1271984D01*
X-7808866Y-1271984D02*
X-7827913Y-1262460D01*
X-7827913Y-1262460D02*
X-7837437Y-1252936D01*
X-7837437Y-1252936D02*
X-7846961Y-1233889D01*
X-7846961Y-1233889D02*
X-7856485Y-1195793D01*
X-7856485Y-1195793D02*
X-7856485Y-1148174D01*
X-7856485Y-1148174D02*
X-7846961Y-1110079D01*
X-7846961Y-1110079D02*
X-7837437Y-1091032D01*
X-7837437Y-1091032D02*
X-7827913Y-1081508D01*
X-7827913Y-1081508D02*
X-7808866Y-1071984D01*
X-7656485Y-1252936D02*
X-7646961Y-1262460D01*
X-7646961Y-1262460D02*
X-7656485Y-1271984D01*
X-7656485Y-1271984D02*
X-7666009Y-1262460D01*
X-7666009Y-1262460D02*
X-7656485Y-1252936D01*
X-7656485Y-1252936D02*
X-7656485Y-1271984D01*
X-7523152Y-1071984D02*
X-7504104Y-1071984D01*
X-7504104Y-1071984D02*
X-7485056Y-1081508D01*
X-7485056Y-1081508D02*
X-7475532Y-1091032D01*
X-7475532Y-1091032D02*
X-7466009Y-1110079D01*
X-7466009Y-1110079D02*
X-7456485Y-1148174D01*
X-7456485Y-1148174D02*
X-7456485Y-1195793D01*
X-7456485Y-1195793D02*
X-7466009Y-1233889D01*
X-7466009Y-1233889D02*
X-7475532Y-1252936D01*
X-7475532Y-1252936D02*
X-7485056Y-1262460D01*
X-7485056Y-1262460D02*
X-7504104Y-1271984D01*
X-7504104Y-1271984D02*
X-7523152Y-1271984D01*
X-7523152Y-1271984D02*
X-7542199Y-1262460D01*
X-7542199Y-1262460D02*
X-7551723Y-1252936D01*
X-7551723Y-1252936D02*
X-7561247Y-1233889D01*
X-7561247Y-1233889D02*
X-7570771Y-1195793D01*
X-7570771Y-1195793D02*
X-7570771Y-1148174D01*
X-7570771Y-1148174D02*
X-7561247Y-1110079D01*
X-7561247Y-1110079D02*
X-7551723Y-1091032D01*
X-7551723Y-1091032D02*
X-7542199Y-1081508D01*
X-7542199Y-1081508D02*
X-7523152Y-1071984D01*
X-7389818Y-1071984D02*
X-7266009Y-1071984D01*
X-7266009Y-1071984D02*
X-7332675Y-1148174D01*
X-7332675Y-1148174D02*
X-7304104Y-1148174D01*
X-7304104Y-1148174D02*
X-7285056Y-1157698D01*
X-7285056Y-1157698D02*
X-7275532Y-1167222D01*
X-7275532Y-1167222D02*
X-7266009Y-1186270D01*
X-7266009Y-1186270D02*
X-7266009Y-1233889D01*
X-7266009Y-1233889D02*
X-7275532Y-1252936D01*
X-7275532Y-1252936D02*
X-7285056Y-1262460D01*
X-7285056Y-1262460D02*
X-7304104Y-1271984D01*
X-7304104Y-1271984D02*
X-7361247Y-1271984D01*
X-7361247Y-1271984D02*
X-7380294Y-1262460D01*
X-7380294Y-1262460D02*
X-7389818Y-1252936D01*
X-7170771Y-1271984D02*
X-7132675Y-1271984D01*
X-7132675Y-1271984D02*
X-7113628Y-1262460D01*
X-7113628Y-1262460D02*
X-7104104Y-1252936D01*
X-7104104Y-1252936D02*
X-7085056Y-1224365D01*
X-7085056Y-1224365D02*
X-7075532Y-1186270D01*
X-7075532Y-1186270D02*
X-7075532Y-1110079D01*
X-7075532Y-1110079D02*
X-7085056Y-1091032D01*
X-7085056Y-1091032D02*
X-7094580Y-1081508D01*
X-7094580Y-1081508D02*
X-7113628Y-1071984D01*
X-7113628Y-1071984D02*
X-7151723Y-1071984D01*
X-7151723Y-1071984D02*
X-7170771Y-1081508D01*
X-7170771Y-1081508D02*
X-7180294Y-1091032D01*
X-7180294Y-1091032D02*
X-7189818Y-1110079D01*
X-7189818Y-1110079D02*
X-7189818Y-1157698D01*
X-7189818Y-1157698D02*
X-7180294Y-1176746D01*
X-7180294Y-1176746D02*
X-7170771Y-1186270D01*
X-7170771Y-1186270D02*
X-7151723Y-1195793D01*
X-7151723Y-1195793D02*
X-7113628Y-1195793D01*
X-7113628Y-1195793D02*
X-7094580Y-1186270D01*
X-7094580Y-1186270D02*
X-7085056Y-1176746D01*
X-7085056Y-1176746D02*
X-7075532Y-1157698D01*
X-6904104Y-1138651D02*
X-6904104Y-1271984D01*
X-6951723Y-1062460D02*
X-6999342Y-1205317D01*
X-6999342Y-1205317D02*
X-6875532Y-1205317D01*
X-6808866Y-1071984D02*
X-6808866Y-1110079D01*
X-6732675Y-1071984D02*
X-6732675Y-1110079D01*
X-6437437Y-1348174D02*
X-6446961Y-1338651D01*
X-6446961Y-1338651D02*
X-6466009Y-1310079D01*
X-6466009Y-1310079D02*
X-6475532Y-1291032D01*
X-6475532Y-1291032D02*
X-6485056Y-1262460D01*
X-6485056Y-1262460D02*
X-6494580Y-1214841D01*
X-6494580Y-1214841D02*
X-6494580Y-1176746D01*
X-6494580Y-1176746D02*
X-6485056Y-1129127D01*
X-6485056Y-1129127D02*
X-6475532Y-1100555D01*
X-6475532Y-1100555D02*
X-6466009Y-1081508D01*
X-6466009Y-1081508D02*
X-6446961Y-1052936D01*
X-6446961Y-1052936D02*
X-6437437Y-1043412D01*
X-6256485Y-1271984D02*
X-6370770Y-1271984D01*
X-6313628Y-1271984D02*
X-6313628Y-1071984D01*
X-6313628Y-1071984D02*
X-6332675Y-1100555D01*
X-6332675Y-1100555D02*
X-6351723Y-1119603D01*
X-6351723Y-1119603D02*
X-6370770Y-1129127D01*
X-6132675Y-1071984D02*
X-6113628Y-1071984D01*
X-6113628Y-1071984D02*
X-6094580Y-1081508D01*
X-6094580Y-1081508D02*
X-6085056Y-1091032D01*
X-6085056Y-1091032D02*
X-6075532Y-1110079D01*
X-6075532Y-1110079D02*
X-6066009Y-1148174D01*
X-6066009Y-1148174D02*
X-6066009Y-1195793D01*
X-6066009Y-1195793D02*
X-6075532Y-1233889D01*
X-6075532Y-1233889D02*
X-6085056Y-1252936D01*
X-6085056Y-1252936D02*
X-6094580Y-1262460D01*
X-6094580Y-1262460D02*
X-6113628Y-1271984D01*
X-6113628Y-1271984D02*
X-6132675Y-1271984D01*
X-6132675Y-1271984D02*
X-6151723Y-1262460D01*
X-6151723Y-1262460D02*
X-6161247Y-1252936D01*
X-6161247Y-1252936D02*
X-6170770Y-1233889D01*
X-6170770Y-1233889D02*
X-6180294Y-1195793D01*
X-6180294Y-1195793D02*
X-6180294Y-1148174D01*
X-6180294Y-1148174D02*
X-6170770Y-1110079D01*
X-6170770Y-1110079D02*
X-6161247Y-1091032D01*
X-6161247Y-1091032D02*
X-6151723Y-1081508D01*
X-6151723Y-1081508D02*
X-6132675Y-1071984D01*
X-5827913Y-1271984D02*
X-5827913Y-1071984D01*
X-5742199Y-1271984D02*
X-5742199Y-1167222D01*
X-5742199Y-1167222D02*
X-5751723Y-1148174D01*
X-5751723Y-1148174D02*
X-5770770Y-1138651D01*
X-5770770Y-1138651D02*
X-5799342Y-1138651D01*
X-5799342Y-1138651D02*
X-5818389Y-1148174D01*
X-5818389Y-1148174D02*
X-5827913Y-1157698D01*
X-5618389Y-1271984D02*
X-5637437Y-1262460D01*
X-5637437Y-1262460D02*
X-5646961Y-1252936D01*
X-5646961Y-1252936D02*
X-5656485Y-1233889D01*
X-5656485Y-1233889D02*
X-5656485Y-1176746D01*
X-5656485Y-1176746D02*
X-5646961Y-1157698D01*
X-5646961Y-1157698D02*
X-5637437Y-1148174D01*
X-5637437Y-1148174D02*
X-5618389Y-1138651D01*
X-5618389Y-1138651D02*
X-5589818Y-1138651D01*
X-5589818Y-1138651D02*
X-5570770Y-1148174D01*
X-5570770Y-1148174D02*
X-5561247Y-1157698D01*
X-5561247Y-1157698D02*
X-5551723Y-1176746D01*
X-5551723Y-1176746D02*
X-5551723Y-1233889D01*
X-5551723Y-1233889D02*
X-5561247Y-1252936D01*
X-5561247Y-1252936D02*
X-5570770Y-1262460D01*
X-5570770Y-1262460D02*
X-5589818Y-1271984D01*
X-5589818Y-1271984D02*
X-5618389Y-1271984D01*
X-5437437Y-1271984D02*
X-5456485Y-1262460D01*
X-5456485Y-1262460D02*
X-5466009Y-1243412D01*
X-5466009Y-1243412D02*
X-5466009Y-1071984D01*
X-5285056Y-1262460D02*
X-5304104Y-1271984D01*
X-5304104Y-1271984D02*
X-5342199Y-1271984D01*
X-5342199Y-1271984D02*
X-5361247Y-1262460D01*
X-5361247Y-1262460D02*
X-5370770Y-1243412D01*
X-5370770Y-1243412D02*
X-5370770Y-1167222D01*
X-5370770Y-1167222D02*
X-5361247Y-1148174D01*
X-5361247Y-1148174D02*
X-5342199Y-1138651D01*
X-5342199Y-1138651D02*
X-5304104Y-1138651D01*
X-5304104Y-1138651D02*
X-5285056Y-1148174D01*
X-5285056Y-1148174D02*
X-5275532Y-1167222D01*
X-5275532Y-1167222D02*
X-5275532Y-1186270D01*
X-5275532Y-1186270D02*
X-5370770Y-1205317D01*
X-5199342Y-1262460D02*
X-5180294Y-1271984D01*
X-5180294Y-1271984D02*
X-5142199Y-1271984D01*
X-5142199Y-1271984D02*
X-5123151Y-1262460D01*
X-5123151Y-1262460D02*
X-5113628Y-1243412D01*
X-5113628Y-1243412D02*
X-5113628Y-1233889D01*
X-5113628Y-1233889D02*
X-5123151Y-1214841D01*
X-5123151Y-1214841D02*
X-5142199Y-1205317D01*
X-5142199Y-1205317D02*
X-5170770Y-1205317D01*
X-5170770Y-1205317D02*
X-5189818Y-1195793D01*
X-5189818Y-1195793D02*
X-5199342Y-1176746D01*
X-5199342Y-1176746D02*
X-5199342Y-1167222D01*
X-5199342Y-1167222D02*
X-5189818Y-1148174D01*
X-5189818Y-1148174D02*
X-5170770Y-1138651D01*
X-5170770Y-1138651D02*
X-5142199Y-1138651D01*
X-5142199Y-1138651D02*
X-5123151Y-1148174D01*
X-5046961Y-1348174D02*
X-5037437Y-1338651D01*
X-5037437Y-1338651D02*
X-5018389Y-1310079D01*
X-5018389Y-1310079D02*
X-5008866Y-1291032D01*
X-5008866Y-1291032D02*
X-4999342Y-1262460D01*
X-4999342Y-1262460D02*
X-4989818Y-1214841D01*
X-4989818Y-1214841D02*
X-4989818Y-1176746D01*
X-4989818Y-1176746D02*
X-4999342Y-1129127D01*
X-4999342Y-1129127D02*
X-5008866Y-1100555D01*
X-5008866Y-1100555D02*
X-5018389Y-1081508D01*
X-5018389Y-1081508D02*
X-5037437Y-1052936D01*
X-5037437Y-1052936D02*
X-5046961Y-1043412D01*
M02*
