M48
; DRILL file {KiCad 8.0.2} date 2024-08-19T13:56:29+0200
; FORMAT={-:-/ absolute / metric / decimal}
; #@! TF.CreationDate,2024-08-19T13:56:29+02:00
; #@! TF.GenerationSoftware,Kicad,Pcbnew,8.0.2
; #@! TF.FileFunction,Plated,1,2,PTH
FMAT,2
METRIC
; #@! TA.AperFunction,Plated,PTH,ViaDrill
T1C0.300
; #@! TA.AperFunction,Plated,PTH,ComponentDrill
T2C0.762
; #@! TA.AperFunction,Plated,PTH,ComponentDrill
T3C1.000
; #@! TA.AperFunction,Plated,PTH,ComponentDrill
T4C1.100
; #@! TA.AperFunction,Plated,PTH,ComponentDrill
T5C2.600
%
G90
G05
T1
X49.75Y41.75
X52.25Y41.75
X63.25Y41.25
X69.0Y25.25
X69.25Y16.75
T2
X11.11Y61.94
X13.65Y61.94
X16.19Y61.94
X18.73Y61.94
X21.27Y61.94
X23.81Y61.94
X26.35Y61.94
X28.89Y61.94
X81.155Y61.854
X83.695Y61.854
X86.235Y61.854
X88.775Y61.854
X91.315Y61.854
X93.855Y61.854
X96.395Y61.854
X98.935Y61.854
T3
X11.15Y67.75
X12.25Y21.25
X12.25Y6.75
X13.69Y67.75
X14.75Y21.25
X16.23Y67.75
X17.25Y21.25
X17.25Y6.75
X18.77Y67.75
X21.31Y67.75
X23.85Y67.75
X49.0Y71.0
X51.54Y71.0
X52.4Y64.75
X52.4Y50.25
X54.08Y71.0
X54.9Y50.25
X55.0Y17.1
X55.0Y10.9
X56.62Y71.0
X57.4Y64.75
X57.4Y50.25
X59.16Y71.0
X61.7Y71.0
X81.15Y67.75
X83.69Y67.75
X86.23Y67.75
X88.77Y67.75
X91.31Y67.75
X93.75Y21.25
X93.75Y6.75
X93.85Y67.75
X96.25Y21.25
X98.75Y21.25
X98.75Y6.75
T4
X51.75Y16.25
X51.75Y11.75
X58.25Y16.25
X58.25Y11.75
T5
X9.15Y13.75
X20.35Y13.75
X49.3Y57.75
X60.5Y57.75
X90.65Y13.75
X101.85Y13.75
M30
