M48
; DRILL file {KiCad 8.0.4} date 2024-08-14T20:48:57+0200
; FORMAT={-:-/ absolute / metric / decimal}
; #@! TF.CreationDate,2024-08-14T20:48:57+02:00
; #@! TF.GenerationSoftware,Kicad,Pcbnew,8.0.4
; #@! TF.FileFunction,Plated,1,2,PTH
FMAT,2
METRIC
; #@! TA.AperFunction,Plated,PTH,ViaDrill
T1C0.300
; #@! TA.AperFunction,Plated,PTH,ComponentDrill
T2C1.000
; #@! TA.AperFunction,Plated,PTH,ComponentDrill
T3C1.100
; #@! TA.AperFunction,Plated,PTH,ComponentDrill
T4C2.600
%
G90
G05
T1
X49.75Y41.75
X52.25Y41.75
X63.25Y41.25
X69.0Y25.25
X69.25Y16.75
T2
X11.145Y57.675
X11.15Y67.75
X12.25Y21.25
X12.25Y6.75
X13.685Y57.675
X13.69Y67.75
X14.75Y21.25
X16.225Y57.675
X16.23Y67.75
X17.25Y21.25
X17.25Y6.75
X18.765Y57.675
X18.77Y67.75
X21.305Y57.675
X21.31Y67.75
X23.845Y57.675
X23.85Y67.75
X26.385Y57.675
X28.925Y57.675
X49.0Y71.0
X51.54Y71.0
X52.4Y64.75
X52.4Y50.25
X54.08Y71.0
X54.9Y50.25
X55.0Y17.1
X55.0Y10.9
X56.62Y71.0
X57.4Y64.75
X57.4Y50.25
X59.16Y71.0
X61.7Y71.0
X81.145Y57.925
X81.15Y67.75
X83.685Y57.925
X83.69Y67.75
X86.225Y57.925
X86.23Y67.75
X88.765Y57.925
X88.77Y67.75
X91.305Y57.925
X91.31Y67.75
X93.75Y21.25
X93.75Y6.75
X93.845Y57.925
X93.85Y67.75
X96.25Y21.25
X96.385Y57.925
X98.75Y21.25
X98.75Y6.75
X98.925Y57.925
T3
X51.75Y16.25
X51.75Y11.75
X58.25Y16.25
X58.25Y11.75
T4
X9.15Y13.75
X20.35Y13.75
X49.3Y57.75
X60.5Y57.75
X90.65Y13.75
X101.85Y13.75
M30
