%TF.GenerationSoftware,KiCad,Pcbnew,9.0.4*%
%TF.CreationDate,2025-09-26T16:19:48+02:00*%
%TF.ProjectId,ht16k33-adapter,68743136-6b33-4332-9d61-646170746572,rev?*%
%TF.SameCoordinates,PX8f0d180PY487ab00*%
%TF.FileFunction,Copper,L1,Top*%
%TF.FilePolarity,Positive*%
%FSLAX46Y46*%
G04 Gerber Fmt 4.6, Leading zero omitted, Abs format (unit mm)*
G04 Created by KiCad (PCBNEW 9.0.4) date 2025-09-26 16:19:48*
%MOMM*%
%LPD*%
G01*
G04 APERTURE LIST*
G04 Aperture macros list*
%AMRoundRect*
0 Rectangle with rounded corners*
0 $1 Rounding radius*
0 $2 $3 $4 $5 $6 $7 $8 $9 X,Y pos of 4 corners*
0 Add a 4 corners polygon primitive as box body*
4,1,4,$2,$3,$4,$5,$6,$7,$8,$9,$2,$3,0*
0 Add four circle primitives for the rounded corners*
1,1,$1+$1,$2,$3*
1,1,$1+$1,$4,$5*
1,1,$1+$1,$6,$7*
1,1,$1+$1,$8,$9*
0 Add four rect primitives between the rounded corners*
20,1,$1+$1,$2,$3,$4,$5,0*
20,1,$1+$1,$4,$5,$6,$7,0*
20,1,$1+$1,$6,$7,$8,$9,0*
20,1,$1+$1,$8,$9,$2,$3,0*%
G04 Aperture macros list end*
%TA.AperFunction,ComponentPad*%
%ADD10RoundRect,0.250000X-1.050000X0.750000X-1.050000X-0.750000X1.050000X-0.750000X1.050000X0.750000X0*%
%TD*%
%TA.AperFunction,ComponentPad*%
%ADD11O,2.600000X2.000000*%
%TD*%
%TA.AperFunction,SMDPad,CuDef*%
%ADD12RoundRect,0.150000X-0.875000X-0.150000X0.875000X-0.150000X0.875000X0.150000X-0.875000X0.150000X0*%
%TD*%
%TA.AperFunction,Conductor*%
%ADD13C,0.609600*%
%TD*%
G04 APERTURE END LIST*
D10*
%TO.P,J2,1,Pin_1*%
%TO.N,Net-(J2-Pin_1)*%
X-4499000Y-3279000D03*
D11*
%TO.P,J2,2,Pin_2*%
%TO.N,Net-(J2-Pin_2)*%
X-4499000Y-6779000D03*
%TO.P,J2,3,Pin_3*%
%TO.N,Net-(J2-Pin_3)*%
X-4499000Y-10279000D03*
%TO.P,J2,4,Pin_4*%
%TO.N,Net-(J2-Pin_4)*%
X-4499000Y-13779000D03*
%TO.P,J2,5,Pin_5*%
%TO.N,Net-(J2-Pin_5)*%
X-4499000Y-17279000D03*
%TO.P,J2,6,Pin_6*%
%TO.N,Net-(J2-Pin_6)*%
X-4499000Y-20779000D03*
%TO.P,J2,7,Pin_7*%
%TO.N,Net-(J2-Pin_7)*%
X-4499000Y-24279000D03*
%TO.P,J2,8,Pin_8*%
%TO.N,Net-(J2-Pin_8)*%
X-4499000Y-27779000D03*
%TO.P,J2,9,Pin_9*%
%TO.N,Net-(J2-Pin_9)*%
X-4499000Y-31279000D03*
%TO.P,J2,10,Pin_10*%
%TO.N,Net-(J2-Pin_10)*%
X-4499000Y-34779000D03*
%TO.P,J2,11,Pin_11*%
%TO.N,Net-(J2-Pin_11)*%
X-4499000Y-38279000D03*
%TO.P,J2,12,Pin_12*%
%TO.N,Net-(J2-Pin_12)*%
X-4499000Y-41779000D03*
%TD*%
D12*
%TO.P,U1,1,VSS*%
%TO.N,Net-(J1-Pin_1)*%
X-26563000Y-14909000D03*
%TO.P,U1,2,COM0/AD*%
%TO.N,Net-(J1-Pin_2)*%
X-26563000Y-16179000D03*
%TO.P,U1,3,COM1/KS0*%
%TO.N,Net-(J1-Pin_3)*%
X-26563000Y-17449000D03*
%TO.P,U1,4,COM2/KS1*%
%TO.N,Net-(J1-Pin_4)*%
X-26563000Y-18719000D03*
%TO.P,U1,5,COM3/KS2*%
%TO.N,Net-(J1-Pin_5)*%
X-26563000Y-19989000D03*
%TO.P,U1,6,COM4*%
%TO.N,Net-(J1-Pin_6)*%
X-26563000Y-21259000D03*
%TO.P,U1,7,COM5*%
%TO.N,Net-(J1-Pin_7)*%
X-26563000Y-22529000D03*
%TO.P,U1,8,COM6*%
%TO.N,Net-(J1-Pin_8)*%
X-26563000Y-23799000D03*
%TO.P,U1,9,COM7*%
%TO.N,Net-(J1-Pin_9)*%
X-26563000Y-25069000D03*
%TO.P,U1,10,ROW11/K10/INT*%
%TO.N,Net-(J1-Pin_10)*%
X-26563000Y-26339000D03*
%TO.P,U1,11,ROW10/K9*%
%TO.N,Net-(J1-Pin_11)*%
X-26563000Y-27609000D03*
%TO.P,U1,12,ROW9/K8*%
%TO.N,Net-(J1-Pin_12)*%
X-26563000Y-28879000D03*
%TO.P,U1,13,ROW8/K7*%
%TO.N,Net-(J2-Pin_12)*%
X-17263000Y-28879000D03*
%TO.P,U1,14,ROW7/K6*%
%TO.N,Net-(J2-Pin_11)*%
X-17263000Y-27609000D03*
%TO.P,U1,15,ROW6/K5*%
%TO.N,Net-(J2-Pin_10)*%
X-17263000Y-26339000D03*
%TO.P,U1,16,ROW5/K4*%
%TO.N,Net-(J2-Pin_9)*%
X-17263000Y-25069000D03*
%TO.P,U1,17,ROW4/K3*%
%TO.N,Net-(J2-Pin_8)*%
X-17263000Y-23799000D03*
%TO.P,U1,18,ROW3/K2*%
%TO.N,Net-(J2-Pin_7)*%
X-17263000Y-22529000D03*
%TO.P,U1,19,ROW2/K1*%
%TO.N,Net-(J2-Pin_6)*%
X-17263000Y-21259000D03*
%TO.P,U1,20,ROW1/A0*%
%TO.N,Net-(J2-Pin_5)*%
X-17263000Y-19989000D03*
%TO.P,U1,21,ROW0/A1*%
%TO.N,Net-(J2-Pin_4)*%
X-17263000Y-18719000D03*
%TO.P,U1,22,SCL*%
%TO.N,Net-(J2-Pin_3)*%
X-17263000Y-17449000D03*
%TO.P,U1,23,SDA*%
%TO.N,Net-(J2-Pin_2)*%
X-17263000Y-16179000D03*
%TO.P,U1,24,VDD*%
%TO.N,Net-(J2-Pin_1)*%
X-17263000Y-14909000D03*
%TD*%
D10*
%TO.P,J1,1,Pin_1*%
%TO.N,Net-(J1-Pin_1)*%
X-37773000Y-2517000D03*
D11*
%TO.P,J1,2,Pin_2*%
%TO.N,Net-(J1-Pin_2)*%
X-37773000Y-6017000D03*
%TO.P,J1,3,Pin_3*%
%TO.N,Net-(J1-Pin_3)*%
X-37773000Y-9517000D03*
%TO.P,J1,4,Pin_4*%
%TO.N,Net-(J1-Pin_4)*%
X-37773000Y-13017000D03*
%TO.P,J1,5,Pin_5*%
%TO.N,Net-(J1-Pin_5)*%
X-37773000Y-16517000D03*
%TO.P,J1,6,Pin_6*%
%TO.N,Net-(J1-Pin_6)*%
X-37773000Y-20017000D03*
%TO.P,J1,7,Pin_7*%
%TO.N,Net-(J1-Pin_7)*%
X-37773000Y-23517000D03*
%TO.P,J1,8,Pin_8*%
%TO.N,Net-(J1-Pin_8)*%
X-37773000Y-27017000D03*
%TO.P,J1,9,Pin_9*%
%TO.N,Net-(J1-Pin_9)*%
X-37773000Y-30517000D03*
%TO.P,J1,10,Pin_10*%
%TO.N,Net-(J1-Pin_10)*%
X-37773000Y-34017000D03*
%TO.P,J1,11,Pin_11*%
%TO.N,Net-(J1-Pin_11)*%
X-37773000Y-37517000D03*
%TO.P,J1,12,Pin_12*%
%TO.N,Net-(J1-Pin_12)*%
X-37773000Y-41017000D03*
%TD*%
D13*
%TO.N,Net-(J2-Pin_12)*%
X-17263000Y-28879000D02*
X-14387000Y-28879000D01*
X-14387000Y-28879000D02*
X-13856000Y-29410000D01*
X-13856000Y-29410000D02*
X-13856000Y-40332000D01*
X-13856000Y-40332000D02*
X-12409000Y-41779000D01*
X-12409000Y-41779000D02*
X-4499000Y-41779000D01*
%TO.N,Net-(J2-Pin_11)*%
X-17263000Y-27609000D02*
X-13117000Y-27609000D01*
X-13117000Y-27609000D02*
X-12586000Y-28140000D01*
X-12586000Y-28140000D02*
X-12586000Y-37284000D01*
X-12586000Y-37284000D02*
X-11591000Y-38279000D01*
X-11591000Y-38279000D02*
X-4499000Y-38279000D01*
%TO.N,Net-(J2-Pin_10)*%
X-17263000Y-26339000D02*
X-12101000Y-26339000D01*
X-12101000Y-26339000D02*
X-11062000Y-27378000D01*
X-11062000Y-27378000D02*
X-11062000Y-33728000D01*
X-11062000Y-33728000D02*
X-10011000Y-34779000D01*
X-10011000Y-34779000D02*
X-4499000Y-34779000D01*
%TO.N,Net-(J2-Pin_9)*%
X-17263000Y-25069000D02*
X-10577000Y-25069000D01*
X-10577000Y-25069000D02*
X-9792000Y-25854000D01*
X-9792000Y-25854000D02*
X-9792000Y-30172000D01*
X-9792000Y-30172000D02*
X-8685000Y-31279000D01*
X-8685000Y-31279000D02*
X-4499000Y-31279000D01*
%TO.N,Net-(J2-Pin_8)*%
X-17263000Y-23799000D02*
X-9561000Y-23799000D01*
X-9561000Y-23799000D02*
X-8268000Y-25092000D01*
X-8268000Y-25092000D02*
X-8268000Y-26616000D01*
X-8268000Y-26616000D02*
X-7105000Y-27779000D01*
X-7105000Y-27779000D02*
X-4499000Y-27779000D01*
%TO.N,Net-(J2-Pin_7)*%
X-17263000Y-22529000D02*
X-9053000Y-22529000D01*
X-9053000Y-22529000D02*
X-7303000Y-24279000D01*
X-7303000Y-24279000D02*
X-4499000Y-24279000D01*
%TO.N,Net-(J2-Pin_1)*%
X-17263000Y-14909000D02*
X-13325000Y-14909000D01*
X-12586000Y-14170000D02*
X-12586000Y-5026000D01*
X-13325000Y-14909000D02*
X-12586000Y-14170000D01*
X-12586000Y-5026000D02*
X-10839000Y-3279000D01*
X-10839000Y-3279000D02*
X-4499000Y-3279000D01*
%TO.N,Net-(J2-Pin_2)*%
X-17263000Y-16179000D02*
X-11547000Y-16179000D01*
X-11062000Y-7820000D02*
X-10021000Y-6779000D01*
X-11547000Y-16179000D02*
X-11062000Y-15694000D01*
X-11062000Y-15694000D02*
X-11062000Y-7820000D01*
X-10021000Y-6779000D02*
X-4499000Y-6779000D01*
%TO.N,Net-(J2-Pin_3)*%
X-17263000Y-17449000D02*
X-10531000Y-17449000D01*
X-10531000Y-17449000D02*
X-9792000Y-16710000D01*
X-9792000Y-16710000D02*
X-9792000Y-11630000D01*
X-9792000Y-11630000D02*
X-8441000Y-10279000D01*
X-8441000Y-10279000D02*
X-4499000Y-10279000D01*
%TO.N,Net-(J2-Pin_4)*%
X-17263000Y-18719000D02*
X-9515000Y-18719000D01*
X-9515000Y-18719000D02*
X-8522000Y-17726000D01*
X-8522000Y-17726000D02*
X-8522000Y-14932000D01*
X-8522000Y-14932000D02*
X-7369000Y-13779000D01*
X-7369000Y-13779000D02*
X-4499000Y-13779000D01*
%TO.N,Net-(J2-Pin_5)*%
X-17263000Y-19989000D02*
X-9261000Y-19989000D01*
X-9261000Y-19989000D02*
X-6551000Y-17279000D01*
X-6551000Y-17279000D02*
X-4499000Y-17279000D01*
%TO.N,Net-(J2-Pin_6)*%
X-9007000Y-21259000D02*
X-8522000Y-20774000D01*
X-8522000Y-20774000D02*
X-8517000Y-20779000D01*
X-17263000Y-21259000D02*
X-9007000Y-21259000D01*
X-8517000Y-20779000D02*
X-4499000Y-20779000D01*
%TO.N,Net-(J1-Pin_1)*%
X-26563000Y-14909000D02*
X-28865000Y-14909000D01*
X-29604000Y-4010000D02*
X-31097000Y-2517000D01*
X-28865000Y-14909000D02*
X-29604000Y-14170000D01*
X-31097000Y-2517000D02*
X-37773000Y-2517000D01*
X-29604000Y-14170000D02*
X-29604000Y-4010000D01*
%TO.N,Net-(J1-Pin_2)*%
X-37773000Y-6017000D02*
X-32423000Y-6017000D01*
X-32423000Y-6017000D02*
X-31128000Y-7312000D01*
X-31128000Y-7312000D02*
X-31128000Y-15440000D01*
X-31128000Y-15440000D02*
X-30389000Y-16179000D01*
X-30389000Y-16179000D02*
X-26563000Y-16179000D01*
%TO.N,Net-(J1-Pin_3)*%
X-26563000Y-17449000D02*
X-31659000Y-17449000D01*
X-31659000Y-17449000D02*
X-32652000Y-16456000D01*
X-32652000Y-16456000D02*
X-32652000Y-10868000D01*
X-32652000Y-10868000D02*
X-34003000Y-9517000D01*
X-34003000Y-9517000D02*
X-37773000Y-9517000D01*
%TO.N,Net-(J1-Pin_4)*%
X-26563000Y-18719000D02*
X-32675000Y-18719000D01*
X-32675000Y-18719000D02*
X-34176000Y-17218000D01*
X-35075000Y-13017000D02*
X-37773000Y-13017000D01*
X-34176000Y-17218000D02*
X-34176000Y-13916000D01*
X-34176000Y-13916000D02*
X-35075000Y-13017000D01*
%TO.N,Net-(J1-Pin_12)*%
X-26563000Y-28879000D02*
X-30343000Y-28879000D01*
X-30343000Y-28879000D02*
X-30620000Y-29156000D01*
X-30620000Y-29156000D02*
X-30620000Y-39062000D01*
X-30620000Y-39062000D02*
X-32575000Y-41017000D01*
X-32575000Y-41017000D02*
X-37773000Y-41017000D01*
%TO.N,Net-(J1-Pin_11)*%
X-26563000Y-27609000D02*
X-30597000Y-27609000D01*
X-30597000Y-27609000D02*
X-31890000Y-28902000D01*
X-31890000Y-28902000D02*
X-31890000Y-35252000D01*
X-31890000Y-35252000D02*
X-34155000Y-37517000D01*
X-34155000Y-37517000D02*
X-37773000Y-37517000D01*
%TO.N,Net-(J1-Pin_10)*%
X-26563000Y-26339000D02*
X-31867000Y-26339000D01*
X-31867000Y-26339000D02*
X-33414000Y-27886000D01*
X-33414000Y-27886000D02*
X-33414000Y-31696000D01*
X-33414000Y-31696000D02*
X-35735000Y-34017000D01*
X-35735000Y-34017000D02*
X-37773000Y-34017000D01*
%TO.N,Net-(J1-Pin_9)*%
X-37773000Y-30517000D02*
X-36045000Y-30517000D01*
X-36045000Y-30517000D02*
X-34938000Y-29410000D01*
X-34938000Y-27378000D02*
X-34938000Y-29410000D01*
X-26563000Y-25069000D02*
X-32629000Y-25069000D01*
X-32629000Y-25069000D02*
X-34938000Y-27378000D01*
%TO.N,Net-(J1-Pin_8)*%
X-26563000Y-23799000D02*
X-34153000Y-23799000D01*
X-34153000Y-23799000D02*
X-35192000Y-24838000D01*
X-35192000Y-24838000D02*
X-35192000Y-25854000D01*
X-35192000Y-25854000D02*
X-36355000Y-27017000D01*
X-36355000Y-27017000D02*
X-37773000Y-27017000D01*
%TO.N,Net-(J1-Pin_7)*%
X-26563000Y-22529000D02*
X-36785000Y-22529000D01*
X-36785000Y-22529000D02*
X-37773000Y-23517000D01*
%TO.N,Net-(J1-Pin_5)*%
X-26563000Y-19989000D02*
X-33556114Y-19989000D01*
X-33556114Y-19989000D02*
X-37028114Y-16517000D01*
X-37028114Y-16517000D02*
X-37773000Y-16517000D01*
%TO.N,Net-(J1-Pin_6)*%
X-26563000Y-21259000D02*
X-33437000Y-21259000D01*
X-33437000Y-21259000D02*
X-34679000Y-20017000D01*
X-34679000Y-20017000D02*
X-37773000Y-20017000D01*
%TD*%
%TA.AperFunction,NonConductor*%
G36*
X-557461Y-520185D02*
G01*
X-511706Y-572989D01*
X-500500Y-624500D01*
X-500500Y-45875500D01*
X-520185Y-45942539D01*
X-572989Y-45988294D01*
X-624500Y-45999500D01*
X-40875500Y-45999500D01*
X-40942539Y-45979815D01*
X-40988294Y-45927011D01*
X-40999500Y-45875500D01*
X-40999500Y-1716983D01*
X-39573500Y-1716983D01*
X-39573500Y-3317001D01*
X-39573499Y-3317018D01*
X-39563000Y-3419796D01*
X-39562999Y-3419799D01*
X-39528986Y-3522441D01*
X-39507814Y-3586334D01*
X-39415712Y-3735656D01*
X-39291656Y-3859712D01*
X-39142334Y-3951814D01*
X-38975797Y-4006999D01*
X-38873009Y-4017500D01*
X-36672992Y-4017499D01*
X-36570203Y-4006999D01*
X-36403666Y-3951814D01*
X-36254344Y-3859712D01*
X-36130288Y-3735656D01*
X-36038186Y-3586334D01*
X-35994128Y-3453375D01*
X-35980871Y-3413370D01*
X-35979573Y-3413800D01*
X-35949840Y-3358913D01*
X-35888629Y-3325223D01*
X-35861865Y-3322300D01*
X-31481928Y-3322300D01*
X-31414889Y-3341985D01*
X-31394247Y-3358619D01*
X-30445619Y-4307247D01*
X-30412134Y-4368570D01*
X-30409300Y-4394928D01*
X-30409300Y-6592470D01*
X-30428985Y-6659509D01*
X-30481789Y-6705264D01*
X-30550947Y-6715208D01*
X-30614503Y-6686183D01*
X-30620981Y-6680151D01*
X-31790412Y-5510722D01*
X-31790415Y-5510718D01*
X-31790415Y-5510719D01*
X-31797482Y-5503652D01*
X-31797482Y-5503651D01*
X-31909651Y-5391482D01*
X-31909652Y-5391481D01*
X-31909653Y-5391480D01*
X-32041541Y-5303355D01*
X-32041554Y-5303348D01*
X-32188099Y-5242648D01*
X-32188109Y-5242645D01*
X-32343683Y-5211699D01*
X-32343685Y-5211699D01*
X-32502315Y-5211699D01*
X-32508429Y-5211699D01*
X-32508449Y-5211700D01*
X-36140184Y-5211700D01*
X-36207223Y-5192015D01*
X-36240502Y-5160586D01*
X-36276202Y-5111449D01*
X-36328483Y-5039490D01*
X-36495490Y-4872483D01*
X-36686567Y-4733657D01*
X-36725515Y-4713812D01*
X-36897004Y-4626433D01*
X-37121632Y-4553446D01*
X-37354903Y-4516500D01*
X-37354908Y-4516500D01*
X-38191092Y-4516500D01*
X-38191097Y-4516500D01*
X-38424369Y-4553446D01*
X-38648997Y-4626433D01*
X-38859434Y-4733657D01*
X-38968450Y-4812862D01*
X-39050510Y-4872483D01*
X-39050512Y-4872485D01*
X-39050513Y-4872485D01*
X-39217515Y-5039487D01*
X-39217515Y-5039488D01*
X-39217517Y-5039490D01*
X-39265342Y-5105315D01*
X-39356343Y-5230566D01*
X-39463567Y-5441003D01*
X-39536554Y-5665631D01*
X-39573500Y-5898902D01*
X-39573500Y-6135097D01*
X-39536554Y-6368368D01*
X-39463567Y-6592996D01*
X-39416085Y-6686183D01*
X-39356343Y-6803433D01*
X-39217517Y-6994510D01*
X-39050510Y-7161517D01*
X-38859433Y-7300343D01*
X-38760009Y-7351002D01*
X-38648997Y-7407566D01*
X-38648995Y-7407566D01*
X-38648992Y-7407568D01*
X-38553649Y-7438547D01*
X-38424369Y-7480553D01*
X-38191097Y-7517500D01*
X-38191092Y-7517500D01*
X-37354903Y-7517500D01*
X-37121632Y-7480553D01*
X-37029887Y-7450743D01*
X-36897008Y-7407568D01*
X-36686567Y-7300343D01*
X-36495490Y-7161517D01*
X-36328483Y-6994510D01*
X-36240501Y-6873413D01*
X-36185172Y-6830749D01*
X-36140184Y-6822300D01*
X-32807928Y-6822300D01*
X-32740889Y-6841985D01*
X-32720247Y-6858619D01*
X-31969619Y-7609247D01*
X-31936134Y-7670570D01*
X-31933300Y-7696928D01*
X-31933300Y-10148470D01*
X-31952985Y-10215509D01*
X-32005789Y-10261264D01*
X-32074947Y-10271208D01*
X-32138503Y-10242183D01*
X-32144981Y-10236151D01*
X-33370412Y-9010722D01*
X-33370415Y-9010718D01*
X-33370415Y-9010719D01*
X-33377482Y-9003652D01*
X-33377482Y-9003651D01*
X-33489651Y-8891482D01*
X-33489652Y-8891481D01*
X-33489653Y-8891480D01*
X-33621541Y-8803355D01*
X-33621554Y-8803348D01*
X-33768099Y-8742648D01*
X-33768109Y-8742645D01*
X-33923683Y-8711699D01*
X-33923685Y-8711699D01*
X-34082315Y-8711699D01*
X-34088429Y-8711699D01*
X-34088449Y-8711700D01*
X-36140184Y-8711700D01*
X-36207223Y-8692015D01*
X-36240502Y-8660586D01*
X-36328483Y-8539490D01*
X-36495490Y-8372483D01*
X-36686567Y-8233657D01*
X-36897004Y-8126433D01*
X-37121632Y-8053446D01*
X-37354903Y-8016500D01*
X-37354908Y-8016500D01*
X-38191092Y-8016500D01*
X-38191097Y-8016500D01*
X-38424369Y-8053446D01*
X-38648997Y-8126433D01*
X-38859434Y-8233657D01*
X-38968450Y-8312862D01*
X-39050510Y-8372483D01*
X-39050512Y-8372485D01*
X-39050513Y-8372485D01*
X-39217515Y-8539487D01*
X-39217515Y-8539488D01*
X-39217517Y-8539490D01*
X-39277138Y-8621550D01*
X-39356343Y-8730566D01*
X-39463567Y-8941003D01*
X-39536554Y-9165631D01*
X-39573500Y-9398902D01*
X-39573500Y-9635097D01*
X-39536554Y-9868368D01*
X-39463567Y-10092996D01*
X-39356343Y-10303433D01*
X-39217517Y-10494510D01*
X-39050510Y-10661517D01*
X-38859433Y-10800343D01*
X-38760009Y-10851002D01*
X-38648997Y-10907566D01*
X-38648995Y-10907566D01*
X-38648992Y-10907568D01*
X-38528588Y-10946689D01*
X-38424369Y-10980553D01*
X-38191097Y-11017500D01*
X-38191092Y-11017500D01*
X-37354903Y-11017500D01*
X-37121632Y-10980553D01*
X-36897008Y-10907568D01*
X-36686567Y-10800343D01*
X-36495490Y-10661517D01*
X-36328483Y-10494510D01*
X-36240501Y-10373413D01*
X-36185172Y-10330749D01*
X-36140184Y-10322300D01*
X-34387928Y-10322300D01*
X-34320889Y-10341985D01*
X-34300247Y-10358619D01*
X-33493619Y-11165247D01*
X-33460134Y-11226570D01*
X-33457300Y-11252928D01*
X-33457300Y-13196472D01*
X-33476985Y-13263511D01*
X-33529789Y-13309266D01*
X-33598947Y-13319210D01*
X-33662503Y-13290185D01*
X-33668981Y-13284153D01*
X-34445142Y-12507992D01*
X-34445162Y-12507970D01*
X-34561648Y-12391484D01*
X-34561652Y-12391481D01*
X-34693541Y-12303355D01*
X-34693554Y-12303348D01*
X-34840099Y-12242648D01*
X-34840109Y-12242645D01*
X-34995683Y-12211699D01*
X-34995685Y-12211699D01*
X-35154315Y-12211699D01*
X-35160429Y-12211699D01*
X-35160449Y-12211700D01*
X-36140184Y-12211700D01*
X-36207223Y-12192015D01*
X-36240502Y-12160586D01*
X-36328483Y-12039490D01*
X-36495490Y-11872483D01*
X-36686567Y-11733657D01*
X-36897004Y-11626433D01*
X-37121632Y-11553446D01*
X-37354903Y-11516500D01*
X-37354908Y-11516500D01*
X-38191092Y-11516500D01*
X-38191097Y-11516500D01*
X-38424369Y-11553446D01*
X-38648997Y-11626433D01*
X-38859434Y-11733657D01*
X-38968450Y-11812862D01*
X-39050510Y-11872483D01*
X-39050512Y-11872485D01*
X-39050513Y-11872485D01*
X-39217515Y-12039487D01*
X-39217515Y-12039488D01*
X-39217517Y-12039490D01*
X-39277138Y-12121550D01*
X-39356343Y-12230566D01*
X-39463567Y-12441003D01*
X-39536554Y-12665631D01*
X-39573500Y-12898902D01*
X-39573500Y-13135097D01*
X-39536554Y-13368368D01*
X-39463567Y-13592996D01*
X-39365698Y-13785072D01*
X-39356343Y-13803433D01*
X-39217517Y-13994510D01*
X-39050510Y-14161517D01*
X-38859433Y-14300343D01*
X-38760009Y-14351002D01*
X-38648997Y-14407566D01*
X-38648995Y-14407566D01*
X-38648992Y-14407568D01*
X-38528588Y-14446689D01*
X-38424369Y-14480553D01*
X-38191097Y-14517500D01*
X-38191092Y-14517500D01*
X-37354903Y-14517500D01*
X-37121632Y-14480553D01*
X-36897008Y-14407568D01*
X-36686567Y-14300343D01*
X-36495490Y-14161517D01*
X-36328483Y-13994510D01*
X-36240501Y-13873413D01*
X-36185172Y-13830749D01*
X-36140184Y-13822300D01*
X-35459928Y-13822300D01*
X-35392889Y-13841985D01*
X-35372247Y-13858619D01*
X-35017619Y-14213247D01*
X-34984134Y-14274570D01*
X-34981300Y-14300928D01*
X-34981300Y-17125586D01*
X-35000985Y-17192625D01*
X-35053789Y-17238380D01*
X-35122947Y-17248324D01*
X-35186503Y-17219299D01*
X-35192981Y-17213267D01*
X-35937454Y-16468794D01*
X-35970939Y-16407471D01*
X-35972246Y-16400511D01*
X-35977369Y-16368166D01*
X-36009447Y-16165632D01*
X-36082432Y-15941008D01*
X-36082434Y-15941005D01*
X-36082434Y-15941003D01*
X-36143348Y-15821453D01*
X-36189657Y-15730567D01*
X-36328483Y-15539490D01*
X-36495490Y-15372483D01*
X-36686567Y-15233657D01*
X-36706811Y-15223342D01*
X-36897004Y-15126433D01*
X-37121632Y-15053446D01*
X-37354903Y-15016500D01*
X-37354908Y-15016500D01*
X-38191092Y-15016500D01*
X-38191097Y-15016500D01*
X-38424369Y-15053446D01*
X-38648997Y-15126433D01*
X-38859434Y-15233657D01*
X-38941158Y-15293034D01*
X-39050510Y-15372483D01*
X-39050512Y-15372485D01*
X-39050513Y-15372485D01*
X-39217515Y-15539487D01*
X-39217515Y-15539488D01*
X-39217517Y-15539490D01*
X-39277138Y-15621550D01*
X-39356343Y-15730566D01*
X-39463567Y-15941003D01*
X-39536554Y-16165631D01*
X-39573500Y-16398902D01*
X-39573500Y-16635097D01*
X-39536554Y-16868368D01*
X-39463567Y-17092996D01*
X-39359460Y-17297315D01*
X-39356343Y-17303433D01*
X-39217517Y-17494510D01*
X-39050510Y-17661517D01*
X-38859433Y-17800343D01*
X-38760009Y-17851002D01*
X-38648997Y-17907566D01*
X-38648995Y-17907566D01*
X-38648992Y-17907568D01*
X-38528588Y-17946689D01*
X-38424369Y-17980553D01*
X-38191097Y-18017500D01*
X-38191092Y-18017500D01*
X-37354903Y-18017500D01*
X-37121632Y-17980553D01*
X-36897008Y-17907568D01*
X-36896998Y-17907563D01*
X-36892499Y-17905701D01*
X-36892059Y-17906765D01*
X-36828740Y-17894864D01*
X-36763996Y-17921130D01*
X-36753414Y-17930566D01*
X-35683961Y-19000019D01*
X-35650476Y-19061342D01*
X-35655460Y-19131034D01*
X-35697332Y-19186967D01*
X-35762796Y-19211384D01*
X-35771642Y-19211700D01*
X-36140184Y-19211700D01*
X-36207223Y-19192015D01*
X-36240502Y-19160586D01*
X-36328483Y-19039490D01*
X-36495490Y-18872483D01*
X-36686567Y-18733657D01*
X-36897004Y-18626433D01*
X-37121632Y-18553446D01*
X-37354903Y-18516500D01*
X-37354908Y-18516500D01*
X-38191092Y-18516500D01*
X-38191097Y-18516500D01*
X-38424369Y-18553446D01*
X-38648997Y-18626433D01*
X-38859434Y-18733657D01*
X-38968450Y-18812862D01*
X-39050510Y-18872483D01*
X-39050512Y-18872485D01*
X-39050513Y-18872485D01*
X-39217515Y-19039487D01*
X-39217515Y-19039488D01*
X-39217517Y-19039490D01*
X-39233393Y-19061342D01*
X-39356343Y-19230566D01*
X-39463567Y-19441003D01*
X-39536554Y-19665631D01*
X-39573500Y-19898902D01*
X-39573500Y-20135097D01*
X-39536554Y-20368368D01*
X-39463567Y-20592996D01*
X-39356343Y-20803433D01*
X-39217517Y-20994510D01*
X-39050510Y-21161517D01*
X-38859433Y-21300343D01*
X-38760009Y-21351002D01*
X-38648997Y-21407566D01*
X-38648995Y-21407566D01*
X-38648992Y-21407568D01*
X-38528588Y-21446689D01*
X-38424369Y-21480553D01*
X-38191097Y-21517500D01*
X-38191092Y-21517500D01*
X-37354903Y-21517500D01*
X-37121632Y-21480553D01*
X-36897008Y-21407568D01*
X-36686567Y-21300343D01*
X-36495490Y-21161517D01*
X-36328483Y-20994510D01*
X-36240501Y-20873413D01*
X-36185172Y-20830749D01*
X-36140184Y-20822300D01*
X-35063928Y-20822300D01*
X-34996889Y-20841985D01*
X-34976247Y-20858619D01*
X-34322847Y-21512019D01*
X-34289362Y-21573342D01*
X-34294346Y-21643034D01*
X-34336218Y-21698967D01*
X-34401682Y-21723384D01*
X-34410528Y-21723700D01*
X-36699551Y-21723700D01*
X-36699571Y-21723699D01*
X-36705685Y-21723699D01*
X-36864315Y-21723699D01*
X-36864317Y-21723699D01*
X-37019892Y-21754645D01*
X-37019902Y-21754648D01*
X-37166447Y-21815348D01*
X-37166460Y-21815355D01*
X-37298348Y-21903480D01*
X-37318381Y-21923514D01*
X-37375050Y-21980182D01*
X-37436370Y-22013666D01*
X-37462729Y-22016500D01*
X-38191097Y-22016500D01*
X-38424369Y-22053446D01*
X-38648997Y-22126433D01*
X-38859434Y-22233657D01*
X-38968450Y-22312862D01*
X-39050510Y-22372483D01*
X-39050512Y-22372485D01*
X-39050513Y-22372485D01*
X-39217515Y-22539487D01*
X-39217515Y-22539488D01*
X-39217517Y-22539490D01*
X-39277138Y-22621550D01*
X-39356343Y-22730566D01*
X-39463567Y-22941003D01*
X-39536554Y-23165631D01*
X-39573500Y-23398902D01*
X-39573500Y-23635097D01*
X-39536554Y-23868368D01*
X-39463567Y-24092996D01*
X-39356343Y-24303433D01*
X-39217517Y-24494510D01*
X-39050510Y-24661517D01*
X-38859433Y-24800343D01*
X-38760009Y-24851002D01*
X-38648997Y-24907566D01*
X-38648995Y-24907566D01*
X-38648992Y-24907568D01*
X-38600115Y-24923449D01*
X-38424369Y-24980553D01*
X-38191097Y-25017500D01*
X-38191092Y-25017500D01*
X-37354903Y-25017500D01*
X-37121632Y-24980553D01*
X-36897008Y-24907568D01*
X-36686567Y-24800343D01*
X-36495490Y-24661517D01*
X-36328483Y-24494510D01*
X-36189657Y-24303433D01*
X-36082432Y-24092992D01*
X-36009447Y-23868368D01*
X-35972500Y-23635097D01*
X-35972500Y-23458300D01*
X-35952815Y-23391261D01*
X-35900011Y-23345506D01*
X-35848500Y-23334300D01*
X-35126528Y-23334300D01*
X-35059489Y-23353985D01*
X-35013734Y-23406789D01*
X-35003790Y-23475947D01*
X-35032815Y-23539503D01*
X-35038844Y-23545977D01*
X-35705346Y-24212479D01*
X-35705349Y-24212482D01*
X-35761435Y-24268567D01*
X-35817520Y-24324652D01*
X-35817522Y-24324655D01*
X-35884247Y-24424517D01*
X-35884247Y-24424518D01*
X-35905645Y-24456541D01*
X-35905652Y-24456554D01*
X-35966352Y-24603098D01*
X-35966355Y-24603108D01*
X-35997301Y-24758682D01*
X-35997301Y-24923428D01*
X-35997300Y-24923449D01*
X-35997300Y-25469071D01*
X-36016985Y-25536110D01*
X-36033619Y-25556752D01*
X-36335961Y-25859093D01*
X-36397284Y-25892578D01*
X-36466976Y-25887594D01*
X-36496522Y-25871733D01*
X-36686567Y-25733657D01*
X-36897004Y-25626433D01*
X-37121632Y-25553446D01*
X-37354903Y-25516500D01*
X-37354908Y-25516500D01*
X-38191092Y-25516500D01*
X-38191097Y-25516500D01*
X-38424369Y-25553446D01*
X-38648997Y-25626433D01*
X-38859434Y-25733657D01*
X-38968450Y-25812862D01*
X-39050510Y-25872483D01*
X-39050512Y-25872485D01*
X-39050513Y-25872485D01*
X-39217515Y-26039487D01*
X-39217515Y-26039488D01*
X-39217517Y-26039490D01*
X-39251295Y-26085981D01*
X-39356343Y-26230566D01*
X-39463567Y-26441003D01*
X-39536554Y-26665631D01*
X-39573500Y-26898902D01*
X-39573500Y-27135097D01*
X-39536554Y-27368368D01*
X-39463567Y-27592996D01*
X-39362499Y-27791351D01*
X-39356343Y-27803433D01*
X-39217517Y-27994510D01*
X-39050510Y-28161517D01*
X-38859433Y-28300343D01*
X-38760009Y-28351002D01*
X-38648997Y-28407566D01*
X-38648995Y-28407566D01*
X-38648992Y-28407568D01*
X-38528588Y-28446689D01*
X-38424369Y-28480553D01*
X-38191097Y-28517500D01*
X-38191092Y-28517500D01*
X-37354903Y-28517500D01*
X-37121632Y-28480553D01*
X-36897008Y-28407568D01*
X-36686567Y-28300343D01*
X-36495490Y-28161517D01*
X-36328483Y-27994510D01*
X-36219671Y-27844743D01*
X-36164347Y-27802082D01*
X-36143553Y-27796017D01*
X-36120103Y-27791353D01*
X-35973547Y-27730648D01*
X-35936191Y-27705686D01*
X-35869514Y-27684809D01*
X-35802133Y-27703293D01*
X-35755443Y-27755272D01*
X-35743300Y-27808789D01*
X-35743300Y-29025071D01*
X-35762985Y-29092110D01*
X-35779619Y-29112752D01*
X-36179739Y-29512872D01*
X-36241062Y-29546357D01*
X-36310754Y-29541373D01*
X-36355101Y-29512872D01*
X-36495488Y-29372485D01*
X-36495490Y-29372483D01*
X-36686567Y-29233657D01*
X-36897004Y-29126433D01*
X-37121632Y-29053446D01*
X-37354903Y-29016500D01*
X-37354908Y-29016500D01*
X-38191092Y-29016500D01*
X-38191097Y-29016500D01*
X-38424369Y-29053446D01*
X-38648997Y-29126433D01*
X-38859434Y-29233657D01*
X-38968450Y-29312862D01*
X-39050510Y-29372483D01*
X-39050512Y-29372485D01*
X-39050513Y-29372485D01*
X-39217515Y-29539487D01*
X-39217515Y-29539488D01*
X-39217517Y-29539490D01*
X-39268908Y-29610224D01*
X-39356343Y-29730566D01*
X-39463567Y-29941003D01*
X-39536554Y-30165631D01*
X-39573500Y-30398902D01*
X-39573500Y-30635097D01*
X-39536554Y-30868368D01*
X-39463567Y-31092996D01*
X-39393428Y-31230650D01*
X-39356343Y-31303433D01*
X-39217517Y-31494510D01*
X-39050510Y-31661517D01*
X-38859433Y-31800343D01*
X-38760009Y-31851002D01*
X-38648997Y-31907566D01*
X-38648995Y-31907566D01*
X-38648992Y-31907568D01*
X-38528588Y-31946689D01*
X-38424369Y-31980553D01*
X-38191097Y-32017500D01*
X-38191092Y-32017500D01*
X-37354903Y-32017500D01*
X-37121632Y-31980553D01*
X-36897008Y-31907568D01*
X-36686567Y-31800343D01*
X-36495490Y-31661517D01*
X-36328483Y-31494510D01*
X-36240501Y-31373413D01*
X-36236170Y-31370073D01*
X-36233897Y-31365097D01*
X-36208798Y-31348966D01*
X-36185172Y-31330749D01*
X-36178501Y-31329496D01*
X-36175119Y-31327323D01*
X-36140184Y-31322300D01*
X-36130449Y-31322300D01*
X-36130429Y-31322301D01*
X-36124315Y-31322301D01*
X-35965683Y-31322301D01*
X-35861018Y-31301480D01*
X-35810103Y-31291353D01*
X-35663547Y-31230648D01*
X-35617208Y-31199685D01*
X-35531651Y-31142518D01*
X-35419482Y-31030349D01*
X-35419481Y-31030347D01*
X-35412415Y-31023281D01*
X-35412412Y-31023277D01*
X-34431302Y-30042166D01*
X-34430804Y-30041671D01*
X-34407379Y-30028940D01*
X-34409766Y-30025120D01*
X-34409758Y-30025115D01*
X-34407370Y-30028936D01*
X-34400087Y-30024978D01*
X-34369658Y-30008363D01*
X-34369529Y-30008372D01*
X-34369414Y-30008310D01*
X-34334774Y-30010857D01*
X-34299966Y-30013347D01*
X-34299862Y-30013425D01*
X-34299732Y-30013435D01*
X-34271893Y-30034362D01*
X-34244033Y-30055219D01*
X-34243988Y-30055340D01*
X-34243883Y-30055419D01*
X-34231698Y-30088291D01*
X-34219616Y-30120683D01*
X-34219609Y-30120904D01*
X-34219598Y-30120932D01*
X-34219606Y-30120967D01*
X-34219300Y-30129529D01*
X-34219300Y-31311072D01*
X-34238985Y-31378111D01*
X-34255619Y-31398753D01*
X-36032247Y-33175381D01*
X-36093570Y-33208866D01*
X-36119928Y-33211700D01*
X-36140184Y-33211700D01*
X-36207223Y-33192015D01*
X-36240502Y-33160586D01*
X-36328483Y-33039490D01*
X-36495490Y-32872483D01*
X-36686567Y-32733657D01*
X-36897004Y-32626433D01*
X-37121632Y-32553446D01*
X-37354903Y-32516500D01*
X-37354908Y-32516500D01*
X-38191092Y-32516500D01*
X-38191097Y-32516500D01*
X-38424369Y-32553446D01*
X-38648997Y-32626433D01*
X-38859434Y-32733657D01*
X-38968450Y-32812862D01*
X-39050510Y-32872483D01*
X-39050512Y-32872485D01*
X-39050513Y-32872485D01*
X-39217515Y-33039487D01*
X-39217515Y-33039488D01*
X-39217517Y-33039490D01*
X-39277138Y-33121550D01*
X-39356343Y-33230566D01*
X-39463567Y-33441003D01*
X-39536554Y-33665631D01*
X-39573500Y-33898902D01*
X-39573500Y-34135097D01*
X-39536554Y-34368368D01*
X-39463567Y-34592996D01*
X-39393428Y-34730650D01*
X-39356343Y-34803433D01*
X-39217517Y-34994510D01*
X-39050510Y-35161517D01*
X-38859433Y-35300343D01*
X-38760009Y-35351002D01*
X-38648997Y-35407566D01*
X-38648995Y-35407566D01*
X-38648992Y-35407568D01*
X-38528588Y-35446689D01*
X-38424369Y-35480553D01*
X-38191097Y-35517500D01*
X-38191092Y-35517500D01*
X-37354903Y-35517500D01*
X-37121632Y-35480553D01*
X-36897008Y-35407568D01*
X-36686567Y-35300343D01*
X-36495490Y-35161517D01*
X-36328483Y-34994510D01*
X-36240501Y-34873413D01*
X-36185172Y-34830749D01*
X-36140184Y-34822300D01*
X-35820449Y-34822300D01*
X-35820429Y-34822301D01*
X-35814315Y-34822301D01*
X-35655683Y-34822301D01*
X-35551018Y-34801480D01*
X-35500103Y-34791353D01*
X-35353547Y-34730648D01*
X-35307208Y-34699685D01*
X-35221651Y-34642518D01*
X-35109482Y-34530349D01*
X-35109481Y-34530347D01*
X-35102415Y-34523281D01*
X-35102412Y-34523277D01*
X-32907302Y-32328166D01*
X-32906804Y-32327671D01*
X-32883379Y-32314940D01*
X-32885766Y-32311120D01*
X-32885758Y-32311115D01*
X-32883370Y-32314936D01*
X-32876087Y-32310978D01*
X-32845658Y-32294363D01*
X-32845529Y-32294372D01*
X-32845414Y-32294310D01*
X-32810774Y-32296857D01*
X-32775966Y-32299347D01*
X-32775862Y-32299425D01*
X-32775732Y-32299435D01*
X-32747893Y-32320362D01*
X-32720033Y-32341219D01*
X-32719988Y-32341340D01*
X-32719883Y-32341419D01*
X-32707698Y-32374291D01*
X-32695616Y-32406683D01*
X-32695609Y-32406904D01*
X-32695598Y-32406932D01*
X-32695606Y-32406967D01*
X-32695300Y-32415529D01*
X-32695300Y-34867072D01*
X-32714985Y-34934111D01*
X-32731619Y-34954753D01*
X-34452247Y-36675381D01*
X-34513570Y-36708866D01*
X-34539928Y-36711700D01*
X-36140184Y-36711700D01*
X-36207223Y-36692015D01*
X-36240502Y-36660586D01*
X-36328483Y-36539490D01*
X-36495490Y-36372483D01*
X-36686567Y-36233657D01*
X-36719884Y-36216681D01*
X-36897004Y-36126433D01*
X-37121632Y-36053446D01*
X-37354903Y-36016500D01*
X-37354908Y-36016500D01*
X-38191092Y-36016500D01*
X-38191097Y-36016500D01*
X-38424369Y-36053446D01*
X-38648997Y-36126433D01*
X-38859434Y-36233657D01*
X-38968450Y-36312862D01*
X-39050510Y-36372483D01*
X-39050512Y-36372485D01*
X-39050513Y-36372485D01*
X-39217515Y-36539487D01*
X-39217515Y-36539488D01*
X-39217517Y-36539490D01*
X-39277138Y-36621550D01*
X-39356343Y-36730566D01*
X-39463567Y-36941003D01*
X-39536554Y-37165631D01*
X-39573500Y-37398902D01*
X-39573500Y-37635097D01*
X-39536554Y-37868368D01*
X-39463567Y-38092996D01*
X-39393428Y-38230650D01*
X-39356343Y-38303433D01*
X-39217517Y-38494510D01*
X-39050510Y-38661517D01*
X-38859433Y-38800343D01*
X-38760009Y-38851002D01*
X-38648997Y-38907566D01*
X-38648995Y-38907566D01*
X-38648992Y-38907568D01*
X-38528588Y-38946689D01*
X-38424369Y-38980553D01*
X-38191097Y-39017500D01*
X-38191092Y-39017500D01*
X-37354903Y-39017500D01*
X-37121632Y-38980553D01*
X-37112384Y-38977548D01*
X-36897008Y-38907568D01*
X-36686567Y-38800343D01*
X-36495490Y-38661517D01*
X-36328483Y-38494510D01*
X-36240501Y-38373413D01*
X-36185172Y-38330749D01*
X-36140184Y-38322300D01*
X-34240449Y-38322300D01*
X-34240429Y-38322301D01*
X-34234315Y-38322301D01*
X-34075683Y-38322301D01*
X-33971018Y-38301480D01*
X-33920103Y-38291353D01*
X-33773547Y-38230648D01*
X-33727208Y-38199685D01*
X-33641651Y-38142518D01*
X-33529482Y-38030349D01*
X-33529481Y-38030347D01*
X-33522415Y-38023281D01*
X-33522413Y-38023277D01*
X-31636980Y-36137844D01*
X-31575658Y-36104361D01*
X-31505966Y-36109345D01*
X-31450033Y-36151217D01*
X-31425616Y-36216681D01*
X-31425300Y-36225527D01*
X-31425300Y-38677071D01*
X-31444985Y-38744110D01*
X-31461619Y-38764752D01*
X-32872247Y-40175381D01*
X-32933570Y-40208866D01*
X-32959928Y-40211700D01*
X-36140184Y-40211700D01*
X-36207223Y-40192015D01*
X-36240502Y-40160586D01*
X-36328483Y-40039490D01*
X-36495490Y-39872483D01*
X-36686567Y-39733657D01*
X-36897004Y-39626433D01*
X-37121632Y-39553446D01*
X-37354903Y-39516500D01*
X-37354908Y-39516500D01*
X-38191092Y-39516500D01*
X-38191097Y-39516500D01*
X-38424369Y-39553446D01*
X-38648997Y-39626433D01*
X-38859434Y-39733657D01*
X-38968450Y-39812862D01*
X-39050510Y-39872483D01*
X-39050512Y-39872485D01*
X-39050513Y-39872485D01*
X-39217515Y-40039487D01*
X-39217515Y-40039488D01*
X-39217517Y-40039490D01*
X-39277138Y-40121550D01*
X-39356343Y-40230566D01*
X-39463567Y-40441003D01*
X-39536554Y-40665631D01*
X-39573500Y-40898902D01*
X-39573500Y-41135097D01*
X-39536554Y-41368368D01*
X-39463567Y-41592996D01*
X-39362499Y-41791351D01*
X-39356343Y-41803433D01*
X-39217517Y-41994510D01*
X-39050510Y-42161517D01*
X-38859433Y-42300343D01*
X-38760009Y-42351002D01*
X-38648997Y-42407566D01*
X-38648995Y-42407566D01*
X-38648992Y-42407568D01*
X-38528588Y-42446689D01*
X-38424369Y-42480553D01*
X-38191097Y-42517500D01*
X-38191092Y-42517500D01*
X-37354903Y-42517500D01*
X-37121632Y-42480553D01*
X-36897008Y-42407568D01*
X-36686567Y-42300343D01*
X-36495490Y-42161517D01*
X-36328483Y-41994510D01*
X-36240501Y-41873413D01*
X-36185172Y-41830749D01*
X-36140184Y-41822300D01*
X-32660449Y-41822300D01*
X-32660429Y-41822301D01*
X-32654315Y-41822301D01*
X-32495683Y-41822301D01*
X-32391018Y-41801480D01*
X-32340103Y-41791353D01*
X-32193547Y-41730648D01*
X-32193542Y-41730644D01*
X-32193539Y-41730643D01*
X-32181797Y-41722796D01*
X-32145599Y-41698610D01*
X-32061651Y-41642518D01*
X-31949482Y-41530349D01*
X-31949482Y-41530347D01*
X-31939274Y-41520140D01*
X-31939273Y-41520137D01*
X-29994482Y-39575349D01*
X-29906352Y-39443453D01*
X-29845646Y-39296897D01*
X-29814699Y-39141315D01*
X-29814699Y-38982684D01*
X-29814699Y-38977574D01*
X-29814700Y-38977548D01*
X-29814700Y-29808300D01*
X-29795015Y-29741261D01*
X-29742211Y-29695506D01*
X-29690700Y-29684300D01*
X-26483686Y-29684300D01*
X-26483685Y-29684300D01*
X-26471532Y-29681882D01*
X-26447342Y-29679500D01*
X-25622314Y-29679500D01*
X-25622306Y-29679500D01*
X-25585431Y-29676598D01*
X-25585429Y-29676597D01*
X-25585427Y-29676597D01*
X-25543809Y-29664505D01*
X-25427602Y-29630744D01*
X-25286135Y-29547081D01*
X-25285411Y-29546357D01*
X-25275372Y-29536319D01*
X-25214049Y-29502834D01*
X-25187691Y-29500000D01*
X-24500000Y-29500000D01*
X-24500000Y-14132379D01*
X-19366571Y-14132379D01*
X-19366571Y-29632379D01*
X-18410417Y-29632379D01*
X-18375823Y-29637302D01*
X-18240569Y-29676598D01*
X-18203694Y-29679500D01*
X-17378658Y-29679500D01*
X-17354469Y-29681882D01*
X-17342315Y-29684300D01*
X-14785300Y-29684300D01*
X-14718261Y-29703985D01*
X-14672506Y-29756789D01*
X-14661300Y-29808300D01*
X-14661300Y-40247549D01*
X-14661301Y-40247575D01*
X-14661301Y-40411317D01*
X-14640123Y-40517781D01*
X-14640123Y-40517782D01*
X-14630355Y-40566889D01*
X-14630352Y-40566901D01*
X-14569652Y-40713446D01*
X-14569645Y-40713459D01*
X-14481519Y-40845348D01*
X-14481516Y-40845352D01*
X-14365030Y-40961838D01*
X-14365008Y-40961858D01*
X-13037644Y-42289222D01*
X-13037615Y-42289253D01*
X-12922353Y-42404515D01*
X-12922348Y-42404519D01*
X-12894367Y-42423215D01*
X-12838401Y-42460610D01*
X-12838400Y-42460611D01*
X-12790462Y-42492643D01*
X-12790447Y-42492651D01*
X-12643902Y-42553351D01*
X-12643897Y-42553353D01*
X-12643893Y-42553353D01*
X-12643892Y-42553354D01*
X-12488318Y-42584301D01*
X-12488315Y-42584301D01*
X-12323571Y-42584301D01*
X-12323551Y-42584300D01*
X-6131816Y-42584300D01*
X-6064777Y-42603985D01*
X-6031500Y-42635412D01*
X-5943517Y-42756510D01*
X-5776510Y-42923517D01*
X-5585433Y-43062343D01*
X-5486009Y-43113002D01*
X-5374997Y-43169566D01*
X-5374995Y-43169566D01*
X-5374992Y-43169568D01*
X-5254588Y-43208689D01*
X-5150369Y-43242553D01*
X-4917097Y-43279500D01*
X-4917092Y-43279500D01*
X-4080903Y-43279500D01*
X-3847632Y-43242553D01*
X-3623008Y-43169568D01*
X-3412567Y-43062343D01*
X-3221490Y-42923517D01*
X-3054483Y-42756510D01*
X-2915657Y-42565433D01*
X-2808432Y-42354992D01*
X-2735447Y-42130368D01*
X-2698500Y-41897097D01*
X-2698500Y-41660902D01*
X-2735447Y-41427631D01*
X-2808434Y-41203003D01*
X-2915658Y-40992566D01*
X-2929365Y-40973700D01*
X-3054483Y-40801490D01*
X-3221490Y-40634483D01*
X-3412567Y-40495657D01*
X-3623004Y-40388433D01*
X-3847632Y-40315446D01*
X-4080903Y-40278500D01*
X-4080908Y-40278500D01*
X-4917092Y-40278500D01*
X-4917097Y-40278500D01*
X-5150369Y-40315446D01*
X-5374997Y-40388433D01*
X-5585434Y-40495657D01*
X-5683475Y-40566889D01*
X-5776510Y-40634483D01*
X-5776512Y-40634485D01*
X-5776513Y-40634485D01*
X-5943515Y-40801487D01*
X-6031498Y-40922586D01*
X-6086828Y-40965251D01*
X-6131816Y-40973700D01*
X-12024072Y-40973700D01*
X-12091111Y-40954015D01*
X-12111753Y-40937381D01*
X-13014381Y-40034753D01*
X-13047866Y-39973430D01*
X-13050700Y-39947072D01*
X-13050700Y-38257528D01*
X-13031015Y-38190489D01*
X-12978211Y-38144734D01*
X-12909053Y-38134790D01*
X-12845497Y-38163815D01*
X-12839019Y-38169847D01*
X-12219644Y-38789222D01*
X-12219615Y-38789253D01*
X-12104350Y-38904518D01*
X-11987374Y-38982678D01*
X-11972453Y-38992648D01*
X-11868823Y-39035572D01*
X-11825898Y-39053353D01*
X-11765167Y-39065433D01*
X-11670321Y-39084299D01*
X-11670317Y-39084300D01*
X-11670316Y-39084300D01*
X-11670315Y-39084300D01*
X-6131816Y-39084300D01*
X-6064777Y-39103985D01*
X-6031500Y-39135412D01*
X-5943517Y-39256510D01*
X-5776510Y-39423517D01*
X-5585433Y-39562343D01*
X-5559909Y-39575348D01*
X-5374997Y-39669566D01*
X-5374995Y-39669566D01*
X-5374992Y-39669568D01*
X-5254588Y-39708689D01*
X-5150369Y-39742553D01*
X-4917097Y-39779500D01*
X-4917092Y-39779500D01*
X-4080903Y-39779500D01*
X-3847632Y-39742553D01*
X-3820253Y-39733657D01*
X-3623008Y-39669568D01*
X-3412567Y-39562343D01*
X-3221490Y-39423517D01*
X-3054483Y-39256510D01*
X-2915657Y-39065433D01*
X-2808432Y-38854992D01*
X-2735447Y-38630368D01*
X-2698500Y-38397097D01*
X-2698500Y-38160902D01*
X-2735447Y-37927631D01*
X-2808434Y-37703003D01*
X-2915658Y-37492566D01*
X-2929365Y-37473700D01*
X-3054483Y-37301490D01*
X-3221490Y-37134483D01*
X-3412567Y-36995657D01*
X-3430042Y-36986753D01*
X-3623004Y-36888433D01*
X-3847632Y-36815446D01*
X-4080903Y-36778500D01*
X-4080908Y-36778500D01*
X-4917092Y-36778500D01*
X-4917097Y-36778500D01*
X-5150369Y-36815446D01*
X-5374997Y-36888433D01*
X-5585434Y-36995657D01*
X-5694450Y-37074862D01*
X-5776510Y-37134483D01*
X-5776512Y-37134485D01*
X-5776513Y-37134485D01*
X-5943515Y-37301487D01*
X-6031498Y-37422586D01*
X-6086828Y-37465251D01*
X-6131816Y-37473700D01*
X-11206072Y-37473700D01*
X-11273111Y-37454015D01*
X-11293753Y-37437381D01*
X-11744381Y-36986753D01*
X-11777866Y-36925430D01*
X-11780700Y-36899072D01*
X-11780700Y-34447528D01*
X-11761015Y-34380489D01*
X-11708211Y-34334734D01*
X-11639053Y-34324790D01*
X-11575497Y-34353815D01*
X-11569019Y-34359847D01*
X-10639644Y-35289222D01*
X-10639615Y-35289253D01*
X-10524350Y-35404518D01*
X-10392459Y-35492644D01*
X-10392453Y-35492648D01*
X-10288823Y-35535572D01*
X-10245898Y-35553353D01*
X-10185167Y-35565433D01*
X-10090321Y-35584299D01*
X-10090317Y-35584300D01*
X-10090316Y-35584300D01*
X-10090315Y-35584300D01*
X-6131816Y-35584300D01*
X-6064777Y-35603985D01*
X-6031500Y-35635412D01*
X-5943517Y-35756510D01*
X-5776510Y-35923517D01*
X-5585433Y-36062343D01*
X-5502968Y-36104361D01*
X-5374997Y-36169566D01*
X-5374995Y-36169566D01*
X-5374992Y-36169568D01*
X-5254588Y-36208689D01*
X-5150369Y-36242553D01*
X-4917097Y-36279500D01*
X-4917092Y-36279500D01*
X-4080903Y-36279500D01*
X-3847632Y-36242553D01*
X-3795232Y-36225527D01*
X-3623008Y-36169568D01*
X-3412567Y-36062343D01*
X-3221490Y-35923517D01*
X-3054483Y-35756510D01*
X-2915657Y-35565433D01*
X-2808432Y-35354992D01*
X-2735447Y-35130368D01*
X-2698500Y-34897097D01*
X-2698500Y-34660902D01*
X-2735447Y-34427631D01*
X-2808434Y-34203003D01*
X-2915658Y-33992566D01*
X-2929365Y-33973700D01*
X-3054483Y-33801490D01*
X-3221490Y-33634483D01*
X-3412567Y-33495657D01*
X-3623004Y-33388433D01*
X-3847632Y-33315446D01*
X-4080903Y-33278500D01*
X-4080908Y-33278500D01*
X-4917092Y-33278500D01*
X-4917097Y-33278500D01*
X-5150369Y-33315446D01*
X-5374997Y-33388433D01*
X-5585434Y-33495657D01*
X-5694450Y-33574862D01*
X-5776510Y-33634483D01*
X-5776512Y-33634485D01*
X-5776513Y-33634485D01*
X-5943515Y-33801487D01*
X-6031498Y-33922586D01*
X-6086828Y-33965251D01*
X-6131816Y-33973700D01*
X-9626072Y-33973700D01*
X-9693111Y-33954015D01*
X-9713753Y-33937381D01*
X-10220381Y-33430753D01*
X-10253866Y-33369430D01*
X-10256700Y-33343072D01*
X-10256700Y-31145528D01*
X-10237015Y-31078489D01*
X-10184211Y-31032734D01*
X-10115053Y-31022790D01*
X-10051497Y-31051815D01*
X-10045019Y-31057847D01*
X-9313644Y-31789222D01*
X-9313615Y-31789253D01*
X-9198350Y-31904518D01*
X-9066459Y-31992644D01*
X-9066453Y-31992648D01*
X-8962823Y-32035572D01*
X-8919898Y-32053353D01*
X-8860057Y-32065256D01*
X-8764321Y-32084299D01*
X-8764317Y-32084300D01*
X-8764316Y-32084300D01*
X-8764315Y-32084300D01*
X-6131816Y-32084300D01*
X-6064777Y-32103985D01*
X-6031500Y-32135412D01*
X-5943517Y-32256510D01*
X-5776510Y-32423517D01*
X-5585433Y-32562343D01*
X-5486009Y-32613002D01*
X-5374997Y-32669566D01*
X-5374995Y-32669566D01*
X-5374992Y-32669568D01*
X-5254588Y-32708689D01*
X-5150369Y-32742553D01*
X-4917097Y-32779500D01*
X-4917092Y-32779500D01*
X-4080903Y-32779500D01*
X-3847632Y-32742553D01*
X-3820253Y-32733657D01*
X-3623008Y-32669568D01*
X-3412567Y-32562343D01*
X-3221490Y-32423517D01*
X-3054483Y-32256510D01*
X-2915657Y-32065433D01*
X-2808432Y-31854992D01*
X-2735447Y-31630368D01*
X-2698500Y-31397097D01*
X-2698500Y-31160902D01*
X-2735447Y-30927631D01*
X-2808434Y-30703003D01*
X-2915658Y-30492566D01*
X-2929365Y-30473700D01*
X-3054483Y-30301490D01*
X-3221490Y-30134483D01*
X-3412567Y-29995657D01*
X-3623004Y-29888433D01*
X-3847632Y-29815446D01*
X-4080903Y-29778500D01*
X-4080908Y-29778500D01*
X-4917092Y-29778500D01*
X-4917097Y-29778500D01*
X-5150369Y-29815446D01*
X-5374997Y-29888433D01*
X-5585434Y-29995657D01*
X-5667688Y-30055419D01*
X-5776510Y-30134483D01*
X-5776512Y-30134485D01*
X-5776513Y-30134485D01*
X-5943515Y-30301487D01*
X-6031498Y-30422586D01*
X-6086828Y-30465251D01*
X-6131816Y-30473700D01*
X-8300072Y-30473700D01*
X-8367111Y-30454015D01*
X-8387753Y-30437381D01*
X-8950381Y-29874753D01*
X-8983866Y-29813430D01*
X-8986700Y-29787072D01*
X-8986700Y-27335528D01*
X-8967015Y-27268489D01*
X-8914211Y-27222734D01*
X-8845053Y-27212790D01*
X-8781497Y-27241815D01*
X-8775019Y-27247847D01*
X-7733644Y-28289222D01*
X-7733615Y-28289253D01*
X-7618353Y-28404515D01*
X-7618349Y-28404518D01*
X-7486460Y-28492644D01*
X-7486453Y-28492648D01*
X-7395113Y-28530482D01*
X-7339898Y-28553353D01*
X-7184321Y-28584299D01*
X-7184317Y-28584300D01*
X-7184316Y-28584300D01*
X-7184315Y-28584300D01*
X-6131816Y-28584300D01*
X-6064777Y-28603985D01*
X-6031500Y-28635412D01*
X-5943517Y-28756510D01*
X-5776510Y-28923517D01*
X-5585433Y-29062343D01*
X-5527012Y-29092110D01*
X-5374997Y-29169566D01*
X-5374995Y-29169566D01*
X-5374992Y-29169568D01*
X-5254588Y-29208689D01*
X-5150369Y-29242553D01*
X-4917097Y-29279500D01*
X-4917092Y-29279500D01*
X-4080903Y-29279500D01*
X-3847632Y-29242553D01*
X-3820253Y-29233657D01*
X-3623008Y-29169568D01*
X-3412567Y-29062343D01*
X-3221490Y-28923517D01*
X-3054483Y-28756510D01*
X-2915657Y-28565433D01*
X-2808432Y-28354992D01*
X-2735447Y-28130368D01*
X-2698500Y-27897097D01*
X-2698500Y-27660902D01*
X-2735447Y-27427631D01*
X-2795919Y-27241520D01*
X-2808432Y-27203008D01*
X-2808434Y-27203005D01*
X-2808434Y-27203003D01*
X-2864998Y-27091991D01*
X-2915657Y-26992567D01*
X-3054483Y-26801490D01*
X-3221490Y-26634483D01*
X-3412567Y-26495657D01*
X-3459956Y-26471511D01*
X-3623004Y-26388433D01*
X-3847632Y-26315446D01*
X-4080903Y-26278500D01*
X-4080908Y-26278500D01*
X-4917092Y-26278500D01*
X-4917097Y-26278500D01*
X-5150369Y-26315446D01*
X-5374997Y-26388433D01*
X-5585434Y-26495657D01*
X-5628862Y-26527210D01*
X-5776510Y-26634483D01*
X-5776512Y-26634485D01*
X-5776513Y-26634485D01*
X-5943515Y-26801487D01*
X-6031498Y-26922586D01*
X-6086828Y-26965251D01*
X-6131816Y-26973700D01*
X-6720072Y-26973700D01*
X-6787111Y-26954015D01*
X-6807753Y-26937381D01*
X-7426381Y-26318753D01*
X-7459866Y-26257430D01*
X-7462700Y-26231072D01*
X-7462700Y-25208301D01*
X-7460150Y-25199615D01*
X-7461438Y-25190655D01*
X-7450460Y-25166613D01*
X-7443015Y-25141262D01*
X-7436176Y-25135335D01*
X-7432414Y-25127099D01*
X-7410179Y-25112808D01*
X-7390211Y-25095507D01*
X-7379699Y-25093219D01*
X-7373636Y-25089324D01*
X-7338703Y-25084301D01*
X-7338701Y-25084301D01*
X-7223684Y-25084301D01*
X-7223680Y-25084300D01*
X-7217551Y-25084300D01*
X-6131816Y-25084300D01*
X-6064777Y-25103985D01*
X-6031500Y-25135412D01*
X-5943517Y-25256510D01*
X-5776510Y-25423517D01*
X-5585433Y-25562343D01*
X-5486009Y-25613002D01*
X-5374997Y-25669566D01*
X-5374995Y-25669566D01*
X-5374992Y-25669568D01*
X-5318775Y-25687834D01*
X-5150369Y-25742553D01*
X-4917097Y-25779500D01*
X-4917092Y-25779500D01*
X-4080903Y-25779500D01*
X-3847632Y-25742553D01*
X-3820253Y-25733657D01*
X-3623008Y-25669568D01*
X-3412567Y-25562343D01*
X-3221490Y-25423517D01*
X-3054483Y-25256510D01*
X-2915657Y-25065433D01*
X-2808432Y-24854992D01*
X-2735447Y-24630368D01*
X-2732114Y-24609323D01*
X-2698500Y-24397097D01*
X-2698500Y-24160902D01*
X-2735447Y-23927631D01*
X-2808434Y-23703003D01*
X-2915658Y-23492566D01*
X-3054483Y-23301490D01*
X-3221490Y-23134483D01*
X-3412567Y-22995657D01*
X-3623004Y-22888433D01*
X-3847632Y-22815446D01*
X-4080903Y-22778500D01*
X-4080908Y-22778500D01*
X-4917092Y-22778500D01*
X-4917097Y-22778500D01*
X-5150369Y-22815446D01*
X-5374997Y-22888433D01*
X-5585434Y-22995657D01*
X-5694450Y-23074862D01*
X-5776510Y-23134483D01*
X-5776512Y-23134485D01*
X-5776513Y-23134485D01*
X-5943515Y-23301487D01*
X-5943517Y-23301490D01*
X-6008739Y-23391261D01*
X-6031498Y-23422586D01*
X-6086828Y-23465251D01*
X-6131816Y-23473700D01*
X-6918072Y-23473700D01*
X-6985111Y-23454015D01*
X-7005753Y-23437381D01*
X-8423142Y-22019992D01*
X-8427480Y-22015654D01*
X-8427482Y-22015651D01*
X-8438458Y-22004675D01*
X-8457876Y-21969109D01*
X-8471937Y-21943357D01*
X-8471937Y-21943353D01*
X-8471939Y-21943349D01*
X-8469327Y-21906866D01*
X-8466953Y-21873665D01*
X-8466951Y-21873660D01*
X-8466950Y-21873658D01*
X-8466940Y-21873643D01*
X-8438456Y-21829322D01*
X-8381482Y-21772349D01*
X-8381482Y-21772347D01*
X-8371273Y-21762139D01*
X-8371271Y-21762136D01*
X-8229750Y-21620618D01*
X-8168427Y-21587134D01*
X-8142070Y-21584300D01*
X-6131816Y-21584300D01*
X-6064777Y-21603985D01*
X-6031500Y-21635412D01*
X-5943517Y-21756510D01*
X-5776510Y-21923517D01*
X-5585433Y-22062343D01*
X-5486009Y-22113002D01*
X-5374997Y-22169566D01*
X-5374995Y-22169566D01*
X-5374992Y-22169568D01*
X-5254588Y-22208689D01*
X-5150369Y-22242553D01*
X-4917097Y-22279500D01*
X-4917092Y-22279500D01*
X-4080903Y-22279500D01*
X-3847632Y-22242553D01*
X-3820253Y-22233657D01*
X-3623008Y-22169568D01*
X-3412567Y-22062343D01*
X-3221490Y-21923517D01*
X-3054483Y-21756510D01*
X-2915657Y-21565433D01*
X-2808432Y-21354992D01*
X-2735447Y-21130368D01*
X-2698500Y-20897097D01*
X-2698500Y-20660902D01*
X-2735447Y-20427631D01*
X-2808434Y-20203003D01*
X-2915658Y-19992566D01*
X-2929365Y-19973700D01*
X-3054483Y-19801490D01*
X-3221490Y-19634483D01*
X-3412567Y-19495657D01*
X-3623004Y-19388433D01*
X-3847632Y-19315446D01*
X-4080903Y-19278500D01*
X-4080908Y-19278500D01*
X-4917092Y-19278500D01*
X-4917097Y-19278500D01*
X-5150369Y-19315446D01*
X-5374997Y-19388433D01*
X-5585434Y-19495657D01*
X-5694450Y-19574862D01*
X-5776510Y-19634483D01*
X-5776512Y-19634485D01*
X-5776513Y-19634485D01*
X-5943515Y-19801487D01*
X-5943517Y-19801490D01*
X-6015968Y-19901211D01*
X-6031498Y-19922586D01*
X-6086828Y-19965251D01*
X-6131816Y-19973700D01*
X-7807472Y-19973700D01*
X-7874511Y-19954015D01*
X-7920266Y-19901211D01*
X-7930210Y-19832053D01*
X-7901185Y-19768497D01*
X-7895153Y-19762019D01*
X-6253753Y-18120619D01*
X-6226826Y-18105915D01*
X-6201007Y-18089323D01*
X-6194807Y-18088431D01*
X-6192430Y-18087134D01*
X-6166072Y-18084300D01*
X-6131816Y-18084300D01*
X-6064777Y-18103985D01*
X-6031500Y-18135412D01*
X-5943517Y-18256510D01*
X-5776510Y-18423517D01*
X-5585433Y-18562343D01*
X-5486009Y-18613002D01*
X-5374997Y-18669566D01*
X-5374995Y-18669566D01*
X-5374992Y-18669568D01*
X-5254588Y-18708689D01*
X-5150369Y-18742553D01*
X-4917097Y-18779500D01*
X-4917092Y-18779500D01*
X-4080903Y-18779500D01*
X-3847632Y-18742553D01*
X-3820253Y-18733657D01*
X-3623008Y-18669568D01*
X-3412567Y-18562343D01*
X-3221490Y-18423517D01*
X-3054483Y-18256510D01*
X-2915657Y-18065433D01*
X-2808432Y-17854992D01*
X-2735447Y-17630368D01*
X-2698500Y-17397097D01*
X-2698500Y-17160902D01*
X-2735447Y-16927631D01*
X-2808434Y-16703003D01*
X-2878573Y-16565348D01*
X-2915657Y-16492567D01*
X-3054483Y-16301490D01*
X-3221490Y-16134483D01*
X-3412567Y-15995657D01*
X-3623004Y-15888433D01*
X-3847632Y-15815446D01*
X-4080903Y-15778500D01*
X-4080908Y-15778500D01*
X-4917092Y-15778500D01*
X-4917097Y-15778500D01*
X-5150369Y-15815446D01*
X-5374997Y-15888433D01*
X-5585434Y-15995657D01*
X-5681588Y-16065518D01*
X-5776510Y-16134483D01*
X-5776512Y-16134485D01*
X-5776513Y-16134485D01*
X-5943515Y-16301487D01*
X-5943517Y-16301490D01*
X-6020516Y-16407471D01*
X-6031498Y-16422586D01*
X-6086828Y-16465251D01*
X-6131816Y-16473700D01*
X-6465550Y-16473700D01*
X-6465570Y-16473699D01*
X-6471684Y-16473699D01*
X-6630315Y-16473699D01*
X-6630320Y-16473699D01*
X-6785890Y-16504644D01*
X-6785898Y-16504646D01*
X-6920626Y-16560453D01*
X-6920627Y-16560453D01*
X-6932447Y-16565348D01*
X-6932460Y-16565355D01*
X-7064348Y-16653480D01*
X-7113870Y-16703003D01*
X-7176518Y-16765651D01*
X-7505019Y-17094152D01*
X-7566342Y-17127637D01*
X-7636034Y-17122653D01*
X-7691967Y-17080781D01*
X-7716384Y-17015317D01*
X-7716700Y-17006471D01*
X-7716700Y-15316928D01*
X-7697015Y-15249889D01*
X-7680381Y-15229247D01*
X-7071753Y-14620619D01*
X-7010430Y-14587134D01*
X-6984072Y-14584300D01*
X-6131816Y-14584300D01*
X-6064777Y-14603985D01*
X-6031500Y-14635412D01*
X-5943517Y-14756510D01*
X-5776510Y-14923517D01*
X-5585433Y-15062343D01*
X-5486009Y-15113002D01*
X-5374997Y-15169566D01*
X-5374995Y-15169566D01*
X-5374992Y-15169568D01*
X-5254588Y-15208689D01*
X-5150369Y-15242553D01*
X-4917097Y-15279500D01*
X-4917092Y-15279500D01*
X-4080903Y-15279500D01*
X-3847632Y-15242553D01*
X-3820253Y-15233657D01*
X-3623008Y-15169568D01*
X-3412567Y-15062343D01*
X-3221490Y-14923517D01*
X-3054483Y-14756510D01*
X-2915657Y-14565433D01*
X-2808432Y-14354992D01*
X-2735447Y-14130368D01*
X-2727412Y-14079637D01*
X-2698500Y-13897097D01*
X-2698500Y-13660902D01*
X-2735447Y-13427631D01*
X-2788078Y-13265651D01*
X-2808432Y-13203008D01*
X-2808434Y-13203005D01*
X-2808434Y-13203003D01*
X-2909502Y-13004647D01*
X-2915657Y-12992567D01*
X-3054483Y-12801490D01*
X-3221490Y-12634483D01*
X-3412567Y-12495657D01*
X-3623004Y-12388433D01*
X-3847632Y-12315446D01*
X-4080903Y-12278500D01*
X-4080908Y-12278500D01*
X-4917092Y-12278500D01*
X-4917097Y-12278500D01*
X-5150369Y-12315446D01*
X-5374997Y-12388433D01*
X-5585434Y-12495657D01*
X-5602411Y-12507992D01*
X-5776510Y-12634483D01*
X-5776512Y-12634485D01*
X-5776513Y-12634485D01*
X-5943515Y-12801487D01*
X-6031498Y-12922586D01*
X-6086828Y-12965251D01*
X-6131816Y-12973700D01*
X-7448321Y-12973700D01*
X-7603891Y-13004644D01*
X-7603895Y-13004646D01*
X-7603897Y-13004646D01*
X-7603898Y-13004647D01*
X-7646823Y-13022427D01*
X-7646825Y-13022428D01*
X-7750451Y-13065350D01*
X-7750460Y-13065355D01*
X-7882348Y-13153480D01*
X-7925339Y-13196472D01*
X-7994518Y-13265651D01*
X-8775019Y-14046152D01*
X-8836342Y-14079637D01*
X-8906034Y-14074653D01*
X-8961967Y-14032781D01*
X-8986384Y-13967317D01*
X-8986700Y-13958471D01*
X-8986700Y-12014928D01*
X-8967015Y-11947889D01*
X-8950381Y-11927247D01*
X-8143752Y-11120619D01*
X-8082429Y-11087134D01*
X-8056071Y-11084300D01*
X-6131816Y-11084300D01*
X-6064777Y-11103985D01*
X-6031500Y-11135412D01*
X-5943517Y-11256510D01*
X-5776510Y-11423517D01*
X-5585433Y-11562343D01*
X-5486009Y-11613002D01*
X-5374997Y-11669566D01*
X-5374995Y-11669566D01*
X-5374992Y-11669568D01*
X-5254588Y-11708689D01*
X-5150369Y-11742553D01*
X-4917097Y-11779500D01*
X-4917092Y-11779500D01*
X-4080903Y-11779500D01*
X-3847632Y-11742553D01*
X-3820253Y-11733657D01*
X-3623008Y-11669568D01*
X-3412567Y-11562343D01*
X-3221490Y-11423517D01*
X-3054483Y-11256510D01*
X-2915657Y-11065433D01*
X-2808432Y-10854992D01*
X-2735447Y-10630368D01*
X-2698500Y-10397097D01*
X-2698500Y-10160902D01*
X-2735447Y-9927631D01*
X-2808434Y-9703003D01*
X-2878572Y-9565350D01*
X-2915657Y-9492567D01*
X-3054483Y-9301490D01*
X-3221490Y-9134483D01*
X-3412567Y-8995657D01*
X-3623004Y-8888433D01*
X-3847632Y-8815446D01*
X-4080903Y-8778500D01*
X-4080908Y-8778500D01*
X-4917092Y-8778500D01*
X-4917097Y-8778500D01*
X-5150369Y-8815446D01*
X-5374997Y-8888433D01*
X-5585434Y-8995657D01*
X-5694450Y-9074862D01*
X-5776510Y-9134483D01*
X-5776512Y-9134485D01*
X-5776513Y-9134485D01*
X-5943515Y-9301487D01*
X-6031498Y-9422586D01*
X-6086828Y-9465251D01*
X-6131816Y-9473700D01*
X-8355550Y-9473700D01*
X-8355570Y-9473699D01*
X-8361684Y-9473699D01*
X-8520315Y-9473699D01*
X-8520320Y-9473699D01*
X-8675890Y-9504644D01*
X-8675898Y-9504646D01*
X-8822450Y-9565350D01*
X-8822460Y-9565355D01*
X-8954349Y-9653481D01*
X-8954353Y-9653484D01*
X-10045019Y-10744151D01*
X-10106342Y-10777636D01*
X-10176034Y-10772652D01*
X-10231967Y-10730780D01*
X-10256384Y-10665316D01*
X-10256700Y-10656470D01*
X-10256700Y-8204928D01*
X-10237015Y-8137889D01*
X-10220381Y-8117247D01*
X-9723753Y-7620619D01*
X-9662430Y-7587134D01*
X-9636072Y-7584300D01*
X-6131816Y-7584300D01*
X-6064777Y-7603985D01*
X-6031500Y-7635412D01*
X-5943517Y-7756510D01*
X-5776510Y-7923517D01*
X-5585433Y-8062343D01*
X-5486009Y-8113002D01*
X-5374997Y-8169566D01*
X-5374995Y-8169566D01*
X-5374992Y-8169568D01*
X-5266165Y-8204928D01*
X-5150369Y-8242553D01*
X-4917097Y-8279500D01*
X-4917092Y-8279500D01*
X-4080903Y-8279500D01*
X-3847632Y-8242553D01*
X-3820253Y-8233657D01*
X-3623008Y-8169568D01*
X-3412567Y-8062343D01*
X-3221490Y-7923517D01*
X-3054483Y-7756510D01*
X-2915657Y-7565433D01*
X-2808432Y-7354992D01*
X-2735447Y-7130368D01*
X-2730712Y-7100471D01*
X-2698500Y-6897097D01*
X-2698500Y-6660902D01*
X-2735447Y-6427631D01*
X-2808434Y-6203003D01*
X-2909502Y-6004647D01*
X-2915657Y-5992567D01*
X-3054483Y-5801490D01*
X-3221490Y-5634483D01*
X-3412567Y-5495657D01*
X-3623004Y-5388433D01*
X-3847632Y-5315446D01*
X-4080903Y-5278500D01*
X-4080908Y-5278500D01*
X-4917092Y-5278500D01*
X-4917097Y-5278500D01*
X-5150369Y-5315446D01*
X-5374997Y-5388433D01*
X-5585434Y-5495657D01*
X-5694450Y-5574862D01*
X-5776510Y-5634483D01*
X-5776512Y-5634485D01*
X-5776513Y-5634485D01*
X-5943515Y-5801487D01*
X-6031498Y-5922586D01*
X-6086828Y-5965251D01*
X-6131816Y-5973700D01*
X-10100321Y-5973700D01*
X-10255891Y-6004644D01*
X-10255895Y-6004646D01*
X-10255897Y-6004646D01*
X-10255898Y-6004647D01*
X-10298823Y-6022427D01*
X-10298825Y-6022428D01*
X-10402451Y-6065350D01*
X-10402460Y-6065355D01*
X-10534348Y-6153480D01*
X-10583870Y-6203003D01*
X-10646518Y-6265651D01*
X-11569019Y-7188152D01*
X-11630342Y-7221637D01*
X-11700034Y-7216653D01*
X-11755967Y-7174781D01*
X-11780384Y-7109317D01*
X-11780700Y-7100471D01*
X-11780700Y-5410928D01*
X-11761015Y-5343889D01*
X-11744381Y-5323247D01*
X-10541753Y-4120619D01*
X-10480430Y-4087134D01*
X-10454072Y-4084300D01*
X-6410135Y-4084300D01*
X-6343096Y-4103985D01*
X-6297341Y-4156789D01*
X-6291185Y-4175388D01*
X-6291129Y-4175370D01*
X-6233815Y-4348331D01*
X-6233813Y-4348336D01*
X-6205075Y-4394928D01*
X-6141712Y-4497656D01*
X-6017656Y-4621712D01*
X-5868334Y-4713814D01*
X-5701797Y-4768999D01*
X-5599009Y-4779500D01*
X-3398992Y-4779499D01*
X-3296203Y-4768999D01*
X-3129666Y-4713814D01*
X-2980344Y-4621712D01*
X-2856288Y-4497656D01*
X-2764186Y-4348334D01*
X-2709001Y-4181797D01*
X-2698500Y-4079009D01*
X-2698501Y-2478992D01*
X-2699042Y-2473700D01*
X-2709001Y-2376203D01*
X-2709002Y-2376200D01*
X-2764186Y-2209666D01*
X-2856288Y-2060344D01*
X-2980344Y-1936288D01*
X-3129666Y-1844186D01*
X-3296203Y-1789001D01*
X-3296205Y-1789000D01*
X-3398990Y-1778500D01*
X-5599002Y-1778500D01*
X-5599019Y-1778501D01*
X-5701797Y-1789000D01*
X-5701800Y-1789001D01*
X-5868332Y-1844185D01*
X-5868337Y-1844187D01*
X-6017658Y-1936289D01*
X-6141711Y-2060342D01*
X-6233813Y-2209663D01*
X-6233815Y-2209668D01*
X-6291129Y-2382630D01*
X-6292428Y-2382199D01*
X-6322160Y-2437087D01*
X-6383371Y-2470777D01*
X-6410135Y-2473700D01*
X-10753551Y-2473700D01*
X-10753571Y-2473699D01*
X-10759685Y-2473699D01*
X-10918316Y-2473699D01*
X-10918318Y-2473699D01*
X-11073892Y-2504645D01*
X-11073902Y-2504648D01*
X-11220447Y-2565348D01*
X-11220460Y-2565355D01*
X-11352348Y-2653480D01*
X-11408433Y-2709565D01*
X-11464518Y-2765651D01*
X-11464521Y-2765654D01*
X-13099346Y-4400479D01*
X-13099349Y-4400482D01*
X-13155435Y-4456567D01*
X-13211520Y-4512652D01*
X-13211522Y-4512655D01*
X-13256185Y-4579499D01*
X-13256185Y-4579500D01*
X-13299645Y-4644541D01*
X-13299652Y-4644553D01*
X-13360352Y-4791098D01*
X-13360355Y-4791108D01*
X-13391301Y-4946682D01*
X-13391301Y-5111428D01*
X-13391300Y-5111449D01*
X-13391300Y-13785072D01*
X-13410985Y-13852111D01*
X-13427619Y-13872753D01*
X-13622247Y-14067381D01*
X-13683570Y-14100866D01*
X-13709928Y-14103700D01*
X-17342315Y-14103700D01*
X-17354469Y-14106117D01*
X-17378658Y-14108500D01*
X-18203702Y-14108500D01*
X-18240568Y-14111401D01*
X-18240574Y-14111402D01*
X-18295825Y-14127455D01*
X-18330420Y-14132379D01*
X-18366571Y-14132379D01*
X-19366571Y-14132379D01*
X-24500000Y-14132379D01*
X-24500000Y-14000000D01*
X-25500000Y-14000000D01*
X-25506444Y-14006443D01*
X-25519685Y-14051539D01*
X-25572489Y-14097294D01*
X-25624000Y-14108500D01*
X-26447342Y-14108500D01*
X-26471532Y-14106117D01*
X-26483685Y-14103700D01*
X-26483686Y-14103700D01*
X-28480072Y-14103700D01*
X-28547111Y-14084015D01*
X-28567753Y-14067381D01*
X-28762381Y-13872753D01*
X-28795866Y-13811430D01*
X-28798700Y-13785072D01*
X-28798700Y-4095450D01*
X-28798699Y-4095429D01*
X-28798699Y-3930682D01*
X-28829646Y-3775108D01*
X-28829647Y-3775107D01*
X-28829647Y-3775103D01*
X-28845986Y-3735656D01*
X-28890349Y-3628553D01*
X-28890351Y-3628549D01*
X-28890352Y-3628547D01*
X-28966959Y-3513897D01*
X-28978482Y-3496651D01*
X-29090651Y-3384482D01*
X-29090655Y-3384479D01*
X-30467142Y-2007992D01*
X-30467162Y-2007970D01*
X-30583648Y-1891484D01*
X-30583652Y-1891481D01*
X-30715541Y-1803355D01*
X-30715554Y-1803348D01*
X-30862099Y-1742648D01*
X-30862109Y-1742645D01*
X-31017683Y-1711699D01*
X-31017685Y-1711699D01*
X-31176315Y-1711699D01*
X-31182429Y-1711699D01*
X-31182449Y-1711700D01*
X-35861865Y-1711700D01*
X-35928904Y-1692015D01*
X-35974659Y-1639211D01*
X-35980816Y-1620611D01*
X-35980871Y-1620630D01*
X-35998696Y-1566841D01*
X-36038186Y-1447666D01*
X-36130288Y-1298344D01*
X-36254344Y-1174288D01*
X-36403666Y-1082186D01*
X-36570203Y-1027001D01*
X-36570205Y-1027000D01*
X-36672990Y-1016500D01*
X-38873002Y-1016500D01*
X-38873019Y-1016501D01*
X-38975797Y-1027000D01*
X-38975800Y-1027001D01*
X-39142332Y-1082185D01*
X-39142337Y-1082187D01*
X-39291658Y-1174289D01*
X-39415711Y-1298342D01*
X-39507813Y-1447663D01*
X-39507814Y-1447666D01*
X-39562999Y-1614203D01*
X-39562999Y-1614204D01*
X-39563000Y-1614204D01*
X-39573500Y-1716983D01*
X-40999500Y-1716983D01*
X-40999500Y-624500D01*
X-40979815Y-557461D01*
X-40927011Y-511706D01*
X-40875500Y-500500D01*
X-624500Y-500500D01*
X-557461Y-520185D01*
G37*
%TD.AperFunction*%
%TA.AperFunction,NonConductor*%
G36*
X-30117497Y-14795815D02*
G01*
X-30111019Y-14801847D01*
X-29750847Y-15162019D01*
X-29717362Y-15223342D01*
X-29722346Y-15293034D01*
X-29764218Y-15348967D01*
X-29829682Y-15373384D01*
X-29838528Y-15373700D01*
X-30004072Y-15373700D01*
X-30071111Y-15354015D01*
X-30091753Y-15337381D01*
X-30286381Y-15142753D01*
X-30301085Y-15115825D01*
X-30317677Y-15090007D01*
X-30318569Y-15083806D01*
X-30319866Y-15081430D01*
X-30322700Y-15055072D01*
X-30322700Y-14889528D01*
X-30303015Y-14822489D01*
X-30250211Y-14776734D01*
X-30181053Y-14766790D01*
X-30117497Y-14795815D01*
G37*
%TD.AperFunction*%
%TA.AperFunction,NonConductor*%
G36*
X-33535489Y-24623985D02*
G01*
X-33489734Y-24676789D01*
X-33479790Y-24745947D01*
X-33508815Y-24809503D01*
X-33514847Y-24815981D01*
X-34175019Y-25476153D01*
X-34236342Y-25509638D01*
X-34306034Y-25504654D01*
X-34361967Y-25462782D01*
X-34386384Y-25397318D01*
X-34386700Y-25388472D01*
X-34386700Y-25222928D01*
X-34367015Y-25155889D01*
X-34350381Y-25135247D01*
X-33855753Y-24640619D01*
X-33828826Y-24625915D01*
X-33803007Y-24609323D01*
X-33796807Y-24608431D01*
X-33794430Y-24607134D01*
X-33768072Y-24604300D01*
X-33602528Y-24604300D01*
X-33535489Y-24623985D01*
G37*
%TD.AperFunction*%
%TA.AperFunction,NonConductor*%
G36*
X-11982774Y-14770857D02*
G01*
X-11947966Y-14773347D01*
X-11947862Y-14773425D01*
X-11947732Y-14773435D01*
X-11919893Y-14794362D01*
X-11892033Y-14815219D01*
X-11891988Y-14815340D01*
X-11891883Y-14815419D01*
X-11879698Y-14848291D01*
X-11867616Y-14880683D01*
X-11867609Y-14880904D01*
X-11867598Y-14880932D01*
X-11867606Y-14880967D01*
X-11867300Y-14889529D01*
X-11867300Y-15249700D01*
X-11886985Y-15316739D01*
X-11939789Y-15362494D01*
X-11991300Y-15373700D01*
X-12351472Y-15373700D01*
X-12418511Y-15354015D01*
X-12464266Y-15301211D01*
X-12474210Y-15232053D01*
X-12445185Y-15168497D01*
X-12439153Y-15162019D01*
X-12200649Y-14923514D01*
X-12079299Y-14802163D01*
X-12078804Y-14801671D01*
X-12055379Y-14788940D01*
X-12057766Y-14785120D01*
X-12057758Y-14785115D01*
X-12055370Y-14788936D01*
X-12048087Y-14784978D01*
X-12017658Y-14768363D01*
X-12017529Y-14768372D01*
X-12017414Y-14768310D01*
X-11982774Y-14770857D01*
G37*
%TD.AperFunction*%
%TA.AperFunction,NonConductor*%
G36*
X-10894889Y-25893985D02*
G01*
X-10874247Y-25910619D01*
X-10633619Y-26151247D01*
X-10618916Y-26178174D01*
X-10602323Y-26203993D01*
X-10601432Y-26210193D01*
X-10600134Y-26212570D01*
X-10597300Y-26238928D01*
X-10597300Y-26404472D01*
X-10616985Y-26471511D01*
X-10669789Y-26517266D01*
X-10738947Y-26527210D01*
X-10802503Y-26498185D01*
X-10808981Y-26492153D01*
X-11215153Y-26085981D01*
X-11248638Y-26024658D01*
X-11243654Y-25954966D01*
X-11201782Y-25899033D01*
X-11136318Y-25874616D01*
X-11127472Y-25874300D01*
X-10961928Y-25874300D01*
X-10894889Y-25893985D01*
G37*
%TD.AperFunction*%
M02*
