%TF.GenerationSoftware,KiCad,Pcbnew,9.0.5*%
%TF.CreationDate,2025-10-02T21:43:31+02:00*%
%TF.ProjectId,ht16k33-adapter,68743136-6b33-4332-9d61-646170746572,rev?*%
%TF.SameCoordinates,PX6779420PY74d33a0*%
%TF.FileFunction,Copper,L1,Top*%
%TF.FilePolarity,Positive*%
%FSLAX46Y46*%
G04 Gerber Fmt 4.6, Leading zero omitted, Abs format (unit mm)*
G04 Created by KiCad (PCBNEW 9.0.5) date 2025-10-02 21:43:31*
%MOMM*%
%LPD*%
G01*
G04 APERTURE LIST*
G04 Aperture macros list*
%AMRoundRect*
0 Rectangle with rounded corners*
0 $1 Rounding radius*
0 $2 $3 $4 $5 $6 $7 $8 $9 X,Y pos of 4 corners*
0 Add a 4 corners polygon primitive as box body*
4,1,4,$2,$3,$4,$5,$6,$7,$8,$9,$2,$3,0*
0 Add four circle primitives for the rounded corners*
1,1,$1+$1,$2,$3*
1,1,$1+$1,$4,$5*
1,1,$1+$1,$6,$7*
1,1,$1+$1,$8,$9*
0 Add four rect primitives between the rounded corners*
20,1,$1+$1,$2,$3,$4,$5,0*
20,1,$1+$1,$4,$5,$6,$7,0*
20,1,$1+$1,$6,$7,$8,$9,0*
20,1,$1+$1,$8,$9,$2,$3,0*%
G04 Aperture macros list end*
%TA.AperFunction,SMDPad,CuDef*%
%ADD10RoundRect,0.150000X-0.875000X-0.150000X0.875000X-0.150000X0.875000X0.150000X-0.875000X0.150000X0*%
%TD*%
%TA.AperFunction,ComponentPad*%
%ADD11RoundRect,0.250000X-1.050000X0.750000X-1.050000X-0.750000X1.050000X-0.750000X1.050000X0.750000X0*%
%TD*%
%TA.AperFunction,ComponentPad*%
%ADD12O,2.600000X2.000000*%
%TD*%
%TA.AperFunction,Conductor*%
%ADD13C,0.609600*%
%TD*%
G04 APERTURE END LIST*
D10*
%TO.P,U1,1,VSS*%
%TO.N,Net-(J1-Pin_1)*%
X14937000Y31591000D03*
%TO.P,U1,2,COM0/AD*%
%TO.N,Net-(J1-Pin_2)*%
X14937000Y30321000D03*
%TO.P,U1,3,COM1/KS0*%
%TO.N,Net-(J1-Pin_3)*%
X14937000Y29051000D03*
%TO.P,U1,4,COM2/KS1*%
%TO.N,Net-(J1-Pin_4)*%
X14937000Y27781000D03*
%TO.P,U1,5,COM3/KS2*%
%TO.N,Net-(J1-Pin_5)*%
X14937000Y26511000D03*
%TO.P,U1,6,COM4*%
%TO.N,Net-(J1-Pin_6)*%
X14937000Y25241000D03*
%TO.P,U1,7,COM5*%
%TO.N,Net-(J1-Pin_7)*%
X14937000Y23971000D03*
%TO.P,U1,8,COM6*%
%TO.N,Net-(J1-Pin_8)*%
X14937000Y22701000D03*
%TO.P,U1,9,COM7*%
%TO.N,Net-(J1-Pin_9)*%
X14937000Y21431000D03*
%TO.P,U1,10,ROW11/K10/INT*%
%TO.N,Net-(J1-Pin_10)*%
X14937000Y20161000D03*
%TO.P,U1,11,ROW10/K9*%
%TO.N,Net-(J1-Pin_11)*%
X14937000Y18891000D03*
%TO.P,U1,12,ROW9/K8*%
%TO.N,Net-(J1-Pin_12)*%
X14937000Y17621000D03*
%TO.P,U1,13,ROW8/K7*%
%TO.N,Net-(J2-Pin_12)*%
X24237000Y17621000D03*
%TO.P,U1,14,ROW7/K6*%
%TO.N,Net-(J2-Pin_11)*%
X24237000Y18891000D03*
%TO.P,U1,15,ROW6/K5*%
%TO.N,Net-(J2-Pin_10)*%
X24237000Y20161000D03*
%TO.P,U1,16,ROW5/K4*%
%TO.N,Net-(J2-Pin_9)*%
X24237000Y21431000D03*
%TO.P,U1,17,ROW4/K3*%
%TO.N,Net-(J2-Pin_8)*%
X24237000Y22701000D03*
%TO.P,U1,18,ROW3/K2*%
%TO.N,Net-(J2-Pin_7)*%
X24237000Y23971000D03*
%TO.P,U1,19,ROW2/K1*%
%TO.N,Net-(J2-Pin_6)*%
X24237000Y25241000D03*
%TO.P,U1,20,ROW1/A0*%
%TO.N,Net-(J2-Pin_5)*%
X24237000Y26511000D03*
%TO.P,U1,21,ROW0/A1*%
%TO.N,Net-(J2-Pin_4)*%
X24237000Y27781000D03*
%TO.P,U1,22,SCL*%
%TO.N,Net-(J2-Pin_3)*%
X24237000Y29051000D03*
%TO.P,U1,23,SDA*%
%TO.N,Net-(J2-Pin_2)*%
X24237000Y30321000D03*
%TO.P,U1,24,VDD*%
%TO.N,Net-(J2-Pin_1)*%
X24237000Y31591000D03*
%TD*%
D11*
%TO.P,J2,1,Pin_1*%
%TO.N,Net-(J2-Pin_1)*%
X37001000Y43221000D03*
D12*
%TO.P,J2,2,Pin_2*%
%TO.N,Net-(J2-Pin_2)*%
X37001000Y39721000D03*
%TO.P,J2,3,Pin_3*%
%TO.N,Net-(J2-Pin_3)*%
X37001000Y36221000D03*
%TO.P,J2,4,Pin_4*%
%TO.N,Net-(J2-Pin_4)*%
X37001000Y32721000D03*
%TO.P,J2,5,Pin_5*%
%TO.N,Net-(J2-Pin_5)*%
X37001000Y29221000D03*
%TO.P,J2,6,Pin_6*%
%TO.N,Net-(J2-Pin_6)*%
X37001000Y25721000D03*
%TO.P,J2,7,Pin_7*%
%TO.N,Net-(J2-Pin_7)*%
X37001000Y22221000D03*
%TO.P,J2,8,Pin_8*%
%TO.N,Net-(J2-Pin_8)*%
X37001000Y18721000D03*
%TO.P,J2,9,Pin_9*%
%TO.N,Net-(J2-Pin_9)*%
X37001000Y15221000D03*
%TO.P,J2,10,Pin_10*%
%TO.N,Net-(J2-Pin_10)*%
X37001000Y11721000D03*
%TO.P,J2,11,Pin_11*%
%TO.N,Net-(J2-Pin_11)*%
X37001000Y8221000D03*
%TO.P,J2,12,Pin_12*%
%TO.N,Net-(J2-Pin_12)*%
X37001000Y4721000D03*
%TD*%
D11*
%TO.P,J1,1,Pin_1*%
%TO.N,Net-(J1-Pin_1)*%
X3727000Y43983000D03*
D12*
%TO.P,J1,2,Pin_2*%
%TO.N,Net-(J1-Pin_2)*%
X3727000Y40483000D03*
%TO.P,J1,3,Pin_3*%
%TO.N,Net-(J1-Pin_3)*%
X3727000Y36983000D03*
%TO.P,J1,4,Pin_4*%
%TO.N,Net-(J1-Pin_4)*%
X3727000Y33483000D03*
%TO.P,J1,5,Pin_5*%
%TO.N,Net-(J1-Pin_5)*%
X3727000Y29983000D03*
%TO.P,J1,6,Pin_6*%
%TO.N,Net-(J1-Pin_6)*%
X3727000Y26483000D03*
%TO.P,J1,7,Pin_7*%
%TO.N,Net-(J1-Pin_7)*%
X3727000Y22983000D03*
%TO.P,J1,8,Pin_8*%
%TO.N,Net-(J1-Pin_8)*%
X3727000Y19483000D03*
%TO.P,J1,9,Pin_9*%
%TO.N,Net-(J1-Pin_9)*%
X3727000Y15983000D03*
%TO.P,J1,10,Pin_10*%
%TO.N,Net-(J1-Pin_10)*%
X3727000Y12483000D03*
%TO.P,J1,11,Pin_11*%
%TO.N,Net-(J1-Pin_11)*%
X3727000Y8983000D03*
%TO.P,J1,12,Pin_12*%
%TO.N,Net-(J1-Pin_12)*%
X3727000Y5483000D03*
%TD*%
D13*
%TO.N,Net-(J1-Pin_6)*%
X14937000Y25241000D02*
X7109000Y25241000D01*
X7109000Y25241000D02*
X5867000Y26483000D01*
X5867000Y26483000D02*
X3727000Y26483000D01*
%TO.N,Net-(J1-Pin_1)*%
X14937000Y31591000D02*
X12635000Y31591000D01*
X12635000Y31591000D02*
X11896000Y32330000D01*
X11896000Y32330000D02*
X11896000Y42490000D01*
X10403000Y43983000D02*
X3727000Y43983000D01*
X11896000Y42490000D02*
X10403000Y43983000D01*
%TO.N,Net-(J1-Pin_10)*%
X8086000Y18614000D02*
X8086000Y14804000D01*
X5765000Y12483000D02*
X3727000Y12483000D01*
X8086000Y14804000D02*
X5765000Y12483000D01*
X14937000Y20161000D02*
X9633000Y20161000D01*
X9633000Y20161000D02*
X8086000Y18614000D01*
%TO.N,Net-(J1-Pin_9)*%
X14937000Y21431000D02*
X8871000Y21431000D01*
X8871000Y21431000D02*
X6562000Y19122000D01*
X6562000Y19122000D02*
X6562000Y17090000D01*
X3727000Y15983000D02*
X5455000Y15983000D01*
X5455000Y15983000D02*
X6562000Y17090000D01*
%TO.N,Net-(J1-Pin_3)*%
X8848000Y35632000D02*
X7497000Y36983000D01*
X9841000Y29051000D02*
X8848000Y30044000D01*
X8848000Y30044000D02*
X8848000Y35632000D01*
X7497000Y36983000D02*
X3727000Y36983000D01*
X14937000Y29051000D02*
X9841000Y29051000D01*
%TO.N,Net-(J1-Pin_8)*%
X7347000Y22701000D02*
X6308000Y21662000D01*
X6308000Y21662000D02*
X6308000Y20646000D01*
X5145000Y19483000D02*
X3727000Y19483000D01*
X6308000Y20646000D02*
X5145000Y19483000D01*
X14937000Y22701000D02*
X7347000Y22701000D01*
%TO.N,Net-(J1-Pin_4)*%
X7324000Y29282000D02*
X7324000Y32584000D01*
X6425000Y33483000D02*
X3727000Y33483000D01*
X8825000Y27781000D02*
X7324000Y29282000D01*
X7324000Y32584000D02*
X6425000Y33483000D01*
X14937000Y27781000D02*
X8825000Y27781000D01*
%TO.N,Net-(J1-Pin_12)*%
X14937000Y17621000D02*
X11157000Y17621000D01*
X8925000Y5483000D02*
X3727000Y5483000D01*
X11157000Y17621000D02*
X10880000Y17344000D01*
X10880000Y17344000D02*
X10880000Y7438000D01*
X10880000Y7438000D02*
X8925000Y5483000D01*
%TO.N,Net-(J1-Pin_5)*%
X7943886Y26511000D02*
X4471886Y29983000D01*
X14937000Y26511000D02*
X7943886Y26511000D01*
X4471886Y29983000D02*
X3727000Y29983000D01*
%TO.N,Net-(J1-Pin_2)*%
X10372000Y31060000D02*
X11111000Y30321000D01*
X11111000Y30321000D02*
X14937000Y30321000D01*
X3727000Y40483000D02*
X9077000Y40483000D01*
X9077000Y40483000D02*
X10372000Y39188000D01*
X10372000Y39188000D02*
X10372000Y31060000D01*
%TO.N,Net-(J1-Pin_11)*%
X14937000Y18891000D02*
X10903000Y18891000D01*
X7345000Y8983000D02*
X3727000Y8983000D01*
X10903000Y18891000D02*
X9610000Y17598000D01*
X9610000Y11248000D02*
X7345000Y8983000D01*
X9610000Y17598000D02*
X9610000Y11248000D01*
%TO.N,Net-(J1-Pin_7)*%
X14937000Y23971000D02*
X4715000Y23971000D01*
X4715000Y23971000D02*
X3727000Y22983000D01*
%TO.N,Net-(J2-Pin_3)*%
X31708000Y34870000D02*
X33059000Y36221000D01*
X30969000Y29051000D02*
X31708000Y29790000D01*
X33059000Y36221000D02*
X37001000Y36221000D01*
X31708000Y29790000D02*
X31708000Y34870000D01*
X24237000Y29051000D02*
X30969000Y29051000D01*
%TO.N,Net-(J2-Pin_2)*%
X31479000Y39721000D02*
X37001000Y39721000D01*
X24237000Y30321000D02*
X29953000Y30321000D01*
X30438000Y38680000D02*
X31479000Y39721000D01*
X30438000Y30806000D02*
X30438000Y38680000D01*
X29953000Y30321000D02*
X30438000Y30806000D01*
%TO.N,Net-(J2-Pin_12)*%
X29091000Y4721000D02*
X37001000Y4721000D01*
X27644000Y6168000D02*
X29091000Y4721000D01*
X27644000Y17090000D02*
X27644000Y6168000D01*
X27113000Y17621000D02*
X27644000Y17090000D01*
X24237000Y17621000D02*
X27113000Y17621000D01*
%TO.N,Net-(J2-Pin_6)*%
X32493000Y25241000D02*
X32978000Y25726000D01*
X32978000Y25726000D02*
X32983000Y25721000D01*
X32983000Y25721000D02*
X37001000Y25721000D01*
X24237000Y25241000D02*
X32493000Y25241000D01*
%TO.N,Net-(J2-Pin_4)*%
X32978000Y31568000D02*
X34131000Y32721000D01*
X24237000Y27781000D02*
X31985000Y27781000D01*
X34131000Y32721000D02*
X37001000Y32721000D01*
X32978000Y28774000D02*
X32978000Y31568000D01*
X31985000Y27781000D02*
X32978000Y28774000D01*
%TO.N,Net-(J2-Pin_9)*%
X24237000Y21431000D02*
X30923000Y21431000D01*
X31708000Y16328000D02*
X32815000Y15221000D01*
X30923000Y21431000D02*
X31708000Y20646000D01*
X32815000Y15221000D02*
X37001000Y15221000D01*
X31708000Y20646000D02*
X31708000Y16328000D01*
%TO.N,Net-(J2-Pin_7)*%
X24237000Y23971000D02*
X32447000Y23971000D01*
X34197000Y22221000D02*
X37001000Y22221000D01*
X32447000Y23971000D02*
X34197000Y22221000D01*
%TO.N,Net-(J2-Pin_1)*%
X28914000Y41474000D02*
X30661000Y43221000D01*
X24237000Y31591000D02*
X28175000Y31591000D01*
X28175000Y31591000D02*
X28914000Y32330000D01*
X28914000Y32330000D02*
X28914000Y41474000D01*
X30661000Y43221000D02*
X37001000Y43221000D01*
%TO.N,Net-(J2-Pin_10)*%
X30438000Y12772000D02*
X31489000Y11721000D01*
X29399000Y20161000D02*
X30438000Y19122000D01*
X24237000Y20161000D02*
X29399000Y20161000D01*
X30438000Y19122000D02*
X30438000Y12772000D01*
X31489000Y11721000D02*
X37001000Y11721000D01*
%TO.N,Net-(J2-Pin_5)*%
X32239000Y26511000D02*
X34949000Y29221000D01*
X34949000Y29221000D02*
X37001000Y29221000D01*
X24237000Y26511000D02*
X32239000Y26511000D01*
%TO.N,Net-(J2-Pin_8)*%
X33232000Y21408000D02*
X33232000Y19884000D01*
X24237000Y22701000D02*
X31939000Y22701000D01*
X34395000Y18721000D02*
X37001000Y18721000D01*
X31939000Y22701000D02*
X33232000Y21408000D01*
X33232000Y19884000D02*
X34395000Y18721000D01*
%TO.N,Net-(J2-Pin_11)*%
X28383000Y18891000D02*
X28914000Y18360000D01*
X24237000Y18891000D02*
X28383000Y18891000D01*
X28914000Y9216000D02*
X29909000Y8221000D01*
X29909000Y8221000D02*
X37001000Y8221000D01*
X28914000Y18360000D02*
X28914000Y9216000D01*
%TD*%
%TA.AperFunction,NonConductor*%
G36*
X40942539Y45979815D02*
G01*
X40988294Y45927011D01*
X40999500Y45875500D01*
X40999500Y624500D01*
X40979815Y557461D01*
X40927011Y511706D01*
X40875500Y500500D01*
X624500Y500500D01*
X557461Y520185D01*
X511706Y572989D01*
X500500Y624500D01*
X500500Y44783017D01*
X1926500Y44783017D01*
X1926500Y43182999D01*
X1926501Y43182982D01*
X1937000Y43080204D01*
X1937001Y43080201D01*
X1971014Y42977559D01*
X1992186Y42913666D01*
X2084288Y42764344D01*
X2208344Y42640288D01*
X2357666Y42548186D01*
X2524203Y42493001D01*
X2626991Y42482500D01*
X4827008Y42482501D01*
X4929797Y42493001D01*
X5096334Y42548186D01*
X5245656Y42640288D01*
X5369712Y42764344D01*
X5461814Y42913666D01*
X5505872Y43046625D01*
X5519129Y43086630D01*
X5520427Y43086200D01*
X5550160Y43141087D01*
X5611371Y43174777D01*
X5638135Y43177700D01*
X10018072Y43177700D01*
X10085111Y43158015D01*
X10105753Y43141381D01*
X11054381Y42192753D01*
X11087866Y42131430D01*
X11090700Y42105072D01*
X11090700Y39907530D01*
X11071015Y39840491D01*
X11018211Y39794736D01*
X10949053Y39784792D01*
X10885497Y39813817D01*
X10879019Y39819849D01*
X9709588Y40989278D01*
X9709585Y40989282D01*
X9709585Y40989281D01*
X9702518Y40996348D01*
X9702518Y40996349D01*
X9590349Y41108518D01*
X9590348Y41108519D01*
X9590347Y41108520D01*
X9458459Y41196645D01*
X9458446Y41196652D01*
X9311901Y41257352D01*
X9311891Y41257355D01*
X9156317Y41288301D01*
X9156315Y41288301D01*
X8997685Y41288301D01*
X8991571Y41288301D01*
X8991551Y41288300D01*
X5359816Y41288300D01*
X5292777Y41307985D01*
X5259498Y41339414D01*
X5223798Y41388551D01*
X5171517Y41460510D01*
X5004510Y41627517D01*
X4813433Y41766343D01*
X4774485Y41786188D01*
X4602996Y41873567D01*
X4378368Y41946554D01*
X4145097Y41983500D01*
X4145092Y41983500D01*
X3308908Y41983500D01*
X3308903Y41983500D01*
X3075631Y41946554D01*
X2851003Y41873567D01*
X2640566Y41766343D01*
X2531550Y41687138D01*
X2449490Y41627517D01*
X2449488Y41627515D01*
X2449487Y41627515D01*
X2282485Y41460513D01*
X2282485Y41460512D01*
X2282483Y41460510D01*
X2234658Y41394685D01*
X2143657Y41269434D01*
X2036433Y41058997D01*
X1963446Y40834369D01*
X1926500Y40601098D01*
X1926500Y40364903D01*
X1963446Y40131632D01*
X2036433Y39907004D01*
X2083915Y39813817D01*
X2143657Y39696567D01*
X2282483Y39505490D01*
X2449490Y39338483D01*
X2640567Y39199657D01*
X2739991Y39148998D01*
X2851003Y39092434D01*
X2851005Y39092434D01*
X2851008Y39092432D01*
X2946351Y39061453D01*
X3075631Y39019447D01*
X3308903Y38982500D01*
X3308908Y38982500D01*
X4145097Y38982500D01*
X4378368Y39019447D01*
X4470113Y39049257D01*
X4602992Y39092432D01*
X4813433Y39199657D01*
X5004510Y39338483D01*
X5171517Y39505490D01*
X5259499Y39626587D01*
X5314828Y39669251D01*
X5359816Y39677700D01*
X8692072Y39677700D01*
X8759111Y39658015D01*
X8779753Y39641381D01*
X9530381Y38890753D01*
X9563866Y38829430D01*
X9566700Y38803072D01*
X9566700Y36351530D01*
X9547015Y36284491D01*
X9494211Y36238736D01*
X9425053Y36228792D01*
X9361497Y36257817D01*
X9355019Y36263849D01*
X8129588Y37489278D01*
X8129585Y37489282D01*
X8129585Y37489281D01*
X8122518Y37496348D01*
X8122518Y37496349D01*
X8010349Y37608518D01*
X8010348Y37608519D01*
X8010347Y37608520D01*
X7878459Y37696645D01*
X7878446Y37696652D01*
X7731901Y37757352D01*
X7731891Y37757355D01*
X7576317Y37788301D01*
X7576315Y37788301D01*
X7417685Y37788301D01*
X7411571Y37788301D01*
X7411551Y37788300D01*
X5359816Y37788300D01*
X5292777Y37807985D01*
X5259498Y37839414D01*
X5171517Y37960510D01*
X5004510Y38127517D01*
X4813433Y38266343D01*
X4602996Y38373567D01*
X4378368Y38446554D01*
X4145097Y38483500D01*
X4145092Y38483500D01*
X3308908Y38483500D01*
X3308903Y38483500D01*
X3075631Y38446554D01*
X2851003Y38373567D01*
X2640566Y38266343D01*
X2531550Y38187138D01*
X2449490Y38127517D01*
X2449488Y38127515D01*
X2449487Y38127515D01*
X2282485Y37960513D01*
X2282485Y37960512D01*
X2282483Y37960510D01*
X2222862Y37878450D01*
X2143657Y37769434D01*
X2036433Y37558997D01*
X1963446Y37334369D01*
X1926500Y37101098D01*
X1926500Y36864903D01*
X1963446Y36631632D01*
X2036433Y36407004D01*
X2143657Y36196567D01*
X2282483Y36005490D01*
X2449490Y35838483D01*
X2640567Y35699657D01*
X2739991Y35648998D01*
X2851003Y35592434D01*
X2851005Y35592434D01*
X2851008Y35592432D01*
X2971412Y35553311D01*
X3075631Y35519447D01*
X3308903Y35482500D01*
X3308908Y35482500D01*
X4145097Y35482500D01*
X4378368Y35519447D01*
X4602992Y35592432D01*
X4813433Y35699657D01*
X5004510Y35838483D01*
X5171517Y36005490D01*
X5259499Y36126587D01*
X5314828Y36169251D01*
X5359816Y36177700D01*
X7112072Y36177700D01*
X7179111Y36158015D01*
X7199753Y36141381D01*
X8006381Y35334753D01*
X8039866Y35273430D01*
X8042700Y35247072D01*
X8042700Y33303528D01*
X8023015Y33236489D01*
X7970211Y33190734D01*
X7901053Y33180790D01*
X7837497Y33209815D01*
X7831019Y33215847D01*
X7054858Y33992008D01*
X7054838Y33992030D01*
X6938352Y34108516D01*
X6938348Y34108519D01*
X6806459Y34196645D01*
X6806446Y34196652D01*
X6659901Y34257352D01*
X6659891Y34257355D01*
X6504317Y34288301D01*
X6504315Y34288301D01*
X6345685Y34288301D01*
X6339571Y34288301D01*
X6339551Y34288300D01*
X5359816Y34288300D01*
X5292777Y34307985D01*
X5259498Y34339414D01*
X5171517Y34460510D01*
X5004510Y34627517D01*
X4813433Y34766343D01*
X4602996Y34873567D01*
X4378368Y34946554D01*
X4145097Y34983500D01*
X4145092Y34983500D01*
X3308908Y34983500D01*
X3308903Y34983500D01*
X3075631Y34946554D01*
X2851003Y34873567D01*
X2640566Y34766343D01*
X2531550Y34687138D01*
X2449490Y34627517D01*
X2449488Y34627515D01*
X2449487Y34627515D01*
X2282485Y34460513D01*
X2282485Y34460512D01*
X2282483Y34460510D01*
X2222862Y34378450D01*
X2143657Y34269434D01*
X2036433Y34058997D01*
X1963446Y33834369D01*
X1926500Y33601098D01*
X1926500Y33364903D01*
X1963446Y33131632D01*
X2036433Y32907004D01*
X2134302Y32714928D01*
X2143657Y32696567D01*
X2282483Y32505490D01*
X2449490Y32338483D01*
X2640567Y32199657D01*
X2739991Y32148998D01*
X2851003Y32092434D01*
X2851005Y32092434D01*
X2851008Y32092432D01*
X2971412Y32053311D01*
X3075631Y32019447D01*
X3308903Y31982500D01*
X3308908Y31982500D01*
X4145097Y31982500D01*
X4378368Y32019447D01*
X4602992Y32092432D01*
X4813433Y32199657D01*
X5004510Y32338483D01*
X5171517Y32505490D01*
X5259499Y32626587D01*
X5314828Y32669251D01*
X5359816Y32677700D01*
X6040072Y32677700D01*
X6107111Y32658015D01*
X6127753Y32641381D01*
X6482381Y32286753D01*
X6515866Y32225430D01*
X6518700Y32199072D01*
X6518700Y29374414D01*
X6499015Y29307375D01*
X6446211Y29261620D01*
X6377053Y29251676D01*
X6313497Y29280701D01*
X6307019Y29286733D01*
X5562546Y30031206D01*
X5529061Y30092529D01*
X5527754Y30099489D01*
X5522631Y30131834D01*
X5490553Y30334368D01*
X5417568Y30558992D01*
X5417566Y30558995D01*
X5417566Y30558997D01*
X5356652Y30678547D01*
X5310343Y30769433D01*
X5171517Y30960510D01*
X5004510Y31127517D01*
X4813433Y31266343D01*
X4793189Y31276658D01*
X4602996Y31373567D01*
X4378368Y31446554D01*
X4145097Y31483500D01*
X4145092Y31483500D01*
X3308908Y31483500D01*
X3308903Y31483500D01*
X3075631Y31446554D01*
X2851003Y31373567D01*
X2640566Y31266343D01*
X2558842Y31206966D01*
X2449490Y31127517D01*
X2449488Y31127515D01*
X2449487Y31127515D01*
X2282485Y30960513D01*
X2282485Y30960512D01*
X2282483Y30960510D01*
X2222862Y30878450D01*
X2143657Y30769434D01*
X2036433Y30558997D01*
X1963446Y30334369D01*
X1926500Y30101098D01*
X1926500Y29864903D01*
X1963446Y29631632D01*
X2036433Y29407004D01*
X2140540Y29202685D01*
X2143657Y29196567D01*
X2282483Y29005490D01*
X2449490Y28838483D01*
X2640567Y28699657D01*
X2739991Y28648998D01*
X2851003Y28592434D01*
X2851005Y28592434D01*
X2851008Y28592432D01*
X2971412Y28553311D01*
X3075631Y28519447D01*
X3308903Y28482500D01*
X3308908Y28482500D01*
X4145097Y28482500D01*
X4378368Y28519447D01*
X4602992Y28592432D01*
X4603002Y28592437D01*
X4607501Y28594299D01*
X4607941Y28593235D01*
X4671260Y28605136D01*
X4736004Y28578870D01*
X4746586Y28569434D01*
X5816039Y27499981D01*
X5849524Y27438658D01*
X5844540Y27368966D01*
X5802668Y27313033D01*
X5737204Y27288616D01*
X5728358Y27288300D01*
X5359816Y27288300D01*
X5292777Y27307985D01*
X5259498Y27339414D01*
X5171517Y27460510D01*
X5004510Y27627517D01*
X4813433Y27766343D01*
X4602996Y27873567D01*
X4378368Y27946554D01*
X4145097Y27983500D01*
X4145092Y27983500D01*
X3308908Y27983500D01*
X3308903Y27983500D01*
X3075631Y27946554D01*
X2851003Y27873567D01*
X2640566Y27766343D01*
X2531550Y27687138D01*
X2449490Y27627517D01*
X2449488Y27627515D01*
X2449487Y27627515D01*
X2282485Y27460513D01*
X2282485Y27460512D01*
X2282483Y27460510D01*
X2266607Y27438658D01*
X2143657Y27269434D01*
X2036433Y27058997D01*
X1963446Y26834369D01*
X1926500Y26601098D01*
X1926500Y26364903D01*
X1963446Y26131632D01*
X2036433Y25907004D01*
X2143657Y25696567D01*
X2282483Y25505490D01*
X2449490Y25338483D01*
X2640567Y25199657D01*
X2739991Y25148998D01*
X2851003Y25092434D01*
X2851005Y25092434D01*
X2851008Y25092432D01*
X2971412Y25053311D01*
X3075631Y25019447D01*
X3308903Y24982500D01*
X3308908Y24982500D01*
X4145097Y24982500D01*
X4378368Y25019447D01*
X4602992Y25092432D01*
X4813433Y25199657D01*
X5004510Y25338483D01*
X5171517Y25505490D01*
X5259499Y25626587D01*
X5263830Y25629927D01*
X5266103Y25634903D01*
X5291202Y25651034D01*
X5314828Y25669251D01*
X5321499Y25670504D01*
X5324881Y25672677D01*
X5359816Y25677700D01*
X5482072Y25677700D01*
X5549111Y25658015D01*
X5569753Y25641381D01*
X6223153Y24987981D01*
X6256638Y24926658D01*
X6251654Y24856966D01*
X6209782Y24801033D01*
X6144318Y24776616D01*
X6135472Y24776300D01*
X4800449Y24776300D01*
X4800429Y24776301D01*
X4794315Y24776301D01*
X4635685Y24776301D01*
X4635683Y24776301D01*
X4480108Y24745355D01*
X4480098Y24745352D01*
X4333553Y24684652D01*
X4333540Y24684645D01*
X4201652Y24596520D01*
X4181619Y24576486D01*
X4124950Y24519818D01*
X4063630Y24486334D01*
X4037271Y24483500D01*
X3308903Y24483500D01*
X3075631Y24446554D01*
X2851003Y24373567D01*
X2640566Y24266343D01*
X2531550Y24187138D01*
X2449490Y24127517D01*
X2449488Y24127515D01*
X2449487Y24127515D01*
X2282485Y23960513D01*
X2282485Y23960512D01*
X2282483Y23960510D01*
X2222862Y23878450D01*
X2143657Y23769434D01*
X2036433Y23558997D01*
X1963446Y23334369D01*
X1926500Y23101098D01*
X1926500Y22864903D01*
X1963446Y22631632D01*
X2036433Y22407004D01*
X2143657Y22196567D01*
X2282483Y22005490D01*
X2449490Y21838483D01*
X2640567Y21699657D01*
X2739991Y21648998D01*
X2851003Y21592434D01*
X2851005Y21592434D01*
X2851008Y21592432D01*
X2899885Y21576551D01*
X3075631Y21519447D01*
X3308903Y21482500D01*
X3308908Y21482500D01*
X4145097Y21482500D01*
X4378368Y21519447D01*
X4602992Y21592432D01*
X4813433Y21699657D01*
X5004510Y21838483D01*
X5171517Y22005490D01*
X5310343Y22196567D01*
X5417568Y22407008D01*
X5490553Y22631632D01*
X5527500Y22864903D01*
X5527500Y23041700D01*
X5547185Y23108739D01*
X5599989Y23154494D01*
X5651500Y23165700D01*
X6373472Y23165700D01*
X6440511Y23146015D01*
X6486266Y23093211D01*
X6496210Y23024053D01*
X6467185Y22960497D01*
X6461156Y22954023D01*
X5794654Y22287521D01*
X5794651Y22287518D01*
X5738565Y22231433D01*
X5682480Y22175348D01*
X5682478Y22175345D01*
X5615753Y22075483D01*
X5615753Y22075482D01*
X5594355Y22043459D01*
X5594348Y22043446D01*
X5533648Y21896902D01*
X5533645Y21896892D01*
X5502699Y21741318D01*
X5502699Y21576572D01*
X5502700Y21576551D01*
X5502700Y21030929D01*
X5483015Y20963890D01*
X5466381Y20943248D01*
X5164039Y20640907D01*
X5102716Y20607422D01*
X5033024Y20612406D01*
X5003478Y20628267D01*
X4813433Y20766343D01*
X4602996Y20873567D01*
X4378368Y20946554D01*
X4145097Y20983500D01*
X4145092Y20983500D01*
X3308908Y20983500D01*
X3308903Y20983500D01*
X3075631Y20946554D01*
X2851003Y20873567D01*
X2640566Y20766343D01*
X2531550Y20687138D01*
X2449490Y20627517D01*
X2449488Y20627515D01*
X2449487Y20627515D01*
X2282485Y20460513D01*
X2282485Y20460512D01*
X2282483Y20460510D01*
X2248705Y20414019D01*
X2143657Y20269434D01*
X2036433Y20058997D01*
X1963446Y19834369D01*
X1926500Y19601098D01*
X1926500Y19364903D01*
X1963446Y19131632D01*
X2036433Y18907004D01*
X2137501Y18708649D01*
X2143657Y18696567D01*
X2282483Y18505490D01*
X2449490Y18338483D01*
X2640567Y18199657D01*
X2739991Y18148998D01*
X2851003Y18092434D01*
X2851005Y18092434D01*
X2851008Y18092432D01*
X2971412Y18053311D01*
X3075631Y18019447D01*
X3308903Y17982500D01*
X3308908Y17982500D01*
X4145097Y17982500D01*
X4378368Y18019447D01*
X4602992Y18092432D01*
X4813433Y18199657D01*
X5004510Y18338483D01*
X5171517Y18505490D01*
X5280329Y18655257D01*
X5335653Y18697918D01*
X5356447Y18703983D01*
X5379897Y18708647D01*
X5526453Y18769352D01*
X5563809Y18794314D01*
X5630486Y18815191D01*
X5697867Y18796707D01*
X5744557Y18744728D01*
X5756700Y18691211D01*
X5756700Y17474929D01*
X5737015Y17407890D01*
X5720381Y17387248D01*
X5320261Y16987128D01*
X5258938Y16953643D01*
X5189246Y16958627D01*
X5144899Y16987128D01*
X5004512Y17127515D01*
X5004510Y17127517D01*
X4813433Y17266343D01*
X4602996Y17373567D01*
X4378368Y17446554D01*
X4145097Y17483500D01*
X4145092Y17483500D01*
X3308908Y17483500D01*
X3308903Y17483500D01*
X3075631Y17446554D01*
X2851003Y17373567D01*
X2640566Y17266343D01*
X2531550Y17187138D01*
X2449490Y17127517D01*
X2449488Y17127515D01*
X2449487Y17127515D01*
X2282485Y16960513D01*
X2282485Y16960512D01*
X2282483Y16960510D01*
X2231092Y16889776D01*
X2143657Y16769434D01*
X2036433Y16558997D01*
X1963446Y16334369D01*
X1926500Y16101098D01*
X1926500Y15864903D01*
X1963446Y15631632D01*
X2036433Y15407004D01*
X2106572Y15269350D01*
X2143657Y15196567D01*
X2282483Y15005490D01*
X2449490Y14838483D01*
X2640567Y14699657D01*
X2739991Y14648998D01*
X2851003Y14592434D01*
X2851005Y14592434D01*
X2851008Y14592432D01*
X2971412Y14553311D01*
X3075631Y14519447D01*
X3308903Y14482500D01*
X3308908Y14482500D01*
X4145097Y14482500D01*
X4378368Y14519447D01*
X4602992Y14592432D01*
X4813433Y14699657D01*
X5004510Y14838483D01*
X5171517Y15005490D01*
X5259499Y15126587D01*
X5263830Y15129927D01*
X5266103Y15134903D01*
X5291202Y15151034D01*
X5314828Y15169251D01*
X5321499Y15170504D01*
X5324881Y15172677D01*
X5359816Y15177700D01*
X5369551Y15177700D01*
X5369571Y15177699D01*
X5375685Y15177699D01*
X5534317Y15177699D01*
X5638982Y15198520D01*
X5689897Y15208647D01*
X5836453Y15269352D01*
X5882792Y15300315D01*
X5968349Y15357482D01*
X6080518Y15469651D01*
X6080519Y15469653D01*
X6087585Y15476719D01*
X6087588Y15476723D01*
X7068698Y16457834D01*
X7069196Y16458329D01*
X7092621Y16471060D01*
X7090234Y16474880D01*
X7090242Y16474885D01*
X7092630Y16471064D01*
X7099913Y16475022D01*
X7130342Y16491637D01*
X7130471Y16491628D01*
X7130586Y16491690D01*
X7165226Y16489143D01*
X7200034Y16486653D01*
X7200138Y16486575D01*
X7200268Y16486565D01*
X7228107Y16465638D01*
X7255967Y16444781D01*
X7256012Y16444660D01*
X7256117Y16444581D01*
X7268302Y16411709D01*
X7280384Y16379317D01*
X7280391Y16379096D01*
X7280402Y16379068D01*
X7280394Y16379033D01*
X7280700Y16370471D01*
X7280700Y15188928D01*
X7261015Y15121889D01*
X7244381Y15101247D01*
X5467753Y13324619D01*
X5406430Y13291134D01*
X5380072Y13288300D01*
X5359816Y13288300D01*
X5292777Y13307985D01*
X5259498Y13339414D01*
X5171517Y13460510D01*
X5004510Y13627517D01*
X4813433Y13766343D01*
X4602996Y13873567D01*
X4378368Y13946554D01*
X4145097Y13983500D01*
X4145092Y13983500D01*
X3308908Y13983500D01*
X3308903Y13983500D01*
X3075631Y13946554D01*
X2851003Y13873567D01*
X2640566Y13766343D01*
X2531550Y13687138D01*
X2449490Y13627517D01*
X2449488Y13627515D01*
X2449487Y13627515D01*
X2282485Y13460513D01*
X2282485Y13460512D01*
X2282483Y13460510D01*
X2222862Y13378450D01*
X2143657Y13269434D01*
X2036433Y13058997D01*
X1963446Y12834369D01*
X1926500Y12601098D01*
X1926500Y12364903D01*
X1963446Y12131632D01*
X2036433Y11907004D01*
X2106572Y11769350D01*
X2143657Y11696567D01*
X2282483Y11505490D01*
X2449490Y11338483D01*
X2640567Y11199657D01*
X2739991Y11148998D01*
X2851003Y11092434D01*
X2851005Y11092434D01*
X2851008Y11092432D01*
X2971412Y11053311D01*
X3075631Y11019447D01*
X3308903Y10982500D01*
X3308908Y10982500D01*
X4145097Y10982500D01*
X4378368Y11019447D01*
X4602992Y11092432D01*
X4813433Y11199657D01*
X5004510Y11338483D01*
X5171517Y11505490D01*
X5259499Y11626587D01*
X5314828Y11669251D01*
X5359816Y11677700D01*
X5679551Y11677700D01*
X5679571Y11677699D01*
X5685685Y11677699D01*
X5844317Y11677699D01*
X5948982Y11698520D01*
X5999897Y11708647D01*
X6146453Y11769352D01*
X6192792Y11800315D01*
X6278349Y11857482D01*
X6390518Y11969651D01*
X6390519Y11969653D01*
X6397585Y11976719D01*
X6397588Y11976723D01*
X8592698Y14171834D01*
X8593196Y14172329D01*
X8616621Y14185060D01*
X8614234Y14188880D01*
X8614242Y14188885D01*
X8616630Y14185064D01*
X8623913Y14189022D01*
X8654342Y14205637D01*
X8654471Y14205628D01*
X8654586Y14205690D01*
X8689226Y14203143D01*
X8724034Y14200653D01*
X8724138Y14200575D01*
X8724268Y14200565D01*
X8752107Y14179638D01*
X8779967Y14158781D01*
X8780012Y14158660D01*
X8780117Y14158581D01*
X8792302Y14125709D01*
X8804384Y14093317D01*
X8804391Y14093096D01*
X8804402Y14093068D01*
X8804394Y14093033D01*
X8804700Y14084471D01*
X8804700Y11632928D01*
X8785015Y11565889D01*
X8768381Y11545247D01*
X7047753Y9824619D01*
X6986430Y9791134D01*
X6960072Y9788300D01*
X5359816Y9788300D01*
X5292777Y9807985D01*
X5259498Y9839414D01*
X5171517Y9960510D01*
X5004510Y10127517D01*
X4813433Y10266343D01*
X4780116Y10283319D01*
X4602996Y10373567D01*
X4378368Y10446554D01*
X4145097Y10483500D01*
X4145092Y10483500D01*
X3308908Y10483500D01*
X3308903Y10483500D01*
X3075631Y10446554D01*
X2851003Y10373567D01*
X2640566Y10266343D01*
X2531550Y10187138D01*
X2449490Y10127517D01*
X2449488Y10127515D01*
X2449487Y10127515D01*
X2282485Y9960513D01*
X2282485Y9960512D01*
X2282483Y9960510D01*
X2222862Y9878450D01*
X2143657Y9769434D01*
X2036433Y9558997D01*
X1963446Y9334369D01*
X1926500Y9101098D01*
X1926500Y8864903D01*
X1963446Y8631632D01*
X2036433Y8407004D01*
X2106572Y8269350D01*
X2143657Y8196567D01*
X2282483Y8005490D01*
X2449490Y7838483D01*
X2640567Y7699657D01*
X2739991Y7648998D01*
X2851003Y7592434D01*
X2851005Y7592434D01*
X2851008Y7592432D01*
X2971412Y7553311D01*
X3075631Y7519447D01*
X3308903Y7482500D01*
X3308908Y7482500D01*
X4145097Y7482500D01*
X4378368Y7519447D01*
X4387616Y7522452D01*
X4602992Y7592432D01*
X4813433Y7699657D01*
X5004510Y7838483D01*
X5171517Y8005490D01*
X5259499Y8126587D01*
X5314828Y8169251D01*
X5359816Y8177700D01*
X7259551Y8177700D01*
X7259571Y8177699D01*
X7265685Y8177699D01*
X7424317Y8177699D01*
X7528982Y8198520D01*
X7579897Y8208647D01*
X7726453Y8269352D01*
X7772792Y8300315D01*
X7858349Y8357482D01*
X7970518Y8469651D01*
X7970519Y8469653D01*
X7977585Y8476719D01*
X7977587Y8476723D01*
X9863020Y10362156D01*
X9924342Y10395639D01*
X9994034Y10390655D01*
X10049967Y10348783D01*
X10074384Y10283319D01*
X10074700Y10274473D01*
X10074700Y7822929D01*
X10055015Y7755890D01*
X10038381Y7735248D01*
X8627753Y6324619D01*
X8566430Y6291134D01*
X8540072Y6288300D01*
X5359816Y6288300D01*
X5292777Y6307985D01*
X5259498Y6339414D01*
X5171517Y6460510D01*
X5004510Y6627517D01*
X4813433Y6766343D01*
X4602996Y6873567D01*
X4378368Y6946554D01*
X4145097Y6983500D01*
X4145092Y6983500D01*
X3308908Y6983500D01*
X3308903Y6983500D01*
X3075631Y6946554D01*
X2851003Y6873567D01*
X2640566Y6766343D01*
X2531550Y6687138D01*
X2449490Y6627517D01*
X2449488Y6627515D01*
X2449487Y6627515D01*
X2282485Y6460513D01*
X2282485Y6460512D01*
X2282483Y6460510D01*
X2222862Y6378450D01*
X2143657Y6269434D01*
X2036433Y6058997D01*
X1963446Y5834369D01*
X1926500Y5601098D01*
X1926500Y5364903D01*
X1963446Y5131632D01*
X2036433Y4907004D01*
X2137501Y4708649D01*
X2143657Y4696567D01*
X2282483Y4505490D01*
X2449490Y4338483D01*
X2640567Y4199657D01*
X2739991Y4148998D01*
X2851003Y4092434D01*
X2851005Y4092434D01*
X2851008Y4092432D01*
X2971412Y4053311D01*
X3075631Y4019447D01*
X3308903Y3982500D01*
X3308908Y3982500D01*
X4145097Y3982500D01*
X4378368Y4019447D01*
X4602992Y4092432D01*
X4813433Y4199657D01*
X5004510Y4338483D01*
X5171517Y4505490D01*
X5259499Y4626587D01*
X5314828Y4669251D01*
X5359816Y4677700D01*
X8839551Y4677700D01*
X8839571Y4677699D01*
X8845685Y4677699D01*
X9004317Y4677699D01*
X9108982Y4698520D01*
X9159897Y4708647D01*
X9306453Y4769352D01*
X9306458Y4769356D01*
X9306461Y4769357D01*
X9318203Y4777204D01*
X9354401Y4801390D01*
X9438349Y4857482D01*
X9550518Y4969651D01*
X9550518Y4969653D01*
X9560726Y4979860D01*
X9560727Y4979863D01*
X11505518Y6924651D01*
X11593648Y7056547D01*
X11654354Y7203103D01*
X11685301Y7358685D01*
X11685301Y7517316D01*
X11685301Y7522426D01*
X11685300Y7522452D01*
X11685300Y16691700D01*
X11704985Y16758739D01*
X11757789Y16804494D01*
X11809300Y16815700D01*
X15016314Y16815700D01*
X15016315Y16815700D01*
X15028468Y16818118D01*
X15052658Y16820500D01*
X15877686Y16820500D01*
X15877694Y16820500D01*
X15914569Y16823402D01*
X15914571Y16823403D01*
X15914573Y16823403D01*
X15956191Y16835495D01*
X16072398Y16869256D01*
X16213865Y16952919D01*
X16214589Y16953643D01*
X16224628Y16963681D01*
X16285951Y16997166D01*
X16312309Y17000000D01*
X17180000Y17000000D01*
X17180000Y32367621D01*
X21953429Y32367621D01*
X21953429Y16867621D01*
X23089583Y16867621D01*
X23124177Y16862698D01*
X23259431Y16823402D01*
X23296306Y16820500D01*
X24121342Y16820500D01*
X24145531Y16818118D01*
X24157685Y16815700D01*
X26714700Y16815700D01*
X26781739Y16796015D01*
X26827494Y16743211D01*
X26838700Y16691700D01*
X26838700Y6252451D01*
X26838699Y6252425D01*
X26838699Y6088683D01*
X26859877Y5982219D01*
X26859877Y5982218D01*
X26869645Y5933111D01*
X26869648Y5933099D01*
X26930348Y5786554D01*
X26930355Y5786541D01*
X27018481Y5654652D01*
X27018484Y5654648D01*
X27134970Y5538162D01*
X27134992Y5538142D01*
X28462356Y4210778D01*
X28462385Y4210747D01*
X28577647Y4095485D01*
X28577652Y4095481D01*
X28605633Y4076785D01*
X28661599Y4039390D01*
X28661600Y4039389D01*
X28709538Y4007357D01*
X28709553Y4007349D01*
X28856098Y3946649D01*
X28856103Y3946647D01*
X28856107Y3946647D01*
X28856108Y3946646D01*
X29011682Y3915699D01*
X29011685Y3915699D01*
X29176429Y3915699D01*
X29176449Y3915700D01*
X35368184Y3915700D01*
X35435223Y3896015D01*
X35468500Y3864588D01*
X35556483Y3743490D01*
X35723490Y3576483D01*
X35914567Y3437657D01*
X36013991Y3386998D01*
X36125003Y3330434D01*
X36125005Y3330434D01*
X36125008Y3330432D01*
X36245412Y3291311D01*
X36349631Y3257447D01*
X36582903Y3220500D01*
X36582908Y3220500D01*
X37419097Y3220500D01*
X37652368Y3257447D01*
X37876992Y3330432D01*
X38087433Y3437657D01*
X38278510Y3576483D01*
X38445517Y3743490D01*
X38584343Y3934567D01*
X38691568Y4145008D01*
X38764553Y4369632D01*
X38801500Y4602903D01*
X38801500Y4839098D01*
X38764553Y5072369D01*
X38691566Y5296997D01*
X38584342Y5507434D01*
X38570635Y5526300D01*
X38445517Y5698510D01*
X38278510Y5865517D01*
X38087433Y6004343D01*
X37876996Y6111567D01*
X37652368Y6184554D01*
X37419097Y6221500D01*
X37419092Y6221500D01*
X36582908Y6221500D01*
X36582903Y6221500D01*
X36349631Y6184554D01*
X36125003Y6111567D01*
X35914566Y6004343D01*
X35816525Y5933111D01*
X35723490Y5865517D01*
X35723488Y5865515D01*
X35723487Y5865515D01*
X35556485Y5698513D01*
X35468502Y5577414D01*
X35413172Y5534749D01*
X35368184Y5526300D01*
X29475928Y5526300D01*
X29408889Y5545985D01*
X29388247Y5562619D01*
X28485619Y6465247D01*
X28452134Y6526570D01*
X28449300Y6552928D01*
X28449300Y8242472D01*
X28468985Y8309511D01*
X28521789Y8355266D01*
X28590947Y8365210D01*
X28654503Y8336185D01*
X28660981Y8330153D01*
X29280356Y7710778D01*
X29280385Y7710747D01*
X29395650Y7595482D01*
X29512626Y7517322D01*
X29527547Y7507352D01*
X29631177Y7464428D01*
X29674102Y7446647D01*
X29734833Y7434567D01*
X29829679Y7415701D01*
X29829683Y7415700D01*
X29829684Y7415700D01*
X29829685Y7415700D01*
X35368184Y7415700D01*
X35435223Y7396015D01*
X35468500Y7364588D01*
X35556483Y7243490D01*
X35723490Y7076483D01*
X35914567Y6937657D01*
X35940091Y6924652D01*
X36125003Y6830434D01*
X36125005Y6830434D01*
X36125008Y6830432D01*
X36245412Y6791311D01*
X36349631Y6757447D01*
X36582903Y6720500D01*
X36582908Y6720500D01*
X37419097Y6720500D01*
X37652368Y6757447D01*
X37679747Y6766343D01*
X37876992Y6830432D01*
X38087433Y6937657D01*
X38278510Y7076483D01*
X38445517Y7243490D01*
X38584343Y7434567D01*
X38691568Y7645008D01*
X38764553Y7869632D01*
X38801500Y8102903D01*
X38801500Y8339098D01*
X38764553Y8572369D01*
X38691566Y8796997D01*
X38584342Y9007434D01*
X38570635Y9026300D01*
X38445517Y9198510D01*
X38278510Y9365517D01*
X38087433Y9504343D01*
X38069958Y9513247D01*
X37876996Y9611567D01*
X37652368Y9684554D01*
X37419097Y9721500D01*
X37419092Y9721500D01*
X36582908Y9721500D01*
X36582903Y9721500D01*
X36349631Y9684554D01*
X36125003Y9611567D01*
X35914566Y9504343D01*
X35805550Y9425138D01*
X35723490Y9365517D01*
X35723488Y9365515D01*
X35723487Y9365515D01*
X35556485Y9198513D01*
X35468502Y9077414D01*
X35413172Y9034749D01*
X35368184Y9026300D01*
X30293928Y9026300D01*
X30226889Y9045985D01*
X30206247Y9062619D01*
X29755619Y9513247D01*
X29722134Y9574570D01*
X29719300Y9600928D01*
X29719300Y12052472D01*
X29738985Y12119511D01*
X29791789Y12165266D01*
X29860947Y12175210D01*
X29924503Y12146185D01*
X29930981Y12140153D01*
X30860356Y11210778D01*
X30860385Y11210747D01*
X30975650Y11095482D01*
X31107541Y11007356D01*
X31107547Y11007352D01*
X31211177Y10964428D01*
X31254102Y10946647D01*
X31314833Y10934567D01*
X31409679Y10915701D01*
X31409683Y10915700D01*
X31409684Y10915700D01*
X31409685Y10915700D01*
X35368184Y10915700D01*
X35435223Y10896015D01*
X35468500Y10864588D01*
X35556483Y10743490D01*
X35723490Y10576483D01*
X35914567Y10437657D01*
X35997032Y10395639D01*
X36125003Y10330434D01*
X36125005Y10330434D01*
X36125008Y10330432D01*
X36245412Y10291311D01*
X36349631Y10257447D01*
X36582903Y10220500D01*
X36582908Y10220500D01*
X37419097Y10220500D01*
X37652368Y10257447D01*
X37704768Y10274473D01*
X37876992Y10330432D01*
X38087433Y10437657D01*
X38278510Y10576483D01*
X38445517Y10743490D01*
X38584343Y10934567D01*
X38691568Y11145008D01*
X38764553Y11369632D01*
X38801500Y11602903D01*
X38801500Y11839098D01*
X38764553Y12072369D01*
X38691566Y12296997D01*
X38584342Y12507434D01*
X38570635Y12526300D01*
X38445517Y12698510D01*
X38278510Y12865517D01*
X38087433Y13004343D01*
X37876996Y13111567D01*
X37652368Y13184554D01*
X37419097Y13221500D01*
X37419092Y13221500D01*
X36582908Y13221500D01*
X36582903Y13221500D01*
X36349631Y13184554D01*
X36125003Y13111567D01*
X35914566Y13004343D01*
X35805550Y12925138D01*
X35723490Y12865517D01*
X35723488Y12865515D01*
X35723487Y12865515D01*
X35556485Y12698513D01*
X35468502Y12577414D01*
X35413172Y12534749D01*
X35368184Y12526300D01*
X31873928Y12526300D01*
X31806889Y12545985D01*
X31786247Y12562619D01*
X31279619Y13069247D01*
X31246134Y13130570D01*
X31243300Y13156928D01*
X31243300Y15354472D01*
X31262985Y15421511D01*
X31315789Y15467266D01*
X31384947Y15477210D01*
X31448503Y15448185D01*
X31454981Y15442153D01*
X32186356Y14710778D01*
X32186385Y14710747D01*
X32301650Y14595482D01*
X32433541Y14507356D01*
X32433547Y14507352D01*
X32537177Y14464428D01*
X32580102Y14446647D01*
X32639943Y14434744D01*
X32735679Y14415701D01*
X32735683Y14415700D01*
X32735684Y14415700D01*
X32735685Y14415700D01*
X35368184Y14415700D01*
X35435223Y14396015D01*
X35468500Y14364588D01*
X35556483Y14243490D01*
X35723490Y14076483D01*
X35914567Y13937657D01*
X36013991Y13886998D01*
X36125003Y13830434D01*
X36125005Y13830434D01*
X36125008Y13830432D01*
X36245412Y13791311D01*
X36349631Y13757447D01*
X36582903Y13720500D01*
X36582908Y13720500D01*
X37419097Y13720500D01*
X37652368Y13757447D01*
X37679747Y13766343D01*
X37876992Y13830432D01*
X38087433Y13937657D01*
X38278510Y14076483D01*
X38445517Y14243490D01*
X38584343Y14434567D01*
X38691568Y14645008D01*
X38764553Y14869632D01*
X38801500Y15102903D01*
X38801500Y15339098D01*
X38764553Y15572369D01*
X38691566Y15796997D01*
X38584342Y16007434D01*
X38570635Y16026300D01*
X38445517Y16198510D01*
X38278510Y16365517D01*
X38087433Y16504343D01*
X37876996Y16611567D01*
X37652368Y16684554D01*
X37419097Y16721500D01*
X37419092Y16721500D01*
X36582908Y16721500D01*
X36582903Y16721500D01*
X36349631Y16684554D01*
X36125003Y16611567D01*
X35914566Y16504343D01*
X35832312Y16444581D01*
X35723490Y16365517D01*
X35723488Y16365515D01*
X35723487Y16365515D01*
X35556485Y16198513D01*
X35468502Y16077414D01*
X35413172Y16034749D01*
X35368184Y16026300D01*
X33199928Y16026300D01*
X33132889Y16045985D01*
X33112247Y16062619D01*
X32549619Y16625247D01*
X32516134Y16686570D01*
X32513300Y16712928D01*
X32513300Y19164472D01*
X32532985Y19231511D01*
X32585789Y19277266D01*
X32654947Y19287210D01*
X32718503Y19258185D01*
X32724981Y19252153D01*
X33766356Y18210778D01*
X33766385Y18210747D01*
X33881647Y18095485D01*
X33881651Y18095482D01*
X34013540Y18007356D01*
X34013547Y18007352D01*
X34104887Y17969518D01*
X34160102Y17946647D01*
X34315679Y17915701D01*
X34315683Y17915700D01*
X34315684Y17915700D01*
X34315685Y17915700D01*
X35368184Y17915700D01*
X35435223Y17896015D01*
X35468500Y17864588D01*
X35556483Y17743490D01*
X35723490Y17576483D01*
X35914567Y17437657D01*
X35972988Y17407890D01*
X36125003Y17330434D01*
X36125005Y17330434D01*
X36125008Y17330432D01*
X36245412Y17291311D01*
X36349631Y17257447D01*
X36582903Y17220500D01*
X36582908Y17220500D01*
X37419097Y17220500D01*
X37652368Y17257447D01*
X37679747Y17266343D01*
X37876992Y17330432D01*
X38087433Y17437657D01*
X38278510Y17576483D01*
X38445517Y17743490D01*
X38584343Y17934567D01*
X38691568Y18145008D01*
X38764553Y18369632D01*
X38801500Y18602903D01*
X38801500Y18839098D01*
X38764553Y19072369D01*
X38704081Y19258480D01*
X38691568Y19296992D01*
X38691566Y19296995D01*
X38691566Y19296997D01*
X38635002Y19408009D01*
X38584343Y19507433D01*
X38445517Y19698510D01*
X38278510Y19865517D01*
X38087433Y20004343D01*
X38040044Y20028489D01*
X37876996Y20111567D01*
X37652368Y20184554D01*
X37419097Y20221500D01*
X37419092Y20221500D01*
X36582908Y20221500D01*
X36582903Y20221500D01*
X36349631Y20184554D01*
X36125003Y20111567D01*
X35914566Y20004343D01*
X35871138Y19972790D01*
X35723490Y19865517D01*
X35723488Y19865515D01*
X35723487Y19865515D01*
X35556485Y19698513D01*
X35468502Y19577414D01*
X35413172Y19534749D01*
X35368184Y19526300D01*
X34779928Y19526300D01*
X34712889Y19545985D01*
X34692247Y19562619D01*
X34073619Y20181247D01*
X34040134Y20242570D01*
X34037300Y20268928D01*
X34037300Y21291699D01*
X34039850Y21300385D01*
X34038562Y21309345D01*
X34049540Y21333387D01*
X34056985Y21358738D01*
X34063824Y21364665D01*
X34067586Y21372901D01*
X34089821Y21387192D01*
X34109789Y21404493D01*
X34120301Y21406781D01*
X34126364Y21410676D01*
X34161297Y21415699D01*
X34161299Y21415699D01*
X34276316Y21415699D01*
X34276320Y21415700D01*
X34282449Y21415700D01*
X35368184Y21415700D01*
X35435223Y21396015D01*
X35468500Y21364588D01*
X35556483Y21243490D01*
X35723490Y21076483D01*
X35914567Y20937657D01*
X36013991Y20886998D01*
X36125003Y20830434D01*
X36125005Y20830434D01*
X36125008Y20830432D01*
X36181225Y20812166D01*
X36349631Y20757447D01*
X36582903Y20720500D01*
X36582908Y20720500D01*
X37419097Y20720500D01*
X37652368Y20757447D01*
X37679747Y20766343D01*
X37876992Y20830432D01*
X38087433Y20937657D01*
X38278510Y21076483D01*
X38445517Y21243490D01*
X38584343Y21434567D01*
X38691568Y21645008D01*
X38764553Y21869632D01*
X38767886Y21890677D01*
X38801500Y22102903D01*
X38801500Y22339098D01*
X38764553Y22572369D01*
X38691566Y22796997D01*
X38584342Y23007434D01*
X38445517Y23198510D01*
X38278510Y23365517D01*
X38087433Y23504343D01*
X37876996Y23611567D01*
X37652368Y23684554D01*
X37419097Y23721500D01*
X37419092Y23721500D01*
X36582908Y23721500D01*
X36582903Y23721500D01*
X36349631Y23684554D01*
X36125003Y23611567D01*
X35914566Y23504343D01*
X35805550Y23425138D01*
X35723490Y23365517D01*
X35723488Y23365515D01*
X35723487Y23365515D01*
X35556485Y23198513D01*
X35556483Y23198510D01*
X35491261Y23108739D01*
X35468502Y23077414D01*
X35413172Y23034749D01*
X35368184Y23026300D01*
X34581928Y23026300D01*
X34514889Y23045985D01*
X34494247Y23062619D01*
X33076858Y24480008D01*
X33072520Y24484346D01*
X33072518Y24484349D01*
X33061542Y24495325D01*
X33042124Y24530891D01*
X33028063Y24556643D01*
X33028063Y24556647D01*
X33028061Y24556651D01*
X33030673Y24593134D01*
X33033047Y24626335D01*
X33033049Y24626340D01*
X33033050Y24626342D01*
X33033060Y24626357D01*
X33061544Y24670678D01*
X33118518Y24727651D01*
X33118518Y24727653D01*
X33128727Y24737861D01*
X33128729Y24737864D01*
X33270250Y24879382D01*
X33331573Y24912866D01*
X33357930Y24915700D01*
X35368184Y24915700D01*
X35435223Y24896015D01*
X35468500Y24864588D01*
X35556483Y24743490D01*
X35723490Y24576483D01*
X35914567Y24437657D01*
X36013991Y24386998D01*
X36125003Y24330434D01*
X36125005Y24330434D01*
X36125008Y24330432D01*
X36245412Y24291311D01*
X36349631Y24257447D01*
X36582903Y24220500D01*
X36582908Y24220500D01*
X37419097Y24220500D01*
X37652368Y24257447D01*
X37679747Y24266343D01*
X37876992Y24330432D01*
X38087433Y24437657D01*
X38278510Y24576483D01*
X38445517Y24743490D01*
X38584343Y24934567D01*
X38691568Y25145008D01*
X38764553Y25369632D01*
X38801500Y25602903D01*
X38801500Y25839098D01*
X38764553Y26072369D01*
X38691566Y26296997D01*
X38584342Y26507434D01*
X38570635Y26526300D01*
X38445517Y26698510D01*
X38278510Y26865517D01*
X38087433Y27004343D01*
X37876996Y27111567D01*
X37652368Y27184554D01*
X37419097Y27221500D01*
X37419092Y27221500D01*
X36582908Y27221500D01*
X36582903Y27221500D01*
X36349631Y27184554D01*
X36125003Y27111567D01*
X35914566Y27004343D01*
X35805550Y26925138D01*
X35723490Y26865517D01*
X35723488Y26865515D01*
X35723487Y26865515D01*
X35556485Y26698513D01*
X35556483Y26698510D01*
X35484032Y26598789D01*
X35468502Y26577414D01*
X35413172Y26534749D01*
X35368184Y26526300D01*
X33692528Y26526300D01*
X33625489Y26545985D01*
X33579734Y26598789D01*
X33569790Y26667947D01*
X33598815Y26731503D01*
X33604847Y26737981D01*
X35246247Y28379381D01*
X35273174Y28394085D01*
X35298993Y28410677D01*
X35305193Y28411569D01*
X35307570Y28412866D01*
X35333928Y28415700D01*
X35368184Y28415700D01*
X35435223Y28396015D01*
X35468500Y28364588D01*
X35556483Y28243490D01*
X35723490Y28076483D01*
X35914567Y27937657D01*
X36013991Y27886998D01*
X36125003Y27830434D01*
X36125005Y27830434D01*
X36125008Y27830432D01*
X36245412Y27791311D01*
X36349631Y27757447D01*
X36582903Y27720500D01*
X36582908Y27720500D01*
X37419097Y27720500D01*
X37652368Y27757447D01*
X37679747Y27766343D01*
X37876992Y27830432D01*
X38087433Y27937657D01*
X38278510Y28076483D01*
X38445517Y28243490D01*
X38584343Y28434567D01*
X38691568Y28645008D01*
X38764553Y28869632D01*
X38801500Y29102903D01*
X38801500Y29339098D01*
X38764553Y29572369D01*
X38691566Y29796997D01*
X38621427Y29934652D01*
X38584343Y30007433D01*
X38445517Y30198510D01*
X38278510Y30365517D01*
X38087433Y30504343D01*
X37876996Y30611567D01*
X37652368Y30684554D01*
X37419097Y30721500D01*
X37419092Y30721500D01*
X36582908Y30721500D01*
X36582903Y30721500D01*
X36349631Y30684554D01*
X36125003Y30611567D01*
X35914566Y30504343D01*
X35818412Y30434482D01*
X35723490Y30365517D01*
X35723488Y30365515D01*
X35723487Y30365515D01*
X35556485Y30198513D01*
X35556483Y30198510D01*
X35479484Y30092529D01*
X35468502Y30077414D01*
X35413172Y30034749D01*
X35368184Y30026300D01*
X35034450Y30026300D01*
X35034430Y30026301D01*
X35028316Y30026301D01*
X34869685Y30026301D01*
X34869680Y30026301D01*
X34714110Y29995356D01*
X34714102Y29995354D01*
X34579374Y29939547D01*
X34579373Y29939547D01*
X34567553Y29934652D01*
X34567540Y29934645D01*
X34435652Y29846520D01*
X34386130Y29796997D01*
X34323482Y29734349D01*
X33994981Y29405848D01*
X33933658Y29372363D01*
X33863966Y29377347D01*
X33808033Y29419219D01*
X33783616Y29484683D01*
X33783300Y29493529D01*
X33783300Y31183072D01*
X33802985Y31250111D01*
X33819619Y31270753D01*
X34428247Y31879381D01*
X34489570Y31912866D01*
X34515928Y31915700D01*
X35368184Y31915700D01*
X35435223Y31896015D01*
X35468500Y31864588D01*
X35556483Y31743490D01*
X35723490Y31576483D01*
X35914567Y31437657D01*
X36013991Y31386998D01*
X36125003Y31330434D01*
X36125005Y31330434D01*
X36125008Y31330432D01*
X36245412Y31291311D01*
X36349631Y31257447D01*
X36582903Y31220500D01*
X36582908Y31220500D01*
X37419097Y31220500D01*
X37652368Y31257447D01*
X37679747Y31266343D01*
X37876992Y31330432D01*
X38087433Y31437657D01*
X38278510Y31576483D01*
X38445517Y31743490D01*
X38584343Y31934567D01*
X38691568Y32145008D01*
X38764553Y32369632D01*
X38772588Y32420363D01*
X38801500Y32602903D01*
X38801500Y32839098D01*
X38764553Y33072369D01*
X38711922Y33234349D01*
X38691568Y33296992D01*
X38691566Y33296995D01*
X38691566Y33296997D01*
X38590498Y33495353D01*
X38584343Y33507433D01*
X38445517Y33698510D01*
X38278510Y33865517D01*
X38087433Y34004343D01*
X37876996Y34111567D01*
X37652368Y34184554D01*
X37419097Y34221500D01*
X37419092Y34221500D01*
X36582908Y34221500D01*
X36582903Y34221500D01*
X36349631Y34184554D01*
X36125003Y34111567D01*
X35914566Y34004343D01*
X35897589Y33992008D01*
X35723490Y33865517D01*
X35723488Y33865515D01*
X35723487Y33865515D01*
X35556485Y33698513D01*
X35468502Y33577414D01*
X35413172Y33534749D01*
X35368184Y33526300D01*
X34051679Y33526300D01*
X33896109Y33495356D01*
X33896105Y33495354D01*
X33896103Y33495354D01*
X33896102Y33495353D01*
X33853177Y33477573D01*
X33853175Y33477572D01*
X33749549Y33434650D01*
X33749540Y33434645D01*
X33617652Y33346520D01*
X33574661Y33303528D01*
X33505482Y33234349D01*
X32724981Y32453848D01*
X32663658Y32420363D01*
X32593966Y32425347D01*
X32538033Y32467219D01*
X32513616Y32532683D01*
X32513300Y32541529D01*
X32513300Y34485072D01*
X32532985Y34552111D01*
X32549619Y34572753D01*
X33356248Y35379381D01*
X33417571Y35412866D01*
X33443929Y35415700D01*
X35368184Y35415700D01*
X35435223Y35396015D01*
X35468500Y35364588D01*
X35556483Y35243490D01*
X35723490Y35076483D01*
X35914567Y34937657D01*
X36013991Y34886998D01*
X36125003Y34830434D01*
X36125005Y34830434D01*
X36125008Y34830432D01*
X36245412Y34791311D01*
X36349631Y34757447D01*
X36582903Y34720500D01*
X36582908Y34720500D01*
X37419097Y34720500D01*
X37652368Y34757447D01*
X37679747Y34766343D01*
X37876992Y34830432D01*
X38087433Y34937657D01*
X38278510Y35076483D01*
X38445517Y35243490D01*
X38584343Y35434567D01*
X38691568Y35645008D01*
X38764553Y35869632D01*
X38801500Y36102903D01*
X38801500Y36339098D01*
X38764553Y36572369D01*
X38691566Y36796997D01*
X38621428Y36934650D01*
X38584343Y37007433D01*
X38445517Y37198510D01*
X38278510Y37365517D01*
X38087433Y37504343D01*
X37876996Y37611567D01*
X37652368Y37684554D01*
X37419097Y37721500D01*
X37419092Y37721500D01*
X36582908Y37721500D01*
X36582903Y37721500D01*
X36349631Y37684554D01*
X36125003Y37611567D01*
X35914566Y37504343D01*
X35805550Y37425138D01*
X35723490Y37365517D01*
X35723488Y37365515D01*
X35723487Y37365515D01*
X35556485Y37198513D01*
X35468502Y37077414D01*
X35413172Y37034749D01*
X35368184Y37026300D01*
X33144450Y37026300D01*
X33144430Y37026301D01*
X33138316Y37026301D01*
X32979685Y37026301D01*
X32979680Y37026301D01*
X32824110Y36995356D01*
X32824102Y36995354D01*
X32677550Y36934650D01*
X32677540Y36934645D01*
X32545651Y36846519D01*
X32545647Y36846516D01*
X31454981Y35755849D01*
X31393658Y35722364D01*
X31323966Y35727348D01*
X31268033Y35769220D01*
X31243616Y35834684D01*
X31243300Y35843530D01*
X31243300Y38295072D01*
X31262985Y38362111D01*
X31279619Y38382753D01*
X31776247Y38879381D01*
X31837570Y38912866D01*
X31863928Y38915700D01*
X35368184Y38915700D01*
X35435223Y38896015D01*
X35468500Y38864588D01*
X35556483Y38743490D01*
X35723490Y38576483D01*
X35914567Y38437657D01*
X36013991Y38386998D01*
X36125003Y38330434D01*
X36125005Y38330434D01*
X36125008Y38330432D01*
X36233835Y38295072D01*
X36349631Y38257447D01*
X36582903Y38220500D01*
X36582908Y38220500D01*
X37419097Y38220500D01*
X37652368Y38257447D01*
X37679747Y38266343D01*
X37876992Y38330432D01*
X38087433Y38437657D01*
X38278510Y38576483D01*
X38445517Y38743490D01*
X38584343Y38934567D01*
X38691568Y39145008D01*
X38764553Y39369632D01*
X38769288Y39399529D01*
X38801500Y39602903D01*
X38801500Y39839098D01*
X38764553Y40072369D01*
X38691566Y40296997D01*
X38590498Y40495353D01*
X38584343Y40507433D01*
X38445517Y40698510D01*
X38278510Y40865517D01*
X38087433Y41004343D01*
X37876996Y41111567D01*
X37652368Y41184554D01*
X37419097Y41221500D01*
X37419092Y41221500D01*
X36582908Y41221500D01*
X36582903Y41221500D01*
X36349631Y41184554D01*
X36125003Y41111567D01*
X35914566Y41004343D01*
X35805550Y40925138D01*
X35723490Y40865517D01*
X35723488Y40865515D01*
X35723487Y40865515D01*
X35556485Y40698513D01*
X35468502Y40577414D01*
X35413172Y40534749D01*
X35368184Y40526300D01*
X31399679Y40526300D01*
X31244109Y40495356D01*
X31244105Y40495354D01*
X31244103Y40495354D01*
X31244102Y40495353D01*
X31201177Y40477573D01*
X31201175Y40477572D01*
X31097549Y40434650D01*
X31097540Y40434645D01*
X30965652Y40346520D01*
X30916130Y40296997D01*
X30853482Y40234349D01*
X29930981Y39311848D01*
X29869658Y39278363D01*
X29799966Y39283347D01*
X29744033Y39325219D01*
X29719616Y39390683D01*
X29719300Y39399529D01*
X29719300Y41089072D01*
X29738985Y41156111D01*
X29755619Y41176753D01*
X30958247Y42379381D01*
X31019570Y42412866D01*
X31045928Y42415700D01*
X35089865Y42415700D01*
X35156904Y42396015D01*
X35202659Y42343211D01*
X35208815Y42324612D01*
X35208871Y42324630D01*
X35266185Y42151669D01*
X35266187Y42151664D01*
X35294925Y42105072D01*
X35358288Y42002344D01*
X35482344Y41878288D01*
X35631666Y41786186D01*
X35798203Y41731001D01*
X35900991Y41720500D01*
X38101008Y41720501D01*
X38203797Y41731001D01*
X38370334Y41786186D01*
X38519656Y41878288D01*
X38643712Y42002344D01*
X38735814Y42151666D01*
X38790999Y42318203D01*
X38801500Y42420991D01*
X38801499Y44021008D01*
X38800958Y44026300D01*
X38790999Y44123797D01*
X38790998Y44123800D01*
X38735814Y44290334D01*
X38643712Y44439656D01*
X38519656Y44563712D01*
X38370334Y44655814D01*
X38203797Y44710999D01*
X38203795Y44711000D01*
X38101010Y44721500D01*
X35900998Y44721500D01*
X35900981Y44721499D01*
X35798203Y44711000D01*
X35798200Y44710999D01*
X35631668Y44655815D01*
X35631663Y44655813D01*
X35482342Y44563711D01*
X35358289Y44439658D01*
X35266187Y44290337D01*
X35266185Y44290332D01*
X35208871Y44117370D01*
X35207572Y44117801D01*
X35177840Y44062913D01*
X35116629Y44029223D01*
X35089865Y44026300D01*
X30746449Y44026300D01*
X30746429Y44026301D01*
X30740315Y44026301D01*
X30581684Y44026301D01*
X30581682Y44026301D01*
X30426108Y43995355D01*
X30426098Y43995352D01*
X30279553Y43934652D01*
X30279540Y43934645D01*
X30147652Y43846520D01*
X30091567Y43790435D01*
X30035482Y43734349D01*
X30035479Y43734346D01*
X28400654Y42099521D01*
X28400651Y42099518D01*
X28344565Y42043433D01*
X28288480Y41987348D01*
X28288478Y41987345D01*
X28243815Y41920501D01*
X28243815Y41920500D01*
X28200355Y41855459D01*
X28200348Y41855447D01*
X28139648Y41708902D01*
X28139645Y41708892D01*
X28108699Y41553318D01*
X28108699Y41388572D01*
X28108700Y41388551D01*
X28108700Y32714928D01*
X28089015Y32647889D01*
X28072381Y32627247D01*
X27877753Y32432619D01*
X27816430Y32399134D01*
X27790072Y32396300D01*
X24157685Y32396300D01*
X24145531Y32393883D01*
X24121342Y32391500D01*
X23296298Y32391500D01*
X23259432Y32388599D01*
X23259426Y32388598D01*
X23204175Y32372545D01*
X23169580Y32367621D01*
X23133429Y32367621D01*
X21953429Y32367621D01*
X17180000Y32367621D01*
X17180000Y32500000D01*
X16000000Y32500000D01*
X15993556Y32493557D01*
X15980315Y32448461D01*
X15927511Y32402706D01*
X15876000Y32391500D01*
X15052658Y32391500D01*
X15028468Y32393883D01*
X15016315Y32396300D01*
X15016314Y32396300D01*
X13019928Y32396300D01*
X12952889Y32415985D01*
X12932247Y32432619D01*
X12737619Y32627247D01*
X12704134Y32688570D01*
X12701300Y32714928D01*
X12701300Y42404550D01*
X12701301Y42404571D01*
X12701301Y42569318D01*
X12670354Y42724892D01*
X12670353Y42724893D01*
X12670353Y42724897D01*
X12654014Y42764344D01*
X12609651Y42871447D01*
X12609649Y42871451D01*
X12609648Y42871453D01*
X12533041Y42986103D01*
X12521518Y43003349D01*
X12409349Y43115518D01*
X12409345Y43115521D01*
X11032858Y44492008D01*
X11032838Y44492030D01*
X10916352Y44608516D01*
X10916348Y44608519D01*
X10784459Y44696645D01*
X10784446Y44696652D01*
X10637901Y44757352D01*
X10637891Y44757355D01*
X10482317Y44788301D01*
X10482315Y44788301D01*
X10323685Y44788301D01*
X10317571Y44788301D01*
X10317551Y44788300D01*
X5638135Y44788300D01*
X5571096Y44807985D01*
X5525341Y44860789D01*
X5519184Y44879389D01*
X5519129Y44879370D01*
X5501304Y44933159D01*
X5461814Y45052334D01*
X5369712Y45201656D01*
X5245656Y45325712D01*
X5096334Y45417814D01*
X4929797Y45472999D01*
X4929795Y45473000D01*
X4827010Y45483500D01*
X2626998Y45483500D01*
X2626981Y45483499D01*
X2524203Y45473000D01*
X2524200Y45472999D01*
X2357668Y45417815D01*
X2357663Y45417813D01*
X2208342Y45325711D01*
X2084289Y45201658D01*
X1992187Y45052337D01*
X1992186Y45052334D01*
X1937001Y44885797D01*
X1937001Y44885796D01*
X1937000Y44885796D01*
X1926500Y44783017D01*
X500500Y44783017D01*
X500500Y45875500D01*
X520185Y45942539D01*
X572989Y45988294D01*
X624500Y45999500D01*
X40875500Y45999500D01*
X40942539Y45979815D01*
G37*
%TD.AperFunction*%
%TA.AperFunction,NonConductor*%
G36*
X11382503Y31704185D02*
G01*
X11388981Y31698153D01*
X11749153Y31337981D01*
X11782638Y31276658D01*
X11777654Y31206966D01*
X11735782Y31151033D01*
X11670318Y31126616D01*
X11661472Y31126300D01*
X11495928Y31126300D01*
X11428889Y31145985D01*
X11408247Y31162619D01*
X11213619Y31357247D01*
X11198915Y31384175D01*
X11182323Y31409993D01*
X11181431Y31416194D01*
X11180134Y31418570D01*
X11177300Y31444928D01*
X11177300Y31610472D01*
X11196985Y31677511D01*
X11249789Y31723266D01*
X11318947Y31733210D01*
X11382503Y31704185D01*
G37*
%TD.AperFunction*%
%TA.AperFunction,NonConductor*%
G36*
X7964511Y21876015D02*
G01*
X8010266Y21823211D01*
X8020210Y21754053D01*
X7991185Y21690497D01*
X7985153Y21684019D01*
X7324981Y21023847D01*
X7263658Y20990362D01*
X7193966Y20995346D01*
X7138033Y21037218D01*
X7113616Y21102682D01*
X7113300Y21111528D01*
X7113300Y21277072D01*
X7132985Y21344111D01*
X7149619Y21364753D01*
X7644247Y21859381D01*
X7671174Y21874085D01*
X7696993Y21890677D01*
X7703193Y21891569D01*
X7705570Y21892866D01*
X7731928Y21895700D01*
X7897472Y21895700D01*
X7964511Y21876015D01*
G37*
%TD.AperFunction*%
%TA.AperFunction,NonConductor*%
G36*
X29517226Y31729143D02*
G01*
X29552034Y31726653D01*
X29552138Y31726575D01*
X29552268Y31726565D01*
X29580107Y31705638D01*
X29607967Y31684781D01*
X29608012Y31684660D01*
X29608117Y31684581D01*
X29620302Y31651709D01*
X29632384Y31619317D01*
X29632391Y31619096D01*
X29632402Y31619068D01*
X29632394Y31619033D01*
X29632700Y31610471D01*
X29632700Y31250300D01*
X29613015Y31183261D01*
X29560211Y31137506D01*
X29508700Y31126300D01*
X29148528Y31126300D01*
X29081489Y31145985D01*
X29035734Y31198789D01*
X29025790Y31267947D01*
X29054815Y31331503D01*
X29060847Y31337981D01*
X29299351Y31576486D01*
X29420701Y31697837D01*
X29421196Y31698329D01*
X29444621Y31711060D01*
X29442234Y31714880D01*
X29442242Y31714885D01*
X29444630Y31711064D01*
X29451913Y31715022D01*
X29482342Y31731637D01*
X29482471Y31731628D01*
X29482586Y31731690D01*
X29517226Y31729143D01*
G37*
%TD.AperFunction*%
%TA.AperFunction,NonConductor*%
G36*
X30605111Y20606015D02*
G01*
X30625753Y20589381D01*
X30866381Y20348753D01*
X30881084Y20321826D01*
X30897677Y20296007D01*
X30898568Y20289807D01*
X30899866Y20287430D01*
X30902700Y20261072D01*
X30902700Y20095528D01*
X30883015Y20028489D01*
X30830211Y19982734D01*
X30761053Y19972790D01*
X30697497Y20001815D01*
X30691019Y20007847D01*
X30284847Y20414019D01*
X30251362Y20475342D01*
X30256346Y20545034D01*
X30298218Y20600967D01*
X30363682Y20625384D01*
X30372528Y20625700D01*
X30538072Y20625700D01*
X30605111Y20606015D01*
G37*
%TD.AperFunction*%
M02*
